<?xml version="1.0" encoding="UTF-8" standalone="no"?>
<!DOCTYPE svg PUBLIC "-//W3C//DTD SVG 1.1//EN"
 "http://www.w3.org/Graphics/SVG/1.1/DTD/svg11.dtd">
<!-- Generated by graphviz version 2.43.0 (0)
 -->
<!-- Title: libmirai/public/libmirai/Messages/AppMessage.hpp Pages: 1 -->
<svg width="2928pt" height="317pt"
 viewBox="0.00 0.00 2928.11 317.00" xmlns="http://www.w3.org/2000/svg" xmlns:xlink="http://www.w3.org/1999/xlink">
<g id="graph0" class="graph" transform="scale(1 1) rotate(0) translate(4 313)">
<title>libmirai/public/libmirai/Messages/AppMessage.hpp</title>
<!-- Node1 -->
<g id="node1" class="node">
<title>Node1</title>
<g id="a_node1"><a xlink:title=" ">
<polygon fill="#bfbfbf" stroke="black" points="1742,-276.5 1742,-308.5 1915,-308.5 1915,-276.5 1742,-276.5"/>
<text text-anchor="start" x="1750" y="-295.7" font-family="-apple-system,BlinkMacSystemFont,'SegoeUI',Roboto,Oxygen,Ubuntu,Cantarell,'FiraSans','DroidSans','HelveticaNeue',sans-serif" font-size="11.00">libmirai/public/libmirai</text>
<text text-anchor="middle" x="1828.5" y="-283.7" font-family="-apple-system,BlinkMacSystemFont,'SegoeUI',Roboto,Oxygen,Ubuntu,Cantarell,'FiraSans','DroidSans','HelveticaNeue',sans-serif" font-size="11.00">/Messages/AppMessage.hpp</text>
</a>
</g>
</g>
<!-- Node2 -->
<g id="node2" class="node">
<title>Node2</title>
<g id="a_node2"><a xlink:href="AppMessage_8cpp.html" target="_top" xlink:title=" ">
<polygon fill="none" stroke="black" points="1547.5,-207.5 1547.5,-239.5 1719.5,-239.5 1719.5,-207.5 1547.5,-207.5"/>
<text text-anchor="start" x="1555.5" y="-226.7" font-family="-apple-system,BlinkMacSystemFont,'SegoeUI',Roboto,Oxygen,Ubuntu,Cantarell,'FiraSans','DroidSans','HelveticaNeue',sans-serif" font-size="11.00">libmirai/public/libmirai</text>
<text text-anchor="middle" x="1633.5" y="-214.7" font-family="-apple-system,BlinkMacSystemFont,'SegoeUI',Roboto,Oxygen,Ubuntu,Cantarell,'FiraSans','DroidSans','HelveticaNeue',sans-serif" font-size="11.00">/Messages/AppMessage.cpp</text>
</a>
</g>
</g>
<!-- Node1&#45;&gt;Node2 -->
<g id="edge1" class="edge">
<title>Node1&#45;&gt;Node2</title>
<path fill="none" stroke="midnightblue" d="M1775.06,-273.14C1744.4,-262.6 1706.37,-249.54 1677.45,-239.6"/>
<polygon fill="midnightblue" stroke="midnightblue" points="1774.14,-276.52 1784.74,-276.46 1776.42,-269.9 1774.14,-276.52"/>
</g>
<!-- Node3 -->
<g id="node3" class="node">
<title>Node3</title>
<g id="a_node3"><a xlink:href="MessageChain_8hpp.html" target="_top" xlink:title=" ">
<polygon fill="none" stroke="black" points="1737.5,-207.5 1737.5,-239.5 1919.5,-239.5 1919.5,-207.5 1737.5,-207.5"/>
<text text-anchor="start" x="1745.5" y="-226.7" font-family="-apple-system,BlinkMacSystemFont,'SegoeUI',Roboto,Oxygen,Ubuntu,Cantarell,'FiraSans','DroidSans','HelveticaNeue',sans-serif" font-size="11.00">libmirai/public/libmirai</text>
<text text-anchor="middle" x="1828.5" y="-214.7" font-family="-apple-system,BlinkMacSystemFont,'SegoeUI',Roboto,Oxygen,Ubuntu,Cantarell,'FiraSans','DroidSans','HelveticaNeue',sans-serif" font-size="11.00">/Messages/MessageChain.hpp</text>
</a>
</g>
</g>
<!-- Node1&#45;&gt;Node3 -->
<g id="edge2" class="edge">
<title>Node1&#45;&gt;Node3</title>
<path fill="none" stroke="midnightblue" d="M1828.5,-266.02C1828.5,-257.13 1828.5,-247.43 1828.5,-239.64"/>
<polygon fill="midnightblue" stroke="midnightblue" points="1825,-266.3 1828.5,-276.3 1832,-266.3 1825,-266.3"/>
</g>
<!-- Node32 -->
<g id="node18" class="node">
<title>Node32</title>
<g id="a_node18"><a xlink:href="Messages_8hpp.html" target="_top" xlink:title=" ">
<polygon fill="none" stroke="red" points="2607.5,-69.5 2607.5,-101.5 2765.5,-101.5 2765.5,-69.5 2607.5,-69.5"/>
<text text-anchor="start" x="2615.5" y="-88.7" font-family="-apple-system,BlinkMacSystemFont,'SegoeUI',Roboto,Oxygen,Ubuntu,Cantarell,'FiraSans','DroidSans','HelveticaNeue',sans-serif" font-size="11.00">libmirai/public/libmirai</text>
<text text-anchor="middle" x="2686.5" y="-76.7" font-family="-apple-system,BlinkMacSystemFont,'SegoeUI',Roboto,Oxygen,Ubuntu,Cantarell,'FiraSans','DroidSans','HelveticaNeue',sans-serif" font-size="11.00">/Messages/Messages.hpp</text>
</a>
</g>
</g>
<!-- Node1&#45;&gt;Node32 -->
<g id="edge32" class="edge">
<title>Node1&#45;&gt;Node32</title>
<path fill="none" stroke="midnightblue" d="M1925.33,-287.93C2178.21,-277.6 2843.44,-243.72 2908.5,-171 2954.28,-119.83 2846.6,-99.47 2765.72,-91.5"/>
<polygon fill="midnightblue" stroke="midnightblue" points="1924.91,-284.44 1915.06,-288.34 1925.19,-291.43 1924.91,-284.44"/>
</g>
<!-- Node4 -->
<g id="node4" class="node">
<title>Node4</title>
<g id="a_node4"><a xlink:href="Client_8hpp.html" target="_top" xlink:title=" ">
<polygon fill="none" stroke="red" points="1567,-69.5 1567,-101.5 1704,-101.5 1704,-69.5 1567,-69.5"/>
<text text-anchor="start" x="1575" y="-88.7" font-family="-apple-system,BlinkMacSystemFont,'SegoeUI',Roboto,Oxygen,Ubuntu,Cantarell,'FiraSans','DroidSans','HelveticaNeue',sans-serif" font-size="11.00">libmirai/public/libmirai</text>
<text text-anchor="middle" x="1635.5" y="-76.7" font-family="-apple-system,BlinkMacSystemFont,'SegoeUI',Roboto,Oxygen,Ubuntu,Cantarell,'FiraSans','DroidSans','HelveticaNeue',sans-serif" font-size="11.00">/Api/Client.hpp</text>
</a>
</g>
</g>
<!-- Node3&#45;&gt;Node4 -->
<g id="edge3" class="edge">
<title>Node3&#45;&gt;Node4</title>
<path fill="none" stroke="midnightblue" d="M1726.93,-207.28C1589.49,-201.86 524.44,-219.31 477.5,-171 467.28,-160.48 467.36,-148.6 477.5,-138 486.97,-128.1 1319.09,-97.75 1566.73,-88.93"/>
<polygon fill="midnightblue" stroke="midnightblue" points="1727.09,-210.79 1737.27,-207.88 1727.49,-203.81 1727.09,-210.79"/>
</g>
<!-- Node5 -->
<g id="node5" class="node">
<title>Node5</title>
<g id="a_node5"><a xlink:href="Client_8cpp.html" target="_top" xlink:title=" ">
<polygon fill="none" stroke="black" points="1832,-0.5 1832,-32.5 1969,-32.5 1969,-0.5 1832,-0.5"/>
<text text-anchor="start" x="1840" y="-19.7" font-family="-apple-system,BlinkMacSystemFont,'SegoeUI',Roboto,Oxygen,Ubuntu,Cantarell,'FiraSans','DroidSans','HelveticaNeue',sans-serif" font-size="11.00">libmirai/public/libmirai</text>
<text text-anchor="middle" x="1900.5" y="-7.7" font-family="-apple-system,BlinkMacSystemFont,'SegoeUI',Roboto,Oxygen,Ubuntu,Cantarell,'FiraSans','DroidSans','HelveticaNeue',sans-serif" font-size="11.00">/Api/Client.cpp</text>
</a>
</g>
</g>
<!-- Node3&#45;&gt;Node5 -->
<g id="edge5" class="edge">
<title>Node3&#45;&gt;Node5</title>
<path fill="none" stroke="midnightblue" d="M1929.96,-220.22C2080.37,-215.77 2348.03,-203.37 2377.5,-171 2496.25,-40.58 2127.7,-20.46 1969.24,-17.73"/>
<polygon fill="midnightblue" stroke="midnightblue" points="1929.68,-216.73 1919.79,-220.51 1929.88,-223.72 1929.68,-216.73"/>
</g>
<!-- Node8 -->
<g id="node6" class="node">
<title>Node8</title>
<g id="a_node6"><a xlink:href="CommandExecutedEvent_8hpp.html" target="_top" xlink:title=" ">
<polygon fill="none" stroke="red" points="487,-138.5 487,-170.5 710,-170.5 710,-138.5 487,-138.5"/>
<text text-anchor="start" x="495" y="-157.7" font-family="-apple-system,BlinkMacSystemFont,'SegoeUI',Roboto,Oxygen,Ubuntu,Cantarell,'FiraSans','DroidSans','HelveticaNeue',sans-serif" font-size="11.00">libmirai/public/libmirai</text>
<text text-anchor="middle" x="598.5" y="-145.7" font-family="-apple-system,BlinkMacSystemFont,'SegoeUI',Roboto,Oxygen,Ubuntu,Cantarell,'FiraSans','DroidSans','HelveticaNeue',sans-serif" font-size="11.00">/Events/CommandExecutedEvent.hpp</text>
</a>
</g>
</g>
<!-- Node3&#45;&gt;Node8 -->
<g id="edge6" class="edge">
<title>Node3&#45;&gt;Node8</title>
<path fill="none" stroke="midnightblue" d="M1727.31,-206.97C1279.63,-165.16 1162.88,-207.54 718.5,-171 715.78,-170.78 713.02,-170.54 710.25,-170.28"/>
<polygon fill="midnightblue" stroke="midnightblue" points="1726.99,-210.45 1737.27,-207.9 1727.64,-203.48 1726.99,-210.45"/>
</g>
<!-- Node11 -->
<g id="node7" class="node">
<title>Node11</title>
<g id="a_node7"><a xlink:href="FriendMessageEvent_8hpp.html" target="_top" xlink:title=" ">
<polygon fill="none" stroke="red" points="0,-138.5 0,-170.5 199,-170.5 199,-138.5 0,-138.5"/>
<text text-anchor="start" x="8" y="-157.7" font-family="-apple-system,BlinkMacSystemFont,'SegoeUI',Roboto,Oxygen,Ubuntu,Cantarell,'FiraSans','DroidSans','HelveticaNeue',sans-serif" font-size="11.00">libmirai/public/libmirai</text>
<text text-anchor="middle" x="99.5" y="-145.7" font-family="-apple-system,BlinkMacSystemFont,'SegoeUI',Roboto,Oxygen,Ubuntu,Cantarell,'FiraSans','DroidSans','HelveticaNeue',sans-serif" font-size="11.00">/Events/FriendMessageEvent.hpp</text>
</a>
</g>
</g>
<!-- Node3&#45;&gt;Node11 -->
<g id="edge7" class="edge">
<title>Node3&#45;&gt;Node11</title>
<path fill="none" stroke="midnightblue" d="M1726.82,-206.94C1053.18,-147.9 877.9,-226.84 207.5,-171 204.76,-170.77 201.99,-170.52 199.19,-170.25"/>
<polygon fill="midnightblue" stroke="midnightblue" points="1727,-210.47 1737.27,-207.86 1727.62,-203.49 1727,-210.47"/>
</g>
<!-- Node13 -->
<g id="node8" class="node">
<title>Node13</title>
<g id="a_node8"><a xlink:href="FriendSyncMessageEvent_8hpp.html" target="_top" xlink:title=" ">
<polygon fill="none" stroke="red" points="728,-138.5 728,-170.5 953,-170.5 953,-138.5 728,-138.5"/>
<text text-anchor="start" x="736" y="-157.7" font-family="-apple-system,BlinkMacSystemFont,'SegoeUI',Roboto,Oxygen,Ubuntu,Cantarell,'FiraSans','DroidSans','HelveticaNeue',sans-serif" font-size="11.00">libmirai/public/libmirai</text>
<text text-anchor="middle" x="840.5" y="-145.7" font-family="-apple-system,BlinkMacSystemFont,'SegoeUI',Roboto,Oxygen,Ubuntu,Cantarell,'FiraSans','DroidSans','HelveticaNeue',sans-serif" font-size="11.00">/Events/FriendSyncMessageEvent.hpp</text>
</a>
</g>
</g>
<!-- Node3&#45;&gt;Node13 -->
<g id="edge10" class="edge">
<title>Node3&#45;&gt;Node13</title>
<path fill="none" stroke="midnightblue" d="M1727.14,-206.94C1387.22,-173.35 1298.15,-200.41 961.5,-171 958.76,-170.76 955.98,-170.51 953.18,-170.24"/>
<polygon fill="midnightblue" stroke="midnightblue" points="1726.97,-210.44 1737.27,-207.95 1727.66,-203.47 1726.97,-210.44"/>
</g>
<!-- Node15 -->
<g id="node9" class="node">
<title>Node15</title>
<g id="a_node9"><a xlink:href="GroupMessageEvent_8hpp.html" target="_top" xlink:title=" ">
<polygon fill="none" stroke="red" points="1957,-138.5 1957,-170.5 2156,-170.5 2156,-138.5 1957,-138.5"/>
<text text-anchor="start" x="1965" y="-157.7" font-family="-apple-system,BlinkMacSystemFont,'SegoeUI',Roboto,Oxygen,Ubuntu,Cantarell,'FiraSans','DroidSans','HelveticaNeue',sans-serif" font-size="11.00">libmirai/public/libmirai</text>
<text text-anchor="middle" x="2056.5" y="-145.7" font-family="-apple-system,BlinkMacSystemFont,'SegoeUI',Roboto,Oxygen,Ubuntu,Cantarell,'FiraSans','DroidSans','HelveticaNeue',sans-serif" font-size="11.00">/Events/GroupMessageEvent.hpp</text>
</a>
</g>
</g>
<!-- Node3&#45;&gt;Node15 -->
<g id="edge11" class="edge">
<title>Node3&#45;&gt;Node15</title>
<path fill="none" stroke="midnightblue" d="M1889.59,-204.55C1925.68,-193.94 1970.86,-180.67 2005.11,-170.6"/>
<polygon fill="midnightblue" stroke="midnightblue" points="1888.28,-201.29 1879.67,-207.46 1890.25,-208 1888.28,-201.29"/>
</g>
<!-- Node17 -->
<g id="node10" class="node">
<title>Node17</title>
<g id="a_node10"><a xlink:href="GroupSyncMessageEvent_8hpp.html" target="_top" xlink:title=" ">
<polygon fill="none" stroke="red" points="971,-138.5 971,-170.5 1196,-170.5 1196,-138.5 971,-138.5"/>
<text text-anchor="start" x="979" y="-157.7" font-family="-apple-system,BlinkMacSystemFont,'SegoeUI',Roboto,Oxygen,Ubuntu,Cantarell,'FiraSans','DroidSans','HelveticaNeue',sans-serif" font-size="11.00">libmirai/public/libmirai</text>
<text text-anchor="middle" x="1083.5" y="-145.7" font-family="-apple-system,BlinkMacSystemFont,'SegoeUI',Roboto,Oxygen,Ubuntu,Cantarell,'FiraSans','DroidSans','HelveticaNeue',sans-serif" font-size="11.00">/Events/GroupSyncMessageEvent.hpp</text>
</a>
</g>
</g>
<!-- Node3&#45;&gt;Node17 -->
<g id="edge14" class="edge">
<title>Node3&#45;&gt;Node17</title>
<path fill="none" stroke="midnightblue" d="M1727.14,-206.91C1494.78,-181.45 1433.53,-193.52 1204.5,-171 1201.76,-170.73 1198.99,-170.45 1196.19,-170.16"/>
<polygon fill="midnightblue" stroke="midnightblue" points="1726.93,-210.41 1737.26,-208.03 1727.7,-203.45 1726.93,-210.41"/>
</g>
<!-- Node19 -->
<g id="node11" class="node">
<title>Node19</title>
<g id="a_node11"><a xlink:href="OtherClientMessageEvent_8hpp.html" target="_top" xlink:title=" ">
<polygon fill="none" stroke="red" points="1214,-138.5 1214,-170.5 1443,-170.5 1443,-138.5 1214,-138.5"/>
<text text-anchor="start" x="1222" y="-157.7" font-family="-apple-system,BlinkMacSystemFont,'SegoeUI',Roboto,Oxygen,Ubuntu,Cantarell,'FiraSans','DroidSans','HelveticaNeue',sans-serif" font-size="11.00">libmirai/public/libmirai</text>
<text text-anchor="middle" x="1328.5" y="-145.7" font-family="-apple-system,BlinkMacSystemFont,'SegoeUI',Roboto,Oxygen,Ubuntu,Cantarell,'FiraSans','DroidSans','HelveticaNeue',sans-serif" font-size="11.00">/Events/OtherClientMessageEvent.hpp</text>
</a>
</g>
</g>
<!-- Node3&#45;&gt;Node19 -->
<g id="edge15" class="edge">
<title>Node3&#45;&gt;Node19</title>
<path fill="none" stroke="midnightblue" d="M1727.51,-206.91C1678.78,-200.25 1543.2,-182.88 1443.11,-170.1"/>
<polygon fill="midnightblue" stroke="midnightblue" points="1727.11,-210.38 1737.5,-208.29 1728.07,-203.45 1727.11,-210.38"/>
</g>
<!-- Node21 -->
<g id="node12" class="node">
<title>Node21</title>
<g id="a_node12"><a xlink:href="StrangerMessageEvent_8hpp.html" target="_top" xlink:title=" ">
<polygon fill="none" stroke="red" points="217,-138.5 217,-170.5 430,-170.5 430,-138.5 217,-138.5"/>
<text text-anchor="start" x="225" y="-157.7" font-family="-apple-system,BlinkMacSystemFont,'SegoeUI',Roboto,Oxygen,Ubuntu,Cantarell,'FiraSans','DroidSans','HelveticaNeue',sans-serif" font-size="11.00">libmirai/public/libmirai</text>
<text text-anchor="middle" x="323.5" y="-145.7" font-family="-apple-system,BlinkMacSystemFont,'SegoeUI',Roboto,Oxygen,Ubuntu,Cantarell,'FiraSans','DroidSans','HelveticaNeue',sans-serif" font-size="11.00">/Events/StrangerMessageEvent.hpp</text>
</a>
</g>
</g>
<!-- Node3&#45;&gt;Node21 -->
<g id="edge16" class="edge">
<title>Node3&#45;&gt;Node21</title>
<path fill="none" stroke="midnightblue" d="M1727.17,-206.96C1158.24,-155.88 1010.33,-215.06 444.5,-171 439.75,-170.63 434.9,-170.21 430,-169.74"/>
<polygon fill="midnightblue" stroke="midnightblue" points="1727,-210.46 1737.27,-207.88 1727.63,-203.49 1727,-210.46"/>
</g>
<!-- Node23 -->
<g id="node13" class="node">
<title>Node23</title>
<g id="a_node13"><a xlink:href="StrangerSyncMessageEvent_8hpp.html" target="_top" xlink:title=" ">
<polygon fill="none" stroke="red" points="1461,-138.5 1461,-170.5 1700,-170.5 1700,-138.5 1461,-138.5"/>
<text text-anchor="start" x="1469" y="-157.7" font-family="-apple-system,BlinkMacSystemFont,'SegoeUI',Roboto,Oxygen,Ubuntu,Cantarell,'FiraSans','DroidSans','HelveticaNeue',sans-serif" font-size="11.00">libmirai/public/libmirai</text>
<text text-anchor="middle" x="1580.5" y="-145.7" font-family="-apple-system,BlinkMacSystemFont,'SegoeUI',Roboto,Oxygen,Ubuntu,Cantarell,'FiraSans','DroidSans','HelveticaNeue',sans-serif" font-size="11.00">/Events/StrangerSyncMessageEvent.hpp</text>
</a>
</g>
</g>
<!-- Node3&#45;&gt;Node23 -->
<g id="edge19" class="edge">
<title>Node3&#45;&gt;Node23</title>
<path fill="none" stroke="midnightblue" d="M1763.06,-204.82C1723.64,-194.17 1673.97,-180.75 1636.4,-170.6"/>
<polygon fill="midnightblue" stroke="midnightblue" points="1762.28,-208.23 1772.84,-207.46 1764.1,-201.48 1762.28,-208.23"/>
</g>
<!-- Node25 -->
<g id="node14" class="node">
<title>Node25</title>
<g id="a_node14"><a xlink:href="TempMessageEvent_8hpp.html" target="_top" xlink:title=" ">
<polygon fill="none" stroke="red" points="2174.5,-138.5 2174.5,-170.5 2368.5,-170.5 2368.5,-138.5 2174.5,-138.5"/>
<text text-anchor="start" x="2182.5" y="-157.7" font-family="-apple-system,BlinkMacSystemFont,'SegoeUI',Roboto,Oxygen,Ubuntu,Cantarell,'FiraSans','DroidSans','HelveticaNeue',sans-serif" font-size="11.00">libmirai/public/libmirai</text>
<text text-anchor="middle" x="2271.5" y="-145.7" font-family="-apple-system,BlinkMacSystemFont,'SegoeUI',Roboto,Oxygen,Ubuntu,Cantarell,'FiraSans','DroidSans','HelveticaNeue',sans-serif" font-size="11.00">/Events/TempMessageEvent.hpp</text>
</a>
</g>
</g>
<!-- Node3&#45;&gt;Node25 -->
<g id="edge20" class="edge">
<title>Node3&#45;&gt;Node25</title>
<path fill="none" stroke="midnightblue" d="M1929.93,-207.16C2003.29,-196.06 2101.84,-181.16 2174.22,-170.21"/>
<polygon fill="midnightblue" stroke="midnightblue" points="1929.12,-203.74 1919.75,-208.7 1930.16,-210.66 1929.12,-203.74"/>
</g>
<!-- Node27 -->
<g id="node15" class="node">
<title>Node27</title>
<g id="a_node15"><a xlink:href="TempSyncMessageEvent_8hpp.html" target="_top" xlink:title=" ">
<polygon fill="none" stroke="red" points="1718,-138.5 1718,-170.5 1939,-170.5 1939,-138.5 1718,-138.5"/>
<text text-anchor="start" x="1726" y="-157.7" font-family="-apple-system,BlinkMacSystemFont,'SegoeUI',Roboto,Oxygen,Ubuntu,Cantarell,'FiraSans','DroidSans','HelveticaNeue',sans-serif" font-size="11.00">libmirai/public/libmirai</text>
<text text-anchor="middle" x="1828.5" y="-145.7" font-family="-apple-system,BlinkMacSystemFont,'SegoeUI',Roboto,Oxygen,Ubuntu,Cantarell,'FiraSans','DroidSans','HelveticaNeue',sans-serif" font-size="11.00">/Events/TempSyncMessageEvent.hpp</text>
</a>
</g>
</g>
<!-- Node3&#45;&gt;Node27 -->
<g id="edge23" class="edge">
<title>Node3&#45;&gt;Node27</title>
<path fill="none" stroke="midnightblue" d="M1828.5,-197.02C1828.5,-188.13 1828.5,-178.43 1828.5,-170.64"/>
<polygon fill="midnightblue" stroke="midnightblue" points="1825,-197.3 1828.5,-207.3 1832,-197.3 1825,-197.3"/>
</g>
<!-- Node29 -->
<g id="node16" class="node">
<title>Node29</title>
<g id="a_node16"><a xlink:href="ForwardMessage_8hpp.html" target="_top" xlink:title=" ">
<polygon fill="none" stroke="red" points="2462.5,-138.5 2462.5,-170.5 2658.5,-170.5 2658.5,-138.5 2462.5,-138.5"/>
<text text-anchor="start" x="2470.5" y="-157.7" font-family="-apple-system,BlinkMacSystemFont,'SegoeUI',Roboto,Oxygen,Ubuntu,Cantarell,'FiraSans','DroidSans','HelveticaNeue',sans-serif" font-size="11.00">libmirai/public/libmirai</text>
<text text-anchor="middle" x="2560.5" y="-145.7" font-family="-apple-system,BlinkMacSystemFont,'SegoeUI',Roboto,Oxygen,Ubuntu,Cantarell,'FiraSans','DroidSans','HelveticaNeue',sans-serif" font-size="11.00">/Messages/ForwardMessage.hpp</text>
</a>
</g>
</g>
<!-- Node3&#45;&gt;Node29 -->
<g id="edge24" class="edge">
<title>Node3&#45;&gt;Node29</title>
<path fill="none" stroke="midnightblue" d="M1929.67,-215.8C2052.55,-207.27 2266.03,-191.19 2448.5,-171 2452.99,-170.5 2457.57,-169.97 2462.2,-169.41"/>
<polygon fill="midnightblue" stroke="midnightblue" points="1929.26,-212.32 1919.53,-216.5 1929.74,-219.3 1929.26,-212.32"/>
</g>
<!-- Node31 -->
<g id="node17" class="node">
<title>Node31</title>
<g id="a_node17"><a xlink:href="MessageChain_8cpp.html" target="_top" xlink:title=" ">
<polygon fill="none" stroke="black" points="2469.5,-0.5 2469.5,-32.5 2651.5,-32.5 2651.5,-0.5 2469.5,-0.5"/>
<text text-anchor="start" x="2477.5" y="-19.7" font-family="-apple-system,BlinkMacSystemFont,'SegoeUI',Roboto,Oxygen,Ubuntu,Cantarell,'FiraSans','DroidSans','HelveticaNeue',sans-serif" font-size="11.00">libmirai/public/libmirai</text>
<text text-anchor="middle" x="2560.5" y="-7.7" font-family="-apple-system,BlinkMacSystemFont,'SegoeUI',Roboto,Oxygen,Ubuntu,Cantarell,'FiraSans','DroidSans','HelveticaNeue',sans-serif" font-size="11.00">/Messages/MessageChain.cpp</text>
</a>
</g>
</g>
<!-- Node3&#45;&gt;Node31 -->
<g id="edge28" class="edge">
<title>Node3&#45;&gt;Node31</title>
<path fill="none" stroke="midnightblue" d="M1929.62,-221.49C2071.34,-218.71 2320.86,-208.47 2402.5,-171 2437.69,-154.85 2516.07,-68.2 2547.29,-32.69"/>
<polygon fill="midnightblue" stroke="midnightblue" points="1929.54,-217.99 1919.6,-221.68 1929.67,-224.99 1929.54,-217.99"/>
</g>
<!-- Node3&#45;&gt;Node32 -->
<g id="edge29" class="edge">
<title>Node3&#45;&gt;Node32</title>
<path fill="none" stroke="midnightblue" d="M1929.69,-222.98C2140.65,-223.03 2612.5,-217.84 2667.5,-171 2687.42,-154.04 2689.04,-121.1 2688.03,-101.73"/>
<polygon fill="midnightblue" stroke="midnightblue" points="1929.54,-219.48 1919.54,-222.97 1929.54,-226.48 1929.54,-219.48"/>
</g>
<!-- Node33 -->
<g id="node19" class="node">
<title>Node33</title>
<g id="a_node19"><a xlink:href="QuoteMessage_8hpp.html" target="_top" xlink:title=" ">
<polygon fill="none" stroke="red" points="2714,-138.5 2714,-170.5 2899,-170.5 2899,-138.5 2714,-138.5"/>
<text text-anchor="start" x="2722" y="-157.7" font-family="-apple-system,BlinkMacSystemFont,'SegoeUI',Roboto,Oxygen,Ubuntu,Cantarell,'FiraSans','DroidSans','HelveticaNeue',sans-serif" font-size="11.00">libmirai/public/libmirai</text>
<text text-anchor="middle" x="2806.5" y="-145.7" font-family="-apple-system,BlinkMacSystemFont,'SegoeUI',Roboto,Oxygen,Ubuntu,Cantarell,'FiraSans','DroidSans','HelveticaNeue',sans-serif" font-size="11.00">/Messages/QuoteMessage.hpp</text>
</a>
</g>
</g>
<!-- Node3&#45;&gt;Node33 -->
<g id="edge30" class="edge">
<title>Node3&#45;&gt;Node33</title>
<path fill="none" stroke="midnightblue" d="M1929.72,-219.36C2092.49,-213.66 2422.32,-199.5 2700.5,-171 2704.85,-170.55 2709.29,-170.06 2713.77,-169.53"/>
<polygon fill="midnightblue" stroke="midnightblue" points="1929.6,-215.86 1919.72,-219.7 1929.84,-222.85 1929.6,-215.86"/>
</g>
<!-- Node4&#45;&gt;Node5 -->
<g id="edge4" class="edge">
<title>Node4&#45;&gt;Node5</title>
<path fill="none" stroke="midnightblue" d="M1704.89,-66.95C1747.1,-56.28 1800.45,-42.8 1840.77,-32.6"/>
<polygon fill="midnightblue" stroke="midnightblue" points="1703.81,-63.62 1694.97,-69.46 1705.52,-70.41 1703.81,-63.62"/>
</g>
<!-- Node11&#45;&gt;Node4 -->
<g id="edge8" class="edge">
<title>Node11&#45;&gt;Node4</title>
<path fill="none" stroke="midnightblue" d="M209.29,-137.9C736.87,-91.26 1362.19,-86.6 1566.97,-86.39"/>
<polygon fill="midnightblue" stroke="midnightblue" points="208.85,-134.42 199.2,-138.8 209.47,-141.4 208.85,-134.42"/>
</g>
<!-- Node11&#45;&gt;Node5 -->
<g id="edge9" class="edge">
<title>Node11&#45;&gt;Node5</title>
<path fill="none" stroke="midnightblue" d="M209.54,-137.76C497.05,-101.81 570.69,-91.22 856.5,-69 1223.55,-40.46 1664.5,-24.81 1831.7,-19.55"/>
<polygon fill="midnightblue" stroke="midnightblue" points="208.71,-134.34 199.22,-139.05 209.58,-141.28 208.71,-134.34"/>
</g>
<!-- Node15&#45;&gt;Node4 -->
<g id="edge12" class="edge">
<title>Node15&#45;&gt;Node4</title>
<path fill="none" stroke="midnightblue" d="M1951.76,-136.83C1874.38,-124.52 1771.24,-108.1 1704.12,-97.42"/>
<polygon fill="midnightblue" stroke="midnightblue" points="1951.59,-140.35 1962.02,-138.46 1952.69,-133.44 1951.59,-140.35"/>
</g>
<!-- Node15&#45;&gt;Node5 -->
<g id="edge13" class="edge">
<title>Node15&#45;&gt;Node5</title>
<path fill="none" stroke="midnightblue" d="M2031.64,-131.82C1999.83,-104.1 1945.56,-56.78 1917.87,-32.64"/>
<polygon fill="midnightblue" stroke="midnightblue" points="2029.37,-134.49 2039.21,-138.43 2033.97,-129.22 2029.37,-134.49"/>
</g>
<!-- Node21&#45;&gt;Node4 -->
<g id="edge17" class="edge">
<title>Node21&#45;&gt;Node4</title>
<path fill="none" stroke="midnightblue" d="M440.02,-138.39C441.52,-138.26 443.02,-138.13 444.5,-138 664.89,-119.15 1347.56,-95.88 1566.9,-88.71"/>
<polygon fill="midnightblue" stroke="midnightblue" points="439.63,-134.92 430.01,-139.35 440.3,-141.88 439.63,-134.92"/>
</g>
<!-- Node21&#45;&gt;Node5 -->
<g id="edge18" class="edge">
<title>Node21&#45;&gt;Node5</title>
<path fill="none" stroke="midnightblue" d="M440.14,-140.62C449.06,-139.71 457.92,-138.83 466.5,-138 991.23,-87.52 1625.14,-38.39 1831.79,-22.68"/>
<polygon fill="midnightblue" stroke="midnightblue" points="439.65,-137.15 430.06,-141.66 440.37,-144.12 439.65,-137.15"/>
</g>
<!-- Node25&#45;&gt;Node4 -->
<g id="edge21" class="edge">
<title>Node25&#45;&gt;Node4</title>
<path fill="none" stroke="midnightblue" d="M2164.42,-138.03C1992.23,-117.38 1803.14,-100.53 1704.09,-92.14"/>
<polygon fill="midnightblue" stroke="midnightblue" points="2164.08,-141.51 2174.42,-139.24 2164.91,-134.56 2164.08,-141.51"/>
</g>
<!-- Node25&#45;&gt;Node5 -->
<g id="edge22" class="edge">
<title>Node25&#45;&gt;Node5</title>
<path fill="none" stroke="midnightblue" d="M2220.77,-134.9C2146.55,-107.7 2009.8,-57.57 1941.52,-32.54"/>
<polygon fill="midnightblue" stroke="midnightblue" points="2219.79,-138.27 2230.38,-138.43 2222.19,-131.7 2219.79,-138.27"/>
</g>
<!-- Node29&#45;&gt;Node31 -->
<g id="edge25" class="edge">
<title>Node29&#45;&gt;Node31</title>
<path fill="none" stroke="midnightblue" d="M2560.5,-128.2C2560.5,-100.13 2560.5,-55.76 2560.5,-32.64"/>
<polygon fill="midnightblue" stroke="midnightblue" points="2557,-128.43 2560.5,-138.43 2564,-128.43 2557,-128.43"/>
</g>
<!-- Node29&#45;&gt;Node32 -->
<g id="edge26" class="edge">
<title>Node29&#45;&gt;Node32</title>
<path fill="none" stroke="midnightblue" d="M2597.86,-133.64C2617.06,-123.42 2640.11,-111.17 2657.88,-101.72"/>
<polygon fill="midnightblue" stroke="midnightblue" points="2595.96,-130.68 2588.78,-138.46 2599.25,-136.86 2595.96,-130.68"/>
</g>
<!-- Node32&#45;&gt;Node31 -->
<g id="edge27" class="edge">
<title>Node32&#45;&gt;Node31</title>
<path fill="none" stroke="midnightblue" d="M2649.14,-64.64C2629.94,-54.42 2606.89,-42.17 2589.12,-32.72"/>
<polygon fill="midnightblue" stroke="midnightblue" points="2647.75,-67.86 2658.22,-69.46 2651.04,-61.68 2647.75,-67.86"/>
</g>
<!-- Node33&#45;&gt;Node32 -->
<g id="edge31" class="edge">
<title>Node33&#45;&gt;Node32</title>
<path fill="none" stroke="midnightblue" d="M2770.42,-133.36C2752.23,-123.2 2730.53,-111.08 2713.76,-101.72"/>
<polygon fill="midnightblue" stroke="midnightblue" points="2769.13,-136.64 2779.57,-138.46 2772.54,-130.53 2769.13,-136.64"/>
</g>
</g>
</svg>
