<?xml version="1.0" encoding="UTF-8" standalone="no"?>
<!DOCTYPE svg PUBLIC "-//W3C//DTD SVG 1.1//EN"
 "http://www.w3.org/Graphics/SVG/1.1/DTD/svg11.dtd">
<!-- Generated by graphviz version 3.0.0 (20220413.0242)
 -->
<!-- Title: libmirai/public/libmirai/Messages/AppMessage.cpp Pages: 1 -->
<svg width="420pt" height="212pt"
 viewBox="0.00 0.00 419.50 212.00" xmlns="http://www.w3.org/2000/svg" xmlns:xlink="http://www.w3.org/1999/xlink">
<g id="graph0" class="graph" transform="scale(1 1) rotate(0) translate(4 208)">
<title>libmirai/public/libmirai/Messages/AppMessage.cpp</title>
<!-- Node1 -->
<g id="node1" class="node">
<title>Node1</title>
<g id="a_node1"><a xlink:title=" ">
<polygon fill="#bfbfbf" stroke="black" points="120,-171.5 120,-203.5 275,-203.5 275,-171.5 120,-171.5"/>
<text text-anchor="start" x="128" y="-190.7" font-family="-apple-system, BlinkMacSystemFont, 'Segoe UI', Roboto, Oxygen, Ubuntu, Cantarell, 'Fira Sans', 'Droid Sans', 'Helvetica Neue', sans-serif" font-size="11.00">libmirai/public/libmirai</text>
<text text-anchor="middle" x="197.5" y="-178.7" font-family="-apple-system, BlinkMacSystemFont, 'Segoe UI', Roboto, Oxygen, Ubuntu, Cantarell, 'Fira Sans', 'Droid Sans', 'Helvetica Neue', sans-serif" font-size="11.00">/Messages/AppMessage.cpp</text>
</a>
</g>
</g>
<!-- Node2 -->
<g id="node2" class="node">
<title>Node2</title>
<g id="a_node2"><a xlink:href="AppMessage_8hpp.html" target="_top" xlink:title=" ">
<polygon fill="none" stroke="black" points="24,-114.5 24,-134.5 125,-134.5 125,-114.5 24,-114.5"/>
<text text-anchor="middle" x="74.5" y="-121.7" font-family="-apple-system, BlinkMacSystemFont, 'Segoe UI', Roboto, Oxygen, Ubuntu, Cantarell, 'Fira Sans', 'Droid Sans', 'Helvetica Neue', sans-serif" font-size="11.00">AppMessage.hpp</text>
</a>
</g>
</g>
<!-- Node1&#45;&gt;Node2 -->
<g id="edge1" class="edge">
<title>Node1&#45;&gt;Node2</title>
<path fill="none" stroke="midnightblue" d="M167.1,-171.42C147.13,-161.52 121.24,-148.68 101.91,-139.1"/>
<polygon fill="midnightblue" stroke="midnightblue" points="103.25,-135.85 92.74,-134.55 100.14,-142.12 103.25,-135.85"/>
</g>
<!-- Node8 -->
<g id="node6" class="node">
<title>Node8</title>
<g id="a_node6"><a xlink:title=" ">
<polygon fill="none" stroke="#bfbfbf" points="143.5,-114.5 143.5,-134.5 251.5,-134.5 251.5,-114.5 143.5,-114.5"/>
<text text-anchor="middle" x="197.5" y="-121.7" font-family="-apple-system, BlinkMacSystemFont, 'Segoe UI', Roboto, Oxygen, Ubuntu, Cantarell, 'Fira Sans', 'Droid Sans', 'Helvetica Neue', sans-serif" font-size="11.00">nlohmann/json.hpp</text>
</a>
</g>
</g>
<!-- Node1&#45;&gt;Node8 -->
<g id="edge7" class="edge">
<title>Node1&#45;&gt;Node8</title>
<path fill="none" stroke="midnightblue" d="M197.5,-171.42C197.5,-163.38 197.5,-153.39 197.5,-144.78"/>
<polygon fill="midnightblue" stroke="midnightblue" points="201,-144.55 197.5,-134.55 194,-144.55 201,-144.55"/>
</g>
<!-- Node9 -->
<g id="node7" class="node">
<title>Node9</title>
<g id="a_node7"><a xlink:title=" ">
<polygon fill="none" stroke="#bfbfbf" points="269.5,-114.5 269.5,-134.5 411.5,-134.5 411.5,-114.5 269.5,-114.5"/>
<text text-anchor="middle" x="340.5" y="-121.7" font-family="-apple-system, BlinkMacSystemFont, 'Segoe UI', Roboto, Oxygen, Ubuntu, Cantarell, 'Fira Sans', 'Droid Sans', 'Helvetica Neue', sans-serif" font-size="11.00">libmirai/Utils/Common.hpp</text>
</a>
</g>
</g>
<!-- Node1&#45;&gt;Node9 -->
<g id="edge8" class="edge">
<title>Node1&#45;&gt;Node9</title>
<path fill="none" stroke="midnightblue" d="M232.85,-171.42C256.48,-161.34 287.26,-148.21 309.85,-138.57"/>
<polygon fill="midnightblue" stroke="midnightblue" points="311.47,-141.69 319.29,-134.55 308.72,-135.25 311.47,-141.69"/>
</g>
<!-- Node3 -->
<g id="node3" class="node">
<title>Node3</title>
<g id="a_node3"><a xlink:title=" ">
<polygon fill="none" stroke="#bfbfbf" points="0,-0.5 0,-20.5 43,-20.5 43,-0.5 0,-0.5"/>
<text text-anchor="middle" x="21.5" y="-7.7" font-family="-apple-system, BlinkMacSystemFont, 'Segoe UI', Roboto, Oxygen, Ubuntu, Cantarell, 'Fira Sans', 'Droid Sans', 'Helvetica Neue', sans-serif" font-size="11.00">string</text>
</a>
</g>
</g>
<!-- Node2&#45;&gt;Node3 -->
<g id="edge2" class="edge">
<title>Node2&#45;&gt;Node3</title>
<path fill="none" stroke="midnightblue" d="M53.36,-114.37C38.95,-106.89 21.01,-94.79 12.5,-78 4.95,-63.09 8.69,-44.01 13.43,-30.12"/>
<polygon fill="midnightblue" stroke="midnightblue" points="16.75,-31.25 17.09,-20.66 10.22,-28.72 16.75,-31.25"/>
</g>
<!-- Node4 -->
<g id="node4" class="node">
<title>Node4</title>
<g id="a_node4"><a xlink:title=" ">
<polygon fill="none" stroke="#bfbfbf" points="75,-0.5 75,-20.5 206,-20.5 206,-0.5 75,-0.5"/>
<text text-anchor="middle" x="140.5" y="-7.7" font-family="-apple-system, BlinkMacSystemFont, 'Segoe UI', Roboto, Oxygen, Ubuntu, Cantarell, 'Fira Sans', 'Droid Sans', 'Helvetica Neue', sans-serif" font-size="11.00">nlohmann/json_fwd.hpp</text>
</a>
</g>
</g>
<!-- Node2&#45;&gt;Node4 -->
<g id="edge3" class="edge">
<title>Node2&#45;&gt;Node4</title>
<path fill="none" stroke="midnightblue" d="M95.04,-114.37C109.35,-106.83 127.43,-94.65 136.5,-78 144.36,-63.57 144.73,-44.69 143.5,-30.73"/>
<polygon fill="midnightblue" stroke="midnightblue" points="146.97,-30.27 142.29,-20.77 140.02,-31.12 146.97,-30.27"/>
</g>
<!-- Node5 -->
<g id="node5" class="node">
<title>Node5</title>
<g id="a_node5"><a xlink:href="MessageBase_8hpp.html" target="_top" xlink:title=" ">
<polygon fill="none" stroke="red" points="21.5,-57.5 21.5,-77.5 127.5,-77.5 127.5,-57.5 21.5,-57.5"/>
<text text-anchor="middle" x="74.5" y="-64.7" font-family="-apple-system, BlinkMacSystemFont, 'Segoe UI', Roboto, Oxygen, Ubuntu, Cantarell, 'Fira Sans', 'Droid Sans', 'Helvetica Neue', sans-serif" font-size="11.00">MessageBase.hpp</text>
</a>
</g>
</g>
<!-- Node2&#45;&gt;Node5 -->
<g id="edge4" class="edge">
<title>Node2&#45;&gt;Node5</title>
<path fill="none" stroke="midnightblue" d="M74.5,-114.42C74.5,-107.22 74.5,-96.9 74.5,-87.86"/>
<polygon fill="midnightblue" stroke="midnightblue" points="78,-87.78 74.5,-77.78 71,-87.78 78,-87.78"/>
</g>
<!-- Node5&#45;&gt;Node3 -->
<g id="edge5" class="edge">
<title>Node5&#45;&gt;Node3</title>
<path fill="none" stroke="midnightblue" d="M65.75,-57.42C58.12,-49.5 46.87,-37.82 37.62,-28.23"/>
<polygon fill="midnightblue" stroke="midnightblue" points="39.9,-25.55 30.44,-20.78 34.86,-30.41 39.9,-25.55"/>
</g>
<!-- Node5&#45;&gt;Node4 -->
<g id="edge6" class="edge">
<title>Node5&#45;&gt;Node4</title>
<path fill="none" stroke="midnightblue" d="M85.4,-57.42C95.18,-49.27 109.76,-37.12 121.46,-27.37"/>
<polygon fill="midnightblue" stroke="midnightblue" points="123.92,-29.87 129.36,-20.78 119.44,-24.49 123.92,-29.87"/>
</g>
</g>
</svg>
