<?xml version="1.0" encoding="UTF-8" standalone="no"?>
<!DOCTYPE svg PUBLIC "-//W3C//DTD SVG 1.1//EN"
 "http://www.w3.org/Graphics/SVG/1.1/DTD/svg11.dtd">
<!-- Generated by graphviz version 3.0.0 (20220413.0242)
 -->
<!-- Title: libmirai/public/libmirai/Messages/AppMessage.hpp Pages: 1 -->
<svg width="401pt" height="212pt"
 viewBox="0.00 0.00 400.50 212.00" xmlns="http://www.w3.org/2000/svg" xmlns:xlink="http://www.w3.org/1999/xlink">
<g id="graph0" class="graph" transform="scale(1 1) rotate(0) translate(4 208)">
<title>libmirai/public/libmirai/Messages/AppMessage.hpp</title>
<!-- Node1 -->
<g id="node1" class="node">
<title>Node1</title>
<g id="a_node1"><a xlink:title=" ">
<polygon fill="#bfbfbf" stroke="black" points="0,-171.5 0,-203.5 155,-203.5 155,-171.5 0,-171.5"/>
<text text-anchor="start" x="8" y="-190.7" font-family="-apple-system, BlinkMacSystemFont, 'Segoe UI', Roboto, Oxygen, Ubuntu, Cantarell, 'Fira Sans', 'Droid Sans', 'Helvetica Neue', sans-serif" font-size="11.00">libmirai/public/libmirai</text>
<text text-anchor="middle" x="77.5" y="-178.7" font-family="-apple-system, BlinkMacSystemFont, 'Segoe UI', Roboto, Oxygen, Ubuntu, Cantarell, 'Fira Sans', 'Droid Sans', 'Helvetica Neue', sans-serif" font-size="11.00">/Messages/AppMessage.hpp</text>
</a>
</g>
</g>
<!-- Node2 -->
<g id="node2" class="node">
<title>Node2</title>
<g id="a_node2"><a xlink:title=" ">
<polygon fill="none" stroke="#bfbfbf" points="57,-57.5 57,-77.5 100,-77.5 100,-57.5 57,-57.5"/>
<text text-anchor="middle" x="78.5" y="-64.7" font-family="-apple-system, BlinkMacSystemFont, 'Segoe UI', Roboto, Oxygen, Ubuntu, Cantarell, 'Fira Sans', 'Droid Sans', 'Helvetica Neue', sans-serif" font-size="11.00">string</text>
</a>
</g>
</g>
<!-- Node1&#45;&gt;Node2 -->
<g id="edge1" class="edge">
<title>Node1&#45;&gt;Node2</title>
<path fill="none" stroke="midnightblue" d="M79.38,-171.2C80.53,-160.97 81.91,-147.2 82.5,-135 82.95,-125.68 82.91,-123.32 82.5,-114 82.12,-105.29 81.33,-95.66 80.55,-87.51"/>
<polygon fill="midnightblue" stroke="midnightblue" points="84.03,-87.14 79.53,-77.55 77.06,-87.85 84.03,-87.14"/>
</g>
<!-- Node3 -->
<g id="node3" class="node">
<title>Node3</title>
<g id="a_node3"><a xlink:title=" ">
<polygon fill="none" stroke="#bfbfbf" points="33,-114.5 33,-134.5 74,-134.5 74,-114.5 33,-114.5"/>
<text text-anchor="middle" x="53.5" y="-121.7" font-family="-apple-system, BlinkMacSystemFont, 'Segoe UI', Roboto, Oxygen, Ubuntu, Cantarell, 'Fira Sans', 'Droid Sans', 'Helvetica Neue', sans-serif" font-size="11.00">utility</text>
</a>
</g>
</g>
<!-- Node1&#45;&gt;Node3 -->
<g id="edge2" class="edge">
<title>Node1&#45;&gt;Node3</title>
<path fill="none" stroke="midnightblue" d="M71.57,-171.42C68.29,-163.1 64.21,-152.71 60.75,-143.92"/>
<polygon fill="midnightblue" stroke="midnightblue" points="63.98,-142.57 57.06,-134.55 57.46,-145.13 63.98,-142.57"/>
</g>
<!-- Node4 -->
<g id="node4" class="node">
<title>Node4</title>
<g id="a_node4"><a xlink:title=" ">
<polygon fill="none" stroke="#bfbfbf" points="63,-0.5 63,-20.5 194,-20.5 194,-0.5 63,-0.5"/>
<text text-anchor="middle" x="128.5" y="-7.7" font-family="-apple-system, BlinkMacSystemFont, 'Segoe UI', Roboto, Oxygen, Ubuntu, Cantarell, 'Fira Sans', 'Droid Sans', 'Helvetica Neue', sans-serif" font-size="11.00">nlohmann/json_fwd.hpp</text>
</a>
</g>
</g>
<!-- Node1&#45;&gt;Node4 -->
<g id="edge3" class="edge">
<title>Node1&#45;&gt;Node4</title>
<path fill="none" stroke="midnightblue" d="M54.28,-171.32C42.69,-162.31 29.82,-149.77 23.5,-135 19.83,-126.42 21.65,-123.15 23.5,-114 28.94,-87.06 29.19,-77.51 47.5,-57 60.04,-42.95 77.99,-32.25 93.81,-24.77"/>
<polygon fill="midnightblue" stroke="midnightblue" points="95.61,-27.8 103.32,-20.53 92.76,-21.41 95.61,-27.8"/>
</g>
<!-- Node5 -->
<g id="node5" class="node">
<title>Node5</title>
<g id="a_node5"><a xlink:href="MessageBase_8hpp.html" target="_top" xlink:title=" ">
<polygon fill="none" stroke="black" points="130.5,-114.5 130.5,-134.5 236.5,-134.5 236.5,-114.5 130.5,-114.5"/>
<text text-anchor="middle" x="183.5" y="-121.7" font-family="-apple-system, BlinkMacSystemFont, 'Segoe UI', Roboto, Oxygen, Ubuntu, Cantarell, 'Fira Sans', 'Droid Sans', 'Helvetica Neue', sans-serif" font-size="11.00">MessageBase.hpp</text>
</a>
</g>
</g>
<!-- Node1&#45;&gt;Node5 -->
<g id="edge4" class="edge">
<title>Node1&#45;&gt;Node5</title>
<path fill="none" stroke="midnightblue" d="M103.7,-171.42C120.51,-161.75 142.2,-149.27 158.73,-139.76"/>
<polygon fill="midnightblue" stroke="midnightblue" points="160.86,-142.57 167.78,-134.55 157.37,-136.5 160.86,-142.57"/>
</g>
<!-- Node5&#45;&gt;Node2 -->
<g id="edge6" class="edge">
<title>Node5&#45;&gt;Node2</title>
<path fill="none" stroke="midnightblue" d="M166.16,-114.42C149.52,-105.7 124.15,-92.41 104.98,-82.37"/>
<polygon fill="midnightblue" stroke="midnightblue" points="106.35,-79.14 95.86,-77.6 103.1,-85.34 106.35,-79.14"/>
</g>
<!-- Node5&#45;&gt;Node4 -->
<g id="edge7" class="edge">
<title>Node5&#45;&gt;Node4</title>
<path fill="none" stroke="midnightblue" d="M174.59,-114.5C166.47,-105.82 154.67,-91.98 147.5,-78 139.8,-62.98 134.82,-44.39 131.9,-30.69"/>
<polygon fill="midnightblue" stroke="midnightblue" points="135.27,-29.66 129.92,-20.52 128.4,-31 135.27,-29.66"/>
</g>
<!-- Node6 -->
<g id="node6" class="node">
<title>Node6</title>
<g id="a_node6"><a xlink:title=" ">
<polygon fill="none" stroke="#bfbfbf" points="336.5,-57.5 336.5,-77.5 392.5,-77.5 392.5,-57.5 336.5,-57.5"/>
<text text-anchor="middle" x="364.5" y="-64.7" font-family="-apple-system, BlinkMacSystemFont, 'Segoe UI', Roboto, Oxygen, Ubuntu, Cantarell, 'Fira Sans', 'Droid Sans', 'Helvetica Neue', sans-serif" font-size="11.00">memory</text>
</a>
</g>
</g>
<!-- Node5&#45;&gt;Node6 -->
<g id="edge5" class="edge">
<title>Node5&#45;&gt;Node6</title>
<path fill="none" stroke="midnightblue" d="M213.39,-114.42C244.33,-105.02 292.76,-90.3 326.42,-80.07"/>
<polygon fill="midnightblue" stroke="midnightblue" points="327.8,-83.31 336.36,-77.05 325.77,-76.61 327.8,-83.31"/>
</g>
<!-- Node7 -->
<g id="node7" class="node">
<title>Node7</title>
<g id="a_node7"><a xlink:href="Serializable_8hpp.html" target="_top" xlink:title=" ">
<polygon fill="none" stroke="black" points="156.5,-57.5 156.5,-77.5 318.5,-77.5 318.5,-57.5 156.5,-57.5"/>
<text text-anchor="middle" x="237.5" y="-64.7" font-family="-apple-system, BlinkMacSystemFont, 'Segoe UI', Roboto, Oxygen, Ubuntu, Cantarell, 'Fira Sans', 'Droid Sans', 'Helvetica Neue', sans-serif" font-size="11.00">libmirai/Types/Serializable.hpp</text>
</a>
</g>
</g>
<!-- Node5&#45;&gt;Node7 -->
<g id="edge8" class="edge">
<title>Node5&#45;&gt;Node7</title>
<path fill="none" stroke="midnightblue" d="M192.42,-114.42C200.26,-106.42 211.88,-94.59 221.36,-84.94"/>
<polygon fill="midnightblue" stroke="midnightblue" points="223.88,-87.37 228.39,-77.78 218.89,-82.46 223.88,-87.37"/>
</g>
<!-- Node7&#45;&gt;Node4 -->
<g id="edge9" class="edge">
<title>Node7&#45;&gt;Node4</title>
<path fill="none" stroke="midnightblue" d="M219.5,-57.42C202.14,-48.66 175.65,-35.29 155.72,-25.23"/>
<polygon fill="midnightblue" stroke="midnightblue" points="157.03,-21.98 146.53,-20.6 153.88,-28.23 157.03,-21.98"/>
</g>
</g>
</svg>
