<?xml version="1.0" encoding="UTF-8" standalone="no"?>
<!DOCTYPE svg PUBLIC "-//W3C//DTD SVG 1.1//EN"
 "http://www.w3.org/Graphics/SVG/1.1/DTD/svg11.dtd">
<!-- Generated by graphviz version 2.43.0 (0)
 -->
<!-- Title: libmirai/public/libmirai/Messages/AtMessage.cpp Pages: 1 -->
<svg width="642pt" height="212pt"
 viewBox="0.00 0.00 641.54 212.00" xmlns="http://www.w3.org/2000/svg" xmlns:xlink="http://www.w3.org/1999/xlink">
<g id="graph0" class="graph" transform="scale(1 1) rotate(0) translate(4 208)">
<title>libmirai/public/libmirai/Messages/AtMessage.cpp</title>
<!-- Node1 -->
<g id="node1" class="node">
<title>Node1</title>
<g id="a_node1"><a xlink:title=" ">
<polygon fill="#bfbfbf" stroke="black" points="257.04,-171.5 257.04,-203.5 420.04,-203.5 420.04,-171.5 257.04,-171.5"/>
<text text-anchor="start" x="265.04" y="-190.7" font-family="-apple-system,BlinkMacSystemFont,'SegoeUI',Roboto,Oxygen,Ubuntu,Cantarell,'FiraSans','DroidSans','HelveticaNeue',sans-serif" font-size="11.00">libmirai/public/libmirai</text>
<text text-anchor="middle" x="338.54" y="-178.7" font-family="-apple-system,BlinkMacSystemFont,'SegoeUI',Roboto,Oxygen,Ubuntu,Cantarell,'FiraSans','DroidSans','HelveticaNeue',sans-serif" font-size="11.00">/Messages/AtMessage.cpp</text>
</a>
</g>
</g>
<!-- Node2 -->
<g id="node2" class="node">
<title>Node2</title>
<g id="a_node2"><a xlink:href="AtMessage_8hpp.html" target="_top" xlink:title=" ">
<polygon fill="none" stroke="black" points="138.04,-114.5 138.04,-134.5 239.04,-134.5 239.04,-114.5 138.04,-114.5"/>
<text text-anchor="middle" x="188.54" y="-121.7" font-family="-apple-system,BlinkMacSystemFont,'SegoeUI',Roboto,Oxygen,Ubuntu,Cantarell,'FiraSans','DroidSans','HelveticaNeue',sans-serif" font-size="11.00">AtMessage.hpp</text>
</a>
</g>
</g>
<!-- Node1&#45;&gt;Node2 -->
<g id="edge1" class="edge">
<title>Node1&#45;&gt;Node2</title>
<path fill="none" stroke="midnightblue" d="M301.47,-171.42C276.45,-161.25 243.81,-147.97 220.06,-138.32"/>
<polygon fill="midnightblue" stroke="midnightblue" points="221.37,-135.07 210.79,-134.55 218.73,-141.56 221.37,-135.07"/>
</g>
<!-- Node11 -->
<g id="node7" class="node">
<title>Node11</title>
<g id="a_node7"><a xlink:title=" ">
<polygon fill="none" stroke="#bfbfbf" points="257.04,-114.5 257.04,-134.5 314.04,-134.5 314.04,-114.5 257.04,-114.5"/>
<text text-anchor="middle" x="285.54" y="-121.7" font-family="-apple-system,BlinkMacSystemFont,'SegoeUI',Roboto,Oxygen,Ubuntu,Cantarell,'FiraSans','DroidSans','HelveticaNeue',sans-serif" font-size="11.00">cassert</text>
</a>
</g>
</g>
<!-- Node1&#45;&gt;Node11 -->
<g id="edge10" class="edge">
<title>Node1&#45;&gt;Node11</title>
<path fill="none" stroke="midnightblue" d="M325.44,-171.42C317.74,-162.56 308,-151.35 300.07,-142.22"/>
<polygon fill="midnightblue" stroke="midnightblue" points="302.6,-139.8 293.4,-134.55 297.32,-144.39 302.6,-139.8"/>
</g>
<!-- Node12 -->
<g id="node8" class="node">
<title>Node12</title>
<g id="a_node8"><a xlink:title=" ">
<polygon fill="none" stroke="#bfbfbf" points="332.04,-114.5 332.04,-134.5 453.04,-134.5 453.04,-114.5 332.04,-114.5"/>
<text text-anchor="middle" x="392.54" y="-121.7" font-family="-apple-system,BlinkMacSystemFont,'SegoeUI',Roboto,Oxygen,Ubuntu,Cantarell,'FiraSans','DroidSans','HelveticaNeue',sans-serif" font-size="11.00">nlohmann/json.hpp</text>
</a>
</g>
</g>
<!-- Node1&#45;&gt;Node12 -->
<g id="edge11" class="edge">
<title>Node1&#45;&gt;Node12</title>
<path fill="none" stroke="midnightblue" d="M351.89,-171.42C359.74,-162.56 369.66,-151.35 377.75,-142.22"/>
<polygon fill="midnightblue" stroke="midnightblue" points="380.53,-144.35 384.54,-134.55 375.29,-139.71 380.53,-144.35"/>
</g>
<!-- Node13 -->
<g id="node9" class="node">
<title>Node13</title>
<g id="a_node9"><a xlink:title=" ">
<polygon fill="none" stroke="#bfbfbf" points="471.54,-114.5 471.54,-134.5 633.54,-134.5 633.54,-114.5 471.54,-114.5"/>
<text text-anchor="middle" x="552.54" y="-121.7" font-family="-apple-system,BlinkMacSystemFont,'SegoeUI',Roboto,Oxygen,Ubuntu,Cantarell,'FiraSans','DroidSans','HelveticaNeue',sans-serif" font-size="11.00">libmirai/Utils/Common.hpp</text>
</a>
</g>
</g>
<!-- Node1&#45;&gt;Node13 -->
<g id="edge12" class="edge">
<title>Node1&#45;&gt;Node13</title>
<path fill="none" stroke="midnightblue" d="M391.17,-171.5C428.11,-160.97 476.84,-147.08 511.05,-137.33"/>
<polygon fill="midnightblue" stroke="midnightblue" points="512.07,-140.68 520.73,-134.57 510.15,-133.94 512.07,-140.68"/>
</g>
<!-- Node3 -->
<g id="node3" class="node">
<title>Node3</title>
<g id="a_node3"><a xlink:title=" ">
<polygon fill="none" stroke="#bfbfbf" points="81.54,-0.5 81.54,-20.5 129.54,-20.5 129.54,-0.5 81.54,-0.5"/>
<text text-anchor="middle" x="105.54" y="-7.7" font-family="-apple-system,BlinkMacSystemFont,'SegoeUI',Roboto,Oxygen,Ubuntu,Cantarell,'FiraSans','DroidSans','HelveticaNeue',sans-serif" font-size="11.00">string</text>
</a>
</g>
</g>
<!-- Node2&#45;&gt;Node3 -->
<g id="edge2" class="edge">
<title>Node2&#45;&gt;Node3</title>
<path fill="none" stroke="midnightblue" d="M137.9,-117.87C89.55,-111.33 21.73,-98.7 5.54,-78 -16.17,-50.22 34.43,-30.13 71.29,-19.68"/>
<polygon fill="midnightblue" stroke="midnightblue" points="72.51,-22.98 81.25,-17 70.69,-16.22 72.51,-22.98"/>
</g>
<!-- Node4 -->
<g id="node4" class="node">
<title>Node4</title>
<g id="a_node4"><a xlink:title=" ">
<polygon fill="none" stroke="#bfbfbf" points="199.54,-0.5 199.54,-20.5 345.54,-20.5 345.54,-0.5 199.54,-0.5"/>
<text text-anchor="middle" x="272.54" y="-7.7" font-family="-apple-system,BlinkMacSystemFont,'SegoeUI',Roboto,Oxygen,Ubuntu,Cantarell,'FiraSans','DroidSans','HelveticaNeue',sans-serif" font-size="11.00">nlohmann/json_fwd.hpp</text>
</a>
</g>
</g>
<!-- Node2&#45;&gt;Node4 -->
<g id="edge3" class="edge">
<title>Node2&#45;&gt;Node4</title>
<path fill="none" stroke="midnightblue" d="M239.25,-114.88C278.22,-107.1 327.38,-94.37 339.54,-78 354.63,-57.7 327.19,-37.72 303.01,-25.04"/>
<polygon fill="midnightblue" stroke="midnightblue" points="304.51,-21.88 294,-20.55 301.39,-28.14 304.51,-21.88"/>
</g>
<!-- Node5 -->
<g id="node5" class="node">
<title>Node5</title>
<g id="a_node5"><a xlink:href="BasicTypes_8hpp.html" target="_top" xlink:title=" ">
<polygon fill="none" stroke="red" points="15.04,-57.5 15.04,-77.5 196.04,-77.5 196.04,-57.5 15.04,-57.5"/>
<text text-anchor="middle" x="105.54" y="-64.7" font-family="-apple-system,BlinkMacSystemFont,'SegoeUI',Roboto,Oxygen,Ubuntu,Cantarell,'FiraSans','DroidSans','HelveticaNeue',sans-serif" font-size="11.00">libmirai/Types/BasicTypes.hpp</text>
</a>
</g>
</g>
<!-- Node2&#45;&gt;Node5 -->
<g id="edge4" class="edge">
<title>Node2&#45;&gt;Node5</title>
<path fill="none" stroke="midnightblue" d="M174.84,-114.42C162.1,-105.98 142.9,-93.26 127.94,-83.34"/>
<polygon fill="midnightblue" stroke="midnightblue" points="129.54,-80.2 119.27,-77.6 125.67,-86.04 129.54,-80.2"/>
</g>
<!-- Node9 -->
<g id="node6" class="node">
<title>Node9</title>
<g id="a_node6"><a xlink:href="MessageBase_8hpp.html" target="_top" xlink:title=" ">
<polygon fill="none" stroke="red" points="214.54,-57.5 214.54,-77.5 330.54,-77.5 330.54,-57.5 214.54,-57.5"/>
<text text-anchor="middle" x="272.54" y="-64.7" font-family="-apple-system,BlinkMacSystemFont,'SegoeUI',Roboto,Oxygen,Ubuntu,Cantarell,'FiraSans','DroidSans','HelveticaNeue',sans-serif" font-size="11.00">MessageBase.hpp</text>
</a>
</g>
</g>
<!-- Node2&#45;&gt;Node9 -->
<g id="edge7" class="edge">
<title>Node2&#45;&gt;Node9</title>
<path fill="none" stroke="midnightblue" d="M202.41,-114.42C215.3,-105.98 234.73,-93.26 249.88,-83.34"/>
<polygon fill="midnightblue" stroke="midnightblue" points="252.2,-86 258.65,-77.6 248.37,-80.15 252.2,-86"/>
</g>
<!-- Node5&#45;&gt;Node3 -->
<g id="edge5" class="edge">
<title>Node5&#45;&gt;Node3</title>
<path fill="none" stroke="midnightblue" d="M105.54,-57.42C105.54,-50.22 105.54,-39.9 105.54,-30.86"/>
<polygon fill="midnightblue" stroke="midnightblue" points="109.04,-30.78 105.54,-20.78 102.04,-30.78 109.04,-30.78"/>
</g>
<!-- Node5&#45;&gt;Node4 -->
<g id="edge6" class="edge">
<title>Node5&#45;&gt;Node4</title>
<path fill="none" stroke="midnightblue" d="M133.12,-57.42C161.12,-48.19 204.66,-33.86 235.63,-23.66"/>
<polygon fill="midnightblue" stroke="midnightblue" points="236.8,-26.96 245.2,-20.5 234.61,-20.31 236.8,-26.96"/>
</g>
<!-- Node9&#45;&gt;Node3 -->
<g id="edge8" class="edge">
<title>Node9&#45;&gt;Node3</title>
<path fill="none" stroke="midnightblue" d="M244.97,-57.42C215.96,-47.86 170.29,-32.82 139.18,-22.58"/>
<polygon fill="midnightblue" stroke="midnightblue" points="140.23,-19.24 129.63,-19.43 138.04,-25.89 140.23,-19.24"/>
</g>
<!-- Node9&#45;&gt;Node4 -->
<g id="edge9" class="edge">
<title>Node9&#45;&gt;Node4</title>
<path fill="none" stroke="midnightblue" d="M272.54,-57.42C272.54,-50.22 272.54,-39.9 272.54,-30.86"/>
<polygon fill="midnightblue" stroke="midnightblue" points="276.04,-30.78 272.54,-20.78 269.04,-30.78 276.04,-30.78"/>
</g>
</g>
</svg>
