<?xml version="1.0" encoding="UTF-8" standalone="no"?>
<!DOCTYPE svg PUBLIC "-//W3C//DTD SVG 1.1//EN"
 "http://www.w3.org/Graphics/SVG/1.1/DTD/svg11.dtd">
<!-- Generated by graphviz version 2.43.0 (0)
 -->
<!-- Title: libmirai/public/libmirai/Messages/AtMessage.hpp Pages: 1 -->
<svg width="565pt" height="212pt"
 viewBox="0.00 0.00 564.94 212.00" xmlns="http://www.w3.org/2000/svg" xmlns:xlink="http://www.w3.org/1999/xlink">
<g id="graph0" class="graph" transform="scale(1 1) rotate(0) translate(4 208)">
<title>libmirai/public/libmirai/Messages/AtMessage.hpp</title>
<!-- Node1 -->
<g id="node1" class="node">
<title>Node1</title>
<g id="a_node1"><a xlink:title=" ">
<polygon fill="#bfbfbf" stroke="black" points="174.94,-171.5 174.94,-203.5 338.94,-203.5 338.94,-171.5 174.94,-171.5"/>
<text text-anchor="start" x="182.94" y="-190.7" font-family="-apple-system,BlinkMacSystemFont,'SegoeUI',Roboto,Oxygen,Ubuntu,Cantarell,'FiraSans','DroidSans','HelveticaNeue',sans-serif" font-size="11.00">libmirai/public/libmirai</text>
<text text-anchor="middle" x="256.94" y="-178.7" font-family="-apple-system,BlinkMacSystemFont,'SegoeUI',Roboto,Oxygen,Ubuntu,Cantarell,'FiraSans','DroidSans','HelveticaNeue',sans-serif" font-size="11.00">/Messages/AtMessage.hpp</text>
</a>
</g>
</g>
<!-- Node2 -->
<g id="node2" class="node">
<title>Node2</title>
<g id="a_node2"><a xlink:title=" ">
<polygon fill="none" stroke="#bfbfbf" points="390.94,-57.5 390.94,-77.5 438.94,-77.5 438.94,-57.5 390.94,-57.5"/>
<text text-anchor="middle" x="414.94" y="-64.7" font-family="-apple-system,BlinkMacSystemFont,'SegoeUI',Roboto,Oxygen,Ubuntu,Cantarell,'FiraSans','DroidSans','HelveticaNeue',sans-serif" font-size="11.00">string</text>
</a>
</g>
</g>
<!-- Node1&#45;&gt;Node2 -->
<g id="edge1" class="edge">
<title>Node1&#45;&gt;Node2</title>
<path fill="none" stroke="midnightblue" d="M275.09,-171.36C293.23,-156.4 322.07,-133.04 347.94,-114 362.47,-103.3 379.28,-91.89 392.42,-83.17"/>
<polygon fill="midnightblue" stroke="midnightblue" points="394.44,-86.03 400.86,-77.61 390.59,-80.19 394.44,-86.03"/>
</g>
<!-- Node3 -->
<g id="node3" class="node">
<title>Node3</title>
<g id="a_node3"><a xlink:title=" ">
<polygon fill="none" stroke="#bfbfbf" points="147.94,-0.5 147.94,-20.5 293.94,-20.5 293.94,-0.5 147.94,-0.5"/>
<text text-anchor="middle" x="220.94" y="-7.7" font-family="-apple-system,BlinkMacSystemFont,'SegoeUI',Roboto,Oxygen,Ubuntu,Cantarell,'FiraSans','DroidSans','HelveticaNeue',sans-serif" font-size="11.00">nlohmann/json_fwd.hpp</text>
</a>
</g>
</g>
<!-- Node1&#45;&gt;Node3 -->
<g id="edge2" class="edge">
<title>Node1&#45;&gt;Node3</title>
<path fill="none" stroke="midnightblue" d="M174.68,-178.81C112.85,-167.9 33.87,-141.56 3.94,-78 -0.04,-69.56 -1.95,-64.25 3.94,-57 20.86,-36.16 83.78,-24.52 137.54,-18.24"/>
<polygon fill="midnightblue" stroke="midnightblue" points="138.26,-21.68 147.81,-17.09 137.48,-14.73 138.26,-21.68"/>
</g>
<!-- Node4 -->
<g id="node4" class="node">
<title>Node4</title>
<g id="a_node4"><a xlink:href="BasicTypes_8hpp.html" target="_top" xlink:title=" ">
<polygon fill="none" stroke="black" points="82.44,-114.5 82.44,-134.5 263.44,-134.5 263.44,-114.5 82.44,-114.5"/>
<text text-anchor="middle" x="172.94" y="-121.7" font-family="-apple-system,BlinkMacSystemFont,'SegoeUI',Roboto,Oxygen,Ubuntu,Cantarell,'FiraSans','DroidSans','HelveticaNeue',sans-serif" font-size="11.00">libmirai/Types/BasicTypes.hpp</text>
</a>
</g>
</g>
<!-- Node1&#45;&gt;Node4 -->
<g id="edge3" class="edge">
<title>Node1&#45;&gt;Node4</title>
<path fill="none" stroke="midnightblue" d="M236.17,-171.42C223.22,-162.02 206.62,-149.96 193.68,-140.56"/>
<polygon fill="midnightblue" stroke="midnightblue" points="195.54,-137.59 185.39,-134.55 191.43,-143.25 195.54,-137.59"/>
</g>
<!-- Node8 -->
<g id="node8" class="node">
<title>Node8</title>
<g id="a_node8"><a xlink:href="MessageBase_8hpp.html" target="_top" xlink:title=" ">
<polygon fill="none" stroke="black" points="356.94,-114.5 356.94,-134.5 472.94,-134.5 472.94,-114.5 356.94,-114.5"/>
<text text-anchor="middle" x="414.94" y="-121.7" font-family="-apple-system,BlinkMacSystemFont,'SegoeUI',Roboto,Oxygen,Ubuntu,Cantarell,'FiraSans','DroidSans','HelveticaNeue',sans-serif" font-size="11.00">MessageBase.hpp</text>
</a>
</g>
</g>
<!-- Node1&#45;&gt;Node8 -->
<g id="edge10" class="edge">
<title>Node1&#45;&gt;Node8</title>
<path fill="none" stroke="midnightblue" d="M295.99,-171.42C322.45,-161.21 357.03,-147.86 382.08,-138.19"/>
<polygon fill="midnightblue" stroke="midnightblue" points="383.44,-141.41 391.51,-134.55 380.92,-134.88 383.44,-141.41"/>
</g>
<!-- Node4&#45;&gt;Node2 -->
<g id="edge6" class="edge">
<title>Node4&#45;&gt;Node2</title>
<path fill="none" stroke="midnightblue" d="M217.74,-114.47C259.98,-105.78 324.98,-91.93 380.94,-78 381.04,-77.98 381.14,-77.95 381.24,-77.92"/>
<polygon fill="midnightblue" stroke="midnightblue" points="382.04,-81.33 390.84,-75.42 380.28,-74.56 382.04,-81.33"/>
</g>
<!-- Node4&#45;&gt;Node3 -->
<g id="edge7" class="edge">
<title>Node4&#45;&gt;Node3</title>
<path fill="none" stroke="midnightblue" d="M172.17,-114.44C171.43,-101.21 171.43,-76.09 179.94,-57 184.92,-45.81 193.72,-35.48 201.89,-27.5"/>
<polygon fill="midnightblue" stroke="midnightblue" points="204.39,-29.96 209.39,-20.62 199.66,-24.8 204.39,-29.96"/>
</g>
<!-- Node5 -->
<g id="node5" class="node">
<title>Node5</title>
<g id="a_node5"><a xlink:title=" ">
<polygon fill="none" stroke="#bfbfbf" points="12.94,-57.5 12.94,-77.5 66.94,-77.5 66.94,-57.5 12.94,-57.5"/>
<text text-anchor="middle" x="39.94" y="-64.7" font-family="-apple-system,BlinkMacSystemFont,'SegoeUI',Roboto,Oxygen,Ubuntu,Cantarell,'FiraSans','DroidSans','HelveticaNeue',sans-serif" font-size="11.00">chrono</text>
</a>
</g>
</g>
<!-- Node4&#45;&gt;Node5 -->
<g id="edge4" class="edge">
<title>Node4&#45;&gt;Node5</title>
<path fill="none" stroke="midnightblue" d="M150.97,-114.42C129.22,-105.42 95.69,-91.56 71.17,-81.42"/>
<polygon fill="midnightblue" stroke="midnightblue" points="72.51,-78.18 61.93,-77.6 69.83,-84.65 72.51,-78.18"/>
</g>
<!-- Node6 -->
<g id="node6" class="node">
<title>Node6</title>
<g id="a_node6"><a xlink:title=" ">
<polygon fill="none" stroke="#bfbfbf" points="85.44,-57.5 85.44,-77.5 132.44,-77.5 132.44,-57.5 85.44,-57.5"/>
<text text-anchor="middle" x="108.94" y="-64.7" font-family="-apple-system,BlinkMacSystemFont,'SegoeUI',Roboto,Oxygen,Ubuntu,Cantarell,'FiraSans','DroidSans','HelveticaNeue',sans-serif" font-size="11.00">ctime</text>
</a>
</g>
</g>
<!-- Node4&#45;&gt;Node6 -->
<g id="edge5" class="edge">
<title>Node4&#45;&gt;Node6</title>
<path fill="none" stroke="midnightblue" d="M162.37,-114.42C152.88,-106.27 138.75,-94.12 127.4,-84.37"/>
<polygon fill="midnightblue" stroke="midnightblue" points="129.6,-81.64 119.73,-77.78 125.04,-86.95 129.6,-81.64"/>
</g>
<!-- Node7 -->
<g id="node7" class="node">
<title>Node7</title>
<g id="a_node7"><a xlink:href="Serializable_8hpp.html" target="_top" xlink:title=" ">
<polygon fill="none" stroke="black" points="189.44,-57.5 189.44,-77.5 372.44,-77.5 372.44,-57.5 189.44,-57.5"/>
<text text-anchor="middle" x="280.94" y="-64.7" font-family="-apple-system,BlinkMacSystemFont,'SegoeUI',Roboto,Oxygen,Ubuntu,Cantarell,'FiraSans','DroidSans','HelveticaNeue',sans-serif" font-size="11.00">libmirai/Types/Serializable.hpp</text>
</a>
</g>
</g>
<!-- Node4&#45;&gt;Node7 -->
<g id="edge8" class="edge">
<title>Node4&#45;&gt;Node7</title>
<path fill="none" stroke="midnightblue" d="M190.77,-114.42C207.97,-105.66 234.22,-92.29 253.97,-82.23"/>
<polygon fill="midnightblue" stroke="midnightblue" points="255.75,-85.25 263.08,-77.6 252.58,-79.01 255.75,-85.25"/>
</g>
<!-- Node7&#45;&gt;Node3 -->
<g id="edge9" class="edge">
<title>Node7&#45;&gt;Node3</title>
<path fill="none" stroke="midnightblue" d="M271.03,-57.42C262.22,-49.35 249.14,-37.36 238.56,-27.65"/>
<polygon fill="midnightblue" stroke="midnightblue" points="240.8,-24.96 231.06,-20.78 236.07,-30.12 240.8,-24.96"/>
</g>
<!-- Node8&#45;&gt;Node2 -->
<g id="edge12" class="edge">
<title>Node8&#45;&gt;Node2</title>
<path fill="none" stroke="midnightblue" d="M414.94,-114.42C414.94,-107.22 414.94,-96.9 414.94,-87.86"/>
<polygon fill="midnightblue" stroke="midnightblue" points="418.44,-87.78 414.94,-77.78 411.44,-87.78 418.44,-87.78"/>
</g>
<!-- Node8&#45;&gt;Node3 -->
<g id="edge13" class="edge">
<title>Node8&#45;&gt;Node3</title>
<path fill="none" stroke="midnightblue" d="M425.82,-114.14C440.35,-100.53 462.64,-74.94 447.94,-57 429.76,-34.82 361.33,-23.23 304.31,-17.32"/>
<polygon fill="midnightblue" stroke="midnightblue" points="304.47,-13.81 294.17,-16.31 303.78,-20.78 304.47,-13.81"/>
</g>
<!-- Node8&#45;&gt;Node7 -->
<g id="edge14" class="edge">
<title>Node8&#45;&gt;Node7</title>
<path fill="none" stroke="midnightblue" d="M392.81,-114.42C370.89,-105.42 337.11,-91.56 312.41,-81.42"/>
<polygon fill="midnightblue" stroke="midnightblue" points="313.68,-78.15 303.1,-77.6 311.02,-84.63 313.68,-78.15"/>
</g>
<!-- Node9 -->
<g id="node9" class="node">
<title>Node9</title>
<g id="a_node9"><a xlink:title=" ">
<polygon fill="none" stroke="#bfbfbf" points="494.94,-57.5 494.94,-77.5 556.94,-77.5 556.94,-57.5 494.94,-57.5"/>
<text text-anchor="middle" x="525.94" y="-64.7" font-family="-apple-system,BlinkMacSystemFont,'SegoeUI',Roboto,Oxygen,Ubuntu,Cantarell,'FiraSans','DroidSans','HelveticaNeue',sans-serif" font-size="11.00">memory</text>
</a>
</g>
</g>
<!-- Node8&#45;&gt;Node9 -->
<g id="edge11" class="edge">
<title>Node8&#45;&gt;Node9</title>
<path fill="none" stroke="midnightblue" d="M433.27,-114.42C451.02,-105.62 478.17,-92.17 498.5,-82.1"/>
<polygon fill="midnightblue" stroke="midnightblue" points="500.17,-85.17 507.58,-77.6 497.07,-78.9 500.17,-85.17"/>
</g>
</g>
</svg>
