<?xml version="1.0" encoding="UTF-8" standalone="no"?>
<!DOCTYPE svg PUBLIC "-//W3C//DTD SVG 1.1//EN"
 "http://www.w3.org/Graphics/SVG/1.1/DTD/svg11.dtd">
<!-- Generated by graphviz version 3.0.0 (20220413.0242)
 -->
<!-- Title: libmirai/public/libmirai/Messages/AudioMessage.cpp Pages: 1 -->
<svg width="523pt" height="212pt"
 viewBox="0.00 0.00 523.22 212.00" xmlns="http://www.w3.org/2000/svg" xmlns:xlink="http://www.w3.org/1999/xlink">
<g id="graph0" class="graph" transform="scale(1 1) rotate(0) translate(4 208)">
<title>libmirai/public/libmirai/Messages/AudioMessage.cpp</title>
<!-- Node1 -->
<g id="node1" class="node">
<title>Node1</title>
<g id="a_node1"><a xlink:title=" ">
<polygon fill="#bfbfbf" stroke="black" points="219.72,-171.5 219.72,-203.5 382.72,-203.5 382.72,-171.5 219.72,-171.5"/>
<text text-anchor="start" x="227.72" y="-190.7" font-family="-apple-system, BlinkMacSystemFont, 'Segoe UI', Roboto, Oxygen, Ubuntu, Cantarell, 'Fira Sans', 'Droid Sans', 'Helvetica Neue', sans-serif" font-size="11.00">libmirai/public/libmirai</text>
<text text-anchor="middle" x="301.22" y="-178.7" font-family="-apple-system, BlinkMacSystemFont, 'Segoe UI', Roboto, Oxygen, Ubuntu, Cantarell, 'Fira Sans', 'Droid Sans', 'Helvetica Neue', sans-serif" font-size="11.00">/Messages/AudioMessage.cpp</text>
</a>
</g>
</g>
<!-- Node2 -->
<g id="node2" class="node">
<title>Node2</title>
<g id="a_node2"><a xlink:href="AudioMessage_8hpp.html" target="_top" xlink:title=" ">
<polygon fill="none" stroke="black" points="119.72,-114.5 119.72,-134.5 228.72,-134.5 228.72,-114.5 119.72,-114.5"/>
<text text-anchor="middle" x="174.22" y="-121.7" font-family="-apple-system, BlinkMacSystemFont, 'Segoe UI', Roboto, Oxygen, Ubuntu, Cantarell, 'Fira Sans', 'Droid Sans', 'Helvetica Neue', sans-serif" font-size="11.00">AudioMessage.hpp</text>
</a>
</g>
</g>
<!-- Node1&#45;&gt;Node2 -->
<g id="edge1" class="edge">
<title>Node1&#45;&gt;Node2</title>
<path fill="none" stroke="midnightblue" d="M269.83,-171.42C249.12,-161.48 222.24,-148.56 202.25,-138.96"/>
<polygon fill="midnightblue" stroke="midnightblue" points="203.58,-135.72 193.05,-134.55 200.55,-142.03 203.58,-135.72"/>
</g>
<!-- Node13 -->
<g id="node7" class="node">
<title>Node13</title>
<g id="a_node7"><a xlink:title=" ">
<polygon fill="none" stroke="#bfbfbf" points="247.22,-114.5 247.22,-134.5 355.22,-134.5 355.22,-114.5 247.22,-114.5"/>
<text text-anchor="middle" x="301.22" y="-121.7" font-family="-apple-system, BlinkMacSystemFont, 'Segoe UI', Roboto, Oxygen, Ubuntu, Cantarell, 'Fira Sans', 'Droid Sans', 'Helvetica Neue', sans-serif" font-size="11.00">nlohmann/json.hpp</text>
</a>
</g>
</g>
<!-- Node1&#45;&gt;Node13 -->
<g id="edge10" class="edge">
<title>Node1&#45;&gt;Node13</title>
<path fill="none" stroke="midnightblue" d="M301.22,-171.42C301.22,-163.38 301.22,-153.39 301.22,-144.78"/>
<polygon fill="midnightblue" stroke="midnightblue" points="304.72,-144.55 301.22,-134.55 297.72,-144.55 304.72,-144.55"/>
</g>
<!-- Node14 -->
<g id="node8" class="node">
<title>Node14</title>
<g id="a_node8"><a xlink:title=" ">
<polygon fill="none" stroke="#bfbfbf" points="373.22,-114.5 373.22,-134.5 515.22,-134.5 515.22,-114.5 373.22,-114.5"/>
<text text-anchor="middle" x="444.22" y="-121.7" font-family="-apple-system, BlinkMacSystemFont, 'Segoe UI', Roboto, Oxygen, Ubuntu, Cantarell, 'Fira Sans', 'Droid Sans', 'Helvetica Neue', sans-serif" font-size="11.00">libmirai/Utils/Common.hpp</text>
</a>
</g>
</g>
<!-- Node1&#45;&gt;Node14 -->
<g id="edge11" class="edge">
<title>Node1&#45;&gt;Node14</title>
<path fill="none" stroke="midnightblue" d="M336.57,-171.42C360.2,-161.34 390.98,-148.21 413.57,-138.57"/>
<polygon fill="midnightblue" stroke="midnightblue" points="415.19,-141.69 423.01,-134.55 412.44,-135.25 415.19,-141.69"/>
</g>
<!-- Node3 -->
<g id="node3" class="node">
<title>Node3</title>
<g id="a_node3"><a xlink:title=" ">
<polygon fill="none" stroke="#bfbfbf" points="75.72,-0.5 75.72,-20.5 118.72,-20.5 118.72,-0.5 75.72,-0.5"/>
<text text-anchor="middle" x="97.22" y="-7.7" font-family="-apple-system, BlinkMacSystemFont, 'Segoe UI', Roboto, Oxygen, Ubuntu, Cantarell, 'Fira Sans', 'Droid Sans', 'Helvetica Neue', sans-serif" font-size="11.00">string</text>
</a>
</g>
</g>
<!-- Node2&#45;&gt;Node3 -->
<g id="edge2" class="edge">
<title>Node2&#45;&gt;Node3</title>
<path fill="none" stroke="midnightblue" d="M119.29,-116.01C75.47,-108.77 19.18,-96.21 5.22,-78 -15.13,-51.45 31.96,-30.87 66,-20.02"/>
<polygon fill="midnightblue" stroke="midnightblue" points="67.07,-23.35 75.62,-17.09 65.03,-16.65 67.07,-23.35"/>
</g>
<!-- Node4 -->
<g id="node4" class="node">
<title>Node4</title>
<g id="a_node4"><a xlink:title=" ">
<polygon fill="none" stroke="#bfbfbf" points="185.72,-0.5 185.72,-20.5 316.72,-20.5 316.72,-0.5 185.72,-0.5"/>
<text text-anchor="middle" x="251.22" y="-7.7" font-family="-apple-system, BlinkMacSystemFont, 'Segoe UI', Roboto, Oxygen, Ubuntu, Cantarell, 'Fira Sans', 'Droid Sans', 'Helvetica Neue', sans-serif" font-size="11.00">nlohmann/json_fwd.hpp</text>
</a>
</g>
</g>
<!-- Node2&#45;&gt;Node4 -->
<g id="edge3" class="edge">
<title>Node2&#45;&gt;Node4</title>
<path fill="none" stroke="midnightblue" d="M220.23,-114.49C256.24,-106.39 302.04,-93.42 313.22,-78 327.47,-58.34 302.22,-38.3 279.78,-25.43"/>
<polygon fill="midnightblue" stroke="midnightblue" points="281.24,-22.24 270.78,-20.54 277.9,-28.39 281.24,-22.24"/>
</g>
<!-- Node5 -->
<g id="node5" class="node">
<title>Node5</title>
<g id="a_node5"><a xlink:href="MediaTypes_8hpp.html" target="_top" xlink:title=" ">
<polygon fill="none" stroke="red" points="14.72,-57.5 14.72,-77.5 179.72,-77.5 179.72,-57.5 14.72,-57.5"/>
<text text-anchor="middle" x="97.22" y="-64.7" font-family="-apple-system, BlinkMacSystemFont, 'Segoe UI', Roboto, Oxygen, Ubuntu, Cantarell, 'Fira Sans', 'Droid Sans', 'Helvetica Neue', sans-serif" font-size="11.00">libmirai/Types/MediaTypes.hpp</text>
</a>
</g>
</g>
<!-- Node2&#45;&gt;Node5 -->
<g id="edge4" class="edge">
<title>Node2&#45;&gt;Node5</title>
<path fill="none" stroke="midnightblue" d="M161.51,-114.42C149.8,-106.06 132.22,-93.5 118.39,-83.62"/>
<polygon fill="midnightblue" stroke="midnightblue" points="120.13,-80.56 109.95,-77.6 116.06,-86.26 120.13,-80.56"/>
</g>
<!-- Node12 -->
<g id="node6" class="node">
<title>Node12</title>
<g id="a_node6"><a xlink:href="MessageBase_8hpp.html" target="_top" xlink:title=" ">
<polygon fill="none" stroke="red" points="198.22,-57.5 198.22,-77.5 304.22,-77.5 304.22,-57.5 198.22,-57.5"/>
<text text-anchor="middle" x="251.22" y="-64.7" font-family="-apple-system, BlinkMacSystemFont, 'Segoe UI', Roboto, Oxygen, Ubuntu, Cantarell, 'Fira Sans', 'Droid Sans', 'Helvetica Neue', sans-serif" font-size="11.00">MessageBase.hpp</text>
</a>
</g>
</g>
<!-- Node2&#45;&gt;Node12 -->
<g id="edge7" class="edge">
<title>Node2&#45;&gt;Node12</title>
<path fill="none" stroke="midnightblue" d="M186.94,-114.42C198.64,-106.06 216.23,-93.5 230.05,-83.62"/>
<polygon fill="midnightblue" stroke="midnightblue" points="232.38,-86.26 238.49,-77.6 228.32,-80.56 232.38,-86.26"/>
</g>
<!-- Node5&#45;&gt;Node3 -->
<g id="edge5" class="edge">
<title>Node5&#45;&gt;Node3</title>
<path fill="none" stroke="midnightblue" d="M97.22,-57.42C97.22,-50.22 97.22,-39.9 97.22,-30.86"/>
<polygon fill="midnightblue" stroke="midnightblue" points="100.72,-30.78 97.22,-20.78 93.72,-30.78 100.72,-30.78"/>
</g>
<!-- Node5&#45;&gt;Node4 -->
<g id="edge6" class="edge">
<title>Node5&#45;&gt;Node4</title>
<path fill="none" stroke="midnightblue" d="M122.65,-57.42C148.25,-48.27 187.93,-34.1 216.43,-23.92"/>
<polygon fill="midnightblue" stroke="midnightblue" points="217.77,-27.16 226.01,-20.5 215.41,-20.57 217.77,-27.16"/>
</g>
<!-- Node12&#45;&gt;Node3 -->
<g id="edge8" class="edge">
<title>Node12&#45;&gt;Node3</title>
<path fill="none" stroke="midnightblue" d="M225.79,-57.42C199.2,-47.92 157.41,-33 128.74,-22.76"/>
<polygon fill="midnightblue" stroke="midnightblue" points="129.79,-19.41 119.19,-19.35 127.43,-26.01 129.79,-19.41"/>
</g>
<!-- Node12&#45;&gt;Node4 -->
<g id="edge9" class="edge">
<title>Node12&#45;&gt;Node4</title>
<path fill="none" stroke="midnightblue" d="M251.22,-57.42C251.22,-50.22 251.22,-39.9 251.22,-30.86"/>
<polygon fill="midnightblue" stroke="midnightblue" points="254.72,-30.78 251.22,-20.78 247.72,-30.78 254.72,-30.78"/>
</g>
</g>
</svg>
