<?xml version="1.0" encoding="UTF-8" standalone="no"?>
<!DOCTYPE svg PUBLIC "-//W3C//DTD SVG 1.1//EN"
 "http://www.w3.org/Graphics/SVG/1.1/DTD/svg11.dtd">
<!-- Generated by graphviz version 3.0.0 (20221109.1736)
 -->
<!-- Title: libmirai/models/libmirai/Messages/AudioMessage.hpp Pages: 1 -->
<svg width="774pt" height="212pt"
 viewBox="0.00 0.00 773.97 212.00" xmlns="http://www.w3.org/2000/svg" xmlns:xlink="http://www.w3.org/1999/xlink">
<g id="graph0" class="graph" transform="scale(1 1) rotate(0) translate(4 208)">
<title>libmirai/models/libmirai/Messages/AudioMessage.hpp</title>
<!-- Node1 -->
<g id="node1" class="node">
<title>Node1</title>
<g id="a_node1"><a xlink:title=" ">
<polygon fill="#bfbfbf" stroke="black" points="267.5,-171.5 267.5,-203.5 431.5,-203.5 431.5,-171.5 267.5,-171.5"/>
<text text-anchor="start" x="275.5" y="-190.7" font-family="-apple-system, BlinkMacSystemFont, 'Segoe UI', Roboto, Oxygen, Ubuntu, Cantarell, 'Fira Sans', 'Droid Sans', 'Helvetica Neue', sans-serif" font-size="11.00">libmirai/models/libmirai</text>
<text text-anchor="middle" x="349.5" y="-178.7" font-family="-apple-system, BlinkMacSystemFont, 'Segoe UI', Roboto, Oxygen, Ubuntu, Cantarell, 'Fira Sans', 'Droid Sans', 'Helvetica Neue', sans-serif" font-size="11.00">/Messages/AudioMessage.hpp</text>
</a>
</g>
</g>
<!-- Node2 -->
<g id="node2" class="node">
<title>Node2</title>
<g id="a_node2"><a xlink:title=" ">
<polygon fill="none" stroke="#bfbfbf" points="439,-0.5 439,-20.5 482,-20.5 482,-0.5 439,-0.5"/>
<text text-anchor="middle" x="460.5" y="-7.7" font-family="-apple-system, BlinkMacSystemFont, 'Segoe UI', Roboto, Oxygen, Ubuntu, Cantarell, 'Fira Sans', 'Droid Sans', 'Helvetica Neue', sans-serif" font-size="11.00">string</text>
</a>
</g>
</g>
<!-- Node1&#45;&gt;Node2 -->
<g id="edge1" class="edge">
<title>Node1&#45;&gt;Node2</title>
<path fill="none" stroke="midnightblue" d="M431.57,-176.69C539.88,-161.87 721.54,-129.85 761.5,-78 767.2,-70.61 767.59,-64.08 761.5,-57 727,-16.89 562.34,-11.69 492.23,-11.33"/>
<polygon fill="midnightblue" stroke="midnightblue" points="492.22,-7.83 482.21,-11.3 492.2,-14.83 492.22,-7.83"/>
</g>
<!-- Node3 -->
<g id="node3" class="node">
<title>Node3</title>
<g id="a_node3"><a xlink:title=" ">
<polygon fill="none" stroke="#bfbfbf" points="0,-0.5 0,-20.5 41,-20.5 41,-0.5 0,-0.5"/>
<text text-anchor="middle" x="20.5" y="-7.7" font-family="-apple-system, BlinkMacSystemFont, 'Segoe UI', Roboto, Oxygen, Ubuntu, Cantarell, 'Fira Sans', 'Droid Sans', 'Helvetica Neue', sans-serif" font-size="11.00">utility</text>
</a>
</g>
</g>
<!-- Node1&#45;&gt;Node3 -->
<g id="edge2" class="edge">
<title>Node1&#45;&gt;Node3</title>
<path fill="none" stroke="midnightblue" d="M267.37,-185.46C189.39,-179.48 76.46,-156.68 23.5,-78 14.23,-64.23 14.42,-44.98 16.37,-30.74"/>
<polygon fill="midnightblue" stroke="midnightblue" points="19.87,-31.04 18.16,-20.58 12.98,-29.82 19.87,-31.04"/>
</g>
<!-- Node4 -->
<g id="node4" class="node">
<title>Node4</title>
<g id="a_node4"><a xlink:href="MediaTypes_8hpp.html" target="_top" xlink:title=" ">
<polygon fill="none" stroke="black" points="157,-114.5 157,-134.5 322,-134.5 322,-114.5 157,-114.5"/>
<text text-anchor="middle" x="239.5" y="-121.7" font-family="-apple-system, BlinkMacSystemFont, 'Segoe UI', Roboto, Oxygen, Ubuntu, Cantarell, 'Fira Sans', 'Droid Sans', 'Helvetica Neue', sans-serif" font-size="11.00">libmirai/Types/MediaTypes.hpp</text>
</a>
</g>
</g>
<!-- Node1&#45;&gt;Node4 -->
<g id="edge3" class="edge">
<title>Node1&#45;&gt;Node4</title>
<path fill="none" stroke="midnightblue" d="M322.31,-171.42C304.7,-161.66 281.93,-149.03 264.73,-139.49"/>
<polygon fill="midnightblue" stroke="midnightblue" points="266.26,-136.33 255.81,-134.55 262.86,-142.46 266.26,-136.33"/>
</g>
<!-- Node10 -->
<g id="node9" class="node">
<title>Node10</title>
<g id="a_node9"><a xlink:href="IMessage_8hpp.html" target="_top" xlink:title=" ">
<polygon fill="none" stroke="black" points="418.5,-114.5 418.5,-134.5 502.5,-134.5 502.5,-114.5 418.5,-114.5"/>
<text text-anchor="middle" x="460.5" y="-121.7" font-family="-apple-system, BlinkMacSystemFont, 'Segoe UI', Roboto, Oxygen, Ubuntu, Cantarell, 'Fira Sans', 'Droid Sans', 'Helvetica Neue', sans-serif" font-size="11.00">IMessage.hpp</text>
</a>
</g>
</g>
<!-- Node1&#45;&gt;Node10 -->
<g id="edge13" class="edge">
<title>Node1&#45;&gt;Node10</title>
<path fill="none" stroke="midnightblue" d="M376.94,-171.42C394.71,-161.66 417.68,-149.03 435.04,-139.49"/>
<polygon fill="midnightblue" stroke="midnightblue" points="436.96,-142.43 444.04,-134.55 433.59,-136.29 436.96,-142.43"/>
</g>
<!-- Node4&#45;&gt;Node2 -->
<g id="edge7" class="edge">
<title>Node4&#45;&gt;Node2</title>
<path fill="none" stroke="midnightblue" d="M257.87,-114.46C276.13,-105.41 304.89,-91.01 329.5,-78 346.56,-68.98 350.38,-65.91 367.5,-57 388.95,-45.83 413.54,-33.84 432.05,-24.97"/>
<polygon fill="midnightblue" stroke="midnightblue" points="433.61,-28.1 441.12,-20.63 430.59,-21.78 433.61,-28.1"/>
</g>
<!-- Node4&#45;&gt;Node3 -->
<g id="edge8" class="edge">
<title>Node4&#45;&gt;Node3</title>
<path fill="none" stroke="midnightblue" d="M164.67,-114.5C115.72,-107.14 57.6,-95.14 39.5,-78 26.72,-65.9 22.34,-45.84 20.94,-30.92"/>
<polygon fill="midnightblue" stroke="midnightblue" points="24.42,-30.5 20.36,-20.72 17.43,-30.9 24.42,-30.5"/>
</g>
<!-- Node5 -->
<g id="node5" class="node">
<title>Node5</title>
<g id="a_node5"><a xlink:title=" ">
<polygon fill="none" stroke="#bfbfbf" points="163.5,-0.5 163.5,-20.5 205.5,-20.5 205.5,-0.5 163.5,-0.5"/>
<text text-anchor="middle" x="184.5" y="-7.7" font-family="-apple-system, BlinkMacSystemFont, 'Segoe UI', Roboto, Oxygen, Ubuntu, Cantarell, 'Fira Sans', 'Droid Sans', 'Helvetica Neue', sans-serif" font-size="11.00">ctime</text>
</a>
</g>
</g>
<!-- Node4&#45;&gt;Node5 -->
<g id="edge4" class="edge">
<title>Node4&#45;&gt;Node5</title>
<path fill="none" stroke="midnightblue" d="M201.46,-114.43C182.34,-107.75 160.87,-96.49 149.5,-78 139.33,-61.46 152.81,-41.68 165.88,-28.02"/>
<polygon fill="midnightblue" stroke="midnightblue" points="168.62,-30.23 173.34,-20.75 163.74,-25.22 168.62,-30.23"/>
</g>
<!-- Node6 -->
<g id="node6" class="node">
<title>Node6</title>
<g id="a_node6"><a xlink:title=" ">
<polygon fill="none" stroke="#bfbfbf" points="376.5,-57.5 376.5,-77.5 432.5,-77.5 432.5,-57.5 376.5,-57.5"/>
<text text-anchor="middle" x="404.5" y="-64.7" font-family="-apple-system, BlinkMacSystemFont, 'Segoe UI', Roboto, Oxygen, Ubuntu, Cantarell, 'Fira Sans', 'Droid Sans', 'Helvetica Neue', sans-serif" font-size="11.00">memory</text>
</a>
</g>
</g>
<!-- Node4&#45;&gt;Node6 -->
<g id="edge5" class="edge">
<title>Node4&#45;&gt;Node6</title>
<path fill="none" stroke="midnightblue" d="M266.75,-114.42C294.3,-105.23 337.06,-90.98 367.63,-80.79"/>
<polygon fill="midnightblue" stroke="midnightblue" points="369.11,-83.99 377.49,-77.5 366.89,-77.35 369.11,-83.99"/>
</g>
<!-- Node7 -->
<g id="node7" class="node">
<title>Node7</title>
<g id="a_node7"><a xlink:title=" ">
<polygon fill="none" stroke="#bfbfbf" points="48.5,-57.5 48.5,-77.5 102.5,-77.5 102.5,-57.5 48.5,-57.5"/>
<text text-anchor="middle" x="75.5" y="-64.7" font-family="-apple-system, BlinkMacSystemFont, 'Segoe UI', Roboto, Oxygen, Ubuntu, Cantarell, 'Fira Sans', 'Droid Sans', 'Helvetica Neue', sans-serif" font-size="11.00">optional</text>
</a>
</g>
</g>
<!-- Node4&#45;&gt;Node7 -->
<g id="edge6" class="edge">
<title>Node4&#45;&gt;Node7</title>
<path fill="none" stroke="midnightblue" d="M212.42,-114.42C185.04,-105.23 142.53,-90.98 112.15,-80.79"/>
<polygon fill="midnightblue" stroke="midnightblue" points="112.94,-77.37 102.35,-77.5 110.72,-84 112.94,-77.37"/>
</g>
<!-- Node8 -->
<g id="node8" class="node">
<title>Node8</title>
<g id="a_node8"><a xlink:href="BasicTypes_8hpp.html" target="_top" xlink:title=" ">
<polygon fill="none" stroke="red" points="158.5,-57.5 158.5,-77.5 320.5,-77.5 320.5,-57.5 158.5,-57.5"/>
<text text-anchor="middle" x="239.5" y="-64.7" font-family="-apple-system, BlinkMacSystemFont, 'Segoe UI', Roboto, Oxygen, Ubuntu, Cantarell, 'Fira Sans', 'Droid Sans', 'Helvetica Neue', sans-serif" font-size="11.00">libmirai/Types/BasicTypes.hpp</text>
</a>
</g>
</g>
<!-- Node4&#45;&gt;Node8 -->
<g id="edge9" class="edge">
<title>Node4&#45;&gt;Node8</title>
<path fill="none" stroke="midnightblue" d="M239.5,-114.42C239.5,-107.22 239.5,-96.9 239.5,-87.86"/>
<polygon fill="midnightblue" stroke="midnightblue" points="243,-87.78 239.5,-77.78 236,-87.78 243,-87.78"/>
</g>
<!-- Node8&#45;&gt;Node2 -->
<g id="edge11" class="edge">
<title>Node8&#45;&gt;Node2</title>
<path fill="none" stroke="midnightblue" d="M275.99,-57.42C318.62,-46.81 388.45,-29.43 428.87,-19.37"/>
<polygon fill="midnightblue" stroke="midnightblue" points="429.87,-22.73 438.72,-16.92 428.17,-15.94 429.87,-22.73"/>
</g>
<!-- Node8&#45;&gt;Node3 -->
<g id="edge12" class="edge">
<title>Node8&#45;&gt;Node3</title>
<path fill="none" stroke="midnightblue" d="M203.34,-57.42C160.76,-46.72 90.79,-29.15 50.89,-19.13"/>
<polygon fill="midnightblue" stroke="midnightblue" points="51.74,-15.74 41.19,-16.7 50.04,-22.53 51.74,-15.74"/>
</g>
<!-- Node8&#45;&gt;Node5 -->
<g id="edge10" class="edge">
<title>Node8&#45;&gt;Node5</title>
<path fill="none" stroke="midnightblue" d="M230.42,-57.42C222.42,-49.42 210.59,-37.59 200.94,-27.94"/>
<polygon fill="midnightblue" stroke="midnightblue" points="203.33,-25.38 193.78,-20.78 198.38,-30.33 203.33,-25.38"/>
</g>
<!-- Node10&#45;&gt;Node2 -->
<g id="edge15" class="edge">
<title>Node10&#45;&gt;Node2</title>
<path fill="none" stroke="midnightblue" d="M460.5,-114.33C460.5,-96.2 460.5,-55.41 460.5,-31"/>
<polygon fill="midnightblue" stroke="midnightblue" points="464,-30.79 460.5,-20.79 457,-30.79 464,-30.79"/>
</g>
<!-- Node10&#45;&gt;Node6 -->
<g id="edge14" class="edge">
<title>Node10&#45;&gt;Node6</title>
<path fill="none" stroke="midnightblue" d="M451.25,-114.42C443.11,-106.42 431.06,-94.59 421.24,-84.94"/>
<polygon fill="midnightblue" stroke="midnightblue" points="423.54,-82.29 413.95,-77.78 418.63,-87.28 423.54,-82.29"/>
</g>
<!-- Node11 -->
<g id="node10" class="node">
<title>Node11</title>
<g id="a_node10"><a xlink:title=" ">
<polygon fill="none" stroke="#bfbfbf" points="686.5,-57.5 686.5,-77.5 752.5,-77.5 752.5,-57.5 686.5,-57.5"/>
<text text-anchor="middle" x="719.5" y="-64.7" font-family="-apple-system, BlinkMacSystemFont, 'Segoe UI', Roboto, Oxygen, Ubuntu, Cantarell, 'Fira Sans', 'Droid Sans', 'Helvetica Neue', sans-serif" font-size="11.00">type_traits</text>
</a>
</g>
</g>
<!-- Node10&#45;&gt;Node11 -->
<g id="edge16" class="edge">
<title>Node10&#45;&gt;Node11</title>
<path fill="none" stroke="midnightblue" d="M502.55,-114.89C544.24,-106.3 610.21,-92.6 676.69,-78.15"/>
<polygon fill="midnightblue" stroke="midnightblue" points="677.47,-81.56 686.5,-76.02 675.98,-74.72 677.47,-81.56"/>
</g>
<!-- Node12 -->
<g id="node11" class="node">
<title>Node12</title>
<g id="a_node11"><a xlink:href="MessageTypes_8hpp.html" target="_top" xlink:title=" ">
<polygon fill="none" stroke="red" points="489,-57.5 489,-77.5 668,-77.5 668,-57.5 489,-57.5"/>
<text text-anchor="middle" x="578.5" y="-64.7" font-family="-apple-system, BlinkMacSystemFont, 'Segoe UI', Roboto, Oxygen, Ubuntu, Cantarell, 'Fira Sans', 'Droid Sans', 'Helvetica Neue', sans-serif" font-size="11.00">libmirai/Types/MessageTypes.hpp</text>
</a>
</g>
</g>
<!-- Node10&#45;&gt;Node12 -->
<g id="edge17" class="edge">
<title>Node10&#45;&gt;Node12</title>
<path fill="none" stroke="midnightblue" d="M479.99,-114.42C499.03,-105.54 528.24,-91.93 549.92,-81.82"/>
<polygon fill="midnightblue" stroke="midnightblue" points="551.4,-84.99 558.99,-77.6 548.44,-78.65 551.4,-84.99"/>
</g>
<!-- Node12&#45;&gt;Node2 -->
<g id="edge18" class="edge">
<title>Node12&#45;&gt;Node2</title>
<path fill="none" stroke="midnightblue" d="M559.01,-57.42C539.97,-48.54 510.76,-34.93 489.08,-24.82"/>
<polygon fill="midnightblue" stroke="midnightblue" points="490.56,-21.65 480.01,-20.6 487.6,-27.99 490.56,-21.65"/>
</g>
</g>
</svg>
