<?xml version="1.0" encoding="UTF-8" standalone="no"?>
<!DOCTYPE svg PUBLIC "-//W3C//DTD SVG 1.1//EN"
 "http://www.w3.org/Graphics/SVG/1.1/DTD/svg11.dtd">
<!-- Generated by graphviz version 2.43.0 (0)
 -->
<!-- Title: libmirai/public/libmirai/Messages/AudioMessage.hpp Pages: 1 -->
<svg width="616pt" height="269pt"
 viewBox="0.00 0.00 616.00 269.00" xmlns="http://www.w3.org/2000/svg" xmlns:xlink="http://www.w3.org/1999/xlink">
<g id="graph0" class="graph" transform="scale(1 1) rotate(0) translate(4 265)">
<title>libmirai/public/libmirai/Messages/AudioMessage.hpp</title>
<!-- Node1 -->
<g id="node1" class="node">
<title>Node1</title>
<g id="a_node1"><a xlink:title=" ">
<polygon fill="#bfbfbf" stroke="black" points="0,-228.5 0,-260.5 182,-260.5 182,-228.5 0,-228.5"/>
<text text-anchor="start" x="8" y="-247.7" font-family="-apple-system,BlinkMacSystemFont,'SegoeUI',Roboto,Oxygen,Ubuntu,Cantarell,'FiraSans','DroidSans','HelveticaNeue',sans-serif" font-size="11.00">libmirai/public/libmirai</text>
<text text-anchor="middle" x="91" y="-235.7" font-family="-apple-system,BlinkMacSystemFont,'SegoeUI',Roboto,Oxygen,Ubuntu,Cantarell,'FiraSans','DroidSans','HelveticaNeue',sans-serif" font-size="11.00">/Messages/AudioMessage.hpp</text>
</a>
</g>
</g>
<!-- Node2 -->
<g id="node2" class="node">
<title>Node2</title>
<g id="a_node2"><a xlink:title=" ">
<polygon fill="none" stroke="#bfbfbf" points="131,-57.5 131,-77.5 179,-77.5 179,-57.5 131,-57.5"/>
<text text-anchor="middle" x="155" y="-64.7" font-family="-apple-system,BlinkMacSystemFont,'SegoeUI',Roboto,Oxygen,Ubuntu,Cantarell,'FiraSans','DroidSans','HelveticaNeue',sans-serif" font-size="11.00">string</text>
</a>
</g>
</g>
<!-- Node1&#45;&gt;Node2 -->
<g id="edge1" class="edge">
<title>Node1&#45;&gt;Node2</title>
<path fill="none" stroke="midnightblue" d="M87.09,-228.49C83.89,-213.62 80.67,-190.34 86,-171 95.43,-136.77 121.51,-103.96 138.77,-85.04"/>
<polygon fill="midnightblue" stroke="midnightblue" points="141.47,-87.27 145.77,-77.59 136.37,-82.48 141.47,-87.27"/>
</g>
<!-- Node3 -->
<g id="node3" class="node">
<title>Node3</title>
<g id="a_node3"><a xlink:title=" ">
<polygon fill="none" stroke="#bfbfbf" points="153,-0.5 153,-20.5 299,-20.5 299,-0.5 153,-0.5"/>
<text text-anchor="middle" x="226" y="-7.7" font-family="-apple-system,BlinkMacSystemFont,'SegoeUI',Roboto,Oxygen,Ubuntu,Cantarell,'FiraSans','DroidSans','HelveticaNeue',sans-serif" font-size="11.00">nlohmann/json_fwd.hpp</text>
</a>
</g>
</g>
<!-- Node1&#45;&gt;Node3 -->
<g id="edge2" class="edge">
<title>Node1&#45;&gt;Node3</title>
<path fill="none" stroke="midnightblue" d="M77.98,-228.26C50.42,-194.07 -8,-110.12 34,-57 47.88,-39.44 97.61,-27.96 142.98,-20.92"/>
<polygon fill="midnightblue" stroke="midnightblue" points="143.5,-24.38 152.88,-19.44 142.47,-17.45 143.5,-24.38"/>
</g>
<!-- Node4 -->
<g id="node4" class="node">
<title>Node4</title>
<g id="a_node4"><a xlink:href="MediaTypes_8hpp.html" target="_top" xlink:title=" ">
<polygon fill="none" stroke="black" points="95.5,-171.5 95.5,-191.5 280.5,-191.5 280.5,-171.5 95.5,-171.5"/>
<text text-anchor="middle" x="188" y="-178.7" font-family="-apple-system,BlinkMacSystemFont,'SegoeUI',Roboto,Oxygen,Ubuntu,Cantarell,'FiraSans','DroidSans','HelveticaNeue',sans-serif" font-size="11.00">libmirai/Types/MediaTypes.hpp</text>
</a>
</g>
</g>
<!-- Node1&#45;&gt;Node4 -->
<g id="edge3" class="edge">
<title>Node1&#45;&gt;Node4</title>
<path fill="none" stroke="midnightblue" d="M114.98,-228.42C130.22,-218.84 149.84,-206.5 164.9,-197.02"/>
<polygon fill="midnightblue" stroke="midnightblue" points="167.01,-199.83 173.62,-191.55 163.29,-193.91 167.01,-199.83"/>
</g>
<!-- Node11 -->
<g id="node10" class="node">
<title>Node11</title>
<g id="a_node10"><a xlink:href="MessageBase_8hpp.html" target="_top" xlink:title=" ">
<polygon fill="none" stroke="black" points="452,-114.5 452,-134.5 568,-134.5 568,-114.5 452,-114.5"/>
<text text-anchor="middle" x="510" y="-121.7" font-family="-apple-system,BlinkMacSystemFont,'SegoeUI',Roboto,Oxygen,Ubuntu,Cantarell,'FiraSans','DroidSans','HelveticaNeue',sans-serif" font-size="11.00">MessageBase.hpp</text>
</a>
</g>
</g>
<!-- Node1&#45;&gt;Node11 -->
<g id="edge16" class="edge">
<title>Node1&#45;&gt;Node11</title>
<path fill="none" stroke="midnightblue" d="M151.38,-228.43C190.68,-218.46 243,-204.9 289,-192 353.25,-173.99 427.42,-151.27 471.43,-137.59"/>
<polygon fill="midnightblue" stroke="midnightblue" points="472.63,-140.88 481.14,-134.56 470.55,-134.2 472.63,-140.88"/>
</g>
<!-- Node4&#45;&gt;Node2 -->
<g id="edge7" class="edge">
<title>Node4&#45;&gt;Node2</title>
<path fill="none" stroke="midnightblue" d="M166.86,-171.37C152.45,-163.89 134.51,-151.79 126,-135 117.61,-118.44 128.5,-98.9 139.24,-85.31"/>
<polygon fill="midnightblue" stroke="midnightblue" points="141.91,-87.57 145.74,-77.69 136.59,-83.02 141.91,-87.57"/>
</g>
<!-- Node4&#45;&gt;Node3 -->
<g id="edge8" class="edge">
<title>Node4&#45;&gt;Node3</title>
<path fill="none" stroke="midnightblue" d="M160.99,-171.37C109.74,-152.61 6.86,-107.27 46,-57 58.56,-40.87 102.86,-29.56 144.36,-22.24"/>
<polygon fill="midnightblue" stroke="midnightblue" points="145,-25.69 154.27,-20.56 143.83,-18.78 145,-25.69"/>
</g>
<!-- Node5 -->
<g id="node5" class="node">
<title>Node5</title>
<g id="a_node5"><a xlink:title=" ">
<polygon fill="none" stroke="#bfbfbf" points="55.5,-57.5 55.5,-77.5 102.5,-77.5 102.5,-57.5 55.5,-57.5"/>
<text text-anchor="middle" x="79" y="-64.7" font-family="-apple-system,BlinkMacSystemFont,'SegoeUI',Roboto,Oxygen,Ubuntu,Cantarell,'FiraSans','DroidSans','HelveticaNeue',sans-serif" font-size="11.00">ctime</text>
</a>
</g>
</g>
<!-- Node4&#45;&gt;Node5 -->
<g id="edge4" class="edge">
<title>Node4&#45;&gt;Node5</title>
<path fill="none" stroke="midnightblue" d="M170.28,-171.45C155.59,-163.33 134.78,-150.34 120,-135 106.22,-120.7 94.79,-100.99 87.53,-86.75"/>
<polygon fill="midnightblue" stroke="midnightblue" points="90.54,-84.95 83,-77.5 84.25,-88.02 90.54,-84.95"/>
</g>
<!-- Node6 -->
<g id="node6" class="node">
<title>Node6</title>
<g id="a_node6"><a xlink:title=" ">
<polygon fill="none" stroke="#bfbfbf" points="546,-57.5 546,-77.5 608,-77.5 608,-57.5 546,-57.5"/>
<text text-anchor="middle" x="577" y="-64.7" font-family="-apple-system,BlinkMacSystemFont,'SegoeUI',Roboto,Oxygen,Ubuntu,Cantarell,'FiraSans','DroidSans','HelveticaNeue',sans-serif" font-size="11.00">memory</text>
</a>
</g>
</g>
<!-- Node4&#45;&gt;Node6 -->
<g id="edge5" class="edge">
<title>Node4&#45;&gt;Node6</title>
<path fill="none" stroke="midnightblue" d="M280.83,-176.02C389.62,-169.8 557.62,-156.78 577,-135 588.36,-122.23 586.58,-101.99 583.06,-87.19"/>
<polygon fill="midnightblue" stroke="midnightblue" points="586.43,-86.23 580.35,-77.56 579.69,-88.13 586.43,-86.23"/>
</g>
<!-- Node7 -->
<g id="node7" class="node">
<title>Node7</title>
<g id="a_node7"><a xlink:title=" ">
<polygon fill="none" stroke="#bfbfbf" points="334.5,-114.5 334.5,-134.5 395.5,-134.5 395.5,-114.5 334.5,-114.5"/>
<text text-anchor="middle" x="365" y="-121.7" font-family="-apple-system,BlinkMacSystemFont,'SegoeUI',Roboto,Oxygen,Ubuntu,Cantarell,'FiraSans','DroidSans','HelveticaNeue',sans-serif" font-size="11.00">optional</text>
</a>
</g>
</g>
<!-- Node4&#45;&gt;Node7 -->
<g id="edge6" class="edge">
<title>Node4&#45;&gt;Node7</title>
<path fill="none" stroke="midnightblue" d="M217.23,-171.42C247.04,-162.15 293.45,-147.73 326.3,-137.53"/>
<polygon fill="midnightblue" stroke="midnightblue" points="327.51,-140.81 336.02,-134.5 325.43,-134.13 327.51,-140.81"/>
</g>
<!-- Node8 -->
<g id="node8" class="node">
<title>Node8</title>
<g id="a_node8"><a xlink:href="BasicTypes_8hpp.html" target="_top" xlink:title=" ">
<polygon fill="none" stroke="red" points="135.5,-114.5 135.5,-134.5 316.5,-134.5 316.5,-114.5 135.5,-114.5"/>
<text text-anchor="middle" x="226" y="-121.7" font-family="-apple-system,BlinkMacSystemFont,'SegoeUI',Roboto,Oxygen,Ubuntu,Cantarell,'FiraSans','DroidSans','HelveticaNeue',sans-serif" font-size="11.00">libmirai/Types/BasicTypes.hpp</text>
</a>
</g>
</g>
<!-- Node4&#45;&gt;Node8 -->
<g id="edge9" class="edge">
<title>Node4&#45;&gt;Node8</title>
<path fill="none" stroke="midnightblue" d="M194.27,-171.42C199.58,-163.74 207.33,-152.52 213.84,-143.09"/>
<polygon fill="midnightblue" stroke="midnightblue" points="216.78,-145 219.59,-134.78 211.02,-141.02 216.78,-145"/>
</g>
<!-- Node10 -->
<g id="node9" class="node">
<title>Node10</title>
<g id="a_node9"><a xlink:href="Serializable_8hpp.html" target="_top" xlink:title=" ">
<polygon fill="none" stroke="black" points="276.5,-57.5 276.5,-77.5 459.5,-77.5 459.5,-57.5 276.5,-57.5"/>
<text text-anchor="middle" x="368" y="-64.7" font-family="-apple-system,BlinkMacSystemFont,'SegoeUI',Roboto,Oxygen,Ubuntu,Cantarell,'FiraSans','DroidSans','HelveticaNeue',sans-serif" font-size="11.00">libmirai/Types/Serializable.hpp</text>
</a>
</g>
</g>
<!-- Node4&#45;&gt;Node10 -->
<g id="edge15" class="edge">
<title>Node4&#45;&gt;Node10</title>
<path fill="none" stroke="midnightblue" d="M280.6,-172.53C331.78,-165.99 388.16,-154.53 404,-135 416.63,-119.43 401.38,-98.77 387.02,-84.64"/>
<polygon fill="midnightblue" stroke="midnightblue" points="389.04,-81.74 379.31,-77.53 384.29,-86.88 389.04,-81.74"/>
</g>
<!-- Node8&#45;&gt;Node2 -->
<g id="edge11" class="edge">
<title>Node8&#45;&gt;Node2</title>
<path fill="none" stroke="midnightblue" d="M214.28,-114.42C203.65,-106.19 187.77,-93.88 175.12,-84.08"/>
<polygon fill="midnightblue" stroke="midnightblue" points="177.03,-81.14 166.98,-77.78 172.74,-86.67 177.03,-81.14"/>
</g>
<!-- Node8&#45;&gt;Node3 -->
<g id="edge12" class="edge">
<title>Node8&#45;&gt;Node3</title>
<path fill="none" stroke="midnightblue" d="M226,-114.33C226,-96.2 226,-55.41 226,-31"/>
<polygon fill="midnightblue" stroke="midnightblue" points="229.5,-30.79 226,-20.79 222.5,-30.79 229.5,-30.79"/>
</g>
<!-- Node8&#45;&gt;Node5 -->
<g id="edge10" class="edge">
<title>Node8&#45;&gt;Node5</title>
<path fill="none" stroke="midnightblue" d="M201.73,-114.42C177.32,-105.29 139.52,-91.14 112.32,-80.97"/>
<polygon fill="midnightblue" stroke="midnightblue" points="113.41,-77.64 102.82,-77.41 110.96,-84.2 113.41,-77.64"/>
</g>
<!-- Node8&#45;&gt;Node10 -->
<g id="edge13" class="edge">
<title>Node8&#45;&gt;Node10</title>
<path fill="none" stroke="midnightblue" d="M249.45,-114.42C272.78,-105.38 308.79,-91.44 335,-81.28"/>
<polygon fill="midnightblue" stroke="midnightblue" points="336.46,-84.47 344.52,-77.6 333.93,-77.94 336.46,-84.47"/>
</g>
<!-- Node10&#45;&gt;Node3 -->
<g id="edge14" class="edge">
<title>Node10&#45;&gt;Node3</title>
<path fill="none" stroke="midnightblue" d="M344.55,-57.42C321.22,-48.38 285.21,-34.44 259,-24.28"/>
<polygon fill="midnightblue" stroke="midnightblue" points="260.07,-20.94 249.48,-20.6 257.54,-27.47 260.07,-20.94"/>
</g>
<!-- Node11&#45;&gt;Node2 -->
<g id="edge18" class="edge">
<title>Node11&#45;&gt;Node2</title>
<path fill="none" stroke="midnightblue" d="M451.78,-114.48C377.18,-102.92 250.27,-83.26 189.47,-73.84"/>
<polygon fill="midnightblue" stroke="midnightblue" points="189.68,-70.33 179.26,-72.26 188.61,-77.25 189.68,-70.33"/>
</g>
<!-- Node11&#45;&gt;Node3 -->
<g id="edge19" class="edge">
<title>Node11&#45;&gt;Node3</title>
<path fill="none" stroke="midnightblue" d="M506.83,-114.03C501.39,-99.3 488.78,-71.12 468,-57 442.47,-39.66 368.75,-27.4 309.32,-20.01"/>
<polygon fill="midnightblue" stroke="midnightblue" points="309.51,-16.51 299.16,-18.78 308.67,-23.46 309.51,-16.51"/>
</g>
<!-- Node11&#45;&gt;Node6 -->
<g id="edge17" class="edge">
<title>Node11&#45;&gt;Node6</title>
<path fill="none" stroke="midnightblue" d="M521.06,-114.42C530.99,-106.27 545.79,-94.12 557.67,-84.37"/>
<polygon fill="midnightblue" stroke="midnightblue" points="560.19,-86.83 565.7,-77.78 555.75,-81.42 560.19,-86.83"/>
</g>
<!-- Node11&#45;&gt;Node10 -->
<g id="edge20" class="edge">
<title>Node11&#45;&gt;Node10</title>
<path fill="none" stroke="midnightblue" d="M486.55,-114.42C463.22,-105.38 427.21,-91.44 401,-81.28"/>
<polygon fill="midnightblue" stroke="midnightblue" points="402.07,-77.94 391.48,-77.6 399.54,-84.47 402.07,-77.94"/>
</g>
</g>
</svg>
