<?xml version="1.0" encoding="UTF-8" standalone="no"?>
<!DOCTYPE svg PUBLIC "-//W3C//DTD SVG 1.1//EN"
 "http://www.w3.org/Graphics/SVG/1.1/DTD/svg11.dtd">
<!-- Generated by graphviz version 3.0.0 (20220413.0242)
 -->
<!-- Title: libmirai/public/libmirai/Messages/AudioMessage.cpp Pages: 1 -->
<svg width="496pt" height="212pt"
 viewBox="0.00 0.00 496.44 212.00" xmlns="http://www.w3.org/2000/svg" xmlns:xlink="http://www.w3.org/1999/xlink">
<g id="graph0" class="graph" transform="scale(1 1) rotate(0) translate(4 208)">
<title>libmirai/public/libmirai/Messages/AudioMessage.cpp</title>
<!-- Node1 -->
<g id="node1" class="node">
<title>Node1</title>
<g id="a_node1"><a xlink:title=" ">
<polygon fill="#bfbfbf" stroke="black" points="192.94,-171.5 192.94,-203.5 355.94,-203.5 355.94,-171.5 192.94,-171.5"/>
<text text-anchor="start" x="200.94" y="-190.7" font-family="-apple-system, BlinkMacSystemFont, 'Segoe UI', Roboto, Oxygen, Ubuntu, Cantarell, 'Fira Sans', 'Droid Sans', 'Helvetica Neue', sans-serif" font-size="11.00">libmirai/public/libmirai</text>
<text text-anchor="middle" x="274.44" y="-178.7" font-family="-apple-system, BlinkMacSystemFont, 'Segoe UI', Roboto, Oxygen, Ubuntu, Cantarell, 'Fira Sans', 'Droid Sans', 'Helvetica Neue', sans-serif" font-size="11.00">/Messages/AudioMessage.cpp</text>
</a>
</g>
</g>
<!-- Node2 -->
<g id="node2" class="node">
<title>Node2</title>
<g id="a_node2"><a xlink:href="AudioMessage_8hpp.html" target="_top" xlink:title=" ">
<polygon fill="none" stroke="black" points="92.94,-114.5 92.94,-134.5 201.94,-134.5 201.94,-114.5 92.94,-114.5"/>
<text text-anchor="middle" x="147.44" y="-121.7" font-family="-apple-system, BlinkMacSystemFont, 'Segoe UI', Roboto, Oxygen, Ubuntu, Cantarell, 'Fira Sans', 'Droid Sans', 'Helvetica Neue', sans-serif" font-size="11.00">AudioMessage.hpp</text>
</a>
</g>
</g>
<!-- Node1&#45;&gt;Node2 -->
<g id="edge1" class="edge">
<title>Node1&#45;&gt;Node2</title>
<path fill="none" stroke="midnightblue" d="M243.05,-171.42C222.34,-161.48 195.46,-148.56 175.47,-138.96"/>
<polygon fill="midnightblue" stroke="midnightblue" points="176.8,-135.72 166.27,-134.55 173.77,-142.03 176.8,-135.72"/>
</g>
<!-- Node14 -->
<g id="node8" class="node">
<title>Node14</title>
<g id="a_node8"><a xlink:title=" ">
<polygon fill="none" stroke="#bfbfbf" points="220.44,-114.5 220.44,-134.5 328.44,-134.5 328.44,-114.5 220.44,-114.5"/>
<text text-anchor="middle" x="274.44" y="-121.7" font-family="-apple-system, BlinkMacSystemFont, 'Segoe UI', Roboto, Oxygen, Ubuntu, Cantarell, 'Fira Sans', 'Droid Sans', 'Helvetica Neue', sans-serif" font-size="11.00">nlohmann/json.hpp</text>
</a>
</g>
</g>
<!-- Node1&#45;&gt;Node14 -->
<g id="edge12" class="edge">
<title>Node1&#45;&gt;Node14</title>
<path fill="none" stroke="midnightblue" d="M274.44,-171.42C274.44,-163.38 274.44,-153.39 274.44,-144.78"/>
<polygon fill="midnightblue" stroke="midnightblue" points="277.94,-144.55 274.44,-134.55 270.94,-144.55 277.94,-144.55"/>
</g>
<!-- Node15 -->
<g id="node9" class="node">
<title>Node15</title>
<g id="a_node9"><a xlink:title=" ">
<polygon fill="none" stroke="#bfbfbf" points="346.44,-114.5 346.44,-134.5 488.44,-134.5 488.44,-114.5 346.44,-114.5"/>
<text text-anchor="middle" x="417.44" y="-121.7" font-family="-apple-system, BlinkMacSystemFont, 'Segoe UI', Roboto, Oxygen, Ubuntu, Cantarell, 'Fira Sans', 'Droid Sans', 'Helvetica Neue', sans-serif" font-size="11.00">libmirai/Utils/Common.hpp</text>
</a>
</g>
</g>
<!-- Node1&#45;&gt;Node15 -->
<g id="edge13" class="edge">
<title>Node1&#45;&gt;Node15</title>
<path fill="none" stroke="midnightblue" d="M309.79,-171.42C333.42,-161.34 364.2,-148.21 386.79,-138.57"/>
<polygon fill="midnightblue" stroke="midnightblue" points="388.41,-141.69 396.23,-134.55 385.66,-135.25 388.41,-141.69"/>
</g>
<!-- Node3 -->
<g id="node3" class="node">
<title>Node3</title>
<g id="a_node3"><a xlink:title=" ">
<polygon fill="none" stroke="#bfbfbf" points="32.94,-0.5 32.94,-20.5 75.94,-20.5 75.94,-0.5 32.94,-0.5"/>
<text text-anchor="middle" x="54.44" y="-7.7" font-family="-apple-system, BlinkMacSystemFont, 'Segoe UI', Roboto, Oxygen, Ubuntu, Cantarell, 'Fira Sans', 'Droid Sans', 'Helvetica Neue', sans-serif" font-size="11.00">string</text>
</a>
</g>
</g>
<!-- Node2&#45;&gt;Node3 -->
<g id="edge2" class="edge">
<title>Node2&#45;&gt;Node3</title>
<path fill="none" stroke="midnightblue" d="M92.86,-121.25C61.56,-116.82 24.58,-105.55 4.44,-78 -8.65,-60.1 11.93,-39.76 30.51,-26.34"/>
<polygon fill="midnightblue" stroke="midnightblue" points="32.5,-29.22 38.78,-20.69 28.55,-23.44 32.5,-29.22"/>
</g>
<!-- Node4 -->
<g id="node4" class="node">
<title>Node4</title>
<g id="a_node4"><a xlink:title=" ">
<polygon fill="none" stroke="#bfbfbf" points="93.94,-0.5 93.94,-20.5 224.94,-20.5 224.94,-0.5 93.94,-0.5"/>
<text text-anchor="middle" x="159.44" y="-7.7" font-family="-apple-system, BlinkMacSystemFont, 'Segoe UI', Roboto, Oxygen, Ubuntu, Cantarell, 'Fira Sans', 'Droid Sans', 'Helvetica Neue', sans-serif" font-size="11.00">nlohmann/json_fwd.hpp</text>
</a>
</g>
</g>
<!-- Node2&#45;&gt;Node4 -->
<g id="edge3" class="edge">
<title>Node2&#45;&gt;Node4</title>
<path fill="none" stroke="midnightblue" d="M148.42,-114.33C150.36,-96.2 154.73,-55.41 157.35,-31"/>
<polygon fill="midnightblue" stroke="midnightblue" points="160.86,-31.11 158.44,-20.79 153.9,-30.36 160.86,-31.11"/>
</g>
<!-- Node5 -->
<g id="node5" class="node">
<title>Node5</title>
<g id="a_node5"><a xlink:href="MediaTypes_8hpp.html" target="_top" xlink:title=" ">
<polygon fill="none" stroke="red" points="175.94,-57.5 175.94,-77.5 340.94,-77.5 340.94,-57.5 175.94,-57.5"/>
<text text-anchor="middle" x="258.44" y="-64.7" font-family="-apple-system, BlinkMacSystemFont, 'Segoe UI', Roboto, Oxygen, Ubuntu, Cantarell, 'Fira Sans', 'Droid Sans', 'Helvetica Neue', sans-serif" font-size="11.00">libmirai/Types/MediaTypes.hpp</text>
</a>
</g>
</g>
<!-- Node2&#45;&gt;Node5 -->
<g id="edge4" class="edge">
<title>Node2&#45;&gt;Node5</title>
<path fill="none" stroke="midnightblue" d="M165.77,-114.42C183.52,-105.62 210.67,-92.17 231,-82.1"/>
<polygon fill="midnightblue" stroke="midnightblue" points="232.68,-85.17 240.08,-77.6 229.57,-78.9 232.68,-85.17"/>
</g>
<!-- Node9 -->
<g id="node6" class="node">
<title>Node9</title>
<g id="a_node6"><a xlink:title=" ">
<polygon fill="none" stroke="#bfbfbf" points="292.94,-0.5 292.94,-20.5 333.94,-20.5 333.94,-0.5 292.94,-0.5"/>
<text text-anchor="middle" x="313.44" y="-7.7" font-family="-apple-system, BlinkMacSystemFont, 'Segoe UI', Roboto, Oxygen, Ubuntu, Cantarell, 'Fira Sans', 'Droid Sans', 'Helvetica Neue', sans-serif" font-size="11.00">utility</text>
</a>
</g>
</g>
<!-- Node2&#45;&gt;Node9 -->
<g id="edge8" class="edge">
<title>Node2&#45;&gt;Node9</title>
<path fill="none" stroke="midnightblue" d="M202.11,-114.84C258.99,-105.26 341.1,-89.67 350.44,-78 363.1,-62.19 347.33,-41.47 332.64,-27.39"/>
<polygon fill="midnightblue" stroke="midnightblue" points="334.99,-24.79 325.22,-20.69 330.3,-29.99 334.99,-24.79"/>
</g>
<!-- Node13 -->
<g id="node7" class="node">
<title>Node13</title>
<g id="a_node7"><a xlink:href="MessageBase_8hpp.html" target="_top" xlink:title=" ">
<polygon fill="none" stroke="red" points="13.44,-57.5 13.44,-77.5 119.44,-77.5 119.44,-57.5 13.44,-57.5"/>
<text text-anchor="middle" x="66.44" y="-64.7" font-family="-apple-system, BlinkMacSystemFont, 'Segoe UI', Roboto, Oxygen, Ubuntu, Cantarell, 'Fira Sans', 'Droid Sans', 'Helvetica Neue', sans-serif" font-size="11.00">MessageBase.hpp</text>
</a>
</g>
</g>
<!-- Node2&#45;&gt;Node13 -->
<g id="edge9" class="edge">
<title>Node2&#45;&gt;Node13</title>
<path fill="none" stroke="midnightblue" d="M134.06,-114.42C121.64,-105.98 102.9,-93.26 88.3,-83.34"/>
<polygon fill="midnightblue" stroke="midnightblue" points="90.07,-80.32 79.83,-77.6 86.14,-86.11 90.07,-80.32"/>
</g>
<!-- Node5&#45;&gt;Node3 -->
<g id="edge5" class="edge">
<title>Node5&#45;&gt;Node3</title>
<path fill="none" stroke="midnightblue" d="M221.63,-57.45C188.38,-49.15 137.89,-36.23 85.77,-21.29"/>
<polygon fill="midnightblue" stroke="midnightblue" points="86.61,-17.89 76.03,-18.48 84.67,-24.62 86.61,-17.89"/>
</g>
<!-- Node5&#45;&gt;Node4 -->
<g id="edge7" class="edge">
<title>Node5&#45;&gt;Node4</title>
<path fill="none" stroke="midnightblue" d="M242.09,-57.42C226.47,-48.74 202.7,-35.53 184.65,-25.51"/>
<polygon fill="midnightblue" stroke="midnightblue" points="186.25,-22.39 175.81,-20.6 182.85,-28.51 186.25,-22.39"/>
</g>
<!-- Node5&#45;&gt;Node9 -->
<g id="edge6" class="edge">
<title>Node5&#45;&gt;Node9</title>
<path fill="none" stroke="midnightblue" d="M267.52,-57.42C275.51,-49.42 287.35,-37.59 297,-27.94"/>
<polygon fill="midnightblue" stroke="midnightblue" points="299.56,-30.33 304.16,-20.78 294.61,-25.38 299.56,-30.33"/>
</g>
<!-- Node13&#45;&gt;Node3 -->
<g id="edge10" class="edge">
<title>Node13&#45;&gt;Node3</title>
<path fill="none" stroke="midnightblue" d="M64.46,-57.42C62.87,-50.14 60.59,-39.67 58.6,-30.57"/>
<polygon fill="midnightblue" stroke="midnightblue" points="62.01,-29.8 56.46,-20.78 55.18,-31.3 62.01,-29.8"/>
</g>
<!-- Node13&#45;&gt;Node4 -->
<g id="edge11" class="edge">
<title>Node13&#45;&gt;Node4</title>
<path fill="none" stroke="midnightblue" d="M81.8,-57.42C96.34,-48.82 118.39,-35.78 135.29,-25.78"/>
<polygon fill="midnightblue" stroke="midnightblue" points="137.23,-28.7 144.06,-20.6 133.67,-22.67 137.23,-28.7"/>
</g>
</g>
</svg>
