<?xml version="1.0" encoding="UTF-8" standalone="no"?>
<!DOCTYPE svg PUBLIC "-//W3C//DTD SVG 1.1//EN"
 "http://www.w3.org/Graphics/SVG/1.1/DTD/svg11.dtd">
<!-- Generated by graphviz version 3.0.0 (20220413.0242)
 -->
<!-- Title: libmirai/public/libmirai/Messages/AudioMessage.hpp Pages: 1 -->
<svg width="629pt" height="269pt"
 viewBox="0.00 0.00 628.55 269.00" xmlns="http://www.w3.org/2000/svg" xmlns:xlink="http://www.w3.org/1999/xlink">
<g id="graph0" class="graph" transform="scale(1 1) rotate(0) translate(4 265)">
<title>libmirai/public/libmirai/Messages/AudioMessage.hpp</title>
<!-- Node1 -->
<g id="node1" class="node">
<title>Node1</title>
<g id="a_node1"><a xlink:title=" ">
<polygon fill="#bfbfbf" stroke="black" points="33.05,-228.5 33.05,-260.5 197.05,-260.5 197.05,-228.5 33.05,-228.5"/>
<text text-anchor="start" x="41.05" y="-247.7" font-family="-apple-system, BlinkMacSystemFont, 'Segoe UI', Roboto, Oxygen, Ubuntu, Cantarell, 'Fira Sans', 'Droid Sans', 'Helvetica Neue', sans-serif" font-size="11.00">libmirai/public/libmirai</text>
<text text-anchor="middle" x="115.05" y="-235.7" font-family="-apple-system, BlinkMacSystemFont, 'Segoe UI', Roboto, Oxygen, Ubuntu, Cantarell, 'Fira Sans', 'Droid Sans', 'Helvetica Neue', sans-serif" font-size="11.00">/Messages/AudioMessage.hpp</text>
</a>
</g>
</g>
<!-- Node2 -->
<g id="node2" class="node">
<title>Node2</title>
<g id="a_node2"><a xlink:title=" ">
<polygon fill="none" stroke="#bfbfbf" points="25.55,-57.5 25.55,-77.5 68.55,-77.5 68.55,-57.5 25.55,-57.5"/>
<text text-anchor="middle" x="47.05" y="-64.7" font-family="-apple-system, BlinkMacSystemFont, 'Segoe UI', Roboto, Oxygen, Ubuntu, Cantarell, 'Fira Sans', 'Droid Sans', 'Helvetica Neue', sans-serif" font-size="11.00">string</text>
</a>
</g>
</g>
<!-- Node1&#45;&gt;Node2 -->
<g id="edge1" class="edge">
<title>Node1&#45;&gt;Node2</title>
<path fill="none" stroke="midnightblue" d="M99.92,-228.27C81.61,-208.65 51.78,-172.6 40.05,-135 35.2,-119.43 37.78,-100.93 41.09,-87.4"/>
<polygon fill="midnightblue" stroke="midnightblue" points="44.47,-88.34 43.79,-77.76 37.72,-86.45 44.47,-88.34"/>
</g>
<!-- Node3 -->
<g id="node3" class="node">
<title>Node3</title>
<g id="a_node3"><a xlink:title=" ">
<polygon fill="none" stroke="#bfbfbf" points="159.55,-0.5 159.55,-20.5 290.55,-20.5 290.55,-0.5 159.55,-0.5"/>
<text text-anchor="middle" x="225.05" y="-7.7" font-family="-apple-system, BlinkMacSystemFont, 'Segoe UI', Roboto, Oxygen, Ubuntu, Cantarell, 'Fira Sans', 'Droid Sans', 'Helvetica Neue', sans-serif" font-size="11.00">nlohmann/json_fwd.hpp</text>
</a>
</g>
</g>
<!-- Node1&#45;&gt;Node3 -->
<g id="edge2" class="edge">
<title>Node1&#45;&gt;Node3</title>
<path fill="none" stroke="midnightblue" d="M91.81,-228.49C79.13,-219.28 64.04,-206.49 54.05,-192 18.68,-140.68 -23.05,-105.54 16.05,-57 32.8,-36.22 96.63,-24.43 149.39,-18.09"/>
<polygon fill="midnightblue" stroke="midnightblue" points="149.9,-21.55 159.43,-16.93 149.1,-14.6 149.9,-21.55"/>
</g>
<!-- Node4 -->
<g id="node4" class="node">
<title>Node4</title>
<g id="a_node4"><a xlink:href="MediaTypes_8hpp.html" target="_top" xlink:title=" ">
<polygon fill="none" stroke="black" points="189.55,-171.5 189.55,-191.5 354.55,-191.5 354.55,-171.5 189.55,-171.5"/>
<text text-anchor="middle" x="272.05" y="-178.7" font-family="-apple-system, BlinkMacSystemFont, 'Segoe UI', Roboto, Oxygen, Ubuntu, Cantarell, 'Fira Sans', 'Droid Sans', 'Helvetica Neue', sans-serif" font-size="11.00">libmirai/Types/MediaTypes.hpp</text>
</a>
</g>
</g>
<!-- Node1&#45;&gt;Node4 -->
<g id="edge3" class="edge">
<title>Node1&#45;&gt;Node4</title>
<path fill="none" stroke="midnightblue" d="M153.86,-228.42C180.16,-218.21 214.51,-204.86 239.4,-195.19"/>
<polygon fill="midnightblue" stroke="midnightblue" points="240.72,-198.43 248.77,-191.55 238.18,-191.91 240.72,-198.43"/>
</g>
<!-- Node8 -->
<g id="node8" class="node">
<title>Node8</title>
<g id="a_node8"><a xlink:title=" ">
<polygon fill="none" stroke="#bfbfbf" points="579.55,-57.5 579.55,-77.5 620.55,-77.5 620.55,-57.5 579.55,-57.5"/>
<text text-anchor="middle" x="600.05" y="-64.7" font-family="-apple-system, BlinkMacSystemFont, 'Segoe UI', Roboto, Oxygen, Ubuntu, Cantarell, 'Fira Sans', 'Droid Sans', 'Helvetica Neue', sans-serif" font-size="11.00">utility</text>
</a>
</g>
</g>
<!-- Node1&#45;&gt;Node8 -->
<g id="edge18" class="edge">
<title>Node1&#45;&gt;Node8</title>
<path fill="none" stroke="midnightblue" d="M197.08,-237.4C322.29,-226.19 551.83,-197.47 601.05,-135 611.42,-121.85 609.72,-102.25 606.3,-87.74"/>
<polygon fill="midnightblue" stroke="midnightblue" points="609.59,-86.5 603.52,-77.82 602.85,-88.39 609.59,-86.5"/>
</g>
<!-- Node12 -->
<g id="node11" class="node">
<title>Node12</title>
<g id="a_node11"><a xlink:href="MessageBase_8hpp.html" target="_top" xlink:title=" ">
<polygon fill="none" stroke="black" points="62.05,-114.5 62.05,-134.5 168.05,-134.5 168.05,-114.5 62.05,-114.5"/>
<text text-anchor="middle" x="115.05" y="-121.7" font-family="-apple-system, BlinkMacSystemFont, 'Segoe UI', Roboto, Oxygen, Ubuntu, Cantarell, 'Fira Sans', 'Droid Sans', 'Helvetica Neue', sans-serif" font-size="11.00">MessageBase.hpp</text>
</a>
</g>
</g>
<!-- Node1&#45;&gt;Node12 -->
<g id="edge19" class="edge">
<title>Node1&#45;&gt;Node12</title>
<path fill="none" stroke="midnightblue" d="M115.05,-228.07C115.05,-206.71 115.05,-168.11 115.05,-144.84"/>
<polygon fill="midnightblue" stroke="midnightblue" points="118.55,-144.79 115.05,-134.79 111.55,-144.79 118.55,-144.79"/>
</g>
<!-- Node4&#45;&gt;Node2 -->
<g id="edge7" class="edge">
<title>Node4&#45;&gt;Node2</title>
<path fill="none" stroke="midnightblue" d="M189.34,-173.47C135.17,-167.04 71.17,-155.33 53.05,-135 41.74,-122.31 41.42,-102.34 43.21,-87.6"/>
<polygon fill="midnightblue" stroke="midnightblue" points="46.69,-87.97 44.84,-77.54 39.78,-86.85 46.69,-87.97"/>
</g>
<!-- Node4&#45;&gt;Node3 -->
<g id="edge9" class="edge">
<title>Node4&#45;&gt;Node3</title>
<path fill="none" stroke="midnightblue" d="M269.53,-171.41C262.13,-144.82 240.42,-66.74 230.32,-30.45"/>
<polygon fill="midnightblue" stroke="midnightblue" points="233.64,-29.33 227.59,-20.63 226.9,-31.2 233.64,-29.33"/>
</g>
<!-- Node5 -->
<g id="node5" class="node">
<title>Node5</title>
<g id="a_node5"><a xlink:title=" ">
<polygon fill="none" stroke="#bfbfbf" points="471.05,-57.5 471.05,-77.5 513.05,-77.5 513.05,-57.5 471.05,-57.5"/>
<text text-anchor="middle" x="492.05" y="-64.7" font-family="-apple-system, BlinkMacSystemFont, 'Segoe UI', Roboto, Oxygen, Ubuntu, Cantarell, 'Fira Sans', 'Droid Sans', 'Helvetica Neue', sans-serif" font-size="11.00">ctime</text>
</a>
</g>
</g>
<!-- Node4&#45;&gt;Node5 -->
<g id="edge4" class="edge">
<title>Node4&#45;&gt;Node5</title>
<path fill="none" stroke="midnightblue" d="M345.07,-171.5C393.97,-164.06 452.65,-151.97 471.05,-135 484.1,-122.97 489.09,-102.9 490.98,-87.95"/>
<polygon fill="midnightblue" stroke="midnightblue" points="494.48,-88.01 491.89,-77.74 487.51,-87.39 494.48,-88.01"/>
</g>
<!-- Node6 -->
<g id="node6" class="node">
<title>Node6</title>
<g id="a_node6"><a xlink:title=" ">
<polygon fill="none" stroke="#bfbfbf" points="141.05,-57.5 141.05,-77.5 197.05,-77.5 197.05,-57.5 141.05,-57.5"/>
<text text-anchor="middle" x="169.05" y="-64.7" font-family="-apple-system, BlinkMacSystemFont, 'Segoe UI', Roboto, Oxygen, Ubuntu, Cantarell, 'Fira Sans', 'Droid Sans', 'Helvetica Neue', sans-serif" font-size="11.00">memory</text>
</a>
</g>
</g>
<!-- Node4&#45;&gt;Node6 -->
<g id="edge5" class="edge">
<title>Node4&#45;&gt;Node6</title>
<path fill="none" stroke="midnightblue" d="M260.31,-171.35C249.36,-162.56 232.85,-148.65 220.05,-135 205.5,-119.48 190.93,-99.99 181.11,-86.13"/>
<polygon fill="midnightblue" stroke="midnightblue" points="183.72,-83.75 175.13,-77.55 177.98,-87.76 183.72,-83.75"/>
</g>
<!-- Node7 -->
<g id="node7" class="node">
<title>Node7</title>
<g id="a_node7"><a xlink:title=" ">
<polygon fill="none" stroke="#bfbfbf" points="518.05,-114.5 518.05,-134.5 572.05,-134.5 572.05,-114.5 518.05,-114.5"/>
<text text-anchor="middle" x="545.05" y="-121.7" font-family="-apple-system, BlinkMacSystemFont, 'Segoe UI', Roboto, Oxygen, Ubuntu, Cantarell, 'Fira Sans', 'Droid Sans', 'Helvetica Neue', sans-serif" font-size="11.00">optional</text>
</a>
</g>
</g>
<!-- Node4&#45;&gt;Node7 -->
<g id="edge6" class="edge">
<title>Node4&#45;&gt;Node7</title>
<path fill="none" stroke="midnightblue" d="M320.58,-171.48C367.59,-162.63 440.84,-148.52 504.05,-135 505.3,-134.73 506.57,-134.46 507.84,-134.18"/>
<polygon fill="midnightblue" stroke="midnightblue" points="508.74,-137.57 517.73,-131.97 507.21,-130.73 508.74,-137.57"/>
</g>
<!-- Node4&#45;&gt;Node8 -->
<g id="edge8" class="edge">
<title>Node4&#45;&gt;Node8</title>
<path fill="none" stroke="midnightblue" d="M354.56,-178.24C434.47,-174.34 548.22,-163.76 581.05,-135 594.3,-123.4 598.6,-103.27 599.86,-88.19"/>
<polygon fill="midnightblue" stroke="midnightblue" points="603.38,-88.02 600.33,-77.87 596.38,-87.7 603.38,-88.02"/>
</g>
<!-- Node9 -->
<g id="node9" class="node">
<title>Node9</title>
<g id="a_node9"><a xlink:href="BasicTypes_8hpp.html" target="_top" xlink:title=" ">
<polygon fill="none" stroke="red" points="300.05,-114.5 300.05,-134.5 462.05,-134.5 462.05,-114.5 300.05,-114.5"/>
<text text-anchor="middle" x="381.05" y="-121.7" font-family="-apple-system, BlinkMacSystemFont, 'Segoe UI', Roboto, Oxygen, Ubuntu, Cantarell, 'Fira Sans', 'Droid Sans', 'Helvetica Neue', sans-serif" font-size="11.00">libmirai/Types/BasicTypes.hpp</text>
</a>
</g>
</g>
<!-- Node4&#45;&gt;Node9 -->
<g id="edge10" class="edge">
<title>Node4&#45;&gt;Node9</title>
<path fill="none" stroke="midnightblue" d="M290.05,-171.42C307.41,-162.66 333.9,-149.29 353.84,-139.23"/>
<polygon fill="midnightblue" stroke="midnightblue" points="355.68,-142.23 363.03,-134.6 352.52,-135.98 355.68,-142.23"/>
</g>
<!-- Node11 -->
<g id="node10" class="node">
<title>Node11</title>
<g id="a_node10"><a xlink:href="Serializable_8hpp.html" target="_top" xlink:title=" ">
<polygon fill="none" stroke="black" points="253.05,-57.5 253.05,-77.5 415.05,-77.5 415.05,-57.5 253.05,-57.5"/>
<text text-anchor="middle" x="334.05" y="-64.7" font-family="-apple-system, BlinkMacSystemFont, 'Segoe UI', Roboto, Oxygen, Ubuntu, Cantarell, 'Fira Sans', 'Droid Sans', 'Helvetica Neue', sans-serif" font-size="11.00">libmirai/Types/Serializable.hpp</text>
</a>
</g>
</g>
<!-- Node4&#45;&gt;Node11 -->
<g id="edge17" class="edge">
<title>Node4&#45;&gt;Node11</title>
<path fill="none" stroke="midnightblue" d="M273.25,-171.36C275.31,-158.03 280.36,-132.78 291.05,-114 297.25,-103.12 306.57,-92.82 314.96,-84.78"/>
<polygon fill="midnightblue" stroke="midnightblue" points="317.56,-87.15 322.58,-77.82 312.83,-81.98 317.56,-87.15"/>
</g>
<!-- Node9&#45;&gt;Node2 -->
<g id="edge12" class="edge">
<title>Node9&#45;&gt;Node2</title>
<path fill="none" stroke="midnightblue" d="M326.27,-114.48C255.86,-102.88 135.9,-83.13 78.92,-73.75"/>
<polygon fill="midnightblue" stroke="midnightblue" points="79.16,-70.24 68.72,-72.07 78.02,-77.15 79.16,-70.24"/>
</g>
<!-- Node9&#45;&gt;Node3 -->
<g id="edge14" class="edge">
<title>Node9&#45;&gt;Node3</title>
<path fill="none" stroke="midnightblue" d="M394.55,-114.29C412.26,-101.09 439.39,-76.24 424.05,-57 408.55,-37.56 350.25,-25.76 300.72,-19.06"/>
<polygon fill="midnightblue" stroke="midnightblue" points="301,-15.57 290.63,-17.75 300.1,-22.51 301,-15.57"/>
</g>
<!-- Node9&#45;&gt;Node5 -->
<g id="edge11" class="edge">
<title>Node9&#45;&gt;Node5</title>
<path fill="none" stroke="midnightblue" d="M399.38,-114.42C417.14,-105.62 444.28,-92.17 464.61,-82.1"/>
<polygon fill="midnightblue" stroke="midnightblue" points="466.29,-85.17 473.7,-77.6 463.18,-78.9 466.29,-85.17"/>
</g>
<!-- Node9&#45;&gt;Node8 -->
<g id="edge13" class="edge">
<title>Node9&#45;&gt;Node8</title>
<path fill="none" stroke="midnightblue" d="M417.22,-114.42C459.8,-103.72 529.76,-86.15 569.66,-76.13"/>
<polygon fill="midnightblue" stroke="midnightblue" points="570.51,-79.53 579.36,-73.7 568.81,-72.74 570.51,-79.53"/>
</g>
<!-- Node9&#45;&gt;Node11 -->
<g id="edge15" class="edge">
<title>Node9&#45;&gt;Node11</title>
<path fill="none" stroke="midnightblue" d="M373.29,-114.42C366.6,-106.58 356.75,-95.06 348.59,-85.51"/>
<polygon fill="midnightblue" stroke="midnightblue" points="351.14,-83.11 341.98,-77.78 345.82,-87.66 351.14,-83.11"/>
</g>
<!-- Node11&#45;&gt;Node3 -->
<g id="edge16" class="edge">
<title>Node11&#45;&gt;Node3</title>
<path fill="none" stroke="midnightblue" d="M316.05,-57.42C298.7,-48.66 272.2,-35.29 252.27,-25.23"/>
<polygon fill="midnightblue" stroke="midnightblue" points="253.58,-21.98 243.08,-20.6 250.43,-28.23 253.58,-21.98"/>
</g>
<!-- Node12&#45;&gt;Node2 -->
<g id="edge21" class="edge">
<title>Node12&#45;&gt;Node2</title>
<path fill="none" stroke="midnightblue" d="M103.82,-114.42C93.65,-106.19 78.44,-93.88 66.32,-84.08"/>
<polygon fill="midnightblue" stroke="midnightblue" points="68.5,-81.35 58.53,-77.78 64.1,-86.79 68.5,-81.35"/>
</g>
<!-- Node12&#45;&gt;Node3 -->
<g id="edge22" class="edge">
<title>Node12&#45;&gt;Node3</title>
<path fill="none" stroke="midnightblue" d="M115.06,-114.26C115.55,-100.34 118.36,-73.82 132.05,-57 144.5,-41.71 163.35,-31.17 180.84,-24.11"/>
<polygon fill="midnightblue" stroke="midnightblue" points="182.22,-27.33 190.36,-20.54 179.77,-20.78 182.22,-27.33"/>
</g>
<!-- Node12&#45;&gt;Node6 -->
<g id="edge20" class="edge">
<title>Node12&#45;&gt;Node6</title>
<path fill="none" stroke="midnightblue" d="M123.97,-114.42C131.82,-106.42 143.44,-94.59 152.91,-84.94"/>
<polygon fill="midnightblue" stroke="midnightblue" points="155.43,-87.37 159.94,-77.78 150.44,-82.46 155.43,-87.37"/>
</g>
<!-- Node12&#45;&gt;Node11 -->
<g id="edge23" class="edge">
<title>Node12&#45;&gt;Node11</title>
<path fill="none" stroke="midnightblue" d="M151.22,-114.42C188.74,-105 247.51,-90.23 288.25,-80"/>
<polygon fill="midnightblue" stroke="midnightblue" points="289.35,-83.33 298.2,-77.5 287.65,-76.55 289.35,-83.33"/>
</g>
</g>
</svg>
