<?xml version="1.0" encoding="UTF-8" standalone="no"?>
<!DOCTYPE svg PUBLIC "-//W3C//DTD SVG 1.1//EN"
 "http://www.w3.org/Graphics/SVG/1.1/DTD/svg11.dtd">
<!-- Generated by graphviz version 3.0.0 (20220413.0242)
 -->
<!-- Title: libmirai/public/libmirai/Messages/AudioMessage.hpp Pages: 1 -->
<svg width="573pt" height="269pt"
 viewBox="0.00 0.00 573.00 269.00" xmlns="http://www.w3.org/2000/svg" xmlns:xlink="http://www.w3.org/1999/xlink">
<g id="graph0" class="graph" transform="scale(1 1) rotate(0) translate(4 265)">
<title>libmirai/public/libmirai/Messages/AudioMessage.hpp</title>
<!-- Node1 -->
<g id="node1" class="node">
<title>Node1</title>
<g id="a_node1"><a xlink:title=" ">
<polygon fill="#bfbfbf" stroke="black" points="0,-228.5 0,-260.5 164,-260.5 164,-228.5 0,-228.5"/>
<text text-anchor="start" x="8" y="-247.7" font-family="-apple-system, BlinkMacSystemFont, 'Segoe UI', Roboto, Oxygen, Ubuntu, Cantarell, 'Fira Sans', 'Droid Sans', 'Helvetica Neue', sans-serif" font-size="11.00">libmirai/public/libmirai</text>
<text text-anchor="middle" x="82" y="-235.7" font-family="-apple-system, BlinkMacSystemFont, 'Segoe UI', Roboto, Oxygen, Ubuntu, Cantarell, 'Fira Sans', 'Droid Sans', 'Helvetica Neue', sans-serif" font-size="11.00">/Messages/AudioMessage.hpp</text>
</a>
</g>
</g>
<!-- Node2 -->
<g id="node2" class="node">
<title>Node2</title>
<g id="a_node2"><a xlink:title=" ">
<polygon fill="none" stroke="#bfbfbf" points="122.5,-57.5 122.5,-77.5 165.5,-77.5 165.5,-57.5 122.5,-57.5"/>
<text text-anchor="middle" x="144" y="-64.7" font-family="-apple-system, BlinkMacSystemFont, 'Segoe UI', Roboto, Oxygen, Ubuntu, Cantarell, 'Fira Sans', 'Droid Sans', 'Helvetica Neue', sans-serif" font-size="11.00">string</text>
</a>
</g>
</g>
<!-- Node1&#45;&gt;Node2 -->
<g id="edge1" class="edge">
<title>Node1&#45;&gt;Node2</title>
<path fill="none" stroke="midnightblue" d="M80.03,-228.47C78.58,-213.59 77.68,-190.29 83,-171 92.13,-137.94 114.98,-104.75 129.97,-85.44"/>
<polygon fill="midnightblue" stroke="midnightblue" points="132.73,-87.59 136.23,-77.59 127.26,-83.23 132.73,-87.59"/>
</g>
<!-- Node3 -->
<g id="node3" class="node">
<title>Node3</title>
<g id="a_node3"><a xlink:title=" ">
<polygon fill="none" stroke="#bfbfbf" points="146.5,-0.5 146.5,-20.5 277.5,-20.5 277.5,-0.5 146.5,-0.5"/>
<text text-anchor="middle" x="212" y="-7.7" font-family="-apple-system, BlinkMacSystemFont, 'Segoe UI', Roboto, Oxygen, Ubuntu, Cantarell, 'Fira Sans', 'Droid Sans', 'Helvetica Neue', sans-serif" font-size="11.00">nlohmann/json_fwd.hpp</text>
</a>
</g>
</g>
<!-- Node1&#45;&gt;Node3 -->
<g id="edge2" class="edge">
<title>Node1&#45;&gt;Node3</title>
<path fill="none" stroke="midnightblue" d="M70.15,-228.48C44.77,-194.39 -9.29,-110.03 32,-57 45.18,-40.07 93.33,-28.44 136.52,-21.18"/>
<polygon fill="midnightblue" stroke="midnightblue" points="137.19,-24.62 146.5,-19.57 136.07,-17.71 137.19,-24.62"/>
</g>
<!-- Node4 -->
<g id="node4" class="node">
<title>Node4</title>
<g id="a_node4"><a xlink:href="MediaTypes_8hpp.html" target="_top" xlink:title=" ">
<polygon fill="none" stroke="black" points="92.5,-171.5 92.5,-191.5 257.5,-191.5 257.5,-171.5 92.5,-171.5"/>
<text text-anchor="middle" x="175" y="-178.7" font-family="-apple-system, BlinkMacSystemFont, 'Segoe UI', Roboto, Oxygen, Ubuntu, Cantarell, 'Fira Sans', 'Droid Sans', 'Helvetica Neue', sans-serif" font-size="11.00">libmirai/Types/MediaTypes.hpp</text>
</a>
</g>
</g>
<!-- Node1&#45;&gt;Node4 -->
<g id="edge3" class="edge">
<title>Node1&#45;&gt;Node4</title>
<path fill="none" stroke="midnightblue" d="M104.99,-228.42C119.46,-218.93 138.06,-206.73 152.45,-197.29"/>
<polygon fill="midnightblue" stroke="midnightblue" points="154.77,-199.96 161.21,-191.55 150.93,-194.1 154.77,-199.96"/>
</g>
<!-- Node11 -->
<g id="node10" class="node">
<title>Node11</title>
<g id="a_node10"><a xlink:href="MessageBase_8hpp.html" target="_top" xlink:title=" ">
<polygon fill="none" stroke="black" points="421,-114.5 421,-134.5 527,-134.5 527,-114.5 421,-114.5"/>
<text text-anchor="middle" x="474" y="-121.7" font-family="-apple-system, BlinkMacSystemFont, 'Segoe UI', Roboto, Oxygen, Ubuntu, Cantarell, 'Fira Sans', 'Droid Sans', 'Helvetica Neue', sans-serif" font-size="11.00">MessageBase.hpp</text>
</a>
</g>
</g>
<!-- Node1&#45;&gt;Node11 -->
<g id="edge16" class="edge">
<title>Node1&#45;&gt;Node11</title>
<path fill="none" stroke="midnightblue" d="M137.71,-228.48C174.28,-218.47 223.1,-204.86 266,-192 326.22,-173.95 395.7,-151.38 437.18,-137.72"/>
<polygon fill="midnightblue" stroke="midnightblue" points="438.44,-140.99 446.84,-134.53 436.25,-134.34 438.44,-140.99"/>
</g>
<!-- Node4&#45;&gt;Node2 -->
<g id="edge7" class="edge">
<title>Node4&#45;&gt;Node2</title>
<path fill="none" stroke="midnightblue" d="M158.15,-171.43C145.59,-163.63 129.39,-151.09 122,-135 114.66,-119.02 122.63,-99.87 130.96,-86.23"/>
<polygon fill="midnightblue" stroke="midnightblue" points="133.96,-88.04 136.6,-77.78 128.14,-84.16 133.96,-88.04"/>
</g>
<!-- Node4&#45;&gt;Node3 -->
<g id="edge8" class="edge">
<title>Node4&#45;&gt;Node3</title>
<path fill="none" stroke="midnightblue" d="M151.01,-171.49C103.83,-152.44 6.68,-105.78 44,-57 55.93,-41.4 99.06,-29.91 138.63,-22.38"/>
<polygon fill="midnightblue" stroke="midnightblue" points="139.39,-25.8 148.59,-20.55 138.12,-18.92 139.39,-25.8"/>
</g>
<!-- Node5 -->
<g id="node5" class="node">
<title>Node5</title>
<g id="a_node5"><a xlink:title=" ">
<polygon fill="none" stroke="#bfbfbf" points="53,-57.5 53,-77.5 95,-77.5 95,-57.5 53,-57.5"/>
<text text-anchor="middle" x="74" y="-64.7" font-family="-apple-system, BlinkMacSystemFont, 'Segoe UI', Roboto, Oxygen, Ubuntu, Cantarell, 'Fira Sans', 'Droid Sans', 'Helvetica Neue', sans-serif" font-size="11.00">ctime</text>
</a>
</g>
</g>
<!-- Node4&#45;&gt;Node5 -->
<g id="edge4" class="edge">
<title>Node4&#45;&gt;Node5</title>
<path fill="none" stroke="midnightblue" d="M160.25,-171.27C147.55,-162.85 129.24,-149.54 116,-135 102.68,-120.38 90.99,-101.01 83.35,-86.95"/>
<polygon fill="midnightblue" stroke="midnightblue" points="86.28,-85.02 78.53,-77.8 80.09,-88.28 86.28,-85.02"/>
</g>
<!-- Node6 -->
<g id="node6" class="node">
<title>Node6</title>
<g id="a_node6"><a xlink:title=" ">
<polygon fill="none" stroke="#bfbfbf" points="509,-57.5 509,-77.5 565,-77.5 565,-57.5 509,-57.5"/>
<text text-anchor="middle" x="537" y="-64.7" font-family="-apple-system, BlinkMacSystemFont, 'Segoe UI', Roboto, Oxygen, Ubuntu, Cantarell, 'Fira Sans', 'Droid Sans', 'Helvetica Neue', sans-serif" font-size="11.00">memory</text>
</a>
</g>
</g>
<!-- Node4&#45;&gt;Node6 -->
<g id="edge5" class="edge">
<title>Node4&#45;&gt;Node6</title>
<path fill="none" stroke="midnightblue" d="M257.62,-175.73C358.4,-169.06 517.72,-155.41 536,-135 547.29,-122.39 545.98,-102.41 542.79,-87.64"/>
<polygon fill="midnightblue" stroke="midnightblue" points="546.08,-86.36 540.17,-77.57 539.3,-88.13 546.08,-86.36"/>
</g>
<!-- Node7 -->
<g id="node7" class="node">
<title>Node7</title>
<g id="a_node7"><a xlink:title=" ">
<polygon fill="none" stroke="#bfbfbf" points="311,-114.5 311,-134.5 365,-134.5 365,-114.5 311,-114.5"/>
<text text-anchor="middle" x="338" y="-121.7" font-family="-apple-system, BlinkMacSystemFont, 'Segoe UI', Roboto, Oxygen, Ubuntu, Cantarell, 'Fira Sans', 'Droid Sans', 'Helvetica Neue', sans-serif" font-size="11.00">optional</text>
</a>
</g>
</g>
<!-- Node4&#45;&gt;Node7 -->
<g id="edge6" class="edge">
<title>Node4&#45;&gt;Node7</title>
<path fill="none" stroke="midnightblue" d="M201.92,-171.42C229.13,-162.23 271.38,-147.98 301.57,-137.79"/>
<polygon fill="midnightblue" stroke="midnightblue" points="302.96,-141.02 311.31,-134.5 300.72,-134.39 302.96,-141.02"/>
</g>
<!-- Node8 -->
<g id="node8" class="node">
<title>Node8</title>
<g id="a_node8"><a xlink:href="BasicTypes_8hpp.html" target="_top" xlink:title=" ">
<polygon fill="none" stroke="red" points="131,-114.5 131,-134.5 293,-134.5 293,-114.5 131,-114.5"/>
<text text-anchor="middle" x="212" y="-121.7" font-family="-apple-system, BlinkMacSystemFont, 'Segoe UI', Roboto, Oxygen, Ubuntu, Cantarell, 'Fira Sans', 'Droid Sans', 'Helvetica Neue', sans-serif" font-size="11.00">libmirai/Types/BasicTypes.hpp</text>
</a>
</g>
</g>
<!-- Node4&#45;&gt;Node8 -->
<g id="edge9" class="edge">
<title>Node4&#45;&gt;Node8</title>
<path fill="none" stroke="midnightblue" d="M181.11,-171.42C186.27,-163.74 193.82,-152.52 200.16,-143.09"/>
<polygon fill="midnightblue" stroke="midnightblue" points="203.08,-145.03 205.76,-134.78 197.27,-141.12 203.08,-145.03"/>
</g>
<!-- Node10 -->
<g id="node9" class="node">
<title>Node10</title>
<g id="a_node9"><a xlink:href="Serializable_8hpp.html" target="_top" xlink:title=" ">
<polygon fill="none" stroke="black" points="262,-57.5 262,-77.5 424,-77.5 424,-57.5 262,-57.5"/>
<text text-anchor="middle" x="343" y="-64.7" font-family="-apple-system, BlinkMacSystemFont, 'Segoe UI', Roboto, Oxygen, Ubuntu, Cantarell, 'Fira Sans', 'Droid Sans', 'Helvetica Neue', sans-serif" font-size="11.00">libmirai/Types/Serializable.hpp</text>
</a>
</g>
</g>
<!-- Node4&#45;&gt;Node10 -->
<g id="edge15" class="edge">
<title>Node4&#45;&gt;Node10</title>
<path fill="none" stroke="midnightblue" d="M257.69,-171.96C305.57,-165.12 359.23,-153.53 374,-135 385.95,-120.01 373.14,-99.67 360.55,-85.44"/>
<polygon fill="midnightblue" stroke="midnightblue" points="362.78,-82.7 353.35,-77.86 357.7,-87.52 362.78,-82.7"/>
</g>
<!-- Node8&#45;&gt;Node2 -->
<g id="edge11" class="edge">
<title>Node8&#45;&gt;Node2</title>
<path fill="none" stroke="midnightblue" d="M200.77,-114.42C190.6,-106.19 175.38,-93.88 163.27,-84.08"/>
<polygon fill="midnightblue" stroke="midnightblue" points="165.45,-81.35 155.47,-77.78 161.05,-86.79 165.45,-81.35"/>
</g>
<!-- Node8&#45;&gt;Node3 -->
<g id="edge12" class="edge">
<title>Node8&#45;&gt;Node3</title>
<path fill="none" stroke="midnightblue" d="M212,-114.33C212,-96.2 212,-55.41 212,-31"/>
<polygon fill="midnightblue" stroke="midnightblue" points="215.5,-30.79 212,-20.79 208.5,-30.79 215.5,-30.79"/>
</g>
<!-- Node8&#45;&gt;Node5 -->
<g id="edge10" class="edge">
<title>Node8&#45;&gt;Node5</title>
<path fill="none" stroke="midnightblue" d="M189.21,-114.42C166.1,-105.21 130.18,-90.89 104.6,-80.69"/>
<polygon fill="midnightblue" stroke="midnightblue" points="105.6,-77.32 95.01,-76.87 103,-83.83 105.6,-77.32"/>
</g>
<!-- Node8&#45;&gt;Node10 -->
<g id="edge13" class="edge">
<title>Node8&#45;&gt;Node10</title>
<path fill="none" stroke="midnightblue" d="M233.63,-114.42C254.96,-105.46 287.79,-91.68 311.91,-81.55"/>
<polygon fill="midnightblue" stroke="midnightblue" points="313.47,-84.69 321.34,-77.6 310.76,-78.24 313.47,-84.69"/>
</g>
<!-- Node10&#45;&gt;Node3 -->
<g id="edge14" class="edge">
<title>Node10&#45;&gt;Node3</title>
<path fill="none" stroke="midnightblue" d="M321.37,-57.42C300.04,-48.46 267.21,-34.68 243.09,-24.55"/>
<polygon fill="midnightblue" stroke="midnightblue" points="244.24,-21.24 233.66,-20.6 241.53,-27.69 244.24,-21.24"/>
</g>
<!-- Node11&#45;&gt;Node2 -->
<g id="edge18" class="edge">
<title>Node11&#45;&gt;Node2</title>
<path fill="none" stroke="midnightblue" d="M420.98,-114.66C351.66,-103.11 232.41,-83.23 175.72,-73.79"/>
<polygon fill="midnightblue" stroke="midnightblue" points="176.01,-70.29 165.57,-72.09 174.86,-77.19 176.01,-70.29"/>
</g>
<!-- Node11&#45;&gt;Node3 -->
<g id="edge19" class="edge">
<title>Node11&#45;&gt;Node3</title>
<path fill="none" stroke="midnightblue" d="M470.95,-114.07C465.68,-99.4 453.45,-71.31 433,-57 409.74,-40.72 341.94,-28.28 287.52,-20.56"/>
<polygon fill="midnightblue" stroke="midnightblue" points="287.91,-17.08 277.53,-19.18 286.95,-24.02 287.91,-17.08"/>
</g>
<!-- Node11&#45;&gt;Node6 -->
<g id="edge17" class="edge">
<title>Node11&#45;&gt;Node6</title>
<path fill="none" stroke="midnightblue" d="M484.4,-114.42C493.74,-106.27 507.65,-94.12 518.83,-84.37"/>
<polygon fill="midnightblue" stroke="midnightblue" points="521.14,-86.99 526.37,-77.78 516.54,-81.72 521.14,-86.99"/>
</g>
<!-- Node11&#45;&gt;Node10 -->
<g id="edge20" class="edge">
<title>Node11&#45;&gt;Node10</title>
<path fill="none" stroke="midnightblue" d="M452.37,-114.42C431.04,-105.46 398.21,-91.68 374.09,-81.55"/>
<polygon fill="midnightblue" stroke="midnightblue" points="375.24,-78.24 364.66,-77.6 372.53,-84.69 375.24,-78.24"/>
</g>
</g>
</svg>
