<?xml version="1.0" encoding="UTF-8" standalone="no"?>
<!DOCTYPE svg PUBLIC "-//W3C//DTD SVG 1.1//EN"
 "http://www.w3.org/Graphics/SVG/1.1/DTD/svg11.dtd">
<!-- Generated by graphviz version 2.43.0 (0)
 -->
<!-- Title: libmirai/public/libmirai/Types/BasicTypes.cpp Pages: 1 -->
<svg width="818pt" height="212pt"
 viewBox="0.00 0.00 818.00 212.00" xmlns="http://www.w3.org/2000/svg" xmlns:xlink="http://www.w3.org/1999/xlink">
<g id="graph0" class="graph" transform="scale(1 1) rotate(0) translate(4 208)">
<title>libmirai/public/libmirai/Types/BasicTypes.cpp</title>
<!-- Node1 -->
<g id="node1" class="node">
<title>Node1</title>
<g id="a_node1"><a xlink:title=" ">
<polygon fill="#bfbfbf" stroke="black" points="359,-171.5 359,-203.5 499,-203.5 499,-171.5 359,-171.5"/>
<text text-anchor="start" x="367" y="-190.7" font-family="-apple-system,BlinkMacSystemFont,'SegoeUI',Roboto,Oxygen,Ubuntu,Cantarell,'FiraSans','DroidSans','HelveticaNeue',sans-serif" font-size="11.00">libmirai/public/libmirai</text>
<text text-anchor="middle" x="429" y="-178.7" font-family="-apple-system,BlinkMacSystemFont,'SegoeUI',Roboto,Oxygen,Ubuntu,Cantarell,'FiraSans','DroidSans','HelveticaNeue',sans-serif" font-size="11.00">/Types/BasicTypes.cpp</text>
</a>
</g>
</g>
<!-- Node2 -->
<g id="node2" class="node">
<title>Node2</title>
<g id="a_node2"><a xlink:href="BasicTypes_8hpp.html" target="_top" xlink:title=" ">
<polygon fill="none" stroke="black" points="157.5,-114.5 157.5,-134.5 258.5,-134.5 258.5,-114.5 157.5,-114.5"/>
<text text-anchor="middle" x="208" y="-121.7" font-family="-apple-system,BlinkMacSystemFont,'SegoeUI',Roboto,Oxygen,Ubuntu,Cantarell,'FiraSans','DroidSans','HelveticaNeue',sans-serif" font-size="11.00">BasicTypes.hpp</text>
</a>
</g>
</g>
<!-- Node1&#45;&gt;Node2 -->
<g id="edge1" class="edge">
<title>Node1&#45;&gt;Node2</title>
<path fill="none" stroke="midnightblue" d="M374.65,-171.5C336.5,-160.97 286.18,-147.08 250.86,-137.33"/>
<polygon fill="midnightblue" stroke="midnightblue" points="251.43,-133.86 240.86,-134.57 249.57,-140.6 251.43,-133.86"/>
</g>
<!-- Node5 -->
<g id="node5" class="node">
<title>Node5</title>
<g id="a_node5"><a xlink:title=" ">
<polygon fill="none" stroke="#bfbfbf" points="378,-57.5 378,-77.5 426,-77.5 426,-57.5 378,-57.5"/>
<text text-anchor="middle" x="402" y="-64.7" font-family="-apple-system,BlinkMacSystemFont,'SegoeUI',Roboto,Oxygen,Ubuntu,Cantarell,'FiraSans','DroidSans','HelveticaNeue',sans-serif" font-size="11.00">string</text>
</a>
</g>
</g>
<!-- Node1&#45;&gt;Node5 -->
<g id="edge10" class="edge">
<title>Node1&#45;&gt;Node5</title>
<path fill="none" stroke="midnightblue" d="M399.04,-171.39C385.38,-162.76 370.59,-150.54 363,-135 354.31,-117.2 368.7,-97.76 382.38,-84.53"/>
<polygon fill="midnightblue" stroke="midnightblue" points="385.09,-86.8 390.18,-77.51 380.41,-81.6 385.09,-86.8"/>
</g>
<!-- Node8 -->
<g id="node8" class="node">
<title>Node8</title>
<g id="a_node8"><a xlink:title=" ">
<polygon fill="none" stroke="#bfbfbf" points="372,-114.5 372,-134.5 418,-134.5 418,-114.5 372,-114.5"/>
<text text-anchor="middle" x="395" y="-121.7" font-family="-apple-system,BlinkMacSystemFont,'SegoeUI',Roboto,Oxygen,Ubuntu,Cantarell,'FiraSans','DroidSans','HelveticaNeue',sans-serif" font-size="11.00">array</text>
</a>
</g>
</g>
<!-- Node1&#45;&gt;Node8 -->
<g id="edge8" class="edge">
<title>Node1&#45;&gt;Node8</title>
<path fill="none" stroke="midnightblue" d="M420.6,-171.42C415.86,-162.92 409.91,-152.26 404.95,-143.34"/>
<polygon fill="midnightblue" stroke="midnightblue" points="407.97,-141.58 400.04,-134.55 401.85,-144.98 407.97,-141.58"/>
</g>
<!-- Node9 -->
<g id="node9" class="node">
<title>Node9</title>
<g id="a_node9"><a xlink:title=" ">
<polygon fill="none" stroke="#bfbfbf" points="436,-114.5 436,-134.5 490,-134.5 490,-114.5 436,-114.5"/>
<text text-anchor="middle" x="463" y="-121.7" font-family="-apple-system,BlinkMacSystemFont,'SegoeUI',Roboto,Oxygen,Ubuntu,Cantarell,'FiraSans','DroidSans','HelveticaNeue',sans-serif" font-size="11.00">cstdint</text>
</a>
</g>
</g>
<!-- Node1&#45;&gt;Node9 -->
<g id="edge9" class="edge">
<title>Node1&#45;&gt;Node9</title>
<path fill="none" stroke="midnightblue" d="M437.4,-171.42C442.14,-162.92 448.09,-152.26 453.05,-143.34"/>
<polygon fill="midnightblue" stroke="midnightblue" points="456.15,-144.98 457.96,-134.55 450.03,-141.58 456.15,-144.98"/>
</g>
<!-- Node10 -->
<g id="node10" class="node">
<title>Node10</title>
<g id="a_node10"><a xlink:title=" ">
<polygon fill="none" stroke="#bfbfbf" points="508.5,-114.5 508.5,-134.5 629.5,-134.5 629.5,-114.5 508.5,-114.5"/>
<text text-anchor="middle" x="569" y="-121.7" font-family="-apple-system,BlinkMacSystemFont,'SegoeUI',Roboto,Oxygen,Ubuntu,Cantarell,'FiraSans','DroidSans','HelveticaNeue',sans-serif" font-size="11.00">nlohmann/json.hpp</text>
</a>
</g>
</g>
<!-- Node1&#45;&gt;Node10 -->
<g id="edge11" class="edge">
<title>Node1&#45;&gt;Node10</title>
<path fill="none" stroke="midnightblue" d="M463.61,-171.42C486.74,-161.34 516.88,-148.21 539,-138.57"/>
<polygon fill="midnightblue" stroke="midnightblue" points="540.47,-141.75 548.24,-134.55 537.67,-135.33 540.47,-141.75"/>
</g>
<!-- Node11 -->
<g id="node11" class="node">
<title>Node11</title>
<g id="a_node11"><a xlink:title=" ">
<polygon fill="none" stroke="#bfbfbf" points="648,-114.5 648,-134.5 810,-134.5 810,-114.5 648,-114.5"/>
<text text-anchor="middle" x="729" y="-121.7" font-family="-apple-system,BlinkMacSystemFont,'SegoeUI',Roboto,Oxygen,Ubuntu,Cantarell,'FiraSans','DroidSans','HelveticaNeue',sans-serif" font-size="11.00">libmirai/Utils/Common.hpp</text>
</a>
</g>
</g>
<!-- Node1&#45;&gt;Node11 -->
<g id="edge12" class="edge">
<title>Node1&#45;&gt;Node11</title>
<path fill="none" stroke="midnightblue" d="M499.34,-172.2C552.97,-161.29 625.74,-146.5 674.87,-136.51"/>
<polygon fill="midnightblue" stroke="midnightblue" points="675.58,-139.93 684.68,-134.51 674.18,-133.07 675.58,-139.93"/>
</g>
<!-- Node3 -->
<g id="node3" class="node">
<title>Node3</title>
<g id="a_node3"><a xlink:title=" ">
<polygon fill="none" stroke="#bfbfbf" points="0,-57.5 0,-77.5 54,-77.5 54,-57.5 0,-57.5"/>
<text text-anchor="middle" x="27" y="-64.7" font-family="-apple-system,BlinkMacSystemFont,'SegoeUI',Roboto,Oxygen,Ubuntu,Cantarell,'FiraSans','DroidSans','HelveticaNeue',sans-serif" font-size="11.00">chrono</text>
</a>
</g>
</g>
<!-- Node2&#45;&gt;Node3 -->
<g id="edge2" class="edge">
<title>Node2&#45;&gt;Node3</title>
<path fill="none" stroke="midnightblue" d="M178.11,-114.42C146.9,-104.93 97.89,-90.04 64.19,-79.8"/>
<polygon fill="midnightblue" stroke="midnightblue" points="64.85,-76.34 54.27,-76.79 62.82,-83.04 64.85,-76.34"/>
</g>
<!-- Node4 -->
<g id="node4" class="node">
<title>Node4</title>
<g id="a_node4"><a xlink:title=" ">
<polygon fill="none" stroke="#bfbfbf" points="72.5,-57.5 72.5,-77.5 119.5,-77.5 119.5,-57.5 72.5,-57.5"/>
<text text-anchor="middle" x="96" y="-64.7" font-family="-apple-system,BlinkMacSystemFont,'SegoeUI',Roboto,Oxygen,Ubuntu,Cantarell,'FiraSans','DroidSans','HelveticaNeue',sans-serif" font-size="11.00">ctime</text>
</a>
</g>
</g>
<!-- Node2&#45;&gt;Node4 -->
<g id="edge3" class="edge">
<title>Node2&#45;&gt;Node4</title>
<path fill="none" stroke="midnightblue" d="M189.51,-114.42C171.59,-105.62 144.2,-92.17 123.69,-82.1"/>
<polygon fill="midnightblue" stroke="midnightblue" points="125.04,-78.86 114.52,-77.6 121.96,-85.15 125.04,-78.86"/>
</g>
<!-- Node2&#45;&gt;Node5 -->
<g id="edge4" class="edge">
<title>Node2&#45;&gt;Node5</title>
<path fill="none" stroke="midnightblue" d="M240.09,-114.48C270.62,-105.89 318.12,-92.49 368.15,-78.23"/>
<polygon fill="midnightblue" stroke="midnightblue" points="369.2,-81.57 377.85,-75.47 367.28,-74.84 369.2,-81.57"/>
</g>
<!-- Node6 -->
<g id="node6" class="node">
<title>Node6</title>
<g id="a_node6"><a xlink:title=" ">
<polygon fill="none" stroke="#bfbfbf" points="135,-0.5 135,-20.5 281,-20.5 281,-0.5 135,-0.5"/>
<text text-anchor="middle" x="208" y="-7.7" font-family="-apple-system,BlinkMacSystemFont,'SegoeUI',Roboto,Oxygen,Ubuntu,Cantarell,'FiraSans','DroidSans','HelveticaNeue',sans-serif" font-size="11.00">nlohmann/json_fwd.hpp</text>
</a>
</g>
</g>
<!-- Node2&#45;&gt;Node6 -->
<g id="edge5" class="edge">
<title>Node2&#45;&gt;Node6</title>
<path fill="none" stroke="midnightblue" d="M196.35,-114.48C186.68,-106.19 173.64,-92.96 168,-78 161.05,-59.56 175.1,-40.48 188.43,-27.51"/>
<polygon fill="midnightblue" stroke="midnightblue" points="190.96,-29.94 196.02,-20.63 186.26,-24.75 190.96,-29.94"/>
</g>
<!-- Node7 -->
<g id="node7" class="node">
<title>Node7</title>
<g id="a_node7"><a xlink:href="Serializable_8hpp.html" target="_top" xlink:title=" ">
<polygon fill="none" stroke="black" points="176.5,-57.5 176.5,-77.5 359.5,-77.5 359.5,-57.5 176.5,-57.5"/>
<text text-anchor="middle" x="268" y="-64.7" font-family="-apple-system,BlinkMacSystemFont,'SegoeUI',Roboto,Oxygen,Ubuntu,Cantarell,'FiraSans','DroidSans','HelveticaNeue',sans-serif" font-size="11.00">libmirai/Types/Serializable.hpp</text>
</a>
</g>
</g>
<!-- Node2&#45;&gt;Node7 -->
<g id="edge6" class="edge">
<title>Node2&#45;&gt;Node7</title>
<path fill="none" stroke="midnightblue" d="M217.91,-114.42C226.71,-106.35 239.79,-94.36 250.38,-84.65"/>
<polygon fill="midnightblue" stroke="midnightblue" points="252.87,-87.12 257.88,-77.78 248.14,-81.96 252.87,-87.12"/>
</g>
<!-- Node7&#45;&gt;Node6 -->
<g id="edge7" class="edge">
<title>Node7&#45;&gt;Node6</title>
<path fill="none" stroke="midnightblue" d="M258.09,-57.42C249.29,-49.35 236.21,-37.36 225.62,-27.65"/>
<polygon fill="midnightblue" stroke="midnightblue" points="227.86,-24.96 218.12,-20.78 223.13,-30.12 227.86,-24.96"/>
</g>
</g>
</svg>
