<?xml version="1.0" encoding="UTF-8" standalone="no"?>
<!DOCTYPE svg PUBLIC "-//W3C//DTD SVG 1.1//EN"
 "http://www.w3.org/Graphics/SVG/1.1/DTD/svg11.dtd">
<!-- Generated by graphviz version 3.0.0 (20220413.0242)
 -->
<!-- Title: libmirai/public/libmirai/Types/BasicTypes.hpp Pages: 1 -->
<svg width="457pt" height="155pt"
 viewBox="0.00 0.00 457.00 155.00" xmlns="http://www.w3.org/2000/svg" xmlns:xlink="http://www.w3.org/1999/xlink">
<g id="graph0" class="graph" transform="scale(1 1) rotate(0) translate(4 151)">
<title>libmirai/public/libmirai/Types/BasicTypes.hpp</title>
<!-- Node1 -->
<g id="node1" class="node">
<title>Node1</title>
<g id="a_node1"><a xlink:title=" ">
<polygon fill="#bfbfbf" stroke="black" points="116,-114.5 116,-146.5 244,-146.5 244,-114.5 116,-114.5"/>
<text text-anchor="start" x="124" y="-133.7" font-family="-apple-system, BlinkMacSystemFont, 'Segoe UI', Roboto, Oxygen, Ubuntu, Cantarell, 'Fira Sans', 'Droid Sans', 'Helvetica Neue', sans-serif" font-size="11.00">libmirai/public/libmirai</text>
<text text-anchor="middle" x="180" y="-121.7" font-family="-apple-system, BlinkMacSystemFont, 'Segoe UI', Roboto, Oxygen, Ubuntu, Cantarell, 'Fira Sans', 'Droid Sans', 'Helvetica Neue', sans-serif" font-size="11.00">/Types/BasicTypes.hpp</text>
</a>
</g>
</g>
<!-- Node2 -->
<g id="node2" class="node">
<title>Node2</title>
<g id="a_node2"><a xlink:title=" ">
<polygon fill="none" stroke="#bfbfbf" points="0,-57.5 0,-77.5 50,-77.5 50,-57.5 0,-57.5"/>
<text text-anchor="middle" x="25" y="-64.7" font-family="-apple-system, BlinkMacSystemFont, 'Segoe UI', Roboto, Oxygen, Ubuntu, Cantarell, 'Fira Sans', 'Droid Sans', 'Helvetica Neue', sans-serif" font-size="11.00">chrono</text>
</a>
</g>
</g>
<!-- Node1&#45;&gt;Node2 -->
<g id="edge1" class="edge">
<title>Node1&#45;&gt;Node2</title>
<path fill="none" stroke="midnightblue" d="M141.69,-114.42C115.84,-104.25 82.11,-90.97 57.56,-81.32"/>
<polygon fill="midnightblue" stroke="midnightblue" points="58.57,-77.95 47.99,-77.55 56.01,-84.46 58.57,-77.95"/>
</g>
<!-- Node3 -->
<g id="node3" class="node">
<title>Node3</title>
<g id="a_node3"><a xlink:title=" ">
<polygon fill="none" stroke="#bfbfbf" points="68,-57.5 68,-77.5 110,-77.5 110,-57.5 68,-57.5"/>
<text text-anchor="middle" x="89" y="-64.7" font-family="-apple-system, BlinkMacSystemFont, 'Segoe UI', Roboto, Oxygen, Ubuntu, Cantarell, 'Fira Sans', 'Droid Sans', 'Helvetica Neue', sans-serif" font-size="11.00">ctime</text>
</a>
</g>
</g>
<!-- Node1&#45;&gt;Node3 -->
<g id="edge2" class="edge">
<title>Node1&#45;&gt;Node3</title>
<path fill="none" stroke="midnightblue" d="M157.51,-114.42C143.34,-104.93 125.15,-92.73 111.07,-83.29"/>
<polygon fill="midnightblue" stroke="midnightblue" points="112.75,-80.21 102.49,-77.55 108.85,-86.02 112.75,-80.21"/>
</g>
<!-- Node4 -->
<g id="node4" class="node">
<title>Node4</title>
<g id="a_node4"><a xlink:title=" ">
<polygon fill="none" stroke="#bfbfbf" points="128.5,-57.5 128.5,-77.5 171.5,-77.5 171.5,-57.5 128.5,-57.5"/>
<text text-anchor="middle" x="150" y="-64.7" font-family="-apple-system, BlinkMacSystemFont, 'Segoe UI', Roboto, Oxygen, Ubuntu, Cantarell, 'Fira Sans', 'Droid Sans', 'Helvetica Neue', sans-serif" font-size="11.00">string</text>
</a>
</g>
</g>
<!-- Node1&#45;&gt;Node4 -->
<g id="edge3" class="edge">
<title>Node1&#45;&gt;Node4</title>
<path fill="none" stroke="midnightblue" d="M172.58,-114.42C168.45,-106.01 163.27,-95.48 158.92,-86.63"/>
<polygon fill="midnightblue" stroke="midnightblue" points="162,-84.97 154.45,-77.55 155.72,-88.06 162,-84.97"/>
</g>
<!-- Node5 -->
<g id="node5" class="node">
<title>Node5</title>
<g id="a_node5"><a xlink:title=" ">
<polygon fill="none" stroke="#bfbfbf" points="189.5,-57.5 189.5,-77.5 230.5,-77.5 230.5,-57.5 189.5,-57.5"/>
<text text-anchor="middle" x="210" y="-64.7" font-family="-apple-system, BlinkMacSystemFont, 'Segoe UI', Roboto, Oxygen, Ubuntu, Cantarell, 'Fira Sans', 'Droid Sans', 'Helvetica Neue', sans-serif" font-size="11.00">utility</text>
</a>
</g>
</g>
<!-- Node1&#45;&gt;Node5 -->
<g id="edge4" class="edge">
<title>Node1&#45;&gt;Node5</title>
<path fill="none" stroke="midnightblue" d="M187.42,-114.42C191.55,-106.01 196.73,-95.48 201.08,-86.63"/>
<polygon fill="midnightblue" stroke="midnightblue" points="204.28,-88.06 205.55,-77.55 198,-84.97 204.28,-88.06"/>
</g>
<!-- Node6 -->
<g id="node6" class="node">
<title>Node6</title>
<g id="a_node6"><a xlink:title=" ">
<polygon fill="none" stroke="#bfbfbf" points="247.5,-0.5 247.5,-20.5 378.5,-20.5 378.5,-0.5 247.5,-0.5"/>
<text text-anchor="middle" x="313" y="-7.7" font-family="-apple-system, BlinkMacSystemFont, 'Segoe UI', Roboto, Oxygen, Ubuntu, Cantarell, 'Fira Sans', 'Droid Sans', 'Helvetica Neue', sans-serif" font-size="11.00">nlohmann/json_fwd.hpp</text>
</a>
</g>
</g>
<!-- Node1&#45;&gt;Node6 -->
<g id="edge5" class="edge">
<title>Node1&#45;&gt;Node6</title>
<path fill="none" stroke="midnightblue" d="M197.97,-114.31C209.95,-104.13 226.01,-90.37 240,-78 259.29,-60.94 281.07,-41.01 295.78,-27.45"/>
<polygon fill="midnightblue" stroke="midnightblue" points="298.19,-29.98 303.17,-20.63 293.44,-24.84 298.19,-29.98"/>
</g>
<!-- Node7 -->
<g id="node7" class="node">
<title>Node7</title>
<g id="a_node7"><a xlink:href="Serializable_8hpp.html" target="_top" xlink:title=" ">
<polygon fill="none" stroke="black" points="287,-57.5 287,-77.5 449,-77.5 449,-57.5 287,-57.5"/>
<text text-anchor="middle" x="368" y="-64.7" font-family="-apple-system, BlinkMacSystemFont, 'Segoe UI', Roboto, Oxygen, Ubuntu, Cantarell, 'Fira Sans', 'Droid Sans', 'Helvetica Neue', sans-serif" font-size="11.00">libmirai/Types/Serializable.hpp</text>
</a>
</g>
</g>
<!-- Node1&#45;&gt;Node7 -->
<g id="edge6" class="edge">
<title>Node1&#45;&gt;Node7</title>
<path fill="none" stroke="midnightblue" d="M226.47,-114.42C258.51,-104.02 300.56,-90.38 330.47,-80.68"/>
<polygon fill="midnightblue" stroke="midnightblue" points="331.69,-83.96 340.12,-77.55 329.53,-77.3 331.69,-83.96"/>
</g>
<!-- Node7&#45;&gt;Node6 -->
<g id="edge7" class="edge">
<title>Node7&#45;&gt;Node6</title>
<path fill="none" stroke="midnightblue" d="M358.92,-57.42C350.92,-49.42 339.09,-37.59 329.44,-27.94"/>
<polygon fill="midnightblue" stroke="midnightblue" points="331.83,-25.38 322.28,-20.78 326.88,-30.33 331.83,-25.38"/>
</g>
</g>
</svg>
