<?xml version="1.0" encoding="UTF-8" standalone="no"?>
<!DOCTYPE svg PUBLIC "-//W3C//DTD SVG 1.1//EN"
 "http://www.w3.org/Graphics/SVG/1.1/DTD/svg11.dtd">
<!-- Generated by graphviz version 3.0.0 (20220413.0242)
 -->
<!-- Title: libmirai/public/libmirai/Types/BasicTypes.cpp Pages: 1 -->
<svg width="616pt" height="212pt"
 viewBox="0.00 0.00 615.50 212.00" xmlns="http://www.w3.org/2000/svg" xmlns:xlink="http://www.w3.org/1999/xlink">
<g id="graph0" class="graph" transform="scale(1 1) rotate(0) translate(4 208)">
<title>libmirai/public/libmirai/Types/BasicTypes.cpp</title>
<!-- Node1 -->
<g id="node1" class="node">
<title>Node1</title>
<g id="a_node1"><a xlink:title=" ">
<polygon fill="#bfbfbf" stroke="black" points="202.5,-171.5 202.5,-203.5 330.5,-203.5 330.5,-171.5 202.5,-171.5"/>
<text text-anchor="start" x="210.5" y="-190.7" font-family="-apple-system, BlinkMacSystemFont, 'Segoe UI', Roboto, Oxygen, Ubuntu, Cantarell, 'Fira Sans', 'Droid Sans', 'Helvetica Neue', sans-serif" font-size="11.00">libmirai/public/libmirai</text>
<text text-anchor="middle" x="266.5" y="-178.7" font-family="-apple-system, BlinkMacSystemFont, 'Segoe UI', Roboto, Oxygen, Ubuntu, Cantarell, 'Fira Sans', 'Droid Sans', 'Helvetica Neue', sans-serif" font-size="11.00">/Types/BasicTypes.cpp</text>
</a>
</g>
</g>
<!-- Node2 -->
<g id="node2" class="node">
<title>Node2</title>
<g id="a_node2"><a xlink:href="BasicTypes_8hpp.html" target="_top" xlink:title=" ">
<polygon fill="none" stroke="black" points="104,-114.5 104,-134.5 197,-134.5 197,-114.5 104,-114.5"/>
<text text-anchor="middle" x="150.5" y="-121.7" font-family="-apple-system, BlinkMacSystemFont, 'Segoe UI', Roboto, Oxygen, Ubuntu, Cantarell, 'Fira Sans', 'Droid Sans', 'Helvetica Neue', sans-serif" font-size="11.00">BasicTypes.hpp</text>
</a>
</g>
</g>
<!-- Node1&#45;&gt;Node2 -->
<g id="edge1" class="edge">
<title>Node1&#45;&gt;Node2</title>
<path fill="none" stroke="midnightblue" d="M237.83,-171.42C219.09,-161.57 194.8,-148.8 176.6,-139.23"/>
<polygon fill="midnightblue" stroke="midnightblue" points="178.18,-136.1 167.7,-134.55 174.92,-142.3 178.18,-136.1"/>
</g>
<!-- Node5 -->
<g id="node5" class="node">
<title>Node5</title>
<g id="a_node5"><a xlink:title=" ">
<polygon fill="none" stroke="#bfbfbf" points="0,-57.5 0,-77.5 43,-77.5 43,-57.5 0,-57.5"/>
<text text-anchor="middle" x="21.5" y="-64.7" font-family="-apple-system, BlinkMacSystemFont, 'Segoe UI', Roboto, Oxygen, Ubuntu, Cantarell, 'Fira Sans', 'Droid Sans', 'Helvetica Neue', sans-serif" font-size="11.00">string</text>
</a>
</g>
</g>
<!-- Node1&#45;&gt;Node5 -->
<g id="edge11" class="edge">
<title>Node1&#45;&gt;Node5</title>
<path fill="none" stroke="midnightblue" d="M202.09,-174.18C168.85,-166.11 128.47,-153.54 95.5,-135 72.13,-121.86 49.89,-100.2 36,-85.18"/>
<polygon fill="midnightblue" stroke="midnightblue" points="38.49,-82.71 29.19,-77.62 33.29,-87.4 38.49,-82.71"/>
</g>
<!-- Node9 -->
<g id="node9" class="node">
<title>Node9</title>
<g id="a_node9"><a xlink:title=" ">
<polygon fill="none" stroke="#bfbfbf" points="215,-114.5 215,-134.5 256,-134.5 256,-114.5 215,-114.5"/>
<text text-anchor="middle" x="235.5" y="-121.7" font-family="-apple-system, BlinkMacSystemFont, 'Segoe UI', Roboto, Oxygen, Ubuntu, Cantarell, 'Fira Sans', 'Droid Sans', 'Helvetica Neue', sans-serif" font-size="11.00">array</text>
</a>
</g>
</g>
<!-- Node1&#45;&gt;Node9 -->
<g id="edge9" class="edge">
<title>Node1&#45;&gt;Node9</title>
<path fill="none" stroke="midnightblue" d="M258.84,-171.42C254.56,-163.01 249.21,-152.48 244.71,-143.63"/>
<polygon fill="midnightblue" stroke="midnightblue" points="247.75,-141.88 240.1,-134.55 241.51,-145.05 247.75,-141.88"/>
</g>
<!-- Node10 -->
<g id="node10" class="node">
<title>Node10</title>
<g id="a_node10"><a xlink:title=" ">
<polygon fill="none" stroke="#bfbfbf" points="274,-114.5 274,-134.5 321,-134.5 321,-114.5 274,-114.5"/>
<text text-anchor="middle" x="297.5" y="-121.7" font-family="-apple-system, BlinkMacSystemFont, 'Segoe UI', Roboto, Oxygen, Ubuntu, Cantarell, 'Fira Sans', 'Droid Sans', 'Helvetica Neue', sans-serif" font-size="11.00">cstdint</text>
</a>
</g>
</g>
<!-- Node1&#45;&gt;Node10 -->
<g id="edge10" class="edge">
<title>Node1&#45;&gt;Node10</title>
<path fill="none" stroke="midnightblue" d="M274.16,-171.42C278.44,-163.01 283.79,-152.48 288.29,-143.63"/>
<polygon fill="midnightblue" stroke="midnightblue" points="291.49,-145.05 292.9,-134.55 285.25,-141.88 291.49,-145.05"/>
</g>
<!-- Node11 -->
<g id="node11" class="node">
<title>Node11</title>
<g id="a_node11"><a xlink:title=" ">
<polygon fill="none" stroke="#bfbfbf" points="339.5,-114.5 339.5,-134.5 447.5,-134.5 447.5,-114.5 339.5,-114.5"/>
<text text-anchor="middle" x="393.5" y="-121.7" font-family="-apple-system, BlinkMacSystemFont, 'Segoe UI', Roboto, Oxygen, Ubuntu, Cantarell, 'Fira Sans', 'Droid Sans', 'Helvetica Neue', sans-serif" font-size="11.00">nlohmann/json.hpp</text>
</a>
</g>
</g>
<!-- Node1&#45;&gt;Node11 -->
<g id="edge12" class="edge">
<title>Node1&#45;&gt;Node11</title>
<path fill="none" stroke="midnightblue" d="M297.89,-171.42C318.6,-161.48 345.48,-148.56 365.47,-138.96"/>
<polygon fill="midnightblue" stroke="midnightblue" points="367.17,-142.03 374.67,-134.55 364.14,-135.72 367.17,-142.03"/>
</g>
<!-- Node12 -->
<g id="node12" class="node">
<title>Node12</title>
<g id="a_node12"><a xlink:title=" ">
<polygon fill="none" stroke="#bfbfbf" points="465.5,-114.5 465.5,-134.5 607.5,-134.5 607.5,-114.5 465.5,-114.5"/>
<text text-anchor="middle" x="536.5" y="-121.7" font-family="-apple-system, BlinkMacSystemFont, 'Segoe UI', Roboto, Oxygen, Ubuntu, Cantarell, 'Fira Sans', 'Droid Sans', 'Helvetica Neue', sans-serif" font-size="11.00">libmirai/Utils/Common.hpp</text>
</a>
</g>
</g>
<!-- Node1&#45;&gt;Node12 -->
<g id="edge13" class="edge">
<title>Node1&#45;&gt;Node12</title>
<path fill="none" stroke="midnightblue" d="M330.83,-171.97C378.58,-161.18 442.76,-146.68 486.65,-136.76"/>
<polygon fill="midnightblue" stroke="midnightblue" points="487.54,-140.15 496.52,-134.53 486,-133.32 487.54,-140.15"/>
</g>
<!-- Node3 -->
<g id="node3" class="node">
<title>Node3</title>
<g id="a_node3"><a xlink:title=" ">
<polygon fill="none" stroke="#bfbfbf" points="61.5,-57.5 61.5,-77.5 111.5,-77.5 111.5,-57.5 61.5,-57.5"/>
<text text-anchor="middle" x="86.5" y="-64.7" font-family="-apple-system, BlinkMacSystemFont, 'Segoe UI', Roboto, Oxygen, Ubuntu, Cantarell, 'Fira Sans', 'Droid Sans', 'Helvetica Neue', sans-serif" font-size="11.00">chrono</text>
</a>
</g>
</g>
<!-- Node2&#45;&gt;Node3 -->
<g id="edge2" class="edge">
<title>Node2&#45;&gt;Node3</title>
<path fill="none" stroke="midnightblue" d="M139.93,-114.42C130.45,-106.27 116.31,-94.12 104.96,-84.37"/>
<polygon fill="midnightblue" stroke="midnightblue" points="107.16,-81.64 97.3,-77.78 102.6,-86.95 107.16,-81.64"/>
</g>
<!-- Node4 -->
<g id="node4" class="node">
<title>Node4</title>
<g id="a_node4"><a xlink:title=" ">
<polygon fill="none" stroke="#bfbfbf" points="129.5,-57.5 129.5,-77.5 171.5,-77.5 171.5,-57.5 129.5,-57.5"/>
<text text-anchor="middle" x="150.5" y="-64.7" font-family="-apple-system, BlinkMacSystemFont, 'Segoe UI', Roboto, Oxygen, Ubuntu, Cantarell, 'Fira Sans', 'Droid Sans', 'Helvetica Neue', sans-serif" font-size="11.00">ctime</text>
</a>
</g>
</g>
<!-- Node2&#45;&gt;Node4 -->
<g id="edge3" class="edge">
<title>Node2&#45;&gt;Node4</title>
<path fill="none" stroke="midnightblue" d="M150.5,-114.42C150.5,-107.22 150.5,-96.9 150.5,-87.86"/>
<polygon fill="midnightblue" stroke="midnightblue" points="154,-87.78 150.5,-77.78 147,-87.78 154,-87.78"/>
</g>
<!-- Node2&#45;&gt;Node5 -->
<g id="edge4" class="edge">
<title>Node2&#45;&gt;Node5</title>
<path fill="none" stroke="midnightblue" d="M129.2,-114.42C108.19,-105.46 75.87,-91.68 52.11,-81.55"/>
<polygon fill="midnightblue" stroke="midnightblue" points="53.4,-78.3 42.83,-77.6 50.66,-84.74 53.4,-78.3"/>
</g>
<!-- Node6 -->
<g id="node6" class="node">
<title>Node6</title>
<g id="a_node6"><a xlink:title=" ">
<polygon fill="none" stroke="#bfbfbf" points="190,-57.5 190,-77.5 231,-77.5 231,-57.5 190,-57.5"/>
<text text-anchor="middle" x="210.5" y="-64.7" font-family="-apple-system, BlinkMacSystemFont, 'Segoe UI', Roboto, Oxygen, Ubuntu, Cantarell, 'Fira Sans', 'Droid Sans', 'Helvetica Neue', sans-serif" font-size="11.00">utility</text>
</a>
</g>
</g>
<!-- Node2&#45;&gt;Node6 -->
<g id="edge5" class="edge">
<title>Node2&#45;&gt;Node6</title>
<path fill="none" stroke="midnightblue" d="M160.41,-114.42C169.21,-106.35 182.29,-94.36 192.88,-84.65"/>
<polygon fill="midnightblue" stroke="midnightblue" points="195.37,-87.12 200.38,-77.78 190.64,-81.96 195.37,-87.12"/>
</g>
<!-- Node7 -->
<g id="node7" class="node">
<title>Node7</title>
<g id="a_node7"><a xlink:title=" ">
<polygon fill="none" stroke="#bfbfbf" points="248,-0.5 248,-20.5 379,-20.5 379,-0.5 248,-0.5"/>
<text text-anchor="middle" x="313.5" y="-7.7" font-family="-apple-system, BlinkMacSystemFont, 'Segoe UI', Roboto, Oxygen, Ubuntu, Cantarell, 'Fira Sans', 'Droid Sans', 'Helvetica Neue', sans-serif" font-size="11.00">nlohmann/json_fwd.hpp</text>
</a>
</g>
</g>
<!-- Node2&#45;&gt;Node7 -->
<g id="edge6" class="edge">
<title>Node2&#45;&gt;Node7</title>
<path fill="none" stroke="midnightblue" d="M172.52,-114.39C191.33,-106.14 218.73,-93 240.5,-78 262.18,-63.06 284.11,-42.12 298.2,-27.75"/>
<polygon fill="midnightblue" stroke="midnightblue" points="300.75,-30.15 305.17,-20.52 295.71,-25.29 300.75,-30.15"/>
</g>
<!-- Node8 -->
<g id="node8" class="node">
<title>Node8</title>
<g id="a_node8"><a xlink:href="Serializable_8hpp.html" target="_top" xlink:title=" ">
<polygon fill="none" stroke="black" points="287.5,-57.5 287.5,-77.5 449.5,-77.5 449.5,-57.5 287.5,-57.5"/>
<text text-anchor="middle" x="368.5" y="-64.7" font-family="-apple-system, BlinkMacSystemFont, 'Segoe UI', Roboto, Oxygen, Ubuntu, Cantarell, 'Fira Sans', 'Droid Sans', 'Helvetica Neue', sans-serif" font-size="11.00">libmirai/Types/Serializable.hpp</text>
</a>
</g>
</g>
<!-- Node2&#45;&gt;Node8 -->
<g id="edge7" class="edge">
<title>Node2&#45;&gt;Node8</title>
<path fill="none" stroke="midnightblue" d="M186.5,-114.42C223.85,-105 282.36,-90.23 322.91,-80"/>
<polygon fill="midnightblue" stroke="midnightblue" points="323.97,-83.34 332.81,-77.5 322.26,-76.56 323.97,-83.34"/>
</g>
<!-- Node8&#45;&gt;Node7 -->
<g id="edge8" class="edge">
<title>Node8&#45;&gt;Node7</title>
<path fill="none" stroke="midnightblue" d="M359.42,-57.42C351.42,-49.42 339.59,-37.59 329.94,-27.94"/>
<polygon fill="midnightblue" stroke="midnightblue" points="332.33,-25.38 322.78,-20.78 327.38,-30.33 332.33,-25.38"/>
</g>
</g>
</svg>
