<?xml version="1.0" encoding="UTF-8" standalone="no"?>
<!DOCTYPE svg PUBLIC "-//W3C//DTD SVG 1.1//EN"
 "http://www.w3.org/Graphics/SVG/1.1/DTD/svg11.dtd">
<!-- Generated by graphviz version 3.0.0 (20221109.1736)
 -->
<!-- Title: libmirai/models/libmirai/Events/BotEvents.hpp Pages: 1 -->
<svg width="620pt" height="212pt"
 viewBox="0.00 0.00 619.50 212.00" xmlns="http://www.w3.org/2000/svg" xmlns:xlink="http://www.w3.org/1999/xlink">
<g id="graph0" class="graph" transform="scale(1 1) rotate(0) translate(4 208)">
<title>libmirai/models/libmirai/Events/BotEvents.hpp</title>
<!-- Node1 -->
<g id="node1" class="node">
<title>Node1</title>
<g id="a_node1"><a xlink:title=" ">
<polygon fill="#bfbfbf" stroke="black" points="73.5,-171.5 73.5,-203.5 198.5,-203.5 198.5,-171.5 73.5,-171.5"/>
<text text-anchor="start" x="81.5" y="-190.7" font-family="-apple-system, BlinkMacSystemFont, 'Segoe UI', Roboto, Oxygen, Ubuntu, Cantarell, 'Fira Sans', 'Droid Sans', 'Helvetica Neue', sans-serif" font-size="11.00">libmirai/models/libmirai</text>
<text text-anchor="middle" x="136" y="-178.7" font-family="-apple-system, BlinkMacSystemFont, 'Segoe UI', Roboto, Oxygen, Ubuntu, Cantarell, 'Fira Sans', 'Droid Sans', 'Helvetica Neue', sans-serif" font-size="11.00">/Events/BotEvents.hpp</text>
</a>
</g>
</g>
<!-- Node2 -->
<g id="node2" class="node">
<title>Node2</title>
<g id="a_node2"><a xlink:title=" ">
<polygon fill="none" stroke="#bfbfbf" points="0,-114.5 0,-134.5 54,-134.5 54,-114.5 0,-114.5"/>
<text text-anchor="middle" x="27" y="-121.7" font-family="-apple-system, BlinkMacSystemFont, 'Segoe UI', Roboto, Oxygen, Ubuntu, Cantarell, 'Fira Sans', 'Droid Sans', 'Helvetica Neue', sans-serif" font-size="11.00">optional</text>
</a>
</g>
</g>
<!-- Node1&#45;&gt;Node2 -->
<g id="edge1" class="edge">
<title>Node1&#45;&gt;Node2</title>
<path fill="none" stroke="midnightblue" d="M109.06,-171.42C91.61,-161.66 69.05,-149.03 52,-139.49"/>
<polygon fill="midnightblue" stroke="midnightblue" points="53.6,-136.38 43.16,-134.55 50.18,-142.48 53.6,-136.38"/>
</g>
<!-- Node3 -->
<g id="node3" class="node">
<title>Node3</title>
<g id="a_node3"><a xlink:title=" ">
<polygon fill="none" stroke="#bfbfbf" points="211.5,-0.5 211.5,-20.5 254.5,-20.5 254.5,-0.5 211.5,-0.5"/>
<text text-anchor="middle" x="233" y="-7.7" font-family="-apple-system, BlinkMacSystemFont, 'Segoe UI', Roboto, Oxygen, Ubuntu, Cantarell, 'Fira Sans', 'Droid Sans', 'Helvetica Neue', sans-serif" font-size="11.00">string</text>
</a>
</g>
</g>
<!-- Node1&#45;&gt;Node3 -->
<g id="edge2" class="edge">
<title>Node1&#45;&gt;Node3</title>
<path fill="none" stroke="midnightblue" d="M121.91,-171.12C114.09,-161.5 105.13,-148.43 101,-135 90.03,-99.34 104.65,-82.37 132,-57 151.72,-38.71 180.03,-26.82 201.67,-19.8"/>
<polygon fill="midnightblue" stroke="midnightblue" points="202.85,-23.1 211.39,-16.83 200.8,-16.41 202.85,-23.1"/>
</g>
<!-- Node4 -->
<g id="node4" class="node">
<title>Node4</title>
<g id="a_node4"><a xlink:href="BasicTypes_8hpp.html" target="_top" xlink:title=" ">
<polygon fill="none" stroke="black" points="110,-114.5 110,-134.5 272,-134.5 272,-114.5 110,-114.5"/>
<text text-anchor="middle" x="191" y="-121.7" font-family="-apple-system, BlinkMacSystemFont, 'Segoe UI', Roboto, Oxygen, Ubuntu, Cantarell, 'Fira Sans', 'Droid Sans', 'Helvetica Neue', sans-serif" font-size="11.00">libmirai/Types/BasicTypes.hpp</text>
</a>
</g>
</g>
<!-- Node1&#45;&gt;Node4 -->
<g id="edge3" class="edge">
<title>Node1&#45;&gt;Node4</title>
<path fill="none" stroke="midnightblue" d="M149.6,-171.42C157.58,-162.56 167.7,-151.35 175.93,-142.22"/>
<polygon fill="midnightblue" stroke="midnightblue" points="178.75,-144.32 182.84,-134.55 173.55,-139.63 178.75,-144.32"/>
</g>
<!-- Node8 -->
<g id="node8" class="node">
<title>Node8</title>
<g id="a_node8"><a xlink:href="IEvent_8hpp.html" target="_top" xlink:title=" ">
<polygon fill="none" stroke="black" points="340,-114.5 340,-134.5 408,-134.5 408,-114.5 340,-114.5"/>
<text text-anchor="middle" x="374" y="-121.7" font-family="-apple-system, BlinkMacSystemFont, 'Segoe UI', Roboto, Oxygen, Ubuntu, Cantarell, 'Fira Sans', 'Droid Sans', 'Helvetica Neue', sans-serif" font-size="11.00">IEvent.hpp</text>
</a>
</g>
</g>
<!-- Node1&#45;&gt;Node8 -->
<g id="edge8" class="edge">
<title>Node1&#45;&gt;Node8</title>
<path fill="none" stroke="midnightblue" d="M194.53,-171.5C236.47,-160.75 292.07,-146.5 330.21,-136.72"/>
<polygon fill="midnightblue" stroke="midnightblue" points="331.18,-140.09 339.99,-134.22 329.44,-133.31 331.18,-140.09"/>
</g>
<!-- Node4&#45;&gt;Node3 -->
<g id="edge6" class="edge">
<title>Node4&#45;&gt;Node3</title>
<path fill="none" stroke="midnightblue" d="M174.93,-114.48C155.01,-102.09 125.3,-78.85 139,-57 152.64,-35.25 179.94,-23.64 201.62,-17.61"/>
<polygon fill="midnightblue" stroke="midnightblue" points="202.58,-20.98 211.42,-15.14 200.87,-14.19 202.58,-20.98"/>
</g>
<!-- Node5 -->
<g id="node5" class="node">
<title>Node5</title>
<g id="a_node5"><a xlink:title=" ">
<polygon fill="none" stroke="#bfbfbf" points="148,-57.5 148,-77.5 198,-77.5 198,-57.5 148,-57.5"/>
<text text-anchor="middle" x="173" y="-64.7" font-family="-apple-system, BlinkMacSystemFont, 'Segoe UI', Roboto, Oxygen, Ubuntu, Cantarell, 'Fira Sans', 'Droid Sans', 'Helvetica Neue', sans-serif" font-size="11.00">chrono</text>
</a>
</g>
</g>
<!-- Node4&#45;&gt;Node5 -->
<g id="edge4" class="edge">
<title>Node4&#45;&gt;Node5</title>
<path fill="none" stroke="midnightblue" d="M188.03,-114.42C185.64,-107.14 182.22,-96.67 179.24,-87.57"/>
<polygon fill="midnightblue" stroke="midnightblue" points="182.47,-86.19 176.04,-77.78 175.82,-88.37 182.47,-86.19"/>
</g>
<!-- Node6 -->
<g id="node6" class="node">
<title>Node6</title>
<g id="a_node6"><a xlink:title=" ">
<polygon fill="none" stroke="#bfbfbf" points="216,-57.5 216,-77.5 258,-77.5 258,-57.5 216,-57.5"/>
<text text-anchor="middle" x="237" y="-64.7" font-family="-apple-system, BlinkMacSystemFont, 'Segoe UI', Roboto, Oxygen, Ubuntu, Cantarell, 'Fira Sans', 'Droid Sans', 'Helvetica Neue', sans-serif" font-size="11.00">ctime</text>
</a>
</g>
</g>
<!-- Node4&#45;&gt;Node6 -->
<g id="edge5" class="edge">
<title>Node4&#45;&gt;Node6</title>
<path fill="none" stroke="midnightblue" d="M198.6,-114.42C205.15,-106.58 214.79,-95.06 222.77,-85.51"/>
<polygon fill="midnightblue" stroke="midnightblue" points="225.51,-87.7 229.24,-77.78 220.14,-83.2 225.51,-87.7"/>
</g>
<!-- Node7 -->
<g id="node7" class="node">
<title>Node7</title>
<g id="a_node7"><a xlink:title=" ">
<polygon fill="none" stroke="#bfbfbf" points="276.5,-57.5 276.5,-77.5 317.5,-77.5 317.5,-57.5 276.5,-57.5"/>
<text text-anchor="middle" x="297" y="-64.7" font-family="-apple-system, BlinkMacSystemFont, 'Segoe UI', Roboto, Oxygen, Ubuntu, Cantarell, 'Fira Sans', 'Droid Sans', 'Helvetica Neue', sans-serif" font-size="11.00">utility</text>
</a>
</g>
</g>
<!-- Node4&#45;&gt;Node7 -->
<g id="edge7" class="edge">
<title>Node4&#45;&gt;Node7</title>
<path fill="none" stroke="midnightblue" d="M208.5,-114.42C225.38,-105.66 251.15,-92.29 270.53,-82.23"/>
<polygon fill="midnightblue" stroke="midnightblue" points="272.21,-85.31 279.47,-77.6 268.98,-79.09 272.21,-85.31"/>
</g>
<!-- Node8&#45;&gt;Node3 -->
<g id="edge10" class="edge">
<title>Node8&#45;&gt;Node3</title>
<path fill="none" stroke="midnightblue" d="M369.25,-114.23C361.72,-100.27 345.82,-73.7 326,-57 307.74,-41.61 283.39,-29.94 264.18,-22.28"/>
<polygon fill="midnightblue" stroke="midnightblue" points="265.26,-18.94 254.67,-18.63 262.76,-25.48 265.26,-18.94"/>
</g>
<!-- Node9 -->
<g id="node9" class="node">
<title>Node9</title>
<g id="a_node9"><a xlink:title=" ">
<polygon fill="none" stroke="#bfbfbf" points="374,-57.5 374,-77.5 430,-77.5 430,-57.5 374,-57.5"/>
<text text-anchor="middle" x="402" y="-64.7" font-family="-apple-system, BlinkMacSystemFont, 'Segoe UI', Roboto, Oxygen, Ubuntu, Cantarell, 'Fira Sans', 'Droid Sans', 'Helvetica Neue', sans-serif" font-size="11.00">memory</text>
</a>
</g>
</g>
<!-- Node8&#45;&gt;Node9 -->
<g id="edge9" class="edge">
<title>Node8&#45;&gt;Node9</title>
<path fill="none" stroke="midnightblue" d="M378.62,-114.42C382.41,-106.98 387.89,-96.21 392.59,-86.97"/>
<polygon fill="midnightblue" stroke="midnightblue" points="395.86,-88.28 397.28,-77.78 389.62,-85.1 395.86,-88.28"/>
</g>
<!-- Node10 -->
<g id="node10" class="node">
<title>Node10</title>
<g id="a_node10"><a xlink:href="EventTypes_8hpp.html" target="_top" xlink:title=" ">
<polygon fill="none" stroke="red" points="448.5,-57.5 448.5,-77.5 611.5,-77.5 611.5,-57.5 448.5,-57.5"/>
<text text-anchor="middle" x="530" y="-64.7" font-family="-apple-system, BlinkMacSystemFont, 'Segoe UI', Roboto, Oxygen, Ubuntu, Cantarell, 'Fira Sans', 'Droid Sans', 'Helvetica Neue', sans-serif" font-size="11.00">libmirai/Types/EventTypes.hpp</text>
</a>
</g>
</g>
<!-- Node8&#45;&gt;Node10 -->
<g id="edge11" class="edge">
<title>Node8&#45;&gt;Node10</title>
<path fill="none" stroke="midnightblue" d="M399.76,-114.42C425.69,-105.27 465.89,-91.1 494.76,-80.92"/>
<polygon fill="midnightblue" stroke="midnightblue" points="496.19,-84.13 504.46,-77.5 493.87,-77.53 496.19,-84.13"/>
</g>
<!-- Node10&#45;&gt;Node3 -->
<g id="edge12" class="edge">
<title>Node10&#45;&gt;Node3</title>
<path fill="none" stroke="midnightblue" d="M481.29,-57.48C420.01,-46.13 316.55,-26.97 264.66,-17.36"/>
<polygon fill="midnightblue" stroke="midnightblue" points="265.17,-13.9 254.7,-15.52 263.9,-20.78 265.17,-13.9"/>
</g>
</g>
</svg>
