<?xml version="1.0" encoding="UTF-8" standalone="no"?>
<!DOCTYPE svg PUBLIC "-//W3C//DTD SVG 1.1//EN"
 "http://www.w3.org/Graphics/SVG/1.1/DTD/svg11.dtd">
<!-- Generated by graphviz version 3.0.0 (20220413.0242)
 -->
<!-- Title: libmirai/public/libmirai/Events/BotEvent.hpp Pages: 1 -->
<svg width="1105pt" height="179pt"
 viewBox="0.00 0.00 1105.00 179.00" xmlns="http://www.w3.org/2000/svg" xmlns:xlink="http://www.w3.org/1999/xlink">
<g id="graph0" class="graph" transform="scale(1 1) rotate(0) translate(4 175)">
<title>libmirai/public/libmirai/Events/BotEvent.hpp</title>
<!-- Node1 -->
<g id="node1" class="node">
<title>Node1</title>
<g id="a_node1"><a xlink:title=" ">
<polygon fill="#bfbfbf" stroke="black" points="407,-138.5 407,-170.5 526,-170.5 526,-138.5 407,-138.5"/>
<text text-anchor="start" x="415" y="-157.7" font-family="-apple-system, BlinkMacSystemFont, 'Segoe UI', Roboto, Oxygen, Ubuntu, Cantarell, 'Fira Sans', 'Droid Sans', 'Helvetica Neue', sans-serif" font-size="11.00">libmirai/public/libmirai</text>
<text text-anchor="middle" x="466.5" y="-145.7" font-family="-apple-system, BlinkMacSystemFont, 'Segoe UI', Roboto, Oxygen, Ubuntu, Cantarell, 'Fira Sans', 'Droid Sans', 'Helvetica Neue', sans-serif" font-size="11.00">/Events/BotEvent.hpp</text>
</a>
</g>
</g>
<!-- Node2 -->
<g id="node2" class="node">
<title>Node2</title>
<g id="a_node2"><a xlink:href="BotEvent_8cpp.html" target="_top" xlink:title=" ">
<polygon fill="none" stroke="black" points="0,-69.5 0,-101.5 119,-101.5 119,-69.5 0,-69.5"/>
<text text-anchor="start" x="8" y="-88.7" font-family="-apple-system, BlinkMacSystemFont, 'Segoe UI', Roboto, Oxygen, Ubuntu, Cantarell, 'Fira Sans', 'Droid Sans', 'Helvetica Neue', sans-serif" font-size="11.00">libmirai/public/libmirai</text>
<text text-anchor="middle" x="59.5" y="-76.7" font-family="-apple-system, BlinkMacSystemFont, 'Segoe UI', Roboto, Oxygen, Ubuntu, Cantarell, 'Fira Sans', 'Droid Sans', 'Helvetica Neue', sans-serif" font-size="11.00">/Events/BotEvent.cpp</text>
</a>
</g>
</g>
<!-- Node1&#45;&gt;Node2 -->
<g id="edge1" class="edge">
<title>Node1&#45;&gt;Node2</title>
<path fill="none" stroke="midnightblue" d="M396.52,-144.29C328,-134.93 220.74,-119.37 128.5,-102 125.48,-101.43 122.4,-100.83 119.29,-100.2"/>
<polygon fill="midnightblue" stroke="midnightblue" points="396.38,-147.8 406.76,-145.68 397.32,-140.87 396.38,-147.8"/>
</g>
<!-- Node3 -->
<g id="node3" class="node">
<title>Node3</title>
<g id="a_node3"><a xlink:href="BotOfflineEventActive_8hpp.html" target="_top" xlink:title=" ">
<polygon fill="none" stroke="black" points="137.5,-69.5 137.5,-101.5 315.5,-101.5 315.5,-69.5 137.5,-69.5"/>
<text text-anchor="start" x="145.5" y="-88.7" font-family="-apple-system, BlinkMacSystemFont, 'Segoe UI', Roboto, Oxygen, Ubuntu, Cantarell, 'Fira Sans', 'Droid Sans', 'Helvetica Neue', sans-serif" font-size="11.00">libmirai/public/libmirai</text>
<text text-anchor="middle" x="226.5" y="-76.7" font-family="-apple-system, BlinkMacSystemFont, 'Segoe UI', Roboto, Oxygen, Ubuntu, Cantarell, 'Fira Sans', 'Droid Sans', 'Helvetica Neue', sans-serif" font-size="11.00">/Events/BotOfflineEventActive.hpp</text>
</a>
</g>
</g>
<!-- Node1&#45;&gt;Node3 -->
<g id="edge2" class="edge">
<title>Node1&#45;&gt;Node3</title>
<path fill="none" stroke="midnightblue" d="M402.68,-135.68C364.61,-125.06 316.8,-111.71 280.6,-101.6"/>
<polygon fill="midnightblue" stroke="midnightblue" points="402.07,-139.15 412.64,-138.46 403.95,-132.4 402.07,-139.15"/>
</g>
<!-- Node4 -->
<g id="node4" class="node">
<title>Node4</title>
<g id="a_node4"><a xlink:href="Events_8hpp.html" target="_top" xlink:title=" ">
<polygon fill="none" stroke="red" points="507.5,-0.5 507.5,-32.5 625.5,-32.5 625.5,-0.5 507.5,-0.5"/>
<text text-anchor="start" x="515.5" y="-19.7" font-family="-apple-system, BlinkMacSystemFont, 'Segoe UI', Roboto, Oxygen, Ubuntu, Cantarell, 'Fira Sans', 'Droid Sans', 'Helvetica Neue', sans-serif" font-size="11.00">libmirai/public/libmirai</text>
<text text-anchor="middle" x="566.5" y="-7.7" font-family="-apple-system, BlinkMacSystemFont, 'Segoe UI', Roboto, Oxygen, Ubuntu, Cantarell, 'Fira Sans', 'Droid Sans', 'Helvetica Neue', sans-serif" font-size="11.00">/Events/Events.hpp</text>
</a>
</g>
</g>
<!-- Node1&#45;&gt;Node4 -->
<g id="edge12" class="edge">
<title>Node1&#45;&gt;Node4</title>
<path fill="none" stroke="midnightblue" d="M399.97,-134.03C385.15,-126.47 371.26,-116.11 362.5,-102 354.77,-89.54 353.49,-80.57 362.5,-69 380.23,-46.23 453.78,-31.95 507.5,-24.35"/>
<polygon fill="midnightblue" stroke="midnightblue" points="398.73,-137.32 409.27,-138.39 401.7,-130.98 398.73,-137.32"/>
</g>
<!-- Node7 -->
<g id="node5" class="node">
<title>Node7</title>
<g id="a_node5"><a xlink:href="BotOfflineEventDropped_8hpp.html" target="_top" xlink:title=" ">
<polygon fill="none" stroke="black" points="371.5,-69.5 371.5,-101.5 561.5,-101.5 561.5,-69.5 371.5,-69.5"/>
<text text-anchor="start" x="379.5" y="-88.7" font-family="-apple-system, BlinkMacSystemFont, 'Segoe UI', Roboto, Oxygen, Ubuntu, Cantarell, 'Fira Sans', 'Droid Sans', 'Helvetica Neue', sans-serif" font-size="11.00">libmirai/public/libmirai</text>
<text text-anchor="middle" x="466.5" y="-76.7" font-family="-apple-system, BlinkMacSystemFont, 'Segoe UI', Roboto, Oxygen, Ubuntu, Cantarell, 'Fira Sans', 'Droid Sans', 'Helvetica Neue', sans-serif" font-size="11.00">/Events/BotOfflineEventDropped.hpp</text>
</a>
</g>
</g>
<!-- Node1&#45;&gt;Node7 -->
<g id="edge4" class="edge">
<title>Node1&#45;&gt;Node7</title>
<path fill="none" stroke="midnightblue" d="M466.5,-128.02C466.5,-119.13 466.5,-109.43 466.5,-101.64"/>
<polygon fill="midnightblue" stroke="midnightblue" points="463,-128.3 466.5,-138.3 470,-128.3 463,-128.3"/>
</g>
<!-- Node8 -->
<g id="node6" class="node">
<title>Node8</title>
<g id="a_node6"><a xlink:href="BotOfflineEventForce_8hpp.html" target="_top" xlink:title=" ">
<polygon fill="none" stroke="black" points="579.5,-69.5 579.5,-101.5 755.5,-101.5 755.5,-69.5 579.5,-69.5"/>
<text text-anchor="start" x="587.5" y="-88.7" font-family="-apple-system, BlinkMacSystemFont, 'Segoe UI', Roboto, Oxygen, Ubuntu, Cantarell, 'Fira Sans', 'Droid Sans', 'Helvetica Neue', sans-serif" font-size="11.00">libmirai/public/libmirai</text>
<text text-anchor="middle" x="667.5" y="-76.7" font-family="-apple-system, BlinkMacSystemFont, 'Segoe UI', Roboto, Oxygen, Ubuntu, Cantarell, 'Fira Sans', 'Droid Sans', 'Helvetica Neue', sans-serif" font-size="11.00">/Events/BotOfflineEventForce.hpp</text>
</a>
</g>
</g>
<!-- Node1&#45;&gt;Node8 -->
<g id="edge6" class="edge">
<title>Node1&#45;&gt;Node8</title>
<path fill="none" stroke="midnightblue" d="M521.17,-135.28C552.85,-124.72 592.26,-111.58 622.19,-101.6"/>
<polygon fill="midnightblue" stroke="midnightblue" points="519.99,-131.98 511.61,-138.46 522.2,-138.62 519.99,-131.98"/>
</g>
<!-- Node9 -->
<g id="node7" class="node">
<title>Node9</title>
<g id="a_node7"><a xlink:href="BotOnlineEvent_8hpp.html" target="_top" xlink:title=" ">
<polygon fill="none" stroke="black" points="773.5,-69.5 773.5,-101.5 923.5,-101.5 923.5,-69.5 773.5,-69.5"/>
<text text-anchor="start" x="781.5" y="-88.7" font-family="-apple-system, BlinkMacSystemFont, 'Segoe UI', Roboto, Oxygen, Ubuntu, Cantarell, 'Fira Sans', 'Droid Sans', 'Helvetica Neue', sans-serif" font-size="11.00">libmirai/public/libmirai</text>
<text text-anchor="middle" x="848.5" y="-76.7" font-family="-apple-system, BlinkMacSystemFont, 'Segoe UI', Roboto, Oxygen, Ubuntu, Cantarell, 'Fira Sans', 'Droid Sans', 'Helvetica Neue', sans-serif" font-size="11.00">/Events/BotOnlineEvent.hpp</text>
</a>
</g>
</g>
<!-- Node1&#45;&gt;Node9 -->
<g id="edge8" class="edge">
<title>Node1&#45;&gt;Node9</title>
<path fill="none" stroke="midnightblue" d="M536.37,-141.66C596.78,-131.36 686.45,-115.94 764.5,-102 767.42,-101.48 770.4,-100.94 773.4,-100.4"/>
<polygon fill="midnightblue" stroke="midnightblue" points="535.45,-138.26 526.18,-143.39 536.63,-145.16 535.45,-138.26"/>
</g>
<!-- Node10 -->
<g id="node8" class="node">
<title>Node10</title>
<g id="a_node8"><a xlink:href="BotReloginEvent_8hpp.html" target="_top" xlink:title=" ">
<polygon fill="none" stroke="black" points="942,-69.5 942,-101.5 1097,-101.5 1097,-69.5 942,-69.5"/>
<text text-anchor="start" x="950" y="-88.7" font-family="-apple-system, BlinkMacSystemFont, 'Segoe UI', Roboto, Oxygen, Ubuntu, Cantarell, 'Fira Sans', 'Droid Sans', 'Helvetica Neue', sans-serif" font-size="11.00">libmirai/public/libmirai</text>
<text text-anchor="middle" x="1019.5" y="-76.7" font-family="-apple-system, BlinkMacSystemFont, 'Segoe UI', Roboto, Oxygen, Ubuntu, Cantarell, 'Fira Sans', 'Droid Sans', 'Helvetica Neue', sans-serif" font-size="11.00">/Events/BotReloginEvent.hpp</text>
</a>
</g>
</g>
<!-- Node1&#45;&gt;Node10 -->
<g id="edge10" class="edge">
<title>Node1&#45;&gt;Node10</title>
<path fill="none" stroke="midnightblue" d="M536.47,-147.22C627.79,-138.7 792.48,-122.19 932.5,-102 935.54,-101.56 938.63,-101.1 941.75,-100.61"/>
<polygon fill="midnightblue" stroke="midnightblue" points="535.88,-143.76 526.24,-148.17 536.53,-150.73 535.88,-143.76"/>
</g>
<!-- Node3&#45;&gt;Node4 -->
<g id="edge3" class="edge">
<title>Node3&#45;&gt;Node4</title>
<path fill="none" stroke="midnightblue" d="M312.78,-67.5C373.66,-55.5 453.61,-39.75 507.36,-29.15"/>
<polygon fill="midnightblue" stroke="midnightblue" points="311.94,-64.1 302.8,-69.46 313.29,-70.96 311.94,-64.1"/>
</g>
<!-- Node7&#45;&gt;Node4 -->
<g id="edge5" class="edge">
<title>Node7&#45;&gt;Node4</title>
<path fill="none" stroke="midnightblue" d="M497.65,-63.63C512.62,-53.6 530.23,-41.8 543.9,-32.64"/>
<polygon fill="midnightblue" stroke="midnightblue" points="495.55,-60.82 489.19,-69.3 499.45,-66.64 495.55,-60.82"/>
</g>
<!-- Node8&#45;&gt;Node4 -->
<g id="edge7" class="edge">
<title>Node8&#45;&gt;Node4</title>
<path fill="none" stroke="midnightblue" d="M636.29,-63.8C621.15,-53.76 603.3,-41.91 589.44,-32.72"/>
<polygon fill="midnightblue" stroke="midnightblue" points="634.57,-66.85 644.83,-69.46 638.44,-61.02 634.57,-66.85"/>
</g>
<!-- Node9&#45;&gt;Node4 -->
<g id="edge9" class="edge">
<title>Node9&#45;&gt;Node4</title>
<path fill="none" stroke="midnightblue" d="M775.48,-67.15C728.92,-56.09 669.34,-41.93 625.72,-31.57"/>
<polygon fill="midnightblue" stroke="midnightblue" points="774.68,-70.56 785.21,-69.46 776.29,-63.75 774.68,-70.56"/>
</g>
<!-- Node10&#45;&gt;Node4 -->
<g id="edge11" class="edge">
<title>Node10&#45;&gt;Node4</title>
<path fill="none" stroke="midnightblue" d="M931.75,-68.91C817.34,-50.82 695.93,-34.38 625.55,-25.13"/>
<polygon fill="midnightblue" stroke="midnightblue" points="931.31,-72.39 941.74,-70.5 932.41,-65.47 931.31,-72.39"/>
</g>
</g>
</svg>
