<?xml version="1.0" encoding="UTF-8" standalone="no"?>
<!DOCTYPE svg PUBLIC "-//W3C//DTD SVG 1.1//EN"
 "http://www.w3.org/Graphics/SVG/1.1/DTD/svg11.dtd">
<!-- Generated by graphviz version 3.0.0 (20220413.0242)
 -->
<!-- Title: libmirai/public/libmirai/Events/BotInvitedJoinGroupRequestEvent.hpp Pages: 1 -->
<svg width="518pt" height="203pt"
 viewBox="0.00 0.00 518.00 203.00" xmlns="http://www.w3.org/2000/svg" xmlns:xlink="http://www.w3.org/1999/xlink">
<g id="graph0" class="graph" transform="scale(1 1) rotate(0) translate(4 199)">
<title>libmirai/public/libmirai/Events/BotInvitedJoinGroupRequestEvent.hpp</title>
<!-- Node1 -->
<g id="node1" class="node">
<title>Node1</title>
<g id="a_node1"><a xlink:title=" ">
<polygon fill="#bfbfbf" stroke="black" points="93.5,-150.5 93.5,-194.5 286.5,-194.5 286.5,-150.5 93.5,-150.5"/>
<text text-anchor="start" x="101.5" y="-181.7" font-family="-apple-system, BlinkMacSystemFont, 'Segoe UI', Roboto, Oxygen, Ubuntu, Cantarell, 'Fira Sans', 'Droid Sans', 'Helvetica Neue', sans-serif" font-size="11.00">libmirai/public/libmirai</text>
<text text-anchor="start" x="101.5" y="-169.7" font-family="-apple-system, BlinkMacSystemFont, 'Segoe UI', Roboto, Oxygen, Ubuntu, Cantarell, 'Fira Sans', 'Droid Sans', 'Helvetica Neue', sans-serif" font-size="11.00">/Events/BotInvitedJoinGroupRequest</text>
<text text-anchor="middle" x="190" y="-157.7" font-family="-apple-system, BlinkMacSystemFont, 'Segoe UI', Roboto, Oxygen, Ubuntu, Cantarell, 'Fira Sans', 'Droid Sans', 'Helvetica Neue', sans-serif" font-size="11.00">Event.hpp</text>
</a>
</g>
</g>
<!-- Node2 -->
<g id="node2" class="node">
<title>Node2</title>
<g id="a_node2"><a xlink:href="Client_8cpp.html" target="_top" xlink:title=" ">
<polygon fill="none" stroke="black" points="0,-0.5 0,-32.5 118,-32.5 118,-0.5 0,-0.5"/>
<text text-anchor="start" x="8" y="-19.7" font-family="-apple-system, BlinkMacSystemFont, 'Segoe UI', Roboto, Oxygen, Ubuntu, Cantarell, 'Fira Sans', 'Droid Sans', 'Helvetica Neue', sans-serif" font-size="11.00">libmirai/public/libmirai</text>
<text text-anchor="middle" x="59" y="-7.7" font-family="-apple-system, BlinkMacSystemFont, 'Segoe UI', Roboto, Oxygen, Ubuntu, Cantarell, 'Fira Sans', 'Droid Sans', 'Helvetica Neue', sans-serif" font-size="11.00">/Api/Client.cpp</text>
</a>
</g>
</g>
<!-- Node1&#45;&gt;Node2 -->
<g id="edge1" class="edge">
<title>Node1&#45;&gt;Node2</title>
<path fill="none" stroke="midnightblue" d="M83.66,-151.59C64.52,-143.14 46.9,-131.11 35,-114 17.65,-89.06 35.5,-52.8 48.35,-32.57"/>
<polygon fill="midnightblue" stroke="midnightblue" points="82.58,-154.93 93.16,-155.46 85.22,-148.45 82.58,-154.93"/>
</g>
<!-- Node3 -->
<g id="node3" class="node">
<title>Node3</title>
<g id="a_node3"><a xlink:href="Client_8hpp.html" target="_top" xlink:title=" ">
<polygon fill="none" stroke="black" points="44,-75.5 44,-107.5 162,-107.5 162,-75.5 44,-75.5"/>
<text text-anchor="start" x="52" y="-94.7" font-family="-apple-system, BlinkMacSystemFont, 'Segoe UI', Roboto, Oxygen, Ubuntu, Cantarell, 'Fira Sans', 'Droid Sans', 'Helvetica Neue', sans-serif" font-size="11.00">libmirai/public/libmirai</text>
<text text-anchor="middle" x="103" y="-82.7" font-family="-apple-system, BlinkMacSystemFont, 'Segoe UI', Roboto, Oxygen, Ubuntu, Cantarell, 'Fira Sans', 'Droid Sans', 'Helvetica Neue', sans-serif" font-size="11.00">/Api/Client.hpp</text>
</a>
</g>
</g>
<!-- Node1&#45;&gt;Node3 -->
<g id="edge2" class="edge">
<title>Node1&#45;&gt;Node3</title>
<path fill="none" stroke="midnightblue" d="M159.12,-143.46C145.87,-131.42 130.9,-117.83 119.76,-107.72"/>
<polygon fill="midnightblue" stroke="midnightblue" points="156.93,-146.2 166.69,-150.33 161.64,-141.02 156.93,-146.2"/>
</g>
<!-- Node6 -->
<g id="node5" class="node">
<title>Node6</title>
<g id="a_node5"><a xlink:href="BotInvitedJoinGroupRequestEvent_8cpp.html" target="_top" xlink:title=" ">
<polygon fill="none" stroke="black" points="180.5,-69.5 180.5,-113.5 373.5,-113.5 373.5,-69.5 180.5,-69.5"/>
<text text-anchor="start" x="188.5" y="-100.7" font-family="-apple-system, BlinkMacSystemFont, 'Segoe UI', Roboto, Oxygen, Ubuntu, Cantarell, 'Fira Sans', 'Droid Sans', 'Helvetica Neue', sans-serif" font-size="11.00">libmirai/public/libmirai</text>
<text text-anchor="start" x="188.5" y="-88.7" font-family="-apple-system, BlinkMacSystemFont, 'Segoe UI', Roboto, Oxygen, Ubuntu, Cantarell, 'Fira Sans', 'Droid Sans', 'Helvetica Neue', sans-serif" font-size="11.00">/Events/BotInvitedJoinGroupRequest</text>
<text text-anchor="middle" x="277" y="-76.7" font-family="-apple-system, BlinkMacSystemFont, 'Segoe UI', Roboto, Oxygen, Ubuntu, Cantarell, 'Fira Sans', 'Droid Sans', 'Helvetica Neue', sans-serif" font-size="11.00">Event.cpp</text>
</a>
</g>
</g>
<!-- Node1&#45;&gt;Node6 -->
<g id="edge5" class="edge">
<title>Node1&#45;&gt;Node6</title>
<path fill="none" stroke="midnightblue" d="M220.91,-143.43C231.68,-133.65 243.57,-122.86 253.62,-113.73"/>
<polygon fill="midnightblue" stroke="midnightblue" points="218.36,-141.02 213.31,-150.33 223.07,-146.2 218.36,-141.02"/>
</g>
<!-- Node7 -->
<g id="node6" class="node">
<title>Node7</title>
<g id="a_node6"><a xlink:href="Events_8hpp.html" target="_top" xlink:title=" ">
<polygon fill="none" stroke="black" points="392,-75.5 392,-107.5 510,-107.5 510,-75.5 392,-75.5"/>
<text text-anchor="start" x="400" y="-94.7" font-family="-apple-system, BlinkMacSystemFont, 'Segoe UI', Roboto, Oxygen, Ubuntu, Cantarell, 'Fira Sans', 'Droid Sans', 'Helvetica Neue', sans-serif" font-size="11.00">libmirai/public/libmirai</text>
<text text-anchor="middle" x="451" y="-82.7" font-family="-apple-system, BlinkMacSystemFont, 'Segoe UI', Roboto, Oxygen, Ubuntu, Cantarell, 'Fira Sans', 'Droid Sans', 'Helvetica Neue', sans-serif" font-size="11.00">/Events/Events.hpp</text>
</a>
</g>
</g>
<!-- Node1&#45;&gt;Node7 -->
<g id="edge6" class="edge">
<title>Node1&#45;&gt;Node7</title>
<path fill="none" stroke="midnightblue" d="M271.59,-147.52C306.01,-137.32 346.5,-125.21 383,-114 389.75,-111.93 396.86,-109.71 403.84,-107.52"/>
<polygon fill="midnightblue" stroke="midnightblue" points="270.17,-144.29 261.58,-150.48 272.16,-151 270.17,-144.29"/>
</g>
<!-- Node3&#45;&gt;Node2 -->
<g id="edge3" class="edge">
<title>Node3&#45;&gt;Node2</title>
<path fill="none" stroke="midnightblue" d="M88.54,-66.52C81.81,-55.34 74,-42.39 68.11,-32.61"/>
<polygon fill="midnightblue" stroke="midnightblue" points="85.72,-68.62 93.88,-75.37 91.72,-65 85.72,-68.62"/>
</g>
<!-- Node4 -->
<g id="node4" class="node">
<title>Node4</title>
<g id="a_node4"><a xlink:href="mirai_8hpp.html" target="_top" xlink:title=" ">
<polygon fill="none" stroke="red" points="264,-0.5 264,-32.5 382,-32.5 382,-0.5 264,-0.5"/>
<text text-anchor="start" x="272" y="-19.7" font-family="-apple-system, BlinkMacSystemFont, 'Segoe UI', Roboto, Oxygen, Ubuntu, Cantarell, 'Fira Sans', 'Droid Sans', 'Helvetica Neue', sans-serif" font-size="11.00">libmirai/public/libmirai</text>
<text text-anchor="middle" x="323" y="-7.7" font-family="-apple-system, BlinkMacSystemFont, 'Segoe UI', Roboto, Oxygen, Ubuntu, Cantarell, 'Fira Sans', 'Droid Sans', 'Helvetica Neue', sans-serif" font-size="11.00">/mirai.hpp</text>
</a>
</g>
</g>
<!-- Node3&#45;&gt;Node4 -->
<g id="edge4" class="edge">
<title>Node3&#45;&gt;Node4</title>
<path fill="none" stroke="midnightblue" d="M157.94,-72.27C194.89,-60.01 243,-44.05 277.74,-32.52"/>
<polygon fill="midnightblue" stroke="midnightblue" points="156.71,-68.99 148.32,-75.46 158.91,-75.64 156.71,-68.99"/>
</g>
<!-- Node7&#45;&gt;Node4 -->
<g id="edge7" class="edge">
<title>Node7&#45;&gt;Node4</title>
<path fill="none" stroke="midnightblue" d="M415.57,-70.29C394.65,-58.36 368.62,-43.52 349.49,-32.61"/>
<polygon fill="midnightblue" stroke="midnightblue" points="414.06,-73.46 424.48,-75.37 417.53,-67.38 414.06,-73.46"/>
</g>
</g>
</svg>
