<?xml version="1.0" encoding="UTF-8" standalone="no"?>
<!DOCTYPE svg PUBLIC "-//W3C//DTD SVG 1.1//EN"
 "http://www.w3.org/Graphics/SVG/1.1/DTD/svg11.dtd">
<!-- Generated by graphviz version 3.0.0 (20220413.0242)
 -->
<!-- Title: libmirai/public/libmirai/Events/BotInvitedJoinGroupRequestEvent.cpp Pages: 1 -->
<svg width="604pt" height="236pt"
 viewBox="0.00 0.00 603.93 236.00" xmlns="http://www.w3.org/2000/svg" xmlns:xlink="http://www.w3.org/1999/xlink">
<g id="graph0" class="graph" transform="scale(1 1) rotate(0) translate(4 232)">
<title>libmirai/public/libmirai/Events/BotInvitedJoinGroupRequestEvent.cpp</title>
<!-- Node1 -->
<g id="node1" class="node">
<title>Node1</title>
<g id="a_node1"><a xlink:title=" ">
<polygon fill="#bfbfbf" stroke="black" points="237.43,-183.5 237.43,-227.5 430.43,-227.5 430.43,-183.5 237.43,-183.5"/>
<text text-anchor="start" x="245.43" y="-214.7" font-family="-apple-system, BlinkMacSystemFont, 'Segoe UI', Roboto, Oxygen, Ubuntu, Cantarell, 'Fira Sans', 'Droid Sans', 'Helvetica Neue', sans-serif" font-size="11.00">libmirai/public/libmirai</text>
<text text-anchor="start" x="245.43" y="-202.7" font-family="-apple-system, BlinkMacSystemFont, 'Segoe UI', Roboto, Oxygen, Ubuntu, Cantarell, 'Fira Sans', 'Droid Sans', 'Helvetica Neue', sans-serif" font-size="11.00">/Events/BotInvitedJoinGroupRequest</text>
<text text-anchor="middle" x="333.93" y="-190.7" font-family="-apple-system, BlinkMacSystemFont, 'Segoe UI', Roboto, Oxygen, Ubuntu, Cantarell, 'Fira Sans', 'Droid Sans', 'Helvetica Neue', sans-serif" font-size="11.00">Event.cpp</text>
</a>
</g>
</g>
<!-- Node2 -->
<g id="node2" class="node">
<title>Node2</title>
<g id="a_node2"><a xlink:href="BotInvitedJoinGroupRequestEvent_8hpp.html" target="_top" xlink:title=" ">
<polygon fill="none" stroke="black" points="89.43,-114.5 89.43,-146.5 244.43,-146.5 244.43,-114.5 89.43,-114.5"/>
<text text-anchor="start" x="97.43" y="-133.7" font-family="-apple-system, BlinkMacSystemFont, 'Segoe UI', Roboto, Oxygen, Ubuntu, Cantarell, 'Fira Sans', 'Droid Sans', 'Helvetica Neue', sans-serif" font-size="11.00">BotInvitedJoinGroupRequest</text>
<text text-anchor="middle" x="166.93" y="-121.7" font-family="-apple-system, BlinkMacSystemFont, 'Segoe UI', Roboto, Oxygen, Ubuntu, Cantarell, 'Fira Sans', 'Droid Sans', 'Helvetica Neue', sans-serif" font-size="11.00">Event.hpp</text>
</a>
</g>
</g>
<!-- Node1&#45;&gt;Node2 -->
<g id="edge1" class="edge">
<title>Node1&#45;&gt;Node2</title>
<path fill="none" stroke="midnightblue" d="M285.62,-183.39C261.92,-173.02 233.58,-160.63 210.54,-150.56"/>
<polygon fill="midnightblue" stroke="midnightblue" points="211.9,-147.34 201.34,-146.54 209.1,-153.76 211.9,-147.34"/>
</g>
<!-- Node11 -->
<g id="node7" class="node">
<title>Node11</title>
<g id="a_node7"><a xlink:title=" ">
<polygon fill="none" stroke="#bfbfbf" points="262.43,-120.5 262.43,-140.5 309.43,-140.5 309.43,-120.5 262.43,-120.5"/>
<text text-anchor="middle" x="285.93" y="-127.7" font-family="-apple-system, BlinkMacSystemFont, 'Segoe UI', Roboto, Oxygen, Ubuntu, Cantarell, 'Fira Sans', 'Droid Sans', 'Helvetica Neue', sans-serif" font-size="11.00">cstdint</text>
</a>
</g>
</g>
<!-- Node1&#45;&gt;Node11 -->
<g id="edge10" class="edge">
<title>Node1&#45;&gt;Node11</title>
<path fill="none" stroke="midnightblue" d="M320.04,-183.39C312.92,-172.55 304.34,-159.51 297.57,-149.21"/>
<polygon fill="midnightblue" stroke="midnightblue" points="300.37,-147.09 291.95,-140.66 294.52,-150.94 300.37,-147.09"/>
</g>
<!-- Node12 -->
<g id="node8" class="node">
<title>Node12</title>
<g id="a_node8"><a xlink:title=" ">
<polygon fill="none" stroke="#bfbfbf" points="327.93,-120.5 327.93,-140.5 435.93,-140.5 435.93,-120.5 327.93,-120.5"/>
<text text-anchor="middle" x="381.93" y="-127.7" font-family="-apple-system, BlinkMacSystemFont, 'Segoe UI', Roboto, Oxygen, Ubuntu, Cantarell, 'Fira Sans', 'Droid Sans', 'Helvetica Neue', sans-serif" font-size="11.00">nlohmann/json.hpp</text>
</a>
</g>
</g>
<!-- Node1&#45;&gt;Node12 -->
<g id="edge11" class="edge">
<title>Node1&#45;&gt;Node12</title>
<path fill="none" stroke="midnightblue" d="M347.81,-183.39C354.93,-172.55 363.51,-159.51 370.28,-149.21"/>
<polygon fill="midnightblue" stroke="midnightblue" points="373.33,-150.94 375.9,-140.66 367.48,-147.09 373.33,-150.94"/>
</g>
<!-- Node13 -->
<g id="node9" class="node">
<title>Node13</title>
<g id="a_node9"><a xlink:title=" ">
<polygon fill="none" stroke="#bfbfbf" points="453.93,-120.5 453.93,-140.5 595.93,-140.5 595.93,-120.5 453.93,-120.5"/>
<text text-anchor="middle" x="524.93" y="-127.7" font-family="-apple-system, BlinkMacSystemFont, 'Segoe UI', Roboto, Oxygen, Ubuntu, Cantarell, 'Fira Sans', 'Droid Sans', 'Helvetica Neue', sans-serif" font-size="11.00">libmirai/Utils/Common.hpp</text>
</a>
</g>
</g>
<!-- Node1&#45;&gt;Node13 -->
<g id="edge12" class="edge">
<title>Node1&#45;&gt;Node13</title>
<path fill="none" stroke="midnightblue" d="M388.92,-183.48C422.04,-170.82 463.14,-155.11 491.45,-144.3"/>
<polygon fill="midnightblue" stroke="midnightblue" points="492.8,-147.53 500.89,-140.69 490.3,-140.99 492.8,-147.53"/>
</g>
<!-- Node3 -->
<g id="node3" class="node">
<title>Node3</title>
<g id="a_node3"><a xlink:title=" ">
<polygon fill="none" stroke="#bfbfbf" points="73.43,-0.5 73.43,-20.5 116.43,-20.5 116.43,-0.5 73.43,-0.5"/>
<text text-anchor="middle" x="94.93" y="-7.7" font-family="-apple-system, BlinkMacSystemFont, 'Segoe UI', Roboto, Oxygen, Ubuntu, Cantarell, 'Fira Sans', 'Droid Sans', 'Helvetica Neue', sans-serif" font-size="11.00">string</text>
</a>
</g>
</g>
<!-- Node2&#45;&gt;Node3 -->
<g id="edge2" class="edge">
<title>Node2&#45;&gt;Node3</title>
<path fill="none" stroke="midnightblue" d="M89.34,-124.27C57.89,-117.87 24.44,-104.68 4.93,-78 -14.35,-51.64 30.5,-31.22 63.57,-20.31"/>
<polygon fill="midnightblue" stroke="midnightblue" points="64.88,-23.57 73.37,-17.23 62.78,-16.89 64.88,-23.57"/>
</g>
<!-- Node4 -->
<g id="node4" class="node">
<title>Node4</title>
<g id="a_node4"><a xlink:title=" ">
<polygon fill="none" stroke="#bfbfbf" points="173.43,-0.5 173.43,-20.5 304.43,-20.5 304.43,-0.5 173.43,-0.5"/>
<text text-anchor="middle" x="238.93" y="-7.7" font-family="-apple-system, BlinkMacSystemFont, 'Segoe UI', Roboto, Oxygen, Ubuntu, Cantarell, 'Fira Sans', 'Droid Sans', 'Helvetica Neue', sans-serif" font-size="11.00">nlohmann/json_fwd.hpp</text>
</a>
</g>
</g>
<!-- Node2&#45;&gt;Node4 -->
<g id="edge3" class="edge">
<title>Node2&#45;&gt;Node4</title>
<path fill="none" stroke="midnightblue" d="M243.52,-114.38C262.82,-106.74 281.33,-95.26 292.93,-78 305.58,-59.16 283.95,-39.14 264.42,-26.06"/>
<polygon fill="midnightblue" stroke="midnightblue" points="266.05,-22.94 255.73,-20.56 262.31,-28.86 266.05,-22.94"/>
</g>
<!-- Node5 -->
<g id="node5" class="node">
<title>Node5</title>
<g id="a_node5"><a xlink:href="BasicTypes_8hpp.html" target="_top" xlink:title=" ">
<polygon fill="none" stroke="red" points="13.93,-57.5 13.93,-77.5 175.93,-77.5 175.93,-57.5 13.93,-57.5"/>
<text text-anchor="middle" x="94.93" y="-64.7" font-family="-apple-system, BlinkMacSystemFont, 'Segoe UI', Roboto, Oxygen, Ubuntu, Cantarell, 'Fira Sans', 'Droid Sans', 'Helvetica Neue', sans-serif" font-size="11.00">libmirai/Types/BasicTypes.hpp</text>
</a>
</g>
</g>
<!-- Node2&#45;&gt;Node5 -->
<g id="edge4" class="edge">
<title>Node2&#45;&gt;Node5</title>
<path fill="none" stroke="midnightblue" d="M149.13,-114.42C138.24,-105.2 124.35,-93.43 113.35,-84.11"/>
<polygon fill="midnightblue" stroke="midnightblue" points="115.5,-81.34 105.6,-77.55 110.97,-86.68 115.5,-81.34"/>
</g>
<!-- Node9 -->
<g id="node6" class="node">
<title>Node9</title>
<g id="a_node6"><a xlink:href="EventBase_8hpp.html" target="_top" xlink:title=" ">
<polygon fill="none" stroke="red" points="194.43,-57.5 194.43,-77.5 283.43,-77.5 283.43,-57.5 194.43,-57.5"/>
<text text-anchor="middle" x="238.93" y="-64.7" font-family="-apple-system, BlinkMacSystemFont, 'Segoe UI', Roboto, Oxygen, Ubuntu, Cantarell, 'Fira Sans', 'Droid Sans', 'Helvetica Neue', sans-serif" font-size="11.00">EventBase.hpp</text>
</a>
</g>
</g>
<!-- Node2&#45;&gt;Node9 -->
<g id="edge7" class="edge">
<title>Node2&#45;&gt;Node9</title>
<path fill="none" stroke="midnightblue" d="M184.72,-114.42C195.61,-105.2 209.51,-93.43 220.5,-84.11"/>
<polygon fill="midnightblue" stroke="midnightblue" points="222.88,-86.68 228.25,-77.55 218.36,-81.34 222.88,-86.68"/>
</g>
<!-- Node5&#45;&gt;Node3 -->
<g id="edge5" class="edge">
<title>Node5&#45;&gt;Node3</title>
<path fill="none" stroke="midnightblue" d="M94.93,-57.42C94.93,-50.22 94.93,-39.9 94.93,-30.86"/>
<polygon fill="midnightblue" stroke="midnightblue" points="98.43,-30.78 94.93,-20.78 91.43,-30.78 98.43,-30.78"/>
</g>
<!-- Node5&#45;&gt;Node4 -->
<g id="edge6" class="edge">
<title>Node5&#45;&gt;Node4</title>
<path fill="none" stroke="midnightblue" d="M118.71,-57.42C142.36,-48.38 178.88,-34.44 205.46,-24.28"/>
<polygon fill="midnightblue" stroke="midnightblue" points="207.02,-27.43 215.11,-20.6 204.52,-20.89 207.02,-27.43"/>
</g>
<!-- Node9&#45;&gt;Node3 -->
<g id="edge8" class="edge">
<title>Node9&#45;&gt;Node3</title>
<path fill="none" stroke="midnightblue" d="M215.15,-57.42C190.92,-48.17 153.22,-33.76 126.5,-23.56"/>
<polygon fill="midnightblue" stroke="midnightblue" points="127.44,-20.17 116.85,-19.87 124.94,-26.71 127.44,-20.17"/>
</g>
<!-- Node9&#45;&gt;Node4 -->
<g id="edge9" class="edge">
<title>Node9&#45;&gt;Node4</title>
<path fill="none" stroke="midnightblue" d="M238.93,-57.42C238.93,-50.22 238.93,-39.9 238.93,-30.86"/>
<polygon fill="midnightblue" stroke="midnightblue" points="242.43,-30.78 238.93,-20.78 235.43,-30.78 242.43,-30.78"/>
</g>
</g>
</svg>
