<?xml version="1.0" encoding="UTF-8" standalone="no"?>
<!DOCTYPE svg PUBLIC "-//W3C//DTD SVG 1.1//EN"
 "http://www.w3.org/Graphics/SVG/1.1/DTD/svg11.dtd">
<!-- Generated by graphviz version 3.0.0 (20220413.0242)
 -->
<!-- Title: libmirai/public/libmirai/Events/BotInvitedJoinGroupRequestEvent.hpp Pages: 1 -->
<svg width="527pt" height="224pt"
 viewBox="0.00 0.00 526.98 224.00" xmlns="http://www.w3.org/2000/svg" xmlns:xlink="http://www.w3.org/1999/xlink">
<g id="graph0" class="graph" transform="scale(1 1) rotate(0) translate(4 220)">
<title>libmirai/public/libmirai/Events/BotInvitedJoinGroupRequestEvent.hpp</title>
<!-- Node1 -->
<g id="node1" class="node">
<title>Node1</title>
<g id="a_node1"><a xlink:title=" ">
<polygon fill="#bfbfbf" stroke="black" points="217.48,-171.5 217.48,-215.5 410.48,-215.5 410.48,-171.5 217.48,-171.5"/>
<text text-anchor="start" x="225.48" y="-202.7" font-family="-apple-system, BlinkMacSystemFont, 'Segoe UI', Roboto, Oxygen, Ubuntu, Cantarell, 'Fira Sans', 'Droid Sans', 'Helvetica Neue', sans-serif" font-size="11.00">libmirai/public/libmirai</text>
<text text-anchor="start" x="225.48" y="-190.7" font-family="-apple-system, BlinkMacSystemFont, 'Segoe UI', Roboto, Oxygen, Ubuntu, Cantarell, 'Fira Sans', 'Droid Sans', 'Helvetica Neue', sans-serif" font-size="11.00">/Events/BotInvitedJoinGroupRequest</text>
<text text-anchor="middle" x="313.98" y="-178.7" font-family="-apple-system, BlinkMacSystemFont, 'Segoe UI', Roboto, Oxygen, Ubuntu, Cantarell, 'Fira Sans', 'Droid Sans', 'Helvetica Neue', sans-serif" font-size="11.00">Event.hpp</text>
</a>
</g>
</g>
<!-- Node2 -->
<g id="node2" class="node">
<title>Node2</title>
<g id="a_node2"><a xlink:title=" ">
<polygon fill="none" stroke="#bfbfbf" points="363.48,-57.5 363.48,-77.5 406.48,-77.5 406.48,-57.5 363.48,-57.5"/>
<text text-anchor="middle" x="384.98" y="-64.7" font-family="-apple-system, BlinkMacSystemFont, 'Segoe UI', Roboto, Oxygen, Ubuntu, Cantarell, 'Fira Sans', 'Droid Sans', 'Helvetica Neue', sans-serif" font-size="11.00">string</text>
</a>
</g>
</g>
<!-- Node1&#45;&gt;Node2 -->
<g id="edge1" class="edge">
<title>Node1&#45;&gt;Node2</title>
<path fill="none" stroke="midnightblue" d="M327.7,-171.43C334.58,-160.65 342.93,-147.25 349.98,-135 359.2,-118.96 368.95,-100.28 375.81,-86.81"/>
<polygon fill="midnightblue" stroke="midnightblue" points="379.05,-88.16 380.43,-77.65 372.8,-85 379.05,-88.16"/>
</g>
<!-- Node3 -->
<g id="node3" class="node">
<title>Node3</title>
<g id="a_node3"><a xlink:title=" ">
<polygon fill="none" stroke="#bfbfbf" points="146.48,-0.5 146.48,-20.5 277.48,-20.5 277.48,-0.5 146.48,-0.5"/>
<text text-anchor="middle" x="211.98" y="-7.7" font-family="-apple-system, BlinkMacSystemFont, 'Segoe UI', Roboto, Oxygen, Ubuntu, Cantarell, 'Fira Sans', 'Droid Sans', 'Helvetica Neue', sans-serif" font-size="11.00">nlohmann/json_fwd.hpp</text>
</a>
</g>
</g>
<!-- Node1&#45;&gt;Node3 -->
<g id="edge2" class="edge">
<title>Node1&#45;&gt;Node3</title>
<path fill="none" stroke="midnightblue" d="M217.35,-184.65C146.48,-173.25 54.77,-145.47 7.98,-78 -26.42,-28.4 64.45,-14.95 135.79,-11.75"/>
<polygon fill="midnightblue" stroke="midnightblue" points="136.3,-15.24 146.16,-11.35 136.03,-8.24 136.3,-15.24"/>
</g>
<!-- Node4 -->
<g id="node4" class="node">
<title>Node4</title>
<g id="a_node4"><a xlink:href="BasicTypes_8hpp.html" target="_top" xlink:title=" ">
<polygon fill="none" stroke="black" points="178.98,-114.5 178.98,-134.5 340.98,-134.5 340.98,-114.5 178.98,-114.5"/>
<text text-anchor="middle" x="259.98" y="-121.7" font-family="-apple-system, BlinkMacSystemFont, 'Segoe UI', Roboto, Oxygen, Ubuntu, Cantarell, 'Fira Sans', 'Droid Sans', 'Helvetica Neue', sans-serif" font-size="11.00">libmirai/Types/BasicTypes.hpp</text>
</a>
</g>
</g>
<!-- Node1&#45;&gt;Node4 -->
<g id="edge3" class="edge">
<title>Node1&#45;&gt;Node4</title>
<path fill="none" stroke="midnightblue" d="M296.89,-171.3C289.48,-162.1 280.9,-151.46 273.88,-142.75"/>
<polygon fill="midnightblue" stroke="midnightblue" points="276.49,-140.41 267.49,-134.82 271.04,-144.8 276.49,-140.41"/>
</g>
<!-- Node8 -->
<g id="node8" class="node">
<title>Node8</title>
<g id="a_node8"><a xlink:href="EventBase_8hpp.html" target="_top" xlink:title=" ">
<polygon fill="none" stroke="black" points="397.48,-114.5 397.48,-134.5 486.48,-134.5 486.48,-114.5 397.48,-114.5"/>
<text text-anchor="middle" x="441.98" y="-121.7" font-family="-apple-system, BlinkMacSystemFont, 'Segoe UI', Roboto, Oxygen, Ubuntu, Cantarell, 'Fira Sans', 'Droid Sans', 'Helvetica Neue', sans-serif" font-size="11.00">EventBase.hpp</text>
</a>
</g>
</g>
<!-- Node1&#45;&gt;Node8 -->
<g id="edge10" class="edge">
<title>Node1&#45;&gt;Node8</title>
<path fill="none" stroke="midnightblue" d="M354.13,-171.48C374.17,-160.99 397.85,-148.6 415.58,-139.32"/>
<polygon fill="midnightblue" stroke="midnightblue" points="417.51,-142.26 424.75,-134.52 414.27,-136.05 417.51,-142.26"/>
</g>
<!-- Node4&#45;&gt;Node2 -->
<g id="edge6" class="edge">
<title>Node4&#45;&gt;Node2</title>
<path fill="none" stroke="midnightblue" d="M280.62,-114.42C300.88,-105.5 332.02,-91.8 355.01,-81.69"/>
<polygon fill="midnightblue" stroke="midnightblue" points="356.56,-84.83 364.31,-77.6 353.74,-78.42 356.56,-84.83"/>
</g>
<!-- Node4&#45;&gt;Node3 -->
<g id="edge7" class="edge">
<title>Node4&#45;&gt;Node3</title>
<path fill="none" stroke="midnightblue" d="M259.73,-114.49C259.07,-101.3 256.66,-76.25 247.98,-57 243.24,-46.51 235.56,-36.31 228.5,-28.24"/>
<polygon fill="midnightblue" stroke="midnightblue" points="230.88,-25.66 221.53,-20.68 225.74,-30.4 230.88,-25.66"/>
</g>
<!-- Node5 -->
<g id="node5" class="node">
<title>Node5</title>
<g id="a_node5"><a xlink:title=" ">
<polygon fill="none" stroke="#bfbfbf" points="294.98,-57.5 294.98,-77.5 344.98,-77.5 344.98,-57.5 294.98,-57.5"/>
<text text-anchor="middle" x="319.98" y="-64.7" font-family="-apple-system, BlinkMacSystemFont, 'Segoe UI', Roboto, Oxygen, Ubuntu, Cantarell, 'Fira Sans', 'Droid Sans', 'Helvetica Neue', sans-serif" font-size="11.00">chrono</text>
</a>
</g>
</g>
<!-- Node4&#45;&gt;Node5 -->
<g id="edge4" class="edge">
<title>Node4&#45;&gt;Node5</title>
<path fill="none" stroke="midnightblue" d="M269.89,-114.42C278.69,-106.35 291.77,-94.36 302.36,-84.65"/>
<polygon fill="midnightblue" stroke="midnightblue" points="304.85,-87.12 309.85,-77.78 300.12,-81.96 304.85,-87.12"/>
</g>
<!-- Node6 -->
<g id="node6" class="node">
<title>Node6</title>
<g id="a_node6"><a xlink:title=" ">
<polygon fill="none" stroke="#bfbfbf" points="16.98,-57.5 16.98,-77.5 58.98,-77.5 58.98,-57.5 16.98,-57.5"/>
<text text-anchor="middle" x="37.98" y="-64.7" font-family="-apple-system, BlinkMacSystemFont, 'Segoe UI', Roboto, Oxygen, Ubuntu, Cantarell, 'Fira Sans', 'Droid Sans', 'Helvetica Neue', sans-serif" font-size="11.00">ctime</text>
</a>
</g>
</g>
<!-- Node4&#45;&gt;Node6 -->
<g id="edge5" class="edge">
<title>Node4&#45;&gt;Node6</title>
<path fill="none" stroke="midnightblue" d="M217.8,-114.45C180.88,-106.31 125.61,-93.63 69.05,-78.16"/>
<polygon fill="midnightblue" stroke="midnightblue" points="69.8,-74.73 59.23,-75.44 67.93,-81.48 69.8,-74.73"/>
</g>
<!-- Node7 -->
<g id="node7" class="node">
<title>Node7</title>
<g id="a_node7"><a xlink:href="Serializable_8hpp.html" target="_top" xlink:title=" ">
<polygon fill="none" stroke="black" points="76.98,-57.5 76.98,-77.5 238.98,-77.5 238.98,-57.5 76.98,-57.5"/>
<text text-anchor="middle" x="157.98" y="-64.7" font-family="-apple-system, BlinkMacSystemFont, 'Segoe UI', Roboto, Oxygen, Ubuntu, Cantarell, 'Fira Sans', 'Droid Sans', 'Helvetica Neue', sans-serif" font-size="11.00">libmirai/Types/Serializable.hpp</text>
</a>
</g>
</g>
<!-- Node4&#45;&gt;Node7 -->
<g id="edge8" class="edge">
<title>Node4&#45;&gt;Node7</title>
<path fill="none" stroke="midnightblue" d="M243.13,-114.42C226.97,-105.7 202.32,-92.41 183.7,-82.37"/>
<polygon fill="midnightblue" stroke="midnightblue" points="185.31,-79.26 174.85,-77.6 181.99,-85.42 185.31,-79.26"/>
</g>
<!-- Node7&#45;&gt;Node3 -->
<g id="edge9" class="edge">
<title>Node7&#45;&gt;Node3</title>
<path fill="none" stroke="midnightblue" d="M166.89,-57.42C174.74,-49.42 186.36,-37.59 195.84,-27.94"/>
<polygon fill="midnightblue" stroke="midnightblue" points="198.36,-30.37 202.87,-20.78 193.36,-25.46 198.36,-30.37"/>
</g>
<!-- Node8&#45;&gt;Node2 -->
<g id="edge12" class="edge">
<title>Node8&#45;&gt;Node2</title>
<path fill="none" stroke="midnightblue" d="M432.57,-114.42C424.28,-106.42 412.02,-94.59 402.01,-84.94"/>
<polygon fill="midnightblue" stroke="midnightblue" points="404.22,-82.2 394.59,-77.78 399.36,-87.24 404.22,-82.2"/>
</g>
<!-- Node8&#45;&gt;Node3 -->
<g id="edge13" class="edge">
<title>Node8&#45;&gt;Node3</title>
<path fill="none" stroke="midnightblue" d="M440.92,-114.19C438.77,-99.69 432.47,-71.82 414.98,-57 395.74,-40.7 337.09,-28.65 287.76,-21.05"/>
<polygon fill="midnightblue" stroke="midnightblue" points="288.11,-17.57 277.71,-19.55 287.08,-24.49 288.11,-17.57"/>
</g>
<!-- Node9 -->
<g id="node9" class="node">
<title>Node9</title>
<g id="a_node9"><a xlink:title=" ">
<polygon fill="none" stroke="#bfbfbf" points="462.98,-57.5 462.98,-77.5 518.98,-77.5 518.98,-57.5 462.98,-57.5"/>
<text text-anchor="middle" x="490.98" y="-64.7" font-family="-apple-system, BlinkMacSystemFont, 'Segoe UI', Roboto, Oxygen, Ubuntu, Cantarell, 'Fira Sans', 'Droid Sans', 'Helvetica Neue', sans-serif" font-size="11.00">memory</text>
</a>
</g>
</g>
<!-- Node8&#45;&gt;Node9 -->
<g id="edge11" class="edge">
<title>Node8&#45;&gt;Node9</title>
<path fill="none" stroke="midnightblue" d="M450.07,-114.42C457.05,-106.58 467.32,-95.06 475.82,-85.51"/>
<polygon fill="midnightblue" stroke="midnightblue" points="478.67,-87.57 482.71,-77.78 473.45,-82.92 478.67,-87.57"/>
</g>
</g>
</svg>
