<?xml version="1.0" encoding="UTF-8" standalone="no"?>
<!DOCTYPE svg PUBLIC "-//W3C//DTD SVG 1.1//EN"
 "http://www.w3.org/Graphics/SVG/1.1/DTD/svg11.dtd">
<!-- Generated by graphviz version 2.43.0 (0)
 -->
<!-- Title: libmirai/public/libmirai/Events/BotJoinGroupEvent.hpp Pages: 1 -->
<svg width="352pt" height="179pt"
 viewBox="0.00 0.00 351.50 179.00" xmlns="http://www.w3.org/2000/svg" xmlns:xlink="http://www.w3.org/1999/xlink">
<g id="graph0" class="graph" transform="scale(1 1) rotate(0) translate(4 175)">
<title>libmirai/public/libmirai/Events/BotJoinGroupEvent.hpp</title>
<!-- Node1 -->
<g id="node1" class="node">
<title>Node1</title>
<g id="a_node1"><a xlink:title=" ">
<polygon fill="#bfbfbf" stroke="black" points="90,-138.5 90,-170.5 278,-170.5 278,-138.5 90,-138.5"/>
<text text-anchor="start" x="98" y="-157.7" font-family="-apple-system,BlinkMacSystemFont,'SegoeUI',Roboto,Oxygen,Ubuntu,Cantarell,'FiraSans','DroidSans','HelveticaNeue',sans-serif" font-size="11.00">libmirai/public/libmirai</text>
<text text-anchor="middle" x="184" y="-145.7" font-family="-apple-system,BlinkMacSystemFont,'SegoeUI',Roboto,Oxygen,Ubuntu,Cantarell,'FiraSans','DroidSans','HelveticaNeue',sans-serif" font-size="11.00">/Events/BotJoinGroupEvent.hpp</text>
</a>
</g>
</g>
<!-- Node2 -->
<g id="node2" class="node">
<title>Node2</title>
<g id="a_node2"><a xlink:href="BotJoinGroupEvent_8cpp.html" target="_top" xlink:title=" ">
<polygon fill="none" stroke="black" points="0,-69.5 0,-101.5 188,-101.5 188,-69.5 0,-69.5"/>
<text text-anchor="start" x="8" y="-88.7" font-family="-apple-system,BlinkMacSystemFont,'SegoeUI',Roboto,Oxygen,Ubuntu,Cantarell,'FiraSans','DroidSans','HelveticaNeue',sans-serif" font-size="11.00">libmirai/public/libmirai</text>
<text text-anchor="middle" x="94" y="-76.7" font-family="-apple-system,BlinkMacSystemFont,'SegoeUI',Roboto,Oxygen,Ubuntu,Cantarell,'FiraSans','DroidSans','HelveticaNeue',sans-serif" font-size="11.00">/Events/BotJoinGroupEvent.cpp</text>
</a>
</g>
</g>
<!-- Node1&#45;&gt;Node2 -->
<g id="edge1" class="edge">
<title>Node1&#45;&gt;Node2</title>
<path fill="none" stroke="midnightblue" d="M155.21,-132.06C141.9,-122.16 126.41,-110.63 114.34,-101.64"/>
<polygon fill="midnightblue" stroke="midnightblue" points="153.47,-135.13 163.58,-138.3 157.65,-129.52 153.47,-135.13"/>
</g>
<!-- Node3 -->
<g id="node3" class="node">
<title>Node3</title>
<g id="a_node3"><a xlink:href="Events_8hpp.html" target="_top" xlink:title=" ">
<polygon fill="none" stroke="black" points="206.5,-69.5 206.5,-101.5 343.5,-101.5 343.5,-69.5 206.5,-69.5"/>
<text text-anchor="start" x="214.5" y="-88.7" font-family="-apple-system,BlinkMacSystemFont,'SegoeUI',Roboto,Oxygen,Ubuntu,Cantarell,'FiraSans','DroidSans','HelveticaNeue',sans-serif" font-size="11.00">libmirai/public/libmirai</text>
<text text-anchor="middle" x="275" y="-76.7" font-family="-apple-system,BlinkMacSystemFont,'SegoeUI',Roboto,Oxygen,Ubuntu,Cantarell,'FiraSans','DroidSans','HelveticaNeue',sans-serif" font-size="11.00">/Events/Events.hpp</text>
</a>
</g>
</g>
<!-- Node1&#45;&gt;Node3 -->
<g id="edge2" class="edge">
<title>Node1&#45;&gt;Node3</title>
<path fill="none" stroke="midnightblue" d="M212.73,-132.35C226.27,-122.38 242.11,-110.71 254.43,-101.64"/>
<polygon fill="midnightblue" stroke="midnightblue" points="210.63,-129.55 204.65,-138.3 214.78,-135.19 210.63,-129.55"/>
</g>
<!-- Node4 -->
<g id="node4" class="node">
<title>Node4</title>
<g id="a_node4"><a xlink:href="mirai_8hpp.html" target="_top" xlink:title=" ">
<polygon fill="none" stroke="red" points="206.5,-0.5 206.5,-32.5 343.5,-32.5 343.5,-0.5 206.5,-0.5"/>
<text text-anchor="start" x="214.5" y="-19.7" font-family="-apple-system,BlinkMacSystemFont,'SegoeUI',Roboto,Oxygen,Ubuntu,Cantarell,'FiraSans','DroidSans','HelveticaNeue',sans-serif" font-size="11.00">libmirai/public/libmirai</text>
<text text-anchor="middle" x="275" y="-7.7" font-family="-apple-system,BlinkMacSystemFont,'SegoeUI',Roboto,Oxygen,Ubuntu,Cantarell,'FiraSans','DroidSans','HelveticaNeue',sans-serif" font-size="11.00">/mirai.hpp</text>
</a>
</g>
</g>
<!-- Node3&#45;&gt;Node4 -->
<g id="edge3" class="edge">
<title>Node3&#45;&gt;Node4</title>
<path fill="none" stroke="midnightblue" d="M275,-59.02C275,-50.13 275,-40.43 275,-32.64"/>
<polygon fill="midnightblue" stroke="midnightblue" points="271.5,-59.3 275,-69.3 278.5,-59.3 271.5,-59.3"/>
</g>
</g>
</svg>
