<?xml version="1.0" encoding="UTF-8" standalone="no"?>
<!DOCTYPE svg PUBLIC "-//W3C//DTD SVG 1.1//EN"
 "http://www.w3.org/Graphics/SVG/1.1/DTD/svg11.dtd">
<!-- Generated by graphviz version 3.0.0 (20220413.0242)
 -->
<!-- Title: libmirai/public/libmirai/Events/BotJoinGroupEvent.hpp Pages: 1 -->
<svg width="523pt" height="212pt"
 viewBox="0.00 0.00 523.04 212.00" xmlns="http://www.w3.org/2000/svg" xmlns:xlink="http://www.w3.org/1999/xlink">
<g id="graph0" class="graph" transform="scale(1 1) rotate(0) translate(4 208)">
<title>libmirai/public/libmirai/Events/BotJoinGroupEvent.hpp</title>
<!-- Node1 -->
<g id="node1" class="node">
<title>Node1</title>
<g id="a_node1"><a xlink:title=" ">
<polygon fill="#bfbfbf" stroke="black" points="171.04,-171.5 171.04,-203.5 341.04,-203.5 341.04,-171.5 171.04,-171.5"/>
<text text-anchor="start" x="179.04" y="-190.7" font-family="-apple-system, BlinkMacSystemFont, 'Segoe UI', Roboto, Oxygen, Ubuntu, Cantarell, 'Fira Sans', 'Droid Sans', 'Helvetica Neue', sans-serif" font-size="11.00">libmirai/public/libmirai</text>
<text text-anchor="middle" x="256.04" y="-178.7" font-family="-apple-system, BlinkMacSystemFont, 'Segoe UI', Roboto, Oxygen, Ubuntu, Cantarell, 'Fira Sans', 'Droid Sans', 'Helvetica Neue', sans-serif" font-size="11.00">/Events/BotJoinGroupEvent.hpp</text>
</a>
</g>
</g>
<!-- Node2 -->
<g id="node2" class="node">
<title>Node2</title>
<g id="a_node2"><a xlink:title=" ">
<polygon fill="none" stroke="#bfbfbf" points="359.54,-57.5 359.54,-77.5 402.54,-77.5 402.54,-57.5 359.54,-57.5"/>
<text text-anchor="middle" x="381.04" y="-64.7" font-family="-apple-system, BlinkMacSystemFont, 'Segoe UI', Roboto, Oxygen, Ubuntu, Cantarell, 'Fira Sans', 'Droid Sans', 'Helvetica Neue', sans-serif" font-size="11.00">string</text>
</a>
</g>
</g>
<!-- Node1&#45;&gt;Node2 -->
<g id="edge1" class="edge">
<title>Node1&#45;&gt;Node2</title>
<path fill="none" stroke="midnightblue" d="M292.55,-171.5C310.33,-162.83 331.04,-150.54 346.04,-135 359.31,-121.25 368.86,-101.47 374.59,-87.06"/>
<polygon fill="midnightblue" stroke="midnightblue" points="377.88,-88.27 378.09,-77.67 371.32,-85.82 377.88,-88.27"/>
</g>
<!-- Node3 -->
<g id="node3" class="node">
<title>Node3</title>
<g id="a_node3"><a xlink:title=" ">
<polygon fill="none" stroke="#bfbfbf" points="103.04,-114.5 103.04,-134.5 157.04,-134.5 157.04,-114.5 103.04,-114.5"/>
<text text-anchor="middle" x="130.04" y="-121.7" font-family="-apple-system, BlinkMacSystemFont, 'Segoe UI', Roboto, Oxygen, Ubuntu, Cantarell, 'Fira Sans', 'Droid Sans', 'Helvetica Neue', sans-serif" font-size="11.00">optional</text>
</a>
</g>
</g>
<!-- Node1&#45;&gt;Node3 -->
<g id="edge2" class="edge">
<title>Node1&#45;&gt;Node3</title>
<path fill="none" stroke="midnightblue" d="M224.9,-171.42C204.36,-161.48 177.68,-148.56 157.86,-138.96"/>
<polygon fill="midnightblue" stroke="midnightblue" points="159.25,-135.75 148.73,-134.55 156.2,-142.05 159.25,-135.75"/>
</g>
<!-- Node4 -->
<g id="node4" class="node">
<title>Node4</title>
<g id="a_node4"><a xlink:title=" ">
<polygon fill="none" stroke="#bfbfbf" points="142.54,-0.5 142.54,-20.5 273.54,-20.5 273.54,-0.5 142.54,-0.5"/>
<text text-anchor="middle" x="208.04" y="-7.7" font-family="-apple-system, BlinkMacSystemFont, 'Segoe UI', Roboto, Oxygen, Ubuntu, Cantarell, 'Fira Sans', 'Droid Sans', 'Helvetica Neue', sans-serif" font-size="11.00">nlohmann/json_fwd.hpp</text>
</a>
</g>
</g>
<!-- Node1&#45;&gt;Node4 -->
<g id="edge3" class="edge">
<title>Node1&#45;&gt;Node4</title>
<path fill="none" stroke="midnightblue" d="M170.97,-176.56C111.41,-164.44 36.83,-137.57 4.04,-78 -0.46,-69.82 -1.79,-64.28 4.04,-57 20.16,-36.89 81.19,-25.09 132.33,-18.57"/>
<polygon fill="midnightblue" stroke="midnightblue" points="132.91,-22.02 142.41,-17.33 132.06,-15.08 132.91,-22.02"/>
</g>
<!-- Node5 -->
<g id="node5" class="node">
<title>Node5</title>
<g id="a_node5"><a xlink:href="BasicTypes_8hpp.html" target="_top" xlink:title=" ">
<polygon fill="none" stroke="black" points="175.04,-114.5 175.04,-134.5 337.04,-134.5 337.04,-114.5 175.04,-114.5"/>
<text text-anchor="middle" x="256.04" y="-121.7" font-family="-apple-system, BlinkMacSystemFont, 'Segoe UI', Roboto, Oxygen, Ubuntu, Cantarell, 'Fira Sans', 'Droid Sans', 'Helvetica Neue', sans-serif" font-size="11.00">libmirai/Types/BasicTypes.hpp</text>
</a>
</g>
</g>
<!-- Node1&#45;&gt;Node5 -->
<g id="edge4" class="edge">
<title>Node1&#45;&gt;Node5</title>
<path fill="none" stroke="midnightblue" d="M256.04,-171.42C256.04,-163.38 256.04,-153.39 256.04,-144.78"/>
<polygon fill="midnightblue" stroke="midnightblue" points="259.54,-144.55 256.04,-134.55 252.54,-144.55 259.54,-144.55"/>
</g>
<!-- Node9 -->
<g id="node9" class="node">
<title>Node9</title>
<g id="a_node9"><a xlink:href="EventBase_8hpp.html" target="_top" xlink:title=" ">
<polygon fill="none" stroke="black" points="393.54,-114.5 393.54,-134.5 482.54,-134.5 482.54,-114.5 393.54,-114.5"/>
<text text-anchor="middle" x="438.04" y="-121.7" font-family="-apple-system, BlinkMacSystemFont, 'Segoe UI', Roboto, Oxygen, Ubuntu, Cantarell, 'Fira Sans', 'Droid Sans', 'Helvetica Neue', sans-serif" font-size="11.00">EventBase.hpp</text>
</a>
</g>
</g>
<!-- Node1&#45;&gt;Node9 -->
<g id="edge11" class="edge">
<title>Node1&#45;&gt;Node9</title>
<path fill="none" stroke="midnightblue" d="M301.03,-171.42C331.92,-161.07 372.4,-147.5 401.34,-137.8"/>
<polygon fill="midnightblue" stroke="midnightblue" points="402.68,-141.04 411.05,-134.55 400.46,-134.41 402.68,-141.04"/>
</g>
<!-- Node5&#45;&gt;Node2 -->
<g id="edge7" class="edge">
<title>Node5&#45;&gt;Node2</title>
<path fill="none" stroke="midnightblue" d="M276.68,-114.42C296.95,-105.5 328.08,-91.8 351.07,-81.69"/>
<polygon fill="midnightblue" stroke="midnightblue" points="352.63,-84.83 360.37,-77.6 349.81,-78.42 352.63,-84.83"/>
</g>
<!-- Node5&#45;&gt;Node4 -->
<g id="edge8" class="edge">
<title>Node5&#45;&gt;Node4</title>
<path fill="none" stroke="midnightblue" d="M255.8,-114.49C255.13,-101.3 252.73,-76.25 244.04,-57 239.31,-46.51 231.62,-36.31 224.57,-28.24"/>
<polygon fill="midnightblue" stroke="midnightblue" points="226.95,-25.66 217.6,-20.68 221.8,-30.4 226.95,-25.66"/>
</g>
<!-- Node6 -->
<g id="node6" class="node">
<title>Node6</title>
<g id="a_node6"><a xlink:title=" ">
<polygon fill="none" stroke="#bfbfbf" points="291.04,-57.5 291.04,-77.5 341.04,-77.5 341.04,-57.5 291.04,-57.5"/>
<text text-anchor="middle" x="316.04" y="-64.7" font-family="-apple-system, BlinkMacSystemFont, 'Segoe UI', Roboto, Oxygen, Ubuntu, Cantarell, 'Fira Sans', 'Droid Sans', 'Helvetica Neue', sans-serif" font-size="11.00">chrono</text>
</a>
</g>
</g>
<!-- Node5&#45;&gt;Node6 -->
<g id="edge5" class="edge">
<title>Node5&#45;&gt;Node6</title>
<path fill="none" stroke="midnightblue" d="M265.95,-114.42C274.76,-106.35 287.84,-94.36 298.42,-84.65"/>
<polygon fill="midnightblue" stroke="midnightblue" points="300.91,-87.12 305.92,-77.78 296.18,-81.96 300.91,-87.12"/>
</g>
<!-- Node7 -->
<g id="node7" class="node">
<title>Node7</title>
<g id="a_node7"><a xlink:title=" ">
<polygon fill="none" stroke="#bfbfbf" points="13.04,-57.5 13.04,-77.5 55.04,-77.5 55.04,-57.5 13.04,-57.5"/>
<text text-anchor="middle" x="34.04" y="-64.7" font-family="-apple-system, BlinkMacSystemFont, 'Segoe UI', Roboto, Oxygen, Ubuntu, Cantarell, 'Fira Sans', 'Droid Sans', 'Helvetica Neue', sans-serif" font-size="11.00">ctime</text>
</a>
</g>
</g>
<!-- Node5&#45;&gt;Node7 -->
<g id="edge6" class="edge">
<title>Node5&#45;&gt;Node7</title>
<path fill="none" stroke="midnightblue" d="M213.87,-114.45C176.95,-106.31 121.68,-93.63 65.12,-78.16"/>
<polygon fill="midnightblue" stroke="midnightblue" points="65.86,-74.73 55.29,-75.44 64,-81.48 65.86,-74.73"/>
</g>
<!-- Node8 -->
<g id="node8" class="node">
<title>Node8</title>
<g id="a_node8"><a xlink:href="Serializable_8hpp.html" target="_top" xlink:title=" ">
<polygon fill="none" stroke="black" points="73.04,-57.5 73.04,-77.5 235.04,-77.5 235.04,-57.5 73.04,-57.5"/>
<text text-anchor="middle" x="154.04" y="-64.7" font-family="-apple-system, BlinkMacSystemFont, 'Segoe UI', Roboto, Oxygen, Ubuntu, Cantarell, 'Fira Sans', 'Droid Sans', 'Helvetica Neue', sans-serif" font-size="11.00">libmirai/Types/Serializable.hpp</text>
</a>
</g>
</g>
<!-- Node5&#45;&gt;Node8 -->
<g id="edge9" class="edge">
<title>Node5&#45;&gt;Node8</title>
<path fill="none" stroke="midnightblue" d="M239.2,-114.42C223.03,-105.7 198.39,-92.41 179.77,-82.37"/>
<polygon fill="midnightblue" stroke="midnightblue" points="181.38,-79.26 170.91,-77.6 178.05,-85.42 181.38,-79.26"/>
</g>
<!-- Node8&#45;&gt;Node4 -->
<g id="edge10" class="edge">
<title>Node8&#45;&gt;Node4</title>
<path fill="none" stroke="midnightblue" d="M162.96,-57.42C170.81,-49.42 182.43,-37.59 191.9,-27.94"/>
<polygon fill="midnightblue" stroke="midnightblue" points="194.42,-30.37 198.93,-20.78 189.43,-25.46 194.42,-30.37"/>
</g>
<!-- Node9&#45;&gt;Node2 -->
<g id="edge13" class="edge">
<title>Node9&#45;&gt;Node2</title>
<path fill="none" stroke="midnightblue" d="M428.63,-114.42C420.35,-106.42 408.08,-94.59 398.08,-84.94"/>
<polygon fill="midnightblue" stroke="midnightblue" points="400.29,-82.2 390.66,-77.78 395.43,-87.24 400.29,-82.2"/>
</g>
<!-- Node9&#45;&gt;Node4 -->
<g id="edge14" class="edge">
<title>Node9&#45;&gt;Node4</title>
<path fill="none" stroke="midnightblue" d="M436.99,-114.19C434.83,-99.69 428.54,-71.82 411.04,-57 391.8,-40.7 333.16,-28.65 283.82,-21.05"/>
<polygon fill="midnightblue" stroke="midnightblue" points="284.18,-17.57 273.77,-19.55 283.14,-24.49 284.18,-17.57"/>
</g>
<!-- Node10 -->
<g id="node10" class="node">
<title>Node10</title>
<g id="a_node10"><a xlink:title=" ">
<polygon fill="none" stroke="#bfbfbf" points="459.04,-57.5 459.04,-77.5 515.04,-77.5 515.04,-57.5 459.04,-57.5"/>
<text text-anchor="middle" x="487.04" y="-64.7" font-family="-apple-system, BlinkMacSystemFont, 'Segoe UI', Roboto, Oxygen, Ubuntu, Cantarell, 'Fira Sans', 'Droid Sans', 'Helvetica Neue', sans-serif" font-size="11.00">memory</text>
</a>
</g>
</g>
<!-- Node9&#45;&gt;Node10 -->
<g id="edge12" class="edge">
<title>Node9&#45;&gt;Node10</title>
<path fill="none" stroke="midnightblue" d="M446.14,-114.42C453.11,-106.58 463.38,-95.06 471.89,-85.51"/>
<polygon fill="midnightblue" stroke="midnightblue" points="474.74,-87.57 478.78,-77.78 469.51,-82.92 474.74,-87.57"/>
</g>
</g>
</svg>
