<?xml version="1.0" encoding="UTF-8" standalone="no"?>
<!DOCTYPE svg PUBLIC "-//W3C//DTD SVG 1.1//EN"
 "http://www.w3.org/Graphics/SVG/1.1/DTD/svg11.dtd">
<!-- Generated by graphviz version 3.0.0 (20220413.0242)
 -->
<!-- Title: libmirai/public/libmirai/Events/BotLeaveEventKick.hpp Pages: 1 -->
<svg width="527pt" height="212pt"
 viewBox="0.00 0.00 527.15 212.00" xmlns="http://www.w3.org/2000/svg" xmlns:xlink="http://www.w3.org/1999/xlink">
<g id="graph0" class="graph" transform="scale(1 1) rotate(0) translate(4 208)">
<title>libmirai/public/libmirai/Events/BotLeaveEventKick.hpp</title>
<!-- Node1 -->
<g id="node1" class="node">
<title>Node1</title>
<g id="a_node1"><a xlink:title=" ">
<polygon fill="#bfbfbf" stroke="black" points="229.15,-171.5 229.15,-203.5 399.15,-203.5 399.15,-171.5 229.15,-171.5"/>
<text text-anchor="start" x="237.15" y="-190.7" font-family="-apple-system, BlinkMacSystemFont, 'Segoe UI', Roboto, Oxygen, Ubuntu, Cantarell, 'Fira Sans', 'Droid Sans', 'Helvetica Neue', sans-serif" font-size="11.00">libmirai/public/libmirai</text>
<text text-anchor="middle" x="314.15" y="-178.7" font-family="-apple-system, BlinkMacSystemFont, 'Segoe UI', Roboto, Oxygen, Ubuntu, Cantarell, 'Fira Sans', 'Droid Sans', 'Helvetica Neue', sans-serif" font-size="11.00">/Events/BotLeaveEventKick.hpp</text>
</a>
</g>
</g>
<!-- Node2 -->
<g id="node2" class="node">
<title>Node2</title>
<g id="a_node2"><a xlink:title=" ">
<polygon fill="none" stroke="#bfbfbf" points="363.65,-57.5 363.65,-77.5 406.65,-77.5 406.65,-57.5 363.65,-57.5"/>
<text text-anchor="middle" x="385.15" y="-64.7" font-family="-apple-system, BlinkMacSystemFont, 'Segoe UI', Roboto, Oxygen, Ubuntu, Cantarell, 'Fira Sans', 'Droid Sans', 'Helvetica Neue', sans-serif" font-size="11.00">string</text>
</a>
</g>
</g>
<!-- Node1&#45;&gt;Node2 -->
<g id="edge1" class="edge">
<title>Node1&#45;&gt;Node2</title>
<path fill="none" stroke="midnightblue" d="M325.7,-171.06C333.04,-161.01 342.54,-147.48 350.15,-135 359.78,-119.2 369.48,-100.49 376.22,-86.95"/>
<polygon fill="midnightblue" stroke="midnightblue" points="379.48,-88.25 380.75,-77.74 373.2,-85.17 379.48,-88.25"/>
</g>
<!-- Node3 -->
<g id="node3" class="node">
<title>Node3</title>
<g id="a_node3"><a xlink:title=" ">
<polygon fill="none" stroke="#bfbfbf" points="146.65,-0.5 146.65,-20.5 277.65,-20.5 277.65,-0.5 146.65,-0.5"/>
<text text-anchor="middle" x="212.15" y="-7.7" font-family="-apple-system, BlinkMacSystemFont, 'Segoe UI', Roboto, Oxygen, Ubuntu, Cantarell, 'Fira Sans', 'Droid Sans', 'Helvetica Neue', sans-serif" font-size="11.00">nlohmann/json_fwd.hpp</text>
</a>
</g>
</g>
<!-- Node1&#45;&gt;Node3 -->
<g id="edge2" class="edge">
<title>Node1&#45;&gt;Node3</title>
<path fill="none" stroke="midnightblue" d="M228.86,-182.06C156.84,-173.27 57.75,-148.21 8.15,-78 -26.73,-28.63 64.58,-15.13 136.11,-11.86"/>
<polygon fill="midnightblue" stroke="midnightblue" points="136.65,-15.34 146.5,-11.45 136.37,-8.35 136.65,-15.34"/>
</g>
<!-- Node4 -->
<g id="node4" class="node">
<title>Node4</title>
<g id="a_node4"><a xlink:href="BasicTypes_8hpp.html" target="_top" xlink:title=" ">
<polygon fill="none" stroke="black" points="179.15,-114.5 179.15,-134.5 341.15,-134.5 341.15,-114.5 179.15,-114.5"/>
<text text-anchor="middle" x="260.15" y="-121.7" font-family="-apple-system, BlinkMacSystemFont, 'Segoe UI', Roboto, Oxygen, Ubuntu, Cantarell, 'Fira Sans', 'Droid Sans', 'Helvetica Neue', sans-serif" font-size="11.00">libmirai/Types/BasicTypes.hpp</text>
</a>
</g>
</g>
<!-- Node1&#45;&gt;Node4 -->
<g id="edge3" class="edge">
<title>Node1&#45;&gt;Node4</title>
<path fill="none" stroke="midnightblue" d="M300.8,-171.42C292.96,-162.56 283.03,-151.35 274.95,-142.22"/>
<polygon fill="midnightblue" stroke="midnightblue" points="277.41,-139.71 268.16,-134.55 272.17,-144.35 277.41,-139.71"/>
</g>
<!-- Node8 -->
<g id="node8" class="node">
<title>Node8</title>
<g id="a_node8"><a xlink:href="EventBase_8hpp.html" target="_top" xlink:title=" ">
<polygon fill="none" stroke="black" points="397.65,-114.5 397.65,-134.5 486.65,-134.5 486.65,-114.5 397.65,-114.5"/>
<text text-anchor="middle" x="442.15" y="-121.7" font-family="-apple-system, BlinkMacSystemFont, 'Segoe UI', Roboto, Oxygen, Ubuntu, Cantarell, 'Fira Sans', 'Droid Sans', 'Helvetica Neue', sans-serif" font-size="11.00">EventBase.hpp</text>
</a>
</g>
</g>
<!-- Node1&#45;&gt;Node8 -->
<g id="edge10" class="edge">
<title>Node1&#45;&gt;Node8</title>
<path fill="none" stroke="midnightblue" d="M345.79,-171.42C366.66,-161.48 393.76,-148.56 413.9,-138.96"/>
<polygon fill="midnightblue" stroke="midnightblue" points="415.65,-142.01 423.17,-134.55 412.64,-135.69 415.65,-142.01"/>
</g>
<!-- Node4&#45;&gt;Node2 -->
<g id="edge6" class="edge">
<title>Node4&#45;&gt;Node2</title>
<path fill="none" stroke="midnightblue" d="M280.79,-114.42C301.06,-105.5 332.19,-91.8 355.18,-81.69"/>
<polygon fill="midnightblue" stroke="midnightblue" points="356.74,-84.83 364.48,-77.6 353.92,-78.42 356.74,-84.83"/>
</g>
<!-- Node4&#45;&gt;Node3 -->
<g id="edge7" class="edge">
<title>Node4&#45;&gt;Node3</title>
<path fill="none" stroke="midnightblue" d="M259.9,-114.49C259.24,-101.3 256.84,-76.25 248.15,-57 243.41,-46.51 235.73,-36.31 228.68,-28.24"/>
<polygon fill="midnightblue" stroke="midnightblue" points="231.05,-25.66 221.7,-20.68 225.91,-30.4 231.05,-25.66"/>
</g>
<!-- Node5 -->
<g id="node5" class="node">
<title>Node5</title>
<g id="a_node5"><a xlink:title=" ">
<polygon fill="none" stroke="#bfbfbf" points="295.15,-57.5 295.15,-77.5 345.15,-77.5 345.15,-57.5 295.15,-57.5"/>
<text text-anchor="middle" x="320.15" y="-64.7" font-family="-apple-system, BlinkMacSystemFont, 'Segoe UI', Roboto, Oxygen, Ubuntu, Cantarell, 'Fira Sans', 'Droid Sans', 'Helvetica Neue', sans-serif" font-size="11.00">chrono</text>
</a>
</g>
</g>
<!-- Node4&#45;&gt;Node5 -->
<g id="edge4" class="edge">
<title>Node4&#45;&gt;Node5</title>
<path fill="none" stroke="midnightblue" d="M270.06,-114.42C278.86,-106.35 291.94,-94.36 302.53,-84.65"/>
<polygon fill="midnightblue" stroke="midnightblue" points="305.02,-87.12 310.03,-77.78 300.29,-81.96 305.02,-87.12"/>
</g>
<!-- Node6 -->
<g id="node6" class="node">
<title>Node6</title>
<g id="a_node6"><a xlink:title=" ">
<polygon fill="none" stroke="#bfbfbf" points="17.15,-57.5 17.15,-77.5 59.15,-77.5 59.15,-57.5 17.15,-57.5"/>
<text text-anchor="middle" x="38.15" y="-64.7" font-family="-apple-system, BlinkMacSystemFont, 'Segoe UI', Roboto, Oxygen, Ubuntu, Cantarell, 'Fira Sans', 'Droid Sans', 'Helvetica Neue', sans-serif" font-size="11.00">ctime</text>
</a>
</g>
</g>
<!-- Node4&#45;&gt;Node6 -->
<g id="edge5" class="edge">
<title>Node4&#45;&gt;Node6</title>
<path fill="none" stroke="midnightblue" d="M217.97,-114.45C181.06,-106.31 125.79,-93.63 69.22,-78.16"/>
<polygon fill="midnightblue" stroke="midnightblue" points="69.97,-74.73 59.4,-75.44 68.11,-81.48 69.97,-74.73"/>
</g>
<!-- Node7 -->
<g id="node7" class="node">
<title>Node7</title>
<g id="a_node7"><a xlink:href="Serializable_8hpp.html" target="_top" xlink:title=" ">
<polygon fill="none" stroke="black" points="77.15,-57.5 77.15,-77.5 239.15,-77.5 239.15,-57.5 77.15,-57.5"/>
<text text-anchor="middle" x="158.15" y="-64.7" font-family="-apple-system, BlinkMacSystemFont, 'Segoe UI', Roboto, Oxygen, Ubuntu, Cantarell, 'Fira Sans', 'Droid Sans', 'Helvetica Neue', sans-serif" font-size="11.00">libmirai/Types/Serializable.hpp</text>
</a>
</g>
</g>
<!-- Node4&#45;&gt;Node7 -->
<g id="edge8" class="edge">
<title>Node4&#45;&gt;Node7</title>
<path fill="none" stroke="midnightblue" d="M243.31,-114.42C227.14,-105.7 202.5,-92.41 183.87,-82.37"/>
<polygon fill="midnightblue" stroke="midnightblue" points="185.48,-79.26 175.02,-77.6 182.16,-85.42 185.48,-79.26"/>
</g>
<!-- Node7&#45;&gt;Node3 -->
<g id="edge9" class="edge">
<title>Node7&#45;&gt;Node3</title>
<path fill="none" stroke="midnightblue" d="M167.07,-57.42C174.92,-49.42 186.53,-37.59 196.01,-27.94"/>
<polygon fill="midnightblue" stroke="midnightblue" points="198.53,-30.37 203.04,-20.78 193.54,-25.46 198.53,-30.37"/>
</g>
<!-- Node8&#45;&gt;Node2 -->
<g id="edge12" class="edge">
<title>Node8&#45;&gt;Node2</title>
<path fill="none" stroke="midnightblue" d="M432.74,-114.42C424.45,-106.42 412.19,-94.59 402.19,-84.94"/>
<polygon fill="midnightblue" stroke="midnightblue" points="404.39,-82.2 394.77,-77.78 399.53,-87.24 404.39,-82.2"/>
</g>
<!-- Node8&#45;&gt;Node3 -->
<g id="edge13" class="edge">
<title>Node8&#45;&gt;Node3</title>
<path fill="none" stroke="midnightblue" d="M441.1,-114.19C438.94,-99.69 432.64,-71.82 415.15,-57 395.91,-40.7 337.27,-28.65 287.93,-21.05"/>
<polygon fill="midnightblue" stroke="midnightblue" points="288.29,-17.57 277.88,-19.55 287.25,-24.49 288.29,-17.57"/>
</g>
<!-- Node9 -->
<g id="node9" class="node">
<title>Node9</title>
<g id="a_node9"><a xlink:title=" ">
<polygon fill="none" stroke="#bfbfbf" points="463.15,-57.5 463.15,-77.5 519.15,-77.5 519.15,-57.5 463.15,-57.5"/>
<text text-anchor="middle" x="491.15" y="-64.7" font-family="-apple-system, BlinkMacSystemFont, 'Segoe UI', Roboto, Oxygen, Ubuntu, Cantarell, 'Fira Sans', 'Droid Sans', 'Helvetica Neue', sans-serif" font-size="11.00">memory</text>
</a>
</g>
</g>
<!-- Node8&#45;&gt;Node9 -->
<g id="edge11" class="edge">
<title>Node8&#45;&gt;Node9</title>
<path fill="none" stroke="midnightblue" d="M450.24,-114.42C457.22,-106.58 467.49,-95.06 475.99,-85.51"/>
<polygon fill="midnightblue" stroke="midnightblue" points="478.84,-87.57 482.88,-77.78 473.62,-82.92 478.84,-87.57"/>
</g>
</g>
</svg>
