<?xml version="1.0" encoding="UTF-8" standalone="no"?>
<!DOCTYPE svg PUBLIC "-//W3C//DTD SVG 1.1//EN"
 "http://www.w3.org/Graphics/SVG/1.1/DTD/svg11.dtd">
<!-- Generated by graphviz version 3.0.0 (20220413.0242)
 -->
<!-- Title: libmirai/public/libmirai/Events/BotLeaveEventKick.cpp Pages: 1 -->
<svg width="527pt" height="212pt"
 viewBox="0.00 0.00 527.11 212.00" xmlns="http://www.w3.org/2000/svg" xmlns:xlink="http://www.w3.org/1999/xlink">
<g id="graph0" class="graph" transform="scale(1 1) rotate(0) translate(4 208)">
<title>libmirai/public/libmirai/Events/BotLeaveEventKick.cpp</title>
<!-- Node1 -->
<g id="node1" class="node">
<title>Node1</title>
<g id="a_node1"><a xlink:title=" ">
<polygon fill="#bfbfbf" stroke="black" points="220.61,-171.5 220.61,-203.5 389.61,-203.5 389.61,-171.5 220.61,-171.5"/>
<text text-anchor="start" x="228.61" y="-190.7" font-family="-apple-system, BlinkMacSystemFont, 'Segoe UI', Roboto, Oxygen, Ubuntu, Cantarell, 'Fira Sans', 'Droid Sans', 'Helvetica Neue', sans-serif" font-size="11.00">libmirai/public/libmirai</text>
<text text-anchor="middle" x="305.11" y="-178.7" font-family="-apple-system, BlinkMacSystemFont, 'Segoe UI', Roboto, Oxygen, Ubuntu, Cantarell, 'Fira Sans', 'Droid Sans', 'Helvetica Neue', sans-serif" font-size="11.00">/Events/BotLeaveEventKick.cpp</text>
</a>
</g>
</g>
<!-- Node2 -->
<g id="node2" class="node">
<title>Node2</title>
<g id="a_node2"><a xlink:href="BotLeaveEventKick_8hpp.html" target="_top" xlink:title=" ">
<polygon fill="none" stroke="black" points="101.61,-114.5 101.61,-134.5 232.61,-134.5 232.61,-114.5 101.61,-114.5"/>
<text text-anchor="middle" x="167.11" y="-121.7" font-family="-apple-system, BlinkMacSystemFont, 'Segoe UI', Roboto, Oxygen, Ubuntu, Cantarell, 'Fira Sans', 'Droid Sans', 'Helvetica Neue', sans-serif" font-size="11.00">BotLeaveEventKick.hpp</text>
</a>
</g>
</g>
<!-- Node1&#45;&gt;Node2 -->
<g id="edge1" class="edge">
<title>Node1&#45;&gt;Node2</title>
<path fill="none" stroke="midnightblue" d="M270.99,-171.42C248.29,-161.39 218.75,-148.33 196.98,-138.7"/>
<polygon fill="midnightblue" stroke="midnightblue" points="198.13,-135.39 187.57,-134.55 195.3,-141.79 198.13,-135.39"/>
</g>
<!-- Node11 -->
<g id="node7" class="node">
<title>Node11</title>
<g id="a_node7"><a xlink:title=" ">
<polygon fill="none" stroke="#bfbfbf" points="251.11,-114.5 251.11,-134.5 359.11,-134.5 359.11,-114.5 251.11,-114.5"/>
<text text-anchor="middle" x="305.11" y="-121.7" font-family="-apple-system, BlinkMacSystemFont, 'Segoe UI', Roboto, Oxygen, Ubuntu, Cantarell, 'Fira Sans', 'Droid Sans', 'Helvetica Neue', sans-serif" font-size="11.00">nlohmann/json.hpp</text>
</a>
</g>
</g>
<!-- Node1&#45;&gt;Node11 -->
<g id="edge10" class="edge">
<title>Node1&#45;&gt;Node11</title>
<path fill="none" stroke="midnightblue" d="M305.11,-171.42C305.11,-163.38 305.11,-153.39 305.11,-144.78"/>
<polygon fill="midnightblue" stroke="midnightblue" points="308.61,-144.55 305.11,-134.55 301.61,-144.55 308.61,-144.55"/>
</g>
<!-- Node12 -->
<g id="node8" class="node">
<title>Node12</title>
<g id="a_node8"><a xlink:title=" ">
<polygon fill="none" stroke="#bfbfbf" points="377.11,-114.5 377.11,-134.5 519.11,-134.5 519.11,-114.5 377.11,-114.5"/>
<text text-anchor="middle" x="448.11" y="-121.7" font-family="-apple-system, BlinkMacSystemFont, 'Segoe UI', Roboto, Oxygen, Ubuntu, Cantarell, 'Fira Sans', 'Droid Sans', 'Helvetica Neue', sans-serif" font-size="11.00">libmirai/Utils/Common.hpp</text>
</a>
</g>
</g>
<!-- Node1&#45;&gt;Node12 -->
<g id="edge11" class="edge">
<title>Node1&#45;&gt;Node12</title>
<path fill="none" stroke="midnightblue" d="M340.45,-171.42C364.09,-161.34 394.87,-148.21 417.46,-138.57"/>
<polygon fill="midnightblue" stroke="midnightblue" points="419.07,-141.69 426.9,-134.55 416.33,-135.25 419.07,-141.69"/>
</g>
<!-- Node3 -->
<g id="node3" class="node">
<title>Node3</title>
<g id="a_node3"><a xlink:title=" ">
<polygon fill="none" stroke="#bfbfbf" points="73.61,-0.5 73.61,-20.5 116.61,-20.5 116.61,-0.5 73.61,-0.5"/>
<text text-anchor="middle" x="95.11" y="-7.7" font-family="-apple-system, BlinkMacSystemFont, 'Segoe UI', Roboto, Oxygen, Ubuntu, Cantarell, 'Fira Sans', 'Droid Sans', 'Helvetica Neue', sans-serif" font-size="11.00">string</text>
</a>
</g>
</g>
<!-- Node2&#45;&gt;Node3 -->
<g id="edge2" class="edge">
<title>Node2&#45;&gt;Node3</title>
<path fill="none" stroke="midnightblue" d="M107.65,-114.46C66.79,-106.89 17.72,-94.65 5.11,-78 -14.62,-51.97 30.37,-31.45 63.59,-20.43"/>
<polygon fill="midnightblue" stroke="midnightblue" points="64.96,-23.67 73.44,-17.32 62.85,-16.99 64.96,-23.67"/>
</g>
<!-- Node4 -->
<g id="node4" class="node">
<title>Node4</title>
<g id="a_node4"><a xlink:title=" ">
<polygon fill="none" stroke="#bfbfbf" points="173.61,-0.5 173.61,-20.5 304.61,-20.5 304.61,-0.5 173.61,-0.5"/>
<text text-anchor="middle" x="239.11" y="-7.7" font-family="-apple-system, BlinkMacSystemFont, 'Segoe UI', Roboto, Oxygen, Ubuntu, Cantarell, 'Fira Sans', 'Droid Sans', 'Helvetica Neue', sans-serif" font-size="11.00">nlohmann/json_fwd.hpp</text>
</a>
</g>
</g>
<!-- Node2&#45;&gt;Node4 -->
<g id="edge3" class="edge">
<title>Node2&#45;&gt;Node4</title>
<path fill="none" stroke="midnightblue" d="M232.92,-115.36C255.81,-109.02 279.21,-97.8 293.11,-78 306.21,-59.34 284.25,-39.18 264.53,-26.01"/>
<polygon fill="midnightblue" stroke="midnightblue" points="266.36,-23.03 256.04,-20.65 262.62,-28.95 266.36,-23.03"/>
</g>
<!-- Node5 -->
<g id="node5" class="node">
<title>Node5</title>
<g id="a_node5"><a xlink:href="BasicTypes_8hpp.html" target="_top" xlink:title=" ">
<polygon fill="none" stroke="red" points="14.11,-57.5 14.11,-77.5 176.11,-77.5 176.11,-57.5 14.11,-57.5"/>
<text text-anchor="middle" x="95.11" y="-64.7" font-family="-apple-system, BlinkMacSystemFont, 'Segoe UI', Roboto, Oxygen, Ubuntu, Cantarell, 'Fira Sans', 'Droid Sans', 'Helvetica Neue', sans-serif" font-size="11.00">libmirai/Types/BasicTypes.hpp</text>
</a>
</g>
</g>
<!-- Node2&#45;&gt;Node5 -->
<g id="edge4" class="edge">
<title>Node2&#45;&gt;Node5</title>
<path fill="none" stroke="midnightblue" d="M155.22,-114.42C144.44,-106.19 128.34,-93.88 115.51,-84.08"/>
<polygon fill="midnightblue" stroke="midnightblue" points="117.32,-81.07 107.25,-77.78 113.08,-86.63 117.32,-81.07"/>
</g>
<!-- Node9 -->
<g id="node6" class="node">
<title>Node9</title>
<g id="a_node6"><a xlink:href="EventBase_8hpp.html" target="_top" xlink:title=" ">
<polygon fill="none" stroke="red" points="194.61,-57.5 194.61,-77.5 283.61,-77.5 283.61,-57.5 194.61,-57.5"/>
<text text-anchor="middle" x="239.11" y="-64.7" font-family="-apple-system, BlinkMacSystemFont, 'Segoe UI', Roboto, Oxygen, Ubuntu, Cantarell, 'Fira Sans', 'Droid Sans', 'Helvetica Neue', sans-serif" font-size="11.00">EventBase.hpp</text>
</a>
</g>
</g>
<!-- Node2&#45;&gt;Node9 -->
<g id="edge7" class="edge">
<title>Node2&#45;&gt;Node9</title>
<path fill="none" stroke="midnightblue" d="M179,-114.42C189.77,-106.19 205.88,-93.88 218.71,-84.08"/>
<polygon fill="midnightblue" stroke="midnightblue" points="221.14,-86.63 226.96,-77.78 216.89,-81.07 221.14,-86.63"/>
</g>
<!-- Node5&#45;&gt;Node3 -->
<g id="edge5" class="edge">
<title>Node5&#45;&gt;Node3</title>
<path fill="none" stroke="midnightblue" d="M95.11,-57.42C95.11,-50.22 95.11,-39.9 95.11,-30.86"/>
<polygon fill="midnightblue" stroke="midnightblue" points="98.61,-30.78 95.11,-20.78 91.61,-30.78 98.61,-30.78"/>
</g>
<!-- Node5&#45;&gt;Node4 -->
<g id="edge6" class="edge">
<title>Node5&#45;&gt;Node4</title>
<path fill="none" stroke="midnightblue" d="M118.88,-57.42C142.54,-48.38 179.06,-34.44 205.64,-24.28"/>
<polygon fill="midnightblue" stroke="midnightblue" points="207.2,-27.43 215.29,-20.6 204.7,-20.89 207.2,-27.43"/>
</g>
<!-- Node9&#45;&gt;Node3 -->
<g id="edge8" class="edge">
<title>Node9&#45;&gt;Node3</title>
<path fill="none" stroke="midnightblue" d="M215.33,-57.42C191.1,-48.17 153.4,-33.76 126.68,-23.56"/>
<polygon fill="midnightblue" stroke="midnightblue" points="127.62,-20.17 117.03,-19.87 125.12,-26.71 127.62,-20.17"/>
</g>
<!-- Node9&#45;&gt;Node4 -->
<g id="edge9" class="edge">
<title>Node9&#45;&gt;Node4</title>
<path fill="none" stroke="midnightblue" d="M239.11,-57.42C239.11,-50.22 239.11,-39.9 239.11,-30.86"/>
<polygon fill="midnightblue" stroke="midnightblue" points="242.61,-30.78 239.11,-20.78 235.61,-30.78 242.61,-30.78"/>
</g>
</g>
</svg>
