<?xml version="1.0" encoding="UTF-8" standalone="no"?>
<!DOCTYPE svg PUBLIC "-//W3C//DTD SVG 1.1//EN"
 "http://www.w3.org/Graphics/SVG/1.1/DTD/svg11.dtd">
<!-- Generated by graphviz version 3.0.0 (20220413.0242)
 -->
<!-- Title: libmirai/public/libmirai/Events/BotMuteEvent.hpp Pages: 1 -->
<svg width="548pt" height="212pt"
 viewBox="0.00 0.00 548.00 212.00" xmlns="http://www.w3.org/2000/svg" xmlns:xlink="http://www.w3.org/1999/xlink">
<g id="graph0" class="graph" transform="scale(1 1) rotate(0) translate(4 208)">
<title>libmirai/public/libmirai/Events/BotMuteEvent.hpp</title>
<!-- Node1 -->
<g id="node1" class="node">
<title>Node1</title>
<g id="a_node1"><a xlink:title=" ">
<polygon fill="#bfbfbf" stroke="black" points="247.5,-171.5 247.5,-203.5 390.5,-203.5 390.5,-171.5 247.5,-171.5"/>
<text text-anchor="start" x="255.5" y="-190.7" font-family="-apple-system, BlinkMacSystemFont, 'Segoe UI', Roboto, Oxygen, Ubuntu, Cantarell, 'Fira Sans', 'Droid Sans', 'Helvetica Neue', sans-serif" font-size="11.00">libmirai/public/libmirai</text>
<text text-anchor="middle" x="319" y="-178.7" font-family="-apple-system, BlinkMacSystemFont, 'Segoe UI', Roboto, Oxygen, Ubuntu, Cantarell, 'Fira Sans', 'Droid Sans', 'Helvetica Neue', sans-serif" font-size="11.00">/Events/BotMuteEvent.hpp</text>
</a>
</g>
</g>
<!-- Node2 -->
<g id="node2" class="node">
<title>Node2</title>
<g id="a_node2"><a xlink:title=" ">
<polygon fill="none" stroke="#bfbfbf" points="0,-57.5 0,-77.5 50,-77.5 50,-57.5 0,-57.5"/>
<text text-anchor="middle" x="25" y="-64.7" font-family="-apple-system, BlinkMacSystemFont, 'Segoe UI', Roboto, Oxygen, Ubuntu, Cantarell, 'Fira Sans', 'Droid Sans', 'Helvetica Neue', sans-serif" font-size="11.00">chrono</text>
</a>
</g>
</g>
<!-- Node1&#45;&gt;Node2 -->
<g id="edge1" class="edge">
<title>Node1&#45;&gt;Node2</title>
<path fill="none" stroke="midnightblue" d="M247.03,-174.78C207.7,-166.73 158.82,-154.01 118,-135 89.55,-121.75 60.76,-99.5 42.91,-84.42"/>
<polygon fill="midnightblue" stroke="midnightblue" points="44.93,-81.54 35.07,-77.66 40.36,-86.84 44.93,-81.54"/>
</g>
<!-- Node3 -->
<g id="node3" class="node">
<title>Node3</title>
<g id="a_node3"><a xlink:title=" ">
<polygon fill="none" stroke="#bfbfbf" points="68,-57.5 68,-77.5 110,-77.5 110,-57.5 68,-57.5"/>
<text text-anchor="middle" x="89" y="-64.7" font-family="-apple-system, BlinkMacSystemFont, 'Segoe UI', Roboto, Oxygen, Ubuntu, Cantarell, 'Fira Sans', 'Droid Sans', 'Helvetica Neue', sans-serif" font-size="11.00">ctime</text>
</a>
</g>
</g>
<!-- Node1&#45;&gt;Node3 -->
<g id="edge2" class="edge">
<title>Node1&#45;&gt;Node3</title>
<path fill="none" stroke="midnightblue" d="M247.18,-175.38C213.81,-167.8 174.8,-155.31 144,-135 125.12,-122.55 109.39,-101.66 99.65,-86.62"/>
<polygon fill="midnightblue" stroke="midnightblue" points="102.38,-84.38 94.14,-77.72 96.43,-88.07 102.38,-84.38"/>
</g>
<!-- Node4 -->
<g id="node4" class="node">
<title>Node4</title>
<g id="a_node4"><a xlink:title=" ">
<polygon fill="none" stroke="#bfbfbf" points="346.5,-57.5 346.5,-77.5 389.5,-77.5 389.5,-57.5 346.5,-57.5"/>
<text text-anchor="middle" x="368" y="-64.7" font-family="-apple-system, BlinkMacSystemFont, 'Segoe UI', Roboto, Oxygen, Ubuntu, Cantarell, 'Fira Sans', 'Droid Sans', 'Helvetica Neue', sans-serif" font-size="11.00">string</text>
</a>
</g>
</g>
<!-- Node1&#45;&gt;Node4 -->
<g id="edge3" class="edge">
<title>Node1&#45;&gt;Node4</title>
<path fill="none" stroke="midnightblue" d="M325.41,-171.07C334.36,-149.51 350.6,-110.41 360.23,-87.21"/>
<polygon fill="midnightblue" stroke="midnightblue" points="363.54,-88.37 364.14,-77.79 357.07,-85.69 363.54,-88.37"/>
</g>
<!-- Node5 -->
<g id="node5" class="node">
<title>Node5</title>
<g id="a_node5"><a xlink:title=" ">
<polygon fill="none" stroke="#bfbfbf" points="266.5,-0.5 266.5,-20.5 397.5,-20.5 397.5,-0.5 266.5,-0.5"/>
<text text-anchor="middle" x="332" y="-7.7" font-family="-apple-system, BlinkMacSystemFont, 'Segoe UI', Roboto, Oxygen, Ubuntu, Cantarell, 'Fira Sans', 'Droid Sans', 'Helvetica Neue', sans-serif" font-size="11.00">nlohmann/json_fwd.hpp</text>
</a>
</g>
</g>
<!-- Node1&#45;&gt;Node5 -->
<g id="edge4" class="edge">
<title>Node1&#45;&gt;Node5</title>
<path fill="none" stroke="midnightblue" d="M335.11,-171.49C354.57,-152.1 386.16,-116.29 398,-78 400.76,-69.08 402.34,-65.26 398,-57 390.76,-43.22 377.25,-32.79 364.33,-25.42"/>
<polygon fill="midnightblue" stroke="midnightblue" points="365.6,-22.14 355.12,-20.59 362.35,-28.34 365.6,-22.14"/>
</g>
<!-- Node6 -->
<g id="node6" class="node">
<title>Node6</title>
<g id="a_node6"><a xlink:href="BasicTypes_8hpp.html" target="_top" xlink:title=" ">
<polygon fill="none" stroke="black" points="153,-114.5 153,-134.5 315,-134.5 315,-114.5 153,-114.5"/>
<text text-anchor="middle" x="234" y="-121.7" font-family="-apple-system, BlinkMacSystemFont, 'Segoe UI', Roboto, Oxygen, Ubuntu, Cantarell, 'Fira Sans', 'Droid Sans', 'Helvetica Neue', sans-serif" font-size="11.00">libmirai/Types/BasicTypes.hpp</text>
</a>
</g>
</g>
<!-- Node1&#45;&gt;Node6 -->
<g id="edge5" class="edge">
<title>Node1&#45;&gt;Node6</title>
<path fill="none" stroke="midnightblue" d="M297.99,-171.42C284.89,-162.02 268.09,-149.96 254.99,-140.56"/>
<polygon fill="midnightblue" stroke="midnightblue" points="256.77,-137.53 246.6,-134.55 252.69,-143.22 256.77,-137.53"/>
</g>
<!-- Node8 -->
<g id="node8" class="node">
<title>Node8</title>
<g id="a_node8"><a xlink:href="EventBase_8hpp.html" target="_top" xlink:title=" ">
<polygon fill="none" stroke="black" points="446.5,-114.5 446.5,-134.5 535.5,-134.5 535.5,-114.5 446.5,-114.5"/>
<text text-anchor="middle" x="491" y="-121.7" font-family="-apple-system, BlinkMacSystemFont, 'Segoe UI', Roboto, Oxygen, Ubuntu, Cantarell, 'Fira Sans', 'Droid Sans', 'Helvetica Neue', sans-serif" font-size="11.00">EventBase.hpp</text>
</a>
</g>
</g>
<!-- Node1&#45;&gt;Node8 -->
<g id="edge12" class="edge">
<title>Node1&#45;&gt;Node8</title>
<path fill="none" stroke="midnightblue" d="M361.52,-171.42C390.58,-161.11 428.63,-147.62 455.95,-137.93"/>
<polygon fill="midnightblue" stroke="midnightblue" points="457.24,-141.19 465.49,-134.55 454.9,-134.59 457.24,-141.19"/>
</g>
<!-- Node6&#45;&gt;Node2 -->
<g id="edge6" class="edge">
<title>Node6&#45;&gt;Node2</title>
<path fill="none" stroke="midnightblue" d="M198.42,-114.45C165.03,-105.91 113.45,-92.61 59.9,-78.21"/>
<polygon fill="midnightblue" stroke="midnightblue" points="60.8,-74.83 50.24,-75.61 58.98,-81.59 60.8,-74.83"/>
</g>
<!-- Node6&#45;&gt;Node3 -->
<g id="edge7" class="edge">
<title>Node6&#45;&gt;Node3</title>
<path fill="none" stroke="midnightblue" d="M210.06,-114.42C185.27,-105.02 146.47,-90.3 119.5,-80.07"/>
<polygon fill="midnightblue" stroke="midnightblue" points="120.74,-76.8 110.15,-76.52 118.26,-83.34 120.74,-76.8"/>
</g>
<!-- Node6&#45;&gt;Node4 -->
<g id="edge8" class="edge">
<title>Node6&#45;&gt;Node4</title>
<path fill="none" stroke="midnightblue" d="M256.13,-114.42C278.18,-105.37 312.23,-91.39 336.97,-81.24"/>
<polygon fill="midnightblue" stroke="midnightblue" points="338.36,-84.45 346.28,-77.41 335.7,-77.97 338.36,-84.45"/>
</g>
<!-- Node6&#45;&gt;Node5 -->
<g id="edge9" class="edge">
<title>Node6&#45;&gt;Node5</title>
<path fill="none" stroke="midnightblue" d="M208.57,-114.48C179.56,-102.79 138.42,-81.03 157,-57 169.58,-40.73 215.11,-29.2 256.57,-21.82"/>
<polygon fill="midnightblue" stroke="midnightblue" points="257.18,-25.26 266.44,-20.12 256,-18.36 257.18,-25.26"/>
</g>
<!-- Node7 -->
<g id="node7" class="node">
<title>Node7</title>
<g id="a_node7"><a xlink:href="Serializable_8hpp.html" target="_top" xlink:title=" ">
<polygon fill="none" stroke="black" points="166,-57.5 166,-77.5 328,-77.5 328,-57.5 166,-57.5"/>
<text text-anchor="middle" x="247" y="-64.7" font-family="-apple-system, BlinkMacSystemFont, 'Segoe UI', Roboto, Oxygen, Ubuntu, Cantarell, 'Fira Sans', 'Droid Sans', 'Helvetica Neue', sans-serif" font-size="11.00">libmirai/Types/Serializable.hpp</text>
</a>
</g>
</g>
<!-- Node6&#45;&gt;Node7 -->
<g id="edge10" class="edge">
<title>Node6&#45;&gt;Node7</title>
<path fill="none" stroke="midnightblue" d="M236.15,-114.42C237.87,-107.14 240.34,-96.67 242.49,-87.57"/>
<polygon fill="midnightblue" stroke="midnightblue" points="245.91,-88.32 244.81,-77.78 239.1,-86.71 245.91,-88.32"/>
</g>
<!-- Node7&#45;&gt;Node5 -->
<g id="edge11" class="edge">
<title>Node7&#45;&gt;Node5</title>
<path fill="none" stroke="midnightblue" d="M261.04,-57.42C274.2,-48.9 294.11,-36.02 309.49,-26.06"/>
<polygon fill="midnightblue" stroke="midnightblue" points="311.45,-28.97 317.94,-20.6 307.65,-23.09 311.45,-28.97"/>
</g>
<!-- Node8&#45;&gt;Node4 -->
<g id="edge14" class="edge">
<title>Node8&#45;&gt;Node4</title>
<path fill="none" stroke="midnightblue" d="M470.69,-114.42C450.75,-105.5 420.11,-91.8 397.49,-81.69"/>
<polygon fill="midnightblue" stroke="midnightblue" points="398.9,-78.48 388.34,-77.6 396.04,-84.87 398.9,-78.48"/>
</g>
<!-- Node8&#45;&gt;Node5 -->
<g id="edge15" class="edge">
<title>Node8&#45;&gt;Node5</title>
<path fill="none" stroke="midnightblue" d="M484.72,-114.23C474.88,-100.26 454.6,-73.69 432,-57 413.1,-43.04 389.23,-31.98 369.56,-24.26"/>
<polygon fill="midnightblue" stroke="midnightblue" points="370.58,-20.91 359.99,-20.64 368.1,-27.45 370.58,-20.91"/>
</g>
<!-- Node9 -->
<g id="node9" class="node">
<title>Node9</title>
<g id="a_node9"><a xlink:title=" ">
<polygon fill="none" stroke="#bfbfbf" points="484,-57.5 484,-77.5 540,-77.5 540,-57.5 484,-57.5"/>
<text text-anchor="middle" x="512" y="-64.7" font-family="-apple-system, BlinkMacSystemFont, 'Segoe UI', Roboto, Oxygen, Ubuntu, Cantarell, 'Fira Sans', 'Droid Sans', 'Helvetica Neue', sans-serif" font-size="11.00">memory</text>
</a>
</g>
</g>
<!-- Node8&#45;&gt;Node9 -->
<g id="edge13" class="edge">
<title>Node8&#45;&gt;Node9</title>
<path fill="none" stroke="midnightblue" d="M494.47,-114.42C497.28,-107.06 501.33,-96.44 504.83,-87.27"/>
<polygon fill="midnightblue" stroke="midnightblue" points="508.16,-88.37 508.46,-77.78 501.62,-85.87 508.16,-88.37"/>
</g>
</g>
</svg>
