<?xml version="1.0" encoding="UTF-8" standalone="no"?>
<!DOCTYPE svg PUBLIC "-//W3C//DTD SVG 1.1//EN"
 "http://www.w3.org/Graphics/SVG/1.1/DTD/svg11.dtd">
<!-- Generated by graphviz version 2.43.0 (0)
 -->
<!-- Title: libmirai/public/libmirai/Events/BotMuteEvent.cpp Pages: 1 -->
<svg width="608pt" height="212pt"
 viewBox="0.00 0.00 608.00 212.00" xmlns="http://www.w3.org/2000/svg" xmlns:xlink="http://www.w3.org/1999/xlink">
<g id="graph0" class="graph" transform="scale(1 1) rotate(0) translate(4 208)">
<title>libmirai/public/libmirai/Events/BotMuteEvent.cpp</title>
<!-- Node1 -->
<g id="node1" class="node">
<title>Node1</title>
<g id="a_node1"><a xlink:title=" ">
<polygon fill="#bfbfbf" stroke="black" points="277.5,-171.5 277.5,-203.5 440.5,-203.5 440.5,-171.5 277.5,-171.5"/>
<text text-anchor="start" x="285.5" y="-190.7" font-family="-apple-system,BlinkMacSystemFont,'SegoeUI',Roboto,Oxygen,Ubuntu,Cantarell,'FiraSans','DroidSans','HelveticaNeue',sans-serif" font-size="11.00">libmirai/public/libmirai</text>
<text text-anchor="middle" x="359" y="-178.7" font-family="-apple-system,BlinkMacSystemFont,'SegoeUI',Roboto,Oxygen,Ubuntu,Cantarell,'FiraSans','DroidSans','HelveticaNeue',sans-serif" font-size="11.00">/Events/BotMuteEvent.cpp</text>
</a>
</g>
</g>
<!-- Node2 -->
<g id="node2" class="node">
<title>Node2</title>
<g id="a_node2"><a xlink:href="BotMuteEvent_8hpp.html" target="_top" xlink:title=" ">
<polygon fill="none" stroke="black" points="161.5,-114.5 161.5,-134.5 280.5,-134.5 280.5,-114.5 161.5,-114.5"/>
<text text-anchor="middle" x="221" y="-121.7" font-family="-apple-system,BlinkMacSystemFont,'SegoeUI',Roboto,Oxygen,Ubuntu,Cantarell,'FiraSans','DroidSans','HelveticaNeue',sans-serif" font-size="11.00">BotMuteEvent.hpp</text>
</a>
</g>
</g>
<!-- Node1&#45;&gt;Node2 -->
<g id="edge1" class="edge">
<title>Node1&#45;&gt;Node2</title>
<path fill="none" stroke="midnightblue" d="M324.89,-171.42C302.18,-161.39 272.64,-148.33 250.87,-138.7"/>
<polygon fill="midnightblue" stroke="midnightblue" points="252.03,-135.39 241.46,-134.55 249.2,-141.79 252.03,-135.39"/>
</g>
<!-- Node11 -->
<g id="node9" class="node">
<title>Node11</title>
<g id="a_node9"><a xlink:title=" ">
<polygon fill="none" stroke="#bfbfbf" points="298.5,-114.5 298.5,-134.5 419.5,-134.5 419.5,-114.5 298.5,-114.5"/>
<text text-anchor="middle" x="359" y="-121.7" font-family="-apple-system,BlinkMacSystemFont,'SegoeUI',Roboto,Oxygen,Ubuntu,Cantarell,'FiraSans','DroidSans','HelveticaNeue',sans-serif" font-size="11.00">nlohmann/json.hpp</text>
</a>
</g>
</g>
<!-- Node1&#45;&gt;Node11 -->
<g id="edge14" class="edge">
<title>Node1&#45;&gt;Node11</title>
<path fill="none" stroke="midnightblue" d="M359,-171.42C359,-163.38 359,-153.39 359,-144.78"/>
<polygon fill="midnightblue" stroke="midnightblue" points="362.5,-144.55 359,-134.55 355.5,-144.55 362.5,-144.55"/>
</g>
<!-- Node12 -->
<g id="node10" class="node">
<title>Node12</title>
<g id="a_node10"><a xlink:title=" ">
<polygon fill="none" stroke="#bfbfbf" points="438,-114.5 438,-134.5 600,-134.5 600,-114.5 438,-114.5"/>
<text text-anchor="middle" x="519" y="-121.7" font-family="-apple-system,BlinkMacSystemFont,'SegoeUI',Roboto,Oxygen,Ubuntu,Cantarell,'FiraSans','DroidSans','HelveticaNeue',sans-serif" font-size="11.00">libmirai/Utils/Common.hpp</text>
</a>
</g>
</g>
<!-- Node1&#45;&gt;Node12 -->
<g id="edge15" class="edge">
<title>Node1&#45;&gt;Node12</title>
<path fill="none" stroke="midnightblue" d="M398.55,-171.42C425.35,-161.21 460.36,-147.86 485.72,-138.19"/>
<polygon fill="midnightblue" stroke="midnightblue" points="487.18,-141.38 495.27,-134.55 484.68,-134.84 487.18,-141.38"/>
</g>
<!-- Node3 -->
<g id="node3" class="node">
<title>Node3</title>
<g id="a_node3"><a xlink:title=" ">
<polygon fill="none" stroke="#bfbfbf" points="0,-0.5 0,-20.5 54,-20.5 54,-0.5 0,-0.5"/>
<text text-anchor="middle" x="27" y="-7.7" font-family="-apple-system,BlinkMacSystemFont,'SegoeUI',Roboto,Oxygen,Ubuntu,Cantarell,'FiraSans','DroidSans','HelveticaNeue',sans-serif" font-size="11.00">chrono</text>
</a>
</g>
</g>
<!-- Node2&#45;&gt;Node3 -->
<g id="edge2" class="edge">
<title>Node2&#45;&gt;Node3</title>
<path fill="none" stroke="midnightblue" d="M161.5,-120.23C126.49,-115.42 83.45,-104.12 54,-78 40.33,-65.88 33.46,-45.83 30.09,-30.91"/>
<polygon fill="midnightblue" stroke="midnightblue" points="33.46,-29.87 28.14,-20.71 26.58,-31.19 33.46,-29.87"/>
</g>
<!-- Node4 -->
<g id="node4" class="node">
<title>Node4</title>
<g id="a_node4"><a xlink:title=" ">
<polygon fill="none" stroke="#bfbfbf" points="116.5,-0.5 116.5,-20.5 163.5,-20.5 163.5,-0.5 116.5,-0.5"/>
<text text-anchor="middle" x="140" y="-7.7" font-family="-apple-system,BlinkMacSystemFont,'SegoeUI',Roboto,Oxygen,Ubuntu,Cantarell,'FiraSans','DroidSans','HelveticaNeue',sans-serif" font-size="11.00">ctime</text>
</a>
</g>
</g>
<!-- Node2&#45;&gt;Node4 -->
<g id="edge3" class="edge">
<title>Node2&#45;&gt;Node4</title>
<path fill="none" stroke="midnightblue" d="M163.48,-114.47C123.2,-106.84 74.45,-94.51 62,-78 45.06,-55.53 78.81,-35.45 107.09,-23.38"/>
<polygon fill="midnightblue" stroke="midnightblue" points="108.44,-26.6 116.39,-19.6 105.8,-20.12 108.44,-26.6"/>
</g>
<!-- Node5 -->
<g id="node5" class="node">
<title>Node5</title>
<g id="a_node5"><a xlink:title=" ">
<polygon fill="none" stroke="#bfbfbf" points="238,-0.5 238,-20.5 286,-20.5 286,-0.5 238,-0.5"/>
<text text-anchor="middle" x="262" y="-7.7" font-family="-apple-system,BlinkMacSystemFont,'SegoeUI',Roboto,Oxygen,Ubuntu,Cantarell,'FiraSans','DroidSans','HelveticaNeue',sans-serif" font-size="11.00">string</text>
</a>
</g>
</g>
<!-- Node2&#45;&gt;Node5 -->
<g id="edge4" class="edge">
<title>Node2&#45;&gt;Node5</title>
<path fill="none" stroke="midnightblue" d="M232.59,-114.46C242.22,-106.16 255.25,-92.92 261,-78 266.78,-63.02 266.57,-44.69 265.18,-31.07"/>
<polygon fill="midnightblue" stroke="midnightblue" points="268.62,-30.37 263.84,-20.92 261.68,-31.29 268.62,-30.37"/>
</g>
<!-- Node6 -->
<g id="node6" class="node">
<title>Node6</title>
<g id="a_node6"><a xlink:title=" ">
<polygon fill="none" stroke="#bfbfbf" points="304,-0.5 304,-20.5 450,-20.5 450,-0.5 304,-0.5"/>
<text text-anchor="middle" x="377" y="-7.7" font-family="-apple-system,BlinkMacSystemFont,'SegoeUI',Roboto,Oxygen,Ubuntu,Cantarell,'FiraSans','DroidSans','HelveticaNeue',sans-serif" font-size="11.00">nlohmann/json_fwd.hpp</text>
</a>
</g>
</g>
<!-- Node2&#45;&gt;Node6 -->
<g id="edge5" class="edge">
<title>Node2&#45;&gt;Node6</title>
<path fill="none" stroke="midnightblue" d="M275.57,-114.46C330.71,-104.77 409.04,-89.26 418,-78 430.94,-61.73 413.69,-41.1 397.76,-27.17"/>
<polygon fill="midnightblue" stroke="midnightblue" points="399.66,-24.2 389.71,-20.55 395.21,-29.61 399.66,-24.2"/>
</g>
<!-- Node7 -->
<g id="node7" class="node">
<title>Node7</title>
<g id="a_node7"><a xlink:href="BasicTypes_8hpp.html" target="_top" xlink:title=" ">
<polygon fill="none" stroke="red" points="71.5,-57.5 71.5,-77.5 252.5,-77.5 252.5,-57.5 71.5,-57.5"/>
<text text-anchor="middle" x="162" y="-64.7" font-family="-apple-system,BlinkMacSystemFont,'SegoeUI',Roboto,Oxygen,Ubuntu,Cantarell,'FiraSans','DroidSans','HelveticaNeue',sans-serif" font-size="11.00">libmirai/Types/BasicTypes.hpp</text>
</a>
</g>
</g>
<!-- Node2&#45;&gt;Node7 -->
<g id="edge6" class="edge">
<title>Node2&#45;&gt;Node7</title>
<path fill="none" stroke="midnightblue" d="M211.26,-114.42C202.6,-106.35 189.74,-94.36 179.33,-84.65"/>
<polygon fill="midnightblue" stroke="midnightblue" points="181.66,-82.04 171.95,-77.78 176.88,-87.16 181.66,-82.04"/>
</g>
<!-- Node9 -->
<g id="node8" class="node">
<title>Node9</title>
<g id="a_node8"><a xlink:href="EventBase_8hpp.html" target="_top" xlink:title=" ">
<polygon fill="none" stroke="red" points="309.5,-57.5 309.5,-77.5 408.5,-77.5 408.5,-57.5 309.5,-57.5"/>
<text text-anchor="middle" x="359" y="-64.7" font-family="-apple-system,BlinkMacSystemFont,'SegoeUI',Roboto,Oxygen,Ubuntu,Cantarell,'FiraSans','DroidSans','HelveticaNeue',sans-serif" font-size="11.00">EventBase.hpp</text>
</a>
</g>
</g>
<!-- Node2&#45;&gt;Node9 -->
<g id="edge11" class="edge">
<title>Node2&#45;&gt;Node9</title>
<path fill="none" stroke="midnightblue" d="M243.79,-114.42C266.36,-105.42 301.15,-91.56 326.59,-81.42"/>
<polygon fill="midnightblue" stroke="midnightblue" points="328.18,-84.55 336.18,-77.6 325.59,-78.05 328.18,-84.55"/>
</g>
<!-- Node7&#45;&gt;Node3 -->
<g id="edge7" class="edge">
<title>Node7&#45;&gt;Node3</title>
<path fill="none" stroke="midnightblue" d="M139.71,-57.42C117.63,-48.42 83.6,-34.56 58.71,-24.42"/>
<polygon fill="midnightblue" stroke="midnightblue" points="59.91,-21.13 49.33,-20.6 57.27,-27.61 59.91,-21.13"/>
</g>
<!-- Node7&#45;&gt;Node4 -->
<g id="edge8" class="edge">
<title>Node7&#45;&gt;Node4</title>
<path fill="none" stroke="midnightblue" d="M158.37,-57.42C155.42,-50.06 151.18,-39.44 147.51,-30.27"/>
<polygon fill="midnightblue" stroke="midnightblue" points="150.68,-28.76 143.71,-20.78 144.18,-31.36 150.68,-28.76"/>
</g>
<!-- Node7&#45;&gt;Node5 -->
<g id="edge9" class="edge">
<title>Node7&#45;&gt;Node5</title>
<path fill="none" stroke="midnightblue" d="M178.51,-57.42C194.29,-48.74 218.3,-35.53 236.53,-25.51"/>
<polygon fill="midnightblue" stroke="midnightblue" points="238.39,-28.48 245.46,-20.6 235.01,-22.35 238.39,-28.48"/>
</g>
<!-- Node7&#45;&gt;Node6 -->
<g id="edge10" class="edge">
<title>Node7&#45;&gt;Node6</title>
<path fill="none" stroke="midnightblue" d="M197.5,-57.42C234.34,-48 292.04,-33.23 332.04,-23"/>
<polygon fill="midnightblue" stroke="midnightblue" points="332.98,-26.37 341.8,-20.5 331.25,-19.59 332.98,-26.37"/>
</g>
<!-- Node9&#45;&gt;Node5 -->
<g id="edge12" class="edge">
<title>Node9&#45;&gt;Node5</title>
<path fill="none" stroke="midnightblue" d="M342.98,-57.42C327.82,-48.82 304.81,-35.78 287.19,-25.78"/>
<polygon fill="midnightblue" stroke="midnightblue" points="288.47,-22.48 278.04,-20.6 285.01,-28.57 288.47,-22.48"/>
</g>
<!-- Node9&#45;&gt;Node6 -->
<g id="edge13" class="edge">
<title>Node9&#45;&gt;Node6</title>
<path fill="none" stroke="midnightblue" d="M361.97,-57.42C364.36,-50.14 367.78,-39.67 370.76,-30.57"/>
<polygon fill="midnightblue" stroke="midnightblue" points="374.18,-31.37 373.96,-20.78 367.53,-29.19 374.18,-31.37"/>
</g>
</g>
</svg>
