<?xml version="1.0" encoding="UTF-8" standalone="no"?>
<!DOCTYPE svg PUBLIC "-//W3C//DTD SVG 1.1//EN"
 "http://www.w3.org/Graphics/SVG/1.1/DTD/svg11.dtd">
<!-- Generated by graphviz version 2.43.0 (0)
 -->
<!-- Title: libmirai/public/libmirai/Events/BotMuteEvent.hpp Pages: 1 -->
<svg width="590pt" height="212pt"
 viewBox="0.00 0.00 590.00 212.00" xmlns="http://www.w3.org/2000/svg" xmlns:xlink="http://www.w3.org/1999/xlink">
<g id="graph0" class="graph" transform="scale(1 1) rotate(0) translate(4 208)">
<title>libmirai/public/libmirai/Events/BotMuteEvent.hpp</title>
<!-- Node1 -->
<g id="node1" class="node">
<title>Node1</title>
<g id="a_node1"><a xlink:title=" ">
<polygon fill="#bfbfbf" stroke="black" points="265,-171.5 265,-203.5 429,-203.5 429,-171.5 265,-171.5"/>
<text text-anchor="start" x="273" y="-190.7" font-family="-apple-system,BlinkMacSystemFont,'SegoeUI',Roboto,Oxygen,Ubuntu,Cantarell,'FiraSans','DroidSans','HelveticaNeue',sans-serif" font-size="11.00">libmirai/public/libmirai</text>
<text text-anchor="middle" x="347" y="-178.7" font-family="-apple-system,BlinkMacSystemFont,'SegoeUI',Roboto,Oxygen,Ubuntu,Cantarell,'FiraSans','DroidSans','HelveticaNeue',sans-serif" font-size="11.00">/Events/BotMuteEvent.hpp</text>
</a>
</g>
</g>
<!-- Node2 -->
<g id="node2" class="node">
<title>Node2</title>
<g id="a_node2"><a xlink:title=" ">
<polygon fill="none" stroke="#bfbfbf" points="0,-57.5 0,-77.5 54,-77.5 54,-57.5 0,-57.5"/>
<text text-anchor="middle" x="27" y="-64.7" font-family="-apple-system,BlinkMacSystemFont,'SegoeUI',Roboto,Oxygen,Ubuntu,Cantarell,'FiraSans','DroidSans','HelveticaNeue',sans-serif" font-size="11.00">chrono</text>
</a>
</g>
</g>
<!-- Node1&#45;&gt;Node2 -->
<g id="edge1" class="edge">
<title>Node1&#45;&gt;Node2</title>
<path fill="none" stroke="midnightblue" d="M264.85,-174.46C222.52,-166.49 170.74,-153.93 127,-135 96.47,-121.79 65.15,-99.21 45.88,-84.08"/>
<polygon fill="midnightblue" stroke="midnightblue" points="47.92,-81.22 37.93,-77.71 43.55,-86.69 47.92,-81.22"/>
</g>
<!-- Node3 -->
<g id="node3" class="node">
<title>Node3</title>
<g id="a_node3"><a xlink:title=" ">
<polygon fill="none" stroke="#bfbfbf" points="72.5,-57.5 72.5,-77.5 119.5,-77.5 119.5,-57.5 72.5,-57.5"/>
<text text-anchor="middle" x="96" y="-64.7" font-family="-apple-system,BlinkMacSystemFont,'SegoeUI',Roboto,Oxygen,Ubuntu,Cantarell,'FiraSans','DroidSans','HelveticaNeue',sans-serif" font-size="11.00">ctime</text>
</a>
</g>
</g>
<!-- Node1&#45;&gt;Node3 -->
<g id="edge2" class="edge">
<title>Node1&#45;&gt;Node3</title>
<path fill="none" stroke="midnightblue" d="M264.75,-175.64C228.76,-168.18 187.26,-155.72 154,-135 134.19,-122.66 117.41,-101.45 107.08,-86.3"/>
<polygon fill="midnightblue" stroke="midnightblue" points="109.91,-84.24 101.51,-77.78 104.05,-88.07 109.91,-84.24"/>
</g>
<!-- Node4 -->
<g id="node4" class="node">
<title>Node4</title>
<g id="a_node4"><a xlink:title=" ">
<polygon fill="none" stroke="#bfbfbf" points="378,-57.5 378,-77.5 426,-77.5 426,-57.5 378,-57.5"/>
<text text-anchor="middle" x="402" y="-64.7" font-family="-apple-system,BlinkMacSystemFont,'SegoeUI',Roboto,Oxygen,Ubuntu,Cantarell,'FiraSans','DroidSans','HelveticaNeue',sans-serif" font-size="11.00">string</text>
</a>
</g>
</g>
<!-- Node1&#45;&gt;Node4 -->
<g id="edge3" class="edge">
<title>Node1&#45;&gt;Node4</title>
<path fill="none" stroke="midnightblue" d="M354.19,-171.07C364.29,-149.42 382.63,-110.06 393.42,-86.9"/>
<polygon fill="midnightblue" stroke="midnightblue" points="396.62,-88.34 397.67,-77.79 390.27,-85.38 396.62,-88.34"/>
</g>
<!-- Node5 -->
<g id="node5" class="node">
<title>Node5</title>
<g id="a_node5"><a xlink:title=" ">
<polygon fill="none" stroke="#bfbfbf" points="288,-0.5 288,-20.5 434,-20.5 434,-0.5 288,-0.5"/>
<text text-anchor="middle" x="361" y="-7.7" font-family="-apple-system,BlinkMacSystemFont,'SegoeUI',Roboto,Oxygen,Ubuntu,Cantarell,'FiraSans','DroidSans','HelveticaNeue',sans-serif" font-size="11.00">nlohmann/json_fwd.hpp</text>
</a>
</g>
</g>
<!-- Node1&#45;&gt;Node5 -->
<g id="edge4" class="edge">
<title>Node1&#45;&gt;Node5</title>
<path fill="none" stroke="midnightblue" d="M365.54,-171.18C387.11,-152.02 421.48,-116.95 435,-78 438.06,-69.18 439.55,-65.15 435,-57 426.91,-42.53 412.12,-32.1 397.88,-24.9"/>
<polygon fill="midnightblue" stroke="midnightblue" points="399.23,-21.67 388.68,-20.63 396.28,-28.02 399.23,-21.67"/>
</g>
<!-- Node6 -->
<g id="node6" class="node">
<title>Node6</title>
<g id="a_node6"><a xlink:href="BasicTypes_8hpp.html" target="_top" xlink:title=" ">
<polygon fill="none" stroke="black" points="163.5,-114.5 163.5,-134.5 344.5,-134.5 344.5,-114.5 163.5,-114.5"/>
<text text-anchor="middle" x="254" y="-121.7" font-family="-apple-system,BlinkMacSystemFont,'SegoeUI',Roboto,Oxygen,Ubuntu,Cantarell,'FiraSans','DroidSans','HelveticaNeue',sans-serif" font-size="11.00">libmirai/Types/BasicTypes.hpp</text>
</a>
</g>
</g>
<!-- Node1&#45;&gt;Node6 -->
<g id="edge5" class="edge">
<title>Node1&#45;&gt;Node6</title>
<path fill="none" stroke="midnightblue" d="M324.01,-171.42C309.54,-161.93 290.94,-149.73 276.55,-140.29"/>
<polygon fill="midnightblue" stroke="midnightblue" points="278.07,-137.1 267.79,-134.55 274.23,-142.96 278.07,-137.1"/>
</g>
<!-- Node8 -->
<g id="node8" class="node">
<title>Node8</title>
<g id="a_node8"><a xlink:href="EventBase_8hpp.html" target="_top" xlink:title=" ">
<polygon fill="none" stroke="black" points="482.5,-114.5 482.5,-134.5 581.5,-134.5 581.5,-114.5 482.5,-114.5"/>
<text text-anchor="middle" x="532" y="-121.7" font-family="-apple-system,BlinkMacSystemFont,'SegoeUI',Roboto,Oxygen,Ubuntu,Cantarell,'FiraSans','DroidSans','HelveticaNeue',sans-serif" font-size="11.00">EventBase.hpp</text>
</a>
</g>
</g>
<!-- Node1&#45;&gt;Node8 -->
<g id="edge12" class="edge">
<title>Node1&#45;&gt;Node8</title>
<path fill="none" stroke="midnightblue" d="M392.73,-171.42C424.12,-161.07 465.27,-147.5 494.69,-137.8"/>
<polygon fill="midnightblue" stroke="midnightblue" points="496.16,-141 504.57,-134.55 493.97,-134.35 496.16,-141"/>
</g>
<!-- Node6&#45;&gt;Node2 -->
<g id="edge6" class="edge">
<title>Node6&#45;&gt;Node2</title>
<path fill="none" stroke="midnightblue" d="M214.79,-114.45C178.25,-105.95 121.98,-92.7 64.16,-78.25"/>
<polygon fill="midnightblue" stroke="midnightblue" points="64.66,-74.77 54.11,-75.73 62.96,-81.56 64.66,-74.77"/>
</g>
<!-- Node6&#45;&gt;Node3 -->
<g id="edge7" class="edge">
<title>Node6&#45;&gt;Node3</title>
<path fill="none" stroke="midnightblue" d="M227.91,-114.42C200.94,-105.03 158.74,-90.34 129.36,-80.11"/>
<polygon fill="midnightblue" stroke="midnightblue" points="130.14,-76.68 119.55,-76.7 127.84,-83.29 130.14,-76.68"/>
</g>
<!-- Node6&#45;&gt;Node4 -->
<g id="edge8" class="edge">
<title>Node6&#45;&gt;Node4</title>
<path fill="none" stroke="midnightblue" d="M278.44,-114.42C302.86,-105.34 340.61,-91.31 367.96,-81.15"/>
<polygon fill="midnightblue" stroke="midnightblue" points="369.37,-84.36 377.52,-77.6 366.93,-77.8 369.37,-84.36"/>
</g>
<!-- Node6&#45;&gt;Node5 -->
<g id="edge9" class="edge">
<title>Node6&#45;&gt;Node5</title>
<path fill="none" stroke="midnightblue" d="M223.77,-114.4C191.35,-103.1 147.04,-82.18 167,-57 181.11,-39.19 231.82,-27.68 277.86,-20.69"/>
<polygon fill="midnightblue" stroke="midnightblue" points="278.51,-24.13 287.9,-19.22 277.5,-17.21 278.51,-24.13"/>
</g>
<!-- Node7 -->
<g id="node7" class="node">
<title>Node7</title>
<g id="a_node7"><a xlink:href="Serializable_8hpp.html" target="_top" xlink:title=" ">
<polygon fill="none" stroke="black" points="176.5,-57.5 176.5,-77.5 359.5,-77.5 359.5,-57.5 176.5,-57.5"/>
<text text-anchor="middle" x="268" y="-64.7" font-family="-apple-system,BlinkMacSystemFont,'SegoeUI',Roboto,Oxygen,Ubuntu,Cantarell,'FiraSans','DroidSans','HelveticaNeue',sans-serif" font-size="11.00">libmirai/Types/Serializable.hpp</text>
</a>
</g>
</g>
<!-- Node6&#45;&gt;Node7 -->
<g id="edge10" class="edge">
<title>Node6&#45;&gt;Node7</title>
<path fill="none" stroke="midnightblue" d="M256.31,-114.42C258.17,-107.14 260.83,-96.67 263.15,-87.57"/>
<polygon fill="midnightblue" stroke="midnightblue" points="266.56,-88.33 265.64,-77.78 259.78,-86.61 266.56,-88.33"/>
</g>
<!-- Node7&#45;&gt;Node5 -->
<g id="edge11" class="edge">
<title>Node7&#45;&gt;Node5</title>
<path fill="none" stroke="midnightblue" d="M283.36,-57.42C297.9,-48.82 319.95,-35.78 336.85,-25.78"/>
<polygon fill="midnightblue" stroke="midnightblue" points="338.79,-28.7 345.62,-20.6 335.23,-22.67 338.79,-28.7"/>
</g>
<!-- Node8&#45;&gt;Node4 -->
<g id="edge14" class="edge">
<title>Node8&#45;&gt;Node4</title>
<path fill="none" stroke="midnightblue" d="M510.53,-114.42C489.36,-105.46 456.79,-91.68 432.85,-81.55"/>
<polygon fill="midnightblue" stroke="midnightblue" points="434.07,-78.27 423.5,-77.6 431.34,-84.72 434.07,-78.27"/>
</g>
<!-- Node8&#45;&gt;Node5 -->
<g id="edge15" class="edge">
<title>Node8&#45;&gt;Node5</title>
<path fill="none" stroke="midnightblue" d="M525.07,-114.19C514.23,-100.18 492.01,-73.55 468,-57 447.34,-42.76 421.51,-31.62 400.41,-23.93"/>
<polygon fill="midnightblue" stroke="midnightblue" points="401.37,-20.56 390.78,-20.54 399.04,-27.16 401.37,-20.56"/>
</g>
<!-- Node9 -->
<g id="node9" class="node">
<title>Node9</title>
<g id="a_node9"><a xlink:title=" ">
<polygon fill="none" stroke="#bfbfbf" points="520,-57.5 520,-77.5 582,-77.5 582,-57.5 520,-57.5"/>
<text text-anchor="middle" x="551" y="-64.7" font-family="-apple-system,BlinkMacSystemFont,'SegoeUI',Roboto,Oxygen,Ubuntu,Cantarell,'FiraSans','DroidSans','HelveticaNeue',sans-serif" font-size="11.00">memory</text>
</a>
</g>
</g>
<!-- Node8&#45;&gt;Node9 -->
<g id="edge13" class="edge">
<title>Node8&#45;&gt;Node9</title>
<path fill="none" stroke="midnightblue" d="M535.14,-114.42C537.68,-107.06 541.35,-96.44 544.52,-87.27"/>
<polygon fill="midnightblue" stroke="midnightblue" points="547.84,-88.37 547.79,-77.78 541.22,-86.09 547.84,-88.37"/>
</g>
</g>
</svg>
