<?xml version="1.0" encoding="UTF-8" standalone="no"?>
<!DOCTYPE svg PUBLIC "-//W3C//DTD SVG 1.1//EN"
 "http://www.w3.org/Graphics/SVG/1.1/DTD/svg11.dtd">
<!-- Generated by graphviz version 3.0.0 (20220413.0242)
 -->
<!-- Title: libmirai/public/libmirai/Events/BotOfflineEventActive.hpp Pages: 1 -->
<svg width="392pt" height="212pt"
 viewBox="0.00 0.00 392.43 212.00" xmlns="http://www.w3.org/2000/svg" xmlns:xlink="http://www.w3.org/1999/xlink">
<g id="graph0" class="graph" transform="scale(1 1) rotate(0) translate(4 208)">
<title>libmirai/public/libmirai/Events/BotOfflineEventActive.hpp</title>
<!-- Node1 -->
<g id="node1" class="node">
<title>Node1</title>
<g id="a_node1"><a xlink:title=" ">
<polygon fill="#bfbfbf" stroke="black" points="0,-171.5 0,-203.5 178,-203.5 178,-171.5 0,-171.5"/>
<text text-anchor="start" x="8" y="-190.7" font-family="-apple-system, BlinkMacSystemFont, 'Segoe UI', Roboto, Oxygen, Ubuntu, Cantarell, 'Fira Sans', 'Droid Sans', 'Helvetica Neue', sans-serif" font-size="11.00">libmirai/public/libmirai</text>
<text text-anchor="middle" x="89" y="-178.7" font-family="-apple-system, BlinkMacSystemFont, 'Segoe UI', Roboto, Oxygen, Ubuntu, Cantarell, 'Fira Sans', 'Droid Sans', 'Helvetica Neue', sans-serif" font-size="11.00">/Events/BotOfflineEventActive.hpp</text>
</a>
</g>
</g>
<!-- Node2 -->
<g id="node2" class="node">
<title>Node2</title>
<g id="a_node2"><a xlink:title=" ">
<polygon fill="none" stroke="#bfbfbf" points="87.5,-0.5 87.5,-20.5 130.5,-20.5 130.5,-0.5 87.5,-0.5"/>
<text text-anchor="middle" x="109" y="-7.7" font-family="-apple-system, BlinkMacSystemFont, 'Segoe UI', Roboto, Oxygen, Ubuntu, Cantarell, 'Fira Sans', 'Droid Sans', 'Helvetica Neue', sans-serif" font-size="11.00">string</text>
</a>
</g>
</g>
<!-- Node1&#45;&gt;Node2 -->
<g id="edge1" class="edge">
<title>Node1&#45;&gt;Node2</title>
<path fill="none" stroke="midnightblue" d="M85.67,-171.45C80.87,-146.99 73.65,-97.32 84,-57 86.51,-47.21 91.62,-37.27 96.57,-29.19"/>
<polygon fill="midnightblue" stroke="midnightblue" points="99.59,-30.95 102.14,-20.67 93.73,-27.12 99.59,-30.95"/>
</g>
<!-- Node3 -->
<g id="node3" class="node">
<title>Node3</title>
<g id="a_node3"><a xlink:href="BotEvent_8hpp.html" target="_top" xlink:title=" ">
<polygon fill="none" stroke="black" points="104.5,-114.5 104.5,-134.5 185.5,-134.5 185.5,-114.5 104.5,-114.5"/>
<text text-anchor="middle" x="145" y="-121.7" font-family="-apple-system, BlinkMacSystemFont, 'Segoe UI', Roboto, Oxygen, Ubuntu, Cantarell, 'Fira Sans', 'Droid Sans', 'Helvetica Neue', sans-serif" font-size="11.00">BotEvent.hpp</text>
</a>
</g>
</g>
<!-- Node1&#45;&gt;Node3 -->
<g id="edge2" class="edge">
<title>Node1&#45;&gt;Node3</title>
<path fill="none" stroke="midnightblue" d="M102.84,-171.42C111.06,-162.47 121.48,-151.12 129.91,-141.94"/>
<polygon fill="midnightblue" stroke="midnightblue" points="132.51,-144.28 136.7,-134.55 127.35,-139.55 132.51,-144.28"/>
</g>
<!-- Node3&#45;&gt;Node2 -->
<g id="edge3" class="edge">
<title>Node3&#45;&gt;Node2</title>
<path fill="none" stroke="midnightblue" d="M128.15,-114.43C115.59,-106.63 99.39,-94.09 92,-78 84.87,-62.49 91.04,-43.52 97.86,-29.81"/>
<polygon fill="midnightblue" stroke="midnightblue" points="101.02,-31.34 102.76,-20.89 94.88,-27.97 101.02,-31.34"/>
</g>
<!-- Node4 -->
<g id="node4" class="node">
<title>Node4</title>
<g id="a_node4"><a xlink:title=" ">
<polygon fill="none" stroke="#bfbfbf" points="223.5,-0.5 223.5,-20.5 354.5,-20.5 354.5,-0.5 223.5,-0.5"/>
<text text-anchor="middle" x="289" y="-7.7" font-family="-apple-system, BlinkMacSystemFont, 'Segoe UI', Roboto, Oxygen, Ubuntu, Cantarell, 'Fira Sans', 'Droid Sans', 'Helvetica Neue', sans-serif" font-size="11.00">nlohmann/json_fwd.hpp</text>
</a>
</g>
</g>
<!-- Node3&#45;&gt;Node4 -->
<g id="edge4" class="edge">
<title>Node3&#45;&gt;Node4</title>
<path fill="none" stroke="midnightblue" d="M185.85,-121.61C246.29,-117.86 354.98,-107.14 379,-78 397.93,-55.04 361.99,-35.75 330.07,-23.96"/>
<polygon fill="midnightblue" stroke="midnightblue" points="330.95,-20.56 320.35,-20.54 328.63,-27.16 330.95,-20.56"/>
</g>
<!-- Node5 -->
<g id="node5" class="node">
<title>Node5</title>
<g id="a_node5"><a xlink:href="BasicTypes_8hpp.html" target="_top" xlink:title=" ">
<polygon fill="none" stroke="red" points="208,-57.5 208,-77.5 370,-77.5 370,-57.5 208,-57.5"/>
<text text-anchor="middle" x="289" y="-64.7" font-family="-apple-system, BlinkMacSystemFont, 'Segoe UI', Roboto, Oxygen, Ubuntu, Cantarell, 'Fira Sans', 'Droid Sans', 'Helvetica Neue', sans-serif" font-size="11.00">libmirai/Types/BasicTypes.hpp</text>
</a>
</g>
</g>
<!-- Node3&#45;&gt;Node5 -->
<g id="edge5" class="edge">
<title>Node3&#45;&gt;Node5</title>
<path fill="none" stroke="midnightblue" d="M168.78,-114.42C192.44,-105.38 228.95,-91.44 255.53,-81.28"/>
<polygon fill="midnightblue" stroke="midnightblue" points="257.09,-84.43 265.19,-77.6 254.6,-77.89 257.09,-84.43"/>
</g>
<!-- Node9 -->
<g id="node6" class="node">
<title>Node9</title>
<g id="a_node6"><a xlink:href="EventBase_8hpp.html" target="_top" xlink:title=" ">
<polygon fill="none" stroke="red" points="100.5,-57.5 100.5,-77.5 189.5,-77.5 189.5,-57.5 100.5,-57.5"/>
<text text-anchor="middle" x="145" y="-64.7" font-family="-apple-system, BlinkMacSystemFont, 'Segoe UI', Roboto, Oxygen, Ubuntu, Cantarell, 'Fira Sans', 'Droid Sans', 'Helvetica Neue', sans-serif" font-size="11.00">EventBase.hpp</text>
</a>
</g>
</g>
<!-- Node3&#45;&gt;Node9 -->
<g id="edge8" class="edge">
<title>Node3&#45;&gt;Node9</title>
<path fill="none" stroke="midnightblue" d="M145,-114.42C145,-107.22 145,-96.9 145,-87.86"/>
<polygon fill="midnightblue" stroke="midnightblue" points="148.5,-87.78 145,-77.78 141.5,-87.78 148.5,-87.78"/>
</g>
<!-- Node5&#45;&gt;Node2 -->
<g id="edge6" class="edge">
<title>Node5&#45;&gt;Node2</title>
<path fill="none" stroke="midnightblue" d="M259.28,-57.42C226.43,-47.38 173.75,-31.29 140.29,-21.06"/>
<polygon fill="midnightblue" stroke="midnightblue" points="141.15,-17.66 130.56,-18.09 139.1,-24.36 141.15,-17.66"/>
</g>
<!-- Node5&#45;&gt;Node4 -->
<g id="edge7" class="edge">
<title>Node5&#45;&gt;Node4</title>
<path fill="none" stroke="midnightblue" d="M289,-57.42C289,-50.22 289,-39.9 289,-30.86"/>
<polygon fill="midnightblue" stroke="midnightblue" points="292.5,-30.78 289,-20.78 285.5,-30.78 292.5,-30.78"/>
</g>
<!-- Node9&#45;&gt;Node2 -->
<g id="edge9" class="edge">
<title>Node9&#45;&gt;Node2</title>
<path fill="none" stroke="midnightblue" d="M139.06,-57.42C134.08,-49.82 126.84,-38.75 120.71,-29.39"/>
<polygon fill="midnightblue" stroke="midnightblue" points="123.48,-27.23 115.07,-20.78 117.62,-31.06 123.48,-27.23"/>
</g>
<!-- Node9&#45;&gt;Node4 -->
<g id="edge10" class="edge">
<title>Node9&#45;&gt;Node4</title>
<path fill="none" stroke="midnightblue" d="M168.78,-57.42C192.44,-48.38 228.95,-34.44 255.53,-24.28"/>
<polygon fill="midnightblue" stroke="midnightblue" points="257.09,-27.43 265.19,-20.6 254.6,-20.89 257.09,-27.43"/>
</g>
</g>
</svg>
