<?xml version="1.0" encoding="UTF-8" standalone="no"?>
<!DOCTYPE svg PUBLIC "-//W3C//DTD SVG 1.1//EN"
 "http://www.w3.org/Graphics/SVG/1.1/DTD/svg11.dtd">
<!-- Generated by graphviz version 2.43.0 (0)
 -->
<!-- Title: libmirai/public/libmirai/Events/BotOfflineEventForce.hpp Pages: 1 -->
<svg width="431pt" height="212pt"
 viewBox="0.00 0.00 430.80 212.00" xmlns="http://www.w3.org/2000/svg" xmlns:xlink="http://www.w3.org/1999/xlink">
<g id="graph0" class="graph" transform="scale(1 1) rotate(0) translate(4 208)">
<title>libmirai/public/libmirai/Events/BotOfflineEventForce.hpp</title>
<!-- Node1 -->
<g id="node1" class="node">
<title>Node1</title>
<g id="a_node1"><a xlink:title=" ">
<polygon fill="#bfbfbf" stroke="black" points="0,-171.5 0,-203.5 202,-203.5 202,-171.5 0,-171.5"/>
<text text-anchor="start" x="8" y="-190.7" font-family="-apple-system,BlinkMacSystemFont,'SegoeUI',Roboto,Oxygen,Ubuntu,Cantarell,'FiraSans','DroidSans','HelveticaNeue',sans-serif" font-size="11.00">libmirai/public/libmirai</text>
<text text-anchor="middle" x="101" y="-178.7" font-family="-apple-system,BlinkMacSystemFont,'SegoeUI',Roboto,Oxygen,Ubuntu,Cantarell,'FiraSans','DroidSans','HelveticaNeue',sans-serif" font-size="11.00">/Events/BotOfflineEventForce.hpp</text>
</a>
</g>
</g>
<!-- Node2 -->
<g id="node2" class="node">
<title>Node2</title>
<g id="a_node2"><a xlink:title=" ">
<polygon fill="none" stroke="#bfbfbf" points="96,-0.5 96,-20.5 144,-20.5 144,-0.5 96,-0.5"/>
<text text-anchor="middle" x="120" y="-7.7" font-family="-apple-system,BlinkMacSystemFont,'SegoeUI',Roboto,Oxygen,Ubuntu,Cantarell,'FiraSans','DroidSans','HelveticaNeue',sans-serif" font-size="11.00">string</text>
</a>
</g>
</g>
<!-- Node1&#45;&gt;Node2 -->
<g id="edge1" class="edge">
<title>Node1&#45;&gt;Node2</title>
<path fill="none" stroke="midnightblue" d="M96.95,-171.42C91.06,-146.92 81.97,-97.19 93,-57 95.75,-46.96 101.36,-36.89 106.76,-28.79"/>
<polygon fill="midnightblue" stroke="midnightblue" points="109.65,-30.76 112.59,-20.58 103.95,-26.7 109.65,-30.76"/>
</g>
<!-- Node3 -->
<g id="node3" class="node">
<title>Node3</title>
<g id="a_node3"><a xlink:href="BotEvent_8hpp.html" target="_top" xlink:title=" ">
<polygon fill="none" stroke="black" points="113.5,-114.5 113.5,-134.5 204.5,-134.5 204.5,-114.5 113.5,-114.5"/>
<text text-anchor="middle" x="159" y="-121.7" font-family="-apple-system,BlinkMacSystemFont,'SegoeUI',Roboto,Oxygen,Ubuntu,Cantarell,'FiraSans','DroidSans','HelveticaNeue',sans-serif" font-size="11.00">BotEvent.hpp</text>
</a>
</g>
</g>
<!-- Node1&#45;&gt;Node3 -->
<g id="edge2" class="edge">
<title>Node1&#45;&gt;Node3</title>
<path fill="none" stroke="midnightblue" d="M115.34,-171.42C123.85,-162.47 134.64,-151.12 143.37,-141.94"/>
<polygon fill="midnightblue" stroke="midnightblue" points="146.04,-144.2 150.4,-134.55 140.97,-139.38 146.04,-144.2"/>
</g>
<!-- Node3&#45;&gt;Node2 -->
<g id="edge3" class="edge">
<title>Node3&#45;&gt;Node2</title>
<path fill="none" stroke="midnightblue" d="M139.75,-114.35C126.17,-106.73 109.01,-94.46 101,-78 93.48,-62.53 100.32,-43.56 107.81,-29.84"/>
<polygon fill="midnightblue" stroke="midnightblue" points="111.03,-31.28 113.18,-20.91 105.03,-27.67 111.03,-31.28"/>
</g>
<!-- Node4 -->
<g id="node4" class="node">
<title>Node4</title>
<g id="a_node4"><a xlink:title=" ">
<polygon fill="none" stroke="#bfbfbf" points="244,-0.5 244,-20.5 390,-20.5 390,-0.5 244,-0.5"/>
<text text-anchor="middle" x="317" y="-7.7" font-family="-apple-system,BlinkMacSystemFont,'SegoeUI',Roboto,Oxygen,Ubuntu,Cantarell,'FiraSans','DroidSans','HelveticaNeue',sans-serif" font-size="11.00">nlohmann/json_fwd.hpp</text>
</a>
</g>
</g>
<!-- Node3&#45;&gt;Node4 -->
<g id="edge4" class="edge">
<title>Node3&#45;&gt;Node4</title>
<path fill="none" stroke="midnightblue" d="M204.54,-122.24C271.22,-119.33 390.4,-109.71 417,-78 437.33,-53.77 398.43,-34.9 363.37,-23.55"/>
<polygon fill="midnightblue" stroke="midnightblue" points="364.22,-20.15 353.64,-20.55 362.16,-26.84 364.22,-20.15"/>
</g>
<!-- Node5 -->
<g id="node5" class="node">
<title>Node5</title>
<g id="a_node5"><a xlink:href="BasicTypes_8hpp.html" target="_top" xlink:title=" ">
<polygon fill="none" stroke="red" points="226.5,-57.5 226.5,-77.5 407.5,-77.5 407.5,-57.5 226.5,-57.5"/>
<text text-anchor="middle" x="317" y="-64.7" font-family="-apple-system,BlinkMacSystemFont,'SegoeUI',Roboto,Oxygen,Ubuntu,Cantarell,'FiraSans','DroidSans','HelveticaNeue',sans-serif" font-size="11.00">libmirai/Types/BasicTypes.hpp</text>
</a>
</g>
</g>
<!-- Node3&#45;&gt;Node5 -->
<g id="edge5" class="edge">
<title>Node3&#45;&gt;Node5</title>
<path fill="none" stroke="midnightblue" d="M185.09,-114.42C211.36,-105.27 252.06,-91.1 281.31,-80.92"/>
<polygon fill="midnightblue" stroke="midnightblue" points="282.84,-84.1 291.13,-77.5 280.54,-77.49 282.84,-84.1"/>
</g>
<!-- Node9 -->
<g id="node6" class="node">
<title>Node9</title>
<g id="a_node6"><a xlink:href="EventBase_8hpp.html" target="_top" xlink:title=" ">
<polygon fill="none" stroke="red" points="109.5,-57.5 109.5,-77.5 208.5,-77.5 208.5,-57.5 109.5,-57.5"/>
<text text-anchor="middle" x="159" y="-64.7" font-family="-apple-system,BlinkMacSystemFont,'SegoeUI',Roboto,Oxygen,Ubuntu,Cantarell,'FiraSans','DroidSans','HelveticaNeue',sans-serif" font-size="11.00">EventBase.hpp</text>
</a>
</g>
</g>
<!-- Node3&#45;&gt;Node9 -->
<g id="edge8" class="edge">
<title>Node3&#45;&gt;Node9</title>
<path fill="none" stroke="midnightblue" d="M159,-114.42C159,-107.22 159,-96.9 159,-87.86"/>
<polygon fill="midnightblue" stroke="midnightblue" points="162.5,-87.78 159,-77.78 155.5,-87.78 162.5,-87.78"/>
</g>
<!-- Node5&#45;&gt;Node2 -->
<g id="edge6" class="edge">
<title>Node5&#45;&gt;Node2</title>
<path fill="none" stroke="midnightblue" d="M284.47,-57.42C248.41,-47.35 190.51,-31.19 153.91,-20.97"/>
<polygon fill="midnightblue" stroke="midnightblue" points="154.76,-17.57 144.18,-18.25 152.87,-24.31 154.76,-17.57"/>
</g>
<!-- Node5&#45;&gt;Node4 -->
<g id="edge7" class="edge">
<title>Node5&#45;&gt;Node4</title>
<path fill="none" stroke="midnightblue" d="M317,-57.42C317,-50.22 317,-39.9 317,-30.86"/>
<polygon fill="midnightblue" stroke="midnightblue" points="320.5,-30.78 317,-20.78 313.5,-30.78 320.5,-30.78"/>
</g>
<!-- Node9&#45;&gt;Node2 -->
<g id="edge9" class="edge">
<title>Node9&#45;&gt;Node2</title>
<path fill="none" stroke="midnightblue" d="M152.56,-57.42C147.12,-49.74 139.16,-38.52 132.48,-29.09"/>
<polygon fill="midnightblue" stroke="midnightblue" points="135.22,-26.91 126.58,-20.78 129.51,-30.96 135.22,-26.91"/>
</g>
<!-- Node9&#45;&gt;Node4 -->
<g id="edge10" class="edge">
<title>Node9&#45;&gt;Node4</title>
<path fill="none" stroke="midnightblue" d="M185.09,-57.42C211.36,-48.27 252.06,-34.1 281.31,-23.92"/>
<polygon fill="midnightblue" stroke="midnightblue" points="282.84,-27.1 291.13,-20.5 280.54,-20.49 282.84,-27.1"/>
</g>
</g>
</svg>
