<?xml version="1.0" encoding="UTF-8" standalone="no"?>
<!DOCTYPE svg PUBLIC "-//W3C//DTD SVG 1.1//EN"
 "http://www.w3.org/Graphics/SVG/1.1/DTD/svg11.dtd">
<!-- Generated by graphviz version 2.43.0 (0)
 -->
<!-- Title: libmirai/public/libmirai/Events/BotOnlineEvent.hpp Pages: 1 -->
<svg width="415pt" height="212pt"
 viewBox="0.00 0.00 415.30 212.00" xmlns="http://www.w3.org/2000/svg" xmlns:xlink="http://www.w3.org/1999/xlink">
<g id="graph0" class="graph" transform="scale(1 1) rotate(0) translate(4 208)">
<title>libmirai/public/libmirai/Events/BotOnlineEvent.hpp</title>
<!-- Node1 -->
<g id="node1" class="node">
<title>Node1</title>
<g id="a_node1"><a xlink:title=" ">
<polygon fill="#bfbfbf" stroke="black" points="0,-171.5 0,-203.5 171,-203.5 171,-171.5 0,-171.5"/>
<text text-anchor="start" x="8" y="-190.7" font-family="-apple-system,BlinkMacSystemFont,'SegoeUI',Roboto,Oxygen,Ubuntu,Cantarell,'FiraSans','DroidSans','HelveticaNeue',sans-serif" font-size="11.00">libmirai/public/libmirai</text>
<text text-anchor="middle" x="85.5" y="-178.7" font-family="-apple-system,BlinkMacSystemFont,'SegoeUI',Roboto,Oxygen,Ubuntu,Cantarell,'FiraSans','DroidSans','HelveticaNeue',sans-serif" font-size="11.00">/Events/BotOnlineEvent.hpp</text>
</a>
</g>
</g>
<!-- Node2 -->
<g id="node2" class="node">
<title>Node2</title>
<g id="a_node2"><a xlink:title=" ">
<polygon fill="none" stroke="#bfbfbf" points="80.5,-0.5 80.5,-20.5 128.5,-20.5 128.5,-0.5 80.5,-0.5"/>
<text text-anchor="middle" x="104.5" y="-7.7" font-family="-apple-system,BlinkMacSystemFont,'SegoeUI',Roboto,Oxygen,Ubuntu,Cantarell,'FiraSans','DroidSans','HelveticaNeue',sans-serif" font-size="11.00">string</text>
</a>
</g>
</g>
<!-- Node1&#45;&gt;Node2 -->
<g id="edge1" class="edge">
<title>Node1&#45;&gt;Node2</title>
<path fill="none" stroke="midnightblue" d="M81.45,-171.42C75.56,-146.92 66.47,-97.19 77.5,-57 80.25,-46.96 85.86,-36.89 91.26,-28.79"/>
<polygon fill="midnightblue" stroke="midnightblue" points="94.15,-30.76 97.09,-20.58 88.45,-26.7 94.15,-30.76"/>
</g>
<!-- Node3 -->
<g id="node3" class="node">
<title>Node3</title>
<g id="a_node3"><a xlink:href="BotEvent_8hpp.html" target="_top" xlink:title=" ">
<polygon fill="none" stroke="black" points="98,-114.5 98,-134.5 189,-134.5 189,-114.5 98,-114.5"/>
<text text-anchor="middle" x="143.5" y="-121.7" font-family="-apple-system,BlinkMacSystemFont,'SegoeUI',Roboto,Oxygen,Ubuntu,Cantarell,'FiraSans','DroidSans','HelveticaNeue',sans-serif" font-size="11.00">BotEvent.hpp</text>
</a>
</g>
</g>
<!-- Node1&#45;&gt;Node3 -->
<g id="edge2" class="edge">
<title>Node1&#45;&gt;Node3</title>
<path fill="none" stroke="midnightblue" d="M99.84,-171.42C108.35,-162.47 119.14,-151.12 127.87,-141.94"/>
<polygon fill="midnightblue" stroke="midnightblue" points="130.54,-144.2 134.9,-134.55 125.47,-139.38 130.54,-144.2"/>
</g>
<!-- Node3&#45;&gt;Node2 -->
<g id="edge3" class="edge">
<title>Node3&#45;&gt;Node2</title>
<path fill="none" stroke="midnightblue" d="M124.25,-114.35C110.67,-106.73 93.51,-94.46 85.5,-78 77.98,-62.53 84.82,-43.56 92.31,-29.84"/>
<polygon fill="midnightblue" stroke="midnightblue" points="95.53,-31.28 97.68,-20.91 89.53,-27.67 95.53,-31.28"/>
</g>
<!-- Node4 -->
<g id="node4" class="node">
<title>Node4</title>
<g id="a_node4"><a xlink:title=" ">
<polygon fill="none" stroke="#bfbfbf" points="228.5,-0.5 228.5,-20.5 374.5,-20.5 374.5,-0.5 228.5,-0.5"/>
<text text-anchor="middle" x="301.5" y="-7.7" font-family="-apple-system,BlinkMacSystemFont,'SegoeUI',Roboto,Oxygen,Ubuntu,Cantarell,'FiraSans','DroidSans','HelveticaNeue',sans-serif" font-size="11.00">nlohmann/json_fwd.hpp</text>
</a>
</g>
</g>
<!-- Node3&#45;&gt;Node4 -->
<g id="edge4" class="edge">
<title>Node3&#45;&gt;Node4</title>
<path fill="none" stroke="midnightblue" d="M189.04,-122.24C255.72,-119.33 374.9,-109.71 401.5,-78 421.83,-53.77 382.93,-34.9 347.87,-23.55"/>
<polygon fill="midnightblue" stroke="midnightblue" points="348.72,-20.15 338.14,-20.55 346.66,-26.84 348.72,-20.15"/>
</g>
<!-- Node5 -->
<g id="node5" class="node">
<title>Node5</title>
<g id="a_node5"><a xlink:href="BasicTypes_8hpp.html" target="_top" xlink:title=" ">
<polygon fill="none" stroke="red" points="211,-57.5 211,-77.5 392,-77.5 392,-57.5 211,-57.5"/>
<text text-anchor="middle" x="301.5" y="-64.7" font-family="-apple-system,BlinkMacSystemFont,'SegoeUI',Roboto,Oxygen,Ubuntu,Cantarell,'FiraSans','DroidSans','HelveticaNeue',sans-serif" font-size="11.00">libmirai/Types/BasicTypes.hpp</text>
</a>
</g>
</g>
<!-- Node3&#45;&gt;Node5 -->
<g id="edge5" class="edge">
<title>Node3&#45;&gt;Node5</title>
<path fill="none" stroke="midnightblue" d="M169.59,-114.42C195.86,-105.27 236.56,-91.1 265.81,-80.92"/>
<polygon fill="midnightblue" stroke="midnightblue" points="267.34,-84.1 275.63,-77.5 265.04,-77.49 267.34,-84.1"/>
</g>
<!-- Node9 -->
<g id="node6" class="node">
<title>Node9</title>
<g id="a_node6"><a xlink:href="EventBase_8hpp.html" target="_top" xlink:title=" ">
<polygon fill="none" stroke="red" points="94,-57.5 94,-77.5 193,-77.5 193,-57.5 94,-57.5"/>
<text text-anchor="middle" x="143.5" y="-64.7" font-family="-apple-system,BlinkMacSystemFont,'SegoeUI',Roboto,Oxygen,Ubuntu,Cantarell,'FiraSans','DroidSans','HelveticaNeue',sans-serif" font-size="11.00">EventBase.hpp</text>
</a>
</g>
</g>
<!-- Node3&#45;&gt;Node9 -->
<g id="edge8" class="edge">
<title>Node3&#45;&gt;Node9</title>
<path fill="none" stroke="midnightblue" d="M143.5,-114.42C143.5,-107.22 143.5,-96.9 143.5,-87.86"/>
<polygon fill="midnightblue" stroke="midnightblue" points="147,-87.78 143.5,-77.78 140,-87.78 147,-87.78"/>
</g>
<!-- Node5&#45;&gt;Node2 -->
<g id="edge6" class="edge">
<title>Node5&#45;&gt;Node2</title>
<path fill="none" stroke="midnightblue" d="M268.97,-57.42C232.91,-47.35 175.01,-31.19 138.41,-20.97"/>
<polygon fill="midnightblue" stroke="midnightblue" points="139.26,-17.57 128.68,-18.25 137.37,-24.31 139.26,-17.57"/>
</g>
<!-- Node5&#45;&gt;Node4 -->
<g id="edge7" class="edge">
<title>Node5&#45;&gt;Node4</title>
<path fill="none" stroke="midnightblue" d="M301.5,-57.42C301.5,-50.22 301.5,-39.9 301.5,-30.86"/>
<polygon fill="midnightblue" stroke="midnightblue" points="305,-30.78 301.5,-20.78 298,-30.78 305,-30.78"/>
</g>
<!-- Node9&#45;&gt;Node2 -->
<g id="edge9" class="edge">
<title>Node9&#45;&gt;Node2</title>
<path fill="none" stroke="midnightblue" d="M137.06,-57.42C131.62,-49.74 123.66,-38.52 116.98,-29.09"/>
<polygon fill="midnightblue" stroke="midnightblue" points="119.72,-26.91 111.08,-20.78 114.01,-30.96 119.72,-26.91"/>
</g>
<!-- Node9&#45;&gt;Node4 -->
<g id="edge10" class="edge">
<title>Node9&#45;&gt;Node4</title>
<path fill="none" stroke="midnightblue" d="M169.59,-57.42C195.86,-48.27 236.56,-34.1 265.81,-23.92"/>
<polygon fill="midnightblue" stroke="midnightblue" points="267.34,-27.1 275.63,-20.5 265.04,-20.49 267.34,-27.1"/>
</g>
</g>
</svg>
