<?xml version="1.0" encoding="UTF-8" standalone="no"?>
<!DOCTYPE svg PUBLIC "-//W3C//DTD SVG 1.1//EN"
 "http://www.w3.org/Graphics/SVG/1.1/DTD/svg11.dtd">
<!-- Generated by graphviz version 2.43.0 (0)
 -->
<!-- Title: libmirai/public/libmirai/Events/BotOfflineEventDropped.hpp Pages: 1 -->
<svg width="439pt" height="212pt"
 viewBox="0.00 0.00 438.80 212.00" xmlns="http://www.w3.org/2000/svg" xmlns:xlink="http://www.w3.org/1999/xlink">
<g id="graph0" class="graph" transform="scale(1 1) rotate(0) translate(4 208)">
<title>libmirai/public/libmirai/Events/BotOfflineEventDropped.hpp</title>
<!-- Node1 -->
<g id="node1" class="node">
<title>Node1</title>
<g id="a_node1"><a xlink:title=" ">
<polygon fill="#bfbfbf" stroke="black" points="0,-171.5 0,-203.5 218,-203.5 218,-171.5 0,-171.5"/>
<text text-anchor="start" x="8" y="-190.7" font-family="-apple-system,BlinkMacSystemFont,'SegoeUI',Roboto,Oxygen,Ubuntu,Cantarell,'FiraSans','DroidSans','HelveticaNeue',sans-serif" font-size="11.00">libmirai/public/libmirai</text>
<text text-anchor="middle" x="109" y="-178.7" font-family="-apple-system,BlinkMacSystemFont,'SegoeUI',Roboto,Oxygen,Ubuntu,Cantarell,'FiraSans','DroidSans','HelveticaNeue',sans-serif" font-size="11.00">/Events/BotOfflineEventDropped.hpp</text>
</a>
</g>
</g>
<!-- Node2 -->
<g id="node2" class="node">
<title>Node2</title>
<g id="a_node2"><a xlink:title=" ">
<polygon fill="none" stroke="#bfbfbf" points="104,-0.5 104,-20.5 152,-20.5 152,-0.5 104,-0.5"/>
<text text-anchor="middle" x="128" y="-7.7" font-family="-apple-system,BlinkMacSystemFont,'SegoeUI',Roboto,Oxygen,Ubuntu,Cantarell,'FiraSans','DroidSans','HelveticaNeue',sans-serif" font-size="11.00">string</text>
</a>
</g>
</g>
<!-- Node1&#45;&gt;Node2 -->
<g id="edge1" class="edge">
<title>Node1&#45;&gt;Node2</title>
<path fill="none" stroke="midnightblue" d="M104.95,-171.42C99.06,-146.92 89.97,-97.19 101,-57 103.75,-46.96 109.36,-36.89 114.76,-28.79"/>
<polygon fill="midnightblue" stroke="midnightblue" points="117.65,-30.76 120.59,-20.58 111.95,-26.7 117.65,-30.76"/>
</g>
<!-- Node3 -->
<g id="node3" class="node">
<title>Node3</title>
<g id="a_node3"><a xlink:href="BotEvent_8hpp.html" target="_top" xlink:title=" ">
<polygon fill="none" stroke="black" points="121.5,-114.5 121.5,-134.5 212.5,-134.5 212.5,-114.5 121.5,-114.5"/>
<text text-anchor="middle" x="167" y="-121.7" font-family="-apple-system,BlinkMacSystemFont,'SegoeUI',Roboto,Oxygen,Ubuntu,Cantarell,'FiraSans','DroidSans','HelveticaNeue',sans-serif" font-size="11.00">BotEvent.hpp</text>
</a>
</g>
</g>
<!-- Node1&#45;&gt;Node3 -->
<g id="edge2" class="edge">
<title>Node1&#45;&gt;Node3</title>
<path fill="none" stroke="midnightblue" d="M123.34,-171.42C131.85,-162.47 142.64,-151.12 151.37,-141.94"/>
<polygon fill="midnightblue" stroke="midnightblue" points="154.04,-144.2 158.4,-134.55 148.97,-139.38 154.04,-144.2"/>
</g>
<!-- Node3&#45;&gt;Node2 -->
<g id="edge3" class="edge">
<title>Node3&#45;&gt;Node2</title>
<path fill="none" stroke="midnightblue" d="M147.75,-114.35C134.17,-106.73 117.01,-94.46 109,-78 101.48,-62.53 108.32,-43.56 115.81,-29.84"/>
<polygon fill="midnightblue" stroke="midnightblue" points="119.03,-31.28 121.18,-20.91 113.03,-27.67 119.03,-31.28"/>
</g>
<!-- Node4 -->
<g id="node4" class="node">
<title>Node4</title>
<g id="a_node4"><a xlink:title=" ">
<polygon fill="none" stroke="#bfbfbf" points="252,-0.5 252,-20.5 398,-20.5 398,-0.5 252,-0.5"/>
<text text-anchor="middle" x="325" y="-7.7" font-family="-apple-system,BlinkMacSystemFont,'SegoeUI',Roboto,Oxygen,Ubuntu,Cantarell,'FiraSans','DroidSans','HelveticaNeue',sans-serif" font-size="11.00">nlohmann/json_fwd.hpp</text>
</a>
</g>
</g>
<!-- Node3&#45;&gt;Node4 -->
<g id="edge4" class="edge">
<title>Node3&#45;&gt;Node4</title>
<path fill="none" stroke="midnightblue" d="M212.54,-122.24C279.22,-119.33 398.4,-109.71 425,-78 445.33,-53.77 406.43,-34.9 371.37,-23.55"/>
<polygon fill="midnightblue" stroke="midnightblue" points="372.22,-20.15 361.64,-20.55 370.16,-26.84 372.22,-20.15"/>
</g>
<!-- Node5 -->
<g id="node5" class="node">
<title>Node5</title>
<g id="a_node5"><a xlink:href="BasicTypes_8hpp.html" target="_top" xlink:title=" ">
<polygon fill="none" stroke="red" points="234.5,-57.5 234.5,-77.5 415.5,-77.5 415.5,-57.5 234.5,-57.5"/>
<text text-anchor="middle" x="325" y="-64.7" font-family="-apple-system,BlinkMacSystemFont,'SegoeUI',Roboto,Oxygen,Ubuntu,Cantarell,'FiraSans','DroidSans','HelveticaNeue',sans-serif" font-size="11.00">libmirai/Types/BasicTypes.hpp</text>
</a>
</g>
</g>
<!-- Node3&#45;&gt;Node5 -->
<g id="edge5" class="edge">
<title>Node3&#45;&gt;Node5</title>
<path fill="none" stroke="midnightblue" d="M193.09,-114.42C219.36,-105.27 260.06,-91.1 289.31,-80.92"/>
<polygon fill="midnightblue" stroke="midnightblue" points="290.84,-84.1 299.13,-77.5 288.54,-77.49 290.84,-84.1"/>
</g>
<!-- Node9 -->
<g id="node6" class="node">
<title>Node9</title>
<g id="a_node6"><a xlink:href="EventBase_8hpp.html" target="_top" xlink:title=" ">
<polygon fill="none" stroke="red" points="117.5,-57.5 117.5,-77.5 216.5,-77.5 216.5,-57.5 117.5,-57.5"/>
<text text-anchor="middle" x="167" y="-64.7" font-family="-apple-system,BlinkMacSystemFont,'SegoeUI',Roboto,Oxygen,Ubuntu,Cantarell,'FiraSans','DroidSans','HelveticaNeue',sans-serif" font-size="11.00">EventBase.hpp</text>
</a>
</g>
</g>
<!-- Node3&#45;&gt;Node9 -->
<g id="edge8" class="edge">
<title>Node3&#45;&gt;Node9</title>
<path fill="none" stroke="midnightblue" d="M167,-114.42C167,-107.22 167,-96.9 167,-87.86"/>
<polygon fill="midnightblue" stroke="midnightblue" points="170.5,-87.78 167,-77.78 163.5,-87.78 170.5,-87.78"/>
</g>
<!-- Node5&#45;&gt;Node2 -->
<g id="edge6" class="edge">
<title>Node5&#45;&gt;Node2</title>
<path fill="none" stroke="midnightblue" d="M292.47,-57.42C256.41,-47.35 198.51,-31.19 161.91,-20.97"/>
<polygon fill="midnightblue" stroke="midnightblue" points="162.76,-17.57 152.18,-18.25 160.87,-24.31 162.76,-17.57"/>
</g>
<!-- Node5&#45;&gt;Node4 -->
<g id="edge7" class="edge">
<title>Node5&#45;&gt;Node4</title>
<path fill="none" stroke="midnightblue" d="M325,-57.42C325,-50.22 325,-39.9 325,-30.86"/>
<polygon fill="midnightblue" stroke="midnightblue" points="328.5,-30.78 325,-20.78 321.5,-30.78 328.5,-30.78"/>
</g>
<!-- Node9&#45;&gt;Node2 -->
<g id="edge9" class="edge">
<title>Node9&#45;&gt;Node2</title>
<path fill="none" stroke="midnightblue" d="M160.56,-57.42C155.12,-49.74 147.16,-38.52 140.48,-29.09"/>
<polygon fill="midnightblue" stroke="midnightblue" points="143.22,-26.91 134.58,-20.78 137.51,-30.96 143.22,-26.91"/>
</g>
<!-- Node9&#45;&gt;Node4 -->
<g id="edge10" class="edge">
<title>Node9&#45;&gt;Node4</title>
<path fill="none" stroke="midnightblue" d="M193.09,-57.42C219.36,-48.27 260.06,-34.1 289.31,-23.92"/>
<polygon fill="midnightblue" stroke="midnightblue" points="290.84,-27.1 299.13,-20.5 288.54,-20.49 290.84,-27.1"/>
</g>
</g>
</svg>
