<?xml version="1.0" encoding="UTF-8" standalone="no"?>
<!DOCTYPE svg PUBLIC "-//W3C//DTD SVG 1.1//EN"
 "http://www.w3.org/Graphics/SVG/1.1/DTD/svg11.dtd">
<!-- Generated by graphviz version 3.0.0 (20220413.0242)
 -->
<!-- Title: libmirai/public/libmirai/Events/BotReloginEvent.hpp Pages: 1 -->
<svg width="381pt" height="212pt"
 viewBox="0.00 0.00 380.93 212.00" xmlns="http://www.w3.org/2000/svg" xmlns:xlink="http://www.w3.org/1999/xlink">
<g id="graph0" class="graph" transform="scale(1 1) rotate(0) translate(4 208)">
<title>libmirai/public/libmirai/Events/BotReloginEvent.hpp</title>
<!-- Node1 -->
<g id="node1" class="node">
<title>Node1</title>
<g id="a_node1"><a xlink:title=" ">
<polygon fill="#bfbfbf" stroke="black" points="0,-171.5 0,-203.5 155,-203.5 155,-171.5 0,-171.5"/>
<text text-anchor="start" x="8" y="-190.7" font-family="-apple-system, BlinkMacSystemFont, 'Segoe UI', Roboto, Oxygen, Ubuntu, Cantarell, 'Fira Sans', 'Droid Sans', 'Helvetica Neue', sans-serif" font-size="11.00">libmirai/public/libmirai</text>
<text text-anchor="middle" x="77.5" y="-178.7" font-family="-apple-system, BlinkMacSystemFont, 'Segoe UI', Roboto, Oxygen, Ubuntu, Cantarell, 'Fira Sans', 'Droid Sans', 'Helvetica Neue', sans-serif" font-size="11.00">/Events/BotReloginEvent.hpp</text>
</a>
</g>
</g>
<!-- Node2 -->
<g id="node2" class="node">
<title>Node2</title>
<g id="a_node2"><a xlink:title=" ">
<polygon fill="none" stroke="#bfbfbf" points="76,-0.5 76,-20.5 119,-20.5 119,-0.5 76,-0.5"/>
<text text-anchor="middle" x="97.5" y="-7.7" font-family="-apple-system, BlinkMacSystemFont, 'Segoe UI', Roboto, Oxygen, Ubuntu, Cantarell, 'Fira Sans', 'Droid Sans', 'Helvetica Neue', sans-serif" font-size="11.00">string</text>
</a>
</g>
</g>
<!-- Node1&#45;&gt;Node2 -->
<g id="edge1" class="edge">
<title>Node1&#45;&gt;Node2</title>
<path fill="none" stroke="midnightblue" d="M74.17,-171.45C69.37,-146.99 62.15,-97.32 72.5,-57 75.01,-47.21 80.12,-37.27 85.07,-29.19"/>
<polygon fill="midnightblue" stroke="midnightblue" points="88.09,-30.95 90.64,-20.67 82.23,-27.12 88.09,-30.95"/>
</g>
<!-- Node3 -->
<g id="node3" class="node">
<title>Node3</title>
<g id="a_node3"><a xlink:href="BotEvent_8hpp.html" target="_top" xlink:title=" ">
<polygon fill="none" stroke="black" points="93,-114.5 93,-134.5 174,-134.5 174,-114.5 93,-114.5"/>
<text text-anchor="middle" x="133.5" y="-121.7" font-family="-apple-system, BlinkMacSystemFont, 'Segoe UI', Roboto, Oxygen, Ubuntu, Cantarell, 'Fira Sans', 'Droid Sans', 'Helvetica Neue', sans-serif" font-size="11.00">BotEvent.hpp</text>
</a>
</g>
</g>
<!-- Node1&#45;&gt;Node3 -->
<g id="edge2" class="edge">
<title>Node1&#45;&gt;Node3</title>
<path fill="none" stroke="midnightblue" d="M91.34,-171.42C99.56,-162.47 109.98,-151.12 118.41,-141.94"/>
<polygon fill="midnightblue" stroke="midnightblue" points="121.01,-144.28 125.2,-134.55 115.85,-139.55 121.01,-144.28"/>
</g>
<!-- Node3&#45;&gt;Node2 -->
<g id="edge3" class="edge">
<title>Node3&#45;&gt;Node2</title>
<path fill="none" stroke="midnightblue" d="M116.65,-114.43C104.09,-106.63 87.89,-94.09 80.5,-78 73.37,-62.49 79.54,-43.52 86.36,-29.81"/>
<polygon fill="midnightblue" stroke="midnightblue" points="89.52,-31.34 91.26,-20.89 83.38,-27.97 89.52,-31.34"/>
</g>
<!-- Node4 -->
<g id="node4" class="node">
<title>Node4</title>
<g id="a_node4"><a xlink:title=" ">
<polygon fill="none" stroke="#bfbfbf" points="212,-0.5 212,-20.5 343,-20.5 343,-0.5 212,-0.5"/>
<text text-anchor="middle" x="277.5" y="-7.7" font-family="-apple-system, BlinkMacSystemFont, 'Segoe UI', Roboto, Oxygen, Ubuntu, Cantarell, 'Fira Sans', 'Droid Sans', 'Helvetica Neue', sans-serif" font-size="11.00">nlohmann/json_fwd.hpp</text>
</a>
</g>
</g>
<!-- Node3&#45;&gt;Node4 -->
<g id="edge4" class="edge">
<title>Node3&#45;&gt;Node4</title>
<path fill="none" stroke="midnightblue" d="M174.35,-121.61C234.79,-117.86 343.48,-107.14 367.5,-78 386.43,-55.04 350.49,-35.75 318.57,-23.96"/>
<polygon fill="midnightblue" stroke="midnightblue" points="319.45,-20.56 308.85,-20.54 317.13,-27.16 319.45,-20.56"/>
</g>
<!-- Node5 -->
<g id="node5" class="node">
<title>Node5</title>
<g id="a_node5"><a xlink:href="BasicTypes_8hpp.html" target="_top" xlink:title=" ">
<polygon fill="none" stroke="red" points="196.5,-57.5 196.5,-77.5 358.5,-77.5 358.5,-57.5 196.5,-57.5"/>
<text text-anchor="middle" x="277.5" y="-64.7" font-family="-apple-system, BlinkMacSystemFont, 'Segoe UI', Roboto, Oxygen, Ubuntu, Cantarell, 'Fira Sans', 'Droid Sans', 'Helvetica Neue', sans-serif" font-size="11.00">libmirai/Types/BasicTypes.hpp</text>
</a>
</g>
</g>
<!-- Node3&#45;&gt;Node5 -->
<g id="edge5" class="edge">
<title>Node3&#45;&gt;Node5</title>
<path fill="none" stroke="midnightblue" d="M157.28,-114.42C180.94,-105.38 217.45,-91.44 244.03,-81.28"/>
<polygon fill="midnightblue" stroke="midnightblue" points="245.59,-84.43 253.69,-77.6 243.1,-77.89 245.59,-84.43"/>
</g>
<!-- Node10 -->
<g id="node6" class="node">
<title>Node10</title>
<g id="a_node6"><a xlink:href="EventBase_8hpp.html" target="_top" xlink:title=" ">
<polygon fill="none" stroke="red" points="89,-57.5 89,-77.5 178,-77.5 178,-57.5 89,-57.5"/>
<text text-anchor="middle" x="133.5" y="-64.7" font-family="-apple-system, BlinkMacSystemFont, 'Segoe UI', Roboto, Oxygen, Ubuntu, Cantarell, 'Fira Sans', 'Droid Sans', 'Helvetica Neue', sans-serif" font-size="11.00">EventBase.hpp</text>
</a>
</g>
</g>
<!-- Node3&#45;&gt;Node10 -->
<g id="edge8" class="edge">
<title>Node3&#45;&gt;Node10</title>
<path fill="none" stroke="midnightblue" d="M133.5,-114.42C133.5,-107.22 133.5,-96.9 133.5,-87.86"/>
<polygon fill="midnightblue" stroke="midnightblue" points="137,-87.78 133.5,-77.78 130,-87.78 137,-87.78"/>
</g>
<!-- Node5&#45;&gt;Node2 -->
<g id="edge6" class="edge">
<title>Node5&#45;&gt;Node2</title>
<path fill="none" stroke="midnightblue" d="M247.78,-57.42C214.93,-47.38 162.25,-31.29 128.79,-21.06"/>
<polygon fill="midnightblue" stroke="midnightblue" points="129.65,-17.66 119.06,-18.09 127.6,-24.36 129.65,-17.66"/>
</g>
<!-- Node5&#45;&gt;Node4 -->
<g id="edge7" class="edge">
<title>Node5&#45;&gt;Node4</title>
<path fill="none" stroke="midnightblue" d="M277.5,-57.42C277.5,-50.22 277.5,-39.9 277.5,-30.86"/>
<polygon fill="midnightblue" stroke="midnightblue" points="281,-30.78 277.5,-20.78 274,-30.78 281,-30.78"/>
</g>
<!-- Node10&#45;&gt;Node2 -->
<g id="edge9" class="edge">
<title>Node10&#45;&gt;Node2</title>
<path fill="none" stroke="midnightblue" d="M127.56,-57.42C122.58,-49.82 115.34,-38.75 109.21,-29.39"/>
<polygon fill="midnightblue" stroke="midnightblue" points="111.98,-27.23 103.57,-20.78 106.12,-31.06 111.98,-27.23"/>
</g>
<!-- Node10&#45;&gt;Node4 -->
<g id="edge10" class="edge">
<title>Node10&#45;&gt;Node4</title>
<path fill="none" stroke="midnightblue" d="M157.28,-57.42C180.94,-48.38 217.45,-34.44 244.03,-24.28"/>
<polygon fill="midnightblue" stroke="midnightblue" points="245.59,-27.43 253.69,-20.6 243.1,-20.89 245.59,-27.43"/>
</g>
</g>
</svg>
