<?xml version="1.0" encoding="UTF-8" standalone="no"?>
<!DOCTYPE svg PUBLIC "-//W3C//DTD SVG 1.1//EN"
 "http://www.w3.org/Graphics/SVG/1.1/DTD/svg11.dtd">
<!-- Generated by graphviz version 2.43.0 (0)
 -->
<!-- Title: libmirai/public/libmirai/Events/BotReloginEvent.hpp Pages: 1 -->
<svg width="418pt" height="212pt"
 viewBox="0.00 0.00 417.80 212.00" xmlns="http://www.w3.org/2000/svg" xmlns:xlink="http://www.w3.org/1999/xlink">
<g id="graph0" class="graph" transform="scale(1 1) rotate(0) translate(4 208)">
<title>libmirai/public/libmirai/Events/BotReloginEvent.hpp</title>
<!-- Node1 -->
<g id="node1" class="node">
<title>Node1</title>
<g id="a_node1"><a xlink:title=" ">
<polygon fill="#bfbfbf" stroke="black" points="0,-171.5 0,-203.5 176,-203.5 176,-171.5 0,-171.5"/>
<text text-anchor="start" x="8" y="-190.7" font-family="-apple-system,BlinkMacSystemFont,'SegoeUI',Roboto,Oxygen,Ubuntu,Cantarell,'FiraSans','DroidSans','HelveticaNeue',sans-serif" font-size="11.00">libmirai/public/libmirai</text>
<text text-anchor="middle" x="88" y="-178.7" font-family="-apple-system,BlinkMacSystemFont,'SegoeUI',Roboto,Oxygen,Ubuntu,Cantarell,'FiraSans','DroidSans','HelveticaNeue',sans-serif" font-size="11.00">/Events/BotReloginEvent.hpp</text>
</a>
</g>
</g>
<!-- Node2 -->
<g id="node2" class="node">
<title>Node2</title>
<g id="a_node2"><a xlink:title=" ">
<polygon fill="none" stroke="#bfbfbf" points="83,-0.5 83,-20.5 131,-20.5 131,-0.5 83,-0.5"/>
<text text-anchor="middle" x="107" y="-7.7" font-family="-apple-system,BlinkMacSystemFont,'SegoeUI',Roboto,Oxygen,Ubuntu,Cantarell,'FiraSans','DroidSans','HelveticaNeue',sans-serif" font-size="11.00">string</text>
</a>
</g>
</g>
<!-- Node1&#45;&gt;Node2 -->
<g id="edge1" class="edge">
<title>Node1&#45;&gt;Node2</title>
<path fill="none" stroke="midnightblue" d="M83.95,-171.42C78.06,-146.92 68.97,-97.19 80,-57 82.75,-46.96 88.36,-36.89 93.76,-28.79"/>
<polygon fill="midnightblue" stroke="midnightblue" points="96.65,-30.76 99.59,-20.58 90.95,-26.7 96.65,-30.76"/>
</g>
<!-- Node3 -->
<g id="node3" class="node">
<title>Node3</title>
<g id="a_node3"><a xlink:href="BotEvent_8hpp.html" target="_top" xlink:title=" ">
<polygon fill="none" stroke="black" points="100.5,-114.5 100.5,-134.5 191.5,-134.5 191.5,-114.5 100.5,-114.5"/>
<text text-anchor="middle" x="146" y="-121.7" font-family="-apple-system,BlinkMacSystemFont,'SegoeUI',Roboto,Oxygen,Ubuntu,Cantarell,'FiraSans','DroidSans','HelveticaNeue',sans-serif" font-size="11.00">BotEvent.hpp</text>
</a>
</g>
</g>
<!-- Node1&#45;&gt;Node3 -->
<g id="edge2" class="edge">
<title>Node1&#45;&gt;Node3</title>
<path fill="none" stroke="midnightblue" d="M102.34,-171.42C110.85,-162.47 121.64,-151.12 130.37,-141.94"/>
<polygon fill="midnightblue" stroke="midnightblue" points="133.04,-144.2 137.4,-134.55 127.97,-139.38 133.04,-144.2"/>
</g>
<!-- Node3&#45;&gt;Node2 -->
<g id="edge3" class="edge">
<title>Node3&#45;&gt;Node2</title>
<path fill="none" stroke="midnightblue" d="M126.75,-114.35C113.17,-106.73 96.01,-94.46 88,-78 80.48,-62.53 87.32,-43.56 94.81,-29.84"/>
<polygon fill="midnightblue" stroke="midnightblue" points="98.03,-31.28 100.18,-20.91 92.03,-27.67 98.03,-31.28"/>
</g>
<!-- Node4 -->
<g id="node4" class="node">
<title>Node4</title>
<g id="a_node4"><a xlink:title=" ">
<polygon fill="none" stroke="#bfbfbf" points="231,-0.5 231,-20.5 377,-20.5 377,-0.5 231,-0.5"/>
<text text-anchor="middle" x="304" y="-7.7" font-family="-apple-system,BlinkMacSystemFont,'SegoeUI',Roboto,Oxygen,Ubuntu,Cantarell,'FiraSans','DroidSans','HelveticaNeue',sans-serif" font-size="11.00">nlohmann/json_fwd.hpp</text>
</a>
</g>
</g>
<!-- Node3&#45;&gt;Node4 -->
<g id="edge4" class="edge">
<title>Node3&#45;&gt;Node4</title>
<path fill="none" stroke="midnightblue" d="M191.54,-122.24C258.22,-119.33 377.4,-109.71 404,-78 424.33,-53.77 385.43,-34.9 350.37,-23.55"/>
<polygon fill="midnightblue" stroke="midnightblue" points="351.22,-20.15 340.64,-20.55 349.16,-26.84 351.22,-20.15"/>
</g>
<!-- Node5 -->
<g id="node5" class="node">
<title>Node5</title>
<g id="a_node5"><a xlink:href="BasicTypes_8hpp.html" target="_top" xlink:title=" ">
<polygon fill="none" stroke="red" points="213.5,-57.5 213.5,-77.5 394.5,-77.5 394.5,-57.5 213.5,-57.5"/>
<text text-anchor="middle" x="304" y="-64.7" font-family="-apple-system,BlinkMacSystemFont,'SegoeUI',Roboto,Oxygen,Ubuntu,Cantarell,'FiraSans','DroidSans','HelveticaNeue',sans-serif" font-size="11.00">libmirai/Types/BasicTypes.hpp</text>
</a>
</g>
</g>
<!-- Node3&#45;&gt;Node5 -->
<g id="edge5" class="edge">
<title>Node3&#45;&gt;Node5</title>
<path fill="none" stroke="midnightblue" d="M172.09,-114.42C198.36,-105.27 239.06,-91.1 268.31,-80.92"/>
<polygon fill="midnightblue" stroke="midnightblue" points="269.84,-84.1 278.13,-77.5 267.54,-77.49 269.84,-84.1"/>
</g>
<!-- Node9 -->
<g id="node6" class="node">
<title>Node9</title>
<g id="a_node6"><a xlink:href="EventBase_8hpp.html" target="_top" xlink:title=" ">
<polygon fill="none" stroke="red" points="96.5,-57.5 96.5,-77.5 195.5,-77.5 195.5,-57.5 96.5,-57.5"/>
<text text-anchor="middle" x="146" y="-64.7" font-family="-apple-system,BlinkMacSystemFont,'SegoeUI',Roboto,Oxygen,Ubuntu,Cantarell,'FiraSans','DroidSans','HelveticaNeue',sans-serif" font-size="11.00">EventBase.hpp</text>
</a>
</g>
</g>
<!-- Node3&#45;&gt;Node9 -->
<g id="edge8" class="edge">
<title>Node3&#45;&gt;Node9</title>
<path fill="none" stroke="midnightblue" d="M146,-114.42C146,-107.22 146,-96.9 146,-87.86"/>
<polygon fill="midnightblue" stroke="midnightblue" points="149.5,-87.78 146,-77.78 142.5,-87.78 149.5,-87.78"/>
</g>
<!-- Node5&#45;&gt;Node2 -->
<g id="edge6" class="edge">
<title>Node5&#45;&gt;Node2</title>
<path fill="none" stroke="midnightblue" d="M271.47,-57.42C235.41,-47.35 177.51,-31.19 140.91,-20.97"/>
<polygon fill="midnightblue" stroke="midnightblue" points="141.76,-17.57 131.18,-18.25 139.87,-24.31 141.76,-17.57"/>
</g>
<!-- Node5&#45;&gt;Node4 -->
<g id="edge7" class="edge">
<title>Node5&#45;&gt;Node4</title>
<path fill="none" stroke="midnightblue" d="M304,-57.42C304,-50.22 304,-39.9 304,-30.86"/>
<polygon fill="midnightblue" stroke="midnightblue" points="307.5,-30.78 304,-20.78 300.5,-30.78 307.5,-30.78"/>
</g>
<!-- Node9&#45;&gt;Node2 -->
<g id="edge9" class="edge">
<title>Node9&#45;&gt;Node2</title>
<path fill="none" stroke="midnightblue" d="M139.56,-57.42C134.12,-49.74 126.16,-38.52 119.48,-29.09"/>
<polygon fill="midnightblue" stroke="midnightblue" points="122.22,-26.91 113.58,-20.78 116.51,-30.96 122.22,-26.91"/>
</g>
<!-- Node9&#45;&gt;Node4 -->
<g id="edge10" class="edge">
<title>Node9&#45;&gt;Node4</title>
<path fill="none" stroke="midnightblue" d="M172.09,-57.42C198.36,-48.27 239.06,-34.1 268.31,-23.92"/>
<polygon fill="midnightblue" stroke="midnightblue" points="269.84,-27.1 278.13,-20.5 267.54,-20.49 269.84,-27.1"/>
</g>
</g>
</svg>
