<?xml version="1.0" encoding="UTF-8" standalone="no"?>
<!DOCTYPE svg PUBLIC "-//W3C//DTD SVG 1.1//EN"
 "http://www.w3.org/Graphics/SVG/1.1/DTD/svg11.dtd">
<!-- Generated by graphviz version 3.0.0 (20220413.0242)
 -->
<!-- Title: libmirai/public/libmirai/Events/BotUnmuteEvent.cpp Pages: 1 -->
<svg width="559pt" height="212pt"
 viewBox="0.00 0.00 559.00 212.00" xmlns="http://www.w3.org/2000/svg" xmlns:xlink="http://www.w3.org/1999/xlink">
<g id="graph0" class="graph" transform="scale(1 1) rotate(0) translate(4 208)">
<title>libmirai/public/libmirai/Events/BotUnmuteEvent.cpp</title>
<!-- Node1 -->
<g id="node1" class="node">
<title>Node1</title>
<g id="a_node1"><a xlink:title=" ">
<polygon fill="#bfbfbf" stroke="black" points="258.5,-171.5 258.5,-203.5 415.5,-203.5 415.5,-171.5 258.5,-171.5"/>
<text text-anchor="start" x="266.5" y="-190.7" font-family="-apple-system, BlinkMacSystemFont, 'Segoe UI', Roboto, Oxygen, Ubuntu, Cantarell, 'Fira Sans', 'Droid Sans', 'Helvetica Neue', sans-serif" font-size="11.00">libmirai/public/libmirai</text>
<text text-anchor="middle" x="337" y="-178.7" font-family="-apple-system, BlinkMacSystemFont, 'Segoe UI', Roboto, Oxygen, Ubuntu, Cantarell, 'Fira Sans', 'Droid Sans', 'Helvetica Neue', sans-serif" font-size="11.00">/Events/BotUnmuteEvent.cpp</text>
</a>
</g>
</g>
<!-- Node2 -->
<g id="node2" class="node">
<title>Node2</title>
<g id="a_node2"><a xlink:href="BotUnmuteEvent_8hpp.html" target="_top" xlink:title=" ">
<polygon fill="none" stroke="black" points="145.5,-114.5 145.5,-134.5 264.5,-134.5 264.5,-114.5 145.5,-114.5"/>
<text text-anchor="middle" x="205" y="-121.7" font-family="-apple-system, BlinkMacSystemFont, 'Segoe UI', Roboto, Oxygen, Ubuntu, Cantarell, 'Fira Sans', 'Droid Sans', 'Helvetica Neue', sans-serif" font-size="11.00">BotUnmuteEvent.hpp</text>
</a>
</g>
</g>
<!-- Node1&#45;&gt;Node2 -->
<g id="edge1" class="edge">
<title>Node1&#45;&gt;Node2</title>
<path fill="none" stroke="midnightblue" d="M304.37,-171.42C282.75,-161.43 254.65,-148.45 233.85,-138.83"/>
<polygon fill="midnightblue" stroke="midnightblue" points="235.12,-135.56 224.57,-134.55 232.18,-141.92 235.12,-135.56"/>
</g>
<!-- Node12 -->
<g id="node9" class="node">
<title>Node12</title>
<g id="a_node9"><a xlink:title=" ">
<polygon fill="none" stroke="#bfbfbf" points="283,-114.5 283,-134.5 391,-134.5 391,-114.5 283,-114.5"/>
<text text-anchor="middle" x="337" y="-121.7" font-family="-apple-system, BlinkMacSystemFont, 'Segoe UI', Roboto, Oxygen, Ubuntu, Cantarell, 'Fira Sans', 'Droid Sans', 'Helvetica Neue', sans-serif" font-size="11.00">nlohmann/json.hpp</text>
</a>
</g>
</g>
<!-- Node1&#45;&gt;Node12 -->
<g id="edge14" class="edge">
<title>Node1&#45;&gt;Node12</title>
<path fill="none" stroke="midnightblue" d="M337,-171.42C337,-163.38 337,-153.39 337,-144.78"/>
<polygon fill="midnightblue" stroke="midnightblue" points="340.5,-144.55 337,-134.55 333.5,-144.55 340.5,-144.55"/>
</g>
<!-- Node13 -->
<g id="node10" class="node">
<title>Node13</title>
<g id="a_node10"><a xlink:title=" ">
<polygon fill="none" stroke="#bfbfbf" points="409,-114.5 409,-134.5 551,-134.5 551,-114.5 409,-114.5"/>
<text text-anchor="middle" x="480" y="-121.7" font-family="-apple-system, BlinkMacSystemFont, 'Segoe UI', Roboto, Oxygen, Ubuntu, Cantarell, 'Fira Sans', 'Droid Sans', 'Helvetica Neue', sans-serif" font-size="11.00">libmirai/Utils/Common.hpp</text>
</a>
</g>
</g>
<!-- Node1&#45;&gt;Node13 -->
<g id="edge15" class="edge">
<title>Node1&#45;&gt;Node13</title>
<path fill="none" stroke="midnightblue" d="M372.35,-171.42C395.98,-161.34 426.76,-148.21 449.35,-138.57"/>
<polygon fill="midnightblue" stroke="midnightblue" points="450.97,-141.69 458.79,-134.55 448.22,-135.25 450.97,-141.69"/>
</g>
<!-- Node3 -->
<g id="node3" class="node">
<title>Node3</title>
<g id="a_node3"><a xlink:title=" ">
<polygon fill="none" stroke="#bfbfbf" points="0,-0.5 0,-20.5 50,-20.5 50,-0.5 0,-0.5"/>
<text text-anchor="middle" x="25" y="-7.7" font-family="-apple-system, BlinkMacSystemFont, 'Segoe UI', Roboto, Oxygen, Ubuntu, Cantarell, 'Fira Sans', 'Droid Sans', 'Helvetica Neue', sans-serif" font-size="11.00">chrono</text>
</a>
</g>
</g>
<!-- Node2&#45;&gt;Node3 -->
<g id="edge2" class="edge">
<title>Node2&#45;&gt;Node3</title>
<path fill="none" stroke="midnightblue" d="M145.34,-117.81C114.58,-112.11 78.31,-100.73 53,-78 39.33,-65.73 32.14,-45.7 28.48,-30.82"/>
<polygon fill="midnightblue" stroke="midnightblue" points="31.83,-29.72 26.33,-20.67 24.98,-31.18 31.83,-29.72"/>
</g>
<!-- Node4 -->
<g id="node4" class="node">
<title>Node4</title>
<g id="a_node4"><a xlink:title=" ">
<polygon fill="none" stroke="#bfbfbf" points="109,-0.5 109,-20.5 151,-20.5 151,-0.5 109,-0.5"/>
<text text-anchor="middle" x="130" y="-7.7" font-family="-apple-system, BlinkMacSystemFont, 'Segoe UI', Roboto, Oxygen, Ubuntu, Cantarell, 'Fira Sans', 'Droid Sans', 'Helvetica Neue', sans-serif" font-size="11.00">ctime</text>
</a>
</g>
</g>
<!-- Node2&#45;&gt;Node4 -->
<g id="edge3" class="edge">
<title>Node2&#45;&gt;Node4</title>
<path fill="none" stroke="midnightblue" d="M145.32,-120.66C114.88,-115.81 80.29,-104.33 61,-78 45.65,-57.06 74.66,-36.93 99.65,-24.42"/>
<polygon fill="midnightblue" stroke="midnightblue" points="101.4,-27.46 108.93,-20 98.39,-21.14 101.4,-27.46"/>
</g>
<!-- Node5 -->
<g id="node5" class="node">
<title>Node5</title>
<g id="a_node5"><a xlink:title=" ">
<polygon fill="none" stroke="#bfbfbf" points="222.5,-0.5 222.5,-20.5 265.5,-20.5 265.5,-0.5 222.5,-0.5"/>
<text text-anchor="middle" x="244" y="-7.7" font-family="-apple-system, BlinkMacSystemFont, 'Segoe UI', Roboto, Oxygen, Ubuntu, Cantarell, 'Fira Sans', 'Droid Sans', 'Helvetica Neue', sans-serif" font-size="11.00">string</text>
</a>
</g>
</g>
<!-- Node2&#45;&gt;Node5 -->
<g id="edge4" class="edge">
<title>Node2&#45;&gt;Node5</title>
<path fill="none" stroke="midnightblue" d="M215.35,-114.18C223.96,-105.7 235.65,-92.34 241,-78 246.62,-62.94 247.02,-44.62 246.21,-31.03"/>
<polygon fill="midnightblue" stroke="midnightblue" points="249.68,-30.55 245.34,-20.89 242.71,-31.15 249.68,-30.55"/>
</g>
<!-- Node6 -->
<g id="node6" class="node">
<title>Node6</title>
<g id="a_node6"><a xlink:title=" ">
<polygon fill="none" stroke="#bfbfbf" points="283.5,-0.5 283.5,-20.5 414.5,-20.5 414.5,-0.5 283.5,-0.5"/>
<text text-anchor="middle" x="349" y="-7.7" font-family="-apple-system, BlinkMacSystemFont, 'Segoe UI', Roboto, Oxygen, Ubuntu, Cantarell, 'Fira Sans', 'Droid Sans', 'Helvetica Neue', sans-serif" font-size="11.00">nlohmann/json_fwd.hpp</text>
</a>
</g>
</g>
<!-- Node2&#45;&gt;Node6 -->
<g id="edge5" class="edge">
<title>Node2&#45;&gt;Node6</title>
<path fill="none" stroke="midnightblue" d="M253.78,-114.43C304.52,-104.49 377.76,-88.57 386,-78 398.34,-62.18 383.01,-41.72 368.51,-27.7"/>
<polygon fill="midnightblue" stroke="midnightblue" points="370.48,-24.76 360.71,-20.64 365.78,-29.95 370.48,-24.76"/>
</g>
<!-- Node7 -->
<g id="node7" class="node">
<title>Node7</title>
<g id="a_node7"><a xlink:href="BasicTypes_8hpp.html" target="_top" xlink:title=" ">
<polygon fill="none" stroke="red" points="70,-57.5 70,-77.5 232,-77.5 232,-57.5 70,-57.5"/>
<text text-anchor="middle" x="151" y="-64.7" font-family="-apple-system, BlinkMacSystemFont, 'Segoe UI', Roboto, Oxygen, Ubuntu, Cantarell, 'Fira Sans', 'Droid Sans', 'Helvetica Neue', sans-serif" font-size="11.00">libmirai/Types/BasicTypes.hpp</text>
</a>
</g>
</g>
<!-- Node2&#45;&gt;Node7 -->
<g id="edge6" class="edge">
<title>Node2&#45;&gt;Node7</title>
<path fill="none" stroke="midnightblue" d="M196.08,-114.42C188.24,-106.42 176.62,-94.59 167.14,-84.94"/>
<polygon fill="midnightblue" stroke="midnightblue" points="169.61,-82.46 160.11,-77.78 164.62,-87.37 169.61,-82.46"/>
</g>
<!-- Node10 -->
<g id="node8" class="node">
<title>Node10</title>
<g id="a_node8"><a xlink:href="EventBase_8hpp.html" target="_top" xlink:title=" ">
<polygon fill="none" stroke="red" points="288.5,-57.5 288.5,-77.5 377.5,-77.5 377.5,-57.5 288.5,-57.5"/>
<text text-anchor="middle" x="333" y="-64.7" font-family="-apple-system, BlinkMacSystemFont, 'Segoe UI', Roboto, Oxygen, Ubuntu, Cantarell, 'Fira Sans', 'Droid Sans', 'Helvetica Neue', sans-serif" font-size="11.00">EventBase.hpp</text>
</a>
</g>
</g>
<!-- Node2&#45;&gt;Node10 -->
<g id="edge11" class="edge">
<title>Node2&#45;&gt;Node10</title>
<path fill="none" stroke="midnightblue" d="M226.14,-114.42C246.98,-105.46 279.05,-91.68 302.62,-81.55"/>
<polygon fill="midnightblue" stroke="midnightblue" points="304.03,-84.76 311.83,-77.6 301.26,-78.33 304.03,-84.76"/>
</g>
<!-- Node7&#45;&gt;Node3 -->
<g id="edge7" class="edge">
<title>Node7&#45;&gt;Node3</title>
<path fill="none" stroke="midnightblue" d="M130.19,-57.42C109.77,-48.5 78.39,-34.8 55.21,-24.69"/>
<polygon fill="midnightblue" stroke="midnightblue" points="56.4,-21.39 45.84,-20.6 53.6,-27.8 56.4,-21.39"/>
</g>
<!-- Node7&#45;&gt;Node4 -->
<g id="edge8" class="edge">
<title>Node7&#45;&gt;Node4</title>
<path fill="none" stroke="midnightblue" d="M147.53,-57.42C144.72,-50.06 140.67,-39.44 137.17,-30.27"/>
<polygon fill="midnightblue" stroke="midnightblue" points="140.38,-28.87 133.54,-20.78 133.84,-31.37 140.38,-28.87"/>
</g>
<!-- Node7&#45;&gt;Node5 -->
<g id="edge9" class="edge">
<title>Node7&#45;&gt;Node5</title>
<path fill="none" stroke="midnightblue" d="M166.36,-57.42C180.9,-48.82 202.95,-35.78 219.85,-25.78"/>
<polygon fill="midnightblue" stroke="midnightblue" points="221.79,-28.7 228.62,-20.6 218.23,-22.67 221.79,-28.7"/>
</g>
<!-- Node7&#45;&gt;Node6 -->
<g id="edge10" class="edge">
<title>Node7&#45;&gt;Node6</title>
<path fill="none" stroke="midnightblue" d="M183.7,-57.42C217.33,-48.08 269.86,-33.48 306.65,-23.26"/>
<polygon fill="midnightblue" stroke="midnightblue" points="307.89,-26.55 316.58,-20.5 306.01,-19.81 307.89,-26.55"/>
</g>
<!-- Node10&#45;&gt;Node5 -->
<g id="edge12" class="edge">
<title>Node10&#45;&gt;Node5</title>
<path fill="none" stroke="midnightblue" d="M318.3,-57.42C304.52,-48.9 283.67,-36.02 267.57,-26.06"/>
<polygon fill="midnightblue" stroke="midnightblue" points="269.07,-22.88 258.72,-20.6 265.39,-28.83 269.07,-22.88"/>
</g>
<!-- Node10&#45;&gt;Node6 -->
<g id="edge13" class="edge">
<title>Node10&#45;&gt;Node6</title>
<path fill="none" stroke="midnightblue" d="M335.64,-57.42C337.76,-50.14 340.81,-39.67 343.45,-30.57"/>
<polygon fill="midnightblue" stroke="midnightblue" points="346.87,-31.36 346.3,-20.78 340.15,-29.4 346.87,-31.36"/>
</g>
</g>
</svg>
