<?xml version="1.0" encoding="UTF-8" standalone="no"?>
<!DOCTYPE svg PUBLIC "-//W3C//DTD SVG 1.1//EN"
 "http://www.w3.org/Graphics/SVG/1.1/DTD/svg11.dtd">
<!-- Generated by graphviz version 3.0.0 (20220413.0242)
 -->
<!-- Title: Mirai::MemberHonorChangeEvent Pages: 1 -->
<svg width="847pt" height="328pt"
 viewBox="0.00 0.00 847.00 327.50" xmlns="http://www.w3.org/2000/svg" xmlns:xlink="http://www.w3.org/1999/xlink">
<g id="graph0" class="graph" transform="scale(1 1) rotate(0) translate(4 323.5)">
<title>Mirai::MemberHonorChangeEvent</title>
<!-- Node1 -->
<g id="node1" class="node">
<title>Node1</title>
<g id="a_node1"><a xlink:title="群成员荣誉改变事件">
<polygon fill="#bfbfbf" stroke="black" points="686,-144.5 686,-176.5 839,-176.5 839,-144.5 686,-144.5"/>
<text text-anchor="start" x="694" y="-163.7" font-family="-apple-system, BlinkMacSystemFont, 'Segoe UI', Roboto, Oxygen, Ubuntu, Cantarell, 'Fira Sans', 'Droid Sans', 'Helvetica Neue', sans-serif" font-size="11.00">Mirai::MemberHonorChange</text>
<text text-anchor="middle" x="762.5" y="-151.7" font-family="-apple-system, BlinkMacSystemFont, 'Segoe UI', Roboto, Oxygen, Ubuntu, Cantarell, 'Fira Sans', 'Droid Sans', 'Helvetica Neue', sans-serif" font-size="11.00">Event</text>
</a>
</g>
</g>
<!-- Node2 -->
<g id="node2" class="node">
<title>Node2</title>
<g id="a_node2"><a xlink:href="classMirai_1_1EventBase.html" target="_top" xlink:title="Base class for all event types">
<polygon fill="none" stroke="black" points="429.5,-230.5 429.5,-250.5 527.5,-250.5 527.5,-230.5 429.5,-230.5"/>
<text text-anchor="middle" x="478.5" y="-237.7" font-family="-apple-system, BlinkMacSystemFont, 'Segoe UI', Roboto, Oxygen, Ubuntu, Cantarell, 'Fira Sans', 'Droid Sans', 'Helvetica Neue', sans-serif" font-size="11.00">Mirai::EventBase</text>
</a>
</g>
</g>
<!-- Node2&#45;&gt;Node1 -->
<g id="edge1" class="edge">
<title>Node2&#45;&gt;Node1</title>
<path fill="none" stroke="midnightblue" d="M524.62,-227.7C573.63,-213.8 651.99,-191.57 705.04,-176.52"/>
<polygon fill="midnightblue" stroke="midnightblue" points="523.6,-224.35 514.93,-230.45 525.51,-231.09 523.6,-224.35"/>
</g>
<!-- Node3 -->
<g id="node3" class="node">
<title>Node3</title>
<g id="a_node3"><a xlink:href="classMirai_1_1MiraiClient.html" target="_top" xlink:title="提供与mirai&#45;api&#45;http网络交互的封装">
<polygon fill="none" stroke="red" points="204,-270.5 204,-290.5 300,-290.5 300,-270.5 204,-270.5"/>
<text text-anchor="middle" x="252" y="-277.7" font-family="-apple-system, BlinkMacSystemFont, 'Segoe UI', Roboto, Oxygen, Ubuntu, Cantarell, 'Fira Sans', 'Droid Sans', 'Helvetica Neue', sans-serif" font-size="11.00">Mirai::MiraiClient</text>
</a>
</g>
</g>
<!-- Node3&#45;&gt;Node2 -->
<g id="edge2" class="edge">
<title>Node3&#45;&gt;Node2</title>
<path fill="none" stroke="#9a32cd" stroke-dasharray="5,2" d="M310.16,-270.32C347.01,-263.75 394.4,-255.31 429.34,-249.08"/>
<polygon fill="#9a32cd" stroke="#9a32cd" points="309.29,-266.91 300.06,-272.11 310.52,-273.81 309.29,-266.91"/>
<text text-anchor="middle" x="341.5" y="-271.7" font-family="-apple-system, BlinkMacSystemFont, 'Segoe UI', Roboto, Oxygen, Ubuntu, Cantarell, 'Fira Sans', 'Droid Sans', 'Helvetica Neue', sans-serif" font-size="11.00"> _client</text>
</g>
<!-- Node6 -->
<g id="node4" class="node">
<title>Node6</title>
<g id="a_node4"><a xlink:title=" ">
<polygon fill="none" stroke="red" points="19,-238.5 19,-258.5 82,-258.5 82,-238.5 19,-238.5"/>
<text text-anchor="middle" x="50.5" y="-245.7" font-family="-apple-system, BlinkMacSystemFont, 'Segoe UI', Roboto, Oxygen, Ubuntu, Cantarell, 'Fira Sans', 'Droid Sans', 'Helvetica Neue', sans-serif" font-size="11.00">std::string</text>
</a>
</g>
</g>
<!-- Node6&#45;&gt;Node1 -->
<g id="edge11" class="edge">
<title>Node6&#45;&gt;Node1</title>
<path fill="none" stroke="#9a32cd" stroke-dasharray="5,2" d="M75.83,-263.8C88.32,-271.04 104.02,-279.24 119,-284.5 155.27,-297.25 165.72,-296.93 204,-300.5 368.69,-315.87 416.62,-311.39 574,-260.5 636.83,-240.18 703.47,-199.39 737.87,-176.68"/>
<polygon fill="#9a32cd" stroke="#9a32cd" points="77.35,-260.63 66.97,-258.51 73.76,-266.64 77.35,-260.63"/>
<text text-anchor="middle" x="341.5" y="-310.7" font-family="-apple-system, BlinkMacSystemFont, 'Segoe UI', Roboto, Oxygen, Ubuntu, Cantarell, 'Fira Sans', 'Droid Sans', 'Helvetica Neue', sans-serif" font-size="11.00"> _honor</text>
</g>
<!-- Node6&#45;&gt;Node3 -->
<g id="edge3" class="edge">
<title>Node6&#45;&gt;Node3</title>
<path fill="none" stroke="#9a32cd" stroke-dasharray="5,2" d="M92.26,-255.04C124.64,-260.23 169.96,-267.5 203.89,-272.94"/>
<polygon fill="#9a32cd" stroke="#9a32cd" points="92.66,-251.56 82.23,-253.43 91.55,-258.47 92.66,-251.56"/>
<text text-anchor="middle" x="152.5" y="-271.7" font-family="-apple-system, BlinkMacSystemFont, 'Segoe UI', Roboto, Oxygen, Ubuntu, Cantarell, 'Fira Sans', 'Droid Sans', 'Helvetica Neue', sans-serif" font-size="11.00"> _SessionKey</text>
</g>
<!-- Node18 -->
<g id="node5" class="node">
<title>Node18</title>
<g id="a_node5"><a xlink:href="structMirai_1_1GroupMember.html" target="_top" xlink:title="群员资料">
<polygon fill="none" stroke="black" points="420.5,-150.5 420.5,-170.5 536.5,-170.5 536.5,-150.5 420.5,-150.5"/>
<text text-anchor="middle" x="478.5" y="-157.7" font-family="-apple-system, BlinkMacSystemFont, 'Segoe UI', Roboto, Oxygen, Ubuntu, Cantarell, 'Fira Sans', 'Droid Sans', 'Helvetica Neue', sans-serif" font-size="11.00">Mirai::GroupMember</text>
</a>
</g>
</g>
<!-- Node6&#45;&gt;Node18 -->
<g id="edge7" class="edge">
<title>Node6&#45;&gt;Node18</title>
<path fill="none" stroke="#9a32cd" stroke-dasharray="5,2" d="M92.58,-241.95C152.68,-232.12 267.97,-212.38 365,-190.5 391.23,-184.59 420.57,-176.72 442.71,-170.53"/>
<polygon fill="#9a32cd" stroke="#9a32cd" points="91.67,-238.55 82.37,-243.61 92.8,-245.46 91.67,-238.55"/>
<text text-anchor="middle" x="252" y="-236.7" font-family="-apple-system, BlinkMacSystemFont, 'Segoe UI', Roboto, Oxygen, Ubuntu, Cantarell, 'Fira Sans', 'Droid Sans', 'Helvetica Neue', sans-serif" font-size="11.00"> MemberName</text>
<text text-anchor="middle" x="252" y="-224.7" font-family="-apple-system, BlinkMacSystemFont, 'Segoe UI', Roboto, Oxygen, Ubuntu, Cantarell, 'Fira Sans', 'Droid Sans', 'Helvetica Neue', sans-serif" font-size="11.00">SpecialTitle</text>
</g>
<!-- Node19 -->
<g id="node8" class="node">
<title>Node19</title>
<g id="a_node8"><a xlink:href="structMirai_1_1Group.html" target="_top" xlink:title="群聊资料">
<polygon fill="none" stroke="red" points="214,-170.5 214,-190.5 290,-190.5 290,-170.5 214,-170.5"/>
<text text-anchor="middle" x="252" y="-177.7" font-family="-apple-system, BlinkMacSystemFont, 'Segoe UI', Roboto, Oxygen, Ubuntu, Cantarell, 'Fira Sans', 'Droid Sans', 'Helvetica Neue', sans-serif" font-size="11.00">Mirai::Group</text>
</a>
</g>
</g>
<!-- Node6&#45;&gt;Node19 -->
<g id="edge10" class="edge">
<title>Node6&#45;&gt;Node19</title>
<path fill="none" stroke="#9a32cd" stroke-dasharray="5,2" d="M70.54,-231.73C83.36,-221.36 101.14,-208.7 119,-201.5 149.56,-189.19 186.83,-184.07 213.97,-181.96"/>
<polygon fill="#9a32cd" stroke="#9a32cd" points="67.93,-229.34 62.51,-238.44 72.42,-234.71 67.93,-229.34"/>
<text text-anchor="middle" x="152.5" y="-204.7" font-family="-apple-system, BlinkMacSystemFont, 'Segoe UI', Roboto, Oxygen, Ubuntu, Cantarell, 'Fira Sans', 'Droid Sans', 'Helvetica Neue', sans-serif" font-size="11.00"> name</text>
</g>
<!-- Node18&#45;&gt;Node1 -->
<g id="edge4" class="edge">
<title>Node18&#45;&gt;Node1</title>
<path fill="none" stroke="#9a32cd" stroke-dasharray="5,2" d="M546.66,-160.5C588.5,-160.5 642.44,-160.5 685.8,-160.5"/>
<polygon fill="#9a32cd" stroke="#9a32cd" points="546.57,-157 536.57,-160.5 546.57,-164 546.57,-157"/>
<text text-anchor="middle" x="630" y="-163.7" font-family="-apple-system, BlinkMacSystemFont, 'Segoe UI', Roboto, Oxygen, Ubuntu, Cantarell, 'Fira Sans', 'Droid Sans', 'Helvetica Neue', sans-serif" font-size="11.00"> _member</text>
</g>
<!-- Node16 -->
<g id="node6" class="node">
<title>Node16</title>
<g id="a_node6"><a xlink:href="classMirai_1_1Serializable.html" target="_top" xlink:title="Base class for all json serializable type">
<polygon fill="none" stroke="black" points="0,-144.5 0,-164.5 101,-164.5 101,-144.5 0,-144.5"/>
<text text-anchor="middle" x="50.5" y="-151.7" font-family="-apple-system, BlinkMacSystemFont, 'Segoe UI', Roboto, Oxygen, Ubuntu, Cantarell, 'Fira Sans', 'Droid Sans', 'Helvetica Neue', sans-serif" font-size="11.00">Mirai::Serializable</text>
</a>
</g>
</g>
<!-- Node16&#45;&gt;Node18 -->
<g id="edge5" class="edge">
<title>Node16&#45;&gt;Node18</title>
<path fill="none" stroke="midnightblue" d="M111.36,-155.34C193.4,-156.5 339.74,-158.56 420.34,-159.69"/>
<polygon fill="midnightblue" stroke="midnightblue" points="111.25,-151.84 101.2,-155.2 111.15,-158.84 111.25,-151.84"/>
</g>
<!-- Node16&#45;&gt;Node19 -->
<g id="edge9" class="edge">
<title>Node16&#45;&gt;Node19</title>
<path fill="none" stroke="midnightblue" d="M111.18,-162.28C144.55,-166.63 185.11,-171.91 213.93,-175.67"/>
<polygon fill="midnightblue" stroke="midnightblue" points="111.44,-158.78 101.07,-160.96 110.53,-165.72 111.44,-158.78"/>
</g>
<!-- Node8 -->
<g id="node7" class="node">
<title>Node8</title>
<g id="a_node7"><a xlink:href="classMirai_1_1QQ__t.html" target="_top" xlink:title="QQ号码类型">
<polygon fill="none" stroke="red" points="216.5,-92.5 216.5,-112.5 287.5,-112.5 287.5,-92.5 216.5,-92.5"/>
<text text-anchor="middle" x="252" y="-99.7" font-family="-apple-system, BlinkMacSystemFont, 'Segoe UI', Roboto, Oxygen, Ubuntu, Cantarell, 'Fira Sans', 'Droid Sans', 'Helvetica Neue', sans-serif" font-size="11.00">Mirai::QQ_t</text>
</a>
</g>
</g>
<!-- Node8&#45;&gt;Node18 -->
<g id="edge6" class="edge">
<title>Node8&#45;&gt;Node18</title>
<path fill="none" stroke="#9a32cd" stroke-dasharray="5,2" d="M297.84,-104.97C318.52,-106.81 343.25,-109.99 365,-115.5 398.24,-123.92 434.76,-139.86 456.91,-150.33"/>
<polygon fill="#9a32cd" stroke="#9a32cd" points="297.99,-101.48 287.74,-104.16 297.42,-108.45 297.99,-101.48"/>
<text text-anchor="middle" x="341.5" y="-118.7" font-family="-apple-system, BlinkMacSystemFont, 'Segoe UI', Roboto, Oxygen, Ubuntu, Cantarell, 'Fira Sans', 'Droid Sans', 'Helvetica Neue', sans-serif" font-size="11.00"> id</text>
</g>
<!-- Node19&#45;&gt;Node18 -->
<g id="edge8" class="edge">
<title>Node19&#45;&gt;Node18</title>
<path fill="none" stroke="#9a32cd" stroke-dasharray="5,2" d="M300.48,-176.27C335.41,-173.16 383.07,-168.91 420.14,-165.61"/>
<polygon fill="#9a32cd" stroke="#9a32cd" points="299.72,-172.82 290.07,-177.2 300.34,-179.8 299.72,-172.82"/>
<text text-anchor="middle" x="341.5" y="-177.7" font-family="-apple-system, BlinkMacSystemFont, 'Segoe UI', Roboto, Oxygen, Ubuntu, Cantarell, 'Fira Sans', 'Droid Sans', 'Helvetica Neue', sans-serif" font-size="11.00"> group</text>
</g>
<!-- Node21 -->
<g id="node9" class="node">
<title>Node21</title>
<g id="a_node9"><a xlink:title=" ">
<polygon fill="none" stroke="black" points="383,-0.5 383,-44.5 574,-44.5 574,-0.5 383,-0.5"/>
<text text-anchor="start" x="391" y="-31.7" font-family="-apple-system, BlinkMacSystemFont, 'Segoe UI', Roboto, Oxygen, Ubuntu, Cantarell, 'Fira Sans', 'Droid Sans', 'Helvetica Neue', sans-serif" font-size="11.00">std::array&lt; std::string</text>
<text text-anchor="start" x="391" y="-19.7" font-family="-apple-system, BlinkMacSystemFont, 'Segoe UI', Roboto, Oxygen, Ubuntu, Cantarell, 'Fira Sans', 'Droid Sans', 'Helvetica Neue', sans-serif" font-size="11.00">_view, static_cast&lt; std</text>
<text text-anchor="middle" x="478.5" y="-7.7" font-family="-apple-system, BlinkMacSystemFont, 'Segoe UI', Roboto, Oxygen, Ubuntu, Cantarell, 'Fira Sans', 'Droid Sans', 'Helvetica Neue', sans-serif" font-size="11.00">::size_t &gt;(ActionKind::UNKNOWN)&gt;</text>
</a>
</g>
</g>
<!-- Node21&#45;&gt;Node1 -->
<g id="edge12" class="edge">
<title>Node21&#45;&gt;Node1</title>
<path fill="none" stroke="#9a32cd" stroke-dasharray="5,2" d="M584.26,-28.23C612.74,-33.07 642.69,-41.4 668,-55.5 706.6,-77 737.35,-120.59 752.06,-144.28"/>
<polygon fill="#9a32cd" stroke="#9a32cd" points="584.68,-24.75 574.26,-26.66 583.59,-31.67 584.68,-24.75"/>
<text text-anchor="middle" x="630" y="-58.7" font-family="-apple-system, BlinkMacSystemFont, 'Segoe UI', Roboto, Oxygen, Ubuntu, Cantarell, 'Fira Sans', 'Droid Sans', 'Helvetica Neue', sans-serif" font-size="11.00"> _ActionKindStr</text>
</g>
<!-- Node22 -->
<g id="node10" class="node">
<title>Node22</title>
<g id="a_node10"><a xlink:title=" ">
<polygon fill="none" stroke="red" points="206.5,-49.5 206.5,-69.5 297.5,-69.5 297.5,-49.5 206.5,-49.5"/>
<text text-anchor="middle" x="252" y="-56.7" font-family="-apple-system, BlinkMacSystemFont, 'Segoe UI', Roboto, Oxygen, Ubuntu, Cantarell, 'Fira Sans', 'Droid Sans', 'Helvetica Neue', sans-serif" font-size="11.00">std::string_view</text>
</a>
</g>
</g>
<!-- Node22&#45;&gt;Node1 -->
<g id="edge14" class="edge">
<title>Node22&#45;&gt;Node1</title>
<path fill="none" stroke="#9a32cd" stroke-dasharray="5,2" d="M307.53,-70.33C398.67,-88.43 582.13,-124.87 685.76,-145.46"/>
<polygon fill="#9a32cd" stroke="#9a32cd" points="308.17,-66.89 297.68,-68.37 306.81,-73.76 308.17,-66.89"/>
<text text-anchor="middle" x="478.5" y="-124.7" font-family="-apple-system, BlinkMacSystemFont, 'Segoe UI', Roboto, Oxygen, Ubuntu, Cantarell, 'Fira Sans', 'Droid Sans', 'Helvetica Neue', sans-serif" font-size="11.00"> _TYPE_</text>
</g>
<!-- Node22&#45;&gt;Node21 -->
<g id="edge13" class="edge">
<title>Node22&#45;&gt;Node21</title>
<path fill="none" stroke="#9a32cd" stroke-dasharray="5,2" d="M307.69,-50.49C330.31,-46.76 357.21,-42.33 382.84,-38.1"/>
<polygon fill="#9a32cd" stroke="#9a32cd" points="306.92,-47.07 297.62,-52.15 308.06,-53.97 306.92,-47.07"/>
<text text-anchor="middle" x="341.5" y="-52.7" font-family="-apple-system, BlinkMacSystemFont, 'Segoe UI', Roboto, Oxygen, Ubuntu, Cantarell, 'Fira Sans', 'Droid Sans', 'Helvetica Neue', sans-serif" font-size="11.00"> elements</text>
</g>
</g>
</svg>
