<?xml version="1.0" encoding="UTF-8" standalone="no"?>
<!DOCTYPE svg PUBLIC "-//W3C//DTD SVG 1.1//EN"
 "http://www.w3.org/Graphics/SVG/1.1/DTD/svg11.dtd">
<!-- Generated by graphviz version 2.43.0 (0)
 -->
<!-- Title: Mirai::BotInvitedJoinGroupRequestEvent Pages: 1 -->
<svg width="496pt" height="284pt"
 viewBox="0.00 0.00 495.50 284.00" xmlns="http://www.w3.org/2000/svg" xmlns:xlink="http://www.w3.org/1999/xlink">
<g id="graph0" class="graph" transform="scale(1 1) rotate(0) translate(4 280)">
<title>Mirai::BotInvitedJoinGroupRequestEvent</title>
<!-- Node1 -->
<g id="node1" class="node">
<title>Node1</title>
<g id="a_node1"><a xlink:title="Bot被邀请加群事件">
<polygon fill="#bfbfbf" stroke="black" points="159.5,-0.5 159.5,-32.5 319.5,-32.5 319.5,-0.5 159.5,-0.5"/>
<text text-anchor="start" x="167.5" y="-19.7" font-family="-apple-system,BlinkMacSystemFont,'SegoeUI',Roboto,Oxygen,Ubuntu,Cantarell,'FiraSans','DroidSans','HelveticaNeue',sans-serif" font-size="11.00">Mirai::BotInvitedJoinGroup</text>
<text text-anchor="middle" x="239.5" y="-7.7" font-family="-apple-system,BlinkMacSystemFont,'SegoeUI',Roboto,Oxygen,Ubuntu,Cantarell,'FiraSans','DroidSans','HelveticaNeue',sans-serif" font-size="11.00">RequestEvent</text>
</a>
</g>
</g>
<!-- Node2 -->
<g id="node2" class="node">
<title>Node2</title>
<g id="a_node2"><a xlink:href="classMirai_1_1EventBase.html" target="_top" xlink:title="Base class for all event types">
<polygon fill="none" stroke="black" points="59.5,-81.5 59.5,-101.5 169.5,-101.5 169.5,-81.5 59.5,-81.5"/>
<text text-anchor="middle" x="114.5" y="-88.7" font-family="-apple-system,BlinkMacSystemFont,'SegoeUI',Roboto,Oxygen,Ubuntu,Cantarell,'FiraSans','DroidSans','HelveticaNeue',sans-serif" font-size="11.00">Mirai::EventBase</text>
</a>
</g>
</g>
<!-- Node2&#45;&gt;Node1 -->
<g id="edge1" class="edge">
<title>Node2&#45;&gt;Node1</title>
<path fill="none" stroke="midnightblue" d="M138.94,-76.23C160.49,-63.64 191.77,-45.37 213.71,-32.56"/>
<polygon fill="midnightblue" stroke="midnightblue" points="136.95,-73.34 130.08,-81.4 140.48,-79.38 136.95,-73.34"/>
</g>
<!-- Node3 -->
<g id="node3" class="node">
<title>Node3</title>
<g id="a_node3"><a xlink:href="classMirai_1_1MiraiClient.html" target="_top" xlink:title="提供与mirai&#45;api&#45;http网络交互的封装">
<polygon fill="none" stroke="red" points="48.5,-180.5 48.5,-200.5 158.5,-200.5 158.5,-180.5 48.5,-180.5"/>
<text text-anchor="middle" x="103.5" y="-187.7" font-family="-apple-system,BlinkMacSystemFont,'SegoeUI',Roboto,Oxygen,Ubuntu,Cantarell,'FiraSans','DroidSans','HelveticaNeue',sans-serif" font-size="11.00">Mirai::MiraiClient</text>
</a>
</g>
</g>
<!-- Node3&#45;&gt;Node2 -->
<g id="edge2" class="edge">
<title>Node3&#45;&gt;Node2</title>
<path fill="none" stroke="#9a32cd" stroke-dasharray="5,2" d="M105.71,-169.98C108.07,-149.2 111.7,-117.2 113.46,-101.63"/>
<polygon fill="#9a32cd" stroke="#9a32cd" points="102.2,-169.87 104.55,-180.2 109.16,-170.66 102.2,-169.87"/>
<text text-anchor="middle" x="131.5" y="-135.2" font-family="-apple-system,BlinkMacSystemFont,'SegoeUI',Roboto,Oxygen,Ubuntu,Cantarell,'FiraSans','DroidSans','HelveticaNeue',sans-serif" font-size="11.00"> _client</text>
</g>
<!-- Node7 -->
<g id="node4" class="node">
<title>Node7</title>
<g id="a_node4"><a xlink:title="STL class">
<polygon fill="none" stroke="#bfbfbf" points="0,-255.5 0,-275.5 73,-275.5 73,-255.5 0,-255.5"/>
<text text-anchor="middle" x="36.5" y="-262.7" font-family="-apple-system,BlinkMacSystemFont,'SegoeUI',Roboto,Oxygen,Ubuntu,Cantarell,'FiraSans','DroidSans','HelveticaNeue',sans-serif" font-size="11.00">std::string</text>
</a>
</g>
</g>
<!-- Node7&#45;&gt;Node1 -->
<g id="edge6" class="edge">
<title>Node7&#45;&gt;Node1</title>
<path fill="none" stroke="#9a32cd" stroke-dasharray="5,2" d="M30.72,-245.69C20.39,-207.89 3.96,-122.75 50.5,-81 80.52,-54.07 122.35,-38.5 159.04,-29.53"/>
<polygon fill="#9a32cd" stroke="#9a32cd" points="27.39,-246.78 33.53,-255.42 34.11,-244.84 27.39,-246.78"/>
<text text-anchor="middle" x="62" y="-147.2" font-family="-apple-system,BlinkMacSystemFont,'SegoeUI',Roboto,Oxygen,Ubuntu,Cantarell,'FiraSans','DroidSans','HelveticaNeue',sans-serif" font-size="11.00"> _message</text>
<text text-anchor="middle" x="62" y="-135.2" font-family="-apple-system,BlinkMacSystemFont,'SegoeUI',Roboto,Oxygen,Ubuntu,Cantarell,'FiraSans','DroidSans','HelveticaNeue',sans-serif" font-size="11.00">_nickname</text>
<text text-anchor="middle" x="62" y="-123.2" font-family="-apple-system,BlinkMacSystemFont,'SegoeUI',Roboto,Oxygen,Ubuntu,Cantarell,'FiraSans','DroidSans','HelveticaNeue',sans-serif" font-size="11.00">_GroupName</text>
</g>
<!-- Node7&#45;&gt;Node3 -->
<g id="edge3" class="edge">
<title>Node7&#45;&gt;Node3</title>
<path fill="none" stroke="#9a32cd" stroke-dasharray="5,2" d="M52.11,-247.49C65.43,-232.98 84.09,-212.65 94.87,-200.9"/>
<polygon fill="#9a32cd" stroke="#9a32cd" points="49.17,-245.52 44.99,-255.25 54.33,-250.25 49.17,-245.52"/>
<text text-anchor="middle" x="108.5" y="-228.2" font-family="-apple-system,BlinkMacSystemFont,'SegoeUI',Roboto,Oxygen,Ubuntu,Cantarell,'FiraSans','DroidSans','HelveticaNeue',sans-serif" font-size="11.00"> _SessionKey</text>
</g>
<!-- Node18 -->
<g id="node5" class="node">
<title>Node18</title>
<g id="a_node5"><a xlink:title="STL class">
<polygon fill="none" stroke="#bfbfbf" points="187.5,-81.5 187.5,-101.5 291.5,-101.5 291.5,-81.5 187.5,-81.5"/>
<text text-anchor="middle" x="239.5" y="-88.7" font-family="-apple-system,BlinkMacSystemFont,'SegoeUI',Roboto,Oxygen,Ubuntu,Cantarell,'FiraSans','DroidSans','HelveticaNeue',sans-serif" font-size="11.00">std::string_view</text>
</a>
</g>
</g>
<!-- Node18&#45;&gt;Node1 -->
<g id="edge4" class="edge">
<title>Node18&#45;&gt;Node1</title>
<path fill="none" stroke="#9a32cd" stroke-dasharray="5,2" d="M239.5,-70.96C239.5,-58.98 239.5,-43.87 239.5,-32.77"/>
<polygon fill="#9a32cd" stroke="#9a32cd" points="236,-71.25 239.5,-81.25 243,-71.25 236,-71.25"/>
<text text-anchor="middle" x="260.5" y="-54.2" font-family="-apple-system,BlinkMacSystemFont,'SegoeUI',Roboto,Oxygen,Ubuntu,Cantarell,'FiraSans','DroidSans','HelveticaNeue',sans-serif" font-size="11.00"> _TYPE_</text>
</g>
<!-- Node19 -->
<g id="node6" class="node">
<title>Node19</title>
<g id="a_node6"><a xlink:title="STL class">
<polygon fill="none" stroke="#bfbfbf" points="177,-174.5 177,-206.5 314,-206.5 314,-174.5 177,-174.5"/>
<text text-anchor="start" x="185" y="-193.7" font-family="-apple-system,BlinkMacSystemFont,'SegoeUI',Roboto,Oxygen,Ubuntu,Cantarell,'FiraSans','DroidSans','HelveticaNeue',sans-serif" font-size="11.00">std::basic_string_view</text>
<text text-anchor="middle" x="245.5" y="-181.7" font-family="-apple-system,BlinkMacSystemFont,'SegoeUI',Roboto,Oxygen,Ubuntu,Cantarell,'FiraSans','DroidSans','HelveticaNeue',sans-serif" font-size="11.00">&lt; char &gt;</text>
</a>
</g>
</g>
<!-- Node19&#45;&gt;Node18 -->
<g id="edge5" class="edge">
<title>Node19&#45;&gt;Node18</title>
<path fill="none" stroke="midnightblue" d="M243.93,-164.1C242.66,-143.6 240.95,-115.9 240.07,-101.71"/>
<polygon fill="midnightblue" stroke="midnightblue" points="240.45,-164.58 244.56,-174.34 247.44,-164.15 240.45,-164.58"/>
</g>
<!-- Node5 -->
<g id="node7" class="node">
<title>Node5</title>
<g id="a_node7"><a xlink:href="classMirai_1_1QQ__t.html" target="_top" xlink:title="QQ号码类型">
<polygon fill="none" stroke="black" points="310,-81.5 310,-101.5 389,-101.5 389,-81.5 310,-81.5"/>
<text text-anchor="middle" x="349.5" y="-88.7" font-family="-apple-system,BlinkMacSystemFont,'SegoeUI',Roboto,Oxygen,Ubuntu,Cantarell,'FiraSans','DroidSans','HelveticaNeue',sans-serif" font-size="11.00">Mirai::QQ_t</text>
</a>
</g>
</g>
<!-- Node5&#45;&gt;Node1 -->
<g id="edge7" class="edge">
<title>Node5&#45;&gt;Node1</title>
<path fill="none" stroke="#9a32cd" stroke-dasharray="5,2" d="M327.04,-75.59C308.22,-63.11 281.47,-45.36 262.51,-32.77"/>
<polygon fill="#9a32cd" stroke="#9a32cd" points="325.3,-78.64 335.57,-81.25 329.17,-72.81 325.3,-78.64"/>
<text text-anchor="middle" x="331.5" y="-54.2" font-family="-apple-system,BlinkMacSystemFont,'SegoeUI',Roboto,Oxygen,Ubuntu,Cantarell,'FiraSans','DroidSans','HelveticaNeue',sans-serif" font-size="11.00"> _FromId</text>
</g>
<!-- Node6 -->
<g id="node8" class="node">
<title>Node6</title>
<g id="a_node8"><a xlink:href="classMirai_1_1UID__t.html" target="_top" xlink:title="Base class for QQ_t and GID_t">
<polygon fill="none" stroke="black" points="360.5,-180.5 360.5,-200.5 440.5,-200.5 440.5,-180.5 360.5,-180.5"/>
<text text-anchor="middle" x="400.5" y="-187.7" font-family="-apple-system,BlinkMacSystemFont,'SegoeUI',Roboto,Oxygen,Ubuntu,Cantarell,'FiraSans','DroidSans','HelveticaNeue',sans-serif" font-size="11.00">Mirai::UID_t</text>
</a>
</g>
</g>
<!-- Node6&#45;&gt;Node5 -->
<g id="edge8" class="edge">
<title>Node6&#45;&gt;Node5</title>
<path fill="none" stroke="midnightblue" d="M390.84,-171.12C379.94,-150.39 362.64,-117.48 354.3,-101.63"/>
<polygon fill="midnightblue" stroke="midnightblue" points="387.86,-172.98 395.61,-180.2 394.05,-169.72 387.86,-172.98"/>
</g>
<!-- Node20 -->
<g id="node9" class="node">
<title>Node20</title>
<g id="a_node9"><a xlink:href="classMirai_1_1GID__t.html" target="_top" xlink:title="群聊号码类型">
<polygon fill="none" stroke="black" points="407.5,-81.5 407.5,-101.5 487.5,-101.5 487.5,-81.5 407.5,-81.5"/>
<text text-anchor="middle" x="447.5" y="-88.7" font-family="-apple-system,BlinkMacSystemFont,'SegoeUI',Roboto,Oxygen,Ubuntu,Cantarell,'FiraSans','DroidSans','HelveticaNeue',sans-serif" font-size="11.00">Mirai::GID_t</text>
</a>
</g>
</g>
<!-- Node6&#45;&gt;Node20 -->
<g id="edge10" class="edge">
<title>Node6&#45;&gt;Node20</title>
<path fill="none" stroke="midnightblue" d="M409.4,-171.12C419.45,-150.39 435.39,-117.48 443.08,-101.63"/>
<polygon fill="midnightblue" stroke="midnightblue" points="406.22,-169.67 405.01,-180.2 412.52,-172.73 406.22,-169.67"/>
</g>
<!-- Node20&#45;&gt;Node1 -->
<g id="edge9" class="edge">
<title>Node20&#45;&gt;Node1</title>
<path fill="none" stroke="#9a32cd" stroke-dasharray="5,2" d="M419.56,-76.86C402.23,-68.72 379.37,-58.53 358.5,-51 339.52,-44.16 318.44,-37.82 299.35,-32.55"/>
<polygon fill="#9a32cd" stroke="#9a32cd" points="418.53,-80.25 429.07,-81.39 421.54,-73.93 418.53,-80.25"/>
<text text-anchor="middle" x="414.5" y="-54.2" font-family="-apple-system,BlinkMacSystemFont,'SegoeUI',Roboto,Oxygen,Ubuntu,Cantarell,'FiraSans','DroidSans','HelveticaNeue',sans-serif" font-size="11.00"> _GroupId</text>
</g>
</g>
</svg>
