<?xml version="1.0" encoding="UTF-8" standalone="no"?>
<!DOCTYPE svg PUBLIC "-//W3C//DTD SVG 1.1//EN"
 "http://www.w3.org/Graphics/SVG/1.1/DTD/svg11.dtd">
<!-- Generated by graphviz version 3.0.0 (20221109.1736)
 -->
<!-- Title: Mirai::MemberLeaveEventQuit Pages: 1 -->
<svg width="169pt" height="167pt"
 viewBox="0.00 0.00 169.00 167.00" xmlns="http://www.w3.org/2000/svg" xmlns:xlink="http://www.w3.org/1999/xlink">
<g id="graph0" class="graph" transform="scale(1 1) rotate(0) translate(4 163)">
<title>Mirai::MemberLeaveEventQuit</title>
<!-- Node1 -->
<g id="node1" class="node">
<title>Node1</title>
<g id="a_node1"><a xlink:title="成员主动退出群聊事件">
<polygon fill="#bfbfbf" stroke="black" points="0,-0.5 0,-20.5 161,-20.5 161,-0.5 0,-0.5"/>
<text text-anchor="middle" x="80.5" y="-7.7" font-family="-apple-system, BlinkMacSystemFont, 'Segoe UI', Roboto, Oxygen, Ubuntu, Cantarell, 'Fira Sans', 'Droid Sans', 'Helvetica Neue', sans-serif" font-size="11.00">Mirai::MemberLeaveEventQuit</text>
</a>
</g>
</g>
<!-- Node2 -->
<g id="node2" class="node">
<title>Node2</title>
<g id="a_node2"><a xlink:href="classMirai_1_1MemberLeaveEvent.html" target="_top" xlink:title=" ">
<polygon fill="none" stroke="black" points="4.5,-57.5 4.5,-89.5 156.5,-89.5 156.5,-57.5 4.5,-57.5"/>
<text text-anchor="start" x="12.5" y="-76.7" font-family="-apple-system, BlinkMacSystemFont, 'Segoe UI', Roboto, Oxygen, Ubuntu, Cantarell, 'Fira Sans', 'Droid Sans', 'Helvetica Neue', sans-serif" font-size="11.00">Mirai::MemberLeaveEvent</text>
<text text-anchor="middle" x="80.5" y="-64.7" font-family="-apple-system, BlinkMacSystemFont, 'Segoe UI', Roboto, Oxygen, Ubuntu, Cantarell, 'Fira Sans', 'Droid Sans', 'Helvetica Neue', sans-serif" font-size="11.00">&lt; MemberLeaveEventQuit &gt;</text>
</a>
</g>
</g>
<!-- Node2&#45;&gt;Node1 -->
<g id="edge1" class="edge">
<title>Node2&#45;&gt;Node1</title>
<path fill="none" stroke="midnightblue" d="M80.5,-47.23C80.5,-37.76 80.5,-27.6 80.5,-20.55"/>
<polygon fill="midnightblue" stroke="midnightblue" points="77,-47.42 80.5,-57.42 84,-47.42 77,-47.42"/>
</g>
<!-- Node3 -->
<g id="node3" class="node">
<title>Node3</title>
<g id="a_node3"><a xlink:href="classMirai_1_1IEvent.html" target="_top" xlink:title=" ">
<polygon fill="none" stroke="black" points="3,-126.5 3,-158.5 158,-158.5 158,-126.5 3,-126.5"/>
<text text-anchor="start" x="11" y="-145.7" font-family="-apple-system, BlinkMacSystemFont, 'Segoe UI', Roboto, Oxygen, Ubuntu, Cantarell, 'Fira Sans', 'Droid Sans', 'Helvetica Neue', sans-serif" font-size="11.00">Mirai::IEvent&lt; MemberLeave</text>
<text text-anchor="middle" x="80.5" y="-133.7" font-family="-apple-system, BlinkMacSystemFont, 'Segoe UI', Roboto, Oxygen, Ubuntu, Cantarell, 'Fira Sans', 'Droid Sans', 'Helvetica Neue', sans-serif" font-size="11.00">EventQuit &gt;</text>
</a>
</g>
</g>
<!-- Node3&#45;&gt;Node2 -->
<g id="edge2" class="edge">
<title>Node3&#45;&gt;Node2</title>
<path fill="none" stroke="midnightblue" d="M80.5,-116.02C80.5,-107.13 80.5,-97.43 80.5,-89.64"/>
<polygon fill="midnightblue" stroke="midnightblue" points="77,-116.3 80.5,-126.3 84,-116.3 77,-116.3"/>
</g>
</g>
</svg>
