<?xml version="1.0" encoding="UTF-8" standalone="no"?>
<!DOCTYPE svg PUBLIC "-//W3C//DTD SVG 1.1//EN"
 "http://www.w3.org/Graphics/SVG/1.1/DTD/svg11.dtd">
<!-- Generated by graphviz version 2.43.0 (0)
 -->
<!-- Title: Mirai::FriendInputStatusChangedEvent Pages: 1 -->
<svg width="349pt" height="191pt"
 viewBox="0.00 0.00 348.50 191.00" xmlns="http://www.w3.org/2000/svg" xmlns:xlink="http://www.w3.org/1999/xlink">
<g id="graph0" class="graph" transform="scale(1 1) rotate(0) translate(4 187)">
<title>Mirai::FriendInputStatusChangedEvent</title>
<!-- Node1 -->
<g id="node1" class="node">
<title>Node1</title>
<g id="a_node1"><a xlink:title="好友输入状态改变事件">
<polygon fill="#bfbfbf" stroke="black" points="119.5,-0.5 119.5,-32.5 266.5,-32.5 266.5,-0.5 119.5,-0.5"/>
<text text-anchor="start" x="127.5" y="-19.7" font-family="-apple-system,BlinkMacSystemFont,'SegoeUI',Roboto,Oxygen,Ubuntu,Cantarell,'FiraSans','DroidSans','HelveticaNeue',sans-serif" font-size="11.00">Mirai::FriendInputStatus</text>
<text text-anchor="middle" x="193" y="-7.7" font-family="-apple-system,BlinkMacSystemFont,'SegoeUI',Roboto,Oxygen,Ubuntu,Cantarell,'FiraSans','DroidSans','HelveticaNeue',sans-serif" font-size="11.00">ChangedEvent</text>
</a>
</g>
</g>
<!-- Node2 -->
<g id="node2" class="node">
<title>Node2</title>
<g id="a_node2"><a xlink:href="classMirai_1_1EventBase.html" target="_top" xlink:title="Base class for all event types">
<polygon fill="none" stroke="black" points="5,-81.5 5,-101.5 115,-101.5 115,-81.5 5,-81.5"/>
<text text-anchor="middle" x="60" y="-88.7" font-family="-apple-system,BlinkMacSystemFont,'SegoeUI',Roboto,Oxygen,Ubuntu,Cantarell,'FiraSans','DroidSans','HelveticaNeue',sans-serif" font-size="11.00">Mirai::EventBase</text>
</a>
</g>
</g>
<!-- Node2&#45;&gt;Node1 -->
<g id="edge1" class="edge">
<title>Node2&#45;&gt;Node1</title>
<path fill="none" stroke="midnightblue" d="M85.39,-76.56C108.33,-63.97 142.01,-45.49 165.56,-32.56"/>
<polygon fill="midnightblue" stroke="midnightblue" points="83.66,-73.52 76.58,-81.4 87.03,-79.66 83.66,-73.52"/>
</g>
<!-- Node3 -->
<g id="node3" class="node">
<title>Node3</title>
<g id="a_node3"><a xlink:href="classMirai_1_1MiraiClient.html" target="_top" xlink:title="提供与mirai&#45;api&#45;http网络交互的封装">
<polygon fill="none" stroke="red" points="0,-156.5 0,-176.5 110,-176.5 110,-156.5 0,-156.5"/>
<text text-anchor="middle" x="55" y="-163.7" font-family="-apple-system,BlinkMacSystemFont,'SegoeUI',Roboto,Oxygen,Ubuntu,Cantarell,'FiraSans','DroidSans','HelveticaNeue',sans-serif" font-size="11.00">Mirai::MiraiClient</text>
</a>
</g>
</g>
<!-- Node3&#45;&gt;Node2 -->
<g id="edge2" class="edge">
<title>Node3&#45;&gt;Node2</title>
<path fill="none" stroke="#9a32cd" stroke-dasharray="5,2" d="M56.34,-146C57.31,-131.73 58.6,-112.99 59.36,-101.9"/>
<polygon fill="#9a32cd" stroke="#9a32cd" points="52.82,-146.04 55.63,-156.25 59.81,-146.52 52.82,-146.04"/>
<text text-anchor="middle" x="79" y="-123.2" font-family="-apple-system,BlinkMacSystemFont,'SegoeUI',Roboto,Oxygen,Ubuntu,Cantarell,'FiraSans','DroidSans','HelveticaNeue',sans-serif" font-size="11.00"> _client</text>
</g>
<!-- Node18 -->
<g id="node4" class="node">
<title>Node18</title>
<g id="a_node4"><a xlink:title="STL class">
<polygon fill="none" stroke="#bfbfbf" points="141,-81.5 141,-101.5 245,-101.5 245,-81.5 141,-81.5"/>
<text text-anchor="middle" x="193" y="-88.7" font-family="-apple-system,BlinkMacSystemFont,'SegoeUI',Roboto,Oxygen,Ubuntu,Cantarell,'FiraSans','DroidSans','HelveticaNeue',sans-serif" font-size="11.00">std::string_view</text>
</a>
</g>
</g>
<!-- Node18&#45;&gt;Node1 -->
<g id="edge3" class="edge">
<title>Node18&#45;&gt;Node1</title>
<path fill="none" stroke="#9a32cd" stroke-dasharray="5,2" d="M193,-70.96C193,-58.98 193,-43.87 193,-32.77"/>
<polygon fill="#9a32cd" stroke="#9a32cd" points="189.5,-71.25 193,-81.25 196.5,-71.25 189.5,-71.25"/>
<text text-anchor="middle" x="214" y="-54.2" font-family="-apple-system,BlinkMacSystemFont,'SegoeUI',Roboto,Oxygen,Ubuntu,Cantarell,'FiraSans','DroidSans','HelveticaNeue',sans-serif" font-size="11.00"> _TYPE_</text>
</g>
<!-- Node19 -->
<g id="node5" class="node">
<title>Node19</title>
<g id="a_node5"><a xlink:title="STL class">
<polygon fill="none" stroke="#bfbfbf" points="128.5,-150.5 128.5,-182.5 265.5,-182.5 265.5,-150.5 128.5,-150.5"/>
<text text-anchor="start" x="136.5" y="-169.7" font-family="-apple-system,BlinkMacSystemFont,'SegoeUI',Roboto,Oxygen,Ubuntu,Cantarell,'FiraSans','DroidSans','HelveticaNeue',sans-serif" font-size="11.00">std::basic_string_view</text>
<text text-anchor="middle" x="197" y="-157.7" font-family="-apple-system,BlinkMacSystemFont,'SegoeUI',Roboto,Oxygen,Ubuntu,Cantarell,'FiraSans','DroidSans','HelveticaNeue',sans-serif" font-size="11.00">&lt; char &gt;</text>
</a>
</g>
</g>
<!-- Node19&#45;&gt;Node18 -->
<g id="edge4" class="edge">
<title>Node19&#45;&gt;Node18</title>
<path fill="none" stroke="midnightblue" d="M195.62,-140.28C194.88,-126.89 194.03,-111.26 193.5,-101.62"/>
<polygon fill="midnightblue" stroke="midnightblue" points="192.13,-140.58 196.17,-150.37 199.12,-140.2 192.13,-140.58"/>
</g>
<!-- Node11 -->
<g id="node6" class="node">
<title>Node11</title>
<g id="a_node6"><a xlink:href="structMirai_1_1User.html" target="_top" xlink:title="QQ用户">
<polygon fill="none" stroke="red" points="263.5,-81.5 263.5,-101.5 340.5,-101.5 340.5,-81.5 263.5,-81.5"/>
<text text-anchor="middle" x="302" y="-88.7" font-family="-apple-system,BlinkMacSystemFont,'SegoeUI',Roboto,Oxygen,Ubuntu,Cantarell,'FiraSans','DroidSans','HelveticaNeue',sans-serif" font-size="11.00">Mirai::User</text>
</a>
</g>
</g>
<!-- Node11&#45;&gt;Node1 -->
<g id="edge5" class="edge">
<title>Node11&#45;&gt;Node1</title>
<path fill="none" stroke="#9a32cd" stroke-dasharray="5,2" d="M279.74,-75.59C261.1,-63.11 234.59,-45.36 215.8,-32.77"/>
<polygon fill="#9a32cd" stroke="#9a32cd" points="277.94,-78.6 288.2,-81.25 281.83,-72.78 277.94,-78.6"/>
<text text-anchor="middle" x="280.5" y="-54.2" font-family="-apple-system,BlinkMacSystemFont,'SegoeUI',Roboto,Oxygen,Ubuntu,Cantarell,'FiraSans','DroidSans','HelveticaNeue',sans-serif" font-size="11.00"> _friend</text>
</g>
</g>
</svg>
