<?xml version="1.0" encoding="UTF-8" standalone="no"?>
<!DOCTYPE svg PUBLIC "-//W3C//DTD SVG 1.1//EN"
 "http://www.w3.org/Graphics/SVG/1.1/DTD/svg11.dtd">
<!-- Generated by graphviz version 2.43.0 (0)
 -->
<!-- Title: Mirai::FilePath Pages: 1 -->
<svg width="124pt" height="168pt"
 viewBox="0.00 0.00 124.00 168.00" xmlns="http://www.w3.org/2000/svg" xmlns:xlink="http://www.w3.org/1999/xlink">
<g id="graph0" class="graph" transform="scale(1 1) rotate(0) translate(4 164)">
<title>Mirai::FilePath</title>
<!-- Node1 -->
<g id="node1" class="node">
<title>Node1</title>
<g id="a_node1"><a xlink:title="文件路径">
<polygon fill="#bfbfbf" stroke="black" points="11.5,-0.5 11.5,-20.5 104.5,-20.5 104.5,-0.5 11.5,-0.5"/>
<text text-anchor="middle" x="58" y="-7.7" font-family="-apple-system,BlinkMacSystemFont,'SegoeUI',Roboto,Oxygen,Ubuntu,Cantarell,'FiraSans','DroidSans','HelveticaNeue',sans-serif" font-size="11.00">Mirai::FilePath</text>
</a>
</g>
</g>
<!-- Node2 -->
<g id="node2" class="node">
<title>Node2</title>
<g id="a_node2"><a xlink:title="STL class">
<polygon fill="none" stroke="#bfbfbf" points="21.5,-69.5 21.5,-89.5 94.5,-89.5 94.5,-69.5 21.5,-69.5"/>
<text text-anchor="middle" x="58" y="-76.7" font-family="-apple-system,BlinkMacSystemFont,'SegoeUI',Roboto,Oxygen,Ubuntu,Cantarell,'FiraSans','DroidSans','HelveticaNeue',sans-serif" font-size="11.00">std::string</text>
</a>
</g>
</g>
<!-- Node2&#45;&gt;Node1 -->
<g id="edge1" class="edge">
<title>Node2&#45;&gt;Node1</title>
<path fill="none" stroke="#9a32cd" stroke-dasharray="5,2" d="M58,-59.08C58,-46.5 58,-30.68 58,-20.82"/>
<polygon fill="#9a32cd" stroke="#9a32cd" points="54.5,-59.46 58,-69.46 61.5,-59.46 54.5,-59.46"/>
<text text-anchor="middle" x="70" y="-42.2" font-family="-apple-system,BlinkMacSystemFont,'SegoeUI',Roboto,Oxygen,Ubuntu,Cantarell,'FiraSans','DroidSans','HelveticaNeue',sans-serif" font-size="11.00"> _dir</text>
</g>
<!-- Node3 -->
<g id="node3" class="node">
<title>Node3</title>
<g id="a_node3"><a xlink:title="STL class">
<polygon fill="none" stroke="#bfbfbf" points="0,-127.5 0,-159.5 116,-159.5 116,-127.5 0,-127.5"/>
<text text-anchor="start" x="8" y="-146.7" font-family="-apple-system,BlinkMacSystemFont,'SegoeUI',Roboto,Oxygen,Ubuntu,Cantarell,'FiraSans','DroidSans','HelveticaNeue',sans-serif" font-size="11.00">std::basic_string&lt;</text>
<text text-anchor="middle" x="58" y="-134.7" font-family="-apple-system,BlinkMacSystemFont,'SegoeUI',Roboto,Oxygen,Ubuntu,Cantarell,'FiraSans','DroidSans','HelveticaNeue',sans-serif" font-size="11.00"> char &gt;</text>
</a>
</g>
</g>
<!-- Node3&#45;&gt;Node2 -->
<g id="edge2" class="edge">
<title>Node3&#45;&gt;Node2</title>
<path fill="none" stroke="midnightblue" d="M58,-117.42C58,-107.67 58,-97.11 58,-89.79"/>
<polygon fill="midnightblue" stroke="midnightblue" points="54.5,-117.49 58,-127.49 61.5,-117.49 54.5,-117.49"/>
</g>
</g>
</svg>
