<?xml version="1.0" encoding="UTF-8" standalone="no"?>
<!DOCTYPE svg PUBLIC "-//W3C//DTD SVG 1.1//EN"
 "http://www.w3.org/Graphics/SVG/1.1/DTD/svg11.dtd">
<!-- Generated by graphviz version 3.0.0 (20220413.0242)
 -->
<!-- Title: Mirai::AudioMessage Pages: 1 -->
<svg width="362pt" height="215pt"
 viewBox="0.00 0.00 362.00 215.00" xmlns="http://www.w3.org/2000/svg" xmlns:xlink="http://www.w3.org/1999/xlink">
<g id="graph0" class="graph" transform="scale(1 1) rotate(0) translate(4 211)">
<title>Mirai::AudioMessage</title>
<!-- Node1 -->
<g id="node1" class="node">
<title>Node1</title>
<g id="a_node1"><a xlink:title="语音消息">
<polygon fill="#bfbfbf" stroke="black" points="122.5,-0.5 122.5,-20.5 239.5,-20.5 239.5,-0.5 122.5,-0.5"/>
<text text-anchor="middle" x="181" y="-7.7" font-family="-apple-system, BlinkMacSystemFont, 'Segoe UI', Roboto, Oxygen, Ubuntu, Cantarell, 'Fira Sans', 'Droid Sans', 'Helvetica Neue', sans-serif" font-size="11.00">Mirai::AudioMessage</text>
</a>
</g>
</g>
<!-- Node2 -->
<g id="node2" class="node">
<title>Node2</title>
<g id="a_node2"><a xlink:href="classMirai_1_1MessageBase.html" target="_top" xlink:title="Base class for all message types">
<polygon fill="none" stroke="black" points="0,-69.5 0,-89.5 114,-89.5 114,-69.5 0,-69.5"/>
<text text-anchor="middle" x="57" y="-76.7" font-family="-apple-system, BlinkMacSystemFont, 'Segoe UI', Roboto, Oxygen, Ubuntu, Cantarell, 'Fira Sans', 'Droid Sans', 'Helvetica Neue', sans-serif" font-size="11.00">Mirai::MessageBase</text>
</a>
</g>
</g>
<!-- Node2&#45;&gt;Node1 -->
<g id="edge1" class="edge">
<title>Node2&#45;&gt;Node1</title>
<path fill="none" stroke="midnightblue" d="M82.78,-64.57C107.21,-51.37 143.19,-31.93 164.15,-20.61"/>
<polygon fill="midnightblue" stroke="midnightblue" points="80.86,-61.63 73.72,-69.46 84.18,-67.79 80.86,-61.63"/>
</g>
<!-- Node3 -->
<g id="node3" class="node">
<title>Node3</title>
<g id="a_node3"><a xlink:href="classMirai_1_1Serializable.html" target="_top" xlink:title="Base class for all json serializable type">
<polygon fill="none" stroke="black" points="24.5,-180.5 24.5,-200.5 125.5,-200.5 125.5,-180.5 24.5,-180.5"/>
<text text-anchor="middle" x="75" y="-187.7" font-family="-apple-system, BlinkMacSystemFont, 'Segoe UI', Roboto, Oxygen, Ubuntu, Cantarell, 'Fira Sans', 'Droid Sans', 'Helvetica Neue', sans-serif" font-size="11.00">Mirai::Serializable</text>
</a>
</g>
</g>
<!-- Node3&#45;&gt;Node2 -->
<g id="edge2" class="edge">
<title>Node3&#45;&gt;Node2</title>
<path fill="none" stroke="midnightblue" d="M71.83,-170.3C67.93,-146.68 61.46,-107.53 58.53,-89.77"/>
<polygon fill="midnightblue" stroke="midnightblue" points="68.38,-170.91 73.47,-180.21 75.29,-169.77 68.38,-170.91"/>
</g>
<!-- Node4 -->
<g id="node4" class="node">
<title>Node4</title>
<g id="a_node4"><a xlink:href="structMirai_1_1MiraiAudio.html" target="_top" xlink:title="Mirai语音">
<polygon fill="none" stroke="black" points="132.5,-69.5 132.5,-89.5 229.5,-89.5 229.5,-69.5 132.5,-69.5"/>
<text text-anchor="middle" x="181" y="-76.7" font-family="-apple-system, BlinkMacSystemFont, 'Segoe UI', Roboto, Oxygen, Ubuntu, Cantarell, 'Fira Sans', 'Droid Sans', 'Helvetica Neue', sans-serif" font-size="11.00">Mirai::MiraiAudio</text>
</a>
</g>
</g>
<!-- Node3&#45;&gt;Node4 -->
<g id="edge4" class="edge">
<title>Node3&#45;&gt;Node4</title>
<path fill="none" stroke="midnightblue" d="M91.24,-172.8C113.86,-149.54 154.09,-108.17 171.99,-89.77"/>
<polygon fill="midnightblue" stroke="midnightblue" points="88.5,-170.6 84.04,-180.21 93.52,-175.48 88.5,-170.6"/>
</g>
<!-- Node4&#45;&gt;Node1 -->
<g id="edge3" class="edge">
<title>Node4&#45;&gt;Node1</title>
<path fill="none" stroke="#9a32cd" stroke-dasharray="5,2" d="M181,-59.08C181,-46.5 181,-30.68 181,-20.82"/>
<polygon fill="#9a32cd" stroke="#9a32cd" points="177.5,-59.46 181,-69.46 184.5,-59.46 177.5,-59.46"/>
<text text-anchor="middle" x="199" y="-42.2" font-family="-apple-system, BlinkMacSystemFont, 'Segoe UI', Roboto, Oxygen, Ubuntu, Cantarell, 'Fira Sans', 'Droid Sans', 'Helvetica Neue', sans-serif" font-size="11.00"> _audio</text>
</g>
<!-- Node5 -->
<g id="node5" class="node">
<title>Node5</title>
<g id="a_node5"><a xlink:title=" ">
<polygon fill="none" stroke="red" points="149.5,-180.5 149.5,-200.5 212.5,-200.5 212.5,-180.5 149.5,-180.5"/>
<text text-anchor="middle" x="181" y="-187.7" font-family="-apple-system, BlinkMacSystemFont, 'Segoe UI', Roboto, Oxygen, Ubuntu, Cantarell, 'Fira Sans', 'Droid Sans', 'Helvetica Neue', sans-serif" font-size="11.00">std::string</text>
</a>
</g>
</g>
<!-- Node5&#45;&gt;Node4 -->
<g id="edge5" class="edge">
<title>Node5&#45;&gt;Node4</title>
<path fill="none" stroke="#9a32cd" stroke-dasharray="5,2" d="M181,-169.98C181,-146.32 181,-107.45 181,-89.77"/>
<polygon fill="#9a32cd" stroke="#9a32cd" points="177.5,-170.21 181,-180.21 184.5,-170.21 177.5,-170.21"/>
<text text-anchor="middle" x="200.5" y="-147.2" font-family="-apple-system, BlinkMacSystemFont, 'Segoe UI', Roboto, Oxygen, Ubuntu, Cantarell, 'Fira Sans', 'Droid Sans', 'Helvetica Neue', sans-serif" font-size="11.00"> base64</text>
<text text-anchor="middle" x="200.5" y="-135.2" font-family="-apple-system, BlinkMacSystemFont, 'Segoe UI', Roboto, Oxygen, Ubuntu, Cantarell, 'Fira Sans', 'Droid Sans', 'Helvetica Neue', sans-serif" font-size="11.00">id</text>
<text text-anchor="middle" x="200.5" y="-123.2" font-family="-apple-system, BlinkMacSystemFont, 'Segoe UI', Roboto, Oxygen, Ubuntu, Cantarell, 'Fira Sans', 'Droid Sans', 'Helvetica Neue', sans-serif" font-size="11.00">path</text>
<text text-anchor="middle" x="200.5" y="-111.2" font-family="-apple-system, BlinkMacSystemFont, 'Segoe UI', Roboto, Oxygen, Ubuntu, Cantarell, 'Fira Sans', 'Droid Sans', 'Helvetica Neue', sans-serif" font-size="11.00">url</text>
</g>
<!-- Node7 -->
<g id="node6" class="node">
<title>Node7</title>
<g id="a_node6"><a xlink:title=" ">
<polygon fill="none" stroke="black" points="247.5,-69.5 247.5,-89.5 338.5,-89.5 338.5,-69.5 247.5,-69.5"/>
<text text-anchor="middle" x="293" y="-76.7" font-family="-apple-system, BlinkMacSystemFont, 'Segoe UI', Roboto, Oxygen, Ubuntu, Cantarell, 'Fira Sans', 'Droid Sans', 'Helvetica Neue', sans-serif" font-size="11.00">std::string_view</text>
</a>
</g>
</g>
<!-- Node7&#45;&gt;Node1 -->
<g id="edge6" class="edge">
<title>Node7&#45;&gt;Node1</title>
<path fill="none" stroke="#9a32cd" stroke-dasharray="5,2" d="M269.13,-64.22C247.08,-51.03 214.98,-31.83 196.22,-20.61"/>
<polygon fill="#9a32cd" stroke="#9a32cd" points="267.52,-67.33 277.9,-69.46 271.11,-61.33 267.52,-67.33"/>
<text text-anchor="middle" x="266" y="-42.2" font-family="-apple-system, BlinkMacSystemFont, 'Segoe UI', Roboto, Oxygen, Ubuntu, Cantarell, 'Fira Sans', 'Droid Sans', 'Helvetica Neue', sans-serif" font-size="11.00"> _TYPE_</text>
</g>
<!-- Node8 -->
<g id="node7" class="node">
<title>Node8</title>
<g id="a_node7"><a xlink:title=" ">
<polygon fill="none" stroke="black" points="232,-174.5 232,-206.5 354,-206.5 354,-174.5 232,-174.5"/>
<text text-anchor="start" x="240" y="-193.7" font-family="-apple-system, BlinkMacSystemFont, 'Segoe UI', Roboto, Oxygen, Ubuntu, Cantarell, 'Fira Sans', 'Droid Sans', 'Helvetica Neue', sans-serif" font-size="11.00">std::basic_string_view</text>
<text text-anchor="middle" x="293" y="-181.7" font-family="-apple-system, BlinkMacSystemFont, 'Segoe UI', Roboto, Oxygen, Ubuntu, Cantarell, 'Fira Sans', 'Droid Sans', 'Helvetica Neue', sans-serif" font-size="11.00">&lt; Char &gt;</text>
</a>
</g>
</g>
<!-- Node8&#45;&gt;Node7 -->
<g id="edge7" class="edge">
<title>Node8&#45;&gt;Node7</title>
<path fill="none" stroke="midnightblue" d="M293,-164.26C293,-140.46 293,-106.09 293,-89.77"/>
<polygon fill="midnightblue" stroke="midnightblue" points="289.5,-164.34 293,-174.34 296.5,-164.34 289.5,-164.34"/>
</g>
</g>
</svg>
