<?xml version="1.0" encoding="UTF-8" standalone="no"?>
<!DOCTYPE svg PUBLIC "-//W3C//DTD SVG 1.1//EN"
 "http://www.w3.org/Graphics/SVG/1.1/DTD/svg11.dtd">
<!-- Generated by graphviz version 3.0.0 (20221109.1736)
 -->
<!-- Title: Mirai::BotOfflineEventForce Pages: 1 -->
<svg width="154pt" height="167pt"
 viewBox="0.00 0.00 154.00 167.00" xmlns="http://www.w3.org/2000/svg" xmlns:xlink="http://www.w3.org/1999/xlink">
<g id="graph0" class="graph" transform="scale(1 1) rotate(0) translate(4 163)">
<title>Mirai::BotOfflineEventForce</title>
<!-- Node1 -->
<g id="node1" class="node">
<title>Node1</title>
<g id="a_node1"><a xlink:title="Bot强制下线事件">
<polygon fill="#bfbfbf" stroke="black" points="0,-0.5 0,-20.5 146,-20.5 146,-0.5 0,-0.5"/>
<text text-anchor="middle" x="73" y="-7.7" font-family="-apple-system, BlinkMacSystemFont, 'Segoe UI', Roboto, Oxygen, Ubuntu, Cantarell, 'Fira Sans', 'Droid Sans', 'Helvetica Neue', sans-serif" font-size="11.00">Mirai::BotOfflineEventForce</text>
</a>
</g>
</g>
<!-- Node2 -->
<g id="node2" class="node">
<title>Node2</title>
<g id="a_node2"><a xlink:href="classMirai_1_1BotAccountEvent.html" target="_top" xlink:title=" ">
<polygon fill="none" stroke="black" points="4.5,-57.5 4.5,-89.5 141.5,-89.5 141.5,-57.5 4.5,-57.5"/>
<text text-anchor="start" x="12.5" y="-76.7" font-family="-apple-system, BlinkMacSystemFont, 'Segoe UI', Roboto, Oxygen, Ubuntu, Cantarell, 'Fira Sans', 'Droid Sans', 'Helvetica Neue', sans-serif" font-size="11.00">Mirai::BotAccountEvent</text>
<text text-anchor="middle" x="73" y="-64.7" font-family="-apple-system, BlinkMacSystemFont, 'Segoe UI', Roboto, Oxygen, Ubuntu, Cantarell, 'Fira Sans', 'Droid Sans', 'Helvetica Neue', sans-serif" font-size="11.00">&lt; BotOfflineEventForce &gt;</text>
</a>
</g>
</g>
<!-- Node2&#45;&gt;Node1 -->
<g id="edge1" class="edge">
<title>Node2&#45;&gt;Node1</title>
<path fill="none" stroke="midnightblue" d="M73,-47.23C73,-37.76 73,-27.6 73,-20.55"/>
<polygon fill="midnightblue" stroke="midnightblue" points="69.5,-47.42 73,-57.42 76.5,-47.42 69.5,-47.42"/>
</g>
<!-- Node3 -->
<g id="node3" class="node">
<title>Node3</title>
<g id="a_node3"><a xlink:href="classMirai_1_1IEvent.html" target="_top" xlink:title=" ">
<polygon fill="none" stroke="black" points="7.5,-126.5 7.5,-158.5 138.5,-158.5 138.5,-126.5 7.5,-126.5"/>
<text text-anchor="start" x="15.5" y="-145.7" font-family="-apple-system, BlinkMacSystemFont, 'Segoe UI', Roboto, Oxygen, Ubuntu, Cantarell, 'Fira Sans', 'Droid Sans', 'Helvetica Neue', sans-serif" font-size="11.00">Mirai::IEvent&lt; BotOffline</text>
<text text-anchor="middle" x="73" y="-133.7" font-family="-apple-system, BlinkMacSystemFont, 'Segoe UI', Roboto, Oxygen, Ubuntu, Cantarell, 'Fira Sans', 'Droid Sans', 'Helvetica Neue', sans-serif" font-size="11.00">EventForce &gt;</text>
</a>
</g>
</g>
<!-- Node3&#45;&gt;Node2 -->
<g id="edge2" class="edge">
<title>Node3&#45;&gt;Node2</title>
<path fill="none" stroke="midnightblue" d="M73,-116.02C73,-107.13 73,-97.43 73,-89.64"/>
<polygon fill="midnightblue" stroke="midnightblue" points="69.5,-116.3 73,-126.3 76.5,-116.3 69.5,-116.3"/>
</g>
</g>
</svg>
