<?xml version="1.0" encoding="UTF-8" standalone="no"?>
<!DOCTYPE svg PUBLIC "-//W3C//DTD SVG 1.1//EN"
 "http://www.w3.org/Graphics/SVG/1.1/DTD/svg11.dtd">
<!-- Generated by graphviz version 3.0.0 (20220413.0242)
 -->
<!-- Title: Mirai::MarketFaceMessage Pages: 1 -->
<svg width="325pt" height="156pt"
 viewBox="0.00 0.00 324.50 156.00" xmlns="http://www.w3.org/2000/svg" xmlns:xlink="http://www.w3.org/1999/xlink">
<g id="graph0" class="graph" transform="scale(1 1) rotate(0) translate(4 152)">
<title>Mirai::MarketFaceMessage</title>
<!-- Node1 -->
<g id="node1" class="node">
<title>Node1</title>
<g id="a_node1"><a xlink:title="QQ商店表情消息">
<polygon fill="#bfbfbf" stroke="black" points="156.5,-0.5 156.5,-20.5 303.5,-20.5 303.5,-0.5 156.5,-0.5"/>
<text text-anchor="middle" x="230" y="-7.7" font-family="-apple-system, BlinkMacSystemFont, 'Segoe UI', Roboto, Oxygen, Ubuntu, Cantarell, 'Fira Sans', 'Droid Sans', 'Helvetica Neue', sans-serif" font-size="11.00">Mirai::MarketFaceMessage</text>
</a>
</g>
</g>
<!-- Node2 -->
<g id="node2" class="node">
<title>Node2</title>
<g id="a_node2"><a xlink:href="classMirai_1_1FaceMessage.html" target="_top" xlink:title="QQ表情消息">
<polygon fill="none" stroke="black" points="120.5,-58.5 120.5,-78.5 233.5,-78.5 233.5,-58.5 120.5,-58.5"/>
<text text-anchor="middle" x="177" y="-65.7" font-family="-apple-system, BlinkMacSystemFont, 'Segoe UI', Roboto, Oxygen, Ubuntu, Cantarell, 'Fira Sans', 'Droid Sans', 'Helvetica Neue', sans-serif" font-size="11.00">Mirai::FaceMessage</text>
</a>
</g>
</g>
<!-- Node2&#45;&gt;Node1 -->
<g id="edge1" class="edge">
<title>Node2&#45;&gt;Node1</title>
<path fill="none" stroke="midnightblue" d="M192.7,-50.91C202.09,-40.99 213.67,-28.76 221.41,-20.58"/>
<polygon fill="midnightblue" stroke="midnightblue" points="190.08,-48.58 185.75,-58.25 195.17,-53.4 190.08,-48.58"/>
</g>
<!-- Node3 -->
<g id="node3" class="node">
<title>Node3</title>
<g id="a_node3"><a xlink:href="classMirai_1_1MessageBase.html" target="_top" xlink:title="Base class for all message types">
<polygon fill="none" stroke="red" points="0,-127.5 0,-147.5 114,-147.5 114,-127.5 0,-127.5"/>
<text text-anchor="middle" x="57" y="-134.7" font-family="-apple-system, BlinkMacSystemFont, 'Segoe UI', Roboto, Oxygen, Ubuntu, Cantarell, 'Fira Sans', 'Droid Sans', 'Helvetica Neue', sans-serif" font-size="11.00">Mirai::MessageBase</text>
</a>
</g>
</g>
<!-- Node3&#45;&gt;Node2 -->
<g id="edge2" class="edge">
<title>Node3&#45;&gt;Node2</title>
<path fill="none" stroke="midnightblue" d="M81.95,-122.57C105.59,-109.37 140.41,-89.93 160.69,-78.61"/>
<polygon fill="midnightblue" stroke="midnightblue" points="80.21,-119.53 73.18,-127.46 83.62,-125.65 80.21,-119.53"/>
</g>
<!-- Node5 -->
<g id="node4" class="node">
<title>Node5</title>
<g id="a_node4"><a xlink:title=" ">
<polygon fill="none" stroke="red" points="132.5,-127.5 132.5,-147.5 195.5,-147.5 195.5,-127.5 132.5,-127.5"/>
<text text-anchor="middle" x="164" y="-134.7" font-family="-apple-system, BlinkMacSystemFont, 'Segoe UI', Roboto, Oxygen, Ubuntu, Cantarell, 'Fira Sans', 'Droid Sans', 'Helvetica Neue', sans-serif" font-size="11.00">std::string</text>
</a>
</g>
</g>
<!-- Node5&#45;&gt;Node2 -->
<g id="edge3" class="edge">
<title>Node5&#45;&gt;Node2</title>
<path fill="none" stroke="#9a32cd" stroke-dasharray="5,2" d="M163.01,-116.83C163.09,-110.44 163.59,-103.36 165,-97 166.42,-90.59 169.35,-83.83 171.96,-78.62"/>
<polygon fill="#9a32cd" stroke="#9a32cd" points="159.52,-117.36 163.24,-127.28 166.52,-117.21 159.52,-117.36"/>
<text text-anchor="middle" x="183.5" y="-100.2" font-family="-apple-system, BlinkMacSystemFont, 'Segoe UI', Roboto, Oxygen, Ubuntu, Cantarell, 'Fira Sans', 'Droid Sans', 'Helvetica Neue', sans-serif" font-size="11.00"> _name</text>
</g>
<!-- Node7 -->
<g id="node5" class="node">
<title>Node7</title>
<g id="a_node5"><a xlink:title=" ">
<polygon fill="none" stroke="red" points="225.5,-127.5 225.5,-147.5 316.5,-147.5 316.5,-127.5 225.5,-127.5"/>
<text text-anchor="middle" x="271" y="-134.7" font-family="-apple-system, BlinkMacSystemFont, 'Segoe UI', Roboto, Oxygen, Ubuntu, Cantarell, 'Fira Sans', 'Droid Sans', 'Helvetica Neue', sans-serif" font-size="11.00">std::string_view</text>
</a>
</g>
</g>
<!-- Node7&#45;&gt;Node1 -->
<g id="edge5" class="edge">
<title>Node7&#45;&gt;Node1</title>
<path fill="none" stroke="#9a32cd" stroke-dasharray="5,2" d="M271.46,-116.8C271.22,-110.41 270.55,-103.34 269,-97 261.81,-67.52 244.48,-35.74 235.54,-20.57"/>
<polygon fill="#9a32cd" stroke="#9a32cd" points="267.96,-117.28 271.5,-127.26 274.96,-117.24 267.96,-117.28"/>
<text text-anchor="middle" x="285" y="-65.7" font-family="-apple-system, BlinkMacSystemFont, 'Segoe UI', Roboto, Oxygen, Ubuntu, Cantarell, 'Fira Sans', 'Droid Sans', 'Helvetica Neue', sans-serif" font-size="11.00"> _TYPE_</text>
</g>
<!-- Node7&#45;&gt;Node2 -->
<g id="edge4" class="edge">
<title>Node7&#45;&gt;Node2</title>
<path fill="none" stroke="#9a32cd" stroke-dasharray="5,2" d="M245.56,-122.21C238.75,-118.14 231.48,-113.57 225,-109 211.41,-99.43 196.8,-87.08 187.32,-78.76"/>
<polygon fill="#9a32cd" stroke="#9a32cd" points="244.05,-125.38 254.45,-127.41 247.58,-119.34 244.05,-125.38"/>
<text text-anchor="middle" x="247" y="-100.2" font-family="-apple-system, BlinkMacSystemFont, 'Segoe UI', Roboto, Oxygen, Ubuntu, Cantarell, 'Fira Sans', 'Droid Sans', 'Helvetica Neue', sans-serif" font-size="11.00"> _TYPE_</text>
</g>
</g>
</svg>
