<?xml version="1.0" encoding="UTF-8" standalone="no"?>
<!DOCTYPE svg PUBLIC "-//W3C//DTD SVG 1.1//EN"
 "http://www.w3.org/Graphics/SVG/1.1/DTD/svg11.dtd">
<!-- Generated by graphviz version 3.0.0 (20220413.0242)
 -->
<!-- Title: Mirai::UID_t Pages: 1 -->
<svg width="172pt" height="86pt"
 viewBox="0.00 0.00 171.50 86.00" xmlns="http://www.w3.org/2000/svg" xmlns:xlink="http://www.w3.org/1999/xlink">
<g id="graph0" class="graph" transform="scale(1 1) rotate(0) translate(4 82)">
<title>Mirai::UID_t</title>
<!-- Node1 -->
<g id="node1" class="node">
<title>Node1</title>
<g id="a_node1"><a xlink:title="Base class for QQ_t and GID_t">
<polygon fill="#bfbfbf" stroke="black" points="45,-57.5 45,-77.5 119,-77.5 119,-57.5 45,-57.5"/>
<text text-anchor="middle" x="82" y="-64.7" font-family="-apple-system, BlinkMacSystemFont, 'Segoe UI', Roboto, Oxygen, Ubuntu, Cantarell, 'Fira Sans', 'Droid Sans', 'Helvetica Neue', sans-serif" font-size="11.00">Mirai::UID_t</text>
</a>
</g>
</g>
<!-- Node2 -->
<g id="node2" class="node">
<title>Node2</title>
<g id="a_node2"><a xlink:href="classMirai_1_1GID__t.html" target="_top" xlink:title="群聊号码类型">
<polygon fill="none" stroke="black" points="0,-0.5 0,-20.5 74,-20.5 74,-0.5 0,-0.5"/>
<text text-anchor="middle" x="37" y="-7.7" font-family="-apple-system, BlinkMacSystemFont, 'Segoe UI', Roboto, Oxygen, Ubuntu, Cantarell, 'Fira Sans', 'Droid Sans', 'Helvetica Neue', sans-serif" font-size="11.00">Mirai::GID_t</text>
</a>
</g>
</g>
<!-- Node1&#45;&gt;Node2 -->
<g id="edge1" class="edge">
<title>Node1&#45;&gt;Node2</title>
<path fill="none" stroke="midnightblue" d="M68.04,-49.44C60.3,-39.98 50.99,-28.6 44.59,-20.78"/>
<polygon fill="midnightblue" stroke="midnightblue" points="65.53,-51.89 74.57,-57.42 70.95,-47.46 65.53,-51.89"/>
</g>
<!-- Node3 -->
<g id="node3" class="node">
<title>Node3</title>
<g id="a_node3"><a xlink:href="classMirai_1_1QQ__t.html" target="_top" xlink:title="QQ号码类型">
<polygon fill="none" stroke="black" points="92.5,-0.5 92.5,-20.5 163.5,-20.5 163.5,-0.5 92.5,-0.5"/>
<text text-anchor="middle" x="128" y="-7.7" font-family="-apple-system, BlinkMacSystemFont, 'Segoe UI', Roboto, Oxygen, Ubuntu, Cantarell, 'Fira Sans', 'Droid Sans', 'Helvetica Neue', sans-serif" font-size="11.00">Mirai::QQ_t</text>
</a>
</g>
</g>
<!-- Node1&#45;&gt;Node3 -->
<g id="edge2" class="edge">
<title>Node1&#45;&gt;Node3</title>
<path fill="none" stroke="midnightblue" d="M96.03,-49.73C103.98,-40.22 113.64,-28.68 120.24,-20.78"/>
<polygon fill="midnightblue" stroke="midnightblue" points="93.33,-47.5 89.6,-57.42 98.7,-51.99 93.33,-47.5"/>
</g>
</g>
</svg>
