<?xml version="1.0" encoding="UTF-8" standalone="no"?>
<!DOCTYPE svg PUBLIC "-//W3C//DTD SVG 1.1//EN"
 "http://www.w3.org/Graphics/SVG/1.1/DTD/svg11.dtd">
<!-- Generated by graphviz version 2.43.0 (0)
 -->
<!-- Title: Mirai::BotOfflineEventDropped Pages: 1 -->
<svg width="192pt" height="143pt"
 viewBox="0.00 0.00 192.00 143.00" xmlns="http://www.w3.org/2000/svg" xmlns:xlink="http://www.w3.org/1999/xlink">
<g id="graph0" class="graph" transform="scale(1 1) rotate(0) translate(4 139)">
<title>Mirai::BotOfflineEventDropped</title>
<!-- Node1 -->
<g id="node1" class="node">
<title>Node1</title>
<g id="a_node1"><a xlink:title="Bot掉线事件">
<polygon fill="#bfbfbf" stroke="black" points="0,-0.5 0,-20.5 184,-20.5 184,-0.5 0,-0.5"/>
<text text-anchor="middle" x="92" y="-7.7" font-family="-apple-system,BlinkMacSystemFont,'SegoeUI',Roboto,Oxygen,Ubuntu,Cantarell,'FiraSans','DroidSans','HelveticaNeue',sans-serif" font-size="11.00">Mirai::BotOfflineEventDropped</text>
</a>
</g>
</g>
<!-- Node2 -->
<g id="node2" class="node">
<title>Node2</title>
<g id="a_node2"><a xlink:href="classMirai_1_1BotEvent.html" target="_top" xlink:title="与Bot本身相关的事件的基类">
<polygon fill="none" stroke="black" points="41.5,-57.5 41.5,-77.5 142.5,-77.5 142.5,-57.5 41.5,-57.5"/>
<text text-anchor="middle" x="92" y="-64.7" font-family="-apple-system,BlinkMacSystemFont,'SegoeUI',Roboto,Oxygen,Ubuntu,Cantarell,'FiraSans','DroidSans','HelveticaNeue',sans-serif" font-size="11.00">Mirai::BotEvent</text>
</a>
</g>
</g>
<!-- Node2&#45;&gt;Node1 -->
<g id="edge1" class="edge">
<title>Node2&#45;&gt;Node1</title>
<path fill="none" stroke="midnightblue" d="M92,-47.38C92,-38.37 92,-28.04 92,-20.78"/>
<polygon fill="midnightblue" stroke="midnightblue" points="88.5,-47.42 92,-57.42 95.5,-47.42 88.5,-47.42"/>
</g>
<!-- Node3 -->
<g id="node3" class="node">
<title>Node3</title>
<g id="a_node3"><a xlink:href="classMirai_1_1EventBase.html" target="_top" xlink:title="Base class for all event types">
<polygon fill="none" stroke="black" points="37,-114.5 37,-134.5 147,-134.5 147,-114.5 37,-114.5"/>
<text text-anchor="middle" x="92" y="-121.7" font-family="-apple-system,BlinkMacSystemFont,'SegoeUI',Roboto,Oxygen,Ubuntu,Cantarell,'FiraSans','DroidSans','HelveticaNeue',sans-serif" font-size="11.00">Mirai::EventBase</text>
</a>
</g>
</g>
<!-- Node3&#45;&gt;Node2 -->
<g id="edge2" class="edge">
<title>Node3&#45;&gt;Node2</title>
<path fill="none" stroke="midnightblue" d="M92,-104.38C92,-95.37 92,-85.04 92,-77.78"/>
<polygon fill="midnightblue" stroke="midnightblue" points="88.5,-104.42 92,-114.42 95.5,-104.42 88.5,-104.42"/>
</g>
</g>
</svg>
