<?xml version="1.0" encoding="UTF-8" standalone="no"?>
<!DOCTYPE svg PUBLIC "-//W3C//DTD SVG 1.1//EN"
 "http://www.w3.org/Graphics/SVG/1.1/DTD/svg11.dtd">
<!-- Generated by graphviz version 3.0.0 (20220413.0242)
 -->
<!-- Title: Mirai::FlashImageMessage Pages: 1 -->
<svg width="353pt" height="156pt"
 viewBox="0.00 0.00 352.50 156.00" xmlns="http://www.w3.org/2000/svg" xmlns:xlink="http://www.w3.org/1999/xlink">
<g id="graph0" class="graph" transform="scale(1 1) rotate(0) translate(4 152)">
<title>Mirai::FlashImageMessage</title>
<!-- Node1 -->
<g id="node1" class="node">
<title>Node1</title>
<g id="a_node1"><a xlink:title="闪照消息">
<polygon fill="#bfbfbf" stroke="black" points="176,-0.5 176,-20.5 322,-20.5 322,-0.5 176,-0.5"/>
<text text-anchor="middle" x="249" y="-7.7" font-family="-apple-system, BlinkMacSystemFont, 'Segoe UI', Roboto, Oxygen, Ubuntu, Cantarell, 'Fira Sans', 'Droid Sans', 'Helvetica Neue', sans-serif" font-size="11.00">Mirai::FlashImageMessage</text>
</a>
</g>
</g>
<!-- Node2 -->
<g id="node2" class="node">
<title>Node2</title>
<g id="a_node2"><a xlink:href="classMirai_1_1ImageMessage.html" target="_top" xlink:title="图片消息">
<polygon fill="none" stroke="black" points="135.5,-58.5 135.5,-78.5 254.5,-78.5 254.5,-58.5 135.5,-58.5"/>
<text text-anchor="middle" x="195" y="-65.7" font-family="-apple-system, BlinkMacSystemFont, 'Segoe UI', Roboto, Oxygen, Ubuntu, Cantarell, 'Fira Sans', 'Droid Sans', 'Helvetica Neue', sans-serif" font-size="11.00">Mirai::ImageMessage</text>
</a>
</g>
</g>
<!-- Node2&#45;&gt;Node1 -->
<g id="edge1" class="edge">
<title>Node2&#45;&gt;Node1</title>
<path fill="none" stroke="midnightblue" d="M211,-50.91C220.57,-40.99 232.36,-28.76 240.25,-20.58"/>
<polygon fill="midnightblue" stroke="midnightblue" points="208.34,-48.62 203.92,-58.25 213.38,-53.48 208.34,-48.62"/>
</g>
<!-- Node3 -->
<g id="node3" class="node">
<title>Node3</title>
<g id="a_node3"><a xlink:href="classMirai_1_1MessageBase.html" target="_top" xlink:title="Base class for all message types">
<polygon fill="none" stroke="red" points="0,-127.5 0,-147.5 114,-147.5 114,-127.5 0,-127.5"/>
<text text-anchor="middle" x="57" y="-134.7" font-family="-apple-system, BlinkMacSystemFont, 'Segoe UI', Roboto, Oxygen, Ubuntu, Cantarell, 'Fira Sans', 'Droid Sans', 'Helvetica Neue', sans-serif" font-size="11.00">Mirai::MessageBase</text>
</a>
</g>
</g>
<!-- Node3&#45;&gt;Node2 -->
<g id="edge2" class="edge">
<title>Node3&#45;&gt;Node2</title>
<path fill="none" stroke="midnightblue" d="M84.61,-123.09C111.81,-109.89 152.61,-90.08 176.24,-78.61"/>
<polygon fill="midnightblue" stroke="midnightblue" points="83.08,-119.95 75.61,-127.46 86.14,-126.25 83.08,-119.95"/>
</g>
<!-- Node5 -->
<g id="node4" class="node">
<title>Node5</title>
<g id="a_node4"><a xlink:href="structMirai_1_1MiraiImage.html" target="_top" xlink:title="Mirai图片">
<polygon fill="none" stroke="red" points="132.5,-127.5 132.5,-147.5 231.5,-147.5 231.5,-127.5 132.5,-127.5"/>
<text text-anchor="middle" x="182" y="-134.7" font-family="-apple-system, BlinkMacSystemFont, 'Segoe UI', Roboto, Oxygen, Ubuntu, Cantarell, 'Fira Sans', 'Droid Sans', 'Helvetica Neue', sans-serif" font-size="11.00">Mirai::MiraiImage</text>
</a>
</g>
</g>
<!-- Node5&#45;&gt;Node2 -->
<g id="edge3" class="edge">
<title>Node5&#45;&gt;Node2</title>
<path fill="none" stroke="#9a32cd" stroke-dasharray="5,2" d="M181.01,-116.83C181.09,-110.44 181.59,-103.36 183,-97 184.42,-90.59 187.35,-83.83 189.96,-78.62"/>
<polygon fill="#9a32cd" stroke="#9a32cd" points="177.52,-117.36 181.24,-127.28 184.52,-117.21 177.52,-117.36"/>
<text text-anchor="middle" x="202.5" y="-100.2" font-family="-apple-system, BlinkMacSystemFont, 'Segoe UI', Roboto, Oxygen, Ubuntu, Cantarell, 'Fira Sans', 'Droid Sans', 'Helvetica Neue', sans-serif" font-size="11.00"> _image</text>
</g>
<!-- Node8 -->
<g id="node5" class="node">
<title>Node8</title>
<g id="a_node5"><a xlink:title=" ">
<polygon fill="none" stroke="red" points="253.5,-127.5 253.5,-147.5 344.5,-147.5 344.5,-127.5 253.5,-127.5"/>
<text text-anchor="middle" x="299" y="-134.7" font-family="-apple-system, BlinkMacSystemFont, 'Segoe UI', Roboto, Oxygen, Ubuntu, Cantarell, 'Fira Sans', 'Droid Sans', 'Helvetica Neue', sans-serif" font-size="11.00">std::string_view</text>
</a>
</g>
</g>
<!-- Node8&#45;&gt;Node1 -->
<g id="edge5" class="edge">
<title>Node8&#45;&gt;Node1</title>
<path fill="none" stroke="#9a32cd" stroke-dasharray="5,2" d="M294.91,-117.27C293.32,-110.75 291.32,-103.49 289,-97 278.76,-68.29 262.28,-36.17 254.04,-20.74"/>
<polygon fill="#9a32cd" stroke="#9a32cd" points="291.55,-118.28 297.18,-127.25 298.37,-116.73 291.55,-118.28"/>
<text text-anchor="middle" x="303" y="-65.7" font-family="-apple-system, BlinkMacSystemFont, 'Segoe UI', Roboto, Oxygen, Ubuntu, Cantarell, 'Fira Sans', 'Droid Sans', 'Helvetica Neue', sans-serif" font-size="11.00"> _TYPE_</text>
</g>
<!-- Node8&#45;&gt;Node2 -->
<g id="edge4" class="edge">
<title>Node8&#45;&gt;Node2</title>
<path fill="none" stroke="#9a32cd" stroke-dasharray="5,2" d="M270.01,-123.06C261.74,-118.87 252.85,-114.03 245,-109 230.47,-99.69 215.08,-87.06 205.28,-78.61"/>
<polygon fill="#9a32cd" stroke="#9a32cd" points="268.47,-126.2 278.99,-127.48 271.56,-119.92 268.47,-126.2"/>
<text text-anchor="middle" x="267" y="-100.2" font-family="-apple-system, BlinkMacSystemFont, 'Segoe UI', Roboto, Oxygen, Ubuntu, Cantarell, 'Fira Sans', 'Droid Sans', 'Helvetica Neue', sans-serif" font-size="11.00"> _TYPE_</text>
</g>
</g>
</svg>
