<?xml version="1.0" encoding="UTF-8" standalone="no"?>
<!DOCTYPE svg PUBLIC "-//W3C//DTD SVG 1.1//EN"
 "http://www.w3.org/Graphics/SVG/1.1/DTD/svg11.dtd">
<!-- Generated by graphviz version 3.0.0 (20220413.0242)
 -->
<!-- Title: Mirai::MemberSpecialTitleChangeEvent Pages: 1 -->
<svg width="755pt" height="301pt"
 viewBox="0.00 0.00 755.00 300.50" xmlns="http://www.w3.org/2000/svg" xmlns:xlink="http://www.w3.org/1999/xlink">
<g id="graph0" class="graph" transform="scale(1 1) rotate(0) translate(4 296.5)">
<title>Mirai::MemberSpecialTitleChangeEvent</title>
<!-- Node1 -->
<g id="node1" class="node">
<title>Node1</title>
<g id="a_node1"><a xlink:title="群成员头衔更改事件">
<polygon fill="#bfbfbf" stroke="black" points="606,-179.5 606,-211.5 747,-211.5 747,-179.5 606,-179.5"/>
<text text-anchor="start" x="614" y="-198.7" font-family="-apple-system, BlinkMacSystemFont, 'Segoe UI', Roboto, Oxygen, Ubuntu, Cantarell, 'Fira Sans', 'Droid Sans', 'Helvetica Neue', sans-serif" font-size="11.00">Mirai::MemberSpecialTitle</text>
<text text-anchor="middle" x="676.5" y="-186.7" font-family="-apple-system, BlinkMacSystemFont, 'Segoe UI', Roboto, Oxygen, Ubuntu, Cantarell, 'Fira Sans', 'Droid Sans', 'Helvetica Neue', sans-serif" font-size="11.00">ChangeEvent</text>
</a>
</g>
</g>
<!-- Node2 -->
<g id="node2" class="node">
<title>Node2</title>
<g id="a_node2"><a xlink:href="classMirai_1_1EventBase.html" target="_top" xlink:title="Base class for all event types">
<polygon fill="none" stroke="black" points="414,-217.5 414,-237.5 512,-237.5 512,-217.5 414,-217.5"/>
<text text-anchor="middle" x="463" y="-224.7" font-family="-apple-system, BlinkMacSystemFont, 'Segoe UI', Roboto, Oxygen, Ubuntu, Cantarell, 'Fira Sans', 'Droid Sans', 'Helvetica Neue', sans-serif" font-size="11.00">Mirai::EventBase</text>
</a>
</g>
</g>
<!-- Node2&#45;&gt;Node1 -->
<g id="edge1" class="edge">
<title>Node2&#45;&gt;Node1</title>
<path fill="none" stroke="midnightblue" d="M522.28,-218.68C548.13,-214.77 578.75,-210.14 605.79,-206.05"/>
<polygon fill="midnightblue" stroke="midnightblue" points="521.62,-215.24 512.26,-220.2 522.67,-222.16 521.62,-215.24"/>
</g>
<!-- Node3 -->
<g id="node3" class="node">
<title>Node3</title>
<g id="a_node3"><a xlink:href="classMirai_1_1MiraiClient.html" target="_top" xlink:title="提供与mirai&#45;api&#45;http网络交互的封装">
<polygon fill="none" stroke="red" points="217,-229.5 217,-249.5 313,-249.5 313,-229.5 217,-229.5"/>
<text text-anchor="middle" x="265" y="-236.7" font-family="-apple-system, BlinkMacSystemFont, 'Segoe UI', Roboto, Oxygen, Ubuntu, Cantarell, 'Fira Sans', 'Droid Sans', 'Helvetica Neue', sans-serif" font-size="11.00">Mirai::MiraiClient</text>
</a>
</g>
</g>
<!-- Node3&#45;&gt;Node2 -->
<g id="edge2" class="edge">
<title>Node3&#45;&gt;Node2</title>
<path fill="none" stroke="#9a32cd" stroke-dasharray="5,2" d="M323.75,-235.96C352.45,-234.21 386.73,-232.11 413.97,-230.44"/>
<polygon fill="#9a32cd" stroke="#9a32cd" points="323.21,-232.49 313.45,-236.6 323.64,-239.48 323.21,-232.49"/>
<text text-anchor="middle" x="365.5" y="-237.7" font-family="-apple-system, BlinkMacSystemFont, 'Segoe UI', Roboto, Oxygen, Ubuntu, Cantarell, 'Fira Sans', 'Droid Sans', 'Helvetica Neue', sans-serif" font-size="11.00"> _client</text>
</g>
<!-- Node6 -->
<g id="node4" class="node">
<title>Node6</title>
<g id="a_node4"><a xlink:title=" ">
<polygon fill="none" stroke="red" points="19,-197.5 19,-217.5 82,-217.5 82,-197.5 19,-197.5"/>
<text text-anchor="middle" x="50.5" y="-204.7" font-family="-apple-system, BlinkMacSystemFont, 'Segoe UI', Roboto, Oxygen, Ubuntu, Cantarell, 'Fira Sans', 'Droid Sans', 'Helvetica Neue', sans-serif" font-size="11.00">std::string</text>
</a>
</g>
</g>
<!-- Node6&#45;&gt;Node1 -->
<g id="edge11" class="edge">
<title>Node6&#45;&gt;Node1</title>
<path fill="none" stroke="#9a32cd" stroke-dasharray="5,2" d="M76.66,-222.7C89.04,-229.61 104.41,-237.37 119,-242.5 155.35,-255.27 165.66,-255.7 204,-259.5 344.3,-273.39 382.53,-274.04 521,-247.5 561.72,-239.7 606.43,-223.79 637.23,-211.62"/>
<polygon fill="#9a32cd" stroke="#9a32cd" points="78.25,-219.58 67.83,-217.63 74.77,-225.65 78.25,-219.58"/>
<text text-anchor="middle" x="365.5" y="-283.7" font-family="-apple-system, BlinkMacSystemFont, 'Segoe UI', Roboto, Oxygen, Ubuntu, Cantarell, 'Fira Sans', 'Droid Sans', 'Helvetica Neue', sans-serif" font-size="11.00"> _current</text>
<text text-anchor="middle" x="365.5" y="-271.7" font-family="-apple-system, BlinkMacSystemFont, 'Segoe UI', Roboto, Oxygen, Ubuntu, Cantarell, 'Fira Sans', 'Droid Sans', 'Helvetica Neue', sans-serif" font-size="11.00">_origin</text>
</g>
<!-- Node6&#45;&gt;Node3 -->
<g id="edge3" class="edge">
<title>Node6&#45;&gt;Node3</title>
<path fill="none" stroke="#9a32cd" stroke-dasharray="5,2" d="M92.45,-213.67C128.07,-219.03 179.67,-226.8 216.97,-232.42"/>
<polygon fill="#9a32cd" stroke="#9a32cd" points="92.81,-210.18 82.4,-212.15 91.77,-217.1 92.81,-210.18"/>
<text text-anchor="middle" x="152.5" y="-229.7" font-family="-apple-system, BlinkMacSystemFont, 'Segoe UI', Roboto, Oxygen, Ubuntu, Cantarell, 'Fira Sans', 'Droid Sans', 'Helvetica Neue', sans-serif" font-size="11.00"> _SessionKey</text>
</g>
<!-- Node18 -->
<g id="node5" class="node">
<title>Node18</title>
<g id="a_node5"><a xlink:href="structMirai_1_1GroupMember.html" target="_top" xlink:title="群员资料">
<polygon fill="none" stroke="black" points="405,-129.5 405,-149.5 521,-149.5 521,-129.5 405,-129.5"/>
<text text-anchor="middle" x="463" y="-136.7" font-family="-apple-system, BlinkMacSystemFont, 'Segoe UI', Roboto, Oxygen, Ubuntu, Cantarell, 'Fira Sans', 'Droid Sans', 'Helvetica Neue', sans-serif" font-size="11.00">Mirai::GroupMember</text>
</a>
</g>
</g>
<!-- Node6&#45;&gt;Node18 -->
<g id="edge7" class="edge">
<title>Node6&#45;&gt;Node18</title>
<path fill="none" stroke="#9a32cd" stroke-dasharray="5,2" d="M92.09,-201.96C155.3,-193.17 281.02,-175 387,-155.5 396.69,-153.72 407.04,-151.63 416.87,-149.56"/>
<polygon fill="#9a32cd" stroke="#9a32cd" points="91.55,-198.5 82.13,-203.34 92.51,-205.44 91.55,-198.5"/>
<text text-anchor="middle" x="265" y="-200.7" font-family="-apple-system, BlinkMacSystemFont, 'Segoe UI', Roboto, Oxygen, Ubuntu, Cantarell, 'Fira Sans', 'Droid Sans', 'Helvetica Neue', sans-serif" font-size="11.00"> MemberName</text>
<text text-anchor="middle" x="265" y="-188.7" font-family="-apple-system, BlinkMacSystemFont, 'Segoe UI', Roboto, Oxygen, Ubuntu, Cantarell, 'Fira Sans', 'Droid Sans', 'Helvetica Neue', sans-serif" font-size="11.00">SpecialTitle</text>
</g>
<!-- Node19 -->
<g id="node8" class="node">
<title>Node19</title>
<g id="a_node8"><a xlink:href="structMirai_1_1Group.html" target="_top" xlink:title="群聊资料">
<polygon fill="none" stroke="red" points="227,-129.5 227,-149.5 303,-149.5 303,-129.5 227,-129.5"/>
<text text-anchor="middle" x="265" y="-136.7" font-family="-apple-system, BlinkMacSystemFont, 'Segoe UI', Roboto, Oxygen, Ubuntu, Cantarell, 'Fira Sans', 'Droid Sans', 'Helvetica Neue', sans-serif" font-size="11.00">Mirai::Group</text>
</a>
</g>
</g>
<!-- Node6&#45;&gt;Node19 -->
<g id="edge10" class="edge">
<title>Node6&#45;&gt;Node19</title>
<path fill="none" stroke="#9a32cd" stroke-dasharray="5,2" d="M70.13,-190.94C82.97,-180.48 100.91,-167.64 119,-160.5 153.9,-146.72 196.72,-141.85 226.74,-140.19"/>
<polygon fill="#9a32cd" stroke="#9a32cd" points="67.88,-188.26 62.49,-197.39 72.39,-193.62 67.88,-188.26"/>
<text text-anchor="middle" x="152.5" y="-163.7" font-family="-apple-system, BlinkMacSystemFont, 'Segoe UI', Roboto, Oxygen, Ubuntu, Cantarell, 'Fira Sans', 'Droid Sans', 'Helvetica Neue', sans-serif" font-size="11.00"> name</text>
</g>
<!-- Node18&#45;&gt;Node1 -->
<g id="edge4" class="edge">
<title>Node18&#45;&gt;Node1</title>
<path fill="none" stroke="#9a32cd" stroke-dasharray="5,2" d="M511.77,-152.15C542.27,-160.22 582.08,-170.76 614.8,-179.43"/>
<polygon fill="#9a32cd" stroke="#9a32cd" points="512.37,-148.69 501.81,-149.51 510.58,-155.45 512.37,-148.69"/>
<text text-anchor="middle" x="563.5" y="-173.7" font-family="-apple-system, BlinkMacSystemFont, 'Segoe UI', Roboto, Oxygen, Ubuntu, Cantarell, 'Fira Sans', 'Droid Sans', 'Helvetica Neue', sans-serif" font-size="11.00"> _member</text>
</g>
<!-- Node16 -->
<g id="node6" class="node">
<title>Node16</title>
<g id="a_node6"><a xlink:href="classMirai_1_1Serializable.html" target="_top" xlink:title="Base class for all json serializable type">
<polygon fill="none" stroke="black" points="0,-103.5 0,-123.5 101,-123.5 101,-103.5 0,-103.5"/>
<text text-anchor="middle" x="50.5" y="-110.7" font-family="-apple-system, BlinkMacSystemFont, 'Segoe UI', Roboto, Oxygen, Ubuntu, Cantarell, 'Fira Sans', 'Droid Sans', 'Helvetica Neue', sans-serif" font-size="11.00">Mirai::Serializable</text>
</a>
</g>
</g>
<!-- Node16&#45;&gt;Node18 -->
<g id="edge5" class="edge">
<title>Node16&#45;&gt;Node18</title>
<path fill="none" stroke="midnightblue" d="M111.22,-113.08C166.9,-113.14 252.2,-114.42 326,-120.5 352.02,-122.64 380.66,-126.43 404.92,-130.06"/>
<polygon fill="midnightblue" stroke="midnightblue" points="111.18,-109.58 101.18,-113.08 111.18,-116.58 111.18,-109.58"/>
</g>
<!-- Node16&#45;&gt;Node19 -->
<g id="edge9" class="edge">
<title>Node16&#45;&gt;Node19</title>
<path fill="none" stroke="midnightblue" d="M111.24,-120.81C148.31,-125.34 194.79,-131.03 226.68,-134.93"/>
<polygon fill="midnightblue" stroke="midnightblue" points="111.4,-117.3 101.05,-119.56 110.55,-124.25 111.4,-117.3"/>
</g>
<!-- Node8 -->
<g id="node7" class="node">
<title>Node8</title>
<g id="a_node7"><a xlink:href="classMirai_1_1QQ__t.html" target="_top" xlink:title="QQ号码类型">
<polygon fill="none" stroke="red" points="229.5,-51.5 229.5,-71.5 300.5,-71.5 300.5,-51.5 229.5,-51.5"/>
<text text-anchor="middle" x="265" y="-58.7" font-family="-apple-system, BlinkMacSystemFont, 'Segoe UI', Roboto, Oxygen, Ubuntu, Cantarell, 'Fira Sans', 'Droid Sans', 'Helvetica Neue', sans-serif" font-size="11.00">Mirai::QQ_t</text>
</a>
</g>
</g>
<!-- Node8&#45;&gt;Node18 -->
<g id="edge6" class="edge">
<title>Node8&#45;&gt;Node18</title>
<path fill="none" stroke="#9a32cd" stroke-dasharray="5,2" d="M310.6,-59.98C334.19,-60.71 363.12,-64.11 387,-74.5 415.75,-87.02 441.53,-114.59 454.03,-129.48"/>
<polygon fill="#9a32cd" stroke="#9a32cd" points="310.57,-56.48 300.51,-59.81 310.46,-63.48 310.57,-56.48"/>
<text text-anchor="middle" x="365.5" y="-77.7" font-family="-apple-system, BlinkMacSystemFont, 'Segoe UI', Roboto, Oxygen, Ubuntu, Cantarell, 'Fira Sans', 'Droid Sans', 'Helvetica Neue', sans-serif" font-size="11.00"> id</text>
</g>
<!-- Node19&#45;&gt;Node18 -->
<g id="edge8" class="edge">
<title>Node19&#45;&gt;Node18</title>
<path fill="none" stroke="#9a32cd" stroke-dasharray="5,2" d="M313.48,-139.5C340.97,-139.5 375.75,-139.5 404.75,-139.5"/>
<polygon fill="#9a32cd" stroke="#9a32cd" points="313.33,-136 303.33,-139.5 313.33,-143 313.33,-136"/>
<text text-anchor="middle" x="365.5" y="-142.7" font-family="-apple-system, BlinkMacSystemFont, 'Segoe UI', Roboto, Oxygen, Ubuntu, Cantarell, 'Fira Sans', 'Droid Sans', 'Helvetica Neue', sans-serif" font-size="11.00"> group</text>
</g>
<!-- Node21 -->
<g id="node9" class="node">
<title>Node21</title>
<g id="a_node9"><a xlink:title=" ">
<polygon fill="none" stroke="black" points="417.5,-48.5 417.5,-68.5 508.5,-68.5 508.5,-48.5 417.5,-48.5"/>
<text text-anchor="middle" x="463" y="-55.7" font-family="-apple-system, BlinkMacSystemFont, 'Segoe UI', Roboto, Oxygen, Ubuntu, Cantarell, 'Fira Sans', 'Droid Sans', 'Helvetica Neue', sans-serif" font-size="11.00">std::string_view</text>
</a>
</g>
</g>
<!-- Node21&#45;&gt;Node1 -->
<g id="edge12" class="edge">
<title>Node21&#45;&gt;Node1</title>
<path fill="none" stroke="#9a32cd" stroke-dasharray="5,2" d="M487.99,-74.04C528.43,-100.24 609.75,-152.91 650.72,-179.45"/>
<polygon fill="#9a32cd" stroke="#9a32cd" points="489.85,-71.07 479.55,-68.57 486.04,-76.95 489.85,-71.07"/>
<text text-anchor="middle" x="563.5" y="-137.7" font-family="-apple-system, BlinkMacSystemFont, 'Segoe UI', Roboto, Oxygen, Ubuntu, Cantarell, 'Fira Sans', 'Droid Sans', 'Helvetica Neue', sans-serif" font-size="11.00"> _TYPE_</text>
</g>
<!-- Node22 -->
<g id="node10" class="node">
<title>Node22</title>
<g id="a_node10"><a xlink:title=" ">
<polygon fill="none" stroke="black" points="204,-0.5 204,-32.5 326,-32.5 326,-0.5 204,-0.5"/>
<text text-anchor="start" x="212" y="-19.7" font-family="-apple-system, BlinkMacSystemFont, 'Segoe UI', Roboto, Oxygen, Ubuntu, Cantarell, 'Fira Sans', 'Droid Sans', 'Helvetica Neue', sans-serif" font-size="11.00">std::basic_string_view</text>
<text text-anchor="middle" x="265" y="-7.7" font-family="-apple-system, BlinkMacSystemFont, 'Segoe UI', Roboto, Oxygen, Ubuntu, Cantarell, 'Fira Sans', 'Droid Sans', 'Helvetica Neue', sans-serif" font-size="11.00">&lt; Char &gt;</text>
</a>
</g>
</g>
<!-- Node22&#45;&gt;Node21 -->
<g id="edge13" class="edge">
<title>Node22&#45;&gt;Node21</title>
<path fill="none" stroke="midnightblue" d="M336.36,-29.13C353.01,-32.33 370.66,-35.88 387,-39.5 399.2,-42.2 412.43,-45.45 424.34,-48.49"/>
<polygon fill="midnightblue" stroke="midnightblue" points="336.63,-25.62 326.15,-27.19 335.33,-32.5 336.63,-25.62"/>
</g>
</g>
</svg>
