<?xml version="1.0" encoding="UTF-8" standalone="no"?>
<!DOCTYPE svg PUBLIC "-//W3C//DTD SVG 1.1//EN"
 "http://www.w3.org/Graphics/SVG/1.1/DTD/svg11.dtd">
<!-- Generated by graphviz version 2.43.0 (0)
 -->
<!-- Title: Mirai::BotLeaveEventDisband Pages: 1 -->
<svg width="844pt" height="257pt"
 viewBox="0.00 0.00 844.00 257.00" xmlns="http://www.w3.org/2000/svg" xmlns:xlink="http://www.w3.org/1999/xlink">
<g id="graph0" class="graph" transform="scale(1 1) rotate(0) translate(4 253)">
<title>Mirai::BotLeaveEventDisband</title>
<!-- Node1 -->
<g id="node1" class="node">
<title>Node1</title>
<g id="a_node1"><a xlink:title="群聊解散导致Bot退群事件">
<polygon fill="#bfbfbf" stroke="black" points="657,-112.5 657,-132.5 836,-132.5 836,-112.5 657,-112.5"/>
<text text-anchor="middle" x="746.5" y="-119.7" font-family="-apple-system,BlinkMacSystemFont,'SegoeUI',Roboto,Oxygen,Ubuntu,Cantarell,'FiraSans','DroidSans','HelveticaNeue',sans-serif" font-size="11.00">Mirai::BotLeaveEventDisband</text>
</a>
</g>
</g>
<!-- Node2 -->
<g id="node2" class="node">
<title>Node2</title>
<g id="a_node2"><a xlink:href="classMirai_1_1EventBase.html" target="_top" xlink:title="Base class for all event types">
<polygon fill="none" stroke="black" points="444.5,-85.5 444.5,-105.5 554.5,-105.5 554.5,-85.5 444.5,-85.5"/>
<text text-anchor="middle" x="499.5" y="-92.7" font-family="-apple-system,BlinkMacSystemFont,'SegoeUI',Roboto,Oxygen,Ubuntu,Cantarell,'FiraSans','DroidSans','HelveticaNeue',sans-serif" font-size="11.00">Mirai::EventBase</text>
</a>
</g>
</g>
<!-- Node2&#45;&gt;Node1 -->
<g id="edge1" class="edge">
<title>Node2&#45;&gt;Node1</title>
<path fill="none" stroke="midnightblue" d="M564.69,-102.57C592.87,-105.68 626.42,-109.38 656.92,-112.74"/>
<polygon fill="midnightblue" stroke="midnightblue" points="564.89,-99.08 554.57,-101.46 564.13,-106.03 564.89,-99.08"/>
</g>
<!-- Node3 -->
<g id="node3" class="node">
<title>Node3</title>
<g id="a_node3"><a xlink:href="classMirai_1_1MiraiClient.html" target="_top" xlink:title="提供与mirai&#45;api&#45;http网络交互的封装">
<polygon fill="none" stroke="red" points="235.5,-51.5 235.5,-71.5 345.5,-71.5 345.5,-51.5 235.5,-51.5"/>
<text text-anchor="middle" x="290.5" y="-58.7" font-family="-apple-system,BlinkMacSystemFont,'SegoeUI',Roboto,Oxygen,Ubuntu,Cantarell,'FiraSans','DroidSans','HelveticaNeue',sans-serif" font-size="11.00">Mirai::MiraiClient</text>
</a>
</g>
</g>
<!-- Node3&#45;&gt;Node2 -->
<g id="edge2" class="edge">
<title>Node3&#45;&gt;Node2</title>
<path fill="none" stroke="#9a32cd" stroke-dasharray="5,2" d="M355.79,-60.34C375.57,-60.98 397.31,-62.7 417,-66.5 437.64,-70.49 460.08,-78.79 476.18,-85.49"/>
<polygon fill="#9a32cd" stroke="#9a32cd" points="355.73,-56.84 345.65,-60.1 355.57,-63.84 355.73,-56.84"/>
<text text-anchor="middle" x="397" y="-69.7" font-family="-apple-system,BlinkMacSystemFont,'SegoeUI',Roboto,Oxygen,Ubuntu,Cantarell,'FiraSans','DroidSans','HelveticaNeue',sans-serif" font-size="11.00"> _client</text>
</g>
<!-- Node7 -->
<g id="node4" class="node">
<title>Node7</title>
<g id="a_node4"><a xlink:title="STL class">
<polygon fill="none" stroke="#bfbfbf" points="20.5,-137.5 20.5,-157.5 93.5,-157.5 93.5,-137.5 20.5,-137.5"/>
<text text-anchor="middle" x="57" y="-144.7" font-family="-apple-system,BlinkMacSystemFont,'SegoeUI',Roboto,Oxygen,Ubuntu,Cantarell,'FiraSans','DroidSans','HelveticaNeue',sans-serif" font-size="11.00">std::string</text>
</a>
</g>
</g>
<!-- Node7&#45;&gt;Node3 -->
<g id="edge3" class="edge">
<title>Node7&#45;&gt;Node3</title>
<path fill="none" stroke="#9a32cd" stroke-dasharray="5,2" d="M89.73,-133.28C122.47,-118.91 175.21,-96.58 222,-80.5 231.33,-77.29 241.51,-74.21 251.07,-71.5"/>
<polygon fill="#9a32cd" stroke="#9a32cd" points="87.98,-130.23 80.24,-137.47 90.8,-136.63 87.98,-130.23"/>
<text text-anchor="middle" x="168" y="-117.7" font-family="-apple-system,BlinkMacSystemFont,'SegoeUI',Roboto,Oxygen,Ubuntu,Cantarell,'FiraSans','DroidSans','HelveticaNeue',sans-serif" font-size="11.00"> _SessionKey</text>
</g>
<!-- Node18 -->
<g id="node5" class="node">
<title>Node18</title>
<g id="a_node5"><a xlink:href="structMirai_1_1GroupMember.html" target="_top" xlink:title="群员资料">
<polygon fill="none" stroke="black" points="435,-137.5 435,-157.5 564,-157.5 564,-137.5 435,-137.5"/>
<text text-anchor="middle" x="499.5" y="-144.7" font-family="-apple-system,BlinkMacSystemFont,'SegoeUI',Roboto,Oxygen,Ubuntu,Cantarell,'FiraSans','DroidSans','HelveticaNeue',sans-serif" font-size="11.00">Mirai::GroupMember</text>
</a>
</g>
</g>
<!-- Node7&#45;&gt;Node18 -->
<g id="edge6" class="edge">
<title>Node7&#45;&gt;Node18</title>
<path fill="none" stroke="#9a32cd" stroke-dasharray="5,2" d="M103.8,-147.5C182.83,-147.5 344.95,-147.5 434.88,-147.5"/>
<polygon fill="#9a32cd" stroke="#9a32cd" points="103.67,-144 93.67,-147.5 103.67,-151 103.67,-144"/>
<text text-anchor="middle" x="290.5" y="-162.7" font-family="-apple-system,BlinkMacSystemFont,'SegoeUI',Roboto,Oxygen,Ubuntu,Cantarell,'FiraSans','DroidSans','HelveticaNeue',sans-serif" font-size="11.00"> SpecialTitle</text>
<text text-anchor="middle" x="290.5" y="-150.7" font-family="-apple-system,BlinkMacSystemFont,'SegoeUI',Roboto,Oxygen,Ubuntu,Cantarell,'FiraSans','DroidSans','HelveticaNeue',sans-serif" font-size="11.00">MemberName</text>
</g>
<!-- Node19 -->
<g id="node8" class="node">
<title>Node19</title>
<g id="a_node8"><a xlink:href="structMirai_1_1Group.html" target="_top" xlink:title="群聊资料">
<polygon fill="none" stroke="red" points="248.5,-228.5 248.5,-248.5 332.5,-248.5 332.5,-228.5 248.5,-228.5"/>
<text text-anchor="middle" x="290.5" y="-235.7" font-family="-apple-system,BlinkMacSystemFont,'SegoeUI',Roboto,Oxygen,Ubuntu,Cantarell,'FiraSans','DroidSans','HelveticaNeue',sans-serif" font-size="11.00">Mirai::Group</text>
</a>
</g>
</g>
<!-- Node7&#45;&gt;Node19 -->
<g id="edge10" class="edge">
<title>Node7&#45;&gt;Node19</title>
<path fill="none" stroke="#9a32cd" stroke-dasharray="5,2" d="M93.11,-161.3C140.04,-179.75 222.11,-212.01 263.73,-228.37"/>
<polygon fill="#9a32cd" stroke="#9a32cd" points="94.25,-157.99 83.66,-157.59 91.69,-164.5 94.25,-157.99"/>
<text text-anchor="middle" x="168" y="-206.7" font-family="-apple-system,BlinkMacSystemFont,'SegoeUI',Roboto,Oxygen,Ubuntu,Cantarell,'FiraSans','DroidSans','HelveticaNeue',sans-serif" font-size="11.00"> name</text>
</g>
<!-- Node18&#45;&gt;Node1 -->
<g id="edge4" class="edge">
<title>Node18&#45;&gt;Node1</title>
<path fill="none" stroke="#9a32cd" stroke-dasharray="5,2" d="M574.36,-139.96C600.29,-137.32 629.7,-134.32 656.73,-131.56"/>
<polygon fill="#9a32cd" stroke="#9a32cd" points="573.82,-136.5 564.23,-141 574.53,-143.46 573.82,-136.5"/>
<text text-anchor="middle" x="610.5" y="-141.7" font-family="-apple-system,BlinkMacSystemFont,'SegoeUI',Roboto,Oxygen,Ubuntu,Cantarell,'FiraSans','DroidSans','HelveticaNeue',sans-serif" font-size="11.00"> _operator</text>
</g>
<!-- Node12 -->
<g id="node6" class="node">
<title>Node12</title>
<g id="a_node6"><a xlink:href="classMirai_1_1Serializable.html" target="_top" xlink:title="Base class for all json serializable type">
<polygon fill="none" stroke="black" points="0,-211.5 0,-231.5 114,-231.5 114,-211.5 0,-211.5"/>
<text text-anchor="middle" x="57" y="-218.7" font-family="-apple-system,BlinkMacSystemFont,'SegoeUI',Roboto,Oxygen,Ubuntu,Cantarell,'FiraSans','DroidSans','HelveticaNeue',sans-serif" font-size="11.00">Mirai::Serializable</text>
</a>
</g>
</g>
<!-- Node12&#45;&gt;Node18 -->
<g id="edge5" class="edge">
<title>Node12&#45;&gt;Node18</title>
<path fill="none" stroke="midnightblue" d="M124.43,-212.25C185.52,-203.53 278.54,-189.71 359,-175.5 389.89,-170.04 424.47,-163.11 451.47,-157.51"/>
<polygon fill="midnightblue" stroke="midnightblue" points="123.57,-208.84 114.16,-213.71 124.55,-215.77 123.57,-208.84"/>
</g>
<!-- Node12&#45;&gt;Node19 -->
<g id="edge9" class="edge">
<title>Node12&#45;&gt;Node19</title>
<path fill="none" stroke="midnightblue" d="M124.26,-226.37C164.31,-229.31 214.09,-232.96 248.49,-235.49"/>
<polygon fill="midnightblue" stroke="midnightblue" points="124.27,-222.86 114.04,-225.62 123.76,-229.84 124.27,-222.86"/>
</g>
<!-- Node5 -->
<g id="node7" class="node">
<title>Node5</title>
<g id="a_node7"><a xlink:href="classMirai_1_1QQ__t.html" target="_top" xlink:title="QQ号码类型">
<polygon fill="none" stroke="red" points="251,-90.5 251,-110.5 330,-110.5 330,-90.5 251,-90.5"/>
<text text-anchor="middle" x="290.5" y="-97.7" font-family="-apple-system,BlinkMacSystemFont,'SegoeUI',Roboto,Oxygen,Ubuntu,Cantarell,'FiraSans','DroidSans','HelveticaNeue',sans-serif" font-size="11.00">Mirai::QQ_t</text>
</a>
</g>
</g>
<!-- Node5&#45;&gt;Node18 -->
<g id="edge7" class="edge">
<title>Node5&#45;&gt;Node18</title>
<path fill="none" stroke="#9a32cd" stroke-dasharray="5,2" d="M340.26,-107C363.64,-110.54 391.94,-115.44 417,-121.5 435.04,-125.86 454.9,-132.17 470.49,-137.47"/>
<polygon fill="#9a32cd" stroke="#9a32cd" points="340.64,-103.52 330.24,-105.52 339.62,-110.44 340.64,-103.52"/>
<text text-anchor="middle" x="397" y="-124.7" font-family="-apple-system,BlinkMacSystemFont,'SegoeUI',Roboto,Oxygen,Ubuntu,Cantarell,'FiraSans','DroidSans','HelveticaNeue',sans-serif" font-size="11.00"> id</text>
</g>
<!-- Node19&#45;&gt;Node1 -->
<g id="edge13" class="edge">
<title>Node19&#45;&gt;Node1</title>
<path fill="none" stroke="#9a32cd" stroke-dasharray="5,2" d="M342.95,-243.65C365.78,-244.83 392.89,-244.7 417,-240.5 538.79,-219.29 675.08,-156.95 725.42,-132.5"/>
<polygon fill="#9a32cd" stroke="#9a32cd" points="342.98,-240.15 332.78,-243.03 342.55,-247.13 342.98,-240.15"/>
<text text-anchor="middle" x="499.5" y="-239.7" font-family="-apple-system,BlinkMacSystemFont,'SegoeUI',Roboto,Oxygen,Ubuntu,Cantarell,'FiraSans','DroidSans','HelveticaNeue',sans-serif" font-size="11.00"> _group</text>
</g>
<!-- Node19&#45;&gt;Node18 -->
<g id="edge8" class="edge">
<title>Node19&#45;&gt;Node18</title>
<path fill="none" stroke="#9a32cd" stroke-dasharray="5,2" d="M342.64,-232.3C366.08,-228.16 393.76,-221.41 417,-210.5 445.82,-196.98 473.96,-171.8 488.44,-157.72"/>
<polygon fill="#9a32cd" stroke="#9a32cd" points="341.83,-228.88 332.53,-233.97 342.97,-235.79 341.83,-228.88"/>
<text text-anchor="middle" x="397" y="-227.7" font-family="-apple-system,BlinkMacSystemFont,'SegoeUI',Roboto,Oxygen,Ubuntu,Cantarell,'FiraSans','DroidSans','HelveticaNeue',sans-serif" font-size="11.00"> group</text>
</g>
<!-- Node21 -->
<g id="node9" class="node">
<title>Node21</title>
<g id="a_node9"><a xlink:title="STL class">
<polygon fill="none" stroke="#bfbfbf" points="447.5,-20.5 447.5,-40.5 551.5,-40.5 551.5,-20.5 447.5,-20.5"/>
<text text-anchor="middle" x="499.5" y="-27.7" font-family="-apple-system,BlinkMacSystemFont,'SegoeUI',Roboto,Oxygen,Ubuntu,Cantarell,'FiraSans','DroidSans','HelveticaNeue',sans-serif" font-size="11.00">std::string_view</text>
</a>
</g>
</g>
<!-- Node21&#45;&gt;Node1 -->
<g id="edge11" class="edge">
<title>Node21&#45;&gt;Node1</title>
<path fill="none" stroke="#9a32cd" stroke-dasharray="5,2" d="M536.59,-44.05C586.3,-62.72 674.69,-95.91 718.85,-112.49"/>
<polygon fill="#9a32cd" stroke="#9a32cd" points="537.78,-40.76 527.19,-40.52 535.32,-47.31 537.78,-40.76"/>
<text text-anchor="middle" x="610.5" y="-85.7" font-family="-apple-system,BlinkMacSystemFont,'SegoeUI',Roboto,Oxygen,Ubuntu,Cantarell,'FiraSans','DroidSans','HelveticaNeue',sans-serif" font-size="11.00"> _TYPE_</text>
</g>
<!-- Node22 -->
<g id="node10" class="node">
<title>Node22</title>
<g id="a_node10"><a xlink:title="STL class">
<polygon fill="none" stroke="#bfbfbf" points="222,-0.5 222,-32.5 359,-32.5 359,-0.5 222,-0.5"/>
<text text-anchor="start" x="230" y="-19.7" font-family="-apple-system,BlinkMacSystemFont,'SegoeUI',Roboto,Oxygen,Ubuntu,Cantarell,'FiraSans','DroidSans','HelveticaNeue',sans-serif" font-size="11.00">std::basic_string_view</text>
<text text-anchor="middle" x="290.5" y="-7.7" font-family="-apple-system,BlinkMacSystemFont,'SegoeUI',Roboto,Oxygen,Ubuntu,Cantarell,'FiraSans','DroidSans','HelveticaNeue',sans-serif" font-size="11.00">&lt; char &gt;</text>
</a>
</g>
</g>
<!-- Node22&#45;&gt;Node21 -->
<g id="edge12" class="edge">
<title>Node22&#45;&gt;Node21</title>
<path fill="none" stroke="midnightblue" d="M369.51,-21.78C395.54,-23.54 423.86,-25.45 447.32,-27.04"/>
<polygon fill="midnightblue" stroke="midnightblue" points="369.49,-18.27 359.28,-21.08 369.02,-25.25 369.49,-18.27"/>
</g>
</g>
</svg>
