<?xml version="1.0" encoding="UTF-8" standalone="no"?>
<!DOCTYPE svg PUBLIC "-//W3C//DTD SVG 1.1//EN"
 "http://www.w3.org/Graphics/SVG/1.1/DTD/svg11.dtd">
<!-- Generated by graphviz version 2.43.0 (0)
 -->
<!-- Title: Mirai::BotOfflineEventActive Pages: 1 -->
<svg width="371pt" height="179pt"
 viewBox="0.00 0.00 370.50 179.00" xmlns="http://www.w3.org/2000/svg" xmlns:xlink="http://www.w3.org/1999/xlink">
<g id="graph0" class="graph" transform="scale(1 1) rotate(0) translate(4 175)">
<title>Mirai::BotOfflineEventActive</title>
<!-- Node1 -->
<g id="node1" class="node">
<title>Node1</title>
<g id="a_node1"><a xlink:title="Bot主动下线事件">
<polygon fill="#bfbfbf" stroke="black" points="144,-0.5 144,-20.5 316,-20.5 316,-0.5 144,-0.5"/>
<text text-anchor="middle" x="230" y="-7.7" font-family="-apple-system,BlinkMacSystemFont,'SegoeUI',Roboto,Oxygen,Ubuntu,Cantarell,'FiraSans','DroidSans','HelveticaNeue',sans-serif" font-size="11.00">Mirai::BotOfflineEventActive</text>
</a>
</g>
</g>
<!-- Node2 -->
<g id="node2" class="node">
<title>Node2</title>
<g id="a_node2"><a xlink:href="classMirai_1_1BotEvent.html" target="_top" xlink:title="与Bot本身相关的事件的基类">
<polygon fill="none" stroke="black" points="117.5,-69.5 117.5,-89.5 218.5,-89.5 218.5,-69.5 117.5,-69.5"/>
<text text-anchor="middle" x="168" y="-76.7" font-family="-apple-system,BlinkMacSystemFont,'SegoeUI',Roboto,Oxygen,Ubuntu,Cantarell,'FiraSans','DroidSans','HelveticaNeue',sans-serif" font-size="11.00">Mirai::BotEvent</text>
</a>
</g>
</g>
<!-- Node2&#45;&gt;Node1 -->
<g id="edge1" class="edge">
<title>Node2&#45;&gt;Node1</title>
<path fill="none" stroke="midnightblue" d="M183.18,-62.1C195.18,-49.12 211.51,-31.48 221.37,-20.82"/>
<polygon fill="midnightblue" stroke="midnightblue" points="180.58,-59.75 176.36,-69.46 185.72,-64.5 180.58,-59.75"/>
</g>
<!-- Node3 -->
<g id="node3" class="node">
<title>Node3</title>
<g id="a_node3"><a xlink:href="classMirai_1_1EventBase.html" target="_top" xlink:title="Base class for all event types">
<polygon fill="none" stroke="red" points="0,-144.5 0,-164.5 110,-164.5 110,-144.5 0,-144.5"/>
<text text-anchor="middle" x="55" y="-151.7" font-family="-apple-system,BlinkMacSystemFont,'SegoeUI',Roboto,Oxygen,Ubuntu,Cantarell,'FiraSans','DroidSans','HelveticaNeue',sans-serif" font-size="11.00">Mirai::EventBase</text>
</a>
</g>
</g>
<!-- Node3&#45;&gt;Node2 -->
<g id="edge2" class="edge">
<title>Node3&#45;&gt;Node2</title>
<path fill="none" stroke="midnightblue" d="M77.99,-138.65C100.71,-123.97 134.76,-101.97 153.8,-89.67"/>
<polygon fill="midnightblue" stroke="midnightblue" points="75.81,-135.89 69.31,-144.25 79.61,-141.77 75.81,-135.89"/>
</g>
<!-- Node6 -->
<g id="node4" class="node">
<title>Node6</title>
<g id="a_node4"><a xlink:href="classMirai_1_1QQ__t.html" target="_top" xlink:title="QQ号码类型">
<polygon fill="none" stroke="red" points="128.5,-144.5 128.5,-164.5 207.5,-164.5 207.5,-144.5 128.5,-144.5"/>
<text text-anchor="middle" x="168" y="-151.7" font-family="-apple-system,BlinkMacSystemFont,'SegoeUI',Roboto,Oxygen,Ubuntu,Cantarell,'FiraSans','DroidSans','HelveticaNeue',sans-serif" font-size="11.00">Mirai::QQ_t</text>
</a>
</g>
</g>
<!-- Node6&#45;&gt;Node2 -->
<g id="edge3" class="edge">
<title>Node6&#45;&gt;Node2</title>
<path fill="none" stroke="#9a32cd" stroke-dasharray="5,2" d="M168,-134C168,-119.73 168,-100.99 168,-89.9"/>
<polygon fill="#9a32cd" stroke="#9a32cd" points="164.5,-134.25 168,-144.25 171.5,-134.25 164.5,-134.25"/>
<text text-anchor="middle" x="179.5" y="-111.2" font-family="-apple-system,BlinkMacSystemFont,'SegoeUI',Roboto,Oxygen,Ubuntu,Cantarell,'FiraSans','DroidSans','HelveticaNeue',sans-serif" font-size="11.00"> _qq</text>
</g>
<!-- Node19 -->
<g id="node5" class="node">
<title>Node19</title>
<g id="a_node5"><a xlink:title="STL class">
<polygon fill="none" stroke="#bfbfbf" points="240,-69.5 240,-89.5 344,-89.5 344,-69.5 240,-69.5"/>
<text text-anchor="middle" x="292" y="-76.7" font-family="-apple-system,BlinkMacSystemFont,'SegoeUI',Roboto,Oxygen,Ubuntu,Cantarell,'FiraSans','DroidSans','HelveticaNeue',sans-serif" font-size="11.00">std::string_view</text>
</a>
</g>
</g>
<!-- Node19&#45;&gt;Node1 -->
<g id="edge4" class="edge">
<title>Node19&#45;&gt;Node1</title>
<path fill="none" stroke="#9a32cd" stroke-dasharray="5,2" d="M276.82,-62.1C264.82,-49.12 248.49,-31.48 238.63,-20.82"/>
<polygon fill="#9a32cd" stroke="#9a32cd" points="274.28,-64.5 283.64,-69.46 279.42,-59.75 274.28,-64.5"/>
<text text-anchor="middle" x="286" y="-42.2" font-family="-apple-system,BlinkMacSystemFont,'SegoeUI',Roboto,Oxygen,Ubuntu,Cantarell,'FiraSans','DroidSans','HelveticaNeue',sans-serif" font-size="11.00"> _TYPE_</text>
</g>
<!-- Node20 -->
<g id="node6" class="node">
<title>Node20</title>
<g id="a_node6"><a xlink:title="STL class">
<polygon fill="none" stroke="#bfbfbf" points="225.5,-138.5 225.5,-170.5 362.5,-170.5 362.5,-138.5 225.5,-138.5"/>
<text text-anchor="start" x="233.5" y="-157.7" font-family="-apple-system,BlinkMacSystemFont,'SegoeUI',Roboto,Oxygen,Ubuntu,Cantarell,'FiraSans','DroidSans','HelveticaNeue',sans-serif" font-size="11.00">std::basic_string_view</text>
<text text-anchor="middle" x="294" y="-145.7" font-family="-apple-system,BlinkMacSystemFont,'SegoeUI',Roboto,Oxygen,Ubuntu,Cantarell,'FiraSans','DroidSans','HelveticaNeue',sans-serif" font-size="11.00">&lt; char &gt;</text>
</a>
</g>
</g>
<!-- Node20&#45;&gt;Node19 -->
<g id="edge5" class="edge">
<title>Node20&#45;&gt;Node19</title>
<path fill="none" stroke="midnightblue" d="M293.31,-128.28C292.94,-114.89 292.51,-99.26 292.25,-89.62"/>
<polygon fill="midnightblue" stroke="midnightblue" points="289.81,-128.47 293.59,-138.37 296.81,-128.28 289.81,-128.47"/>
</g>
</g>
</svg>
