<?xml version="1.0" encoding="UTF-8" standalone="no"?>
<!DOCTYPE svg PUBLIC "-//W3C//DTD SVG 1.1//EN"
 "http://www.w3.org/Graphics/SVG/1.1/DTD/svg11.dtd">
<!-- Generated by graphviz version 3.0.0 (20221109.1736)
 -->
<!-- Title: Mirai::BotReloginEvent Pages: 1 -->
<svg width="236pt" height="180pt"
 viewBox="0.00 0.00 235.50 180.00" xmlns="http://www.w3.org/2000/svg" xmlns:xlink="http://www.w3.org/1999/xlink">
<g id="graph0" class="graph" transform="scale(1 1) rotate(0) translate(4 176)">
<title>Mirai::BotReloginEvent</title>
<!-- Node1 -->
<g id="node1" class="node">
<title>Node1</title>
<g id="a_node1"><a xlink:title="Bot重新登录事件">
<polygon fill="#bfbfbf" stroke="black" points="67.5,-0.5 67.5,-20.5 192.5,-20.5 192.5,-0.5 67.5,-0.5"/>
<text text-anchor="middle" x="130" y="-7.7" font-family="-apple-system, BlinkMacSystemFont, 'Segoe UI', Roboto, Oxygen, Ubuntu, Cantarell, 'Fira Sans', 'Droid Sans', 'Helvetica Neue', sans-serif" font-size="11.00">Mirai::BotReloginEvent</text>
</a>
</g>
</g>
<!-- Node2 -->
<g id="node2" class="node">
<title>Node2</title>
<g id="a_node2"><a xlink:href="classMirai_1_1BotAccountEvent.html" target="_top" xlink:title=" ">
<polygon fill="none" stroke="black" points="66,-58.5 66,-90.5 194,-90.5 194,-58.5 66,-58.5"/>
<text text-anchor="start" x="74" y="-77.7" font-family="-apple-system, BlinkMacSystemFont, 'Segoe UI', Roboto, Oxygen, Ubuntu, Cantarell, 'Fira Sans', 'Droid Sans', 'Helvetica Neue', sans-serif" font-size="11.00">Mirai::BotAccountEvent</text>
<text text-anchor="middle" x="130" y="-65.7" font-family="-apple-system, BlinkMacSystemFont, 'Segoe UI', Roboto, Oxygen, Ubuntu, Cantarell, 'Fira Sans', 'Droid Sans', 'Helvetica Neue', sans-serif" font-size="11.00">&lt; BotReloginEvent &gt;</text>
</a>
</g>
</g>
<!-- Node2&#45;&gt;Node1 -->
<g id="edge1" class="edge">
<title>Node2&#45;&gt;Node1</title>
<path fill="none" stroke="midnightblue" d="M130,-48.42C130,-38.67 130,-28.11 130,-20.79"/>
<polygon fill="midnightblue" stroke="midnightblue" points="126.5,-48.49 130,-58.49 133.5,-48.49 126.5,-48.49"/>
</g>
<!-- Node3 -->
<g id="node3" class="node">
<title>Node3</title>
<g id="a_node3"><a xlink:href="classMirai_1_1IEvent.html" target="_top" xlink:title=" ">
<polygon fill="none" stroke="black" points="0,-139.5 0,-171.5 138,-171.5 138,-139.5 0,-139.5"/>
<text text-anchor="start" x="8" y="-158.7" font-family="-apple-system, BlinkMacSystemFont, 'Segoe UI', Roboto, Oxygen, Ubuntu, Cantarell, 'Fira Sans', 'Droid Sans', 'Helvetica Neue', sans-serif" font-size="11.00">Mirai::IEvent&lt; BotRelogin</text>
<text text-anchor="middle" x="69" y="-146.7" font-family="-apple-system, BlinkMacSystemFont, 'Segoe UI', Roboto, Oxygen, Ubuntu, Cantarell, 'Fira Sans', 'Droid Sans', 'Helvetica Neue', sans-serif" font-size="11.00">Event &gt;</text>
</a>
</g>
</g>
<!-- Node3&#45;&gt;Node2 -->
<g id="edge2" class="edge">
<title>Node3&#45;&gt;Node2</title>
<path fill="none" stroke="midnightblue" d="M87.02,-131.16C97.12,-118.08 109.42,-102.15 118.27,-90.69"/>
<polygon fill="midnightblue" stroke="midnightblue" points="84.1,-129.21 80.76,-139.27 89.64,-133.49 84.1,-129.21"/>
</g>
<!-- Node4 -->
<g id="node4" class="node">
<title>Node4</title>
<g id="a_node4"><a xlink:href="classMirai_1_1QQ__t.html" target="_top" xlink:title="QQ号码类型">
<polygon fill="none" stroke="red" points="156.5,-145.5 156.5,-165.5 227.5,-165.5 227.5,-145.5 156.5,-145.5"/>
<text text-anchor="middle" x="192" y="-152.7" font-family="-apple-system, BlinkMacSystemFont, 'Segoe UI', Roboto, Oxygen, Ubuntu, Cantarell, 'Fira Sans', 'Droid Sans', 'Helvetica Neue', sans-serif" font-size="11.00">Mirai::QQ_t</text>
</a>
</g>
</g>
<!-- Node4&#45;&gt;Node2 -->
<g id="edge3" class="edge">
<title>Node4&#45;&gt;Node2</title>
<path fill="none" stroke="#9a32cd" stroke-dasharray="5,2" d="M178.43,-137.2C167.51,-123.3 152.34,-103.96 141.9,-90.66"/>
<polygon fill="#9a32cd" stroke="#9a32cd" points="175.96,-139.73 184.89,-145.44 181.47,-135.41 175.96,-139.73"/>
<text text-anchor="middle" x="175" y="-112.2" font-family="-apple-system, BlinkMacSystemFont, 'Segoe UI', Roboto, Oxygen, Ubuntu, Cantarell, 'Fira Sans', 'Droid Sans', 'Helvetica Neue', sans-serif" font-size="11.00"> qq_</text>
</g>
</g>
</svg>
