<?xml version="1.0" encoding="UTF-8" standalone="no"?>
<!DOCTYPE svg PUBLIC "-//W3C//DTD SVG 1.1//EN"
 "http://www.w3.org/Graphics/SVG/1.1/DTD/svg11.dtd">
<!-- Generated by graphviz version 2.43.0 (0)
 -->
<!-- Title: Mirai::MessageBase Pages: 1 -->
<svg width="683pt" height="653pt"
 viewBox="0.00 0.00 683.00 653.00" xmlns="http://www.w3.org/2000/svg" xmlns:xlink="http://www.w3.org/1999/xlink">
<g id="graph0" class="graph" transform="scale(1 1) rotate(0) translate(4 649)">
<title>Mirai::MessageBase</title>
<!-- Node1 -->
<g id="node1" class="node">
<title>Node1</title>
<g id="a_node1"><a xlink:title="Base class for all message types">
<polygon fill="#bfbfbf" stroke="black" points="150,-312.5 150,-332.5 277,-332.5 277,-312.5 150,-312.5"/>
<text text-anchor="middle" x="213.5" y="-319.7" font-family="-apple-system,BlinkMacSystemFont,'SegoeUI',Roboto,Oxygen,Ubuntu,Cantarell,'FiraSans','DroidSans','HelveticaNeue',sans-serif" font-size="11.00">Mirai::MessageBase</text>
</a>
</g>
</g>
<!-- Node3 -->
<g id="node3" class="node">
<title>Node3</title>
<g id="a_node3"><a xlink:href="classMirai_1_1AppMessage.html" target="_top" xlink:title="小程序消息">
<polygon fill="none" stroke="black" points="334,-624.5 334,-644.5 455,-644.5 455,-624.5 334,-624.5"/>
<text text-anchor="middle" x="394.5" y="-631.7" font-family="-apple-system,BlinkMacSystemFont,'SegoeUI',Roboto,Oxygen,Ubuntu,Cantarell,'FiraSans','DroidSans','HelveticaNeue',sans-serif" font-size="11.00">Mirai::AppMessage</text>
</a>
</g>
</g>
<!-- Node1&#45;&gt;Node3 -->
<g id="edge2" class="edge">
<title>Node1&#45;&gt;Node3</title>
<path fill="none" stroke="midnightblue" d="M215.02,-342.74C217.51,-395.75 231.8,-539.69 313,-614.5 318.93,-619.96 326.12,-624 333.73,-626.96"/>
<polygon fill="midnightblue" stroke="midnightblue" points="218.51,-342.47 214.64,-332.61 211.51,-342.73 218.51,-342.47"/>
</g>
<!-- Node4 -->
<g id="node4" class="node">
<title>Node4</title>
<g id="a_node4"><a xlink:href="classMirai_1_1AtAllMessage.html" target="_top" xlink:title="At全体成员消息">
<polygon fill="none" stroke="black" points="332,-585.5 332,-605.5 457,-605.5 457,-585.5 332,-585.5"/>
<text text-anchor="middle" x="394.5" y="-592.7" font-family="-apple-system,BlinkMacSystemFont,'SegoeUI',Roboto,Oxygen,Ubuntu,Cantarell,'FiraSans','DroidSans','HelveticaNeue',sans-serif" font-size="11.00">Mirai::AtAllMessage</text>
</a>
</g>
</g>
<!-- Node1&#45;&gt;Node4 -->
<g id="edge3" class="edge">
<title>Node1&#45;&gt;Node4</title>
<path fill="none" stroke="midnightblue" d="M216.2,-342.6C221.37,-390.55 241.25,-512.38 313,-575.5 318.51,-580.35 325.03,-584.06 331.92,-586.9"/>
<polygon fill="midnightblue" stroke="midnightblue" points="219.67,-342.17 215.22,-332.55 212.71,-342.85 219.67,-342.17"/>
</g>
<!-- Node5 -->
<g id="node5" class="node">
<title>Node5</title>
<g id="a_node5"><a xlink:href="classMirai_1_1AtMessage.html" target="_top" xlink:title="At用户消息">
<polygon fill="none" stroke="black" points="338.5,-546.5 338.5,-566.5 450.5,-566.5 450.5,-546.5 338.5,-546.5"/>
<text text-anchor="middle" x="394.5" y="-553.7" font-family="-apple-system,BlinkMacSystemFont,'SegoeUI',Roboto,Oxygen,Ubuntu,Cantarell,'FiraSans','DroidSans','HelveticaNeue',sans-serif" font-size="11.00">Mirai::AtMessage</text>
</a>
</g>
</g>
<!-- Node1&#45;&gt;Node5 -->
<g id="edge4" class="edge">
<title>Node1&#45;&gt;Node5</title>
<path fill="none" stroke="midnightblue" d="M217.85,-342.94C225.97,-385.73 250.82,-485.03 313,-536.5 320.32,-542.56 329.22,-546.83 338.39,-549.82"/>
<polygon fill="midnightblue" stroke="midnightblue" points="221.26,-342.12 216.06,-332.89 214.37,-343.35 221.26,-342.12"/>
</g>
<!-- Node6 -->
<g id="node6" class="node">
<title>Node6</title>
<g id="a_node6"><a xlink:href="classMirai_1_1AudioMessage.html" target="_top" xlink:title="语音消息">
<polygon fill="none" stroke="black" points="329,-507.5 329,-527.5 460,-527.5 460,-507.5 329,-507.5"/>
<text text-anchor="middle" x="394.5" y="-514.7" font-family="-apple-system,BlinkMacSystemFont,'SegoeUI',Roboto,Oxygen,Ubuntu,Cantarell,'FiraSans','DroidSans','HelveticaNeue',sans-serif" font-size="11.00">Mirai::AudioMessage</text>
</a>
</g>
</g>
<!-- Node1&#45;&gt;Node6 -->
<g id="edge5" class="edge">
<title>Node1&#45;&gt;Node6</title>
<path fill="none" stroke="midnightblue" d="M220.04,-342.69C231.2,-379.42 259.96,-457.11 313,-497.5 318.38,-501.6 324.51,-504.87 330.91,-507.47"/>
<polygon fill="midnightblue" stroke="midnightblue" points="223.29,-341.32 217.14,-332.69 216.57,-343.27 223.29,-341.32"/>
</g>
<!-- Node7 -->
<g id="node7" class="node">
<title>Node7</title>
<g id="a_node7"><a xlink:href="classMirai_1_1DiceMessage.html" target="_top" xlink:title="骰子消息">
<polygon fill="none" stroke="black" points="332.5,-468.5 332.5,-488.5 456.5,-488.5 456.5,-468.5 332.5,-468.5"/>
<text text-anchor="middle" x="394.5" y="-475.7" font-family="-apple-system,BlinkMacSystemFont,'SegoeUI',Roboto,Oxygen,Ubuntu,Cantarell,'FiraSans','DroidSans','HelveticaNeue',sans-serif" font-size="11.00">Mirai::DiceMessage</text>
</a>
</g>
</g>
<!-- Node1&#45;&gt;Node7 -->
<g id="edge6" class="edge">
<title>Node1&#45;&gt;Node7</title>
<path fill="none" stroke="midnightblue" d="M223.08,-341.9C237.32,-371.75 268.69,-428.59 313,-458.5 319.09,-462.61 325.94,-465.87 333.02,-468.47"/>
<polygon fill="midnightblue" stroke="midnightblue" points="226.14,-340.17 218.77,-332.56 219.79,-343.11 226.14,-340.17"/>
</g>
<!-- Node8 -->
<g id="node8" class="node">
<title>Node8</title>
<g id="a_node8"><a xlink:href="classMirai_1_1FaceMessage.html" target="_top" xlink:title="QQ表情消息">
<polygon fill="none" stroke="black" points="332,-429.5 332,-449.5 457,-449.5 457,-429.5 332,-429.5"/>
<text text-anchor="middle" x="394.5" y="-436.7" font-family="-apple-system,BlinkMacSystemFont,'SegoeUI',Roboto,Oxygen,Ubuntu,Cantarell,'FiraSans','DroidSans','HelveticaNeue',sans-serif" font-size="11.00">Mirai::FaceMessage</text>
</a>
</g>
</g>
<!-- Node1&#45;&gt;Node8 -->
<g id="edge7" class="edge">
<title>Node1&#45;&gt;Node8</title>
<path fill="none" stroke="midnightblue" d="M227.91,-340.7C245.13,-362.74 277.11,-399.4 313,-419.5 320.29,-423.58 328.4,-426.84 336.6,-429.44"/>
<polygon fill="midnightblue" stroke="midnightblue" points="230.5,-338.33 221.66,-332.5 224.94,-342.58 230.5,-338.33"/>
</g>
<!-- Node10 -->
<g id="node10" class="node">
<title>Node10</title>
<g id="a_node10"><a xlink:href="classMirai_1_1FileMessage.html" target="_top" xlink:title="文件消息">
<polygon fill="none" stroke="black" points="335.5,-390.5 335.5,-410.5 453.5,-410.5 453.5,-390.5 335.5,-390.5"/>
<text text-anchor="middle" x="394.5" y="-397.7" font-family="-apple-system,BlinkMacSystemFont,'SegoeUI',Roboto,Oxygen,Ubuntu,Cantarell,'FiraSans','DroidSans','HelveticaNeue',sans-serif" font-size="11.00">Mirai::FileMessage</text>
</a>
</g>
</g>
<!-- Node1&#45;&gt;Node10 -->
<g id="edge9" class="edge">
<title>Node1&#45;&gt;Node10</title>
<path fill="none" stroke="midnightblue" d="M236.92,-338.25C256.28,-351.21 285.4,-369.23 313,-380.5 322.6,-384.42 333.17,-387.72 343.4,-390.43"/>
<polygon fill="midnightblue" stroke="midnightblue" points="238.74,-335.26 228.51,-332.52 234.8,-341.04 238.74,-335.26"/>
</g>
<!-- Node11 -->
<g id="node11" class="node">
<title>Node11</title>
<g id="a_node11"><a xlink:href="classMirai_1_1ForwardMessage.html" target="_top" xlink:title="合并转发消息">
<polygon fill="none" stroke="black" points="322.5,-351.5 322.5,-371.5 466.5,-371.5 466.5,-351.5 322.5,-351.5"/>
<text text-anchor="middle" x="394.5" y="-358.7" font-family="-apple-system,BlinkMacSystemFont,'SegoeUI',Roboto,Oxygen,Ubuntu,Cantarell,'FiraSans','DroidSans','HelveticaNeue',sans-serif" font-size="11.00">Mirai::ForwardMessage</text>
</a>
</g>
</g>
<!-- Node1&#45;&gt;Node11 -->
<g id="edge10" class="edge">
<title>Node1&#45;&gt;Node11</title>
<path fill="none" stroke="midnightblue" d="M270.58,-334.72C295.34,-340.11 324.09,-346.38 347.56,-351.49"/>
<polygon fill="midnightblue" stroke="midnightblue" points="271.11,-331.25 260.6,-332.54 269.62,-338.09 271.11,-331.25"/>
</g>
<!-- Node12 -->
<g id="node12" class="node">
<title>Node12</title>
<g id="a_node12"><a xlink:href="classMirai_1_1ImageMessage.html" target="_top" xlink:title="图片消息">
<polygon fill="none" stroke="black" points="327.5,-312.5 327.5,-332.5 461.5,-332.5 461.5,-312.5 327.5,-312.5"/>
<text text-anchor="middle" x="394.5" y="-319.7" font-family="-apple-system,BlinkMacSystemFont,'SegoeUI',Roboto,Oxygen,Ubuntu,Cantarell,'FiraSans','DroidSans','HelveticaNeue',sans-serif" font-size="11.00">Mirai::ImageMessage</text>
</a>
</g>
</g>
<!-- Node1&#45;&gt;Node12 -->
<g id="edge11" class="edge">
<title>Node1&#45;&gt;Node12</title>
<path fill="none" stroke="midnightblue" d="M287.14,-322.5C300.41,-322.5 314.2,-322.5 327.28,-322.5"/>
<polygon fill="midnightblue" stroke="midnightblue" points="287.11,-319 277.11,-322.5 287.11,-326 287.11,-319"/>
</g>
<!-- Node14 -->
<g id="node14" class="node">
<title>Node14</title>
<g id="a_node14"><a xlink:href="classMirai_1_1JsonMessage.html" target="_top" xlink:title="JSON消息">
<polygon fill="none" stroke="black" points="333.5,-273.5 333.5,-293.5 455.5,-293.5 455.5,-273.5 333.5,-273.5"/>
<text text-anchor="middle" x="394.5" y="-280.7" font-family="-apple-system,BlinkMacSystemFont,'SegoeUI',Roboto,Oxygen,Ubuntu,Cantarell,'FiraSans','DroidSans','HelveticaNeue',sans-serif" font-size="11.00">Mirai::JsonMessage</text>
</a>
</g>
</g>
<!-- Node1&#45;&gt;Node14 -->
<g id="edge13" class="edge">
<title>Node1&#45;&gt;Node14</title>
<path fill="none" stroke="midnightblue" d="M270.58,-310.28C295.34,-304.89 324.09,-298.62 347.56,-293.51"/>
<polygon fill="midnightblue" stroke="midnightblue" points="269.62,-306.91 260.6,-312.46 271.11,-313.75 269.62,-306.91"/>
</g>
<!-- Node15 -->
<g id="node15" class="node">
<title>Node15</title>
<g id="a_node15"><a xlink:href="classMirai_1_1MiraiCodeMessage.html" target="_top" xlink:title=" ">
<polygon fill="none" stroke="black" points="317,-234.5 317,-254.5 472,-254.5 472,-234.5 317,-234.5"/>
<text text-anchor="middle" x="394.5" y="-241.7" font-family="-apple-system,BlinkMacSystemFont,'SegoeUI',Roboto,Oxygen,Ubuntu,Cantarell,'FiraSans','DroidSans','HelveticaNeue',sans-serif" font-size="11.00">Mirai::MiraiCodeMessage</text>
</a>
</g>
</g>
<!-- Node1&#45;&gt;Node15 -->
<g id="edge14" class="edge">
<title>Node1&#45;&gt;Node15</title>
<path fill="none" stroke="midnightblue" d="M236.52,-306.6C255.82,-293.33 285.1,-274.83 313,-263.5 321.65,-259.99 331.09,-257.04 340.38,-254.58"/>
<polygon fill="midnightblue" stroke="midnightblue" points="234.33,-303.86 228.14,-312.46 238.34,-309.6 234.33,-303.86"/>
</g>
<!-- Node16 -->
<g id="node16" class="node">
<title>Node16</title>
<g id="a_node16"><a xlink:href="classMirai_1_1MusicShareMessage.html" target="_top" xlink:title="音乐分享卡片消息">
<polygon fill="none" stroke="black" points="313,-195.5 313,-215.5 476,-215.5 476,-195.5 313,-195.5"/>
<text text-anchor="middle" x="394.5" y="-202.7" font-family="-apple-system,BlinkMacSystemFont,'SegoeUI',Roboto,Oxygen,Ubuntu,Cantarell,'FiraSans','DroidSans','HelveticaNeue',sans-serif" font-size="11.00">Mirai::MusicShareMessage</text>
</a>
</g>
</g>
<!-- Node1&#45;&gt;Node16 -->
<g id="edge15" class="edge">
<title>Node1&#45;&gt;Node16</title>
<path fill="none" stroke="midnightblue" d="M227.6,-304.34C244.68,-282.03 276.7,-244.68 313,-224.5 319.53,-220.87 326.72,-217.93 334.05,-215.56"/>
<polygon fill="midnightblue" stroke="midnightblue" points="224.79,-302.25 221.61,-312.35 230.4,-306.44 224.79,-302.25"/>
</g>
<!-- Node17 -->
<g id="node17" class="node">
<title>Node17</title>
<g id="a_node17"><a xlink:href="classMirai_1_1PlainMessage.html" target="_top" xlink:title="文字消息">
<polygon fill="none" stroke="black" points="331.5,-156.5 331.5,-176.5 457.5,-176.5 457.5,-156.5 331.5,-156.5"/>
<text text-anchor="middle" x="394.5" y="-163.7" font-family="-apple-system,BlinkMacSystemFont,'SegoeUI',Roboto,Oxygen,Ubuntu,Cantarell,'FiraSans','DroidSans','HelveticaNeue',sans-serif" font-size="11.00">Mirai::PlainMessage</text>
</a>
</g>
</g>
<!-- Node1&#45;&gt;Node17 -->
<g id="edge16" class="edge">
<title>Node1&#45;&gt;Node17</title>
<path fill="none" stroke="midnightblue" d="M223,-302.89C237.13,-272.74 268.35,-215.37 313,-185.5 318.61,-181.75 324.87,-178.73 331.36,-176.31"/>
<polygon fill="midnightblue" stroke="midnightblue" points="219.67,-301.78 218.73,-312.33 226.04,-304.67 219.67,-301.78"/>
</g>
<!-- Node18 -->
<g id="node18" class="node">
<title>Node18</title>
<g id="a_node18"><a xlink:href="classMirai_1_1PokeMessage.html" target="_top" xlink:title="戳一戳消息">
<polygon fill="none" stroke="black" points="332,-117.5 332,-137.5 457,-137.5 457,-117.5 332,-117.5"/>
<text text-anchor="middle" x="394.5" y="-124.7" font-family="-apple-system,BlinkMacSystemFont,'SegoeUI',Roboto,Oxygen,Ubuntu,Cantarell,'FiraSans','DroidSans','HelveticaNeue',sans-serif" font-size="11.00">Mirai::PokeMessage</text>
</a>
</g>
</g>
<!-- Node1&#45;&gt;Node18 -->
<g id="edge17" class="edge">
<title>Node1&#45;&gt;Node18</title>
<path fill="none" stroke="midnightblue" d="M219.96,-302.14C230.99,-265.1 259.54,-186.82 313,-146.5 318.62,-142.26 325.03,-138.95 331.74,-136.37"/>
<polygon fill="midnightblue" stroke="midnightblue" points="216.46,-301.64 217.09,-312.22 223.2,-303.56 216.46,-301.64"/>
</g>
<!-- Node19 -->
<g id="node19" class="node">
<title>Node19</title>
<g id="a_node19"><a xlink:href="classMirai_1_1QuoteMessage.html" target="_top" xlink:title="引用回复消息">
<polygon fill="none" stroke="black" points="327.5,-78.5 327.5,-98.5 461.5,-98.5 461.5,-78.5 327.5,-78.5"/>
<text text-anchor="middle" x="394.5" y="-85.7" font-family="-apple-system,BlinkMacSystemFont,'SegoeUI',Roboto,Oxygen,Ubuntu,Cantarell,'FiraSans','DroidSans','HelveticaNeue',sans-serif" font-size="11.00">Mirai::QuoteMessage</text>
</a>
</g>
</g>
<!-- Node1&#45;&gt;Node19 -->
<g id="edge18" class="edge">
<title>Node1&#45;&gt;Node19</title>
<path fill="none" stroke="midnightblue" d="M217.77,-301.91C225.74,-258.82 250.32,-158.86 313,-107.5 317.33,-103.95 322.21,-101.04 327.37,-98.66"/>
<polygon fill="midnightblue" stroke="midnightblue" points="214.28,-301.58 216.02,-312.03 221.17,-302.77 214.28,-301.58"/>
</g>
<!-- Node20 -->
<g id="node20" class="node">
<title>Node20</title>
<g id="a_node20"><a xlink:href="classMirai_1_1SourceMessage.html" target="_top" xlink:title="来源消息">
<polygon fill="none" stroke="black" points="326,-39.5 326,-59.5 463,-59.5 463,-39.5 326,-39.5"/>
<text text-anchor="middle" x="394.5" y="-46.7" font-family="-apple-system,BlinkMacSystemFont,'SegoeUI',Roboto,Oxygen,Ubuntu,Cantarell,'FiraSans','DroidSans','HelveticaNeue',sans-serif" font-size="11.00">Mirai::SourceMessage</text>
</a>
</g>
</g>
<!-- Node1&#45;&gt;Node20 -->
<g id="edge19" class="edge">
<title>Node1&#45;&gt;Node20</title>
<path fill="none" stroke="midnightblue" d="M216.12,-302.27C221.13,-254.01 240.68,-131.46 313,-68.5 317.12,-64.92 321.78,-61.98 326.75,-59.57"/>
<polygon fill="midnightblue" stroke="midnightblue" points="212.63,-302.1 215.18,-312.38 219.6,-302.75 212.63,-302.1"/>
</g>
<!-- Node21 -->
<g id="node21" class="node">
<title>Node21</title>
<g id="a_node21"><a xlink:href="classMirai_1_1XmlMessage.html" target="_top" xlink:title="XML消息">
<polygon fill="none" stroke="black" points="334,-0.5 334,-20.5 455,-20.5 455,-0.5 334,-0.5"/>
<text text-anchor="middle" x="394.5" y="-7.7" font-family="-apple-system,BlinkMacSystemFont,'SegoeUI',Roboto,Oxygen,Ubuntu,Cantarell,'FiraSans','DroidSans','HelveticaNeue',sans-serif" font-size="11.00">Mirai::XmlMessage</text>
</a>
</g>
</g>
<!-- Node1&#45;&gt;Node21 -->
<g id="edge20" class="edge">
<title>Node1&#45;&gt;Node21</title>
<path fill="none" stroke="midnightblue" d="M214.94,-302.14C217.26,-248.82 231.15,-104.1 313,-29.5 318.94,-24.08 326.14,-20.13 333.75,-17.25"/>
<polygon fill="midnightblue" stroke="midnightblue" points="211.44,-302.22 214.6,-312.33 218.43,-302.46 211.44,-302.22"/>
</g>
<!-- Node2 -->
<g id="node2" class="node">
<title>Node2</title>
<g id="a_node2"><a xlink:href="classMirai_1_1Serializable.html" target="_top" xlink:title="Base class for all json serializable type">
<polygon fill="none" stroke="black" points="0,-312.5 0,-332.5 114,-332.5 114,-312.5 0,-312.5"/>
<text text-anchor="middle" x="57" y="-319.7" font-family="-apple-system,BlinkMacSystemFont,'SegoeUI',Roboto,Oxygen,Ubuntu,Cantarell,'FiraSans','DroidSans','HelveticaNeue',sans-serif" font-size="11.00">Mirai::Serializable</text>
</a>
</g>
</g>
<!-- Node2&#45;&gt;Node1 -->
<g id="edge1" class="edge">
<title>Node2&#45;&gt;Node1</title>
<path fill="none" stroke="midnightblue" d="M124.38,-322.5C132.81,-322.5 141.42,-322.5 149.79,-322.5"/>
<polygon fill="midnightblue" stroke="midnightblue" points="124.22,-319 114.22,-322.5 124.22,-326 124.22,-319"/>
</g>
<!-- Node9 -->
<g id="node9" class="node">
<title>Node9</title>
<g id="a_node9"><a xlink:href="classMirai_1_1MarketFaceMessage.html" target="_top" xlink:title="QQ商店表情消息">
<polygon fill="none" stroke="black" points="512,-429.5 512,-449.5 675,-449.5 675,-429.5 512,-429.5"/>
<text text-anchor="middle" x="593.5" y="-436.7" font-family="-apple-system,BlinkMacSystemFont,'SegoeUI',Roboto,Oxygen,Ubuntu,Cantarell,'FiraSans','DroidSans','HelveticaNeue',sans-serif" font-size="11.00">Mirai::MarketFaceMessage</text>
</a>
</g>
</g>
<!-- Node8&#45;&gt;Node9 -->
<g id="edge8" class="edge">
<title>Node8&#45;&gt;Node9</title>
<path fill="none" stroke="midnightblue" d="M467.39,-439.5C481.87,-439.5 497.17,-439.5 511.92,-439.5"/>
<polygon fill="midnightblue" stroke="midnightblue" points="467.02,-436 457.02,-439.5 467.02,-443 467.02,-436"/>
</g>
<!-- Node13 -->
<g id="node13" class="node">
<title>Node13</title>
<g id="a_node13"><a xlink:href="classMirai_1_1FlashImageMessage.html" target="_top" xlink:title="闪照消息">
<polygon fill="none" stroke="black" points="512.5,-312.5 512.5,-332.5 674.5,-332.5 674.5,-312.5 512.5,-312.5"/>
<text text-anchor="middle" x="593.5" y="-319.7" font-family="-apple-system,BlinkMacSystemFont,'SegoeUI',Roboto,Oxygen,Ubuntu,Cantarell,'FiraSans','DroidSans','HelveticaNeue',sans-serif" font-size="11.00">Mirai::FlashImageMessage</text>
</a>
</g>
</g>
<!-- Node12&#45;&gt;Node13 -->
<g id="edge12" class="edge">
<title>Node12&#45;&gt;Node13</title>
<path fill="none" stroke="midnightblue" d="M471.67,-322.5C484.94,-322.5 498.79,-322.5 512.17,-322.5"/>
<polygon fill="midnightblue" stroke="midnightblue" points="471.65,-319 461.65,-322.5 471.65,-326 471.65,-319"/>
</g>
</g>
</svg>
