<?xml version="1.0" encoding="UTF-8" standalone="no"?>
<!DOCTYPE svg PUBLIC "-//W3C//DTD SVG 1.1//EN"
 "http://www.w3.org/Graphics/SVG/1.1/DTD/svg11.dtd">
<!-- Generated by graphviz version 3.0.0 (20220413.0242)
 -->
<!-- Title: Mirai::FriendMessageEvent Pages: 1 -->
<svg width="583pt" height="163pt"
 viewBox="0.00 0.00 583.00 162.50" xmlns="http://www.w3.org/2000/svg" xmlns:xlink="http://www.w3.org/1999/xlink">
<g id="graph0" class="graph" transform="scale(1 1) rotate(0) translate(4 158.5)">
<title>Mirai::FriendMessageEvent</title>
<!-- Node1 -->
<g id="node1" class="node">
<title>Node1</title>
<g id="a_node1"><a xlink:title="好友消息事件">
<polygon fill="#bfbfbf" stroke="black" points="428,-73.5 428,-93.5 575,-93.5 575,-73.5 428,-73.5"/>
<text text-anchor="middle" x="501.5" y="-80.7" font-family="-apple-system, BlinkMacSystemFont, 'Segoe UI', Roboto, Oxygen, Ubuntu, Cantarell, 'Fira Sans', 'Droid Sans', 'Helvetica Neue', sans-serif" font-size="11.00">Mirai::FriendMessageEvent</text>
</a>
</g>
</g>
<!-- Node2 -->
<g id="node2" class="node">
<title>Node2</title>
<g id="a_node2"><a xlink:href="classMirai_1_1EventBase.html" target="_top" xlink:title="Base class for all event types">
<polygon fill="none" stroke="black" points="231.5,-132.5 231.5,-152.5 329.5,-152.5 329.5,-132.5 231.5,-132.5"/>
<text text-anchor="middle" x="280.5" y="-139.7" font-family="-apple-system, BlinkMacSystemFont, 'Segoe UI', Roboto, Oxygen, Ubuntu, Cantarell, 'Fira Sans', 'Droid Sans', 'Helvetica Neue', sans-serif" font-size="11.00">Mirai::EventBase</text>
</a>
</g>
</g>
<!-- Node2&#45;&gt;Node1 -->
<g id="edge1" class="edge">
<title>Node2&#45;&gt;Node1</title>
<path fill="none" stroke="midnightblue" d="M335.89,-130.18C358.85,-124.78 385.81,-118.15 410,-111.5 429.98,-106 452.22,-99.14 469.65,-93.58"/>
<polygon fill="midnightblue" stroke="midnightblue" points="334.92,-126.81 325.98,-132.5 336.52,-133.63 334.92,-126.81"/>
</g>
<!-- Node3 -->
<g id="node3" class="node">
<title>Node3</title>
<g id="a_node3"><a xlink:href="classMirai_1_1MiraiClient.html" target="_top" xlink:title="提供与mirai&#45;api&#45;http网络交互的封装">
<polygon fill="none" stroke="red" points="18.5,-132.5 18.5,-152.5 114.5,-152.5 114.5,-132.5 18.5,-132.5"/>
<text text-anchor="middle" x="66.5" y="-139.7" font-family="-apple-system, BlinkMacSystemFont, 'Segoe UI', Roboto, Oxygen, Ubuntu, Cantarell, 'Fira Sans', 'Droid Sans', 'Helvetica Neue', sans-serif" font-size="11.00">Mirai::MiraiClient</text>
</a>
</g>
</g>
<!-- Node3&#45;&gt;Node2 -->
<g id="edge2" class="edge">
<title>Node3&#45;&gt;Node2</title>
<path fill="none" stroke="#9a32cd" stroke-dasharray="5,2" d="M124.63,-142.5C158.05,-142.5 199.77,-142.5 231.48,-142.5"/>
<polygon fill="#9a32cd" stroke="#9a32cd" points="124.55,-139 114.55,-142.5 124.55,-146 124.55,-139"/>
<text text-anchor="middle" x="177.5" y="-145.7" font-family="-apple-system, BlinkMacSystemFont, 'Segoe UI', Roboto, Oxygen, Ubuntu, Cantarell, 'Fira Sans', 'Droid Sans', 'Helvetica Neue', sans-serif" font-size="11.00"> _client</text>
</g>
<!-- Node15 -->
<g id="node4" class="node">
<title>Node15</title>
<g id="a_node4"><a xlink:href="structMirai_1_1User.html" target="_top" xlink:title="QQ用户">
<polygon fill="none" stroke="red" points="246,-93.5 246,-113.5 315,-113.5 315,-93.5 246,-93.5"/>
<text text-anchor="middle" x="280.5" y="-100.7" font-family="-apple-system, BlinkMacSystemFont, 'Segoe UI', Roboto, Oxygen, Ubuntu, Cantarell, 'Fira Sans', 'Droid Sans', 'Helvetica Neue', sans-serif" font-size="11.00">Mirai::User</text>
</a>
</g>
</g>
<!-- Node15&#45;&gt;Node1 -->
<g id="edge3" class="edge">
<title>Node15&#45;&gt;Node1</title>
<path fill="none" stroke="#9a32cd" stroke-dasharray="5,2" d="M325.54,-99.48C354.8,-96.81 393.9,-93.24 427.72,-90.15"/>
<polygon fill="#9a32cd" stroke="#9a32cd" points="324.88,-96.02 315.24,-100.42 325.52,-102.99 324.88,-96.02"/>
<text text-anchor="middle" x="383.5" y="-98.7" font-family="-apple-system, BlinkMacSystemFont, 'Segoe UI', Roboto, Oxygen, Ubuntu, Cantarell, 'Fira Sans', 'Droid Sans', 'Helvetica Neue', sans-serif" font-size="11.00"> _sender</text>
</g>
<!-- Node18 -->
<g id="node5" class="node">
<title>Node18</title>
<g id="a_node5"><a xlink:href="classMirai_1_1MessageChain.html" target="_top" xlink:title="消息链对象，由一系列消息元素组成">
<polygon fill="none" stroke="black" points="222,-54.5 222,-74.5 339,-74.5 339,-54.5 222,-54.5"/>
<text text-anchor="middle" x="280.5" y="-61.7" font-family="-apple-system, BlinkMacSystemFont, 'Segoe UI', Roboto, Oxygen, Ubuntu, Cantarell, 'Fira Sans', 'Droid Sans', 'Helvetica Neue', sans-serif" font-size="11.00">Mirai::MessageChain</text>
</a>
</g>
</g>
<!-- Node18&#45;&gt;Node1 -->
<g id="edge4" class="edge">
<title>Node18&#45;&gt;Node1</title>
<path fill="none" stroke="#9a32cd" stroke-dasharray="5,2" d="M349.25,-65.68C368.88,-66.42 390.32,-67.6 410,-69.5 420.44,-70.51 431.52,-71.93 442.2,-73.48"/>
<polygon fill="#9a32cd" stroke="#9a32cd" points="349.28,-62.18 339.17,-65.34 349.04,-69.18 349.28,-62.18"/>
<text text-anchor="middle" x="383.5" y="-72.7" font-family="-apple-system, BlinkMacSystemFont, 'Segoe UI', Roboto, Oxygen, Ubuntu, Cantarell, 'Fira Sans', 'Droid Sans', 'Helvetica Neue', sans-serif" font-size="11.00"> _message</text>
</g>
<!-- Node19 -->
<g id="node6" class="node">
<title>Node19</title>
<g id="a_node6"><a xlink:title=" ">
<polygon fill="none" stroke="red" points="0,-51.5 0,-83.5 133,-83.5 133,-51.5 0,-51.5"/>
<text text-anchor="start" x="8" y="-70.7" font-family="-apple-system, BlinkMacSystemFont, 'Segoe UI', Roboto, Oxygen, Ubuntu, Cantarell, 'Fira Sans', 'Droid Sans', 'Helvetica Neue', sans-serif" font-size="11.00">std::vector&lt; std::unique</text>
<text text-anchor="middle" x="66.5" y="-58.7" font-family="-apple-system, BlinkMacSystemFont, 'Segoe UI', Roboto, Oxygen, Ubuntu, Cantarell, 'Fira Sans', 'Droid Sans', 'Helvetica Neue', sans-serif" font-size="11.00">_ptr&lt; MessageBase &gt; &gt;</text>
</a>
</g>
</g>
<!-- Node19&#45;&gt;Node18 -->
<g id="edge5" class="edge">
<title>Node19&#45;&gt;Node18</title>
<path fill="none" stroke="#9a32cd" stroke-dasharray="5,2" d="M143.26,-66.43C169.09,-66.06 197.53,-65.66 221.72,-65.32"/>
<polygon fill="#9a32cd" stroke="#9a32cd" points="143.08,-62.93 133.13,-66.57 143.17,-69.93 143.08,-62.93"/>
<text text-anchor="middle" x="177.5" y="-68.7" font-family="-apple-system, BlinkMacSystemFont, 'Segoe UI', Roboto, Oxygen, Ubuntu, Cantarell, 'Fira Sans', 'Droid Sans', 'Helvetica Neue', sans-serif" font-size="11.00"> _message</text>
</g>
<!-- Node22 -->
<g id="node7" class="node">
<title>Node22</title>
<g id="a_node7"><a xlink:title=" ">
<polygon fill="none" stroke="black" points="235,-12.5 235,-32.5 326,-32.5 326,-12.5 235,-12.5"/>
<text text-anchor="middle" x="280.5" y="-19.7" font-family="-apple-system, BlinkMacSystemFont, 'Segoe UI', Roboto, Oxygen, Ubuntu, Cantarell, 'Fira Sans', 'Droid Sans', 'Helvetica Neue', sans-serif" font-size="11.00">std::string_view</text>
</a>
</g>
</g>
<!-- Node22&#45;&gt;Node1 -->
<g id="edge6" class="edge">
<title>Node22&#45;&gt;Node1</title>
<path fill="none" stroke="#9a32cd" stroke-dasharray="5,2" d="M336.15,-32.07C359.15,-36.6 386.07,-42.54 410,-49.5 433.04,-56.21 458.58,-66.03 476.64,-73.4"/>
<polygon fill="#9a32cd" stroke="#9a32cd" points="336.7,-28.62 326.22,-30.16 335.38,-35.49 336.7,-28.62"/>
<text text-anchor="middle" x="383.5" y="-52.7" font-family="-apple-system, BlinkMacSystemFont, 'Segoe UI', Roboto, Oxygen, Ubuntu, Cantarell, 'Fira Sans', 'Droid Sans', 'Helvetica Neue', sans-serif" font-size="11.00"> _TYPE_</text>
</g>
<!-- Node23 -->
<g id="node8" class="node">
<title>Node23</title>
<g id="a_node8"><a xlink:title=" ">
<polygon fill="none" stroke="black" points="5.5,-0.5 5.5,-32.5 127.5,-32.5 127.5,-0.5 5.5,-0.5"/>
<text text-anchor="start" x="13.5" y="-19.7" font-family="-apple-system, BlinkMacSystemFont, 'Segoe UI', Roboto, Oxygen, Ubuntu, Cantarell, 'Fira Sans', 'Droid Sans', 'Helvetica Neue', sans-serif" font-size="11.00">std::basic_string_view</text>
<text text-anchor="middle" x="66.5" y="-7.7" font-family="-apple-system, BlinkMacSystemFont, 'Segoe UI', Roboto, Oxygen, Ubuntu, Cantarell, 'Fira Sans', 'Droid Sans', 'Helvetica Neue', sans-serif" font-size="11.00">&lt; Char &gt;</text>
</a>
</g>
</g>
<!-- Node23&#45;&gt;Node22 -->
<g id="edge7" class="edge">
<title>Node23&#45;&gt;Node22</title>
<path fill="none" stroke="midnightblue" d="M137.86,-18.49C169.78,-19.39 206.59,-20.44 234.68,-21.23"/>
<polygon fill="midnightblue" stroke="midnightblue" points="137.78,-14.99 127.68,-18.2 137.58,-21.98 137.78,-14.99"/>
</g>
</g>
</svg>
