<?xml version="1.0" encoding="UTF-8" standalone="no"?>
<!DOCTYPE svg PUBLIC "-//W3C//DTD SVG 1.1//EN"
 "http://www.w3.org/Graphics/SVG/1.1/DTD/svg11.dtd">
<!-- Generated by graphviz version 3.0.0 (20220413.0242)
 -->
<!-- Title: Mirai::OtherClientMessageEvent Pages: 1 -->
<svg width="783pt" height="175pt"
 viewBox="0.00 0.00 783.00 174.50" xmlns="http://www.w3.org/2000/svg" xmlns:xlink="http://www.w3.org/1999/xlink">
<g id="graph0" class="graph" transform="scale(1 1) rotate(0) translate(4 170.5)">
<title>Mirai::OtherClientMessageEvent</title>
<!-- Node1 -->
<g id="node1" class="node">
<title>Node1</title>
<g id="a_node1"><a xlink:title="其它客户端消息事件">
<polygon fill="#bfbfbf" stroke="black" points="632,-83.5 632,-115.5 775,-115.5 775,-83.5 632,-83.5"/>
<text text-anchor="start" x="640" y="-102.7" font-family="-apple-system, BlinkMacSystemFont, 'Segoe UI', Roboto, Oxygen, Ubuntu, Cantarell, 'Fira Sans', 'Droid Sans', 'Helvetica Neue', sans-serif" font-size="11.00">Mirai::OtherClientMessage</text>
<text text-anchor="middle" x="703.5" y="-90.7" font-family="-apple-system, BlinkMacSystemFont, 'Segoe UI', Roboto, Oxygen, Ubuntu, Cantarell, 'Fira Sans', 'Droid Sans', 'Helvetica Neue', sans-serif" font-size="11.00">Event</text>
</a>
</g>
</g>
<!-- Node2 -->
<g id="node2" class="node">
<title>Node2</title>
<g id="a_node2"><a xlink:href="classMirai_1_1EventBase.html" target="_top" xlink:title="Base class for all event types">
<polygon fill="none" stroke="black" points="435.5,-144.5 435.5,-164.5 533.5,-164.5 533.5,-144.5 435.5,-144.5"/>
<text text-anchor="middle" x="484.5" y="-151.7" font-family="-apple-system, BlinkMacSystemFont, 'Segoe UI', Roboto, Oxygen, Ubuntu, Cantarell, 'Fira Sans', 'Droid Sans', 'Helvetica Neue', sans-serif" font-size="11.00">Mirai::EventBase</text>
</a>
</g>
</g>
<!-- Node2&#45;&gt;Node1 -->
<g id="edge1" class="edge">
<title>Node2&#45;&gt;Node1</title>
<path fill="none" stroke="midnightblue" d="M543.59,-143.57C565.74,-139.07 591.15,-133.5 614,-127.5 627.25,-124.02 641.46,-119.77 654.53,-115.63"/>
<polygon fill="midnightblue" stroke="midnightblue" points="542.78,-140.16 533.67,-145.56 544.16,-147.02 542.78,-140.16"/>
</g>
<!-- Node3 -->
<g id="node3" class="node">
<title>Node3</title>
<g id="a_node3"><a xlink:href="classMirai_1_1MiraiClient.html" target="_top" xlink:title="提供与mirai&#45;api&#45;http网络交互的封装">
<polygon fill="none" stroke="red" points="222.5,-144.5 222.5,-164.5 318.5,-164.5 318.5,-144.5 222.5,-144.5"/>
<text text-anchor="middle" x="270.5" y="-151.7" font-family="-apple-system, BlinkMacSystemFont, 'Segoe UI', Roboto, Oxygen, Ubuntu, Cantarell, 'Fira Sans', 'Droid Sans', 'Helvetica Neue', sans-serif" font-size="11.00">Mirai::MiraiClient</text>
</a>
</g>
</g>
<!-- Node3&#45;&gt;Node2 -->
<g id="edge2" class="edge">
<title>Node3&#45;&gt;Node2</title>
<path fill="none" stroke="#9a32cd" stroke-dasharray="5,2" d="M328.63,-154.5C362.05,-154.5 403.77,-154.5 435.48,-154.5"/>
<polygon fill="#9a32cd" stroke="#9a32cd" points="328.55,-151 318.55,-154.5 328.55,-158 328.55,-151"/>
<text text-anchor="middle" x="381.5" y="-157.7" font-family="-apple-system, BlinkMacSystemFont, 'Segoe UI', Roboto, Oxygen, Ubuntu, Cantarell, 'Fira Sans', 'Droid Sans', 'Helvetica Neue', sans-serif" font-size="11.00"> _client</text>
</g>
<!-- Node6 -->
<g id="node4" class="node">
<title>Node6</title>
<g id="a_node4"><a xlink:title=" ">
<polygon fill="none" stroke="red" points="19,-129.5 19,-149.5 82,-149.5 82,-129.5 19,-129.5"/>
<text text-anchor="middle" x="50.5" y="-136.7" font-family="-apple-system, BlinkMacSystemFont, 'Segoe UI', Roboto, Oxygen, Ubuntu, Cantarell, 'Fira Sans', 'Droid Sans', 'Helvetica Neue', sans-serif" font-size="11.00">std::string</text>
</a>
</g>
</g>
<!-- Node6&#45;&gt;Node3 -->
<g id="edge3" class="edge">
<title>Node6&#45;&gt;Node3</title>
<path fill="none" stroke="#9a32cd" stroke-dasharray="5,2" d="M92.68,-142.33C129.62,-144.88 183.83,-148.6 222.47,-151.26"/>
<polygon fill="#9a32cd" stroke="#9a32cd" points="92.49,-138.81 82.27,-141.62 92.01,-145.8 92.49,-138.81"/>
<text text-anchor="middle" x="152.5" y="-150.7" font-family="-apple-system, BlinkMacSystemFont, 'Segoe UI', Roboto, Oxygen, Ubuntu, Cantarell, 'Fira Sans', 'Droid Sans', 'Helvetica Neue', sans-serif" font-size="11.00"> _SessionKey</text>
</g>
<!-- Node22 -->
<g id="node5" class="node">
<title>Node22</title>
<g id="a_node5"><a xlink:href="structMirai_1_1ClientDevice.html" target="_top" xlink:title="设备类型">
<polygon fill="none" stroke="black" points="218,-103.5 218,-123.5 323,-123.5 323,-103.5 218,-103.5"/>
<text text-anchor="middle" x="270.5" y="-110.7" font-family="-apple-system, BlinkMacSystemFont, 'Segoe UI', Roboto, Oxygen, Ubuntu, Cantarell, 'Fira Sans', 'Droid Sans', 'Helvetica Neue', sans-serif" font-size="11.00">Mirai::ClientDevice</text>
</a>
</g>
</g>
<!-- Node6&#45;&gt;Node22 -->
<g id="edge6" class="edge">
<title>Node6&#45;&gt;Node22</title>
<path fill="none" stroke="#9a32cd" stroke-dasharray="5,2" d="M92.35,-131.67C101.12,-130.15 110.35,-128.67 119,-127.5 151.77,-123.07 188.74,-119.61 217.83,-117.24"/>
<polygon fill="#9a32cd" stroke="#9a32cd" points="91.56,-128.26 82.33,-133.46 92.79,-135.15 91.56,-128.26"/>
<text text-anchor="middle" x="152.5" y="-130.7" font-family="-apple-system, BlinkMacSystemFont, 'Segoe UI', Roboto, Oxygen, Ubuntu, Cantarell, 'Fira Sans', 'Droid Sans', 'Helvetica Neue', sans-serif" font-size="11.00"> platform</text>
</g>
<!-- Node22&#45;&gt;Node1 -->
<g id="edge4" class="edge">
<title>Node22&#45;&gt;Node1</title>
<path fill="none" stroke="#9a32cd" stroke-dasharray="5,2" d="M333.35,-111.49C412.4,-108.92 548.94,-104.49 631.96,-101.79"/>
<polygon fill="#9a32cd" stroke="#9a32cd" points="332.94,-108 323.06,-111.83 333.17,-115 332.94,-108"/>
<text text-anchor="middle" x="484.5" y="-110.7" font-family="-apple-system, BlinkMacSystemFont, 'Segoe UI', Roboto, Oxygen, Ubuntu, Cantarell, 'Fira Sans', 'Droid Sans', 'Helvetica Neue', sans-serif" font-size="11.00"> _sender</text>
</g>
<!-- Node20 -->
<g id="node6" class="node">
<title>Node20</title>
<g id="a_node6"><a xlink:href="classMirai_1_1Serializable.html" target="_top" xlink:title="Base class for all json serializable type">
<polygon fill="none" stroke="black" points="0,-76.5 0,-96.5 101,-96.5 101,-76.5 0,-76.5"/>
<text text-anchor="middle" x="50.5" y="-83.7" font-family="-apple-system, BlinkMacSystemFont, 'Segoe UI', Roboto, Oxygen, Ubuntu, Cantarell, 'Fira Sans', 'Droid Sans', 'Helvetica Neue', sans-serif" font-size="11.00">Mirai::Serializable</text>
</a>
</g>
</g>
<!-- Node20&#45;&gt;Node22 -->
<g id="edge5" class="edge">
<title>Node20&#45;&gt;Node22</title>
<path fill="none" stroke="midnightblue" d="M111.32,-93.91C144.65,-98.04 185.75,-103.13 217.7,-107.08"/>
<polygon fill="midnightblue" stroke="midnightblue" points="111.59,-90.42 101.24,-92.66 110.73,-97.36 111.59,-90.42"/>
</g>
<!-- Node23 -->
<g id="node7" class="node">
<title>Node23</title>
<g id="a_node7"><a xlink:href="classMirai_1_1MessageChain.html" target="_top" xlink:title="消息链对象，由一系列消息元素组成">
<polygon fill="none" stroke="black" points="426,-56.5 426,-76.5 543,-76.5 543,-56.5 426,-56.5"/>
<text text-anchor="middle" x="484.5" y="-63.7" font-family="-apple-system, BlinkMacSystemFont, 'Segoe UI', Roboto, Oxygen, Ubuntu, Cantarell, 'Fira Sans', 'Droid Sans', 'Helvetica Neue', sans-serif" font-size="11.00">Mirai::MessageChain</text>
</a>
</g>
</g>
<!-- Node23&#45;&gt;Node1 -->
<g id="edge7" class="edge">
<title>Node23&#45;&gt;Node1</title>
<path fill="none" stroke="#9a32cd" stroke-dasharray="5,2" d="M553.21,-76.8C578.21,-80.6 606.6,-84.92 631.85,-88.76"/>
<polygon fill="#9a32cd" stroke="#9a32cd" points="553.49,-73.3 543.08,-75.26 552.44,-80.22 553.49,-73.3"/>
<text text-anchor="middle" x="587.5" y="-88.7" font-family="-apple-system, BlinkMacSystemFont, 'Segoe UI', Roboto, Oxygen, Ubuntu, Cantarell, 'Fira Sans', 'Droid Sans', 'Helvetica Neue', sans-serif" font-size="11.00"> _message</text>
</g>
<!-- Node24 -->
<g id="node8" class="node">
<title>Node24</title>
<g id="a_node8"><a xlink:title=" ">
<polygon fill="none" stroke="red" points="204,-51.5 204,-83.5 337,-83.5 337,-51.5 204,-51.5"/>
<text text-anchor="start" x="212" y="-70.7" font-family="-apple-system, BlinkMacSystemFont, 'Segoe UI', Roboto, Oxygen, Ubuntu, Cantarell, 'Fira Sans', 'Droid Sans', 'Helvetica Neue', sans-serif" font-size="11.00">std::vector&lt; std::unique</text>
<text text-anchor="middle" x="270.5" y="-58.7" font-family="-apple-system, BlinkMacSystemFont, 'Segoe UI', Roboto, Oxygen, Ubuntu, Cantarell, 'Fira Sans', 'Droid Sans', 'Helvetica Neue', sans-serif" font-size="11.00">_ptr&lt; MessageBase &gt; &gt;</text>
</a>
</g>
</g>
<!-- Node24&#45;&gt;Node23 -->
<g id="edge8" class="edge">
<title>Node24&#45;&gt;Node23</title>
<path fill="none" stroke="#9a32cd" stroke-dasharray="5,2" d="M347.26,-67.14C373.09,-67.02 401.53,-66.89 425.72,-66.77"/>
<polygon fill="#9a32cd" stroke="#9a32cd" points="347.11,-63.64 337.13,-67.19 347.14,-70.64 347.11,-63.64"/>
<text text-anchor="middle" x="381.5" y="-69.7" font-family="-apple-system, BlinkMacSystemFont, 'Segoe UI', Roboto, Oxygen, Ubuntu, Cantarell, 'Fira Sans', 'Droid Sans', 'Helvetica Neue', sans-serif" font-size="11.00"> _message</text>
</g>
<!-- Node27 -->
<g id="node9" class="node">
<title>Node27</title>
<g id="a_node9"><a xlink:title=" ">
<polygon fill="none" stroke="black" points="439,-12.5 439,-32.5 530,-32.5 530,-12.5 439,-12.5"/>
<text text-anchor="middle" x="484.5" y="-19.7" font-family="-apple-system, BlinkMacSystemFont, 'Segoe UI', Roboto, Oxygen, Ubuntu, Cantarell, 'Fira Sans', 'Droid Sans', 'Helvetica Neue', sans-serif" font-size="11.00">std::string_view</text>
</a>
</g>
</g>
<!-- Node27&#45;&gt;Node1 -->
<g id="edge9" class="edge">
<title>Node27&#45;&gt;Node1</title>
<path fill="none" stroke="#9a32cd" stroke-dasharray="5,2" d="M532.2,-35.32C556.76,-42.4 587.25,-51.73 614,-61.5 631.91,-68.04 651.41,-76.29 667.55,-83.43"/>
<polygon fill="#9a32cd" stroke="#9a32cd" points="532.99,-31.91 522.41,-32.53 531.07,-38.64 532.99,-31.91"/>
<text text-anchor="middle" x="587.5" y="-64.7" font-family="-apple-system, BlinkMacSystemFont, 'Segoe UI', Roboto, Oxygen, Ubuntu, Cantarell, 'Fira Sans', 'Droid Sans', 'Helvetica Neue', sans-serif" font-size="11.00"> _TYPE_</text>
</g>
<!-- Node28 -->
<g id="node10" class="node">
<title>Node28</title>
<g id="a_node10"><a xlink:title=" ">
<polygon fill="none" stroke="black" points="209.5,-0.5 209.5,-32.5 331.5,-32.5 331.5,-0.5 209.5,-0.5"/>
<text text-anchor="start" x="217.5" y="-19.7" font-family="-apple-system, BlinkMacSystemFont, 'Segoe UI', Roboto, Oxygen, Ubuntu, Cantarell, 'Fira Sans', 'Droid Sans', 'Helvetica Neue', sans-serif" font-size="11.00">std::basic_string_view</text>
<text text-anchor="middle" x="270.5" y="-7.7" font-family="-apple-system, BlinkMacSystemFont, 'Segoe UI', Roboto, Oxygen, Ubuntu, Cantarell, 'Fira Sans', 'Droid Sans', 'Helvetica Neue', sans-serif" font-size="11.00">&lt; Char &gt;</text>
</a>
</g>
</g>
<!-- Node28&#45;&gt;Node27 -->
<g id="edge10" class="edge">
<title>Node28&#45;&gt;Node27</title>
<path fill="none" stroke="midnightblue" d="M341.86,-18.49C373.78,-19.39 410.59,-20.44 438.68,-21.23"/>
<polygon fill="midnightblue" stroke="midnightblue" points="341.78,-14.99 331.68,-18.2 341.58,-21.98 341.78,-14.99"/>
</g>
</g>
</svg>
