<?xml version="1.0" encoding="UTF-8" standalone="no"?>
<!DOCTYPE svg PUBLIC "-//W3C//DTD SVG 1.1//EN"
 "http://www.w3.org/Graphics/SVG/1.1/DTD/svg11.dtd">
<!-- Generated by graphviz version 2.43.0 (0)
 -->
<!-- Title: Mirai::ImageMessage Pages: 1 -->
<svg width="170pt" height="200pt"
 viewBox="0.00 0.00 170.00 200.00" xmlns="http://www.w3.org/2000/svg" xmlns:xlink="http://www.w3.org/1999/xlink">
<g id="graph0" class="graph" transform="scale(1 1) rotate(0) translate(4 196)">
<title>Mirai::ImageMessage</title>
<!-- Node1 -->
<g id="node1" class="node">
<title>Node1</title>
<g id="a_node1"><a xlink:title="图片消息">
<polygon fill="#bfbfbf" stroke="black" points="14,-57.5 14,-77.5 148,-77.5 148,-57.5 14,-57.5"/>
<text text-anchor="middle" x="81" y="-64.7" font-family="-apple-system,BlinkMacSystemFont,'SegoeUI',Roboto,Oxygen,Ubuntu,Cantarell,'FiraSans','DroidSans','HelveticaNeue',sans-serif" font-size="11.00">Mirai::ImageMessage</text>
</a>
</g>
</g>
<!-- Node4 -->
<g id="node4" class="node">
<title>Node4</title>
<g id="a_node4"><a xlink:href="classMirai_1_1FlashImageMessage.html" target="_top" xlink:title="闪照消息">
<polygon fill="none" stroke="black" points="0,-0.5 0,-20.5 162,-20.5 162,-0.5 0,-0.5"/>
<text text-anchor="middle" x="81" y="-7.7" font-family="-apple-system,BlinkMacSystemFont,'SegoeUI',Roboto,Oxygen,Ubuntu,Cantarell,'FiraSans','DroidSans','HelveticaNeue',sans-serif" font-size="11.00">Mirai::FlashImageMessage</text>
</a>
</g>
</g>
<!-- Node1&#45;&gt;Node4 -->
<g id="edge3" class="edge">
<title>Node1&#45;&gt;Node4</title>
<path fill="none" stroke="midnightblue" d="M81,-47.38C81,-38.37 81,-28.04 81,-20.78"/>
<polygon fill="midnightblue" stroke="midnightblue" points="77.5,-47.42 81,-57.42 84.5,-47.42 77.5,-47.42"/>
</g>
<!-- Node2 -->
<g id="node2" class="node">
<title>Node2</title>
<g id="a_node2"><a xlink:href="classMirai_1_1MessageBase.html" target="_top" xlink:title="Base class for all message types">
<polygon fill="none" stroke="black" points="17.5,-114.5 17.5,-134.5 144.5,-134.5 144.5,-114.5 17.5,-114.5"/>
<text text-anchor="middle" x="81" y="-121.7" font-family="-apple-system,BlinkMacSystemFont,'SegoeUI',Roboto,Oxygen,Ubuntu,Cantarell,'FiraSans','DroidSans','HelveticaNeue',sans-serif" font-size="11.00">Mirai::MessageBase</text>
</a>
</g>
</g>
<!-- Node2&#45;&gt;Node1 -->
<g id="edge1" class="edge">
<title>Node2&#45;&gt;Node1</title>
<path fill="none" stroke="midnightblue" d="M81,-104.38C81,-95.37 81,-85.04 81,-77.78"/>
<polygon fill="midnightblue" stroke="midnightblue" points="77.5,-104.42 81,-114.42 84.5,-104.42 77.5,-104.42"/>
</g>
<!-- Node3 -->
<g id="node3" class="node">
<title>Node3</title>
<g id="a_node3"><a xlink:href="classMirai_1_1Serializable.html" target="_top" xlink:title="Base class for all json serializable type">
<polygon fill="none" stroke="black" points="24,-171.5 24,-191.5 138,-191.5 138,-171.5 24,-171.5"/>
<text text-anchor="middle" x="81" y="-178.7" font-family="-apple-system,BlinkMacSystemFont,'SegoeUI',Roboto,Oxygen,Ubuntu,Cantarell,'FiraSans','DroidSans','HelveticaNeue',sans-serif" font-size="11.00">Mirai::Serializable</text>
</a>
</g>
</g>
<!-- Node3&#45;&gt;Node2 -->
<g id="edge2" class="edge">
<title>Node3&#45;&gt;Node2</title>
<path fill="none" stroke="midnightblue" d="M81,-161.38C81,-152.37 81,-142.04 81,-134.78"/>
<polygon fill="midnightblue" stroke="midnightblue" points="77.5,-161.42 81,-171.42 84.5,-161.42 77.5,-161.42"/>
</g>
</g>
</svg>
