<?xml version="1.0" encoding="UTF-8" standalone="no"?>
<!DOCTYPE svg PUBLIC "-//W3C//DTD SVG 1.1//EN"
 "http://www.w3.org/Graphics/SVG/1.1/DTD/svg11.dtd">
<!-- Generated by graphviz version 3.0.0 (20221109.1736)
 -->
<!-- Title: Mirai::ForwardMessage Pages: 1 -->
<svg width="267pt" height="191pt"
 viewBox="0.00 0.00 267.00 191.00" xmlns="http://www.w3.org/2000/svg" xmlns:xlink="http://www.w3.org/1999/xlink">
<g id="graph0" class="graph" transform="scale(1 1) rotate(0) translate(4 187)">
<title>Mirai::ForwardMessage</title>
<!-- Node1 -->
<g id="node1" class="node">
<title>Node1</title>
<g id="a_node1"><a xlink:title="合并转发消息">
<polygon fill="#bfbfbf" stroke="black" points="61,-0.5 61,-20.5 191,-20.5 191,-0.5 61,-0.5"/>
<text text-anchor="middle" x="126" y="-7.7" font-family="-apple-system, BlinkMacSystemFont, 'Segoe UI', Roboto, Oxygen, Ubuntu, Cantarell, 'Fira Sans', 'Droid Sans', 'Helvetica Neue', sans-serif" font-size="11.00">Mirai::ForwardMessage</text>
</a>
</g>
</g>
<!-- Node2 -->
<g id="node2" class="node">
<title>Node2</title>
<g id="a_node2"><a xlink:href="classMirai_1_1IMessageImpl.html" target="_top" xlink:title=" ">
<polygon fill="none" stroke="black" points="0,-69.5 0,-101.5 120,-101.5 120,-69.5 0,-69.5"/>
<text text-anchor="start" x="8" y="-88.7" font-family="-apple-system, BlinkMacSystemFont, 'Segoe UI', Roboto, Oxygen, Ubuntu, Cantarell, 'Fira Sans', 'Droid Sans', 'Helvetica Neue', sans-serif" font-size="11.00">Mirai::IMessageImpl</text>
<text text-anchor="middle" x="60" y="-76.7" font-family="-apple-system, BlinkMacSystemFont, 'Segoe UI', Roboto, Oxygen, Ubuntu, Cantarell, 'Fira Sans', 'Droid Sans', 'Helvetica Neue', sans-serif" font-size="11.00">&lt; ForwardMessage &gt;</text>
</a>
</g>
</g>
<!-- Node2&#45;&gt;Node1 -->
<g id="edge1" class="edge">
<title>Node2&#45;&gt;Node1</title>
<path fill="none" stroke="midnightblue" d="M80.67,-61.64C93.21,-47.77 108.53,-30.83 117.76,-20.62"/>
<polygon fill="midnightblue" stroke="midnightblue" points="77.79,-59.61 73.68,-69.37 82.98,-64.3 77.79,-59.61"/>
</g>
<!-- Node3 -->
<g id="node3" class="node">
<title>Node3</title>
<g id="a_node3"><a xlink:href="classMirai_1_1IMessage.html" target="_top" xlink:title="Common interface for all message types">
<polygon fill="none" stroke="black" points="14,-156.5 14,-176.5 106,-176.5 106,-156.5 14,-156.5"/>
<text text-anchor="middle" x="60" y="-163.7" font-family="-apple-system, BlinkMacSystemFont, 'Segoe UI', Roboto, Oxygen, Ubuntu, Cantarell, 'Fira Sans', 'Droid Sans', 'Helvetica Neue', sans-serif" font-size="11.00">Mirai::IMessage</text>
</a>
</g>
</g>
<!-- Node3&#45;&gt;Node2 -->
<g id="edge2" class="edge">
<title>Node3&#45;&gt;Node2</title>
<path fill="none" stroke="midnightblue" d="M60,-146.18C60,-132.47 60,-114.33 60,-101.66"/>
<polygon fill="midnightblue" stroke="midnightblue" points="56.5,-146.44 60,-156.44 63.5,-146.44 56.5,-146.44"/>
</g>
<!-- Node4 -->
<g id="node4" class="node">
<title>Node4</title>
<g id="a_node4"><a xlink:title=" ">
<polygon fill="none" stroke="black" points="138,-75.5 138,-95.5 250,-95.5 250,-75.5 138,-75.5"/>
<text text-anchor="middle" x="194" y="-82.7" font-family="-apple-system, BlinkMacSystemFont, 'Segoe UI', Roboto, Oxygen, Ubuntu, Cantarell, 'Fira Sans', 'Droid Sans', 'Helvetica Neue', sans-serif" font-size="11.00">std::vector&lt; Node &gt;</text>
</a>
</g>
</g>
<!-- Node4&#45;&gt;Node1 -->
<g id="edge3" class="edge">
<title>Node4&#45;&gt;Node1</title>
<path fill="none" stroke="#9a32cd" stroke-dasharray="5,2" d="M178.53,-67.9C164.99,-53.36 145.8,-32.76 134.76,-20.9"/>
<polygon fill="#9a32cd" stroke="#9a32cd" points="176.01,-70.32 185.39,-75.25 181.13,-65.55 176.01,-70.32"/>
<text text-anchor="middle" x="188" y="-42.2" font-family="-apple-system, BlinkMacSystemFont, 'Segoe UI', Roboto, Oxygen, Ubuntu, Cantarell, 'Fira Sans', 'Droid Sans', 'Helvetica Neue', sans-serif" font-size="11.00"> NodeList_</text>
</g>
<!-- Node5 -->
<g id="node5" class="node">
<title>Node5</title>
<g id="a_node5"><a xlink:href="classMirai_1_1ForwardMessage_1_1Node.html" target="_top" xlink:title="转发消息节点，代表一条转发消息">
<polygon fill="none" stroke="red" points="129,-150.5 129,-182.5 259,-182.5 259,-150.5 129,-150.5"/>
<text text-anchor="start" x="137" y="-169.7" font-family="-apple-system, BlinkMacSystemFont, 'Segoe UI', Roboto, Oxygen, Ubuntu, Cantarell, 'Fira Sans', 'Droid Sans', 'Helvetica Neue', sans-serif" font-size="11.00">Mirai::ForwardMessage</text>
<text text-anchor="middle" x="194" y="-157.7" font-family="-apple-system, BlinkMacSystemFont, 'Segoe UI', Roboto, Oxygen, Ubuntu, Cantarell, 'Fira Sans', 'Droid Sans', 'Helvetica Neue', sans-serif" font-size="11.00">::Node</text>
</a>
</g>
</g>
<!-- Node5&#45;&gt;Node4 -->
<g id="edge4" class="edge">
<title>Node5&#45;&gt;Node4</title>
<path fill="none" stroke="#9a32cd" stroke-dasharray="5,2" d="M194,-139.95C194,-124.81 194,-106.54 194,-95.76"/>
<polygon fill="#9a32cd" stroke="#9a32cd" points="190.5,-140.27 194,-150.27 197.5,-140.27 190.5,-140.27"/>
<text text-anchor="middle" x="217.5" y="-123.2" font-family="-apple-system, BlinkMacSystemFont, 'Segoe UI', Roboto, Oxygen, Ubuntu, Cantarell, 'Fira Sans', 'Droid Sans', 'Helvetica Neue', sans-serif" font-size="11.00"> elements</text>
</g>
</g>
</svg>
