<?xml version="1.0" encoding="UTF-8" standalone="no"?>
<!DOCTYPE svg PUBLIC "-//W3C//DTD SVG 1.1//EN"
 "http://www.w3.org/Graphics/SVG/1.1/DTD/svg11.dtd">
<!-- Generated by graphviz version 3.0.0 (20221109.1736)
 -->
<!-- Title: Mirai::TypeDismatchError Pages: 1 -->
<svg width="218pt" height="180pt"
 viewBox="0.00 0.00 218.00 180.00" xmlns="http://www.w3.org/2000/svg" xmlns:xlink="http://www.w3.org/1999/xlink">
<g id="graph0" class="graph" transform="scale(1 1) rotate(0) translate(4 176)">
<title>Mirai::TypeDismatchError</title>
<!-- Node1 -->
<g id="node1" class="node">
<title>Node1</title>
<g id="a_node1"><a xlink:title="类型匹配错误">
<polygon fill="#bfbfbf" stroke="black" points="32,-0.5 32,-20.5 170,-20.5 170,-0.5 32,-0.5"/>
<text text-anchor="middle" x="101" y="-7.7" font-family="-apple-system, BlinkMacSystemFont, 'Segoe UI', Roboto, Oxygen, Ubuntu, Cantarell, 'Fira Sans', 'Droid Sans', 'Helvetica Neue', sans-serif" font-size="11.00">Mirai::TypeDismatchError</text>
</a>
</g>
</g>
<!-- Node2 -->
<g id="node2" class="node">
<title>Node2</title>
<g id="a_node2"><a xlink:title=" ">
<polygon fill="none" stroke="black" points="0,-81.5 0,-101.5 102,-101.5 102,-81.5 0,-81.5"/>
<text text-anchor="middle" x="51" y="-88.7" font-family="-apple-system, BlinkMacSystemFont, 'Segoe UI', Roboto, Oxygen, Ubuntu, Cantarell, 'Fira Sans', 'Droid Sans', 'Helvetica Neue', sans-serif" font-size="11.00">std::runtime_error</text>
</a>
</g>
</g>
<!-- Node2&#45;&gt;Node1 -->
<g id="edge1" class="edge">
<title>Node2&#45;&gt;Node1</title>
<path fill="none" stroke="midnightblue" d="M62.12,-72.94C72.27,-56.89 86.91,-33.76 95.02,-20.95"/>
<polygon fill="midnightblue" stroke="midnightblue" points="59.13,-71.12 56.74,-81.44 65.04,-74.86 59.13,-71.12"/>
</g>
<!-- Node3 -->
<g id="node3" class="node">
<title>Node3</title>
<g id="a_node3"><a xlink:title=" ">
<polygon fill="none" stroke="black" points="6.5,-145.5 6.5,-165.5 89.5,-165.5 89.5,-145.5 6.5,-145.5"/>
<text text-anchor="middle" x="48" y="-152.7" font-family="-apple-system, BlinkMacSystemFont, 'Segoe UI', Roboto, Oxygen, Ubuntu, Cantarell, 'Fira Sans', 'Droid Sans', 'Helvetica Neue', sans-serif" font-size="11.00">std::exception</text>
</a>
</g>
</g>
<!-- Node3&#45;&gt;Node2 -->
<g id="edge2" class="edge">
<title>Node3&#45;&gt;Node2</title>
<path fill="none" stroke="midnightblue" d="M48.93,-135.23C49.47,-124.06 50.13,-110.49 50.56,-101.69"/>
<polygon fill="midnightblue" stroke="midnightblue" points="45.43,-135.19 48.44,-145.35 52.42,-135.53 45.43,-135.19"/>
</g>
<!-- Node4 -->
<g id="node4" class="node">
<title>Node4</title>
<g id="a_node4"><a xlink:title=" ">
<polygon fill="none" stroke="black" points="124.5,-81.5 124.5,-101.5 187.5,-101.5 187.5,-81.5 124.5,-81.5"/>
<text text-anchor="middle" x="156" y="-88.7" font-family="-apple-system, BlinkMacSystemFont, 'Segoe UI', Roboto, Oxygen, Ubuntu, Cantarell, 'Fira Sans', 'Droid Sans', 'Helvetica Neue', sans-serif" font-size="11.00">std::string</text>
</a>
</g>
</g>
<!-- Node4&#45;&gt;Node1 -->
<g id="edge3" class="edge">
<title>Node4&#45;&gt;Node1</title>
<path fill="none" stroke="#9a32cd" stroke-dasharray="5,2" d="M143.77,-72.94C132.6,-56.89 116.5,-33.76 107.58,-20.95"/>
<polygon fill="#9a32cd" stroke="#9a32cd" points="141.1,-75.23 149.69,-81.44 146.85,-71.23 141.1,-75.23"/>
<text text-anchor="middle" x="173.5" y="-54.2" font-family="-apple-system, BlinkMacSystemFont, 'Segoe UI', Roboto, Oxygen, Ubuntu, Cantarell, 'Fira Sans', 'Droid Sans', 'Helvetica Neue', sans-serif" font-size="11.00"> expected_type</text>
<text text-anchor="middle" x="173.5" y="-42.2" font-family="-apple-system, BlinkMacSystemFont, 'Segoe UI', Roboto, Oxygen, Ubuntu, Cantarell, 'Fira Sans', 'Droid Sans', 'Helvetica Neue', sans-serif" font-size="11.00">received_type</text>
</g>
<!-- Node5 -->
<g id="node5" class="node">
<title>Node5</title>
<g id="a_node5"><a xlink:title=" ">
<polygon fill="none" stroke="black" points="107.5,-139.5 107.5,-171.5 208.5,-171.5 208.5,-139.5 107.5,-139.5"/>
<text text-anchor="start" x="115.5" y="-158.7" font-family="-apple-system, BlinkMacSystemFont, 'Segoe UI', Roboto, Oxygen, Ubuntu, Cantarell, 'Fira Sans', 'Droid Sans', 'Helvetica Neue', sans-serif" font-size="11.00">std::basic_string&lt;</text>
<text text-anchor="middle" x="158" y="-146.7" font-family="-apple-system, BlinkMacSystemFont, 'Segoe UI', Roboto, Oxygen, Ubuntu, Cantarell, 'Fira Sans', 'Droid Sans', 'Helvetica Neue', sans-serif" font-size="11.00"> Char &gt;</text>
</a>
</g>
</g>
<!-- Node5&#45;&gt;Node4 -->
<g id="edge4" class="edge">
<title>Node5&#45;&gt;Node4</title>
<path fill="none" stroke="midnightblue" d="M157.19,-129.42C156.88,-119.67 156.54,-109.11 156.3,-101.79"/>
<polygon fill="midnightblue" stroke="midnightblue" points="153.7,-129.61 157.52,-139.49 160.69,-129.38 153.7,-129.61"/>
</g>
</g>
</svg>
