<?xml version="1.0" encoding="UTF-8" standalone="no"?>
<!DOCTYPE svg PUBLIC "-//W3C//DTD SVG 1.1//EN"
 "http://www.w3.org/Graphics/SVG/1.1/DTD/svg11.dtd">
<!-- Generated by graphviz version 2.43.0 (0)
 -->
<!-- Title: Mirai::OtherClientMessageEvent Pages: 1 -->
<svg width="866pt" height="175pt"
 viewBox="0.00 0.00 866.00 174.50" xmlns="http://www.w3.org/2000/svg" xmlns:xlink="http://www.w3.org/1999/xlink">
<g id="graph0" class="graph" transform="scale(1 1) rotate(0) translate(4 170.5)">
<title>Mirai::OtherClientMessageEvent</title>
<!-- Node1 -->
<g id="node1" class="node">
<title>Node1</title>
<g id="a_node1"><a xlink:title="其它客户端消息事件">
<polygon fill="#bfbfbf" stroke="black" points="695,-83.5 695,-115.5 858,-115.5 858,-83.5 695,-83.5"/>
<text text-anchor="start" x="703" y="-102.7" font-family="-apple-system,BlinkMacSystemFont,'SegoeUI',Roboto,Oxygen,Ubuntu,Cantarell,'FiraSans','DroidSans','HelveticaNeue',sans-serif" font-size="11.00">Mirai::OtherClientMessage</text>
<text text-anchor="middle" x="776.5" y="-90.7" font-family="-apple-system,BlinkMacSystemFont,'SegoeUI',Roboto,Oxygen,Ubuntu,Cantarell,'FiraSans','DroidSans','HelveticaNeue',sans-serif" font-size="11.00">Event</text>
</a>
</g>
</g>
<!-- Node2 -->
<g id="node2" class="node">
<title>Node2</title>
<g id="a_node2"><a xlink:href="classMirai_1_1EventBase.html" target="_top" xlink:title="Base class for all event types">
<polygon fill="none" stroke="black" points="479.5,-144.5 479.5,-164.5 589.5,-164.5 589.5,-144.5 479.5,-144.5"/>
<text text-anchor="middle" x="534.5" y="-151.7" font-family="-apple-system,BlinkMacSystemFont,'SegoeUI',Roboto,Oxygen,Ubuntu,Cantarell,'FiraSans','DroidSans','HelveticaNeue',sans-serif" font-size="11.00">Mirai::EventBase</text>
</a>
</g>
</g>
<!-- Node2&#45;&gt;Node1 -->
<g id="edge1" class="edge">
<title>Node2&#45;&gt;Node1</title>
<path fill="none" stroke="midnightblue" d="M599.99,-143.44C624.23,-138.95 651.98,-133.43 677,-127.5 691.79,-123.99 707.69,-119.71 722.3,-115.55"/>
<polygon fill="midnightblue" stroke="midnightblue" points="599.04,-140.05 589.83,-145.29 600.29,-146.94 599.04,-140.05"/>
</g>
<!-- Node3 -->
<g id="node3" class="node">
<title>Node3</title>
<g id="a_node3"><a xlink:href="classMirai_1_1MiraiClient.html" target="_top" xlink:title="提供与mirai&#45;api&#45;http网络交互的封装">
<polygon fill="none" stroke="red" points="243,-144.5 243,-164.5 353,-164.5 353,-144.5 243,-144.5"/>
<text text-anchor="middle" x="298" y="-151.7" font-family="-apple-system,BlinkMacSystemFont,'SegoeUI',Roboto,Oxygen,Ubuntu,Cantarell,'FiraSans','DroidSans','HelveticaNeue',sans-serif" font-size="11.00">Mirai::MiraiClient</text>
</a>
</g>
</g>
<!-- Node3&#45;&gt;Node2 -->
<g id="edge2" class="edge">
<title>Node3&#45;&gt;Node2</title>
<path fill="none" stroke="#9a32cd" stroke-dasharray="5,2" d="M363.12,-154.5C399.54,-154.5 444.63,-154.5 479.27,-154.5"/>
<polygon fill="#9a32cd" stroke="#9a32cd" points="363.09,-151 353.09,-154.5 363.09,-158 363.09,-151"/>
<text text-anchor="middle" x="421.5" y="-157.7" font-family="-apple-system,BlinkMacSystemFont,'SegoeUI',Roboto,Oxygen,Ubuntu,Cantarell,'FiraSans','DroidSans','HelveticaNeue',sans-serif" font-size="11.00"> _client</text>
</g>
<!-- Node7 -->
<g id="node4" class="node">
<title>Node7</title>
<g id="a_node4"><a xlink:title="STL class">
<polygon fill="none" stroke="#bfbfbf" points="20.5,-129.5 20.5,-149.5 93.5,-149.5 93.5,-129.5 20.5,-129.5"/>
<text text-anchor="middle" x="57" y="-136.7" font-family="-apple-system,BlinkMacSystemFont,'SegoeUI',Roboto,Oxygen,Ubuntu,Cantarell,'FiraSans','DroidSans','HelveticaNeue',sans-serif" font-size="11.00">std::string</text>
</a>
</g>
</g>
<!-- Node7&#45;&gt;Node3 -->
<g id="edge3" class="edge">
<title>Node7&#45;&gt;Node3</title>
<path fill="none" stroke="#9a32cd" stroke-dasharray="5,2" d="M103.69,-142.37C143.3,-144.85 200.7,-148.46 242.66,-151.09"/>
<polygon fill="#9a32cd" stroke="#9a32cd" points="103.72,-138.86 93.52,-141.73 103.28,-145.85 103.72,-138.86"/>
<text text-anchor="middle" x="168" y="-150.7" font-family="-apple-system,BlinkMacSystemFont,'SegoeUI',Roboto,Oxygen,Ubuntu,Cantarell,'FiraSans','DroidSans','HelveticaNeue',sans-serif" font-size="11.00"> _SessionKey</text>
</g>
<!-- Node24 -->
<g id="node9" class="node">
<title>Node24</title>
<g id="a_node9"><a xlink:href="structMirai_1_1ClientDevice.html" target="_top" xlink:title="设备类型">
<polygon fill="none" stroke="black" points="238,-103.5 238,-123.5 358,-123.5 358,-103.5 238,-103.5"/>
<text text-anchor="middle" x="298" y="-110.7" font-family="-apple-system,BlinkMacSystemFont,'SegoeUI',Roboto,Oxygen,Ubuntu,Cantarell,'FiraSans','DroidSans','HelveticaNeue',sans-serif" font-size="11.00">Mirai::ClientDevice</text>
</a>
</g>
</g>
<!-- Node7&#45;&gt;Node24 -->
<g id="edge10" class="edge">
<title>Node7&#45;&gt;Node24</title>
<path fill="none" stroke="#9a32cd" stroke-dasharray="5,2" d="M103.62,-131.54C112.99,-130.07 122.8,-128.63 132,-127.5 166.95,-123.19 206.24,-119.8 237.7,-117.43"/>
<polygon fill="#9a32cd" stroke="#9a32cd" points="102.99,-128.1 93.68,-133.15 104.11,-135.01 102.99,-128.1"/>
<text text-anchor="middle" x="168" y="-130.7" font-family="-apple-system,BlinkMacSystemFont,'SegoeUI',Roboto,Oxygen,Ubuntu,Cantarell,'FiraSans','DroidSans','HelveticaNeue',sans-serif" font-size="11.00"> platform</text>
</g>
<!-- Node18 -->
<g id="node5" class="node">
<title>Node18</title>
<g id="a_node5"><a xlink:href="classMirai_1_1MessageChain.html" target="_top" xlink:title="消息链对象，由一系列消息元素组成">
<polygon fill="none" stroke="black" points="469,-56.5 469,-76.5 600,-76.5 600,-56.5 469,-56.5"/>
<text text-anchor="middle" x="534.5" y="-63.7" font-family="-apple-system,BlinkMacSystemFont,'SegoeUI',Roboto,Oxygen,Ubuntu,Cantarell,'FiraSans','DroidSans','HelveticaNeue',sans-serif" font-size="11.00">Mirai::MessageChain</text>
</a>
</g>
</g>
<!-- Node18&#45;&gt;Node1 -->
<g id="edge4" class="edge">
<title>Node18&#45;&gt;Node1</title>
<path fill="none" stroke="#9a32cd" stroke-dasharray="5,2" d="M610.24,-76.78C637.11,-80.47 667.52,-84.65 694.87,-88.41"/>
<polygon fill="#9a32cd" stroke="#9a32cd" points="610.51,-73.28 600.13,-75.39 609.56,-80.22 610.51,-73.28"/>
<text text-anchor="middle" x="647.5" y="-88.7" font-family="-apple-system,BlinkMacSystemFont,'SegoeUI',Roboto,Oxygen,Ubuntu,Cantarell,'FiraSans','DroidSans','HelveticaNeue',sans-serif" font-size="11.00"> _message</text>
</g>
<!-- Node19 -->
<g id="node6" class="node">
<title>Node19</title>
<g id="a_node6"><a xlink:title=" ">
<polygon fill="none" stroke="#bfbfbf" points="222,-51.5 222,-83.5 374,-83.5 374,-51.5 222,-51.5"/>
<text text-anchor="start" x="230" y="-70.7" font-family="-apple-system,BlinkMacSystemFont,'SegoeUI',Roboto,Oxygen,Ubuntu,Cantarell,'FiraSans','DroidSans','HelveticaNeue',sans-serif" font-size="11.00">std::vector&lt; std::unique</text>
<text text-anchor="middle" x="298" y="-58.7" font-family="-apple-system,BlinkMacSystemFont,'SegoeUI',Roboto,Oxygen,Ubuntu,Cantarell,'FiraSans','DroidSans','HelveticaNeue',sans-serif" font-size="11.00">_ptr&lt; MessageBase &gt; &gt;</text>
</a>
</g>
</g>
<!-- Node19&#45;&gt;Node18 -->
<g id="edge5" class="edge">
<title>Node19&#45;&gt;Node18</title>
<path fill="none" stroke="#9a32cd" stroke-dasharray="5,2" d="M384.29,-67.14C412.11,-67.02 442.54,-66.89 468.62,-66.78"/>
<polygon fill="#9a32cd" stroke="#9a32cd" points="384.15,-63.64 374.16,-67.18 384.18,-70.64 384.15,-63.64"/>
<text text-anchor="middle" x="421.5" y="-69.7" font-family="-apple-system,BlinkMacSystemFont,'SegoeUI',Roboto,Oxygen,Ubuntu,Cantarell,'FiraSans','DroidSans','HelveticaNeue',sans-serif" font-size="11.00"> _message</text>
</g>
<!-- Node22 -->
<g id="node7" class="node">
<title>Node22</title>
<g id="a_node7"><a xlink:title="STL class">
<polygon fill="none" stroke="#bfbfbf" points="482.5,-12.5 482.5,-32.5 586.5,-32.5 586.5,-12.5 482.5,-12.5"/>
<text text-anchor="middle" x="534.5" y="-19.7" font-family="-apple-system,BlinkMacSystemFont,'SegoeUI',Roboto,Oxygen,Ubuntu,Cantarell,'FiraSans','DroidSans','HelveticaNeue',sans-serif" font-size="11.00">std::string_view</text>
</a>
</g>
</g>
<!-- Node22&#45;&gt;Node1 -->
<g id="edge6" class="edge">
<title>Node22&#45;&gt;Node1</title>
<path fill="none" stroke="#9a32cd" stroke-dasharray="5,2" d="M585.76,-35.06C612.97,-42.17 647.04,-51.62 677,-61.5 696.84,-68.04 718.55,-76.3 736.52,-83.44"/>
<polygon fill="#9a32cd" stroke="#9a32cd" points="586.63,-31.66 576.07,-32.54 584.87,-38.44 586.63,-31.66"/>
<text text-anchor="middle" x="647.5" y="-64.7" font-family="-apple-system,BlinkMacSystemFont,'SegoeUI',Roboto,Oxygen,Ubuntu,Cantarell,'FiraSans','DroidSans','HelveticaNeue',sans-serif" font-size="11.00"> _TYPE_</text>
</g>
<!-- Node23 -->
<g id="node8" class="node">
<title>Node23</title>
<g id="a_node8"><a xlink:title="STL class">
<polygon fill="none" stroke="#bfbfbf" points="229.5,-0.5 229.5,-32.5 366.5,-32.5 366.5,-0.5 229.5,-0.5"/>
<text text-anchor="start" x="237.5" y="-19.7" font-family="-apple-system,BlinkMacSystemFont,'SegoeUI',Roboto,Oxygen,Ubuntu,Cantarell,'FiraSans','DroidSans','HelveticaNeue',sans-serif" font-size="11.00">std::basic_string_view</text>
<text text-anchor="middle" x="298" y="-7.7" font-family="-apple-system,BlinkMacSystemFont,'SegoeUI',Roboto,Oxygen,Ubuntu,Cantarell,'FiraSans','DroidSans','HelveticaNeue',sans-serif" font-size="11.00">&lt; char &gt;</text>
</a>
</g>
</g>
<!-- Node23&#45;&gt;Node22 -->
<g id="edge7" class="edge">
<title>Node23&#45;&gt;Node22</title>
<path fill="none" stroke="midnightblue" d="M376.65,-18.49C411.45,-19.38 451.53,-20.4 482.46,-21.19"/>
<polygon fill="midnightblue" stroke="midnightblue" points="376.6,-14.98 366.51,-18.23 376.42,-21.98 376.6,-14.98"/>
</g>
<!-- Node24&#45;&gt;Node1 -->
<g id="edge8" class="edge">
<title>Node24&#45;&gt;Node1</title>
<path fill="none" stroke="#9a32cd" stroke-dasharray="5,2" d="M368.64,-111.45C455.31,-108.91 603.04,-104.57 694.63,-101.88"/>
<polygon fill="#9a32cd" stroke="#9a32cd" points="368.28,-107.96 358.39,-111.76 368.48,-114.96 368.28,-107.96"/>
<text text-anchor="middle" x="534.5" y="-110.7" font-family="-apple-system,BlinkMacSystemFont,'SegoeUI',Roboto,Oxygen,Ubuntu,Cantarell,'FiraSans','DroidSans','HelveticaNeue',sans-serif" font-size="11.00"> _sender</text>
</g>
<!-- Node12 -->
<g id="node10" class="node">
<title>Node12</title>
<g id="a_node10"><a xlink:href="classMirai_1_1Serializable.html" target="_top" xlink:title="Base class for all json serializable type">
<polygon fill="none" stroke="black" points="0,-76.5 0,-96.5 114,-96.5 114,-76.5 0,-76.5"/>
<text text-anchor="middle" x="57" y="-83.7" font-family="-apple-system,BlinkMacSystemFont,'SegoeUI',Roboto,Oxygen,Ubuntu,Cantarell,'FiraSans','DroidSans','HelveticaNeue',sans-serif" font-size="11.00">Mirai::Serializable</text>
</a>
</g>
</g>
<!-- Node12&#45;&gt;Node24 -->
<g id="edge9" class="edge">
<title>Node12&#45;&gt;Node24</title>
<path fill="none" stroke="midnightblue" d="M124.34,-93.99C159.97,-98.02 203.53,-102.94 237.98,-106.83"/>
<polygon fill="midnightblue" stroke="midnightblue" points="124.36,-90.48 114.03,-92.83 123.58,-97.43 124.36,-90.48"/>
</g>
</g>
</svg>
