<?xml version="1.0" encoding="UTF-8" standalone="no"?>
<!DOCTYPE svg PUBLIC "-//W3C//DTD SVG 1.1//EN"
 "http://www.w3.org/Graphics/SVG/1.1/DTD/svg11.dtd">
<!-- Generated by graphviz version 3.0.0 (20220413.0242)
 -->
<!-- Title: Mirai::EventBase Pages: 1 -->
<svg width="741pt" height="470pt"
 viewBox="0.00 0.00 741.00 469.50" xmlns="http://www.w3.org/2000/svg" xmlns:xlink="http://www.w3.org/1999/xlink">
<g id="graph0" class="graph" transform="scale(1 1) rotate(0) translate(4 465.5)">
<title>Mirai::EventBase</title>
<!-- Node1 -->
<g id="node1" class="node">
<title>Node1</title>
<g id="a_node1"><a xlink:title="Base class for all event types">
<polygon fill="#bfbfbf" stroke="black" points="635,-223.5 635,-243.5 733,-243.5 733,-223.5 635,-223.5"/>
<text text-anchor="middle" x="684" y="-230.7" font-family="-apple-system, BlinkMacSystemFont, 'Segoe UI', Roboto, Oxygen, Ubuntu, Cantarell, 'Fira Sans', 'Droid Sans', 'Helvetica Neue', sans-serif" font-size="11.00">Mirai::EventBase</text>
</a>
</g>
</g>
<!-- Node2 -->
<g id="node2" class="node">
<title>Node2</title>
<g id="a_node2"><a xlink:href="classMirai_1_1MiraiClient.html" target="_top" xlink:title="提供与mirai&#45;api&#45;http网络交互的封装">
<polygon fill="none" stroke="black" points="469,-223.5 469,-243.5 565,-243.5 565,-223.5 469,-223.5"/>
<text text-anchor="middle" x="517" y="-230.7" font-family="-apple-system, BlinkMacSystemFont, 'Segoe UI', Roboto, Oxygen, Ubuntu, Cantarell, 'Fira Sans', 'Droid Sans', 'Helvetica Neue', sans-serif" font-size="11.00">Mirai::MiraiClient</text>
</a>
</g>
</g>
<!-- Node2&#45;&gt;Node1 -->
<g id="edge1" class="edge">
<title>Node2&#45;&gt;Node1</title>
<path fill="none" stroke="#9a32cd" stroke-dasharray="5,2" d="M575.5,-233.5C594.87,-233.5 616.28,-233.5 634.85,-233.5"/>
<polygon fill="#9a32cd" stroke="#9a32cd" points="575.28,-230 565.28,-233.5 575.28,-237 575.28,-230"/>
<text text-anchor="middle" x="600" y="-236.7" font-family="-apple-system, BlinkMacSystemFont, 'Segoe UI', Roboto, Oxygen, Ubuntu, Cantarell, 'Fira Sans', 'Droid Sans', 'Helvetica Neue', sans-serif" font-size="11.00"> _client</text>
</g>
<!-- Node3 -->
<g id="node3" class="node">
<title>Node3</title>
<g id="a_node3"><a xlink:title=" ">
<polygon fill="none" stroke="black" points="226,-435.5 226,-455.5 292,-455.5 292,-435.5 226,-435.5"/>
<text text-anchor="middle" x="259" y="-442.7" font-family="-apple-system, BlinkMacSystemFont, 'Segoe UI', Roboto, Oxygen, Ubuntu, Cantarell, 'Fira Sans', 'Droid Sans', 'Helvetica Neue', sans-serif" font-size="11.00">std::mutex</text>
</a>
</g>
</g>
<!-- Node3&#45;&gt;Node2 -->
<g id="edge2" class="edge">
<title>Node3&#45;&gt;Node2</title>
<path fill="none" stroke="#9a32cd" stroke-dasharray="5,2" d="M302,-451.21C344.34,-454.55 409.25,-452.73 451,-418.5 507.08,-372.53 514.84,-274.99 515.86,-243.51"/>
<polygon fill="#9a32cd" stroke="#9a32cd" points="302.29,-447.73 292.01,-450.3 301.65,-454.7 302.29,-447.73"/>
<text text-anchor="middle" x="409.5" y="-452.7" font-family="-apple-system, BlinkMacSystemFont, 'Segoe UI', Roboto, Oxygen, Ubuntu, Cantarell, 'Fira Sans', 'Droid Sans', 'Helvetica Neue', sans-serif" font-size="11.00"> _mtx</text>
</g>
<!-- Node4 -->
<g id="node4" class="node">
<title>Node4</title>
<g id="a_node4"><a xlink:href="structMirai_1_1SessionConfigs.html" target="_top" xlink:title="连接mirai&#45;api&#45;http的配置">
<polygon fill="none" stroke="red" points="199,-345.5 199,-365.5 319,-365.5 319,-345.5 199,-345.5"/>
<text text-anchor="middle" x="259" y="-352.7" font-family="-apple-system, BlinkMacSystemFont, 'Segoe UI', Roboto, Oxygen, Ubuntu, Cantarell, 'Fira Sans', 'Droid Sans', 'Helvetica Neue', sans-serif" font-size="11.00">Mirai::SessionConfigs</text>
</a>
</g>
</g>
<!-- Node4&#45;&gt;Node2 -->
<g id="edge3" class="edge">
<title>Node4&#45;&gt;Node2</title>
<path fill="none" stroke="#9a32cd" stroke-dasharray="5,2" d="M329.32,-346.98C367.52,-339.84 414.46,-326.88 451,-303.5 476.43,-287.23 498.55,-258.72 509.22,-243.59"/>
<polygon fill="#9a32cd" stroke="#9a32cd" points="328.53,-343.56 319.3,-348.76 329.76,-350.46 328.53,-343.56"/>
<text text-anchor="middle" x="409.5" y="-339.7" font-family="-apple-system, BlinkMacSystemFont, 'Segoe UI', Roboto, Oxygen, Ubuntu, Cantarell, 'Fira Sans', 'Droid Sans', 'Helvetica Neue', sans-serif" font-size="11.00"> _config</text>
</g>
<!-- Node5 -->
<g id="node5" class="node">
<title>Node5</title>
<g id="a_node5"><a xlink:title=" ">
<polygon fill="none" stroke="red" points="0,-313.5 0,-333.5 63,-333.5 63,-313.5 0,-313.5"/>
<text text-anchor="middle" x="31.5" y="-320.7" font-family="-apple-system, BlinkMacSystemFont, 'Segoe UI', Roboto, Oxygen, Ubuntu, Cantarell, 'Fira Sans', 'Droid Sans', 'Helvetica Neue', sans-serif" font-size="11.00">std::string</text>
</a>
</g>
</g>
<!-- Node5&#45;&gt;Node2 -->
<g id="edge6" class="edge">
<title>Node5&#45;&gt;Node2</title>
<path fill="none" stroke="#9a32cd" stroke-dasharray="5,2" d="M42.89,-342.84C51.23,-356.16 64.3,-372.78 81,-380.5 102.06,-390.23 183.83,-396.29 350,-375.5 395.68,-369.79 414.28,-380.27 451,-352.5 488.74,-323.96 507.29,-266.88 513.51,-243.67"/>
<polygon fill="#9a32cd" stroke="#9a32cd" points="45.74,-340.78 37.67,-333.91 39.69,-344.31 45.74,-340.78"/>
<text text-anchor="middle" x="259" y="-391.7" font-family="-apple-system, BlinkMacSystemFont, 'Segoe UI', Roboto, Oxygen, Ubuntu, Cantarell, 'Fira Sans', 'Droid Sans', 'Helvetica Neue', sans-serif" font-size="11.00"> _SessionKey</text>
</g>
<!-- Node5&#45;&gt;Node4 -->
<g id="edge4" class="edge">
<title>Node5&#45;&gt;Node4</title>
<path fill="none" stroke="#9a32cd" stroke-dasharray="5,2" d="M72.91,-330.25C75.64,-330.68 78.36,-331.1 81,-331.5 120.25,-337.4 164.5,-343.4 198.94,-347.92"/>
<polygon fill="#9a32cd" stroke="#9a32cd" points="73.44,-326.79 63.01,-328.67 72.33,-333.71 73.44,-326.79"/>
<text text-anchor="middle" x="115.5" y="-367.7" font-family="-apple-system, BlinkMacSystemFont, 'Segoe UI', Roboto, Oxygen, Ubuntu, Cantarell, 'Fira Sans', 'Droid Sans', 'Helvetica Neue', sans-serif" font-size="11.00"> HttpUrl</text>
<text text-anchor="middle" x="115.5" y="-355.7" font-family="-apple-system, BlinkMacSystemFont, 'Segoe UI', Roboto, Oxygen, Ubuntu, Cantarell, 'Fira Sans', 'Droid Sans', 'Helvetica Neue', sans-serif" font-size="11.00">VerifyKey</text>
<text text-anchor="middle" x="115.5" y="-343.7" font-family="-apple-system, BlinkMacSystemFont, 'Segoe UI', Roboto, Oxygen, Ubuntu, Cantarell, 'Fira Sans', 'Droid Sans', 'Helvetica Neue', sans-serif" font-size="11.00">WebsocketUrl</text>
</g>
<!-- Node16 -->
<g id="node11" class="node">
<title>Node16</title>
<g id="a_node11"><a xlink:href="structMirai_1_1ClientConnectionEstablishedEvent.html" target="_top" xlink:title="连接建立事件">
<polygon fill="none" stroke="red" points="168,-294.5 168,-326.5 350,-326.5 350,-294.5 168,-294.5"/>
<text text-anchor="start" x="176" y="-313.7" font-family="-apple-system, BlinkMacSystemFont, 'Segoe UI', Roboto, Oxygen, Ubuntu, Cantarell, 'Fira Sans', 'Droid Sans', 'Helvetica Neue', sans-serif" font-size="11.00">Mirai::ClientConnectionEstablished</text>
<text text-anchor="middle" x="259" y="-301.7" font-family="-apple-system, BlinkMacSystemFont, 'Segoe UI', Roboto, Oxygen, Ubuntu, Cantarell, 'Fira Sans', 'Droid Sans', 'Helvetica Neue', sans-serif" font-size="11.00">Event</text>
</a>
</g>
</g>
<!-- Node5&#45;&gt;Node16 -->
<g id="edge12" class="edge">
<title>Node5&#45;&gt;Node16</title>
<path fill="none" stroke="#9a32cd" stroke-dasharray="5,2" d="M54.05,-307.82C62.1,-302.86 71.58,-298.02 81,-295.5 117.34,-285.76 159.24,-288.71 193.15,-294.47"/>
<polygon fill="#9a32cd" stroke="#9a32cd" points="52.08,-304.93 45.65,-313.35 55.93,-310.78 52.08,-304.93"/>
<text text-anchor="middle" x="115.5" y="-322.7" font-family="-apple-system, BlinkMacSystemFont, 'Segoe UI', Roboto, Oxygen, Ubuntu, Cantarell, 'Fira Sans', 'Droid Sans', 'Helvetica Neue', sans-serif" font-size="11.00"> SessionKey</text>
<text text-anchor="middle" x="115.5" y="-310.7" font-family="-apple-system, BlinkMacSystemFont, 'Segoe UI', Roboto, Oxygen, Ubuntu, Cantarell, 'Fira Sans', 'Droid Sans', 'Helvetica Neue', sans-serif" font-size="11.00">protocol</text>
<text text-anchor="middle" x="115.5" y="-298.7" font-family="-apple-system, BlinkMacSystemFont, 'Segoe UI', Roboto, Oxygen, Ubuntu, Cantarell, 'Fira Sans', 'Droid Sans', 'Helvetica Neue', sans-serif" font-size="11.00">uri</text>
</g>
<!-- Node20 -->
<g id="node12" class="node">
<title>Node20</title>
<g id="a_node12"><a xlink:title=" ">
<polygon fill="none" stroke="black" points="182,-243.5 182,-275.5 336,-275.5 336,-243.5 182,-243.5"/>
<text text-anchor="start" x="190" y="-262.7" font-family="-apple-system, BlinkMacSystemFont, 'Segoe UI', Roboto, Oxygen, Ubuntu, Cantarell, 'Fira Sans', 'Droid Sans', 'Helvetica Neue', sans-serif" font-size="11.00">std::unordered_map</text>
<text text-anchor="middle" x="259" y="-250.7" font-family="-apple-system, BlinkMacSystemFont, 'Segoe UI', Roboto, Oxygen, Ubuntu, Cantarell, 'Fira Sans', 'Droid Sans', 'Helvetica Neue', sans-serif" font-size="11.00">&lt; std::string, EventHandler &gt;</text>
</a>
</g>
</g>
<!-- Node5&#45;&gt;Node20 -->
<g id="edge14" class="edge">
<title>Node5&#45;&gt;Node20</title>
<path fill="none" stroke="#9a32cd" stroke-dasharray="5,2" d="M44.68,-304.94C53.33,-293.45 66.04,-279.58 81,-272.5 111.92,-257.87 149.3,-253.49 181.73,-253.21"/>
<polygon fill="#9a32cd" stroke="#9a32cd" points="41.81,-302.93 38.89,-313.11 47.53,-306.97 41.81,-302.93"/>
<text text-anchor="middle" x="115.5" y="-275.7" font-family="-apple-system, BlinkMacSystemFont, 'Segoe UI', Roboto, Oxygen, Ubuntu, Cantarell, 'Fira Sans', 'Droid Sans', 'Helvetica Neue', sans-serif" font-size="11.00"> keys</text>
</g>
<!-- Node9 -->
<g id="node6" class="node">
<title>Node9</title>
<g id="a_node6"><a xlink:title=" ">
<polygon fill="none" stroke="red" points="198,-192.5 198,-224.5 320,-224.5 320,-192.5 198,-192.5"/>
<text text-anchor="start" x="206" y="-211.7" font-family="-apple-system, BlinkMacSystemFont, 'Segoe UI', Roboto, Oxygen, Ubuntu, Cantarell, 'Fira Sans', 'Droid Sans', 'Helvetica Neue', sans-serif" font-size="11.00">std::shared_ptr&lt; Mirai</text>
<text text-anchor="middle" x="259" y="-199.7" font-family="-apple-system, BlinkMacSystemFont, 'Segoe UI', Roboto, Oxygen, Ubuntu, Cantarell, 'Fira Sans', 'Droid Sans', 'Helvetica Neue', sans-serif" font-size="11.00">::ILogger &gt;</text>
</a>
</g>
</g>
<!-- Node9&#45;&gt;Node2 -->
<g id="edge5" class="edge">
<title>Node9&#45;&gt;Node2</title>
<path fill="none" stroke="#9a32cd" stroke-dasharray="5,2" d="M330.53,-208.56C366.7,-209.42 411.38,-211.75 451,-217.5 460.66,-218.9 470.98,-221.11 480.49,-223.44"/>
<polygon fill="#9a32cd" stroke="#9a32cd" points="330.14,-205.05 320.07,-208.35 330,-212.05 330.14,-205.05"/>
<text text-anchor="middle" x="409.5" y="-220.7" font-family="-apple-system, BlinkMacSystemFont, 'Segoe UI', Roboto, Oxygen, Ubuntu, Cantarell, 'Fira Sans', 'Droid Sans', 'Helvetica Neue', sans-serif" font-size="11.00"> _logger</text>
</g>
<!-- Node12 -->
<g id="node7" class="node">
<title>Node12</title>
<g id="a_node7"><a xlink:title=" ">
<polygon fill="none" stroke="black" points="205,-153.5 205,-173.5 313,-173.5 313,-153.5 205,-153.5"/>
<text text-anchor="middle" x="259" y="-160.7" font-family="-apple-system, BlinkMacSystemFont, 'Segoe UI', Roboto, Oxygen, Ubuntu, Cantarell, 'Fira Sans', 'Droid Sans', 'Helvetica Neue', sans-serif" font-size="11.00">std::atomic&lt; bool &gt;</text>
</a>
</g>
</g>
<!-- Node12&#45;&gt;Node2 -->
<g id="edge7" class="edge">
<title>Node12&#45;&gt;Node2</title>
<path fill="none" stroke="#9a32cd" stroke-dasharray="5,2" d="M323.69,-167.18C361.6,-170.91 410.13,-178.41 451,-193.5 470.39,-200.66 490.29,-213.95 502.87,-223.24"/>
<polygon fill="#9a32cd" stroke="#9a32cd" points="323.57,-163.66 313.29,-166.23 322.93,-170.63 323.57,-163.66"/>
<text text-anchor="middle" x="409.5" y="-196.7" font-family="-apple-system, BlinkMacSystemFont, 'Segoe UI', Roboto, Oxygen, Ubuntu, Cantarell, 'Fira Sans', 'Droid Sans', 'Helvetica Neue', sans-serif" font-size="11.00"> _SessionKeySet</text>
</g>
<!-- Node13 -->
<g id="node8" class="node">
<title>Node13</title>
<g id="a_node8"><a xlink:title=" ">
<polygon fill="none" stroke="black" points="194,-102.5 194,-134.5 324,-134.5 324,-102.5 194,-102.5"/>
<text text-anchor="start" x="202" y="-121.7" font-family="-apple-system, BlinkMacSystemFont, 'Segoe UI', Roboto, Oxygen, Ubuntu, Cantarell, 'Fira Sans', 'Droid Sans', 'Helvetica Neue', sans-serif" font-size="11.00">std::unique_ptr&lt; Details</text>
<text text-anchor="middle" x="259" y="-109.7" font-family="-apple-system, BlinkMacSystemFont, 'Segoe UI', Roboto, Oxygen, Ubuntu, Cantarell, 'Fira Sans', 'Droid Sans', 'Helvetica Neue', sans-serif" font-size="11.00">::HttpClientImpl &gt;</text>
</a>
</g>
</g>
<!-- Node13&#45;&gt;Node2 -->
<g id="edge8" class="edge">
<title>Node13&#45;&gt;Node2</title>
<path fill="none" stroke="#9a32cd" stroke-dasharray="5,2" d="M334.67,-121.8C371.76,-126.21 416,-135.85 451,-156.5 479.18,-173.12 500.87,-206.55 510.52,-223.36"/>
<polygon fill="#9a32cd" stroke="#9a32cd" points="334.73,-118.29 324.41,-120.69 333.98,-125.25 334.73,-118.29"/>
<text text-anchor="middle" x="409.5" y="-159.7" font-family="-apple-system, BlinkMacSystemFont, 'Segoe UI', Roboto, Oxygen, Ubuntu, Cantarell, 'Fira Sans', 'Droid Sans', 'Helvetica Neue', sans-serif" font-size="11.00"> _HttpClient</text>
</g>
<!-- Node14 -->
<g id="node9" class="node">
<title>Node14</title>
<g id="a_node9"><a xlink:title=" ">
<polygon fill="none" stroke="black" points="194,-51.5 194,-83.5 324,-83.5 324,-51.5 194,-51.5"/>
<text text-anchor="start" x="202" y="-70.7" font-family="-apple-system, BlinkMacSystemFont, 'Segoe UI', Roboto, Oxygen, Ubuntu, Cantarell, 'Fira Sans', 'Droid Sans', 'Helvetica Neue', sans-serif" font-size="11.00">std::unique_ptr&lt; Details</text>
<text text-anchor="middle" x="259" y="-58.7" font-family="-apple-system, BlinkMacSystemFont, 'Segoe UI', Roboto, Oxygen, Ubuntu, Cantarell, 'Fira Sans', 'Droid Sans', 'Helvetica Neue', sans-serif" font-size="11.00">::MessageClientImpl &gt;</text>
</a>
</g>
</g>
<!-- Node14&#45;&gt;Node2 -->
<g id="edge9" class="edge">
<title>Node14&#45;&gt;Node2</title>
<path fill="none" stroke="#9a32cd" stroke-dasharray="5,2" d="M334.18,-70.17C372.38,-74.89 417.78,-86.04 451,-111.5 489.48,-140.99 507.7,-199.9 513.68,-223.44"/>
<polygon fill="#9a32cd" stroke="#9a32cd" points="334.46,-66.68 324.13,-69.06 333.68,-73.64 334.46,-66.68"/>
<text text-anchor="middle" x="409.5" y="-114.7" font-family="-apple-system, BlinkMacSystemFont, 'Segoe UI', Roboto, Oxygen, Ubuntu, Cantarell, 'Fira Sans', 'Droid Sans', 'Helvetica Neue', sans-serif" font-size="11.00"> _MessageClient</text>
</g>
<!-- Node15 -->
<g id="node10" class="node">
<title>Node15</title>
<g id="a_node10"><a xlink:title=" ">
<polygon fill="none" stroke="black" points="199.5,-0.5 199.5,-32.5 318.5,-32.5 318.5,-0.5 199.5,-0.5"/>
<text text-anchor="start" x="207.5" y="-19.7" font-family="-apple-system, BlinkMacSystemFont, 'Segoe UI', Roboto, Oxygen, Ubuntu, Cantarell, 'Fira Sans', 'Droid Sans', 'Helvetica Neue', sans-serif" font-size="11.00">std::unique_ptr&lt; Utils</text>
<text text-anchor="middle" x="259" y="-7.7" font-family="-apple-system, BlinkMacSystemFont, 'Segoe UI', Roboto, Oxygen, Ubuntu, Cantarell, 'Fira Sans', 'Droid Sans', 'Helvetica Neue', sans-serif" font-size="11.00">::ThreadPool &gt;</text>
</a>
</g>
</g>
<!-- Node15&#45;&gt;Node2 -->
<g id="edge10" class="edge">
<title>Node15&#45;&gt;Node2</title>
<path fill="none" stroke="#9a32cd" stroke-dasharray="5,2" d="M328.91,-16.37C368.84,-19.79 417.66,-30.41 451,-59.5 502.27,-104.23 513.18,-193.43 515.43,-223.41"/>
<polygon fill="#9a32cd" stroke="#9a32cd" points="328.92,-12.86 318.7,-15.64 328.42,-19.85 328.92,-12.86"/>
<text text-anchor="middle" x="409.5" y="-62.7" font-family="-apple-system, BlinkMacSystemFont, 'Segoe UI', Roboto, Oxygen, Ubuntu, Cantarell, 'Fira Sans', 'Droid Sans', 'Helvetica Neue', sans-serif" font-size="11.00"> _ThreadPool</text>
</g>
<!-- Node16&#45;&gt;Node2 -->
<g id="edge11" class="edge">
<title>Node16&#45;&gt;Node2</title>
<path fill="none" stroke="#9a32cd" stroke-dasharray="5,2" d="M349.86,-292.12C382.15,-284.54 418.58,-274.85 451,-263.5 466.84,-257.95 484.05,-249.92 496.78,-243.55"/>
<polygon fill="#9a32cd" stroke="#9a32cd" points="348.94,-288.74 339.98,-294.4 350.51,-295.56 348.94,-288.74"/>
<text text-anchor="middle" x="409.5" y="-290.7" font-family="-apple-system, BlinkMacSystemFont, 'Segoe UI', Roboto, Oxygen, Ubuntu, Cantarell, 'Fira Sans', 'Droid Sans', 'Helvetica Neue', sans-serif" font-size="11.00"> _HandshakeInfo</text>
</g>
<!-- Node20&#45;&gt;Node2 -->
<g id="edge13" class="edge">
<title>Node20&#45;&gt;Node2</title>
<path fill="none" stroke="#9a32cd" stroke-dasharray="5,2" d="M346.1,-250.76C387.05,-246.6 434.44,-241.78 468.74,-238.3"/>
<polygon fill="#9a32cd" stroke="#9a32cd" points="345.71,-247.28 336.12,-251.77 346.42,-254.24 345.71,-247.28"/>
<text text-anchor="middle" x="409.5" y="-250.7" font-family="-apple-system, BlinkMacSystemFont, 'Segoe UI', Roboto, Oxygen, Ubuntu, Cantarell, 'Fira Sans', 'Droid Sans', 'Helvetica Neue', sans-serif" font-size="11.00"> _EventHandlers</text>
</g>
</g>
</svg>
