<?xml version="1.0" encoding="UTF-8" standalone="no"?>
<!DOCTYPE svg PUBLIC "-//W3C//DTD SVG 1.1//EN"
 "http://www.w3.org/Graphics/SVG/1.1/DTD/svg11.dtd">
<!-- Generated by graphviz version 2.43.0 (0)
 -->
<!-- Title: Mirai::ParseError Pages: 1 -->
<svg width="245pt" height="180pt"
 viewBox="0.00 0.00 245.00 180.00" xmlns="http://www.w3.org/2000/svg" xmlns:xlink="http://www.w3.org/1999/xlink">
<g id="graph0" class="graph" transform="scale(1 1) rotate(0) translate(4 176)">
<title>Mirai::ParseError</title>
<!-- Node1 -->
<g id="node1" class="node">
<title>Node1</title>
<g id="a_node1"><a xlink:title="消息解析错误">
<polygon fill="#bfbfbf" stroke="black" points="60,-0.5 60,-20.5 168,-20.5 168,-0.5 60,-0.5"/>
<text text-anchor="middle" x="114" y="-7.7" font-family="-apple-system,BlinkMacSystemFont,'SegoeUI',Roboto,Oxygen,Ubuntu,Cantarell,'FiraSans','DroidSans','HelveticaNeue',sans-serif" font-size="11.00">Mirai::ParseError</text>
</a>
</g>
</g>
<!-- Node2 -->
<g id="node2" class="node">
<title>Node2</title>
<g id="a_node2"><a xlink:title="STL class">
<polygon fill="none" stroke="#bfbfbf" points="0,-81.5 0,-101.5 116,-101.5 116,-81.5 0,-81.5"/>
<text text-anchor="middle" x="58" y="-88.7" font-family="-apple-system,BlinkMacSystemFont,'SegoeUI',Roboto,Oxygen,Ubuntu,Cantarell,'FiraSans','DroidSans','HelveticaNeue',sans-serif" font-size="11.00">std::runtime_error</text>
</a>
</g>
</g>
<!-- Node2&#45;&gt;Node1 -->
<g id="edge1" class="edge">
<title>Node2&#45;&gt;Node1</title>
<path fill="none" stroke="midnightblue" d="M70.45,-72.94C81.83,-56.89 98.22,-33.76 107.3,-20.95"/>
<polygon fill="midnightblue" stroke="midnightblue" points="67.35,-71.26 64.42,-81.44 73.06,-75.3 67.35,-71.26"/>
</g>
<!-- Node3 -->
<g id="node3" class="node">
<title>Node3</title>
<g id="a_node3"><a xlink:title="STL class">
<polygon fill="none" stroke="#bfbfbf" points="7.5,-145.5 7.5,-165.5 102.5,-165.5 102.5,-145.5 7.5,-145.5"/>
<text text-anchor="middle" x="55" y="-152.7" font-family="-apple-system,BlinkMacSystemFont,'SegoeUI',Roboto,Oxygen,Ubuntu,Cantarell,'FiraSans','DroidSans','HelveticaNeue',sans-serif" font-size="11.00">std::exception</text>
</a>
</g>
</g>
<!-- Node3&#45;&gt;Node2 -->
<g id="edge2" class="edge">
<title>Node3&#45;&gt;Node2</title>
<path fill="none" stroke="midnightblue" d="M55.93,-135.23C56.47,-124.06 57.13,-110.49 57.56,-101.69"/>
<polygon fill="midnightblue" stroke="midnightblue" points="52.43,-135.19 55.44,-145.35 59.42,-135.53 52.43,-135.19"/>
</g>
<!-- Node4 -->
<g id="node4" class="node">
<title>Node4</title>
<g id="a_node4"><a xlink:title="STL class">
<polygon fill="none" stroke="#bfbfbf" points="139.5,-81.5 139.5,-101.5 212.5,-101.5 212.5,-81.5 139.5,-81.5"/>
<text text-anchor="middle" x="176" y="-88.7" font-family="-apple-system,BlinkMacSystemFont,'SegoeUI',Roboto,Oxygen,Ubuntu,Cantarell,'FiraSans','DroidSans','HelveticaNeue',sans-serif" font-size="11.00">std::string</text>
</a>
</g>
</g>
<!-- Node4&#45;&gt;Node1 -->
<g id="edge3" class="edge">
<title>Node4&#45;&gt;Node1</title>
<path fill="none" stroke="#9a32cd" stroke-dasharray="5,2" d="M162.57,-73.38C149.96,-57.32 131.56,-33.88 121.41,-20.95"/>
<polygon fill="#9a32cd" stroke="#9a32cd" points="159.96,-75.73 168.89,-81.44 165.47,-71.41 159.96,-75.73"/>
<text text-anchor="middle" x="184.5" y="-54.2" font-family="-apple-system,BlinkMacSystemFont,'SegoeUI',Roboto,Oxygen,Ubuntu,Cantarell,'FiraSans','DroidSans','HelveticaNeue',sans-serif" font-size="11.00"> _message</text>
<text text-anchor="middle" x="184.5" y="-42.2" font-family="-apple-system,BlinkMacSystemFont,'SegoeUI',Roboto,Oxygen,Ubuntu,Cantarell,'FiraSans','DroidSans','HelveticaNeue',sans-serif" font-size="11.00">_error</text>
</g>
<!-- Node5 -->
<g id="node5" class="node">
<title>Node5</title>
<g id="a_node5"><a xlink:title="STL class">
<polygon fill="none" stroke="#bfbfbf" points="121,-139.5 121,-171.5 237,-171.5 237,-139.5 121,-139.5"/>
<text text-anchor="start" x="129" y="-158.7" font-family="-apple-system,BlinkMacSystemFont,'SegoeUI',Roboto,Oxygen,Ubuntu,Cantarell,'FiraSans','DroidSans','HelveticaNeue',sans-serif" font-size="11.00">std::basic_string&lt;</text>
<text text-anchor="middle" x="179" y="-146.7" font-family="-apple-system,BlinkMacSystemFont,'SegoeUI',Roboto,Oxygen,Ubuntu,Cantarell,'FiraSans','DroidSans','HelveticaNeue',sans-serif" font-size="11.00"> char &gt;</text>
</a>
</g>
</g>
<!-- Node5&#45;&gt;Node4 -->
<g id="edge4" class="edge">
<title>Node5&#45;&gt;Node4</title>
<path fill="none" stroke="midnightblue" d="M177.79,-129.42C177.31,-119.67 176.8,-109.11 176.45,-101.79"/>
<polygon fill="midnightblue" stroke="midnightblue" points="174.29,-129.67 178.27,-139.49 181.29,-129.33 174.29,-129.67"/>
</g>
</g>
</svg>
