<?xml version="1.0" encoding="UTF-8" standalone="no"?>
<!DOCTYPE svg PUBLIC "-//W3C//DTD SVG 1.1//EN"
 "http://www.w3.org/Graphics/SVG/1.1/DTD/svg11.dtd">
<!-- Generated by graphviz version 2.43.0 (0)
 -->
<!-- Title: Mirai::MemberHonorChangeEvent Pages: 1 -->
<svg width="834pt" height="289pt"
 viewBox="0.00 0.00 834.00 288.50" xmlns="http://www.w3.org/2000/svg" xmlns:xlink="http://www.w3.org/1999/xlink">
<g id="graph0" class="graph" transform="scale(1 1) rotate(0) translate(4 284.5)">
<title>Mirai::MemberHonorChangeEvent</title>
<!-- Node1 -->
<g id="node1" class="node">
<title>Node1</title>
<g id="a_node1"><a xlink:title="群成员荣誉改变事件">
<polygon fill="#bfbfbf" stroke="black" points="656,-179.5 656,-211.5 826,-211.5 826,-179.5 656,-179.5"/>
<text text-anchor="start" x="664" y="-198.7" font-family="-apple-system,BlinkMacSystemFont,'SegoeUI',Roboto,Oxygen,Ubuntu,Cantarell,'FiraSans','DroidSans','HelveticaNeue',sans-serif" font-size="11.00">Mirai::MemberHonorChange</text>
<text text-anchor="middle" x="741" y="-186.7" font-family="-apple-system,BlinkMacSystemFont,'SegoeUI',Roboto,Oxygen,Ubuntu,Cantarell,'FiraSans','DroidSans','HelveticaNeue',sans-serif" font-size="11.00">Event</text>
</a>
</g>
</g>
<!-- Node2 -->
<g id="node2" class="node">
<title>Node2</title>
<g id="a_node2"><a xlink:href="classMirai_1_1EventBase.html" target="_top" xlink:title="Base class for all event types">
<polygon fill="none" stroke="black" points="445.5,-217.5 445.5,-237.5 555.5,-237.5 555.5,-217.5 445.5,-217.5"/>
<text text-anchor="middle" x="500.5" y="-224.7" font-family="-apple-system,BlinkMacSystemFont,'SegoeUI',Roboto,Oxygen,Ubuntu,Cantarell,'FiraSans','DroidSans','HelveticaNeue',sans-serif" font-size="11.00">Mirai::EventBase</text>
</a>
</g>
</g>
<!-- Node2&#45;&gt;Node1 -->
<g id="edge1" class="edge">
<title>Node2&#45;&gt;Node1</title>
<path fill="none" stroke="midnightblue" d="M565.58,-218.9C593.27,-215.19 626.05,-210.79 655.68,-206.81"/>
<polygon fill="midnightblue" stroke="midnightblue" points="565.07,-215.44 555.62,-220.24 566,-222.38 565.07,-215.44"/>
</g>
<!-- Node3 -->
<g id="node3" class="node">
<title>Node3</title>
<g id="a_node3"><a xlink:href="classMirai_1_1MiraiClient.html" target="_top" xlink:title="提供与mirai&#45;api&#45;http网络交互的封装">
<polygon fill="none" stroke="red" points="235.5,-229.5 235.5,-249.5 345.5,-249.5 345.5,-229.5 235.5,-229.5"/>
<text text-anchor="middle" x="290.5" y="-236.7" font-family="-apple-system,BlinkMacSystemFont,'SegoeUI',Roboto,Oxygen,Ubuntu,Cantarell,'FiraSans','DroidSans','HelveticaNeue',sans-serif" font-size="11.00">Mirai::MiraiClient</text>
</a>
</g>
</g>
<!-- Node3&#45;&gt;Node2 -->
<g id="edge2" class="edge">
<title>Node3&#45;&gt;Node2</title>
<path fill="none" stroke="#9a32cd" stroke-dasharray="5,2" d="M355.93,-235.78C384.59,-234.13 417.95,-232.2 445.3,-230.63"/>
<polygon fill="#9a32cd" stroke="#9a32cd" points="355.39,-232.31 345.61,-236.38 355.79,-239.3 355.39,-232.31"/>
<text text-anchor="middle" x="397.5" y="-236.7" font-family="-apple-system,BlinkMacSystemFont,'SegoeUI',Roboto,Oxygen,Ubuntu,Cantarell,'FiraSans','DroidSans','HelveticaNeue',sans-serif" font-size="11.00"> _client</text>
</g>
<!-- Node7 -->
<g id="node4" class="node">
<title>Node7</title>
<g id="a_node4"><a xlink:title="STL class">
<polygon fill="none" stroke="#bfbfbf" points="20.5,-197.5 20.5,-217.5 93.5,-217.5 93.5,-197.5 20.5,-197.5"/>
<text text-anchor="middle" x="57" y="-204.7" font-family="-apple-system,BlinkMacSystemFont,'SegoeUI',Roboto,Oxygen,Ubuntu,Cantarell,'FiraSans','DroidSans','HelveticaNeue',sans-serif" font-size="11.00">std::string</text>
</a>
</g>
</g>
<!-- Node7&#45;&gt;Node1 -->
<g id="edge13" class="edge">
<title>Node7&#45;&gt;Node1</title>
<path fill="none" stroke="#9a32cd" stroke-dasharray="5,2" d="M84.93,-222.27C98.67,-229.28 115.86,-237.25 132,-242.5 170.71,-255.08 181.47,-255.71 222,-259.5 373.87,-273.72 414.64,-273.18 565,-247.5 598.28,-241.82 605.63,-236.08 638,-226.5 654.24,-221.7 671.9,-216.37 687.89,-211.5"/>
<polygon fill="#9a32cd" stroke="#9a32cd" points="86.5,-219.15 76.02,-217.62 83.26,-225.35 86.5,-219.15"/>
<text text-anchor="middle" x="397.5" y="-271.7" font-family="-apple-system,BlinkMacSystemFont,'SegoeUI',Roboto,Oxygen,Ubuntu,Cantarell,'FiraSans','DroidSans','HelveticaNeue',sans-serif" font-size="11.00"> _honor</text>
</g>
<!-- Node7&#45;&gt;Node3 -->
<g id="edge3" class="edge">
<title>Node7&#45;&gt;Node3</title>
<path fill="none" stroke="#9a32cd" stroke-dasharray="5,2" d="M103.88,-213.84C141.68,-219.07 195.35,-226.49 235.27,-232"/>
<polygon fill="#9a32cd" stroke="#9a32cd" points="104.05,-210.33 93.66,-212.43 103.09,-217.27 104.05,-210.33"/>
<text text-anchor="middle" x="168" y="-229.7" font-family="-apple-system,BlinkMacSystemFont,'SegoeUI',Roboto,Oxygen,Ubuntu,Cantarell,'FiraSans','DroidSans','HelveticaNeue',sans-serif" font-size="11.00"> _SessionKey</text>
</g>
<!-- Node18 -->
<g id="node5" class="node">
<title>Node18</title>
<g id="a_node5"><a xlink:href="structMirai_1_1GroupMember.html" target="_top" xlink:title="群员资料">
<polygon fill="none" stroke="black" points="436,-129.5 436,-149.5 565,-149.5 565,-129.5 436,-129.5"/>
<text text-anchor="middle" x="500.5" y="-136.7" font-family="-apple-system,BlinkMacSystemFont,'SegoeUI',Roboto,Oxygen,Ubuntu,Cantarell,'FiraSans','DroidSans','HelveticaNeue',sans-serif" font-size="11.00">Mirai::GroupMember</text>
</a>
</g>
</g>
<!-- Node7&#45;&gt;Node18 -->
<g id="edge6" class="edge">
<title>Node7&#45;&gt;Node18</title>
<path fill="none" stroke="#9a32cd" stroke-dasharray="5,2" d="M103.62,-201.66C172.07,-192.73 305.35,-174.68 418,-155.5 428.52,-153.71 439.77,-151.62 450.44,-149.55"/>
<polygon fill="#9a32cd" stroke="#9a32cd" points="103.07,-198.2 93.61,-202.96 103.97,-205.14 103.07,-198.2"/>
<text text-anchor="middle" x="290.5" y="-200.7" font-family="-apple-system,BlinkMacSystemFont,'SegoeUI',Roboto,Oxygen,Ubuntu,Cantarell,'FiraSans','DroidSans','HelveticaNeue',sans-serif" font-size="11.00"> SpecialTitle</text>
<text text-anchor="middle" x="290.5" y="-188.7" font-family="-apple-system,BlinkMacSystemFont,'SegoeUI',Roboto,Oxygen,Ubuntu,Cantarell,'FiraSans','DroidSans','HelveticaNeue',sans-serif" font-size="11.00">MemberName</text>
</g>
<!-- Node19 -->
<g id="node8" class="node">
<title>Node19</title>
<g id="a_node8"><a xlink:href="structMirai_1_1Group.html" target="_top" xlink:title="群聊资料">
<polygon fill="none" stroke="red" points="248.5,-129.5 248.5,-149.5 332.5,-149.5 332.5,-129.5 248.5,-129.5"/>
<text text-anchor="middle" x="290.5" y="-136.7" font-family="-apple-system,BlinkMacSystemFont,'SegoeUI',Roboto,Oxygen,Ubuntu,Cantarell,'FiraSans','DroidSans','HelveticaNeue',sans-serif" font-size="11.00">Mirai::Group</text>
</a>
</g>
</g>
<!-- Node7&#45;&gt;Node19 -->
<g id="edge10" class="edge">
<title>Node7&#45;&gt;Node19</title>
<path fill="none" stroke="#9a32cd" stroke-dasharray="5,2" d="M78.26,-191.21C92.46,-180.68 112.34,-167.66 132,-160.5 169.84,-146.72 215.75,-141.83 248.21,-140.17"/>
<polygon fill="#9a32cd" stroke="#9a32cd" points="76.02,-188.51 70.21,-197.36 80.28,-194.07 76.02,-188.51"/>
<text text-anchor="middle" x="168" y="-163.7" font-family="-apple-system,BlinkMacSystemFont,'SegoeUI',Roboto,Oxygen,Ubuntu,Cantarell,'FiraSans','DroidSans','HelveticaNeue',sans-serif" font-size="11.00"> name</text>
</g>
<!-- Node18&#45;&gt;Node1 -->
<g id="edge4" class="edge">
<title>Node18&#45;&gt;Node1</title>
<path fill="none" stroke="#9a32cd" stroke-dasharray="5,2" d="M554.03,-151.83C588.59,-159.95 634.17,-170.65 671.56,-179.43"/>
<polygon fill="#9a32cd" stroke="#9a32cd" points="554.67,-148.39 544.14,-149.51 553.07,-155.2 554.67,-148.39"/>
<text text-anchor="middle" x="610.5" y="-173.7" font-family="-apple-system,BlinkMacSystemFont,'SegoeUI',Roboto,Oxygen,Ubuntu,Cantarell,'FiraSans','DroidSans','HelveticaNeue',sans-serif" font-size="11.00"> _member</text>
</g>
<!-- Node12 -->
<g id="node6" class="node">
<title>Node12</title>
<g id="a_node6"><a xlink:href="classMirai_1_1Serializable.html" target="_top" xlink:title="Base class for all json serializable type">
<polygon fill="none" stroke="black" points="0,-103.5 0,-123.5 114,-123.5 114,-103.5 0,-103.5"/>
<text text-anchor="middle" x="57" y="-110.7" font-family="-apple-system,BlinkMacSystemFont,'SegoeUI',Roboto,Oxygen,Ubuntu,Cantarell,'FiraSans','DroidSans','HelveticaNeue',sans-serif" font-size="11.00">Mirai::Serializable</text>
</a>
</g>
</g>
<!-- Node12&#45;&gt;Node18 -->
<g id="edge5" class="edge">
<title>Node12&#45;&gt;Node18</title>
<path fill="none" stroke="midnightblue" d="M124.39,-112.93C185.46,-112.91 278.46,-114.14 359,-120.5 384.52,-122.52 412.49,-126.03 436.71,-129.49"/>
<polygon fill="midnightblue" stroke="midnightblue" points="124.12,-109.43 114.13,-112.95 124.13,-116.43 124.12,-109.43"/>
</g>
<!-- Node12&#45;&gt;Node19 -->
<g id="edge9" class="edge">
<title>Node12&#45;&gt;Node19</title>
<path fill="none" stroke="midnightblue" d="M124,-120.91C164.09,-125.42 214.02,-131.02 248.49,-134.89"/>
<polygon fill="midnightblue" stroke="midnightblue" points="124.37,-117.43 114.04,-119.79 123.59,-124.39 124.37,-117.43"/>
</g>
<!-- Node5 -->
<g id="node7" class="node">
<title>Node5</title>
<g id="a_node7"><a xlink:href="classMirai_1_1QQ__t.html" target="_top" xlink:title="QQ号码类型">
<polygon fill="none" stroke="red" points="251,-51.5 251,-71.5 330,-71.5 330,-51.5 251,-51.5"/>
<text text-anchor="middle" x="290.5" y="-58.7" font-family="-apple-system,BlinkMacSystemFont,'SegoeUI',Roboto,Oxygen,Ubuntu,Cantarell,'FiraSans','DroidSans','HelveticaNeue',sans-serif" font-size="11.00">Mirai::QQ_t</text>
</a>
</g>
</g>
<!-- Node5&#45;&gt;Node18 -->
<g id="edge7" class="edge">
<title>Node5&#45;&gt;Node18</title>
<path fill="none" stroke="#9a32cd" stroke-dasharray="5,2" d="M340.25,-60.14C364.42,-61.03 393.59,-64.53 418,-74.5 448.49,-86.96 476.82,-114.55 490.65,-129.47"/>
<polygon fill="#9a32cd" stroke="#9a32cd" points="340.3,-56.64 330.22,-59.9 340.14,-63.64 340.3,-56.64"/>
<text text-anchor="middle" x="397.5" y="-77.7" font-family="-apple-system,BlinkMacSystemFont,'SegoeUI',Roboto,Oxygen,Ubuntu,Cantarell,'FiraSans','DroidSans','HelveticaNeue',sans-serif" font-size="11.00"> id</text>
</g>
<!-- Node19&#45;&gt;Node18 -->
<g id="edge8" class="edge">
<title>Node19&#45;&gt;Node18</title>
<path fill="none" stroke="#9a32cd" stroke-dasharray="5,2" d="M342.63,-139.5C370.81,-139.5 406.03,-139.5 435.96,-139.5"/>
<polygon fill="#9a32cd" stroke="#9a32cd" points="342.59,-136 332.59,-139.5 342.59,-143 342.59,-136"/>
<text text-anchor="middle" x="397.5" y="-142.7" font-family="-apple-system,BlinkMacSystemFont,'SegoeUI',Roboto,Oxygen,Ubuntu,Cantarell,'FiraSans','DroidSans','HelveticaNeue',sans-serif" font-size="11.00"> group</text>
</g>
<!-- Node21 -->
<g id="node9" class="node">
<title>Node21</title>
<g id="a_node9"><a xlink:title="STL class">
<polygon fill="none" stroke="#bfbfbf" points="448.5,-48.5 448.5,-68.5 552.5,-68.5 552.5,-48.5 448.5,-48.5"/>
<text text-anchor="middle" x="500.5" y="-55.7" font-family="-apple-system,BlinkMacSystemFont,'SegoeUI',Roboto,Oxygen,Ubuntu,Cantarell,'FiraSans','DroidSans','HelveticaNeue',sans-serif" font-size="11.00">std::string_view</text>
</a>
</g>
</g>
<!-- Node21&#45;&gt;Node1 -->
<g id="edge11" class="edge">
<title>Node21&#45;&gt;Node1</title>
<path fill="none" stroke="#9a32cd" stroke-dasharray="5,2" d="M527.98,-73.71C573.38,-99.79 665.67,-152.8 712.06,-179.45"/>
<polygon fill="#9a32cd" stroke="#9a32cd" points="529.45,-70.52 519.04,-68.57 525.97,-76.59 529.45,-70.52"/>
<text text-anchor="middle" x="610.5" y="-137.7" font-family="-apple-system,BlinkMacSystemFont,'SegoeUI',Roboto,Oxygen,Ubuntu,Cantarell,'FiraSans','DroidSans','HelveticaNeue',sans-serif" font-size="11.00"> _TYPE_</text>
</g>
<!-- Node22 -->
<g id="node10" class="node">
<title>Node22</title>
<g id="a_node10"><a xlink:title="STL class">
<polygon fill="none" stroke="#bfbfbf" points="222,-0.5 222,-32.5 359,-32.5 359,-0.5 222,-0.5"/>
<text text-anchor="start" x="230" y="-19.7" font-family="-apple-system,BlinkMacSystemFont,'SegoeUI',Roboto,Oxygen,Ubuntu,Cantarell,'FiraSans','DroidSans','HelveticaNeue',sans-serif" font-size="11.00">std::basic_string_view</text>
<text text-anchor="middle" x="290.5" y="-7.7" font-family="-apple-system,BlinkMacSystemFont,'SegoeUI',Roboto,Oxygen,Ubuntu,Cantarell,'FiraSans','DroidSans','HelveticaNeue',sans-serif" font-size="11.00">&lt; char &gt;</text>
</a>
</g>
</g>
<!-- Node22&#45;&gt;Node21 -->
<g id="edge12" class="edge">
<title>Node22&#45;&gt;Node21</title>
<path fill="none" stroke="midnightblue" d="M369.19,-30C385.35,-32.99 402.25,-36.23 418,-39.5 431.09,-42.21 445.29,-45.43 458.13,-48.44"/>
<polygon fill="midnightblue" stroke="midnightblue" points="369.71,-26.54 359.24,-28.18 368.45,-33.42 369.71,-26.54"/>
</g>
</g>
</svg>
