<?xml version="1.0" encoding="UTF-8" standalone="no"?>
<!DOCTYPE svg PUBLIC "-//W3C//DTD SVG 1.1//EN"
 "http://www.w3.org/Graphics/SVG/1.1/DTD/svg11.dtd">
<!-- Generated by graphviz version 3.0.0 (20220413.0242)
 -->
<!-- Title: Mirai::AtMessage Pages: 1 -->
<svg width="461pt" height="170pt"
 viewBox="0.00 0.00 461.00 170.00" xmlns="http://www.w3.org/2000/svg" xmlns:xlink="http://www.w3.org/1999/xlink">
<g id="graph0" class="graph" transform="scale(1 1) rotate(0) translate(4 166)">
<title>Mirai::AtMessage</title>
<!-- Node1 -->
<g id="node1" class="node">
<title>Node1</title>
<g id="a_node1"><a xlink:title="At用户消息">
<polygon fill="#bfbfbf" stroke="black" points="353,-80.5 353,-100.5 453,-100.5 453,-80.5 353,-80.5"/>
<text text-anchor="middle" x="403" y="-87.7" font-family="-apple-system, BlinkMacSystemFont, 'Segoe UI', Roboto, Oxygen, Ubuntu, Cantarell, 'Fira Sans', 'Droid Sans', 'Helvetica Neue', sans-serif" font-size="11.00">Mirai::AtMessage</text>
</a>
</g>
</g>
<!-- Node2 -->
<g id="node2" class="node">
<title>Node2</title>
<g id="a_node2"><a xlink:href="classMirai_1_1MessageBase.html" target="_top" xlink:title="Base class for all message types">
<polygon fill="none" stroke="black" points="159,-141.5 159,-161.5 273,-161.5 273,-141.5 159,-141.5"/>
<text text-anchor="middle" x="216" y="-148.7" font-family="-apple-system, BlinkMacSystemFont, 'Segoe UI', Roboto, Oxygen, Ubuntu, Cantarell, 'Fira Sans', 'Droid Sans', 'Helvetica Neue', sans-serif" font-size="11.00">Mirai::MessageBase</text>
</a>
</g>
</g>
<!-- Node2&#45;&gt;Node1 -->
<g id="edge1" class="edge">
<title>Node2&#45;&gt;Node1</title>
<path fill="none" stroke="midnightblue" d="M267.26,-138.91C288.36,-133.25 313.06,-126.12 335,-118.5 350.24,-113.21 366.99,-106.21 379.93,-100.53"/>
<polygon fill="midnightblue" stroke="midnightblue" points="266.29,-135.54 257.52,-141.49 268.09,-142.31 266.29,-135.54"/>
</g>
<!-- Node3 -->
<g id="node3" class="node">
<title>Node3</title>
<g id="a_node3"><a xlink:href="classMirai_1_1Serializable.html" target="_top" xlink:title="Base class for all json serializable type">
<polygon fill="none" stroke="black" points="10.5,-141.5 10.5,-161.5 111.5,-161.5 111.5,-141.5 10.5,-141.5"/>
<text text-anchor="middle" x="61" y="-148.7" font-family="-apple-system, BlinkMacSystemFont, 'Segoe UI', Roboto, Oxygen, Ubuntu, Cantarell, 'Fira Sans', 'Droid Sans', 'Helvetica Neue', sans-serif" font-size="11.00">Mirai::Serializable</text>
</a>
</g>
</g>
<!-- Node3&#45;&gt;Node2 -->
<g id="edge2" class="edge">
<title>Node3&#45;&gt;Node2</title>
<path fill="none" stroke="midnightblue" d="M121.78,-151.5C134.01,-151.5 146.85,-151.5 158.95,-151.5"/>
<polygon fill="midnightblue" stroke="midnightblue" points="121.67,-148 111.67,-151.5 121.67,-155 121.67,-148"/>
</g>
<!-- Node4 -->
<g id="node4" class="node">
<title>Node4</title>
<g id="a_node4"><a xlink:href="classMirai_1_1QQ__t.html" target="_top" xlink:title="QQ号码类型">
<polygon fill="none" stroke="black" points="180.5,-101.5 180.5,-121.5 251.5,-121.5 251.5,-101.5 180.5,-101.5"/>
<text text-anchor="middle" x="216" y="-108.7" font-family="-apple-system, BlinkMacSystemFont, 'Segoe UI', Roboto, Oxygen, Ubuntu, Cantarell, 'Fira Sans', 'Droid Sans', 'Helvetica Neue', sans-serif" font-size="11.00">Mirai::QQ_t</text>
</a>
</g>
</g>
<!-- Node4&#45;&gt;Node1 -->
<g id="edge3" class="edge">
<title>Node4&#45;&gt;Node1</title>
<path fill="none" stroke="#9a32cd" stroke-dasharray="5,2" d="M261.91,-106.4C289.36,-103.29 324.48,-99.3 352.7,-96.1"/>
<polygon fill="#9a32cd" stroke="#9a32cd" points="261.34,-102.94 251.8,-107.55 262.13,-109.9 261.34,-102.94"/>
<text text-anchor="middle" x="313" y="-105.7" font-family="-apple-system, BlinkMacSystemFont, 'Segoe UI', Roboto, Oxygen, Ubuntu, Cantarell, 'Fira Sans', 'Droid Sans', 'Helvetica Neue', sans-serif" font-size="11.00"> _target</text>
</g>
<!-- Node5 -->
<g id="node5" class="node">
<title>Node5</title>
<g id="a_node5"><a xlink:href="classMirai_1_1UID__t.html" target="_top" xlink:title="Base class for QQ_t and GID_t">
<polygon fill="none" stroke="black" points="24,-102.5 24,-122.5 98,-122.5 98,-102.5 24,-102.5"/>
<text text-anchor="middle" x="61" y="-109.7" font-family="-apple-system, BlinkMacSystemFont, 'Segoe UI', Roboto, Oxygen, Ubuntu, Cantarell, 'Fira Sans', 'Droid Sans', 'Helvetica Neue', sans-serif" font-size="11.00">Mirai::UID_t</text>
</a>
</g>
</g>
<!-- Node5&#45;&gt;Node4 -->
<g id="edge4" class="edge">
<title>Node5&#45;&gt;Node4</title>
<path fill="none" stroke="midnightblue" d="M108.53,-112.2C131.64,-112.04 159.08,-111.87 180.32,-111.73"/>
<polygon fill="midnightblue" stroke="midnightblue" points="108.24,-108.7 98.26,-112.26 108.28,-115.7 108.24,-108.7"/>
</g>
<!-- Node6 -->
<g id="node6" class="node">
<title>Node6</title>
<g id="a_node6"><a xlink:title=" ">
<polygon fill="none" stroke="black" points="184.5,-58.5 184.5,-78.5 247.5,-78.5 247.5,-58.5 184.5,-58.5"/>
<text text-anchor="middle" x="216" y="-65.7" font-family="-apple-system, BlinkMacSystemFont, 'Segoe UI', Roboto, Oxygen, Ubuntu, Cantarell, 'Fira Sans', 'Droid Sans', 'Helvetica Neue', sans-serif" font-size="11.00">std::string</text>
</a>
</g>
</g>
<!-- Node6&#45;&gt;Node1 -->
<g id="edge5" class="edge">
<title>Node6&#45;&gt;Node1</title>
<path fill="none" stroke="#9a32cd" stroke-dasharray="5,2" d="M257.55,-73.3C280.32,-76 309.24,-79.43 335,-82.5 340.82,-83.19 346.92,-83.92 352.97,-84.64"/>
<polygon fill="#9a32cd" stroke="#9a32cd" points="257.9,-69.82 247.56,-72.12 257.08,-76.77 257.9,-69.82"/>
<text text-anchor="middle" x="313" y="-85.7" font-family="-apple-system, BlinkMacSystemFont, 'Segoe UI', Roboto, Oxygen, Ubuntu, Cantarell, 'Fira Sans', 'Droid Sans', 'Helvetica Neue', sans-serif" font-size="11.00"> _display</text>
</g>
<!-- Node7 -->
<g id="node7" class="node">
<title>Node7</title>
<g id="a_node7"><a xlink:title=" ">
<polygon fill="none" stroke="black" points="10.5,-51.5 10.5,-83.5 111.5,-83.5 111.5,-51.5 10.5,-51.5"/>
<text text-anchor="start" x="18.5" y="-70.7" font-family="-apple-system, BlinkMacSystemFont, 'Segoe UI', Roboto, Oxygen, Ubuntu, Cantarell, 'Fira Sans', 'Droid Sans', 'Helvetica Neue', sans-serif" font-size="11.00">std::basic_string&lt;</text>
<text text-anchor="middle" x="61" y="-58.7" font-family="-apple-system, BlinkMacSystemFont, 'Segoe UI', Roboto, Oxygen, Ubuntu, Cantarell, 'Fira Sans', 'Droid Sans', 'Helvetica Neue', sans-serif" font-size="11.00"> Char &gt;</text>
</a>
</g>
</g>
<!-- Node7&#45;&gt;Node6 -->
<g id="edge6" class="edge">
<title>Node7&#45;&gt;Node6</title>
<path fill="none" stroke="midnightblue" d="M121.68,-67.89C143.08,-68.03 166.33,-68.18 184.28,-68.3"/>
<polygon fill="midnightblue" stroke="midnightblue" points="121.7,-64.39 111.67,-67.82 121.65,-71.39 121.7,-64.39"/>
</g>
<!-- Node8 -->
<g id="node8" class="node">
<title>Node8</title>
<g id="a_node8"><a xlink:title=" ">
<polygon fill="none" stroke="black" points="170.5,-13.5 170.5,-33.5 261.5,-33.5 261.5,-13.5 170.5,-13.5"/>
<text text-anchor="middle" x="216" y="-20.7" font-family="-apple-system, BlinkMacSystemFont, 'Segoe UI', Roboto, Oxygen, Ubuntu, Cantarell, 'Fira Sans', 'Droid Sans', 'Helvetica Neue', sans-serif" font-size="11.00">std::string_view</text>
</a>
</g>
</g>
<!-- Node8&#45;&gt;Node1 -->
<g id="edge7" class="edge">
<title>Node8&#45;&gt;Node1</title>
<path fill="none" stroke="#9a32cd" stroke-dasharray="5,2" d="M262.53,-36.42C284.62,-43.03 311.41,-51.56 335,-60.5 350.73,-66.46 368.05,-74.25 381.14,-80.4"/>
<polygon fill="#9a32cd" stroke="#9a32cd" points="263.32,-33 252.74,-33.52 261.34,-39.71 263.32,-33"/>
<text text-anchor="middle" x="313" y="-63.7" font-family="-apple-system, BlinkMacSystemFont, 'Segoe UI', Roboto, Oxygen, Ubuntu, Cantarell, 'Fira Sans', 'Droid Sans', 'Helvetica Neue', sans-serif" font-size="11.00"> _TYPE_</text>
</g>
<!-- Node9 -->
<g id="node9" class="node">
<title>Node9</title>
<g id="a_node9"><a xlink:title=" ">
<polygon fill="none" stroke="black" points="0,-0.5 0,-32.5 122,-32.5 122,-0.5 0,-0.5"/>
<text text-anchor="start" x="8" y="-19.7" font-family="-apple-system, BlinkMacSystemFont, 'Segoe UI', Roboto, Oxygen, Ubuntu, Cantarell, 'Fira Sans', 'Droid Sans', 'Helvetica Neue', sans-serif" font-size="11.00">std::basic_string_view</text>
<text text-anchor="middle" x="61" y="-7.7" font-family="-apple-system, BlinkMacSystemFont, 'Segoe UI', Roboto, Oxygen, Ubuntu, Cantarell, 'Fira Sans', 'Droid Sans', 'Helvetica Neue', sans-serif" font-size="11.00">&lt; Char &gt;</text>
</a>
</g>
</g>
<!-- Node9&#45;&gt;Node8 -->
<g id="edge8" class="edge">
<title>Node9&#45;&gt;Node8</title>
<path fill="none" stroke="midnightblue" d="M132.31,-19.72C145.23,-20.31 158.38,-20.91 170.28,-21.45"/>
<polygon fill="midnightblue" stroke="midnightblue" points="132.18,-16.21 122.03,-19.25 131.86,-23.2 132.18,-16.21"/>
</g>
</g>
</svg>
