<?xml version="1.0" encoding="UTF-8" standalone="no"?>
<!DOCTYPE svg PUBLIC "-//W3C//DTD SVG 1.1//EN"
 "http://www.w3.org/Graphics/SVG/1.1/DTD/svg11.dtd">
<!-- Generated by graphviz version 3.0.0 (20220413.0242)
 -->
<!-- Title: Mirai::ForwardMessage Pages: 1 -->
<svg width="359pt" height="246pt"
 viewBox="0.00 0.00 359.00 246.00" xmlns="http://www.w3.org/2000/svg" xmlns:xlink="http://www.w3.org/1999/xlink">
<g id="graph0" class="graph" transform="scale(1 1) rotate(0) translate(4 242)">
<title>Mirai::ForwardMessage</title>
<!-- Node1 -->
<g id="node1" class="node">
<title>Node1</title>
<g id="a_node1"><a xlink:title="合并转发消息">
<polygon fill="#bfbfbf" stroke="black" points="81,-0.5 81,-20.5 211,-20.5 211,-0.5 81,-0.5"/>
<text text-anchor="middle" x="146" y="-7.7" font-family="-apple-system, BlinkMacSystemFont, 'Segoe UI', Roboto, Oxygen, Ubuntu, Cantarell, 'Fira Sans', 'Droid Sans', 'Helvetica Neue', sans-serif" font-size="11.00">Mirai::ForwardMessage</text>
</a>
</g>
</g>
<!-- Node2 -->
<g id="node2" class="node">
<title>Node2</title>
<g id="a_node2"><a xlink:href="classMirai_1_1MessageBase.html" target="_top" xlink:title="Base class for all message types">
<polygon fill="none" stroke="black" points="0,-108.5 0,-128.5 114,-128.5 114,-108.5 0,-108.5"/>
<text text-anchor="middle" x="57" y="-115.7" font-family="-apple-system, BlinkMacSystemFont, 'Segoe UI', Roboto, Oxygen, Ubuntu, Cantarell, 'Fira Sans', 'Droid Sans', 'Helvetica Neue', sans-serif" font-size="11.00">Mirai::MessageBase</text>
</a>
</g>
</g>
<!-- Node2&#45;&gt;Node1 -->
<g id="edge1" class="edge">
<title>Node2&#45;&gt;Node1</title>
<path fill="none" stroke="midnightblue" d="M64.13,-99.01C68.27,-89.53 74.04,-78.1 81,-69 96.1,-49.26 118.74,-31.08 132.93,-20.65"/>
<polygon fill="midnightblue" stroke="midnightblue" points="60.86,-97.74 60.3,-108.32 67.34,-100.41 60.86,-97.74"/>
</g>
<!-- Node3 -->
<g id="node3" class="node">
<title>Node3</title>
<g id="a_node3"><a xlink:href="classMirai_1_1Serializable.html" target="_top" xlink:title="Base class for all json serializable type">
<polygon fill="none" stroke="black" points="14.5,-217.5 14.5,-237.5 115.5,-237.5 115.5,-217.5 14.5,-217.5"/>
<text text-anchor="middle" x="65" y="-224.7" font-family="-apple-system, BlinkMacSystemFont, 'Segoe UI', Roboto, Oxygen, Ubuntu, Cantarell, 'Fira Sans', 'Droid Sans', 'Helvetica Neue', sans-serif" font-size="11.00">Mirai::Serializable</text>
</a>
</g>
</g>
<!-- Node3&#45;&gt;Node2 -->
<g id="edge2" class="edge">
<title>Node3&#45;&gt;Node2</title>
<path fill="none" stroke="midnightblue" d="M63.57,-207.34C61.83,-184.12 58.98,-145.95 57.68,-128.6"/>
<polygon fill="midnightblue" stroke="midnightblue" points="60.08,-207.67 64.32,-217.38 67.06,-207.14 60.08,-207.67"/>
</g>
<!-- Node5 -->
<g id="node5" class="node">
<title>Node5</title>
<g id="a_node5"><a xlink:href="classMirai_1_1ForwardMessage_1_1Node.html" target="_top" xlink:title="转发消息节点，代表一条转发消息">
<polygon fill="none" stroke="red" points="81,-147.5 81,-179.5 211,-179.5 211,-147.5 81,-147.5"/>
<text text-anchor="start" x="89" y="-166.7" font-family="-apple-system, BlinkMacSystemFont, 'Segoe UI', Roboto, Oxygen, Ubuntu, Cantarell, 'Fira Sans', 'Droid Sans', 'Helvetica Neue', sans-serif" font-size="11.00">Mirai::ForwardMessage</text>
<text text-anchor="middle" x="146" y="-154.7" font-family="-apple-system, BlinkMacSystemFont, 'Segoe UI', Roboto, Oxygen, Ubuntu, Cantarell, 'Fira Sans', 'Droid Sans', 'Helvetica Neue', sans-serif" font-size="11.00">::Node</text>
</a>
</g>
</g>
<!-- Node3&#45;&gt;Node5 -->
<g id="edge5" class="edge">
<title>Node3&#45;&gt;Node5</title>
<path fill="none" stroke="midnightblue" d="M84.98,-211.21C97.52,-201.61 113.63,-189.28 126.14,-179.7"/>
<polygon fill="midnightblue" stroke="midnightblue" points="82.77,-208.49 76.95,-217.35 87.02,-214.05 82.77,-208.49"/>
</g>
<!-- Node4 -->
<g id="node4" class="node">
<title>Node4</title>
<g id="a_node4"><a xlink:title=" ">
<polygon fill="none" stroke="black" points="90,-69.5 90,-89.5 202,-89.5 202,-69.5 90,-69.5"/>
<text text-anchor="middle" x="146" y="-76.7" font-family="-apple-system, BlinkMacSystemFont, 'Segoe UI', Roboto, Oxygen, Ubuntu, Cantarell, 'Fira Sans', 'Droid Sans', 'Helvetica Neue', sans-serif" font-size="11.00">std::vector&lt; Node &gt;</text>
</a>
</g>
</g>
<!-- Node4&#45;&gt;Node1 -->
<g id="edge3" class="edge">
<title>Node4&#45;&gt;Node1</title>
<path fill="none" stroke="#9a32cd" stroke-dasharray="5,2" d="M146,-59.08C146,-46.5 146,-30.68 146,-20.82"/>
<polygon fill="#9a32cd" stroke="#9a32cd" points="142.5,-59.46 146,-69.46 149.5,-59.46 142.5,-59.46"/>
<text text-anchor="middle" x="172" y="-42.2" font-family="-apple-system, BlinkMacSystemFont, 'Segoe UI', Roboto, Oxygen, Ubuntu, Cantarell, 'Fira Sans', 'Droid Sans', 'Helvetica Neue', sans-serif" font-size="11.00"> _NodeList</text>
</g>
<!-- Node5&#45;&gt;Node4 -->
<g id="edge4" class="edge">
<title>Node5&#45;&gt;Node4</title>
<path fill="none" stroke="#9a32cd" stroke-dasharray="5,2" d="M146,-137.1C146,-121.05 146,-101.25 146,-89.83"/>
<polygon fill="#9a32cd" stroke="#9a32cd" points="142.5,-137.46 146,-147.46 149.5,-137.46 142.5,-137.46"/>
<text text-anchor="middle" x="169.5" y="-115.7" font-family="-apple-system, BlinkMacSystemFont, 'Segoe UI', Roboto, Oxygen, Ubuntu, Cantarell, 'Fira Sans', 'Droid Sans', 'Helvetica Neue', sans-serif" font-size="11.00"> elements</text>
</g>
<!-- Node13 -->
<g id="node6" class="node">
<title>Node13</title>
<g id="a_node6"><a xlink:title=" ">
<polygon fill="none" stroke="black" points="232.5,-69.5 232.5,-89.5 323.5,-89.5 323.5,-69.5 232.5,-69.5"/>
<text text-anchor="middle" x="278" y="-76.7" font-family="-apple-system, BlinkMacSystemFont, 'Segoe UI', Roboto, Oxygen, Ubuntu, Cantarell, 'Fira Sans', 'Droid Sans', 'Helvetica Neue', sans-serif" font-size="11.00">std::string_view</text>
</a>
</g>
</g>
<!-- Node13&#45;&gt;Node1 -->
<g id="edge6" class="edge">
<title>Node13&#45;&gt;Node1</title>
<path fill="none" stroke="#9a32cd" stroke-dasharray="5,2" d="M251.87,-64.73C237.25,-57.08 218.66,-47.42 202,-39 189.63,-32.75 175.63,-25.87 164.72,-20.56"/>
<polygon fill="#9a32cd" stroke="#9a32cd" points="250.37,-67.9 260.85,-69.45 253.62,-61.7 250.37,-67.9"/>
<text text-anchor="middle" x="248" y="-42.2" font-family="-apple-system, BlinkMacSystemFont, 'Segoe UI', Roboto, Oxygen, Ubuntu, Cantarell, 'Fira Sans', 'Droid Sans', 'Helvetica Neue', sans-serif" font-size="11.00"> _TYPE_</text>
</g>
<!-- Node14 -->
<g id="node7" class="node">
<title>Node14</title>
<g id="a_node7"><a xlink:title=" ">
<polygon fill="none" stroke="black" points="229,-147.5 229,-179.5 351,-179.5 351,-147.5 229,-147.5"/>
<text text-anchor="start" x="237" y="-166.7" font-family="-apple-system, BlinkMacSystemFont, 'Segoe UI', Roboto, Oxygen, Ubuntu, Cantarell, 'Fira Sans', 'Droid Sans', 'Helvetica Neue', sans-serif" font-size="11.00">std::basic_string_view</text>
<text text-anchor="middle" x="290" y="-154.7" font-family="-apple-system, BlinkMacSystemFont, 'Segoe UI', Roboto, Oxygen, Ubuntu, Cantarell, 'Fira Sans', 'Droid Sans', 'Helvetica Neue', sans-serif" font-size="11.00">&lt; Char &gt;</text>
</a>
</g>
</g>
<!-- Node14&#45;&gt;Node13 -->
<g id="edge7" class="edge">
<title>Node14&#45;&gt;Node13</title>
<path fill="none" stroke="midnightblue" d="M286.35,-137.56C283.99,-121.43 281.05,-101.36 279.37,-89.83"/>
<polygon fill="midnightblue" stroke="midnightblue" points="282.89,-138.07 287.8,-147.46 289.81,-137.06 282.89,-138.07"/>
</g>
</g>
</svg>
