<?xml version="1.0" encoding="UTF-8" standalone="no"?>
<!DOCTYPE svg PUBLIC "-//W3C//DTD SVG 1.1//EN"
 "http://www.w3.org/Graphics/SVG/1.1/DTD/svg11.dtd">
<!-- Generated by graphviz version 2.43.0 (0)
 -->
<!-- Title: Mirai::BotEvent Pages: 1 -->
<svg width="216pt" height="167pt"
 viewBox="0.00 0.00 215.50 167.00" xmlns="http://www.w3.org/2000/svg" xmlns:xlink="http://www.w3.org/1999/xlink">
<g id="graph0" class="graph" transform="scale(1 1) rotate(0) translate(4 163)">
<title>Mirai::BotEvent</title>
<!-- Node1 -->
<g id="node1" class="node">
<title>Node1</title>
<g id="a_node1"><a xlink:title="与Bot本身相关的事件的基类">
<polygon fill="#bfbfbf" stroke="black" points="60.5,-0.5 60.5,-20.5 161.5,-20.5 161.5,-0.5 60.5,-0.5"/>
<text text-anchor="middle" x="111" y="-7.7" font-family="-apple-system,BlinkMacSystemFont,'SegoeUI',Roboto,Oxygen,Ubuntu,Cantarell,'FiraSans','DroidSans','HelveticaNeue',sans-serif" font-size="11.00">Mirai::BotEvent</text>
</a>
</g>
</g>
<!-- Node2 -->
<g id="node2" class="node">
<title>Node2</title>
<g id="a_node2"><a xlink:href="classMirai_1_1EventBase.html" target="_top" xlink:title="Base class for all event types">
<polygon fill="none" stroke="black" points="0,-69.5 0,-89.5 110,-89.5 110,-69.5 0,-69.5"/>
<text text-anchor="middle" x="55" y="-76.7" font-family="-apple-system,BlinkMacSystemFont,'SegoeUI',Roboto,Oxygen,Ubuntu,Cantarell,'FiraSans','DroidSans','HelveticaNeue',sans-serif" font-size="11.00">Mirai::EventBase</text>
</a>
</g>
</g>
<!-- Node2&#45;&gt;Node1 -->
<g id="edge1" class="edge">
<title>Node2&#45;&gt;Node1</title>
<path fill="none" stroke="midnightblue" d="M69.02,-61.73C79.83,-48.79 94.38,-31.38 103.21,-20.82"/>
<polygon fill="midnightblue" stroke="midnightblue" points="66.28,-59.55 62.55,-69.46 71.65,-64.04 66.28,-59.55"/>
</g>
<!-- Node3 -->
<g id="node3" class="node">
<title>Node3</title>
<g id="a_node3"><a xlink:href="classMirai_1_1MiraiClient.html" target="_top" xlink:title="提供与mirai&#45;api&#45;http网络交互的封装">
<polygon fill="none" stroke="red" points="0,-138.5 0,-158.5 110,-158.5 110,-138.5 0,-138.5"/>
<text text-anchor="middle" x="55" y="-145.7" font-family="-apple-system,BlinkMacSystemFont,'SegoeUI',Roboto,Oxygen,Ubuntu,Cantarell,'FiraSans','DroidSans','HelveticaNeue',sans-serif" font-size="11.00">Mirai::MiraiClient</text>
</a>
</g>
</g>
<!-- Node3&#45;&gt;Node2 -->
<g id="edge2" class="edge">
<title>Node3&#45;&gt;Node2</title>
<path fill="none" stroke="#9a32cd" stroke-dasharray="5,2" d="M55,-128.08C55,-115.5 55,-99.68 55,-89.82"/>
<polygon fill="#9a32cd" stroke="#9a32cd" points="51.5,-128.46 55,-138.46 58.5,-128.46 51.5,-128.46"/>
<text text-anchor="middle" x="75" y="-111.2" font-family="-apple-system,BlinkMacSystemFont,'SegoeUI',Roboto,Oxygen,Ubuntu,Cantarell,'FiraSans','DroidSans','HelveticaNeue',sans-serif" font-size="11.00"> _client</text>
</g>
<!-- Node5 -->
<g id="node4" class="node">
<title>Node5</title>
<g id="a_node4"><a xlink:href="classMirai_1_1QQ__t.html" target="_top" xlink:title="QQ号码类型">
<polygon fill="none" stroke="red" points="128.5,-69.5 128.5,-89.5 207.5,-89.5 207.5,-69.5 128.5,-69.5"/>
<text text-anchor="middle" x="168" y="-76.7" font-family="-apple-system,BlinkMacSystemFont,'SegoeUI',Roboto,Oxygen,Ubuntu,Cantarell,'FiraSans','DroidSans','HelveticaNeue',sans-serif" font-size="11.00">Mirai::QQ_t</text>
</a>
</g>
</g>
<!-- Node5&#45;&gt;Node1 -->
<g id="edge3" class="edge">
<title>Node5&#45;&gt;Node1</title>
<path fill="none" stroke="#9a32cd" stroke-dasharray="5,2" d="M153.73,-61.73C142.73,-48.79 127.91,-31.38 118.93,-20.82"/>
<polygon fill="#9a32cd" stroke="#9a32cd" points="151.17,-64.12 160.31,-69.46 156.5,-59.58 151.17,-64.12"/>
<text text-anchor="middle" x="153.5" y="-42.2" font-family="-apple-system,BlinkMacSystemFont,'SegoeUI',Roboto,Oxygen,Ubuntu,Cantarell,'FiraSans','DroidSans','HelveticaNeue',sans-serif" font-size="11.00"> _qq</text>
</g>
</g>
</svg>
