<?xml version="1.0" encoding="UTF-8" standalone="no"?>
<!DOCTYPE svg PUBLIC "-//W3C//DTD SVG 1.1//EN"
 "http://www.w3.org/Graphics/SVG/1.1/DTD/svg11.dtd">
<!-- Generated by graphviz version 3.0.0 (20220413.0242)
 -->
<!-- Title: Mirai::MemberJoinRequestEvent Pages: 1 -->
<svg width="464pt" height="284pt"
 viewBox="0.00 0.00 463.50 284.00" xmlns="http://www.w3.org/2000/svg" xmlns:xlink="http://www.w3.org/1999/xlink">
<g id="graph0" class="graph" transform="scale(1 1) rotate(0) translate(4 280)">
<title>Mirai::MemberJoinRequestEvent</title>
<!-- Node1 -->
<g id="node1" class="node">
<title>Node1</title>
<g id="a_node1"><a xlink:title="用户申请入群事件">
<polygon fill="#bfbfbf" stroke="black" points="129.5,-0.5 129.5,-32.5 275.5,-32.5 275.5,-0.5 129.5,-0.5"/>
<text text-anchor="start" x="137.5" y="-19.7" font-family="-apple-system, BlinkMacSystemFont, 'Segoe UI', Roboto, Oxygen, Ubuntu, Cantarell, 'Fira Sans', 'Droid Sans', 'Helvetica Neue', sans-serif" font-size="11.00">Mirai::MemberJoinRequest</text>
<text text-anchor="middle" x="202.5" y="-7.7" font-family="-apple-system, BlinkMacSystemFont, 'Segoe UI', Roboto, Oxygen, Ubuntu, Cantarell, 'Fira Sans', 'Droid Sans', 'Helvetica Neue', sans-serif" font-size="11.00">Event</text>
</a>
</g>
</g>
<!-- Node2 -->
<g id="node2" class="node">
<title>Node2</title>
<g id="a_node2"><a xlink:href="classMirai_1_1EventBase.html" target="_top" xlink:title="Base class for all event types">
<polygon fill="none" stroke="black" points="50.5,-81.5 50.5,-101.5 148.5,-101.5 148.5,-81.5 50.5,-81.5"/>
<text text-anchor="middle" x="99.5" y="-88.7" font-family="-apple-system, BlinkMacSystemFont, 'Segoe UI', Roboto, Oxygen, Ubuntu, Cantarell, 'Fira Sans', 'Droid Sans', 'Helvetica Neue', sans-serif" font-size="11.00">Mirai::EventBase</text>
</a>
</g>
</g>
<!-- Node2&#45;&gt;Node1 -->
<g id="edge1" class="edge">
<title>Node2&#45;&gt;Node1</title>
<path fill="none" stroke="midnightblue" d="M121.02,-75.25C138.61,-62.78 163.36,-45.24 180.96,-32.77"/>
<polygon fill="midnightblue" stroke="midnightblue" points="118.68,-72.62 112.55,-81.25 122.73,-78.33 118.68,-72.62"/>
</g>
<!-- Node3 -->
<g id="node3" class="node">
<title>Node3</title>
<g id="a_node3"><a xlink:href="classMirai_1_1MiraiClient.html" target="_top" xlink:title="提供与mirai&#45;api&#45;http网络交互的封装">
<polygon fill="none" stroke="red" points="57.5,-180.5 57.5,-200.5 153.5,-200.5 153.5,-180.5 57.5,-180.5"/>
<text text-anchor="middle" x="105.5" y="-187.7" font-family="-apple-system, BlinkMacSystemFont, 'Segoe UI', Roboto, Oxygen, Ubuntu, Cantarell, 'Fira Sans', 'Droid Sans', 'Helvetica Neue', sans-serif" font-size="11.00">Mirai::MiraiClient</text>
</a>
</g>
</g>
<!-- Node3&#45;&gt;Node2 -->
<g id="edge2" class="edge">
<title>Node3&#45;&gt;Node2</title>
<path fill="none" stroke="#9a32cd" stroke-dasharray="5,2" d="M104.29,-169.98C103.01,-149.2 101.03,-117.2 100.06,-101.63"/>
<polygon fill="#9a32cd" stroke="#9a32cd" points="100.81,-170.43 104.92,-180.2 107.8,-170 100.81,-170.43"/>
<text text-anchor="middle" x="120.5" y="-135.2" font-family="-apple-system, BlinkMacSystemFont, 'Segoe UI', Roboto, Oxygen, Ubuntu, Cantarell, 'Fira Sans', 'Droid Sans', 'Helvetica Neue', sans-serif" font-size="11.00"> _client</text>
</g>
<!-- Node6 -->
<g id="node4" class="node">
<title>Node6</title>
<g id="a_node4"><a xlink:title=" ">
<polygon fill="none" stroke="red" points="0,-255.5 0,-275.5 63,-275.5 63,-255.5 0,-255.5"/>
<text text-anchor="middle" x="31.5" y="-262.7" font-family="-apple-system, BlinkMacSystemFont, 'Segoe UI', Roboto, Oxygen, Ubuntu, Cantarell, 'Fira Sans', 'Droid Sans', 'Helvetica Neue', sans-serif" font-size="11.00">std::string</text>
</a>
</g>
</g>
<!-- Node6&#45;&gt;Node1 -->
<g id="edge8" class="edge">
<title>Node6&#45;&gt;Node1</title>
<path fill="none" stroke="#9a32cd" stroke-dasharray="5,2" d="M25.47,-245.29C15.13,-208.09 -1.06,-125.92 41.5,-81 64.75,-56.46 98.66,-41.23 129.36,-31.86"/>
<polygon fill="#9a32cd" stroke="#9a32cd" points="22.24,-246.7 28.43,-255.31 28.96,-244.72 22.24,-246.7"/>
<text text-anchor="middle" x="54" y="-147.2" font-family="-apple-system, BlinkMacSystemFont, 'Segoe UI', Roboto, Oxygen, Ubuntu, Cantarell, 'Fira Sans', 'Droid Sans', 'Helvetica Neue', sans-serif" font-size="11.00"> _GroupName</text>
<text text-anchor="middle" x="54" y="-135.2" font-family="-apple-system, BlinkMacSystemFont, 'Segoe UI', Roboto, Oxygen, Ubuntu, Cantarell, 'Fira Sans', 'Droid Sans', 'Helvetica Neue', sans-serif" font-size="11.00">_message</text>
<text text-anchor="middle" x="54" y="-123.2" font-family="-apple-system, BlinkMacSystemFont, 'Segoe UI', Roboto, Oxygen, Ubuntu, Cantarell, 'Fira Sans', 'Droid Sans', 'Helvetica Neue', sans-serif" font-size="11.00">_nickname</text>
</g>
<!-- Node6&#45;&gt;Node3 -->
<g id="edge3" class="edge">
<title>Node6&#45;&gt;Node3</title>
<path fill="none" stroke="#9a32cd" stroke-dasharray="5,2" d="M48.33,-247.9C63.07,-233.36 83.95,-212.76 95.97,-200.9"/>
<polygon fill="#9a32cd" stroke="#9a32cd" points="45.53,-245.74 40.87,-255.25 50.45,-250.72 45.53,-245.74"/>
<text text-anchor="middle" x="105" y="-228.2" font-family="-apple-system, BlinkMacSystemFont, 'Segoe UI', Roboto, Oxygen, Ubuntu, Cantarell, 'Fira Sans', 'Droid Sans', 'Helvetica Neue', sans-serif" font-size="11.00"> _SessionKey</text>
</g>
<!-- Node8 -->
<g id="node5" class="node">
<title>Node8</title>
<g id="a_node5"><a xlink:href="classMirai_1_1QQ__t.html" target="_top" xlink:title="QQ号码类型">
<polygon fill="none" stroke="black" points="167,-81.5 167,-101.5 238,-101.5 238,-81.5 167,-81.5"/>
<text text-anchor="middle" x="202.5" y="-88.7" font-family="-apple-system, BlinkMacSystemFont, 'Segoe UI', Roboto, Oxygen, Ubuntu, Cantarell, 'Fira Sans', 'Droid Sans', 'Helvetica Neue', sans-serif" font-size="11.00">Mirai::QQ_t</text>
</a>
</g>
</g>
<!-- Node8&#45;&gt;Node1 -->
<g id="edge4" class="edge">
<title>Node8&#45;&gt;Node1</title>
<path fill="none" stroke="#9a32cd" stroke-dasharray="5,2" d="M202.5,-70.96C202.5,-58.98 202.5,-43.87 202.5,-32.77"/>
<polygon fill="#9a32cd" stroke="#9a32cd" points="199,-71.25 202.5,-81.25 206,-71.25 199,-71.25"/>
<text text-anchor="middle" x="224.5" y="-54.2" font-family="-apple-system, BlinkMacSystemFont, 'Segoe UI', Roboto, Oxygen, Ubuntu, Cantarell, 'Fira Sans', 'Droid Sans', 'Helvetica Neue', sans-serif" font-size="11.00"> _FromId</text>
</g>
<!-- Node9 -->
<g id="node6" class="node">
<title>Node9</title>
<g id="a_node6"><a xlink:href="classMirai_1_1UID__t.html" target="_top" xlink:title="Base class for QQ_t and GID_t">
<polygon fill="none" stroke="black" points="171.5,-180.5 171.5,-200.5 245.5,-200.5 245.5,-180.5 171.5,-180.5"/>
<text text-anchor="middle" x="208.5" y="-187.7" font-family="-apple-system, BlinkMacSystemFont, 'Segoe UI', Roboto, Oxygen, Ubuntu, Cantarell, 'Fira Sans', 'Droid Sans', 'Helvetica Neue', sans-serif" font-size="11.00">Mirai::UID_t</text>
</a>
</g>
</g>
<!-- Node9&#45;&gt;Node8 -->
<g id="edge5" class="edge">
<title>Node9&#45;&gt;Node8</title>
<path fill="none" stroke="midnightblue" d="M207.29,-169.98C206.01,-149.2 204.03,-117.2 203.06,-101.63"/>
<polygon fill="midnightblue" stroke="midnightblue" points="203.81,-170.43 207.92,-180.2 210.8,-170 203.81,-170.43"/>
</g>
<!-- Node22 -->
<g id="node7" class="node">
<title>Node22</title>
<g id="a_node7"><a xlink:href="classMirai_1_1GID__t.html" target="_top" xlink:title="群聊号码类型">
<polygon fill="none" stroke="black" points="256.5,-81.5 256.5,-101.5 330.5,-101.5 330.5,-81.5 256.5,-81.5"/>
<text text-anchor="middle" x="293.5" y="-88.7" font-family="-apple-system, BlinkMacSystemFont, 'Segoe UI', Roboto, Oxygen, Ubuntu, Cantarell, 'Fira Sans', 'Droid Sans', 'Helvetica Neue', sans-serif" font-size="11.00">Mirai::GID_t</text>
</a>
</g>
</g>
<!-- Node9&#45;&gt;Node22 -->
<g id="edge7" class="edge">
<title>Node9&#45;&gt;Node22</title>
<path fill="none" stroke="midnightblue" d="M223.38,-172.52C241.46,-151.89 271.29,-117.84 285.5,-101.63"/>
<polygon fill="midnightblue" stroke="midnightblue" points="220.61,-170.37 216.65,-180.2 225.87,-174.98 220.61,-170.37"/>
</g>
<!-- Node22&#45;&gt;Node1 -->
<g id="edge6" class="edge">
<title>Node22&#45;&gt;Node1</title>
<path fill="none" stroke="#9a32cd" stroke-dasharray="5,2" d="M276.62,-74.02C268.88,-66.72 259.44,-58.17 250.5,-51 242.57,-44.64 233.52,-38.14 225.42,-32.57"/>
<polygon fill="#9a32cd" stroke="#9a32cd" points="274.62,-76.95 284.26,-81.34 279.46,-71.89 274.62,-76.95"/>
<text text-anchor="middle" x="289" y="-54.2" font-family="-apple-system, BlinkMacSystemFont, 'Segoe UI', Roboto, Oxygen, Ubuntu, Cantarell, 'Fira Sans', 'Droid Sans', 'Helvetica Neue', sans-serif" font-size="11.00"> _GroupId</text>
</g>
<!-- Node23 -->
<g id="node8" class="node">
<title>Node23</title>
<g id="a_node8"><a xlink:title=" ">
<polygon fill="none" stroke="black" points="349,-81.5 349,-101.5 440,-101.5 440,-81.5 349,-81.5"/>
<text text-anchor="middle" x="394.5" y="-88.7" font-family="-apple-system, BlinkMacSystemFont, 'Segoe UI', Roboto, Oxygen, Ubuntu, Cantarell, 'Fira Sans', 'Droid Sans', 'Helvetica Neue', sans-serif" font-size="11.00">std::string_view</text>
</a>
</g>
</g>
<!-- Node23&#45;&gt;Node1 -->
<g id="edge9" class="edge">
<title>Node23&#45;&gt;Node1</title>
<path fill="none" stroke="#9a32cd" stroke-dasharray="5,2" d="M369.96,-76.39C355.1,-68.23 335.59,-58.2 317.5,-51 299.82,-43.96 280.09,-37.68 262.03,-32.51"/>
<polygon fill="#9a32cd" stroke="#9a32cd" points="368.55,-79.61 378.98,-81.42 371.96,-73.5 368.55,-79.61"/>
<text text-anchor="middle" x="366.5" y="-54.2" font-family="-apple-system, BlinkMacSystemFont, 'Segoe UI', Roboto, Oxygen, Ubuntu, Cantarell, 'Fira Sans', 'Droid Sans', 'Helvetica Neue', sans-serif" font-size="11.00"> _TYPE_</text>
</g>
<!-- Node24 -->
<g id="node9" class="node">
<title>Node24</title>
<g id="a_node9"><a xlink:title=" ">
<polygon fill="none" stroke="black" points="333.5,-174.5 333.5,-206.5 455.5,-206.5 455.5,-174.5 333.5,-174.5"/>
<text text-anchor="start" x="341.5" y="-193.7" font-family="-apple-system, BlinkMacSystemFont, 'Segoe UI', Roboto, Oxygen, Ubuntu, Cantarell, 'Fira Sans', 'Droid Sans', 'Helvetica Neue', sans-serif" font-size="11.00">std::basic_string_view</text>
<text text-anchor="middle" x="394.5" y="-181.7" font-family="-apple-system, BlinkMacSystemFont, 'Segoe UI', Roboto, Oxygen, Ubuntu, Cantarell, 'Fira Sans', 'Droid Sans', 'Helvetica Neue', sans-serif" font-size="11.00">&lt; Char &gt;</text>
</a>
</g>
</g>
<!-- Node24&#45;&gt;Node23 -->
<g id="edge10" class="edge">
<title>Node24&#45;&gt;Node23</title>
<path fill="none" stroke="midnightblue" d="M394.5,-164.1C394.5,-143.6 394.5,-115.9 394.5,-101.71"/>
<polygon fill="midnightblue" stroke="midnightblue" points="391,-164.34 394.5,-174.34 398,-164.34 391,-164.34"/>
</g>
</g>
</svg>
