<?xml version="1.0" encoding="UTF-8" standalone="no"?>
<!DOCTYPE svg PUBLIC "-//W3C//DTD SVG 1.1//EN"
 "http://www.w3.org/Graphics/SVG/1.1/DTD/svg11.dtd">
<!-- Generated by graphviz version 3.0.0 (20221109.1736)
 -->
<!-- Title: Mirai::FlashImageMessage Pages: 1 -->
<svg width="262pt" height="180pt"
 viewBox="0.00 0.00 261.50 180.00" xmlns="http://www.w3.org/2000/svg" xmlns:xlink="http://www.w3.org/1999/xlink">
<g id="graph0" class="graph" transform="scale(1 1) rotate(0) translate(4 176)">
<title>Mirai::FlashImageMessage</title>
<!-- Node1 -->
<g id="node1" class="node">
<title>Node1</title>
<g id="a_node1"><a xlink:title="闪照消息">
<polygon fill="#bfbfbf" stroke="black" points="63,-0.5 63,-20.5 209,-20.5 209,-0.5 63,-0.5"/>
<text text-anchor="middle" x="136" y="-7.7" font-family="-apple-system, BlinkMacSystemFont, 'Segoe UI', Roboto, Oxygen, Ubuntu, Cantarell, 'Fira Sans', 'Droid Sans', 'Helvetica Neue', sans-serif" font-size="11.00">Mirai::FlashImageMessage</text>
</a>
</g>
</g>
<!-- Node2 -->
<g id="node2" class="node">
<title>Node2</title>
<g id="a_node2"><a xlink:href="classMirai_1_1ImageMessageImpl.html" target="_top" xlink:title=" ">
<polygon fill="none" stroke="black" points="66,-58.5 66,-90.5 206,-90.5 206,-58.5 66,-58.5"/>
<text text-anchor="start" x="74" y="-77.7" font-family="-apple-system, BlinkMacSystemFont, 'Segoe UI', Roboto, Oxygen, Ubuntu, Cantarell, 'Fira Sans', 'Droid Sans', 'Helvetica Neue', sans-serif" font-size="11.00">Mirai::ImageMessageImpl</text>
<text text-anchor="middle" x="136" y="-65.7" font-family="-apple-system, BlinkMacSystemFont, 'Segoe UI', Roboto, Oxygen, Ubuntu, Cantarell, 'Fira Sans', 'Droid Sans', 'Helvetica Neue', sans-serif" font-size="11.00">&lt; FlashImageMessage &gt;</text>
</a>
</g>
</g>
<!-- Node2&#45;&gt;Node1 -->
<g id="edge1" class="edge">
<title>Node2&#45;&gt;Node1</title>
<path fill="none" stroke="midnightblue" d="M136,-48.42C136,-38.67 136,-28.11 136,-20.79"/>
<polygon fill="midnightblue" stroke="midnightblue" points="132.5,-48.49 136,-58.49 139.5,-48.49 132.5,-48.49"/>
</g>
<!-- Node3 -->
<g id="node3" class="node">
<title>Node3</title>
<g id="a_node3"><a xlink:href="classMirai_1_1IMessageImpl.html" target="_top" xlink:title=" ">
<polygon fill="none" stroke="red" points="0,-139.5 0,-171.5 136,-171.5 136,-139.5 0,-139.5"/>
<text text-anchor="start" x="8" y="-158.7" font-family="-apple-system, BlinkMacSystemFont, 'Segoe UI', Roboto, Oxygen, Ubuntu, Cantarell, 'Fira Sans', 'Droid Sans', 'Helvetica Neue', sans-serif" font-size="11.00">Mirai::IMessageImpl</text>
<text text-anchor="middle" x="68" y="-146.7" font-family="-apple-system, BlinkMacSystemFont, 'Segoe UI', Roboto, Oxygen, Ubuntu, Cantarell, 'Fira Sans', 'Droid Sans', 'Helvetica Neue', sans-serif" font-size="11.00">&lt; FlashImageMessage &gt;</text>
</a>
</g>
</g>
<!-- Node3&#45;&gt;Node2 -->
<g id="edge2" class="edge">
<title>Node3&#45;&gt;Node2</title>
<path fill="none" stroke="midnightblue" d="M87.77,-131.53C99.08,-118.39 112.97,-102.26 122.93,-90.69"/>
<polygon fill="midnightblue" stroke="midnightblue" points="84.98,-129.41 81.11,-139.27 90.29,-133.97 84.98,-129.41"/>
</g>
<!-- Node5 -->
<g id="node4" class="node">
<title>Node5</title>
<g id="a_node4"><a xlink:href="structMirai_1_1MiraiImage.html" target="_top" xlink:title="Mirai图片">
<polygon fill="none" stroke="red" points="154.5,-145.5 154.5,-165.5 253.5,-165.5 253.5,-145.5 154.5,-145.5"/>
<text text-anchor="middle" x="204" y="-152.7" font-family="-apple-system, BlinkMacSystemFont, 'Segoe UI', Roboto, Oxygen, Ubuntu, Cantarell, 'Fira Sans', 'Droid Sans', 'Helvetica Neue', sans-serif" font-size="11.00">Mirai::MiraiImage</text>
</a>
</g>
</g>
<!-- Node5&#45;&gt;Node2 -->
<g id="edge3" class="edge">
<title>Node5&#45;&gt;Node2</title>
<path fill="none" stroke="#9a32cd" stroke-dasharray="5,2" d="M189.45,-137.6C177.46,-123.67 160.61,-104.09 149.05,-90.66"/>
<polygon fill="#9a32cd" stroke="#9a32cd" points="187.02,-140.14 196.2,-145.44 192.33,-135.58 187.02,-140.14"/>
<text text-anchor="middle" x="193.5" y="-112.2" font-family="-apple-system, BlinkMacSystemFont, 'Segoe UI', Roboto, Oxygen, Ubuntu, Cantarell, 'Fira Sans', 'Droid Sans', 'Helvetica Neue', sans-serif" font-size="11.00"> image_</text>
</g>
</g>
</svg>
