<?xml version="1.0" encoding="UTF-8" standalone="no"?>
<!DOCTYPE svg PUBLIC "-//W3C//DTD SVG 1.1//EN"
 "http://www.w3.org/Graphics/SVG/1.1/DTD/svg11.dtd">
<!-- Generated by graphviz version 2.43.0 (0)
 -->
<!-- Title: Mirai::DiceMessage Pages: 1 -->
<svg width="281pt" height="168pt"
 viewBox="0.00 0.00 281.00 168.00" xmlns="http://www.w3.org/2000/svg" xmlns:xlink="http://www.w3.org/1999/xlink">
<g id="graph0" class="graph" transform="scale(1 1) rotate(0) translate(4 164)">
<title>Mirai::DiceMessage</title>
<!-- Node1 -->
<g id="node1" class="node">
<title>Node1</title>
<g id="a_node1"><a xlink:title="骰子消息">
<polygon fill="#bfbfbf" stroke="black" points="67.5,-0.5 67.5,-20.5 191.5,-20.5 191.5,-0.5 67.5,-0.5"/>
<text text-anchor="middle" x="129.5" y="-7.7" font-family="-apple-system,BlinkMacSystemFont,'SegoeUI',Roboto,Oxygen,Ubuntu,Cantarell,'FiraSans','DroidSans','HelveticaNeue',sans-serif" font-size="11.00">Mirai::DiceMessage</text>
</a>
</g>
</g>
<!-- Node2 -->
<g id="node2" class="node">
<title>Node2</title>
<g id="a_node2"><a xlink:href="classMirai_1_1MessageBase.html" target="_top" xlink:title="Base class for all message types">
<polygon fill="none" stroke="black" points="0,-69.5 0,-89.5 127,-89.5 127,-69.5 0,-69.5"/>
<text text-anchor="middle" x="63.5" y="-76.7" font-family="-apple-system,BlinkMacSystemFont,'SegoeUI',Roboto,Oxygen,Ubuntu,Cantarell,'FiraSans','DroidSans','HelveticaNeue',sans-serif" font-size="11.00">Mirai::MessageBase</text>
</a>
</g>
</g>
<!-- Node2&#45;&gt;Node1 -->
<g id="edge1" class="edge">
<title>Node2&#45;&gt;Node1</title>
<path fill="none" stroke="midnightblue" d="M79.66,-62.1C92.44,-49.12 109.82,-31.48 120.32,-20.82"/>
<polygon fill="midnightblue" stroke="midnightblue" points="76.93,-59.88 72.4,-69.46 81.91,-64.8 76.93,-59.88"/>
</g>
<!-- Node3 -->
<g id="node3" class="node">
<title>Node3</title>
<g id="a_node3"><a xlink:href="classMirai_1_1Serializable.html" target="_top" xlink:title="Base class for all json serializable type">
<polygon fill="none" stroke="black" points="3.5,-133.5 3.5,-153.5 117.5,-153.5 117.5,-133.5 3.5,-133.5"/>
<text text-anchor="middle" x="60.5" y="-140.7" font-family="-apple-system,BlinkMacSystemFont,'SegoeUI',Roboto,Oxygen,Ubuntu,Cantarell,'FiraSans','DroidSans','HelveticaNeue',sans-serif" font-size="11.00">Mirai::Serializable</text>
</a>
</g>
</g>
<!-- Node3&#45;&gt;Node2 -->
<g id="edge2" class="edge">
<title>Node3&#45;&gt;Node2</title>
<path fill="none" stroke="midnightblue" d="M61.43,-123.23C61.97,-112.06 62.63,-98.49 63.06,-89.69"/>
<polygon fill="midnightblue" stroke="midnightblue" points="57.93,-123.19 60.94,-133.35 64.92,-123.53 57.93,-123.19"/>
</g>
<!-- Node4 -->
<g id="node4" class="node">
<title>Node4</title>
<g id="a_node4"><a xlink:title="STL class">
<polygon fill="none" stroke="#bfbfbf" points="150.5,-69.5 150.5,-89.5 254.5,-89.5 254.5,-69.5 150.5,-69.5"/>
<text text-anchor="middle" x="202.5" y="-76.7" font-family="-apple-system,BlinkMacSystemFont,'SegoeUI',Roboto,Oxygen,Ubuntu,Cantarell,'FiraSans','DroidSans','HelveticaNeue',sans-serif" font-size="11.00">std::string_view</text>
</a>
</g>
</g>
<!-- Node4&#45;&gt;Node1 -->
<g id="edge3" class="edge">
<title>Node4&#45;&gt;Node1</title>
<path fill="none" stroke="#9a32cd" stroke-dasharray="5,2" d="M185.02,-62.46C170.86,-49.46 151.38,-31.58 139.66,-20.82"/>
<polygon fill="#9a32cd" stroke="#9a32cd" points="182.92,-65.28 192.65,-69.46 187.65,-60.12 182.92,-65.28"/>
<text text-anchor="middle" x="191.5" y="-42.2" font-family="-apple-system,BlinkMacSystemFont,'SegoeUI',Roboto,Oxygen,Ubuntu,Cantarell,'FiraSans','DroidSans','HelveticaNeue',sans-serif" font-size="11.00"> _TYPE_</text>
</g>
<!-- Node5 -->
<g id="node5" class="node">
<title>Node5</title>
<g id="a_node5"><a xlink:title="STL class">
<polygon fill="none" stroke="#bfbfbf" points="136,-127.5 136,-159.5 273,-159.5 273,-127.5 136,-127.5"/>
<text text-anchor="start" x="144" y="-146.7" font-family="-apple-system,BlinkMacSystemFont,'SegoeUI',Roboto,Oxygen,Ubuntu,Cantarell,'FiraSans','DroidSans','HelveticaNeue',sans-serif" font-size="11.00">std::basic_string_view</text>
<text text-anchor="middle" x="204.5" y="-134.7" font-family="-apple-system,BlinkMacSystemFont,'SegoeUI',Roboto,Oxygen,Ubuntu,Cantarell,'FiraSans','DroidSans','HelveticaNeue',sans-serif" font-size="11.00">&lt; char &gt;</text>
</a>
</g>
</g>
<!-- Node5&#45;&gt;Node4 -->
<g id="edge4" class="edge">
<title>Node5&#45;&gt;Node4</title>
<path fill="none" stroke="midnightblue" d="M203.69,-117.42C203.38,-107.67 203.04,-97.11 202.8,-89.79"/>
<polygon fill="midnightblue" stroke="midnightblue" points="200.2,-117.61 204.02,-127.49 207.19,-117.38 200.2,-117.61"/>
</g>
</g>
</svg>
