<?xml version="1.0" encoding="UTF-8" standalone="no"?>
<!DOCTYPE svg PUBLIC "-//W3C//DTD SVG 1.1//EN"
 "http://www.w3.org/Graphics/SVG/1.1/DTD/svg11.dtd">
<!-- Generated by graphviz version 3.0.0 (20221109.1736)
 -->
<!-- Title: Mirai::NotImplementedError Pages: 1 -->
<svg width="157pt" height="143pt"
 viewBox="0.00 0.00 157.00 143.00" xmlns="http://www.w3.org/2000/svg" xmlns:xlink="http://www.w3.org/1999/xlink">
<g id="graph0" class="graph" transform="scale(1 1) rotate(0) translate(4 139)">
<title>Mirai::NotImplementedError</title>
<!-- Node1 -->
<g id="node1" class="node">
<title>Node1</title>
<g id="a_node1"><a xlink:title="未实现方法">
<polygon fill="#bfbfbf" stroke="black" points="0,-0.5 0,-20.5 149,-20.5 149,-0.5 0,-0.5"/>
<text text-anchor="middle" x="74.5" y="-7.7" font-family="-apple-system, BlinkMacSystemFont, 'Segoe UI', Roboto, Oxygen, Ubuntu, Cantarell, 'Fira Sans', 'Droid Sans', 'Helvetica Neue', sans-serif" font-size="11.00">Mirai::NotImplementedError</text>
</a>
</g>
</g>
<!-- Node2 -->
<g id="node2" class="node">
<title>Node2</title>
<g id="a_node2"><a xlink:title=" ">
<polygon fill="none" stroke="black" points="23.5,-57.5 23.5,-77.5 125.5,-77.5 125.5,-57.5 23.5,-57.5"/>
<text text-anchor="middle" x="74.5" y="-64.7" font-family="-apple-system, BlinkMacSystemFont, 'Segoe UI', Roboto, Oxygen, Ubuntu, Cantarell, 'Fira Sans', 'Droid Sans', 'Helvetica Neue', sans-serif" font-size="11.00">std::runtime_error</text>
</a>
</g>
</g>
<!-- Node2&#45;&gt;Node1 -->
<g id="edge1" class="edge">
<title>Node2&#45;&gt;Node1</title>
<path fill="none" stroke="midnightblue" d="M74.5,-47.38C74.5,-38.37 74.5,-28.04 74.5,-20.78"/>
<polygon fill="midnightblue" stroke="midnightblue" points="71,-47.42 74.5,-57.42 78,-47.42 71,-47.42"/>
</g>
<!-- Node3 -->
<g id="node3" class="node">
<title>Node3</title>
<g id="a_node3"><a xlink:title=" ">
<polygon fill="none" stroke="black" points="33,-114.5 33,-134.5 116,-134.5 116,-114.5 33,-114.5"/>
<text text-anchor="middle" x="74.5" y="-121.7" font-family="-apple-system, BlinkMacSystemFont, 'Segoe UI', Roboto, Oxygen, Ubuntu, Cantarell, 'Fira Sans', 'Droid Sans', 'Helvetica Neue', sans-serif" font-size="11.00">std::exception</text>
</a>
</g>
</g>
<!-- Node3&#45;&gt;Node2 -->
<g id="edge2" class="edge">
<title>Node3&#45;&gt;Node2</title>
<path fill="none" stroke="midnightblue" d="M74.5,-104.38C74.5,-95.37 74.5,-85.04 74.5,-77.78"/>
<polygon fill="midnightblue" stroke="midnightblue" points="71,-104.42 74.5,-114.42 78,-104.42 71,-104.42"/>
</g>
</g>
</svg>
