<?xml version="1.0" encoding="UTF-8" standalone="no"?>
<!DOCTYPE svg PUBLIC "-//W3C//DTD SVG 1.1//EN"
 "http://www.w3.org/Graphics/SVG/1.1/DTD/svg11.dtd">
<!-- Generated by graphviz version 3.0.0 (20220413.0242)
 -->
<!-- Title: Mirai::Serializable Pages: 1 -->
<svg width="457pt" height="653pt"
 viewBox="0.00 0.00 457.00 653.00" xmlns="http://www.w3.org/2000/svg" xmlns:xlink="http://www.w3.org/1999/xlink">
<g id="graph0" class="graph" transform="scale(1 1) rotate(0) translate(4 649)">
<title>Mirai::Serializable</title>
<!-- Node1 -->
<g id="node1" class="node">
<title>Node1</title>
<g id="a_node1"><a xlink:title="Base class for all json serializable type">
<polygon fill="#bfbfbf" stroke="black" points="0,-312.5 0,-332.5 101,-332.5 101,-312.5 0,-312.5"/>
<text text-anchor="middle" x="50.5" y="-319.7" font-family="-apple-system, BlinkMacSystemFont, 'Segoe UI', Roboto, Oxygen, Ubuntu, Cantarell, 'Fira Sans', 'Droid Sans', 'Helvetica Neue', sans-serif" font-size="11.00">Mirai::Serializable</text>
</a>
</g>
</g>
<!-- Node2 -->
<g id="node2" class="node">
<title>Node2</title>
<g id="a_node2"><a xlink:href="structMirai_1_1ClientDevice.html" target="_top" xlink:title="设备类型">
<polygon fill="none" stroke="black" points="149.5,-480.5 149.5,-500.5 254.5,-500.5 254.5,-480.5 149.5,-480.5"/>
<text text-anchor="middle" x="202" y="-487.7" font-family="-apple-system, BlinkMacSystemFont, 'Segoe UI', Roboto, Oxygen, Ubuntu, Cantarell, 'Fira Sans', 'Droid Sans', 'Helvetica Neue', sans-serif" font-size="11.00">Mirai::ClientDevice</text>
</a>
</g>
</g>
<!-- Node1&#45;&gt;Node2 -->
<g id="edge1" class="edge">
<title>Node1&#45;&gt;Node2</title>
<path fill="none" stroke="midnightblue" d="M57.43,-342.12C68.08,-374.04 93.5,-437.09 137,-471.5 141.55,-475.1 146.76,-478.01 152.2,-480.38"/>
<polygon fill="midnightblue" stroke="midnightblue" points="60.75,-341.04 54.38,-332.58 54.09,-343.17 60.75,-341.04"/>
</g>
<!-- Node3 -->
<g id="node3" class="node">
<title>Node3</title>
<g id="a_node3"><a xlink:href="classMirai_1_1ForwardMessage_1_1Node.html" target="_top" xlink:title="转发消息节点，代表一条转发消息">
<polygon fill="none" stroke="black" points="137,-429.5 137,-461.5 267,-461.5 267,-429.5 137,-429.5"/>
<text text-anchor="start" x="145" y="-448.7" font-family="-apple-system, BlinkMacSystemFont, 'Segoe UI', Roboto, Oxygen, Ubuntu, Cantarell, 'Fira Sans', 'Droid Sans', 'Helvetica Neue', sans-serif" font-size="11.00">Mirai::ForwardMessage</text>
<text text-anchor="middle" x="202" y="-436.7" font-family="-apple-system, BlinkMacSystemFont, 'Segoe UI', Roboto, Oxygen, Ubuntu, Cantarell, 'Fira Sans', 'Droid Sans', 'Helvetica Neue', sans-serif" font-size="11.00">::Node</text>
</a>
</g>
</g>
<!-- Node1&#45;&gt;Node3 -->
<g id="edge2" class="edge">
<title>Node1&#45;&gt;Node3</title>
<path fill="none" stroke="midnightblue" d="M63.4,-340.87C78.28,-362.55 105.65,-398.45 137,-420.5 141.78,-423.86 147.08,-426.85 152.51,-429.49"/>
<polygon fill="midnightblue" stroke="midnightblue" points="66.28,-338.89 57.81,-332.53 60.47,-342.78 66.28,-338.89"/>
</g>
<!-- Node4 -->
<g id="node4" class="node">
<title>Node4</title>
<g id="a_node4"><a xlink:href="structMirai_1_1Group.html" target="_top" xlink:title="群聊资料">
<polygon fill="none" stroke="black" points="164,-390.5 164,-410.5 240,-410.5 240,-390.5 164,-390.5"/>
<text text-anchor="middle" x="202" y="-397.7" font-family="-apple-system, BlinkMacSystemFont, 'Segoe UI', Roboto, Oxygen, Ubuntu, Cantarell, 'Fira Sans', 'Droid Sans', 'Helvetica Neue', sans-serif" font-size="11.00">Mirai::Group</text>
</a>
</g>
</g>
<!-- Node1&#45;&gt;Node4 -->
<g id="edge3" class="edge">
<title>Node1&#45;&gt;Node4</title>
<path fill="none" stroke="midnightblue" d="M71.4,-338.95C88.05,-352.02 112.89,-369.97 137,-381.5 145.36,-385.5 154.75,-388.86 163.7,-391.58"/>
<polygon fill="midnightblue" stroke="midnightblue" points="73.48,-336.13 63.48,-332.61 69.11,-341.59 73.48,-336.13"/>
</g>
<!-- Node5 -->
<g id="node5" class="node">
<title>Node5</title>
<g id="a_node5"><a xlink:href="structMirai_1_1GroupMember.html" target="_top" xlink:title="群员资料">
<polygon fill="none" stroke="black" points="144,-351.5 144,-371.5 260,-371.5 260,-351.5 144,-351.5"/>
<text text-anchor="middle" x="202" y="-358.7" font-family="-apple-system, BlinkMacSystemFont, 'Segoe UI', Roboto, Oxygen, Ubuntu, Cantarell, 'Fira Sans', 'Droid Sans', 'Helvetica Neue', sans-serif" font-size="11.00">Mirai::GroupMember</text>
</a>
</g>
</g>
<!-- Node1&#45;&gt;Node5 -->
<g id="edge4" class="edge">
<title>Node1&#45;&gt;Node5</title>
<path fill="none" stroke="midnightblue" d="M99.72,-335.08C120.09,-340.39 143.47,-346.49 162.63,-351.49"/>
<polygon fill="midnightblue" stroke="midnightblue" points="100.56,-331.68 90,-332.54 98.79,-338.45 100.56,-331.68"/>
</g>
<!-- Node6 -->
<g id="node6" class="node">
<title>Node6</title>
<g id="a_node6"><a xlink:href="classMirai_1_1MessageBase.html" target="_top" xlink:title="Base class for all message types">
<polygon fill="none" stroke="black" points="145,-312.5 145,-332.5 259,-332.5 259,-312.5 145,-312.5"/>
<text text-anchor="middle" x="202" y="-319.7" font-family="-apple-system, BlinkMacSystemFont, 'Segoe UI', Roboto, Oxygen, Ubuntu, Cantarell, 'Fira Sans', 'Droid Sans', 'Helvetica Neue', sans-serif" font-size="11.00">Mirai::MessageBase</text>
</a>
</g>
</g>
<!-- Node1&#45;&gt;Node6 -->
<g id="edge5" class="edge">
<title>Node1&#45;&gt;Node6</title>
<path fill="none" stroke="midnightblue" d="M111.32,-322.5C122.43,-322.5 134,-322.5 144.99,-322.5"/>
<polygon fill="midnightblue" stroke="midnightblue" points="111.28,-319 101.28,-322.5 111.28,-326 111.28,-319"/>
</g>
<!-- Node26 -->
<g id="node24" class="node">
<title>Node26</title>
<g id="a_node24"><a xlink:href="structMirai_1_1MiraiAudio.html" target="_top" xlink:title="Mirai语音">
<polygon fill="none" stroke="black" points="153.5,-273.5 153.5,-293.5 250.5,-293.5 250.5,-273.5 153.5,-273.5"/>
<text text-anchor="middle" x="202" y="-280.7" font-family="-apple-system, BlinkMacSystemFont, 'Segoe UI', Roboto, Oxygen, Ubuntu, Cantarell, 'Fira Sans', 'Droid Sans', 'Helvetica Neue', sans-serif" font-size="11.00">Mirai::MiraiAudio</text>
</a>
</g>
</g>
<!-- Node1&#45;&gt;Node26 -->
<g id="edge23" class="edge">
<title>Node1&#45;&gt;Node26</title>
<path fill="none" stroke="midnightblue" d="M99.72,-309.92C120.09,-304.61 143.47,-298.51 162.63,-293.51"/>
<polygon fill="midnightblue" stroke="midnightblue" points="98.79,-306.55 90,-312.46 100.56,-313.32 98.79,-306.55"/>
</g>
<!-- Node27 -->
<g id="node25" class="node">
<title>Node27</title>
<g id="a_node25"><a xlink:href="structMirai_1_1MiraiImage.html" target="_top" xlink:title="Mirai图片">
<polygon fill="none" stroke="black" points="152.5,-234.5 152.5,-254.5 251.5,-254.5 251.5,-234.5 152.5,-234.5"/>
<text text-anchor="middle" x="202" y="-241.7" font-family="-apple-system, BlinkMacSystemFont, 'Segoe UI', Roboto, Oxygen, Ubuntu, Cantarell, 'Fira Sans', 'Droid Sans', 'Helvetica Neue', sans-serif" font-size="11.00">Mirai::MiraiImage</text>
</a>
</g>
</g>
<!-- Node1&#45;&gt;Node27 -->
<g id="edge24" class="edge">
<title>Node1&#45;&gt;Node27</title>
<path fill="none" stroke="midnightblue" d="M71.78,-306.22C88.48,-293.46 113.2,-275.98 137,-264.5 144.97,-260.66 153.85,-257.33 162.39,-254.56"/>
<polygon fill="midnightblue" stroke="midnightblue" points="69.56,-303.51 63.82,-312.41 73.86,-309.04 69.56,-303.51"/>
</g>
<!-- Node28 -->
<g id="node26" class="node">
<title>Node28</title>
<g id="a_node26"><a xlink:href="structMirai_1_1User.html" target="_top" xlink:title="QQ用户">
<polygon fill="none" stroke="black" points="167.5,-195.5 167.5,-215.5 236.5,-215.5 236.5,-195.5 167.5,-195.5"/>
<text text-anchor="middle" x="202" y="-202.7" font-family="-apple-system, BlinkMacSystemFont, 'Segoe UI', Roboto, Oxygen, Ubuntu, Cantarell, 'Fira Sans', 'Droid Sans', 'Helvetica Neue', sans-serif" font-size="11.00">Mirai::User</text>
</a>
</g>
</g>
<!-- Node1&#45;&gt;Node28 -->
<g id="edge25" class="edge">
<title>Node1&#45;&gt;Node28</title>
<path fill="none" stroke="midnightblue" d="M63.19,-303.95C77.87,-282.13 105.03,-246.24 137,-225.5 146.08,-219.61 157.01,-215.36 167.25,-212.33"/>
<polygon fill="midnightblue" stroke="midnightblue" points="60.24,-302.07 57.69,-312.36 66.09,-305.91 60.24,-302.07"/>
</g>
<!-- Node29 -->
<g id="node27" class="node">
<title>Node29</title>
<g id="a_node27"><a xlink:href="structMirai_1_1UserProfile.html" target="_top" xlink:title="QQ用户资料">
<polygon fill="none" stroke="black" points="152,-156.5 152,-176.5 252,-176.5 252,-156.5 152,-156.5"/>
<text text-anchor="middle" x="202" y="-163.7" font-family="-apple-system, BlinkMacSystemFont, 'Segoe UI', Roboto, Oxygen, Ubuntu, Cantarell, 'Fira Sans', 'Droid Sans', 'Helvetica Neue', sans-serif" font-size="11.00">Mirai::UserProfile</text>
</a>
</g>
</g>
<!-- Node1&#45;&gt;Node29 -->
<g id="edge26" class="edge">
<title>Node1&#45;&gt;Node29</title>
<path fill="none" stroke="midnightblue" d="M58.78,-302.59C70.63,-272.95 96.85,-217.42 137,-186.5 142.26,-182.45 148.35,-179.21 154.64,-176.63"/>
<polygon fill="midnightblue" stroke="midnightblue" points="55.39,-301.65 55.07,-312.24 61.93,-304.16 55.39,-301.65"/>
</g>
<!-- Node7 -->
<g id="node7" class="node">
<title>Node7</title>
<g id="a_node7"><a xlink:href="classMirai_1_1AppMessage.html" target="_top" xlink:title="小程序消息">
<polygon fill="none" stroke="black" points="321.5,-624.5 321.5,-644.5 430.5,-644.5 430.5,-624.5 321.5,-624.5"/>
<text text-anchor="middle" x="376" y="-631.7" font-family="-apple-system, BlinkMacSystemFont, 'Segoe UI', Roboto, Oxygen, Ubuntu, Cantarell, 'Fira Sans', 'Droid Sans', 'Helvetica Neue', sans-serif" font-size="11.00">Mirai::AppMessage</text>
</a>
</g>
</g>
<!-- Node6&#45;&gt;Node7 -->
<g id="edge6" class="edge">
<title>Node6&#45;&gt;Node7</title>
<path fill="none" stroke="midnightblue" d="M263.17,-338.56C264.53,-339.78 265.81,-341.09 267,-342.5 345.8,-436.14 222.12,-523.65 303,-615.5 307.96,-621.13 314.36,-625.18 321.31,-628.08"/>
<polygon fill="midnightblue" stroke="midnightblue" points="264.78,-335.41 254.58,-332.52 260.75,-341.14 264.78,-335.41"/>
</g>
<!-- Node8 -->
<g id="node8" class="node">
<title>Node8</title>
<g id="a_node8"><a xlink:href="classMirai_1_1AtAllMessage.html" target="_top" xlink:title="At全体成员消息">
<polygon fill="none" stroke="black" points="320,-585.5 320,-605.5 432,-605.5 432,-585.5 320,-585.5"/>
<text text-anchor="middle" x="376" y="-592.7" font-family="-apple-system, BlinkMacSystemFont, 'Segoe UI', Roboto, Oxygen, Ubuntu, Cantarell, 'Fira Sans', 'Droid Sans', 'Helvetica Neue', sans-serif" font-size="11.00">Mirai::AtAllMessage</text>
</a>
</g>
</g>
<!-- Node6&#45;&gt;Node8 -->
<g id="edge7" class="edge">
<title>Node6&#45;&gt;Node8</title>
<path fill="none" stroke="midnightblue" d="M262.75,-338.27C264.27,-339.57 265.69,-340.98 267,-342.5 335.61,-422.28 232.62,-498.28 303,-576.5 307.67,-581.69 313.57,-585.53 319.98,-588.37"/>
<polygon fill="midnightblue" stroke="midnightblue" points="264.72,-335.37 254.49,-332.6 260.76,-341.14 264.72,-335.37"/>
</g>
<!-- Node9 -->
<g id="node9" class="node">
<title>Node9</title>
<g id="a_node9"><a xlink:href="classMirai_1_1AtMessage.html" target="_top" xlink:title="At用户消息">
<polygon fill="none" stroke="black" points="326,-546.5 326,-566.5 426,-566.5 426,-546.5 326,-546.5"/>
<text text-anchor="middle" x="376" y="-553.7" font-family="-apple-system, BlinkMacSystemFont, 'Segoe UI', Roboto, Oxygen, Ubuntu, Cantarell, 'Fira Sans', 'Droid Sans', 'Helvetica Neue', sans-serif" font-size="11.00">Mirai::AtMessage</text>
</a>
</g>
</g>
<!-- Node6&#45;&gt;Node9 -->
<g id="edge8" class="edge">
<title>Node6&#45;&gt;Node9</title>
<path fill="none" stroke="midnightblue" d="M262.59,-338.23C264.16,-339.55 265.64,-340.96 267,-342.5 325.46,-408.45 243.08,-472.88 303,-537.5 309.15,-544.14 317.32,-548.56 325.95,-551.49"/>
<polygon fill="midnightblue" stroke="midnightblue" points="264.32,-335.18 254.06,-332.54 260.43,-341 264.32,-335.18"/>
</g>
<!-- Node10 -->
<g id="node10" class="node">
<title>Node10</title>
<g id="a_node10"><a xlink:href="classMirai_1_1AudioMessage.html" target="_top" xlink:title="语音消息">
<polygon fill="none" stroke="black" points="317.5,-507.5 317.5,-527.5 434.5,-527.5 434.5,-507.5 317.5,-507.5"/>
<text text-anchor="middle" x="376" y="-514.7" font-family="-apple-system, BlinkMacSystemFont, 'Segoe UI', Roboto, Oxygen, Ubuntu, Cantarell, 'Fira Sans', 'Droid Sans', 'Helvetica Neue', sans-serif" font-size="11.00">Mirai::AudioMessage</text>
</a>
</g>
</g>
<!-- Node6&#45;&gt;Node10 -->
<g id="edge9" class="edge">
<title>Node6&#45;&gt;Node10</title>
<path fill="none" stroke="midnightblue" d="M262.4,-338.23C264.04,-339.54 265.58,-340.96 267,-342.5 315.36,-394.69 253.48,-447.41 303,-498.5 307.14,-502.77 312.12,-506.12 317.49,-508.74"/>
<polygon fill="midnightblue" stroke="midnightblue" points="263.87,-335.02 253.57,-332.54 260.08,-340.9 263.87,-335.02"/>
</g>
<!-- Node11 -->
<g id="node11" class="node">
<title>Node11</title>
<g id="a_node11"><a xlink:href="classMirai_1_1DiceMessage.html" target="_top" xlink:title="骰子消息">
<polygon fill="none" stroke="black" points="321,-468.5 321,-488.5 431,-488.5 431,-468.5 321,-468.5"/>
<text text-anchor="middle" x="376" y="-475.7" font-family="-apple-system, BlinkMacSystemFont, 'Segoe UI', Roboto, Oxygen, Ubuntu, Cantarell, 'Fira Sans', 'Droid Sans', 'Helvetica Neue', sans-serif" font-size="11.00">Mirai::DiceMessage</text>
</a>
</g>
</g>
<!-- Node6&#45;&gt;Node11 -->
<g id="edge10" class="edge">
<title>Node6&#45;&gt;Node11</title>
<path fill="none" stroke="midnightblue" d="M261.73,-337.97C263.6,-339.35 265.37,-340.86 267,-342.5 305.39,-381.06 263.76,-421.82 303,-459.5 308.04,-464.34 314.15,-467.98 320.66,-470.71"/>
<polygon fill="midnightblue" stroke="midnightblue" points="263.33,-334.85 252.97,-332.65 259.7,-340.83 263.33,-334.85"/>
</g>
<!-- Node12 -->
<g id="node12" class="node">
<title>Node12</title>
<g id="a_node12"><a xlink:href="classMirai_1_1FaceMessage.html" target="_top" xlink:title="QQ表情消息">
<polygon fill="none" stroke="red" points="319.5,-429.5 319.5,-449.5 432.5,-449.5 432.5,-429.5 319.5,-429.5"/>
<text text-anchor="middle" x="376" y="-436.7" font-family="-apple-system, BlinkMacSystemFont, 'Segoe UI', Roboto, Oxygen, Ubuntu, Cantarell, 'Fira Sans', 'Droid Sans', 'Helvetica Neue', sans-serif" font-size="11.00">Mirai::FaceMessage</text>
</a>
</g>
</g>
<!-- Node6&#45;&gt;Node12 -->
<g id="edge11" class="edge">
<title>Node6&#45;&gt;Node12</title>
<path fill="none" stroke="midnightblue" d="M259.99,-337.3C262.47,-338.87 264.83,-340.59 267,-342.5 295.69,-367.69 273.75,-395.96 303,-420.5 307.85,-424.57 313.49,-427.78 319.42,-430.31"/>
<polygon fill="midnightblue" stroke="midnightblue" points="261.63,-334.21 251.16,-332.6 258.34,-340.39 261.63,-334.21"/>
</g>
<!-- Node14 -->
<g id="node13" class="node">
<title>Node14</title>
<g id="a_node13"><a xlink:href="classMirai_1_1FileMessage.html" target="_top" xlink:title="文件消息">
<polygon fill="none" stroke="black" points="322.5,-390.5 322.5,-410.5 429.5,-410.5 429.5,-390.5 322.5,-390.5"/>
<text text-anchor="middle" x="376" y="-397.7" font-family="-apple-system, BlinkMacSystemFont, 'Segoe UI', Roboto, Oxygen, Ubuntu, Cantarell, 'Fira Sans', 'Droid Sans', 'Helvetica Neue', sans-serif" font-size="11.00">Mirai::FileMessage</text>
</a>
</g>
</g>
<!-- Node6&#45;&gt;Node14 -->
<g id="edge12" class="edge">
<title>Node6&#45;&gt;Node14</title>
<path fill="none" stroke="midnightblue" d="M255.53,-336.38C259.53,-338.19 263.4,-340.22 267,-342.5 286.93,-355.11 282.79,-369.34 303,-381.5 308.98,-385.1 315.64,-388.03 322.43,-390.4"/>
<polygon fill="midnightblue" stroke="midnightblue" points="256.62,-333.04 246.04,-332.53 253.99,-339.53 256.62,-333.04"/>
</g>
<!-- Node15 -->
<g id="node14" class="node">
<title>Node15</title>
<g id="a_node14"><a xlink:href="classMirai_1_1ForwardMessage.html" target="_top" xlink:title="合并转发消息">
<polygon fill="none" stroke="black" points="311,-351.5 311,-371.5 441,-371.5 441,-351.5 311,-351.5"/>
<text text-anchor="middle" x="376" y="-358.7" font-family="-apple-system, BlinkMacSystemFont, 'Segoe UI', Roboto, Oxygen, Ubuntu, Cantarell, 'Fira Sans', 'Droid Sans', 'Helvetica Neue', sans-serif" font-size="11.00">Mirai::ForwardMessage</text>
</a>
</g>
</g>
<!-- Node6&#45;&gt;Node15 -->
<g id="edge13" class="edge">
<title>Node6&#45;&gt;Node15</title>
<path fill="none" stroke="midnightblue" d="M257.21,-334.79C280.93,-340.17 308.41,-346.4 330.86,-351.49"/>
<polygon fill="midnightblue" stroke="midnightblue" points="257.82,-331.34 247.29,-332.54 256.27,-338.17 257.82,-331.34"/>
</g>
<!-- Node16 -->
<g id="node15" class="node">
<title>Node16</title>
<g id="a_node15"><a xlink:href="classMirai_1_1ImageMessage.html" target="_top" xlink:title="图片消息">
<polygon fill="none" stroke="red" points="316.5,-312.5 316.5,-332.5 435.5,-332.5 435.5,-312.5 316.5,-312.5"/>
<text text-anchor="middle" x="376" y="-319.7" font-family="-apple-system, BlinkMacSystemFont, 'Segoe UI', Roboto, Oxygen, Ubuntu, Cantarell, 'Fira Sans', 'Droid Sans', 'Helvetica Neue', sans-serif" font-size="11.00">Mirai::ImageMessage</text>
</a>
</g>
</g>
<!-- Node6&#45;&gt;Node16 -->
<g id="edge14" class="edge">
<title>Node6&#45;&gt;Node16</title>
<path fill="none" stroke="midnightblue" d="M269.37,-322.5C284.9,-322.5 301.33,-322.5 316.49,-322.5"/>
<polygon fill="midnightblue" stroke="midnightblue" points="269.32,-319 259.32,-322.5 269.32,-326 269.32,-319"/>
</g>
<!-- Node18 -->
<g id="node16" class="node">
<title>Node18</title>
<g id="a_node16"><a xlink:href="classMirai_1_1JsonMessage.html" target="_top" xlink:title="JSON消息">
<polygon fill="none" stroke="black" points="319.5,-273.5 319.5,-293.5 432.5,-293.5 432.5,-273.5 319.5,-273.5"/>
<text text-anchor="middle" x="376" y="-280.7" font-family="-apple-system, BlinkMacSystemFont, 'Segoe UI', Roboto, Oxygen, Ubuntu, Cantarell, 'Fira Sans', 'Droid Sans', 'Helvetica Neue', sans-serif" font-size="11.00">Mirai::JsonMessage</text>
</a>
</g>
</g>
<!-- Node6&#45;&gt;Node18 -->
<g id="edge15" class="edge">
<title>Node6&#45;&gt;Node18</title>
<path fill="none" stroke="midnightblue" d="M257.21,-310.21C280.93,-304.83 308.41,-298.6 330.86,-293.51"/>
<polygon fill="midnightblue" stroke="midnightblue" points="256.27,-306.83 247.29,-312.46 257.82,-313.66 256.27,-306.83"/>
</g>
<!-- Node19 -->
<g id="node17" class="node">
<title>Node19</title>
<g id="a_node17"><a xlink:href="classMirai_1_1MiraiCodeMessage.html" target="_top" xlink:title=" ">
<polygon fill="none" stroke="black" points="307,-234.5 307,-254.5 445,-254.5 445,-234.5 307,-234.5"/>
<text text-anchor="middle" x="376" y="-241.7" font-family="-apple-system, BlinkMacSystemFont, 'Segoe UI', Roboto, Oxygen, Ubuntu, Cantarell, 'Fira Sans', 'Droid Sans', 'Helvetica Neue', sans-serif" font-size="11.00">Mirai::MiraiCodeMessage</text>
</a>
</g>
</g>
<!-- Node6&#45;&gt;Node19 -->
<g id="edge16" class="edge">
<title>Node6&#45;&gt;Node19</title>
<path fill="none" stroke="midnightblue" d="M257.53,-308.58C260.82,-307.05 264.01,-305.36 267,-303.5 287.02,-291.03 282.87,-276.79 303,-264.5 309.64,-260.44 317.13,-257.19 324.69,-254.59"/>
<polygon fill="midnightblue" stroke="midnightblue" points="255.97,-305.44 248.06,-312.48 258.64,-311.91 255.97,-305.44"/>
</g>
<!-- Node20 -->
<g id="node18" class="node">
<title>Node20</title>
<g id="a_node18"><a xlink:href="classMirai_1_1MusicShareMessage.html" target="_top" xlink:title="音乐分享卡片消息">
<polygon fill="none" stroke="black" points="303,-195.5 303,-215.5 449,-215.5 449,-195.5 303,-195.5"/>
<text text-anchor="middle" x="376" y="-202.7" font-family="-apple-system, BlinkMacSystemFont, 'Segoe UI', Roboto, Oxygen, Ubuntu, Cantarell, 'Fira Sans', 'Droid Sans', 'Helvetica Neue', sans-serif" font-size="11.00">Mirai::MusicShareMessage</text>
</a>
</g>
</g>
<!-- Node6&#45;&gt;Node20 -->
<g id="edge17" class="edge">
<title>Node6&#45;&gt;Node20</title>
<path fill="none" stroke="midnightblue" d="M261.57,-307.6C263.47,-306.34 265.29,-304.98 267,-303.5 295.87,-278.51 273.91,-250.23 303,-225.5 307.84,-221.38 313.47,-218.11 319.4,-215.51"/>
<polygon fill="midnightblue" stroke="midnightblue" points="259.82,-304.57 252.76,-312.46 263.21,-310.69 259.82,-304.57"/>
</g>
<!-- Node21 -->
<g id="node19" class="node">
<title>Node21</title>
<g id="a_node19"><a xlink:href="classMirai_1_1PlainMessage.html" target="_top" xlink:title="文字消息">
<polygon fill="none" stroke="black" points="319.5,-156.5 319.5,-176.5 432.5,-176.5 432.5,-156.5 319.5,-156.5"/>
<text text-anchor="middle" x="376" y="-163.7" font-family="-apple-system, BlinkMacSystemFont, 'Segoe UI', Roboto, Oxygen, Ubuntu, Cantarell, 'Fira Sans', 'Droid Sans', 'Helvetica Neue', sans-serif" font-size="11.00">Mirai::PlainMessage</text>
</a>
</g>
</g>
<!-- Node6&#45;&gt;Node21 -->
<g id="edge18" class="edge">
<title>Node6&#45;&gt;Node21</title>
<path fill="none" stroke="midnightblue" d="M263.05,-306.97C264.43,-305.89 265.75,-304.73 267,-303.5 305.66,-265.22 264,-224.44 303,-186.5 307.65,-181.98 313.23,-178.46 319.2,-175.72"/>
<polygon fill="midnightblue" stroke="midnightblue" points="261.09,-304.06 254.52,-312.37 264.84,-309.97 261.09,-304.06"/>
</g>
<!-- Node22 -->
<g id="node20" class="node">
<title>Node22</title>
<g id="a_node20"><a xlink:href="classMirai_1_1PokeMessage.html" target="_top" xlink:title="戳一戳消息">
<polygon fill="none" stroke="black" points="318.5,-117.5 318.5,-137.5 433.5,-137.5 433.5,-117.5 318.5,-117.5"/>
<text text-anchor="middle" x="376" y="-124.7" font-family="-apple-system, BlinkMacSystemFont, 'Segoe UI', Roboto, Oxygen, Ubuntu, Cantarell, 'Fira Sans', 'Droid Sans', 'Helvetica Neue', sans-serif" font-size="11.00">Mirai::PokeMessage</text>
</a>
</g>
</g>
<!-- Node6&#45;&gt;Node22 -->
<g id="edge19" class="edge">
<title>Node6&#45;&gt;Node22</title>
<path fill="none" stroke="midnightblue" d="M263.62,-306.71C264.8,-305.7 265.93,-304.63 267,-303.5 315.74,-251.66 253.81,-198.91 303,-147.5 307.31,-143 312.53,-139.49 318.17,-136.74"/>
<polygon fill="midnightblue" stroke="midnightblue" points="261.42,-303.97 255.1,-312.47 265.34,-309.76 261.42,-303.97"/>
</g>
<!-- Node23 -->
<g id="node21" class="node">
<title>Node23</title>
<g id="a_node21"><a xlink:href="classMirai_1_1QuoteMessage.html" target="_top" xlink:title="引用回复消息">
<polygon fill="none" stroke="black" points="316.5,-78.5 316.5,-98.5 435.5,-98.5 435.5,-78.5 316.5,-78.5"/>
<text text-anchor="middle" x="376" y="-85.7" font-family="-apple-system, BlinkMacSystemFont, 'Segoe UI', Roboto, Oxygen, Ubuntu, Cantarell, 'Fira Sans', 'Droid Sans', 'Helvetica Neue', sans-serif" font-size="11.00">Mirai::QuoteMessage</text>
</a>
</g>
</g>
<!-- Node6&#45;&gt;Node23 -->
<g id="edge20" class="edge">
<title>Node6&#45;&gt;Node23</title>
<path fill="none" stroke="midnightblue" d="M263.77,-306.7C264.9,-305.7 265.98,-304.63 267,-303.5 325.93,-237.97 243.5,-173.51 303,-108.5 306.77,-104.38 311.3,-101.09 316.23,-98.45"/>
<polygon fill="midnightblue" stroke="midnightblue" points="261.74,-303.84 255.57,-312.45 265.77,-309.57 261.74,-303.84"/>
</g>
<!-- Node24 -->
<g id="node22" class="node">
<title>Node24</title>
<g id="a_node22"><a xlink:href="classMirai_1_1SourceMessage.html" target="_top" xlink:title="来源消息">
<polygon fill="none" stroke="black" points="314,-39.5 314,-59.5 438,-59.5 438,-39.5 314,-39.5"/>
<text text-anchor="middle" x="376" y="-46.7" font-family="-apple-system, BlinkMacSystemFont, 'Segoe UI', Roboto, Oxygen, Ubuntu, Cantarell, 'Fira Sans', 'Droid Sans', 'Helvetica Neue', sans-serif" font-size="11.00">Mirai::SourceMessage</text>
</a>
</g>
</g>
<!-- Node6&#45;&gt;Node24 -->
<g id="edge21" class="edge">
<title>Node6&#45;&gt;Node24</title>
<path fill="none" stroke="midnightblue" d="M264.22,-306.37C265.19,-305.46 266.12,-304.51 267,-303.5 336.18,-224.21 233.12,-148.17 303,-69.5 306.62,-65.43 310.99,-62.15 315.76,-59.52"/>
<polygon fill="midnightblue" stroke="midnightblue" points="262,-303.66 255.99,-312.38 266.13,-309.31 262,-303.66"/>
</g>
<!-- Node25 -->
<g id="node23" class="node">
<title>Node25</title>
<g id="a_node23"><a xlink:href="classMirai_1_1XmlMessage.html" target="_top" xlink:title="XML消息">
<polygon fill="none" stroke="black" points="322,-0.5 322,-20.5 430,-20.5 430,-0.5 322,-0.5"/>
<text text-anchor="middle" x="376" y="-7.7" font-family="-apple-system, BlinkMacSystemFont, 'Segoe UI', Roboto, Oxygen, Ubuntu, Cantarell, 'Fira Sans', 'Droid Sans', 'Helvetica Neue', sans-serif" font-size="11.00">Mirai::XmlMessage</text>
</a>
</g>
</g>
<!-- Node6&#45;&gt;Node25 -->
<g id="edge22" class="edge">
<title>Node6&#45;&gt;Node25</title>
<path fill="none" stroke="midnightblue" d="M264.25,-306.39C265.21,-305.48 266.13,-304.52 267,-303.5 346.46,-210.42 222.72,-122.87 303,-30.5 308.11,-24.62 314.77,-20.41 321.99,-17.39"/>
<polygon fill="midnightblue" stroke="midnightblue" points="262.02,-303.69 256.07,-312.45 266.19,-309.31 262.02,-303.69"/>
</g>
</g>
</svg>
