<?xml version="1.0" encoding="UTF-8" standalone="no"?>
<!DOCTYPE svg PUBLIC "-//W3C//DTD SVG 1.1//EN"
 "http://www.w3.org/Graphics/SVG/1.1/DTD/svg11.dtd">
<!-- Generated by graphviz version 3.0.0 (20220413.0242)
 -->
<!-- Title: Mirai::ImageMessage Pages: 1 -->
<svg width="364pt" height="227pt"
 viewBox="0.00 0.00 364.00 227.00" xmlns="http://www.w3.org/2000/svg" xmlns:xlink="http://www.w3.org/1999/xlink">
<g id="graph0" class="graph" transform="scale(1 1) rotate(0) translate(4 223)">
<title>Mirai::ImageMessage</title>
<!-- Node1 -->
<g id="node1" class="node">
<title>Node1</title>
<g id="a_node1"><a xlink:title="图片消息">
<polygon fill="#bfbfbf" stroke="black" points="122.5,-0.5 122.5,-20.5 241.5,-20.5 241.5,-0.5 122.5,-0.5"/>
<text text-anchor="middle" x="182" y="-7.7" font-family="-apple-system, BlinkMacSystemFont, 'Segoe UI', Roboto, Oxygen, Ubuntu, Cantarell, 'Fira Sans', 'Droid Sans', 'Helvetica Neue', sans-serif" font-size="11.00">Mirai::ImageMessage</text>
</a>
</g>
</g>
<!-- Node2 -->
<g id="node2" class="node">
<title>Node2</title>
<g id="a_node2"><a xlink:href="classMirai_1_1MessageBase.html" target="_top" xlink:title="Base class for all message types">
<polygon fill="none" stroke="black" points="0,-69.5 0,-89.5 114,-89.5 114,-69.5 0,-69.5"/>
<text text-anchor="middle" x="57" y="-76.7" font-family="-apple-system, BlinkMacSystemFont, 'Segoe UI', Roboto, Oxygen, Ubuntu, Cantarell, 'Fira Sans', 'Droid Sans', 'Helvetica Neue', sans-serif" font-size="11.00">Mirai::MessageBase</text>
</a>
</g>
</g>
<!-- Node2&#45;&gt;Node1 -->
<g id="edge1" class="edge">
<title>Node2&#45;&gt;Node1</title>
<path fill="none" stroke="midnightblue" d="M82.99,-64.57C107.61,-51.37 143.89,-31.93 165.01,-20.61"/>
<polygon fill="midnightblue" stroke="midnightblue" points="81.02,-61.66 73.86,-69.46 84.33,-67.82 81.02,-61.66"/>
</g>
<!-- Node3 -->
<g id="node3" class="node">
<title>Node3</title>
<g id="a_node3"><a xlink:href="classMirai_1_1Serializable.html" target="_top" xlink:title="Base class for all json serializable type">
<polygon fill="none" stroke="black" points="25.5,-192.5 25.5,-212.5 126.5,-212.5 126.5,-192.5 25.5,-192.5"/>
<text text-anchor="middle" x="76" y="-199.7" font-family="-apple-system, BlinkMacSystemFont, 'Segoe UI', Roboto, Oxygen, Ubuntu, Cantarell, 'Fira Sans', 'Droid Sans', 'Helvetica Neue', sans-serif" font-size="11.00">Mirai::Serializable</text>
</a>
</g>
</g>
<!-- Node3&#45;&gt;Node2 -->
<g id="edge2" class="edge">
<title>Node3&#45;&gt;Node2</title>
<path fill="none" stroke="midnightblue" d="M73.01,-182.48C68.87,-156.09 61.54,-109.42 58.44,-89.7"/>
<polygon fill="midnightblue" stroke="midnightblue" points="69.56,-183.07 74.57,-192.41 76.48,-181.98 69.56,-183.07"/>
</g>
<!-- Node4 -->
<g id="node4" class="node">
<title>Node4</title>
<g id="a_node4"><a xlink:href="structMirai_1_1MiraiImage.html" target="_top" xlink:title="Mirai图片">
<polygon fill="none" stroke="black" points="132.5,-69.5 132.5,-89.5 231.5,-89.5 231.5,-69.5 132.5,-69.5"/>
<text text-anchor="middle" x="182" y="-76.7" font-family="-apple-system, BlinkMacSystemFont, 'Segoe UI', Roboto, Oxygen, Ubuntu, Cantarell, 'Fira Sans', 'Droid Sans', 'Helvetica Neue', sans-serif" font-size="11.00">Mirai::MiraiImage</text>
</a>
</g>
</g>
<!-- Node3&#45;&gt;Node4 -->
<g id="edge4" class="edge">
<title>Node3&#45;&gt;Node4</title>
<path fill="none" stroke="midnightblue" d="M90.85,-184.55C113.57,-158.61 156.2,-109.95 173.94,-89.7"/>
<polygon fill="midnightblue" stroke="midnightblue" points="87.92,-182.58 83.97,-192.41 93.19,-187.19 87.92,-182.58"/>
</g>
<!-- Node4&#45;&gt;Node1 -->
<g id="edge3" class="edge">
<title>Node4&#45;&gt;Node1</title>
<path fill="none" stroke="#9a32cd" stroke-dasharray="5,2" d="M182,-59.08C182,-46.5 182,-30.68 182,-20.82"/>
<polygon fill="#9a32cd" stroke="#9a32cd" points="178.5,-59.46 182,-69.46 185.5,-59.46 178.5,-59.46"/>
<text text-anchor="middle" x="201.5" y="-42.2" font-family="-apple-system, BlinkMacSystemFont, 'Segoe UI', Roboto, Oxygen, Ubuntu, Cantarell, 'Fira Sans', 'Droid Sans', 'Helvetica Neue', sans-serif" font-size="11.00"> _image</text>
</g>
<!-- Node5 -->
<g id="node5" class="node">
<title>Node5</title>
<g id="a_node5"><a xlink:title=" ">
<polygon fill="none" stroke="red" points="150.5,-192.5 150.5,-212.5 213.5,-212.5 213.5,-192.5 150.5,-192.5"/>
<text text-anchor="middle" x="182" y="-199.7" font-family="-apple-system, BlinkMacSystemFont, 'Segoe UI', Roboto, Oxygen, Ubuntu, Cantarell, 'Fira Sans', 'Droid Sans', 'Helvetica Neue', sans-serif" font-size="11.00">std::string</text>
</a>
</g>
</g>
<!-- Node5&#45;&gt;Node4 -->
<g id="edge5" class="edge">
<title>Node5&#45;&gt;Node4</title>
<path fill="none" stroke="#9a32cd" stroke-dasharray="5,2" d="M182,-182.12C182,-155.68 182,-109.33 182,-89.7"/>
<polygon fill="#9a32cd" stroke="#9a32cd" points="178.5,-182.41 182,-192.41 185.5,-182.41 178.5,-182.41"/>
<text text-anchor="middle" x="211" y="-159.2" font-family="-apple-system, BlinkMacSystemFont, 'Segoe UI', Roboto, Oxygen, Ubuntu, Cantarell, 'Fira Sans', 'Droid Sans', 'Helvetica Neue', sans-serif" font-size="11.00"> ImageType</text>
<text text-anchor="middle" x="211" y="-147.2" font-family="-apple-system, BlinkMacSystemFont, 'Segoe UI', Roboto, Oxygen, Ubuntu, Cantarell, 'Fira Sans', 'Droid Sans', 'Helvetica Neue', sans-serif" font-size="11.00">base64</text>
<text text-anchor="middle" x="211" y="-135.2" font-family="-apple-system, BlinkMacSystemFont, 'Segoe UI', Roboto, Oxygen, Ubuntu, Cantarell, 'Fira Sans', 'Droid Sans', 'Helvetica Neue', sans-serif" font-size="11.00">id</text>
<text text-anchor="middle" x="211" y="-123.2" font-family="-apple-system, BlinkMacSystemFont, 'Segoe UI', Roboto, Oxygen, Ubuntu, Cantarell, 'Fira Sans', 'Droid Sans', 'Helvetica Neue', sans-serif" font-size="11.00">path</text>
<text text-anchor="middle" x="211" y="-111.2" font-family="-apple-system, BlinkMacSystemFont, 'Segoe UI', Roboto, Oxygen, Ubuntu, Cantarell, 'Fira Sans', 'Droid Sans', 'Helvetica Neue', sans-serif" font-size="11.00">url</text>
</g>
<!-- Node7 -->
<g id="node6" class="node">
<title>Node7</title>
<g id="a_node6"><a xlink:title=" ">
<polygon fill="none" stroke="black" points="249.5,-69.5 249.5,-89.5 340.5,-89.5 340.5,-69.5 249.5,-69.5"/>
<text text-anchor="middle" x="295" y="-76.7" font-family="-apple-system, BlinkMacSystemFont, 'Segoe UI', Roboto, Oxygen, Ubuntu, Cantarell, 'Fira Sans', 'Droid Sans', 'Helvetica Neue', sans-serif" font-size="11.00">std::string_view</text>
</a>
</g>
</g>
<!-- Node7&#45;&gt;Node1 -->
<g id="edge6" class="edge">
<title>Node7&#45;&gt;Node1</title>
<path fill="none" stroke="#9a32cd" stroke-dasharray="5,2" d="M270.91,-64.22C248.67,-51.03 216.29,-31.83 197.36,-20.61"/>
<polygon fill="#9a32cd" stroke="#9a32cd" points="269.37,-67.37 279.76,-69.46 272.94,-61.35 269.37,-67.37"/>
<text text-anchor="middle" x="268" y="-42.2" font-family="-apple-system, BlinkMacSystemFont, 'Segoe UI', Roboto, Oxygen, Ubuntu, Cantarell, 'Fira Sans', 'Droid Sans', 'Helvetica Neue', sans-serif" font-size="11.00"> _TYPE_</text>
</g>
<!-- Node8 -->
<g id="node7" class="node">
<title>Node8</title>
<g id="a_node7"><a xlink:title=" ">
<polygon fill="none" stroke="black" points="234,-186.5 234,-218.5 356,-218.5 356,-186.5 234,-186.5"/>
<text text-anchor="start" x="242" y="-205.7" font-family="-apple-system, BlinkMacSystemFont, 'Segoe UI', Roboto, Oxygen, Ubuntu, Cantarell, 'Fira Sans', 'Droid Sans', 'Helvetica Neue', sans-serif" font-size="11.00">std::basic_string_view</text>
<text text-anchor="middle" x="295" y="-193.7" font-family="-apple-system, BlinkMacSystemFont, 'Segoe UI', Roboto, Oxygen, Ubuntu, Cantarell, 'Fira Sans', 'Droid Sans', 'Helvetica Neue', sans-serif" font-size="11.00">&lt; Char &gt;</text>
</a>
</g>
</g>
<!-- Node8&#45;&gt;Node7 -->
<g id="edge7" class="edge">
<title>Node8&#45;&gt;Node7</title>
<path fill="none" stroke="midnightblue" d="M295,-175.94C295,-149.01 295,-108.04 295,-89.81"/>
<polygon fill="midnightblue" stroke="midnightblue" points="291.5,-176.18 295,-186.18 298.5,-176.18 291.5,-176.18"/>
</g>
</g>
</svg>
