<?xml version="1.0" encoding="UTF-8" standalone="no"?>
<!DOCTYPE svg PUBLIC "-//W3C//DTD SVG 1.1//EN"
 "http://www.w3.org/Graphics/SVG/1.1/DTD/svg11.dtd">
<!-- Generated by graphviz version 2.43.0 (0)
 -->
<!-- Title: Mirai::ForwardMessage::Node Pages: 1 -->
<svg width="646pt" height="152pt"
 viewBox="0.00 0.00 646.00 152.00" xmlns="http://www.w3.org/2000/svg" xmlns:xlink="http://www.w3.org/1999/xlink">
<g id="graph0" class="graph" transform="scale(1 1) rotate(0) translate(4 148)">
<title>Mirai::ForwardMessage::Node</title>
<!-- Node1 -->
<g id="node1" class="node">
<title>Node1</title>
<g id="a_node1"><a xlink:title="转发消息节点，代表一条转发消息">
<polygon fill="#bfbfbf" stroke="black" points="494,-57.5 494,-89.5 638,-89.5 638,-57.5 494,-57.5"/>
<text text-anchor="start" x="502" y="-76.7" font-family="-apple-system,BlinkMacSystemFont,'SegoeUI',Roboto,Oxygen,Ubuntu,Cantarell,'FiraSans','DroidSans','HelveticaNeue',sans-serif" font-size="11.00">Mirai::ForwardMessage</text>
<text text-anchor="middle" x="566" y="-64.7" font-family="-apple-system,BlinkMacSystemFont,'SegoeUI',Roboto,Oxygen,Ubuntu,Cantarell,'FiraSans','DroidSans','HelveticaNeue',sans-serif" font-size="11.00">::Node</text>
</a>
</g>
</g>
<!-- Node2 -->
<g id="node2" class="node">
<title>Node2</title>
<g id="a_node2"><a xlink:href="classMirai_1_1Serializable.html" target="_top" xlink:title="Base class for all json serializable type">
<polygon fill="none" stroke="black" points="255.5,-123.5 255.5,-143.5 369.5,-143.5 369.5,-123.5 255.5,-123.5"/>
<text text-anchor="middle" x="312.5" y="-130.7" font-family="-apple-system,BlinkMacSystemFont,'SegoeUI',Roboto,Oxygen,Ubuntu,Cantarell,'FiraSans','DroidSans','HelveticaNeue',sans-serif" font-size="11.00">Mirai::Serializable</text>
</a>
</g>
</g>
<!-- Node2&#45;&gt;Node1 -->
<g id="edge1" class="edge">
<title>Node2&#45;&gt;Node1</title>
<path fill="none" stroke="midnightblue" d="M379.77,-122.81C409.4,-117.54 444.65,-110.56 476,-102.5 490.32,-98.82 505.71,-94.09 519.59,-89.52"/>
<polygon fill="midnightblue" stroke="midnightblue" points="378.79,-119.43 369.54,-124.61 380,-126.33 378.79,-119.43"/>
</g>
<!-- Node3 -->
<g id="node3" class="node">
<title>Node3</title>
<g id="a_node3"><a xlink:href="classMirai_1_1MessageChain.html" target="_top" xlink:title="消息链对象，由一系列消息元素组成">
<polygon fill="none" stroke="black" points="247,-84.5 247,-104.5 378,-104.5 378,-84.5 247,-84.5"/>
<text text-anchor="middle" x="312.5" y="-91.7" font-family="-apple-system,BlinkMacSystemFont,'SegoeUI',Roboto,Oxygen,Ubuntu,Cantarell,'FiraSans','DroidSans','HelveticaNeue',sans-serif" font-size="11.00">Mirai::MessageChain</text>
</a>
</g>
</g>
<!-- Node3&#45;&gt;Node1 -->
<g id="edge2" class="edge">
<title>Node3&#45;&gt;Node1</title>
<path fill="none" stroke="#9a32cd" stroke-dasharray="5,2" d="M388.43,-88.24C421.79,-85.46 460.9,-82.19 493.82,-79.44"/>
<polygon fill="#9a32cd" stroke="#9a32cd" points="387.94,-84.77 378.27,-89.09 388.52,-91.75 387.94,-84.77"/>
<text text-anchor="middle" x="436" y="-89.7" font-family="-apple-system,BlinkMacSystemFont,'SegoeUI',Roboto,Oxygen,Ubuntu,Cantarell,'FiraSans','DroidSans','HelveticaNeue',sans-serif" font-size="11.00"> _message</text>
</g>
<!-- Node4 -->
<g id="node4" class="node">
<title>Node4</title>
<g id="a_node4"><a xlink:title=" ">
<polygon fill="none" stroke="#bfbfbf" points="0,-90.5 0,-122.5 152,-122.5 152,-90.5 0,-90.5"/>
<text text-anchor="start" x="8" y="-109.7" font-family="-apple-system,BlinkMacSystemFont,'SegoeUI',Roboto,Oxygen,Ubuntu,Cantarell,'FiraSans','DroidSans','HelveticaNeue',sans-serif" font-size="11.00">std::vector&lt; std::unique</text>
<text text-anchor="middle" x="76" y="-97.7" font-family="-apple-system,BlinkMacSystemFont,'SegoeUI',Roboto,Oxygen,Ubuntu,Cantarell,'FiraSans','DroidSans','HelveticaNeue',sans-serif" font-size="11.00">_ptr&lt; MessageBase &gt; &gt;</text>
</a>
</g>
</g>
<!-- Node4&#45;&gt;Node3 -->
<g id="edge3" class="edge">
<title>Node4&#45;&gt;Node3</title>
<path fill="none" stroke="#9a32cd" stroke-dasharray="5,2" d="M162.29,-102.14C190.11,-100.71 220.54,-99.15 246.62,-97.82"/>
<polygon fill="#9a32cd" stroke="#9a32cd" points="161.97,-98.65 152.16,-102.65 162.33,-105.64 161.97,-98.65"/>
<text text-anchor="middle" x="199.5" y="-104.7" font-family="-apple-system,BlinkMacSystemFont,'SegoeUI',Roboto,Oxygen,Ubuntu,Cantarell,'FiraSans','DroidSans','HelveticaNeue',sans-serif" font-size="11.00"> _message</text>
</g>
<!-- Node7 -->
<g id="node5" class="node">
<title>Node7</title>
<g id="a_node5"><a xlink:title="STL class">
<polygon fill="none" stroke="#bfbfbf" points="276,-45.5 276,-65.5 349,-65.5 349,-45.5 276,-45.5"/>
<text text-anchor="middle" x="312.5" y="-52.7" font-family="-apple-system,BlinkMacSystemFont,'SegoeUI',Roboto,Oxygen,Ubuntu,Cantarell,'FiraSans','DroidSans','HelveticaNeue',sans-serif" font-size="11.00">std::string</text>
</a>
</g>
</g>
<!-- Node7&#45;&gt;Node1 -->
<g id="edge4" class="edge">
<title>Node7&#45;&gt;Node1</title>
<path fill="none" stroke="#9a32cd" stroke-dasharray="5,2" d="M359.23,-54.54C391.84,-54.29 436.7,-54.85 476,-58.5 481.77,-59.04 487.74,-59.73 493.71,-60.53"/>
<polygon fill="#9a32cd" stroke="#9a32cd" points="359.05,-51.04 349.09,-54.64 359.12,-58.04 359.05,-51.04"/>
<text text-anchor="middle" x="436" y="-61.7" font-family="-apple-system,BlinkMacSystemFont,'SegoeUI',Roboto,Oxygen,Ubuntu,Cantarell,'FiraSans','DroidSans','HelveticaNeue',sans-serif" font-size="11.00"> _SenderName</text>
</g>
<!-- Node8 -->
<g id="node6" class="node">
<title>Node8</title>
<g id="a_node6"><a xlink:title="STL class">
<polygon fill="none" stroke="#bfbfbf" points="18,-39.5 18,-71.5 134,-71.5 134,-39.5 18,-39.5"/>
<text text-anchor="start" x="26" y="-58.7" font-family="-apple-system,BlinkMacSystemFont,'SegoeUI',Roboto,Oxygen,Ubuntu,Cantarell,'FiraSans','DroidSans','HelveticaNeue',sans-serif" font-size="11.00">std::basic_string&lt;</text>
<text text-anchor="middle" x="76" y="-46.7" font-family="-apple-system,BlinkMacSystemFont,'SegoeUI',Roboto,Oxygen,Ubuntu,Cantarell,'FiraSans','DroidSans','HelveticaNeue',sans-serif" font-size="11.00"> char &gt;</text>
</a>
</g>
</g>
<!-- Node8&#45;&gt;Node7 -->
<g id="edge5" class="edge">
<title>Node8&#45;&gt;Node7</title>
<path fill="none" stroke="midnightblue" d="M144.15,-55.5C187.02,-55.5 240.91,-55.5 275.76,-55.5"/>
<polygon fill="midnightblue" stroke="midnightblue" points="144.07,-52 134.07,-55.5 144.07,-59 144.07,-52"/>
</g>
<!-- Node9 -->
<g id="node7" class="node">
<title>Node9</title>
<g id="a_node7"><a xlink:href="classMirai_1_1QQ__t.html" target="_top" xlink:title="QQ号码类型">
<polygon fill="none" stroke="black" points="273,-3.5 273,-23.5 352,-23.5 352,-3.5 273,-3.5"/>
<text text-anchor="middle" x="312.5" y="-10.7" font-family="-apple-system,BlinkMacSystemFont,'SegoeUI',Roboto,Oxygen,Ubuntu,Cantarell,'FiraSans','DroidSans','HelveticaNeue',sans-serif" font-size="11.00">Mirai::QQ_t</text>
</a>
</g>
</g>
<!-- Node9&#45;&gt;Node1 -->
<g id="edge6" class="edge">
<title>Node9&#45;&gt;Node1</title>
<path fill="none" stroke="#9a32cd" stroke-dasharray="5,2" d="M362.26,-18.14C394.84,-21.94 438.45,-28.36 476,-38.5 493.95,-43.35 513.23,-50.65 529.24,-57.34"/>
<polygon fill="#9a32cd" stroke="#9a32cd" points="362.41,-14.64 352.09,-17 361.63,-21.59 362.41,-14.64"/>
<text text-anchor="middle" x="436" y="-41.7" font-family="-apple-system,BlinkMacSystemFont,'SegoeUI',Roboto,Oxygen,Ubuntu,Cantarell,'FiraSans','DroidSans','HelveticaNeue',sans-serif" font-size="11.00"> _SenderId</text>
</g>
<!-- Node10 -->
<g id="node8" class="node">
<title>Node10</title>
<g id="a_node8"><a xlink:href="classMirai_1_1UID__t.html" target="_top" xlink:title="Base class for QQ_t and GID_t">
<polygon fill="none" stroke="black" points="36,-0.5 36,-20.5 116,-20.5 116,-0.5 36,-0.5"/>
<text text-anchor="middle" x="76" y="-7.7" font-family="-apple-system,BlinkMacSystemFont,'SegoeUI',Roboto,Oxygen,Ubuntu,Cantarell,'FiraSans','DroidSans','HelveticaNeue',sans-serif" font-size="11.00">Mirai::UID_t</text>
</a>
</g>
</g>
<!-- Node10&#45;&gt;Node9 -->
<g id="edge7" class="edge">
<title>Node10&#45;&gt;Node9</title>
<path fill="none" stroke="midnightblue" d="M126.36,-11.13C170.02,-11.69 232.83,-12.49 272.9,-13.01"/>
<polygon fill="midnightblue" stroke="midnightblue" points="126.29,-7.63 116.25,-11 126.2,-14.63 126.29,-7.63"/>
</g>
</g>
</svg>
