<?xml version="1.0" encoding="UTF-8" standalone="no"?>
<!DOCTYPE svg PUBLIC "-//W3C//DTD SVG 1.1//EN"
 "http://www.w3.org/Graphics/SVG/1.1/DTD/svg11.dtd">
<!-- Generated by graphviz version 2.43.0 (0)
 -->
<!-- Title: Mirai::GroupEntranceAnnouncementChangeEvent Pages: 1 -->
<svg width="388pt" height="272pt"
 viewBox="0.00 0.00 388.04 272.00" xmlns="http://www.w3.org/2000/svg" xmlns:xlink="http://www.w3.org/1999/xlink">
<g id="graph0" class="graph" transform="scale(1 1) rotate(0) translate(4 268)">
<title>Mirai::GroupEntranceAnnouncementChangeEvent</title>
<!-- Node1 -->
<g id="node1" class="node">
<title>Node1</title>
<g id="a_node1"><a xlink:title="入群公告更改事件">
<polygon fill="#bfbfbf" stroke="black" points="37.04,-0.5 37.04,-32.5 252.04,-32.5 252.04,-0.5 37.04,-0.5"/>
<text text-anchor="start" x="45.04" y="-19.7" font-family="-apple-system,BlinkMacSystemFont,'SegoeUI',Roboto,Oxygen,Ubuntu,Cantarell,'FiraSans','DroidSans','HelveticaNeue',sans-serif" font-size="11.00">Mirai::GroupEntranceAnnouncement</text>
<text text-anchor="middle" x="144.54" y="-7.7" font-family="-apple-system,BlinkMacSystemFont,'SegoeUI',Roboto,Oxygen,Ubuntu,Cantarell,'FiraSans','DroidSans','HelveticaNeue',sans-serif" font-size="11.00">ChangeEvent</text>
</a>
</g>
</g>
<!-- Node2 -->
<g id="node2" class="node">
<title>Node2</title>
<g id="a_node2"><a xlink:href="classMirai_1_1EventBase.html" target="_top" xlink:title="Base class for all event types">
<polygon fill="none" stroke="black" points="18.54,-81.5 18.54,-101.5 128.54,-101.5 128.54,-81.5 18.54,-81.5"/>
<text text-anchor="middle" x="73.54" y="-88.7" font-family="-apple-system,BlinkMacSystemFont,'SegoeUI',Roboto,Oxygen,Ubuntu,Cantarell,'FiraSans','DroidSans','HelveticaNeue',sans-serif" font-size="11.00">Mirai::EventBase</text>
</a>
</g>
</g>
<!-- Node2&#45;&gt;Node1 -->
<g id="edge1" class="edge">
<title>Node2&#45;&gt;Node1</title>
<path fill="none" stroke="midnightblue" d="M89.72,-73.86C101.74,-61.5 118,-44.78 129.69,-32.77"/>
<polygon fill="midnightblue" stroke="midnightblue" points="86.99,-71.65 82.53,-81.25 92.01,-76.53 86.99,-71.65"/>
</g>
<!-- Node3 -->
<g id="node3" class="node">
<title>Node3</title>
<g id="a_node3"><a xlink:href="classMirai_1_1MiraiClient.html" target="_top" xlink:title="提供与mirai&#45;api&#45;http网络交互的封装">
<polygon fill="none" stroke="red" points="12.54,-168.5 12.54,-188.5 122.54,-188.5 122.54,-168.5 12.54,-168.5"/>
<text text-anchor="middle" x="67.54" y="-175.7" font-family="-apple-system,BlinkMacSystemFont,'SegoeUI',Roboto,Oxygen,Ubuntu,Cantarell,'FiraSans','DroidSans','HelveticaNeue',sans-serif" font-size="11.00">Mirai::MiraiClient</text>
</a>
</g>
</g>
<!-- Node3&#45;&gt;Node2 -->
<g id="edge2" class="edge">
<title>Node3&#45;&gt;Node2</title>
<path fill="none" stroke="#9a32cd" stroke-dasharray="5,2" d="M68.89,-158.32C70.14,-140.57 71.95,-114.98 72.9,-101.53"/>
<polygon fill="#9a32cd" stroke="#9a32cd" points="65.39,-158.18 68.18,-168.4 72.38,-158.67 65.39,-158.18"/>
<text text-anchor="middle" x="91.54" y="-129.2" font-family="-apple-system,BlinkMacSystemFont,'SegoeUI',Roboto,Oxygen,Ubuntu,Cantarell,'FiraSans','DroidSans','HelveticaNeue',sans-serif" font-size="11.00"> _client</text>
</g>
<!-- Node7 -->
<g id="node4" class="node">
<title>Node7</title>
<g id="a_node4"><a xlink:title="STL class">
<polygon fill="none" stroke="#bfbfbf" points="1.04,-243.5 1.04,-263.5 74.04,-263.5 74.04,-243.5 1.04,-243.5"/>
<text text-anchor="middle" x="37.54" y="-250.7" font-family="-apple-system,BlinkMacSystemFont,'SegoeUI',Roboto,Oxygen,Ubuntu,Cantarell,'FiraSans','DroidSans','HelveticaNeue',sans-serif" font-size="11.00">std::string</text>
</a>
</g>
</g>
<!-- Node7&#45;&gt;Node1 -->
<g id="edge6" class="edge">
<title>Node7&#45;&gt;Node1</title>
<path fill="none" stroke="#9a32cd" stroke-dasharray="5,2" d="M24.05,-235.3C16.39,-224.42 7.55,-209.68 3.54,-195 -3.44,-169.5 1.45,-92.75 9.54,-81 25.91,-57.21 53.62,-42.09 79.7,-32.61"/>
<polygon fill="#9a32cd" stroke="#9a32cd" points="21.31,-237.49 30.07,-243.45 26.94,-233.33 21.31,-237.49"/>
<text text-anchor="middle" x="27.04" y="-135.2" font-family="-apple-system,BlinkMacSystemFont,'SegoeUI',Roboto,Oxygen,Ubuntu,Cantarell,'FiraSans','DroidSans','HelveticaNeue',sans-serif" font-size="11.00"> _current</text>
<text text-anchor="middle" x="27.04" y="-123.2" font-family="-apple-system,BlinkMacSystemFont,'SegoeUI',Roboto,Oxygen,Ubuntu,Cantarell,'FiraSans','DroidSans','HelveticaNeue',sans-serif" font-size="11.00">_origin</text>
</g>
<!-- Node7&#45;&gt;Node3 -->
<g id="edge3" class="edge">
<title>Node7&#45;&gt;Node3</title>
<path fill="none" stroke="#9a32cd" stroke-dasharray="5,2" d="M35.44,-233.23C35.39,-226.62 36.09,-219.31 38.54,-213 42.26,-203.39 50.03,-194.66 56.59,-188.52"/>
<polygon fill="#9a32cd" stroke="#9a32cd" points="31.95,-233.61 36.07,-243.38 38.94,-233.18 31.95,-233.61"/>
<text text-anchor="middle" x="74.54" y="-216.2" font-family="-apple-system,BlinkMacSystemFont,'SegoeUI',Roboto,Oxygen,Ubuntu,Cantarell,'FiraSans','DroidSans','HelveticaNeue',sans-serif" font-size="11.00"> _SessionKey</text>
</g>
<!-- Node20 -->
<g id="node7" class="node">
<title>Node20</title>
<g id="a_node7"><a xlink:href="structMirai_1_1Group.html" target="_top" xlink:title="群聊资料">
<polygon fill="none" stroke="black" points="140.54,-168.5 140.54,-188.5 224.54,-188.5 224.54,-168.5 140.54,-168.5"/>
<text text-anchor="middle" x="182.54" y="-175.7" font-family="-apple-system,BlinkMacSystemFont,'SegoeUI',Roboto,Oxygen,Ubuntu,Cantarell,'FiraSans','DroidSans','HelveticaNeue',sans-serif" font-size="11.00">Mirai::Group</text>
</a>
</g>
</g>
<!-- Node7&#45;&gt;Node20 -->
<g id="edge9" class="edge">
<title>Node7&#45;&gt;Node20</title>
<path fill="none" stroke="#9a32cd" stroke-dasharray="5,2" d="M74.93,-240.07C86.55,-235.77 99.27,-230.61 110.54,-225 132.38,-214.13 155.98,-198.37 169.99,-188.54"/>
<polygon fill="#9a32cd" stroke="#9a32cd" points="73.71,-236.79 65.49,-243.47 76.08,-243.38 73.71,-236.79"/>
<text text-anchor="middle" x="149.04" y="-216.2" font-family="-apple-system,BlinkMacSystemFont,'SegoeUI',Roboto,Oxygen,Ubuntu,Cantarell,'FiraSans','DroidSans','HelveticaNeue',sans-serif" font-size="11.00"> name</text>
</g>
<!-- Node18 -->
<g id="node5" class="node">
<title>Node18</title>
<g id="a_node5"><a xlink:title="STL class">
<polygon fill="none" stroke="#bfbfbf" points="244.54,-81.5 244.54,-101.5 348.54,-101.5 348.54,-81.5 244.54,-81.5"/>
<text text-anchor="middle" x="296.54" y="-88.7" font-family="-apple-system,BlinkMacSystemFont,'SegoeUI',Roboto,Oxygen,Ubuntu,Cantarell,'FiraSans','DroidSans','HelveticaNeue',sans-serif" font-size="11.00">std::string_view</text>
</a>
</g>
</g>
<!-- Node18&#45;&gt;Node1 -->
<g id="edge4" class="edge">
<title>Node18&#45;&gt;Node1</title>
<path fill="none" stroke="#9a32cd" stroke-dasharray="5,2" d="M268.56,-77.06C242.33,-64.47 203.17,-45.66 175.89,-32.56"/>
<polygon fill="#9a32cd" stroke="#9a32cd" points="267.07,-80.23 277.59,-81.4 270.1,-73.92 267.07,-80.23"/>
<text text-anchor="middle" x="260.54" y="-54.2" font-family="-apple-system,BlinkMacSystemFont,'SegoeUI',Roboto,Oxygen,Ubuntu,Cantarell,'FiraSans','DroidSans','HelveticaNeue',sans-serif" font-size="11.00"> _TYPE_</text>
</g>
<!-- Node19 -->
<g id="node6" class="node">
<title>Node19</title>
<g id="a_node6"><a xlink:title="STL class">
<polygon fill="none" stroke="#bfbfbf" points="243.04,-162.5 243.04,-194.5 380.04,-194.5 380.04,-162.5 243.04,-162.5"/>
<text text-anchor="start" x="251.04" y="-181.7" font-family="-apple-system,BlinkMacSystemFont,'SegoeUI',Roboto,Oxygen,Ubuntu,Cantarell,'FiraSans','DroidSans','HelveticaNeue',sans-serif" font-size="11.00">std::basic_string_view</text>
<text text-anchor="middle" x="311.54" y="-169.7" font-family="-apple-system,BlinkMacSystemFont,'SegoeUI',Roboto,Oxygen,Ubuntu,Cantarell,'FiraSans','DroidSans','HelveticaNeue',sans-serif" font-size="11.00">&lt; char &gt;</text>
</a>
</g>
</g>
<!-- Node19&#45;&gt;Node18 -->
<g id="edge5" class="edge">
<title>Node19&#45;&gt;Node18</title>
<path fill="none" stroke="midnightblue" d="M307.11,-152.41C304.11,-135.39 300.31,-113.85 298.18,-101.79"/>
<polygon fill="midnightblue" stroke="midnightblue" points="303.67,-153.06 308.86,-162.3 310.57,-151.85 303.67,-153.06"/>
</g>
<!-- Node20&#45;&gt;Node1 -->
<g id="edge7" class="edge">
<title>Node20&#45;&gt;Node1</title>
<path fill="none" stroke="#9a32cd" stroke-dasharray="5,2" d="M178.04,-158.55C170.42,-126.46 155.12,-62.06 148.15,-32.7"/>
<polygon fill="#9a32cd" stroke="#9a32cd" points="174.67,-159.52 180.39,-168.44 181.48,-157.9 174.67,-159.52"/>
<text text-anchor="middle" x="185.04" y="-88.7" font-family="-apple-system,BlinkMacSystemFont,'SegoeUI',Roboto,Oxygen,Ubuntu,Cantarell,'FiraSans','DroidSans','HelveticaNeue',sans-serif" font-size="11.00"> _group</text>
</g>
<!-- Node12 -->
<g id="node8" class="node">
<title>Node12</title>
<g id="a_node8"><a xlink:href="classMirai_1_1Serializable.html" target="_top" xlink:title="Base class for all json serializable type">
<polygon fill="none" stroke="black" points="125.54,-243.5 125.54,-263.5 239.54,-263.5 239.54,-243.5 125.54,-243.5"/>
<text text-anchor="middle" x="182.54" y="-250.7" font-family="-apple-system,BlinkMacSystemFont,'SegoeUI',Roboto,Oxygen,Ubuntu,Cantarell,'FiraSans','DroidSans','HelveticaNeue',sans-serif" font-size="11.00">Mirai::Serializable</text>
</a>
</g>
</g>
<!-- Node12&#45;&gt;Node20 -->
<g id="edge8" class="edge">
<title>Node12&#45;&gt;Node20</title>
<path fill="none" stroke="midnightblue" d="M182.54,-233C182.54,-218.73 182.54,-199.99 182.54,-188.9"/>
<polygon fill="midnightblue" stroke="midnightblue" points="179.04,-233.25 182.54,-243.25 186.04,-233.25 179.04,-233.25"/>
</g>
<!-- Node21 -->
<g id="node9" class="node">
<title>Node21</title>
<g id="a_node9"><a xlink:href="classMirai_1_1GID__t.html" target="_top" xlink:title="群聊号码类型">
<polygon fill="none" stroke="red" points="257.54,-243.5 257.54,-263.5 337.54,-263.5 337.54,-243.5 257.54,-243.5"/>
<text text-anchor="middle" x="297.54" y="-250.7" font-family="-apple-system,BlinkMacSystemFont,'SegoeUI',Roboto,Oxygen,Ubuntu,Cantarell,'FiraSans','DroidSans','HelveticaNeue',sans-serif" font-size="11.00">Mirai::GID_t</text>
</a>
</g>
</g>
<!-- Node21&#45;&gt;Node20 -->
<g id="edge10" class="edge">
<title>Node21&#45;&gt;Node20</title>
<path fill="none" stroke="#9a32cd" stroke-dasharray="5,2" d="M274.45,-237.84C251.32,-223.16 216.45,-201.03 196.98,-188.67"/>
<polygon fill="#9a32cd" stroke="#9a32cd" points="272.65,-240.85 282.97,-243.25 276.41,-234.94 272.65,-240.85"/>
<text text-anchor="middle" x="261.54" y="-216.2" font-family="-apple-system,BlinkMacSystemFont,'SegoeUI',Roboto,Oxygen,Ubuntu,Cantarell,'FiraSans','DroidSans','HelveticaNeue',sans-serif" font-size="11.00"> id</text>
</g>
</g>
</svg>
