<?xml version="1.0" encoding="UTF-8" standalone="no"?>
<!DOCTYPE svg PUBLIC "-//W3C//DTD SVG 1.1//EN"
 "http://www.w3.org/Graphics/SVG/1.1/DTD/svg11.dtd">
<!-- Generated by graphviz version 2.43.0 (0)
 -->
<!-- Title: Mirai::ForwardMessage Pages: 1 -->
<svg width="396pt" height="246pt"
 viewBox="0.00 0.00 396.00 246.00" xmlns="http://www.w3.org/2000/svg" xmlns:xlink="http://www.w3.org/1999/xlink">
<g id="graph0" class="graph" transform="scale(1 1) rotate(0) translate(4 242)">
<title>Mirai::ForwardMessage</title>
<!-- Node1 -->
<g id="node1" class="node">
<title>Node1</title>
<g id="a_node1"><a xlink:title="合并转发消息">
<polygon fill="#bfbfbf" stroke="black" points="88.5,-0.5 88.5,-20.5 232.5,-20.5 232.5,-0.5 88.5,-0.5"/>
<text text-anchor="middle" x="160.5" y="-7.7" font-family="-apple-system,BlinkMacSystemFont,'SegoeUI',Roboto,Oxygen,Ubuntu,Cantarell,'FiraSans','DroidSans','HelveticaNeue',sans-serif" font-size="11.00">Mirai::ForwardMessage</text>
</a>
</g>
</g>
<!-- Node2 -->
<g id="node2" class="node">
<title>Node2</title>
<g id="a_node2"><a xlink:href="classMirai_1_1MessageBase.html" target="_top" xlink:title="Base class for all message types">
<polygon fill="none" stroke="black" points="0,-108.5 0,-128.5 127,-128.5 127,-108.5 0,-108.5"/>
<text text-anchor="middle" x="63.5" y="-115.7" font-family="-apple-system,BlinkMacSystemFont,'SegoeUI',Roboto,Oxygen,Ubuntu,Cantarell,'FiraSans','DroidSans','HelveticaNeue',sans-serif" font-size="11.00">Mirai::MessageBase</text>
</a>
</g>
</g>
<!-- Node2&#45;&gt;Node1 -->
<g id="edge1" class="edge">
<title>Node2&#45;&gt;Node1</title>
<path fill="none" stroke="midnightblue" d="M69.63,-98.48C73.28,-89 78.56,-77.73 85.5,-69 102.03,-48.19 127.67,-30.69 144.28,-20.65"/>
<polygon fill="midnightblue" stroke="midnightblue" points="66.23,-97.59 66.21,-108.19 72.83,-99.92 66.23,-97.59"/>
</g>
<!-- Node3 -->
<g id="node3" class="node">
<title>Node3</title>
<g id="a_node3"><a xlink:href="classMirai_1_1Serializable.html" target="_top" xlink:title="Base class for all json serializable type">
<polygon fill="none" stroke="black" points="15.5,-217.5 15.5,-237.5 129.5,-237.5 129.5,-217.5 15.5,-217.5"/>
<text text-anchor="middle" x="72.5" y="-224.7" font-family="-apple-system,BlinkMacSystemFont,'SegoeUI',Roboto,Oxygen,Ubuntu,Cantarell,'FiraSans','DroidSans','HelveticaNeue',sans-serif" font-size="11.00">Mirai::Serializable</text>
</a>
</g>
</g>
<!-- Node3&#45;&gt;Node2 -->
<g id="edge2" class="edge">
<title>Node3&#45;&gt;Node2</title>
<path fill="none" stroke="midnightblue" d="M70.89,-207.34C68.93,-184.12 65.73,-145.95 64.27,-128.6"/>
<polygon fill="midnightblue" stroke="midnightblue" points="67.41,-207.71 71.73,-217.38 74.38,-207.12 67.41,-207.71"/>
</g>
<!-- Node5 -->
<g id="node5" class="node">
<title>Node5</title>
<g id="a_node5"><a xlink:href="classMirai_1_1ForwardMessage_1_1Node.html" target="_top" xlink:title="转发消息节点，代表一条转发消息">
<polygon fill="none" stroke="red" points="88.5,-147.5 88.5,-179.5 232.5,-179.5 232.5,-147.5 88.5,-147.5"/>
<text text-anchor="start" x="96.5" y="-166.7" font-family="-apple-system,BlinkMacSystemFont,'SegoeUI',Roboto,Oxygen,Ubuntu,Cantarell,'FiraSans','DroidSans','HelveticaNeue',sans-serif" font-size="11.00">Mirai::ForwardMessage</text>
<text text-anchor="middle" x="160.5" y="-154.7" font-family="-apple-system,BlinkMacSystemFont,'SegoeUI',Roboto,Oxygen,Ubuntu,Cantarell,'FiraSans','DroidSans','HelveticaNeue',sans-serif" font-size="11.00">::Node</text>
</a>
</g>
</g>
<!-- Node3&#45;&gt;Node5 -->
<g id="edge5" class="edge">
<title>Node3&#45;&gt;Node5</title>
<path fill="none" stroke="midnightblue" d="M93.81,-211.49C107.49,-201.85 125.2,-189.37 138.93,-179.7"/>
<polygon fill="midnightblue" stroke="midnightblue" points="91.64,-208.73 85.48,-217.35 95.68,-214.45 91.64,-208.73"/>
</g>
<!-- Node4 -->
<g id="node4" class="node">
<title>Node4</title>
<g id="a_node4"><a xlink:title=" ">
<polygon fill="none" stroke="#bfbfbf" points="95,-69.5 95,-89.5 226,-89.5 226,-69.5 95,-69.5"/>
<text text-anchor="middle" x="160.5" y="-76.7" font-family="-apple-system,BlinkMacSystemFont,'SegoeUI',Roboto,Oxygen,Ubuntu,Cantarell,'FiraSans','DroidSans','HelveticaNeue',sans-serif" font-size="11.00">std::vector&lt; Node &gt;</text>
</a>
</g>
</g>
<!-- Node4&#45;&gt;Node1 -->
<g id="edge3" class="edge">
<title>Node4&#45;&gt;Node1</title>
<path fill="none" stroke="#9a32cd" stroke-dasharray="5,2" d="M160.5,-59.08C160.5,-46.5 160.5,-30.68 160.5,-20.82"/>
<polygon fill="#9a32cd" stroke="#9a32cd" points="157,-59.46 160.5,-69.46 164,-59.46 157,-59.46"/>
<text text-anchor="middle" x="189.5" y="-42.2" font-family="-apple-system,BlinkMacSystemFont,'SegoeUI',Roboto,Oxygen,Ubuntu,Cantarell,'FiraSans','DroidSans','HelveticaNeue',sans-serif" font-size="11.00"> _NodeList</text>
</g>
<!-- Node5&#45;&gt;Node4 -->
<g id="edge4" class="edge">
<title>Node5&#45;&gt;Node4</title>
<path fill="none" stroke="#9a32cd" stroke-dasharray="5,2" d="M160.5,-137.1C160.5,-121.05 160.5,-101.25 160.5,-89.83"/>
<polygon fill="#9a32cd" stroke="#9a32cd" points="157,-137.46 160.5,-147.46 164,-137.46 157,-137.46"/>
<text text-anchor="middle" x="188" y="-115.7" font-family="-apple-system,BlinkMacSystemFont,'SegoeUI',Roboto,Oxygen,Ubuntu,Cantarell,'FiraSans','DroidSans','HelveticaNeue',sans-serif" font-size="11.00"> elements</text>
</g>
<!-- Node13 -->
<g id="node6" class="node">
<title>Node13</title>
<g id="a_node6"><a xlink:title="STL class">
<polygon fill="none" stroke="#bfbfbf" points="256.5,-69.5 256.5,-89.5 360.5,-89.5 360.5,-69.5 256.5,-69.5"/>
<text text-anchor="middle" x="308.5" y="-76.7" font-family="-apple-system,BlinkMacSystemFont,'SegoeUI',Roboto,Oxygen,Ubuntu,Cantarell,'FiraSans','DroidSans','HelveticaNeue',sans-serif" font-size="11.00">std::string_view</text>
</a>
</g>
</g>
<!-- Node13&#45;&gt;Node1 -->
<g id="edge6" class="edge">
<title>Node13&#45;&gt;Node1</title>
<path fill="none" stroke="#9a32cd" stroke-dasharray="5,2" d="M279.84,-65.22C263.13,-57.51 241.65,-47.65 222.5,-39 208.76,-32.8 193.26,-25.92 181.2,-20.6"/>
<polygon fill="#9a32cd" stroke="#9a32cd" points="278.52,-68.47 289.06,-69.49 281.45,-62.11 278.52,-68.47"/>
<text text-anchor="middle" x="270.5" y="-42.2" font-family="-apple-system,BlinkMacSystemFont,'SegoeUI',Roboto,Oxygen,Ubuntu,Cantarell,'FiraSans','DroidSans','HelveticaNeue',sans-serif" font-size="11.00"> _TYPE_</text>
</g>
<!-- Node14 -->
<g id="node7" class="node">
<title>Node14</title>
<g id="a_node7"><a xlink:title="STL class">
<polygon fill="none" stroke="#bfbfbf" points="251,-147.5 251,-179.5 388,-179.5 388,-147.5 251,-147.5"/>
<text text-anchor="start" x="259" y="-166.7" font-family="-apple-system,BlinkMacSystemFont,'SegoeUI',Roboto,Oxygen,Ubuntu,Cantarell,'FiraSans','DroidSans','HelveticaNeue',sans-serif" font-size="11.00">std::basic_string_view</text>
<text text-anchor="middle" x="319.5" y="-154.7" font-family="-apple-system,BlinkMacSystemFont,'SegoeUI',Roboto,Oxygen,Ubuntu,Cantarell,'FiraSans','DroidSans','HelveticaNeue',sans-serif" font-size="11.00">&lt; char &gt;</text>
</a>
</g>
</g>
<!-- Node14&#45;&gt;Node13 -->
<g id="edge7" class="edge">
<title>Node14&#45;&gt;Node13</title>
<path fill="none" stroke="midnightblue" d="M316.09,-137.1C313.94,-121.05 311.28,-101.25 309.75,-89.83"/>
<polygon fill="midnightblue" stroke="midnightblue" points="312.68,-138.01 317.48,-147.46 319.62,-137.08 312.68,-138.01"/>
</g>
</g>
</svg>
