<?xml version="1.0" encoding="UTF-8" standalone="no"?>
<!DOCTYPE svg PUBLIC "-//W3C//DTD SVG 1.1//EN"
 "http://www.w3.org/Graphics/SVG/1.1/DTD/svg11.dtd">
<!-- Generated by graphviz version 2.43.0 (0)
 -->
<!-- Title: Mirai::EventBase Pages: 1 -->
<svg width="823pt" height="360pt"
 viewBox="0.00 0.00 823.00 359.50" xmlns="http://www.w3.org/2000/svg" xmlns:xlink="http://www.w3.org/1999/xlink">
<g id="graph0" class="graph" transform="scale(1 1) rotate(0) translate(4 355.5)">
<title>Mirai::EventBase</title>
<!-- Node1 -->
<g id="node1" class="node">
<title>Node1</title>
<g id="a_node1"><a xlink:title="Base class for all event types">
<polygon fill="#bfbfbf" stroke="black" points="705,-175.5 705,-195.5 815,-195.5 815,-175.5 705,-175.5"/>
<text text-anchor="middle" x="760" y="-182.7" font-family="-apple-system,BlinkMacSystemFont,'SegoeUI',Roboto,Oxygen,Ubuntu,Cantarell,'FiraSans','DroidSans','HelveticaNeue',sans-serif" font-size="11.00">Mirai::EventBase</text>
</a>
</g>
</g>
<!-- Node2 -->
<g id="node2" class="node">
<title>Node2</title>
<g id="a_node2"><a xlink:href="classMirai_1_1MiraiClient.html" target="_top" xlink:title="提供与mirai&#45;api&#45;http网络交互的封装">
<polygon fill="none" stroke="black" points="519,-175.5 519,-195.5 629,-195.5 629,-175.5 519,-175.5"/>
<text text-anchor="middle" x="574" y="-182.7" font-family="-apple-system,BlinkMacSystemFont,'SegoeUI',Roboto,Oxygen,Ubuntu,Cantarell,'FiraSans','DroidSans','HelveticaNeue',sans-serif" font-size="11.00">Mirai::MiraiClient</text>
</a>
</g>
</g>
<!-- Node2&#45;&gt;Node1 -->
<g id="edge1" class="edge">
<title>Node2&#45;&gt;Node1</title>
<path fill="none" stroke="#9a32cd" stroke-dasharray="5,2" d="M639.49,-185.5C660.84,-185.5 684.37,-185.5 704.86,-185.5"/>
<polygon fill="#9a32cd" stroke="#9a32cd" points="639.21,-182 629.21,-185.5 639.21,-189 639.21,-182"/>
<text text-anchor="middle" x="667" y="-188.7" font-family="-apple-system,BlinkMacSystemFont,'SegoeUI',Roboto,Oxygen,Ubuntu,Cantarell,'FiraSans','DroidSans','HelveticaNeue',sans-serif" font-size="11.00"> _client</text>
</g>
<!-- Node3 -->
<g id="node3" class="node">
<title>Node3</title>
<g id="a_node3"><a xlink:href="structMirai_1_1SessionConfigs.html" target="_top" xlink:title="连接mirai&#45;api&#45;http的配置">
<polygon fill="none" stroke="red" points="221.5,-294.5 221.5,-314.5 355.5,-314.5 355.5,-294.5 221.5,-294.5"/>
<text text-anchor="middle" x="288.5" y="-301.7" font-family="-apple-system,BlinkMacSystemFont,'SegoeUI',Roboto,Oxygen,Ubuntu,Cantarell,'FiraSans','DroidSans','HelveticaNeue',sans-serif" font-size="11.00">Mirai::SessionConfigs</text>
</a>
</g>
</g>
<!-- Node3&#45;&gt;Node2 -->
<g id="edge2" class="edge">
<title>Node3&#45;&gt;Node2</title>
<path fill="none" stroke="#9a32cd" stroke-dasharray="5,2" d="M365.84,-295.77C407.86,-288.48 459.69,-275.27 501,-251.5 527.16,-236.45 551.75,-210.42 564.31,-195.95"/>
<polygon fill="#9a32cd" stroke="#9a32cd" points="365.23,-292.32 355.94,-297.41 366.37,-299.23 365.23,-292.32"/>
<text text-anchor="middle" x="455.5" y="-288.7" font-family="-apple-system,BlinkMacSystemFont,'SegoeUI',Roboto,Oxygen,Ubuntu,Cantarell,'FiraSans','DroidSans','HelveticaNeue',sans-serif" font-size="11.00"> _config</text>
</g>
<!-- Node6 -->
<g id="node4" class="node">
<title>Node6</title>
<g id="a_node4"><a xlink:title="STL class">
<polygon fill="none" stroke="#bfbfbf" points="0,-263.5 0,-283.5 73,-283.5 73,-263.5 0,-263.5"/>
<text text-anchor="middle" x="36.5" y="-270.7" font-family="-apple-system,BlinkMacSystemFont,'SegoeUI',Roboto,Oxygen,Ubuntu,Cantarell,'FiraSans','DroidSans','HelveticaNeue',sans-serif" font-size="11.00">std::string</text>
</a>
</g>
</g>
<!-- Node6&#45;&gt;Node2 -->
<g id="edge10" class="edge">
<title>Node6&#45;&gt;Node2</title>
<path fill="none" stroke="#9a32cd" stroke-dasharray="5,2" d="M49.16,-292.51C58.58,-305.91 73.19,-322.79 91,-330.5 115.43,-341.08 201.75,-346.92 392,-324.5 441.17,-318.71 460.46,-329.93 501,-301.5 539.81,-274.28 561.93,-218.79 569.74,-195.82"/>
<polygon fill="#9a32cd" stroke="#9a32cd" points="51.93,-290.35 43.49,-283.94 46.09,-294.21 51.93,-290.35"/>
<text text-anchor="middle" x="288.5" y="-342.7" font-family="-apple-system,BlinkMacSystemFont,'SegoeUI',Roboto,Oxygen,Ubuntu,Cantarell,'FiraSans','DroidSans','HelveticaNeue',sans-serif" font-size="11.00"> _SessionKey</text>
</g>
<!-- Node6&#45;&gt;Node3 -->
<g id="edge3" class="edge">
<title>Node6&#45;&gt;Node3</title>
<path fill="none" stroke="#9a32cd" stroke-dasharray="5,2" d="M83.27,-280.44C85.88,-280.81 88.47,-281.16 91,-281.5 134.41,-287.28 183.32,-293.01 221.49,-297.3"/>
<polygon fill="#9a32cd" stroke="#9a32cd" points="83.56,-276.95 73.16,-278.99 82.56,-283.88 83.56,-276.95"/>
<text text-anchor="middle" x="129" y="-317.7" font-family="-apple-system,BlinkMacSystemFont,'SegoeUI',Roboto,Oxygen,Ubuntu,Cantarell,'FiraSans','DroidSans','HelveticaNeue',sans-serif" font-size="11.00"> VerifyKey</text>
<text text-anchor="middle" x="129" y="-305.7" font-family="-apple-system,BlinkMacSystemFont,'SegoeUI',Roboto,Oxygen,Ubuntu,Cantarell,'FiraSans','DroidSans','HelveticaNeue',sans-serif" font-size="11.00">HttpUrl</text>
<text text-anchor="middle" x="129" y="-293.7" font-family="-apple-system,BlinkMacSystemFont,'SegoeUI',Roboto,Oxygen,Ubuntu,Cantarell,'FiraSans','DroidSans','HelveticaNeue',sans-serif" font-size="11.00">WebsocketUrl</text>
</g>
<!-- Node8 -->
<g id="node5" class="node">
<title>Node8</title>
<g id="a_node5"><a xlink:href="structMirai_1_1ClientConnectionEstablishedEvent.html" target="_top" xlink:title="连接建立事件">
<polygon fill="none" stroke="red" points="185,-243.5 185,-275.5 392,-275.5 392,-243.5 185,-243.5"/>
<text text-anchor="start" x="193" y="-262.7" font-family="-apple-system,BlinkMacSystemFont,'SegoeUI',Roboto,Oxygen,Ubuntu,Cantarell,'FiraSans','DroidSans','HelveticaNeue',sans-serif" font-size="11.00">Mirai::ClientConnectionEstablished</text>
<text text-anchor="middle" x="288.5" y="-250.7" font-family="-apple-system,BlinkMacSystemFont,'SegoeUI',Roboto,Oxygen,Ubuntu,Cantarell,'FiraSans','DroidSans','HelveticaNeue',sans-serif" font-size="11.00">Event</text>
</a>
</g>
</g>
<!-- Node6&#45;&gt;Node8 -->
<g id="edge5" class="edge">
<title>Node6&#45;&gt;Node8</title>
<path fill="none" stroke="#9a32cd" stroke-dasharray="5,2" d="M60.9,-258.13C69.93,-253.06 80.57,-248.06 91,-245.5 130.69,-235.74 176.14,-238.14 213.33,-243.48"/>
<polygon fill="#9a32cd" stroke="#9a32cd" points="58.96,-255.21 52.17,-263.34 62.55,-261.22 58.96,-255.21"/>
<text text-anchor="middle" x="129" y="-272.7" font-family="-apple-system,BlinkMacSystemFont,'SegoeUI',Roboto,Oxygen,Ubuntu,Cantarell,'FiraSans','DroidSans','HelveticaNeue',sans-serif" font-size="11.00"> protocol</text>
<text text-anchor="middle" x="129" y="-260.7" font-family="-apple-system,BlinkMacSystemFont,'SegoeUI',Roboto,Oxygen,Ubuntu,Cantarell,'FiraSans','DroidSans','HelveticaNeue',sans-serif" font-size="11.00">uri</text>
<text text-anchor="middle" x="129" y="-248.7" font-family="-apple-system,BlinkMacSystemFont,'SegoeUI',Roboto,Oxygen,Ubuntu,Cantarell,'FiraSans','DroidSans','HelveticaNeue',sans-serif" font-size="11.00">SessionKey</text>
</g>
<!-- Node13 -->
<g id="node7" class="node">
<title>Node13</title>
<g id="a_node7"><a xlink:title=" ">
<polygon fill="none" stroke="#bfbfbf" points="198.5,-192.5 198.5,-224.5 378.5,-224.5 378.5,-192.5 198.5,-192.5"/>
<text text-anchor="start" x="206.5" y="-211.7" font-family="-apple-system,BlinkMacSystemFont,'SegoeUI',Roboto,Oxygen,Ubuntu,Cantarell,'FiraSans','DroidSans','HelveticaNeue',sans-serif" font-size="11.00">std::unordered_map</text>
<text text-anchor="middle" x="288.5" y="-199.7" font-family="-apple-system,BlinkMacSystemFont,'SegoeUI',Roboto,Oxygen,Ubuntu,Cantarell,'FiraSans','DroidSans','HelveticaNeue',sans-serif" font-size="11.00">&lt; std::string, EventHandler &gt;</text>
</a>
</g>
</g>
<!-- Node6&#45;&gt;Node13 -->
<g id="edge8" class="edge">
<title>Node6&#45;&gt;Node13</title>
<path fill="none" stroke="#9a32cd" stroke-dasharray="5,2" d="M51.05,-255.24C60.77,-243.67 74.95,-229.6 91,-222.5 124.16,-207.84 163.55,-202.92 198.32,-202.19"/>
<polygon fill="#9a32cd" stroke="#9a32cd" points="48.3,-253.09 44.8,-263.09 53.77,-257.45 48.3,-253.09"/>
<text text-anchor="middle" x="129" y="-225.7" font-family="-apple-system,BlinkMacSystemFont,'SegoeUI',Roboto,Oxygen,Ubuntu,Cantarell,'FiraSans','DroidSans','HelveticaNeue',sans-serif" font-size="11.00"> keys</text>
</g>
<!-- Node8&#45;&gt;Node2 -->
<g id="edge4" class="edge">
<title>Node8&#45;&gt;Node2</title>
<path fill="none" stroke="#9a32cd" stroke-dasharray="5,2" d="M388,-241.42C423.89,-233.96 464.58,-224.47 501,-213.5 517.69,-208.47 536,-201.33 549.98,-195.52"/>
<polygon fill="#9a32cd" stroke="#9a32cd" points="387.1,-238.03 378.01,-243.47 388.51,-244.89 387.1,-238.03"/>
<text text-anchor="middle" x="455.5" y="-238.7" font-family="-apple-system,BlinkMacSystemFont,'SegoeUI',Roboto,Oxygen,Ubuntu,Cantarell,'FiraSans','DroidSans','HelveticaNeue',sans-serif" font-size="11.00"> _HandshakeInfo</text>
</g>
<!-- Node12 -->
<g id="node6" class="node">
<title>Node12</title>
<g id="a_node6"><a xlink:title="STL class">
<polygon fill="none" stroke="#bfbfbf" points="250,-153.5 250,-173.5 327,-173.5 327,-153.5 250,-153.5"/>
<text text-anchor="middle" x="288.5" y="-160.7" font-family="-apple-system,BlinkMacSystemFont,'SegoeUI',Roboto,Oxygen,Ubuntu,Cantarell,'FiraSans','DroidSans','HelveticaNeue',sans-serif" font-size="11.00">std::mutex</text>
</a>
</g>
</g>
<!-- Node12&#45;&gt;Node2 -->
<g id="edge6" class="edge">
<title>Node12&#45;&gt;Node2</title>
<path fill="none" stroke="#9a32cd" stroke-dasharray="5,2" d="M337.28,-162.27C380.27,-161.78 445.1,-162.56 501,-169.5 511.93,-170.86 523.64,-173.11 534.37,-175.5"/>
<polygon fill="#9a32cd" stroke="#9a32cd" points="337.05,-158.78 327.1,-162.42 337.15,-165.78 337.05,-158.78"/>
<text text-anchor="middle" x="455.5" y="-172.7" font-family="-apple-system,BlinkMacSystemFont,'SegoeUI',Roboto,Oxygen,Ubuntu,Cantarell,'FiraSans','DroidSans','HelveticaNeue',sans-serif" font-size="11.00"> _mtx</text>
</g>
<!-- Node13&#45;&gt;Node2 -->
<g id="edge7" class="edge">
<title>Node13&#45;&gt;Node2</title>
<path fill="none" stroke="#9a32cd" stroke-dasharray="5,2" d="M388.9,-200.44C432.54,-196.9 482.08,-192.88 518.78,-189.9"/>
<polygon fill="#9a32cd" stroke="#9a32cd" points="388.5,-196.96 378.81,-201.25 389.06,-203.93 388.5,-196.96"/>
<text text-anchor="middle" x="455.5" y="-200.7" font-family="-apple-system,BlinkMacSystemFont,'SegoeUI',Roboto,Oxygen,Ubuntu,Cantarell,'FiraSans','DroidSans','HelveticaNeue',sans-serif" font-size="11.00"> _EventHandlers</text>
</g>
<!-- Node14 -->
<g id="node8" class="node">
<title>Node14</title>
<g id="a_node8"><a xlink:title=" ">
<polygon fill="none" stroke="#bfbfbf" points="220,-102.5 220,-134.5 357,-134.5 357,-102.5 220,-102.5"/>
<text text-anchor="start" x="228" y="-121.7" font-family="-apple-system,BlinkMacSystemFont,'SegoeUI',Roboto,Oxygen,Ubuntu,Cantarell,'FiraSans','DroidSans','HelveticaNeue',sans-serif" font-size="11.00">std::unique_ptr&lt; Utils</text>
<text text-anchor="middle" x="288.5" y="-109.7" font-family="-apple-system,BlinkMacSystemFont,'SegoeUI',Roboto,Oxygen,Ubuntu,Cantarell,'FiraSans','DroidSans','HelveticaNeue',sans-serif" font-size="11.00">::ThreadPool &gt;</text>
</a>
</g>
</g>
<!-- Node14&#45;&gt;Node2 -->
<g id="edge9" class="edge">
<title>Node14&#45;&gt;Node2</title>
<path fill="none" stroke="#9a32cd" stroke-dasharray="5,2" d="M367.21,-122C407.85,-125.51 457.97,-132.53 501,-146.5 522.09,-153.35 544.21,-166.33 558.28,-175.43"/>
<polygon fill="#9a32cd" stroke="#9a32cd" points="367.34,-118.5 357.09,-121.18 366.77,-125.47 367.34,-118.5"/>
<text text-anchor="middle" x="455.5" y="-149.7" font-family="-apple-system,BlinkMacSystemFont,'SegoeUI',Roboto,Oxygen,Ubuntu,Cantarell,'FiraSans','DroidSans','HelveticaNeue',sans-serif" font-size="11.00"> _ThreadPool</text>
</g>
<!-- Node15 -->
<g id="node9" class="node">
<title>Node15</title>
<g id="a_node9"><a xlink:title=" ">
<polygon fill="none" stroke="#bfbfbf" points="213.5,-51.5 213.5,-83.5 363.5,-83.5 363.5,-51.5 213.5,-51.5"/>
<text text-anchor="start" x="221.5" y="-70.7" font-family="-apple-system,BlinkMacSystemFont,'SegoeUI',Roboto,Oxygen,Ubuntu,Cantarell,'FiraSans','DroidSans','HelveticaNeue',sans-serif" font-size="11.00">std::unique_ptr&lt; Details</text>
<text text-anchor="middle" x="288.5" y="-58.7" font-family="-apple-system,BlinkMacSystemFont,'SegoeUI',Roboto,Oxygen,Ubuntu,Cantarell,'FiraSans','DroidSans','HelveticaNeue',sans-serif" font-size="11.00">::HttpClientImpl &gt;</text>
</a>
</g>
</g>
<!-- Node15&#45;&gt;Node2 -->
<g id="edge11" class="edge">
<title>Node15&#45;&gt;Node2</title>
<path fill="none" stroke="#9a32cd" stroke-dasharray="5,2" d="M373.8,-73.51C414.24,-79.19 462.21,-90.2 501,-111.5 530.07,-127.46 554.72,-159 566.17,-175.26"/>
<polygon fill="#9a32cd" stroke="#9a32cd" points="374.06,-70.01 363.69,-72.17 373.15,-76.95 374.06,-70.01"/>
<text text-anchor="middle" x="455.5" y="-114.7" font-family="-apple-system,BlinkMacSystemFont,'SegoeUI',Roboto,Oxygen,Ubuntu,Cantarell,'FiraSans','DroidSans','HelveticaNeue',sans-serif" font-size="11.00"> _HttpClient</text>
</g>
<!-- Node16 -->
<g id="node10" class="node">
<title>Node16</title>
<g id="a_node10"><a xlink:title=" ">
<polygon fill="none" stroke="#bfbfbf" points="213.5,-0.5 213.5,-32.5 363.5,-32.5 363.5,-0.5 213.5,-0.5"/>
<text text-anchor="start" x="221.5" y="-19.7" font-family="-apple-system,BlinkMacSystemFont,'SegoeUI',Roboto,Oxygen,Ubuntu,Cantarell,'FiraSans','DroidSans','HelveticaNeue',sans-serif" font-size="11.00">std::unique_ptr&lt; Details</text>
<text text-anchor="middle" x="288.5" y="-7.7" font-family="-apple-system,BlinkMacSystemFont,'SegoeUI',Roboto,Oxygen,Ubuntu,Cantarell,'FiraSans','DroidSans','HelveticaNeue',sans-serif" font-size="11.00">::MessageClientImpl &gt;</text>
</a>
</g>
</g>
<!-- Node16&#45;&gt;Node2 -->
<g id="edge12" class="edge">
<title>Node16&#45;&gt;Node2</title>
<path fill="none" stroke="#9a32cd" stroke-dasharray="5,2" d="M373.65,-19.67C415.27,-24.88 464.31,-36.85 501,-63.5 541.2,-92.69 562.79,-151.78 570.11,-175.4"/>
<polygon fill="#9a32cd" stroke="#9a32cd" points="373.85,-16.17 363.52,-18.51 373.06,-23.12 373.85,-16.17"/>
<text text-anchor="middle" x="455.5" y="-66.7" font-family="-apple-system,BlinkMacSystemFont,'SegoeUI',Roboto,Oxygen,Ubuntu,Cantarell,'FiraSans','DroidSans','HelveticaNeue',sans-serif" font-size="11.00"> _MessageClient</text>
</g>
</g>
</svg>
