<?xml version="1.0" encoding="UTF-8" standalone="no"?>
<!DOCTYPE svg PUBLIC "-//W3C//DTD SVG 1.1//EN"
 "http://www.w3.org/Graphics/SVG/1.1/DTD/svg11.dtd">
<!-- Generated by graphviz version 2.43.0 (0)
 -->
<!-- Title: Mirai::MusicShareMessage Pages: 1 -->
<svg width="414pt" height="228pt"
 viewBox="0.00 0.00 413.50 228.00" xmlns="http://www.w3.org/2000/svg" xmlns:xlink="http://www.w3.org/1999/xlink">
<g id="graph0" class="graph" transform="scale(1 1) rotate(0) translate(4 224)">
<title>Mirai::MusicShareMessage</title>
<!-- Node1 -->
<g id="node1" class="node">
<title>Node1</title>
<g id="a_node1"><a xlink:title="音乐分享卡片消息">
<polygon fill="#bfbfbf" stroke="black" points="121,-0.5 121,-20.5 284,-20.5 284,-0.5 121,-0.5"/>
<text text-anchor="middle" x="202.5" y="-7.7" font-family="-apple-system,BlinkMacSystemFont,'SegoeUI',Roboto,Oxygen,Ubuntu,Cantarell,'FiraSans','DroidSans','HelveticaNeue',sans-serif" font-size="11.00">Mirai::MusicShareMessage</text>
</a>
</g>
</g>
<!-- Node2 -->
<g id="node2" class="node">
<title>Node2</title>
<g id="a_node2"><a xlink:href="classMirai_1_1MessageBase.html" target="_top" xlink:title="Base class for all message types">
<polygon fill="none" stroke="black" points="0,-129.5 0,-149.5 127,-149.5 127,-129.5 0,-129.5"/>
<text text-anchor="middle" x="63.5" y="-136.7" font-family="-apple-system,BlinkMacSystemFont,'SegoeUI',Roboto,Oxygen,Ubuntu,Cantarell,'FiraSans','DroidSans','HelveticaNeue',sans-serif" font-size="11.00">Mirai::MessageBase</text>
</a>
</g>
</g>
<!-- Node2&#45;&gt;Node1 -->
<g id="edge1" class="edge">
<title>Node2&#45;&gt;Node1</title>
<path fill="none" stroke="midnightblue" d="M80.99,-122.52C110.5,-95.56 169.24,-41.89 192.59,-20.55"/>
<polygon fill="midnightblue" stroke="midnightblue" points="78.52,-120.04 73.5,-129.37 83.24,-125.21 78.52,-120.04"/>
</g>
<!-- Node3 -->
<g id="node3" class="node">
<title>Node3</title>
<g id="a_node3"><a xlink:href="classMirai_1_1Serializable.html" target="_top" xlink:title="Base class for all json serializable type">
<polygon fill="none" stroke="black" points="1.5,-193.5 1.5,-213.5 115.5,-213.5 115.5,-193.5 1.5,-193.5"/>
<text text-anchor="middle" x="58.5" y="-200.7" font-family="-apple-system,BlinkMacSystemFont,'SegoeUI',Roboto,Oxygen,Ubuntu,Cantarell,'FiraSans','DroidSans','HelveticaNeue',sans-serif" font-size="11.00">Mirai::Serializable</text>
</a>
</g>
</g>
<!-- Node3&#45;&gt;Node2 -->
<g id="edge2" class="edge">
<title>Node3&#45;&gt;Node2</title>
<path fill="none" stroke="midnightblue" d="M60.05,-183.23C60.96,-172.06 62.05,-158.49 62.76,-149.69"/>
<polygon fill="midnightblue" stroke="midnightblue" points="56.55,-183.1 59.24,-193.35 63.53,-183.67 56.55,-183.1"/>
</g>
<!-- Node4 -->
<g id="node4" class="node">
<title>Node4</title>
<g id="a_node4"><a xlink:title="STL class">
<polygon fill="none" stroke="#bfbfbf" points="150.5,-129.5 150.5,-149.5 254.5,-149.5 254.5,-129.5 150.5,-129.5"/>
<text text-anchor="middle" x="202.5" y="-136.7" font-family="-apple-system,BlinkMacSystemFont,'SegoeUI',Roboto,Oxygen,Ubuntu,Cantarell,'FiraSans','DroidSans','HelveticaNeue',sans-serif" font-size="11.00">std::string_view</text>
</a>
</g>
</g>
<!-- Node4&#45;&gt;Node1 -->
<g id="edge3" class="edge">
<title>Node4&#45;&gt;Node1</title>
<path fill="none" stroke="#9a32cd" stroke-dasharray="5,2" d="M202.5,-119.29C202.5,-91.48 202.5,-41.07 202.5,-20.55"/>
<polygon fill="#9a32cd" stroke="#9a32cd" points="199,-119.37 202.5,-129.37 206,-119.37 199,-119.37"/>
<text text-anchor="middle" x="223.5" y="-72.2" font-family="-apple-system,BlinkMacSystemFont,'SegoeUI',Roboto,Oxygen,Ubuntu,Cantarell,'FiraSans','DroidSans','HelveticaNeue',sans-serif" font-size="11.00"> _TYPE_</text>
</g>
<!-- Node5 -->
<g id="node5" class="node">
<title>Node5</title>
<g id="a_node5"><a xlink:title="STL class">
<polygon fill="none" stroke="#bfbfbf" points="134,-187.5 134,-219.5 271,-219.5 271,-187.5 134,-187.5"/>
<text text-anchor="start" x="142" y="-206.7" font-family="-apple-system,BlinkMacSystemFont,'SegoeUI',Roboto,Oxygen,Ubuntu,Cantarell,'FiraSans','DroidSans','HelveticaNeue',sans-serif" font-size="11.00">std::basic_string_view</text>
<text text-anchor="middle" x="202.5" y="-194.7" font-family="-apple-system,BlinkMacSystemFont,'SegoeUI',Roboto,Oxygen,Ubuntu,Cantarell,'FiraSans','DroidSans','HelveticaNeue',sans-serif" font-size="11.00">&lt; char &gt;</text>
</a>
</g>
</g>
<!-- Node5&#45;&gt;Node4 -->
<g id="edge4" class="edge">
<title>Node5&#45;&gt;Node4</title>
<path fill="none" stroke="midnightblue" d="M202.5,-177.42C202.5,-167.67 202.5,-157.11 202.5,-149.79"/>
<polygon fill="midnightblue" stroke="midnightblue" points="199,-177.49 202.5,-187.49 206,-177.49 199,-177.49"/>
</g>
<!-- Node6 -->
<g id="node6" class="node">
<title>Node6</title>
<g id="a_node6"><a xlink:title="STL class">
<polygon fill="none" stroke="#bfbfbf" points="292,-129.5 292,-149.5 365,-149.5 365,-129.5 292,-129.5"/>
<text text-anchor="middle" x="328.5" y="-136.7" font-family="-apple-system,BlinkMacSystemFont,'SegoeUI',Roboto,Oxygen,Ubuntu,Cantarell,'FiraSans','DroidSans','HelveticaNeue',sans-serif" font-size="11.00">std::string</text>
</a>
</g>
</g>
<!-- Node6&#45;&gt;Node1 -->
<g id="edge5" class="edge">
<title>Node6&#45;&gt;Node1</title>
<path fill="none" stroke="#9a32cd" stroke-dasharray="5,2" d="M317.1,-120.72C302.87,-99.49 276.92,-63.73 248.5,-39 240.22,-31.79 229.8,-25.39 220.97,-20.57"/>
<polygon fill="#9a32cd" stroke="#9a32cd" points="314.36,-122.93 322.78,-129.37 320.21,-119.09 314.36,-122.93"/>
<text text-anchor="middle" x="341" y="-102.2" font-family="-apple-system,BlinkMacSystemFont,'SegoeUI',Roboto,Oxygen,Ubuntu,Cantarell,'FiraSans','DroidSans','HelveticaNeue',sans-serif" font-size="11.00"> _summary</text>
<text text-anchor="middle" x="341" y="-90.2" font-family="-apple-system,BlinkMacSystemFont,'SegoeUI',Roboto,Oxygen,Ubuntu,Cantarell,'FiraSans','DroidSans','HelveticaNeue',sans-serif" font-size="11.00">_title</text>
<text text-anchor="middle" x="341" y="-78.2" font-family="-apple-system,BlinkMacSystemFont,'SegoeUI',Roboto,Oxygen,Ubuntu,Cantarell,'FiraSans','DroidSans','HelveticaNeue',sans-serif" font-size="11.00">_brief</text>
<text text-anchor="middle" x="341" y="-66.2" font-family="-apple-system,BlinkMacSystemFont,'SegoeUI',Roboto,Oxygen,Ubuntu,Cantarell,'FiraSans','DroidSans','HelveticaNeue',sans-serif" font-size="11.00">_MusicUrl</text>
<text text-anchor="middle" x="341" y="-54.2" font-family="-apple-system,BlinkMacSystemFont,'SegoeUI',Roboto,Oxygen,Ubuntu,Cantarell,'FiraSans','DroidSans','HelveticaNeue',sans-serif" font-size="11.00">_PictureUrl</text>
<text text-anchor="middle" x="341" y="-42.2" font-family="-apple-system,BlinkMacSystemFont,'SegoeUI',Roboto,Oxygen,Ubuntu,Cantarell,'FiraSans','DroidSans','HelveticaNeue',sans-serif" font-size="11.00">_JumpUrl</text>
</g>
<!-- Node7 -->
<g id="node7" class="node">
<title>Node7</title>
<g id="a_node7"><a xlink:title="STL class">
<polygon fill="none" stroke="#bfbfbf" points="289.5,-187.5 289.5,-219.5 405.5,-219.5 405.5,-187.5 289.5,-187.5"/>
<text text-anchor="start" x="297.5" y="-206.7" font-family="-apple-system,BlinkMacSystemFont,'SegoeUI',Roboto,Oxygen,Ubuntu,Cantarell,'FiraSans','DroidSans','HelveticaNeue',sans-serif" font-size="11.00">std::basic_string&lt;</text>
<text text-anchor="middle" x="347.5" y="-194.7" font-family="-apple-system,BlinkMacSystemFont,'SegoeUI',Roboto,Oxygen,Ubuntu,Cantarell,'FiraSans','DroidSans','HelveticaNeue',sans-serif" font-size="11.00"> char &gt;</text>
</a>
</g>
</g>
<!-- Node7&#45;&gt;Node6 -->
<g id="edge6" class="edge">
<title>Node7&#45;&gt;Node6</title>
<path fill="none" stroke="midnightblue" d="M339.91,-177.73C336.9,-167.9 333.61,-157.19 331.35,-149.79"/>
<polygon fill="midnightblue" stroke="midnightblue" points="336.62,-178.96 342.9,-187.49 343.32,-176.9 336.62,-178.96"/>
</g>
</g>
</svg>
