<?xml version="1.0" encoding="UTF-8" standalone="no"?>
<!DOCTYPE svg PUBLIC "-//W3C//DTD SVG 1.1//EN"
 "http://www.w3.org/Graphics/SVG/1.1/DTD/svg11.dtd">
<!-- Generated by graphviz version 3.0.0 (20221109.1736)
 -->
<!-- Title: Mirai::FaceMessage Pages: 1 -->
<svg width="202pt" height="180pt"
 viewBox="0.00 0.00 202.00 180.00" xmlns="http://www.w3.org/2000/svg" xmlns:xlink="http://www.w3.org/1999/xlink">
<g id="graph0" class="graph" transform="scale(1 1) rotate(0) translate(4 176)">
<title>Mirai::FaceMessage</title>
<!-- Node1 -->
<g id="node1" class="node">
<title>Node1</title>
<g id="a_node1"><a xlink:title="QQ表情消息">
<polygon fill="#bfbfbf" stroke="black" points="53,-0.5 53,-20.5 166,-20.5 166,-0.5 53,-0.5"/>
<text text-anchor="middle" x="109.5" y="-7.7" font-family="-apple-system, BlinkMacSystemFont, 'Segoe UI', Roboto, Oxygen, Ubuntu, Cantarell, 'Fira Sans', 'Droid Sans', 'Helvetica Neue', sans-serif" font-size="11.00">Mirai::FaceMessage</text>
</a>
</g>
</g>
<!-- Node2 -->
<g id="node2" class="node">
<title>Node2</title>
<g id="a_node2"><a xlink:href="classMirai_1_1FaceMessageImpl.html" target="_top" xlink:title=" ">
<polygon fill="none" stroke="black" points="42.5,-58.5 42.5,-90.5 176.5,-90.5 176.5,-58.5 42.5,-58.5"/>
<text text-anchor="start" x="50.5" y="-77.7" font-family="-apple-system, BlinkMacSystemFont, 'Segoe UI', Roboto, Oxygen, Ubuntu, Cantarell, 'Fira Sans', 'Droid Sans', 'Helvetica Neue', sans-serif" font-size="11.00">Mirai::FaceMessageImpl</text>
<text text-anchor="middle" x="109.5" y="-65.7" font-family="-apple-system, BlinkMacSystemFont, 'Segoe UI', Roboto, Oxygen, Ubuntu, Cantarell, 'Fira Sans', 'Droid Sans', 'Helvetica Neue', sans-serif" font-size="11.00">&lt; FaceMessage &gt;</text>
</a>
</g>
</g>
<!-- Node2&#45;&gt;Node1 -->
<g id="edge1" class="edge">
<title>Node2&#45;&gt;Node1</title>
<path fill="none" stroke="midnightblue" d="M109.5,-48.42C109.5,-38.67 109.5,-28.11 109.5,-20.79"/>
<polygon fill="midnightblue" stroke="midnightblue" points="106,-48.49 109.5,-58.49 113,-48.49 106,-48.49"/>
</g>
<!-- Node3 -->
<g id="node3" class="node">
<title>Node3</title>
<g id="a_node3"><a xlink:href="classMirai_1_1IMessageImpl.html" target="_top" xlink:title=" ">
<polygon fill="none" stroke="red" points="0,-139.5 0,-171.5 113,-171.5 113,-139.5 0,-139.5"/>
<text text-anchor="start" x="8" y="-158.7" font-family="-apple-system, BlinkMacSystemFont, 'Segoe UI', Roboto, Oxygen, Ubuntu, Cantarell, 'Fira Sans', 'Droid Sans', 'Helvetica Neue', sans-serif" font-size="11.00">Mirai::IMessageImpl</text>
<text text-anchor="middle" x="56.5" y="-146.7" font-family="-apple-system, BlinkMacSystemFont, 'Segoe UI', Roboto, Oxygen, Ubuntu, Cantarell, 'Fira Sans', 'Droid Sans', 'Helvetica Neue', sans-serif" font-size="11.00">&lt; FaceMessage &gt;</text>
</a>
</g>
</g>
<!-- Node3&#45;&gt;Node2 -->
<g id="edge2" class="edge">
<title>Node3&#45;&gt;Node2</title>
<path fill="none" stroke="midnightblue" d="M72.41,-130.79C81.13,-117.78 91.7,-102.04 99.31,-90.69"/>
<polygon fill="midnightblue" stroke="midnightblue" points="69.38,-129.01 66.72,-139.27 75.2,-132.91 69.38,-129.01"/>
</g>
<!-- Node5 -->
<g id="node4" class="node">
<title>Node5</title>
<g id="a_node4"><a xlink:title=" ">
<polygon fill="none" stroke="red" points="131,-145.5 131,-165.5 194,-165.5 194,-145.5 131,-145.5"/>
<text text-anchor="middle" x="162.5" y="-152.7" font-family="-apple-system, BlinkMacSystemFont, 'Segoe UI', Roboto, Oxygen, Ubuntu, Cantarell, 'Fira Sans', 'Droid Sans', 'Helvetica Neue', sans-serif" font-size="11.00">std::string</text>
</a>
</g>
</g>
<!-- Node5&#45;&gt;Node2 -->
<g id="edge3" class="edge">
<title>Node5&#45;&gt;Node2</title>
<path fill="none" stroke="#9a32cd" stroke-dasharray="5,2" d="M150.63,-136.81C141.32,-122.93 128.51,-103.84 119.67,-90.66"/>
<polygon fill="#9a32cd" stroke="#9a32cd" points="147.94,-139.08 156.42,-145.44 153.76,-135.18 147.94,-139.08"/>
<text text-anchor="middle" x="157" y="-112.2" font-family="-apple-system, BlinkMacSystemFont, 'Segoe UI', Roboto, Oxygen, Ubuntu, Cantarell, 'Fira Sans', 'Droid Sans', 'Helvetica Neue', sans-serif" font-size="11.00"> name_</text>
</g>
</g>
</svg>
