<?xml version="1.0" encoding="UTF-8" standalone="no"?>
<!DOCTYPE svg PUBLIC "-//W3C//DTD SVG 1.1//EN"
 "http://www.w3.org/Graphics/SVG/1.1/DTD/svg11.dtd">
<!-- Generated by graphviz version 3.0.0 (20220413.0242)
 -->
<!-- Title: Mirai::PlainMessage Pages: 1 -->
<svg width="369pt" height="168pt"
 viewBox="0.00 0.00 369.00 168.00" xmlns="http://www.w3.org/2000/svg" xmlns:xlink="http://www.w3.org/1999/xlink">
<g id="graph0" class="graph" transform="scale(1 1) rotate(0) translate(4 164)">
<title>Mirai::PlainMessage</title>
<!-- Node1 -->
<g id="node1" class="node">
<title>Node1</title>
<g id="a_node1"><a xlink:title="文字消息">
<polygon fill="#bfbfbf" stroke="black" points="113.5,-0.5 113.5,-20.5 226.5,-20.5 226.5,-0.5 113.5,-0.5"/>
<text text-anchor="middle" x="170" y="-7.7" font-family="-apple-system, BlinkMacSystemFont, 'Segoe UI', Roboto, Oxygen, Ubuntu, Cantarell, 'Fira Sans', 'Droid Sans', 'Helvetica Neue', sans-serif" font-size="11.00">Mirai::PlainMessage</text>
</a>
</g>
</g>
<!-- Node2 -->
<g id="node2" class="node">
<title>Node2</title>
<g id="a_node2"><a xlink:href="classMirai_1_1MessageBase.html" target="_top" xlink:title="Base class for all message types">
<polygon fill="none" stroke="black" points="0,-69.5 0,-89.5 114,-89.5 114,-69.5 0,-69.5"/>
<text text-anchor="middle" x="57" y="-76.7" font-family="-apple-system, BlinkMacSystemFont, 'Segoe UI', Roboto, Oxygen, Ubuntu, Cantarell, 'Fira Sans', 'Droid Sans', 'Helvetica Neue', sans-serif" font-size="11.00">Mirai::MessageBase</text>
</a>
</g>
</g>
<!-- Node2&#45;&gt;Node1 -->
<g id="edge1" class="edge">
<title>Node2&#45;&gt;Node1</title>
<path fill="none" stroke="midnightblue" d="M81.09,-64.22C103.33,-51.03 135.71,-31.83 154.64,-20.61"/>
<polygon fill="midnightblue" stroke="midnightblue" points="79.06,-61.35 72.24,-69.46 82.63,-67.37 79.06,-61.35"/>
</g>
<!-- Node3 -->
<g id="node3" class="node">
<title>Node3</title>
<g id="a_node3"><a xlink:href="classMirai_1_1Serializable.html" target="_top" xlink:title="Base class for all json serializable type">
<polygon fill="none" stroke="black" points="0.5,-133.5 0.5,-153.5 101.5,-153.5 101.5,-133.5 0.5,-133.5"/>
<text text-anchor="middle" x="51" y="-140.7" font-family="-apple-system, BlinkMacSystemFont, 'Segoe UI', Roboto, Oxygen, Ubuntu, Cantarell, 'Fira Sans', 'Droid Sans', 'Helvetica Neue', sans-serif" font-size="11.00">Mirai::Serializable</text>
</a>
</g>
</g>
<!-- Node3&#45;&gt;Node2 -->
<g id="edge2" class="edge">
<title>Node3&#45;&gt;Node2</title>
<path fill="none" stroke="midnightblue" d="M52.86,-123.23C53.95,-112.06 55.26,-98.49 56.11,-89.69"/>
<polygon fill="midnightblue" stroke="midnightblue" points="49.36,-123.06 51.89,-133.35 56.33,-123.74 49.36,-123.06"/>
</g>
<!-- Node4 -->
<g id="node4" class="node">
<title>Node4</title>
<g id="a_node4"><a xlink:title=" ">
<polygon fill="none" stroke="black" points="138.5,-69.5 138.5,-89.5 201.5,-89.5 201.5,-69.5 138.5,-69.5"/>
<text text-anchor="middle" x="170" y="-76.7" font-family="-apple-system, BlinkMacSystemFont, 'Segoe UI', Roboto, Oxygen, Ubuntu, Cantarell, 'Fira Sans', 'Droid Sans', 'Helvetica Neue', sans-serif" font-size="11.00">std::string</text>
</a>
</g>
</g>
<!-- Node4&#45;&gt;Node1 -->
<g id="edge3" class="edge">
<title>Node4&#45;&gt;Node1</title>
<path fill="none" stroke="#9a32cd" stroke-dasharray="5,2" d="M170,-59.08C170,-46.5 170,-30.68 170,-20.82"/>
<polygon fill="#9a32cd" stroke="#9a32cd" points="166.5,-59.46 170,-69.46 173.5,-59.46 166.5,-59.46"/>
<text text-anchor="middle" x="183.5" y="-42.2" font-family="-apple-system, BlinkMacSystemFont, 'Segoe UI', Roboto, Oxygen, Ubuntu, Cantarell, 'Fira Sans', 'Droid Sans', 'Helvetica Neue', sans-serif" font-size="11.00"> _text</text>
</g>
<!-- Node5 -->
<g id="node5" class="node">
<title>Node5</title>
<g id="a_node5"><a xlink:title=" ">
<polygon fill="none" stroke="black" points="119.5,-127.5 119.5,-159.5 220.5,-159.5 220.5,-127.5 119.5,-127.5"/>
<text text-anchor="start" x="127.5" y="-146.7" font-family="-apple-system, BlinkMacSystemFont, 'Segoe UI', Roboto, Oxygen, Ubuntu, Cantarell, 'Fira Sans', 'Droid Sans', 'Helvetica Neue', sans-serif" font-size="11.00">std::basic_string&lt;</text>
<text text-anchor="middle" x="170" y="-134.7" font-family="-apple-system, BlinkMacSystemFont, 'Segoe UI', Roboto, Oxygen, Ubuntu, Cantarell, 'Fira Sans', 'Droid Sans', 'Helvetica Neue', sans-serif" font-size="11.00"> Char &gt;</text>
</a>
</g>
</g>
<!-- Node5&#45;&gt;Node4 -->
<g id="edge4" class="edge">
<title>Node5&#45;&gt;Node4</title>
<path fill="none" stroke="midnightblue" d="M170,-117.42C170,-107.67 170,-97.11 170,-89.79"/>
<polygon fill="midnightblue" stroke="midnightblue" points="166.5,-117.49 170,-127.49 173.5,-117.49 166.5,-117.49"/>
</g>
<!-- Node6 -->
<g id="node6" class="node">
<title>Node6</title>
<g id="a_node6"><a xlink:title=" ">
<polygon fill="none" stroke="black" points="237.5,-69.5 237.5,-89.5 328.5,-89.5 328.5,-69.5 237.5,-69.5"/>
<text text-anchor="middle" x="283" y="-76.7" font-family="-apple-system, BlinkMacSystemFont, 'Segoe UI', Roboto, Oxygen, Ubuntu, Cantarell, 'Fira Sans', 'Droid Sans', 'Helvetica Neue', sans-serif" font-size="11.00">std::string_view</text>
</a>
</g>
</g>
<!-- Node6&#45;&gt;Node1 -->
<g id="edge5" class="edge">
<title>Node6&#45;&gt;Node1</title>
<path fill="none" stroke="#9a32cd" stroke-dasharray="5,2" d="M258.91,-64.22C236.67,-51.03 204.29,-31.83 185.36,-20.61"/>
<polygon fill="#9a32cd" stroke="#9a32cd" points="257.37,-67.37 267.76,-69.46 260.94,-61.35 257.37,-67.37"/>
<text text-anchor="middle" x="256" y="-42.2" font-family="-apple-system, BlinkMacSystemFont, 'Segoe UI', Roboto, Oxygen, Ubuntu, Cantarell, 'Fira Sans', 'Droid Sans', 'Helvetica Neue', sans-serif" font-size="11.00"> _TYPE_</text>
</g>
<!-- Node7 -->
<g id="node7" class="node">
<title>Node7</title>
<g id="a_node7"><a xlink:title=" ">
<polygon fill="none" stroke="black" points="239,-127.5 239,-159.5 361,-159.5 361,-127.5 239,-127.5"/>
<text text-anchor="start" x="247" y="-146.7" font-family="-apple-system, BlinkMacSystemFont, 'Segoe UI', Roboto, Oxygen, Ubuntu, Cantarell, 'Fira Sans', 'Droid Sans', 'Helvetica Neue', sans-serif" font-size="11.00">std::basic_string_view</text>
<text text-anchor="middle" x="300" y="-134.7" font-family="-apple-system, BlinkMacSystemFont, 'Segoe UI', Roboto, Oxygen, Ubuntu, Cantarell, 'Fira Sans', 'Droid Sans', 'Helvetica Neue', sans-serif" font-size="11.00">&lt; Char &gt;</text>
</a>
</g>
</g>
<!-- Node7&#45;&gt;Node6 -->
<g id="edge6" class="edge">
<title>Node7&#45;&gt;Node6</title>
<path fill="none" stroke="midnightblue" d="M293.21,-117.73C290.51,-107.9 287.58,-97.19 285.55,-89.79"/>
<polygon fill="midnightblue" stroke="midnightblue" points="289.86,-118.77 295.88,-127.49 296.62,-116.92 289.86,-118.77"/>
</g>
</g>
</svg>
