<?xml version="1.0" encoding="UTF-8" standalone="no"?>
<!DOCTYPE svg PUBLIC "-//W3C//DTD SVG 1.1//EN"
 "http://www.w3.org/Graphics/SVG/1.1/DTD/svg11.dtd">
<!-- Generated by graphviz version 2.43.0 (0)
 -->
<!-- Title: Mirai::NewFriendRequestEvent Pages: 1 -->
<svg width="485pt" height="260pt"
 viewBox="0.00 0.00 484.50 260.00" xmlns="http://www.w3.org/2000/svg" xmlns:xlink="http://www.w3.org/1999/xlink">
<g id="graph0" class="graph" transform="scale(1 1) rotate(0) translate(4 256)">
<title>Mirai::NewFriendRequestEvent</title>
<!-- Node1 -->
<g id="node1" class="node">
<title>Node1</title>
<g id="a_node1"><a xlink:title="用户申请添加Bot好友事件">
<polygon fill="#bfbfbf" stroke="black" points="136,-0.5 136,-20.5 321,-20.5 321,-0.5 136,-0.5"/>
<text text-anchor="middle" x="228.5" y="-7.7" font-family="-apple-system,BlinkMacSystemFont,'SegoeUI',Roboto,Oxygen,Ubuntu,Cantarell,'FiraSans','DroidSans','HelveticaNeue',sans-serif" font-size="11.00">Mirai::NewFriendRequestEvent</text>
</a>
</g>
</g>
<!-- Node2 -->
<g id="node2" class="node">
<title>Node2</title>
<g id="a_node2"><a xlink:href="classMirai_1_1EventBase.html" target="_top" xlink:title="Base class for all event types">
<polygon fill="none" stroke="black" points="48.5,-69.5 48.5,-89.5 158.5,-89.5 158.5,-69.5 48.5,-69.5"/>
<text text-anchor="middle" x="103.5" y="-76.7" font-family="-apple-system,BlinkMacSystemFont,'SegoeUI',Roboto,Oxygen,Ubuntu,Cantarell,'FiraSans','DroidSans','HelveticaNeue',sans-serif" font-size="11.00">Mirai::EventBase</text>
</a>
</g>
</g>
<!-- Node2&#45;&gt;Node1 -->
<g id="edge1" class="edge">
<title>Node2&#45;&gt;Node1</title>
<path fill="none" stroke="midnightblue" d="M129.49,-64.57C154.11,-51.37 190.39,-31.93 211.51,-20.61"/>
<polygon fill="midnightblue" stroke="midnightblue" points="127.52,-61.66 120.36,-69.46 130.83,-67.82 127.52,-61.66"/>
</g>
<!-- Node3 -->
<g id="node3" class="node">
<title>Node3</title>
<g id="a_node3"><a xlink:href="classMirai_1_1MiraiClient.html" target="_top" xlink:title="提供与mirai&#45;api&#45;http网络交互的封装">
<polygon fill="none" stroke="red" points="48.5,-156.5 48.5,-176.5 158.5,-176.5 158.5,-156.5 48.5,-156.5"/>
<text text-anchor="middle" x="103.5" y="-163.7" font-family="-apple-system,BlinkMacSystemFont,'SegoeUI',Roboto,Oxygen,Ubuntu,Cantarell,'FiraSans','DroidSans','HelveticaNeue',sans-serif" font-size="11.00">Mirai::MiraiClient</text>
</a>
</g>
</g>
<!-- Node3&#45;&gt;Node2 -->
<g id="edge2" class="edge">
<title>Node3&#45;&gt;Node2</title>
<path fill="none" stroke="#9a32cd" stroke-dasharray="5,2" d="M103.5,-146.32C103.5,-128.57 103.5,-102.98 103.5,-89.53"/>
<polygon fill="#9a32cd" stroke="#9a32cd" points="100,-146.4 103.5,-156.4 107,-146.4 100,-146.4"/>
<text text-anchor="middle" x="123.5" y="-117.2" font-family="-apple-system,BlinkMacSystemFont,'SegoeUI',Roboto,Oxygen,Ubuntu,Cantarell,'FiraSans','DroidSans','HelveticaNeue',sans-serif" font-size="11.00"> _client</text>
</g>
<!-- Node7 -->
<g id="node4" class="node">
<title>Node7</title>
<g id="a_node4"><a xlink:title="STL class">
<polygon fill="none" stroke="#bfbfbf" points="0,-231.5 0,-251.5 73,-251.5 73,-231.5 0,-231.5"/>
<text text-anchor="middle" x="36.5" y="-238.7" font-family="-apple-system,BlinkMacSystemFont,'SegoeUI',Roboto,Oxygen,Ubuntu,Cantarell,'FiraSans','DroidSans','HelveticaNeue',sans-serif" font-size="11.00">std::string</text>
</a>
</g>
</g>
<!-- Node7&#45;&gt;Node1 -->
<g id="edge6" class="edge">
<title>Node7&#45;&gt;Node1</title>
<path fill="none" stroke="#9a32cd" stroke-dasharray="5,2" d="M30.26,-221.4C20.34,-187.06 5.35,-114.26 39.5,-69 62.12,-39.02 99.97,-24.17 135.88,-16.99"/>
<polygon fill="#9a32cd" stroke="#9a32cd" points="26.96,-222.58 33.24,-231.11 33.65,-220.53 26.96,-222.58"/>
<text text-anchor="middle" x="52" y="-123.2" font-family="-apple-system,BlinkMacSystemFont,'SegoeUI',Roboto,Oxygen,Ubuntu,Cantarell,'FiraSans','DroidSans','HelveticaNeue',sans-serif" font-size="11.00"> _message</text>
<text text-anchor="middle" x="52" y="-111.2" font-family="-apple-system,BlinkMacSystemFont,'SegoeUI',Roboto,Oxygen,Ubuntu,Cantarell,'FiraSans','DroidSans','HelveticaNeue',sans-serif" font-size="11.00">_nickname</text>
</g>
<!-- Node7&#45;&gt;Node3 -->
<g id="edge3" class="edge">
<title>Node7&#45;&gt;Node3</title>
<path fill="none" stroke="#9a32cd" stroke-dasharray="5,2" d="M52.11,-223.49C65.43,-208.98 84.09,-188.65 94.87,-176.9"/>
<polygon fill="#9a32cd" stroke="#9a32cd" points="49.17,-221.52 44.99,-231.25 54.33,-226.25 49.17,-221.52"/>
<text text-anchor="middle" x="108.5" y="-204.2" font-family="-apple-system,BlinkMacSystemFont,'SegoeUI',Roboto,Oxygen,Ubuntu,Cantarell,'FiraSans','DroidSans','HelveticaNeue',sans-serif" font-size="11.00"> _SessionKey</text>
</g>
<!-- Node18 -->
<g id="node5" class="node">
<title>Node18</title>
<g id="a_node5"><a xlink:title="STL class">
<polygon fill="none" stroke="#bfbfbf" points="176.5,-69.5 176.5,-89.5 280.5,-89.5 280.5,-69.5 176.5,-69.5"/>
<text text-anchor="middle" x="228.5" y="-76.7" font-family="-apple-system,BlinkMacSystemFont,'SegoeUI',Roboto,Oxygen,Ubuntu,Cantarell,'FiraSans','DroidSans','HelveticaNeue',sans-serif" font-size="11.00">std::string_view</text>
</a>
</g>
</g>
<!-- Node18&#45;&gt;Node1 -->
<g id="edge4" class="edge">
<title>Node18&#45;&gt;Node1</title>
<path fill="none" stroke="#9a32cd" stroke-dasharray="5,2" d="M228.5,-59.08C228.5,-46.5 228.5,-30.68 228.5,-20.82"/>
<polygon fill="#9a32cd" stroke="#9a32cd" points="225,-59.46 228.5,-69.46 232,-59.46 225,-59.46"/>
<text text-anchor="middle" x="249.5" y="-42.2" font-family="-apple-system,BlinkMacSystemFont,'SegoeUI',Roboto,Oxygen,Ubuntu,Cantarell,'FiraSans','DroidSans','HelveticaNeue',sans-serif" font-size="11.00"> _TYPE_</text>
</g>
<!-- Node19 -->
<g id="node6" class="node">
<title>Node19</title>
<g id="a_node6"><a xlink:title="STL class">
<polygon fill="none" stroke="#bfbfbf" points="177,-150.5 177,-182.5 314,-182.5 314,-150.5 177,-150.5"/>
<text text-anchor="start" x="185" y="-169.7" font-family="-apple-system,BlinkMacSystemFont,'SegoeUI',Roboto,Oxygen,Ubuntu,Cantarell,'FiraSans','DroidSans','HelveticaNeue',sans-serif" font-size="11.00">std::basic_string_view</text>
<text text-anchor="middle" x="245.5" y="-157.7" font-family="-apple-system,BlinkMacSystemFont,'SegoeUI',Roboto,Oxygen,Ubuntu,Cantarell,'FiraSans','DroidSans','HelveticaNeue',sans-serif" font-size="11.00">&lt; char &gt;</text>
</a>
</g>
</g>
<!-- Node19&#45;&gt;Node18 -->
<g id="edge5" class="edge">
<title>Node19&#45;&gt;Node18</title>
<path fill="none" stroke="midnightblue" d="M240.48,-140.41C237.08,-123.39 232.77,-101.85 230.36,-89.79"/>
<polygon fill="midnightblue" stroke="midnightblue" points="237.07,-141.18 242.46,-150.3 243.93,-139.81 237.07,-141.18"/>
</g>
<!-- Node5 -->
<g id="node7" class="node">
<title>Node5</title>
<g id="a_node7"><a xlink:href="classMirai_1_1QQ__t.html" target="_top" xlink:title="QQ号码类型">
<polygon fill="none" stroke="black" points="299,-69.5 299,-89.5 378,-89.5 378,-69.5 299,-69.5"/>
<text text-anchor="middle" x="338.5" y="-76.7" font-family="-apple-system,BlinkMacSystemFont,'SegoeUI',Roboto,Oxygen,Ubuntu,Cantarell,'FiraSans','DroidSans','HelveticaNeue',sans-serif" font-size="11.00">Mirai::QQ_t</text>
</a>
</g>
</g>
<!-- Node5&#45;&gt;Node1 -->
<g id="edge7" class="edge">
<title>Node5&#45;&gt;Node1</title>
<path fill="none" stroke="#9a32cd" stroke-dasharray="5,2" d="M315.42,-64.15C303.27,-56.62 288.11,-47.26 274.5,-39 264.32,-32.82 252.82,-25.94 243.87,-20.61"/>
<polygon fill="#9a32cd" stroke="#9a32cd" points="313.7,-67.2 324.05,-69.5 317.4,-61.25 313.7,-67.2"/>
<text text-anchor="middle" x="317.5" y="-42.2" font-family="-apple-system,BlinkMacSystemFont,'SegoeUI',Roboto,Oxygen,Ubuntu,Cantarell,'FiraSans','DroidSans','HelveticaNeue',sans-serif" font-size="11.00"> _FromId</text>
</g>
<!-- Node6 -->
<g id="node8" class="node">
<title>Node6</title>
<g id="a_node8"><a xlink:href="classMirai_1_1UID__t.html" target="_top" xlink:title="Base class for QQ_t and GID_t">
<polygon fill="none" stroke="black" points="364.5,-156.5 364.5,-176.5 444.5,-176.5 444.5,-156.5 364.5,-156.5"/>
<text text-anchor="middle" x="404.5" y="-163.7" font-family="-apple-system,BlinkMacSystemFont,'SegoeUI',Roboto,Oxygen,Ubuntu,Cantarell,'FiraSans','DroidSans','HelveticaNeue',sans-serif" font-size="11.00">Mirai::UID_t</text>
</a>
</g>
</g>
<!-- Node6&#45;&gt;Node5 -->
<g id="edge8" class="edge">
<title>Node6&#45;&gt;Node5</title>
<path fill="none" stroke="midnightblue" d="M390.96,-148.06C377.16,-130.28 356.3,-103.42 345.51,-89.53"/>
<polygon fill="midnightblue" stroke="midnightblue" points="388.54,-150.65 397.44,-156.4 394.07,-146.36 388.54,-150.65"/>
</g>
<!-- Node20 -->
<g id="node9" class="node">
<title>Node20</title>
<g id="a_node9"><a xlink:href="classMirai_1_1GID__t.html" target="_top" xlink:title="群聊号码类型">
<polygon fill="none" stroke="black" points="396.5,-69.5 396.5,-89.5 476.5,-89.5 476.5,-69.5 396.5,-69.5"/>
<text text-anchor="middle" x="436.5" y="-76.7" font-family="-apple-system,BlinkMacSystemFont,'SegoeUI',Roboto,Oxygen,Ubuntu,Cantarell,'FiraSans','DroidSans','HelveticaNeue',sans-serif" font-size="11.00">Mirai::GID_t</text>
</a>
</g>
</g>
<!-- Node6&#45;&gt;Node20 -->
<g id="edge10" class="edge">
<title>Node6&#45;&gt;Node20</title>
<path fill="none" stroke="midnightblue" d="M411.53,-146.82C418.22,-129.06 427.99,-103.1 433.1,-89.53"/>
<polygon fill="midnightblue" stroke="midnightblue" points="408.17,-145.81 407.92,-156.4 414.72,-148.28 408.17,-145.81"/>
</g>
<!-- Node20&#45;&gt;Node1 -->
<g id="edge9" class="edge">
<title>Node20&#45;&gt;Node1</title>
<path fill="none" stroke="#9a32cd" stroke-dasharray="5,2" d="M408.52,-64.99C390.54,-56.68 366.5,-46.27 344.5,-39 321.9,-31.53 296.2,-25.22 274.74,-20.54"/>
<polygon fill="#9a32cd" stroke="#9a32cd" points="407.3,-68.28 417.84,-69.35 410.27,-61.94 407.3,-68.28"/>
<text text-anchor="middle" x="401.5" y="-42.2" font-family="-apple-system,BlinkMacSystemFont,'SegoeUI',Roboto,Oxygen,Ubuntu,Cantarell,'FiraSans','DroidSans','HelveticaNeue',sans-serif" font-size="11.00"> _GroupId</text>
</g>
</g>
</svg>
