<?xml version="1.0" encoding="UTF-8" standalone="no"?>
<!DOCTYPE svg PUBLIC "-//W3C//DTD SVG 1.1//EN"
 "http://www.w3.org/Graphics/SVG/1.1/DTD/svg11.dtd">
<!-- Generated by graphviz version 3.0.0 (20220413.0242)
 -->
<!-- Title: Mirai::EventBase Pages: 1 -->
<svg width="741pt" height="430pt"
 viewBox="0.00 0.00 741.00 429.50" xmlns="http://www.w3.org/2000/svg" xmlns:xlink="http://www.w3.org/1999/xlink">
<g id="graph0" class="graph" transform="scale(1 1) rotate(0) translate(4 425.5)">
<title>Mirai::EventBase</title>
<!-- Node1 -->
<g id="node1" class="node">
<title>Node1</title>
<g id="a_node1"><a xlink:title="Base class for all event types">
<polygon fill="#bfbfbf" stroke="black" points="635,-210.5 635,-230.5 733,-230.5 733,-210.5 635,-210.5"/>
<text text-anchor="middle" x="684" y="-217.7" font-family="-apple-system, BlinkMacSystemFont, 'Segoe UI', Roboto, Oxygen, Ubuntu, Cantarell, 'Fira Sans', 'Droid Sans', 'Helvetica Neue', sans-serif" font-size="11.00">Mirai::EventBase</text>
</a>
</g>
</g>
<!-- Node2 -->
<g id="node2" class="node">
<title>Node2</title>
<g id="a_node2"><a xlink:href="classMirai_1_1MiraiClient.html" target="_top" xlink:title="提供与mirai&#45;api&#45;http网络交互的封装">
<polygon fill="none" stroke="black" points="469,-210.5 469,-230.5 565,-230.5 565,-210.5 469,-210.5"/>
<text text-anchor="middle" x="517" y="-217.7" font-family="-apple-system, BlinkMacSystemFont, 'Segoe UI', Roboto, Oxygen, Ubuntu, Cantarell, 'Fira Sans', 'Droid Sans', 'Helvetica Neue', sans-serif" font-size="11.00">Mirai::MiraiClient</text>
</a>
</g>
</g>
<!-- Node2&#45;&gt;Node1 -->
<g id="edge1" class="edge">
<title>Node2&#45;&gt;Node1</title>
<path fill="none" stroke="#9a32cd" stroke-dasharray="5,2" d="M575.5,-220.5C594.87,-220.5 616.28,-220.5 634.85,-220.5"/>
<polygon fill="#9a32cd" stroke="#9a32cd" points="575.28,-217 565.28,-220.5 575.28,-224 575.28,-217"/>
<text text-anchor="middle" x="600" y="-223.7" font-family="-apple-system, BlinkMacSystemFont, 'Segoe UI', Roboto, Oxygen, Ubuntu, Cantarell, 'Fira Sans', 'Droid Sans', 'Helvetica Neue', sans-serif" font-size="11.00"> _client</text>
</g>
<!-- Node3 -->
<g id="node3" class="node">
<title>Node3</title>
<g id="a_node3"><a xlink:title=" ">
<polygon fill="none" stroke="black" points="226,-396.5 226,-416.5 292,-416.5 292,-396.5 226,-396.5"/>
<text text-anchor="middle" x="259" y="-403.7" font-family="-apple-system, BlinkMacSystemFont, 'Segoe UI', Roboto, Oxygen, Ubuntu, Cantarell, 'Fira Sans', 'Droid Sans', 'Helvetica Neue', sans-serif" font-size="11.00">std::mutex</text>
</a>
</g>
</g>
<!-- Node3&#45;&gt;Node2 -->
<g id="edge2" class="edge">
<title>Node3&#45;&gt;Node2</title>
<path fill="none" stroke="#9a32cd" stroke-dasharray="5,2" d="M302.28,-411.82C344.36,-414.75 408.61,-412.5 451,-379.5 500.18,-341.21 512.38,-259.46 515.2,-230.74"/>
<polygon fill="#9a32cd" stroke="#9a32cd" points="302.34,-408.32 292.08,-410.98 301.76,-415.29 302.34,-408.32"/>
<text text-anchor="middle" x="409.5" y="-412.7" font-family="-apple-system, BlinkMacSystemFont, 'Segoe UI', Roboto, Oxygen, Ubuntu, Cantarell, 'Fira Sans', 'Droid Sans', 'Helvetica Neue', sans-serif" font-size="11.00"> _mtx</text>
</g>
<!-- Node4 -->
<g id="node4" class="node">
<title>Node4</title>
<g id="a_node4"><a xlink:href="structMirai_1_1SessionConfigs.html" target="_top" xlink:title="连接mirai&#45;api&#45;http的配置">
<polygon fill="none" stroke="red" points="199,-306.5 199,-326.5 319,-326.5 319,-306.5 199,-306.5"/>
<text text-anchor="middle" x="259" y="-313.7" font-family="-apple-system, BlinkMacSystemFont, 'Segoe UI', Roboto, Oxygen, Ubuntu, Cantarell, 'Fira Sans', 'Droid Sans', 'Helvetica Neue', sans-serif" font-size="11.00">Mirai::SessionConfigs</text>
</a>
</g>
</g>
<!-- Node4&#45;&gt;Node2 -->
<g id="edge3" class="edge">
<title>Node4&#45;&gt;Node2</title>
<path fill="none" stroke="#9a32cd" stroke-dasharray="5,2" d="M329.32,-305.86C366.68,-298.39 412.82,-286.29 451,-267.5 471.24,-257.54 491.89,-241.36 504.33,-230.83"/>
<polygon fill="#9a32cd" stroke="#9a32cd" points="328.18,-302.51 319.02,-307.85 329.51,-309.39 328.18,-302.51"/>
<text text-anchor="middle" x="409.5" y="-299.7" font-family="-apple-system, BlinkMacSystemFont, 'Segoe UI', Roboto, Oxygen, Ubuntu, Cantarell, 'Fira Sans', 'Droid Sans', 'Helvetica Neue', sans-serif" font-size="11.00"> _config</text>
</g>
<!-- Node5 -->
<g id="node5" class="node">
<title>Node5</title>
<g id="a_node5"><a xlink:title=" ">
<polygon fill="none" stroke="red" points="0,-274.5 0,-294.5 63,-294.5 63,-274.5 0,-274.5"/>
<text text-anchor="middle" x="31.5" y="-281.7" font-family="-apple-system, BlinkMacSystemFont, 'Segoe UI', Roboto, Oxygen, Ubuntu, Cantarell, 'Fira Sans', 'Droid Sans', 'Helvetica Neue', sans-serif" font-size="11.00">std::string</text>
</a>
</g>
</g>
<!-- Node5&#45;&gt;Node2 -->
<g id="edge6" class="edge">
<title>Node5&#45;&gt;Node2</title>
<path fill="none" stroke="#9a32cd" stroke-dasharray="5,2" d="M42.89,-303.84C51.23,-317.16 64.3,-333.78 81,-341.5 102.52,-351.45 185.17,-357.91 350,-336.5 395.75,-330.56 412.78,-338.34 451,-312.5 482.27,-291.36 503.33,-249.8 511.81,-230.63"/>
<polygon fill="#9a32cd" stroke="#9a32cd" points="45.74,-301.78 37.67,-294.91 39.69,-305.31 45.74,-301.78"/>
<text text-anchor="middle" x="259" y="-353.7" font-family="-apple-system, BlinkMacSystemFont, 'Segoe UI', Roboto, Oxygen, Ubuntu, Cantarell, 'Fira Sans', 'Droid Sans', 'Helvetica Neue', sans-serif" font-size="11.00"> _SessionKey</text>
</g>
<!-- Node5&#45;&gt;Node4 -->
<g id="edge4" class="edge">
<title>Node5&#45;&gt;Node4</title>
<path fill="none" stroke="#9a32cd" stroke-dasharray="5,2" d="M72.91,-291.25C75.64,-291.68 78.36,-292.1 81,-292.5 120.25,-298.4 164.5,-304.4 198.94,-308.92"/>
<polygon fill="#9a32cd" stroke="#9a32cd" points="73.44,-287.79 63.01,-289.67 72.33,-294.71 73.44,-287.79"/>
<text text-anchor="middle" x="115.5" y="-328.7" font-family="-apple-system, BlinkMacSystemFont, 'Segoe UI', Roboto, Oxygen, Ubuntu, Cantarell, 'Fira Sans', 'Droid Sans', 'Helvetica Neue', sans-serif" font-size="11.00"> HttpUrl</text>
<text text-anchor="middle" x="115.5" y="-316.7" font-family="-apple-system, BlinkMacSystemFont, 'Segoe UI', Roboto, Oxygen, Ubuntu, Cantarell, 'Fira Sans', 'Droid Sans', 'Helvetica Neue', sans-serif" font-size="11.00">VerifyKey</text>
<text text-anchor="middle" x="115.5" y="-304.7" font-family="-apple-system, BlinkMacSystemFont, 'Segoe UI', Roboto, Oxygen, Ubuntu, Cantarell, 'Fira Sans', 'Droid Sans', 'Helvetica Neue', sans-serif" font-size="11.00">WebsocketUrl</text>
</g>
<!-- Node15 -->
<g id="node10" class="node">
<title>Node15</title>
<g id="a_node10"><a xlink:href="structMirai_1_1ClientConnectionEstablishedEvent.html" target="_top" xlink:title="连接建立事件">
<polygon fill="none" stroke="red" points="168,-255.5 168,-287.5 350,-287.5 350,-255.5 168,-255.5"/>
<text text-anchor="start" x="176" y="-274.7" font-family="-apple-system, BlinkMacSystemFont, 'Segoe UI', Roboto, Oxygen, Ubuntu, Cantarell, 'Fira Sans', 'Droid Sans', 'Helvetica Neue', sans-serif" font-size="11.00">Mirai::ClientConnectionEstablished</text>
<text text-anchor="middle" x="259" y="-262.7" font-family="-apple-system, BlinkMacSystemFont, 'Segoe UI', Roboto, Oxygen, Ubuntu, Cantarell, 'Fira Sans', 'Droid Sans', 'Helvetica Neue', sans-serif" font-size="11.00">Event</text>
</a>
</g>
</g>
<!-- Node5&#45;&gt;Node15 -->
<g id="edge11" class="edge">
<title>Node5&#45;&gt;Node15</title>
<path fill="none" stroke="#9a32cd" stroke-dasharray="5,2" d="M54.05,-268.82C62.1,-263.86 71.58,-259.02 81,-256.5 117.34,-246.76 159.24,-249.71 193.15,-255.47"/>
<polygon fill="#9a32cd" stroke="#9a32cd" points="52.08,-265.93 45.65,-274.35 55.93,-271.78 52.08,-265.93"/>
<text text-anchor="middle" x="115.5" y="-283.7" font-family="-apple-system, BlinkMacSystemFont, 'Segoe UI', Roboto, Oxygen, Ubuntu, Cantarell, 'Fira Sans', 'Droid Sans', 'Helvetica Neue', sans-serif" font-size="11.00"> SessionKey</text>
<text text-anchor="middle" x="115.5" y="-271.7" font-family="-apple-system, BlinkMacSystemFont, 'Segoe UI', Roboto, Oxygen, Ubuntu, Cantarell, 'Fira Sans', 'Droid Sans', 'Helvetica Neue', sans-serif" font-size="11.00">protocol</text>
<text text-anchor="middle" x="115.5" y="-259.7" font-family="-apple-system, BlinkMacSystemFont, 'Segoe UI', Roboto, Oxygen, Ubuntu, Cantarell, 'Fira Sans', 'Droid Sans', 'Helvetica Neue', sans-serif" font-size="11.00">uri</text>
</g>
<!-- Node19 -->
<g id="node11" class="node">
<title>Node19</title>
<g id="a_node11"><a xlink:title=" ">
<polygon fill="none" stroke="black" points="182,-204.5 182,-236.5 336,-236.5 336,-204.5 182,-204.5"/>
<text text-anchor="start" x="190" y="-223.7" font-family="-apple-system, BlinkMacSystemFont, 'Segoe UI', Roboto, Oxygen, Ubuntu, Cantarell, 'Fira Sans', 'Droid Sans', 'Helvetica Neue', sans-serif" font-size="11.00">std::unordered_map</text>
<text text-anchor="middle" x="259" y="-211.7" font-family="-apple-system, BlinkMacSystemFont, 'Segoe UI', Roboto, Oxygen, Ubuntu, Cantarell, 'Fira Sans', 'Droid Sans', 'Helvetica Neue', sans-serif" font-size="11.00">&lt; std::string, EventHandler &gt;</text>
</a>
</g>
</g>
<!-- Node5&#45;&gt;Node19 -->
<g id="edge13" class="edge">
<title>Node5&#45;&gt;Node19</title>
<path fill="none" stroke="#9a32cd" stroke-dasharray="5,2" d="M44.68,-265.94C53.33,-254.45 66.04,-240.58 81,-233.5 111.92,-218.87 149.3,-214.49 181.73,-214.21"/>
<polygon fill="#9a32cd" stroke="#9a32cd" points="41.81,-263.93 38.89,-274.11 47.53,-267.97 41.81,-263.93"/>
<text text-anchor="middle" x="115.5" y="-236.7" font-family="-apple-system, BlinkMacSystemFont, 'Segoe UI', Roboto, Oxygen, Ubuntu, Cantarell, 'Fira Sans', 'Droid Sans', 'Helvetica Neue', sans-serif" font-size="11.00"> keys</text>
</g>
<!-- Node9 -->
<g id="node6" class="node">
<title>Node9</title>
<g id="a_node6"><a xlink:title=" ">
<polygon fill="none" stroke="red" points="198,-153.5 198,-185.5 320,-185.5 320,-153.5 198,-153.5"/>
<text text-anchor="start" x="206" y="-172.7" font-family="-apple-system, BlinkMacSystemFont, 'Segoe UI', Roboto, Oxygen, Ubuntu, Cantarell, 'Fira Sans', 'Droid Sans', 'Helvetica Neue', sans-serif" font-size="11.00">std::shared_ptr&lt; Mirai</text>
<text text-anchor="middle" x="259" y="-160.7" font-family="-apple-system, BlinkMacSystemFont, 'Segoe UI', Roboto, Oxygen, Ubuntu, Cantarell, 'Fira Sans', 'Droid Sans', 'Helvetica Neue', sans-serif" font-size="11.00">::ILogger &gt;</text>
</a>
</g>
</g>
<!-- Node9&#45;&gt;Node2 -->
<g id="edge5" class="edge">
<title>Node9&#45;&gt;Node2</title>
<path fill="none" stroke="#9a32cd" stroke-dasharray="5,2" d="M330.36,-181.35C366.52,-187.71 411.23,-195.97 451,-204.5 459.41,-206.3 468.39,-208.4 476.9,-210.47"/>
<polygon fill="#9a32cd" stroke="#9a32cd" points="330.85,-177.88 320.4,-179.61 329.65,-184.78 330.85,-177.88"/>
<text text-anchor="middle" x="409.5" y="-207.7" font-family="-apple-system, BlinkMacSystemFont, 'Segoe UI', Roboto, Oxygen, Ubuntu, Cantarell, 'Fira Sans', 'Droid Sans', 'Helvetica Neue', sans-serif" font-size="11.00"> _logger</text>
</g>
<!-- Node12 -->
<g id="node7" class="node">
<title>Node12</title>
<g id="a_node7"><a xlink:title=" ">
<polygon fill="none" stroke="black" points="194,-102.5 194,-134.5 324,-134.5 324,-102.5 194,-102.5"/>
<text text-anchor="start" x="202" y="-121.7" font-family="-apple-system, BlinkMacSystemFont, 'Segoe UI', Roboto, Oxygen, Ubuntu, Cantarell, 'Fira Sans', 'Droid Sans', 'Helvetica Neue', sans-serif" font-size="11.00">std::unique_ptr&lt; Details</text>
<text text-anchor="middle" x="259" y="-109.7" font-family="-apple-system, BlinkMacSystemFont, 'Segoe UI', Roboto, Oxygen, Ubuntu, Cantarell, 'Fira Sans', 'Droid Sans', 'Helvetica Neue', sans-serif" font-size="11.00">::HttpClientImpl &gt;</text>
</a>
</g>
</g>
<!-- Node12&#45;&gt;Node2 -->
<g id="edge7" class="edge">
<title>Node12&#45;&gt;Node2</title>
<path fill="none" stroke="#9a32cd" stroke-dasharray="5,2" d="M334.08,-132.87C370.45,-141.55 414.23,-154.48 451,-172.5 471.66,-182.63 492.52,-199.48 504.85,-210.28"/>
<polygon fill="#9a32cd" stroke="#9a32cd" points="334.56,-129.39 324.03,-130.54 332.98,-136.21 334.56,-129.39"/>
<text text-anchor="middle" x="409.5" y="-175.7" font-family="-apple-system, BlinkMacSystemFont, 'Segoe UI', Roboto, Oxygen, Ubuntu, Cantarell, 'Fira Sans', 'Droid Sans', 'Helvetica Neue', sans-serif" font-size="11.00"> _HttpClient</text>
</g>
<!-- Node13 -->
<g id="node8" class="node">
<title>Node13</title>
<g id="a_node8"><a xlink:title=" ">
<polygon fill="none" stroke="black" points="194,-51.5 194,-83.5 324,-83.5 324,-51.5 194,-51.5"/>
<text text-anchor="start" x="202" y="-70.7" font-family="-apple-system, BlinkMacSystemFont, 'Segoe UI', Roboto, Oxygen, Ubuntu, Cantarell, 'Fira Sans', 'Droid Sans', 'Helvetica Neue', sans-serif" font-size="11.00">std::unique_ptr&lt; Details</text>
<text text-anchor="middle" x="259" y="-58.7" font-family="-apple-system, BlinkMacSystemFont, 'Segoe UI', Roboto, Oxygen, Ubuntu, Cantarell, 'Fira Sans', 'Droid Sans', 'Helvetica Neue', sans-serif" font-size="11.00">::MessageClientImpl &gt;</text>
</a>
</g>
</g>
<!-- Node13&#45;&gt;Node2 -->
<g id="edge8" class="edge">
<title>Node13&#45;&gt;Node2</title>
<path fill="none" stroke="#9a32cd" stroke-dasharray="5,2" d="M334.23,-77.8C372.02,-85.92 417.03,-100.27 451,-125.5 481.96,-148.5 503.18,-190.81 511.75,-210.25"/>
<polygon fill="#9a32cd" stroke="#9a32cd" points="334.78,-74.34 324.28,-75.77 333.38,-81.2 334.78,-74.34"/>
<text text-anchor="middle" x="409.5" y="-128.7" font-family="-apple-system, BlinkMacSystemFont, 'Segoe UI', Roboto, Oxygen, Ubuntu, Cantarell, 'Fira Sans', 'Droid Sans', 'Helvetica Neue', sans-serif" font-size="11.00"> _MessageClient</text>
</g>
<!-- Node14 -->
<g id="node9" class="node">
<title>Node14</title>
<g id="a_node9"><a xlink:title=" ">
<polygon fill="none" stroke="black" points="199.5,-0.5 199.5,-32.5 318.5,-32.5 318.5,-0.5 199.5,-0.5"/>
<text text-anchor="start" x="207.5" y="-19.7" font-family="-apple-system, BlinkMacSystemFont, 'Segoe UI', Roboto, Oxygen, Ubuntu, Cantarell, 'Fira Sans', 'Droid Sans', 'Helvetica Neue', sans-serif" font-size="11.00">std::unique_ptr&lt; Utils</text>
<text text-anchor="middle" x="259" y="-7.7" font-family="-apple-system, BlinkMacSystemFont, 'Segoe UI', Roboto, Oxygen, Ubuntu, Cantarell, 'Fira Sans', 'Droid Sans', 'Helvetica Neue', sans-serif" font-size="11.00">::ThreadPool &gt;</text>
</a>
</g>
</g>
<!-- Node14&#45;&gt;Node2 -->
<g id="edge9" class="edge">
<title>Node14&#45;&gt;Node2</title>
<path fill="none" stroke="#9a32cd" stroke-dasharray="5,2" d="M328.78,-21C368.58,-26.88 417.3,-40.09 451,-69.5 495.51,-108.34 510.54,-183.1 514.66,-210.29"/>
<polygon fill="#9a32cd" stroke="#9a32cd" points="329.25,-17.54 318.87,-19.66 328.31,-24.47 329.25,-17.54"/>
<text text-anchor="middle" x="409.5" y="-72.7" font-family="-apple-system, BlinkMacSystemFont, 'Segoe UI', Roboto, Oxygen, Ubuntu, Cantarell, 'Fira Sans', 'Droid Sans', 'Helvetica Neue', sans-serif" font-size="11.00"> _ThreadPool</text>
</g>
<!-- Node15&#45;&gt;Node2 -->
<g id="edge10" class="edge">
<title>Node15&#45;&gt;Node2</title>
<path fill="none" stroke="#9a32cd" stroke-dasharray="5,2" d="M359.95,-254.35C389.36,-248.99 421.53,-242.82 451,-236.5 459.41,-234.7 468.39,-232.6 476.9,-230.53"/>
<polygon fill="#9a32cd" stroke="#9a32cd" points="359.31,-250.91 350.1,-256.14 360.56,-257.8 359.31,-250.91"/>
<text text-anchor="middle" x="409.5" y="-254.7" font-family="-apple-system, BlinkMacSystemFont, 'Segoe UI', Roboto, Oxygen, Ubuntu, Cantarell, 'Fira Sans', 'Droid Sans', 'Helvetica Neue', sans-serif" font-size="11.00"> _HandshakeInfo</text>
</g>
<!-- Node19&#45;&gt;Node2 -->
<g id="edge12" class="edge">
<title>Node19&#45;&gt;Node2</title>
<path fill="none" stroke="#9a32cd" stroke-dasharray="5,2" d="M346.36,-220.5C387.25,-220.5 434.51,-220.5 468.74,-220.5"/>
<polygon fill="#9a32cd" stroke="#9a32cd" points="346.12,-217 336.12,-220.5 346.12,-224 346.12,-217"/>
<text text-anchor="middle" x="409.5" y="-223.7" font-family="-apple-system, BlinkMacSystemFont, 'Segoe UI', Roboto, Oxygen, Ubuntu, Cantarell, 'Fira Sans', 'Droid Sans', 'Helvetica Neue', sans-serif" font-size="11.00"> _EventHandlers</text>
</g>
</g>
</svg>
