<?xml version="1.0" encoding="UTF-8" standalone="no"?>
<!DOCTYPE svg PUBLIC "-//W3C//DTD SVG 1.1//EN"
 "http://www.w3.org/Graphics/SVG/1.1/DTD/svg11.dtd">
<!-- Generated by graphviz version 2.43.0 (0)
 -->
<!-- Title: Mirai::BotEvent Pages: 1 -->
<svg width="475pt" height="185pt"
 viewBox="0.00 0.00 475.00 185.00" xmlns="http://www.w3.org/2000/svg" xmlns:xlink="http://www.w3.org/1999/xlink">
<g id="graph0" class="graph" transform="scale(1 1) rotate(0) translate(4 181)">
<title>Mirai::BotEvent</title>
<!-- Node1 -->
<g id="node1" class="node">
<title>Node1</title>
<g id="a_node1"><a xlink:title="与Bot本身相关的事件的基类">
<polygon fill="#bfbfbf" stroke="black" points="146,-78.5 146,-98.5 247,-98.5 247,-78.5 146,-78.5"/>
<text text-anchor="middle" x="196.5" y="-85.7" font-family="-apple-system,BlinkMacSystemFont,'SegoeUI',Roboto,Oxygen,Ubuntu,Cantarell,'FiraSans','DroidSans','HelveticaNeue',sans-serif" font-size="11.00">Mirai::BotEvent</text>
</a>
</g>
</g>
<!-- Node3 -->
<g id="node3" class="node">
<title>Node3</title>
<g id="a_node3"><a xlink:href="classMirai_1_1BotOfflineEventActive.html" target="_top" xlink:title="Bot主动下线事件">
<polygon fill="none" stroke="black" points="289,-156.5 289,-176.5 461,-176.5 461,-156.5 289,-156.5"/>
<text text-anchor="middle" x="375" y="-163.7" font-family="-apple-system,BlinkMacSystemFont,'SegoeUI',Roboto,Oxygen,Ubuntu,Cantarell,'FiraSans','DroidSans','HelveticaNeue',sans-serif" font-size="11.00">Mirai::BotOfflineEventActive</text>
</a>
</g>
</g>
<!-- Node1&#45;&gt;Node3 -->
<g id="edge2" class="edge">
<title>Node1&#45;&gt;Node3</title>
<path fill="none" stroke="midnightblue" d="M216.59,-105.02C233.1,-118.45 258.16,-136.85 283,-147.5 291.46,-151.12 300.66,-154.08 309.85,-156.48"/>
<polygon fill="midnightblue" stroke="midnightblue" points="218.71,-102.23 208.78,-98.52 214.23,-107.61 218.71,-102.23"/>
</g>
<!-- Node4 -->
<g id="node4" class="node">
<title>Node4</title>
<g id="a_node4"><a xlink:href="classMirai_1_1BotOfflineEventDropped.html" target="_top" xlink:title="Bot掉线事件">
<polygon fill="none" stroke="black" points="283,-117.5 283,-137.5 467,-137.5 467,-117.5 283,-117.5"/>
<text text-anchor="middle" x="375" y="-124.7" font-family="-apple-system,BlinkMacSystemFont,'SegoeUI',Roboto,Oxygen,Ubuntu,Cantarell,'FiraSans','DroidSans','HelveticaNeue',sans-serif" font-size="11.00">Mirai::BotOfflineEventDropped</text>
</a>
</g>
</g>
<!-- Node1&#45;&gt;Node4 -->
<g id="edge3" class="edge">
<title>Node1&#45;&gt;Node4</title>
<path fill="none" stroke="midnightblue" d="M249.57,-100.89C260.6,-103.45 272.17,-106.1 283,-108.5 296.55,-111.5 311.27,-114.63 324.84,-117.46"/>
<polygon fill="midnightblue" stroke="midnightblue" points="250.17,-97.44 239.64,-98.57 248.58,-104.25 250.17,-97.44"/>
</g>
<!-- Node5 -->
<g id="node5" class="node">
<title>Node5</title>
<g id="a_node5"><a xlink:href="classMirai_1_1BotOfflineEventForce.html" target="_top" xlink:title="Bot强制下线事件">
<polygon fill="none" stroke="black" points="291.5,-78.5 291.5,-98.5 458.5,-98.5 458.5,-78.5 291.5,-78.5"/>
<text text-anchor="middle" x="375" y="-85.7" font-family="-apple-system,BlinkMacSystemFont,'SegoeUI',Roboto,Oxygen,Ubuntu,Cantarell,'FiraSans','DroidSans','HelveticaNeue',sans-serif" font-size="11.00">Mirai::BotOfflineEventForce</text>
</a>
</g>
</g>
<!-- Node1&#45;&gt;Node5 -->
<g id="edge4" class="edge">
<title>Node1&#45;&gt;Node5</title>
<path fill="none" stroke="midnightblue" d="M257.39,-88.5C268.31,-88.5 279.88,-88.5 291.33,-88.5"/>
<polygon fill="midnightblue" stroke="midnightblue" points="257.13,-85 247.13,-88.5 257.13,-92 257.13,-85"/>
</g>
<!-- Node6 -->
<g id="node6" class="node">
<title>Node6</title>
<g id="a_node6"><a xlink:href="classMirai_1_1BotOnlineEvent.html" target="_top" xlink:title="Bot上线事件">
<polygon fill="none" stroke="black" points="306.5,-39.5 306.5,-59.5 443.5,-59.5 443.5,-39.5 306.5,-39.5"/>
<text text-anchor="middle" x="375" y="-46.7" font-family="-apple-system,BlinkMacSystemFont,'SegoeUI',Roboto,Oxygen,Ubuntu,Cantarell,'FiraSans','DroidSans','HelveticaNeue',sans-serif" font-size="11.00">Mirai::BotOnlineEvent</text>
</a>
</g>
</g>
<!-- Node1&#45;&gt;Node6 -->
<g id="edge5" class="edge">
<title>Node1&#45;&gt;Node6</title>
<path fill="none" stroke="midnightblue" d="M249.57,-76.11C260.6,-73.55 272.17,-70.9 283,-68.5 296.55,-65.5 311.27,-62.37 324.84,-59.54"/>
<polygon fill="midnightblue" stroke="midnightblue" points="248.58,-72.75 239.64,-78.43 250.17,-79.56 248.58,-72.75"/>
</g>
<!-- Node7 -->
<g id="node7" class="node">
<title>Node7</title>
<g id="a_node7"><a xlink:href="classMirai_1_1BotReloginEvent.html" target="_top" xlink:title="Bot重新登录事件">
<polygon fill="none" stroke="black" points="304,-0.5 304,-20.5 446,-20.5 446,-0.5 304,-0.5"/>
<text text-anchor="middle" x="375" y="-7.7" font-family="-apple-system,BlinkMacSystemFont,'SegoeUI',Roboto,Oxygen,Ubuntu,Cantarell,'FiraSans','DroidSans','HelveticaNeue',sans-serif" font-size="11.00">Mirai::BotReloginEvent</text>
</a>
</g>
</g>
<!-- Node1&#45;&gt;Node7 -->
<g id="edge6" class="edge">
<title>Node1&#45;&gt;Node7</title>
<path fill="none" stroke="midnightblue" d="M216.59,-71.98C233.1,-58.55 258.16,-40.15 283,-29.5 291.46,-25.88 300.66,-22.92 309.85,-20.52"/>
<polygon fill="midnightblue" stroke="midnightblue" points="214.23,-69.39 208.78,-78.48 218.71,-74.77 214.23,-69.39"/>
</g>
<!-- Node2 -->
<g id="node2" class="node">
<title>Node2</title>
<g id="a_node2"><a xlink:href="classMirai_1_1EventBase.html" target="_top" xlink:title="Base class for all event types">
<polygon fill="none" stroke="black" points="0,-78.5 0,-98.5 110,-98.5 110,-78.5 0,-78.5"/>
<text text-anchor="middle" x="55" y="-85.7" font-family="-apple-system,BlinkMacSystemFont,'SegoeUI',Roboto,Oxygen,Ubuntu,Cantarell,'FiraSans','DroidSans','HelveticaNeue',sans-serif" font-size="11.00">Mirai::EventBase</text>
</a>
</g>
</g>
<!-- Node2&#45;&gt;Node1 -->
<g id="edge1" class="edge">
<title>Node2&#45;&gt;Node1</title>
<path fill="none" stroke="midnightblue" d="M120.54,-88.5C128.97,-88.5 137.5,-88.5 145.64,-88.5"/>
<polygon fill="midnightblue" stroke="midnightblue" points="120.33,-85 110.33,-88.5 120.33,-92 120.33,-85"/>
</g>
</g>
</svg>
