<?xml version="1.0" encoding="UTF-8" standalone="no"?>
<!DOCTYPE svg PUBLIC "-//W3C//DTD SVG 1.1//EN"
 "http://www.w3.org/Graphics/SVG/1.1/DTD/svg11.dtd">
<!-- Generated by graphviz version 3.0.0 (20220413.0242)
 -->
<!-- Title: Mirai::QuoteMessage Pages: 1 -->
<svg width="556pt" height="200pt"
 viewBox="0.00 0.00 556.00 200.00" xmlns="http://www.w3.org/2000/svg" xmlns:xlink="http://www.w3.org/1999/xlink">
<g id="graph0" class="graph" transform="scale(1 1) rotate(0) translate(4 196)">
<title>Mirai::QuoteMessage</title>
<!-- Node1 -->
<g id="node1" class="node">
<title>Node1</title>
<g id="a_node1"><a xlink:title="引用回复消息">
<polygon fill="#bfbfbf" stroke="black" points="429,-93.5 429,-113.5 548,-113.5 548,-93.5 429,-93.5"/>
<text text-anchor="middle" x="488.5" y="-100.7" font-family="-apple-system, BlinkMacSystemFont, 'Segoe UI', Roboto, Oxygen, Ubuntu, Cantarell, 'Fira Sans', 'Droid Sans', 'Helvetica Neue', sans-serif" font-size="11.00">Mirai::QuoteMessage</text>
</a>
</g>
</g>
<!-- Node2 -->
<g id="node2" class="node">
<title>Node2</title>
<g id="a_node2"><a xlink:href="classMirai_1_1MessageBase.html" target="_top" xlink:title="Base class for all message types">
<polygon fill="none" stroke="black" points="223.5,-171.5 223.5,-191.5 337.5,-191.5 337.5,-171.5 223.5,-171.5"/>
<text text-anchor="middle" x="280.5" y="-178.7" font-family="-apple-system, BlinkMacSystemFont, 'Segoe UI', Roboto, Oxygen, Ubuntu, Cantarell, 'Fira Sans', 'Droid Sans', 'Helvetica Neue', sans-serif" font-size="11.00">Mirai::MessageBase</text>
</a>
</g>
</g>
<!-- Node2&#45;&gt;Node1 -->
<g id="edge1" class="edge">
<title>Node2&#45;&gt;Node1</title>
<path fill="none" stroke="midnightblue" d="M335.29,-168.89C358.91,-162.65 386.73,-154.34 411,-144.5 432.65,-135.73 456.12,-122.55 471.28,-113.51"/>
<polygon fill="midnightblue" stroke="midnightblue" points="334.25,-165.54 325.45,-171.43 336.01,-172.32 334.25,-165.54"/>
</g>
<!-- Node3 -->
<g id="node3" class="node">
<title>Node3</title>
<g id="a_node3"><a xlink:href="classMirai_1_1Serializable.html" target="_top" xlink:title="Base class for all json serializable type">
<polygon fill="none" stroke="black" points="16,-171.5 16,-191.5 117,-191.5 117,-171.5 16,-171.5"/>
<text text-anchor="middle" x="66.5" y="-178.7" font-family="-apple-system, BlinkMacSystemFont, 'Segoe UI', Roboto, Oxygen, Ubuntu, Cantarell, 'Fira Sans', 'Droid Sans', 'Helvetica Neue', sans-serif" font-size="11.00">Mirai::Serializable</text>
</a>
</g>
</g>
<!-- Node3&#45;&gt;Node2 -->
<g id="edge2" class="edge">
<title>Node3&#45;&gt;Node2</title>
<path fill="none" stroke="midnightblue" d="M127.57,-181.5C157.65,-181.5 193.86,-181.5 223.38,-181.5"/>
<polygon fill="midnightblue" stroke="midnightblue" points="127.2,-178 117.2,-181.5 127.2,-185 127.2,-178"/>
</g>
<!-- Node4 -->
<g id="node4" class="node">
<title>Node4</title>
<g id="a_node4"><a xlink:href="classMirai_1_1GID__t.html" target="_top" xlink:title="群聊号码类型">
<polygon fill="none" stroke="black" points="243.5,-132.5 243.5,-152.5 317.5,-152.5 317.5,-132.5 243.5,-132.5"/>
<text text-anchor="middle" x="280.5" y="-139.7" font-family="-apple-system, BlinkMacSystemFont, 'Segoe UI', Roboto, Oxygen, Ubuntu, Cantarell, 'Fira Sans', 'Droid Sans', 'Helvetica Neue', sans-serif" font-size="11.00">Mirai::GID_t</text>
</a>
</g>
</g>
<!-- Node4&#45;&gt;Node1 -->
<g id="edge3" class="edge">
<title>Node4&#45;&gt;Node1</title>
<path fill="none" stroke="#9a32cd" stroke-dasharray="5,2" d="M327.38,-134.12C352.15,-129.56 383.26,-123.79 411,-118.5 419.24,-116.93 427.98,-115.24 436.49,-113.58"/>
<polygon fill="#9a32cd" stroke="#9a32cd" points="326.73,-130.68 317.52,-135.93 327.99,-137.56 326.73,-130.68"/>
<text text-anchor="middle" x="384" y="-131.7" font-family="-apple-system, BlinkMacSystemFont, 'Segoe UI', Roboto, Oxygen, Ubuntu, Cantarell, 'Fira Sans', 'Droid Sans', 'Helvetica Neue', sans-serif" font-size="11.00"> _GroupId</text>
</g>
<!-- Node5 -->
<g id="node5" class="node">
<title>Node5</title>
<g id="a_node5"><a xlink:href="classMirai_1_1UID__t.html" target="_top" xlink:title="Base class for QQ_t and GID_t">
<polygon fill="none" stroke="black" points="29.5,-122.5 29.5,-142.5 103.5,-142.5 103.5,-122.5 29.5,-122.5"/>
<text text-anchor="middle" x="66.5" y="-129.7" font-family="-apple-system, BlinkMacSystemFont, 'Segoe UI', Roboto, Oxygen, Ubuntu, Cantarell, 'Fira Sans', 'Droid Sans', 'Helvetica Neue', sans-serif" font-size="11.00">Mirai::UID_t</text>
</a>
</g>
</g>
<!-- Node5&#45;&gt;Node4 -->
<g id="edge4" class="edge">
<title>Node5&#45;&gt;Node4</title>
<path fill="none" stroke="midnightblue" d="M113.96,-134.69C152.81,-136.52 207.47,-139.1 243.18,-140.79"/>
<polygon fill="midnightblue" stroke="midnightblue" points="114.1,-131.19 103.94,-134.22 113.77,-138.19 114.1,-131.19"/>
</g>
<!-- Node6 -->
<g id="node6" class="node">
<title>Node6</title>
<g id="a_node6"><a xlink:href="classMirai_1_1QQ__t.html" target="_top" xlink:title="QQ号码类型">
<polygon fill="none" stroke="black" points="245,-93.5 245,-113.5 316,-113.5 316,-93.5 245,-93.5"/>
<text text-anchor="middle" x="280.5" y="-100.7" font-family="-apple-system, BlinkMacSystemFont, 'Segoe UI', Roboto, Oxygen, Ubuntu, Cantarell, 'Fira Sans', 'Droid Sans', 'Helvetica Neue', sans-serif" font-size="11.00">Mirai::QQ_t</text>
</a>
</g>
</g>
<!-- Node5&#45;&gt;Node6 -->
<g id="edge6" class="edge">
<title>Node5&#45;&gt;Node6</title>
<path fill="none" stroke="midnightblue" d="M113.86,-126.16C153.37,-120.75 209.25,-113.11 244.94,-108.23"/>
<polygon fill="midnightblue" stroke="midnightblue" points="113.38,-122.69 103.94,-127.51 114.33,-129.63 113.38,-122.69"/>
</g>
<!-- Node6&#45;&gt;Node1 -->
<g id="edge5" class="edge">
<title>Node6&#45;&gt;Node1</title>
<path fill="none" stroke="#9a32cd" stroke-dasharray="5,2" d="M326.64,-103.5C356.69,-103.5 396.46,-103.5 428.94,-103.5"/>
<polygon fill="#9a32cd" stroke="#9a32cd" points="326.45,-100 316.45,-103.5 326.45,-107 326.45,-100"/>
<text text-anchor="middle" x="384" y="-106.7" font-family="-apple-system, BlinkMacSystemFont, 'Segoe UI', Roboto, Oxygen, Ubuntu, Cantarell, 'Fira Sans', 'Droid Sans', 'Helvetica Neue', sans-serif" font-size="11.00"> _SenderId</text>
</g>
<!-- Node7 -->
<g id="node7" class="node">
<title>Node7</title>
<g id="a_node7"><a xlink:href="classMirai_1_1MessageChain.html" target="_top" xlink:title="消息链对象，由一系列消息元素组成">
<polygon fill="none" stroke="black" points="222,-54.5 222,-74.5 339,-74.5 339,-54.5 222,-54.5"/>
<text text-anchor="middle" x="280.5" y="-61.7" font-family="-apple-system, BlinkMacSystemFont, 'Segoe UI', Roboto, Oxygen, Ubuntu, Cantarell, 'Fira Sans', 'Droid Sans', 'Helvetica Neue', sans-serif" font-size="11.00">Mirai::MessageChain</text>
</a>
</g>
</g>
<!-- Node7&#45;&gt;Node1 -->
<g id="edge7" class="edge">
<title>Node7&#45;&gt;Node1</title>
<path fill="none" stroke="#9a32cd" stroke-dasharray="5,2" d="M349.19,-76.12C369.12,-79.65 390.96,-83.63 411,-87.5 420.59,-89.35 430.84,-91.43 440.62,-93.46"/>
<polygon fill="#9a32cd" stroke="#9a32cd" points="349.72,-72.66 339.27,-74.37 348.51,-79.56 349.72,-72.66"/>
<text text-anchor="middle" x="384" y="-90.7" font-family="-apple-system, BlinkMacSystemFont, 'Segoe UI', Roboto, Oxygen, Ubuntu, Cantarell, 'Fira Sans', 'Droid Sans', 'Helvetica Neue', sans-serif" font-size="11.00"> _origin</text>
</g>
<!-- Node8 -->
<g id="node8" class="node">
<title>Node8</title>
<g id="a_node8"><a xlink:title=" ">
<polygon fill="none" stroke="red" points="0,-51.5 0,-83.5 133,-83.5 133,-51.5 0,-51.5"/>
<text text-anchor="start" x="8" y="-70.7" font-family="-apple-system, BlinkMacSystemFont, 'Segoe UI', Roboto, Oxygen, Ubuntu, Cantarell, 'Fira Sans', 'Droid Sans', 'Helvetica Neue', sans-serif" font-size="11.00">std::vector&lt; std::unique</text>
<text text-anchor="middle" x="66.5" y="-58.7" font-family="-apple-system, BlinkMacSystemFont, 'Segoe UI', Roboto, Oxygen, Ubuntu, Cantarell, 'Fira Sans', 'Droid Sans', 'Helvetica Neue', sans-serif" font-size="11.00">_ptr&lt; MessageBase &gt; &gt;</text>
</a>
</g>
</g>
<!-- Node8&#45;&gt;Node7 -->
<g id="edge8" class="edge">
<title>Node8&#45;&gt;Node7</title>
<path fill="none" stroke="#9a32cd" stroke-dasharray="5,2" d="M143.26,-66.43C169.09,-66.06 197.53,-65.66 221.72,-65.32"/>
<polygon fill="#9a32cd" stroke="#9a32cd" points="143.08,-62.93 133.13,-66.57 143.17,-69.93 143.08,-62.93"/>
<text text-anchor="middle" x="177.5" y="-68.7" font-family="-apple-system, BlinkMacSystemFont, 'Segoe UI', Roboto, Oxygen, Ubuntu, Cantarell, 'Fira Sans', 'Droid Sans', 'Helvetica Neue', sans-serif" font-size="11.00"> _message</text>
</g>
<!-- Node10 -->
<g id="node9" class="node">
<title>Node10</title>
<g id="a_node9"><a xlink:title=" ">
<polygon fill="none" stroke="black" points="235,-12.5 235,-32.5 326,-32.5 326,-12.5 235,-12.5"/>
<text text-anchor="middle" x="280.5" y="-19.7" font-family="-apple-system, BlinkMacSystemFont, 'Segoe UI', Roboto, Oxygen, Ubuntu, Cantarell, 'Fira Sans', 'Droid Sans', 'Helvetica Neue', sans-serif" font-size="11.00">std::string_view</text>
</a>
</g>
</g>
<!-- Node10&#45;&gt;Node1 -->
<g id="edge9" class="edge">
<title>Node10&#45;&gt;Node1</title>
<path fill="none" stroke="#9a32cd" stroke-dasharray="5,2" d="M332.51,-35.2C356.71,-41.89 385.79,-50.92 411,-61.5 432.79,-70.65 456.43,-84.24 471.58,-93.47"/>
<polygon fill="#9a32cd" stroke="#9a32cd" points="333.37,-31.81 322.81,-32.57 331.54,-38.56 333.37,-31.81"/>
<text text-anchor="middle" x="384" y="-64.7" font-family="-apple-system, BlinkMacSystemFont, 'Segoe UI', Roboto, Oxygen, Ubuntu, Cantarell, 'Fira Sans', 'Droid Sans', 'Helvetica Neue', sans-serif" font-size="11.00"> _TYPE_</text>
</g>
<!-- Node11 -->
<g id="node10" class="node">
<title>Node11</title>
<g id="a_node10"><a xlink:title=" ">
<polygon fill="none" stroke="black" points="5.5,-0.5 5.5,-32.5 127.5,-32.5 127.5,-0.5 5.5,-0.5"/>
<text text-anchor="start" x="13.5" y="-19.7" font-family="-apple-system, BlinkMacSystemFont, 'Segoe UI', Roboto, Oxygen, Ubuntu, Cantarell, 'Fira Sans', 'Droid Sans', 'Helvetica Neue', sans-serif" font-size="11.00">std::basic_string_view</text>
<text text-anchor="middle" x="66.5" y="-7.7" font-family="-apple-system, BlinkMacSystemFont, 'Segoe UI', Roboto, Oxygen, Ubuntu, Cantarell, 'Fira Sans', 'Droid Sans', 'Helvetica Neue', sans-serif" font-size="11.00">&lt; Char &gt;</text>
</a>
</g>
</g>
<!-- Node11&#45;&gt;Node10 -->
<g id="edge10" class="edge">
<title>Node11&#45;&gt;Node10</title>
<path fill="none" stroke="midnightblue" d="M137.86,-18.49C169.78,-19.39 206.59,-20.44 234.68,-21.23"/>
<polygon fill="midnightblue" stroke="midnightblue" points="137.78,-14.99 127.68,-18.2 137.58,-21.98 137.78,-14.99"/>
</g>
</g>
</svg>
