<?xml version="1.0" encoding="UTF-8" standalone="no"?>
<!DOCTYPE svg PUBLIC "-//W3C//DTD SVG 1.1//EN"
 "http://www.w3.org/Graphics/SVG/1.1/DTD/svg11.dtd">
<!-- Generated by graphviz version 3.0.0 (20220413.0242)
 -->
<!-- Title: Mirai::CommandExecutedEvent Pages: 1 -->
<svg width="760pt" height="160pt"
 viewBox="0.00 0.00 760.00 159.50" xmlns="http://www.w3.org/2000/svg" xmlns:xlink="http://www.w3.org/1999/xlink">
<g id="graph0" class="graph" transform="scale(1 1) rotate(0) translate(4 155.5)">
<title>Mirai::CommandExecutedEvent</title>
<!-- Node1 -->
<g id="node1" class="node">
<title>Node1</title>
<g id="a_node1"><a xlink:title="命令执行事件">
<polygon fill="#bfbfbf" stroke="black" points="585,-82.5 585,-102.5 752,-102.5 752,-82.5 585,-82.5"/>
<text text-anchor="middle" x="668.5" y="-89.7" font-family="-apple-system, BlinkMacSystemFont, 'Segoe UI', Roboto, Oxygen, Ubuntu, Cantarell, 'Fira Sans', 'Droid Sans', 'Helvetica Neue', sans-serif" font-size="11.00">Mirai::CommandExecutedEvent</text>
</a>
</g>
</g>
<!-- Node2 -->
<g id="node2" class="node">
<title>Node2</title>
<g id="a_node2"><a xlink:href="classMirai_1_1EventBase.html" target="_top" xlink:title="Base class for all event types">
<polygon fill="none" stroke="black" points="397.5,-99.5 397.5,-119.5 495.5,-119.5 495.5,-99.5 397.5,-99.5"/>
<text text-anchor="middle" x="446.5" y="-106.7" font-family="-apple-system, BlinkMacSystemFont, 'Segoe UI', Roboto, Oxygen, Ubuntu, Cantarell, 'Fira Sans', 'Droid Sans', 'Helvetica Neue', sans-serif" font-size="11.00">Mirai::EventBase</text>
</a>
</g>
</g>
<!-- Node2&#45;&gt;Node1 -->
<g id="edge1" class="edge">
<title>Node2&#45;&gt;Node1</title>
<path fill="none" stroke="midnightblue" d="M505.63,-105.01C529.91,-103.13 558.57,-100.92 584.98,-98.88"/>
<polygon fill="midnightblue" stroke="midnightblue" points="505.21,-101.53 495.51,-105.79 505.75,-108.51 505.21,-101.53"/>
</g>
<!-- Node3 -->
<g id="node3" class="node">
<title>Node3</title>
<g id="a_node3"><a xlink:href="classMirai_1_1MiraiClient.html" target="_top" xlink:title="提供与mirai&#45;api&#45;http网络交互的封装">
<polygon fill="none" stroke="red" points="184.5,-102.5 184.5,-122.5 280.5,-122.5 280.5,-102.5 184.5,-102.5"/>
<text text-anchor="middle" x="232.5" y="-109.7" font-family="-apple-system, BlinkMacSystemFont, 'Segoe UI', Roboto, Oxygen, Ubuntu, Cantarell, 'Fira Sans', 'Droid Sans', 'Helvetica Neue', sans-serif" font-size="11.00">Mirai::MiraiClient</text>
</a>
</g>
</g>
<!-- Node3&#45;&gt;Node2 -->
<g id="edge2" class="edge">
<title>Node3&#45;&gt;Node2</title>
<path fill="none" stroke="#9a32cd" stroke-dasharray="5,2" d="M290.63,-111.69C324.05,-111.22 365.77,-110.63 397.48,-110.18"/>
<polygon fill="#9a32cd" stroke="#9a32cd" points="290.5,-108.19 280.55,-111.83 290.6,-115.19 290.5,-108.19"/>
<text text-anchor="middle" x="343.5" y="-113.7" font-family="-apple-system, BlinkMacSystemFont, 'Segoe UI', Roboto, Oxygen, Ubuntu, Cantarell, 'Fira Sans', 'Droid Sans', 'Helvetica Neue', sans-serif" font-size="11.00"> _client</text>
</g>
<!-- Node6 -->
<g id="node4" class="node">
<title>Node6</title>
<g id="a_node4"><a xlink:title=" ">
<polygon fill="none" stroke="red" points="0,-121.5 0,-141.5 63,-141.5 63,-121.5 0,-121.5"/>
<text text-anchor="middle" x="31.5" y="-128.7" font-family="-apple-system, BlinkMacSystemFont, 'Segoe UI', Roboto, Oxygen, Ubuntu, Cantarell, 'Fira Sans', 'Droid Sans', 'Helvetica Neue', sans-serif" font-size="11.00">std::string</text>
</a>
</g>
</g>
<!-- Node6&#45;&gt;Node1 -->
<g id="edge4" class="edge">
<title>Node6&#45;&gt;Node1</title>
<path fill="none" stroke="#9a32cd" stroke-dasharray="5,2" d="M73.28,-136.91C75.89,-137.14 78.48,-137.34 81,-137.5 110.72,-139.33 118.22,-137.83 148,-137.5 306.7,-135.72 347.48,-148.85 505,-129.5 549.8,-124 600.34,-111.46 632.99,-102.51"/>
<polygon fill="#9a32cd" stroke="#9a32cd" points="73.54,-133.42 63.24,-135.88 72.83,-140.38 73.54,-133.42"/>
<text text-anchor="middle" x="343.5" y="-142.7" font-family="-apple-system, BlinkMacSystemFont, 'Segoe UI', Roboto, Oxygen, Ubuntu, Cantarell, 'Fira Sans', 'Droid Sans', 'Helvetica Neue', sans-serif" font-size="11.00"> _name</text>
</g>
<!-- Node6&#45;&gt;Node3 -->
<g id="edge3" class="edge">
<title>Node6&#45;&gt;Node3</title>
<path fill="none" stroke="#9a32cd" stroke-dasharray="5,2" d="M73.19,-126.35C75.83,-126.06 78.45,-125.77 81,-125.5 115.56,-121.87 154.66,-118.52 184.35,-116.12"/>
<polygon fill="#9a32cd" stroke="#9a32cd" points="72.53,-122.91 63.01,-127.55 73.35,-129.86 72.53,-122.91"/>
<text text-anchor="middle" x="114.5" y="-128.7" font-family="-apple-system, BlinkMacSystemFont, 'Segoe UI', Roboto, Oxygen, Ubuntu, Cantarell, 'Fira Sans', 'Droid Sans', 'Helvetica Neue', sans-serif" font-size="11.00"> _SessionKey</text>
</g>
<!-- Node21 -->
<g id="node5" class="node">
<title>Node21</title>
<g id="a_node5"><a xlink:href="classMirai_1_1MessageChain.html" target="_top" xlink:title="消息链对象，由一系列消息元素组成">
<polygon fill="none" stroke="black" points="388,-58.5 388,-78.5 505,-78.5 505,-58.5 388,-58.5"/>
<text text-anchor="middle" x="446.5" y="-65.7" font-family="-apple-system, BlinkMacSystemFont, 'Segoe UI', Roboto, Oxygen, Ubuntu, Cantarell, 'Fira Sans', 'Droid Sans', 'Helvetica Neue', sans-serif" font-size="11.00">Mirai::MessageChain</text>
</a>
</g>
</g>
<!-- Node21&#45;&gt;Node1 -->
<g id="edge5" class="edge">
<title>Node21&#45;&gt;Node1</title>
<path fill="none" stroke="#9a32cd" stroke-dasharray="5,2" d="M515.22,-75.89C537.16,-78.28 561.75,-80.96 584.65,-83.46"/>
<polygon fill="#9a32cd" stroke="#9a32cd" points="515.34,-72.38 505.02,-74.77 514.58,-79.34 515.34,-72.38"/>
<text text-anchor="middle" x="545" y="-83.7" font-family="-apple-system, BlinkMacSystemFont, 'Segoe UI', Roboto, Oxygen, Ubuntu, Cantarell, 'Fira Sans', 'Droid Sans', 'Helvetica Neue', sans-serif" font-size="11.00"> _args</text>
</g>
<!-- Node22 -->
<g id="node6" class="node">
<title>Node22</title>
<g id="a_node6"><a xlink:title=" ">
<polygon fill="none" stroke="red" points="166,-51.5 166,-83.5 299,-83.5 299,-51.5 166,-51.5"/>
<text text-anchor="start" x="174" y="-70.7" font-family="-apple-system, BlinkMacSystemFont, 'Segoe UI', Roboto, Oxygen, Ubuntu, Cantarell, 'Fira Sans', 'Droid Sans', 'Helvetica Neue', sans-serif" font-size="11.00">std::vector&lt; std::unique</text>
<text text-anchor="middle" x="232.5" y="-58.7" font-family="-apple-system, BlinkMacSystemFont, 'Segoe UI', Roboto, Oxygen, Ubuntu, Cantarell, 'Fira Sans', 'Droid Sans', 'Helvetica Neue', sans-serif" font-size="11.00">_ptr&lt; MessageBase &gt; &gt;</text>
</a>
</g>
</g>
<!-- Node22&#45;&gt;Node21 -->
<g id="edge6" class="edge">
<title>Node22&#45;&gt;Node21</title>
<path fill="none" stroke="#9a32cd" stroke-dasharray="5,2" d="M309.26,-67.86C335.09,-67.98 363.53,-68.11 387.72,-68.23"/>
<polygon fill="#9a32cd" stroke="#9a32cd" points="309.14,-64.36 299.13,-67.81 309.11,-71.36 309.14,-64.36"/>
<text text-anchor="middle" x="343.5" y="-70.7" font-family="-apple-system, BlinkMacSystemFont, 'Segoe UI', Roboto, Oxygen, Ubuntu, Cantarell, 'Fira Sans', 'Droid Sans', 'Helvetica Neue', sans-serif" font-size="11.00"> _message</text>
</g>
<!-- Node25 -->
<g id="node7" class="node">
<title>Node25</title>
<g id="a_node7"><a xlink:title=" ">
<polygon fill="none" stroke="black" points="401,-13.5 401,-33.5 492,-33.5 492,-13.5 401,-13.5"/>
<text text-anchor="middle" x="446.5" y="-20.7" font-family="-apple-system, BlinkMacSystemFont, 'Segoe UI', Roboto, Oxygen, Ubuntu, Cantarell, 'Fira Sans', 'Droid Sans', 'Helvetica Neue', sans-serif" font-size="11.00">std::string_view</text>
</a>
</g>
</g>
<!-- Node25&#45;&gt;Node1 -->
<g id="edge7" class="edge">
<title>Node25&#45;&gt;Node1</title>
<path fill="none" stroke="#9a32cd" stroke-dasharray="5,2" d="M489.97,-36.56C512.81,-43.61 541.46,-52.48 567,-60.5 590.24,-67.8 616.45,-76.15 636.28,-82.49"/>
<polygon fill="#9a32cd" stroke="#9a32cd" points="490.82,-33.16 480.24,-33.56 488.76,-39.85 490.82,-33.16"/>
<text text-anchor="middle" x="545" y="-63.7" font-family="-apple-system, BlinkMacSystemFont, 'Segoe UI', Roboto, Oxygen, Ubuntu, Cantarell, 'Fira Sans', 'Droid Sans', 'Helvetica Neue', sans-serif" font-size="11.00"> _TYPE_</text>
</g>
<!-- Node26 -->
<g id="node8" class="node">
<title>Node26</title>
<g id="a_node8"><a xlink:title=" ">
<polygon fill="none" stroke="black" points="171.5,-0.5 171.5,-32.5 293.5,-32.5 293.5,-0.5 171.5,-0.5"/>
<text text-anchor="start" x="179.5" y="-19.7" font-family="-apple-system, BlinkMacSystemFont, 'Segoe UI', Roboto, Oxygen, Ubuntu, Cantarell, 'Fira Sans', 'Droid Sans', 'Helvetica Neue', sans-serif" font-size="11.00">std::basic_string_view</text>
<text text-anchor="middle" x="232.5" y="-7.7" font-family="-apple-system, BlinkMacSystemFont, 'Segoe UI', Roboto, Oxygen, Ubuntu, Cantarell, 'Fira Sans', 'Droid Sans', 'Helvetica Neue', sans-serif" font-size="11.00">&lt; Char &gt;</text>
</a>
</g>
</g>
<!-- Node26&#45;&gt;Node25 -->
<g id="edge8" class="edge">
<title>Node26&#45;&gt;Node25</title>
<path fill="none" stroke="midnightblue" d="M303.86,-18.82C335.78,-19.88 372.59,-21.09 400.68,-22.02"/>
<polygon fill="midnightblue" stroke="midnightblue" points="303.79,-15.32 293.68,-18.49 303.56,-22.32 303.79,-15.32"/>
</g>
</g>
</svg>
