<?xml version="1.0" encoding="UTF-8" standalone="no"?>
<!DOCTYPE svg PUBLIC "-//W3C//DTD SVG 1.1//EN"
 "http://www.w3.org/Graphics/SVG/1.1/DTD/svg11.dtd">
<!-- Generated by graphviz version 3.0.0 (20220413.0242)
 -->
<!-- Title: Mirai::ForwardMessage::Node Pages: 1 -->
<svg width="587pt" height="164pt"
 viewBox="0.00 0.00 587.00 164.00" xmlns="http://www.w3.org/2000/svg" xmlns:xlink="http://www.w3.org/1999/xlink">
<g id="graph0" class="graph" transform="scale(1 1) rotate(0) translate(4 160)">
<title>Mirai::ForwardMessage::Node</title>
<!-- Node1 -->
<g id="node1" class="node">
<title>Node1</title>
<g id="a_node1"><a xlink:title="转发消息节点，代表一条转发消息">
<polygon fill="#bfbfbf" stroke="black" points="449,-69.5 449,-101.5 579,-101.5 579,-69.5 449,-69.5"/>
<text text-anchor="start" x="457" y="-88.7" font-family="-apple-system, BlinkMacSystemFont, 'Segoe UI', Roboto, Oxygen, Ubuntu, Cantarell, 'Fira Sans', 'Droid Sans', 'Helvetica Neue', sans-serif" font-size="11.00">Mirai::ForwardMessage</text>
<text text-anchor="middle" x="514" y="-76.7" font-family="-apple-system, BlinkMacSystemFont, 'Segoe UI', Roboto, Oxygen, Ubuntu, Cantarell, 'Fira Sans', 'Droid Sans', 'Helvetica Neue', sans-serif" font-size="11.00">::Node</text>
</a>
</g>
</g>
<!-- Node2 -->
<g id="node2" class="node">
<title>Node2</title>
<g id="a_node2"><a xlink:href="classMirai_1_1Serializable.html" target="_top" xlink:title="Base class for all json serializable type">
<polygon fill="none" stroke="black" points="230,-135.5 230,-155.5 331,-155.5 331,-135.5 230,-135.5"/>
<text text-anchor="middle" x="280.5" y="-142.7" font-family="-apple-system, BlinkMacSystemFont, 'Segoe UI', Roboto, Oxygen, Ubuntu, Cantarell, 'Fira Sans', 'Droid Sans', 'Helvetica Neue', sans-serif" font-size="11.00">Mirai::Serializable</text>
</a>
</g>
</g>
<!-- Node2&#45;&gt;Node1 -->
<g id="edge1" class="edge">
<title>Node2&#45;&gt;Node1</title>
<path fill="none" stroke="midnightblue" d="M340.96,-135.09C368.55,-129.77 401.67,-122.69 431,-114.5 444.24,-110.81 458.42,-106.07 471.21,-101.51"/>
<polygon fill="midnightblue" stroke="midnightblue" points="340.23,-131.67 331.06,-136.97 341.53,-138.54 340.23,-131.67"/>
</g>
<!-- Node3 -->
<g id="node3" class="node">
<title>Node3</title>
<g id="a_node3"><a xlink:href="classMirai_1_1QQ__t.html" target="_top" xlink:title="QQ号码类型">
<polygon fill="none" stroke="black" points="245,-96.5 245,-116.5 316,-116.5 316,-96.5 245,-96.5"/>
<text text-anchor="middle" x="280.5" y="-103.7" font-family="-apple-system, BlinkMacSystemFont, 'Segoe UI', Roboto, Oxygen, Ubuntu, Cantarell, 'Fira Sans', 'Droid Sans', 'Helvetica Neue', sans-serif" font-size="11.00">Mirai::QQ_t</text>
</a>
</g>
</g>
<!-- Node3&#45;&gt;Node1 -->
<g id="edge2" class="edge">
<title>Node3&#45;&gt;Node1</title>
<path fill="none" stroke="#9a32cd" stroke-dasharray="5,2" d="M326.48,-102.42C361.26,-99.26 409.87,-94.86 448.74,-91.33"/>
<polygon fill="#9a32cd" stroke="#9a32cd" points="325.8,-98.97 316.16,-103.36 326.43,-105.94 325.8,-98.97"/>
<text text-anchor="middle" x="394" y="-101.7" font-family="-apple-system, BlinkMacSystemFont, 'Segoe UI', Roboto, Oxygen, Ubuntu, Cantarell, 'Fira Sans', 'Droid Sans', 'Helvetica Neue', sans-serif" font-size="11.00"> _SenderId</text>
</g>
<!-- Node4 -->
<g id="node4" class="node">
<title>Node4</title>
<g id="a_node4"><a xlink:href="classMirai_1_1UID__t.html" target="_top" xlink:title="Base class for QQ_t and GID_t">
<polygon fill="none" stroke="black" points="29.5,-102.5 29.5,-122.5 103.5,-122.5 103.5,-102.5 29.5,-102.5"/>
<text text-anchor="middle" x="66.5" y="-109.7" font-family="-apple-system, BlinkMacSystemFont, 'Segoe UI', Roboto, Oxygen, Ubuntu, Cantarell, 'Fira Sans', 'Droid Sans', 'Helvetica Neue', sans-serif" font-size="11.00">Mirai::UID_t</text>
</a>
</g>
</g>
<!-- Node4&#45;&gt;Node3 -->
<g id="edge3" class="edge">
<title>Node4&#45;&gt;Node3</title>
<path fill="none" stroke="midnightblue" d="M114.12,-111.18C153.6,-110.06 209.33,-108.49 244.94,-107.48"/>
<polygon fill="midnightblue" stroke="midnightblue" points="113.84,-107.69 103.94,-111.47 114.04,-114.68 113.84,-107.69"/>
</g>
<!-- Node5 -->
<g id="node5" class="node">
<title>Node5</title>
<g id="a_node5"><a xlink:title=" ">
<polygon fill="none" stroke="black" points="249,-57.5 249,-77.5 312,-77.5 312,-57.5 249,-57.5"/>
<text text-anchor="middle" x="280.5" y="-64.7" font-family="-apple-system, BlinkMacSystemFont, 'Segoe UI', Roboto, Oxygen, Ubuntu, Cantarell, 'Fira Sans', 'Droid Sans', 'Helvetica Neue', sans-serif" font-size="11.00">std::string</text>
</a>
</g>
</g>
<!-- Node5&#45;&gt;Node1 -->
<g id="edge4" class="edge">
<title>Node5&#45;&gt;Node1</title>
<path fill="none" stroke="#9a32cd" stroke-dasharray="5,2" d="M322.35,-66.55C352.46,-66.28 394.38,-66.81 431,-70.5 436.76,-71.08 442.72,-71.85 448.68,-72.72"/>
<polygon fill="#9a32cd" stroke="#9a32cd" points="322.18,-63.06 312.22,-66.68 322.27,-70.05 322.18,-63.06"/>
<text text-anchor="middle" x="394" y="-73.7" font-family="-apple-system, BlinkMacSystemFont, 'Segoe UI', Roboto, Oxygen, Ubuntu, Cantarell, 'Fira Sans', 'Droid Sans', 'Helvetica Neue', sans-serif" font-size="11.00"> _SenderName</text>
</g>
<!-- Node6 -->
<g id="node6" class="node">
<title>Node6</title>
<g id="a_node6"><a xlink:title=" ">
<polygon fill="none" stroke="black" points="16,-51.5 16,-83.5 117,-83.5 117,-51.5 16,-51.5"/>
<text text-anchor="start" x="24" y="-70.7" font-family="-apple-system, BlinkMacSystemFont, 'Segoe UI', Roboto, Oxygen, Ubuntu, Cantarell, 'Fira Sans', 'Droid Sans', 'Helvetica Neue', sans-serif" font-size="11.00">std::basic_string&lt;</text>
<text text-anchor="middle" x="66.5" y="-58.7" font-family="-apple-system, BlinkMacSystemFont, 'Segoe UI', Roboto, Oxygen, Ubuntu, Cantarell, 'Fira Sans', 'Droid Sans', 'Helvetica Neue', sans-serif" font-size="11.00"> Char &gt;</text>
</a>
</g>
</g>
<!-- Node6&#45;&gt;Node5 -->
<g id="edge5" class="edge">
<title>Node6&#45;&gt;Node5</title>
<path fill="none" stroke="midnightblue" d="M127.28,-67.5C166.85,-67.5 217.11,-67.5 248.8,-67.5"/>
<polygon fill="midnightblue" stroke="midnightblue" points="127.2,-64 117.2,-67.5 127.2,-71 127.2,-64"/>
</g>
<!-- Node7 -->
<g id="node7" class="node">
<title>Node7</title>
<g id="a_node7"><a xlink:href="classMirai_1_1MessageChain.html" target="_top" xlink:title="消息链对象，由一系列消息元素组成">
<polygon fill="none" stroke="black" points="222,-12.5 222,-32.5 339,-32.5 339,-12.5 222,-12.5"/>
<text text-anchor="middle" x="280.5" y="-19.7" font-family="-apple-system, BlinkMacSystemFont, 'Segoe UI', Roboto, Oxygen, Ubuntu, Cantarell, 'Fira Sans', 'Droid Sans', 'Helvetica Neue', sans-serif" font-size="11.00">Mirai::MessageChain</text>
</a>
</g>
</g>
<!-- Node7&#45;&gt;Node1 -->
<g id="edge6" class="edge">
<title>Node7&#45;&gt;Node1</title>
<path fill="none" stroke="#9a32cd" stroke-dasharray="5,2" d="M349.43,-32C375.27,-36.45 404.79,-42.56 431,-50.5 447.44,-55.48 465.04,-62.73 479.71,-69.33"/>
<polygon fill="#9a32cd" stroke="#9a32cd" points="349.79,-28.51 339.35,-30.32 348.64,-35.42 349.79,-28.51"/>
<text text-anchor="middle" x="394" y="-53.7" font-family="-apple-system, BlinkMacSystemFont, 'Segoe UI', Roboto, Oxygen, Ubuntu, Cantarell, 'Fira Sans', 'Droid Sans', 'Helvetica Neue', sans-serif" font-size="11.00"> _message</text>
</g>
<!-- Node8 -->
<g id="node8" class="node">
<title>Node8</title>
<g id="a_node8"><a xlink:title=" ">
<polygon fill="none" stroke="red" points="0,-0.5 0,-32.5 133,-32.5 133,-0.5 0,-0.5"/>
<text text-anchor="start" x="8" y="-19.7" font-family="-apple-system, BlinkMacSystemFont, 'Segoe UI', Roboto, Oxygen, Ubuntu, Cantarell, 'Fira Sans', 'Droid Sans', 'Helvetica Neue', sans-serif" font-size="11.00">std::vector&lt; std::unique</text>
<text text-anchor="middle" x="66.5" y="-7.7" font-family="-apple-system, BlinkMacSystemFont, 'Segoe UI', Roboto, Oxygen, Ubuntu, Cantarell, 'Fira Sans', 'Droid Sans', 'Helvetica Neue', sans-serif" font-size="11.00">_ptr&lt; MessageBase &gt; &gt;</text>
</a>
</g>
</g>
<!-- Node8&#45;&gt;Node7 -->
<g id="edge7" class="edge">
<title>Node8&#45;&gt;Node7</title>
<path fill="none" stroke="#9a32cd" stroke-dasharray="5,2" d="M143.26,-18.64C169.09,-19.38 197.53,-20.18 221.72,-20.86"/>
<polygon fill="#9a32cd" stroke="#9a32cd" points="143.22,-15.14 133.13,-18.36 143.02,-22.14 143.22,-15.14"/>
<text text-anchor="middle" x="177.5" y="-22.7" font-family="-apple-system, BlinkMacSystemFont, 'Segoe UI', Roboto, Oxygen, Ubuntu, Cantarell, 'Fira Sans', 'Droid Sans', 'Helvetica Neue', sans-serif" font-size="11.00"> _message</text>
</g>
</g>
</svg>
