<?xml version="1.0" encoding="UTF-8" standalone="no"?>
<!DOCTYPE svg PUBLIC "-//W3C//DTD SVG 1.1//EN"
 "http://www.w3.org/Graphics/SVG/1.1/DTD/svg11.dtd">
<!-- Generated by graphviz version 3.0.0 (20220413.0242)
 -->
<!-- Title: Mirai::BotOnlineEvent Pages: 1 -->
<svg width="336pt" height="179pt"
 viewBox="0.00 0.00 336.00 179.00" xmlns="http://www.w3.org/2000/svg" xmlns:xlink="http://www.w3.org/1999/xlink">
<g id="graph0" class="graph" transform="scale(1 1) rotate(0) translate(4 175)">
<title>Mirai::BotOnlineEvent</title>
<!-- Node1 -->
<g id="node1" class="node">
<title>Node1</title>
<g id="a_node1"><a xlink:title="Bot上线事件">
<polygon fill="#bfbfbf" stroke="black" points="149,-0.5 149,-20.5 269,-20.5 269,-0.5 149,-0.5"/>
<text text-anchor="middle" x="209" y="-7.7" font-family="-apple-system, BlinkMacSystemFont, 'Segoe UI', Roboto, Oxygen, Ubuntu, Cantarell, 'Fira Sans', 'Droid Sans', 'Helvetica Neue', sans-serif" font-size="11.00">Mirai::BotOnlineEvent</text>
</a>
</g>
</g>
<!-- Node2 -->
<g id="node2" class="node">
<title>Node2</title>
<g id="a_node2"><a xlink:href="classMirai_1_1BotEvent.html" target="_top" xlink:title="与Bot本身相关的事件的基类">
<polygon fill="none" stroke="black" points="107.5,-69.5 107.5,-89.5 196.5,-89.5 196.5,-69.5 107.5,-69.5"/>
<text text-anchor="middle" x="152" y="-76.7" font-family="-apple-system, BlinkMacSystemFont, 'Segoe UI', Roboto, Oxygen, Ubuntu, Cantarell, 'Fira Sans', 'Droid Sans', 'Helvetica Neue', sans-serif" font-size="11.00">Mirai::BotEvent</text>
</a>
</g>
</g>
<!-- Node2&#45;&gt;Node1 -->
<g id="edge1" class="edge">
<title>Node2&#45;&gt;Node1</title>
<path fill="none" stroke="midnightblue" d="M166.27,-61.73C177.27,-48.79 192.09,-31.38 201.07,-20.82"/>
<polygon fill="midnightblue" stroke="midnightblue" points="163.5,-59.58 159.69,-69.46 168.83,-64.12 163.5,-59.58"/>
</g>
<!-- Node3 -->
<g id="node3" class="node">
<title>Node3</title>
<g id="a_node3"><a xlink:href="classMirai_1_1EventBase.html" target="_top" xlink:title="Base class for all event types">
<polygon fill="none" stroke="red" points="0,-144.5 0,-164.5 98,-164.5 98,-144.5 0,-144.5"/>
<text text-anchor="middle" x="49" y="-151.7" font-family="-apple-system, BlinkMacSystemFont, 'Segoe UI', Roboto, Oxygen, Ubuntu, Cantarell, 'Fira Sans', 'Droid Sans', 'Helvetica Neue', sans-serif" font-size="11.00">Mirai::EventBase</text>
</a>
</g>
</g>
<!-- Node3&#45;&gt;Node2 -->
<g id="edge2" class="edge">
<title>Node3&#45;&gt;Node2</title>
<path fill="none" stroke="midnightblue" d="M70.23,-138.45C90.94,-123.77 121.78,-101.92 139.06,-89.67"/>
<polygon fill="midnightblue" stroke="midnightblue" points="68.18,-135.62 62.05,-144.25 72.23,-141.33 68.18,-135.62"/>
</g>
<!-- Node9 -->
<g id="node4" class="node">
<title>Node9</title>
<g id="a_node4"><a xlink:href="classMirai_1_1QQ__t.html" target="_top" xlink:title="QQ号码类型">
<polygon fill="none" stroke="red" points="116.5,-144.5 116.5,-164.5 187.5,-164.5 187.5,-144.5 116.5,-144.5"/>
<text text-anchor="middle" x="152" y="-151.7" font-family="-apple-system, BlinkMacSystemFont, 'Segoe UI', Roboto, Oxygen, Ubuntu, Cantarell, 'Fira Sans', 'Droid Sans', 'Helvetica Neue', sans-serif" font-size="11.00">Mirai::QQ_t</text>
</a>
</g>
</g>
<!-- Node9&#45;&gt;Node2 -->
<g id="edge3" class="edge">
<title>Node9&#45;&gt;Node2</title>
<path fill="none" stroke="#9a32cd" stroke-dasharray="5,2" d="M152,-134C152,-119.73 152,-100.99 152,-89.9"/>
<polygon fill="#9a32cd" stroke="#9a32cd" points="148.5,-134.25 152,-144.25 155.5,-134.25 148.5,-134.25"/>
<text text-anchor="middle" x="163" y="-111.2" font-family="-apple-system, BlinkMacSystemFont, 'Segoe UI', Roboto, Oxygen, Ubuntu, Cantarell, 'Fira Sans', 'Droid Sans', 'Helvetica Neue', sans-serif" font-size="11.00"> _qq</text>
</g>
<!-- Node19 -->
<g id="node5" class="node">
<title>Node19</title>
<g id="a_node5"><a xlink:title=" ">
<polygon fill="none" stroke="black" points="218.5,-69.5 218.5,-89.5 309.5,-89.5 309.5,-69.5 218.5,-69.5"/>
<text text-anchor="middle" x="264" y="-76.7" font-family="-apple-system, BlinkMacSystemFont, 'Segoe UI', Roboto, Oxygen, Ubuntu, Cantarell, 'Fira Sans', 'Droid Sans', 'Helvetica Neue', sans-serif" font-size="11.00">std::string_view</text>
</a>
</g>
</g>
<!-- Node19&#45;&gt;Node1 -->
<g id="edge4" class="edge">
<title>Node19&#45;&gt;Node1</title>
<path fill="none" stroke="#9a32cd" stroke-dasharray="5,2" d="M250.23,-61.73C239.61,-48.79 225.32,-31.38 216.65,-20.82"/>
<polygon fill="#9a32cd" stroke="#9a32cd" points="247.53,-63.96 256.58,-69.46 252.94,-59.51 247.53,-63.96"/>
<text text-anchor="middle" x="262" y="-42.2" font-family="-apple-system, BlinkMacSystemFont, 'Segoe UI', Roboto, Oxygen, Ubuntu, Cantarell, 'Fira Sans', 'Droid Sans', 'Helvetica Neue', sans-serif" font-size="11.00"> _TYPE_</text>
</g>
<!-- Node20 -->
<g id="node6" class="node">
<title>Node20</title>
<g id="a_node6"><a xlink:title=" ">
<polygon fill="none" stroke="black" points="206,-138.5 206,-170.5 328,-170.5 328,-138.5 206,-138.5"/>
<text text-anchor="start" x="214" y="-157.7" font-family="-apple-system, BlinkMacSystemFont, 'Segoe UI', Roboto, Oxygen, Ubuntu, Cantarell, 'Fira Sans', 'Droid Sans', 'Helvetica Neue', sans-serif" font-size="11.00">std::basic_string_view</text>
<text text-anchor="middle" x="267" y="-145.7" font-family="-apple-system, BlinkMacSystemFont, 'Segoe UI', Roboto, Oxygen, Ubuntu, Cantarell, 'Fira Sans', 'Droid Sans', 'Helvetica Neue', sans-serif" font-size="11.00">&lt; Char &gt;</text>
</a>
</g>
</g>
<!-- Node20&#45;&gt;Node19 -->
<g id="edge5" class="edge">
<title>Node20&#45;&gt;Node19</title>
<path fill="none" stroke="midnightblue" d="M265.96,-128.28C265.41,-114.89 264.77,-99.26 264.37,-89.62"/>
<polygon fill="midnightblue" stroke="midnightblue" points="262.47,-128.53 266.38,-138.37 269.46,-128.24 262.47,-128.53"/>
</g>
</g>
</svg>
