<?xml version="1.0" encoding="UTF-8" standalone="no"?>
<!DOCTYPE svg PUBLIC "-//W3C//DTD SVG 1.1//EN"
 "http://www.w3.org/Graphics/SVG/1.1/DTD/svg11.dtd">
<!-- Generated by graphviz version 3.0.0 (20220413.0242)
 -->
<!-- Title: Mirai::BotEvent Pages: 1 -->
<svg width="427pt" height="185pt"
 viewBox="0.00 0.00 427.00 185.00" xmlns="http://www.w3.org/2000/svg" xmlns:xlink="http://www.w3.org/1999/xlink">
<g id="graph0" class="graph" transform="scale(1 1) rotate(0) translate(4 181)">
<title>Mirai::BotEvent</title>
<!-- Node1 -->
<g id="node1" class="node">
<title>Node1</title>
<g id="a_node1"><a xlink:title="与Bot本身相关的事件的基类">
<polygon fill="#bfbfbf" stroke="black" points="134,-78.5 134,-98.5 223,-98.5 223,-78.5 134,-78.5"/>
<text text-anchor="middle" x="178.5" y="-85.7" font-family="-apple-system, BlinkMacSystemFont, 'Segoe UI', Roboto, Oxygen, Ubuntu, Cantarell, 'Fira Sans', 'Droid Sans', 'Helvetica Neue', sans-serif" font-size="11.00">Mirai::BotEvent</text>
</a>
</g>
</g>
<!-- Node3 -->
<g id="node3" class="node">
<title>Node3</title>
<g id="a_node3"><a xlink:href="classMirai_1_1BotOfflineEventActive.html" target="_top" xlink:title="Bot主动下线事件">
<polygon fill="none" stroke="black" points="265,-156.5 265,-176.5 413,-176.5 413,-156.5 265,-156.5"/>
<text text-anchor="middle" x="339" y="-163.7" font-family="-apple-system, BlinkMacSystemFont, 'Segoe UI', Roboto, Oxygen, Ubuntu, Cantarell, 'Fira Sans', 'Droid Sans', 'Helvetica Neue', sans-serif" font-size="11.00">Mirai::BotOfflineEventActive</text>
</a>
</g>
</g>
<!-- Node1&#45;&gt;Node3 -->
<g id="edge2" class="edge">
<title>Node1&#45;&gt;Node3</title>
<path fill="none" stroke="midnightblue" d="M197.81,-105.48C213.09,-118.78 236.01,-136.75 259,-147.5 266.67,-151.08 275.08,-154.03 283.47,-156.44"/>
<polygon fill="midnightblue" stroke="midnightblue" points="199.95,-102.7 190.16,-98.66 195.29,-107.92 199.95,-102.7"/>
</g>
<!-- Node4 -->
<g id="node4" class="node">
<title>Node4</title>
<g id="a_node4"><a xlink:href="classMirai_1_1BotOfflineEventDropped.html" target="_top" xlink:title="Bot掉线事件">
<polygon fill="none" stroke="black" points="259,-117.5 259,-137.5 419,-137.5 419,-117.5 259,-117.5"/>
<text text-anchor="middle" x="339" y="-124.7" font-family="-apple-system, BlinkMacSystemFont, 'Segoe UI', Roboto, Oxygen, Ubuntu, Cantarell, 'Fira Sans', 'Droid Sans', 'Helvetica Neue', sans-serif" font-size="11.00">Mirai::BotOfflineEventDropped</text>
</a>
</g>
</g>
<!-- Node1&#45;&gt;Node4 -->
<g id="edge3" class="edge">
<title>Node1&#45;&gt;Node4</title>
<path fill="none" stroke="midnightblue" d="M228.89,-101.01C238.85,-103.51 249.26,-106.1 259,-108.5 270.92,-111.43 283.86,-114.57 295.75,-117.43"/>
<polygon fill="midnightblue" stroke="midnightblue" points="229.66,-97.6 219.11,-98.55 227.95,-104.38 229.66,-97.6"/>
</g>
<!-- Node5 -->
<g id="node5" class="node">
<title>Node5</title>
<g id="a_node5"><a xlink:href="classMirai_1_1BotOfflineEventForce.html" target="_top" xlink:title="Bot强制下线事件">
<polygon fill="none" stroke="black" points="266,-78.5 266,-98.5 412,-98.5 412,-78.5 266,-78.5"/>
<text text-anchor="middle" x="339" y="-85.7" font-family="-apple-system, BlinkMacSystemFont, 'Segoe UI', Roboto, Oxygen, Ubuntu, Cantarell, 'Fira Sans', 'Droid Sans', 'Helvetica Neue', sans-serif" font-size="11.00">Mirai::BotOfflineEventForce</text>
</a>
</g>
</g>
<!-- Node1&#45;&gt;Node5 -->
<g id="edge4" class="edge">
<title>Node1&#45;&gt;Node5</title>
<path fill="none" stroke="midnightblue" d="M233.41,-88.5C243.83,-88.5 254.91,-88.5 265.81,-88.5"/>
<polygon fill="midnightblue" stroke="midnightblue" points="233.23,-85 223.23,-88.5 233.23,-92 233.23,-85"/>
</g>
<!-- Node6 -->
<g id="node6" class="node">
<title>Node6</title>
<g id="a_node6"><a xlink:href="classMirai_1_1BotOnlineEvent.html" target="_top" xlink:title="Bot上线事件">
<polygon fill="none" stroke="black" points="279,-39.5 279,-59.5 399,-59.5 399,-39.5 279,-39.5"/>
<text text-anchor="middle" x="339" y="-46.7" font-family="-apple-system, BlinkMacSystemFont, 'Segoe UI', Roboto, Oxygen, Ubuntu, Cantarell, 'Fira Sans', 'Droid Sans', 'Helvetica Neue', sans-serif" font-size="11.00">Mirai::BotOnlineEvent</text>
</a>
</g>
</g>
<!-- Node1&#45;&gt;Node6 -->
<g id="edge5" class="edge">
<title>Node1&#45;&gt;Node6</title>
<path fill="none" stroke="midnightblue" d="M228.89,-75.99C238.85,-73.49 249.26,-70.9 259,-68.5 270.92,-65.57 283.86,-62.43 295.75,-59.57"/>
<polygon fill="midnightblue" stroke="midnightblue" points="227.95,-72.62 219.11,-78.45 229.66,-79.4 227.95,-72.62"/>
</g>
<!-- Node7 -->
<g id="node7" class="node">
<title>Node7</title>
<g id="a_node7"><a xlink:href="classMirai_1_1BotReloginEvent.html" target="_top" xlink:title="Bot重新登录事件">
<polygon fill="none" stroke="black" points="276.5,-0.5 276.5,-20.5 401.5,-20.5 401.5,-0.5 276.5,-0.5"/>
<text text-anchor="middle" x="339" y="-7.7" font-family="-apple-system, BlinkMacSystemFont, 'Segoe UI', Roboto, Oxygen, Ubuntu, Cantarell, 'Fira Sans', 'Droid Sans', 'Helvetica Neue', sans-serif" font-size="11.00">Mirai::BotReloginEvent</text>
</a>
</g>
</g>
<!-- Node1&#45;&gt;Node7 -->
<g id="edge6" class="edge">
<title>Node1&#45;&gt;Node7</title>
<path fill="none" stroke="midnightblue" d="M197.81,-71.52C213.09,-58.22 236.01,-40.25 259,-29.5 266.67,-25.92 275.08,-22.97 283.47,-20.56"/>
<polygon fill="midnightblue" stroke="midnightblue" points="195.29,-69.08 190.16,-78.34 199.95,-74.3 195.29,-69.08"/>
</g>
<!-- Node2 -->
<g id="node2" class="node">
<title>Node2</title>
<g id="a_node2"><a xlink:href="classMirai_1_1EventBase.html" target="_top" xlink:title="Base class for all event types">
<polygon fill="none" stroke="black" points="0,-78.5 0,-98.5 98,-98.5 98,-78.5 0,-78.5"/>
<text text-anchor="middle" x="49" y="-85.7" font-family="-apple-system, BlinkMacSystemFont, 'Segoe UI', Roboto, Oxygen, Ubuntu, Cantarell, 'Fira Sans', 'Droid Sans', 'Helvetica Neue', sans-serif" font-size="11.00">Mirai::EventBase</text>
</a>
</g>
</g>
<!-- Node2&#45;&gt;Node1 -->
<g id="edge1" class="edge">
<title>Node2&#45;&gt;Node1</title>
<path fill="none" stroke="midnightblue" d="M108.22,-88.5C116.84,-88.5 125.59,-88.5 133.84,-88.5"/>
<polygon fill="midnightblue" stroke="midnightblue" points="108.2,-85 98.2,-88.5 108.2,-92 108.2,-85"/>
</g>
</g>
</svg>
