<?xml version="1.0" encoding="UTF-8" standalone="no"?>
<!DOCTYPE svg PUBLIC "-//W3C//DTD SVG 1.1//EN"
 "http://www.w3.org/Graphics/SVG/1.1/DTD/svg11.dtd">
<!-- Generated by graphviz version 3.0.0 (20221109.1736)
 -->
<!-- Title: Mirai::BotMuteEvent Pages: 1 -->
<svg width="415pt" height="239pt"
 viewBox="0.00 0.00 414.50 239.00" xmlns="http://www.w3.org/2000/svg" xmlns:xlink="http://www.w3.org/1999/xlink">
<g id="graph0" class="graph" transform="scale(1 1) rotate(0) translate(4 235)">
<title>Mirai::BotMuteEvent</title>
<!-- Node1 -->
<g id="node1" class="node">
<title>Node1</title>
<g id="a_node1"><a xlink:title="Bot被禁言事件">
<polygon fill="#bfbfbf" stroke="black" points="41,-0.5 41,-20.5 154,-20.5 154,-0.5 41,-0.5"/>
<text text-anchor="middle" x="97.5" y="-7.7" font-family="-apple-system, BlinkMacSystemFont, 'Segoe UI', Roboto, Oxygen, Ubuntu, Cantarell, 'Fira Sans', 'Droid Sans', 'Helvetica Neue', sans-serif" font-size="11.00">Mirai::BotMuteEvent</text>
</a>
</g>
</g>
<!-- Node2 -->
<g id="node2" class="node">
<title>Node2</title>
<g id="a_node2"><a xlink:href="classMirai_1_1IEvent.html" target="_top" xlink:title=" ">
<polygon fill="none" stroke="black" points="0,-69.5 0,-89.5 163,-89.5 163,-69.5 0,-69.5"/>
<text text-anchor="middle" x="81.5" y="-76.7" font-family="-apple-system, BlinkMacSystemFont, 'Segoe UI', Roboto, Oxygen, Ubuntu, Cantarell, 'Fira Sans', 'Droid Sans', 'Helvetica Neue', sans-serif" font-size="11.00">Mirai::IEvent&lt; BotMuteEvent &gt;</text>
</a>
</g>
</g>
<!-- Node2&#45;&gt;Node1 -->
<g id="edge1" class="edge">
<title>Node2&#45;&gt;Node1</title>
<path fill="none" stroke="midnightblue" d="M86.05,-59.47C89.06,-46.82 92.9,-30.78 95.27,-20.82"/>
<polygon fill="midnightblue" stroke="midnightblue" points="82.58,-58.92 83.66,-69.46 89.38,-60.55 82.58,-58.92"/>
</g>
<!-- Node3 -->
<g id="node3" class="node">
<title>Node3</title>
<g id="a_node3"><a xlink:href="structMirai_1_1GroupMember.html" target="_top" xlink:title="群员资料">
<polygon fill="none" stroke="black" points="181.5,-69.5 181.5,-89.5 297.5,-89.5 297.5,-69.5 181.5,-69.5"/>
<text text-anchor="middle" x="239.5" y="-76.7" font-family="-apple-system, BlinkMacSystemFont, 'Segoe UI', Roboto, Oxygen, Ubuntu, Cantarell, 'Fira Sans', 'Droid Sans', 'Helvetica Neue', sans-serif" font-size="11.00">Mirai::GroupMember</text>
</a>
</g>
</g>
<!-- Node3&#45;&gt;Node1 -->
<g id="edge2" class="edge">
<title>Node3&#45;&gt;Node1</title>
<path fill="none" stroke="#9a32cd" stroke-dasharray="5,2" d="M211.09,-65.09C183.1,-51.89 141.12,-32.08 116.8,-20.61"/>
<polygon fill="#9a32cd" stroke="#9a32cd" points="209.81,-68.36 220.35,-69.46 212.8,-62.03 209.81,-68.36"/>
<text text-anchor="middle" x="202.5" y="-42.2" font-family="-apple-system, BlinkMacSystemFont, 'Segoe UI', Roboto, Oxygen, Ubuntu, Cantarell, 'Fira Sans', 'Droid Sans', 'Helvetica Neue', sans-serif" font-size="11.00"> operator_</text>
</g>
<!-- Node4 -->
<g id="node4" class="node">
<title>Node4</title>
<g id="a_node4"><a xlink:href="classMirai_1_1QQ__t.html" target="_top" xlink:title="QQ号码类型">
<polygon fill="none" stroke="red" points="132,-140 132,-160 203,-160 203,-140 132,-140"/>
<text text-anchor="middle" x="167.5" y="-147.2" font-family="-apple-system, BlinkMacSystemFont, 'Segoe UI', Roboto, Oxygen, Ubuntu, Cantarell, 'Fira Sans', 'Droid Sans', 'Helvetica Neue', sans-serif" font-size="11.00">Mirai::QQ_t</text>
</a>
</g>
</g>
<!-- Node4&#45;&gt;Node3 -->
<g id="edge3" class="edge">
<title>Node4&#45;&gt;Node3</title>
<path fill="none" stroke="#9a32cd" stroke-dasharray="5,2" d="M184.83,-132.51C198.98,-119.05 218.46,-100.51 229.94,-89.59"/>
<polygon fill="#9a32cd" stroke="#9a32cd" points="182.04,-130.33 177.21,-139.76 186.87,-135.4 182.04,-130.33"/>
<text text-anchor="middle" x="216.5" y="-111.2" font-family="-apple-system, BlinkMacSystemFont, 'Segoe UI', Roboto, Oxygen, Ubuntu, Cantarell, 'Fira Sans', 'Droid Sans', 'Helvetica Neue', sans-serif" font-size="11.00"> id</text>
</g>
<!-- Node6 -->
<g id="node5" class="node">
<title>Node6</title>
<g id="a_node5"><a xlink:title=" ">
<polygon fill="none" stroke="red" points="224,-210.5 224,-230.5 287,-230.5 287,-210.5 224,-210.5"/>
<text text-anchor="middle" x="255.5" y="-217.7" font-family="-apple-system, BlinkMacSystemFont, 'Segoe UI', Roboto, Oxygen, Ubuntu, Cantarell, 'Fira Sans', 'Droid Sans', 'Helvetica Neue', sans-serif" font-size="11.00">std::string</text>
</a>
</g>
</g>
<!-- Node6&#45;&gt;Node3 -->
<g id="edge4" class="edge">
<title>Node6&#45;&gt;Node3</title>
<path fill="none" stroke="#9a32cd" stroke-dasharray="5,2" d="M253.1,-200.21C251.72,-189.05 249.98,-174.74 248.5,-162 245.45,-135.7 242.08,-104.59 240.47,-89.55"/>
<polygon fill="#9a32cd" stroke="#9a32cd" points="249.62,-200.65 254.33,-210.14 256.57,-199.79 249.62,-200.65"/>
<text text-anchor="middle" x="285" y="-153.2" font-family="-apple-system, BlinkMacSystemFont, 'Segoe UI', Roboto, Oxygen, Ubuntu, Cantarell, 'Fira Sans', 'Droid Sans', 'Helvetica Neue', sans-serif" font-size="11.00"> MemberName</text>
<text text-anchor="middle" x="285" y="-141.2" font-family="-apple-system, BlinkMacSystemFont, 'Segoe UI', Roboto, Oxygen, Ubuntu, Cantarell, 'Fira Sans', 'Droid Sans', 'Helvetica Neue', sans-serif" font-size="11.00">SpecialTitle</text>
</g>
<!-- Node8 -->
<g id="node6" class="node">
<title>Node8</title>
<g id="a_node6"><a xlink:href="structMirai_1_1Group.html" target="_top" xlink:title="群聊资料">
<polygon fill="none" stroke="red" points="330.5,-140 330.5,-160 406.5,-160 406.5,-140 330.5,-140"/>
<text text-anchor="middle" x="368.5" y="-147.2" font-family="-apple-system, BlinkMacSystemFont, 'Segoe UI', Roboto, Oxygen, Ubuntu, Cantarell, 'Fira Sans', 'Droid Sans', 'Helvetica Neue', sans-serif" font-size="11.00">Mirai::Group</text>
</a>
</g>
</g>
<!-- Node6&#45;&gt;Node8 -->
<g id="edge6" class="edge">
<title>Node6&#45;&gt;Node8</title>
<path fill="none" stroke="#9a32cd" stroke-dasharray="5,2" d="M279.34,-205.05C301.73,-191.47 334.56,-171.58 353.5,-160.09"/>
<polygon fill="#9a32cd" stroke="#9a32cd" points="277.48,-202.08 270.74,-210.26 281.11,-208.07 277.48,-202.08"/>
<text text-anchor="middle" x="334" y="-183.2" font-family="-apple-system, BlinkMacSystemFont, 'Segoe UI', Roboto, Oxygen, Ubuntu, Cantarell, 'Fira Sans', 'Droid Sans', 'Helvetica Neue', sans-serif" font-size="11.00"> name</text>
</g>
<!-- Node8&#45;&gt;Node3 -->
<g id="edge5" class="edge">
<title>Node8&#45;&gt;Node3</title>
<path fill="none" stroke="#9a32cd" stroke-dasharray="5,2" d="M342.25,-135.06C316.7,-121.49 278.61,-101.27 256.7,-89.63"/>
<polygon fill="#9a32cd" stroke="#9a32cd" points="340.9,-138.31 351.37,-139.9 344.18,-132.12 340.9,-138.31"/>
<text text-anchor="middle" x="327" y="-111.2" font-family="-apple-system, BlinkMacSystemFont, 'Segoe UI', Roboto, Oxygen, Ubuntu, Cantarell, 'Fira Sans', 'Droid Sans', 'Helvetica Neue', sans-serif" font-size="11.00"> group</text>
</g>
</g>
</svg>
