<?xml version="1.0" encoding="UTF-8" standalone="no"?>
<!DOCTYPE svg PUBLIC "-//W3C//DTD SVG 1.1//EN"
 "http://www.w3.org/Graphics/SVG/1.1/DTD/svg11.dtd">
<!-- Generated by graphviz version 2.43.0 (0)
 -->
<!-- Title: Mirai::FaceMessage Pages: 1 -->
<svg width="171pt" height="200pt"
 viewBox="0.00 0.00 171.00 200.00" xmlns="http://www.w3.org/2000/svg" xmlns:xlink="http://www.w3.org/1999/xlink">
<g id="graph0" class="graph" transform="scale(1 1) rotate(0) translate(4 196)">
<title>Mirai::FaceMessage</title>
<!-- Node1 -->
<g id="node1" class="node">
<title>Node1</title>
<g id="a_node1"><a xlink:title="QQ表情消息">
<polygon fill="#bfbfbf" stroke="black" points="19,-57.5 19,-77.5 144,-77.5 144,-57.5 19,-57.5"/>
<text text-anchor="middle" x="81.5" y="-64.7" font-family="-apple-system,BlinkMacSystemFont,'SegoeUI',Roboto,Oxygen,Ubuntu,Cantarell,'FiraSans','DroidSans','HelveticaNeue',sans-serif" font-size="11.00">Mirai::FaceMessage</text>
</a>
</g>
</g>
<!-- Node4 -->
<g id="node4" class="node">
<title>Node4</title>
<g id="a_node4"><a xlink:href="classMirai_1_1MarketFaceMessage.html" target="_top" xlink:title="QQ商店表情消息">
<polygon fill="none" stroke="black" points="0,-0.5 0,-20.5 163,-20.5 163,-0.5 0,-0.5"/>
<text text-anchor="middle" x="81.5" y="-7.7" font-family="-apple-system,BlinkMacSystemFont,'SegoeUI',Roboto,Oxygen,Ubuntu,Cantarell,'FiraSans','DroidSans','HelveticaNeue',sans-serif" font-size="11.00">Mirai::MarketFaceMessage</text>
</a>
</g>
</g>
<!-- Node1&#45;&gt;Node4 -->
<g id="edge3" class="edge">
<title>Node1&#45;&gt;Node4</title>
<path fill="none" stroke="midnightblue" d="M81.5,-47.38C81.5,-38.37 81.5,-28.04 81.5,-20.78"/>
<polygon fill="midnightblue" stroke="midnightblue" points="78,-47.42 81.5,-57.42 85,-47.42 78,-47.42"/>
</g>
<!-- Node2 -->
<g id="node2" class="node">
<title>Node2</title>
<g id="a_node2"><a xlink:href="classMirai_1_1MessageBase.html" target="_top" xlink:title="Base class for all message types">
<polygon fill="none" stroke="black" points="18,-114.5 18,-134.5 145,-134.5 145,-114.5 18,-114.5"/>
<text text-anchor="middle" x="81.5" y="-121.7" font-family="-apple-system,BlinkMacSystemFont,'SegoeUI',Roboto,Oxygen,Ubuntu,Cantarell,'FiraSans','DroidSans','HelveticaNeue',sans-serif" font-size="11.00">Mirai::MessageBase</text>
</a>
</g>
</g>
<!-- Node2&#45;&gt;Node1 -->
<g id="edge1" class="edge">
<title>Node2&#45;&gt;Node1</title>
<path fill="none" stroke="midnightblue" d="M81.5,-104.38C81.5,-95.37 81.5,-85.04 81.5,-77.78"/>
<polygon fill="midnightblue" stroke="midnightblue" points="78,-104.42 81.5,-114.42 85,-104.42 78,-104.42"/>
</g>
<!-- Node3 -->
<g id="node3" class="node">
<title>Node3</title>
<g id="a_node3"><a xlink:href="classMirai_1_1Serializable.html" target="_top" xlink:title="Base class for all json serializable type">
<polygon fill="none" stroke="black" points="24.5,-171.5 24.5,-191.5 138.5,-191.5 138.5,-171.5 24.5,-171.5"/>
<text text-anchor="middle" x="81.5" y="-178.7" font-family="-apple-system,BlinkMacSystemFont,'SegoeUI',Roboto,Oxygen,Ubuntu,Cantarell,'FiraSans','DroidSans','HelveticaNeue',sans-serif" font-size="11.00">Mirai::Serializable</text>
</a>
</g>
</g>
<!-- Node3&#45;&gt;Node2 -->
<g id="edge2" class="edge">
<title>Node3&#45;&gt;Node2</title>
<path fill="none" stroke="midnightblue" d="M81.5,-161.38C81.5,-152.37 81.5,-142.04 81.5,-134.78"/>
<polygon fill="midnightblue" stroke="midnightblue" points="78,-161.42 81.5,-171.42 85,-161.42 78,-161.42"/>
</g>
</g>
</svg>
