<?xml version="1.0" encoding="UTF-8" standalone="no"?>
<!DOCTYPE svg PUBLIC "-//W3C//DTD SVG 1.1//EN"
 "http://www.w3.org/Graphics/SVG/1.1/DTD/svg11.dtd">
<!-- Generated by graphviz version 3.0.0 (20220413.0242)
 -->
<!-- Title: Mirai::EventBase Pages: 1 -->
<svg width="529pt" height="1949pt"
 viewBox="0.00 0.00 529.00 1949.00" xmlns="http://www.w3.org/2000/svg" xmlns:xlink="http://www.w3.org/1999/xlink">
<g id="graph0" class="graph" transform="scale(1 1) rotate(0) translate(4 1945)">
<title>Mirai::EventBase</title>
<!-- Node1 -->
<g id="node1" class="node">
<title>Node1</title>
<g id="a_node1"><a xlink:title="Base class for all event types">
<polygon fill="#bfbfbf" stroke="black" points="0,-915.5 0,-935.5 98,-935.5 98,-915.5 0,-915.5"/>
<text text-anchor="middle" x="49" y="-922.7" font-family="-apple-system, BlinkMacSystemFont, 'Segoe UI', Roboto, Oxygen, Ubuntu, Cantarell, 'Fira Sans', 'Droid Sans', 'Helvetica Neue', sans-serif" font-size="11.00">Mirai::EventBase</text>
</a>
</g>
</g>
<!-- Node2 -->
<g id="node2" class="node">
<title>Node2</title>
<g id="a_node2"><a xlink:href="classMirai_1_1BotEvent.html" target="_top" xlink:title="与Bot本身相关的事件的基类">
<polygon fill="none" stroke="black" points="185,-1842.5 185,-1862.5 274,-1862.5 274,-1842.5 185,-1842.5"/>
<text text-anchor="middle" x="229.5" y="-1849.7" font-family="-apple-system, BlinkMacSystemFont, 'Segoe UI', Roboto, Oxygen, Ubuntu, Cantarell, 'Fira Sans', 'Droid Sans', 'Helvetica Neue', sans-serif" font-size="11.00">Mirai::BotEvent</text>
</a>
</g>
</g>
<!-- Node1&#45;&gt;Node2 -->
<g id="edge1" class="edge">
<title>Node1&#45;&gt;Node2</title>
<path fill="none" stroke="midnightblue" d="M50.46,-946.13C53.5,-1074.92 72.61,-1765.22 134,-1833.5 146.64,-1847.56 166.54,-1852.91 184.82,-1854.5"/>
<polygon fill="midnightblue" stroke="midnightblue" points="53.95,-945.67 50.22,-935.75 46.95,-945.83 53.95,-945.67"/>
</g>
<!-- Node8 -->
<g id="node8" class="node">
<title>Node8</title>
<g id="a_node8"><a xlink:href="classMirai_1_1BotGroupPermissionChangeEvent.html" target="_top" xlink:title="Bot群聊权限改变事件">
<polygon fill="none" stroke="black" points="156.5,-1791.5 156.5,-1823.5 302.5,-1823.5 302.5,-1791.5 156.5,-1791.5"/>
<text text-anchor="start" x="164.5" y="-1810.7" font-family="-apple-system, BlinkMacSystemFont, 'Segoe UI', Roboto, Oxygen, Ubuntu, Cantarell, 'Fira Sans', 'Droid Sans', 'Helvetica Neue', sans-serif" font-size="11.00">Mirai::BotGroupPermission</text>
<text text-anchor="middle" x="229.5" y="-1798.7" font-family="-apple-system, BlinkMacSystemFont, 'Segoe UI', Roboto, Oxygen, Ubuntu, Cantarell, 'Fira Sans', 'Droid Sans', 'Helvetica Neue', sans-serif" font-size="11.00">ChangeEvent</text>
</a>
</g>
</g>
<!-- Node1&#45;&gt;Node8 -->
<g id="edge7" class="edge">
<title>Node1&#45;&gt;Node8</title>
<path fill="none" stroke="midnightblue" d="M50.63,-946.07C54.62,-1070.25 77.99,-1716.66 134,-1782.5 140.05,-1789.61 147.86,-1794.82 156.4,-1798.61"/>
<polygon fill="midnightblue" stroke="midnightblue" points="54.12,-945.61 50.31,-935.72 47.12,-945.83 54.12,-945.61"/>
</g>
<!-- Node9 -->
<g id="node9" class="node">
<title>Node9</title>
<g id="a_node9"><a xlink:href="classMirai_1_1BotInvitedJoinGroupRequestEvent.html" target="_top" xlink:title="Bot被邀请加群事件">
<polygon fill="none" stroke="black" points="157.5,-1740.5 157.5,-1772.5 301.5,-1772.5 301.5,-1740.5 157.5,-1740.5"/>
<text text-anchor="start" x="165.5" y="-1759.7" font-family="-apple-system, BlinkMacSystemFont, 'Segoe UI', Roboto, Oxygen, Ubuntu, Cantarell, 'Fira Sans', 'Droid Sans', 'Helvetica Neue', sans-serif" font-size="11.00">Mirai::BotInvitedJoinGroup</text>
<text text-anchor="middle" x="229.5" y="-1747.7" font-family="-apple-system, BlinkMacSystemFont, 'Segoe UI', Roboto, Oxygen, Ubuntu, Cantarell, 'Fira Sans', 'Droid Sans', 'Helvetica Neue', sans-serif" font-size="11.00">RequestEvent</text>
</a>
</g>
</g>
<!-- Node1&#45;&gt;Node9 -->
<g id="edge8" class="edge">
<title>Node1&#45;&gt;Node9</title>
<path fill="none" stroke="midnightblue" d="M50.76,-945.95C55.38,-1065.43 81.26,-1669.89 134,-1731.5 140.29,-1738.85 148.47,-1744.16 157.37,-1747.99"/>
<polygon fill="midnightblue" stroke="midnightblue" points="54.25,-945.53 50.37,-935.67 47.25,-945.79 54.25,-945.53"/>
</g>
<!-- Node10 -->
<g id="node10" class="node">
<title>Node10</title>
<g id="a_node10"><a xlink:href="classMirai_1_1BotJoinGroupEvent.html" target="_top" xlink:title="Bot加入群聊事件">
<polygon fill="none" stroke="black" points="159.5,-1701.5 159.5,-1721.5 299.5,-1721.5 299.5,-1701.5 159.5,-1701.5"/>
<text text-anchor="middle" x="229.5" y="-1708.7" font-family="-apple-system, BlinkMacSystemFont, 'Segoe UI', Roboto, Oxygen, Ubuntu, Cantarell, 'Fira Sans', 'Droid Sans', 'Helvetica Neue', sans-serif" font-size="11.00">Mirai::BotJoinGroupEvent</text>
</a>
</g>
</g>
<!-- Node1&#45;&gt;Node10 -->
<g id="edge9" class="edge">
<title>Node1&#45;&gt;Node10</title>
<path fill="none" stroke="midnightblue" d="M50.81,-945.74C55.62,-1061.4 82,-1635.64 134,-1692.5 140.78,-1699.91 149.57,-1704.89 159.06,-1708.17"/>
<polygon fill="midnightblue" stroke="midnightblue" points="54.31,-945.59 50.4,-935.74 47.31,-945.88 54.31,-945.59"/>
</g>
<!-- Node11 -->
<g id="node11" class="node">
<title>Node11</title>
<g id="a_node11"><a xlink:href="classMirai_1_1BotLeaveEventActive.html" target="_top" xlink:title="Bot主动退群事件">
<polygon fill="none" stroke="black" points="155.5,-1662.5 155.5,-1682.5 303.5,-1682.5 303.5,-1662.5 155.5,-1662.5"/>
<text text-anchor="middle" x="229.5" y="-1669.7" font-family="-apple-system, BlinkMacSystemFont, 'Segoe UI', Roboto, Oxygen, Ubuntu, Cantarell, 'Fira Sans', 'Droid Sans', 'Helvetica Neue', sans-serif" font-size="11.00">Mirai::BotLeaveEventActive</text>
</a>
</g>
</g>
<!-- Node1&#45;&gt;Node11 -->
<g id="edge10" class="edge">
<title>Node1&#45;&gt;Node11</title>
<path fill="none" stroke="midnightblue" d="M50.93,-945.75C56.29,-1057.9 84.61,-1599.8 134,-1653.5 139.89,-1659.9 147.29,-1664.49 155.34,-1667.73"/>
<polygon fill="midnightblue" stroke="midnightblue" points="54.43,-945.57 50.46,-935.75 47.44,-945.9 54.43,-945.57"/>
</g>
<!-- Node12 -->
<g id="node12" class="node">
<title>Node12</title>
<g id="a_node12"><a xlink:href="classMirai_1_1BotLeaveEventDisband.html" target="_top" xlink:title="群聊解散导致Bot退群事件">
<polygon fill="none" stroke="black" points="150.5,-1623.5 150.5,-1643.5 308.5,-1643.5 308.5,-1623.5 150.5,-1623.5"/>
<text text-anchor="middle" x="229.5" y="-1630.7" font-family="-apple-system, BlinkMacSystemFont, 'Segoe UI', Roboto, Oxygen, Ubuntu, Cantarell, 'Fira Sans', 'Droid Sans', 'Helvetica Neue', sans-serif" font-size="11.00">Mirai::BotLeaveEventDisband</text>
</a>
</g>
</g>
<!-- Node1&#45;&gt;Node12 -->
<g id="edge11" class="edge">
<title>Node1&#45;&gt;Node12</title>
<path fill="none" stroke="midnightblue" d="M51.09,-946C57.05,-1055.05 87.25,-1564 134,-1614.5 138.66,-1619.53 144.25,-1623.44 150.36,-1626.46"/>
<polygon fill="midnightblue" stroke="midnightblue" points="54.57,-945.51 50.53,-935.71 47.58,-945.89 54.57,-945.51"/>
</g>
<!-- Node13 -->
<g id="node13" class="node">
<title>Node13</title>
<g id="a_node13"><a xlink:href="classMirai_1_1BotLeaveEventKick.html" target="_top" xlink:title="Bot被踢出群聊事件">
<polygon fill="none" stroke="black" points="159.5,-1584.5 159.5,-1604.5 299.5,-1604.5 299.5,-1584.5 159.5,-1584.5"/>
<text text-anchor="middle" x="229.5" y="-1591.7" font-family="-apple-system, BlinkMacSystemFont, 'Segoe UI', Roboto, Oxygen, Ubuntu, Cantarell, 'Fira Sans', 'Droid Sans', 'Helvetica Neue', sans-serif" font-size="11.00">Mirai::BotLeaveEventKick</text>
</a>
</g>
</g>
<!-- Node1&#45;&gt;Node13 -->
<g id="edge12" class="edge">
<title>Node1&#45;&gt;Node13</title>
<path fill="none" stroke="midnightblue" d="M49.58,-945.94C47.99,-1045.8 46.21,-1481.34 134,-1575.5 140.85,-1582.84 149.68,-1587.79 159.18,-1591.06"/>
<polygon fill="midnightblue" stroke="midnightblue" points="53.08,-945.99 49.76,-935.93 46.08,-945.87 53.08,-945.99"/>
</g>
<!-- Node14 -->
<g id="node14" class="node">
<title>Node14</title>
<g id="a_node14"><a xlink:href="classMirai_1_1BotMuteEvent.html" target="_top" xlink:title="Bot被禁言事件">
<polygon fill="none" stroke="black" points="173,-1545.5 173,-1565.5 286,-1565.5 286,-1545.5 173,-1545.5"/>
<text text-anchor="middle" x="229.5" y="-1552.7" font-family="-apple-system, BlinkMacSystemFont, 'Segoe UI', Roboto, Oxygen, Ubuntu, Cantarell, 'Fira Sans', 'Droid Sans', 'Helvetica Neue', sans-serif" font-size="11.00">Mirai::BotMuteEvent</text>
</a>
</g>
</g>
<!-- Node1&#45;&gt;Node14 -->
<g id="edge13" class="edge">
<title>Node1&#45;&gt;Node14</title>
<path fill="none" stroke="midnightblue" d="M49.77,-945.91C49.12,-1042.04 51.37,-1448.6 134,-1536.5 144.09,-1547.23 158.41,-1552.83 172.85,-1555.55"/>
<polygon fill="midnightblue" stroke="midnightblue" points="53.27,-945.8 49.86,-935.77 46.27,-945.74 53.27,-945.8"/>
</g>
<!-- Node15 -->
<g id="node15" class="node">
<title>Node15</title>
<g id="a_node15"><a xlink:href="classMirai_1_1BotUnmuteEvent.html" target="_top" xlink:title="Bot被取消禁言事件">
<polygon fill="none" stroke="black" points="165.5,-1506.5 165.5,-1526.5 293.5,-1526.5 293.5,-1506.5 165.5,-1506.5"/>
<text text-anchor="middle" x="229.5" y="-1513.7" font-family="-apple-system, BlinkMacSystemFont, 'Segoe UI', Roboto, Oxygen, Ubuntu, Cantarell, 'Fira Sans', 'Droid Sans', 'Helvetica Neue', sans-serif" font-size="11.00">Mirai::BotUnmuteEvent</text>
</a>
</g>
</g>
<!-- Node1&#45;&gt;Node15 -->
<g id="edge14" class="edge">
<title>Node1&#45;&gt;Node15</title>
<path fill="none" stroke="midnightblue" d="M49.98,-945.76C50.32,-1037.82 56.49,-1415.8 134,-1497.5 142.29,-1506.24 153.4,-1511.57 165.07,-1514.71"/>
<polygon fill="midnightblue" stroke="midnightblue" points="53.48,-945.55 49.96,-935.56 46.48,-945.57 53.48,-945.55"/>
</g>
<!-- Node16 -->
<g id="node16" class="node">
<title>Node16</title>
<g id="a_node16"><a xlink:href="classMirai_1_1CommandExecutedEvent.html" target="_top" xlink:title="命令执行事件">
<polygon fill="none" stroke="black" points="146,-1467.5 146,-1487.5 313,-1487.5 313,-1467.5 146,-1467.5"/>
<text text-anchor="middle" x="229.5" y="-1474.7" font-family="-apple-system, BlinkMacSystemFont, 'Segoe UI', Roboto, Oxygen, Ubuntu, Cantarell, 'Fira Sans', 'Droid Sans', 'Helvetica Neue', sans-serif" font-size="11.00">Mirai::CommandExecutedEvent</text>
</a>
</g>
</g>
<!-- Node1&#45;&gt;Node16 -->
<g id="edge15" class="edge">
<title>Node1&#45;&gt;Node16</title>
<path fill="none" stroke="midnightblue" d="M50.22,-945.77C51.6,-1033.94 61.64,-1383.03 134,-1458.5 137.47,-1462.12 141.43,-1465.16 145.71,-1467.69"/>
<polygon fill="midnightblue" stroke="midnightblue" points="53.72,-945.68 50.08,-935.73 46.72,-945.77 53.72,-945.68"/>
</g>
<!-- Node17 -->
<g id="node17" class="node">
<title>Node17</title>
<g id="a_node17"><a xlink:href="classMirai_1_1FriendInputStatusChangedEvent.html" target="_top" xlink:title="好友输入状态改变事件">
<polygon fill="none" stroke="black" points="164,-1416.5 164,-1448.5 295,-1448.5 295,-1416.5 164,-1416.5"/>
<text text-anchor="start" x="172" y="-1435.7" font-family="-apple-system, BlinkMacSystemFont, 'Segoe UI', Roboto, Oxygen, Ubuntu, Cantarell, 'Fira Sans', 'Droid Sans', 'Helvetica Neue', sans-serif" font-size="11.00">Mirai::FriendInputStatus</text>
<text text-anchor="middle" x="229.5" y="-1423.7" font-family="-apple-system, BlinkMacSystemFont, 'Segoe UI', Roboto, Oxygen, Ubuntu, Cantarell, 'Fira Sans', 'Droid Sans', 'Helvetica Neue', sans-serif" font-size="11.00">ChangedEvent</text>
</a>
</g>
</g>
<!-- Node1&#45;&gt;Node17 -->
<g id="edge16" class="edge">
<title>Node1&#45;&gt;Node17</title>
<path fill="none" stroke="midnightblue" d="M50.7,-945.54C53.96,-1027.76 70.38,-1338.16 134,-1407.5 141.92,-1416.13 152.43,-1421.92 163.57,-1425.78"/>
<polygon fill="midnightblue" stroke="midnightblue" points="54.19,-945.36 50.32,-935.5 47.2,-945.62 54.19,-945.36"/>
</g>
<!-- Node18 -->
<g id="node18" class="node">
<title>Node18</title>
<g id="a_node18"><a xlink:href="classMirai_1_1FriendMessageEvent.html" target="_top" xlink:title="好友消息事件">
<polygon fill="none" stroke="black" points="156,-1377.5 156,-1397.5 303,-1397.5 303,-1377.5 156,-1377.5"/>
<text text-anchor="middle" x="229.5" y="-1384.7" font-family="-apple-system, BlinkMacSystemFont, 'Segoe UI', Roboto, Oxygen, Ubuntu, Cantarell, 'Fira Sans', 'Droid Sans', 'Helvetica Neue', sans-serif" font-size="11.00">Mirai::FriendMessageEvent</text>
</a>
</g>
</g>
<!-- Node1&#45;&gt;Node18 -->
<g id="edge17" class="edge">
<title>Node1&#45;&gt;Node18</title>
<path fill="none" stroke="midnightblue" d="M50.91,-945.5C54.9,-1023.67 73.4,-1307.23 134,-1368.5 140.12,-1374.69 147.65,-1379.14 155.77,-1382.32"/>
<polygon fill="midnightblue" stroke="midnightblue" points="54.41,-945.33 50.43,-935.51 47.42,-945.67 54.41,-945.33"/>
</g>
<!-- Node19 -->
<g id="node19" class="node">
<title>Node19</title>
<g id="a_node19"><a xlink:href="classMirai_1_1FriendNickChangedEvent.html" target="_top" xlink:title="好友昵称改变事件">
<polygon fill="none" stroke="black" points="158.5,-1326.5 158.5,-1358.5 300.5,-1358.5 300.5,-1326.5 158.5,-1326.5"/>
<text text-anchor="start" x="166.5" y="-1345.7" font-family="-apple-system, BlinkMacSystemFont, 'Segoe UI', Roboto, Oxygen, Ubuntu, Cantarell, 'Fira Sans', 'Droid Sans', 'Helvetica Neue', sans-serif" font-size="11.00">Mirai::FriendNickChanged</text>
<text text-anchor="middle" x="229.5" y="-1333.7" font-family="-apple-system, BlinkMacSystemFont, 'Segoe UI', Roboto, Oxygen, Ubuntu, Cantarell, 'Fira Sans', 'Droid Sans', 'Helvetica Neue', sans-serif" font-size="11.00">Event</text>
</a>
</g>
</g>
<!-- Node1&#45;&gt;Node19 -->
<g id="edge18" class="edge">
<title>Node1&#45;&gt;Node19</title>
<path fill="none" stroke="midnightblue" d="M51.59,-945.84C57.68,-1018.35 81.8,-1262.75 134,-1317.5 140.68,-1324.5 149.06,-1329.62 158.07,-1333.36"/>
<polygon fill="midnightblue" stroke="midnightblue" points="55.07,-945.42 50.77,-935.74 48.1,-945.99 55.07,-945.42"/>
</g>
<!-- Node20 -->
<g id="node20" class="node">
<title>Node20</title>
<g id="a_node20"><a xlink:href="classMirai_1_1FriendRecallEvent.html" target="_top" xlink:title="好友消息撤回事件">
<polygon fill="none" stroke="black" points="163,-1287.5 163,-1307.5 296,-1307.5 296,-1287.5 163,-1287.5"/>
<text text-anchor="middle" x="229.5" y="-1294.7" font-family="-apple-system, BlinkMacSystemFont, 'Segoe UI', Roboto, Oxygen, Ubuntu, Cantarell, 'Fira Sans', 'Droid Sans', 'Helvetica Neue', sans-serif" font-size="11.00">Mirai::FriendRecallEvent</text>
</a>
</g>
</g>
<!-- Node1&#45;&gt;Node20 -->
<g id="edge19" class="edge">
<title>Node1&#45;&gt;Node20</title>
<path fill="none" stroke="midnightblue" d="M52.02,-946.09C59.13,-1014.33 85.27,-1231.45 134,-1278.5 141.95,-1286.17 152.08,-1291.15 162.74,-1294.31"/>
<polygon fill="midnightblue" stroke="midnightblue" points="55.47,-945.4 50.97,-935.8 48.5,-946.1 55.47,-945.4"/>
</g>
<!-- Node21 -->
<g id="node21" class="node">
<title>Node21</title>
<g id="a_node21"><a xlink:href="classMirai_1_1FriendSyncMessageEvent.html" target="_top" xlink:title="好友消息同步事件">
<polygon fill="none" stroke="black" points="157.5,-1236.5 157.5,-1268.5 301.5,-1268.5 301.5,-1236.5 157.5,-1236.5"/>
<text text-anchor="start" x="165.5" y="-1255.7" font-family="-apple-system, BlinkMacSystemFont, 'Segoe UI', Roboto, Oxygen, Ubuntu, Cantarell, 'Fira Sans', 'Droid Sans', 'Helvetica Neue', sans-serif" font-size="11.00">Mirai::FriendSyncMessage</text>
<text text-anchor="middle" x="229.5" y="-1243.7" font-family="-apple-system, BlinkMacSystemFont, 'Segoe UI', Roboto, Oxygen, Ubuntu, Cantarell, 'Fira Sans', 'Droid Sans', 'Helvetica Neue', sans-serif" font-size="11.00">Event</text>
</a>
</g>
</g>
<!-- Node1&#45;&gt;Node21 -->
<g id="edge20" class="edge">
<title>Node1&#45;&gt;Node21</title>
<path fill="none" stroke="midnightblue" d="M49.24,-945.9C48.4,-1000 53.91,-1148.42 134,-1227.5 140.64,-1234.06 148.79,-1238.95 157.49,-1242.59"/>
<polygon fill="midnightblue" stroke="midnightblue" points="52.75,-945.66 49.5,-935.57 45.75,-945.48 52.75,-945.66"/>
</g>
<!-- Node22 -->
<g id="node22" class="node">
<title>Node22</title>
<g id="a_node22"><a xlink:href="classMirai_1_1GroupAllowAnonymousChatEvent.html" target="_top" xlink:title="群聊开启/关闭匿名聊天事件">
<polygon fill="none" stroke="black" points="150,-1185.5 150,-1217.5 309,-1217.5 309,-1185.5 150,-1185.5"/>
<text text-anchor="start" x="158" y="-1204.7" font-family="-apple-system, BlinkMacSystemFont, 'Segoe UI', Roboto, Oxygen, Ubuntu, Cantarell, 'Fira Sans', 'Droid Sans', 'Helvetica Neue', sans-serif" font-size="11.00">Mirai::GroupAllowAnonymous</text>
<text text-anchor="middle" x="229.5" y="-1192.7" font-family="-apple-system, BlinkMacSystemFont, 'Segoe UI', Roboto, Oxygen, Ubuntu, Cantarell, 'Fira Sans', 'Droid Sans', 'Helvetica Neue', sans-serif" font-size="11.00">ChatEvent</text>
</a>
</g>
</g>
<!-- Node1&#45;&gt;Node22 -->
<g id="edge21" class="edge">
<title>Node1&#45;&gt;Node22</title>
<path fill="none" stroke="midnightblue" d="M50.6,-945.92C53.15,-993.61 66.34,-1113.05 134,-1176.5 138.7,-1180.91 144.09,-1184.56 149.86,-1187.59"/>
<polygon fill="midnightblue" stroke="midnightblue" points="54.09,-945.5 50.16,-935.66 47.09,-945.8 54.09,-945.5"/>
</g>
<!-- Node23 -->
<g id="node23" class="node">
<title>Node23</title>
<g id="a_node23"><a xlink:href="classMirai_1_1GroupAllowConfessTalkEvent.html" target="_top" xlink:title="群聊开启/关闭坦白说事件">
<polygon fill="none" stroke="black" points="159,-1134.5 159,-1166.5 300,-1166.5 300,-1134.5 159,-1134.5"/>
<text text-anchor="start" x="167" y="-1153.7" font-family="-apple-system, BlinkMacSystemFont, 'Segoe UI', Roboto, Oxygen, Ubuntu, Cantarell, 'Fira Sans', 'Droid Sans', 'Helvetica Neue', sans-serif" font-size="11.00">Mirai::GroupAllowConfess</text>
<text text-anchor="middle" x="229.5" y="-1141.7" font-family="-apple-system, BlinkMacSystemFont, 'Segoe UI', Roboto, Oxygen, Ubuntu, Cantarell, 'Fira Sans', 'Droid Sans', 'Helvetica Neue', sans-serif" font-size="11.00">TalkEvent</text>
</a>
</g>
</g>
<!-- Node1&#45;&gt;Node23 -->
<g id="edge22" class="edge">
<title>Node1&#45;&gt;Node23</title>
<path fill="none" stroke="midnightblue" d="M52.54,-945.57C58.73,-985.92 78.42,-1077.15 134,-1125.5 141.17,-1131.74 149.73,-1136.44 158.72,-1139.99"/>
<polygon fill="midnightblue" stroke="midnightblue" points="56,-945.02 51.13,-935.61 49.07,-946 56,-945.02"/>
</g>
<!-- Node24 -->
<g id="node24" class="node">
<title>Node24</title>
<g id="a_node24"><a xlink:href="classMirai_1_1GroupAllowMemberInviteEvent.html" target="_top" xlink:title="群聊开启/关闭允许群成员邀请好友加群事件">
<polygon fill="none" stroke="black" points="146,-1083.5 146,-1115.5 313,-1115.5 313,-1083.5 146,-1083.5"/>
<text text-anchor="start" x="154" y="-1102.7" font-family="-apple-system, BlinkMacSystemFont, 'Segoe UI', Roboto, Oxygen, Ubuntu, Cantarell, 'Fira Sans', 'Droid Sans', 'Helvetica Neue', sans-serif" font-size="11.00">Mirai::GroupAllowMemberInvite</text>
<text text-anchor="middle" x="229.5" y="-1090.7" font-family="-apple-system, BlinkMacSystemFont, 'Segoe UI', Roboto, Oxygen, Ubuntu, Cantarell, 'Fira Sans', 'Droid Sans', 'Helvetica Neue', sans-serif" font-size="11.00">Event</text>
</a>
</g>
</g>
<!-- Node1&#45;&gt;Node24 -->
<g id="edge23" class="edge">
<title>Node1&#45;&gt;Node24</title>
<path fill="none" stroke="midnightblue" d="M55.61,-945.26C65.76,-977.39 90.3,-1040.73 134,-1074.5 138.43,-1077.92 143.29,-1080.88 148.39,-1083.44"/>
<polygon fill="midnightblue" stroke="midnightblue" points="58.95,-944.22 52.71,-935.65 52.25,-946.24 58.95,-944.22"/>
</g>
<!-- Node25 -->
<g id="node25" class="node">
<title>Node25</title>
<g id="a_node25"><a xlink:href="classMirai_1_1GroupEntranceAnnouncementChangeEvent.html" target="_top" xlink:title="入群公告更改事件">
<polygon fill="none" stroke="black" points="134,-1032.5 134,-1064.5 325,-1064.5 325,-1032.5 134,-1032.5"/>
<text text-anchor="start" x="142" y="-1051.7" font-family="-apple-system, BlinkMacSystemFont, 'Segoe UI', Roboto, Oxygen, Ubuntu, Cantarell, 'Fira Sans', 'Droid Sans', 'Helvetica Neue', sans-serif" font-size="11.00">Mirai::GroupEntranceAnnouncement</text>
<text text-anchor="middle" x="229.5" y="-1039.7" font-family="-apple-system, BlinkMacSystemFont, 'Segoe UI', Roboto, Oxygen, Ubuntu, Cantarell, 'Fira Sans', 'Droid Sans', 'Helvetica Neue', sans-serif" font-size="11.00">ChangeEvent</text>
</a>
</g>
</g>
<!-- Node1&#45;&gt;Node25 -->
<g id="edge24" class="edge">
<title>Node1&#45;&gt;Node25</title>
<path fill="none" stroke="midnightblue" d="M60.99,-944.15C75.08,-966.41 101.61,-1003.18 134,-1023.5 139.46,-1026.93 145.39,-1029.89 151.51,-1032.45"/>
<polygon fill="midnightblue" stroke="midnightblue" points="63.95,-942.27 55.73,-935.58 57.98,-945.94 63.95,-942.27"/>
</g>
<!-- Node26 -->
<g id="node26" class="node">
<title>Node26</title>
<g id="a_node26"><a xlink:href="classMirai_1_1GroupMessageEvent.html" target="_top" xlink:title="群聊消息事件">
<polygon fill="none" stroke="black" points="156.5,-993.5 156.5,-1013.5 302.5,-1013.5 302.5,-993.5 156.5,-993.5"/>
<text text-anchor="middle" x="229.5" y="-1000.7" font-family="-apple-system, BlinkMacSystemFont, 'Segoe UI', Roboto, Oxygen, Ubuntu, Cantarell, 'Fira Sans', 'Droid Sans', 'Helvetica Neue', sans-serif" font-size="11.00">Mirai::GroupMessageEvent</text>
</a>
</g>
</g>
<!-- Node1&#45;&gt;Node26 -->
<g id="edge25" class="edge">
<title>Node1&#45;&gt;Node26</title>
<path fill="none" stroke="midnightblue" d="M68.68,-942.08C84.86,-955.54 109.46,-973.97 134,-984.5 142.46,-988.13 151.64,-991.08 160.85,-993.47"/>
<polygon fill="midnightblue" stroke="midnightblue" points="70.92,-939.39 61.04,-935.56 66.38,-944.71 70.92,-939.39"/>
</g>
<!-- Node27 -->
<g id="node27" class="node">
<title>Node27</title>
<g id="a_node27"><a xlink:href="classMirai_1_1GroupMuteAllEvent.html" target="_top" xlink:title="群聊开启/关闭全体禁言事件">
<polygon fill="none" stroke="black" points="160,-954.5 160,-974.5 299,-974.5 299,-954.5 160,-954.5"/>
<text text-anchor="middle" x="229.5" y="-961.7" font-family="-apple-system, BlinkMacSystemFont, 'Segoe UI', Roboto, Oxygen, Ubuntu, Cantarell, 'Fira Sans', 'Droid Sans', 'Helvetica Neue', sans-serif" font-size="11.00">Mirai::GroupMuteAllEvent</text>
</a>
</g>
</g>
<!-- Node1&#45;&gt;Node27 -->
<g id="edge26" class="edge">
<title>Node1&#45;&gt;Node27</title>
<path fill="none" stroke="midnightblue" d="M100.79,-937.9C111.73,-940.48 123.24,-943.14 134,-945.5 147.89,-948.55 162.98,-951.67 176.93,-954.48"/>
<polygon fill="midnightblue" stroke="midnightblue" points="101.49,-934.47 90.95,-935.56 99.87,-941.28 101.49,-934.47"/>
</g>
<!-- Node28 -->
<g id="node28" class="node">
<title>Node28</title>
<g id="a_node28"><a xlink:href="classMirai_1_1GroupNameChangeEvent.html" target="_top" xlink:title="群聊名称更改事件">
<polygon fill="none" stroke="black" points="144.5,-915.5 144.5,-935.5 314.5,-935.5 314.5,-915.5 144.5,-915.5"/>
<text text-anchor="middle" x="229.5" y="-922.7" font-family="-apple-system, BlinkMacSystemFont, 'Segoe UI', Roboto, Oxygen, Ubuntu, Cantarell, 'Fira Sans', 'Droid Sans', 'Helvetica Neue', sans-serif" font-size="11.00">Mirai::GroupNameChangeEvent</text>
</a>
</g>
</g>
<!-- Node1&#45;&gt;Node28 -->
<g id="edge27" class="edge">
<title>Node1&#45;&gt;Node28</title>
<path fill="none" stroke="midnightblue" d="M108.59,-925.5C120.05,-925.5 132.28,-925.5 144.39,-925.5"/>
<polygon fill="midnightblue" stroke="midnightblue" points="108.3,-922 98.3,-925.5 108.3,-929 108.3,-922"/>
</g>
<!-- Node29 -->
<g id="node29" class="node">
<title>Node29</title>
<g id="a_node29"><a xlink:href="classMirai_1_1GroupRecallEvent.html" target="_top" xlink:title="群消息撤回事件">
<polygon fill="none" stroke="black" points="163.5,-876.5 163.5,-896.5 295.5,-896.5 295.5,-876.5 163.5,-876.5"/>
<text text-anchor="middle" x="229.5" y="-883.7" font-family="-apple-system, BlinkMacSystemFont, 'Segoe UI', Roboto, Oxygen, Ubuntu, Cantarell, 'Fira Sans', 'Droid Sans', 'Helvetica Neue', sans-serif" font-size="11.00">Mirai::GroupRecallEvent</text>
</a>
</g>
</g>
<!-- Node1&#45;&gt;Node29 -->
<g id="edge28" class="edge">
<title>Node1&#45;&gt;Node29</title>
<path fill="none" stroke="midnightblue" d="M103.86,-913.2C113.87,-910.95 124.25,-908.63 134,-906.5 149.07,-903.2 165.51,-899.69 180.4,-896.55"/>
<polygon fill="midnightblue" stroke="midnightblue" points="102.99,-909.81 94.01,-915.43 104.53,-916.64 102.99,-909.81"/>
</g>
<!-- Node30 -->
<g id="node30" class="node">
<title>Node30</title>
<g id="a_node30"><a xlink:href="classMirai_1_1GroupSyncMessageEvent.html" target="_top" xlink:title="群聊消息同步事件">
<polygon fill="none" stroke="black" points="144.5,-837.5 144.5,-857.5 314.5,-857.5 314.5,-837.5 144.5,-837.5"/>
<text text-anchor="middle" x="229.5" y="-844.7" font-family="-apple-system, BlinkMacSystemFont, 'Segoe UI', Roboto, Oxygen, Ubuntu, Cantarell, 'Fira Sans', 'Droid Sans', 'Helvetica Neue', sans-serif" font-size="11.00">Mirai::GroupSyncMessageEvent</text>
</a>
</g>
</g>
<!-- Node1&#45;&gt;Node30 -->
<g id="edge29" class="edge">
<title>Node1&#45;&gt;Node30</title>
<path fill="none" stroke="midnightblue" d="M69.49,-908.69C85.71,-895.55 109.96,-877.84 134,-867.5 143.47,-863.42 153.85,-860.15 164.15,-857.53"/>
<polygon fill="midnightblue" stroke="midnightblue" points="66.81,-906.36 61.35,-915.44 71.28,-911.74 66.81,-906.36"/>
</g>
<!-- Node31 -->
<g id="node31" class="node">
<title>Node31</title>
<g id="a_node31"><a xlink:href="classMirai_1_1MemberCardChangeEvent.html" target="_top" xlink:title="群成员名片更改事件">
<polygon fill="none" stroke="black" points="143,-798.5 143,-818.5 316,-818.5 316,-798.5 143,-798.5"/>
<text text-anchor="middle" x="229.5" y="-805.7" font-family="-apple-system, BlinkMacSystemFont, 'Segoe UI', Roboto, Oxygen, Ubuntu, Cantarell, 'Fira Sans', 'Droid Sans', 'Helvetica Neue', sans-serif" font-size="11.00">Mirai::MemberCardChangeEvent</text>
</a>
</g>
</g>
<!-- Node1&#45;&gt;Node31 -->
<g id="edge30" class="edge">
<title>Node1&#45;&gt;Node31</title>
<path fill="none" stroke="midnightblue" d="M60.87,-906.77C74.85,-884.47 101.26,-847.81 134,-828.5 140.93,-824.41 148.59,-821.15 156.45,-818.56"/>
<polygon fill="midnightblue" stroke="midnightblue" points="57.86,-905 55.66,-915.36 63.84,-908.63 57.86,-905"/>
</g>
<!-- Node32 -->
<g id="node32" class="node">
<title>Node32</title>
<g id="a_node32"><a xlink:href="classMirai_1_1MemberHonorChangeEvent.html" target="_top" xlink:title="群成员荣誉改变事件">
<polygon fill="none" stroke="black" points="153,-747.5 153,-779.5 306,-779.5 306,-747.5 153,-747.5"/>
<text text-anchor="start" x="161" y="-766.7" font-family="-apple-system, BlinkMacSystemFont, 'Segoe UI', Roboto, Oxygen, Ubuntu, Cantarell, 'Fira Sans', 'Droid Sans', 'Helvetica Neue', sans-serif" font-size="11.00">Mirai::MemberHonorChange</text>
<text text-anchor="middle" x="229.5" y="-754.7" font-family="-apple-system, BlinkMacSystemFont, 'Segoe UI', Roboto, Oxygen, Ubuntu, Cantarell, 'Fira Sans', 'Droid Sans', 'Helvetica Neue', sans-serif" font-size="11.00">Event</text>
</a>
</g>
</g>
<!-- Node1&#45;&gt;Node32 -->
<g id="edge31" class="edge">
<title>Node1&#45;&gt;Node32</title>
<path fill="none" stroke="midnightblue" d="M56.92,-905.42C68.26,-875.55 93.65,-819.73 134,-789.5 139.72,-785.21 146.11,-781.64 152.79,-778.65"/>
<polygon fill="midnightblue" stroke="midnightblue" points="53.51,-904.55 53.38,-915.15 60.09,-906.95 53.51,-904.55"/>
</g>
<!-- Node33 -->
<g id="node33" class="node">
<title>Node33</title>
<g id="a_node33"><a xlink:href="classMirai_1_1MemberJoinEvent.html" target="_top" xlink:title="新成员加入群聊事件">
<polygon fill="none" stroke="black" points="163,-708.5 163,-728.5 296,-728.5 296,-708.5 163,-708.5"/>
<text text-anchor="middle" x="229.5" y="-715.7" font-family="-apple-system, BlinkMacSystemFont, 'Segoe UI', Roboto, Oxygen, Ubuntu, Cantarell, 'Fira Sans', 'Droid Sans', 'Helvetica Neue', sans-serif" font-size="11.00">Mirai::MemberJoinEvent</text>
</a>
</g>
</g>
<!-- Node1&#45;&gt;Node33 -->
<g id="edge32" class="edge">
<title>Node1&#45;&gt;Node33</title>
<path fill="none" stroke="midnightblue" d="M52.95,-905.45C59.75,-866.76 80.29,-781.81 134,-738.5 142.35,-731.76 152.44,-727.14 162.86,-724.01"/>
<polygon fill="midnightblue" stroke="midnightblue" points="49.47,-905.04 51.32,-915.47 56.38,-906.16 49.47,-905.04"/>
</g>
<!-- Node34 -->
<g id="node34" class="node">
<title>Node34</title>
<g id="a_node34"><a xlink:href="classMirai_1_1MemberJoinRequestEvent.html" target="_top" xlink:title="用户申请入群事件">
<polygon fill="none" stroke="black" points="156.5,-657.5 156.5,-689.5 302.5,-689.5 302.5,-657.5 156.5,-657.5"/>
<text text-anchor="start" x="164.5" y="-676.7" font-family="-apple-system, BlinkMacSystemFont, 'Segoe UI', Roboto, Oxygen, Ubuntu, Cantarell, 'Fira Sans', 'Droid Sans', 'Helvetica Neue', sans-serif" font-size="11.00">Mirai::MemberJoinRequest</text>
<text text-anchor="middle" x="229.5" y="-664.7" font-family="-apple-system, BlinkMacSystemFont, 'Segoe UI', Roboto, Oxygen, Ubuntu, Cantarell, 'Fira Sans', 'Droid Sans', 'Helvetica Neue', sans-serif" font-size="11.00">Event</text>
</a>
</g>
</g>
<!-- Node1&#45;&gt;Node34 -->
<g id="edge33" class="edge">
<title>Node1&#45;&gt;Node34</title>
<path fill="none" stroke="midnightblue" d="M51.52,-905.05C55.94,-860.81 72.67,-755.69 134,-699.5 140.4,-693.64 148,-689.08 156.07,-685.54"/>
<polygon fill="midnightblue" stroke="midnightblue" points="48.03,-904.88 50.63,-915.15 55,-905.49 48.03,-904.88"/>
</g>
<!-- Node35 -->
<g id="node35" class="node">
<title>Node35</title>
<g id="a_node35"><a xlink:href="classMirai_1_1MemberLeaveEventKick.html" target="_top" xlink:title="成员被踢出群聊事件">
<polygon fill="none" stroke="black" points="148,-618.5 148,-638.5 311,-638.5 311,-618.5 148,-618.5"/>
<text text-anchor="middle" x="229.5" y="-625.7" font-family="-apple-system, BlinkMacSystemFont, 'Segoe UI', Roboto, Oxygen, Ubuntu, Cantarell, 'Fira Sans', 'Droid Sans', 'Helvetica Neue', sans-serif" font-size="11.00">Mirai::MemberLeaveEventKick</text>
</a>
</g>
</g>
<!-- Node1&#45;&gt;Node35 -->
<g id="edge34" class="edge">
<title>Node1&#45;&gt;Node35</title>
<path fill="none" stroke="midnightblue" d="M49.64,-905.19C49.89,-853.87 58.1,-718.15 134,-648.5 138.32,-644.53 143.23,-641.27 148.48,-638.61"/>
<polygon fill="midnightblue" stroke="midnightblue" points="46.14,-905.34 49.69,-915.32 53.14,-905.3 46.14,-905.34"/>
</g>
<!-- Node36 -->
<g id="node36" class="node">
<title>Node36</title>
<g id="a_node36"><a xlink:href="classMirai_1_1MemberLeaveEventQuit.html" target="_top" xlink:title="成员主动退出群聊事件">
<polygon fill="none" stroke="black" points="149,-579.5 149,-599.5 310,-599.5 310,-579.5 149,-579.5"/>
<text text-anchor="middle" x="229.5" y="-586.7" font-family="-apple-system, BlinkMacSystemFont, 'Segoe UI', Roboto, Oxygen, Ubuntu, Cantarell, 'Fira Sans', 'Droid Sans', 'Helvetica Neue', sans-serif" font-size="11.00">Mirai::MemberLeaveEventQuit</text>
</a>
</g>
</g>
<!-- Node1&#45;&gt;Node36 -->
<g id="edge35" class="edge">
<title>Node1&#45;&gt;Node36</title>
<path fill="none" stroke="midnightblue" d="M52.63,-905.06C61.19,-841.81 90.22,-651.09 134,-609.5 138.38,-605.34 143.39,-601.96 148.78,-599.21"/>
<polygon fill="midnightblue" stroke="midnightblue" points="49.12,-904.95 51.27,-915.32 56.06,-905.86 49.12,-904.95"/>
</g>
<!-- Node37 -->
<g id="node37" class="node">
<title>Node37</title>
<g id="a_node37"><a xlink:href="classMirai_1_1MemberMuteEvent.html" target="_top" xlink:title="群成员被禁言事件">
<polygon fill="none" stroke="black" points="161,-540.5 161,-560.5 298,-560.5 298,-540.5 161,-540.5"/>
<text text-anchor="middle" x="229.5" y="-547.7" font-family="-apple-system, BlinkMacSystemFont, 'Segoe UI', Roboto, Oxygen, Ubuntu, Cantarell, 'Fira Sans', 'Droid Sans', 'Helvetica Neue', sans-serif" font-size="11.00">Mirai::MemberMuteEvent</text>
</a>
</g>
</g>
<!-- Node1&#45;&gt;Node37 -->
<g id="edge36" class="edge">
<title>Node1&#45;&gt;Node37</title>
<path fill="none" stroke="midnightblue" d="M51.97,-905.27C59.02,-837.21 85.17,-618.18 134,-570.5 141.44,-563.24 150.82,-558.32 160.76,-555.03"/>
<polygon fill="midnightblue" stroke="midnightblue" points="48.46,-905.2 50.94,-915.5 55.43,-905.9 48.46,-905.2"/>
</g>
<!-- Node38 -->
<g id="node38" class="node">
<title>Node38</title>
<g id="a_node38"><a xlink:href="classMirai_1_1MemberPermissionChangeEvent.html" target="_top" xlink:title="群成员权限更改事件">
<polygon fill="none" stroke="black" points="141.5,-489.5 141.5,-521.5 317.5,-521.5 317.5,-489.5 141.5,-489.5"/>
<text text-anchor="start" x="149.5" y="-508.7" font-family="-apple-system, BlinkMacSystemFont, 'Segoe UI', Roboto, Oxygen, Ubuntu, Cantarell, 'Fira Sans', 'Droid Sans', 'Helvetica Neue', sans-serif" font-size="11.00">Mirai::MemberPermissionChange</text>
<text text-anchor="middle" x="229.5" y="-496.7" font-family="-apple-system, BlinkMacSystemFont, 'Segoe UI', Roboto, Oxygen, Ubuntu, Cantarell, 'Fira Sans', 'Droid Sans', 'Helvetica Neue', sans-serif" font-size="11.00">Event</text>
</a>
</g>
</g>
<!-- Node1&#45;&gt;Node38 -->
<g id="edge37" class="edge">
<title>Node1&#45;&gt;Node38</title>
<path fill="none" stroke="midnightblue" d="M51.6,-905.07C57.7,-832.25 81.84,-586.8 134,-531.5 137.62,-527.66 141.75,-524.37 146.21,-521.56"/>
<polygon fill="midnightblue" stroke="midnightblue" points="48.09,-904.97 50.77,-915.22 55.07,-905.54 48.09,-904.97"/>
</g>
<!-- Node39 -->
<g id="node39" class="node">
<title>Node39</title>
<g id="a_node39"><a xlink:href="classMirai_1_1MemberSpecialTitleChangeEvent.html" target="_top" xlink:title="群成员头衔更改事件">
<polygon fill="none" stroke="black" points="159,-438.5 159,-470.5 300,-470.5 300,-438.5 159,-438.5"/>
<text text-anchor="start" x="167" y="-457.7" font-family="-apple-system, BlinkMacSystemFont, 'Segoe UI', Roboto, Oxygen, Ubuntu, Cantarell, 'Fira Sans', 'Droid Sans', 'Helvetica Neue', sans-serif" font-size="11.00">Mirai::MemberSpecialTitle</text>
<text text-anchor="middle" x="229.5" y="-445.7" font-family="-apple-system, BlinkMacSystemFont, 'Segoe UI', Roboto, Oxygen, Ubuntu, Cantarell, 'Fira Sans', 'Droid Sans', 'Helvetica Neue', sans-serif" font-size="11.00">ChangeEvent</text>
</a>
</g>
</g>
<!-- Node1&#45;&gt;Node39 -->
<g id="edge38" class="edge">
<title>Node1&#45;&gt;Node39</title>
<path fill="none" stroke="midnightblue" d="M51.06,-905.02C55.54,-826.25 75.48,-544.02 134,-480.5 140.8,-473.12 149.49,-467.76 158.83,-463.88"/>
<polygon fill="midnightblue" stroke="midnightblue" points="47.56,-904.94 50.51,-915.12 54.55,-905.32 47.56,-904.94"/>
</g>
<!-- Node40 -->
<g id="node40" class="node">
<title>Node40</title>
<g id="a_node40"><a xlink:href="classMirai_1_1MemberUnmuteEvent.html" target="_top" xlink:title="群成员被取消禁言事件">
<polygon fill="none" stroke="black" points="154,-399.5 154,-419.5 305,-419.5 305,-399.5 154,-399.5"/>
<text text-anchor="middle" x="229.5" y="-406.7" font-family="-apple-system, BlinkMacSystemFont, 'Segoe UI', Roboto, Oxygen, Ubuntu, Cantarell, 'Fira Sans', 'Droid Sans', 'Helvetica Neue', sans-serif" font-size="11.00">Mirai::MemberUnmuteEvent</text>
</a>
</g>
</g>
<!-- Node1&#45;&gt;Node40 -->
<g id="edge39" class="edge">
<title>Node1&#45;&gt;Node40</title>
<path fill="none" stroke="midnightblue" d="M50.51,-905.05C53.02,-820.51 66.92,-499.37 134,-429.5 139.57,-423.69 146.38,-419.36 153.76,-416.15"/>
<polygon fill="midnightblue" stroke="midnightblue" points="47,-905.07 50.23,-915.17 54,-905.27 47,-905.07"/>
</g>
<!-- Node41 -->
<g id="node41" class="node">
<title>Node41</title>
<g id="a_node41"><a xlink:href="classMirai_1_1NewFriendRequestEvent.html" target="_top" xlink:title="用户申请添加Bot好友事件">
<polygon fill="none" stroke="black" points="146.5,-360.5 146.5,-380.5 312.5,-380.5 312.5,-360.5 146.5,-360.5"/>
<text text-anchor="middle" x="229.5" y="-367.7" font-family="-apple-system, BlinkMacSystemFont, 'Segoe UI', Roboto, Oxygen, Ubuntu, Cantarell, 'Fira Sans', 'Droid Sans', 'Helvetica Neue', sans-serif" font-size="11.00">Mirai::NewFriendRequestEvent</text>
</a>
</g>
</g>
<!-- Node1&#45;&gt;Node41 -->
<g id="edge40" class="edge">
<title>Node1&#45;&gt;Node41</title>
<path fill="none" stroke="midnightblue" d="M50.23,-905.17C51.64,-816.75 61.79,-466.63 134,-390.5 137.69,-386.61 141.94,-383.37 146.54,-380.7"/>
<polygon fill="midnightblue" stroke="midnightblue" points="46.73,-905.2 50.09,-915.24 53.73,-905.29 46.73,-905.2"/>
</g>
<!-- Node42 -->
<g id="node42" class="node">
<title>Node42</title>
<g id="a_node42"><a xlink:href="classMirai_1_1NudgeEvent.html" target="_top" xlink:title="戳一戳事件">
<polygon fill="none" stroke="black" points="177,-321.5 177,-341.5 282,-341.5 282,-321.5 177,-321.5"/>
<text text-anchor="middle" x="229.5" y="-328.7" font-family="-apple-system, BlinkMacSystemFont, 'Segoe UI', Roboto, Oxygen, Ubuntu, Cantarell, 'Fira Sans', 'Droid Sans', 'Helvetica Neue', sans-serif" font-size="11.00">Mirai::NudgeEvent</text>
</a>
</g>
</g>
<!-- Node1&#45;&gt;Node42 -->
<g id="edge41" class="edge">
<title>Node1&#45;&gt;Node42</title>
<path fill="none" stroke="midnightblue" d="M49.99,-905.19C50.36,-812.89 56.66,-433.89 134,-351.5 145.02,-339.76 161.06,-334.02 176.81,-331.42"/>
<polygon fill="midnightblue" stroke="midnightblue" points="46.49,-905.41 49.97,-915.41 53.49,-905.42 46.49,-905.41"/>
</g>
<!-- Node43 -->
<g id="node43" class="node">
<title>Node43</title>
<g id="a_node43"><a xlink:href="classMirai_1_1OtherClientMessageEvent.html" target="_top" xlink:title="其它客户端消息事件">
<polygon fill="none" stroke="black" points="158,-270.5 158,-302.5 301,-302.5 301,-270.5 158,-270.5"/>
<text text-anchor="start" x="166" y="-289.7" font-family="-apple-system, BlinkMacSystemFont, 'Segoe UI', Roboto, Oxygen, Ubuntu, Cantarell, 'Fira Sans', 'Droid Sans', 'Helvetica Neue', sans-serif" font-size="11.00">Mirai::OtherClientMessage</text>
<text text-anchor="middle" x="229.5" y="-277.7" font-family="-apple-system, BlinkMacSystemFont, 'Segoe UI', Roboto, Oxygen, Ubuntu, Cantarell, 'Fira Sans', 'Droid Sans', 'Helvetica Neue', sans-serif" font-size="11.00">Event</text>
</a>
</g>
</g>
<!-- Node1&#45;&gt;Node43 -->
<g id="edge42" class="edge">
<title>Node1&#45;&gt;Node43</title>
<path fill="none" stroke="midnightblue" d="M49.89,-905.15C49.82,-809.27 54.26,-403.55 134,-312.5 140.39,-305.2 148.62,-299.87 157.55,-295.98"/>
<polygon fill="midnightblue" stroke="midnightblue" points="46.4,-905.27 49.92,-915.26 53.4,-905.25 46.4,-905.27"/>
</g>
<!-- Node44 -->
<g id="node44" class="node">
<title>Node44</title>
<g id="a_node44"><a xlink:href="classMirai_1_1OtherClientOfflineEvent.html" target="_top" xlink:title="其它客户端下线事件">
<polygon fill="none" stroke="black" points="165,-219.5 165,-251.5 294,-251.5 294,-219.5 165,-219.5"/>
<text text-anchor="start" x="173" y="-238.7" font-family="-apple-system, BlinkMacSystemFont, 'Segoe UI', Roboto, Oxygen, Ubuntu, Cantarell, 'Fira Sans', 'Droid Sans', 'Helvetica Neue', sans-serif" font-size="11.00">Mirai::OtherClientOffline</text>
<text text-anchor="middle" x="229.5" y="-226.7" font-family="-apple-system, BlinkMacSystemFont, 'Segoe UI', Roboto, Oxygen, Ubuntu, Cantarell, 'Fira Sans', 'Droid Sans', 'Helvetica Neue', sans-serif" font-size="11.00">Event</text>
</a>
</g>
</g>
<!-- Node1&#45;&gt;Node44 -->
<g id="edge43" class="edge">
<title>Node1&#45;&gt;Node44</title>
<path fill="none" stroke="midnightblue" d="M49.66,-905.39C48.38,-805.23 47.72,-361.06 134,-261.5 142.02,-252.24 153.01,-246.13 164.66,-242.14"/>
<polygon fill="midnightblue" stroke="midnightblue" points="46.16,-905.45 49.81,-915.4 53.16,-905.35 46.16,-905.45"/>
</g>
<!-- Node45 -->
<g id="node45" class="node">
<title>Node45</title>
<g id="a_node45"><a xlink:href="classMirai_1_1OtherClientOnlineEvent.html" target="_top" xlink:title="其它客户端上线事件">
<polygon fill="none" stroke="black" points="164,-168.5 164,-200.5 295,-200.5 295,-168.5 164,-168.5"/>
<text text-anchor="start" x="172" y="-187.7" font-family="-apple-system, BlinkMacSystemFont, 'Segoe UI', Roboto, Oxygen, Ubuntu, Cantarell, 'Fira Sans', 'Droid Sans', 'Helvetica Neue', sans-serif" font-size="11.00">Mirai::OtherClientOnline</text>
<text text-anchor="middle" x="229.5" y="-175.7" font-family="-apple-system, BlinkMacSystemFont, 'Segoe UI', Roboto, Oxygen, Ubuntu, Cantarell, 'Fira Sans', 'Droid Sans', 'Helvetica Neue', sans-serif" font-size="11.00">Event</text>
</a>
</g>
</g>
<!-- Node1&#45;&gt;Node45 -->
<g id="edge44" class="edge">
<title>Node1&#45;&gt;Node45</title>
<path fill="none" stroke="midnightblue" d="M51.04,-905.33C56.91,-794.73 87.35,-264.81 134,-210.5 141.76,-201.46 152.34,-195.43 163.62,-191.42"/>
<polygon fill="midnightblue" stroke="midnightblue" points="47.54,-905.29 50.51,-915.46 54.53,-905.66 47.54,-905.29"/>
</g>
<!-- Node46 -->
<g id="node46" class="node">
<title>Node46</title>
<g id="a_node46"><a xlink:href="classMirai_1_1StrangerMessageEvent.html" target="_top" xlink:title="陌生人消息事件">
<polygon fill="none" stroke="black" points="150.5,-129.5 150.5,-149.5 308.5,-149.5 308.5,-129.5 150.5,-129.5"/>
<text text-anchor="middle" x="229.5" y="-136.7" font-family="-apple-system, BlinkMacSystemFont, 'Segoe UI', Roboto, Oxygen, Ubuntu, Cantarell, 'Fira Sans', 'Droid Sans', 'Helvetica Neue', sans-serif" font-size="11.00">Mirai::StrangerMessageEvent</text>
</a>
</g>
</g>
<!-- Node1&#45;&gt;Node46 -->
<g id="edge45" class="edge">
<title>Node1&#45;&gt;Node46</title>
<path fill="none" stroke="midnightblue" d="M50.83,-904.95C55.74,-788.67 82.41,-216.49 134,-159.5 138.61,-154.4 144.17,-150.43 150.26,-147.34"/>
<polygon fill="midnightblue" stroke="midnightblue" points="47.32,-905.14 50.41,-915.28 54.32,-905.43 47.32,-905.14"/>
</g>
<!-- Node47 -->
<g id="node47" class="node">
<title>Node47</title>
<g id="a_node47"><a xlink:href="classMirai_1_1StrangerSyncMessageEvent.html" target="_top" xlink:title="陌生人消息同步事件">
<polygon fill="none" stroke="black" points="152,-78.5 152,-110.5 307,-110.5 307,-78.5 152,-78.5"/>
<text text-anchor="start" x="160" y="-97.7" font-family="-apple-system, BlinkMacSystemFont, 'Segoe UI', Roboto, Oxygen, Ubuntu, Cantarell, 'Fira Sans', 'Droid Sans', 'Helvetica Neue', sans-serif" font-size="11.00">Mirai::StrangerSyncMessage</text>
<text text-anchor="middle" x="229.5" y="-85.7" font-family="-apple-system, BlinkMacSystemFont, 'Segoe UI', Roboto, Oxygen, Ubuntu, Cantarell, 'Fira Sans', 'Droid Sans', 'Helvetica Neue', sans-serif" font-size="11.00">Event</text>
</a>
</g>
</g>
<!-- Node1&#45;&gt;Node47 -->
<g id="edge46" class="edge">
<title>Node1&#45;&gt;Node47</title>
<path fill="none" stroke="midnightblue" d="M50.77,-905.08C55.45,-785.8 81.63,-182.29 134,-120.5 138.95,-114.66 145.08,-110.07 151.82,-106.47"/>
<polygon fill="midnightblue" stroke="midnightblue" points="47.26,-905.22 50.37,-915.35 54.26,-905.49 47.26,-905.22"/>
</g>
<!-- Node48 -->
<g id="node48" class="node">
<title>Node48</title>
<g id="a_node48"><a xlink:href="classMirai_1_1TempMessageEvent.html" target="_top" xlink:title="临时会话消息事件">
<polygon fill="none" stroke="black" points="157.5,-39.5 157.5,-59.5 301.5,-59.5 301.5,-39.5 157.5,-39.5"/>
<text text-anchor="middle" x="229.5" y="-46.7" font-family="-apple-system, BlinkMacSystemFont, 'Segoe UI', Roboto, Oxygen, Ubuntu, Cantarell, 'Fira Sans', 'Droid Sans', 'Helvetica Neue', sans-serif" font-size="11.00">Mirai::TempMessageEvent</text>
</a>
</g>
</g>
<!-- Node1&#45;&gt;Node48 -->
<g id="edge47" class="edge">
<title>Node1&#45;&gt;Node48</title>
<path fill="none" stroke="midnightblue" d="M50.57,-905.25C54.2,-781.72 75.97,-132.69 134,-68.5 140.28,-61.55 148.34,-56.73 157.1,-53.44"/>
<polygon fill="midnightblue" stroke="midnightblue" points="47.07,-905.16 50.28,-915.25 54.06,-905.36 47.07,-905.16"/>
</g>
<!-- Node49 -->
<g id="node49" class="node">
<title>Node49</title>
<g id="a_node49"><a xlink:href="classMirai_1_1TempSyncMessageEvent.html" target="_top" xlink:title="临时会话消息同步事件">
<polygon fill="none" stroke="black" points="145.5,-0.5 145.5,-20.5 313.5,-20.5 313.5,-0.5 145.5,-0.5"/>
<text text-anchor="middle" x="229.5" y="-7.7" font-family="-apple-system, BlinkMacSystemFont, 'Segoe UI', Roboto, Oxygen, Ubuntu, Cantarell, 'Fira Sans', 'Droid Sans', 'Helvetica Neue', sans-serif" font-size="11.00">Mirai::TempSyncMessageEvent</text>
</a>
</g>
</g>
<!-- Node1&#45;&gt;Node49 -->
<g id="edge48" class="edge">
<title>Node1&#45;&gt;Node49</title>
<path fill="none" stroke="midnightblue" d="M50.48,-905.14C53.64,-778.04 73.37,-96.85 134,-29.5 137.36,-25.77 141.23,-22.65 145.44,-20.05"/>
<polygon fill="midnightblue" stroke="midnightblue" points="46.97,-905.3 50.23,-915.39 53.97,-905.47 46.97,-905.3"/>
</g>
<!-- Node3 -->
<g id="node3" class="node">
<title>Node3</title>
<g id="a_node3"><a xlink:href="classMirai_1_1BotOfflineEventActive.html" target="_top" xlink:title="Bot主动下线事件">
<polygon fill="none" stroke="black" points="367,-1920.5 367,-1940.5 515,-1940.5 515,-1920.5 367,-1920.5"/>
<text text-anchor="middle" x="441" y="-1927.7" font-family="-apple-system, BlinkMacSystemFont, 'Segoe UI', Roboto, Oxygen, Ubuntu, Cantarell, 'Fira Sans', 'Droid Sans', 'Helvetica Neue', sans-serif" font-size="11.00">Mirai::BotOfflineEventActive</text>
</a>
</g>
</g>
<!-- Node2&#45;&gt;Node3 -->
<g id="edge2" class="edge">
<title>Node2&#45;&gt;Node3</title>
<path fill="none" stroke="midnightblue" d="M258.85,-1867.2C284.87,-1880.23 324.76,-1899.07 361,-1911.5 370.87,-1914.89 381.64,-1917.9 391.96,-1920.48"/>
<polygon fill="midnightblue" stroke="midnightblue" points="260.43,-1864.08 249.93,-1862.68 257.27,-1870.32 260.43,-1864.08"/>
</g>
<!-- Node4 -->
<g id="node4" class="node">
<title>Node4</title>
<g id="a_node4"><a xlink:href="classMirai_1_1BotOfflineEventDropped.html" target="_top" xlink:title="Bot掉线事件">
<polygon fill="none" stroke="black" points="361,-1881.5 361,-1901.5 521,-1901.5 521,-1881.5 361,-1881.5"/>
<text text-anchor="middle" x="441" y="-1888.7" font-family="-apple-system, BlinkMacSystemFont, 'Segoe UI', Roboto, Oxygen, Ubuntu, Cantarell, 'Fira Sans', 'Droid Sans', 'Helvetica Neue', sans-serif" font-size="11.00">Mirai::BotOfflineEventDropped</text>
</a>
</g>
</g>
<!-- Node2&#45;&gt;Node4 -->
<g id="edge3" class="edge">
<title>Node2&#45;&gt;Node4</title>
<path fill="none" stroke="midnightblue" d="M284.01,-1862.46C315.27,-1868.28 354.61,-1875.6 385.96,-1881.44"/>
<polygon fill="midnightblue" stroke="midnightblue" points="284.63,-1859.02 274.16,-1860.63 283.35,-1865.9 284.63,-1859.02"/>
</g>
<!-- Node5 -->
<g id="node5" class="node">
<title>Node5</title>
<g id="a_node5"><a xlink:href="classMirai_1_1BotOfflineEventForce.html" target="_top" xlink:title="Bot强制下线事件">
<polygon fill="none" stroke="black" points="368,-1842.5 368,-1862.5 514,-1862.5 514,-1842.5 368,-1842.5"/>
<text text-anchor="middle" x="441" y="-1849.7" font-family="-apple-system, BlinkMacSystemFont, 'Segoe UI', Roboto, Oxygen, Ubuntu, Cantarell, 'Fira Sans', 'Droid Sans', 'Helvetica Neue', sans-serif" font-size="11.00">Mirai::BotOfflineEventForce</text>
</a>
</g>
</g>
<!-- Node2&#45;&gt;Node5 -->
<g id="edge4" class="edge">
<title>Node2&#45;&gt;Node5</title>
<path fill="none" stroke="midnightblue" d="M284.35,-1852.5C309.8,-1852.5 340.53,-1852.5 367.94,-1852.5"/>
<polygon fill="midnightblue" stroke="midnightblue" points="284.16,-1849 274.16,-1852.5 284.16,-1856 284.16,-1849"/>
</g>
<!-- Node6 -->
<g id="node6" class="node">
<title>Node6</title>
<g id="a_node6"><a xlink:href="classMirai_1_1BotOnlineEvent.html" target="_top" xlink:title="Bot上线事件">
<polygon fill="none" stroke="black" points="381,-1803.5 381,-1823.5 501,-1823.5 501,-1803.5 381,-1803.5"/>
<text text-anchor="middle" x="441" y="-1810.7" font-family="-apple-system, BlinkMacSystemFont, 'Segoe UI', Roboto, Oxygen, Ubuntu, Cantarell, 'Fira Sans', 'Droid Sans', 'Helvetica Neue', sans-serif" font-size="11.00">Mirai::BotOnlineEvent</text>
</a>
</g>
</g>
<!-- Node2&#45;&gt;Node6 -->
<g id="edge5" class="edge">
<title>Node2&#45;&gt;Node6</title>
<path fill="none" stroke="midnightblue" d="M284.01,-1842.54C315.27,-1836.72 354.61,-1829.4 385.96,-1823.56"/>
<polygon fill="midnightblue" stroke="midnightblue" points="283.35,-1839.1 274.16,-1844.37 284.63,-1845.98 283.35,-1839.1"/>
</g>
<!-- Node7 -->
<g id="node7" class="node">
<title>Node7</title>
<g id="a_node7"><a xlink:href="classMirai_1_1BotReloginEvent.html" target="_top" xlink:title="Bot重新登录事件">
<polygon fill="none" stroke="black" points="378.5,-1764.5 378.5,-1784.5 503.5,-1784.5 503.5,-1764.5 378.5,-1764.5"/>
<text text-anchor="middle" x="441" y="-1771.7" font-family="-apple-system, BlinkMacSystemFont, 'Segoe UI', Roboto, Oxygen, Ubuntu, Cantarell, 'Fira Sans', 'Droid Sans', 'Helvetica Neue', sans-serif" font-size="11.00">Mirai::BotReloginEvent</text>
</a>
</g>
</g>
<!-- Node2&#45;&gt;Node7 -->
<g id="edge6" class="edge">
<title>Node2&#45;&gt;Node7</title>
<path fill="none" stroke="midnightblue" d="M284.31,-1847.67C298.19,-1844.85 312.67,-1840.43 325,-1833.5 345.57,-1821.95 340.73,-1806.56 361,-1794.5 367.81,-1790.45 375.42,-1787.21 383.15,-1784.63"/>
<polygon fill="midnightblue" stroke="midnightblue" points="283.59,-1844.24 274.36,-1849.45 284.82,-1851.13 283.59,-1844.24"/>
</g>
</g>
</svg>
