<?xml version="1.0" encoding="UTF-8" standalone="no"?>
<!DOCTYPE svg PUBLIC "-//W3C//DTD SVG 1.1//EN"
 "http://www.w3.org/Graphics/SVG/1.1/DTD/svg11.dtd">
<!-- Generated by graphviz version 2.43.0 (0)
 -->
<!-- Title: Mirai::MarketFaceMessage Pages: 1 -->
<svg width="356pt" height="156pt"
 viewBox="0.00 0.00 355.50 156.00" xmlns="http://www.w3.org/2000/svg" xmlns:xlink="http://www.w3.org/1999/xlink">
<g id="graph0" class="graph" transform="scale(1 1) rotate(0) translate(4 152)">
<title>Mirai::MarketFaceMessage</title>
<!-- Node1 -->
<g id="node1" class="node">
<title>Node1</title>
<g id="a_node1"><a xlink:title="QQ商店表情消息">
<polygon fill="#bfbfbf" stroke="black" points="170,-0.5 170,-20.5 333,-20.5 333,-0.5 170,-0.5"/>
<text text-anchor="middle" x="251.5" y="-7.7" font-family="-apple-system,BlinkMacSystemFont,'SegoeUI',Roboto,Oxygen,Ubuntu,Cantarell,'FiraSans','DroidSans','HelveticaNeue',sans-serif" font-size="11.00">Mirai::MarketFaceMessage</text>
</a>
</g>
</g>
<!-- Node2 -->
<g id="node2" class="node">
<title>Node2</title>
<g id="a_node2"><a xlink:href="classMirai_1_1FaceMessage.html" target="_top" xlink:title="QQ表情消息">
<polygon fill="none" stroke="black" points="130,-58.5 130,-78.5 255,-78.5 255,-58.5 130,-58.5"/>
<text text-anchor="middle" x="192.5" y="-65.7" font-family="-apple-system,BlinkMacSystemFont,'SegoeUI',Roboto,Oxygen,Ubuntu,Cantarell,'FiraSans','DroidSans','HelveticaNeue',sans-serif" font-size="11.00">Mirai::FaceMessage</text>
</a>
</g>
</g>
<!-- Node2&#45;&gt;Node1 -->
<g id="edge1" class="edge">
<title>Node2&#45;&gt;Node1</title>
<path fill="none" stroke="midnightblue" d="M209.67,-51.2C220.18,-41.23 233.24,-28.84 241.94,-20.58"/>
<polygon fill="midnightblue" stroke="midnightblue" points="207.09,-48.83 202.24,-58.25 211.91,-53.91 207.09,-48.83"/>
</g>
<!-- Node3 -->
<g id="node3" class="node">
<title>Node3</title>
<g id="a_node3"><a xlink:href="classMirai_1_1MessageBase.html" target="_top" xlink:title="Base class for all message types">
<polygon fill="none" stroke="red" points="0,-127.5 0,-147.5 127,-147.5 127,-127.5 0,-127.5"/>
<text text-anchor="middle" x="63.5" y="-134.7" font-family="-apple-system,BlinkMacSystemFont,'SegoeUI',Roboto,Oxygen,Ubuntu,Cantarell,'FiraSans','DroidSans','HelveticaNeue',sans-serif" font-size="11.00">Mirai::MessageBase</text>
</a>
</g>
</g>
<!-- Node3&#45;&gt;Node2 -->
<g id="edge2" class="edge">
<title>Node3&#45;&gt;Node2</title>
<path fill="none" stroke="midnightblue" d="M89.98,-122.75C115.4,-109.54 153.07,-89.98 174.97,-78.61"/>
<polygon fill="midnightblue" stroke="midnightblue" points="88.16,-119.75 80.9,-127.46 91.39,-125.96 88.16,-119.75"/>
</g>
<!-- Node5 -->
<g id="node4" class="node">
<title>Node5</title>
<g id="a_node4"><a xlink:title="STL class">
<polygon fill="none" stroke="#bfbfbf" points="243.5,-127.5 243.5,-147.5 347.5,-147.5 347.5,-127.5 243.5,-127.5"/>
<text text-anchor="middle" x="295.5" y="-134.7" font-family="-apple-system,BlinkMacSystemFont,'SegoeUI',Roboto,Oxygen,Ubuntu,Cantarell,'FiraSans','DroidSans','HelveticaNeue',sans-serif" font-size="11.00">std::string_view</text>
</a>
</g>
</g>
<!-- Node5&#45;&gt;Node1 -->
<g id="edge5" class="edge">
<title>Node5&#45;&gt;Node1</title>
<path fill="none" stroke="#9a32cd" stroke-dasharray="5,2" d="M292.4,-117.3C291.15,-110.78 289.51,-103.51 287.5,-97 278.67,-68.37 263.67,-36.21 256.12,-20.76"/>
<polygon fill="#9a32cd" stroke="#9a32cd" points="288.98,-118.03 294.16,-127.27 295.87,-116.82 288.98,-118.03"/>
<text text-anchor="middle" x="301.5" y="-65.7" font-family="-apple-system,BlinkMacSystemFont,'SegoeUI',Roboto,Oxygen,Ubuntu,Cantarell,'FiraSans','DroidSans','HelveticaNeue',sans-serif" font-size="11.00"> _TYPE_</text>
</g>
<!-- Node5&#45;&gt;Node2 -->
<g id="edge3" class="edge">
<title>Node5&#45;&gt;Node2</title>
<path fill="none" stroke="#9a32cd" stroke-dasharray="5,2" d="M268.68,-122.63C261.06,-118.46 252.84,-113.73 245.5,-109 230.64,-99.44 214.48,-87.09 203.96,-78.76"/>
<polygon fill="#9a32cd" stroke="#9a32cd" points="267.1,-125.76 277.57,-127.41 270.42,-119.59 267.1,-125.76"/>
<text text-anchor="middle" x="266.5" y="-100.2" font-family="-apple-system,BlinkMacSystemFont,'SegoeUI',Roboto,Oxygen,Ubuntu,Cantarell,'FiraSans','DroidSans','HelveticaNeue',sans-serif" font-size="11.00"> _TYPE_</text>
</g>
<!-- Node7 -->
<g id="node5" class="node">
<title>Node7</title>
<g id="a_node5"><a xlink:title="STL class">
<polygon fill="none" stroke="#bfbfbf" points="145,-127.5 145,-147.5 218,-147.5 218,-127.5 145,-127.5"/>
<text text-anchor="middle" x="181.5" y="-134.7" font-family="-apple-system,BlinkMacSystemFont,'SegoeUI',Roboto,Oxygen,Ubuntu,Cantarell,'FiraSans','DroidSans','HelveticaNeue',sans-serif" font-size="11.00">std::string</text>
</a>
</g>
</g>
<!-- Node7&#45;&gt;Node2 -->
<g id="edge4" class="edge">
<title>Node7&#45;&gt;Node2</title>
<path fill="none" stroke="#9a32cd" stroke-dasharray="5,2" d="M180.75,-116.88C180.84,-110.49 181.29,-103.4 182.5,-97 183.69,-90.71 186.13,-83.95 188.3,-78.71"/>
<polygon fill="#9a32cd" stroke="#9a32cd" points="177.26,-117.36 180.9,-127.31 184.26,-117.26 177.26,-117.36"/>
<text text-anchor="middle" x="202.5" y="-100.2" font-family="-apple-system,BlinkMacSystemFont,'SegoeUI',Roboto,Oxygen,Ubuntu,Cantarell,'FiraSans','DroidSans','HelveticaNeue',sans-serif" font-size="11.00"> _name</text>
</g>
</g>
</svg>
