<?xml version="1.0" encoding="UTF-8" standalone="no"?>
<!DOCTYPE svg PUBLIC "-//W3C//DTD SVG 1.1//EN"
 "http://www.w3.org/Graphics/SVG/1.1/DTD/svg11.dtd">
<!-- Generated by graphviz version 2.43.0 (0)
 -->
<!-- Title: Mirai::MiraiApiHttpException Pages: 1 -->
<svg width="654pt" height="380pt"
 viewBox="0.00 0.00 654.00 380.00" xmlns="http://www.w3.org/2000/svg" xmlns:xlink="http://www.w3.org/1999/xlink">
<g id="graph0" class="graph" transform="scale(1 1) rotate(0) translate(4 376)">
<title>Mirai::MiraiApiHttpException</title>
<!-- Node1 -->
<g id="node1" class="node">
<title>Node1</title>
<g id="a_node1"><a xlink:title="mirai&#45;api&#45;http相关的异常">
<polygon fill="#bfbfbf" stroke="black" points="283,-175.5 283,-195.5 456,-195.5 456,-175.5 283,-175.5"/>
<text text-anchor="middle" x="369.5" y="-182.7" font-family="-apple-system,BlinkMacSystemFont,'SegoeUI',Roboto,Oxygen,Ubuntu,Cantarell,'FiraSans','DroidSans','HelveticaNeue',sans-serif" font-size="11.00">Mirai::MiraiApiHttpException</text>
</a>
</g>
</g>
<!-- Node4 -->
<g id="node4" class="node">
<title>Node4</title>
<g id="a_node4"><a xlink:href="classMirai_1_1AuthKeyFail.html" target="_top" xlink:title="MAH异常: 验证密钥错误">
<polygon fill="none" stroke="black" points="511.5,-351.5 511.5,-371.5 626.5,-371.5 626.5,-351.5 511.5,-351.5"/>
<text text-anchor="middle" x="569" y="-358.7" font-family="-apple-system,BlinkMacSystemFont,'SegoeUI',Roboto,Oxygen,Ubuntu,Cantarell,'FiraSans','DroidSans','HelveticaNeue',sans-serif" font-size="11.00">Mirai::AuthKeyFail</text>
</a>
</g>
</g>
<!-- Node1&#45;&gt;Node4 -->
<g id="edge3" class="edge">
<title>Node1&#45;&gt;Node4</title>
<path fill="none" stroke="midnightblue" d="M380.04,-205.08C397.44,-238.64 437.61,-306.97 492,-342.5 497.92,-346.37 504.57,-349.45 511.41,-351.9"/>
<polygon fill="midnightblue" stroke="midnightblue" points="383.01,-203.2 375.38,-195.85 376.77,-206.36 383.01,-203.2"/>
</g>
<!-- Node5 -->
<g id="node5" class="node">
<title>Node5</title>
<g id="a_node5"><a xlink:href="classMirai_1_1BotMuted.html" target="_top" xlink:title="MAH异常: Bot被禁言">
<polygon fill="none" stroke="black" points="517,-312.5 517,-332.5 621,-332.5 621,-312.5 517,-312.5"/>
<text text-anchor="middle" x="569" y="-319.7" font-family="-apple-system,BlinkMacSystemFont,'SegoeUI',Roboto,Oxygen,Ubuntu,Cantarell,'FiraSans','DroidSans','HelveticaNeue',sans-serif" font-size="11.00">Mirai::BotMuted</text>
</a>
</g>
</g>
<!-- Node1&#45;&gt;Node5 -->
<g id="edge4" class="edge">
<title>Node1&#45;&gt;Node5</title>
<path fill="none" stroke="midnightblue" d="M383.84,-203.46C404.2,-229.57 445.6,-277.68 492,-303.5 499.61,-307.73 508.16,-311.04 516.71,-313.61"/>
<polygon fill="midnightblue" stroke="midnightblue" points="386.62,-201.34 377.76,-195.52 381.06,-205.59 386.62,-201.34"/>
</g>
<!-- Node6 -->
<g id="node6" class="node">
<title>Node6</title>
<g id="a_node6"><a xlink:href="classMirai_1_1IllegalSession.html" target="_top" xlink:title="MAH异常: 无效Session">
<polygon fill="none" stroke="black" points="506.5,-273.5 506.5,-293.5 631.5,-293.5 631.5,-273.5 506.5,-273.5"/>
<text text-anchor="middle" x="569" y="-280.7" font-family="-apple-system,BlinkMacSystemFont,'SegoeUI',Roboto,Oxygen,Ubuntu,Cantarell,'FiraSans','DroidSans','HelveticaNeue',sans-serif" font-size="11.00">Mirai::IllegalSession</text>
</a>
</g>
</g>
<!-- Node1&#45;&gt;Node6 -->
<g id="edge5" class="edge">
<title>Node1&#45;&gt;Node6</title>
<path fill="none" stroke="midnightblue" d="M390.87,-201.8C414.08,-219.62 453.75,-247.84 492,-264.5 500.11,-268.03 508.99,-270.99 517.75,-273.45"/>
<polygon fill="midnightblue" stroke="midnightblue" points="392.86,-198.92 382.82,-195.53 388.56,-204.44 392.86,-198.92"/>
</g>
<!-- Node7 -->
<g id="node7" class="node">
<title>Node7</title>
<g id="a_node7"><a xlink:href="classMirai_1_1MessageTooLarge.html" target="_top" xlink:title="MAH异常: 消息过长">
<polygon fill="none" stroke="black" points="494.5,-234.5 494.5,-254.5 643.5,-254.5 643.5,-234.5 494.5,-234.5"/>
<text text-anchor="middle" x="569" y="-241.7" font-family="-apple-system,BlinkMacSystemFont,'SegoeUI',Roboto,Oxygen,Ubuntu,Cantarell,'FiraSans','DroidSans','HelveticaNeue',sans-serif" font-size="11.00">Mirai::MessageTooLarge</text>
</a>
</g>
</g>
<!-- Node1&#45;&gt;Node7 -->
<g id="edge6" class="edge">
<title>Node1&#45;&gt;Node7</title>
<path fill="none" stroke="midnightblue" d="M408.99,-198.97C432.77,-207.09 464,-217.4 492,-225.5 502.84,-228.64 514.65,-231.74 525.64,-234.49"/>
<polygon fill="midnightblue" stroke="midnightblue" points="409.88,-195.57 399.28,-195.63 407.6,-202.19 409.88,-195.57"/>
</g>
<!-- Node8 -->
<g id="node8" class="node">
<title>Node8</title>
<g id="a_node8"><a xlink:href="classMirai_1_1NoBot.html" target="_top" xlink:title="MAH异常: 不存在该Bot账号">
<polygon fill="none" stroke="black" points="526.5,-195.5 526.5,-215.5 611.5,-215.5 611.5,-195.5 526.5,-195.5"/>
<text text-anchor="middle" x="569" y="-202.7" font-family="-apple-system,BlinkMacSystemFont,'SegoeUI',Roboto,Oxygen,Ubuntu,Cantarell,'FiraSans','DroidSans','HelveticaNeue',sans-serif" font-size="11.00">Mirai::NoBot</text>
</a>
</g>
</g>
<!-- Node1&#45;&gt;Node8 -->
<g id="edge7" class="edge">
<title>Node1&#45;&gt;Node8</title>
<path fill="none" stroke="midnightblue" d="M466.3,-195.2C487.49,-197.35 508.85,-199.51 526.49,-201.3"/>
<polygon fill="midnightblue" stroke="midnightblue" points="466.57,-191.71 456.26,-194.19 465.86,-198.67 466.57,-191.71"/>
</g>
<!-- Node9 -->
<g id="node9" class="node">
<title>Node9</title>
<g id="a_node9"><a xlink:href="classMirai_1_1NoElement.html" target="_top" xlink:title="MAH异常: 指定对象不存在">
<polygon fill="none" stroke="black" points="513.5,-156.5 513.5,-176.5 624.5,-176.5 624.5,-156.5 513.5,-156.5"/>
<text text-anchor="middle" x="569" y="-163.7" font-family="-apple-system,BlinkMacSystemFont,'SegoeUI',Roboto,Oxygen,Ubuntu,Cantarell,'FiraSans','DroidSans','HelveticaNeue',sans-serif" font-size="11.00">Mirai::NoElement</text>
</a>
</g>
</g>
<!-- Node1&#45;&gt;Node9 -->
<g id="edge8" class="edge">
<title>Node1&#45;&gt;Node9</title>
<path fill="none" stroke="midnightblue" d="M466.29,-176.28C482.45,-174.73 498.71,-173.17 513.34,-171.76"/>
<polygon fill="midnightblue" stroke="midnightblue" points="465.88,-172.81 456.26,-177.25 466.55,-179.78 465.88,-172.81"/>
</g>
<!-- Node10 -->
<g id="node10" class="node">
<title>Node10</title>
<g id="a_node10"><a xlink:href="classMirai_1_1NoOperateSupport.html" target="_top" xlink:title="MAH异常: 不支持该操作">
<polygon fill="none" stroke="black" points="492,-117.5 492,-137.5 646,-137.5 646,-117.5 492,-117.5"/>
<text text-anchor="middle" x="569" y="-124.7" font-family="-apple-system,BlinkMacSystemFont,'SegoeUI',Roboto,Oxygen,Ubuntu,Cantarell,'FiraSans','DroidSans','HelveticaNeue',sans-serif" font-size="11.00">Mirai::NoOperateSupport</text>
</a>
</g>
</g>
<!-- Node1&#45;&gt;Node10 -->
<g id="edge9" class="edge">
<title>Node1&#45;&gt;Node10</title>
<path fill="none" stroke="midnightblue" d="M409.49,-172.26C433.23,-164.39 464.22,-154.42 492,-146.5 502.86,-143.4 514.66,-140.32 525.66,-137.56"/>
<polygon fill="midnightblue" stroke="midnightblue" points="408.18,-169.01 399.8,-175.5 410.39,-175.65 408.18,-169.01"/>
</g>
<!-- Node11 -->
<g id="node11" class="node">
<title>Node11</title>
<g id="a_node11"><a xlink:href="classMirai_1_1NoSuchFile.html" target="_top" xlink:title="MAH异常: 文件不存在">
<polygon fill="none" stroke="black" points="514,-78.5 514,-98.5 624,-98.5 624,-78.5 514,-78.5"/>
<text text-anchor="middle" x="569" y="-85.7" font-family="-apple-system,BlinkMacSystemFont,'SegoeUI',Roboto,Oxygen,Ubuntu,Cantarell,'FiraSans','DroidSans','HelveticaNeue',sans-serif" font-size="11.00">Mirai::NoSuchFile</text>
</a>
</g>
</g>
<!-- Node1&#45;&gt;Node11 -->
<g id="edge10" class="edge">
<title>Node1&#45;&gt;Node11</title>
<path fill="none" stroke="midnightblue" d="M391.28,-169.14C414.57,-151.54 454.05,-123.9 492,-107.5 500.12,-103.99 509.01,-101.04 517.76,-98.59"/>
<polygon fill="midnightblue" stroke="midnightblue" points="388.99,-166.48 383.18,-175.34 393.25,-172.03 388.99,-166.48"/>
</g>
<!-- Node12 -->
<g id="node12" class="node">
<title>Node12</title>
<g id="a_node12"><a xlink:href="classMirai_1_1NotVerifySession.html" target="_top" xlink:title="MAH异常: Session未绑定账号">
<polygon fill="none" stroke="black" points="497,-39.5 497,-59.5 641,-59.5 641,-39.5 497,-39.5"/>
<text text-anchor="middle" x="569" y="-46.7" font-family="-apple-system,BlinkMacSystemFont,'SegoeUI',Roboto,Oxygen,Ubuntu,Cantarell,'FiraSans','DroidSans','HelveticaNeue',sans-serif" font-size="11.00">Mirai::NotVerifySession</text>
</a>
</g>
</g>
<!-- Node1&#45;&gt;Node12 -->
<g id="edge11" class="edge">
<title>Node1&#45;&gt;Node12</title>
<path fill="none" stroke="midnightblue" d="M384.18,-167.3C404.7,-141.34 445.97,-93.99 492,-68.5 498.54,-64.88 505.78,-61.93 513.12,-59.54"/>
<polygon fill="midnightblue" stroke="midnightblue" points="381.4,-165.18 378.04,-175.23 386.93,-169.47 381.4,-165.18"/>
</g>
<!-- Node13 -->
<g id="node13" class="node">
<title>Node13</title>
<g id="a_node13"><a xlink:href="classMirai_1_1PermissionDenied.html" target="_top" xlink:title="MAH异常: 缺少相关权限">
<polygon fill="none" stroke="black" points="494.5,-0.5 494.5,-20.5 643.5,-20.5 643.5,-0.5 494.5,-0.5"/>
<text text-anchor="middle" x="569" y="-7.7" font-family="-apple-system,BlinkMacSystemFont,'SegoeUI',Roboto,Oxygen,Ubuntu,Cantarell,'FiraSans','DroidSans','HelveticaNeue',sans-serif" font-size="11.00">Mirai::PermissionDenied</text>
</a>
</g>
</g>
<!-- Node1&#45;&gt;Node13 -->
<g id="edge12" class="edge">
<title>Node1&#45;&gt;Node13</title>
<path fill="none" stroke="midnightblue" d="M380.08,-166.05C397.53,-132.7 437.77,-64.8 492,-29.5 497.59,-25.86 503.82,-22.92 510.24,-20.55"/>
<polygon fill="midnightblue" stroke="midnightblue" points="376.83,-164.71 375.4,-175.21 383.06,-167.89 376.83,-164.71"/>
</g>
<!-- Node2 -->
<g id="node2" class="node">
<title>Node2</title>
<g id="a_node2"><a xlink:title="STL class">
<polygon fill="none" stroke="#bfbfbf" points="131,-175.5 131,-195.5 247,-195.5 247,-175.5 131,-175.5"/>
<text text-anchor="middle" x="189" y="-182.7" font-family="-apple-system,BlinkMacSystemFont,'SegoeUI',Roboto,Oxygen,Ubuntu,Cantarell,'FiraSans','DroidSans','HelveticaNeue',sans-serif" font-size="11.00">std::runtime_error</text>
</a>
</g>
</g>
<!-- Node2&#45;&gt;Node1 -->
<g id="edge1" class="edge">
<title>Node2&#45;&gt;Node1</title>
<path fill="none" stroke="midnightblue" d="M257.72,-185.5C265.95,-185.5 274.44,-185.5 282.88,-185.5"/>
<polygon fill="midnightblue" stroke="midnightblue" points="257.46,-182 247.46,-185.5 257.46,-189 257.46,-182"/>
</g>
<!-- Node3 -->
<g id="node3" class="node">
<title>Node3</title>
<g id="a_node3"><a xlink:title="STL class">
<polygon fill="none" stroke="#bfbfbf" points="0,-175.5 0,-195.5 95,-195.5 95,-175.5 0,-175.5"/>
<text text-anchor="middle" x="47.5" y="-182.7" font-family="-apple-system,BlinkMacSystemFont,'SegoeUI',Roboto,Oxygen,Ubuntu,Cantarell,'FiraSans','DroidSans','HelveticaNeue',sans-serif" font-size="11.00">std::exception</text>
</a>
</g>
</g>
<!-- Node3&#45;&gt;Node2 -->
<g id="edge2" class="edge">
<title>Node3&#45;&gt;Node2</title>
<path fill="none" stroke="midnightblue" d="M105.42,-185.5C113.82,-185.5 122.47,-185.5 130.87,-185.5"/>
<polygon fill="midnightblue" stroke="midnightblue" points="105.34,-182 95.34,-185.5 105.34,-189 105.34,-182"/>
</g>
</g>
</svg>
