<?xml version="1.0" encoding="UTF-8" standalone="no"?>
<!DOCTYPE svg PUBLIC "-//W3C//DTD SVG 1.1//EN"
 "http://www.w3.org/Graphics/SVG/1.1/DTD/svg11.dtd">
<!-- Generated by graphviz version 2.43.0 (0)
 -->
<!-- Title: Mirai::FriendMessageEvent Pages: 1 -->
<svg width="645pt" height="152pt"
 viewBox="0.00 0.00 645.00 152.00" xmlns="http://www.w3.org/2000/svg" xmlns:xlink="http://www.w3.org/1999/xlink">
<g id="graph0" class="graph" transform="scale(1 1) rotate(0) translate(4 148)">
<title>Mirai::FriendMessageEvent</title>
<!-- Node1 -->
<g id="node1" class="node">
<title>Node1</title>
<g id="a_node1"><a xlink:title="好友消息事件">
<polygon fill="#bfbfbf" stroke="black" points="473,-58.5 473,-78.5 637,-78.5 637,-58.5 473,-58.5"/>
<text text-anchor="middle" x="555" y="-65.7" font-family="-apple-system,BlinkMacSystemFont,'SegoeUI',Roboto,Oxygen,Ubuntu,Cantarell,'FiraSans','DroidSans','HelveticaNeue',sans-serif" font-size="11.00">Mirai::FriendMessageEvent</text>
</a>
</g>
</g>
<!-- Node2 -->
<g id="node2" class="node">
<title>Node2</title>
<g id="a_node2"><a xlink:href="classMirai_1_1EventBase.html" target="_top" xlink:title="Base class for all event types">
<polygon fill="none" stroke="black" points="257.5,-120.5 257.5,-140.5 367.5,-140.5 367.5,-120.5 257.5,-120.5"/>
<text text-anchor="middle" x="312.5" y="-127.7" font-family="-apple-system,BlinkMacSystemFont,'SegoeUI',Roboto,Oxygen,Ubuntu,Cantarell,'FiraSans','DroidSans','HelveticaNeue',sans-serif" font-size="11.00">Mirai::EventBase</text>
</a>
</g>
</g>
<!-- Node2&#45;&gt;Node1 -->
<g id="edge1" class="edge">
<title>Node2&#45;&gt;Node1</title>
<path fill="none" stroke="midnightblue" d="M367.13,-118.15C393.63,-111.9 426.06,-104.07 455,-96.5 476.6,-90.85 500.71,-84.04 519.73,-78.56"/>
<polygon fill="midnightblue" stroke="midnightblue" points="366.21,-114.76 357.28,-120.46 367.81,-121.58 366.21,-114.76"/>
</g>
<!-- Node3 -->
<g id="node3" class="node">
<title>Node3</title>
<g id="a_node3"><a xlink:href="classMirai_1_1MiraiClient.html" target="_top" xlink:title="提供与mirai&#45;api&#45;http网络交互的封装">
<polygon fill="none" stroke="red" points="21,-123.5 21,-143.5 131,-143.5 131,-123.5 21,-123.5"/>
<text text-anchor="middle" x="76" y="-130.7" font-family="-apple-system,BlinkMacSystemFont,'SegoeUI',Roboto,Oxygen,Ubuntu,Cantarell,'FiraSans','DroidSans','HelveticaNeue',sans-serif" font-size="11.00">Mirai::MiraiClient</text>
</a>
</g>
</g>
<!-- Node3&#45;&gt;Node2 -->
<g id="edge2" class="edge">
<title>Node3&#45;&gt;Node2</title>
<path fill="none" stroke="#9a32cd" stroke-dasharray="5,2" d="M141.12,-132.68C177.54,-132.21 222.63,-131.64 257.27,-131.19"/>
<polygon fill="#9a32cd" stroke="#9a32cd" points="141.05,-129.18 131.09,-132.81 141.14,-136.18 141.05,-129.18"/>
<text text-anchor="middle" x="199.5" y="-134.7" font-family="-apple-system,BlinkMacSystemFont,'SegoeUI',Roboto,Oxygen,Ubuntu,Cantarell,'FiraSans','DroidSans','HelveticaNeue',sans-serif" font-size="11.00"> _client</text>
</g>
<!-- Node18 -->
<g id="node4" class="node">
<title>Node18</title>
<g id="a_node4"><a xlink:href="classMirai_1_1MessageChain.html" target="_top" xlink:title="消息链对象，由一系列消息元素组成">
<polygon fill="none" stroke="black" points="247,-78.5 247,-98.5 378,-98.5 378,-78.5 247,-78.5"/>
<text text-anchor="middle" x="312.5" y="-85.7" font-family="-apple-system,BlinkMacSystemFont,'SegoeUI',Roboto,Oxygen,Ubuntu,Cantarell,'FiraSans','DroidSans','HelveticaNeue',sans-serif" font-size="11.00">Mirai::MessageChain</text>
</a>
</g>
</g>
<!-- Node18&#45;&gt;Node1 -->
<g id="edge3" class="edge">
<title>Node18&#45;&gt;Node1</title>
<path fill="none" stroke="#9a32cd" stroke-dasharray="5,2" d="M388.35,-82.28C415.14,-80.05 445.45,-77.53 472.76,-75.26"/>
<polygon fill="#9a32cd" stroke="#9a32cd" points="387.94,-78.8 378.27,-83.11 388.52,-85.77 387.94,-78.8"/>
<text text-anchor="middle" x="425.5" y="-83.7" font-family="-apple-system,BlinkMacSystemFont,'SegoeUI',Roboto,Oxygen,Ubuntu,Cantarell,'FiraSans','DroidSans','HelveticaNeue',sans-serif" font-size="11.00"> _message</text>
</g>
<!-- Node19 -->
<g id="node5" class="node">
<title>Node19</title>
<g id="a_node5"><a xlink:title=" ">
<polygon fill="none" stroke="#bfbfbf" points="0,-72.5 0,-104.5 152,-104.5 152,-72.5 0,-72.5"/>
<text text-anchor="start" x="8" y="-91.7" font-family="-apple-system,BlinkMacSystemFont,'SegoeUI',Roboto,Oxygen,Ubuntu,Cantarell,'FiraSans','DroidSans','HelveticaNeue',sans-serif" font-size="11.00">std::vector&lt; std::unique</text>
<text text-anchor="middle" x="76" y="-79.7" font-family="-apple-system,BlinkMacSystemFont,'SegoeUI',Roboto,Oxygen,Ubuntu,Cantarell,'FiraSans','DroidSans','HelveticaNeue',sans-serif" font-size="11.00">_ptr&lt; MessageBase &gt; &gt;</text>
</a>
</g>
</g>
<!-- Node19&#45;&gt;Node18 -->
<g id="edge4" class="edge">
<title>Node19&#45;&gt;Node18</title>
<path fill="none" stroke="#9a32cd" stroke-dasharray="5,2" d="M162.29,-88.5C190.11,-88.5 220.54,-88.5 246.62,-88.5"/>
<polygon fill="#9a32cd" stroke="#9a32cd" points="162.16,-85 152.16,-88.5 162.16,-92 162.16,-85"/>
<text text-anchor="middle" x="199.5" y="-91.7" font-family="-apple-system,BlinkMacSystemFont,'SegoeUI',Roboto,Oxygen,Ubuntu,Cantarell,'FiraSans','DroidSans','HelveticaNeue',sans-serif" font-size="11.00"> _message</text>
</g>
<!-- Node22 -->
<g id="node6" class="node">
<title>Node22</title>
<g id="a_node6"><a xlink:title="STL class">
<polygon fill="none" stroke="#bfbfbf" points="260.5,-39.5 260.5,-59.5 364.5,-59.5 364.5,-39.5 260.5,-39.5"/>
<text text-anchor="middle" x="312.5" y="-46.7" font-family="-apple-system,BlinkMacSystemFont,'SegoeUI',Roboto,Oxygen,Ubuntu,Cantarell,'FiraSans','DroidSans','HelveticaNeue',sans-serif" font-size="11.00">std::string_view</text>
</a>
</g>
</g>
<!-- Node22&#45;&gt;Node1 -->
<g id="edge5" class="edge">
<title>Node22&#45;&gt;Node1</title>
<path fill="none" stroke="#9a32cd" stroke-dasharray="5,2" d="M374.73,-49.6C399.67,-50.07 428.75,-51.15 455,-53.5 468.25,-54.69 482.42,-56.5 495.77,-58.47"/>
<polygon fill="#9a32cd" stroke="#9a32cd" points="374.73,-46.1 364.67,-49.44 374.62,-53.1 374.73,-46.1"/>
<text text-anchor="middle" x="425.5" y="-56.7" font-family="-apple-system,BlinkMacSystemFont,'SegoeUI',Roboto,Oxygen,Ubuntu,Cantarell,'FiraSans','DroidSans','HelveticaNeue',sans-serif" font-size="11.00"> _TYPE_</text>
</g>
<!-- Node23 -->
<g id="node7" class="node">
<title>Node23</title>
<g id="a_node7"><a xlink:title="STL class">
<polygon fill="none" stroke="#bfbfbf" points="7.5,-21.5 7.5,-53.5 144.5,-53.5 144.5,-21.5 7.5,-21.5"/>
<text text-anchor="start" x="15.5" y="-40.7" font-family="-apple-system,BlinkMacSystemFont,'SegoeUI',Roboto,Oxygen,Ubuntu,Cantarell,'FiraSans','DroidSans','HelveticaNeue',sans-serif" font-size="11.00">std::basic_string_view</text>
<text text-anchor="middle" x="76" y="-28.7" font-family="-apple-system,BlinkMacSystemFont,'SegoeUI',Roboto,Oxygen,Ubuntu,Cantarell,'FiraSans','DroidSans','HelveticaNeue',sans-serif" font-size="11.00">&lt; char &gt;</text>
</a>
</g>
</g>
<!-- Node23&#45;&gt;Node22 -->
<g id="edge6" class="edge">
<title>Node23&#45;&gt;Node22</title>
<path fill="none" stroke="midnightblue" d="M154.65,-41.47C189.45,-43.25 229.53,-45.31 260.46,-46.89"/>
<polygon fill="midnightblue" stroke="midnightblue" points="154.68,-37.97 144.51,-40.95 154.32,-44.96 154.68,-37.97"/>
</g>
<!-- Node11 -->
<g id="node8" class="node">
<title>Node11</title>
<g id="a_node8"><a xlink:href="structMirai_1_1User.html" target="_top" xlink:title="QQ用户">
<polygon fill="none" stroke="red" points="274,-0.5 274,-20.5 351,-20.5 351,-0.5 274,-0.5"/>
<text text-anchor="middle" x="312.5" y="-7.7" font-family="-apple-system,BlinkMacSystemFont,'SegoeUI',Roboto,Oxygen,Ubuntu,Cantarell,'FiraSans','DroidSans','HelveticaNeue',sans-serif" font-size="11.00">Mirai::User</text>
</a>
</g>
</g>
<!-- Node11&#45;&gt;Node1 -->
<g id="edge7" class="edge">
<title>Node11&#45;&gt;Node1</title>
<path fill="none" stroke="#9a32cd" stroke-dasharray="5,2" d="M361.31,-16.11C388.93,-19.88 424.21,-25.62 455,-33.5 480.96,-40.14 509.75,-50.7 529.56,-58.48"/>
<polygon fill="#9a32cd" stroke="#9a32cd" points="361.49,-12.6 351.12,-14.75 360.57,-19.54 361.49,-12.6"/>
<text text-anchor="middle" x="425.5" y="-36.7" font-family="-apple-system,BlinkMacSystemFont,'SegoeUI',Roboto,Oxygen,Ubuntu,Cantarell,'FiraSans','DroidSans','HelveticaNeue',sans-serif" font-size="11.00"> _sender</text>
</g>
</g>
</svg>
