<?xml version="1.0" encoding="UTF-8" standalone="no"?>
<!DOCTYPE svg PUBLIC "-//W3C//DTD SVG 1.1//EN"
 "http://www.w3.org/Graphics/SVG/1.1/DTD/svg11.dtd">
<!-- Generated by graphviz version 2.43.0 (0)
 -->
<!-- Title: Mirai::BotUnmuteEvent Pages: 1 -->
<svg width="810pt" height="258pt"
 viewBox="0.00 0.00 810.00 258.00" xmlns="http://www.w3.org/2000/svg" xmlns:xlink="http://www.w3.org/1999/xlink">
<g id="graph0" class="graph" transform="scale(1 1) rotate(0) translate(4 254)">
<title>Mirai::BotUnmuteEvent</title>
<!-- Node1 -->
<g id="node1" class="node">
<title>Node1</title>
<g id="a_node1"><a xlink:title="Bot被取消禁言事件">
<polygon fill="#bfbfbf" stroke="black" points="657,-108.5 657,-128.5 802,-128.5 802,-108.5 657,-108.5"/>
<text text-anchor="middle" x="729.5" y="-115.7" font-family="-apple-system,BlinkMacSystemFont,'SegoeUI',Roboto,Oxygen,Ubuntu,Cantarell,'FiraSans','DroidSans','HelveticaNeue',sans-serif" font-size="11.00">Mirai::BotUnmuteEvent</text>
</a>
</g>
</g>
<!-- Node2 -->
<g id="node2" class="node">
<title>Node2</title>
<g id="a_node2"><a xlink:href="classMirai_1_1EventBase.html" target="_top" xlink:title="Base class for all event types">
<polygon fill="none" stroke="black" points="444.5,-187.5 444.5,-207.5 554.5,-207.5 554.5,-187.5 444.5,-187.5"/>
<text text-anchor="middle" x="499.5" y="-194.7" font-family="-apple-system,BlinkMacSystemFont,'SegoeUI',Roboto,Oxygen,Ubuntu,Cantarell,'FiraSans','DroidSans','HelveticaNeue',sans-serif" font-size="11.00">Mirai::EventBase</text>
</a>
</g>
</g>
<!-- Node2&#45;&gt;Node1 -->
<g id="edge1" class="edge">
<title>Node2&#45;&gt;Node1</title>
<path fill="none" stroke="midnightblue" d="M538.87,-184.21C584.22,-168.49 658.68,-142.69 699.5,-128.55"/>
<polygon fill="midnightblue" stroke="midnightblue" points="537.68,-180.91 529.38,-187.49 539.97,-187.53 537.68,-180.91"/>
</g>
<!-- Node3 -->
<g id="node3" class="node">
<title>Node3</title>
<g id="a_node3"><a xlink:href="classMirai_1_1MiraiClient.html" target="_top" xlink:title="提供与mirai&#45;api&#45;http网络交互的封装">
<polygon fill="none" stroke="red" points="235.5,-229.5 235.5,-249.5 345.5,-249.5 345.5,-229.5 235.5,-229.5"/>
<text text-anchor="middle" x="290.5" y="-236.7" font-family="-apple-system,BlinkMacSystemFont,'SegoeUI',Roboto,Oxygen,Ubuntu,Cantarell,'FiraSans','DroidSans','HelveticaNeue',sans-serif" font-size="11.00">Mirai::MiraiClient</text>
</a>
</g>
</g>
<!-- Node3&#45;&gt;Node2 -->
<g id="edge2" class="edge">
<title>Node3&#45;&gt;Node2</title>
<path fill="none" stroke="#9a32cd" stroke-dasharray="5,2" d="M350.69,-227.49C381.86,-221.17 419.64,-213.5 449.2,-207.5"/>
<polygon fill="#9a32cd" stroke="#9a32cd" points="349.92,-224.07 340.82,-229.49 351.31,-230.93 349.92,-224.07"/>
<text text-anchor="middle" x="397" y="-223.7" font-family="-apple-system,BlinkMacSystemFont,'SegoeUI',Roboto,Oxygen,Ubuntu,Cantarell,'FiraSans','DroidSans','HelveticaNeue',sans-serif" font-size="11.00"> _client</text>
</g>
<!-- Node7 -->
<g id="node4" class="node">
<title>Node7</title>
<g id="a_node4"><a xlink:title="STL class">
<polygon fill="none" stroke="#bfbfbf" points="20.5,-176.5 20.5,-196.5 93.5,-196.5 93.5,-176.5 20.5,-176.5"/>
<text text-anchor="middle" x="57" y="-183.7" font-family="-apple-system,BlinkMacSystemFont,'SegoeUI',Roboto,Oxygen,Ubuntu,Cantarell,'FiraSans','DroidSans','HelveticaNeue',sans-serif" font-size="11.00">std::string</text>
</a>
</g>
</g>
<!-- Node7&#45;&gt;Node3 -->
<g id="edge3" class="edge">
<title>Node7&#45;&gt;Node3</title>
<path fill="none" stroke="#9a32cd" stroke-dasharray="5,2" d="M103.43,-196.9C144.57,-206.32 204.79,-220.11 245.48,-229.42"/>
<polygon fill="#9a32cd" stroke="#9a32cd" points="104.19,-193.49 93.66,-194.67 102.63,-200.31 104.19,-193.49"/>
<text text-anchor="middle" x="168" y="-221.7" font-family="-apple-system,BlinkMacSystemFont,'SegoeUI',Roboto,Oxygen,Ubuntu,Cantarell,'FiraSans','DroidSans','HelveticaNeue',sans-serif" font-size="11.00"> _SessionKey</text>
</g>
<!-- Node18 -->
<g id="node5" class="node">
<title>Node18</title>
<g id="a_node5"><a xlink:href="structMirai_1_1GroupMember.html" target="_top" xlink:title="群员资料">
<polygon fill="none" stroke="black" points="435,-108.5 435,-128.5 564,-128.5 564,-108.5 435,-108.5"/>
<text text-anchor="middle" x="499.5" y="-115.7" font-family="-apple-system,BlinkMacSystemFont,'SegoeUI',Roboto,Oxygen,Ubuntu,Cantarell,'FiraSans','DroidSans','HelveticaNeue',sans-serif" font-size="11.00">Mirai::GroupMember</text>
</a>
</g>
</g>
<!-- Node7&#45;&gt;Node18 -->
<g id="edge6" class="edge">
<title>Node7&#45;&gt;Node18</title>
<path fill="none" stroke="#9a32cd" stroke-dasharray="5,2" d="M103.77,-186.05C172.92,-184.31 307.56,-176.78 417,-145.5 434.77,-140.42 454.45,-133.93 470.02,-128.58"/>
<polygon fill="#9a32cd" stroke="#9a32cd" points="103.58,-182.56 93.66,-186.28 103.73,-189.55 103.58,-182.56"/>
<text text-anchor="middle" x="290.5" y="-193.7" font-family="-apple-system,BlinkMacSystemFont,'SegoeUI',Roboto,Oxygen,Ubuntu,Cantarell,'FiraSans','DroidSans','HelveticaNeue',sans-serif" font-size="11.00"> SpecialTitle</text>
<text text-anchor="middle" x="290.5" y="-181.7" font-family="-apple-system,BlinkMacSystemFont,'SegoeUI',Roboto,Oxygen,Ubuntu,Cantarell,'FiraSans','DroidSans','HelveticaNeue',sans-serif" font-size="11.00">MemberName</text>
</g>
<!-- Node19 -->
<g id="node8" class="node">
<title>Node19</title>
<g id="a_node8"><a xlink:href="structMirai_1_1Group.html" target="_top" xlink:title="群聊资料">
<polygon fill="none" stroke="red" points="248.5,-129.5 248.5,-149.5 332.5,-149.5 332.5,-129.5 248.5,-129.5"/>
<text text-anchor="middle" x="290.5" y="-136.7" font-family="-apple-system,BlinkMacSystemFont,'SegoeUI',Roboto,Oxygen,Ubuntu,Cantarell,'FiraSans','DroidSans','HelveticaNeue',sans-serif" font-size="11.00">Mirai::Group</text>
</a>
</g>
</g>
<!-- Node7&#45;&gt;Node19 -->
<g id="edge10" class="edge">
<title>Node7&#45;&gt;Node19</title>
<path fill="none" stroke="#9a32cd" stroke-dasharray="5,2" d="M92.12,-172.87C104.51,-168.35 118.73,-163.68 132,-160.5 170.9,-151.18 216.26,-145.68 248.29,-142.66"/>
<polygon fill="#9a32cd" stroke="#9a32cd" points="90.76,-169.64 82.62,-176.42 93.21,-176.19 90.76,-169.64"/>
<text text-anchor="middle" x="168" y="-163.7" font-family="-apple-system,BlinkMacSystemFont,'SegoeUI',Roboto,Oxygen,Ubuntu,Cantarell,'FiraSans','DroidSans','HelveticaNeue',sans-serif" font-size="11.00"> name</text>
</g>
<!-- Node18&#45;&gt;Node1 -->
<g id="edge4" class="edge">
<title>Node18&#45;&gt;Node1</title>
<path fill="none" stroke="#9a32cd" stroke-dasharray="5,2" d="M574.01,-118.5C600.57,-118.5 630.5,-118.5 656.9,-118.5"/>
<polygon fill="#9a32cd" stroke="#9a32cd" points="574.01,-115 564.01,-118.5 574.01,-122 574.01,-115"/>
<text text-anchor="middle" x="610.5" y="-121.7" font-family="-apple-system,BlinkMacSystemFont,'SegoeUI',Roboto,Oxygen,Ubuntu,Cantarell,'FiraSans','DroidSans','HelveticaNeue',sans-serif" font-size="11.00"> _operator</text>
</g>
<!-- Node12 -->
<g id="node6" class="node">
<title>Node12</title>
<g id="a_node6"><a xlink:href="classMirai_1_1Serializable.html" target="_top" xlink:title="Base class for all json serializable type">
<polygon fill="none" stroke="black" points="0,-103.5 0,-123.5 114,-123.5 114,-103.5 0,-103.5"/>
<text text-anchor="middle" x="57" y="-110.7" font-family="-apple-system,BlinkMacSystemFont,'SegoeUI',Roboto,Oxygen,Ubuntu,Cantarell,'FiraSans','DroidSans','HelveticaNeue',sans-serif" font-size="11.00">Mirai::Serializable</text>
</a>
</g>
</g>
<!-- Node12&#45;&gt;Node18 -->
<g id="edge5" class="edge">
<title>Node12&#45;&gt;Node18</title>
<path fill="none" stroke="midnightblue" d="M124.43,-114.25C208.43,-115.21 352.06,-116.84 434.76,-117.78"/>
<polygon fill="midnightblue" stroke="midnightblue" points="124.28,-110.75 114.24,-114.14 124.2,-117.75 124.28,-110.75"/>
</g>
<!-- Node12&#45;&gt;Node19 -->
<g id="edge9" class="edge">
<title>Node12&#45;&gt;Node19</title>
<path fill="none" stroke="midnightblue" d="M124,-120.91C164.09,-125.42 214.02,-131.02 248.49,-134.89"/>
<polygon fill="midnightblue" stroke="midnightblue" points="124.37,-117.43 114.04,-119.79 123.59,-124.39 124.37,-117.43"/>
</g>
<!-- Node5 -->
<g id="node7" class="node">
<title>Node5</title>
<g id="a_node7"><a xlink:href="classMirai_1_1QQ__t.html" target="_top" xlink:title="QQ号码类型">
<polygon fill="none" stroke="red" points="251,-51.5 251,-71.5 330,-71.5 330,-51.5 251,-51.5"/>
<text text-anchor="middle" x="290.5" y="-58.7" font-family="-apple-system,BlinkMacSystemFont,'SegoeUI',Roboto,Oxygen,Ubuntu,Cantarell,'FiraSans','DroidSans','HelveticaNeue',sans-serif" font-size="11.00">Mirai::QQ_t</text>
</a>
</g>
</g>
<!-- Node5&#45;&gt;Node18 -->
<g id="edge7" class="edge">
<title>Node5&#45;&gt;Node18</title>
<path fill="none" stroke="#9a32cd" stroke-dasharray="5,2" d="M340.3,-62.13C363.9,-63.55 392.38,-66.91 417,-74.5 442.05,-82.22 468.24,-97.95 483.96,-108.36"/>
<polygon fill="#9a32cd" stroke="#9a32cd" points="340.33,-58.63 330.17,-61.63 339.98,-65.62 340.33,-58.63"/>
<text text-anchor="middle" x="397" y="-77.7" font-family="-apple-system,BlinkMacSystemFont,'SegoeUI',Roboto,Oxygen,Ubuntu,Cantarell,'FiraSans','DroidSans','HelveticaNeue',sans-serif" font-size="11.00"> id</text>
</g>
<!-- Node19&#45;&gt;Node18 -->
<g id="edge8" class="edge">
<title>Node19&#45;&gt;Node18</title>
<path fill="none" stroke="#9a32cd" stroke-dasharray="5,2" d="M343.17,-134.26C370.92,-131.44 405.36,-127.95 434.75,-124.97"/>
<polygon fill="#9a32cd" stroke="#9a32cd" points="342.49,-130.81 332.89,-135.3 343.19,-137.77 342.49,-130.81"/>
<text text-anchor="middle" x="397" y="-132.7" font-family="-apple-system,BlinkMacSystemFont,'SegoeUI',Roboto,Oxygen,Ubuntu,Cantarell,'FiraSans','DroidSans','HelveticaNeue',sans-serif" font-size="11.00"> group</text>
</g>
<!-- Node21 -->
<g id="node9" class="node">
<title>Node21</title>
<g id="a_node9"><a xlink:title="STL class">
<polygon fill="none" stroke="#bfbfbf" points="447.5,-47.5 447.5,-67.5 551.5,-67.5 551.5,-47.5 447.5,-47.5"/>
<text text-anchor="middle" x="499.5" y="-54.7" font-family="-apple-system,BlinkMacSystemFont,'SegoeUI',Roboto,Oxygen,Ubuntu,Cantarell,'FiraSans','DroidSans','HelveticaNeue',sans-serif" font-size="11.00">std::string_view</text>
</a>
</g>
</g>
<!-- Node21&#45;&gt;Node1 -->
<g id="edge11" class="edge">
<title>Node21&#45;&gt;Node1</title>
<path fill="none" stroke="#9a32cd" stroke-dasharray="5,2" d="M547.73,-70.14C590.25,-81.51 651.9,-98.01 691.09,-108.49"/>
<polygon fill="#9a32cd" stroke="#9a32cd" points="548.46,-66.71 537.89,-67.5 546.65,-73.47 548.46,-66.71"/>
<text text-anchor="middle" x="610.5" y="-95.7" font-family="-apple-system,BlinkMacSystemFont,'SegoeUI',Roboto,Oxygen,Ubuntu,Cantarell,'FiraSans','DroidSans','HelveticaNeue',sans-serif" font-size="11.00"> _TYPE_</text>
</g>
<!-- Node22 -->
<g id="node10" class="node">
<title>Node22</title>
<g id="a_node10"><a xlink:title="STL class">
<polygon fill="none" stroke="#bfbfbf" points="222,-0.5 222,-32.5 359,-32.5 359,-0.5 222,-0.5"/>
<text text-anchor="start" x="230" y="-19.7" font-family="-apple-system,BlinkMacSystemFont,'SegoeUI',Roboto,Oxygen,Ubuntu,Cantarell,'FiraSans','DroidSans','HelveticaNeue',sans-serif" font-size="11.00">std::basic_string_view</text>
<text text-anchor="middle" x="290.5" y="-7.7" font-family="-apple-system,BlinkMacSystemFont,'SegoeUI',Roboto,Oxygen,Ubuntu,Cantarell,'FiraSans','DroidSans','HelveticaNeue',sans-serif" font-size="11.00">&lt; char &gt;</text>
</a>
</g>
</g>
<!-- Node22&#45;&gt;Node21 -->
<g id="edge12" class="edge">
<title>Node22&#45;&gt;Node21</title>
<path fill="none" stroke="midnightblue" d="M369.55,-30.35C385.28,-33.27 401.68,-36.41 417,-39.5 429.21,-41.97 442.42,-44.81 454.57,-47.49"/>
<polygon fill="midnightblue" stroke="midnightblue" points="369.79,-26.84 359.32,-28.47 368.52,-33.72 369.79,-26.84"/>
</g>
</g>
</svg>
