<?xml version="1.0" encoding="UTF-8" standalone="no"?>
<!DOCTYPE svg PUBLIC "-//W3C//DTD SVG 1.1//EN"
 "http://www.w3.org/Graphics/SVG/1.1/DTD/svg11.dtd">
<!-- Generated by graphviz version 3.0.0 (20220413.0242)
 -->
<!-- Title: Mirai::NudgeEvent Pages: 1 -->
<svg width="796pt" height="232pt"
 viewBox="0.00 0.00 796.00 231.50" xmlns="http://www.w3.org/2000/svg" xmlns:xlink="http://www.w3.org/1999/xlink">
<g id="graph0" class="graph" transform="scale(1 1) rotate(0) translate(4 227.5)">
<title>Mirai::NudgeEvent</title>
<!-- Node1 -->
<g id="node1" class="node">
<title>Node1</title>
<g id="a_node1"><a xlink:title="戳一戳事件">
<polygon fill="#bfbfbf" stroke="black" points="683,-111.5 683,-131.5 788,-131.5 788,-111.5 683,-111.5"/>
<text text-anchor="middle" x="735.5" y="-118.7" font-family="-apple-system, BlinkMacSystemFont, 'Segoe UI', Roboto, Oxygen, Ubuntu, Cantarell, 'Fira Sans', 'Droid Sans', 'Helvetica Neue', sans-serif" font-size="11.00">Mirai::NudgeEvent</text>
</a>
</g>
</g>
<!-- Node2 -->
<g id="node2" class="node">
<title>Node2</title>
<g id="a_node2"><a xlink:href="classMirai_1_1EventBase.html" target="_top" xlink:title="Base class for all event types">
<polygon fill="none" stroke="black" points="506,-150.5 506,-170.5 604,-170.5 604,-150.5 506,-150.5"/>
<text text-anchor="middle" x="555" y="-157.7" font-family="-apple-system, BlinkMacSystemFont, 'Segoe UI', Roboto, Oxygen, Ubuntu, Cantarell, 'Fira Sans', 'Droid Sans', 'Helvetica Neue', sans-serif" font-size="11.00">Mirai::EventBase</text>
</a>
</g>
</g>
<!-- Node2&#45;&gt;Node1 -->
<g id="edge1" class="edge">
<title>Node2&#45;&gt;Node1</title>
<path fill="none" stroke="midnightblue" d="M611.92,-148.28C636.62,-142.89 665.29,-136.62 688.69,-131.51"/>
<polygon fill="midnightblue" stroke="midnightblue" points="610.99,-144.9 601.97,-150.46 612.48,-151.74 610.99,-144.9"/>
</g>
<!-- Node3 -->
<g id="node3" class="node">
<title>Node3</title>
<g id="a_node3"><a xlink:href="classMirai_1_1MiraiClient.html" target="_top" xlink:title="提供与mirai&#45;api&#45;http网络交互的封装">
<polygon fill="none" stroke="red" points="242.5,-150.5 242.5,-170.5 338.5,-170.5 338.5,-150.5 242.5,-150.5"/>
<text text-anchor="middle" x="290.5" y="-157.7" font-family="-apple-system, BlinkMacSystemFont, 'Segoe UI', Roboto, Oxygen, Ubuntu, Cantarell, 'Fira Sans', 'Droid Sans', 'Helvetica Neue', sans-serif" font-size="11.00">Mirai::MiraiClient</text>
</a>
</g>
</g>
<!-- Node3&#45;&gt;Node2 -->
<g id="edge2" class="edge">
<title>Node3&#45;&gt;Node2</title>
<path fill="none" stroke="#9a32cd" stroke-dasharray="5,2" d="M348.75,-160.5C395.73,-160.5 461.5,-160.5 505.82,-160.5"/>
<polygon fill="#9a32cd" stroke="#9a32cd" points="348.73,-157 338.73,-160.5 348.73,-164 348.73,-157"/>
<text text-anchor="middle" x="443.5" y="-163.7" font-family="-apple-system, BlinkMacSystemFont, 'Segoe UI', Roboto, Oxygen, Ubuntu, Cantarell, 'Fira Sans', 'Droid Sans', 'Helvetica Neue', sans-serif" font-size="11.00"> _client</text>
</g>
<!-- Node6 -->
<g id="node4" class="node">
<title>Node6</title>
<g id="a_node4"><a xlink:title=" ">
<polygon fill="none" stroke="red" points="14,-159.5 14,-179.5 77,-179.5 77,-159.5 14,-159.5"/>
<text text-anchor="middle" x="45.5" y="-166.7" font-family="-apple-system, BlinkMacSystemFont, 'Segoe UI', Roboto, Oxygen, Ubuntu, Cantarell, 'Fira Sans', 'Droid Sans', 'Helvetica Neue', sans-serif" font-size="11.00">std::string</text>
</a>
</g>
</g>
<!-- Node6&#45;&gt;Node1 -->
<g id="edge9" class="edge">
<title>Node6&#45;&gt;Node1</title>
<path fill="none" stroke="#9a32cd" stroke-dasharray="5,2" d="M87.11,-179.95C94.35,-181.43 101.86,-182.71 109,-183.5 138.6,-186.77 146.22,-183.6 176,-183.5 368.89,-182.83 421.62,-221.99 610,-180.5 652.05,-171.24 696.52,-145.83 719.21,-131.56"/>
<polygon fill="#9a32cd" stroke="#9a32cd" points="87.63,-176.48 77.11,-177.77 86.13,-183.32 87.63,-176.48"/>
<text text-anchor="middle" x="443.5" y="-214.7" font-family="-apple-system, BlinkMacSystemFont, 'Segoe UI', Roboto, Oxygen, Ubuntu, Cantarell, 'Fira Sans', 'Droid Sans', 'Helvetica Neue', sans-serif" font-size="11.00"> _action</text>
<text text-anchor="middle" x="443.5" y="-202.7" font-family="-apple-system, BlinkMacSystemFont, 'Segoe UI', Roboto, Oxygen, Ubuntu, Cantarell, 'Fira Sans', 'Droid Sans', 'Helvetica Neue', sans-serif" font-size="11.00">_suffix</text>
</g>
<!-- Node6&#45;&gt;Node3 -->
<g id="edge3" class="edge">
<title>Node6&#45;&gt;Node3</title>
<path fill="none" stroke="#9a32cd" stroke-dasharray="5,2" d="M87.34,-167.99C130.13,-166.4 197.28,-163.92 242.31,-162.25"/>
<polygon fill="#9a32cd" stroke="#9a32cd" points="87.14,-164.49 77.28,-168.36 87.4,-171.49 87.14,-164.49"/>
<text text-anchor="middle" x="142.5" y="-170.7" font-family="-apple-system, BlinkMacSystemFont, 'Segoe UI', Roboto, Oxygen, Ubuntu, Cantarell, 'Fira Sans', 'Droid Sans', 'Helvetica Neue', sans-serif" font-size="11.00"> _SessionKey</text>
</g>
<!-- Node8 -->
<g id="node5" class="node">
<title>Node8</title>
<g id="a_node5"><a xlink:href="classMirai_1_1QQ__t.html" target="_top" xlink:title="QQ号码类型">
<polygon fill="none" stroke="red" points="255,-68.5 255,-88.5 326,-88.5 326,-68.5 255,-68.5"/>
<text text-anchor="middle" x="290.5" y="-75.7" font-family="-apple-system, BlinkMacSystemFont, 'Segoe UI', Roboto, Oxygen, Ubuntu, Cantarell, 'Fira Sans', 'Droid Sans', 'Helvetica Neue', sans-serif" font-size="11.00">Mirai::QQ_t</text>
</a>
</g>
</g>
<!-- Node8&#45;&gt;Node1 -->
<g id="edge4" class="edge">
<title>Node8&#45;&gt;Node1</title>
<path fill="none" stroke="#9a32cd" stroke-dasharray="5,2" d="M336.24,-78.74C398.05,-79.56 512.93,-82.85 610,-95.5 638.35,-99.2 669.88,-105.81 694.11,-111.44"/>
<polygon fill="#9a32cd" stroke="#9a32cd" points="336.1,-75.24 326.06,-78.62 336.02,-82.24 336.1,-75.24"/>
<text text-anchor="middle" x="555" y="-98.7" font-family="-apple-system, BlinkMacSystemFont, 'Segoe UI', Roboto, Oxygen, Ubuntu, Cantarell, 'Fira Sans', 'Droid Sans', 'Helvetica Neue', sans-serif" font-size="11.00"> _FromId</text>
</g>
<!-- Node21 -->
<g id="node6" class="node">
<title>Node21</title>
<g id="a_node6"><a xlink:href="classMirai_1_1NudgeTarget.html" target="_top" xlink:title="QQ移动端头像戳一戳动作的对象">
<polygon fill="none" stroke="black" points="500,-24.5 500,-44.5 610,-44.5 610,-24.5 500,-24.5"/>
<text text-anchor="middle" x="555" y="-31.7" font-family="-apple-system, BlinkMacSystemFont, 'Segoe UI', Roboto, Oxygen, Ubuntu, Cantarell, 'Fira Sans', 'Droid Sans', 'Helvetica Neue', sans-serif" font-size="11.00">Mirai::NudgeTarget</text>
</a>
</g>
</g>
<!-- Node8&#45;&gt;Node21 -->
<g id="edge6" class="edge">
<title>Node8&#45;&gt;Node21</title>
<path fill="none" stroke="#9a32cd" stroke-dasharray="5,2" d="M336.04,-68.83C356.93,-64.46 382.18,-59.42 405,-55.5 436.28,-50.13 471.43,-45.13 499.74,-41.35"/>
<polygon fill="#9a32cd" stroke="#9a32cd" points="335.23,-65.42 326.17,-70.91 336.68,-72.27 335.23,-65.42"/>
<text text-anchor="middle" x="443.5" y="-58.7" font-family="-apple-system, BlinkMacSystemFont, 'Segoe UI', Roboto, Oxygen, Ubuntu, Cantarell, 'Fira Sans', 'Droid Sans', 'Helvetica Neue', sans-serif" font-size="11.00"> _target</text>
</g>
<!-- Node21&#45;&gt;Node1 -->
<g id="edge5" class="edge">
<title>Node21&#45;&gt;Node1</title>
<path fill="none" stroke="#9a32cd" stroke-dasharray="5,2" d="M620.05,-40.59C635.35,-43.71 651.22,-48.42 665,-55.5 691.64,-69.2 715.18,-96.26 726.8,-111.12"/>
<polygon fill="#9a32cd" stroke="#9a32cd" points="620.58,-37.13 610.12,-38.75 619.32,-44.01 620.58,-37.13"/>
<text text-anchor="middle" x="646.5" y="-58.7" font-family="-apple-system, BlinkMacSystemFont, 'Segoe UI', Roboto, Oxygen, Ubuntu, Cantarell, 'Fira Sans', 'Droid Sans', 'Helvetica Neue', sans-serif" font-size="11.00"> _target</text>
</g>
<!-- Node22 -->
<g id="node7" class="node">
<title>Node22</title>
<g id="a_node7"><a xlink:title=" ">
<polygon fill="none" stroke="black" points="194,-0.5 194,-44.5 387,-44.5 387,-0.5 194,-0.5"/>
<text text-anchor="start" x="202" y="-31.7" font-family="-apple-system, BlinkMacSystemFont, 'Segoe UI', Roboto, Oxygen, Ubuntu, Cantarell, 'Fira Sans', 'Droid Sans', 'Helvetica Neue', sans-serif" font-size="11.00">std::array&lt; std::string</text>
<text text-anchor="start" x="202" y="-19.7" font-family="-apple-system, BlinkMacSystemFont, 'Segoe UI', Roboto, Oxygen, Ubuntu, Cantarell, 'Fira Sans', 'Droid Sans', 'Helvetica Neue', sans-serif" font-size="11.00">_view, static_cast&lt; std</text>
<text text-anchor="middle" x="290.5" y="-7.7" font-family="-apple-system, BlinkMacSystemFont, 'Segoe UI', Roboto, Oxygen, Ubuntu, Cantarell, 'Fira Sans', 'Droid Sans', 'Helvetica Neue', sans-serif" font-size="11.00">::size_t &gt;(TargetKind::UNKNOWN)&gt;</text>
</a>
</g>
</g>
<!-- Node22&#45;&gt;Node21 -->
<g id="edge7" class="edge">
<title>Node22&#45;&gt;Node21</title>
<path fill="none" stroke="#9a32cd" stroke-dasharray="5,2" d="M397.2,-17.39C424.85,-17.15 454.58,-17.86 482,-20.5 491,-21.37 500.55,-22.83 509.64,-24.49"/>
<polygon fill="#9a32cd" stroke="#9a32cd" points="397.07,-13.89 387.12,-17.52 397.16,-20.89 397.07,-13.89"/>
<text text-anchor="middle" x="443.5" y="-23.7" font-family="-apple-system, BlinkMacSystemFont, 'Segoe UI', Roboto, Oxygen, Ubuntu, Cantarell, 'Fira Sans', 'Droid Sans', 'Helvetica Neue', sans-serif" font-size="11.00"> _TargetKindStr</text>
</g>
<!-- Node23 -->
<g id="node8" class="node">
<title>Node23</title>
<g id="a_node8"><a xlink:title=" ">
<polygon fill="none" stroke="red" points="0,-107.5 0,-127.5 91,-127.5 91,-107.5 0,-107.5"/>
<text text-anchor="middle" x="45.5" y="-114.7" font-family="-apple-system, BlinkMacSystemFont, 'Segoe UI', Roboto, Oxygen, Ubuntu, Cantarell, 'Fira Sans', 'Droid Sans', 'Helvetica Neue', sans-serif" font-size="11.00">std::string_view</text>
</a>
</g>
</g>
<!-- Node23&#45;&gt;Node1 -->
<g id="edge10" class="edge">
<title>Node23&#45;&gt;Node1</title>
<path fill="none" stroke="#9a32cd" stroke-dasharray="5,2" d="M101.21,-117.82C230.94,-118.57 555.76,-120.46 682.61,-121.2"/>
<polygon fill="#9a32cd" stroke="#9a32cd" points="101.13,-114.32 91.11,-117.76 101.09,-121.32 101.13,-114.32"/>
<text text-anchor="middle" x="443.5" y="-123.7" font-family="-apple-system, BlinkMacSystemFont, 'Segoe UI', Roboto, Oxygen, Ubuntu, Cantarell, 'Fira Sans', 'Droid Sans', 'Helvetica Neue', sans-serif" font-size="11.00"> _TYPE_</text>
</g>
<!-- Node23&#45;&gt;Node22 -->
<g id="edge8" class="edge">
<title>Node23&#45;&gt;Node22</title>
<path fill="none" stroke="#9a32cd" stroke-dasharray="5,2" d="M80.76,-103.57C110.61,-91.49 155.08,-73.62 194,-58.5 205.73,-53.94 218.29,-49.15 230.34,-44.59"/>
<polygon fill="#9a32cd" stroke="#9a32cd" points="79.19,-100.43 71.23,-107.43 81.82,-106.92 79.19,-100.43"/>
<text text-anchor="middle" x="142.5" y="-95.7" font-family="-apple-system, BlinkMacSystemFont, 'Segoe UI', Roboto, Oxygen, Ubuntu, Cantarell, 'Fira Sans', 'Droid Sans', 'Helvetica Neue', sans-serif" font-size="11.00"> elements</text>
</g>
</g>
</svg>
