<?xml version="1.0" encoding="UTF-8" standalone="no"?>
<!DOCTYPE svg PUBLIC "-//W3C//DTD SVG 1.1//EN"
 "http://www.w3.org/Graphics/SVG/1.1/DTD/svg11.dtd">
<!-- Generated by graphviz version 3.0.0 (20221109.1736)
 -->
<!-- Title: Mirai::BotLeaveEventActive Pages: 1 -->
<svg width="260pt" height="180pt"
 viewBox="0.00 0.00 260.00 180.00" xmlns="http://www.w3.org/2000/svg" xmlns:xlink="http://www.w3.org/1999/xlink">
<g id="graph0" class="graph" transform="scale(1 1) rotate(0) translate(4 176)">
<title>Mirai::BotLeaveEventActive</title>
<!-- Node1 -->
<g id="node1" class="node">
<title>Node1</title>
<g id="a_node1"><a xlink:title="Bot主动退群事件">
<polygon fill="#bfbfbf" stroke="black" points="72,-0.5 72,-20.5 220,-20.5 220,-0.5 72,-0.5"/>
<text text-anchor="middle" x="146" y="-7.7" font-family="-apple-system, BlinkMacSystemFont, 'Segoe UI', Roboto, Oxygen, Ubuntu, Cantarell, 'Fira Sans', 'Droid Sans', 'Helvetica Neue', sans-serif" font-size="11.00">Mirai::BotLeaveEventActive</text>
</a>
</g>
</g>
<!-- Node2 -->
<g id="node2" class="node">
<title>Node2</title>
<g id="a_node2"><a xlink:href="classMirai_1_1BotLeaveEvent.html" target="_top" xlink:title=" ">
<polygon fill="none" stroke="black" points="77,-58.5 77,-90.5 215,-90.5 215,-58.5 77,-58.5"/>
<text text-anchor="start" x="85" y="-77.7" font-family="-apple-system, BlinkMacSystemFont, 'Segoe UI', Roboto, Oxygen, Ubuntu, Cantarell, 'Fira Sans', 'Droid Sans', 'Helvetica Neue', sans-serif" font-size="11.00">Mirai::BotLeaveEvent</text>
<text text-anchor="middle" x="146" y="-65.7" font-family="-apple-system, BlinkMacSystemFont, 'Segoe UI', Roboto, Oxygen, Ubuntu, Cantarell, 'Fira Sans', 'Droid Sans', 'Helvetica Neue', sans-serif" font-size="11.00">&lt; BotLeaveEventActive &gt;</text>
</a>
</g>
</g>
<!-- Node2&#45;&gt;Node1 -->
<g id="edge1" class="edge">
<title>Node2&#45;&gt;Node1</title>
<path fill="none" stroke="midnightblue" d="M146,-48.42C146,-38.67 146,-28.11 146,-20.79"/>
<polygon fill="midnightblue" stroke="midnightblue" points="142.5,-48.49 146,-58.49 149.5,-48.49 142.5,-48.49"/>
</g>
<!-- Node3 -->
<g id="node3" class="node">
<title>Node3</title>
<g id="a_node3"><a xlink:href="classMirai_1_1IEvent.html" target="_top" xlink:title=" ">
<polygon fill="none" stroke="black" points="0,-139.5 0,-171.5 158,-171.5 158,-139.5 0,-139.5"/>
<text text-anchor="start" x="8" y="-158.7" font-family="-apple-system, BlinkMacSystemFont, 'Segoe UI', Roboto, Oxygen, Ubuntu, Cantarell, 'Fira Sans', 'Droid Sans', 'Helvetica Neue', sans-serif" font-size="11.00">Mirai::IEvent&lt; BotLeaveEvent</text>
<text text-anchor="middle" x="79" y="-146.7" font-family="-apple-system, BlinkMacSystemFont, 'Segoe UI', Roboto, Oxygen, Ubuntu, Cantarell, 'Fira Sans', 'Droid Sans', 'Helvetica Neue', sans-serif" font-size="11.00">Active &gt;</text>
</a>
</g>
</g>
<!-- Node3&#45;&gt;Node2 -->
<g id="edge2" class="edge">
<title>Node3&#45;&gt;Node2</title>
<path fill="none" stroke="midnightblue" d="M98.48,-131.53C109.63,-118.39 123.31,-102.26 133.12,-90.69"/>
<polygon fill="midnightblue" stroke="midnightblue" points="95.72,-129.38 91.92,-139.27 101.06,-133.91 95.72,-129.38"/>
</g>
<!-- Node4 -->
<g id="node4" class="node">
<title>Node4</title>
<g id="a_node4"><a xlink:href="structMirai_1_1Group.html" target="_top" xlink:title="群聊资料">
<polygon fill="none" stroke="red" points="176,-145.5 176,-165.5 252,-165.5 252,-145.5 176,-145.5"/>
<text text-anchor="middle" x="214" y="-152.7" font-family="-apple-system, BlinkMacSystemFont, 'Segoe UI', Roboto, Oxygen, Ubuntu, Cantarell, 'Fira Sans', 'Droid Sans', 'Helvetica Neue', sans-serif" font-size="11.00">Mirai::Group</text>
</a>
</g>
</g>
<!-- Node4&#45;&gt;Node2 -->
<g id="edge3" class="edge">
<title>Node4&#45;&gt;Node2</title>
<path fill="none" stroke="#9a32cd" stroke-dasharray="5,2" d="M199.45,-137.6C187.46,-123.67 170.61,-104.09 159.05,-90.66"/>
<polygon fill="#9a32cd" stroke="#9a32cd" points="197.02,-140.14 206.2,-145.44 202.33,-135.58 197.02,-140.14"/>
<text text-anchor="middle" x="202.5" y="-112.2" font-family="-apple-system, BlinkMacSystemFont, 'Segoe UI', Roboto, Oxygen, Ubuntu, Cantarell, 'Fira Sans', 'Droid Sans', 'Helvetica Neue', sans-serif" font-size="11.00"> group_</text>
</g>
</g>
</svg>
