<?xml version="1.0" encoding="UTF-8" standalone="no"?>
<!DOCTYPE svg PUBLIC "-//W3C//DTD SVG 1.1//EN"
 "http://www.w3.org/Graphics/SVG/1.1/DTD/svg11.dtd">
<!-- Generated by graphviz version 2.43.0 (0)
 -->
<!-- Title: Mirai::FlashImageMessage Pages: 1 -->
<svg width="388pt" height="156pt"
 viewBox="0.00 0.00 387.50 156.00" xmlns="http://www.w3.org/2000/svg" xmlns:xlink="http://www.w3.org/1999/xlink">
<g id="graph0" class="graph" transform="scale(1 1) rotate(0) translate(4 152)">
<title>Mirai::FlashImageMessage</title>
<!-- Node1 -->
<g id="node1" class="node">
<title>Node1</title>
<g id="a_node1"><a xlink:title="闪照消息">
<polygon fill="#bfbfbf" stroke="black" points="188.5,-0.5 188.5,-20.5 350.5,-20.5 350.5,-0.5 188.5,-0.5"/>
<text text-anchor="middle" x="269.5" y="-7.7" font-family="-apple-system,BlinkMacSystemFont,'SegoeUI',Roboto,Oxygen,Ubuntu,Cantarell,'FiraSans','DroidSans','HelveticaNeue',sans-serif" font-size="11.00">Mirai::FlashImageMessage</text>
</a>
</g>
</g>
<!-- Node2 -->
<g id="node2" class="node">
<title>Node2</title>
<g id="a_node2"><a xlink:href="classMirai_1_1ImageMessage.html" target="_top" xlink:title="图片消息">
<polygon fill="none" stroke="black" points="145.5,-58.5 145.5,-78.5 279.5,-78.5 279.5,-58.5 145.5,-58.5"/>
<text text-anchor="middle" x="212.5" y="-65.7" font-family="-apple-system,BlinkMacSystemFont,'SegoeUI',Roboto,Oxygen,Ubuntu,Cantarell,'FiraSans','DroidSans','HelveticaNeue',sans-serif" font-size="11.00">Mirai::ImageMessage</text>
</a>
</g>
</g>
<!-- Node2&#45;&gt;Node1 -->
<g id="edge1" class="edge">
<title>Node2&#45;&gt;Node1</title>
<path fill="none" stroke="midnightblue" d="M229.09,-51.2C239.24,-41.23 251.85,-28.84 260.26,-20.58"/>
<polygon fill="midnightblue" stroke="midnightblue" points="226.59,-48.75 221.91,-58.25 231.5,-53.74 226.59,-48.75"/>
</g>
<!-- Node3 -->
<g id="node3" class="node">
<title>Node3</title>
<g id="a_node3"><a xlink:href="classMirai_1_1MessageBase.html" target="_top" xlink:title="Base class for all message types">
<polygon fill="none" stroke="red" points="0,-127.5 0,-147.5 127,-147.5 127,-127.5 0,-127.5"/>
<text text-anchor="middle" x="63.5" y="-134.7" font-family="-apple-system,BlinkMacSystemFont,'SegoeUI',Roboto,Oxygen,Ubuntu,Cantarell,'FiraSans','DroidSans','HelveticaNeue',sans-serif" font-size="11.00">Mirai::MessageBase</text>
</a>
</g>
</g>
<!-- Node3&#45;&gt;Node2 -->
<g id="edge2" class="edge">
<title>Node3&#45;&gt;Node2</title>
<path fill="none" stroke="midnightblue" d="M92.93,-123.27C122.29,-110.06 166.62,-90.13 192.25,-78.61"/>
<polygon fill="midnightblue" stroke="midnightblue" points="91.28,-120.17 83.59,-127.46 94.15,-126.56 91.28,-120.17"/>
</g>
<!-- Node5 -->
<g id="node4" class="node">
<title>Node5</title>
<g id="a_node4"><a xlink:href="structMirai_1_1MiraiImage.html" target="_top" xlink:title="Mirai图片">
<polygon fill="none" stroke="red" points="145.5,-127.5 145.5,-147.5 257.5,-147.5 257.5,-127.5 145.5,-127.5"/>
<text text-anchor="middle" x="201.5" y="-134.7" font-family="-apple-system,BlinkMacSystemFont,'SegoeUI',Roboto,Oxygen,Ubuntu,Cantarell,'FiraSans','DroidSans','HelveticaNeue',sans-serif" font-size="11.00">Mirai::MiraiImage</text>
</a>
</g>
</g>
<!-- Node5&#45;&gt;Node2 -->
<g id="edge3" class="edge">
<title>Node5&#45;&gt;Node2</title>
<path fill="none" stroke="#9a32cd" stroke-dasharray="5,2" d="M201.47,-116.89C201.73,-110.51 202.31,-103.41 203.5,-97 204.67,-90.68 206.92,-83.8 208.88,-78.51"/>
<polygon fill="#9a32cd" stroke="#9a32cd" points="197.96,-117.26 201.28,-127.32 204.96,-117.38 197.96,-117.26"/>
<text text-anchor="middle" x="225" y="-100.2" font-family="-apple-system,BlinkMacSystemFont,'SegoeUI',Roboto,Oxygen,Ubuntu,Cantarell,'FiraSans','DroidSans','HelveticaNeue',sans-serif" font-size="11.00"> _image</text>
</g>
<!-- Node8 -->
<g id="node5" class="node">
<title>Node8</title>
<g id="a_node5"><a xlink:title="STL class">
<polygon fill="none" stroke="#bfbfbf" points="275.5,-127.5 275.5,-147.5 379.5,-147.5 379.5,-127.5 275.5,-127.5"/>
<text text-anchor="middle" x="327.5" y="-134.7" font-family="-apple-system,BlinkMacSystemFont,'SegoeUI',Roboto,Oxygen,Ubuntu,Cantarell,'FiraSans','DroidSans','HelveticaNeue',sans-serif" font-size="11.00">std::string_view</text>
</a>
</g>
</g>
<!-- Node8&#45;&gt;Node1 -->
<g id="edge5" class="edge">
<title>Node8&#45;&gt;Node1</title>
<path fill="none" stroke="#9a32cd" stroke-dasharray="5,2" d="M320.85,-117.8C318.37,-111.17 315.45,-103.7 312.5,-97 300.06,-68.71 282.99,-36.4 274.6,-20.84"/>
<polygon fill="#9a32cd" stroke="#9a32cd" points="317.6,-119.09 324.31,-127.29 324.17,-116.7 317.6,-119.09"/>
<text text-anchor="middle" x="324.5" y="-65.7" font-family="-apple-system,BlinkMacSystemFont,'SegoeUI',Roboto,Oxygen,Ubuntu,Cantarell,'FiraSans','DroidSans','HelveticaNeue',sans-serif" font-size="11.00"> _TYPE_</text>
</g>
<!-- Node8&#45;&gt;Node2 -->
<g id="edge4" class="edge">
<title>Node8&#45;&gt;Node2</title>
<path fill="none" stroke="#9a32cd" stroke-dasharray="5,2" d="M297.58,-123.09C288.72,-118.85 279.09,-113.96 270.5,-109 254.04,-99.5 236.1,-86.91 224.6,-78.52"/>
<polygon fill="#9a32cd" stroke="#9a32cd" points="296.27,-126.34 306.81,-127.42 299.24,-120 296.27,-126.34"/>
<text text-anchor="middle" x="291.5" y="-100.2" font-family="-apple-system,BlinkMacSystemFont,'SegoeUI',Roboto,Oxygen,Ubuntu,Cantarell,'FiraSans','DroidSans','HelveticaNeue',sans-serif" font-size="11.00"> _TYPE_</text>
</g>
</g>
</svg>
