<?xml version="1.0" encoding="UTF-8" standalone="no"?>
<!DOCTYPE svg PUBLIC "-//W3C//DTD SVG 1.1//EN"
 "http://www.w3.org/Graphics/SVG/1.1/DTD/svg11.dtd">
<!-- Generated by graphviz version 2.43.0 (0)
 -->
<!-- Title: Mirai::QuoteMessage Pages: 1 -->
<svg width="614pt" height="191pt"
 viewBox="0.00 0.00 614.00 191.00" xmlns="http://www.w3.org/2000/svg" xmlns:xlink="http://www.w3.org/1999/xlink">
<g id="graph0" class="graph" transform="scale(1 1) rotate(0) translate(4 187)">
<title>Mirai::QuoteMessage</title>
<!-- Node1 -->
<g id="node1" class="node">
<title>Node1</title>
<g id="a_node1"><a xlink:title="引用回复消息">
<polygon fill="#bfbfbf" stroke="black" points="472,-78.5 472,-98.5 606,-98.5 606,-78.5 472,-78.5"/>
<text text-anchor="middle" x="539" y="-85.7" font-family="-apple-system,BlinkMacSystemFont,'SegoeUI',Roboto,Oxygen,Ubuntu,Cantarell,'FiraSans','DroidSans','HelveticaNeue',sans-serif" font-size="11.00">Mirai::QuoteMessage</text>
</a>
</g>
</g>
<!-- Node2 -->
<g id="node2" class="node">
<title>Node2</title>
<g id="a_node2"><a xlink:href="classMirai_1_1MessageBase.html" target="_top" xlink:title="Base class for all message types">
<polygon fill="none" stroke="black" points="249,-159.5 249,-179.5 376,-179.5 376,-159.5 249,-159.5"/>
<text text-anchor="middle" x="312.5" y="-166.7" font-family="-apple-system,BlinkMacSystemFont,'SegoeUI',Roboto,Oxygen,Ubuntu,Cantarell,'FiraSans','DroidSans','HelveticaNeue',sans-serif" font-size="11.00">Mirai::MessageBase</text>
</a>
</g>
</g>
<!-- Node2&#45;&gt;Node1 -->
<g id="edge1" class="edge">
<title>Node2&#45;&gt;Node1</title>
<path fill="none" stroke="midnightblue" d="M364.34,-156.78C391.32,-149.5 424.84,-139.61 454,-128.5 476.94,-119.76 502.25,-107.29 519.03,-98.61"/>
<polygon fill="midnightblue" stroke="midnightblue" points="363.11,-153.49 354.34,-159.44 364.91,-160.25 363.11,-153.49"/>
</g>
<!-- Node3 -->
<g id="node3" class="node">
<title>Node3</title>
<g id="a_node3"><a xlink:href="classMirai_1_1Serializable.html" target="_top" xlink:title="Base class for all json serializable type">
<polygon fill="none" stroke="black" points="19,-162.5 19,-182.5 133,-182.5 133,-162.5 19,-162.5"/>
<text text-anchor="middle" x="76" y="-169.7" font-family="-apple-system,BlinkMacSystemFont,'SegoeUI',Roboto,Oxygen,Ubuntu,Cantarell,'FiraSans','DroidSans','HelveticaNeue',sans-serif" font-size="11.00">Mirai::Serializable</text>
</a>
</g>
</g>
<!-- Node3&#45;&gt;Node2 -->
<g id="edge2" class="edge">
<title>Node3&#45;&gt;Node2</title>
<path fill="none" stroke="midnightblue" d="M143.21,-171.65C176.31,-171.23 216.16,-170.72 248.77,-170.3"/>
<polygon fill="midnightblue" stroke="midnightblue" points="143.12,-168.15 133.17,-171.78 143.21,-175.15 143.12,-168.15"/>
</g>
<!-- Node4 -->
<g id="node4" class="node">
<title>Node4</title>
<g id="a_node4"><a xlink:href="classMirai_1_1MessageChain.html" target="_top" xlink:title="消息链对象，由一系列消息元素组成">
<polygon fill="none" stroke="black" points="247,-117.5 247,-137.5 378,-137.5 378,-117.5 247,-117.5"/>
<text text-anchor="middle" x="312.5" y="-124.7" font-family="-apple-system,BlinkMacSystemFont,'SegoeUI',Roboto,Oxygen,Ubuntu,Cantarell,'FiraSans','DroidSans','HelveticaNeue',sans-serif" font-size="11.00">Mirai::MessageChain</text>
</a>
</g>
</g>
<!-- Node4&#45;&gt;Node1 -->
<g id="edge3" class="edge">
<title>Node4&#45;&gt;Node1</title>
<path fill="none" stroke="#9a32cd" stroke-dasharray="5,2" d="M382.56,-115.81C405.32,-111.93 430.75,-107.56 454,-103.5 463.05,-101.92 472.64,-100.22 481.98,-98.56"/>
<polygon fill="#9a32cd" stroke="#9a32cd" points="381.92,-112.37 372.65,-117.5 383.1,-119.27 381.92,-112.37"/>
<text text-anchor="middle" x="425" y="-115.7" font-family="-apple-system,BlinkMacSystemFont,'SegoeUI',Roboto,Oxygen,Ubuntu,Cantarell,'FiraSans','DroidSans','HelveticaNeue',sans-serif" font-size="11.00"> _origin</text>
</g>
<!-- Node5 -->
<g id="node5" class="node">
<title>Node5</title>
<g id="a_node5"><a xlink:title=" ">
<polygon fill="none" stroke="#bfbfbf" points="0,-111.5 0,-143.5 152,-143.5 152,-111.5 0,-111.5"/>
<text text-anchor="start" x="8" y="-130.7" font-family="-apple-system,BlinkMacSystemFont,'SegoeUI',Roboto,Oxygen,Ubuntu,Cantarell,'FiraSans','DroidSans','HelveticaNeue',sans-serif" font-size="11.00">std::vector&lt; std::unique</text>
<text text-anchor="middle" x="76" y="-118.7" font-family="-apple-system,BlinkMacSystemFont,'SegoeUI',Roboto,Oxygen,Ubuntu,Cantarell,'FiraSans','DroidSans','HelveticaNeue',sans-serif" font-size="11.00">_ptr&lt; MessageBase &gt; &gt;</text>
</a>
</g>
</g>
<!-- Node5&#45;&gt;Node4 -->
<g id="edge4" class="edge">
<title>Node5&#45;&gt;Node4</title>
<path fill="none" stroke="#9a32cd" stroke-dasharray="5,2" d="M162.29,-127.5C190.11,-127.5 220.54,-127.5 246.62,-127.5"/>
<polygon fill="#9a32cd" stroke="#9a32cd" points="162.16,-124 152.16,-127.5 162.16,-131 162.16,-124"/>
<text text-anchor="middle" x="199.5" y="-130.7" font-family="-apple-system,BlinkMacSystemFont,'SegoeUI',Roboto,Oxygen,Ubuntu,Cantarell,'FiraSans','DroidSans','HelveticaNeue',sans-serif" font-size="11.00"> _message</text>
</g>
<!-- Node7 -->
<g id="node6" class="node">
<title>Node7</title>
<g id="a_node6"><a xlink:title="STL class">
<polygon fill="none" stroke="#bfbfbf" points="260.5,-78.5 260.5,-98.5 364.5,-98.5 364.5,-78.5 260.5,-78.5"/>
<text text-anchor="middle" x="312.5" y="-85.7" font-family="-apple-system,BlinkMacSystemFont,'SegoeUI',Roboto,Oxygen,Ubuntu,Cantarell,'FiraSans','DroidSans','HelveticaNeue',sans-serif" font-size="11.00">std::string_view</text>
</a>
</g>
</g>
<!-- Node7&#45;&gt;Node1 -->
<g id="edge5" class="edge">
<title>Node7&#45;&gt;Node1</title>
<path fill="none" stroke="#9a32cd" stroke-dasharray="5,2" d="M375.05,-88.5C405.01,-88.5 441.07,-88.5 471.65,-88.5"/>
<polygon fill="#9a32cd" stroke="#9a32cd" points="374.72,-85 364.72,-88.5 374.72,-92 374.72,-85"/>
<text text-anchor="middle" x="425" y="-91.7" font-family="-apple-system,BlinkMacSystemFont,'SegoeUI',Roboto,Oxygen,Ubuntu,Cantarell,'FiraSans','DroidSans','HelveticaNeue',sans-serif" font-size="11.00"> _TYPE_</text>
</g>
<!-- Node8 -->
<g id="node7" class="node">
<title>Node8</title>
<g id="a_node7"><a xlink:title="STL class">
<polygon fill="none" stroke="#bfbfbf" points="7.5,-60.5 7.5,-92.5 144.5,-92.5 144.5,-60.5 7.5,-60.5"/>
<text text-anchor="start" x="15.5" y="-79.7" font-family="-apple-system,BlinkMacSystemFont,'SegoeUI',Roboto,Oxygen,Ubuntu,Cantarell,'FiraSans','DroidSans','HelveticaNeue',sans-serif" font-size="11.00">std::basic_string_view</text>
<text text-anchor="middle" x="76" y="-67.7" font-family="-apple-system,BlinkMacSystemFont,'SegoeUI',Roboto,Oxygen,Ubuntu,Cantarell,'FiraSans','DroidSans','HelveticaNeue',sans-serif" font-size="11.00">&lt; char &gt;</text>
</a>
</g>
</g>
<!-- Node8&#45;&gt;Node7 -->
<g id="edge6" class="edge">
<title>Node8&#45;&gt;Node7</title>
<path fill="none" stroke="midnightblue" d="M154.65,-80.47C189.45,-82.25 229.53,-84.31 260.46,-85.89"/>
<polygon fill="midnightblue" stroke="midnightblue" points="154.68,-76.97 144.51,-79.95 154.32,-83.96 154.68,-76.97"/>
</g>
<!-- Node9 -->
<g id="node8" class="node">
<title>Node9</title>
<g id="a_node8"><a xlink:href="classMirai_1_1QQ__t.html" target="_top" xlink:title="QQ号码类型">
<polygon fill="none" stroke="black" points="273,-39.5 273,-59.5 352,-59.5 352,-39.5 273,-39.5"/>
<text text-anchor="middle" x="312.5" y="-46.7" font-family="-apple-system,BlinkMacSystemFont,'SegoeUI',Roboto,Oxygen,Ubuntu,Cantarell,'FiraSans','DroidSans','HelveticaNeue',sans-serif" font-size="11.00">Mirai::QQ_t</text>
</a>
</g>
</g>
<!-- Node9&#45;&gt;Node1 -->
<g id="edge7" class="edge">
<title>Node9&#45;&gt;Node1</title>
<path fill="none" stroke="#9a32cd" stroke-dasharray="5,2" d="M362.01,-57.12C389.11,-61.46 423.46,-67.09 454,-72.5 464.53,-74.36 475.77,-76.44 486.51,-78.47"/>
<polygon fill="#9a32cd" stroke="#9a32cd" points="362.44,-53.65 352.01,-55.53 361.33,-60.56 362.44,-53.65"/>
<text text-anchor="middle" x="425" y="-75.7" font-family="-apple-system,BlinkMacSystemFont,'SegoeUI',Roboto,Oxygen,Ubuntu,Cantarell,'FiraSans','DroidSans','HelveticaNeue',sans-serif" font-size="11.00"> _SenderId</text>
</g>
<!-- Node10 -->
<g id="node9" class="node">
<title>Node10</title>
<g id="a_node9"><a xlink:href="classMirai_1_1UID__t.html" target="_top" xlink:title="Base class for QQ_t and GID_t">
<polygon fill="none" stroke="black" points="36,-14.5 36,-34.5 116,-34.5 116,-14.5 36,-14.5"/>
<text text-anchor="middle" x="76" y="-21.7" font-family="-apple-system,BlinkMacSystemFont,'SegoeUI',Roboto,Oxygen,Ubuntu,Cantarell,'FiraSans','DroidSans','HelveticaNeue',sans-serif" font-size="11.00">Mirai::UID_t</text>
</a>
</g>
</g>
<!-- Node10&#45;&gt;Node9 -->
<g id="edge8" class="edge">
<title>Node10&#45;&gt;Node9</title>
<path fill="none" stroke="midnightblue" d="M126.36,-29.76C170.02,-34.42 232.83,-41.11 272.9,-45.39"/>
<polygon fill="midnightblue" stroke="midnightblue" points="126.56,-26.26 116.25,-28.68 125.82,-33.22 126.56,-26.26"/>
</g>
<!-- Node11 -->
<g id="node10" class="node">
<title>Node11</title>
<g id="a_node10"><a xlink:href="classMirai_1_1GID__t.html" target="_top" xlink:title="群聊号码类型">
<polygon fill="none" stroke="black" points="272.5,-0.5 272.5,-20.5 352.5,-20.5 352.5,-0.5 272.5,-0.5"/>
<text text-anchor="middle" x="312.5" y="-7.7" font-family="-apple-system,BlinkMacSystemFont,'SegoeUI',Roboto,Oxygen,Ubuntu,Cantarell,'FiraSans','DroidSans','HelveticaNeue',sans-serif" font-size="11.00">Mirai::GID_t</text>
</a>
</g>
</g>
<!-- Node10&#45;&gt;Node11 -->
<g id="edge10" class="edge">
<title>Node10&#45;&gt;Node11</title>
<path fill="none" stroke="midnightblue" d="M126.3,-21.56C169.67,-18.97 232,-15.25 272.12,-12.85"/>
<polygon fill="midnightblue" stroke="midnightblue" points="126.02,-18.07 116.25,-22.16 126.44,-25.05 126.02,-18.07"/>
</g>
<!-- Node11&#45;&gt;Node1 -->
<g id="edge9" class="edge">
<title>Node11&#45;&gt;Node1</title>
<path fill="none" stroke="#9a32cd" stroke-dasharray="5,2" d="M362.75,-20.42C390.07,-26.59 424.4,-35.45 454,-46.5 477.83,-55.39 503.81,-69.04 520.47,-78.35"/>
<polygon fill="#9a32cd" stroke="#9a32cd" points="363.16,-16.92 352.64,-18.19 361.65,-23.76 363.16,-16.92"/>
<text text-anchor="middle" x="425" y="-49.7" font-family="-apple-system,BlinkMacSystemFont,'SegoeUI',Roboto,Oxygen,Ubuntu,Cantarell,'FiraSans','DroidSans','HelveticaNeue',sans-serif" font-size="11.00"> _GroupId</text>
</g>
</g>
</svg>
