<?xml version="1.0" encoding="UTF-8" standalone="no"?>
<!DOCTYPE svg PUBLIC "-//W3C//DTD SVG 1.1//EN"
 "http://www.w3.org/Graphics/SVG/1.1/DTD/svg11.dtd">
<!-- Generated by graphviz version 2.43.0 (0)
 -->
<!-- Title: Mirai::FriendNickChangedEvent Pages: 1 -->
<svg width="360pt" height="284pt"
 viewBox="0.00 0.00 359.82 284.00" xmlns="http://www.w3.org/2000/svg" xmlns:xlink="http://www.w3.org/1999/xlink">
<g id="graph0" class="graph" transform="scale(1 1) rotate(0) translate(4 280)">
<title>Mirai::FriendNickChangedEvent</title>
<!-- Node1 -->
<g id="node1" class="node">
<title>Node1</title>
<g id="a_node1"><a xlink:title="好友昵称改变事件">
<polygon fill="#bfbfbf" stroke="black" points="71.82,-0.5 71.82,-32.5 226.82,-32.5 226.82,-0.5 71.82,-0.5"/>
<text text-anchor="start" x="79.82" y="-19.7" font-family="-apple-system,BlinkMacSystemFont,'SegoeUI',Roboto,Oxygen,Ubuntu,Cantarell,'FiraSans','DroidSans','HelveticaNeue',sans-serif" font-size="11.00">Mirai::FriendNickChanged</text>
<text text-anchor="middle" x="149.32" y="-7.7" font-family="-apple-system,BlinkMacSystemFont,'SegoeUI',Roboto,Oxygen,Ubuntu,Cantarell,'FiraSans','DroidSans','HelveticaNeue',sans-serif" font-size="11.00">Event</text>
</a>
</g>
</g>
<!-- Node2 -->
<g id="node2" class="node">
<title>Node2</title>
<g id="a_node2"><a xlink:href="classMirai_1_1EventBase.html" target="_top" xlink:title="Base class for all event types">
<polygon fill="none" stroke="black" points="26.32,-81.5 26.32,-101.5 136.32,-101.5 136.32,-81.5 26.32,-81.5"/>
<text text-anchor="middle" x="81.32" y="-88.7" font-family="-apple-system,BlinkMacSystemFont,'SegoeUI',Roboto,Oxygen,Ubuntu,Cantarell,'FiraSans','DroidSans','HelveticaNeue',sans-serif" font-size="11.00">Mirai::EventBase</text>
</a>
</g>
</g>
<!-- Node2&#45;&gt;Node1 -->
<g id="edge1" class="edge">
<title>Node2&#45;&gt;Node1</title>
<path fill="none" stroke="midnightblue" d="M96.82,-73.86C108.33,-61.5 123.9,-44.78 135.09,-32.77"/>
<polygon fill="midnightblue" stroke="midnightblue" points="94.18,-71.55 89.93,-81.25 99.31,-76.32 94.18,-71.55"/>
</g>
<!-- Node3 -->
<g id="node3" class="node">
<title>Node3</title>
<g id="a_node3"><a xlink:href="classMirai_1_1MiraiClient.html" target="_top" xlink:title="提供与mirai&#45;api&#45;http网络交互的封装">
<polygon fill="none" stroke="red" points="26.32,-168.5 26.32,-188.5 136.32,-188.5 136.32,-168.5 26.32,-168.5"/>
<text text-anchor="middle" x="81.32" y="-175.7" font-family="-apple-system,BlinkMacSystemFont,'SegoeUI',Roboto,Oxygen,Ubuntu,Cantarell,'FiraSans','DroidSans','HelveticaNeue',sans-serif" font-size="11.00">Mirai::MiraiClient</text>
</a>
</g>
</g>
<!-- Node3&#45;&gt;Node2 -->
<g id="edge2" class="edge">
<title>Node3&#45;&gt;Node2</title>
<path fill="none" stroke="#9a32cd" stroke-dasharray="5,2" d="M81.32,-158.32C81.32,-140.57 81.32,-114.98 81.32,-101.53"/>
<polygon fill="#9a32cd" stroke="#9a32cd" points="77.82,-158.4 81.32,-168.4 84.82,-158.4 77.82,-158.4"/>
<text text-anchor="middle" x="101.32" y="-129.2" font-family="-apple-system,BlinkMacSystemFont,'SegoeUI',Roboto,Oxygen,Ubuntu,Cantarell,'FiraSans','DroidSans','HelveticaNeue',sans-serif" font-size="11.00"> _client</text>
</g>
<!-- Node7 -->
<g id="node4" class="node">
<title>Node7</title>
<g id="a_node4"><a xlink:title="STL class">
<polygon fill="none" stroke="#bfbfbf" points="40.82,-255.5 40.82,-275.5 113.82,-275.5 113.82,-255.5 40.82,-255.5"/>
<text text-anchor="middle" x="77.32" y="-262.7" font-family="-apple-system,BlinkMacSystemFont,'SegoeUI',Roboto,Oxygen,Ubuntu,Cantarell,'FiraSans','DroidSans','HelveticaNeue',sans-serif" font-size="11.00">std::string</text>
</a>
</g>
</g>
<!-- Node7&#45;&gt;Node1 -->
<g id="edge6" class="edge">
<title>Node7&#45;&gt;Node1</title>
<path fill="none" stroke="#9a32cd" stroke-dasharray="5,2" d="M57.69,-248.75C43.46,-235.98 25.35,-216.61 17.32,-195 -0.35,-147.51 -9.65,-123.9 17.32,-81 32.34,-57.1 59.15,-41.99 84.7,-32.54"/>
<polygon fill="#9a32cd" stroke="#9a32cd" points="55.65,-251.61 65.52,-255.47 60.21,-246.3 55.65,-251.61"/>
<text text-anchor="middle" x="19.82" y="-135.2" font-family="-apple-system,BlinkMacSystemFont,'SegoeUI',Roboto,Oxygen,Ubuntu,Cantarell,'FiraSans','DroidSans','HelveticaNeue',sans-serif" font-size="11.00"> _from</text>
<text text-anchor="middle" x="19.82" y="-123.2" font-family="-apple-system,BlinkMacSystemFont,'SegoeUI',Roboto,Oxygen,Ubuntu,Cantarell,'FiraSans','DroidSans','HelveticaNeue',sans-serif" font-size="11.00">_to</text>
</g>
<!-- Node7&#45;&gt;Node3 -->
<g id="edge3" class="edge">
<title>Node7&#45;&gt;Node3</title>
<path fill="none" stroke="#9a32cd" stroke-dasharray="5,2" d="M77.37,-245.24C77.48,-235.56 77.74,-223.65 78.32,-213 78.77,-204.72 79.64,-195.32 80.33,-188.59"/>
<polygon fill="#9a32cd" stroke="#9a32cd" points="73.87,-245.35 77.3,-255.38 80.87,-245.4 73.87,-245.35"/>
<text text-anchor="middle" x="114.32" y="-222.2" font-family="-apple-system,BlinkMacSystemFont,'SegoeUI',Roboto,Oxygen,Ubuntu,Cantarell,'FiraSans','DroidSans','HelveticaNeue',sans-serif" font-size="11.00"> _SessionKey</text>
</g>
<!-- Node11 -->
<g id="node7" class="node">
<title>Node11</title>
<g id="a_node7"><a xlink:href="structMirai_1_1User.html" target="_top" xlink:title="QQ用户">
<polygon fill="none" stroke="red" points="133.82,-122 133.82,-142 210.82,-142 210.82,-122 133.82,-122"/>
<text text-anchor="middle" x="172.32" y="-129.2" font-family="-apple-system,BlinkMacSystemFont,'SegoeUI',Roboto,Oxygen,Ubuntu,Cantarell,'FiraSans','DroidSans','HelveticaNeue',sans-serif" font-size="11.00">Mirai::User</text>
</a>
</g>
</g>
<!-- Node7&#45;&gt;Node11 -->
<g id="edge8" class="edge">
<title>Node7&#45;&gt;Node11</title>
<path fill="none" stroke="#9a32cd" stroke-dasharray="5,2" d="M123.54,-254.97C133.59,-250.93 143.3,-245.18 150.32,-237 174.24,-209.14 174.26,-161.75 173.09,-142.03"/>
<polygon fill="#9a32cd" stroke="#9a32cd" points="122.17,-251.74 113.88,-258.34 124.47,-258.35 122.17,-251.74"/>
<text text-anchor="middle" x="190.82" y="-228.2" font-family="-apple-system,BlinkMacSystemFont,'SegoeUI',Roboto,Oxygen,Ubuntu,Cantarell,'FiraSans','DroidSans','HelveticaNeue',sans-serif" font-size="11.00"> remark</text>
<text text-anchor="middle" x="190.82" y="-216.2" font-family="-apple-system,BlinkMacSystemFont,'SegoeUI',Roboto,Oxygen,Ubuntu,Cantarell,'FiraSans','DroidSans','HelveticaNeue',sans-serif" font-size="11.00">nickname</text>
</g>
<!-- Node18 -->
<g id="node5" class="node">
<title>Node18</title>
<g id="a_node5"><a xlink:title="STL class">
<polygon fill="none" stroke="#bfbfbf" points="231.32,-81.5 231.32,-101.5 335.32,-101.5 335.32,-81.5 231.32,-81.5"/>
<text text-anchor="middle" x="283.32" y="-88.7" font-family="-apple-system,BlinkMacSystemFont,'SegoeUI',Roboto,Oxygen,Ubuntu,Cantarell,'FiraSans','DroidSans','HelveticaNeue',sans-serif" font-size="11.00">std::string_view</text>
</a>
</g>
</g>
<!-- Node18&#45;&gt;Node1 -->
<g id="edge4" class="edge">
<title>Node18&#45;&gt;Node1</title>
<path fill="none" stroke="#9a32cd" stroke-dasharray="5,2" d="M257.73,-76.56C234.62,-63.97 200.69,-45.49 176.96,-32.56"/>
<polygon fill="#9a32cd" stroke="#9a32cd" points="256.16,-79.69 266.62,-81.4 259.51,-73.54 256.16,-79.69"/>
<text text-anchor="middle" x="253.32" y="-54.2" font-family="-apple-system,BlinkMacSystemFont,'SegoeUI',Roboto,Oxygen,Ubuntu,Cantarell,'FiraSans','DroidSans','HelveticaNeue',sans-serif" font-size="11.00"> _TYPE_</text>
</g>
<!-- Node19 -->
<g id="node6" class="node">
<title>Node19</title>
<g id="a_node6"><a xlink:title="STL class">
<polygon fill="none" stroke="#bfbfbf" points="214.82,-162.5 214.82,-194.5 351.82,-194.5 351.82,-162.5 214.82,-162.5"/>
<text text-anchor="start" x="222.82" y="-181.7" font-family="-apple-system,BlinkMacSystemFont,'SegoeUI',Roboto,Oxygen,Ubuntu,Cantarell,'FiraSans','DroidSans','HelveticaNeue',sans-serif" font-size="11.00">std::basic_string_view</text>
<text text-anchor="middle" x="283.32" y="-169.7" font-family="-apple-system,BlinkMacSystemFont,'SegoeUI',Roboto,Oxygen,Ubuntu,Cantarell,'FiraSans','DroidSans','HelveticaNeue',sans-serif" font-size="11.00">&lt; char &gt;</text>
</a>
</g>
</g>
<!-- Node19&#45;&gt;Node18 -->
<g id="edge5" class="edge">
<title>Node19&#45;&gt;Node18</title>
<path fill="none" stroke="midnightblue" d="M283.32,-151.93C283.32,-134.98 283.32,-113.74 283.32,-101.79"/>
<polygon fill="midnightblue" stroke="midnightblue" points="279.82,-152.3 283.32,-162.3 286.82,-152.3 279.82,-152.3"/>
</g>
<!-- Node11&#45;&gt;Node1 -->
<g id="edge7" class="edge">
<title>Node11&#45;&gt;Node1</title>
<path fill="none" stroke="#9a32cd" stroke-dasharray="5,2" d="M168.41,-111.73C163.88,-89.37 156.51,-52.98 152.37,-32.58"/>
<polygon fill="#9a32cd" stroke="#9a32cd" points="165.02,-112.61 170.43,-121.71 171.88,-111.22 165.02,-112.61"/>
<text text-anchor="middle" x="186.82" y="-88.7" font-family="-apple-system,BlinkMacSystemFont,'SegoeUI',Roboto,Oxygen,Ubuntu,Cantarell,'FiraSans','DroidSans','HelveticaNeue',sans-serif" font-size="11.00"> _friend</text>
</g>
</g>
</svg>
