<?xml version="1.0" encoding="UTF-8" standalone="no"?>
<!DOCTYPE svg PUBLIC "-//W3C//DTD SVG 1.1//EN"
 "http://www.w3.org/Graphics/SVG/1.1/DTD/svg11.dtd">
<!-- Generated by graphviz version 3.0.0 (20221109.1736)
 -->
<!-- Title: Mirai::QuoteMessage Pages: 1 -->
<svg width="507pt" height="170pt"
 viewBox="0.00 0.00 507.00 170.00" xmlns="http://www.w3.org/2000/svg" xmlns:xlink="http://www.w3.org/1999/xlink">
<g id="graph0" class="graph" transform="scale(1 1) rotate(0) translate(4 166)">
<title>Mirai::QuoteMessage</title>
<!-- Node1 -->
<g id="node1" class="node">
<title>Node1</title>
<g id="a_node1"><a xlink:title="引用回复消息">
<polygon fill="#bfbfbf" stroke="black" points="380,-70.5 380,-90.5 499,-90.5 499,-70.5 380,-70.5"/>
<text text-anchor="middle" x="439.5" y="-77.7" font-family="-apple-system, BlinkMacSystemFont, 'Segoe UI', Roboto, Oxygen, Ubuntu, Cantarell, 'Fira Sans', 'Droid Sans', 'Helvetica Neue', sans-serif" font-size="11.00">Mirai::QuoteMessage</text>
</a>
</g>
</g>
<!-- Node2 -->
<g id="node2" class="node">
<title>Node2</title>
<g id="a_node2"><a xlink:href="classMirai_1_1IMessageImpl.html" target="_top" xlink:title=" ">
<polygon fill="none" stroke="black" points="173,-129.5 173,-161.5 286,-161.5 286,-129.5 173,-129.5"/>
<text text-anchor="start" x="181" y="-148.7" font-family="-apple-system, BlinkMacSystemFont, 'Segoe UI', Roboto, Oxygen, Ubuntu, Cantarell, 'Fira Sans', 'Droid Sans', 'Helvetica Neue', sans-serif" font-size="11.00">Mirai::IMessageImpl</text>
<text text-anchor="middle" x="229.5" y="-136.7" font-family="-apple-system, BlinkMacSystemFont, 'Segoe UI', Roboto, Oxygen, Ubuntu, Cantarell, 'Fira Sans', 'Droid Sans', 'Helvetica Neue', sans-serif" font-size="11.00">&lt; QuoteMessage &gt;</text>
</a>
</g>
</g>
<!-- Node2&#45;&gt;Node1 -->
<g id="edge1" class="edge">
<title>Node2&#45;&gt;Node1</title>
<path fill="none" stroke="midnightblue" d="M295.99,-128.14C317.16,-122.24 340.67,-115.39 362,-108.5 378.96,-103.02 397.75,-96.15 412.47,-90.59"/>
<polygon fill="midnightblue" stroke="midnightblue" points="294.83,-124.83 286.13,-130.86 296.7,-131.57 294.83,-124.83"/>
</g>
<!-- Node3 -->
<g id="node3" class="node">
<title>Node3</title>
<g id="a_node3"><a xlink:href="classMirai_1_1IMessage.html" target="_top" xlink:title="Common interface for all message types">
<polygon fill="none" stroke="black" points="12.5,-135.5 12.5,-155.5 104.5,-155.5 104.5,-135.5 12.5,-135.5"/>
<text text-anchor="middle" x="58.5" y="-142.7" font-family="-apple-system, BlinkMacSystemFont, 'Segoe UI', Roboto, Oxygen, Ubuntu, Cantarell, 'Fira Sans', 'Droid Sans', 'Helvetica Neue', sans-serif" font-size="11.00">Mirai::IMessage</text>
</a>
</g>
</g>
<!-- Node3&#45;&gt;Node2 -->
<g id="edge2" class="edge">
<title>Node3&#45;&gt;Node2</title>
<path fill="none" stroke="midnightblue" d="M114.87,-145.5C133.47,-145.5 154.2,-145.5 172.82,-145.5"/>
<polygon fill="midnightblue" stroke="midnightblue" points="114.79,-142 104.79,-145.5 114.79,-149 114.79,-142"/>
</g>
<!-- Node4 -->
<g id="node4" class="node">
<title>Node4</title>
<g id="a_node4"><a xlink:href="classMirai_1_1GID__t.html" target="_top" xlink:title="群聊号码类型">
<polygon fill="none" stroke="black" points="192.5,-90.5 192.5,-110.5 266.5,-110.5 266.5,-90.5 192.5,-90.5"/>
<text text-anchor="middle" x="229.5" y="-97.7" font-family="-apple-system, BlinkMacSystemFont, 'Segoe UI', Roboto, Oxygen, Ubuntu, Cantarell, 'Fira Sans', 'Droid Sans', 'Helvetica Neue', sans-serif" font-size="11.00">Mirai::GID_t</text>
</a>
</g>
</g>
<!-- Node4&#45;&gt;Node1 -->
<g id="edge3" class="edge">
<title>Node4&#45;&gt;Node1</title>
<path fill="none" stroke="#9a32cd" stroke-dasharray="5,2" d="M277.05,-96.02C307.44,-93.1 347.36,-89.26 379.9,-86.13"/>
<polygon fill="#9a32cd" stroke="#9a32cd" points="276.35,-92.58 266.73,-97.02 277.02,-99.54 276.35,-92.58"/>
<text text-anchor="middle" x="335" y="-95.7" font-family="-apple-system, BlinkMacSystemFont, 'Segoe UI', Roboto, Oxygen, Ubuntu, Cantarell, 'Fira Sans', 'Droid Sans', 'Helvetica Neue', sans-serif" font-size="11.00"> GroupId_</text>
</g>
<!-- Node5 -->
<g id="node5" class="node">
<title>Node5</title>
<g id="a_node5"><a xlink:href="classMirai_1_1UID__t.html" target="_top" xlink:title="Base class for QQ_t and GID_t">
<polygon fill="none" stroke="black" points="21.5,-69.5 21.5,-89.5 95.5,-89.5 95.5,-69.5 21.5,-69.5"/>
<text text-anchor="middle" x="58.5" y="-76.7" font-family="-apple-system, BlinkMacSystemFont, 'Segoe UI', Roboto, Oxygen, Ubuntu, Cantarell, 'Fira Sans', 'Droid Sans', 'Helvetica Neue', sans-serif" font-size="11.00">Mirai::UID_t</text>
</a>
</g>
</g>
<!-- Node5&#45;&gt;Node4 -->
<g id="edge4" class="edge">
<title>Node5&#45;&gt;Node4</title>
<path fill="none" stroke="midnightblue" d="M105.84,-85.26C133.09,-88.64 167.03,-92.86 192.31,-96"/>
<polygon fill="midnightblue" stroke="midnightblue" points="106.11,-81.76 95.75,-84.01 105.25,-88.71 106.11,-81.76"/>
</g>
<!-- Node6 -->
<g id="node6" class="node">
<title>Node6</title>
<g id="a_node6"><a xlink:href="classMirai_1_1QQ__t.html" target="_top" xlink:title="QQ号码类型">
<polygon fill="none" stroke="black" points="194,-51.5 194,-71.5 265,-71.5 265,-51.5 194,-51.5"/>
<text text-anchor="middle" x="229.5" y="-58.7" font-family="-apple-system, BlinkMacSystemFont, 'Segoe UI', Roboto, Oxygen, Ubuntu, Cantarell, 'Fira Sans', 'Droid Sans', 'Helvetica Neue', sans-serif" font-size="11.00">Mirai::QQ_t</text>
</a>
</g>
</g>
<!-- Node5&#45;&gt;Node6 -->
<g id="edge6" class="edge">
<title>Node5&#45;&gt;Node6</title>
<path fill="none" stroke="midnightblue" d="M106.02,-74.55C133.76,-71.59 168.39,-67.9 193.75,-65.2"/>
<polygon fill="midnightblue" stroke="midnightblue" points="105.33,-71.1 95.75,-75.64 106.07,-78.06 105.33,-71.1"/>
</g>
<!-- Node6&#45;&gt;Node1 -->
<g id="edge5" class="edge">
<title>Node6&#45;&gt;Node1</title>
<path fill="none" stroke="#9a32cd" stroke-dasharray="5,2" d="M275.33,-61.06C300.81,-61.25 333.27,-62.27 362,-65.5 372.36,-66.66 383.4,-68.49 393.79,-70.46"/>
<polygon fill="#9a32cd" stroke="#9a32cd" points="275.23,-57.56 265.22,-61.02 275.2,-64.56 275.23,-57.56"/>
<text text-anchor="middle" x="335" y="-68.7" font-family="-apple-system, BlinkMacSystemFont, 'Segoe UI', Roboto, Oxygen, Ubuntu, Cantarell, 'Fira Sans', 'Droid Sans', 'Helvetica Neue', sans-serif" font-size="11.00"> SenderId_</text>
</g>
<!-- Node7 -->
<g id="node7" class="node">
<title>Node7</title>
<g id="a_node7"><a xlink:title=" ">
<polygon fill="none" stroke="black" points="169,-0.5 169,-32.5 290,-32.5 290,-0.5 169,-0.5"/>
<text text-anchor="start" x="177" y="-19.7" font-family="-apple-system, BlinkMacSystemFont, 'Segoe UI', Roboto, Oxygen, Ubuntu, Cantarell, 'Fira Sans', 'Droid Sans', 'Helvetica Neue', sans-serif" font-size="11.00">std::unique_ptr&lt; Mirai</text>
<text text-anchor="middle" x="229.5" y="-7.7" font-family="-apple-system, BlinkMacSystemFont, 'Segoe UI', Roboto, Oxygen, Ubuntu, Cantarell, 'Fira Sans', 'Droid Sans', 'Helvetica Neue', sans-serif" font-size="11.00">::MessageChain &gt;</text>
</a>
</g>
</g>
<!-- Node7&#45;&gt;Node1 -->
<g id="edge7" class="edge">
<title>Node7&#45;&gt;Node1</title>
<path fill="none" stroke="#9a32cd" stroke-dasharray="5,2" d="M299.93,-28.93C320.18,-33.33 342.19,-38.87 362,-45.5 382.22,-52.27 404.26,-62.7 419.47,-70.42"/>
<polygon fill="#9a32cd" stroke="#9a32cd" points="300.65,-25.51 290.14,-26.87 299.2,-32.36 300.65,-25.51"/>
<text text-anchor="middle" x="335" y="-48.7" font-family="-apple-system, BlinkMacSystemFont, 'Segoe UI', Roboto, Oxygen, Ubuntu, Cantarell, 'Fira Sans', 'Droid Sans', 'Helvetica Neue', sans-serif" font-size="11.00"> origin_</text>
</g>
<!-- Node8 -->
<g id="node8" class="node">
<title>Node8</title>
<g id="a_node8"><a xlink:href="classMirai_1_1MessageChain.html" target="_top" xlink:title="消息链对象，由一系列消息元素组成">
<polygon fill="none" stroke="red" points="0,-6.5 0,-26.5 117,-26.5 117,-6.5 0,-6.5"/>
<text text-anchor="middle" x="58.5" y="-13.7" font-family="-apple-system, BlinkMacSystemFont, 'Segoe UI', Roboto, Oxygen, Ubuntu, Cantarell, 'Fira Sans', 'Droid Sans', 'Helvetica Neue', sans-serif" font-size="11.00">Mirai::MessageChain</text>
</a>
</g>
</g>
<!-- Node8&#45;&gt;Node7 -->
<g id="edge8" class="edge">
<title>Node8&#45;&gt;Node7</title>
<path fill="none" stroke="#9a32cd" stroke-dasharray="5,2" d="M127.49,-16.5C141.15,-16.5 155.42,-16.5 168.77,-16.5"/>
<polygon fill="#9a32cd" stroke="#9a32cd" points="127.19,-13 117.19,-16.5 127.19,-20 127.19,-13"/>
<text text-anchor="middle" x="143" y="-19.7" font-family="-apple-system, BlinkMacSystemFont, 'Segoe UI', Roboto, Oxygen, Ubuntu, Cantarell, 'Fira Sans', 'Droid Sans', 'Helvetica Neue', sans-serif" font-size="11.00"> ptr</text>
</g>
</g>
</svg>
