<?xml version="1.0" encoding="UTF-8" standalone="no"?>
<!DOCTYPE svg PUBLIC "-//W3C//DTD SVG 1.1//EN"
 "http://www.w3.org/Graphics/SVG/1.1/DTD/svg11.dtd">
<!-- Generated by graphviz version 3.0.0 (20221109.1736)
 -->
<!-- Title: Mirai::ImageMessage Pages: 1 -->
<svg width="238pt" height="180pt"
 viewBox="0.00 0.00 238.00 180.00" xmlns="http://www.w3.org/2000/svg" xmlns:xlink="http://www.w3.org/1999/xlink">
<g id="graph0" class="graph" transform="scale(1 1) rotate(0) translate(4 176)">
<title>Mirai::ImageMessage</title>
<!-- Node1 -->
<g id="node1" class="node">
<title>Node1</title>
<g id="a_node1"><a xlink:title="图片消息">
<polygon fill="#bfbfbf" stroke="black" points="59,-0.5 59,-20.5 178,-20.5 178,-0.5 59,-0.5"/>
<text text-anchor="middle" x="118.5" y="-7.7" font-family="-apple-system, BlinkMacSystemFont, 'Segoe UI', Roboto, Oxygen, Ubuntu, Cantarell, 'Fira Sans', 'Droid Sans', 'Helvetica Neue', sans-serif" font-size="11.00">Mirai::ImageMessage</text>
</a>
</g>
</g>
<!-- Node2 -->
<g id="node2" class="node">
<title>Node2</title>
<g id="a_node2"><a xlink:href="classMirai_1_1ImageMessageImpl.html" target="_top" xlink:title=" ">
<polygon fill="none" stroke="black" points="48.5,-58.5 48.5,-90.5 188.5,-90.5 188.5,-58.5 48.5,-58.5"/>
<text text-anchor="start" x="56.5" y="-77.7" font-family="-apple-system, BlinkMacSystemFont, 'Segoe UI', Roboto, Oxygen, Ubuntu, Cantarell, 'Fira Sans', 'Droid Sans', 'Helvetica Neue', sans-serif" font-size="11.00">Mirai::ImageMessageImpl</text>
<text text-anchor="middle" x="118.5" y="-65.7" font-family="-apple-system, BlinkMacSystemFont, 'Segoe UI', Roboto, Oxygen, Ubuntu, Cantarell, 'Fira Sans', 'Droid Sans', 'Helvetica Neue', sans-serif" font-size="11.00">&lt; ImageMessage &gt;</text>
</a>
</g>
</g>
<!-- Node2&#45;&gt;Node1 -->
<g id="edge1" class="edge">
<title>Node2&#45;&gt;Node1</title>
<path fill="none" stroke="midnightblue" d="M118.5,-48.42C118.5,-38.67 118.5,-28.11 118.5,-20.79"/>
<polygon fill="midnightblue" stroke="midnightblue" points="115,-48.49 118.5,-58.49 122,-48.49 115,-48.49"/>
</g>
<!-- Node3 -->
<g id="node3" class="node">
<title>Node3</title>
<g id="a_node3"><a xlink:href="classMirai_1_1IMessageImpl.html" target="_top" xlink:title=" ">
<polygon fill="none" stroke="red" points="0,-139.5 0,-171.5 113,-171.5 113,-139.5 0,-139.5"/>
<text text-anchor="start" x="8" y="-158.7" font-family="-apple-system, BlinkMacSystemFont, 'Segoe UI', Roboto, Oxygen, Ubuntu, Cantarell, 'Fira Sans', 'Droid Sans', 'Helvetica Neue', sans-serif" font-size="11.00">Mirai::IMessageImpl</text>
<text text-anchor="middle" x="56.5" y="-146.7" font-family="-apple-system, BlinkMacSystemFont, 'Segoe UI', Roboto, Oxygen, Ubuntu, Cantarell, 'Fira Sans', 'Droid Sans', 'Helvetica Neue', sans-serif" font-size="11.00">&lt; ImageMessage &gt;</text>
</a>
</g>
</g>
<!-- Node3&#45;&gt;Node2 -->
<g id="edge2" class="edge">
<title>Node3&#45;&gt;Node2</title>
<path fill="none" stroke="midnightblue" d="M74.82,-131.16C85.08,-118.08 97.59,-102.15 106.58,-90.69"/>
<polygon fill="midnightblue" stroke="midnightblue" points="71.87,-129.24 68.45,-139.27 77.38,-133.56 71.87,-129.24"/>
</g>
<!-- Node5 -->
<g id="node4" class="node">
<title>Node5</title>
<g id="a_node4"><a xlink:href="structMirai_1_1MiraiImage.html" target="_top" xlink:title="Mirai图片">
<polygon fill="none" stroke="red" points="131,-145.5 131,-165.5 230,-165.5 230,-145.5 131,-145.5"/>
<text text-anchor="middle" x="180.5" y="-152.7" font-family="-apple-system, BlinkMacSystemFont, 'Segoe UI', Roboto, Oxygen, Ubuntu, Cantarell, 'Fira Sans', 'Droid Sans', 'Helvetica Neue', sans-serif" font-size="11.00">Mirai::MiraiImage</text>
</a>
</g>
</g>
<!-- Node5&#45;&gt;Node2 -->
<g id="edge3" class="edge">
<title>Node5&#45;&gt;Node2</title>
<path fill="none" stroke="#9a32cd" stroke-dasharray="5,2" d="M166.93,-137.2C156.01,-123.3 140.84,-103.96 130.4,-90.66"/>
<polygon fill="#9a32cd" stroke="#9a32cd" points="164.46,-139.73 173.39,-145.44 169.97,-135.41 164.46,-139.73"/>
<text text-anchor="middle" x="172" y="-112.2" font-family="-apple-system, BlinkMacSystemFont, 'Segoe UI', Roboto, Oxygen, Ubuntu, Cantarell, 'Fira Sans', 'Droid Sans', 'Helvetica Neue', sans-serif" font-size="11.00"> image_</text>
</g>
</g>
</svg>
