<?xml version="1.0" encoding="UTF-8" standalone="no"?>
<!DOCTYPE svg PUBLIC "-//W3C//DTD SVG 1.1//EN"
 "http://www.w3.org/Graphics/SVG/1.1/DTD/svg11.dtd">
<!-- Generated by graphviz version 2.43.0 (0)
 -->
<!-- Title: Mirai::NetworkException Pages: 1 -->
<svg width="158pt" height="143pt"
 viewBox="0.00 0.00 158.00 143.00" xmlns="http://www.w3.org/2000/svg" xmlns:xlink="http://www.w3.org/1999/xlink">
<g id="graph0" class="graph" transform="scale(1 1) rotate(0) translate(4 139)">
<title>Mirai::NetworkException</title>
<!-- Node1 -->
<g id="node1" class="node">
<title>Node1</title>
<g id="a_node1"><a xlink:title="网络通信错误">
<polygon fill="#bfbfbf" stroke="black" points="0,-0.5 0,-20.5 150,-20.5 150,-0.5 0,-0.5"/>
<text text-anchor="middle" x="75" y="-7.7" font-family="-apple-system,BlinkMacSystemFont,'SegoeUI',Roboto,Oxygen,Ubuntu,Cantarell,'FiraSans','DroidSans','HelveticaNeue',sans-serif" font-size="11.00">Mirai::NetworkException</text>
</a>
</g>
</g>
<!-- Node2 -->
<g id="node2" class="node">
<title>Node2</title>
<g id="a_node2"><a xlink:title="STL class">
<polygon fill="none" stroke="#bfbfbf" points="17,-57.5 17,-77.5 133,-77.5 133,-57.5 17,-57.5"/>
<text text-anchor="middle" x="75" y="-64.7" font-family="-apple-system,BlinkMacSystemFont,'SegoeUI',Roboto,Oxygen,Ubuntu,Cantarell,'FiraSans','DroidSans','HelveticaNeue',sans-serif" font-size="11.00">std::runtime_error</text>
</a>
</g>
</g>
<!-- Node2&#45;&gt;Node1 -->
<g id="edge1" class="edge">
<title>Node2&#45;&gt;Node1</title>
<path fill="none" stroke="midnightblue" d="M75,-47.38C75,-38.37 75,-28.04 75,-20.78"/>
<polygon fill="midnightblue" stroke="midnightblue" points="71.5,-47.42 75,-57.42 78.5,-47.42 71.5,-47.42"/>
</g>
<!-- Node3 -->
<g id="node3" class="node">
<title>Node3</title>
<g id="a_node3"><a xlink:title="STL class">
<polygon fill="none" stroke="#bfbfbf" points="27.5,-114.5 27.5,-134.5 122.5,-134.5 122.5,-114.5 27.5,-114.5"/>
<text text-anchor="middle" x="75" y="-121.7" font-family="-apple-system,BlinkMacSystemFont,'SegoeUI',Roboto,Oxygen,Ubuntu,Cantarell,'FiraSans','DroidSans','HelveticaNeue',sans-serif" font-size="11.00">std::exception</text>
</a>
</g>
</g>
<!-- Node3&#45;&gt;Node2 -->
<g id="edge2" class="edge">
<title>Node3&#45;&gt;Node2</title>
<path fill="none" stroke="midnightblue" d="M75,-104.38C75,-95.37 75,-85.04 75,-77.78"/>
<polygon fill="midnightblue" stroke="midnightblue" points="71.5,-104.42 75,-114.42 78.5,-104.42 71.5,-104.42"/>
</g>
</g>
</svg>
