<?xml version="1.0" encoding="UTF-8" standalone="no"?>
<!DOCTYPE svg PUBLIC "-//W3C//DTD SVG 1.1//EN"
 "http://www.w3.org/Graphics/SVG/1.1/DTD/svg11.dtd">
<!-- Generated by graphviz version 3.0.0 (20220413.0242)
 -->
<!-- Title: Mirai::BotMuted Pages: 1 -->
<svg width="160pt" height="143pt"
 viewBox="0.00 0.00 160.00 143.00" xmlns="http://www.w3.org/2000/svg" xmlns:xlink="http://www.w3.org/1999/xlink">
<g id="graph0" class="graph" transform="scale(1 1) rotate(0) translate(4 139)">
<title>Mirai::BotMuted</title>
<!-- Node1 -->
<g id="node1" class="node">
<title>Node1</title>
<g id="a_node1"><a xlink:title="MAH异常: Bot被禁言">
<polygon fill="#bfbfbf" stroke="black" points="30,-0.5 30,-20.5 122,-20.5 122,-0.5 30,-0.5"/>
<text text-anchor="middle" x="76" y="-7.7" font-family="-apple-system, BlinkMacSystemFont, 'Segoe UI', Roboto, Oxygen, Ubuntu, Cantarell, 'Fira Sans', 'Droid Sans', 'Helvetica Neue', sans-serif" font-size="11.00">Mirai::BotMuted</text>
</a>
</g>
</g>
<!-- Node2 -->
<g id="node2" class="node">
<title>Node2</title>
<g id="a_node2"><a xlink:href="classMirai_1_1MiraiApiHttpException.html" target="_top" xlink:title="mirai&#45;api&#45;http相关的异常">
<polygon fill="none" stroke="black" points="0,-57.5 0,-77.5 152,-77.5 152,-57.5 0,-57.5"/>
<text text-anchor="middle" x="76" y="-64.7" font-family="-apple-system, BlinkMacSystemFont, 'Segoe UI', Roboto, Oxygen, Ubuntu, Cantarell, 'Fira Sans', 'Droid Sans', 'Helvetica Neue', sans-serif" font-size="11.00">Mirai::MiraiApiHttpException</text>
</a>
</g>
</g>
<!-- Node2&#45;&gt;Node1 -->
<g id="edge1" class="edge">
<title>Node2&#45;&gt;Node1</title>
<path fill="none" stroke="midnightblue" d="M76,-47.38C76,-38.37 76,-28.04 76,-20.78"/>
<polygon fill="midnightblue" stroke="midnightblue" points="72.5,-47.42 76,-57.42 79.5,-47.42 72.5,-47.42"/>
</g>
<!-- Node3 -->
<g id="node3" class="node">
<title>Node3</title>
<g id="a_node3"><a xlink:title=" ">
<polygon fill="none" stroke="red" points="25,-114.5 25,-134.5 127,-134.5 127,-114.5 25,-114.5"/>
<text text-anchor="middle" x="76" y="-121.7" font-family="-apple-system, BlinkMacSystemFont, 'Segoe UI', Roboto, Oxygen, Ubuntu, Cantarell, 'Fira Sans', 'Droid Sans', 'Helvetica Neue', sans-serif" font-size="11.00">std::runtime_error</text>
</a>
</g>
</g>
<!-- Node3&#45;&gt;Node2 -->
<g id="edge2" class="edge">
<title>Node3&#45;&gt;Node2</title>
<path fill="none" stroke="midnightblue" d="M76,-104.38C76,-95.37 76,-85.04 76,-77.78"/>
<polygon fill="midnightblue" stroke="midnightblue" points="72.5,-104.42 76,-114.42 79.5,-104.42 72.5,-104.42"/>
</g>
</g>
</svg>
