<?xml version="1.0" encoding="UTF-8" standalone="no"?>
<!DOCTYPE svg PUBLIC "-//W3C//DTD SVG 1.1//EN"
 "http://www.w3.org/Graphics/SVG/1.1/DTD/svg11.dtd">
<!-- Generated by graphviz version 3.0.0 (20220413.0242)
 -->
<!-- Title: Mirai::MiraiClient Pages: 1 -->
<svg width="891pt" height="401pt"
 viewBox="0.00 0.00 891.00 400.98" xmlns="http://www.w3.org/2000/svg" xmlns:xlink="http://www.w3.org/1999/xlink">
<g id="graph0" class="graph" transform="scale(1 1) rotate(0) translate(4 396.98)">
<title>Mirai::MiraiClient</title>
<!-- Node1 -->
<g id="node1" class="node">
<title>Node1</title>
<g id="a_node1"><a xlink:title="提供与mirai&#45;api&#45;http网络交互的封装">
<polygon fill="#bfbfbf" stroke="black" points="787,-210.98 787,-230.98 883,-230.98 883,-210.98 787,-210.98"/>
<text text-anchor="middle" x="835" y="-218.18" font-family="-apple-system, BlinkMacSystemFont, 'Segoe UI', Roboto, Oxygen, Ubuntu, Cantarell, 'Fira Sans', 'Droid Sans', 'Helvetica Neue', sans-serif" font-size="11.00">Mirai::MiraiClient</text>
</a>
</g>
</g>
<!-- Node2 -->
<g id="node2" class="node">
<title>Node2</title>
<g id="a_node2"><a xlink:title=" ">
<polygon fill="none" stroke="black" points="544,-368.98 544,-388.98 610,-388.98 610,-368.98 544,-368.98"/>
<text text-anchor="middle" x="577" y="-376.18" font-family="-apple-system, BlinkMacSystemFont, 'Segoe UI', Roboto, Oxygen, Ubuntu, Cantarell, 'Fira Sans', 'Droid Sans', 'Helvetica Neue', sans-serif" font-size="11.00">std::mutex</text>
</a>
</g>
</g>
<!-- Node2&#45;&gt;Node1 -->
<g id="edge1" class="edge">
<title>Node2&#45;&gt;Node1</title>
<path fill="none" stroke="#9a32cd" stroke-dasharray="5,2" d="M620.15,-383.68C661.85,-386.05 725.57,-383.34 769,-351.98 810.99,-321.67 827.34,-256.48 832.24,-231.25"/>
<polygon fill="#9a32cd" stroke="#9a32cd" points="620.26,-380.18 610.05,-382.98 619.78,-387.16 620.26,-380.18"/>
<text text-anchor="middle" x="727.5" y="-384.18" font-family="-apple-system, BlinkMacSystemFont, 'Segoe UI', Roboto, Oxygen, Ubuntu, Cantarell, 'Fira Sans', 'Droid Sans', 'Helvetica Neue', sans-serif" font-size="11.00"> _mtx</text>
</g>
<!-- Node3 -->
<g id="node3" class="node">
<title>Node3</title>
<g id="a_node3"><a xlink:href="structMirai_1_1SessionConfigs.html" target="_top" xlink:title="连接mirai&#45;api&#45;http的配置">
<polygon fill="none" stroke="black" points="176,-36.98 176,-56.98 296,-56.98 296,-36.98 176,-36.98"/>
<text text-anchor="middle" x="236" y="-44.18" font-family="-apple-system, BlinkMacSystemFont, 'Segoe UI', Roboto, Oxygen, Ubuntu, Cantarell, 'Fira Sans', 'Droid Sans', 'Helvetica Neue', sans-serif" font-size="11.00">Mirai::SessionConfigs</text>
</a>
</g>
</g>
<!-- Node3&#45;&gt;Node1 -->
<g id="edge2" class="edge">
<title>Node3&#45;&gt;Node1</title>
<path fill="none" stroke="#9a32cd" stroke-dasharray="5,2" d="M306.25,-38.66C392.55,-30.5 543.81,-23.49 668,-55.98 717.24,-68.87 732.32,-74.7 769,-109.98 800.71,-140.48 822.11,-189.77 830.29,-210.87"/>
<polygon fill="#9a32cd" stroke="#9a32cd" points="305.66,-35.2 296.05,-39.66 306.34,-42.17 305.66,-35.2"/>
<text text-anchor="middle" x="577" y="-59.18" font-family="-apple-system, BlinkMacSystemFont, 'Segoe UI', Roboto, Oxygen, Ubuntu, Cantarell, 'Fira Sans', 'Droid Sans', 'Helvetica Neue', sans-serif" font-size="11.00"> _config</text>
</g>
<!-- Node4 -->
<g id="node4" class="node">
<title>Node4</title>
<g id="a_node4"><a xlink:title=" ">
<polygon fill="none" stroke="red" points="4,-188.98 4,-208.98 67,-208.98 67,-188.98 4,-188.98"/>
<text text-anchor="middle" x="35.5" y="-196.18" font-family="-apple-system, BlinkMacSystemFont, 'Segoe UI', Roboto, Oxygen, Ubuntu, Cantarell, 'Fira Sans', 'Droid Sans', 'Helvetica Neue', sans-serif" font-size="11.00">std::string</text>
</a>
</g>
</g>
<!-- Node4&#45;&gt;Node1 -->
<g id="edge5" class="edge">
<title>Node4&#45;&gt;Node1</title>
<path fill="none" stroke="#9a32cd" stroke-dasharray="5,2" d="M71.13,-212.71C77.06,-214.9 83.18,-217.08 89,-218.98 127.12,-231.47 136.56,-235.69 176,-242.98 391.42,-282.81 450.19,-296.43 668,-272.98 713.68,-268.07 725.44,-265.59 769,-250.98 785.03,-245.61 802.37,-237.48 815.11,-231.04"/>
<polygon fill="#9a32cd" stroke="#9a32cd" points="72.02,-209.3 61.43,-209.03 69.54,-215.85 72.02,-209.3"/>
<text text-anchor="middle" x="391" y="-287.18" font-family="-apple-system, BlinkMacSystemFont, 'Segoe UI', Roboto, Oxygen, Ubuntu, Cantarell, 'Fira Sans', 'Droid Sans', 'Helvetica Neue', sans-serif" font-size="11.00"> _SessionKey</text>
</g>
<!-- Node4&#45;&gt;Node3 -->
<g id="edge3" class="edge">
<title>Node4&#45;&gt;Node3</title>
<path fill="none" stroke="#9a32cd" stroke-dasharray="5,2" d="M38.82,-178.76C43.23,-150.23 55.6,-98.68 89,-71.98 102.41,-61.27 141.54,-54.93 175.91,-51.32"/>
<polygon fill="#9a32cd" stroke="#9a32cd" points="35.34,-178.41 37.45,-188.8 42.27,-179.36 35.34,-178.41"/>
<text text-anchor="middle" x="123.5" y="-99.18" font-family="-apple-system, BlinkMacSystemFont, 'Segoe UI', Roboto, Oxygen, Ubuntu, Cantarell, 'Fira Sans', 'Droid Sans', 'Helvetica Neue', sans-serif" font-size="11.00"> HttpUrl</text>
<text text-anchor="middle" x="123.5" y="-87.18" font-family="-apple-system, BlinkMacSystemFont, 'Segoe UI', Roboto, Oxygen, Ubuntu, Cantarell, 'Fira Sans', 'Droid Sans', 'Helvetica Neue', sans-serif" font-size="11.00">VerifyKey</text>
<text text-anchor="middle" x="123.5" y="-75.18" font-family="-apple-system, BlinkMacSystemFont, 'Segoe UI', Roboto, Oxygen, Ubuntu, Cantarell, 'Fira Sans', 'Droid Sans', 'Helvetica Neue', sans-serif" font-size="11.00">WebsocketUrl</text>
</g>
<!-- Node11 -->
<g id="node9" class="node">
<title>Node11</title>
<g id="a_node9"><a xlink:href="structMirai_1_1ClientConnectionEstablishedEvent.html" target="_top" xlink:title="连接建立事件">
<polygon fill="none" stroke="black" points="486,-77.98 486,-109.98 668,-109.98 668,-77.98 486,-77.98"/>
<text text-anchor="start" x="494" y="-97.18" font-family="-apple-system, BlinkMacSystemFont, 'Segoe UI', Roboto, Oxygen, Ubuntu, Cantarell, 'Fira Sans', 'Droid Sans', 'Helvetica Neue', sans-serif" font-size="11.00">Mirai::ClientConnectionEstablished</text>
<text text-anchor="middle" x="577" y="-85.18" font-family="-apple-system, BlinkMacSystemFont, 'Segoe UI', Roboto, Oxygen, Ubuntu, Cantarell, 'Fira Sans', 'Droid Sans', 'Helvetica Neue', sans-serif" font-size="11.00">Event</text>
</a>
</g>
</g>
<!-- Node4&#45;&gt;Node11 -->
<g id="edge10" class="edge">
<title>Node4&#45;&gt;Node11</title>
<path fill="none" stroke="#9a32cd" stroke-dasharray="5,2" d="M77.47,-204.12C81.36,-204.47 85.25,-204.77 89,-204.98 119.62,-206.73 127.45,-207.67 158,-204.98 297.39,-192.71 352.75,-229.34 468,-149.98 480.81,-141.17 473.68,-129.47 486,-119.98 491.03,-116.12 496.61,-112.82 502.47,-110.02"/>
<polygon fill="#9a32cd" stroke="#9a32cd" points="77.56,-200.61 67.26,-203.09 76.86,-207.58 77.56,-200.61"/>
<text text-anchor="middle" x="236" y="-230.18" font-family="-apple-system, BlinkMacSystemFont, 'Segoe UI', Roboto, Oxygen, Ubuntu, Cantarell, 'Fira Sans', 'Droid Sans', 'Helvetica Neue', sans-serif" font-size="11.00"> SessionKey</text>
<text text-anchor="middle" x="236" y="-218.18" font-family="-apple-system, BlinkMacSystemFont, 'Segoe UI', Roboto, Oxygen, Ubuntu, Cantarell, 'Fira Sans', 'Droid Sans', 'Helvetica Neue', sans-serif" font-size="11.00">protocol</text>
<text text-anchor="middle" x="236" y="-206.18" font-family="-apple-system, BlinkMacSystemFont, 'Segoe UI', Roboto, Oxygen, Ubuntu, Cantarell, 'Fira Sans', 'Droid Sans', 'Helvetica Neue', sans-serif" font-size="11.00">uri</text>
</g>
<!-- Node12 -->
<g id="node10" class="node">
<title>Node12</title>
<g id="a_node10"><a xlink:title=" ">
<polygon fill="none" stroke="black" points="177.5,-131.98 177.5,-163.98 294.5,-163.98 294.5,-131.98 177.5,-131.98"/>
<text text-anchor="start" x="185.5" y="-151.18" font-family="-apple-system, BlinkMacSystemFont, 'Segoe UI', Roboto, Oxygen, Ubuntu, Cantarell, 'Fira Sans', 'Droid Sans', 'Helvetica Neue', sans-serif" font-size="11.00">std::map&lt; std::string,</text>
<text text-anchor="middle" x="236" y="-139.18" font-family="-apple-system, BlinkMacSystemFont, 'Segoe UI', Roboto, Oxygen, Ubuntu, Cantarell, 'Fira Sans', 'Droid Sans', 'Helvetica Neue', sans-serif" font-size="11.00"> std::string &gt;</text>
</a>
</g>
</g>
<!-- Node4&#45;&gt;Node12 -->
<g id="edge12" class="edge">
<title>Node4&#45;&gt;Node12</title>
<path fill="none" stroke="#9a32cd" stroke-dasharray="5,2" d="M73.73,-185.67C78.84,-184 84.03,-182.39 89,-180.98 117.88,-172.8 150.42,-165.28 177.43,-159.49"/>
<polygon fill="#9a32cd" stroke="#9a32cd" points="72.48,-182.39 64.11,-188.89 74.71,-189.03 72.48,-182.39"/>
<text text-anchor="middle" x="123.5" y="-196.18" font-family="-apple-system, BlinkMacSystemFont, 'Segoe UI', Roboto, Oxygen, Ubuntu, Cantarell, 'Fira Sans', 'Droid Sans', 'Helvetica Neue', sans-serif" font-size="11.00"> elements</text>
<text text-anchor="middle" x="123.5" y="-184.18" font-family="-apple-system, BlinkMacSystemFont, 'Segoe UI', Roboto, Oxygen, Ubuntu, Cantarell, 'Fira Sans', 'Droid Sans', 'Helvetica Neue', sans-serif" font-size="11.00">keys</text>
</g>
<!-- Node13 -->
<g id="node11" class="node">
<title>Node13</title>
<g id="a_node11"><a xlink:href="structMirai_1_1User.html" target="_top" xlink:title="QQ用户">
<polygon fill="none" stroke="red" points="201.5,-83.98 201.5,-103.98 270.5,-103.98 270.5,-83.98 201.5,-83.98"/>
<text text-anchor="middle" x="236" y="-91.18" font-family="-apple-system, BlinkMacSystemFont, 'Segoe UI', Roboto, Oxygen, Ubuntu, Cantarell, 'Fira Sans', 'Droid Sans', 'Helvetica Neue', sans-serif" font-size="11.00">Mirai::User</text>
</a>
</g>
</g>
<!-- Node4&#45;&gt;Node13 -->
<g id="edge15" class="edge">
<title>Node4&#45;&gt;Node13</title>
<path fill="none" stroke="#9a32cd" stroke-dasharray="5,2" d="M47.6,-180.38C56.96,-166.24 71.59,-147.34 89,-135.98 107.5,-123.91 164.29,-109.66 201.35,-101.24"/>
<polygon fill="#9a32cd" stroke="#9a32cd" points="44.63,-178.54 42.24,-188.86 50.54,-182.28 44.63,-178.54"/>
<text text-anchor="middle" x="123.5" y="-151.18" font-family="-apple-system, BlinkMacSystemFont, 'Segoe UI', Roboto, Oxygen, Ubuntu, Cantarell, 'Fira Sans', 'Droid Sans', 'Helvetica Neue', sans-serif" font-size="11.00"> nickname</text>
<text text-anchor="middle" x="123.5" y="-139.18" font-family="-apple-system, BlinkMacSystemFont, 'Segoe UI', Roboto, Oxygen, Ubuntu, Cantarell, 'Fira Sans', 'Droid Sans', 'Helvetica Neue', sans-serif" font-size="11.00">remark</text>
</g>
<!-- Node15 -->
<g id="node12" class="node">
<title>Node15</title>
<g id="a_node12"><a xlink:title=" ">
<polygon fill="none" stroke="black" points="314,-319.98 314,-351.98 468,-351.98 468,-319.98 314,-319.98"/>
<text text-anchor="start" x="322" y="-339.18" font-family="-apple-system, BlinkMacSystemFont, 'Segoe UI', Roboto, Oxygen, Ubuntu, Cantarell, 'Fira Sans', 'Droid Sans', 'Helvetica Neue', sans-serif" font-size="11.00">std::unordered_map</text>
<text text-anchor="middle" x="391" y="-327.18" font-family="-apple-system, BlinkMacSystemFont, 'Segoe UI', Roboto, Oxygen, Ubuntu, Cantarell, 'Fira Sans', 'Droid Sans', 'Helvetica Neue', sans-serif" font-size="11.00">&lt; std::string, EventHandler &gt;</text>
</a>
</g>
</g>
<!-- Node4&#45;&gt;Node15 -->
<g id="edge17" class="edge">
<title>Node4&#45;&gt;Node15</title>
<path fill="none" stroke="#9a32cd" stroke-dasharray="5,2" d="M40.17,-218.84C45.9,-243.71 59.54,-285.52 89,-305.98 154.56,-351.52 248.39,-353.56 313.79,-347.7"/>
<polygon fill="#9a32cd" stroke="#9a32cd" points="43.59,-218.11 38.12,-209.04 36.74,-219.55 43.59,-218.11"/>
<text text-anchor="middle" x="123.5" y="-340.18" font-family="-apple-system, BlinkMacSystemFont, 'Segoe UI', Roboto, Oxygen, Ubuntu, Cantarell, 'Fira Sans', 'Droid Sans', 'Helvetica Neue', sans-serif" font-size="11.00"> keys</text>
</g>
<!-- Node6 -->
<g id="node5" class="node">
<title>Node6</title>
<g id="a_node5"><a xlink:href="classMirai_1_1QQ__t.html" target="_top" xlink:title="QQ号码类型">
<polygon fill="none" stroke="red" points="0,-11.98 0,-31.98 71,-31.98 71,-11.98 0,-11.98"/>
<text text-anchor="middle" x="35.5" y="-19.18" font-family="-apple-system, BlinkMacSystemFont, 'Segoe UI', Roboto, Oxygen, Ubuntu, Cantarell, 'Fira Sans', 'Droid Sans', 'Helvetica Neue', sans-serif" font-size="11.00">Mirai::QQ_t</text>
</a>
</g>
</g>
<!-- Node6&#45;&gt;Node3 -->
<g id="edge4" class="edge">
<title>Node6&#45;&gt;Node3</title>
<path fill="none" stroke="#9a32cd" stroke-dasharray="5,2" d="M71.89,-8.87C77.54,-7.26 83.38,-5.87 89,-4.98 119.29,-0.2 128.28,2.59 158,-4.98 182.05,-11.12 206.69,-26.47 221.42,-36.81"/>
<polygon fill="#9a32cd" stroke="#9a32cd" points="70.51,-5.64 62.01,-11.95 72.6,-12.32 70.51,-5.64"/>
<text text-anchor="middle" x="123.5" y="-8.18" font-family="-apple-system, BlinkMacSystemFont, 'Segoe UI', Roboto, Oxygen, Ubuntu, Cantarell, 'Fira Sans', 'Droid Sans', 'Helvetica Neue', sans-serif" font-size="11.00"> BotQQ</text>
</g>
<!-- Node6&#45;&gt;Node13 -->
<g id="edge14" class="edge">
<title>Node6&#45;&gt;Node13</title>
<path fill="none" stroke="#9a32cd" stroke-dasharray="5,2" d="M81.27,-20.23C105.6,-21.25 135.26,-25.85 158,-39.98 169.94,-47.4 165.29,-56.89 176,-65.98 184.81,-73.47 195.97,-79.44 206.2,-83.91"/>
<polygon fill="#9a32cd" stroke="#9a32cd" points="81.29,-16.73 71.21,-20 81.13,-23.73 81.29,-16.73"/>
<text text-anchor="middle" x="123.5" y="-43.18" font-family="-apple-system, BlinkMacSystemFont, 'Segoe UI', Roboto, Oxygen, Ubuntu, Cantarell, 'Fira Sans', 'Droid Sans', 'Helvetica Neue', sans-serif" font-size="11.00"> id</text>
</g>
<!-- Node8 -->
<g id="node6" class="node">
<title>Node8</title>
<g id="a_node6"><a xlink:title=" ">
<polygon fill="none" stroke="black" points="512,-230.98 512,-262.98 642,-262.98 642,-230.98 512,-230.98"/>
<text text-anchor="start" x="520" y="-250.18" font-family="-apple-system, BlinkMacSystemFont, 'Segoe UI', Roboto, Oxygen, Ubuntu, Cantarell, 'Fira Sans', 'Droid Sans', 'Helvetica Neue', sans-serif" font-size="11.00">std::unique_ptr&lt; Details</text>
<text text-anchor="middle" x="577" y="-238.18" font-family="-apple-system, BlinkMacSystemFont, 'Segoe UI', Roboto, Oxygen, Ubuntu, Cantarell, 'Fira Sans', 'Droid Sans', 'Helvetica Neue', sans-serif" font-size="11.00">::HttpClientImpl &gt;</text>
</a>
</g>
</g>
<!-- Node8&#45;&gt;Node1 -->
<g id="edge6" class="edge">
<title>Node8&#45;&gt;Node1</title>
<path fill="none" stroke="#9a32cd" stroke-dasharray="5,2" d="M652.48,-239.42C695.79,-235.02 749.07,-229.61 786.67,-225.79"/>
<polygon fill="#9a32cd" stroke="#9a32cd" points="651.86,-235.96 642.27,-240.46 652.57,-242.93 651.86,-235.96"/>
<text text-anchor="middle" x="727.5" y="-238.18" font-family="-apple-system, BlinkMacSystemFont, 'Segoe UI', Roboto, Oxygen, Ubuntu, Cantarell, 'Fira Sans', 'Droid Sans', 'Helvetica Neue', sans-serif" font-size="11.00"> _HttpClient</text>
</g>
<!-- Node9 -->
<g id="node7" class="node">
<title>Node9</title>
<g id="a_node7"><a xlink:title=" ">
<polygon fill="none" stroke="black" points="512,-179.98 512,-211.98 642,-211.98 642,-179.98 512,-179.98"/>
<text text-anchor="start" x="520" y="-199.18" font-family="-apple-system, BlinkMacSystemFont, 'Segoe UI', Roboto, Oxygen, Ubuntu, Cantarell, 'Fira Sans', 'Droid Sans', 'Helvetica Neue', sans-serif" font-size="11.00">std::unique_ptr&lt; Details</text>
<text text-anchor="middle" x="577" y="-187.18" font-family="-apple-system, BlinkMacSystemFont, 'Segoe UI', Roboto, Oxygen, Ubuntu, Cantarell, 'Fira Sans', 'Droid Sans', 'Helvetica Neue', sans-serif" font-size="11.00">::MessageClientImpl &gt;</text>
</a>
</g>
</g>
<!-- Node9&#45;&gt;Node1 -->
<g id="edge7" class="edge">
<title>Node9&#45;&gt;Node1</title>
<path fill="none" stroke="#9a32cd" stroke-dasharray="5,2" d="M652.39,-202.02C687.75,-205.04 730.58,-208.91 769,-212.98 774.77,-213.6 780.81,-214.28 786.8,-214.99"/>
<polygon fill="#9a32cd" stroke="#9a32cd" points="652.41,-198.51 642.15,-201.15 651.82,-205.48 652.41,-198.51"/>
<text text-anchor="middle" x="727.5" y="-216.18" font-family="-apple-system, BlinkMacSystemFont, 'Segoe UI', Roboto, Oxygen, Ubuntu, Cantarell, 'Fira Sans', 'Droid Sans', 'Helvetica Neue', sans-serif" font-size="11.00"> _MessageClient</text>
</g>
<!-- Node10 -->
<g id="node8" class="node">
<title>Node10</title>
<g id="a_node8"><a xlink:title=" ">
<polygon fill="none" stroke="black" points="517.5,-128.98 517.5,-160.98 636.5,-160.98 636.5,-128.98 517.5,-128.98"/>
<text text-anchor="start" x="525.5" y="-148.18" font-family="-apple-system, BlinkMacSystemFont, 'Segoe UI', Roboto, Oxygen, Ubuntu, Cantarell, 'Fira Sans', 'Droid Sans', 'Helvetica Neue', sans-serif" font-size="11.00">std::unique_ptr&lt; Utils</text>
<text text-anchor="middle" x="577" y="-136.18" font-family="-apple-system, BlinkMacSystemFont, 'Segoe UI', Roboto, Oxygen, Ubuntu, Cantarell, 'Fira Sans', 'Droid Sans', 'Helvetica Neue', sans-serif" font-size="11.00">::ThreadPool &gt;</text>
</a>
</g>
</g>
<!-- Node10&#45;&gt;Node1 -->
<g id="edge8" class="edge">
<title>Node10&#45;&gt;Node1</title>
<path fill="none" stroke="#9a32cd" stroke-dasharray="5,2" d="M646.81,-156.84C683.64,-164.17 729.44,-174.9 769,-188.98 785.59,-194.89 803.47,-203.91 816.28,-210.86"/>
<polygon fill="#9a32cd" stroke="#9a32cd" points="647.15,-153.34 636.67,-154.86 645.81,-160.21 647.15,-153.34"/>
<text text-anchor="middle" x="727.5" y="-192.18" font-family="-apple-system, BlinkMacSystemFont, 'Segoe UI', Roboto, Oxygen, Ubuntu, Cantarell, 'Fira Sans', 'Droid Sans', 'Helvetica Neue', sans-serif" font-size="11.00"> _ThreadPool</text>
</g>
<!-- Node11&#45;&gt;Node1 -->
<g id="edge9" class="edge">
<title>Node11&#45;&gt;Node1</title>
<path fill="none" stroke="#9a32cd" stroke-dasharray="5,2" d="M678.2,-111.7C708.86,-119.97 741.67,-131.91 769,-148.98 795.14,-165.31 817.12,-195.09 827.53,-210.74"/>
<polygon fill="#9a32cd" stroke="#9a32cd" points="678.9,-108.26 668.34,-109.14 677.14,-115.04 678.9,-108.26"/>
<text text-anchor="middle" x="727.5" y="-152.18" font-family="-apple-system, BlinkMacSystemFont, 'Segoe UI', Roboto, Oxygen, Ubuntu, Cantarell, 'Fira Sans', 'Droid Sans', 'Helvetica Neue', sans-serif" font-size="11.00"> _HandshakeInfo</text>
</g>
<!-- Node12&#45;&gt;Node11 -->
<g id="edge11" class="edge">
<title>Node12&#45;&gt;Node11</title>
<path fill="none" stroke="#9a32cd" stroke-dasharray="5,2" d="M304.63,-137.21C356.64,-128.93 429.01,-117.4 485.93,-108.33"/>
<polygon fill="#9a32cd" stroke="#9a32cd" points="303.83,-133.79 294.51,-138.82 304.93,-140.71 303.83,-133.79"/>
<text text-anchor="middle" x="391" y="-137.18" font-family="-apple-system, BlinkMacSystemFont, 'Segoe UI', Roboto, Oxygen, Ubuntu, Cantarell, 'Fira Sans', 'Droid Sans', 'Helvetica Neue', sans-serif" font-size="11.00"> headers</text>
</g>
<!-- Node13&#45;&gt;Node11 -->
<g id="edge13" class="edge">
<title>Node13&#45;&gt;Node11</title>
<path fill="none" stroke="#9a32cd" stroke-dasharray="5,2" d="M280.89,-93.98C332.48,-93.98 419.48,-93.98 485.68,-93.98"/>
<polygon fill="#9a32cd" stroke="#9a32cd" points="280.74,-90.48 270.74,-93.98 280.74,-97.48 280.74,-90.48"/>
<text text-anchor="middle" x="391" y="-97.18" font-family="-apple-system, BlinkMacSystemFont, 'Segoe UI', Roboto, Oxygen, Ubuntu, Cantarell, 'Fira Sans', 'Droid Sans', 'Helvetica Neue', sans-serif" font-size="11.00"> BotProfile</text>
</g>
<!-- Node15&#45;&gt;Node1 -->
<g id="edge16" class="edge">
<title>Node15&#45;&gt;Node1</title>
<path fill="none" stroke="#9a32cd" stroke-dasharray="5,2" d="M478.46,-337.14C573.97,-337.02 720.67,-332.31 769,-305.98 800.32,-288.93 821.22,-249.64 829.72,-231.07"/>
<polygon fill="#9a32cd" stroke="#9a32cd" points="478.23,-333.64 468.23,-337.13 478.23,-340.64 478.23,-333.64"/>
<text text-anchor="middle" x="577" y="-340.18" font-family="-apple-system, BlinkMacSystemFont, 'Segoe UI', Roboto, Oxygen, Ubuntu, Cantarell, 'Fira Sans', 'Droid Sans', 'Helvetica Neue', sans-serif" font-size="11.00"> _EventHandlers</text>
</g>
</g>
</svg>
