<?xml version="1.0" encoding="UTF-8" standalone="no"?>
<!DOCTYPE svg PUBLIC "-//W3C//DTD SVG 1.1//EN"
 "http://www.w3.org/Graphics/SVG/1.1/DTD/svg11.dtd">
<!-- Generated by graphviz version 3.0.0 (20220413.0242)
 -->
<!-- Title: libmirai/public/libmirai/Api/Client.cpp Pages: 1 -->
<svg width="2970pt" height="374pt"
 viewBox="0.00 0.00 2970.39 374.00" xmlns="http://www.w3.org/2000/svg" xmlns:xlink="http://www.w3.org/1999/xlink">
<g id="graph0" class="graph" transform="scale(1 1) rotate(0) translate(4 370)">
<title>libmirai/public/libmirai/Api/Client.cpp</title>
<!-- Node1 -->
<g id="node1" class="node">
<title>Node1</title>
<g id="a_node1"><a xlink:title=" ">
<polygon fill="#bfbfbf" stroke="black" points="1719.89,-333.5 1719.89,-365.5 1837.89,-365.5 1837.89,-333.5 1719.89,-333.5"/>
<text text-anchor="start" x="1727.89" y="-352.7" font-family="-apple-system, BlinkMacSystemFont, 'Segoe UI', Roboto, Oxygen, Ubuntu, Cantarell, 'Fira Sans', 'Droid Sans', 'Helvetica Neue', sans-serif" font-size="11.00">libmirai/public/libmirai</text>
<text text-anchor="middle" x="1778.89" y="-340.7" font-family="-apple-system, BlinkMacSystemFont, 'Segoe UI', Roboto, Oxygen, Ubuntu, Cantarell, 'Fira Sans', 'Droid Sans', 'Helvetica Neue', sans-serif" font-size="11.00">/Api/Client.cpp</text>
</a>
</g>
</g>
<!-- Node2 -->
<g id="node2" class="node">
<title>Node2</title>
<g id="a_node2"><a xlink:href="Client_8hpp.html" target="_top" xlink:title=" ">
<polygon fill="none" stroke="black" points="996.39,-270.5 996.39,-290.5 1061.39,-290.5 1061.39,-270.5 996.39,-270.5"/>
<text text-anchor="middle" x="1028.89" y="-277.7" font-family="-apple-system, BlinkMacSystemFont, 'Segoe UI', Roboto, Oxygen, Ubuntu, Cantarell, 'Fira Sans', 'Droid Sans', 'Helvetica Neue', sans-serif" font-size="11.00">Client.hpp</text>
</a>
</g>
</g>
<!-- Node1&#45;&gt;Node2 -->
<g id="edge1" class="edge">
<title>Node1&#45;&gt;Node2</title>
<path fill="none" stroke="midnightblue" d="M1719.72,-343.21C1573.71,-330.17 1198.86,-296.68 1071.77,-285.33"/>
<polygon fill="midnightblue" stroke="midnightblue" points="1071.92,-281.83 1061.65,-284.43 1071.3,-288.8 1071.92,-281.83"/>
</g>
<!-- Node3 -->
<g id="node3" class="node">
<title>Node3</title>
<g id="a_node3"><a xlink:title=" ">
<polygon fill="none" stroke="#bfbfbf" points="51.39,-201.5 51.39,-221.5 154.39,-221.5 154.39,-201.5 51.39,-201.5"/>
<text text-anchor="middle" x="102.89" y="-208.7" font-family="-apple-system, BlinkMacSystemFont, 'Segoe UI', Roboto, Oxygen, Ubuntu, Cantarell, 'Fira Sans', 'Droid Sans', 'Helvetica Neue', sans-serif" font-size="11.00">condition_variable</text>
</a>
</g>
</g>
<!-- Node1&#45;&gt;Node3 -->
<g id="edge54" class="edge">
<title>Node1&#45;&gt;Node3</title>
<path fill="none" stroke="midnightblue" d="M1719.62,-348.29C1488.74,-347.18 649.37,-340.19 386.89,-297 293.42,-281.62 187.48,-244.65 135.37,-225.1"/>
<polygon fill="midnightblue" stroke="midnightblue" points="136.57,-221.82 125.98,-221.55 134.09,-228.36 136.57,-221.82"/>
</g>
<!-- Node5 -->
<g id="node5" class="node">
<title>Node5</title>
<g id="a_node5"><a xlink:title=" ">
<polygon fill="none" stroke="#bfbfbf" points="172.39,-201.5 172.39,-221.5 225.39,-221.5 225.39,-201.5 172.39,-201.5"/>
<text text-anchor="middle" x="198.89" y="-208.7" font-family="-apple-system, BlinkMacSystemFont, 'Segoe UI', Roboto, Oxygen, Ubuntu, Cantarell, 'Fira Sans', 'Droid Sans', 'Helvetica Neue', sans-serif" font-size="11.00">fstream</text>
</a>
</g>
</g>
<!-- Node1&#45;&gt;Node5 -->
<g id="edge56" class="edge">
<title>Node1&#45;&gt;Node5</title>
<path fill="none" stroke="midnightblue" d="M1719.67,-348.66C1548.82,-348.53 1040.5,-343.91 621.89,-297 450.43,-277.79 406.16,-274.03 239.89,-228 236.73,-227.13 233.48,-226.11 230.26,-225.02"/>
<polygon fill="midnightblue" stroke="midnightblue" points="231.36,-221.7 220.77,-221.62 229,-228.29 231.36,-221.7"/>
</g>
<!-- Node8 -->
<g id="node8" class="node">
<title>Node8</title>
<g id="a_node8"><a xlink:title=" ">
<polygon fill="none" stroke="#bfbfbf" points="225.89,-63.5 225.89,-83.5 281.89,-83.5 281.89,-63.5 225.89,-63.5"/>
<text text-anchor="middle" x="253.89" y="-70.7" font-family="-apple-system, BlinkMacSystemFont, 'Segoe UI', Roboto, Oxygen, Ubuntu, Cantarell, 'Fira Sans', 'Droid Sans', 'Helvetica Neue', sans-serif" font-size="11.00">memory</text>
</a>
</g>
</g>
<!-- Node1&#45;&gt;Node8 -->
<g id="edge57" class="edge">
<title>Node1&#45;&gt;Node8</title>
<path fill="none" stroke="midnightblue" d="M1719.72,-348.78C1421.76,-349.96 97.19,-352.07 30.89,-297 -4.36,-267.72 -8.1,-234.04 15.89,-195 59.74,-123.64 160.41,-92.97 215.73,-81.11"/>
<polygon fill="midnightblue" stroke="midnightblue" points="216.74,-84.47 225.84,-79.04 215.34,-77.62 216.74,-84.47"/>
</g>
<!-- Node9 -->
<g id="node9" class="node">
<title>Node9</title>
<g id="a_node9"><a xlink:title=" ">
<polygon fill="none" stroke="#bfbfbf" points="1646.89,-201.5 1646.89,-221.5 1692.89,-221.5 1692.89,-201.5 1646.89,-201.5"/>
<text text-anchor="middle" x="1669.89" y="-208.7" font-family="-apple-system, BlinkMacSystemFont, 'Segoe UI', Roboto, Oxygen, Ubuntu, Cantarell, 'Fira Sans', 'Droid Sans', 'Helvetica Neue', sans-serif" font-size="11.00">mutex</text>
</a>
</g>
</g>
<!-- Node1&#45;&gt;Node9 -->
<g id="edge58" class="edge">
<title>Node1&#45;&gt;Node9</title>
<path fill="none" stroke="midnightblue" d="M1766.81,-333.43C1746.39,-307.95 1705.18,-256.54 1683.67,-229.7"/>
<polygon fill="midnightblue" stroke="midnightblue" points="1686.17,-227.22 1677.19,-221.61 1680.71,-231.6 1686.17,-227.22"/>
</g>
<!-- Node11 -->
<g id="node11" class="node">
<title>Node11</title>
<g id="a_node11"><a xlink:title=" ">
<polygon fill="none" stroke="#bfbfbf" points="1438.39,-0.5 1438.39,-20.5 1481.39,-20.5 1481.39,-0.5 1438.39,-0.5"/>
<text text-anchor="middle" x="1459.89" y="-7.7" font-family="-apple-system, BlinkMacSystemFont, 'Segoe UI', Roboto, Oxygen, Ubuntu, Cantarell, 'Fira Sans', 'Droid Sans', 'Helvetica Neue', sans-serif" font-size="11.00">string</text>
</a>
</g>
</g>
<!-- Node1&#45;&gt;Node11 -->
<g id="edge59" class="edge">
<title>Node1&#45;&gt;Node11</title>
<path fill="none" stroke="midnightblue" d="M1838.05,-347.6C1901.54,-344.6 2004.03,-333.82 2083.89,-297 2137.04,-272.5 2184.89,-271.03 2184.89,-212.5 2184.89,-212.5 2184.89,-212.5 2184.89,-141.5 2184.89,-18.3 2041.53,-81.97 1920.89,-57 1762.13,-24.14 1567.54,-14.82 1492,-12.34"/>
<polygon fill="midnightblue" stroke="midnightblue" points="1491.84,-8.83 1481.73,-12.02 1491.62,-15.83 1491.84,-8.83"/>
</g>
<!-- Node15 -->
<g id="node15" class="node">
<title>Node15</title>
<g id="a_node15"><a xlink:href="BotInvitedJoinGroupRequestEvent_8hpp.html" target="_top" xlink:title=" ">
<polygon fill="none" stroke="red" points="1507.39,-126.5 1507.39,-158.5 1662.39,-158.5 1662.39,-126.5 1507.39,-126.5"/>
<text text-anchor="start" x="1515.39" y="-145.7" font-family="-apple-system, BlinkMacSystemFont, 'Segoe UI', Roboto, Oxygen, Ubuntu, Cantarell, 'Fira Sans', 'Droid Sans', 'Helvetica Neue', sans-serif" font-size="11.00">libmirai/Events/BotInvited</text>
<text text-anchor="middle" x="1584.89" y="-133.7" font-family="-apple-system, BlinkMacSystemFont, 'Segoe UI', Roboto, Oxygen, Ubuntu, Cantarell, 'Fira Sans', 'Droid Sans', 'Helvetica Neue', sans-serif" font-size="11.00">JoinGroupRequestEvent.hpp</text>
</a>
</g>
</g>
<!-- Node1&#45;&gt;Node15 -->
<g id="edge61" class="edge">
<title>Node1&#45;&gt;Node15</title>
<path fill="none" stroke="midnightblue" d="M1796.99,-333.47C1829.86,-304.4 1892.68,-239.44 1855.89,-195 1854.38,-193.18 1751.2,-173.93 1672.61,-159.5"/>
<polygon fill="midnightblue" stroke="midnightblue" points="1673.14,-156.04 1662.67,-157.67 1671.88,-162.92 1673.14,-156.04"/>
</g>
<!-- Node21 -->
<g id="node16" class="node">
<title>Node21</title>
<g id="a_node16"><a xlink:href="FriendMessageEvent_8hpp.html" target="_top" xlink:title=" ">
<polygon fill="none" stroke="red" points="498.39,-195.5 498.39,-227.5 661.39,-227.5 661.39,-195.5 498.39,-195.5"/>
<text text-anchor="start" x="506.39" y="-214.7" font-family="-apple-system, BlinkMacSystemFont, 'Segoe UI', Roboto, Oxygen, Ubuntu, Cantarell, 'Fira Sans', 'Droid Sans', 'Helvetica Neue', sans-serif" font-size="11.00">libmirai/Events/FriendMessage</text>
<text text-anchor="middle" x="579.89" y="-202.7" font-family="-apple-system, BlinkMacSystemFont, 'Segoe UI', Roboto, Oxygen, Ubuntu, Cantarell, 'Fira Sans', 'Droid Sans', 'Helvetica Neue', sans-serif" font-size="11.00">Event.hpp</text>
</a>
</g>
</g>
<!-- Node1&#45;&gt;Node21 -->
<g id="edge62" class="edge">
<title>Node1&#45;&gt;Node21</title>
<path fill="none" stroke="midnightblue" d="M1719.49,-347.47C1587.28,-344.56 1258.94,-333.9 986.89,-297 867.05,-280.74 729.69,-249.56 649.11,-229.96"/>
<polygon fill="midnightblue" stroke="midnightblue" points="649.64,-226.48 639.09,-227.51 647.97,-233.28 649.64,-226.48"/>
</g>
<!-- Node22 -->
<g id="node17" class="node">
<title>Node22</title>
<g id="a_node17"><a xlink:href="MessageChain_8hpp.html" target="_top" xlink:title=" ">
<polygon fill="none" stroke="red" points="653.39,-126.5 653.39,-158.5 802.39,-158.5 802.39,-126.5 653.39,-126.5"/>
<text text-anchor="start" x="661.39" y="-145.7" font-family="-apple-system, BlinkMacSystemFont, 'Segoe UI', Roboto, Oxygen, Ubuntu, Cantarell, 'Fira Sans', 'Droid Sans', 'Helvetica Neue', sans-serif" font-size="11.00">libmirai/Messages/Message</text>
<text text-anchor="middle" x="727.89" y="-133.7" font-family="-apple-system, BlinkMacSystemFont, 'Segoe UI', Roboto, Oxygen, Ubuntu, Cantarell, 'Fira Sans', 'Droid Sans', 'Helvetica Neue', sans-serif" font-size="11.00">Chain.hpp</text>
</a>
</g>
</g>
<!-- Node1&#45;&gt;Node22 -->
<g id="edge72" class="edge">
<title>Node1&#45;&gt;Node22</title>
<path fill="none" stroke="midnightblue" d="M1719.67,-348.77C1474.69,-349.52 539.77,-348.85 249.89,-297 154.01,-279.85 98.89,-306.97 41.89,-228 33.3,-216.11 31.91,-205.75 41.89,-195 52,-184.1 461.87,-158.97 643.14,-148.37"/>
<polygon fill="midnightblue" stroke="midnightblue" points="643.4,-151.86 653.18,-147.78 642.99,-144.87 643.4,-151.86"/>
</g>
<!-- Node27 -->
<g id="node18" class="node">
<title>Node27</title>
<g id="a_node18"><a xlink:href="Exceptions_8hpp.html" target="_top" xlink:title=" ">
<polygon fill="none" stroke="red" points="1771.39,-57.5 1771.39,-89.5 1876.39,-89.5 1876.39,-57.5 1771.39,-57.5"/>
<text text-anchor="start" x="1779.39" y="-76.7" font-family="-apple-system, BlinkMacSystemFont, 'Segoe UI', Roboto, Oxygen, Ubuntu, Cantarell, 'Fira Sans', 'Droid Sans', 'Helvetica Neue', sans-serif" font-size="11.00">libmirai/Exceptions</text>
<text text-anchor="middle" x="1823.89" y="-64.7" font-family="-apple-system, BlinkMacSystemFont, 'Segoe UI', Roboto, Oxygen, Ubuntu, Cantarell, 'Fira Sans', 'Droid Sans', 'Helvetica Neue', sans-serif" font-size="11.00">/Exceptions.hpp</text>
</a>
</g>
</g>
<!-- Node1&#45;&gt;Node27 -->
<g id="edge69" class="edge">
<title>Node1&#45;&gt;Node27</title>
<path fill="none" stroke="midnightblue" d="M1837.91,-348.8C1895.95,-346.58 1985.16,-336.22 2050.89,-297 2109.6,-261.96 2113.01,-227.12 2118.89,-159 2120.15,-144.39 2128.32,-137.23 2118.89,-126 2089.83,-91.44 1964.39,-80.07 1886.74,-76.33"/>
<polygon fill="midnightblue" stroke="midnightblue" points="1886.73,-72.82 1876.58,-75.87 1886.41,-79.82 1886.73,-72.82"/>
</g>
<!-- Node44 -->
<g id="node19" class="node">
<title>Node44</title>
<g id="a_node19"><a xlink:href="GroupMessageEvent_8hpp.html" target="_top" xlink:title=" ">
<polygon fill="none" stroke="red" points="1352.89,-195.5 1352.89,-227.5 1514.89,-227.5 1514.89,-195.5 1352.89,-195.5"/>
<text text-anchor="start" x="1360.89" y="-214.7" font-family="-apple-system, BlinkMacSystemFont, 'Segoe UI', Roboto, Oxygen, Ubuntu, Cantarell, 'Fira Sans', 'Droid Sans', 'Helvetica Neue', sans-serif" font-size="11.00">libmirai/Events/GroupMessage</text>
<text text-anchor="middle" x="1433.89" y="-202.7" font-family="-apple-system, BlinkMacSystemFont, 'Segoe UI', Roboto, Oxygen, Ubuntu, Cantarell, 'Fira Sans', 'Droid Sans', 'Helvetica Neue', sans-serif" font-size="11.00">Event.hpp</text>
</a>
</g>
</g>
<!-- Node1&#45;&gt;Node44 -->
<g id="edge63" class="edge">
<title>Node1&#45;&gt;Node44</title>
<path fill="none" stroke="midnightblue" d="M1740.65,-333.43C1677.23,-308.43 1550.44,-258.45 1481.38,-231.22"/>
<polygon fill="midnightblue" stroke="midnightblue" points="1482.62,-227.95 1472.03,-227.54 1480.05,-234.46 1482.62,-227.95"/>
</g>
<!-- Node45 -->
<g id="node20" class="node">
<title>Node45</title>
<g id="a_node20"><a xlink:href="MemberJoinRequestEvent_8hpp.html" target="_top" xlink:title=" ">
<polygon fill="none" stroke="red" points="1680.39,-126.5 1680.39,-158.5 1829.39,-158.5 1829.39,-126.5 1680.39,-126.5"/>
<text text-anchor="start" x="1688.39" y="-145.7" font-family="-apple-system, BlinkMacSystemFont, 'Segoe UI', Roboto, Oxygen, Ubuntu, Cantarell, 'Fira Sans', 'Droid Sans', 'Helvetica Neue', sans-serif" font-size="11.00">libmirai/Events/MemberJoin</text>
<text text-anchor="middle" x="1754.89" y="-133.7" font-family="-apple-system, BlinkMacSystemFont, 'Segoe UI', Roboto, Oxygen, Ubuntu, Cantarell, 'Fira Sans', 'Droid Sans', 'Helvetica Neue', sans-serif" font-size="11.00">RequestEvent.hpp</text>
</a>
</g>
</g>
<!-- Node1&#45;&gt;Node45 -->
<g id="edge64" class="edge">
<title>Node1&#45;&gt;Node45</title>
<path fill="none" stroke="midnightblue" d="M1838.17,-334.6C1857.73,-326.89 1877.4,-315.06 1888.89,-297 1913.21,-258.75 1914.56,-232.37 1888.89,-195 1877.06,-177.79 1858.62,-166.33 1839.17,-158.69"/>
<polygon fill="midnightblue" stroke="midnightblue" points="1840.15,-155.33 1829.56,-155.25 1837.79,-161.92 1840.15,-155.33"/>
</g>
<!-- Node46 -->
<g id="node21" class="node">
<title>Node46</title>
<g id="a_node21"><a xlink:href="MiraiClientEvents_8hpp.html" target="_top" xlink:title=" ">
<polygon fill="none" stroke="red" points="1941.39,-195.5 1941.39,-227.5 2080.39,-227.5 2080.39,-195.5 1941.39,-195.5"/>
<text text-anchor="start" x="1949.39" y="-214.7" font-family="-apple-system, BlinkMacSystemFont, 'Segoe UI', Roboto, Oxygen, Ubuntu, Cantarell, 'Fira Sans', 'Droid Sans', 'Helvetica Neue', sans-serif" font-size="11.00">libmirai/Events/MiraiClient</text>
<text text-anchor="middle" x="2010.89" y="-202.7" font-family="-apple-system, BlinkMacSystemFont, 'Segoe UI', Roboto, Oxygen, Ubuntu, Cantarell, 'Fira Sans', 'Droid Sans', 'Helvetica Neue', sans-serif" font-size="11.00">Events.hpp</text>
</a>
</g>
</g>
<!-- Node1&#45;&gt;Node46 -->
<g id="edge65" class="edge">
<title>Node1&#45;&gt;Node46</title>
<path fill="none" stroke="midnightblue" d="M1838.21,-334.54C1866.43,-326.27 1899.83,-314.02 1926.89,-297 1953.12,-280.49 1977.42,-254.37 1993.06,-235.53"/>
<polygon fill="midnightblue" stroke="midnightblue" points="1995.83,-237.67 1999.42,-227.7 1990.4,-233.26 1995.83,-237.67"/>
</g>
<!-- Node47 -->
<g id="node22" class="node">
<title>Node47</title>
<g id="a_node22"><a xlink:title=" ">
<polygon fill="none" stroke="#bfbfbf" points="2047.89,-132.5 2047.89,-152.5 2109.89,-152.5 2109.89,-132.5 2047.89,-132.5"/>
<text text-anchor="middle" x="2078.89" y="-139.7" font-family="-apple-system, BlinkMacSystemFont, 'Segoe UI', Roboto, Oxygen, Ubuntu, Cantarell, 'Fira Sans', 'Droid Sans', 'Helvetica Neue', sans-serif" font-size="11.00">exception</text>
</a>
</g>
</g>
<!-- Node1&#45;&gt;Node47 -->
<g id="edge55" class="edge">
<title>Node1&#45;&gt;Node47</title>
<path fill="none" stroke="midnightblue" d="M1837.91,-345.96C1912.68,-339.11 2038.03,-314.55 2089.89,-228 2101.96,-207.84 2094.82,-180.17 2087.66,-162.07"/>
<polygon fill="midnightblue" stroke="midnightblue" points="2090.76,-160.44 2083.58,-152.65 2084.34,-163.21 2090.76,-160.44"/>
</g>
<!-- Node49 -->
<g id="node23" class="node">
<title>Node49</title>
<g id="a_node23"><a xlink:href="NewFriendRequestEvent_8hpp.html" target="_top" xlink:title=" ">
<polygon fill="none" stroke="red" points="285.89,-126.5 285.89,-158.5 427.89,-158.5 427.89,-126.5 285.89,-126.5"/>
<text text-anchor="start" x="293.89" y="-145.7" font-family="-apple-system, BlinkMacSystemFont, 'Segoe UI', Roboto, Oxygen, Ubuntu, Cantarell, 'Fira Sans', 'Droid Sans', 'Helvetica Neue', sans-serif" font-size="11.00">libmirai/Events/NewFriend</text>
<text text-anchor="middle" x="356.89" y="-133.7" font-family="-apple-system, BlinkMacSystemFont, 'Segoe UI', Roboto, Oxygen, Ubuntu, Cantarell, 'Fira Sans', 'Droid Sans', 'Helvetica Neue', sans-serif" font-size="11.00">RequestEvent.hpp</text>
</a>
</g>
</g>
<!-- Node1&#45;&gt;Node49 -->
<g id="edge66" class="edge">
<title>Node1&#45;&gt;Node49</title>
<path fill="none" stroke="midnightblue" d="M1719.6,-348.27C1426.95,-346.95 147.57,-338.79 74.89,-297 32.24,-272.48 -0.06,-232.41 31.89,-195 62.62,-159.01 189.71,-148.03 275.56,-144.77"/>
<polygon fill="midnightblue" stroke="midnightblue" points="275.68,-148.27 285.55,-144.42 275.44,-141.27 275.68,-148.27"/>
</g>
<!-- Node50 -->
<g id="node24" class="node">
<title>Node50</title>
<g id="a_node24"><a xlink:href="StrangerMessageEvent_8hpp.html" target="_top" xlink:title=" ">
<polygon fill="none" stroke="red" points="1015.39,-195.5 1015.39,-227.5 1146.39,-227.5 1146.39,-195.5 1015.39,-195.5"/>
<text text-anchor="start" x="1023.39" y="-214.7" font-family="-apple-system, BlinkMacSystemFont, 'Segoe UI', Roboto, Oxygen, Ubuntu, Cantarell, 'Fira Sans', 'Droid Sans', 'Helvetica Neue', sans-serif" font-size="11.00">libmirai/Events/Stranger</text>
<text text-anchor="middle" x="1080.89" y="-202.7" font-family="-apple-system, BlinkMacSystemFont, 'Segoe UI', Roboto, Oxygen, Ubuntu, Cantarell, 'Fira Sans', 'Droid Sans', 'Helvetica Neue', sans-serif" font-size="11.00">MessageEvent.hpp</text>
</a>
</g>
</g>
<!-- Node1&#45;&gt;Node50 -->
<g id="edge67" class="edge">
<title>Node1&#45;&gt;Node50</title>
<path fill="none" stroke="midnightblue" d="M1719.68,-336.96C1593.23,-312.33 1296.94,-254.6 1156.85,-227.3"/>
<polygon fill="midnightblue" stroke="midnightblue" points="1157.11,-223.79 1146.63,-225.31 1155.77,-230.66 1157.11,-223.79"/>
</g>
<!-- Node51 -->
<g id="node25" class="node">
<title>Node51</title>
<g id="a_node25"><a xlink:href="TempMessageEvent_8hpp.html" target="_top" xlink:title=" ">
<polygon fill="none" stroke="red" points="319.89,-195.5 319.89,-227.5 479.89,-227.5 479.89,-195.5 319.89,-195.5"/>
<text text-anchor="start" x="327.89" y="-214.7" font-family="-apple-system, BlinkMacSystemFont, 'Segoe UI', Roboto, Oxygen, Ubuntu, Cantarell, 'Fira Sans', 'Droid Sans', 'Helvetica Neue', sans-serif" font-size="11.00">libmirai/Events/TempMessage</text>
<text text-anchor="middle" x="399.89" y="-202.7" font-family="-apple-system, BlinkMacSystemFont, 'Segoe UI', Roboto, Oxygen, Ubuntu, Cantarell, 'Fira Sans', 'Droid Sans', 'Helvetica Neue', sans-serif" font-size="11.00">Event.hpp</text>
</a>
</g>
</g>
<!-- Node1&#45;&gt;Node51 -->
<g id="edge68" class="edge">
<title>Node1&#45;&gt;Node51</title>
<path fill="none" stroke="midnightblue" d="M1719.8,-348.53C1567.42,-347.92 1148.89,-341.92 803.89,-297 684.47,-281.45 547.73,-249.9 467.88,-230.06"/>
<polygon fill="midnightblue" stroke="midnightblue" points="468.5,-226.61 457.95,-227.58 466.8,-233.4 468.5,-226.61"/>
</g>
<!-- Node52 -->
<g id="node26" class="node">
<title>Node52</title>
<g id="a_node26"><a xlink:href="Types_8hpp.html" target="_top" xlink:title=" ">
<polygon fill="none" stroke="red" points="1710.89,-201.5 1710.89,-221.5 1846.89,-221.5 1846.89,-201.5 1710.89,-201.5"/>
<text text-anchor="middle" x="1778.89" y="-208.7" font-family="-apple-system, BlinkMacSystemFont, 'Segoe UI', Roboto, Oxygen, Ubuntu, Cantarell, 'Fira Sans', 'Droid Sans', 'Helvetica Neue', sans-serif" font-size="11.00">libmirai/Types/Types.hpp</text>
</a>
</g>
</g>
<!-- Node1&#45;&gt;Node52 -->
<g id="edge73" class="edge">
<title>Node1&#45;&gt;Node52</title>
<path fill="none" stroke="midnightblue" d="M1778.89,-333.43C1778.89,-308.62 1778.89,-259.2 1778.89,-231.85"/>
<polygon fill="midnightblue" stroke="midnightblue" points="1782.39,-231.61 1778.89,-221.61 1775.39,-231.61 1782.39,-231.61"/>
</g>
<!-- Node56 -->
<g id="node28" class="node">
<title>Node56</title>
<g id="a_node28"><a xlink:title=" ">
<polygon fill="none" stroke="#bfbfbf" points="2212.89,-270.5 2212.89,-290.5 2320.89,-290.5 2320.89,-270.5 2212.89,-270.5"/>
<text text-anchor="middle" x="2266.89" y="-277.7" font-family="-apple-system, BlinkMacSystemFont, 'Segoe UI', Roboto, Oxygen, Ubuntu, Cantarell, 'Fira Sans', 'Droid Sans', 'Helvetica Neue', sans-serif" font-size="11.00">nlohmann/json.hpp</text>
</a>
</g>
</g>
<!-- Node1&#45;&gt;Node56 -->
<g id="edge60" class="edge">
<title>Node1&#45;&gt;Node56</title>
<path fill="none" stroke="midnightblue" d="M1837.94,-343.18C1919.48,-335.39 2070.98,-319.36 2198.89,-297 2205.78,-295.8 2213.02,-294.34 2220.11,-292.82"/>
<polygon fill="midnightblue" stroke="midnightblue" points="2221.32,-296.14 2230.32,-290.56 2219.8,-289.3 2221.32,-296.14"/>
</g>
<!-- Node57 -->
<g id="node29" class="node">
<title>Node57</title>
<g id="a_node29"><a xlink:title=" ">
<polygon fill="none" stroke="#bfbfbf" points="2338.89,-264.5 2338.89,-296.5 2462.89,-296.5 2462.89,-264.5 2338.89,-264.5"/>
<text text-anchor="start" x="2346.89" y="-283.7" font-family="-apple-system, BlinkMacSystemFont, 'Segoe UI', Roboto, Oxygen, Ubuntu, Cantarell, 'Fira Sans', 'Droid Sans', 'Helvetica Neue', sans-serif" font-size="11.00">libmirai/Impl/HttpClient</text>
<text text-anchor="middle" x="2400.89" y="-271.7" font-family="-apple-system, BlinkMacSystemFont, 'Segoe UI', Roboto, Oxygen, Ubuntu, Cantarell, 'Fira Sans', 'Droid Sans', 'Helvetica Neue', sans-serif" font-size="11.00">Impl.hpp</text>
</a>
</g>
</g>
<!-- Node1&#45;&gt;Node57 -->
<g id="edge70" class="edge">
<title>Node1&#45;&gt;Node57</title>
<path fill="none" stroke="midnightblue" d="M1837.89,-345.35C1937.22,-339.53 2144.22,-325.18 2328.48,-297.1"/>
<polygon fill="midnightblue" stroke="midnightblue" points="2329.28,-300.52 2338.63,-295.54 2328.21,-293.6 2329.28,-300.52"/>
</g>
<!-- Node58 -->
<g id="node30" class="node">
<title>Node58</title>
<g id="a_node30"><a xlink:title=" ">
<polygon fill="none" stroke="#bfbfbf" points="2481.39,-264.5 2481.39,-296.5 2628.39,-296.5 2628.39,-264.5 2481.39,-264.5"/>
<text text-anchor="start" x="2489.39" y="-283.7" font-family="-apple-system, BlinkMacSystemFont, 'Segoe UI', Roboto, Oxygen, Ubuntu, Cantarell, 'Fira Sans', 'Droid Sans', 'Helvetica Neue', sans-serif" font-size="11.00">libmirai/Impl/MessageClient</text>
<text text-anchor="middle" x="2554.89" y="-271.7" font-family="-apple-system, BlinkMacSystemFont, 'Segoe UI', Roboto, Oxygen, Ubuntu, Cantarell, 'Fira Sans', 'Droid Sans', 'Helvetica Neue', sans-serif" font-size="11.00">Impl.hpp</text>
</a>
</g>
</g>
<!-- Node1&#45;&gt;Node58 -->
<g id="edge71" class="edge">
<title>Node1&#45;&gt;Node58</title>
<path fill="none" stroke="midnightblue" d="M1837.98,-346.31C1956.26,-341.45 2230.66,-327.78 2471.2,-296.99"/>
<polygon fill="midnightblue" stroke="midnightblue" points="2471.72,-300.45 2481.19,-295.7 2470.82,-293.51 2471.72,-300.45"/>
</g>
<!-- Node59 -->
<g id="node31" class="node">
<title>Node59</title>
<g id="a_node31"><a xlink:title=" ">
<polygon fill="none" stroke="#bfbfbf" points="2646.89,-270.5 2646.89,-290.5 2788.89,-290.5 2788.89,-270.5 2646.89,-270.5"/>
<text text-anchor="middle" x="2717.89" y="-277.7" font-family="-apple-system, BlinkMacSystemFont, 'Segoe UI', Roboto, Oxygen, Ubuntu, Cantarell, 'Fira Sans', 'Droid Sans', 'Helvetica Neue', sans-serif" font-size="11.00">libmirai/Utils/Common.hpp</text>
</a>
</g>
</g>
<!-- Node1&#45;&gt;Node59 -->
<g id="edge74" class="edge">
<title>Node1&#45;&gt;Node59</title>
<path fill="none" stroke="midnightblue" d="M1837.98,-347.63C1977.64,-344.99 2338.85,-334.77 2637.89,-297 2647.37,-295.8 2657.41,-294.16 2667.07,-292.39"/>
<polygon fill="midnightblue" stroke="midnightblue" points="2667.77,-295.81 2676.94,-290.51 2666.47,-288.94 2667.77,-295.81"/>
</g>
<!-- Node60 -->
<g id="node32" class="node">
<title>Node60</title>
<g id="a_node32"><a xlink:title=" ">
<polygon fill="none" stroke="#bfbfbf" points="2807.39,-270.5 2807.39,-290.5 2962.39,-290.5 2962.39,-270.5 2807.39,-270.5"/>
<text text-anchor="middle" x="2884.89" y="-277.7" font-family="-apple-system, BlinkMacSystemFont, 'Segoe UI', Roboto, Oxygen, Ubuntu, Cantarell, 'Fira Sans', 'Droid Sans', 'Helvetica Neue', sans-serif" font-size="11.00">libmirai/Utils/ThreadPool.hpp</text>
</a>
</g>
</g>
<!-- Node1&#45;&gt;Node60 -->
<g id="edge75" class="edge">
<title>Node1&#45;&gt;Node60</title>
<path fill="none" stroke="midnightblue" d="M1837.97,-348.11C1994.84,-346.51 2434.67,-338.37 2797.89,-297 2808.4,-295.8 2819.56,-294.13 2830.26,-292.31"/>
<polygon fill="midnightblue" stroke="midnightblue" points="2831.09,-295.72 2840.34,-290.55 2829.88,-288.83 2831.09,-295.72"/>
</g>
<!-- Node2&#45;&gt;Node3 -->
<g id="edge2" class="edge">
<title>Node2&#45;&gt;Node3</title>
<path fill="none" stroke="midnightblue" d="M996,-279.82C880.75,-280.47 484.63,-278.64 162.89,-228 156.47,-226.99 149.74,-225.59 143.21,-224.05"/>
<polygon fill="midnightblue" stroke="midnightblue" points="143.72,-220.57 133.17,-221.54 142.02,-227.36 143.72,-220.57"/>
</g>
<!-- Node4 -->
<g id="node4" class="node">
<title>Node4</title>
<g id="a_node4"><a xlink:title=" ">
<polygon fill="none" stroke="#bfbfbf" points="793.89,-201.5 793.89,-221.5 857.89,-221.5 857.89,-201.5 793.89,-201.5"/>
<text text-anchor="middle" x="825.89" y="-208.7" font-family="-apple-system, BlinkMacSystemFont, 'Segoe UI', Roboto, Oxygen, Ubuntu, Cantarell, 'Fira Sans', 'Droid Sans', 'Helvetica Neue', sans-serif" font-size="11.00">filesystem</text>
</a>
</g>
</g>
<!-- Node2&#45;&gt;Node4 -->
<g id="edge3" class="edge">
<title>Node2&#45;&gt;Node4</title>
<path fill="none" stroke="midnightblue" d="M998.87,-270.49C966.23,-260.56 912.6,-243.89 866.89,-228 864.19,-227.06 861.41,-226.07 858.61,-225.05"/>
<polygon fill="midnightblue" stroke="midnightblue" points="859.82,-221.76 849.22,-221.57 857.38,-228.33 859.82,-221.76"/>
</g>
<!-- Node2&#45;&gt;Node5 -->
<g id="edge4" class="edge">
<title>Node2&#45;&gt;Node5</title>
<path fill="none" stroke="midnightblue" d="M996.11,-278.65C866.26,-275.09 387.8,-260.04 239.89,-228 236.25,-227.21 232.51,-226.16 228.84,-224.97"/>
<polygon fill="midnightblue" stroke="midnightblue" points="229.98,-221.67 219.38,-221.61 227.63,-228.26 229.98,-221.67"/>
</g>
<!-- Node6 -->
<g id="node6" class="node">
<title>Node6</title>
<g id="a_node6"><a xlink:title=" ">
<polygon fill="none" stroke="#bfbfbf" points="875.89,-201.5 875.89,-221.5 937.89,-221.5 937.89,-201.5 875.89,-201.5"/>
<text text-anchor="middle" x="906.89" y="-208.7" font-family="-apple-system, BlinkMacSystemFont, 'Segoe UI', Roboto, Oxygen, Ubuntu, Cantarell, 'Fira Sans', 'Droid Sans', 'Helvetica Neue', sans-serif" font-size="11.00">functional</text>
</a>
</g>
</g>
<!-- Node2&#45;&gt;Node6 -->
<g id="edge5" class="edge">
<title>Node2&#45;&gt;Node6</title>
<path fill="none" stroke="midnightblue" d="M1012.43,-270.46C991.88,-259.18 956.48,-239.74 932.4,-226.51"/>
<polygon fill="midnightblue" stroke="midnightblue" points="933.92,-223.35 923.47,-221.61 930.55,-229.49 933.92,-223.35"/>
</g>
<!-- Node7 -->
<g id="node7" class="node">
<title>Node7</title>
<g id="a_node7"><a xlink:title=" ">
<polygon fill="none" stroke="#bfbfbf" points="956.39,-201.5 956.39,-221.5 997.39,-221.5 997.39,-201.5 956.39,-201.5"/>
<text text-anchor="middle" x="976.89" y="-208.7" font-family="-apple-system, BlinkMacSystemFont, 'Segoe UI', Roboto, Oxygen, Ubuntu, Cantarell, 'Fira Sans', 'Droid Sans', 'Helvetica Neue', sans-serif" font-size="11.00">limits</text>
</a>
</g>
</g>
<!-- Node2&#45;&gt;Node7 -->
<g id="edge6" class="edge">
<title>Node2&#45;&gt;Node7</title>
<path fill="none" stroke="midnightblue" d="M1021.87,-270.46C1013.85,-260.13 1000.54,-242.97 990.47,-230"/>
<polygon fill="midnightblue" stroke="midnightblue" points="993.02,-227.58 984.12,-221.82 987.49,-231.87 993.02,-227.58"/>
</g>
<!-- Node2&#45;&gt;Node8 -->
<g id="edge7" class="edge">
<title>Node2&#45;&gt;Node8</title>
<path fill="none" stroke="midnightblue" d="M996.28,-279.27C862.04,-278.07 356.66,-270.7 300.89,-228 259.12,-196.02 253.39,-127.76 253.26,-94.1"/>
<polygon fill="midnightblue" stroke="midnightblue" points="256.77,-93.79 253.4,-83.75 249.77,-93.7 256.77,-93.79"/>
</g>
<!-- Node2&#45;&gt;Node9 -->
<g id="edge8" class="edge">
<title>Node2&#45;&gt;Node9</title>
<path fill="none" stroke="midnightblue" d="M1061.57,-278.05C1170.85,-273.01 1522.89,-255.02 1632.89,-228 1635.9,-227.26 1638.99,-226.31 1642.03,-225.24"/>
<polygon fill="midnightblue" stroke="midnightblue" points="1643.41,-228.46 1651.45,-221.55 1640.86,-221.94 1643.41,-228.46"/>
</g>
<!-- Node10 -->
<g id="node10" class="node">
<title>Node10</title>
<g id="a_node10"><a xlink:title=" ">
<polygon fill="none" stroke="#bfbfbf" points="661.89,-63.5 661.89,-83.5 715.89,-83.5 715.89,-63.5 661.89,-63.5"/>
<text text-anchor="middle" x="688.89" y="-70.7" font-family="-apple-system, BlinkMacSystemFont, 'Segoe UI', Roboto, Oxygen, Ubuntu, Cantarell, 'Fira Sans', 'Droid Sans', 'Helvetica Neue', sans-serif" font-size="11.00">optional</text>
</a>
</g>
</g>
<!-- Node2&#45;&gt;Node10 -->
<g id="edge9" class="edge">
<title>Node2&#45;&gt;Node10</title>
<path fill="none" stroke="midnightblue" d="M996.21,-274.82C923.73,-264.29 753.96,-238.85 729.89,-228 707.55,-217.93 654.48,-181.09 643.89,-159 637.54,-145.78 638.73,-139.73 643.89,-126 649.04,-112.28 659.68,-99.82 669.33,-90.59"/>
<polygon fill="midnightblue" stroke="midnightblue" points="671.96,-92.93 677.05,-83.64 667.27,-87.73 671.96,-92.93"/>
</g>
<!-- Node2&#45;&gt;Node11 -->
<g id="edge10" class="edge">
<title>Node2&#45;&gt;Node11</title>
<path fill="none" stroke="midnightblue" d="M1061.62,-278.58C1167.07,-275.28 1492.9,-262.38 1523.89,-228 1545.83,-203.66 1511.81,-188.67 1497.89,-159 1477.45,-115.47 1466.87,-59.35 1462.46,-30.49"/>
<polygon fill="midnightblue" stroke="midnightblue" points="1465.92,-29.93 1461.02,-20.54 1458.99,-30.94 1465.92,-29.93"/>
</g>
<!-- Node12 -->
<g id="node12" class="node">
<title>Node12</title>
<g id="a_node12"><a xlink:title=" ">
<polygon fill="none" stroke="#bfbfbf" points="1203.39,-201.5 1203.39,-221.5 1296.39,-221.5 1296.39,-201.5 1203.39,-201.5"/>
<text text-anchor="middle" x="1249.89" y="-208.7" font-family="-apple-system, BlinkMacSystemFont, 'Segoe UI', Roboto, Oxygen, Ubuntu, Cantarell, 'Fira Sans', 'Droid Sans', 'Helvetica Neue', sans-serif" font-size="11.00">unordered_map</text>
</a>
</g>
</g>
<!-- Node2&#45;&gt;Node12 -->
<g id="edge11" class="edge">
<title>Node2&#45;&gt;Node12</title>
<path fill="none" stroke="midnightblue" d="M1058.69,-270.46C1097.82,-258.6 1166.64,-237.74 1210.16,-224.54"/>
<polygon fill="midnightblue" stroke="midnightblue" points="1211.29,-227.86 1219.85,-221.61 1209.26,-221.16 1211.29,-227.86"/>
</g>
<!-- Node13 -->
<g id="node13" class="node">
<title>Node13</title>
<g id="a_node13"><a xlink:title=" ">
<polygon fill="none" stroke="#bfbfbf" points="743.89,-63.5 743.89,-83.5 789.89,-83.5 789.89,-63.5 743.89,-63.5"/>
<text text-anchor="middle" x="766.89" y="-70.7" font-family="-apple-system, BlinkMacSystemFont, 'Segoe UI', Roboto, Oxygen, Ubuntu, Cantarell, 'Fira Sans', 'Droid Sans', 'Helvetica Neue', sans-serif" font-size="11.00">vector</text>
</a>
</g>
</g>
<!-- Node2&#45;&gt;Node13 -->
<g id="edge12" class="edge">
<title>Node2&#45;&gt;Node13</title>
<path fill="none" stroke="midnightblue" d="M996.19,-274.91C932.79,-265.69 798.18,-244.39 784.89,-228 775.65,-216.61 780.37,-208.96 784.89,-195 790.96,-176.22 804.81,-177.78 810.89,-159 815.4,-145.04 815.96,-139.76 810.89,-126 805.86,-112.38 795.45,-99.92 786.02,-90.67"/>
<polygon fill="midnightblue" stroke="midnightblue" points="788.19,-87.91 778.47,-83.7 783.44,-93.05 788.19,-87.91"/>
</g>
<!-- Node14 -->
<g id="node14" class="node">
<title>Node14</title>
<g id="a_node14"><a xlink:title=" ">
<polygon fill="none" stroke="#bfbfbf" points="1109.39,-63.5 1109.39,-83.5 1240.39,-83.5 1240.39,-63.5 1109.39,-63.5"/>
<text text-anchor="middle" x="1174.89" y="-70.7" font-family="-apple-system, BlinkMacSystemFont, 'Segoe UI', Roboto, Oxygen, Ubuntu, Cantarell, 'Fira Sans', 'Droid Sans', 'Helvetica Neue', sans-serif" font-size="11.00">nlohmann/json_fwd.hpp</text>
</a>
</g>
</g>
<!-- Node2&#45;&gt;Node14 -->
<g id="edge13" class="edge">
<title>Node2&#45;&gt;Node14</title>
<path fill="none" stroke="midnightblue" d="M1061.53,-275.38C1090.79,-269.86 1132.47,-257.12 1154.89,-228 1185.41,-188.36 1182.12,-125.21 1178.05,-93.7"/>
<polygon fill="midnightblue" stroke="midnightblue" points="1181.49,-93.01 1176.58,-83.62 1174.56,-94.02 1181.49,-93.01"/>
</g>
<!-- Node2&#45;&gt;Node15 -->
<g id="edge14" class="edge">
<title>Node2&#45;&gt;Node15</title>
<path fill="none" stroke="midnightblue" d="M1061.44,-278.37C1170.47,-274.29 1518.12,-258.97 1556.89,-228 1574.61,-213.84 1581.22,-188.13 1583.63,-168.77"/>
<polygon fill="midnightblue" stroke="midnightblue" points="1587.11,-169.08 1584.58,-158.79 1580.14,-168.41 1587.11,-169.08"/>
</g>
<!-- Node2&#45;&gt;Node21 -->
<g id="edge17" class="edge">
<title>Node2&#45;&gt;Node21</title>
<path fill="none" stroke="midnightblue" d="M996.25,-274.91C933.94,-266.1 793.73,-246.11 675.89,-228 674.43,-227.78 672.95,-227.55 671.47,-227.32"/>
<polygon fill="midnightblue" stroke="midnightblue" points="671.99,-223.86 661.57,-225.78 670.92,-230.77 671.99,-223.86"/>
</g>
<!-- Node2&#45;&gt;Node22 -->
<g id="edge49" class="edge">
<title>Node2&#45;&gt;Node22</title>
<path fill="none" stroke="midnightblue" d="M996.21,-277.66C930.87,-273.32 787.32,-260.29 751.89,-228 735.51,-213.08 729.99,-187.87 728.28,-168.87"/>
<polygon fill="midnightblue" stroke="midnightblue" points="731.77,-168.55 727.67,-158.78 724.78,-168.98 731.77,-168.55"/>
</g>
<!-- Node2&#45;&gt;Node44 -->
<g id="edge27" class="edge">
<title>Node2&#45;&gt;Node44</title>
<path fill="none" stroke="midnightblue" d="M1061.69,-274.07C1122.16,-264.07 1253.19,-242.39 1342.48,-227.62"/>
<polygon fill="midnightblue" stroke="midnightblue" points="1343.32,-231.03 1352.61,-225.95 1342.18,-224.12 1343.32,-231.03"/>
</g>
<!-- Node2&#45;&gt;Node45 -->
<g id="edge31" class="edge">
<title>Node2&#45;&gt;Node45</title>
<path fill="none" stroke="midnightblue" d="M1061.45,-278.33C1164.74,-274.33 1483.95,-259.66 1581.89,-228 1609.37,-219.11 1612.18,-208.18 1637.89,-195 1660.68,-183.32 1686.71,-171.7 1708.41,-162.47"/>
<polygon fill="midnightblue" stroke="midnightblue" points="1709.89,-165.64 1717.74,-158.53 1707.17,-159.19 1709.89,-165.64"/>
</g>
<!-- Node2&#45;&gt;Node46 -->
<g id="edge34" class="edge">
<title>Node2&#45;&gt;Node46</title>
<path fill="none" stroke="midnightblue" d="M1061.62,-277.9C1172.96,-272.38 1547.25,-253.03 1855.89,-228 1880.3,-226.02 1906.84,-223.5 1930.94,-221.07"/>
<polygon fill="midnightblue" stroke="midnightblue" points="1931.51,-224.53 1941.11,-220.04 1930.81,-217.57 1931.51,-224.53"/>
</g>
<!-- Node2&#45;&gt;Node49 -->
<g id="edge38" class="edge">
<title>Node2&#45;&gt;Node49</title>
<path fill="none" stroke="midnightblue" d="M996.3,-279.7C862.25,-280.21 358.09,-278.71 310.89,-228 293.96,-209.81 312.23,-184.23 330.52,-165.99"/>
<polygon fill="midnightblue" stroke="midnightblue" points="333.4,-168.08 338.25,-158.66 328.58,-163 333.4,-168.08"/>
</g>
<!-- Node2&#45;&gt;Node50 -->
<g id="edge41" class="edge">
<title>Node2&#45;&gt;Node50</title>
<path fill="none" stroke="midnightblue" d="M1035.9,-270.46C1042.84,-261.53 1053.74,-247.48 1063.07,-235.45"/>
<polygon fill="midnightblue" stroke="midnightblue" points="1065.85,-237.58 1069.22,-227.53 1060.32,-233.29 1065.85,-237.58"/>
</g>
<!-- Node2&#45;&gt;Node51 -->
<g id="edge45" class="edge">
<title>Node2&#45;&gt;Node51</title>
<path fill="none" stroke="midnightblue" d="M996.22,-277.27C913.36,-271.42 688.1,-254.36 489.91,-228.07"/>
<polygon fill="midnightblue" stroke="midnightblue" points="490.27,-224.59 479.89,-226.73 489.34,-231.53 490.27,-224.59"/>
</g>
<!-- Node2&#45;&gt;Node52 -->
<g id="edge50" class="edge">
<title>Node2&#45;&gt;Node52</title>
<path fill="none" stroke="midnightblue" d="M1061.6,-278.41C1159.3,-274.87 1457.26,-261.85 1701.89,-228 1710.62,-226.79 1719.86,-225.2 1728.78,-223.51"/>
<polygon fill="midnightblue" stroke="midnightblue" points="1729.55,-226.92 1738.68,-221.56 1728.2,-220.06 1729.55,-226.92"/>
</g>
<!-- Node55 -->
<g id="node27" class="node">
<title>Node55</title>
<g id="a_node27"><a xlink:href="SessionConfig_8hpp.html" target="_top" xlink:title=" ">
<polygon fill="none" stroke="red" points="1267.39,-132.5 1267.39,-152.5 1374.39,-152.5 1374.39,-132.5 1267.39,-132.5"/>
<text text-anchor="middle" x="1320.89" y="-139.7" font-family="-apple-system, BlinkMacSystemFont, 'Segoe UI', Roboto, Oxygen, Ubuntu, Cantarell, 'Fira Sans', 'Droid Sans', 'Helvetica Neue', sans-serif" font-size="11.00">SessionConfig.hpp</text>
</a>
</g>
</g>
<!-- Node2&#45;&gt;Node55 -->
<g id="edge51" class="edge">
<title>Node2&#45;&gt;Node55</title>
<path fill="none" stroke="midnightblue" d="M1061.69,-277.9C1127.25,-274 1271.06,-261.73 1304.89,-228 1321.94,-210.99 1323.86,-181.86 1322.94,-162.64"/>
<polygon fill="midnightblue" stroke="midnightblue" points="1326.42,-162.34 1322.16,-152.64 1319.45,-162.88 1326.42,-162.34"/>
</g>
<!-- Node15&#45;&gt;Node11 -->
<g id="edge15" class="edge">
<title>Node15&#45;&gt;Node11</title>
<path fill="none" stroke="midnightblue" d="M1570.3,-126.33C1546.71,-101.8 1500.35,-53.58 1475.88,-28.13"/>
<polygon fill="midnightblue" stroke="midnightblue" points="1478.22,-25.51 1468.76,-20.73 1473.17,-30.37 1478.22,-25.51"/>
</g>
<!-- Node15&#45;&gt;Node14 -->
<g id="edge16" class="edge">
<title>Node15&#45;&gt;Node14</title>
<path fill="none" stroke="midnightblue" d="M1507.29,-128.82C1430.02,-116.19 1312.73,-97.03 1240.12,-85.16"/>
<polygon fill="midnightblue" stroke="midnightblue" points="1240.61,-81.69 1230.18,-83.54 1239.48,-88.6 1240.61,-81.69"/>
</g>
<!-- Node21&#45;&gt;Node11 -->
<g id="edge18" class="edge">
<title>Node21&#45;&gt;Node11</title>
<path fill="none" stroke="midnightblue" d="M581.96,-195.45C587.24,-163.59 604.39,-89.59 652.89,-57 718.09,-13.19 1286.63,-11.21 1428.11,-11.4"/>
<polygon fill="midnightblue" stroke="midnightblue" points="1428.28,-14.9 1438.28,-11.42 1428.29,-7.9 1428.28,-14.9"/>
</g>
<!-- Node21&#45;&gt;Node14 -->
<g id="edge19" class="edge">
<title>Node21&#45;&gt;Node14</title>
<path fill="none" stroke="midnightblue" d="M648.15,-195.45C694.16,-185.26 756.2,-171.44 810.89,-159 924.09,-133.24 1056.89,-102.21 1126.58,-85.86"/>
<polygon fill="midnightblue" stroke="midnightblue" points="1127.45,-89.25 1136.39,-83.55 1125.86,-82.43 1127.45,-89.25"/>
</g>
<!-- Node21&#45;&gt;Node22 -->
<g id="edge20" class="edge">
<title>Node21&#45;&gt;Node22</title>
<path fill="none" stroke="midnightblue" d="M613.1,-195.46C634.45,-185.8 662.38,-173.15 685.35,-162.76"/>
<polygon fill="midnightblue" stroke="midnightblue" points="686.86,-165.91 694.53,-158.6 683.97,-159.54 686.86,-165.91"/>
</g>
<!-- Node22&#45;&gt;Node8 -->
<g id="edge21" class="edge">
<title>Node22&#45;&gt;Node8</title>
<path fill="none" stroke="midnightblue" d="M653.3,-130.96C550.88,-116.48 370.48,-90.98 292.06,-79.9"/>
<polygon fill="midnightblue" stroke="midnightblue" points="292.53,-76.43 282.14,-78.49 291.55,-83.36 292.53,-76.43"/>
</g>
<!-- Node22&#45;&gt;Node10 -->
<g id="edge22" class="edge">
<title>Node22&#45;&gt;Node10</title>
<path fill="none" stroke="midnightblue" d="M719.04,-126.3C713.19,-116.25 705.49,-103.03 699.34,-92.46"/>
<polygon fill="midnightblue" stroke="midnightblue" points="702.28,-90.55 694.22,-83.66 696.23,-94.07 702.28,-90.55"/>
</g>
<!-- Node22&#45;&gt;Node13 -->
<g id="edge23" class="edge">
<title>Node22&#45;&gt;Node13</title>
<path fill="none" stroke="midnightblue" d="M736.74,-126.3C742.59,-116.25 750.28,-103.03 756.43,-92.46"/>
<polygon fill="midnightblue" stroke="midnightblue" points="759.55,-94.07 761.55,-83.66 753.5,-90.55 759.55,-94.07"/>
</g>
<!-- Node22&#45;&gt;Node14 -->
<g id="edge24" class="edge">
<title>Node22&#45;&gt;Node14</title>
<path fill="none" stroke="midnightblue" d="M802.45,-130.32C886.63,-117.71 1022.52,-97.34 1104.8,-85"/>
<polygon fill="midnightblue" stroke="midnightblue" points="1105.44,-88.45 1114.81,-83.5 1104.4,-81.53 1105.44,-88.45"/>
</g>
<!-- Node22&#45;&gt;Node27 -->
<g id="edge25" class="edge">
<title>Node22&#45;&gt;Node27</title>
<path fill="none" stroke="midnightblue" d="M802.79,-136.92C1007.2,-124.43 1571.96,-89.9 1761.18,-78.33"/>
<polygon fill="midnightblue" stroke="midnightblue" points="1761.47,-81.82 1771.24,-77.72 1761.04,-74.84 1761.47,-81.82"/>
</g>
<!-- Node27&#45;&gt;Node11 -->
<g id="edge26" class="edge">
<title>Node27&#45;&gt;Node11</title>
<path fill="none" stroke="midnightblue" d="M1771.35,-63.7C1694.67,-50.85 1554.42,-27.34 1491.69,-16.83"/>
<polygon fill="midnightblue" stroke="midnightblue" points="1492.05,-13.34 1481.61,-15.14 1490.89,-20.24 1492.05,-13.34"/>
</g>
<!-- Node44&#45;&gt;Node11 -->
<g id="edge28" class="edge">
<title>Node44&#45;&gt;Node11</title>
<path fill="none" stroke="midnightblue" d="M1435.88,-195.22C1440.56,-159.43 1452.21,-70.26 1457.36,-30.81"/>
<polygon fill="midnightblue" stroke="midnightblue" points="1460.86,-31.04 1458.69,-20.67 1453.92,-30.14 1460.86,-31.04"/>
</g>
<!-- Node44&#45;&gt;Node14 -->
<g id="edge29" class="edge">
<title>Node44&#45;&gt;Node14</title>
<path fill="none" stroke="midnightblue" d="M1428.93,-195.49C1421.82,-176.37 1406.89,-143.69 1382.89,-126 1344.77,-97.9 1293.13,-85.01 1250.84,-79.16"/>
<polygon fill="midnightblue" stroke="midnightblue" points="1251.23,-75.68 1240.86,-77.88 1250.34,-82.62 1251.23,-75.68"/>
</g>
<!-- Node44&#45;&gt;Node22 -->
<g id="edge30" class="edge">
<title>Node44&#45;&gt;Node22</title>
<path fill="none" stroke="midnightblue" d="M1352.73,-200.36C1336.87,-198.49 1320.37,-196.62 1304.89,-195 1130.29,-176.72 925.54,-159.43 812.92,-150.27"/>
<polygon fill="midnightblue" stroke="midnightblue" points="812.9,-146.76 802.65,-149.44 812.33,-153.74 812.9,-146.76"/>
</g>
<!-- Node45&#45;&gt;Node11 -->
<g id="edge32" class="edge">
<title>Node45&#45;&gt;Node11</title>
<path fill="none" stroke="midnightblue" d="M1720.76,-126.46C1662.53,-100.8 1544.93,-48.98 1489.75,-24.66"/>
<polygon fill="midnightblue" stroke="midnightblue" points="1491.07,-21.42 1480.51,-20.59 1488.25,-27.82 1491.07,-21.42"/>
</g>
<!-- Node45&#45;&gt;Node14 -->
<g id="edge33" class="edge">
<title>Node45&#45;&gt;Node14</title>
<path fill="none" stroke="midnightblue" d="M1680.28,-127.42C1677.11,-126.92 1673.97,-126.44 1670.89,-126 1522.54,-104.65 1348,-88.62 1250.54,-80.48"/>
<polygon fill="midnightblue" stroke="midnightblue" points="1250.74,-76.99 1240.48,-79.65 1250.16,-83.96 1250.74,-76.99"/>
</g>
<!-- Node46&#45;&gt;Node11 -->
<g id="edge36" class="edge">
<title>Node46&#45;&gt;Node11</title>
<path fill="none" stroke="midnightblue" d="M2003.76,-195.43C1987.77,-163.52 1945.71,-89.44 1885.89,-57 1817.78,-20.07 1578.44,-13.11 1491.64,-11.8"/>
<polygon fill="midnightblue" stroke="midnightblue" points="1491.64,-8.3 1481.6,-11.67 1491.55,-15.3 1491.64,-8.3"/>
</g>
<!-- Node46&#45;&gt;Node27 -->
<g id="edge37" class="edge">
<title>Node46&#45;&gt;Node27</title>
<path fill="none" stroke="midnightblue" d="M1990.16,-195.43C1956.74,-171.12 1890.87,-123.21 1852.83,-95.55"/>
<polygon fill="midnightblue" stroke="midnightblue" points="1854.85,-92.69 1844.71,-89.64 1850.73,-98.35 1854.85,-92.69"/>
</g>
<!-- Node46&#45;&gt;Node47 -->
<g id="edge35" class="edge">
<title>Node46&#45;&gt;Node47</title>
<path fill="none" stroke="midnightblue" d="M2026.32,-195.3C2037.04,-184.73 2051.31,-170.67 2062.28,-159.86"/>
<polygon fill="midnightblue" stroke="midnightblue" points="2064.92,-162.18 2069.59,-152.66 2060.01,-157.19 2064.92,-162.18"/>
</g>
<!-- Node49&#45;&gt;Node11 -->
<g id="edge39" class="edge">
<title>Node49&#45;&gt;Node11</title>
<path fill="none" stroke="midnightblue" d="M371.51,-126.16C391.84,-106.02 430.78,-71.54 471.89,-57 563.77,-24.51 1269.74,-13.86 1428.33,-11.87"/>
<polygon fill="midnightblue" stroke="midnightblue" points="1428.42,-15.37 1438.38,-11.74 1428.34,-8.37 1428.42,-15.37"/>
</g>
<!-- Node49&#45;&gt;Node14 -->
<g id="edge40" class="edge">
<title>Node49&#45;&gt;Node14</title>
<path fill="none" stroke="midnightblue" d="M427.99,-134.74C457.9,-131.94 493.08,-128.73 524.89,-126 732.56,-108.19 977.77,-89.36 1099.07,-80.19"/>
<polygon fill="midnightblue" stroke="midnightblue" points="1099.65,-83.65 1109.36,-79.41 1099.12,-76.67 1099.65,-83.65"/>
</g>
<!-- Node50&#45;&gt;Node11 -->
<g id="edge42" class="edge">
<title>Node50&#45;&gt;Node11</title>
<path fill="none" stroke="midnightblue" d="M1077.4,-195.3C1071.33,-164.45 1062.72,-94.26 1099.89,-57 1145.46,-11.31 1348.64,-9.61 1427.99,-10.75"/>
<polygon fill="midnightblue" stroke="midnightblue" points="1428.28,-14.26 1438.33,-10.93 1428.39,-7.26 1428.28,-14.26"/>
</g>
<!-- Node50&#45;&gt;Node14 -->
<g id="edge43" class="edge">
<title>Node50&#45;&gt;Node14</title>
<path fill="none" stroke="midnightblue" d="M1091.31,-195.43C1108.84,-170.06 1144.14,-118.99 1162.76,-92.05"/>
<polygon fill="midnightblue" stroke="midnightblue" points="1165.78,-93.83 1168.59,-83.61 1160.03,-89.85 1165.78,-93.83"/>
</g>
<!-- Node50&#45;&gt;Node22 -->
<g id="edge44" class="edge">
<title>Node50&#45;&gt;Node22</title>
<path fill="none" stroke="midnightblue" d="M1015.05,-196.81C1011.95,-196.2 1008.89,-195.59 1005.89,-195 941.15,-182.32 867.78,-168.76 812.67,-158.74"/>
<polygon fill="midnightblue" stroke="midnightblue" points="813.06,-155.25 802.6,-156.91 811.81,-162.14 813.06,-155.25"/>
</g>
<!-- Node51&#45;&gt;Node11 -->
<g id="edge46" class="edge">
<title>Node51&#45;&gt;Node11</title>
<path fill="none" stroke="midnightblue" d="M415.05,-195.06C448.24,-162.43 531.29,-87.02 617.89,-57 695.4,-30.13 1282.75,-15.43 1427.65,-12.19"/>
<polygon fill="midnightblue" stroke="midnightblue" points="1428.14,-15.68 1438.06,-11.96 1427.98,-8.68 1428.14,-15.68"/>
</g>
<!-- Node51&#45;&gt;Node14 -->
<g id="edge47" class="edge">
<title>Node51&#45;&gt;Node14</title>
<path fill="none" stroke="midnightblue" d="M435.09,-195.34C481.85,-175.89 567.46,-142.69 643.89,-126 803.48,-91.14 995.22,-79.87 1099.05,-76.23"/>
<polygon fill="midnightblue" stroke="midnightblue" points="1099.25,-79.73 1109.13,-75.89 1099.02,-72.73 1099.25,-79.73"/>
</g>
<!-- Node51&#45;&gt;Node22 -->
<g id="edge48" class="edge">
<title>Node51&#45;&gt;Node22</title>
<path fill="none" stroke="midnightblue" d="M473.5,-195.46C524.16,-185.12 591.55,-171.35 644.24,-160.59"/>
<polygon fill="midnightblue" stroke="midnightblue" points="645.14,-163.97 654.24,-158.54 643.74,-157.12 645.14,-163.97"/>
</g>
<!-- Node55&#45;&gt;Node11 -->
<g id="edge52" class="edge">
<title>Node55&#45;&gt;Node11</title>
<path fill="none" stroke="midnightblue" d="M1330.88,-132.15C1354.33,-110.23 1413.07,-55.28 1442.51,-27.75"/>
<polygon fill="midnightblue" stroke="midnightblue" points="1445.07,-30.15 1449.98,-20.76 1440.29,-25.04 1445.07,-30.15"/>
</g>
<!-- Node55&#45;&gt;Node14 -->
<g id="edge53" class="edge">
<title>Node55&#45;&gt;Node14</title>
<path fill="none" stroke="midnightblue" d="M1301.2,-132.46C1276.16,-120.98 1232.73,-101.05 1203.9,-87.82"/>
<polygon fill="midnightblue" stroke="midnightblue" points="1205.28,-84.6 1194.73,-83.61 1202.36,-90.96 1205.28,-84.6"/>
</g>
</g>
</svg>
