<?xml version="1.0" encoding="UTF-8" standalone="no"?>
<!DOCTYPE svg PUBLIC "-//W3C//DTD SVG 1.1//EN"
 "http://www.w3.org/Graphics/SVG/1.1/DTD/svg11.dtd">
<!-- Generated by graphviz version 3.0.0 (20221109.1736)
 -->
<!-- Title: libmirai/api/libmirai/Client/Client.hpp Pages: 1 -->
<svg width="1321pt" height="167pt"
 viewBox="0.00 0.00 1320.50 167.00" xmlns="http://www.w3.org/2000/svg" xmlns:xlink="http://www.w3.org/1999/xlink">
<g id="graph0" class="graph" transform="scale(1 1) rotate(0) translate(4 163)">
<title>libmirai/api/libmirai/Client/Client.hpp</title>
<!-- Node1 -->
<g id="node1" class="node">
<title>Node1</title>
<g id="a_node1"><a xlink:title=" ">
<polygon fill="#bfbfbf" stroke="black" points="571,-126.5 571,-158.5 675,-158.5 675,-126.5 571,-126.5"/>
<text text-anchor="start" x="579" y="-145.7" font-family="-apple-system, BlinkMacSystemFont, 'Segoe UI', Roboto, Oxygen, Ubuntu, Cantarell, 'Fira Sans', 'Droid Sans', 'Helvetica Neue', sans-serif" font-size="11.00">libmirai/api/libmirai</text>
<text text-anchor="middle" x="623" y="-133.7" font-family="-apple-system, BlinkMacSystemFont, 'Segoe UI', Roboto, Oxygen, Ubuntu, Cantarell, 'Fira Sans', 'Droid Sans', 'Helvetica Neue', sans-serif" font-size="11.00">/Client/Client.hpp</text>
</a>
</g>
</g>
<!-- Node2 -->
<g id="node2" class="node">
<title>Node2</title>
<g id="a_node2"><a xlink:title=" ">
<polygon fill="none" stroke="#bfbfbf" points="0,-63.5 0,-83.5 64,-83.5 64,-63.5 0,-63.5"/>
<text text-anchor="middle" x="32" y="-70.7" font-family="-apple-system, BlinkMacSystemFont, 'Segoe UI', Roboto, Oxygen, Ubuntu, Cantarell, 'Fira Sans', 'Droid Sans', 'Helvetica Neue', sans-serif" font-size="11.00">filesystem</text>
</a>
</g>
</g>
<!-- Node1&#45;&gt;Node2 -->
<g id="edge1" class="edge">
<title>Node1&#45;&gt;Node2</title>
<path fill="none" stroke="midnightblue" d="M570.7,-141.24C472.07,-139.73 252.39,-131.51 73,-90 69.56,-89.2 66.02,-88.19 62.53,-87.06"/>
<polygon fill="midnightblue" stroke="midnightblue" points="63.54,-83.7 52.94,-83.65 61.2,-90.3 63.54,-83.7"/>
</g>
<!-- Node3 -->
<g id="node3" class="node">
<title>Node3</title>
<g id="a_node3"><a xlink:title=" ">
<polygon fill="none" stroke="#bfbfbf" points="82.5,-63.5 82.5,-83.5 135.5,-83.5 135.5,-63.5 82.5,-63.5"/>
<text text-anchor="middle" x="109" y="-70.7" font-family="-apple-system, BlinkMacSystemFont, 'Segoe UI', Roboto, Oxygen, Ubuntu, Cantarell, 'Fira Sans', 'Droid Sans', 'Helvetica Neue', sans-serif" font-size="11.00">fstream</text>
</a>
</g>
</g>
<!-- Node1&#45;&gt;Node3 -->
<g id="edge2" class="edge">
<title>Node1&#45;&gt;Node3</title>
<path fill="none" stroke="midnightblue" d="M570.82,-140.12C482.88,-136.83 300.02,-125.91 150,-90 146.57,-89.18 143.03,-88.14 139.54,-87"/>
<polygon fill="midnightblue" stroke="midnightblue" points="140.55,-83.65 129.96,-83.59 138.2,-90.24 140.55,-83.65"/>
</g>
<!-- Node4 -->
<g id="node4" class="node">
<title>Node4</title>
<g id="a_node4"><a xlink:title=" ">
<polygon fill="none" stroke="#bfbfbf" points="438,-0.5 438,-20.5 500,-20.5 500,-0.5 438,-0.5"/>
<text text-anchor="middle" x="469" y="-7.7" font-family="-apple-system, BlinkMacSystemFont, 'Segoe UI', Roboto, Oxygen, Ubuntu, Cantarell, 'Fira Sans', 'Droid Sans', 'Helvetica Neue', sans-serif" font-size="11.00">functional</text>
</a>
</g>
</g>
<!-- Node1&#45;&gt;Node4 -->
<g id="edge3" class="edge">
<title>Node1&#45;&gt;Node4</title>
<path fill="none" stroke="midnightblue" d="M570.87,-129.36C547.01,-121.54 519.9,-109.14 501,-90 484.97,-73.77 476.62,-48.4 472.52,-30.92"/>
<polygon fill="midnightblue" stroke="midnightblue" points="475.87,-29.83 470.41,-20.75 469.02,-31.25 475.87,-29.83"/>
</g>
<!-- Node5 -->
<g id="node5" class="node">
<title>Node5</title>
<g id="a_node5"><a xlink:title=" ">
<polygon fill="none" stroke="#bfbfbf" points="992.5,-63.5 992.5,-83.5 1033.5,-83.5 1033.5,-63.5 992.5,-63.5"/>
<text text-anchor="middle" x="1013" y="-70.7" font-family="-apple-system, BlinkMacSystemFont, 'Segoe UI', Roboto, Oxygen, Ubuntu, Cantarell, 'Fira Sans', 'Droid Sans', 'Helvetica Neue', sans-serif" font-size="11.00">limits</text>
</a>
</g>
</g>
<!-- Node1&#45;&gt;Node5 -->
<g id="edge4" class="edge">
<title>Node1&#45;&gt;Node5</title>
<path fill="none" stroke="midnightblue" d="M675.08,-138.4C745.11,-133.23 872.97,-120.26 978,-90 980.6,-89.25 983.27,-88.35 985.9,-87.35"/>
<polygon fill="midnightblue" stroke="midnightblue" points="987.29,-90.57 995.19,-83.51 984.61,-84.1 987.29,-90.57"/>
</g>
<!-- Node6 -->
<g id="node6" class="node">
<title>Node6</title>
<g id="a_node6"><a xlink:title=" ">
<polygon fill="none" stroke="#bfbfbf" points="137,-0.5 137,-20.5 193,-20.5 193,-0.5 137,-0.5"/>
<text text-anchor="middle" x="165" y="-7.7" font-family="-apple-system, BlinkMacSystemFont, 'Segoe UI', Roboto, Oxygen, Ubuntu, Cantarell, 'Fira Sans', 'Droid Sans', 'Helvetica Neue', sans-serif" font-size="11.00">memory</text>
</a>
</g>
</g>
<!-- Node1&#45;&gt;Node6 -->
<g id="edge5" class="edge">
<title>Node1&#45;&gt;Node6</title>
<path fill="none" stroke="midnightblue" d="M570.82,-140.7C473.31,-138.28 268.05,-128.63 210,-90 189.01,-76.03 176.65,-48.72 170.35,-30.29"/>
<polygon fill="midnightblue" stroke="midnightblue" points="173.65,-29.13 167.32,-20.63 166.98,-31.22 173.65,-29.13"/>
</g>
<!-- Node7 -->
<g id="node7" class="node">
<title>Node7</title>
<g id="a_node7"><a xlink:title=" ">
<polygon fill="none" stroke="#bfbfbf" points="215,-0.5 215,-20.5 269,-20.5 269,-0.5 215,-0.5"/>
<text text-anchor="middle" x="242" y="-7.7" font-family="-apple-system, BlinkMacSystemFont, 'Segoe UI', Roboto, Oxygen, Ubuntu, Cantarell, 'Fira Sans', 'Droid Sans', 'Helvetica Neue', sans-serif" font-size="11.00">optional</text>
</a>
</g>
</g>
<!-- Node1&#45;&gt;Node7 -->
<g id="edge6" class="edge">
<title>Node1&#45;&gt;Node7</title>
<path fill="none" stroke="midnightblue" d="M570.73,-138.61C466.94,-132.35 242.84,-115.94 220,-90 205.09,-73.06 217.29,-46.76 228.61,-29.34"/>
<polygon fill="midnightblue" stroke="midnightblue" points="231.79,-30.9 234.64,-20.69 226.05,-26.9 231.79,-30.9"/>
</g>
<!-- Node8 -->
<g id="node8" class="node">
<title>Node8</title>
<g id="a_node8"><a xlink:title=" ">
<polygon fill="none" stroke="#bfbfbf" points="1051.5,-63.5 1051.5,-83.5 1136.5,-83.5 1136.5,-63.5 1051.5,-63.5"/>
<text text-anchor="middle" x="1094" y="-70.7" font-family="-apple-system, BlinkMacSystemFont, 'Segoe UI', Roboto, Oxygen, Ubuntu, Cantarell, 'Fira Sans', 'Droid Sans', 'Helvetica Neue', sans-serif" font-size="11.00">shared_mutex</text>
</a>
</g>
</g>
<!-- Node1&#45;&gt;Node8 -->
<g id="edge7" class="edge">
<title>Node1&#45;&gt;Node8</title>
<path fill="none" stroke="midnightblue" d="M675.2,-138.02C755.1,-132.03 912.19,-117.68 1043,-90 1047.78,-88.99 1052.77,-87.73 1057.66,-86.38"/>
<polygon fill="midnightblue" stroke="midnightblue" points="1058.88,-89.67 1067.49,-83.51 1056.91,-82.95 1058.88,-89.67"/>
</g>
<!-- Node9 -->
<g id="node9" class="node">
<title>Node9</title>
<g id="a_node9"><a xlink:title=" ">
<polygon fill="none" stroke="#bfbfbf" points="648.5,-0.5 648.5,-20.5 691.5,-20.5 691.5,-0.5 648.5,-0.5"/>
<text text-anchor="middle" x="670" y="-7.7" font-family="-apple-system, BlinkMacSystemFont, 'Segoe UI', Roboto, Oxygen, Ubuntu, Cantarell, 'Fira Sans', 'Droid Sans', 'Helvetica Neue', sans-serif" font-size="11.00">string</text>
</a>
</g>
</g>
<!-- Node1&#45;&gt;Node9 -->
<g id="edge8" class="edge">
<title>Node1&#45;&gt;Node9</title>
<path fill="none" stroke="midnightblue" d="M632.68,-126.23C638.66,-116.24 646.1,-102.73 651,-90 658.54,-70.44 663.75,-46.95 666.78,-30.8"/>
<polygon fill="midnightblue" stroke="midnightblue" points="670.23,-31.38 668.54,-20.92 663.34,-30.16 670.23,-31.38"/>
</g>
<!-- Node10 -->
<g id="node10" class="node">
<title>Node10</title>
<g id="a_node10"><a xlink:title=" ">
<polygon fill="none" stroke="#bfbfbf" points="1154.5,-63.5 1154.5,-83.5 1201.5,-83.5 1201.5,-63.5 1154.5,-63.5"/>
<text text-anchor="middle" x="1178" y="-70.7" font-family="-apple-system, BlinkMacSystemFont, 'Segoe UI', Roboto, Oxygen, Ubuntu, Cantarell, 'Fira Sans', 'Droid Sans', 'Helvetica Neue', sans-serif" font-size="11.00">thread</text>
</a>
</g>
</g>
<!-- Node1&#45;&gt;Node10 -->
<g id="edge9" class="edge">
<title>Node1&#45;&gt;Node10</title>
<path fill="none" stroke="midnightblue" d="M675.34,-142.37C770.78,-142.64 978.7,-137.13 1146,-90 1148.31,-89.35 1150.65,-88.54 1152.96,-87.64"/>
<polygon fill="midnightblue" stroke="midnightblue" points="1154.45,-90.81 1162.16,-83.54 1151.6,-84.41 1154.45,-90.81"/>
</g>
<!-- Node11 -->
<g id="node11" class="node">
<title>Node11</title>
<g id="a_node11"><a xlink:title=" ">
<polygon fill="none" stroke="#bfbfbf" points="354,-0.5 354,-20.5 420,-20.5 420,-0.5 354,-0.5"/>
<text text-anchor="middle" x="387" y="-7.7" font-family="-apple-system, BlinkMacSystemFont, 'Segoe UI', Roboto, Oxygen, Ubuntu, Cantarell, 'Fira Sans', 'Droid Sans', 'Helvetica Neue', sans-serif" font-size="11.00">type_traits</text>
</a>
</g>
</g>
<!-- Node1&#45;&gt;Node11 -->
<g id="edge10" class="edge">
<title>Node1&#45;&gt;Node11</title>
<path fill="none" stroke="midnightblue" d="M570.92,-128.35C542.08,-119.81 506.25,-107.07 477,-90 447.76,-72.94 419.21,-45.71 402.36,-28.22"/>
<polygon fill="midnightblue" stroke="midnightblue" points="404.49,-25.37 395.08,-20.5 399.4,-30.18 404.49,-25.37"/>
</g>
<!-- Node12 -->
<g id="node12" class="node">
<title>Node12</title>
<g id="a_node12"><a xlink:title=" ">
<polygon fill="none" stroke="#bfbfbf" points="1219.5,-63.5 1219.5,-83.5 1312.5,-83.5 1312.5,-63.5 1219.5,-63.5"/>
<text text-anchor="middle" x="1266" y="-70.7" font-family="-apple-system, BlinkMacSystemFont, 'Segoe UI', Roboto, Oxygen, Ubuntu, Cantarell, 'Fira Sans', 'Droid Sans', 'Helvetica Neue', sans-serif" font-size="11.00">unordered_map</text>
</a>
</g>
</g>
<!-- Node1&#45;&gt;Node12 -->
<g id="edge11" class="edge">
<title>Node1&#45;&gt;Node12</title>
<path fill="none" stroke="midnightblue" d="M675.35,-140.2C778.6,-136.91 1015.45,-125.79 1211,-90 1216.49,-89 1222.22,-87.68 1227.83,-86.25"/>
<polygon fill="midnightblue" stroke="midnightblue" points="1228.96,-89.57 1237.69,-83.57 1227.12,-82.81 1228.96,-89.57"/>
</g>
<!-- Node13 -->
<g id="node13" class="node">
<title>Node13</title>
<g id="a_node13"><a xlink:title=" ">
<polygon fill="none" stroke="#bfbfbf" points="709.5,-0.5 709.5,-20.5 758.5,-20.5 758.5,-0.5 709.5,-0.5"/>
<text text-anchor="middle" x="734" y="-7.7" font-family="-apple-system, BlinkMacSystemFont, 'Segoe UI', Roboto, Oxygen, Ubuntu, Cantarell, 'Fira Sans', 'Droid Sans', 'Helvetica Neue', sans-serif" font-size="11.00">variant</text>
</a>
</g>
</g>
<!-- Node1&#45;&gt;Node13 -->
<g id="edge12" class="edge">
<title>Node1&#45;&gt;Node13</title>
<path fill="none" stroke="midnightblue" d="M637.21,-126.38C646.65,-116.22 659.25,-102.46 670,-90 687.83,-69.33 707.57,-44.86 720.35,-28.8"/>
<polygon fill="midnightblue" stroke="midnightblue" points="723.21,-30.83 726.68,-20.82 717.72,-26.48 723.21,-30.83"/>
</g>
<!-- Node14 -->
<g id="node14" class="node">
<title>Node14</title>
<g id="a_node14"><a xlink:title=" ">
<polygon fill="none" stroke="#bfbfbf" points="289,-0.5 289,-20.5 335,-20.5 335,-0.5 289,-0.5"/>
<text text-anchor="middle" x="312" y="-7.7" font-family="-apple-system, BlinkMacSystemFont, 'Segoe UI', Roboto, Oxygen, Ubuntu, Cantarell, 'Fira Sans', 'Droid Sans', 'Helvetica Neue', sans-serif" font-size="11.00">vector</text>
</a>
</g>
</g>
<!-- Node1&#45;&gt;Node14 -->
<g id="edge13" class="edge">
<title>Node1&#45;&gt;Node14</title>
<path fill="none" stroke="midnightblue" d="M570.71,-133.57C530.45,-126.08 474.21,-112.56 429,-90 407.76,-79.4 406.52,-70.51 387,-57 370.87,-45.83 351.99,-34.39 337.21,-25.77"/>
<polygon fill="midnightblue" stroke="midnightblue" points="338.57,-22.51 328.15,-20.54 335.07,-28.57 338.57,-22.51"/>
</g>
<!-- Node15 -->
<g id="node15" class="node">
<title>Node15</title>
<g id="a_node15"><a xlink:href="IAdaptor_8hpp.html" target="_top" xlink:title=" ">
<polygon fill="none" stroke="black" points="736,-63.5 736,-83.5 898,-83.5 898,-63.5 736,-63.5"/>
<text text-anchor="middle" x="817" y="-70.7" font-family="-apple-system, BlinkMacSystemFont, 'Segoe UI', Roboto, Oxygen, Ubuntu, Cantarell, 'Fira Sans', 'Droid Sans', 'Helvetica Neue', sans-serif" font-size="11.00">libmirai/Adaptors/IAdaptor.hpp</text>
</a>
</g>
</g>
<!-- Node1&#45;&gt;Node15 -->
<g id="edge14" class="edge">
<title>Node1&#45;&gt;Node15</title>
<path fill="none" stroke="midnightblue" d="M666.54,-126.46C701.16,-114.51 749,-97.98 781.37,-86.8"/>
<polygon fill="midnightblue" stroke="midnightblue" points="782.58,-90.09 790.89,-83.52 780.29,-83.47 782.58,-90.09"/>
</g>
<!-- Node16 -->
<g id="node16" class="node">
<title>Node16</title>
<g id="a_node16"><a xlink:href="Events_8hpp.html" target="_top" xlink:title=" ">
<polygon fill="none" stroke="red" points="777,-0.5 777,-20.5 919,-20.5 919,-0.5 777,-0.5"/>
<text text-anchor="middle" x="848" y="-7.7" font-family="-apple-system, BlinkMacSystemFont, 'Segoe UI', Roboto, Oxygen, Ubuntu, Cantarell, 'Fira Sans', 'Droid Sans', 'Helvetica Neue', sans-serif" font-size="11.00">libmirai/Events/Events.hpp</text>
</a>
</g>
</g>
<!-- Node1&#45;&gt;Node16 -->
<g id="edge20" class="edge">
<title>Node1&#45;&gt;Node16</title>
<path fill="none" stroke="midnightblue" d="M675.28,-139.75C749.07,-136.05 878.05,-124.67 907,-90 916.4,-78.74 913.47,-70.16 907,-57 900.5,-43.77 888.09,-33.31 876.33,-25.76"/>
<polygon fill="midnightblue" stroke="midnightblue" points="877.95,-22.66 867.57,-20.57 874.38,-28.68 877.95,-22.66"/>
</g>
<!-- Node63 -->
<g id="node17" class="node">
<title>Node63</title>
<g id="a_node17"><a xlink:href="Types_8hpp.html" target="_top" xlink:title=" ">
<polygon fill="none" stroke="red" points="937,-0.5 937,-20.5 1073,-20.5 1073,-0.5 937,-0.5"/>
<text text-anchor="middle" x="1005" y="-7.7" font-family="-apple-system, BlinkMacSystemFont, 'Segoe UI', Roboto, Oxygen, Ubuntu, Cantarell, 'Fira Sans', 'Droid Sans', 'Helvetica Neue', sans-serif" font-size="11.00">libmirai/Types/Types.hpp</text>
</a>
</g>
</g>
<!-- Node1&#45;&gt;Node63 -->
<g id="edge27" class="edge">
<title>Node1&#45;&gt;Node63</title>
<path fill="none" stroke="midnightblue" d="M675.15,-141.77C737.58,-140.09 843.75,-130.72 924,-90 952.81,-75.38 978.13,-46.99 992.49,-28.66"/>
<polygon fill="midnightblue" stroke="midnightblue" points="995.37,-30.66 998.63,-20.58 989.8,-26.43 995.37,-30.66"/>
</g>
<!-- Node26 -->
<g id="node18" class="node">
<title>Node26</title>
<g id="a_node18"><a xlink:href="MessageChain_8hpp.html" target="_top" xlink:title=" ">
<polygon fill="none" stroke="red" points="229.5,-57.5 229.5,-89.5 378.5,-89.5 378.5,-57.5 229.5,-57.5"/>
<text text-anchor="start" x="237.5" y="-76.7" font-family="-apple-system, BlinkMacSystemFont, 'Segoe UI', Roboto, Oxygen, Ubuntu, Cantarell, 'Fira Sans', 'Droid Sans', 'Helvetica Neue', sans-serif" font-size="11.00">libmirai/Messages/Message</text>
<text text-anchor="middle" x="304" y="-64.7" font-family="-apple-system, BlinkMacSystemFont, 'Segoe UI', Roboto, Oxygen, Ubuntu, Cantarell, 'Fira Sans', 'Droid Sans', 'Helvetica Neue', sans-serif" font-size="11.00">Chain.hpp</text>
</a>
</g>
</g>
<!-- Node1&#45;&gt;Node26 -->
<g id="edge21" class="edge">
<title>Node1&#45;&gt;Node26</title>
<path fill="none" stroke="midnightblue" d="M570.68,-130.51C520.39,-119.95 443.63,-103.83 385.36,-91.59"/>
<polygon fill="midnightblue" stroke="midnightblue" points="385.94,-88.13 375.44,-89.5 384.5,-94.98 385.94,-88.13"/>
</g>
<!-- Node65 -->
<g id="node19" class="node">
<title>Node65</title>
<g id="a_node19"><a xlink:href="Logger_8hpp.html" target="_top" xlink:title=" ">
<polygon fill="none" stroke="black" points="510,-63.5 510,-83.5 642,-83.5 642,-63.5 510,-63.5"/>
<text text-anchor="middle" x="576" y="-70.7" font-family="-apple-system, BlinkMacSystemFont, 'Segoe UI', Roboto, Oxygen, Ubuntu, Cantarell, 'Fira Sans', 'Droid Sans', 'Helvetica Neue', sans-serif" font-size="11.00">libmirai/Utils/Logger.hpp</text>
</a>
</g>
</g>
<!-- Node1&#45;&gt;Node65 -->
<g id="edge28" class="edge">
<title>Node1&#45;&gt;Node65</title>
<path fill="none" stroke="midnightblue" d="M612.33,-126.3C605.21,-116.14 595.82,-102.76 588.37,-92.14"/>
<polygon fill="midnightblue" stroke="midnightblue" points="591.04,-89.84 582.43,-83.66 585.31,-93.86 591.04,-89.84"/>
</g>
<!-- Node15&#45;&gt;Node4 -->
<g id="edge15" class="edge">
<title>Node15&#45;&gt;Node4</title>
<path fill="none" stroke="midnightblue" d="M755.71,-63.5C695.58,-54.39 601.09,-39.32 510.31,-21.17"/>
<polygon fill="midnightblue" stroke="midnightblue" points="510.89,-17.71 500.4,-19.17 509.51,-24.58 510.89,-17.71"/>
</g>
<!-- Node15&#45;&gt;Node9 -->
<g id="edge16" class="edge">
<title>Node15&#45;&gt;Node9</title>
<path fill="none" stroke="midnightblue" d="M795.31,-63.5C770.45,-53.18 729.5,-36.19 701.21,-24.45"/>
<polygon fill="midnightblue" stroke="midnightblue" points="702.36,-21.14 691.78,-20.54 699.67,-27.6 702.36,-21.14"/>
</g>
<!-- Node15&#45;&gt;Node13 -->
<g id="edge17" class="edge">
<title>Node15&#45;&gt;Node13</title>
<path fill="none" stroke="midnightblue" d="M804.75,-63.5C791.51,-53.77 770.19,-38.1 754.41,-26.5"/>
<polygon fill="midnightblue" stroke="midnightblue" points="756.43,-23.64 746.3,-20.54 752.28,-29.28 756.43,-23.64"/>
</g>
<!-- Node15&#45;&gt;Node16 -->
<g id="edge18" class="edge">
<title>Node15&#45;&gt;Node16</title>
<path fill="none" stroke="midnightblue" d="M821.57,-63.5C826.11,-54.58 833.18,-40.67 838.86,-29.48"/>
<polygon fill="midnightblue" stroke="midnightblue" points="842,-31.04 843.41,-20.54 835.76,-27.87 842,-31.04"/>
</g>
<!-- Node15&#45;&gt;Node63 -->
<g id="edge19" class="edge">
<title>Node15&#45;&gt;Node63</title>
<path fill="none" stroke="midnightblue" d="M844.74,-63.5C877.23,-52.96 931.21,-35.44 967.43,-23.69"/>
<polygon fill="midnightblue" stroke="midnightblue" points="968.71,-26.95 977.15,-20.54 966.55,-20.29 968.71,-26.95"/>
</g>
<!-- Node26&#45;&gt;Node4 -->
<g id="edge22" class="edge">
<title>Node26&#45;&gt;Node4</title>
<path fill="none" stroke="midnightblue" d="M344.79,-57.42C372.54,-47.16 408.85,-33.74 435.03,-24.06"/>
<polygon fill="midnightblue" stroke="midnightblue" points="436.37,-27.3 444.53,-20.55 433.94,-20.73 436.37,-27.3"/>
</g>
<!-- Node26&#45;&gt;Node6 -->
<g id="edge23" class="edge">
<title>Node26&#45;&gt;Node6</title>
<path fill="none" stroke="midnightblue" d="M269.64,-57.42C246.67,-47.34 216.75,-34.21 194.79,-24.57"/>
<polygon fill="midnightblue" stroke="midnightblue" points="196.18,-21.36 185.61,-20.55 193.36,-27.77 196.18,-21.36"/>
</g>
<!-- Node26&#45;&gt;Node7 -->
<g id="edge24" class="edge">
<title>Node26&#45;&gt;Node7</title>
<path fill="none" stroke="midnightblue" d="M288.67,-57.42C279.49,-48.38 267.8,-36.89 258.42,-27.66"/>
<polygon fill="midnightblue" stroke="midnightblue" points="260.78,-25.06 251.19,-20.55 255.87,-30.05 260.78,-25.06"/>
</g>
<!-- Node26&#45;&gt;Node11 -->
<g id="edge25" class="edge">
<title>Node26&#45;&gt;Node11</title>
<path fill="none" stroke="midnightblue" d="M324.52,-57.42C337.31,-48.02 353.71,-35.96 366.5,-26.56"/>
<polygon fill="midnightblue" stroke="midnightblue" points="368.71,-29.29 374.69,-20.55 364.56,-23.65 368.71,-29.29"/>
</g>
<!-- Node26&#45;&gt;Node14 -->
<g id="edge26" class="edge">
<title>Node26&#45;&gt;Node14</title>
<path fill="none" stroke="midnightblue" d="M305.98,-57.42C307.04,-49.28 308.37,-39.16 309.51,-30.49"/>
<polygon fill="midnightblue" stroke="midnightblue" points="312.98,-30.92 310.81,-20.55 306.04,-30.01 312.98,-30.92"/>
</g>
<!-- Node65&#45;&gt;Node9 -->
<g id="edge31" class="edge">
<title>Node65&#45;&gt;Node9</title>
<path fill="none" stroke="midnightblue" d="M589.87,-63.5C605,-53.68 629.46,-37.81 647.38,-26.18"/>
<polygon fill="midnightblue" stroke="midnightblue" points="649.59,-28.92 656.07,-20.54 645.78,-23.05 649.59,-28.92"/>
</g>
<!-- Node65&#45;&gt;Node11 -->
<g id="edge32" class="edge">
<title>Node65&#45;&gt;Node11</title>
<path fill="none" stroke="midnightblue" d="M548.11,-63.5C515.45,-52.96 461.19,-35.44 424.77,-23.69"/>
<polygon fill="midnightblue" stroke="midnightblue" points="425.59,-20.28 415,-20.54 423.44,-26.94 425.59,-20.28"/>
</g>
<!-- Node66 -->
<g id="node20" class="node">
<title>Node66</title>
<g id="a_node20"><a xlink:title=" ">
<polygon fill="none" stroke="#bfbfbf" points="582,-0.5 582,-20.5 630,-20.5 630,-0.5 582,-0.5"/>
<text text-anchor="middle" x="606" y="-7.7" font-family="-apple-system, BlinkMacSystemFont, 'Segoe UI', Roboto, Oxygen, Ubuntu, Cantarell, 'Fira Sans', 'Droid Sans', 'Helvetica Neue', sans-serif" font-size="11.00">atomic</text>
</a>
</g>
</g>
<!-- Node65&#45;&gt;Node66 -->
<g id="edge29" class="edge">
<title>Node65&#45;&gt;Node66</title>
<path fill="none" stroke="midnightblue" d="M580.43,-63.5C584.77,-54.67 591.52,-40.95 596.99,-29.82"/>
<polygon fill="midnightblue" stroke="midnightblue" points="600.28,-31.06 601.56,-20.54 594,-27.97 600.28,-31.06"/>
</g>
<!-- Node67 -->
<g id="node21" class="node">
<title>Node67</title>
<g id="a_node21"><a xlink:title=" ">
<polygon fill="none" stroke="#bfbfbf" points="518,-0.5 518,-20.5 564,-20.5 564,-0.5 518,-0.5"/>
<text text-anchor="middle" x="541" y="-7.7" font-family="-apple-system, BlinkMacSystemFont, 'Segoe UI', Roboto, Oxygen, Ubuntu, Cantarell, 'Fira Sans', 'Droid Sans', 'Helvetica Neue', sans-serif" font-size="11.00">mutex</text>
</a>
</g>
</g>
<!-- Node65&#45;&gt;Node67 -->
<g id="edge30" class="edge">
<title>Node65&#45;&gt;Node67</title>
<path fill="none" stroke="midnightblue" d="M570.84,-63.5C565.72,-54.58 557.74,-40.67 551.31,-29.48"/>
<polygon fill="midnightblue" stroke="midnightblue" points="554.2,-27.47 546.19,-20.54 548.13,-30.95 554.2,-27.47"/>
</g>
</g>
</svg>
