<?xml version="1.0" encoding="UTF-8" standalone="no"?>
<!DOCTYPE svg PUBLIC "-//W3C//DTD SVG 1.1//EN"
 "http://www.w3.org/Graphics/SVG/1.1/DTD/svg11.dtd">
<!-- Generated by graphviz version 3.0.0 (20220413.0242)
 -->
<!-- Title: libmirai/public/libmirai/Api/Client.cpp Pages: 1 -->
<svg width="3132pt" height="374pt"
 viewBox="0.00 0.00 3132.08 374.00" xmlns="http://www.w3.org/2000/svg" xmlns:xlink="http://www.w3.org/1999/xlink">
<g id="graph0" class="graph" transform="scale(1 1) rotate(0) translate(4 370)">
<title>libmirai/public/libmirai/Api/Client.cpp</title>
<!-- Node1 -->
<g id="node1" class="node">
<title>Node1</title>
<g id="a_node1"><a xlink:title=" ">
<polygon fill="#bfbfbf" stroke="black" points="1684.58,-333.5 1684.58,-365.5 1802.58,-365.5 1802.58,-333.5 1684.58,-333.5"/>
<text text-anchor="start" x="1692.58" y="-352.7" font-family="-apple-system, BlinkMacSystemFont, 'Segoe UI', Roboto, Oxygen, Ubuntu, Cantarell, 'Fira Sans', 'Droid Sans', 'Helvetica Neue', sans-serif" font-size="11.00">libmirai/public/libmirai</text>
<text text-anchor="middle" x="1743.58" y="-340.7" font-family="-apple-system, BlinkMacSystemFont, 'Segoe UI', Roboto, Oxygen, Ubuntu, Cantarell, 'Fira Sans', 'Droid Sans', 'Helvetica Neue', sans-serif" font-size="11.00">/Api/Client.cpp</text>
</a>
</g>
</g>
<!-- Node2 -->
<g id="node2" class="node">
<title>Node2</title>
<g id="a_node2"><a xlink:href="Client_8hpp.html" target="_top" xlink:title=" ">
<polygon fill="none" stroke="black" points="924.08,-270.5 924.08,-290.5 989.08,-290.5 989.08,-270.5 924.08,-270.5"/>
<text text-anchor="middle" x="956.58" y="-277.7" font-family="-apple-system, BlinkMacSystemFont, 'Segoe UI', Roboto, Oxygen, Ubuntu, Cantarell, 'Fira Sans', 'Droid Sans', 'Helvetica Neue', sans-serif" font-size="11.00">Client.hpp</text>
</a>
</g>
</g>
<!-- Node1&#45;&gt;Node2 -->
<g id="edge1" class="edge">
<title>Node1&#45;&gt;Node2</title>
<path fill="none" stroke="midnightblue" d="M1684.43,-343.46C1532.5,-330.53 1131.3,-296.37 999.33,-285.14"/>
<polygon fill="midnightblue" stroke="midnightblue" points="999.47,-281.64 989.21,-284.28 998.88,-288.61 999.47,-281.64"/>
</g>
<!-- Node3 -->
<g id="node3" class="node">
<title>Node3</title>
<g id="a_node3"><a xlink:title=" ">
<polygon fill="none" stroke="#bfbfbf" points="50.08,-201.5 50.08,-221.5 153.08,-221.5 153.08,-201.5 50.08,-201.5"/>
<text text-anchor="middle" x="101.58" y="-208.7" font-family="-apple-system, BlinkMacSystemFont, 'Segoe UI', Roboto, Oxygen, Ubuntu, Cantarell, 'Fira Sans', 'Droid Sans', 'Helvetica Neue', sans-serif" font-size="11.00">condition_variable</text>
</a>
</g>
</g>
<!-- Node1&#45;&gt;Node3 -->
<g id="edge57" class="edge">
<title>Node1&#45;&gt;Node3</title>
<path fill="none" stroke="midnightblue" d="M1684.27,-347.46C1467.09,-343.44 715.53,-327.58 477.58,-297 354.18,-281.14 211.66,-243.74 142.91,-224.45"/>
<polygon fill="midnightblue" stroke="midnightblue" points="143.49,-220.98 132.91,-221.63 141.59,-227.72 143.49,-220.98"/>
</g>
<!-- Node5 -->
<g id="node5" class="node">
<title>Node5</title>
<g id="a_node5"><a xlink:title=" ">
<polygon fill="none" stroke="#bfbfbf" points="171.08,-201.5 171.08,-221.5 224.08,-221.5 224.08,-201.5 171.08,-201.5"/>
<text text-anchor="middle" x="197.58" y="-208.7" font-family="-apple-system, BlinkMacSystemFont, 'Segoe UI', Roboto, Oxygen, Ubuntu, Cantarell, 'Fira Sans', 'Droid Sans', 'Helvetica Neue', sans-serif" font-size="11.00">fstream</text>
</a>
</g>
</g>
<!-- Node1&#45;&gt;Node5 -->
<g id="edge59" class="edge">
<title>Node1&#45;&gt;Node5</title>
<path fill="none" stroke="midnightblue" d="M1684.33,-347.6C1524.94,-344.74 1073.83,-333.76 700.58,-297 694.07,-296.36 240.88,-229.76 234.58,-228 231.81,-227.23 228.97,-226.3 226.16,-225.29"/>
<polygon fill="midnightblue" stroke="midnightblue" points="227.43,-222.03 216.84,-221.64 224.87,-228.55 227.43,-222.03"/>
</g>
<!-- Node8 -->
<g id="node8" class="node">
<title>Node8</title>
<g id="a_node8"><a xlink:title=" ">
<polygon fill="none" stroke="#bfbfbf" points="318.58,-63.5 318.58,-83.5 374.58,-83.5 374.58,-63.5 318.58,-63.5"/>
<text text-anchor="middle" x="346.58" y="-70.7" font-family="-apple-system, BlinkMacSystemFont, 'Segoe UI', Roboto, Oxygen, Ubuntu, Cantarell, 'Fira Sans', 'Droid Sans', 'Helvetica Neue', sans-serif" font-size="11.00">memory</text>
</a>
</g>
</g>
<!-- Node1&#45;&gt;Node8 -->
<g id="edge60" class="edge">
<title>Node1&#45;&gt;Node8</title>
<path fill="none" stroke="midnightblue" d="M1684.1,-348.75C1389.11,-349.73 94.47,-350.93 29.58,-297 -5.66,-267.71 -6.43,-235.72 14.58,-195 38.83,-147.98 63.21,-147.43 111.58,-126 177.08,-96.98 260.31,-83.73 308.1,-78.14"/>
<polygon fill="midnightblue" stroke="midnightblue" points="308.76,-81.59 318.31,-77 307.98,-74.63 308.76,-81.59"/>
</g>
<!-- Node9 -->
<g id="node9" class="node">
<title>Node9</title>
<g id="a_node9"><a xlink:title=" ">
<polygon fill="none" stroke="#bfbfbf" points="2153.58,-132.5 2153.58,-152.5 2199.58,-152.5 2199.58,-132.5 2153.58,-132.5"/>
<text text-anchor="middle" x="2176.58" y="-139.7" font-family="-apple-system, BlinkMacSystemFont, 'Segoe UI', Roboto, Oxygen, Ubuntu, Cantarell, 'Fira Sans', 'Droid Sans', 'Helvetica Neue', sans-serif" font-size="11.00">mutex</text>
</a>
</g>
</g>
<!-- Node1&#45;&gt;Node9 -->
<g id="edge61" class="edge">
<title>Node1&#45;&gt;Node9</title>
<path fill="none" stroke="midnightblue" d="M1802.86,-347.63C1880.2,-344.94 2018.83,-334.69 2130.58,-297 2189.24,-277.22 2220.48,-281.53 2251.58,-228 2258.95,-215.32 2258.41,-207.98 2251.58,-195 2242.54,-177.82 2224.89,-165.27 2208.99,-156.86"/>
<polygon fill="midnightblue" stroke="midnightblue" points="2210.42,-153.67 2199.91,-152.38 2207.33,-159.94 2210.42,-153.67"/>
</g>
<!-- Node11 -->
<g id="node11" class="node">
<title>Node11</title>
<g id="a_node11"><a xlink:title=" ">
<polygon fill="none" stroke="#bfbfbf" points="1368.08,-0.5 1368.08,-20.5 1411.08,-20.5 1411.08,-0.5 1368.08,-0.5"/>
<text text-anchor="middle" x="1389.58" y="-7.7" font-family="-apple-system, BlinkMacSystemFont, 'Segoe UI', Roboto, Oxygen, Ubuntu, Cantarell, 'Fira Sans', 'Droid Sans', 'Helvetica Neue', sans-serif" font-size="11.00">string</text>
</a>
</g>
</g>
<!-- Node1&#45;&gt;Node11 -->
<g id="edge62" class="edge">
<title>Node1&#45;&gt;Node11</title>
<path fill="none" stroke="midnightblue" d="M1802.77,-347.63C1954.7,-343.82 2346.58,-323.24 2346.58,-212.5 2346.58,-212.5 2346.58,-212.5 2346.58,-141.5 2346.58,-45.93 1587.51,-17.48 1421.43,-12.4"/>
<polygon fill="midnightblue" stroke="midnightblue" points="1421.46,-8.9 1411.36,-12.09 1421.26,-15.89 1421.46,-8.9"/>
</g>
<!-- Node15 -->
<g id="node15" class="node">
<title>Node15</title>
<g id="a_node15"><a xlink:href="BotInvitedJoinGroupRequestEvent_8hpp.html" target="_top" xlink:title=" ">
<polygon fill="none" stroke="red" points="552.08,-126.5 552.08,-158.5 707.08,-158.5 707.08,-126.5 552.08,-126.5"/>
<text text-anchor="start" x="560.08" y="-145.7" font-family="-apple-system, BlinkMacSystemFont, 'Segoe UI', Roboto, Oxygen, Ubuntu, Cantarell, 'Fira Sans', 'Droid Sans', 'Helvetica Neue', sans-serif" font-size="11.00">libmirai/Events/BotInvited</text>
<text text-anchor="middle" x="629.58" y="-133.7" font-family="-apple-system, BlinkMacSystemFont, 'Segoe UI', Roboto, Oxygen, Ubuntu, Cantarell, 'Fira Sans', 'Droid Sans', 'Helvetica Neue', sans-serif" font-size="11.00">JoinGroupRequestEvent.hpp</text>
</a>
</g>
</g>
<!-- Node1&#45;&gt;Node15 -->
<g id="edge64" class="edge">
<title>Node1&#45;&gt;Node15</title>
<path fill="none" stroke="midnightblue" d="M1684.48,-348.18C1448.29,-346.62 571.77,-338.15 297.58,-297 180.62,-279.45 112.55,-321.85 40.58,-228 31.65,-216.36 30.67,-205.81 40.58,-195 57.26,-176.8 381.56,-156.87 541.67,-148.09"/>
<polygon fill="midnightblue" stroke="midnightblue" points="542.18,-151.56 551.97,-147.52 541.8,-144.57 542.18,-151.56"/>
</g>
<!-- Node22 -->
<g id="node16" class="node">
<title>Node22</title>
<g id="a_node16"><a xlink:href="FriendMessageEvent_8hpp.html" target="_top" xlink:title=" ">
<polygon fill="none" stroke="red" points="1465.08,-195.5 1465.08,-227.5 1628.08,-227.5 1628.08,-195.5 1465.08,-195.5"/>
<text text-anchor="start" x="1473.08" y="-214.7" font-family="-apple-system, BlinkMacSystemFont, 'Segoe UI', Roboto, Oxygen, Ubuntu, Cantarell, 'Fira Sans', 'Droid Sans', 'Helvetica Neue', sans-serif" font-size="11.00">libmirai/Events/FriendMessage</text>
<text text-anchor="middle" x="1546.58" y="-202.7" font-family="-apple-system, BlinkMacSystemFont, 'Segoe UI', Roboto, Oxygen, Ubuntu, Cantarell, 'Fira Sans', 'Droid Sans', 'Helvetica Neue', sans-serif" font-size="11.00">Event.hpp</text>
</a>
</g>
</g>
<!-- Node1&#45;&gt;Node22 -->
<g id="edge65" class="edge">
<title>Node1&#45;&gt;Node22</title>
<path fill="none" stroke="midnightblue" d="M1721.74,-333.43C1686.46,-309.07 1616.85,-261.01 1576.82,-233.38"/>
<polygon fill="midnightblue" stroke="midnightblue" points="1578.73,-230.44 1568.51,-227.64 1574.75,-236.2 1578.73,-230.44"/>
</g>
<!-- Node23 -->
<g id="node17" class="node">
<title>Node23</title>
<g id="a_node17"><a xlink:href="MessageChain_8hpp.html" target="_top" xlink:title=" ">
<polygon fill="none" stroke="red" points="1099.08,-126.5 1099.08,-158.5 1248.08,-158.5 1248.08,-126.5 1099.08,-126.5"/>
<text text-anchor="start" x="1107.08" y="-145.7" font-family="-apple-system, BlinkMacSystemFont, 'Segoe UI', Roboto, Oxygen, Ubuntu, Cantarell, 'Fira Sans', 'Droid Sans', 'Helvetica Neue', sans-serif" font-size="11.00">libmirai/Messages/Message</text>
<text text-anchor="middle" x="1173.58" y="-133.7" font-family="-apple-system, BlinkMacSystemFont, 'Segoe UI', Roboto, Oxygen, Ubuntu, Cantarell, 'Fira Sans', 'Droid Sans', 'Helvetica Neue', sans-serif" font-size="11.00">Chain.hpp</text>
</a>
</g>
</g>
<!-- Node1&#45;&gt;Node23 -->
<g id="edge75" class="edge">
<title>Node1&#45;&gt;Node23</title>
<path fill="none" stroke="midnightblue" d="M1684.29,-342.49C1592.35,-331.19 1411.97,-300.97 1277.58,-228 1257.62,-217.16 1256.15,-209.39 1238.58,-195 1226.39,-185.02 1212.74,-174.16 1201.11,-165"/>
<polygon fill="midnightblue" stroke="midnightblue" points="1203.07,-162.09 1193.05,-158.66 1198.75,-167.59 1203.07,-162.09"/>
</g>
<!-- Node27 -->
<g id="node18" class="node">
<title>Node27</title>
<g id="a_node18"><a xlink:href="Exceptions_8hpp.html" target="_top" xlink:title=" ">
<polygon fill="none" stroke="red" points="1697.08,-57.5 1697.08,-89.5 1802.08,-89.5 1802.08,-57.5 1697.08,-57.5"/>
<text text-anchor="start" x="1705.08" y="-76.7" font-family="-apple-system, BlinkMacSystemFont, 'Segoe UI', Roboto, Oxygen, Ubuntu, Cantarell, 'Fira Sans', 'Droid Sans', 'Helvetica Neue', sans-serif" font-size="11.00">libmirai/Exceptions</text>
<text text-anchor="middle" x="1749.58" y="-64.7" font-family="-apple-system, BlinkMacSystemFont, 'Segoe UI', Roboto, Oxygen, Ubuntu, Cantarell, 'Fira Sans', 'Droid Sans', 'Helvetica Neue', sans-serif" font-size="11.00">/Exceptions.hpp</text>
</a>
</g>
</g>
<!-- Node1&#45;&gt;Node27 -->
<g id="edge72" class="edge">
<title>Node1&#45;&gt;Node27</title>
<path fill="none" stroke="midnightblue" d="M1802.89,-346.01C1907.86,-340.89 2121.68,-327.03 2189.58,-297 2232.21,-278.14 2249.3,-270.44 2268.58,-228 2290.33,-180.12 2255.15,-150.45 2208.58,-126 2141.26,-90.66 1921.81,-79.42 1812.56,-75.96"/>
<polygon fill="midnightblue" stroke="midnightblue" points="1812.44,-72.46 1802.34,-75.65 1812.22,-79.46 1812.44,-72.46"/>
</g>
<!-- Node44 -->
<g id="node19" class="node">
<title>Node44</title>
<g id="a_node19"><a xlink:href="GroupMessageEvent_8hpp.html" target="_top" xlink:title=" ">
<polygon fill="none" stroke="red" points="356.58,-195.5 356.58,-227.5 518.58,-227.5 518.58,-195.5 356.58,-195.5"/>
<text text-anchor="start" x="364.58" y="-214.7" font-family="-apple-system, BlinkMacSystemFont, 'Segoe UI', Roboto, Oxygen, Ubuntu, Cantarell, 'Fira Sans', 'Droid Sans', 'Helvetica Neue', sans-serif" font-size="11.00">libmirai/Events/GroupMessage</text>
<text text-anchor="middle" x="437.58" y="-202.7" font-family="-apple-system, BlinkMacSystemFont, 'Segoe UI', Roboto, Oxygen, Ubuntu, Cantarell, 'Fira Sans', 'Droid Sans', 'Helvetica Neue', sans-serif" font-size="11.00">Event.hpp</text>
</a>
</g>
</g>
<!-- Node1&#45;&gt;Node44 -->
<g id="edge66" class="edge">
<title>Node1&#45;&gt;Node44</title>
<path fill="none" stroke="midnightblue" d="M1684.57,-347.13C1548.44,-343.46 1202.03,-331.28 914.58,-297 774.18,-280.26 612.46,-249.06 517.98,-229.62"/>
<polygon fill="midnightblue" stroke="midnightblue" points="518.42,-226.13 507.92,-227.54 517.01,-232.99 518.42,-226.13"/>
</g>
<!-- Node45 -->
<g id="node20" class="node">
<title>Node45</title>
<g id="a_node20"><a xlink:href="MemberJoinRequestEvent_8hpp.html" target="_top" xlink:title=" ">
<polygon fill="none" stroke="red" points="1467.08,-126.5 1467.08,-158.5 1616.08,-158.5 1616.08,-126.5 1467.08,-126.5"/>
<text text-anchor="start" x="1475.08" y="-145.7" font-family="-apple-system, BlinkMacSystemFont, 'Segoe UI', Roboto, Oxygen, Ubuntu, Cantarell, 'Fira Sans', 'Droid Sans', 'Helvetica Neue', sans-serif" font-size="11.00">libmirai/Events/MemberJoin</text>
<text text-anchor="middle" x="1541.58" y="-133.7" font-family="-apple-system, BlinkMacSystemFont, 'Segoe UI', Roboto, Oxygen, Ubuntu, Cantarell, 'Fira Sans', 'Droid Sans', 'Helvetica Neue', sans-serif" font-size="11.00">RequestEvent.hpp</text>
</a>
</g>
</g>
<!-- Node1&#45;&gt;Node45 -->
<g id="edge67" class="edge">
<title>Node1&#45;&gt;Node45</title>
<path fill="none" stroke="midnightblue" d="M1738.41,-333.38C1727.42,-303.29 1699.08,-235.35 1654.58,-195 1639.21,-181.06 1619.42,-170.33 1600.72,-162.35"/>
<polygon fill="midnightblue" stroke="midnightblue" points="1601.93,-159.07 1591.35,-158.55 1599.3,-165.56 1601.93,-159.07"/>
</g>
<!-- Node46 -->
<g id="node21" class="node">
<title>Node46</title>
<g id="a_node21"><a xlink:href="MiraiClientEvents_8hpp.html" target="_top" xlink:title=" ">
<polygon fill="none" stroke="red" points="1723.08,-195.5 1723.08,-227.5 1862.08,-227.5 1862.08,-195.5 1723.08,-195.5"/>
<text text-anchor="start" x="1731.08" y="-214.7" font-family="-apple-system, BlinkMacSystemFont, 'Segoe UI', Roboto, Oxygen, Ubuntu, Cantarell, 'Fira Sans', 'Droid Sans', 'Helvetica Neue', sans-serif" font-size="11.00">libmirai/Events/MiraiClient</text>
<text text-anchor="middle" x="1792.58" y="-202.7" font-family="-apple-system, BlinkMacSystemFont, 'Segoe UI', Roboto, Oxygen, Ubuntu, Cantarell, 'Fira Sans', 'Droid Sans', 'Helvetica Neue', sans-serif" font-size="11.00">Events.hpp</text>
</a>
</g>
</g>
<!-- Node1&#45;&gt;Node46 -->
<g id="edge68" class="edge">
<title>Node1&#45;&gt;Node46</title>
<path fill="none" stroke="midnightblue" d="M1749.01,-333.43C1757.4,-310.14 1773.59,-265.2 1783.7,-237.14"/>
<polygon fill="midnightblue" stroke="midnightblue" points="1787.03,-238.24 1787.12,-227.64 1780.44,-235.86 1787.03,-238.24"/>
</g>
<!-- Node47 -->
<g id="node22" class="node">
<title>Node47</title>
<g id="a_node22"><a xlink:title=" ">
<polygon fill="none" stroke="#bfbfbf" points="1926.58,-132.5 1926.58,-152.5 1988.58,-152.5 1988.58,-132.5 1926.58,-132.5"/>
<text text-anchor="middle" x="1957.58" y="-139.7" font-family="-apple-system, BlinkMacSystemFont, 'Segoe UI', Roboto, Oxygen, Ubuntu, Cantarell, 'Fira Sans', 'Droid Sans', 'Helvetica Neue', sans-serif" font-size="11.00">exception</text>
</a>
</g>
</g>
<!-- Node1&#45;&gt;Node47 -->
<g id="edge58" class="edge">
<title>Node1&#45;&gt;Node47</title>
<path fill="none" stroke="midnightblue" d="M1802.63,-345.51C1877.73,-338.15 2004.72,-313.06 2063.58,-228 2071.92,-215.94 2071.36,-207.43 2063.58,-195 2049.33,-172.24 2021.83,-159.28 1998.41,-152.05"/>
<polygon fill="midnightblue" stroke="midnightblue" points="1999.25,-148.65 1988.67,-149.3 1997.34,-155.39 1999.25,-148.65"/>
</g>
<!-- Node49 -->
<g id="node23" class="node">
<title>Node49</title>
<g id="a_node23"><a xlink:href="NewFriendRequestEvent_8hpp.html" target="_top" xlink:title=" ">
<polygon fill="none" stroke="red" points="120.58,-126.5 120.58,-158.5 262.58,-158.5 262.58,-126.5 120.58,-126.5"/>
<text text-anchor="start" x="128.58" y="-145.7" font-family="-apple-system, BlinkMacSystemFont, 'Segoe UI', Roboto, Oxygen, Ubuntu, Cantarell, 'Fira Sans', 'Droid Sans', 'Helvetica Neue', sans-serif" font-size="11.00">libmirai/Events/NewFriend</text>
<text text-anchor="middle" x="191.58" y="-133.7" font-family="-apple-system, BlinkMacSystemFont, 'Segoe UI', Roboto, Oxygen, Ubuntu, Cantarell, 'Fira Sans', 'Droid Sans', 'Helvetica Neue', sans-serif" font-size="11.00">RequestEvent.hpp</text>
</a>
</g>
</g>
<!-- Node1&#45;&gt;Node49 -->
<g id="edge69" class="edge">
<title>Node1&#45;&gt;Node49</title>
<path fill="none" stroke="midnightblue" d="M1684.53,-348.22C1395.94,-346.66 144.93,-337.57 73.58,-297 30.66,-272.6 0.43,-234.85 29.58,-195 48.28,-169.43 79.79,-156.24 110.08,-149.56"/>
<polygon fill="midnightblue" stroke="midnightblue" points="111.15,-152.91 120.28,-147.53 109.79,-146.05 111.15,-152.91"/>
</g>
<!-- Node50 -->
<g id="node24" class="node">
<title>Node50</title>
<g id="a_node24"><a xlink:href="StrangerMessageEvent_8hpp.html" target="_top" xlink:title=" ">
<polygon fill="none" stroke="red" points="1099.08,-195.5 1099.08,-227.5 1230.08,-227.5 1230.08,-195.5 1099.08,-195.5"/>
<text text-anchor="start" x="1107.08" y="-214.7" font-family="-apple-system, BlinkMacSystemFont, 'Segoe UI', Roboto, Oxygen, Ubuntu, Cantarell, 'Fira Sans', 'Droid Sans', 'Helvetica Neue', sans-serif" font-size="11.00">libmirai/Events/Stranger</text>
<text text-anchor="middle" x="1164.58" y="-202.7" font-family="-apple-system, BlinkMacSystemFont, 'Segoe UI', Roboto, Oxygen, Ubuntu, Cantarell, 'Fira Sans', 'Droid Sans', 'Helvetica Neue', sans-serif" font-size="11.00">MessageEvent.hpp</text>
</a>
</g>
</g>
<!-- Node1&#45;&gt;Node50 -->
<g id="edge70" class="edge">
<title>Node1&#45;&gt;Node50</title>
<path fill="none" stroke="midnightblue" d="M1684.17,-347.49C1569.13,-344.71 1320.55,-334.43 1244.58,-297 1216.95,-283.39 1193.86,-256.03 1179.7,-236.11"/>
<polygon fill="midnightblue" stroke="midnightblue" points="1182.56,-234.1 1174.01,-227.83 1176.79,-238.06 1182.56,-234.1"/>
</g>
<!-- Node51 -->
<g id="node25" class="node">
<title>Node51</title>
<g id="a_node25"><a xlink:href="TempMessageEvent_8hpp.html" target="_top" xlink:title=" ">
<polygon fill="none" stroke="red" points="1286.58,-195.5 1286.58,-227.5 1446.58,-227.5 1446.58,-195.5 1286.58,-195.5"/>
<text text-anchor="start" x="1294.58" y="-214.7" font-family="-apple-system, BlinkMacSystemFont, 'Segoe UI', Roboto, Oxygen, Ubuntu, Cantarell, 'Fira Sans', 'Droid Sans', 'Helvetica Neue', sans-serif" font-size="11.00">libmirai/Events/TempMessage</text>
<text text-anchor="middle" x="1366.58" y="-202.7" font-family="-apple-system, BlinkMacSystemFont, 'Segoe UI', Roboto, Oxygen, Ubuntu, Cantarell, 'Fira Sans', 'Droid Sans', 'Helvetica Neue', sans-serif" font-size="11.00">Event.hpp</text>
</a>
</g>
</g>
<!-- Node1&#45;&gt;Node51 -->
<g id="edge71" class="edge">
<title>Node1&#45;&gt;Node51</title>
<path fill="none" stroke="midnightblue" d="M1701.79,-333.43C1632.35,-308.37 1493.38,-258.24 1418.02,-231.06"/>
<polygon fill="midnightblue" stroke="midnightblue" points="1418.86,-227.64 1408.26,-227.54 1416.48,-234.22 1418.86,-227.64"/>
</g>
<!-- Node52 -->
<g id="node26" class="node">
<title>Node52</title>
<g id="a_node26"><a xlink:href="Types_8hpp.html" target="_top" xlink:title=" ">
<polygon fill="none" stroke="red" points="1918.58,-201.5 1918.58,-221.5 2054.58,-221.5 2054.58,-201.5 1918.58,-201.5"/>
<text text-anchor="middle" x="1986.58" y="-208.7" font-family="-apple-system, BlinkMacSystemFont, 'Segoe UI', Roboto, Oxygen, Ubuntu, Cantarell, 'Fira Sans', 'Droid Sans', 'Helvetica Neue', sans-serif" font-size="11.00">libmirai/Types/Types.hpp</text>
</a>
</g>
</g>
<!-- Node1&#45;&gt;Node52 -->
<g id="edge76" class="edge">
<title>Node1&#45;&gt;Node52</title>
<path fill="none" stroke="midnightblue" d="M1770.51,-333.43C1817.91,-306.9 1915.56,-252.25 1961.56,-226.5"/>
<polygon fill="midnightblue" stroke="midnightblue" points="1963.28,-229.55 1970.3,-221.61 1959.87,-223.44 1963.28,-229.55"/>
</g>
<!-- Node55 -->
<g id="node27" class="node">
<title>Node55</title>
<g id="a_node27"><a xlink:href="Logger_8hpp.html" target="_top" xlink:title=" ">
<polygon fill="none" stroke="red" points="2110.58,-201.5 2110.58,-221.5 2242.58,-221.5 2242.58,-201.5 2110.58,-201.5"/>
<text text-anchor="middle" x="2176.58" y="-208.7" font-family="-apple-system, BlinkMacSystemFont, 'Segoe UI', Roboto, Oxygen, Ubuntu, Cantarell, 'Fira Sans', 'Droid Sans', 'Helvetica Neue', sans-serif" font-size="11.00">libmirai/Utils/Logger.hpp</text>
</a>
</g>
</g>
<!-- Node1&#45;&gt;Node55 -->
<g id="edge79" class="edge">
<title>Node1&#45;&gt;Node55</title>
<path fill="none" stroke="midnightblue" d="M1802.83,-344.56C1889.67,-338 2046.63,-322.93 2096.58,-297 2126.76,-281.33 2151.84,-249.73 2165.48,-229.93"/>
<polygon fill="midnightblue" stroke="midnightblue" points="2168.45,-231.78 2171.07,-221.52 2162.62,-227.9 2168.45,-231.78"/>
</g>
<!-- Node58 -->
<g id="node29" class="node">
<title>Node58</title>
<g id="a_node29"><a xlink:title=" ">
<polygon fill="none" stroke="#bfbfbf" points="2374.58,-270.5 2374.58,-290.5 2482.58,-290.5 2482.58,-270.5 2374.58,-270.5"/>
<text text-anchor="middle" x="2428.58" y="-277.7" font-family="-apple-system, BlinkMacSystemFont, 'Segoe UI', Roboto, Oxygen, Ubuntu, Cantarell, 'Fira Sans', 'Droid Sans', 'Helvetica Neue', sans-serif" font-size="11.00">nlohmann/json.hpp</text>
</a>
</g>
</g>
<!-- Node1&#45;&gt;Node58 -->
<g id="edge63" class="edge">
<title>Node1&#45;&gt;Node58</title>
<path fill="none" stroke="midnightblue" d="M1802.6,-346.34C1912.82,-341.7 2157.16,-328.51 2360.58,-297 2367.98,-295.85 2375.78,-294.35 2383.35,-292.74"/>
<polygon fill="midnightblue" stroke="midnightblue" points="2384.11,-296.16 2393.12,-290.58 2382.59,-289.32 2384.11,-296.16"/>
</g>
<!-- Node59 -->
<g id="node30" class="node">
<title>Node59</title>
<g id="a_node30"><a xlink:title=" ">
<polygon fill="none" stroke="#bfbfbf" points="2500.58,-264.5 2500.58,-296.5 2624.58,-296.5 2624.58,-264.5 2500.58,-264.5"/>
<text text-anchor="start" x="2508.58" y="-283.7" font-family="-apple-system, BlinkMacSystemFont, 'Segoe UI', Roboto, Oxygen, Ubuntu, Cantarell, 'Fira Sans', 'Droid Sans', 'Helvetica Neue', sans-serif" font-size="11.00">libmirai/Impl/HttpClient</text>
<text text-anchor="middle" x="2562.58" y="-271.7" font-family="-apple-system, BlinkMacSystemFont, 'Segoe UI', Roboto, Oxygen, Ubuntu, Cantarell, 'Fira Sans', 'Droid Sans', 'Helvetica Neue', sans-serif" font-size="11.00">Impl.hpp</text>
</a>
</g>
</g>
<!-- Node1&#45;&gt;Node59 -->
<g id="edge73" class="edge">
<title>Node1&#45;&gt;Node59</title>
<path fill="none" stroke="midnightblue" d="M1803.04,-347.35C1928.45,-344.3 2229.31,-333.62 2490.29,-297.05"/>
<polygon fill="midnightblue" stroke="midnightblue" points="2490.92,-300.5 2500.33,-295.63 2489.94,-293.57 2490.92,-300.5"/>
</g>
<!-- Node60 -->
<g id="node31" class="node">
<title>Node60</title>
<g id="a_node31"><a xlink:title=" ">
<polygon fill="none" stroke="#bfbfbf" points="2643.08,-264.5 2643.08,-296.5 2790.08,-296.5 2790.08,-264.5 2643.08,-264.5"/>
<text text-anchor="start" x="2651.08" y="-283.7" font-family="-apple-system, BlinkMacSystemFont, 'Segoe UI', Roboto, Oxygen, Ubuntu, Cantarell, 'Fira Sans', 'Droid Sans', 'Helvetica Neue', sans-serif" font-size="11.00">libmirai/Impl/MessageClient</text>
<text text-anchor="middle" x="2716.58" y="-271.7" font-family="-apple-system, BlinkMacSystemFont, 'Segoe UI', Roboto, Oxygen, Ubuntu, Cantarell, 'Fira Sans', 'Droid Sans', 'Helvetica Neue', sans-serif" font-size="11.00">Impl.hpp</text>
</a>
</g>
</g>
<!-- Node1&#45;&gt;Node60 -->
<g id="edge74" class="edge">
<title>Node1&#45;&gt;Node60</title>
<path fill="none" stroke="midnightblue" d="M1802.65,-347.67C1944.2,-345.12 2314.02,-335.16 2632.53,-297.02"/>
<polygon fill="midnightblue" stroke="midnightblue" points="2633.38,-300.44 2642.89,-295.76 2632.54,-293.49 2633.38,-300.44"/>
</g>
<!-- Node61 -->
<g id="node32" class="node">
<title>Node61</title>
<g id="a_node32"><a xlink:title=" ">
<polygon fill="none" stroke="#bfbfbf" points="2808.58,-270.5 2808.58,-290.5 2950.58,-290.5 2950.58,-270.5 2808.58,-270.5"/>
<text text-anchor="middle" x="2879.58" y="-277.7" font-family="-apple-system, BlinkMacSystemFont, 'Segoe UI', Roboto, Oxygen, Ubuntu, Cantarell, 'Fira Sans', 'Droid Sans', 'Helvetica Neue', sans-serif" font-size="11.00">libmirai/Utils/Common.hpp</text>
</a>
</g>
</g>
<!-- Node1&#45;&gt;Node61 -->
<g id="edge77" class="edge">
<title>Node1&#45;&gt;Node61</title>
<path fill="none" stroke="midnightblue" d="M1802.79,-348.57C1963.63,-348.11 2421.91,-342.56 2799.58,-297 2809.17,-295.84 2819.33,-294.2 2829.09,-292.41"/>
<polygon fill="midnightblue" stroke="midnightblue" points="2829.89,-295.82 2839.06,-290.51 2828.58,-288.95 2829.89,-295.82"/>
</g>
<!-- Node62 -->
<g id="node33" class="node">
<title>Node62</title>
<g id="a_node33"><a xlink:title=" ">
<polygon fill="none" stroke="#bfbfbf" points="2969.08,-270.5 2969.08,-290.5 3124.08,-290.5 3124.08,-270.5 2969.08,-270.5"/>
<text text-anchor="middle" x="3046.58" y="-277.7" font-family="-apple-system, BlinkMacSystemFont, 'Segoe UI', Roboto, Oxygen, Ubuntu, Cantarell, 'Fira Sans', 'Droid Sans', 'Helvetica Neue', sans-serif" font-size="11.00">libmirai/Utils/ThreadPool.hpp</text>
</a>
</g>
</g>
<!-- Node1&#45;&gt;Node62 -->
<g id="edge78" class="edge">
<title>Node1&#45;&gt;Node62</title>
<path fill="none" stroke="midnightblue" d="M1802.63,-348.8C1978.97,-349.08 2516.92,-345.58 2959.58,-297 2970.21,-295.83 2981.5,-294.15 2992.31,-292.32"/>
<polygon fill="midnightblue" stroke="midnightblue" points="2993.24,-295.71 3002.48,-290.54 2992.03,-288.82 2993.24,-295.71"/>
</g>
<!-- Node2&#45;&gt;Node3 -->
<g id="edge2" class="edge">
<title>Node2&#45;&gt;Node3</title>
<path fill="none" stroke="midnightblue" d="M923.77,-279.58C814.69,-279.36 454.52,-274.9 161.58,-228 155.16,-226.97 148.44,-225.57 141.9,-224.02"/>
<polygon fill="midnightblue" stroke="midnightblue" points="142.42,-220.54 131.87,-221.51 140.72,-227.33 142.42,-220.54"/>
</g>
<!-- Node4 -->
<g id="node4" class="node">
<title>Node4</title>
<g id="a_node4"><a xlink:title=" ">
<polygon fill="none" stroke="#bfbfbf" points="648.58,-201.5 648.58,-221.5 712.58,-221.5 712.58,-201.5 648.58,-201.5"/>
<text text-anchor="middle" x="680.58" y="-208.7" font-family="-apple-system, BlinkMacSystemFont, 'Segoe UI', Roboto, Oxygen, Ubuntu, Cantarell, 'Fira Sans', 'Droid Sans', 'Helvetica Neue', sans-serif" font-size="11.00">filesystem</text>
</a>
</g>
</g>
<!-- Node2&#45;&gt;Node4 -->
<g id="edge3" class="edge">
<title>Node2&#45;&gt;Node4</title>
<path fill="none" stroke="midnightblue" d="M923.89,-273.89C878.14,-265.7 792.65,-249.1 721.58,-228 718.61,-227.12 715.55,-226.13 712.5,-225.08"/>
<polygon fill="midnightblue" stroke="midnightblue" points="713.53,-221.73 702.93,-221.63 711.15,-228.31 713.53,-221.73"/>
</g>
<!-- Node2&#45;&gt;Node5 -->
<g id="edge4" class="edge">
<title>Node2&#45;&gt;Node5</title>
<path fill="none" stroke="midnightblue" d="M923.88,-278.41C801.68,-274.15 372.08,-257.37 238.58,-228 234.95,-227.2 231.21,-226.14 227.53,-224.95"/>
<polygon fill="midnightblue" stroke="midnightblue" points="228.67,-221.64 218.08,-221.58 226.32,-228.24 228.67,-221.64"/>
</g>
<!-- Node6 -->
<g id="node6" class="node">
<title>Node6</title>
<g id="a_node6"><a xlink:title=" ">
<polygon fill="none" stroke="#bfbfbf" points="730.58,-201.5 730.58,-221.5 792.58,-221.5 792.58,-201.5 730.58,-201.5"/>
<text text-anchor="middle" x="761.58" y="-208.7" font-family="-apple-system, BlinkMacSystemFont, 'Segoe UI', Roboto, Oxygen, Ubuntu, Cantarell, 'Fira Sans', 'Droid Sans', 'Helvetica Neue', sans-serif" font-size="11.00">functional</text>
</a>
</g>
</g>
<!-- Node2&#45;&gt;Node6 -->
<g id="edge5" class="edge">
<title>Node2&#45;&gt;Node6</title>
<path fill="none" stroke="midnightblue" d="M927.87,-270.42C896.64,-260.45 845.34,-243.74 801.58,-228 799.04,-227.09 796.41,-226.12 793.78,-225.14"/>
<polygon fill="midnightblue" stroke="midnightblue" points="794.94,-221.83 784.35,-221.55 792.45,-228.37 794.94,-221.83"/>
</g>
<!-- Node7 -->
<g id="node7" class="node">
<title>Node7</title>
<g id="a_node7"><a xlink:title=" ">
<polygon fill="none" stroke="#bfbfbf" points="811.08,-201.5 811.08,-221.5 852.08,-221.5 852.08,-201.5 811.08,-201.5"/>
<text text-anchor="middle" x="831.58" y="-208.7" font-family="-apple-system, BlinkMacSystemFont, 'Segoe UI', Roboto, Oxygen, Ubuntu, Cantarell, 'Fira Sans', 'Droid Sans', 'Helvetica Neue', sans-serif" font-size="11.00">limits</text>
</a>
</g>
</g>
<!-- Node2&#45;&gt;Node7 -->
<g id="edge6" class="edge">
<title>Node2&#45;&gt;Node7</title>
<path fill="none" stroke="midnightblue" d="M939.72,-270.46C918.57,-259.13 882.07,-239.56 857.39,-226.34"/>
<polygon fill="midnightblue" stroke="midnightblue" points="859.04,-223.25 848.57,-221.61 855.73,-229.42 859.04,-223.25"/>
</g>
<!-- Node2&#45;&gt;Node8 -->
<g id="edge7" class="edge">
<title>Node2&#45;&gt;Node8</title>
<path fill="none" stroke="midnightblue" d="M923.75,-277.94C799.95,-271.9 367.32,-249.35 347.58,-228 313.43,-191.09 329.08,-125.21 339.66,-93.11"/>
<polygon fill="midnightblue" stroke="midnightblue" points="342.99,-94.2 342.98,-83.61 336.38,-91.89 342.99,-94.2"/>
</g>
<!-- Node2&#45;&gt;Node9 -->
<g id="edge8" class="edge">
<title>Node2&#45;&gt;Node9</title>
<path fill="none" stroke="midnightblue" d="M989.12,-278.89C1142.28,-275.85 1787.39,-261.15 1870.58,-228 1891.67,-219.59 1889.1,-204.8 1909.58,-195 1987.86,-157.53 2091.4,-147.32 2143.55,-144.54"/>
<polygon fill="midnightblue" stroke="midnightblue" points="2143.75,-148.03 2153.57,-144.06 2143.42,-141.04 2143.75,-148.03"/>
</g>
<!-- Node10 -->
<g id="node10" class="node">
<title>Node10</title>
<g id="a_node10"><a xlink:title=" ">
<polygon fill="none" stroke="#bfbfbf" points="737.58,-63.5 737.58,-83.5 791.58,-83.5 791.58,-63.5 737.58,-63.5"/>
<text text-anchor="middle" x="764.58" y="-70.7" font-family="-apple-system, BlinkMacSystemFont, 'Segoe UI', Roboto, Oxygen, Ubuntu, Cantarell, 'Fira Sans', 'Droid Sans', 'Helvetica Neue', sans-serif" font-size="11.00">optional</text>
</a>
</g>
</g>
<!-- Node2&#45;&gt;Node10 -->
<g id="edge9" class="edge">
<title>Node2&#45;&gt;Node10</title>
<path fill="none" stroke="midnightblue" d="M952.79,-270.5C944.99,-253.07 925.39,-214.71 896.58,-195 842.49,-157.99 793.87,-210.69 753.58,-159 738.84,-140.1 747.16,-111.28 755.26,-92.67"/>
<polygon fill="midnightblue" stroke="midnightblue" points="758.48,-94.04 759.59,-83.5 752.15,-91.05 758.48,-94.04"/>
</g>
<!-- Node2&#45;&gt;Node11 -->
<g id="edge10" class="edge">
<title>Node2&#45;&gt;Node11</title>
<path fill="none" stroke="midnightblue" d="M924,-277.97C797.97,-271.91 348.35,-248.9 326.58,-228 271.48,-175.11 256.72,-112.13 309.58,-57 346.79,-18.19 1183.09,-12.4 1357.77,-11.62"/>
<polygon fill="midnightblue" stroke="midnightblue" points="1357.88,-15.12 1367.86,-11.57 1357.85,-8.12 1357.88,-15.12"/>
</g>
<!-- Node12 -->
<g id="node12" class="node">
<title>Node12</title>
<g id="a_node12"><a xlink:title=" ">
<polygon fill="none" stroke="#bfbfbf" points="537.08,-201.5 537.08,-221.5 630.08,-221.5 630.08,-201.5 537.08,-201.5"/>
<text text-anchor="middle" x="583.58" y="-208.7" font-family="-apple-system, BlinkMacSystemFont, 'Segoe UI', Roboto, Oxygen, Ubuntu, Cantarell, 'Fira Sans', 'Droid Sans', 'Helvetica Neue', sans-serif" font-size="11.00">unordered_map</text>
</a>
</g>
</g>
<!-- Node2&#45;&gt;Node12 -->
<g id="edge11" class="edge">
<title>Node2&#45;&gt;Node12</title>
<path fill="none" stroke="midnightblue" d="M923.96,-275.4C866.24,-267.87 742.52,-250.54 639.58,-228 634.47,-226.88 629.14,-225.58 623.88,-224.22"/>
<polygon fill="midnightblue" stroke="midnightblue" points="624.51,-220.76 613.94,-221.55 622.7,-227.52 624.51,-220.76"/>
</g>
<!-- Node13 -->
<g id="node13" class="node">
<title>Node13</title>
<g id="a_node13"><a xlink:title=" ">
<polygon fill="none" stroke="#bfbfbf" points="1132.58,-63.5 1132.58,-83.5 1178.58,-83.5 1178.58,-63.5 1132.58,-63.5"/>
<text text-anchor="middle" x="1155.58" y="-70.7" font-family="-apple-system, BlinkMacSystemFont, 'Segoe UI', Roboto, Oxygen, Ubuntu, Cantarell, 'Fira Sans', 'Droid Sans', 'Helvetica Neue', sans-serif" font-size="11.00">vector</text>
</a>
</g>
</g>
<!-- Node2&#45;&gt;Node13 -->
<g id="edge12" class="edge">
<title>Node2&#45;&gt;Node13</title>
<path fill="none" stroke="midnightblue" d="M963.51,-270.31C982.36,-245.61 1036.66,-176.27 1089.58,-126 1103.58,-112.7 1120.83,-99.33 1134.18,-89.55"/>
<polygon fill="midnightblue" stroke="midnightblue" points="1136.26,-92.36 1142.32,-83.67 1132.16,-86.69 1136.26,-92.36"/>
</g>
<!-- Node14 -->
<g id="node14" class="node">
<title>Node14</title>
<g id="a_node14"><a xlink:title=" ">
<polygon fill="none" stroke="#bfbfbf" points="948.08,-63.5 948.08,-83.5 1079.08,-83.5 1079.08,-63.5 948.08,-63.5"/>
<text text-anchor="middle" x="1013.58" y="-70.7" font-family="-apple-system, BlinkMacSystemFont, 'Segoe UI', Roboto, Oxygen, Ubuntu, Cantarell, 'Fira Sans', 'Droid Sans', 'Helvetica Neue', sans-serif" font-size="11.00">nlohmann/json_fwd.hpp</text>
</a>
</g>
</g>
<!-- Node2&#45;&gt;Node14 -->
<g id="edge13" class="edge">
<title>Node2&#45;&gt;Node14</title>
<path fill="none" stroke="midnightblue" d="M959.1,-270.43C967.74,-239.35 996.28,-136.73 1008.23,-93.72"/>
<polygon fill="midnightblue" stroke="midnightblue" points="1011.65,-94.51 1010.95,-83.94 1004.9,-92.63 1011.65,-94.51"/>
</g>
<!-- Node2&#45;&gt;Node15 -->
<g id="edge14" class="edge">
<title>Node2&#45;&gt;Node15</title>
<path fill="none" stroke="midnightblue" d="M947.35,-270.29C927.36,-250.52 880.27,-205.02 860.58,-195 835.58,-182.29 771.56,-168.49 717.25,-158.38"/>
<polygon fill="midnightblue" stroke="midnightblue" points="717.7,-154.9 707.23,-156.53 716.43,-161.79 717.7,-154.9"/>
</g>
<!-- Node2&#45;&gt;Node22 -->
<g id="edge17" class="edge">
<title>Node2&#45;&gt;Node22</title>
<path fill="none" stroke="midnightblue" d="M989.36,-276.87C1067.83,-270.41 1272.82,-252.59 1454.75,-228.06"/>
<polygon fill="midnightblue" stroke="midnightblue" points="1455.33,-231.51 1464.76,-226.7 1454.38,-224.57 1455.33,-231.51"/>
</g>
<!-- Node2&#45;&gt;Node23 -->
<g id="edge49" class="edge">
<title>Node2&#45;&gt;Node23</title>
<path fill="none" stroke="midnightblue" d="M973.91,-270.48C992.34,-260.69 1022.15,-244.26 1046.58,-228 1066.63,-214.65 1069.73,-208.65 1089.58,-195 1105.37,-184.14 1123.42,-172.93 1138.74,-163.75"/>
<polygon fill="midnightblue" stroke="midnightblue" points="1140.59,-166.71 1147.4,-158.59 1137.01,-160.7 1140.59,-166.71"/>
</g>
<!-- Node2&#45;&gt;Node44 -->
<g id="edge27" class="edge">
<title>Node2&#45;&gt;Node44</title>
<path fill="none" stroke="midnightblue" d="M923.89,-275.8C840.68,-266.33 621.5,-241.18 529.09,-228.16"/>
<polygon fill="midnightblue" stroke="midnightblue" points="529.38,-224.67 518.98,-226.71 528.38,-231.6 529.38,-224.67"/>
</g>
<!-- Node2&#45;&gt;Node45 -->
<g id="edge31" class="edge">
<title>Node2&#45;&gt;Node45</title>
<path fill="none" stroke="midnightblue" d="M989.18,-279.56C1118.72,-279.49 1592.16,-275.91 1636.58,-228 1646.55,-217.24 1644.08,-207.6 1636.58,-195 1628.39,-181.25 1615.11,-170.94 1601.04,-163.31"/>
<polygon fill="midnightblue" stroke="midnightblue" points="1602.24,-160 1591.72,-158.68 1599.12,-166.27 1602.24,-160"/>
</g>
<!-- Node2&#45;&gt;Node46 -->
<g id="edge34" class="edge">
<title>Node2&#45;&gt;Node46</title>
<path fill="none" stroke="midnightblue" d="M989.37,-277.77C1090.8,-272.29 1408.4,-254.09 1670.58,-228 1684.25,-226.64 1698.77,-224.98 1712.83,-223.26"/>
<polygon fill="midnightblue" stroke="midnightblue" points="1713.48,-226.71 1722.97,-222.01 1712.62,-219.76 1713.48,-226.71"/>
</g>
<!-- Node2&#45;&gt;Node49 -->
<g id="edge38" class="edge">
<title>Node2&#45;&gt;Node49</title>
<path fill="none" stroke="midnightblue" d="M923.97,-278.35C796.47,-273.69 335.86,-255.12 276.58,-228 261.24,-220.98 231.25,-188.98 211.31,-166.44"/>
<polygon fill="midnightblue" stroke="midnightblue" points="213.69,-163.84 204.46,-158.63 208.42,-168.45 213.69,-163.84"/>
</g>
<!-- Node2&#45;&gt;Node50 -->
<g id="edge41" class="edge">
<title>Node2&#45;&gt;Node50</title>
<path fill="none" stroke="midnightblue" d="M984.63,-270.46C1016.18,-260.3 1068.24,-243.53 1108.27,-230.64"/>
<polygon fill="midnightblue" stroke="midnightblue" points="1109.46,-233.93 1117.91,-227.53 1107.32,-227.27 1109.46,-233.93"/>
</g>
<!-- Node2&#45;&gt;Node51 -->
<g id="edge45" class="edge">
<title>Node2&#45;&gt;Node51</title>
<path fill="none" stroke="midnightblue" d="M989.09,-274.19C1050.52,-264.15 1185.61,-242.07 1276.38,-227.24"/>
<polygon fill="midnightblue" stroke="midnightblue" points="1277.09,-230.67 1286.39,-225.6 1275.96,-223.76 1277.09,-230.67"/>
</g>
<!-- Node2&#45;&gt;Node52 -->
<g id="edge50" class="edge">
<title>Node2&#45;&gt;Node52</title>
<path fill="none" stroke="midnightblue" d="M989.46,-279.29C1111.23,-278.17 1547.86,-271.21 1904.58,-228 1914.29,-226.82 1924.59,-225.19 1934.48,-223.42"/>
<polygon fill="midnightblue" stroke="midnightblue" points="1935.41,-226.81 1944.61,-221.54 1934.14,-219.92 1935.41,-226.81"/>
</g>
<!-- Node2&#45;&gt;Node55 -->
<g id="edge51" class="edge">
<title>Node2&#45;&gt;Node55</title>
<path fill="none" stroke="midnightblue" d="M989.25,-279.05C1122.8,-276.99 1640.16,-266.81 2063.58,-228 2078.08,-226.67 2093.57,-224.83 2108.29,-222.87"/>
<polygon fill="midnightblue" stroke="midnightblue" points="2108.9,-226.32 2118.33,-221.51 2107.95,-219.39 2108.9,-226.32"/>
</g>
<!-- Node57 -->
<g id="node28" class="node">
<title>Node57</title>
<g id="a_node28"><a xlink:href="SessionConfig_8hpp.html" target="_top" xlink:title=" ">
<polygon fill="none" stroke="red" points="763.08,-132.5 763.08,-152.5 930.08,-152.5 930.08,-132.5 763.08,-132.5"/>
<text text-anchor="middle" x="846.58" y="-139.7" font-family="-apple-system, BlinkMacSystemFont, 'Segoe UI', Roboto, Oxygen, Ubuntu, Cantarell, 'Fira Sans', 'Droid Sans', 'Helvetica Neue', sans-serif" font-size="11.00">libmirai/Utils/SessionConfig.hpp</text>
</a>
</g>
</g>
<!-- Node2&#45;&gt;Node57 -->
<g id="edge54" class="edge">
<title>Node2&#45;&gt;Node57</title>
<path fill="none" stroke="midnightblue" d="M956.15,-270.39C954.94,-253.78 950.3,-218.12 932.58,-195 919.45,-177.87 898.85,-165.25 881.11,-156.79"/>
<polygon fill="midnightblue" stroke="midnightblue" points="882.17,-153.43 871.61,-152.52 879.29,-159.81 882.17,-153.43"/>
</g>
<!-- Node15&#45;&gt;Node11 -->
<g id="edge15" class="edge">
<title>Node15&#45;&gt;Node11</title>
<path fill="none" stroke="midnightblue" d="M641.75,-126.31C658.77,-106.34 691.76,-72.03 728.58,-57 844.51,-9.67 1241.37,-9.93 1357.45,-11.07"/>
<polygon fill="midnightblue" stroke="midnightblue" points="1357.75,-14.58 1367.78,-11.18 1357.82,-7.58 1357.75,-14.58"/>
</g>
<!-- Node15&#45;&gt;Node14 -->
<g id="edge16" class="edge">
<title>Node15&#45;&gt;Node14</title>
<path fill="none" stroke="midnightblue" d="M707.29,-127.94C779.41,-115.36 885.36,-96.87 951.86,-85.27"/>
<polygon fill="midnightblue" stroke="midnightblue" points="952.53,-88.7 961.78,-83.54 951.32,-81.81 952.53,-88.7"/>
</g>
<!-- Node22&#45;&gt;Node11 -->
<g id="edge18" class="edge">
<title>Node22&#45;&gt;Node11</title>
<path fill="none" stroke="midnightblue" d="M1509.24,-195.31C1491.79,-186.73 1471.77,-174.57 1457.58,-159 1422.39,-120.39 1402.52,-60.42 1394.23,-30.22"/>
<polygon fill="midnightblue" stroke="midnightblue" points="1397.61,-29.33 1391.69,-20.54 1390.84,-31.1 1397.61,-29.33"/>
</g>
<!-- Node22&#45;&gt;Node14 -->
<g id="edge19" class="edge">
<title>Node22&#45;&gt;Node14</title>
<path fill="none" stroke="midnightblue" d="M1507.05,-195.45C1457.53,-177.03 1369.77,-145.86 1292.58,-126 1223.28,-108.17 1142.78,-93.99 1086.11,-85.06"/>
<polygon fill="midnightblue" stroke="midnightblue" points="1086.59,-81.59 1076.17,-83.51 1085.51,-88.51 1086.59,-81.59"/>
</g>
<!-- Node22&#45;&gt;Node23 -->
<g id="edge20" class="edge">
<title>Node22&#45;&gt;Node23</title>
<path fill="none" stroke="midnightblue" d="M1464.72,-195.8C1403.58,-184.81 1320.24,-169.84 1258.4,-158.74"/>
<polygon fill="midnightblue" stroke="midnightblue" points="1258.73,-155.24 1248.27,-156.92 1257.5,-162.13 1258.73,-155.24"/>
</g>
<!-- Node23&#45;&gt;Node8 -->
<g id="edge21" class="edge">
<title>Node23&#45;&gt;Node8</title>
<path fill="none" stroke="midnightblue" d="M1098.73,-135.44C927.6,-121.57 512.67,-87.96 384.76,-77.59"/>
<polygon fill="midnightblue" stroke="midnightblue" points="384.92,-74.09 374.67,-76.78 384.35,-81.07 384.92,-74.09"/>
</g>
<!-- Node23&#45;&gt;Node10 -->
<g id="edge22" class="edge">
<title>Node23&#45;&gt;Node10</title>
<path fill="none" stroke="midnightblue" d="M1099.04,-129.29C1011.33,-114.92 869.18,-91.64 802.01,-80.63"/>
<polygon fill="midnightblue" stroke="midnightblue" points="802.33,-77.14 791.89,-78.97 801.2,-84.05 802.33,-77.14"/>
</g>
<!-- Node23&#45;&gt;Node13 -->
<g id="edge23" class="edge">
<title>Node23&#45;&gt;Node13</title>
<path fill="none" stroke="midnightblue" d="M1169.49,-126.3C1166.88,-116.55 1163.46,-103.83 1160.67,-93.44"/>
<polygon fill="midnightblue" stroke="midnightblue" points="1164.01,-92.41 1158.04,-83.66 1157.25,-94.23 1164.01,-92.41"/>
</g>
<!-- Node23&#45;&gt;Node14 -->
<g id="edge24" class="edge">
<title>Node23&#45;&gt;Node14</title>
<path fill="none" stroke="midnightblue" d="M1137.67,-126.46C1109.61,-114.71 1071.02,-98.55 1044.35,-87.39"/>
<polygon fill="midnightblue" stroke="midnightblue" points="1045.69,-84.15 1035.11,-83.52 1042.99,-90.61 1045.69,-84.15"/>
</g>
<!-- Node23&#45;&gt;Node27 -->
<g id="edge25" class="edge">
<title>Node23&#45;&gt;Node27</title>
<path fill="none" stroke="midnightblue" d="M1248.29,-132.81C1362.85,-119.48 1579.86,-94.24 1686.79,-81.8"/>
<polygon fill="midnightblue" stroke="midnightblue" points="1687.26,-85.27 1696.79,-80.64 1686.45,-78.32 1687.26,-85.27"/>
</g>
<!-- Node27&#45;&gt;Node11 -->
<g id="edge26" class="edge">
<title>Node27&#45;&gt;Node11</title>
<path fill="none" stroke="midnightblue" d="M1696.69,-62.98C1685.43,-60.98 1673.61,-58.9 1662.58,-57 1575.27,-41.95 1472.11,-24.97 1421.22,-16.66"/>
<polygon fill="midnightblue" stroke="midnightblue" points="1421.61,-13.17 1411.18,-15.02 1420.48,-20.08 1421.61,-13.17"/>
</g>
<!-- Node44&#45;&gt;Node11 -->
<g id="edge28" class="edge">
<title>Node44&#45;&gt;Node11</title>
<path fill="none" stroke="midnightblue" d="M453.08,-195.47C488.61,-162.24 580.15,-83.4 674.58,-57 805.97,-20.27 1237.24,-13.08 1357.94,-11.77"/>
<polygon fill="midnightblue" stroke="midnightblue" points="1358.04,-15.27 1368,-11.67 1357.96,-8.27 1358.04,-15.27"/>
</g>
<!-- Node44&#45;&gt;Node14 -->
<g id="edge29" class="edge">
<title>Node44&#45;&gt;Node14</title>
<path fill="none" stroke="midnightblue" d="M518.97,-196.17C521.87,-195.76 524.75,-195.37 527.58,-195 618.5,-183.21 856.68,-200.21 938.58,-159 967.94,-144.23 991,-112.59 1003.43,-92.49"/>
<polygon fill="midnightblue" stroke="midnightblue" points="1006.56,-94.07 1008.65,-83.68 1000.54,-90.49 1006.56,-94.07"/>
</g>
<!-- Node44&#45;&gt;Node23 -->
<g id="edge30" class="edge">
<title>Node44&#45;&gt;Node23</title>
<path fill="none" stroke="midnightblue" d="M518.96,-196.14C521.87,-195.74 524.75,-195.36 527.58,-195 554.96,-191.56 919.97,-163.13 1088.88,-150.05"/>
<polygon fill="midnightblue" stroke="midnightblue" points="1089.29,-153.53 1098.99,-149.26 1088.75,-146.55 1089.29,-153.53"/>
</g>
<!-- Node45&#45;&gt;Node11 -->
<g id="edge32" class="edge">
<title>Node45&#45;&gt;Node11</title>
<path fill="none" stroke="midnightblue" d="M1524.28,-126.48C1504.74,-109.54 1471.96,-81.19 1443.58,-57 1431.8,-46.96 1418.5,-35.76 1408.05,-26.98"/>
<polygon fill="midnightblue" stroke="midnightblue" points="1410.28,-24.28 1400.37,-20.53 1405.78,-29.64 1410.28,-24.28"/>
</g>
<!-- Node45&#45;&gt;Node14 -->
<g id="edge33" class="edge">
<title>Node45&#45;&gt;Node14</title>
<path fill="none" stroke="midnightblue" d="M1466.77,-132.68C1383.1,-122.72 1243.55,-105.84 1123.58,-90 1111.43,-88.4 1098.54,-86.63 1086.02,-84.89"/>
<polygon fill="midnightblue" stroke="midnightblue" points="1086.48,-81.42 1076.09,-83.5 1085.51,-88.35 1086.48,-81.42"/>
</g>
<!-- Node46&#45;&gt;Node11 -->
<g id="edge36" class="edge">
<title>Node46&#45;&gt;Node11</title>
<path fill="none" stroke="midnightblue" d="M1762.89,-195.43C1729.37,-178.44 1673.15,-150.05 1624.58,-126 1550.09,-89.12 1461.9,-46.41 1417.74,-25.08"/>
<polygon fill="midnightblue" stroke="midnightblue" points="1419.03,-21.82 1408.5,-20.62 1415.99,-28.12 1419.03,-21.82"/>
</g>
<!-- Node46&#45;&gt;Node27 -->
<g id="edge37" class="edge">
<title>Node46&#45;&gt;Node27</title>
<path fill="none" stroke="midnightblue" d="M1787.81,-195.43C1780.48,-172.25 1766.36,-127.59 1757.49,-99.51"/>
<polygon fill="midnightblue" stroke="midnightblue" points="1760.72,-98.12 1754.37,-89.64 1754.04,-100.23 1760.72,-98.12"/>
</g>
<!-- Node46&#45;&gt;Node47 -->
<g id="edge35" class="edge">
<title>Node46&#45;&gt;Node47</title>
<path fill="none" stroke="midnightblue" d="M1829.61,-195.46C1858.55,-183.71 1898.35,-167.55 1925.84,-156.39"/>
<polygon fill="midnightblue" stroke="midnightblue" points="1927.42,-159.52 1935.37,-152.52 1924.79,-153.04 1927.42,-159.52"/>
</g>
<!-- Node49&#45;&gt;Node11 -->
<g id="edge39" class="edge">
<title>Node49&#45;&gt;Node11</title>
<path fill="none" stroke="midnightblue" d="M201.46,-126.19C215.43,-106.1 243.01,-71.65 276.58,-57 377.87,-12.78 1185.74,-11.25 1357.53,-11.43"/>
<polygon fill="midnightblue" stroke="midnightblue" points="1357.69,-14.93 1367.69,-11.45 1357.7,-7.93 1357.69,-14.93"/>
</g>
<!-- Node49&#45;&gt;Node14 -->
<g id="edge40" class="edge">
<title>Node49&#45;&gt;Node14</title>
<path fill="none" stroke="midnightblue" d="M262.73,-135.7C416.72,-123.15 779.72,-93.56 937.8,-80.68"/>
<polygon fill="midnightblue" stroke="midnightblue" points="938.23,-84.15 947.91,-79.85 937.66,-77.18 938.23,-84.15"/>
</g>
<!-- Node50&#45;&gt;Node11 -->
<g id="edge42" class="edge">
<title>Node50&#45;&gt;Node11</title>
<path fill="none" stroke="midnightblue" d="M1197.28,-195.5C1215.63,-186.29 1238.41,-173.5 1256.58,-159 1307.13,-118.65 1355.01,-58.23 1376.99,-28.82"/>
<polygon fill="midnightblue" stroke="midnightblue" points="1379.83,-30.87 1382.96,-20.75 1374.2,-26.71 1379.83,-30.87"/>
</g>
<!-- Node50&#45;&gt;Node14 -->
<g id="edge43" class="edge">
<title>Node50&#45;&gt;Node14</title>
<path fill="none" stroke="midnightblue" d="M1139.52,-195.41C1124.41,-185.81 1105.13,-172.64 1089.58,-159 1065.36,-137.76 1041.12,-109.24 1026.73,-91.36"/>
<polygon fill="midnightblue" stroke="midnightblue" points="1029.47,-89.18 1020.51,-83.52 1023.99,-93.53 1029.47,-89.18"/>
</g>
<!-- Node50&#45;&gt;Node23 -->
<g id="edge44" class="edge">
<title>Node50&#45;&gt;Node23</title>
<path fill="none" stroke="midnightblue" d="M1166.62,-195.3C1167.68,-187.42 1169,-177.59 1170.2,-168.61"/>
<polygon fill="midnightblue" stroke="midnightblue" points="1173.68,-169.02 1171.54,-158.64 1166.74,-168.09 1173.68,-169.02"/>
</g>
<!-- Node51&#45;&gt;Node11 -->
<g id="edge46" class="edge">
<title>Node51&#45;&gt;Node11</title>
<path fill="none" stroke="midnightblue" d="M1368.34,-195.22C1372.48,-159.43 1382.79,-70.26 1387.35,-30.81"/>
<polygon fill="midnightblue" stroke="midnightblue" points="1390.85,-31.01 1388.52,-20.67 1383.89,-30.21 1390.85,-31.01"/>
</g>
<!-- Node51&#45;&gt;Node14 -->
<g id="edge47" class="edge">
<title>Node51&#45;&gt;Node14</title>
<path fill="none" stroke="midnightblue" d="M1346.95,-195.41C1315.36,-171.13 1256.74,-126.07 1256.58,-126 1225.74,-111.78 1140.88,-95.57 1080.14,-85.19"/>
<polygon fill="midnightblue" stroke="midnightblue" points="1080.68,-81.74 1070.23,-83.52 1079.51,-88.64 1080.68,-81.74"/>
</g>
<!-- Node51&#45;&gt;Node23 -->
<g id="edge48" class="edge">
<title>Node51&#45;&gt;Node23</title>
<path fill="none" stroke="midnightblue" d="M1323.26,-195.46C1294.68,-185.54 1257.05,-172.48 1226.67,-161.93"/>
<polygon fill="midnightblue" stroke="midnightblue" points="1227.67,-158.57 1217.08,-158.6 1225.38,-165.19 1227.67,-158.57"/>
</g>
<!-- Node55&#45;&gt;Node9 -->
<g id="edge52" class="edge">
<title>Node55&#45;&gt;Node9</title>
<path fill="none" stroke="midnightblue" d="M2176.58,-201.46C2176.58,-191.63 2176.58,-175.61 2176.58,-162.9"/>
<polygon fill="midnightblue" stroke="midnightblue" points="2180.08,-162.82 2176.58,-152.82 2173.08,-162.82 2180.08,-162.82"/>
</g>
<!-- Node55&#45;&gt;Node11 -->
<g id="edge53" class="edge">
<title>Node55&#45;&gt;Node11</title>
<path fill="none" stroke="midnightblue" d="M2158.77,-201.46C2126.86,-185.39 2057.63,-151.2 1997.58,-126 1915.89,-91.73 1896.82,-77.25 1810.58,-57 1667.96,-23.52 1492.28,-14.59 1421.43,-12.28"/>
<polygon fill="midnightblue" stroke="midnightblue" points="1421.46,-8.78 1411.36,-11.97 1421.25,-15.78 1421.46,-8.78"/>
</g>
<!-- Node57&#45;&gt;Node11 -->
<g id="edge55" class="edge">
<title>Node57&#45;&gt;Node11</title>
<path fill="none" stroke="midnightblue" d="M853.19,-132.34C866.81,-114.28 899.99,-74.31 938.58,-57 1013.78,-23.26 1267.9,-14.27 1357.77,-12.12"/>
<polygon fill="midnightblue" stroke="midnightblue" points="1357.97,-15.62 1367.89,-11.89 1357.81,-8.62 1357.97,-15.62"/>
</g>
<!-- Node57&#45;&gt;Node14 -->
<g id="edge56" class="edge">
<title>Node57&#45;&gt;Node14</title>
<path fill="none" stroke="midnightblue" d="M869.1,-132.46C897.99,-120.88 948.28,-100.7 981.25,-87.47"/>
<polygon fill="midnightblue" stroke="midnightblue" points="982.9,-90.58 990.88,-83.61 980.29,-84.08 982.9,-90.58"/>
</g>
</g>
</svg>
