<?xml version="1.0" encoding="UTF-8" standalone="no"?>
<!DOCTYPE svg PUBLIC "-//W3C//DTD SVG 1.1//EN"
 "http://www.w3.org/Graphics/SVG/1.1/DTD/svg11.dtd">
<!-- Generated by graphviz version 3.0.0 (20221109.1736)
 -->
<!-- Title: libmirai/api/libmirai/Client/Client.cpp Pages: 1 -->
<svg width="2532pt" height="362pt"
 viewBox="0.00 0.00 2531.50 362.00" xmlns="http://www.w3.org/2000/svg" xmlns:xlink="http://www.w3.org/1999/xlink">
<g id="graph0" class="graph" transform="scale(1 1) rotate(0) translate(4 358)">
<title>libmirai/api/libmirai/Client/Client.cpp</title>
<!-- Node1 -->
<g id="node1" class="node">
<title>Node1</title>
<g id="a_node1"><a xlink:title=" ">
<polygon fill="#bfbfbf" stroke="black" points="1472,-321.5 1472,-353.5 1576,-353.5 1576,-321.5 1472,-321.5"/>
<text text-anchor="start" x="1480" y="-340.7" font-family="-apple-system, BlinkMacSystemFont, 'Segoe UI', Roboto, Oxygen, Ubuntu, Cantarell, 'Fira Sans', 'Droid Sans', 'Helvetica Neue', sans-serif" font-size="11.00">libmirai/api/libmirai</text>
<text text-anchor="middle" x="1524" y="-328.7" font-family="-apple-system, BlinkMacSystemFont, 'Segoe UI', Roboto, Oxygen, Ubuntu, Cantarell, 'Fira Sans', 'Droid Sans', 'Helvetica Neue', sans-serif" font-size="11.00">/Client/Client.cpp</text>
</a>
</g>
</g>
<!-- Node2 -->
<g id="node2" class="node">
<title>Node2</title>
<g id="a_node2"><a xlink:href="Client_8hpp.html" target="_top" xlink:title=" ">
<polygon fill="none" stroke="black" points="731.5,-258.5 731.5,-278.5 796.5,-278.5 796.5,-258.5 731.5,-258.5"/>
<text text-anchor="middle" x="764" y="-265.7" font-family="-apple-system, BlinkMacSystemFont, 'Segoe UI', Roboto, Oxygen, Ubuntu, Cantarell, 'Fira Sans', 'Droid Sans', 'Helvetica Neue', sans-serif" font-size="11.00">Client.hpp</text>
</a>
</g>
</g>
<!-- Node1&#45;&gt;Node2 -->
<g id="edge1" class="edge">
<title>Node1&#45;&gt;Node2</title>
<path fill="none" stroke="midnightblue" d="M1471.76,-331.89C1329.56,-319.36 937.47,-284.79 806.92,-273.28"/>
<polygon fill="midnightblue" stroke="midnightblue" points="807.17,-269.79 796.9,-272.4 806.55,-276.76 807.17,-269.79"/>
</g>
<!-- Node4 -->
<g id="node4" class="node">
<title>Node4</title>
<g id="a_node4"><a xlink:title=" ">
<polygon fill="none" stroke="#bfbfbf" points="66.5,-189.5 66.5,-209.5 119.5,-209.5 119.5,-189.5 66.5,-189.5"/>
<text text-anchor="middle" x="93" y="-196.7" font-family="-apple-system, BlinkMacSystemFont, 'Segoe UI', Roboto, Oxygen, Ubuntu, Cantarell, 'Fira Sans', 'Droid Sans', 'Helvetica Neue', sans-serif" font-size="11.00">fstream</text>
</a>
</g>
</g>
<!-- Node1&#45;&gt;Node4 -->
<g id="edge39" class="edge">
<title>Node1&#45;&gt;Node4</title>
<path fill="none" stroke="midnightblue" d="M1471.81,-335.73C1278.37,-332.65 602.51,-319.58 390,-285 292.62,-269.16 181.75,-232.42 127.12,-213.02"/>
<polygon fill="midnightblue" stroke="midnightblue" points="128.18,-209.68 117.59,-209.61 125.83,-216.27 128.18,-209.68"/>
</g>
<!-- Node7 -->
<g id="node7" class="node">
<title>Node7</title>
<g id="a_node7"><a xlink:title=" ">
<polygon fill="none" stroke="#bfbfbf" points="594,-126.5 594,-146.5 650,-146.5 650,-126.5 594,-126.5"/>
<text text-anchor="middle" x="622" y="-133.7" font-family="-apple-system, BlinkMacSystemFont, 'Segoe UI', Roboto, Oxygen, Ubuntu, Cantarell, 'Fira Sans', 'Droid Sans', 'Helvetica Neue', sans-serif" font-size="11.00">memory</text>
</a>
</g>
</g>
<!-- Node1&#45;&gt;Node7 -->
<g id="edge40" class="edge">
<title>Node1&#45;&gt;Node7</title>
<path fill="none" stroke="midnightblue" d="M1471.95,-335.03C1262.48,-328.57 489.18,-299.19 423,-216 413.87,-204.52 413.86,-194.47 423,-183 433.01,-170.44 528.67,-152.85 583.63,-143.65"/>
<polygon fill="midnightblue" stroke="midnightblue" points="584.42,-147.07 593.71,-141.98 583.28,-140.16 584.42,-147.07"/>
</g>
<!-- Node10 -->
<g id="node10" class="node">
<title>Node10</title>
<g id="a_node10"><a xlink:title=" ">
<polygon fill="none" stroke="#bfbfbf" points="742.5,-0.5 742.5,-20.5 785.5,-20.5 785.5,-0.5 742.5,-0.5"/>
<text text-anchor="middle" x="764" y="-7.7" font-family="-apple-system, BlinkMacSystemFont, 'Segoe UI', Roboto, Oxygen, Ubuntu, Cantarell, 'Fira Sans', 'Droid Sans', 'Helvetica Neue', sans-serif" font-size="11.00">string</text>
</a>
</g>
</g>
<!-- Node1&#45;&gt;Node10 -->
<g id="edge42" class="edge">
<title>Node1&#45;&gt;Node10</title>
<path fill="none" stroke="midnightblue" d="M1471.66,-336.81C1228.81,-337.93 218.28,-339.31 89,-285 38.71,-263.88 0,-255.04 0,-200.5 0,-200.5 0,-200.5 0,-135.5 0,-60.11 587.05,-21.61 731.96,-13.26"/>
<polygon fill="midnightblue" stroke="midnightblue" points="732.58,-16.73 742.37,-12.66 732.18,-9.74 732.58,-16.73"/>
</g>
<!-- Node11 -->
<g id="node11" class="node">
<title>Node11</title>
<g id="a_node11"><a xlink:title=" ">
<polygon fill="none" stroke="#bfbfbf" points="1222.5,-189.5 1222.5,-209.5 1269.5,-209.5 1269.5,-189.5 1222.5,-189.5"/>
<text text-anchor="middle" x="1246" y="-196.7" font-family="-apple-system, BlinkMacSystemFont, 'Segoe UI', Roboto, Oxygen, Ubuntu, Cantarell, 'Fira Sans', 'Droid Sans', 'Helvetica Neue', sans-serif" font-size="11.00">thread</text>
</a>
</g>
</g>
<!-- Node1&#45;&gt;Node11 -->
<g id="edge43" class="edge">
<title>Node1&#45;&gt;Node11</title>
<path fill="none" stroke="midnightblue" d="M1471.84,-330.85C1410.19,-323.23 1312.38,-307.94 1284,-285 1263.62,-268.53 1253.79,-238.79 1249.33,-219.35"/>
<polygon fill="midnightblue" stroke="midnightblue" points="1252.76,-218.62 1247.34,-209.52 1245.9,-220.01 1252.76,-218.62"/>
</g>
<!-- Node12 -->
<g id="node12" class="node">
<title>Node12</title>
<g id="a_node12"><a xlink:title=" ">
<polygon fill="none" stroke="#bfbfbf" points="1272,-126.5 1272,-146.5 1338,-146.5 1338,-126.5 1272,-126.5"/>
<text text-anchor="middle" x="1305" y="-133.7" font-family="-apple-system, BlinkMacSystemFont, 'Segoe UI', Roboto, Oxygen, Ubuntu, Cantarell, 'Fira Sans', 'Droid Sans', 'Helvetica Neue', sans-serif" font-size="11.00">type_traits</text>
</a>
</g>
</g>
<!-- Node1&#45;&gt;Node12 -->
<g id="edge44" class="edge">
<title>Node1&#45;&gt;Node12</title>
<path fill="none" stroke="midnightblue" d="M1496.38,-321.33C1460.72,-300.8 1398.16,-261.48 1355,-216 1337.68,-197.75 1322.94,-172.67 1314.04,-155.81"/>
<polygon fill="midnightblue" stroke="midnightblue" points="1316.95,-153.82 1309.28,-146.51 1310.72,-157.01 1316.95,-153.82"/>
</g>
<!-- Node14 -->
<g id="node14" class="node">
<title>Node14</title>
<g id="a_node14"><a xlink:title=" ">
<polygon fill="none" stroke="#bfbfbf" points="123.5,-126.5 123.5,-146.5 172.5,-146.5 172.5,-126.5 123.5,-126.5"/>
<text text-anchor="middle" x="148" y="-133.7" font-family="-apple-system, BlinkMacSystemFont, 'Segoe UI', Roboto, Oxygen, Ubuntu, Cantarell, 'Fira Sans', 'Droid Sans', 'Helvetica Neue', sans-serif" font-size="11.00">variant</text>
</a>
</g>
</g>
<!-- Node1&#45;&gt;Node14 -->
<g id="edge46" class="edge">
<title>Node1&#45;&gt;Node14</title>
<path fill="none" stroke="midnightblue" d="M1471.7,-336.53C1262.71,-336.32 487.29,-332.29 247,-285 158.85,-267.65 108.56,-289.57 57,-216 48.58,-203.99 49.29,-195.48 57,-183 69.31,-163.08 93.28,-151.59 113.53,-145.14"/>
<polygon fill="midnightblue" stroke="midnightblue" points="114.77,-148.42 123.4,-142.28 112.83,-141.7 114.77,-148.42"/>
</g>
<!-- Node56 -->
<g id="node18" class="node">
<title>Node56</title>
<g id="a_node18"><a xlink:href="MiraiClientEvents_8hpp.html" target="_top" xlink:title=" ">
<polygon fill="none" stroke="red" points="1416.5,-57.5 1416.5,-89.5 1555.5,-89.5 1555.5,-57.5 1416.5,-57.5"/>
<text text-anchor="start" x="1424.5" y="-76.7" font-family="-apple-system, BlinkMacSystemFont, 'Segoe UI', Roboto, Oxygen, Ubuntu, Cantarell, 'Fira Sans', 'Droid Sans', 'Helvetica Neue', sans-serif" font-size="11.00">libmirai/Events/MiraiClient</text>
<text text-anchor="middle" x="1486" y="-64.7" font-family="-apple-system, BlinkMacSystemFont, 'Segoe UI', Roboto, Oxygen, Ubuntu, Cantarell, 'Fira Sans', 'Droid Sans', 'Helvetica Neue', sans-serif" font-size="11.00">Events.hpp</text>
</a>
</g>
</g>
<!-- Node1&#45;&gt;Node56 -->
<g id="edge49" class="edge">
<title>Node1&#45;&gt;Node56</title>
<path fill="none" stroke="midnightblue" d="M1528.87,-321.36C1531.88,-311.2 1535.45,-297.45 1537,-285 1538.81,-270.45 1538.36,-266.6 1537,-252 1531.76,-195.87 1509.66,-133.12 1496.33,-99.32"/>
<polygon fill="midnightblue" stroke="midnightblue" points="1499.48,-97.77 1492.51,-89.79 1492.99,-100.38 1499.48,-97.77"/>
</g>
<!-- Node32 -->
<g id="node19" class="node">
<title>Node32</title>
<g id="a_node19"><a xlink:title=" ">
<polygon fill="none" stroke="#bfbfbf" points="1512,-0.5 1512,-20.5 1574,-20.5 1574,-0.5 1512,-0.5"/>
<text text-anchor="middle" x="1543" y="-7.7" font-family="-apple-system, BlinkMacSystemFont, 'Segoe UI', Roboto, Oxygen, Ubuntu, Cantarell, 'Fira Sans', 'Droid Sans', 'Helvetica Neue', sans-serif" font-size="11.00">exception</text>
</a>
</g>
</g>
<!-- Node1&#45;&gt;Node32 -->
<g id="edge38" class="edge">
<title>Node1&#45;&gt;Node32</title>
<path fill="none" stroke="midnightblue" d="M1539.38,-321.32C1561.59,-297.7 1600,-249.73 1600,-200.5 1600,-200.5 1600,-200.5 1600,-135.5 1600,-94.29 1573.69,-51.85 1556.82,-28.86"/>
<polygon fill="midnightblue" stroke="midnightblue" points="1559.52,-26.63 1550.69,-20.79 1553.95,-30.87 1559.52,-26.63"/>
</g>
<!-- Node22 -->
<g id="node22" class="node">
<title>Node22</title>
<g id="a_node22"><a xlink:title=" ">
<polygon fill="none" stroke="#bfbfbf" points="1199.5,-126.5 1199.5,-146.5 1240.5,-146.5 1240.5,-126.5 1199.5,-126.5"/>
<text text-anchor="middle" x="1220" y="-133.7" font-family="-apple-system, BlinkMacSystemFont, 'Segoe UI', Roboto, Oxygen, Ubuntu, Cantarell, 'Fira Sans', 'Droid Sans', 'Helvetica Neue', sans-serif" font-size="11.00">utility</text>
</a>
</g>
</g>
<!-- Node1&#45;&gt;Node22 -->
<g id="edge45" class="edge">
<title>Node1&#45;&gt;Node22</title>
<path fill="none" stroke="midnightblue" d="M1473.09,-321.47C1447.69,-312.79 1417.12,-300.51 1392,-285 1334.43,-249.46 1330.94,-226.36 1279,-183 1266.5,-172.56 1252.02,-161.39 1240.54,-152.72"/>
<polygon fill="midnightblue" stroke="midnightblue" points="1242.52,-149.84 1232.42,-146.64 1238.32,-155.44 1242.52,-149.84"/>
</g>
<!-- Node66 -->
<g id="node23" class="node">
<title>Node66</title>
<g id="a_node23"><a xlink:href="Logger_8hpp.html" target="_top" xlink:title=" ">
<polygon fill="none" stroke="red" points="1364,-189.5 1364,-209.5 1496,-209.5 1496,-189.5 1364,-189.5"/>
<text text-anchor="middle" x="1430" y="-196.7" font-family="-apple-system, BlinkMacSystemFont, 'Segoe UI', Roboto, Oxygen, Ubuntu, Cantarell, 'Fira Sans', 'Droid Sans', 'Helvetica Neue', sans-serif" font-size="11.00">libmirai/Utils/Logger.hpp</text>
</a>
</g>
</g>
<!-- Node1&#45;&gt;Node66 -->
<g id="edge53" class="edge">
<title>Node1&#45;&gt;Node66</title>
<path fill="none" stroke="midnightblue" d="M1513.58,-321.43C1496.05,-296.06 1460.75,-244.99 1442.13,-218.05"/>
<polygon fill="midnightblue" stroke="midnightblue" points="1444.86,-215.85 1436.3,-209.61 1439.1,-219.83 1444.86,-215.85"/>
</g>
<!-- Node68 -->
<g id="node24" class="node">
<title>Node68</title>
<g id="a_node24"><a xlink:title=" ">
<polygon fill="none" stroke="#bfbfbf" points="1447,-126.5 1447,-146.5 1493,-146.5 1493,-126.5 1447,-126.5"/>
<text text-anchor="middle" x="1470" y="-133.7" font-family="-apple-system, BlinkMacSystemFont, 'Segoe UI', Roboto, Oxygen, Ubuntu, Cantarell, 'Fira Sans', 'Droid Sans', 'Helvetica Neue', sans-serif" font-size="11.00">mutex</text>
</a>
</g>
</g>
<!-- Node1&#45;&gt;Node68 -->
<g id="edge41" class="edge">
<title>Node1&#45;&gt;Node68</title>
<path fill="none" stroke="midnightblue" d="M1524.7,-321.46C1525.47,-293.19 1524.57,-230.7 1505,-183 1500.68,-172.46 1493.24,-162.26 1486.32,-154.2"/>
<polygon fill="midnightblue" stroke="midnightblue" points="1488.78,-151.7 1479.47,-146.65 1483.6,-156.41 1488.78,-151.7"/>
</g>
<!-- Node69 -->
<g id="node25" class="node">
<title>Node69</title>
<g id="a_node25"><a xlink:title=" ">
<polygon fill="none" stroke="#bfbfbf" points="1628.5,-258.5 1628.5,-278.5 1731.5,-278.5 1731.5,-258.5 1628.5,-258.5"/>
<text text-anchor="middle" x="1680" y="-265.7" font-family="-apple-system, BlinkMacSystemFont, 'Segoe UI', Roboto, Oxygen, Ubuntu, Cantarell, 'Fira Sans', 'Droid Sans', 'Helvetica Neue', sans-serif" font-size="11.00">condition_variable</text>
</a>
</g>
</g>
<!-- Node1&#45;&gt;Node69 -->
<g id="edge37" class="edge">
<title>Node1&#45;&gt;Node69</title>
<path fill="none" stroke="midnightblue" d="M1559.01,-321.46C1586.25,-309.76 1623.67,-293.69 1649.65,-282.53"/>
<polygon fill="midnightblue" stroke="midnightblue" points="1651.2,-285.68 1659,-278.52 1648.43,-279.25 1651.2,-285.68"/>
</g>
<!-- Node70 -->
<g id="node26" class="node">
<title>Node70</title>
<g id="a_node26"><a xlink:title=" ">
<polygon fill="none" stroke="#bfbfbf" points="1750,-258.5 1750,-278.5 1804,-278.5 1804,-258.5 1750,-258.5"/>
<text text-anchor="middle" x="1777" y="-265.7" font-family="-apple-system, BlinkMacSystemFont, 'Segoe UI', Roboto, Oxygen, Ubuntu, Cantarell, 'Fira Sans', 'Droid Sans', 'Helvetica Neue', sans-serif" font-size="11.00">httplib.h</text>
</a>
</g>
</g>
<!-- Node1&#45;&gt;Node70 -->
<g id="edge47" class="edge">
<title>Node1&#45;&gt;Node70</title>
<path fill="none" stroke="midnightblue" d="M1576,-326.8C1620.41,-317.9 1685.68,-303.32 1741,-285 1743.29,-284.24 1745.63,-283.4 1747.98,-282.5"/>
<polygon fill="midnightblue" stroke="midnightblue" points="1749.49,-285.67 1757.43,-278.66 1746.85,-279.18 1749.49,-285.67"/>
</g>
<!-- Node71 -->
<g id="node27" class="node">
<title>Node71</title>
<g id="a_node27"><a xlink:title=" ">
<polygon fill="none" stroke="#bfbfbf" points="1822,-258.5 1822,-278.5 1930,-278.5 1930,-258.5 1822,-258.5"/>
<text text-anchor="middle" x="1876" y="-265.7" font-family="-apple-system, BlinkMacSystemFont, 'Segoe UI', Roboto, Oxygen, Ubuntu, Cantarell, 'Fira Sans', 'Droid Sans', 'Helvetica Neue', sans-serif" font-size="11.00">nlohmann/json.hpp</text>
</a>
</g>
</g>
<!-- Node1&#45;&gt;Node71 -->
<g id="edge48" class="edge">
<title>Node1&#45;&gt;Node71</title>
<path fill="none" stroke="midnightblue" d="M1576.14,-328.25C1634.17,-318.84 1730.61,-302.46 1813,-285 1818.86,-283.76 1825,-282.36 1831.06,-280.93"/>
<polygon fill="midnightblue" stroke="midnightblue" points="1832.2,-284.26 1841.1,-278.51 1830.56,-277.45 1832.2,-284.26"/>
</g>
<!-- Node72 -->
<g id="node28" class="node">
<title>Node72</title>
<g id="a_node28"><a xlink:title=" ">
<polygon fill="none" stroke="#bfbfbf" points="1948,-252.5 1948,-284.5 2060,-284.5 2060,-252.5 1948,-252.5"/>
<text text-anchor="start" x="1956" y="-271.7" font-family="-apple-system, BlinkMacSystemFont, 'Segoe UI', Roboto, Oxygen, Ubuntu, Cantarell, 'Fira Sans', 'Droid Sans', 'Helvetica Neue', sans-serif" font-size="11.00">libmirai/Serialization</text>
<text text-anchor="middle" x="2004" y="-259.7" font-family="-apple-system, BlinkMacSystemFont, 'Segoe UI', Roboto, Oxygen, Ubuntu, Cantarell, 'Fira Sans', 'Droid Sans', 'Helvetica Neue', sans-serif" font-size="11.00">/Events/Events.hpp</text>
</a>
</g>
</g>
<!-- Node1&#45;&gt;Node72 -->
<g id="edge50" class="edge">
<title>Node1&#45;&gt;Node72</title>
<path fill="none" stroke="midnightblue" d="M1576.04,-331.91C1653,-324.71 1801.83,-309.21 1937.55,-285.15"/>
<polygon fill="midnightblue" stroke="midnightblue" points="1938.49,-288.54 1947.71,-283.33 1937.25,-281.65 1938.49,-288.54"/>
</g>
<!-- Node73 -->
<g id="node29" class="node">
<title>Node73</title>
<g id="a_node29"><a xlink:title=" ">
<polygon fill="none" stroke="#bfbfbf" points="2078,-252.5 2078,-284.5 2190,-284.5 2190,-252.5 2078,-252.5"/>
<text text-anchor="start" x="2086" y="-271.7" font-family="-apple-system, BlinkMacSystemFont, 'Segoe UI', Roboto, Oxygen, Ubuntu, Cantarell, 'Fira Sans', 'Droid Sans', 'Helvetica Neue', sans-serif" font-size="11.00">libmirai/Serialization</text>
<text text-anchor="middle" x="2134" y="-259.7" font-family="-apple-system, BlinkMacSystemFont, 'Segoe UI', Roboto, Oxygen, Ubuntu, Cantarell, 'Fira Sans', 'Droid Sans', 'Helvetica Neue', sans-serif" font-size="11.00">/Types/Types.hpp</text>
</a>
</g>
</g>
<!-- Node1&#45;&gt;Node73 -->
<g id="edge51" class="edge">
<title>Node1&#45;&gt;Node73</title>
<path fill="none" stroke="midnightblue" d="M1576.16,-334C1671.84,-328.9 1881.89,-315.23 2067.77,-285.06"/>
<polygon fill="midnightblue" stroke="midnightblue" points="2068.43,-288.5 2077.73,-283.43 2067.29,-281.6 2068.43,-288.5"/>
</g>
<!-- Node74 -->
<g id="node30" class="node">
<title>Node74</title>
<g id="a_node30"><a xlink:title=" ">
<polygon fill="none" stroke="#bfbfbf" points="2208,-258.5 2208,-278.5 2350,-278.5 2350,-258.5 2208,-258.5"/>
<text text-anchor="middle" x="2279" y="-265.7" font-family="-apple-system, BlinkMacSystemFont, 'Segoe UI', Roboto, Oxygen, Ubuntu, Cantarell, 'Fira Sans', 'Droid Sans', 'Helvetica Neue', sans-serif" font-size="11.00">libmirai/Utils/Common.hpp</text>
</a>
</g>
</g>
<!-- Node1&#45;&gt;Node74 -->
<g id="edge52" class="edge">
<title>Node1&#45;&gt;Node74</title>
<path fill="none" stroke="midnightblue" d="M1576.3,-334.56C1690.01,-329.91 1968.08,-316.07 2199,-285 2208.16,-283.77 2217.86,-282.15 2227.23,-280.43"/>
<polygon fill="midnightblue" stroke="midnightblue" points="2228.04,-283.84 2237.22,-278.54 2226.74,-276.96 2228.04,-283.84"/>
</g>
<!-- Node75 -->
<g id="node31" class="node">
<title>Node75</title>
<g id="a_node31"><a xlink:title=" ">
<polygon fill="none" stroke="#bfbfbf" points="2368.5,-258.5 2368.5,-278.5 2523.5,-278.5 2523.5,-258.5 2368.5,-258.5"/>
<text text-anchor="middle" x="2446" y="-265.7" font-family="-apple-system, BlinkMacSystemFont, 'Segoe UI', Roboto, Oxygen, Ubuntu, Cantarell, 'Fira Sans', 'Droid Sans', 'Helvetica Neue', sans-serif" font-size="11.00">libmirai/Utils/ThreadPool.hpp</text>
</a>
</g>
</g>
<!-- Node1&#45;&gt;Node75 -->
<g id="edge54" class="edge">
<title>Node1&#45;&gt;Node75</title>
<path fill="none" stroke="midnightblue" d="M1576.46,-335.35C1708.38,-332.02 2064.44,-320.21 2359,-285 2369.39,-283.76 2380.42,-282.08 2391.01,-280.28"/>
<polygon fill="midnightblue" stroke="midnightblue" points="2391.75,-283.71 2400.99,-278.53 2390.54,-276.81 2391.75,-283.71"/>
</g>
<!-- Node3 -->
<g id="node3" class="node">
<title>Node3</title>
<g id="a_node3"><a xlink:title=" ">
<polygon fill="none" stroke="#bfbfbf" points="432,-189.5 432,-209.5 496,-209.5 496,-189.5 432,-189.5"/>
<text text-anchor="middle" x="464" y="-196.7" font-family="-apple-system, BlinkMacSystemFont, 'Segoe UI', Roboto, Oxygen, Ubuntu, Cantarell, 'Fira Sans', 'Droid Sans', 'Helvetica Neue', sans-serif" font-size="11.00">filesystem</text>
</a>
</g>
</g>
<!-- Node2&#45;&gt;Node3 -->
<g id="edge2" class="edge">
<title>Node2&#45;&gt;Node3</title>
<path fill="none" stroke="midnightblue" d="M731.22,-262.2C682.54,-254.03 588.43,-237.08 510,-216 506.37,-215.02 502.6,-213.92 498.87,-212.76"/>
<polygon fill="midnightblue" stroke="midnightblue" points="499.73,-209.35 489.13,-209.6 497.57,-216.01 499.73,-209.35"/>
</g>
<!-- Node2&#45;&gt;Node4 -->
<g id="edge3" class="edge">
<title>Node2&#45;&gt;Node4</title>
<path fill="none" stroke="midnightblue" d="M731.39,-268.02C637.4,-268.84 358.29,-266.51 134,-216 130.37,-215.18 126.63,-214.11 122.96,-212.92"/>
<polygon fill="midnightblue" stroke="midnightblue" points="124.11,-209.61 113.51,-209.54 121.75,-216.2 124.11,-209.61"/>
</g>
<!-- Node5 -->
<g id="node5" class="node">
<title>Node5</title>
<g id="a_node5"><a xlink:title=" ">
<polygon fill="none" stroke="#bfbfbf" points="493,-126.5 493,-146.5 555,-146.5 555,-126.5 493,-126.5"/>
<text text-anchor="middle" x="524" y="-133.7" font-family="-apple-system, BlinkMacSystemFont, 'Segoe UI', Roboto, Oxygen, Ubuntu, Cantarell, 'Fira Sans', 'Droid Sans', 'Helvetica Neue', sans-serif" font-size="11.00">functional</text>
</a>
</g>
</g>
<!-- Node2&#45;&gt;Node5 -->
<g id="edge4" class="edge">
<title>Node2&#45;&gt;Node5</title>
<path fill="none" stroke="midnightblue" d="M731.07,-264.05C676.16,-257.63 569.3,-242.07 543,-216 527.41,-200.54 523.78,-174.62 523.32,-156.82"/>
<polygon fill="midnightblue" stroke="midnightblue" points="526.82,-156.74 523.37,-146.72 519.82,-156.71 526.82,-156.74"/>
</g>
<!-- Node6 -->
<g id="node6" class="node">
<title>Node6</title>
<g id="a_node6"><a xlink:title=" ">
<polygon fill="none" stroke="#bfbfbf" points="552.5,-189.5 552.5,-209.5 593.5,-209.5 593.5,-189.5 552.5,-189.5"/>
<text text-anchor="middle" x="573" y="-196.7" font-family="-apple-system, BlinkMacSystemFont, 'Segoe UI', Roboto, Oxygen, Ubuntu, Cantarell, 'Fira Sans', 'Droid Sans', 'Helvetica Neue', sans-serif" font-size="11.00">limits</text>
</a>
</g>
</g>
<!-- Node2&#45;&gt;Node6 -->
<g id="edge5" class="edge">
<title>Node2&#45;&gt;Node6</title>
<path fill="none" stroke="midnightblue" d="M733.79,-258.49C702.13,-248.83 651.11,-232.62 608,-216 605.93,-215.2 603.81,-214.35 601.69,-213.47"/>
<polygon fill="midnightblue" stroke="midnightblue" points="603.05,-210.25 592.48,-209.53 600.3,-216.69 603.05,-210.25"/>
</g>
<!-- Node2&#45;&gt;Node7 -->
<g id="edge6" class="edge">
<title>Node2&#45;&gt;Node7</title>
<path fill="none" stroke="midnightblue" d="M731.45,-262.29C703.42,-256.09 663.98,-242.96 641,-216 626.9,-199.46 622.91,-174.16 621.95,-156.78"/>
<polygon fill="midnightblue" stroke="midnightblue" points="625.45,-156.58 621.69,-146.67 618.45,-156.76 625.45,-156.58"/>
</g>
<!-- Node8 -->
<g id="node8" class="node">
<title>Node8</title>
<g id="a_node8"><a xlink:title=" ">
<polygon fill="none" stroke="#bfbfbf" points="1015,-126.5 1015,-146.5 1069,-146.5 1069,-126.5 1015,-126.5"/>
<text text-anchor="middle" x="1042" y="-133.7" font-family="-apple-system, BlinkMacSystemFont, 'Segoe UI', Roboto, Oxygen, Ubuntu, Cantarell, 'Fira Sans', 'Droid Sans', 'Helvetica Neue', sans-serif" font-size="11.00">optional</text>
</a>
</g>
</g>
<!-- Node2&#45;&gt;Node8 -->
<g id="edge7" class="edge">
<title>Node2&#45;&gt;Node8</title>
<path fill="none" stroke="midnightblue" d="M796.57,-258.83C827.94,-249.94 876.33,-234.77 916,-216 921.35,-213.47 983.83,-174.19 1018.75,-152.18"/>
<polygon fill="midnightblue" stroke="midnightblue" points="1020.8,-155.03 1027.39,-146.73 1017.06,-149.1 1020.8,-155.03"/>
</g>
<!-- Node9 -->
<g id="node9" class="node">
<title>Node9</title>
<g id="a_node9"><a xlink:title=" ">
<polygon fill="none" stroke="#bfbfbf" points="650.5,-189.5 650.5,-209.5 735.5,-209.5 735.5,-189.5 650.5,-189.5"/>
<text text-anchor="middle" x="693" y="-196.7" font-family="-apple-system, BlinkMacSystemFont, 'Segoe UI', Roboto, Oxygen, Ubuntu, Cantarell, 'Fira Sans', 'Droid Sans', 'Helvetica Neue', sans-serif" font-size="11.00">shared_mutex</text>
</a>
</g>
</g>
<!-- Node2&#45;&gt;Node9 -->
<g id="edge8" class="edge">
<title>Node2&#45;&gt;Node9</title>
<path fill="none" stroke="midnightblue" d="M754.42,-258.46C743.16,-247.83 724.24,-229.98 710.37,-216.89"/>
<polygon fill="midnightblue" stroke="midnightblue" points="712.55,-214.14 702.88,-209.82 707.75,-219.23 712.55,-214.14"/>
</g>
<!-- Node2&#45;&gt;Node10 -->
<g id="edge9" class="edge">
<title>Node2&#45;&gt;Node10</title>
<path fill="none" stroke="midnightblue" d="M764,-258.39C764,-221.37 764,-81.8 764,-30.53"/>
<polygon fill="midnightblue" stroke="midnightblue" points="767.5,-30.5 764,-20.5 760.5,-30.5 767.5,-30.5"/>
</g>
<!-- Node2&#45;&gt;Node11 -->
<g id="edge10" class="edge">
<title>Node2&#45;&gt;Node11</title>
<path fill="none" stroke="midnightblue" d="M796.59,-266.74C870.77,-264.35 1057.49,-254.65 1208,-216 1211.01,-215.23 1214.09,-214.27 1217.14,-213.21"/>
<polygon fill="midnightblue" stroke="midnightblue" points="1218.53,-216.43 1226.62,-209.59 1216.03,-209.89 1218.53,-216.43"/>
</g>
<!-- Node2&#45;&gt;Node12 -->
<g id="edge11" class="edge">
<title>Node2&#45;&gt;Node12</title>
<path fill="none" stroke="midnightblue" d="M796.7,-267.41C865.19,-266.32 1027.98,-258.99 1156,-216 1184.12,-206.56 1187.84,-196.97 1214,-183 1234.77,-171.91 1258.59,-160.03 1276.64,-151.19"/>
<polygon fill="midnightblue" stroke="midnightblue" points="1278.57,-154.15 1286.03,-146.62 1275.5,-147.85 1278.57,-154.15"/>
</g>
<!-- Node13 -->
<g id="node13" class="node">
<title>Node13</title>
<g id="a_node13"><a xlink:title=" ">
<polygon fill="none" stroke="#bfbfbf" points="792.5,-189.5 792.5,-209.5 885.5,-209.5 885.5,-189.5 792.5,-189.5"/>
<text text-anchor="middle" x="839" y="-196.7" font-family="-apple-system, BlinkMacSystemFont, 'Segoe UI', Roboto, Oxygen, Ubuntu, Cantarell, 'Fira Sans', 'Droid Sans', 'Helvetica Neue', sans-serif" font-size="11.00">unordered_map</text>
</a>
</g>
</g>
<!-- Node2&#45;&gt;Node13 -->
<g id="edge12" class="edge">
<title>Node2&#45;&gt;Node13</title>
<path fill="none" stroke="midnightblue" d="M774.11,-258.46C786.13,-247.73 806.38,-229.64 821.06,-216.52"/>
<polygon fill="midnightblue" stroke="midnightblue" points="823.44,-219.1 828.56,-209.82 818.77,-213.87 823.44,-219.1"/>
</g>
<!-- Node2&#45;&gt;Node14 -->
<g id="edge13" class="edge">
<title>Node2&#45;&gt;Node14</title>
<path fill="none" stroke="midnightblue" d="M731.18,-266.26C616.85,-261.68 240.52,-244.59 195,-216 173.41,-202.44 160.42,-175.03 153.73,-156.46"/>
<polygon fill="midnightblue" stroke="midnightblue" points="156.97,-155.12 150.5,-146.72 150.33,-157.32 156.97,-155.12"/>
</g>
<!-- Node15 -->
<g id="node15" class="node">
<title>Node15</title>
<g id="a_node15"><a xlink:title=" ">
<polygon fill="none" stroke="#bfbfbf" points="1110,-126.5 1110,-146.5 1156,-146.5 1156,-126.5 1110,-126.5"/>
<text text-anchor="middle" x="1133" y="-133.7" font-family="-apple-system, BlinkMacSystemFont, 'Segoe UI', Roboto, Oxygen, Ubuntu, Cantarell, 'Fira Sans', 'Droid Sans', 'Helvetica Neue', sans-serif" font-size="11.00">vector</text>
</a>
</g>
</g>
<!-- Node2&#45;&gt;Node15 -->
<g id="edge14" class="edge">
<title>Node2&#45;&gt;Node15</title>
<path fill="none" stroke="midnightblue" d="M796.67,-268.19C879.24,-269.16 1092.87,-266.64 1137,-216 1151.11,-199.81 1146.36,-173.87 1140.61,-156.28"/>
<polygon fill="midnightblue" stroke="midnightblue" points="1143.78,-154.75 1137.06,-146.56 1137.2,-157.16 1143.78,-154.75"/>
</g>
<!-- Node16 -->
<g id="node16" class="node">
<title>Node16</title>
<g id="a_node16"><a xlink:href="IAdaptor_8hpp.html" target="_top" xlink:title=" ">
<polygon fill="none" stroke="black" points="214,-189.5 214,-209.5 376,-209.5 376,-189.5 214,-189.5"/>
<text text-anchor="middle" x="295" y="-196.7" font-family="-apple-system, BlinkMacSystemFont, 'Segoe UI', Roboto, Oxygen, Ubuntu, Cantarell, 'Fira Sans', 'Droid Sans', 'Helvetica Neue', sans-serif" font-size="11.00">libmirai/Adaptors/IAdaptor.hpp</text>
</a>
</g>
</g>
<!-- Node2&#45;&gt;Node16 -->
<g id="edge15" class="edge">
<title>Node2&#45;&gt;Node16</title>
<path fill="none" stroke="midnightblue" d="M731.39,-262.84C656.71,-252.17 471.73,-225.75 368.18,-210.95"/>
<polygon fill="midnightblue" stroke="midnightblue" points="368.51,-207.47 358.12,-209.52 367.52,-214.4 368.51,-207.47"/>
</g>
<!-- Node17 -->
<g id="node17" class="node">
<title>Node17</title>
<g id="a_node17"><a xlink:href="Events_8hpp.html" target="_top" xlink:title=" ">
<polygon fill="none" stroke="red" points="843,-126.5 843,-146.5 985,-146.5 985,-126.5 843,-126.5"/>
<text text-anchor="middle" x="914" y="-133.7" font-family="-apple-system, BlinkMacSystemFont, 'Segoe UI', Roboto, Oxygen, Ubuntu, Cantarell, 'Fira Sans', 'Droid Sans', 'Helvetica Neue', sans-serif" font-size="11.00">libmirai/Events/Events.hpp</text>
</a>
</g>
</g>
<!-- Node2&#45;&gt;Node17 -->
<g id="edge24" class="edge">
<title>Node2&#45;&gt;Node17</title>
<path fill="none" stroke="midnightblue" d="M796.56,-263.08C826.18,-257.34 868.98,-244.43 894,-216 908.4,-199.63 912.7,-174.3 913.84,-156.86"/>
<polygon fill="midnightblue" stroke="midnightblue" points="917.34,-156.84 914.22,-146.72 910.35,-156.58 917.34,-156.84"/>
</g>
<!-- Node64 -->
<g id="node20" class="node">
<title>Node64</title>
<g id="a_node20"><a xlink:href="Types_8hpp.html" target="_top" xlink:title=" ">
<polygon fill="none" stroke="red" points="209,-126.5 209,-146.5 345,-146.5 345,-126.5 209,-126.5"/>
<text text-anchor="middle" x="277" y="-133.7" font-family="-apple-system, BlinkMacSystemFont, 'Segoe UI', Roboto, Oxygen, Ubuntu, Cantarell, 'Fira Sans', 'Droid Sans', 'Helvetica Neue', sans-serif" font-size="11.00">libmirai/Types/Types.hpp</text>
</a>
</g>
</g>
<!-- Node2&#45;&gt;Node64 -->
<g id="edge32" class="edge">
<title>Node2&#45;&gt;Node64</title>
<path fill="none" stroke="midnightblue" d="M731.12,-266.99C616.64,-264.88 240.59,-255.02 205,-216 195.12,-205.16 197.92,-195.85 205,-183 212.96,-168.55 227.66,-158.06 241.71,-150.81"/>
<polygon fill="midnightblue" stroke="midnightblue" points="243.23,-153.96 250.77,-146.51 240.23,-147.64 243.23,-153.96"/>
</g>
<!-- Node27 -->
<g id="node21" class="node">
<title>Node27</title>
<g id="a_node21"><a xlink:href="MessageChain_8hpp.html" target="_top" xlink:title=" ">
<polygon fill="none" stroke="red" points="979.5,-183.5 979.5,-215.5 1128.5,-215.5 1128.5,-183.5 979.5,-183.5"/>
<text text-anchor="start" x="987.5" y="-202.7" font-family="-apple-system, BlinkMacSystemFont, 'Segoe UI', Roboto, Oxygen, Ubuntu, Cantarell, 'Fira Sans', 'Droid Sans', 'Helvetica Neue', sans-serif" font-size="11.00">libmirai/Messages/Message</text>
<text text-anchor="middle" x="1054" y="-190.7" font-family="-apple-system, BlinkMacSystemFont, 'Segoe UI', Roboto, Oxygen, Ubuntu, Cantarell, 'Fira Sans', 'Droid Sans', 'Helvetica Neue', sans-serif" font-size="11.00">Chain.hpp</text>
</a>
</g>
</g>
<!-- Node2&#45;&gt;Node27 -->
<g id="edge25" class="edge">
<title>Node2&#45;&gt;Node27</title>
<path fill="none" stroke="midnightblue" d="M796.7,-259.94C840.6,-249.8 919.88,-231.49 978.88,-217.85"/>
<polygon fill="midnightblue" stroke="midnightblue" points="979.95,-221.2 988.91,-215.54 978.38,-214.38 979.95,-221.2"/>
</g>
<!-- Node2&#45;&gt;Node66 -->
<g id="edge33" class="edge">
<title>Node2&#45;&gt;Node66</title>
<path fill="none" stroke="midnightblue" d="M796.54,-264.28C877.88,-256.21 1096.63,-234.48 1279,-216 1303.32,-213.54 1329.84,-210.82 1353.77,-208.36"/>
<polygon fill="midnightblue" stroke="midnightblue" points="1354.26,-211.83 1363.85,-207.33 1353.55,-204.87 1354.26,-211.83"/>
</g>
<!-- Node16&#45;&gt;Node5 -->
<g id="edge16" class="edge">
<title>Node16&#45;&gt;Node5</title>
<path fill="none" stroke="midnightblue" d="M328.79,-189.5C369.77,-178.58 438.8,-160.2 482.84,-148.46"/>
<polygon fill="midnightblue" stroke="midnightblue" points="483.89,-151.81 492.65,-145.85 482.09,-145.04 483.89,-151.81"/>
</g>
<!-- Node16&#45;&gt;Node10 -->
<g id="edge17" class="edge">
<title>Node16&#45;&gt;Node10</title>
<path fill="none" stroke="midnightblue" d="M317.62,-189.48C394.35,-158.89 644.82,-59.02 732.97,-23.87"/>
<polygon fill="midnightblue" stroke="midnightblue" points="734.43,-27.06 742.42,-20.1 731.83,-20.56 734.43,-27.06"/>
</g>
<!-- Node16&#45;&gt;Node14 -->
<g id="edge18" class="edge">
<title>Node16&#45;&gt;Node14</title>
<path fill="none" stroke="midnightblue" d="M273.31,-189.5C248.45,-179.18 207.5,-162.19 179.21,-150.45"/>
<polygon fill="midnightblue" stroke="midnightblue" points="180.36,-147.14 169.78,-146.54 177.67,-153.6 180.36,-147.14"/>
</g>
<!-- Node16&#45;&gt;Node17 -->
<g id="edge19" class="edge">
<title>Node16&#45;&gt;Node17</title>
<path fill="none" stroke="midnightblue" d="M366.38,-189.5C384.82,-187.27 404.64,-184.96 423,-183 567.08,-167.6 735.28,-152.68 832.71,-144.33"/>
<polygon fill="midnightblue" stroke="midnightblue" points="833.12,-147.81 842.79,-143.47 832.53,-140.83 833.12,-147.81"/>
</g>
<!-- Node16&#45;&gt;Node64 -->
<g id="edge23" class="edge">
<title>Node16&#45;&gt;Node64</title>
<path fill="none" stroke="midnightblue" d="M292.34,-189.5C289.77,-180.76 285.77,-167.23 282.51,-156.16"/>
<polygon fill="midnightblue" stroke="midnightblue" points="285.85,-155.14 279.67,-146.54 279.14,-157.12 285.85,-155.14"/>
</g>
<!-- Node17&#45;&gt;Node56 -->
<g id="edge20" class="edge">
<title>Node17&#45;&gt;Node56</title>
<path fill="none" stroke="midnightblue" d="M985.29,-127.9C1092.31,-116.48 1293.85,-94.99 1405.84,-83.05"/>
<polygon fill="midnightblue" stroke="midnightblue" points="1406.48,-86.5 1416.06,-81.96 1405.74,-79.54 1406.48,-86.5"/>
</g>
<!-- Node56&#45;&gt;Node10 -->
<g id="edge22" class="edge">
<title>Node56&#45;&gt;Node10</title>
<path fill="none" stroke="midnightblue" d="M1416.43,-60.98C1406.24,-59.51 1395.86,-58.12 1386,-57 1160.41,-31.31 887.05,-17.18 795.54,-12.91"/>
<polygon fill="midnightblue" stroke="midnightblue" points="795.69,-9.41 785.54,-12.44 795.37,-16.4 795.69,-9.41"/>
</g>
<!-- Node56&#45;&gt;Node32 -->
<g id="edge21" class="edge">
<title>Node56&#45;&gt;Node32</title>
<path fill="none" stroke="midnightblue" d="M1500.09,-57.42C1508.45,-48.47 1519.06,-37.12 1527.64,-27.94"/>
<polygon fill="midnightblue" stroke="midnightblue" points="1530.28,-30.24 1534.55,-20.55 1525.16,-25.46 1530.28,-30.24"/>
</g>
<!-- Node27&#45;&gt;Node5 -->
<g id="edge26" class="edge">
<title>Node27&#45;&gt;Node5</title>
<path fill="none" stroke="midnightblue" d="M979.14,-191.33C886.47,-182.21 723.85,-165.43 585,-147 578.66,-146.16 571.95,-145.19 565.4,-144.21"/>
<polygon fill="midnightblue" stroke="midnightblue" points="565.72,-140.71 555.31,-142.65 564.66,-147.63 565.72,-140.71"/>
</g>
<!-- Node27&#45;&gt;Node7 -->
<g id="edge27" class="edge">
<title>Node27&#45;&gt;Node7</title>
<path fill="none" stroke="midnightblue" d="M979.24,-187.94C886.49,-174.85 731.84,-153.01 660.37,-142.92"/>
<polygon fill="midnightblue" stroke="midnightblue" points="660.84,-139.45 650.45,-141.52 659.86,-146.38 660.84,-139.45"/>
</g>
<!-- Node27&#45;&gt;Node8 -->
<g id="edge28" class="edge">
<title>Node27&#45;&gt;Node8</title>
<path fill="none" stroke="midnightblue" d="M1051.03,-183.42C1049.43,-175.28 1047.44,-165.16 1045.74,-156.49"/>
<polygon fill="midnightblue" stroke="midnightblue" points="1049.14,-155.68 1043.78,-146.55 1042.28,-157.03 1049.14,-155.68"/>
</g>
<!-- Node27&#45;&gt;Node12 -->
<g id="edge29" class="edge">
<title>Node27&#45;&gt;Node12</title>
<path fill="none" stroke="midnightblue" d="M1115.72,-183.5C1161.22,-172.44 1221.95,-157.68 1262.21,-147.9"/>
<polygon fill="midnightblue" stroke="midnightblue" points="1263.09,-151.29 1271.98,-145.53 1261.43,-144.49 1263.09,-151.29"/>
</g>
<!-- Node27&#45;&gt;Node15 -->
<g id="edge31" class="edge">
<title>Node27&#45;&gt;Node15</title>
<path fill="none" stroke="midnightblue" d="M1073.53,-183.42C1085.59,-174.11 1101.02,-162.19 1113.14,-152.84"/>
<polygon fill="midnightblue" stroke="midnightblue" points="1115.51,-155.43 1121.28,-146.55 1111.23,-149.89 1115.51,-155.43"/>
</g>
<!-- Node27&#45;&gt;Node22 -->
<g id="edge30" class="edge">
<title>Node27&#45;&gt;Node22</title>
<path fill="none" stroke="midnightblue" d="M1095.03,-183.42C1124.32,-172.66 1163.07,-158.42 1189.6,-148.67"/>
<polygon fill="midnightblue" stroke="midnightblue" points="1190.95,-151.9 1199.13,-145.17 1188.54,-145.33 1190.95,-151.9"/>
</g>
<!-- Node66&#45;&gt;Node10 -->
<g id="edge35" class="edge">
<title>Node66&#45;&gt;Node10</title>
<path fill="none" stroke="midnightblue" d="M1422.38,-189.22C1408.92,-173.51 1379.3,-141.84 1347,-126 1153.22,-30.96 886.73,-14.79 795.85,-12.05"/>
<polygon fill="midnightblue" stroke="midnightblue" points="795.74,-8.55 785.65,-11.78 795.55,-15.55 795.74,-8.55"/>
</g>
<!-- Node66&#45;&gt;Node12 -->
<g id="edge36" class="edge">
<title>Node66&#45;&gt;Node12</title>
<path fill="none" stroke="midnightblue" d="M1411.56,-189.5C1390.78,-179.36 1356.8,-162.78 1332.81,-151.07"/>
<polygon fill="midnightblue" stroke="midnightblue" points="1334.04,-147.78 1323.52,-146.54 1330.97,-154.07 1334.04,-147.78"/>
</g>
<!-- Node66&#45;&gt;Node68 -->
<g id="edge34" class="edge">
<title>Node66&#45;&gt;Node68</title>
<path fill="none" stroke="midnightblue" d="M1435.9,-189.5C1441.81,-180.49 1451.06,-166.39 1458.43,-155.14"/>
<polygon fill="midnightblue" stroke="midnightblue" points="1461.52,-156.82 1464.07,-146.54 1455.66,-152.98 1461.52,-156.82"/>
</g>
</g>
</svg>
