<?xml version="1.0" encoding="UTF-8" standalone="no"?>
<!DOCTYPE svg PUBLIC "-//W3C//DTD SVG 1.1//EN"
 "http://www.w3.org/Graphics/SVG/1.1/DTD/svg11.dtd">
<!-- Generated by graphviz version 2.43.0 (0)
 -->
<!-- Title: libmirai/public/libmirai/Api/Client.cpp Pages: 1 -->
<svg width="3238pt" height="374pt"
 viewBox="0.00 0.00 3237.89 374.00" xmlns="http://www.w3.org/2000/svg" xmlns:xlink="http://www.w3.org/1999/xlink">
<g id="graph0" class="graph" transform="scale(1 1) rotate(0) translate(4 370)">
<title>libmirai/public/libmirai/Api/Client.cpp</title>
<!-- Node1 -->
<g id="node1" class="node">
<title>Node1</title>
<g id="a_node1"><a xlink:title=" ">
<polygon fill="#bfbfbf" stroke="black" points="1856.39,-333.5 1856.39,-365.5 1993.39,-365.5 1993.39,-333.5 1856.39,-333.5"/>
<text text-anchor="start" x="1864.39" y="-352.7" font-family="-apple-system,BlinkMacSystemFont,'SegoeUI',Roboto,Oxygen,Ubuntu,Cantarell,'FiraSans','DroidSans','HelveticaNeue',sans-serif" font-size="11.00">libmirai/public/libmirai</text>
<text text-anchor="middle" x="1924.89" y="-340.7" font-family="-apple-system,BlinkMacSystemFont,'SegoeUI',Roboto,Oxygen,Ubuntu,Cantarell,'FiraSans','DroidSans','HelveticaNeue',sans-serif" font-size="11.00">/Api/Client.cpp</text>
</a>
</g>
</g>
<!-- Node2 -->
<g id="node2" class="node">
<title>Node2</title>
<g id="a_node2"><a xlink:href="Client_8hpp.html" target="_top" xlink:title=" ">
<polygon fill="none" stroke="black" points="1080.89,-270.5 1080.89,-290.5 1152.89,-290.5 1152.89,-270.5 1080.89,-270.5"/>
<text text-anchor="middle" x="1116.89" y="-277.7" font-family="-apple-system,BlinkMacSystemFont,'SegoeUI',Roboto,Oxygen,Ubuntu,Cantarell,'FiraSans','DroidSans','HelveticaNeue',sans-serif" font-size="11.00">Client.hpp</text>
</a>
</g>
</g>
<!-- Node1&#45;&gt;Node2 -->
<g id="edge1" class="edge">
<title>Node1&#45;&gt;Node2</title>
<path fill="none" stroke="midnightblue" d="M1856.34,-342.82C1695.72,-329.5 1298.38,-296.55 1162.96,-285.32"/>
<polygon fill="midnightblue" stroke="midnightblue" points="1163.17,-281.83 1152.91,-284.49 1162.59,-288.8 1163.17,-281.83"/>
</g>
<!-- Node3 -->
<g id="node3" class="node">
<title>Node3</title>
<g id="a_node3"><a xlink:title=" ">
<polygon fill="none" stroke="#bfbfbf" points="51.89,-201.5 51.89,-221.5 167.89,-221.5 167.89,-201.5 51.89,-201.5"/>
<text text-anchor="middle" x="109.89" y="-208.7" font-family="-apple-system,BlinkMacSystemFont,'SegoeUI',Roboto,Oxygen,Ubuntu,Cantarell,'FiraSans','DroidSans','HelveticaNeue',sans-serif" font-size="11.00">condition_variable</text>
</a>
</g>
</g>
<!-- Node1&#45;&gt;Node3 -->
<g id="edge54" class="edge">
<title>Node1&#45;&gt;Node3</title>
<path fill="none" stroke="midnightblue" d="M1856.2,-348.33C1599.51,-347.34 696.81,-340.78 412.89,-297 313.3,-281.64 199.86,-244.53 144.27,-224.99"/>
<polygon fill="midnightblue" stroke="midnightblue" points="145.18,-221.6 134.58,-221.56 142.84,-228.2 145.18,-221.6"/>
</g>
<!-- Node5 -->
<g id="node5" class="node">
<title>Node5</title>
<g id="a_node5"><a xlink:title=" ">
<polygon fill="none" stroke="#bfbfbf" points="186.39,-201.5 186.39,-221.5 245.39,-221.5 245.39,-201.5 186.39,-201.5"/>
<text text-anchor="middle" x="215.89" y="-208.7" font-family="-apple-system,BlinkMacSystemFont,'SegoeUI',Roboto,Oxygen,Ubuntu,Cantarell,'FiraSans','DroidSans','HelveticaNeue',sans-serif" font-size="11.00">fstream</text>
</a>
</g>
</g>
<!-- Node1&#45;&gt;Node5 -->
<g id="edge56" class="edge">
<title>Node1&#45;&gt;Node5</title>
<path fill="none" stroke="midnightblue" d="M1856.24,-348.64C1667.29,-348.4 1123.72,-343.38 674.89,-297 488.9,-277.78 440.97,-274.57 259.89,-228 256.3,-227.08 252.6,-225.99 248.93,-224.83"/>
<polygon fill="midnightblue" stroke="midnightblue" points="250,-221.5 239.4,-221.63 247.77,-228.13 250,-221.5"/>
</g>
<!-- Node8 -->
<g id="node8" class="node">
<title>Node8</title>
<g id="a_node8"><a xlink:title=" ">
<polygon fill="none" stroke="#bfbfbf" points="242.89,-63.5 242.89,-83.5 304.89,-83.5 304.89,-63.5 242.89,-63.5"/>
<text text-anchor="middle" x="273.89" y="-70.7" font-family="-apple-system,BlinkMacSystemFont,'SegoeUI',Roboto,Oxygen,Ubuntu,Cantarell,'FiraSans','DroidSans','HelveticaNeue',sans-serif" font-size="11.00">memory</text>
</a>
</g>
</g>
<!-- Node1&#45;&gt;Node8 -->
<g id="edge57" class="edge">
<title>Node1&#45;&gt;Node8</title>
<path fill="none" stroke="midnightblue" d="M1856.15,-347.77C1520.45,-344.08 67.91,-326.43 31.89,-297 -3.65,-267.97 -8.76,-233.71 15.89,-195 63.85,-119.66 172.6,-90.65 232.46,-80.09"/>
<polygon fill="midnightblue" stroke="midnightblue" points="233.4,-83.48 242.69,-78.38 232.25,-76.58 233.4,-83.48"/>
</g>
<!-- Node9 -->
<g id="node9" class="node">
<title>Node9</title>
<g id="a_node9"><a xlink:title=" ">
<polygon fill="none" stroke="#bfbfbf" points="1778.89,-201.5 1778.89,-221.5 1830.89,-221.5 1830.89,-201.5 1778.89,-201.5"/>
<text text-anchor="middle" x="1804.89" y="-208.7" font-family="-apple-system,BlinkMacSystemFont,'SegoeUI',Roboto,Oxygen,Ubuntu,Cantarell,'FiraSans','DroidSans','HelveticaNeue',sans-serif" font-size="11.00">mutex</text>
</a>
</g>
</g>
<!-- Node1&#45;&gt;Node9 -->
<g id="edge58" class="edge">
<title>Node1&#45;&gt;Node9</title>
<path fill="none" stroke="midnightblue" d="M1911.59,-333.43C1889.01,-307.84 1843.35,-256.09 1819.75,-229.35"/>
<polygon fill="midnightblue" stroke="midnightblue" points="1822.16,-226.79 1812.92,-221.61 1816.92,-231.42 1822.16,-226.79"/>
</g>
<!-- Node11 -->
<g id="node11" class="node">
<title>Node11</title>
<g id="a_node11"><a xlink:title=" ">
<polygon fill="none" stroke="#bfbfbf" points="1556.89,-0.5 1556.89,-20.5 1604.89,-20.5 1604.89,-0.5 1556.89,-0.5"/>
<text text-anchor="middle" x="1580.89" y="-7.7" font-family="-apple-system,BlinkMacSystemFont,'SegoeUI',Roboto,Oxygen,Ubuntu,Cantarell,'FiraSans','DroidSans','HelveticaNeue',sans-serif" font-size="11.00">string</text>
</a>
</g>
</g>
<!-- Node1&#45;&gt;Node11 -->
<g id="edge59" class="edge">
<title>Node1&#45;&gt;Node11</title>
<path fill="none" stroke="midnightblue" d="M1993.71,-348.6C2063.66,-346.3 2173.7,-335.97 2259.89,-297 2313.22,-272.89 2360.89,-271.03 2360.89,-212.5 2360.89,-212.5 2360.89,-212.5 2360.89,-141.5 2360.89,-130.7 2514.32,-141.12 2080.89,-57 1908.1,-23.46 1696.8,-14.52 1615.25,-12.24"/>
<polygon fill="midnightblue" stroke="midnightblue" points="1615.16,-8.74 1605.07,-11.98 1614.97,-15.74 1615.16,-8.74"/>
</g>
<!-- Node15 -->
<g id="node15" class="node">
<title>Node15</title>
<g id="a_node15"><a xlink:href="BotInvitedJoinGroupRequestEvent_8hpp.html" target="_top" xlink:title=" ">
<polygon fill="none" stroke="red" points="1627.89,-126.5 1627.89,-158.5 1797.89,-158.5 1797.89,-126.5 1627.89,-126.5"/>
<text text-anchor="start" x="1635.89" y="-145.7" font-family="-apple-system,BlinkMacSystemFont,'SegoeUI',Roboto,Oxygen,Ubuntu,Cantarell,'FiraSans','DroidSans','HelveticaNeue',sans-serif" font-size="11.00">libmirai/Events/BotInvited</text>
<text text-anchor="middle" x="1712.89" y="-133.7" font-family="-apple-system,BlinkMacSystemFont,'SegoeUI',Roboto,Oxygen,Ubuntu,Cantarell,'FiraSans','DroidSans','HelveticaNeue',sans-serif" font-size="11.00">JoinGroupRequestEvent.hpp</text>
</a>
</g>
</g>
<!-- Node1&#45;&gt;Node15 -->
<g id="edge61" class="edge">
<title>Node1&#45;&gt;Node15</title>
<path fill="none" stroke="midnightblue" d="M1944.67,-333.36C1980.21,-304.39 2047.74,-239.98 2009.89,-195 2008.21,-193.01 1894.46,-173.7 1808.24,-159.3"/>
<polygon fill="midnightblue" stroke="midnightblue" points="1808.57,-155.81 1798.13,-157.61 1807.42,-162.71 1808.57,-155.81"/>
</g>
<!-- Node21 -->
<g id="node16" class="node">
<title>Node21</title>
<g id="a_node16"><a xlink:href="FriendMessageEvent_8hpp.html" target="_top" xlink:title=" ">
<polygon fill="none" stroke="red" points="537.89,-195.5 537.89,-227.5 721.89,-227.5 721.89,-195.5 537.89,-195.5"/>
<text text-anchor="start" x="545.89" y="-214.7" font-family="-apple-system,BlinkMacSystemFont,'SegoeUI',Roboto,Oxygen,Ubuntu,Cantarell,'FiraSans','DroidSans','HelveticaNeue',sans-serif" font-size="11.00">libmirai/Events/FriendMessage</text>
<text text-anchor="middle" x="629.89" y="-202.7" font-family="-apple-system,BlinkMacSystemFont,'SegoeUI',Roboto,Oxygen,Ubuntu,Cantarell,'FiraSans','DroidSans','HelveticaNeue',sans-serif" font-size="11.00">Event.hpp</text>
</a>
</g>
</g>
<!-- Node1&#45;&gt;Node21 -->
<g id="edge62" class="edge">
<title>Node1&#45;&gt;Node21</title>
<path fill="none" stroke="midnightblue" d="M1856.33,-347.35C1711.13,-344.25 1362.07,-333.35 1071.89,-297 941.45,-280.66 791.52,-249.3 704.08,-229.72"/>
<polygon fill="midnightblue" stroke="midnightblue" points="704.78,-226.28 694.26,-227.51 703.25,-233.11 704.78,-226.28"/>
</g>
<!-- Node22 -->
<g id="node17" class="node">
<title>Node22</title>
<g id="a_node17"><a xlink:href="MessageChain_8hpp.html" target="_top" xlink:title=" ">
<polygon fill="none" stroke="red" points="703.89,-126.5 703.89,-158.5 871.89,-158.5 871.89,-126.5 703.89,-126.5"/>
<text text-anchor="start" x="711.89" y="-145.7" font-family="-apple-system,BlinkMacSystemFont,'SegoeUI',Roboto,Oxygen,Ubuntu,Cantarell,'FiraSans','DroidSans','HelveticaNeue',sans-serif" font-size="11.00">libmirai/Messages/Message</text>
<text text-anchor="middle" x="787.89" y="-133.7" font-family="-apple-system,BlinkMacSystemFont,'SegoeUI',Roboto,Oxygen,Ubuntu,Cantarell,'FiraSans','DroidSans','HelveticaNeue',sans-serif" font-size="11.00">Chain.hpp</text>
</a>
</g>
</g>
<!-- Node1&#45;&gt;Node22 -->
<g id="edge72" class="edge">
<title>Node1&#45;&gt;Node22</title>
<path fill="none" stroke="midnightblue" d="M1856.15,-348.81C1583.8,-349.66 580.08,-349.13 266.89,-297 164.13,-279.9 104.76,-311.8 42.89,-228 34.17,-216.2 32.88,-205.72 42.89,-195 53.86,-183.25 495.4,-158.77 693.45,-148.36"/>
<polygon fill="midnightblue" stroke="midnightblue" points="693.76,-151.85 703.56,-147.83 693.39,-144.86 693.76,-151.85"/>
</g>
<!-- Node27 -->
<g id="node18" class="node">
<title>Node27</title>
<g id="a_node18"><a xlink:href="Exceptions_8hpp.html" target="_top" xlink:title=" ">
<polygon fill="none" stroke="red" points="1915.89,-57.5 1915.89,-89.5 2035.89,-89.5 2035.89,-57.5 1915.89,-57.5"/>
<text text-anchor="start" x="1923.89" y="-76.7" font-family="-apple-system,BlinkMacSystemFont,'SegoeUI',Roboto,Oxygen,Ubuntu,Cantarell,'FiraSans','DroidSans','HelveticaNeue',sans-serif" font-size="11.00">libmirai/Exceptions</text>
<text text-anchor="middle" x="1975.89" y="-64.7" font-family="-apple-system,BlinkMacSystemFont,'SegoeUI',Roboto,Oxygen,Ubuntu,Cantarell,'FiraSans','DroidSans','HelveticaNeue',sans-serif" font-size="11.00">/Exceptions.hpp</text>
</a>
</g>
</g>
<!-- Node1&#45;&gt;Node27 -->
<g id="edge69" class="edge">
<title>Node1&#45;&gt;Node27</title>
<path fill="none" stroke="midnightblue" d="M1993.39,-342.45C2069.96,-334.72 2188.26,-319.58 2226.89,-297 2285.75,-262.59 2288.5,-226.97 2293.89,-159 2295.04,-144.38 2303.39,-137.17 2293.89,-126 2262.74,-89.41 2130.14,-78.74 2046.31,-75.67"/>
<polygon fill="midnightblue" stroke="midnightblue" points="2046.19,-72.17 2036.08,-75.33 2045.96,-79.16 2046.19,-72.17"/>
</g>
<!-- Node44 -->
<g id="node19" class="node">
<title>Node44</title>
<g id="a_node19"><a xlink:href="GroupMessageEvent_8hpp.html" target="_top" xlink:title=" ">
<polygon fill="none" stroke="red" points="1462.89,-195.5 1462.89,-227.5 1646.89,-227.5 1646.89,-195.5 1462.89,-195.5"/>
<text text-anchor="start" x="1470.89" y="-214.7" font-family="-apple-system,BlinkMacSystemFont,'SegoeUI',Roboto,Oxygen,Ubuntu,Cantarell,'FiraSans','DroidSans','HelveticaNeue',sans-serif" font-size="11.00">libmirai/Events/GroupMessage</text>
<text text-anchor="middle" x="1554.89" y="-202.7" font-family="-apple-system,BlinkMacSystemFont,'SegoeUI',Roboto,Oxygen,Ubuntu,Cantarell,'FiraSans','DroidSans','HelveticaNeue',sans-serif" font-size="11.00">Event.hpp</text>
</a>
</g>
</g>
<!-- Node1&#45;&gt;Node44 -->
<g id="edge63" class="edge">
<title>Node1&#45;&gt;Node44</title>
<path fill="none" stroke="midnightblue" d="M1883.88,-333.43C1815.72,-308.37 1679.33,-258.24 1605.37,-231.06"/>
<polygon fill="midnightblue" stroke="midnightblue" points="1606.39,-227.7 1595.8,-227.54 1603.98,-234.27 1606.39,-227.7"/>
</g>
<!-- Node45 -->
<g id="node20" class="node">
<title>Node45</title>
<g id="a_node20"><a xlink:href="MemberJoinRequestEvent_8hpp.html" target="_top" xlink:title=" ">
<polygon fill="none" stroke="red" points="1816.39,-126.5 1816.39,-158.5 1983.39,-158.5 1983.39,-126.5 1816.39,-126.5"/>
<text text-anchor="start" x="1824.39" y="-145.7" font-family="-apple-system,BlinkMacSystemFont,'SegoeUI',Roboto,Oxygen,Ubuntu,Cantarell,'FiraSans','DroidSans','HelveticaNeue',sans-serif" font-size="11.00">libmirai/Events/MemberJoin</text>
<text text-anchor="middle" x="1899.89" y="-133.7" font-family="-apple-system,BlinkMacSystemFont,'SegoeUI',Roboto,Oxygen,Ubuntu,Cantarell,'FiraSans','DroidSans','HelveticaNeue',sans-serif" font-size="11.00">RequestEvent.hpp</text>
</a>
</g>
</g>
<!-- Node1&#45;&gt;Node45 -->
<g id="edge64" class="edge">
<title>Node1&#45;&gt;Node45</title>
<path fill="none" stroke="midnightblue" d="M1993.63,-333.6C2012.81,-325.94 2031.5,-314.39 2042.89,-297 2067.72,-259.07 2068.95,-232.09 2042.89,-195 2030.89,-177.93 2012.67,-166.49 1993.2,-158.84"/>
<polygon fill="midnightblue" stroke="midnightblue" points="1994.16,-155.46 1983.57,-155.37 1991.8,-162.05 1994.16,-155.46"/>
</g>
<!-- Node46 -->
<g id="node21" class="node">
<title>Node46</title>
<g id="a_node21"><a xlink:href="MiraiClientEvents_8hpp.html" target="_top" xlink:title=" ">
<polygon fill="none" stroke="red" points="2095.39,-195.5 2095.39,-227.5 2256.39,-227.5 2256.39,-195.5 2095.39,-195.5"/>
<text text-anchor="start" x="2103.39" y="-214.7" font-family="-apple-system,BlinkMacSystemFont,'SegoeUI',Roboto,Oxygen,Ubuntu,Cantarell,'FiraSans','DroidSans','HelveticaNeue',sans-serif" font-size="11.00">libmirai/Events/MiraiClient</text>
<text text-anchor="middle" x="2175.89" y="-202.7" font-family="-apple-system,BlinkMacSystemFont,'SegoeUI',Roboto,Oxygen,Ubuntu,Cantarell,'FiraSans','DroidSans','HelveticaNeue',sans-serif" font-size="11.00">Events.hpp</text>
</a>
</g>
</g>
<!-- Node1&#45;&gt;Node46 -->
<g id="edge65" class="edge">
<title>Node1&#45;&gt;Node46</title>
<path fill="none" stroke="midnightblue" d="M1990.01,-333.42C2019,-325.12 2052.84,-313.17 2080.89,-297 2109.67,-280.41 2137.44,-254.12 2155.45,-235.27"/>
<polygon fill="midnightblue" stroke="midnightblue" points="2158.26,-237.39 2162.54,-227.7 2153.15,-232.61 2158.26,-237.39"/>
</g>
<!-- Node47 -->
<g id="node22" class="node">
<title>Node47</title>
<g id="a_node22"><a xlink:title=" ">
<polygon fill="none" stroke="#bfbfbf" points="2214.89,-132.5 2214.89,-152.5 2284.89,-152.5 2284.89,-132.5 2214.89,-132.5"/>
<text text-anchor="middle" x="2249.89" y="-139.7" font-family="-apple-system,BlinkMacSystemFont,'SegoeUI',Roboto,Oxygen,Ubuntu,Cantarell,'FiraSans','DroidSans','HelveticaNeue',sans-serif" font-size="11.00">exception</text>
</a>
</g>
</g>
<!-- Node1&#45;&gt;Node47 -->
<g id="edge55" class="edge">
<title>Node1&#45;&gt;Node47</title>
<path fill="none" stroke="midnightblue" d="M1993.58,-347.39C2075.35,-341.85 2208.08,-318.48 2265.89,-228 2278.77,-207.83 2269.25,-179.78 2260.32,-161.64"/>
<polygon fill="midnightblue" stroke="midnightblue" points="2263.35,-159.88 2255.57,-152.69 2257.17,-163.16 2263.35,-159.88"/>
</g>
<!-- Node49 -->
<g id="node23" class="node">
<title>Node49</title>
<g id="a_node23"><a xlink:href="NewFriendRequestEvent_8hpp.html" target="_top" xlink:title=" ">
<polygon fill="none" stroke="red" points="307.39,-126.5 307.39,-158.5 466.39,-158.5 466.39,-126.5 307.39,-126.5"/>
<text text-anchor="start" x="315.39" y="-145.7" font-family="-apple-system,BlinkMacSystemFont,'SegoeUI',Roboto,Oxygen,Ubuntu,Cantarell,'FiraSans','DroidSans','HelveticaNeue',sans-serif" font-size="11.00">libmirai/Events/NewFriend</text>
<text text-anchor="middle" x="386.89" y="-133.7" font-family="-apple-system,BlinkMacSystemFont,'SegoeUI',Roboto,Oxygen,Ubuntu,Cantarell,'FiraSans','DroidSans','HelveticaNeue',sans-serif" font-size="11.00">RequestEvent.hpp</text>
</a>
</g>
</g>
<!-- Node1&#45;&gt;Node49 -->
<g id="edge66" class="edge">
<title>Node1&#45;&gt;Node49</title>
<path fill="none" stroke="midnightblue" d="M1856.35,-348.36C1531.11,-347.5 155.87,-341.22 76.89,-297 33.65,-272.79 -0.54,-232.47 31.89,-195 65.5,-156.15 203.24,-145.99 296.93,-143.67"/>
<polygon fill="midnightblue" stroke="midnightblue" points="297.07,-147.17 306.99,-143.45 296.91,-140.17 297.07,-147.17"/>
</g>
<!-- Node50 -->
<g id="node24" class="node">
<title>Node50</title>
<g id="a_node24"><a xlink:href="StrangerMessageEvent_8hpp.html" target="_top" xlink:title=" ">
<polygon fill="none" stroke="red" points="1100.39,-195.5 1100.39,-227.5 1249.39,-227.5 1249.39,-195.5 1100.39,-195.5"/>
<text text-anchor="start" x="1108.39" y="-214.7" font-family="-apple-system,BlinkMacSystemFont,'SegoeUI',Roboto,Oxygen,Ubuntu,Cantarell,'FiraSans','DroidSans','HelveticaNeue',sans-serif" font-size="11.00">libmirai/Events/Stranger</text>
<text text-anchor="middle" x="1174.89" y="-202.7" font-family="-apple-system,BlinkMacSystemFont,'SegoeUI',Roboto,Oxygen,Ubuntu,Cantarell,'FiraSans','DroidSans','HelveticaNeue',sans-serif" font-size="11.00">MessageEvent.hpp</text>
</a>
</g>
</g>
<!-- Node1&#45;&gt;Node50 -->
<g id="edge67" class="edge">
<title>Node1&#45;&gt;Node50</title>
<path fill="none" stroke="midnightblue" d="M1856.34,-336.07C1718.83,-311.14 1409.69,-255.08 1259.7,-227.88"/>
<polygon fill="midnightblue" stroke="midnightblue" points="1260.08,-224.39 1249.62,-226.05 1258.84,-231.28 1260.08,-224.39"/>
</g>
<!-- Node51 -->
<g id="node25" class="node">
<title>Node51</title>
<g id="a_node25"><a xlink:href="TempMessageEvent_8hpp.html" target="_top" xlink:title=" ">
<polygon fill="none" stroke="red" points="340.39,-195.5 340.39,-227.5 519.39,-227.5 519.39,-195.5 340.39,-195.5"/>
<text text-anchor="start" x="348.39" y="-214.7" font-family="-apple-system,BlinkMacSystemFont,'SegoeUI',Roboto,Oxygen,Ubuntu,Cantarell,'FiraSans','DroidSans','HelveticaNeue',sans-serif" font-size="11.00">libmirai/Events/TempMessage</text>
<text text-anchor="middle" x="429.89" y="-202.7" font-family="-apple-system,BlinkMacSystemFont,'SegoeUI',Roboto,Oxygen,Ubuntu,Cantarell,'FiraSans','DroidSans','HelveticaNeue',sans-serif" font-size="11.00">Event.hpp</text>
</a>
</g>
</g>
<!-- Node1&#45;&gt;Node51 -->
<g id="edge68" class="edge">
<title>Node1&#45;&gt;Node51</title>
<path fill="none" stroke="midnightblue" d="M1856.37,-348.43C1688.33,-347.56 1242.59,-340.9 873.89,-297 742.4,-281.34 591.34,-249.61 503.64,-229.8"/>
<polygon fill="midnightblue" stroke="midnightblue" points="504.31,-226.37 493.79,-227.57 502.76,-233.19 504.31,-226.37"/>
</g>
<!-- Node52 -->
<g id="node26" class="node">
<title>Node52</title>
<g id="a_node26"><a xlink:href="Types_8hpp.html" target="_top" xlink:title=" ">
<polygon fill="none" stroke="red" points="1848.89,-201.5 1848.89,-221.5 2000.89,-221.5 2000.89,-201.5 1848.89,-201.5"/>
<text text-anchor="middle" x="1924.89" y="-208.7" font-family="-apple-system,BlinkMacSystemFont,'SegoeUI',Roboto,Oxygen,Ubuntu,Cantarell,'FiraSans','DroidSans','HelveticaNeue',sans-serif" font-size="11.00">libmirai/Types/Types.hpp</text>
</a>
</g>
</g>
<!-- Node1&#45;&gt;Node52 -->
<g id="edge73" class="edge">
<title>Node1&#45;&gt;Node52</title>
<path fill="none" stroke="midnightblue" d="M1924.89,-333.43C1924.89,-308.62 1924.89,-259.2 1924.89,-231.85"/>
<polygon fill="midnightblue" stroke="midnightblue" points="1928.39,-231.61 1924.89,-221.61 1921.39,-231.61 1928.39,-231.61"/>
</g>
<!-- Node56 -->
<g id="node28" class="node">
<title>Node56</title>
<g id="a_node28"><a xlink:title=" ">
<polygon fill="none" stroke="#bfbfbf" points="2389.39,-270.5 2389.39,-290.5 2510.39,-290.5 2510.39,-270.5 2389.39,-270.5"/>
<text text-anchor="middle" x="2449.89" y="-277.7" font-family="-apple-system,BlinkMacSystemFont,'SegoeUI',Roboto,Oxygen,Ubuntu,Cantarell,'FiraSans','DroidSans','HelveticaNeue',sans-serif" font-size="11.00">nlohmann/json.hpp</text>
</a>
</g>
</g>
<!-- Node1&#45;&gt;Node56 -->
<g id="edge60" class="edge">
<title>Node1&#45;&gt;Node56</title>
<path fill="none" stroke="midnightblue" d="M1993.76,-342.56C2082.28,-334.47 2240.56,-318.52 2374.89,-297 2382.91,-295.71 2391.38,-294.16 2399.63,-292.53"/>
<polygon fill="midnightblue" stroke="midnightblue" points="2400.42,-295.95 2409.53,-290.53 2399.03,-289.08 2400.42,-295.95"/>
</g>
<!-- Node57 -->
<g id="node29" class="node">
<title>Node57</title>
<g id="a_node29"><a xlink:title=" ">
<polygon fill="none" stroke="#bfbfbf" points="2528.39,-264.5 2528.39,-296.5 2671.39,-296.5 2671.39,-264.5 2528.39,-264.5"/>
<text text-anchor="start" x="2536.39" y="-283.7" font-family="-apple-system,BlinkMacSystemFont,'SegoeUI',Roboto,Oxygen,Ubuntu,Cantarell,'FiraSans','DroidSans','HelveticaNeue',sans-serif" font-size="11.00">libmirai/Impl/HttpClient</text>
<text text-anchor="middle" x="2599.89" y="-271.7" font-family="-apple-system,BlinkMacSystemFont,'SegoeUI',Roboto,Oxygen,Ubuntu,Cantarell,'FiraSans','DroidSans','HelveticaNeue',sans-serif" font-size="11.00">Impl.hpp</text>
</a>
</g>
</g>
<!-- Node1&#45;&gt;Node57 -->
<g id="edge70" class="edge">
<title>Node1&#45;&gt;Node57</title>
<path fill="none" stroke="midnightblue" d="M1993.41,-344.91C2102.5,-338.69 2322.49,-324.03 2517.82,-297.21"/>
<polygon fill="midnightblue" stroke="midnightblue" points="2518.56,-300.64 2527.99,-295.8 2517.6,-293.71 2518.56,-300.64"/>
</g>
<!-- Node58 -->
<g id="node30" class="node">
<title>Node58</title>
<g id="a_node30"><a xlink:title=" ">
<polygon fill="none" stroke="#bfbfbf" points="2689.89,-264.5 2689.89,-296.5 2857.89,-296.5 2857.89,-264.5 2689.89,-264.5"/>
<text text-anchor="start" x="2697.89" y="-283.7" font-family="-apple-system,BlinkMacSystemFont,'SegoeUI',Roboto,Oxygen,Ubuntu,Cantarell,'FiraSans','DroidSans','HelveticaNeue',sans-serif" font-size="11.00">libmirai/Impl/MessageClient</text>
<text text-anchor="middle" x="2773.89" y="-271.7" font-family="-apple-system,BlinkMacSystemFont,'SegoeUI',Roboto,Oxygen,Ubuntu,Cantarell,'FiraSans','DroidSans','HelveticaNeue',sans-serif" font-size="11.00">Impl.hpp</text>
</a>
</g>
</g>
<!-- Node1&#45;&gt;Node58 -->
<g id="edge71" class="edge">
<title>Node1&#45;&gt;Node58</title>
<path fill="none" stroke="midnightblue" d="M1993.63,-346.05C2125,-340.89 2420.91,-326.91 2679.82,-297.05"/>
<polygon fill="midnightblue" stroke="midnightblue" points="2680.26,-300.52 2689.79,-295.89 2679.45,-293.57 2680.26,-300.52"/>
</g>
<!-- Node59 -->
<g id="node31" class="node">
<title>Node59</title>
<g id="a_node31"><a xlink:title=" ">
<polygon fill="none" stroke="#bfbfbf" points="2875.89,-270.5 2875.89,-290.5 3037.89,-290.5 3037.89,-270.5 2875.89,-270.5"/>
<text text-anchor="middle" x="2956.89" y="-277.7" font-family="-apple-system,BlinkMacSystemFont,'SegoeUI',Roboto,Oxygen,Ubuntu,Cantarell,'FiraSans','DroidSans','HelveticaNeue',sans-serif" font-size="11.00">libmirai/Utils/Common.hpp</text>
</a>
</g>
</g>
<!-- Node1&#45;&gt;Node59 -->
<g id="edge74" class="edge">
<title>Node1&#45;&gt;Node59</title>
<path fill="none" stroke="midnightblue" d="M1993.67,-347.47C2149.53,-344.53 2541.39,-333.8 2866.89,-297 2877.74,-295.77 2889.27,-294.08 2900.33,-292.27"/>
<polygon fill="midnightblue" stroke="midnightblue" points="2901.05,-295.7 2910.32,-290.58 2899.88,-288.8 2901.05,-295.7"/>
</g>
<!-- Node60 -->
<g id="node32" class="node">
<title>Node60</title>
<g id="a_node32"><a xlink:title=" ">
<polygon fill="none" stroke="#bfbfbf" points="3055.89,-270.5 3055.89,-290.5 3229.89,-290.5 3229.89,-270.5 3055.89,-270.5"/>
<text text-anchor="middle" x="3142.89" y="-277.7" font-family="-apple-system,BlinkMacSystemFont,'SegoeUI',Roboto,Oxygen,Ubuntu,Cantarell,'FiraSans','DroidSans','HelveticaNeue',sans-serif" font-size="11.00">libmirai/Utils/ThreadPool.hpp</text>
</a>
</g>
</g>
<!-- Node1&#45;&gt;Node60 -->
<g id="edge75" class="edge">
<title>Node1&#45;&gt;Node60</title>
<path fill="none" stroke="midnightblue" d="M1993.39,-348.07C2168.97,-346.4 2649.26,-338.09 3046.89,-297 3058.82,-295.77 3071.54,-294.02 3083.67,-292.15"/>
<polygon fill="midnightblue" stroke="midnightblue" points="3084.37,-295.58 3093.7,-290.55 3083.27,-288.67 3084.37,-295.58"/>
</g>
<!-- Node2&#45;&gt;Node3 -->
<g id="edge2" class="edge">
<title>Node2&#45;&gt;Node3</title>
<path fill="none" stroke="midnightblue" d="M1080.81,-279.76C955.31,-280.17 526.41,-277.63 176.89,-228 169.32,-226.93 161.36,-225.42 153.66,-223.77"/>
<polygon fill="midnightblue" stroke="midnightblue" points="154.28,-220.32 143.76,-221.53 152.74,-227.15 154.28,-220.32"/>
</g>
<!-- Node4 -->
<g id="node4" class="node">
<title>Node4</title>
<g id="a_node4"><a xlink:title=" ">
<polygon fill="none" stroke="#bfbfbf" points="853.89,-201.5 853.89,-221.5 927.89,-221.5 927.89,-201.5 853.89,-201.5"/>
<text text-anchor="middle" x="890.89" y="-208.7" font-family="-apple-system,BlinkMacSystemFont,'SegoeUI',Roboto,Oxygen,Ubuntu,Cantarell,'FiraSans','DroidSans','HelveticaNeue',sans-serif" font-size="11.00">filesystem</text>
</a>
</g>
</g>
<!-- Node2&#45;&gt;Node4 -->
<g id="edge3" class="edge">
<title>Node2&#45;&gt;Node4</title>
<path fill="none" stroke="midnightblue" d="M1083.57,-270.47C1047.34,-260.53 987.78,-243.85 936.89,-228 933.57,-226.97 930.12,-225.86 926.68,-224.74"/>
<polygon fill="midnightblue" stroke="midnightblue" points="927.68,-221.39 917.09,-221.56 925.48,-228.03 927.68,-221.39"/>
</g>
<!-- Node2&#45;&gt;Node5 -->
<g id="edge4" class="edge">
<title>Node2&#45;&gt;Node5</title>
<path fill="none" stroke="midnightblue" d="M1080.83,-278.67C939.18,-275.2 420.78,-260.51 259.89,-228 255.89,-227.19 251.77,-226.1 247.72,-224.88"/>
<polygon fill="midnightblue" stroke="midnightblue" points="248.52,-221.46 237.93,-221.62 246.31,-228.1 248.52,-221.46"/>
</g>
<!-- Node6 -->
<g id="node6" class="node">
<title>Node6</title>
<g id="a_node6"><a xlink:title=" ">
<polygon fill="none" stroke="#bfbfbf" points="946.39,-201.5 946.39,-221.5 1017.39,-221.5 1017.39,-201.5 946.39,-201.5"/>
<text text-anchor="middle" x="981.89" y="-208.7" font-family="-apple-system,BlinkMacSystemFont,'SegoeUI',Roboto,Oxygen,Ubuntu,Cantarell,'FiraSans','DroidSans','HelveticaNeue',sans-serif" font-size="11.00">functional</text>
</a>
</g>
</g>
<!-- Node2&#45;&gt;Node6 -->
<g id="edge5" class="edge">
<title>Node2&#45;&gt;Node6</title>
<path fill="none" stroke="midnightblue" d="M1098.68,-270.46C1075.73,-259.08 1036.07,-239.39 1009.41,-226.16"/>
<polygon fill="midnightblue" stroke="midnightblue" points="1010.75,-222.92 1000.24,-221.61 1007.64,-229.19 1010.75,-222.92"/>
</g>
<!-- Node7 -->
<g id="node7" class="node">
<title>Node7</title>
<g id="a_node7"><a xlink:title=" ">
<polygon fill="none" stroke="#bfbfbf" points="1035.39,-201.5 1035.39,-221.5 1082.39,-221.5 1082.39,-201.5 1035.39,-201.5"/>
<text text-anchor="middle" x="1058.89" y="-208.7" font-family="-apple-system,BlinkMacSystemFont,'SegoeUI',Roboto,Oxygen,Ubuntu,Cantarell,'FiraSans','DroidSans','HelveticaNeue',sans-serif" font-size="11.00">limits</text>
</a>
</g>
</g>
<!-- Node2&#45;&gt;Node7 -->
<g id="edge6" class="edge">
<title>Node2&#45;&gt;Node7</title>
<path fill="none" stroke="midnightblue" d="M1109.06,-270.46C1100.03,-260.03 1084.98,-242.64 1073.71,-229.63"/>
<polygon fill="midnightblue" stroke="midnightblue" points="1076.15,-227.09 1066.96,-221.82 1070.86,-231.67 1076.15,-227.09"/>
</g>
<!-- Node2&#45;&gt;Node8 -->
<g id="edge7" class="edge">
<title>Node2&#45;&gt;Node8</title>
<path fill="none" stroke="midnightblue" d="M1080.87,-278.28C929.52,-273.03 351.37,-251.5 320.89,-228 279.23,-195.88 273.45,-127.68 273.29,-94.07"/>
<polygon fill="midnightblue" stroke="midnightblue" points="276.79,-93.78 273.42,-83.73 269.79,-93.69 276.79,-93.78"/>
</g>
<!-- Node2&#45;&gt;Node9 -->
<g id="edge8" class="edge">
<title>Node2&#45;&gt;Node9</title>
<path fill="none" stroke="midnightblue" d="M1153.15,-278C1271.69,-272.89 1646.89,-254.94 1764.89,-228 1768.33,-227.21 1771.87,-226.19 1775.36,-225.03"/>
<polygon fill="midnightblue" stroke="midnightblue" points="1776.7,-228.27 1784.9,-221.56 1774.3,-221.69 1776.7,-228.27"/>
</g>
<!-- Node10 -->
<g id="node10" class="node">
<title>Node10</title>
<g id="a_node10"><a xlink:title=" ">
<polygon fill="none" stroke="#bfbfbf" points="714.39,-63.5 714.39,-83.5 775.39,-83.5 775.39,-63.5 714.39,-63.5"/>
<text text-anchor="middle" x="744.89" y="-70.7" font-family="-apple-system,BlinkMacSystemFont,'SegoeUI',Roboto,Oxygen,Ubuntu,Cantarell,'FiraSans','DroidSans','HelveticaNeue',sans-serif" font-size="11.00">optional</text>
</a>
</g>
</g>
<!-- Node2&#45;&gt;Node10 -->
<g id="edge9" class="edge">
<title>Node2&#45;&gt;Node10</title>
<path fill="none" stroke="midnightblue" d="M1080.6,-274.76C1001.09,-264.24 816.44,-238.98 789.89,-228 765.78,-218.03 706.73,-182.25 694.89,-159 688.23,-145.93 689.37,-139.59 694.89,-126 700.71,-111.64 712.67,-99.09 723.43,-89.97"/>
<polygon fill="midnightblue" stroke="midnightblue" points="725.67,-92.66 731.3,-83.69 721.3,-87.19 725.67,-92.66"/>
</g>
<!-- Node2&#45;&gt;Node11 -->
<g id="edge10" class="edge">
<title>Node2&#45;&gt;Node11</title>
<path fill="none" stroke="midnightblue" d="M1152.92,-278.8C1268.14,-276.2 1622.06,-265.21 1655.89,-228 1665.75,-217.15 1661.59,-208.51 1655.89,-195 1646.96,-173.86 1630.4,-178.85 1618.89,-159 1594.76,-117.4 1585.73,-60.47 1582.53,-30.98"/>
<polygon fill="midnightblue" stroke="midnightblue" points="1585.99,-30.4 1581.54,-20.79 1579.02,-31.08 1585.99,-30.4"/>
</g>
<!-- Node12 -->
<g id="node12" class="node">
<title>Node12</title>
<g id="a_node12"><a xlink:title=" ">
<polygon fill="none" stroke="#bfbfbf" points="1304.89,-201.5 1304.89,-221.5 1406.89,-221.5 1406.89,-201.5 1304.89,-201.5"/>
<text text-anchor="middle" x="1355.89" y="-208.7" font-family="-apple-system,BlinkMacSystemFont,'SegoeUI',Roboto,Oxygen,Ubuntu,Cantarell,'FiraSans','DroidSans','HelveticaNeue',sans-serif" font-size="11.00">unordered_map</text>
</a>
</g>
</g>
<!-- Node2&#45;&gt;Node12 -->
<g id="edge11" class="edge">
<title>Node2&#45;&gt;Node12</title>
<path fill="none" stroke="midnightblue" d="M1149.12,-270.46C1191.62,-258.55 1266.49,-237.56 1313.52,-224.38"/>
<polygon fill="midnightblue" stroke="midnightblue" points="1314.72,-227.68 1323.4,-221.61 1312.83,-220.94 1314.72,-227.68"/>
</g>
<!-- Node13 -->
<g id="node13" class="node">
<title>Node13</title>
<g id="a_node13"><a xlink:title=" ">
<polygon fill="none" stroke="#bfbfbf" points="803.89,-63.5 803.89,-83.5 855.89,-83.5 855.89,-63.5 803.89,-63.5"/>
<text text-anchor="middle" x="829.89" y="-70.7" font-family="-apple-system,BlinkMacSystemFont,'SegoeUI',Roboto,Oxygen,Ubuntu,Cantarell,'FiraSans','DroidSans','HelveticaNeue',sans-serif" font-size="11.00">vector</text>
</a>
</g>
</g>
<!-- Node2&#45;&gt;Node13 -->
<g id="edge12" class="edge">
<title>Node2&#45;&gt;Node13</title>
<path fill="none" stroke="midnightblue" d="M1080.73,-275.23C1010.21,-266.53 859.85,-246.07 844.89,-228 835.53,-216.71 839.27,-208.55 844.89,-195 853.55,-174.09 872.23,-179.91 880.89,-159 886.5,-145.45 886.47,-139.56 880.89,-126 874.94,-111.53 862.74,-98.97 851.76,-89.88"/>
<polygon fill="midnightblue" stroke="midnightblue" points="853.77,-87.01 843.73,-83.63 849.47,-92.53 853.77,-87.01"/>
</g>
<!-- Node14 -->
<g id="node14" class="node">
<title>Node14</title>
<g id="a_node14"><a xlink:title=" ">
<polygon fill="none" stroke="#bfbfbf" points="1202.89,-63.5 1202.89,-83.5 1348.89,-83.5 1348.89,-63.5 1202.89,-63.5"/>
<text text-anchor="middle" x="1275.89" y="-70.7" font-family="-apple-system,BlinkMacSystemFont,'SegoeUI',Roboto,Oxygen,Ubuntu,Cantarell,'FiraSans','DroidSans','HelveticaNeue',sans-serif" font-size="11.00">nlohmann/json_fwd.hpp</text>
</a>
</g>
</g>
<!-- Node2&#45;&gt;Node14 -->
<g id="edge13" class="edge">
<title>Node2&#45;&gt;Node14</title>
<path fill="none" stroke="midnightblue" d="M1153.08,-276.67C1185.84,-272.05 1232.68,-259.9 1257.89,-228 1288.85,-188.81 1284.3,-125.46 1279.51,-93.8"/>
<polygon fill="midnightblue" stroke="midnightblue" points="1282.92,-92.95 1277.8,-83.67 1276.02,-94.12 1282.92,-92.95"/>
</g>
<!-- Node2&#45;&gt;Node15 -->
<g id="edge14" class="edge">
<title>Node2&#45;&gt;Node15</title>
<path fill="none" stroke="midnightblue" d="M1153.03,-278.59C1272.21,-275.28 1647.62,-262.19 1688.89,-228 1706.05,-213.78 1711.44,-188.26 1712.9,-168.98"/>
<polygon fill="midnightblue" stroke="midnightblue" points="1716.41,-168.89 1713.37,-158.74 1709.42,-168.57 1716.41,-168.89"/>
</g>
<!-- Node2&#45;&gt;Node21 -->
<g id="edge17" class="edge">
<title>Node2&#45;&gt;Node21</title>
<path fill="none" stroke="midnightblue" d="M1080.89,-274.77C1013.26,-265.84 862.63,-245.83 735.89,-228 734.62,-227.82 733.34,-227.64 732.05,-227.46"/>
<polygon fill="midnightblue" stroke="midnightblue" points="732.48,-223.99 722.09,-226.04 731.5,-230.92 732.48,-223.99"/>
</g>
<!-- Node2&#45;&gt;Node22 -->
<g id="edge49" class="edge">
<title>Node2&#45;&gt;Node22</title>
<path fill="none" stroke="midnightblue" d="M1080.66,-278.11C1008.64,-274.62 851.03,-263.08 811.89,-228 795.29,-213.13 789.82,-187.7 788.18,-168.61"/>
<polygon fill="midnightblue" stroke="midnightblue" points="791.67,-168.29 787.61,-158.5 784.68,-168.69 791.67,-168.29"/>
</g>
<!-- Node2&#45;&gt;Node44 -->
<g id="edge27" class="edge">
<title>Node2&#45;&gt;Node44</title>
<path fill="none" stroke="midnightblue" d="M1153.1,-273.96C1218.03,-264.03 1356.43,-242.86 1452.52,-228.16"/>
<polygon fill="midnightblue" stroke="midnightblue" points="1453.2,-231.6 1462.56,-226.62 1452.14,-224.68 1453.2,-231.6"/>
</g>
<!-- Node2&#45;&gt;Node45 -->
<g id="edge31" class="edge">
<title>Node2&#45;&gt;Node45</title>
<path fill="none" stroke="midnightblue" d="M1153.15,-278.43C1265.66,-274.8 1607.52,-261.23 1712.89,-228 1740.8,-219.2 1743.54,-207.76 1769.89,-195 1794.95,-182.86 1823.65,-171.26 1847.69,-162.16"/>
<polygon fill="midnightblue" stroke="midnightblue" points="1849.21,-165.33 1857.35,-158.54 1846.76,-158.77 1849.21,-165.33"/>
</g>
<!-- Node2&#45;&gt;Node46 -->
<g id="edge34" class="edge">
<title>Node2&#45;&gt;Node46</title>
<path fill="none" stroke="midnightblue" d="M1153.07,-277.88C1274.32,-272.33 1677.34,-253.11 2009.89,-228 2034.37,-226.15 2060.85,-223.83 2085.31,-221.54"/>
<polygon fill="midnightblue" stroke="midnightblue" points="2085.67,-225.03 2095.3,-220.6 2085.02,-218.06 2085.67,-225.03"/>
</g>
<!-- Node2&#45;&gt;Node49 -->
<g id="edge38" class="edge">
<title>Node2&#45;&gt;Node49</title>
<path fill="none" stroke="midnightblue" d="M1080.73,-279.96C933.26,-281.45 382.65,-283.27 330.89,-228 312.78,-208.67 335.32,-182.86 356.97,-164.87"/>
<polygon fill="midnightblue" stroke="midnightblue" points="359.18,-167.58 364.83,-158.62 354.83,-162.1 359.18,-167.58"/>
</g>
<!-- Node2&#45;&gt;Node50 -->
<g id="edge41" class="edge">
<title>Node2&#45;&gt;Node50</title>
<path fill="none" stroke="midnightblue" d="M1124.71,-270.46C1132.52,-261.44 1144.84,-247.21 1155.32,-235.1"/>
<polygon fill="midnightblue" stroke="midnightblue" points="1157.97,-237.38 1161.87,-227.53 1152.68,-232.8 1157.97,-237.38"/>
</g>
<!-- Node2&#45;&gt;Node51 -->
<g id="edge45" class="edge">
<title>Node2&#45;&gt;Node51</title>
<path fill="none" stroke="midnightblue" d="M1080.67,-277.19C989.85,-271.21 744.97,-253.95 529.66,-228.04"/>
<polygon fill="midnightblue" stroke="midnightblue" points="529.78,-224.53 519.43,-226.8 528.93,-231.48 529.78,-224.53"/>
</g>
<!-- Node2&#45;&gt;Node52 -->
<g id="edge50" class="edge">
<title>Node2&#45;&gt;Node52</title>
<path fill="none" stroke="midnightblue" d="M1153.13,-278.32C1259.15,-274.57 1577.71,-261.14 1839.89,-228 1849.82,-226.74 1860.35,-225.09 1870.5,-223.33"/>
<polygon fill="midnightblue" stroke="midnightblue" points="1871.24,-226.75 1880.47,-221.54 1870.01,-219.86 1871.24,-226.75"/>
</g>
<!-- Node55 -->
<g id="node27" class="node">
<title>Node55</title>
<g id="a_node27"><a xlink:href="SessionConfig_8hpp.html" target="_top" xlink:title=" ">
<polygon fill="none" stroke="red" points="1376.39,-132.5 1376.39,-152.5 1493.39,-152.5 1493.39,-132.5 1376.39,-132.5"/>
<text text-anchor="middle" x="1434.89" y="-139.7" font-family="-apple-system,BlinkMacSystemFont,'SegoeUI',Roboto,Oxygen,Ubuntu,Cantarell,'FiraSans','DroidSans','HelveticaNeue',sans-serif" font-size="11.00">SessionConfig.hpp</text>
</a>
</g>
</g>
<!-- Node2&#45;&gt;Node55 -->
<g id="edge51" class="edge">
<title>Node2&#45;&gt;Node55</title>
<path fill="none" stroke="midnightblue" d="M1153.11,-278.16C1224.27,-274.77 1378.62,-263.43 1415.89,-228 1433.47,-211.29 1436.44,-182.08 1436.23,-162.76"/>
<polygon fill="midnightblue" stroke="midnightblue" points="1439.72,-162.55 1435.82,-152.7 1432.73,-162.83 1439.72,-162.55"/>
</g>
<!-- Node15&#45;&gt;Node11 -->
<g id="edge15" class="edge">
<title>Node15&#45;&gt;Node11</title>
<path fill="none" stroke="midnightblue" d="M1697.49,-126.33C1672.46,-101.69 1623.19,-53.16 1597.44,-27.8"/>
<polygon fill="midnightblue" stroke="midnightblue" points="1599.84,-25.25 1590.26,-20.73 1594.93,-30.24 1599.84,-25.25"/>
</g>
<!-- Node15&#45;&gt;Node14 -->
<g id="edge16" class="edge">
<title>Node15&#45;&gt;Node14</title>
<path fill="none" stroke="midnightblue" d="M1627.85,-128.46C1545.27,-115.8 1421.47,-96.82 1344.84,-85.07"/>
<polygon fill="midnightblue" stroke="midnightblue" points="1345.23,-81.59 1334.82,-83.54 1344.17,-88.51 1345.23,-81.59"/>
</g>
<!-- Node21&#45;&gt;Node11 -->
<g id="edge18" class="edge">
<title>Node21&#45;&gt;Node11</title>
<path fill="none" stroke="midnightblue" d="M632.15,-195.42C637.82,-163.5 655.9,-89.39 704.89,-57 775.99,-10 1392.68,-10.41 1546.33,-11.25"/>
<polygon fill="midnightblue" stroke="midnightblue" points="1546.56,-14.75 1556.58,-11.31 1546.6,-7.75 1546.56,-14.75"/>
</g>
<!-- Node21&#45;&gt;Node14 -->
<g id="edge19" class="edge">
<title>Node21&#45;&gt;Node14</title>
<path fill="none" stroke="midnightblue" d="M704.05,-195.45C754.04,-185.27 821.46,-171.45 880.89,-159 1003.96,-133.21 1148.42,-102.09 1223.92,-85.76"/>
<polygon fill="midnightblue" stroke="midnightblue" points="1225.07,-89.09 1234.11,-83.56 1223.59,-82.25 1225.07,-89.09"/>
</g>
<!-- Node21&#45;&gt;Node22 -->
<g id="edge20" class="edge">
<title>Node21&#45;&gt;Node22</title>
<path fill="none" stroke="midnightblue" d="M665.34,-195.46C688.24,-185.76 718.22,-173.04 742.8,-162.62"/>
<polygon fill="midnightblue" stroke="midnightblue" points="744.43,-165.73 752.27,-158.6 741.7,-159.28 744.43,-165.73"/>
</g>
<!-- Node22&#45;&gt;Node8 -->
<g id="edge21" class="edge">
<title>Node22&#45;&gt;Node8</title>
<path fill="none" stroke="midnightblue" d="M703.87,-130.55C592.12,-115.98 398.91,-90.8 314.88,-79.84"/>
<polygon fill="midnightblue" stroke="midnightblue" points="315.32,-76.37 304.96,-78.55 314.42,-83.31 315.32,-76.37"/>
</g>
<!-- Node22&#45;&gt;Node10 -->
<g id="edge22" class="edge">
<title>Node22&#45;&gt;Node10</title>
<path fill="none" stroke="midnightblue" d="M778.13,-126.3C771.61,-116.14 763.02,-102.76 756.2,-92.14"/>
<polygon fill="midnightblue" stroke="midnightblue" points="759.11,-90.19 750.77,-83.66 753.22,-93.97 759.11,-90.19"/>
</g>
<!-- Node22&#45;&gt;Node13 -->
<g id="edge23" class="edge">
<title>Node22&#45;&gt;Node13</title>
<path fill="none" stroke="midnightblue" d="M797.42,-126.3C803.72,-116.25 812,-103.03 818.63,-92.46"/>
<polygon fill="midnightblue" stroke="midnightblue" points="821.8,-94 824.14,-83.66 815.86,-90.28 821.8,-94"/>
</g>
<!-- Node22&#45;&gt;Node14 -->
<g id="edge24" class="edge">
<title>Node22&#45;&gt;Node14</title>
<path fill="none" stroke="midnightblue" d="M872.05,-129.94C964.34,-117.27 1111.08,-97.13 1199.96,-84.92"/>
<polygon fill="midnightblue" stroke="midnightblue" points="1200.54,-88.38 1209.97,-83.55 1199.59,-81.44 1200.54,-88.38"/>
</g>
<!-- Node22&#45;&gt;Node27 -->
<g id="edge25" class="edge">
<title>Node22&#45;&gt;Node27</title>
<path fill="none" stroke="midnightblue" d="M871.9,-136.76C1094.99,-124.18 1699.32,-90.1 1905.7,-78.46"/>
<polygon fill="midnightblue" stroke="midnightblue" points="1906.02,-81.95 1915.81,-77.89 1905.63,-74.96 1906.02,-81.95"/>
</g>
<!-- Node27&#45;&gt;Node11 -->
<g id="edge26" class="edge">
<title>Node27&#45;&gt;Node11</title>
<path fill="none" stroke="midnightblue" d="M1915.46,-63.17C1831.56,-50.21 1682.53,-27.2 1615.38,-16.83"/>
<polygon fill="midnightblue" stroke="midnightblue" points="1615.74,-13.34 1605.33,-15.27 1614.68,-20.26 1615.74,-13.34"/>
</g>
<!-- Node44&#45;&gt;Node11 -->
<g id="edge28" class="edge">
<title>Node44&#45;&gt;Node11</title>
<path fill="none" stroke="midnightblue" d="M1556.88,-195.22C1561.56,-159.43 1573.21,-70.26 1578.36,-30.81"/>
<polygon fill="midnightblue" stroke="midnightblue" points="1581.86,-31.04 1579.69,-20.67 1574.92,-30.14 1581.86,-31.04"/>
</g>
<!-- Node44&#45;&gt;Node14 -->
<g id="edge29" class="edge">
<title>Node44&#45;&gt;Node14</title>
<path fill="none" stroke="midnightblue" d="M1549.62,-195.41C1542.11,-176.21 1526.46,-143.44 1501.89,-126 1460.4,-96.55 1404.76,-83.63 1359.07,-78.09"/>
<polygon fill="midnightblue" stroke="midnightblue" points="1359.21,-74.58 1348.89,-76.96 1358.44,-81.54 1359.21,-74.58"/>
</g>
<!-- Node44&#45;&gt;Node22 -->
<g id="edge30" class="edge">
<title>Node44&#45;&gt;Node22</title>
<path fill="none" stroke="midnightblue" d="M1462.59,-199.83C1447.01,-198.13 1430.99,-196.46 1415.89,-195 1226.71,-176.7 1005.05,-159.52 882.14,-150.37"/>
<polygon fill="midnightblue" stroke="midnightblue" points="882.24,-146.86 872.01,-149.61 881.72,-153.85 882.24,-146.86"/>
</g>
<!-- Node45&#45;&gt;Node11 -->
<g id="edge32" class="edge">
<title>Node45&#45;&gt;Node11</title>
<path fill="none" stroke="midnightblue" d="M1862.98,-126.46C1799.88,-100.75 1672.32,-48.76 1612.81,-24.51"/>
<polygon fill="midnightblue" stroke="midnightblue" points="1613.77,-21.12 1603.19,-20.59 1611.13,-27.6 1613.77,-21.12"/>
</g>
<!-- Node45&#45;&gt;Node14 -->
<g id="edge33" class="edge">
<title>Node45&#45;&gt;Node14</title>
<path fill="none" stroke="midnightblue" d="M1816.27,-127.29C1813.11,-126.84 1809.97,-126.41 1806.89,-126 1649.14,-105.23 1464.01,-89.15 1359.27,-80.81"/>
<polygon fill="midnightblue" stroke="midnightblue" points="1359.32,-77.3 1349.07,-80 1358.77,-84.28 1359.32,-77.3"/>
</g>
<!-- Node46&#45;&gt;Node11 -->
<g id="edge36" class="edge">
<title>Node46&#45;&gt;Node11</title>
<path fill="none" stroke="midnightblue" d="M2168.23,-195.38C2151.12,-163.37 2106.38,-89.1 2044.89,-57 1970.09,-17.96 1709.42,-12.33 1615.2,-11.59"/>
<polygon fill="midnightblue" stroke="midnightblue" points="1615.09,-8.09 1605.07,-11.52 1615.05,-15.09 1615.09,-8.09"/>
</g>
<!-- Node46&#45;&gt;Node27 -->
<g id="edge37" class="edge">
<title>Node46&#45;&gt;Node27</title>
<path fill="none" stroke="midnightblue" d="M2153.72,-195.43C2117.9,-171.07 2047.23,-123.01 2006.59,-95.38"/>
<polygon fill="midnightblue" stroke="midnightblue" points="2008.39,-92.37 1998.15,-89.64 2004.45,-98.16 2008.39,-92.37"/>
</g>
<!-- Node46&#45;&gt;Node47 -->
<g id="edge35" class="edge">
<title>Node46&#45;&gt;Node47</title>
<path fill="none" stroke="midnightblue" d="M2192.68,-195.3C2204.46,-184.63 2220.18,-170.4 2232.16,-159.55"/>
<polygon fill="midnightblue" stroke="midnightblue" points="2234.7,-161.97 2239.76,-152.66 2230,-156.78 2234.7,-161.97"/>
</g>
<!-- Node49&#45;&gt;Node11 -->
<g id="edge39" class="edge">
<title>Node49&#45;&gt;Node11</title>
<path fill="none" stroke="midnightblue" d="M403.42,-126.47C426.73,-106.35 471.51,-71.51 516.89,-57 616.77,-25.05 1375.34,-13.99 1546.6,-11.89"/>
<polygon fill="midnightblue" stroke="midnightblue" points="1546.84,-15.39 1556.8,-11.77 1546.76,-8.39 1546.84,-15.39"/>
</g>
<!-- Node49&#45;&gt;Node14 -->
<g id="edge40" class="edge">
<title>Node49&#45;&gt;Node14</title>
<path fill="none" stroke="midnightblue" d="M466.52,-134.69C499.44,-131.92 538,-128.73 572.89,-126 796.87,-108.46 1061.15,-89.59 1192.74,-80.32"/>
<polygon fill="midnightblue" stroke="midnightblue" points="1193.02,-83.81 1202.75,-79.62 1192.53,-76.83 1193.02,-83.81"/>
</g>
<!-- Node50&#45;&gt;Node11 -->
<g id="edge42" class="edge">
<title>Node50&#45;&gt;Node11</title>
<path fill="none" stroke="midnightblue" d="M1171.38,-195.27C1165.25,-164.37 1156.56,-94.1 1193.89,-57 1218.73,-32.31 1456.61,-17.79 1546.61,-13.14"/>
<polygon fill="midnightblue" stroke="midnightblue" points="1547.02,-16.63 1556.83,-12.63 1546.67,-9.64 1547.02,-16.63"/>
</g>
<!-- Node50&#45;&gt;Node14 -->
<g id="edge43" class="edge">
<title>Node50&#45;&gt;Node14</title>
<path fill="none" stroke="midnightblue" d="M1186.08,-195.43C1205,-169.95 1243.18,-118.54 1263.11,-91.7"/>
<polygon fill="midnightblue" stroke="midnightblue" points="1265.97,-93.72 1269.12,-83.61 1260.35,-89.55 1265.97,-93.72"/>
</g>
<!-- Node50&#45;&gt;Node22 -->
<g id="edge44" class="edge">
<title>Node50&#45;&gt;Node22</title>
<path fill="none" stroke="midnightblue" d="M1100.24,-196.67C1097.08,-196.1 1093.95,-195.54 1090.89,-195 1021.1,-182.63 942.17,-169.24 882.37,-159.21"/>
<polygon fill="midnightblue" stroke="midnightblue" points="882.63,-155.7 872.19,-157.5 881.47,-162.6 882.63,-155.7"/>
</g>
<!-- Node51&#45;&gt;Node11 -->
<g id="edge46" class="edge">
<title>Node51&#45;&gt;Node11</title>
<path fill="none" stroke="midnightblue" d="M446.53,-195.27C483.32,-162.72 575.68,-86.9 668.89,-57 753.56,-29.84 1390.34,-15.34 1546.43,-12.17"/>
<polygon fill="midnightblue" stroke="midnightblue" points="1546.89,-15.66 1556.82,-11.96 1546.75,-8.66 1546.89,-15.66"/>
</g>
<!-- Node51&#45;&gt;Node14 -->
<g id="edge47" class="edge">
<title>Node51&#45;&gt;Node14</title>
<path fill="none" stroke="midnightblue" d="M467.81,-195.48C518.63,-176.03 612.04,-142.67 694.89,-126 869.79,-90.81 1079.13,-79.66 1192.67,-76.13"/>
<polygon fill="midnightblue" stroke="midnightblue" points="1192.8,-79.63 1202.69,-75.84 1192.59,-72.64 1192.8,-79.63"/>
</g>
<!-- Node51&#45;&gt;Node22 -->
<g id="edge48" class="edge">
<title>Node51&#45;&gt;Node22</title>
<path fill="none" stroke="midnightblue" d="M510.23,-195.46C565.87,-185.05 640,-171.18 697.67,-160.38"/>
<polygon fill="midnightblue" stroke="midnightblue" points="698.32,-163.82 707.5,-158.54 697.03,-156.94 698.32,-163.82"/>
</g>
<!-- Node55&#45;&gt;Node11 -->
<g id="edge52" class="edge">
<title>Node55&#45;&gt;Node11</title>
<path fill="none" stroke="midnightblue" d="M1445.39,-132.15C1470.01,-110.23 1531.72,-55.28 1562.63,-27.75"/>
<polygon fill="midnightblue" stroke="midnightblue" points="1565.34,-30.03 1570.48,-20.76 1560.69,-24.8 1565.34,-30.03"/>
</g>
<!-- Node55&#45;&gt;Node14 -->
<g id="edge53" class="edge">
<title>Node55&#45;&gt;Node14</title>
<path fill="none" stroke="midnightblue" d="M1413.44,-132.46C1386.06,-120.93 1338.47,-100.87 1307.08,-87.64"/>
<polygon fill="midnightblue" stroke="midnightblue" points="1308.07,-84.26 1297.5,-83.61 1305.35,-90.72 1308.07,-84.26"/>
</g>
</g>
</svg>
