<?xml version="1.0" encoding="UTF-8" standalone="no"?>
<!DOCTYPE svg PUBLIC "-//W3C//DTD SVG 1.1//EN"
 "http://www.w3.org/Graphics/SVG/1.1/DTD/svg11.dtd">
<!-- Generated by graphviz version 3.0.0 (20220413.0242)
 -->
<!-- Title: libmirai/public/libmirai/Events/CommandExecutedEvent.hpp Pages: 1 -->
<svg width="1862pt" height="350pt"
 viewBox="0.00 0.00 1862.02 350.00" xmlns="http://www.w3.org/2000/svg" xmlns:xlink="http://www.w3.org/1999/xlink">
<g id="graph0" class="graph" transform="scale(1 1) rotate(0) translate(4 346)">
<title>libmirai/public/libmirai/Events/CommandExecutedEvent.hpp</title>
<!-- Node1 -->
<g id="node1" class="node">
<title>Node1</title>
<g id="a_node1"><a xlink:title=" ">
<polygon fill="#bfbfbf" stroke="black" points="751.58,-309.5 751.58,-341.5 948.58,-341.5 948.58,-309.5 751.58,-309.5"/>
<text text-anchor="start" x="759.58" y="-328.7" font-family="-apple-system, BlinkMacSystemFont, 'Segoe UI', Roboto, Oxygen, Ubuntu, Cantarell, 'Fira Sans', 'Droid Sans', 'Helvetica Neue', sans-serif" font-size="11.00">libmirai/public/libmirai</text>
<text text-anchor="middle" x="850.08" y="-316.7" font-family="-apple-system, BlinkMacSystemFont, 'Segoe UI', Roboto, Oxygen, Ubuntu, Cantarell, 'Fira Sans', 'Droid Sans', 'Helvetica Neue', sans-serif" font-size="11.00">/Events/CommandExecutedEvent.hpp</text>
</a>
</g>
</g>
<!-- Node2 -->
<g id="node2" class="node">
<title>Node2</title>
<g id="a_node2"><a xlink:title=" ">
<polygon fill="none" stroke="#bfbfbf" points="203.08,-177.5 203.08,-197.5 257.08,-197.5 257.08,-177.5 203.08,-177.5"/>
<text text-anchor="middle" x="230.08" y="-184.7" font-family="-apple-system, BlinkMacSystemFont, 'Segoe UI', Roboto, Oxygen, Ubuntu, Cantarell, 'Fira Sans', 'Droid Sans', 'Helvetica Neue', sans-serif" font-size="11.00">optional</text>
</a>
</g>
</g>
<!-- Node1&#45;&gt;Node2 -->
<g id="edge1" class="edge">
<title>Node1&#45;&gt;Node2</title>
<path fill="none" stroke="midnightblue" d="M755.46,-309.49C639.89,-290.08 439.04,-252.9 271.08,-204 267.94,-203.09 264.7,-202.04 261.48,-200.94"/>
<polygon fill="midnightblue" stroke="midnightblue" points="262.59,-197.62 252,-197.51 260.21,-204.2 262.59,-197.62"/>
</g>
<!-- Node3 -->
<g id="node3" class="node">
<title>Node3</title>
<g id="a_node3"><a xlink:title=" ">
<polygon fill="none" stroke="#bfbfbf" points="1052.58,-0.5 1052.58,-20.5 1095.58,-20.5 1095.58,-0.5 1052.58,-0.5"/>
<text text-anchor="middle" x="1074.08" y="-7.7" font-family="-apple-system, BlinkMacSystemFont, 'Segoe UI', Roboto, Oxygen, Ubuntu, Cantarell, 'Fira Sans', 'Droid Sans', 'Helvetica Neue', sans-serif" font-size="11.00">string</text>
</a>
</g>
</g>
<!-- Node1&#45;&gt;Node3 -->
<g id="edge2" class="edge">
<title>Node1&#45;&gt;Node3</title>
<path fill="none" stroke="midnightblue" d="M948.9,-323.96C1139.42,-322.01 1550.67,-313.13 1686.08,-273 1745.81,-255.3 1773.64,-255.91 1808.08,-204 1844.21,-149.54 1853.53,-99.74 1804.08,-57 1777.31,-33.86 1243.43,-16.51 1106.08,-12.42"/>
<polygon fill="midnightblue" stroke="midnightblue" points="1105.91,-8.92 1095.81,-12.12 1105.7,-15.91 1105.91,-8.92"/>
</g>
<!-- Node4 -->
<g id="node4" class="node">
<title>Node4</title>
<g id="a_node4"><a xlink:title=" ">
<polygon fill="none" stroke="#bfbfbf" points="696.58,-0.5 696.58,-20.5 827.58,-20.5 827.58,-0.5 696.58,-0.5"/>
<text text-anchor="middle" x="762.08" y="-7.7" font-family="-apple-system, BlinkMacSystemFont, 'Segoe UI', Roboto, Oxygen, Ubuntu, Cantarell, 'Fira Sans', 'Droid Sans', 'Helvetica Neue', sans-serif" font-size="11.00">nlohmann/json_fwd.hpp</text>
</a>
</g>
</g>
<!-- Node1&#45;&gt;Node4 -->
<g id="edge3" class="edge">
<title>Node1&#45;&gt;Node4</title>
<path fill="none" stroke="midnightblue" d="M751.57,-321.52C604.3,-316.15 334.18,-302.56 242.08,-273 127.85,-236.34 69.39,-239.29 10.08,-135 -8.18,-102.89 44.35,-59.15 48.08,-57 102.31,-25.72 513.96,-15.49 686.43,-12.55"/>
<polygon fill="midnightblue" stroke="midnightblue" points="686.51,-16.05 696.45,-12.39 686.39,-9.05 686.51,-16.05"/>
</g>
<!-- Node5 -->
<g id="node5" class="node">
<title>Node5</title>
<g id="a_node5"><a xlink:href="MessageChain_8hpp.html" target="_top" xlink:title=" ">
<polygon fill="none" stroke="black" points="973.58,-240.5 973.58,-272.5 1122.58,-272.5 1122.58,-240.5 973.58,-240.5"/>
<text text-anchor="start" x="981.58" y="-259.7" font-family="-apple-system, BlinkMacSystemFont, 'Segoe UI', Roboto, Oxygen, Ubuntu, Cantarell, 'Fira Sans', 'Droid Sans', 'Helvetica Neue', sans-serif" font-size="11.00">libmirai/Messages/Message</text>
<text text-anchor="middle" x="1048.08" y="-247.7" font-family="-apple-system, BlinkMacSystemFont, 'Segoe UI', Roboto, Oxygen, Ubuntu, Cantarell, 'Fira Sans', 'Droid Sans', 'Helvetica Neue', sans-serif" font-size="11.00">Chain.hpp</text>
</a>
</g>
</g>
<!-- Node1&#45;&gt;Node5 -->
<g id="edge4" class="edge">
<title>Node1&#45;&gt;Node5</title>
<path fill="none" stroke="midnightblue" d="M894.52,-309.46C923.84,-299.54 962.45,-286.48 993.62,-275.93"/>
<polygon fill="midnightblue" stroke="midnightblue" points="995.1,-279.12 1003.45,-272.6 992.86,-272.49 995.1,-279.12"/>
</g>
<!-- Node19 -->
<g id="node18" class="node">
<title>Node19</title>
<g id="a_node18"><a xlink:href="BasicTypes_8hpp.html" target="_top" xlink:title=" ">
<polygon fill="none" stroke="red" points="553.08,-57.5 553.08,-77.5 715.08,-77.5 715.08,-57.5 553.08,-57.5"/>
<text text-anchor="middle" x="634.08" y="-64.7" font-family="-apple-system, BlinkMacSystemFont, 'Segoe UI', Roboto, Oxygen, Ubuntu, Cantarell, 'Fira Sans', 'Droid Sans', 'Helvetica Neue', sans-serif" font-size="11.00">libmirai/Types/BasicTypes.hpp</text>
</a>
</g>
</g>
<!-- Node1&#45;&gt;Node19 -->
<g id="edge84" class="edge">
<title>Node1&#45;&gt;Node19</title>
<path fill="none" stroke="midnightblue" d="M751.39,-322.2C584.53,-315.89 258.47,-292.29 194.08,-204 185.44,-192.15 184.69,-182.26 194.08,-171 222.58,-136.82 347.69,-144.88 391.08,-135 463.54,-118.5 546.87,-94.61 594.71,-80.4"/>
<polygon fill="midnightblue" stroke="midnightblue" points="595.78,-83.74 604.36,-77.53 593.78,-77.03 595.78,-83.74"/>
</g>
<!-- Node33 -->
<g id="node29" class="node">
<title>Node33</title>
<g id="a_node29"><a xlink:href="EventBase_8hpp.html" target="_top" xlink:title=" ">
<polygon fill="none" stroke="black" points="1705.58,-57.5 1705.58,-77.5 1794.58,-77.5 1794.58,-57.5 1705.58,-57.5"/>
<text text-anchor="middle" x="1750.08" y="-64.7" font-family="-apple-system, BlinkMacSystemFont, 'Segoe UI', Roboto, Oxygen, Ubuntu, Cantarell, 'Fira Sans', 'Droid Sans', 'Helvetica Neue', sans-serif" font-size="11.00">EventBase.hpp</text>
</a>
</g>
</g>
<!-- Node1&#45;&gt;Node33 -->
<g id="edge85" class="edge">
<title>Node1&#45;&gt;Node33</title>
<path fill="none" stroke="midnightblue" d="M948.71,-325.46C1163.15,-325.44 1662.3,-313.33 1783.08,-204 1813.2,-176.74 1815.32,-151.24 1799.08,-114 1793.77,-101.82 1783.41,-91.43 1773.58,-83.67"/>
<polygon fill="midnightblue" stroke="midnightblue" points="1775.36,-80.64 1765.22,-77.55 1771.22,-86.28 1775.36,-80.64"/>
</g>
<!-- Node5&#45;&gt;Node2 -->
<g id="edge8" class="edge">
<title>Node5&#45;&gt;Node2</title>
<path fill="none" stroke="midnightblue" d="M973.35,-253.35C805.63,-248.08 403.61,-232.78 271.08,-204 267.45,-203.21 263.71,-202.16 260.03,-200.97"/>
<polygon fill="midnightblue" stroke="midnightblue" points="261.17,-197.66 250.58,-197.6 258.82,-204.26 261.17,-197.66"/>
</g>
<!-- Node5&#45;&gt;Node4 -->
<g id="edge13" class="edge">
<title>Node5&#45;&gt;Node4</title>
<path fill="none" stroke="midnightblue" d="M973.46,-256C815.05,-256.12 450.45,-251.09 337.08,-204 316.42,-195.42 319.48,-180.17 299.08,-171 242.67,-145.64 63.89,-181.48 23.08,-135 -66.44,-33.05 480.62,-15.25 686.26,-12.15"/>
<polygon fill="midnightblue" stroke="midnightblue" points="686.43,-15.65 696.38,-12 686.33,-8.65 686.43,-15.65"/>
</g>
<!-- Node6 -->
<g id="node6" class="node">
<title>Node6</title>
<g id="a_node6"><a xlink:title=" ">
<polygon fill="none" stroke="#bfbfbf" points="1304.58,-177.5 1304.58,-197.5 1355.58,-197.5 1355.58,-177.5 1304.58,-177.5"/>
<text text-anchor="middle" x="1330.08" y="-184.7" font-family="-apple-system, BlinkMacSystemFont, 'Segoe UI', Roboto, Oxygen, Ubuntu, Cantarell, 'Fira Sans', 'Droid Sans', 'Helvetica Neue', sans-serif" font-size="11.00">cstddef</text>
</a>
</g>
</g>
<!-- Node5&#45;&gt;Node6 -->
<g id="edge5" class="edge">
<title>Node5&#45;&gt;Node6</title>
<path fill="none" stroke="midnightblue" d="M1122.73,-242.81C1170.96,-233.83 1234.82,-220.47 1290.08,-204 1293.05,-203.11 1296.12,-202.11 1299.17,-201.04"/>
<polygon fill="midnightblue" stroke="midnightblue" points="1300.55,-204.26 1308.71,-197.51 1298.12,-197.69 1300.55,-204.26"/>
</g>
<!-- Node7 -->
<g id="node7" class="node">
<title>Node7</title>
<g id="a_node7"><a xlink:title=" ">
<polygon fill="none" stroke="#bfbfbf" points="1428.08,-0.5 1428.08,-20.5 1470.08,-20.5 1470.08,-0.5 1428.08,-0.5"/>
<text text-anchor="middle" x="1449.08" y="-7.7" font-family="-apple-system, BlinkMacSystemFont, 'Segoe UI', Roboto, Oxygen, Ubuntu, Cantarell, 'Fira Sans', 'Droid Sans', 'Helvetica Neue', sans-serif" font-size="11.00">ctime</text>
</a>
</g>
</g>
<!-- Node5&#45;&gt;Node7 -->
<g id="edge6" class="edge">
<title>Node5&#45;&gt;Node7</title>
<path fill="none" stroke="midnightblue" d="M1122.87,-255.21C1299.93,-253.84 1733.67,-246.17 1783.08,-204 1833.28,-161.16 1847.68,-106.54 1804.08,-57 1782.8,-32.81 1562.98,-17.95 1480.3,-13.18"/>
<polygon fill="midnightblue" stroke="midnightblue" points="1480.42,-9.68 1470.24,-12.61 1480.03,-16.67 1480.42,-9.68"/>
</g>
<!-- Node8 -->
<g id="node8" class="node">
<title>Node8</title>
<g id="a_node8"><a xlink:title=" ">
<polygon fill="none" stroke="#bfbfbf" points="1722.08,-0.5 1722.08,-20.5 1778.08,-20.5 1778.08,-0.5 1722.08,-0.5"/>
<text text-anchor="middle" x="1750.08" y="-7.7" font-family="-apple-system, BlinkMacSystemFont, 'Segoe UI', Roboto, Oxygen, Ubuntu, Cantarell, 'Fira Sans', 'Droid Sans', 'Helvetica Neue', sans-serif" font-size="11.00">memory</text>
</a>
</g>
</g>
<!-- Node5&#45;&gt;Node8 -->
<g id="edge7" class="edge">
<title>Node5&#45;&gt;Node8</title>
<path fill="none" stroke="midnightblue" d="M1122.83,-254.73C1303.9,-252.28 1755.27,-242.34 1811.08,-204 1865.17,-166.84 1865.61,-108.62 1825.08,-57 1814.2,-43.15 1797.84,-32.52 1783.18,-25.04"/>
<polygon fill="midnightblue" stroke="midnightblue" points="1784.39,-21.74 1773.86,-20.57 1781.36,-28.05 1784.39,-21.74"/>
</g>
<!-- Node9 -->
<g id="node9" class="node">
<title>Node9</title>
<g id="a_node9"><a xlink:title=" ">
<polygon fill="none" stroke="#bfbfbf" points="1712.08,-114.5 1712.08,-134.5 1774.08,-134.5 1774.08,-114.5 1712.08,-114.5"/>
<text text-anchor="middle" x="1743.08" y="-121.7" font-family="-apple-system, BlinkMacSystemFont, 'Segoe UI', Roboto, Oxygen, Ubuntu, Cantarell, 'Fira Sans', 'Droid Sans', 'Helvetica Neue', sans-serif" font-size="11.00">stdexcept</text>
</a>
</g>
</g>
<!-- Node5&#45;&gt;Node9 -->
<g id="edge9" class="edge">
<title>Node5&#45;&gt;Node9</title>
<path fill="none" stroke="midnightblue" d="M1122.74,-244.01C1162.46,-236.1 1211.37,-223.43 1252.08,-204 1274.14,-193.47 1273.25,-179.75 1296.08,-171 1462.59,-107.21 1521.69,-162 1701.67,-134.98"/>
<polygon fill="midnightblue" stroke="midnightblue" points="1702.39,-138.41 1711.73,-133.4 1701.3,-131.49 1702.39,-138.41"/>
</g>
<!-- Node10 -->
<g id="node10" class="node">
<title>Node10</title>
<g id="a_node10"><a xlink:title=" ">
<polygon fill="none" stroke="#bfbfbf" points="1374.08,-177.5 1374.08,-197.5 1440.08,-197.5 1440.08,-177.5 1374.08,-177.5"/>
<text text-anchor="middle" x="1407.08" y="-184.7" font-family="-apple-system, BlinkMacSystemFont, 'Segoe UI', Roboto, Oxygen, Ubuntu, Cantarell, 'Fira Sans', 'Droid Sans', 'Helvetica Neue', sans-serif" font-size="11.00">type_traits</text>
</a>
</g>
</g>
<!-- Node5&#45;&gt;Node10 -->
<g id="edge10" class="edge">
<title>Node5&#45;&gt;Node10</title>
<path fill="none" stroke="midnightblue" d="M1122.59,-247.51C1187.37,-239.59 1283.39,-225.5 1365.08,-204 1368.49,-203.1 1372.01,-202.04 1375.5,-200.89"/>
<polygon fill="midnightblue" stroke="midnightblue" points="1376.83,-204.13 1385.1,-197.52 1374.51,-197.53 1376.83,-204.13"/>
</g>
<!-- Node11 -->
<g id="node11" class="node">
<title>Node11</title>
<g id="a_node11"><a xlink:title=" ">
<polygon fill="none" stroke="#bfbfbf" points="124.58,-0.5 124.58,-20.5 165.58,-20.5 165.58,-0.5 124.58,-0.5"/>
<text text-anchor="middle" x="145.08" y="-7.7" font-family="-apple-system, BlinkMacSystemFont, 'Segoe UI', Roboto, Oxygen, Ubuntu, Cantarell, 'Fira Sans', 'Droid Sans', 'Helvetica Neue', sans-serif" font-size="11.00">utility</text>
</a>
</g>
</g>
<!-- Node5&#45;&gt;Node11 -->
<g id="edge11" class="edge">
<title>Node5&#45;&gt;Node11</title>
<path fill="none" stroke="midnightblue" d="M973.46,-253.34C796.06,-247.77 359.36,-231.43 299.08,-204 280.2,-195.41 284.64,-180.26 266.08,-171 214.67,-145.36 47.77,-178.36 10.08,-135 -29.48,-89.49 63.88,-43.56 114.77,-22.86"/>
<polygon fill="midnightblue" stroke="midnightblue" points="116.33,-26.01 124.33,-19.07 113.74,-19.5 116.33,-26.01"/>
</g>
<!-- Node12 -->
<g id="node12" class="node">
<title>Node12</title>
<g id="a_node12"><a xlink:title=" ">
<polygon fill="none" stroke="#bfbfbf" points="1458.08,-177.5 1458.08,-197.5 1504.08,-197.5 1504.08,-177.5 1458.08,-177.5"/>
<text text-anchor="middle" x="1481.08" y="-184.7" font-family="-apple-system, BlinkMacSystemFont, 'Segoe UI', Roboto, Oxygen, Ubuntu, Cantarell, 'Fira Sans', 'Droid Sans', 'Helvetica Neue', sans-serif" font-size="11.00">vector</text>
</a>
</g>
</g>
<!-- Node5&#45;&gt;Node12 -->
<g id="edge12" class="edge">
<title>Node5&#45;&gt;Node12</title>
<path fill="none" stroke="midnightblue" d="M1122.73,-253.09C1204.4,-248.82 1338.42,-236.95 1449.08,-204 1451.24,-203.36 1453.44,-202.58 1455.62,-201.72"/>
<polygon fill="midnightblue" stroke="midnightblue" points="1457.17,-204.86 1464.88,-197.6 1454.32,-198.47 1457.17,-204.86"/>
</g>
<!-- Node13 -->
<g id="node13" class="node">
<title>Node13</title>
<g id="a_node13"><a xlink:href="Exceptions_8hpp.html" target="_top" xlink:title=" ">
<polygon fill="none" stroke="black" points="1668.58,-171.5 1668.58,-203.5 1773.58,-203.5 1773.58,-171.5 1668.58,-171.5"/>
<text text-anchor="start" x="1676.58" y="-190.7" font-family="-apple-system, BlinkMacSystemFont, 'Segoe UI', Roboto, Oxygen, Ubuntu, Cantarell, 'Fira Sans', 'Droid Sans', 'Helvetica Neue', sans-serif" font-size="11.00">libmirai/Exceptions</text>
<text text-anchor="middle" x="1721.08" y="-178.7" font-family="-apple-system, BlinkMacSystemFont, 'Segoe UI', Roboto, Oxygen, Ubuntu, Cantarell, 'Fira Sans', 'Droid Sans', 'Helvetica Neue', sans-serif" font-size="11.00">/Exceptions.hpp</text>
</a>
</g>
</g>
<!-- Node5&#45;&gt;Node13 -->
<g id="edge14" class="edge">
<title>Node5&#45;&gt;Node13</title>
<path fill="none" stroke="midnightblue" d="M1122.68,-248.07C1256.16,-234.79 1533.54,-207.17 1658.11,-194.77"/>
<polygon fill="midnightblue" stroke="midnightblue" points="1658.65,-198.23 1668.25,-193.76 1657.95,-191.27 1658.65,-198.23"/>
</g>
<!-- Node14 -->
<g id="node14" class="node">
<title>Node14</title>
<g id="a_node14"><a xlink:href="AppMessage_8hpp.html" target="_top" xlink:title=" ">
<polygon fill="none" stroke="black" points="1076.58,-114.5 1076.58,-134.5 1177.58,-134.5 1177.58,-114.5 1076.58,-114.5"/>
<text text-anchor="middle" x="1127.08" y="-121.7" font-family="-apple-system, BlinkMacSystemFont, 'Segoe UI', Roboto, Oxygen, Ubuntu, Cantarell, 'Fira Sans', 'Droid Sans', 'Helvetica Neue', sans-serif" font-size="11.00">AppMessage.hpp</text>
</a>
</g>
</g>
<!-- Node5&#45;&gt;Node14 -->
<g id="edge17" class="edge">
<title>Node5&#45;&gt;Node14</title>
<path fill="none" stroke="midnightblue" d="M1057.3,-240.33C1071.95,-216.22 1100.5,-169.24 1116.16,-143.48"/>
<polygon fill="midnightblue" stroke="midnightblue" points="1119.27,-145.09 1121.47,-134.73 1113.29,-141.46 1119.27,-145.09"/>
</g>
<!-- Node15 -->
<g id="node15" class="node">
<title>Node15</title>
<g id="a_node15"><a xlink:href="MessageBase_8hpp.html" target="_top" xlink:title=" ">
<polygon fill="none" stroke="red" points="961.08,-57.5 961.08,-77.5 1067.08,-77.5 1067.08,-57.5 961.08,-57.5"/>
<text text-anchor="middle" x="1014.08" y="-64.7" font-family="-apple-system, BlinkMacSystemFont, 'Segoe UI', Roboto, Oxygen, Ubuntu, Cantarell, 'Fira Sans', 'Droid Sans', 'Helvetica Neue', sans-serif" font-size="11.00">MessageBase.hpp</text>
</a>
</g>
</g>
<!-- Node5&#45;&gt;Node15 -->
<g id="edge65" class="edge">
<title>Node5&#45;&gt;Node15</title>
<path fill="none" stroke="midnightblue" d="M1046.98,-240.47C1044.87,-214.44 1039.52,-159.41 1029.08,-114 1027.03,-105.09 1023.98,-95.45 1021.16,-87.35"/>
<polygon fill="midnightblue" stroke="midnightblue" points="1024.39,-85.98 1017.7,-77.77 1017.81,-88.36 1024.39,-85.98"/>
</g>
<!-- Node17 -->
<g id="node16" class="node">
<title>Node17</title>
<g id="a_node16"><a xlink:href="AtAllMessage_8hpp.html" target="_top" xlink:title=" ">
<polygon fill="none" stroke="black" points="1344.08,-114.5 1344.08,-134.5 1448.08,-134.5 1448.08,-114.5 1344.08,-114.5"/>
<text text-anchor="middle" x="1396.08" y="-121.7" font-family="-apple-system, BlinkMacSystemFont, 'Segoe UI', Roboto, Oxygen, Ubuntu, Cantarell, 'Fira Sans', 'Droid Sans', 'Helvetica Neue', sans-serif" font-size="11.00">AtAllMessage.hpp</text>
</a>
</g>
</g>
<!-- Node5&#45;&gt;Node17 -->
<g id="edge24" class="edge">
<title>Node5&#45;&gt;Node17</title>
<path fill="none" stroke="midnightblue" d="M1077.54,-240.42C1096.11,-230.61 1120.41,-217.23 1141.08,-204 1161.97,-190.63 1163.47,-181.18 1186.08,-171 1212.07,-159.3 1281.86,-145.35 1333.9,-136.01"/>
<polygon fill="midnightblue" stroke="midnightblue" points="1334.82,-139.41 1344.05,-134.21 1333.59,-132.51 1334.82,-139.41"/>
</g>
<!-- Node18 -->
<g id="node17" class="node">
<title>Node18</title>
<g id="a_node17"><a xlink:href="AtMessage_8hpp.html" target="_top" xlink:title=" ">
<polygon fill="none" stroke="black" points="683.08,-114.5 683.08,-134.5 775.08,-134.5 775.08,-114.5 683.08,-114.5"/>
<text text-anchor="middle" x="729.08" y="-121.7" font-family="-apple-system, BlinkMacSystemFont, 'Segoe UI', Roboto, Oxygen, Ubuntu, Cantarell, 'Fira Sans', 'Droid Sans', 'Helvetica Neue', sans-serif" font-size="11.00">AtMessage.hpp</text>
</a>
</g>
</g>
<!-- Node5&#45;&gt;Node18 -->
<g id="edge28" class="edge">
<title>Node5&#45;&gt;Node18</title>
<path fill="none" stroke="midnightblue" d="M1007.77,-240.42C981.1,-230.34 945.39,-216.65 914.08,-204 859.23,-181.83 795.88,-154.59 759.36,-138.72"/>
<polygon fill="midnightblue" stroke="midnightblue" points="760.36,-135.34 749.79,-134.56 757.57,-141.76 760.36,-135.34"/>
</g>
<!-- Node21 -->
<g id="node19" class="node">
<title>Node21</title>
<g id="a_node19"><a xlink:href="AudioMessage_8hpp.html" target="_top" xlink:title=" ">
<polygon fill="none" stroke="red" points="150.58,-114.5 150.58,-134.5 259.58,-134.5 259.58,-114.5 150.58,-114.5"/>
<text text-anchor="middle" x="205.08" y="-121.7" font-family="-apple-system, BlinkMacSystemFont, 'Segoe UI', Roboto, Oxygen, Ubuntu, Cantarell, 'Fira Sans', 'Droid Sans', 'Helvetica Neue', sans-serif" font-size="11.00">AudioMessage.hpp</text>
</a>
</g>
</g>
<!-- Node5&#45;&gt;Node21 -->
<g id="edge37" class="edge">
<title>Node5&#45;&gt;Node21</title>
<path fill="none" stroke="midnightblue" d="M973.48,-255.24C828.08,-253.78 512.36,-245.74 413.08,-204 392.46,-195.33 394.84,-181.49 375.08,-171 342.44,-153.66 302.68,-142.55 269.82,-135.65"/>
<polygon fill="midnightblue" stroke="midnightblue" points="270.36,-132.19 259.86,-133.64 268.97,-139.05 270.36,-132.19"/>
</g>
<!-- Node23 -->
<g id="node20" class="node">
<title>Node23</title>
<g id="a_node20"><a xlink:href="DiceMessage_8hpp.html" target="_top" xlink:title=" ">
<polygon fill="none" stroke="black" points="918.08,-114.5 918.08,-134.5 1020.08,-134.5 1020.08,-114.5 918.08,-114.5"/>
<text text-anchor="middle" x="969.08" y="-121.7" font-family="-apple-system, BlinkMacSystemFont, 'Segoe UI', Roboto, Oxygen, Ubuntu, Cantarell, 'Fira Sans', 'Droid Sans', 'Helvetica Neue', sans-serif" font-size="11.00">DiceMessage.hpp</text>
</a>
</g>
</g>
<!-- Node5&#45;&gt;Node23 -->
<g id="edge42" class="edge">
<title>Node5&#45;&gt;Node23</title>
<path fill="none" stroke="midnightblue" d="M1038.86,-240.33C1024.21,-216.22 995.66,-169.24 980.01,-143.48"/>
<polygon fill="midnightblue" stroke="midnightblue" points="982.88,-141.46 974.69,-134.73 976.89,-145.09 982.88,-141.46"/>
</g>
<!-- Node24 -->
<g id="node21" class="node">
<title>Node24</title>
<g id="a_node21"><a xlink:href="FaceMessage_8hpp.html" target="_top" xlink:title=" ">
<polygon fill="none" stroke="black" points="1466.58,-114.5 1466.58,-134.5 1571.58,-134.5 1571.58,-114.5 1466.58,-114.5"/>
<text text-anchor="middle" x="1519.08" y="-121.7" font-family="-apple-system, BlinkMacSystemFont, 'Segoe UI', Roboto, Oxygen, Ubuntu, Cantarell, 'Fira Sans', 'Droid Sans', 'Helvetica Neue', sans-serif" font-size="11.00">FaceMessage.hpp</text>
</a>
</g>
</g>
<!-- Node5&#45;&gt;Node24 -->
<g id="edge46" class="edge">
<title>Node5&#45;&gt;Node24</title>
<path fill="none" stroke="midnightblue" d="M1093.12,-240.44C1118.44,-231.26 1150.25,-218.52 1177.08,-204 1199.53,-191.85 1200.4,-180.53 1224.08,-171 1224.76,-170.73 1370.13,-148.37 1456.52,-135.1"/>
<polygon fill="midnightblue" stroke="midnightblue" points="1457.14,-138.55 1466.49,-133.57 1456.08,-131.63 1457.14,-138.55"/>
</g>
<!-- Node25 -->
<g id="node22" class="node">
<title>Node25</title>
<g id="a_node22"><a xlink:href="FlashImageMessage_8hpp.html" target="_top" xlink:title=" ">
<polygon fill="none" stroke="black" points="465.58,-177.5 465.58,-197.5 602.58,-197.5 602.58,-177.5 465.58,-177.5"/>
<text text-anchor="middle" x="534.08" y="-184.7" font-family="-apple-system, BlinkMacSystemFont, 'Segoe UI', Roboto, Oxygen, Ubuntu, Cantarell, 'Fira Sans', 'Droid Sans', 'Helvetica Neue', sans-serif" font-size="11.00">FlashImageMessage.hpp</text>
</a>
</g>
</g>
<!-- Node5&#45;&gt;Node25 -->
<g id="edge50" class="edge">
<title>Node5&#45;&gt;Node25</title>
<path fill="none" stroke="midnightblue" d="M973.24,-247.41C888.77,-238.03 747.33,-221.6 626.08,-204 616.1,-202.55 605.54,-200.89 595.26,-199.21"/>
<polygon fill="midnightblue" stroke="midnightblue" points="595.55,-195.71 585.11,-197.52 594.4,-202.61 595.55,-195.71"/>
</g>
<!-- Node26 -->
<g id="node23" class="node">
<title>Node26</title>
<g id="a_node23"><a xlink:href="ImageMessage_8hpp.html" target="_top" xlink:title=" ">
<polygon fill="none" stroke="red" points="553.58,-114.5 553.58,-134.5 664.58,-134.5 664.58,-114.5 553.58,-114.5"/>
<text text-anchor="middle" x="609.08" y="-121.7" font-family="-apple-system, BlinkMacSystemFont, 'Segoe UI', Roboto, Oxygen, Ubuntu, Cantarell, 'Fira Sans', 'Droid Sans', 'Helvetica Neue', sans-serif" font-size="11.00">ImageMessage.hpp</text>
</a>
</g>
</g>
<!-- Node5&#45;&gt;Node26 -->
<g id="edge60" class="edge">
<title>Node5&#45;&gt;Node26</title>
<path fill="none" stroke="midnightblue" d="M977.74,-240.43C935.76,-230.97 881.56,-217.96 834.08,-204 764.85,-183.65 685.52,-154.59 641.98,-138.14"/>
<polygon fill="midnightblue" stroke="midnightblue" points="643.07,-134.81 632.48,-134.53 640.59,-141.35 643.07,-134.81"/>
</g>
<!-- Node27 -->
<g id="node24" class="node">
<title>Node27</title>
<g id="a_node24"><a xlink:href="JsonMessage_8hpp.html" target="_top" xlink:title=" ">
<polygon fill="none" stroke="black" points="1590.08,-114.5 1590.08,-134.5 1694.08,-134.5 1694.08,-114.5 1590.08,-114.5"/>
<text text-anchor="middle" x="1642.08" y="-121.7" font-family="-apple-system, BlinkMacSystemFont, 'Segoe UI', Roboto, Oxygen, Ubuntu, Cantarell, 'Fira Sans', 'Droid Sans', 'Helvetica Neue', sans-serif" font-size="11.00">JsonMessage.hpp</text>
</a>
</g>
</g>
<!-- Node5&#45;&gt;Node27 -->
<g id="edge61" class="edge">
<title>Node5&#45;&gt;Node27</title>
<path fill="none" stroke="midnightblue" d="M1112.46,-240.39C1143.95,-231.8 1181.91,-219.6 1214.08,-204 1237.38,-192.7 1237.83,-180.06 1262.08,-171 1392.74,-122.22 1437.65,-152.55 1579.9,-135.06"/>
<polygon fill="midnightblue" stroke="midnightblue" points="1580.39,-138.53 1589.86,-133.78 1579.49,-131.59 1580.39,-138.53"/>
</g>
<!-- Node28 -->
<g id="node25" class="node">
<title>Node28</title>
<g id="a_node25"><a xlink:href="MiraiCodeMessage_8hpp.html" target="_top" xlink:title=" ">
<polygon fill="none" stroke="black" points="1196.08,-114.5 1196.08,-134.5 1326.08,-134.5 1326.08,-114.5 1196.08,-114.5"/>
<text text-anchor="middle" x="1261.08" y="-121.7" font-family="-apple-system, BlinkMacSystemFont, 'Segoe UI', Roboto, Oxygen, Ubuntu, Cantarell, 'Fira Sans', 'Droid Sans', 'Helvetica Neue', sans-serif" font-size="11.00">MiraiCodeMessage.hpp</text>
</a>
</g>
</g>
<!-- Node5&#45;&gt;Node28 -->
<g id="edge66" class="edge">
<title>Node5&#45;&gt;Node28</title>
<path fill="none" stroke="midnightblue" d="M1064.66,-240.37C1088.24,-219.04 1130.56,-181.56 1148.08,-171 1171.12,-157.12 1199.16,-145.8 1221.54,-137.93"/>
<polygon fill="midnightblue" stroke="midnightblue" points="1222.75,-141.21 1231.07,-134.66 1220.48,-134.59 1222.75,-141.21"/>
</g>
<!-- Node29 -->
<g id="node26" class="node">
<title>Node29</title>
<g id="a_node26"><a xlink:href="PlainMessage_8hpp.html" target="_top" xlink:title=" ">
<polygon fill="none" stroke="black" points="277.58,-114.5 277.58,-134.5 382.58,-134.5 382.58,-114.5 277.58,-114.5"/>
<text text-anchor="middle" x="330.08" y="-121.7" font-family="-apple-system, BlinkMacSystemFont, 'Segoe UI', Roboto, Oxygen, Ubuntu, Cantarell, 'Fira Sans', 'Droid Sans', 'Helvetica Neue', sans-serif" font-size="11.00">PlainMessage.hpp</text>
</a>
</g>
</g>
<!-- Node5&#45;&gt;Node29 -->
<g id="edge70" class="edge">
<title>Node5&#45;&gt;Node29</title>
<path fill="none" stroke="midnightblue" d="M973.43,-254.19C835.99,-250.94 548.51,-239.92 456.08,-204 433.63,-195.27 433.26,-184.16 413.08,-171 395.25,-159.37 374.2,-147.85 357.77,-139.32"/>
<polygon fill="midnightblue" stroke="midnightblue" points="359.18,-136.11 348.68,-134.66 355.98,-142.34 359.18,-136.11"/>
</g>
<!-- Node30 -->
<g id="node27" class="node">
<title>Node30</title>
<g id="a_node27"><a xlink:href="PokeMessage_8hpp.html" target="_top" xlink:title=" ">
<polygon fill="none" stroke="red" points="793.58,-114.5 793.58,-134.5 900.58,-134.5 900.58,-114.5 793.58,-114.5"/>
<text text-anchor="middle" x="847.08" y="-121.7" font-family="-apple-system, BlinkMacSystemFont, 'Segoe UI', Roboto, Oxygen, Ubuntu, Cantarell, 'Fira Sans', 'Droid Sans', 'Helvetica Neue', sans-serif" font-size="11.00">PokeMessage.hpp</text>
</a>
</g>
</g>
<!-- Node5&#45;&gt;Node30 -->
<g id="edge75" class="edge">
<title>Node5&#45;&gt;Node30</title>
<path fill="none" stroke="midnightblue" d="M1024.63,-240.33C985.61,-215.1 907.86,-164.81 869.52,-140.01"/>
<polygon fill="midnightblue" stroke="midnightblue" points="871.4,-137.06 861.1,-134.57 867.6,-142.94 871.4,-137.06"/>
</g>
<!-- Node32 -->
<g id="node28" class="node">
<title>Node32</title>
<g id="a_node28"><a xlink:href="XmlMessage_8hpp.html" target="_top" xlink:title=" ">
<polygon fill="none" stroke="black" points="32.08,-114.5 32.08,-134.5 132.08,-134.5 132.08,-114.5 32.08,-114.5"/>
<text text-anchor="middle" x="82.08" y="-121.7" font-family="-apple-system, BlinkMacSystemFont, 'Segoe UI', Roboto, Oxygen, Ubuntu, Cantarell, 'Fira Sans', 'Droid Sans', 'Helvetica Neue', sans-serif" font-size="11.00">XmlMessage.hpp</text>
</a>
</g>
</g>
<!-- Node5&#45;&gt;Node32 -->
<g id="edge79" class="edge">
<title>Node5&#45;&gt;Node32</title>
<path fill="none" stroke="midnightblue" d="M973.42,-255.64C821.41,-254.98 481.38,-248.41 375.08,-204 354.44,-195.38 357.26,-180.65 337.08,-171 328.3,-166.8 214.8,-147.48 142.21,-135.4"/>
<polygon fill="midnightblue" stroke="midnightblue" points="142.7,-131.93 132.26,-133.75 141.55,-138.84 142.7,-131.93"/>
</g>
<!-- Node13&#45;&gt;Node3 -->
<g id="edge16" class="edge">
<title>Node13&#45;&gt;Node3</title>
<path fill="none" stroke="midnightblue" d="M1749.15,-171.43C1772.13,-157.1 1798.53,-134.71 1783.08,-114 1769.77,-96.17 1612.94,-61.16 1591.08,-57 1409.8,-22.48 1187.68,-14.07 1106.09,-12.09"/>
<polygon fill="midnightblue" stroke="midnightblue" points="1106.04,-8.59 1095.97,-11.86 1105.89,-15.59 1106.04,-8.59"/>
</g>
<!-- Node13&#45;&gt;Node9 -->
<g id="edge15" class="edge">
<title>Node13&#45;&gt;Node9</title>
<path fill="none" stroke="midnightblue" d="M1726.52,-171.42C1729.49,-163.19 1733.19,-152.94 1736.34,-144.2"/>
<polygon fill="midnightblue" stroke="midnightblue" points="1739.72,-145.14 1739.82,-134.55 1733.13,-142.77 1739.72,-145.14"/>
</g>
<!-- Node14&#45;&gt;Node3 -->
<g id="edge18" class="edge">
<title>Node14&#45;&gt;Node3</title>
<path fill="none" stroke="midnightblue" d="M1134.11,-114.41C1143.45,-101.14 1157.61,-75.97 1147.08,-57 1138.08,-40.78 1120.63,-29.59 1105.04,-22.36"/>
<polygon fill="midnightblue" stroke="midnightblue" points="1106.24,-19.07 1095.67,-18.37 1103.5,-25.51 1106.24,-19.07"/>
</g>
<!-- Node14&#45;&gt;Node4 -->
<g id="edge19" class="edge">
<title>Node14&#45;&gt;Node4</title>
<path fill="none" stroke="midnightblue" d="M1122.96,-114.37C1115.77,-99.59 1099.43,-70.69 1076.08,-57 1036.83,-33.99 917.5,-21.73 837.77,-15.93"/>
<polygon fill="midnightblue" stroke="midnightblue" points="837.99,-12.44 827.77,-15.22 837.5,-19.42 837.99,-12.44"/>
</g>
<!-- Node14&#45;&gt;Node15 -->
<g id="edge20" class="edge">
<title>Node14&#45;&gt;Node15</title>
<path fill="none" stroke="midnightblue" d="M1108.42,-114.42C1090.35,-105.62 1062.71,-92.17 1042.01,-82.1"/>
<polygon fill="midnightblue" stroke="midnightblue" points="1043.29,-78.83 1032.77,-77.6 1040.23,-85.12 1043.29,-78.83"/>
</g>
<!-- Node15&#45;&gt;Node3 -->
<g id="edge22" class="edge">
<title>Node15&#45;&gt;Node3</title>
<path fill="none" stroke="midnightblue" d="M1023.99,-57.42C1032.8,-49.35 1045.88,-37.36 1056.46,-27.65"/>
<polygon fill="midnightblue" stroke="midnightblue" points="1058.95,-30.12 1063.96,-20.78 1054.22,-24.96 1058.95,-30.12"/>
</g>
<!-- Node15&#45;&gt;Node4 -->
<g id="edge23" class="edge">
<title>Node15&#45;&gt;Node4</title>
<path fill="none" stroke="midnightblue" d="M972.75,-57.48C929.17,-47.97 860.44,-32.97 813.42,-22.7"/>
<polygon fill="midnightblue" stroke="midnightblue" points="813.95,-19.24 803.43,-20.53 812.46,-26.08 813.95,-19.24"/>
</g>
<!-- Node15&#45;&gt;Node8 -->
<g id="edge21" class="edge">
<title>Node15&#45;&gt;Node8</title>
<path fill="none" stroke="midnightblue" d="M1067.31,-62.52C1208.48,-51.97 1589.97,-23.46 1712,-14.35"/>
<polygon fill="midnightblue" stroke="midnightblue" points="1712.28,-17.83 1721.99,-13.6 1711.76,-10.85 1712.28,-17.83"/>
</g>
<!-- Node17&#45;&gt;Node3 -->
<g id="edge25" class="edge">
<title>Node17&#45;&gt;Node3</title>
<path fill="none" stroke="midnightblue" d="M1370,-114.43C1311.29,-94.01 1168.91,-44.48 1105.47,-22.42"/>
<polygon fill="midnightblue" stroke="midnightblue" points="1106.24,-18.98 1095.64,-19 1103.94,-25.59 1106.24,-18.98"/>
</g>
<!-- Node17&#45;&gt;Node4 -->
<g id="edge26" class="edge">
<title>Node17&#45;&gt;Node4</title>
<path fill="none" stroke="midnightblue" d="M1367.28,-114.49C1320.78,-100.27 1226.09,-72.63 1144.08,-57 1038.75,-36.93 915.3,-24.14 837.88,-17.39"/>
<polygon fill="midnightblue" stroke="midnightblue" points="838,-13.89 827.73,-16.52 837.4,-20.86 838,-13.89"/>
</g>
<!-- Node17&#45;&gt;Node15 -->
<g id="edge27" class="edge">
<title>Node17&#45;&gt;Node15</title>
<path fill="none" stroke="midnightblue" d="M1343.85,-115.32C1340.88,-114.87 1337.94,-114.43 1335.08,-114 1245.64,-100.7 1142.04,-86.17 1077.27,-77.2"/>
<polygon fill="midnightblue" stroke="midnightblue" points="1077.61,-73.71 1067.22,-75.81 1076.65,-80.64 1077.61,-73.71"/>
</g>
<!-- Node18&#45;&gt;Node3 -->
<g id="edge29" class="edge">
<title>Node18&#45;&gt;Node3</title>
<path fill="none" stroke="midnightblue" d="M752.42,-114.46C787.18,-101.13 854.72,-75.77 913.08,-57 957.74,-42.64 1010.14,-28.29 1042.73,-19.65"/>
<polygon fill="midnightblue" stroke="midnightblue" points="1043.8,-22.99 1052.58,-17.05 1042.02,-16.22 1043.8,-22.99"/>
</g>
<!-- Node18&#45;&gt;Node4 -->
<g id="edge30" class="edge">
<title>Node18&#45;&gt;Node4</title>
<path fill="none" stroke="midnightblue" d="M731.78,-114.33C737.15,-96.12 749.25,-55.04 756.43,-30.67"/>
<polygon fill="midnightblue" stroke="midnightblue" points="759.87,-31.37 759.34,-20.79 753.16,-29.4 759.87,-31.37"/>
</g>
<!-- Node18&#45;&gt;Node15 -->
<g id="edge36" class="edge">
<title>Node18&#45;&gt;Node15</title>
<path fill="none" stroke="midnightblue" d="M775.19,-114.6C824.77,-105.03 903.66,-89.81 957.09,-79.5"/>
<polygon fill="midnightblue" stroke="midnightblue" points="957.94,-82.9 967.09,-77.57 956.61,-76.03 957.94,-82.9"/>
</g>
<!-- Node18&#45;&gt;Node19 -->
<g id="edge31" class="edge">
<title>Node18&#45;&gt;Node19</title>
<path fill="none" stroke="midnightblue" d="M713.39,-114.42C698.54,-105.82 676.01,-92.78 658.75,-82.78"/>
<polygon fill="midnightblue" stroke="midnightblue" points="660.2,-79.58 649.79,-77.6 656.69,-85.64 660.2,-79.58"/>
</g>
<!-- Node19&#45;&gt;Node3 -->
<g id="edge33" class="edge">
<title>Node19&#45;&gt;Node3</title>
<path fill="none" stroke="midnightblue" d="M706.25,-57.48C803.41,-45.33 972.18,-24.24 1042.21,-15.48"/>
<polygon fill="midnightblue" stroke="midnightblue" points="1042.7,-18.95 1052.19,-14.24 1041.84,-12 1042.7,-18.95"/>
</g>
<!-- Node19&#45;&gt;Node4 -->
<g id="edge35" class="edge">
<title>Node19&#45;&gt;Node4</title>
<path fill="none" stroke="midnightblue" d="M655.22,-57.42C676.06,-48.46 708.13,-34.68 731.71,-24.55"/>
<polygon fill="midnightblue" stroke="midnightblue" points="733.11,-27.76 740.91,-20.6 730.34,-21.33 733.11,-27.76"/>
</g>
<!-- Node19&#45;&gt;Node7 -->
<g id="edge32" class="edge">
<title>Node19&#45;&gt;Node7</title>
<path fill="none" stroke="midnightblue" d="M715.21,-61.03C891.29,-49.14 1302.02,-21.42 1418.06,-13.59"/>
<polygon fill="midnightblue" stroke="midnightblue" points="1418.3,-17.09 1428.05,-12.92 1417.83,-10.1 1418.3,-17.09"/>
</g>
<!-- Node19&#45;&gt;Node11 -->
<g id="edge34" class="edge">
<title>Node19&#45;&gt;Node11</title>
<path fill="none" stroke="midnightblue" d="M553.88,-57.48C443.87,-45.11 251.25,-23.44 176.23,-15"/>
<polygon fill="midnightblue" stroke="midnightblue" points="176.37,-11.5 166.04,-13.86 175.58,-18.45 176.37,-11.5"/>
</g>
<!-- Node21&#45;&gt;Node3 -->
<g id="edge38" class="edge">
<title>Node21&#45;&gt;Node3</title>
<path fill="none" stroke="midnightblue" d="M229.97,-114.47C271.87,-99.68 359.45,-70.61 436.08,-57 554.59,-35.96 929.88,-17.93 1042.09,-12.89"/>
<polygon fill="midnightblue" stroke="midnightblue" points="1042.57,-16.38 1052.41,-12.44 1042.26,-9.38 1042.57,-16.38"/>
</g>
<!-- Node21&#45;&gt;Node4 -->
<g id="edge39" class="edge">
<title>Node21&#45;&gt;Node4</title>
<path fill="none" stroke="midnightblue" d="M217.14,-114.27C237.37,-99.35 279.98,-70.24 321.08,-57 387.08,-35.74 578.65,-21.86 686.33,-15.51"/>
<polygon fill="midnightblue" stroke="midnightblue" points="686.7,-19 696.48,-14.92 686.29,-12.01 686.7,-19"/>
</g>
<!-- Node21&#45;&gt;Node11 -->
<g id="edge40" class="edge">
<title>Node21&#45;&gt;Node11</title>
<path fill="none" stroke="midnightblue" d="M200.17,-114.33C190.28,-95.88 167.81,-53.92 154.83,-29.69"/>
<polygon fill="midnightblue" stroke="midnightblue" points="157.87,-27.95 150.06,-20.79 151.7,-31.26 157.87,-27.95"/>
</g>
<!-- Node21&#45;&gt;Node15 -->
<g id="edge41" class="edge">
<title>Node21&#45;&gt;Node15</title>
<path fill="none" stroke="midnightblue" d="M259.68,-114.96C262.52,-114.62 265.33,-114.29 268.08,-114 520.29,-87.35 822.25,-74.87 950.96,-70.46"/>
<polygon fill="midnightblue" stroke="midnightblue" points="951.16,-73.95 961.03,-70.12 950.92,-66.96 951.16,-73.95"/>
</g>
<!-- Node23&#45;&gt;Node3 -->
<g id="edge43" class="edge">
<title>Node23&#45;&gt;Node3</title>
<path fill="none" stroke="midnightblue" d="M1020.16,-114.58C1041.18,-108.12 1063.5,-97.03 1076.08,-78 1085.32,-64.03 1083.45,-44.54 1080.09,-30.28"/>
<polygon fill="midnightblue" stroke="midnightblue" points="1083.44,-29.26 1077.39,-20.56 1076.7,-31.13 1083.44,-29.26"/>
</g>
<!-- Node23&#45;&gt;Node4 -->
<g id="edge44" class="edge">
<title>Node23&#45;&gt;Node4</title>
<path fill="none" stroke="midnightblue" d="M952.14,-114.33C915.97,-94.76 830.96,-48.77 787.96,-25.5"/>
<polygon fill="midnightblue" stroke="midnightblue" points="789.43,-22.32 778.97,-20.63 786.09,-28.47 789.43,-22.32"/>
</g>
<!-- Node23&#45;&gt;Node15 -->
<g id="edge45" class="edge">
<title>Node23&#45;&gt;Node15</title>
<path fill="none" stroke="midnightblue" d="M976.51,-114.42C982.86,-106.66 992.16,-95.29 999.92,-85.8"/>
<polygon fill="midnightblue" stroke="midnightblue" points="1002.87,-87.74 1006.49,-77.78 997.45,-83.3 1002.87,-87.74"/>
</g>
<!-- Node24&#45;&gt;Node3 -->
<g id="edge47" class="edge">
<title>Node24&#45;&gt;Node3</title>
<path fill="none" stroke="midnightblue" d="M1483.04,-114.43C1398.09,-93.05 1186.41,-39.77 1105.87,-19.5"/>
<polygon fill="midnightblue" stroke="midnightblue" points="1106.39,-16.02 1095.84,-16.98 1104.68,-22.81 1106.39,-16.02"/>
</g>
<!-- Node24&#45;&gt;Node4 -->
<g id="edge48" class="edge">
<title>Node24&#45;&gt;Node4</title>
<path fill="none" stroke="midnightblue" d="M1474.81,-114.5C1430.36,-105.42 1359.93,-90.95 1299.08,-78 1256.36,-68.91 1246.21,-63.92 1203.08,-57 1075.7,-36.56 926.07,-23.38 837.94,-16.72"/>
<polygon fill="midnightblue" stroke="midnightblue" points="837.99,-13.21 827.76,-15.96 837.47,-20.19 837.99,-13.21"/>
</g>
<!-- Node24&#45;&gt;Node15 -->
<g id="edge49" class="edge">
<title>Node24&#45;&gt;Node15</title>
<path fill="none" stroke="midnightblue" d="M1466.34,-115.24C1463.21,-114.8 1460.11,-114.39 1457.08,-114 1322.22,-96.75 1163.6,-81.73 1077.5,-74.02"/>
<polygon fill="midnightblue" stroke="midnightblue" points="1077.64,-70.51 1067.37,-73.11 1077.02,-77.49 1077.64,-70.51"/>
</g>
<!-- Node25&#45;&gt;Node3 -->
<g id="edge51" class="edge">
<title>Node25&#45;&gt;Node3</title>
<path fill="none" stroke="midnightblue" d="M531.2,-177.48C524.16,-153.51 509.13,-87.94 544.08,-57 562.84,-40.4 930.69,-19.24 1042.27,-13.19"/>
<polygon fill="midnightblue" stroke="midnightblue" points="1042.74,-16.67 1052.54,-12.63 1042.37,-9.68 1042.74,-16.67"/>
</g>
<!-- Node25&#45;&gt;Node4 -->
<g id="edge52" class="edge">
<title>Node25&#45;&gt;Node4</title>
<path fill="none" stroke="midnightblue" d="M516.45,-177.37C501.8,-168.68 481.96,-154.11 473.08,-135 454.31,-94.58 496.29,-77.06 536.08,-57 582.76,-33.46 640.64,-22.1 686.14,-16.61"/>
<polygon fill="midnightblue" stroke="midnightblue" points="686.7,-20.07 696.24,-15.47 685.91,-13.12 686.7,-20.07"/>
</g>
<!-- Node25&#45;&gt;Node19 -->
<g id="edge53" class="edge">
<title>Node25&#45;&gt;Node19</title>
<path fill="none" stroke="midnightblue" d="M532.79,-177.04C531.28,-162.16 530.5,-133.03 544.08,-114 554.96,-98.75 572.47,-88.3 589.17,-81.3"/>
<polygon fill="midnightblue" stroke="midnightblue" points="590.78,-84.43 598.85,-77.57 588.26,-77.9 590.78,-84.43"/>
</g>
<!-- Node25&#45;&gt;Node26 -->
<g id="edge54" class="edge">
<title>Node25&#45;&gt;Node26</title>
<path fill="none" stroke="midnightblue" d="M545.15,-177.5C556.89,-167.95 575.67,-152.67 589.84,-141.15"/>
<polygon fill="midnightblue" stroke="midnightblue" points="592.42,-143.56 597.97,-134.54 588,-138.13 592.42,-143.56"/>
</g>
<!-- Node26&#45;&gt;Node3 -->
<g id="edge55" class="edge">
<title>Node26&#45;&gt;Node3</title>
<path fill="none" stroke="midnightblue" d="M639.08,-114.4C684.19,-100.88 772.27,-75.15 848.08,-57 916.94,-40.51 998.56,-25.08 1042.42,-17.12"/>
<polygon fill="midnightblue" stroke="midnightblue" points="1043.25,-20.53 1052.47,-15.31 1042,-13.64 1043.25,-20.53"/>
</g>
<!-- Node26&#45;&gt;Node4 -->
<g id="edge56" class="edge">
<title>Node26&#45;&gt;Node4</title>
<path fill="none" stroke="midnightblue" d="M588.33,-114.32C563.18,-101.95 526.26,-78.92 544.08,-57 561.93,-35.04 630.65,-23.32 686.23,-17.3"/>
<polygon fill="midnightblue" stroke="midnightblue" points="686.85,-20.76 696.43,-16.25 686.13,-13.8 686.85,-20.76"/>
</g>
<!-- Node26&#45;&gt;Node11 -->
<g id="edge58" class="edge">
<title>Node26&#45;&gt;Node11</title>
<path fill="none" stroke="midnightblue" d="M571.5,-114.43C482.01,-92.83 257.62,-38.67 175.67,-18.88"/>
<polygon fill="midnightblue" stroke="midnightblue" points="176.27,-15.43 165.73,-16.48 174.63,-22.23 176.27,-15.43"/>
</g>
<!-- Node26&#45;&gt;Node15 -->
<g id="edge59" class="edge">
<title>Node26&#45;&gt;Node15</title>
<path fill="none" stroke="midnightblue" d="M664.74,-115.32C667.9,-114.87 671.03,-114.43 674.08,-114 770.57,-100.49 882.59,-85.67 950.89,-76.72"/>
<polygon fill="midnightblue" stroke="midnightblue" points="951.59,-80.16 961.05,-75.39 950.68,-73.22 951.59,-80.16"/>
</g>
<!-- Node26&#45;&gt;Node19 -->
<g id="edge57" class="edge">
<title>Node26&#45;&gt;Node19</title>
<path fill="none" stroke="midnightblue" d="M613.21,-114.42C616.59,-106.98 621.49,-96.21 625.68,-86.97"/>
<polygon fill="midnightblue" stroke="midnightblue" points="628.91,-88.33 629.86,-77.78 622.54,-85.43 628.91,-88.33"/>
</g>
<!-- Node27&#45;&gt;Node3 -->
<g id="edge62" class="edge">
<title>Node27&#45;&gt;Node3</title>
<path fill="none" stroke="midnightblue" d="M1634.12,-114.19C1620.63,-99.15 1591.65,-69.88 1560.08,-57 1477.16,-23.17 1199.89,-14.19 1105.7,-12.08"/>
<polygon fill="midnightblue" stroke="midnightblue" points="1105.72,-8.58 1095.65,-11.87 1105.57,-15.58 1105.72,-8.58"/>
</g>
<!-- Node27&#45;&gt;Node4 -->
<g id="edge63" class="edge">
<title>Node27&#45;&gt;Node4</title>
<path fill="none" stroke="midnightblue" d="M1597.87,-114.45C1527.64,-100.36 1386.14,-73.12 1265.08,-57 1114.19,-36.9 936.63,-23.14 837.96,-16.36"/>
<polygon fill="midnightblue" stroke="midnightblue" points="838.01,-12.86 827.79,-15.67 837.53,-19.84 838.01,-12.86"/>
</g>
<!-- Node27&#45;&gt;Node15 -->
<g id="edge64" class="edge">
<title>Node27&#45;&gt;Node15</title>
<path fill="none" stroke="midnightblue" d="M1589.87,-115.11C1586.9,-114.71 1583.96,-114.34 1581.08,-114 1398.85,-92.53 1182.44,-78.26 1077.48,-72.04"/>
<polygon fill="midnightblue" stroke="midnightblue" points="1077.56,-68.54 1067.37,-71.45 1077.15,-75.53 1077.56,-68.54"/>
</g>
<!-- Node28&#45;&gt;Node3 -->
<g id="edge67" class="edge">
<title>Node28&#45;&gt;Node3</title>
<path fill="none" stroke="midnightblue" d="M1248.57,-114.42C1230.07,-101.15 1194.16,-75.98 1162.08,-57 1142.6,-45.47 1119.89,-33.77 1102.42,-25.12"/>
<polygon fill="midnightblue" stroke="midnightblue" points="1103.82,-21.91 1093.3,-20.65 1100.74,-28.2 1103.82,-21.91"/>
</g>
<!-- Node28&#45;&gt;Node4 -->
<g id="edge68" class="edge">
<title>Node28&#45;&gt;Node4</title>
<path fill="none" stroke="midnightblue" d="M1243.38,-114.34C1214.44,-99.77 1154.81,-71.5 1101.08,-57 1012.42,-33.07 907.17,-21.45 837.73,-15.99"/>
<polygon fill="midnightblue" stroke="midnightblue" points="837.99,-12.5 827.75,-15.23 837.45,-19.48 837.99,-12.5"/>
</g>
<!-- Node28&#45;&gt;Node15 -->
<g id="edge69" class="edge">
<title>Node28&#45;&gt;Node15</title>
<path fill="none" stroke="midnightblue" d="M1220.57,-114.48C1177.86,-104.97 1110.49,-89.97 1064.4,-79.7"/>
<polygon fill="midnightblue" stroke="midnightblue" points="1065.14,-76.28 1054.61,-77.53 1063.61,-83.12 1065.14,-76.28"/>
</g>
<!-- Node29&#45;&gt;Node3 -->
<g id="edge71" class="edge">
<title>Node29&#45;&gt;Node3</title>
<path fill="none" stroke="midnightblue" d="M349.38,-114.42C381.91,-99.57 450.1,-70.4 511.08,-57 613.76,-34.43 939.38,-17.75 1042.46,-12.93"/>
<polygon fill="midnightblue" stroke="midnightblue" points="1042.73,-16.42 1052.55,-12.46 1042.4,-9.42 1042.73,-16.42"/>
</g>
<!-- Node29&#45;&gt;Node4 -->
<g id="edge72" class="edge">
<title>Node29&#45;&gt;Node4</title>
<path fill="none" stroke="midnightblue" d="M336.22,-114.29C346.72,-99.4 369.67,-70.34 397.08,-57 446.55,-32.93 594.76,-20.65 686.39,-15.19"/>
<polygon fill="midnightblue" stroke="midnightblue" points="686.67,-18.68 696.45,-14.61 686.26,-11.69 686.67,-18.68"/>
</g>
<!-- Node29&#45;&gt;Node11 -->
<g id="edge73" class="edge">
<title>Node29&#45;&gt;Node11</title>
<path fill="none" stroke="midnightblue" d="M314.94,-114.33C282.88,-94.93 207.91,-49.54 169.19,-26.09"/>
<polygon fill="midnightblue" stroke="midnightblue" points="170.54,-22.82 160.17,-20.63 166.91,-28.81 170.54,-22.82"/>
</g>
<!-- Node29&#45;&gt;Node15 -->
<g id="edge74" class="edge">
<title>Node29&#45;&gt;Node15</title>
<path fill="none" stroke="midnightblue" d="M382.62,-119.28C506.55,-109.31 816.78,-84.37 950.79,-73.59"/>
<polygon fill="midnightblue" stroke="midnightblue" points="951.21,-77.07 960.9,-72.78 950.65,-70.09 951.21,-77.07"/>
</g>
<!-- Node30&#45;&gt;Node3 -->
<g id="edge76" class="edge">
<title>Node30&#45;&gt;Node3</title>
<path fill="none" stroke="midnightblue" d="M859.51,-114.42C878.68,-100.71 916.91,-74.46 952.08,-57 981.8,-42.25 1017.55,-29.45 1042.64,-21.22"/>
<polygon fill="midnightblue" stroke="midnightblue" points="1043.92,-24.49 1052.36,-18.09 1041.77,-17.83 1043.92,-24.49"/>
</g>
<!-- Node30&#45;&gt;Node4 -->
<g id="edge77" class="edge">
<title>Node30&#45;&gt;Node4</title>
<path fill="none" stroke="midnightblue" d="M840.13,-114.33C825.99,-95.71 793.71,-53.17 775.4,-29.05"/>
<polygon fill="midnightblue" stroke="midnightblue" points="777.97,-26.64 769.13,-20.79 772.39,-30.87 777.97,-26.64"/>
</g>
<!-- Node30&#45;&gt;Node15 -->
<g id="edge78" class="edge">
<title>Node30&#45;&gt;Node15</title>
<path fill="none" stroke="midnightblue" d="M874.66,-114.42C902.66,-105.19 946.2,-90.86 977.16,-80.66"/>
<polygon fill="midnightblue" stroke="midnightblue" points="978.34,-83.96 986.74,-77.5 976.15,-77.31 978.34,-83.96"/>
</g>
<!-- Node32&#45;&gt;Node3 -->
<g id="edge80" class="edge">
<title>Node32&#45;&gt;Node3</title>
<path fill="none" stroke="midnightblue" d="M110.3,-114.45C157.78,-99.64 256.93,-70.53 343.08,-57 481.02,-35.33 920.29,-17.35 1042.35,-12.68"/>
<polygon fill="midnightblue" stroke="midnightblue" points="1042.66,-16.17 1052.52,-12.3 1042.39,-9.18 1042.66,-16.17"/>
</g>
<!-- Node32&#45;&gt;Node4 -->
<g id="edge81" class="edge">
<title>Node32&#45;&gt;Node4</title>
<path fill="none" stroke="midnightblue" d="M90.63,-114.13C105.09,-99 136.05,-69.61 169.08,-57 261.6,-21.69 548.42,-13.75 686.41,-11.99"/>
<polygon fill="midnightblue" stroke="midnightblue" points="686.53,-15.49 696.49,-11.87 686.44,-8.49 686.53,-15.49"/>
</g>
<!-- Node32&#45;&gt;Node11 -->
<g id="edge82" class="edge">
<title>Node32&#45;&gt;Node11</title>
<path fill="none" stroke="midnightblue" d="M87.24,-114.33C97.62,-95.88 121.22,-53.92 134.85,-29.69"/>
<polygon fill="midnightblue" stroke="midnightblue" points="138,-31.22 139.85,-20.79 131.9,-27.79 138,-31.22"/>
</g>
<!-- Node32&#45;&gt;Node15 -->
<g id="edge83" class="edge">
<title>Node32&#45;&gt;Node15</title>
<path fill="none" stroke="midnightblue" d="M132.24,-115.05C135.23,-114.66 138.19,-114.31 141.08,-114 298.22,-97.3 777.39,-77.66 950.69,-70.92"/>
<polygon fill="midnightblue" stroke="midnightblue" points="951.06,-74.4 960.92,-70.52 950.79,-67.41 951.06,-74.4"/>
</g>
<!-- Node33&#45;&gt;Node3 -->
<g id="edge87" class="edge">
<title>Node33&#45;&gt;Node3</title>
<path fill="none" stroke="midnightblue" d="M1705.36,-58.88C1700.55,-58.19 1695.72,-57.54 1691.08,-57 1467.86,-30.85 1197.34,-17.05 1105.97,-12.88"/>
<polygon fill="midnightblue" stroke="midnightblue" points="1105.88,-9.37 1095.73,-12.42 1105.56,-16.37 1105.88,-9.37"/>
</g>
<!-- Node33&#45;&gt;Node4 -->
<g id="edge88" class="edge">
<title>Node33&#45;&gt;Node4</title>
<path fill="none" stroke="midnightblue" d="M1705.39,-64.01C1550.22,-55.37 1033.67,-26.62 838.05,-15.73"/>
<polygon fill="midnightblue" stroke="midnightblue" points="838.04,-12.22 827.86,-15.16 837.65,-19.21 838.04,-12.22"/>
</g>
<!-- Node33&#45;&gt;Node8 -->
<g id="edge86" class="edge">
<title>Node33&#45;&gt;Node8</title>
<path fill="none" stroke="midnightblue" d="M1750.08,-57.42C1750.08,-50.22 1750.08,-39.9 1750.08,-30.86"/>
<polygon fill="midnightblue" stroke="midnightblue" points="1753.58,-30.78 1750.08,-20.78 1746.58,-30.78 1753.58,-30.78"/>
</g>
</g>
</svg>
