<?xml version="1.0" encoding="UTF-8" standalone="no"?>
<!DOCTYPE svg PUBLIC "-//W3C//DTD SVG 1.1//EN"
 "http://www.w3.org/Graphics/SVG/1.1/DTD/svg11.dtd">
<!-- Generated by graphviz version 3.0.0 (20220413.0242)
 -->
<!-- Title: libmirai/public/libmirai/Events/CommandExecutedEvent.hpp Pages: 1 -->
<svg width="2087pt" height="350pt"
 viewBox="0.00 0.00 2086.80 350.00" xmlns="http://www.w3.org/2000/svg" xmlns:xlink="http://www.w3.org/1999/xlink">
<g id="graph0" class="graph" transform="scale(1 1) rotate(0) translate(4 346)">
<title>libmirai/public/libmirai/Events/CommandExecutedEvent.hpp</title>
<!-- Node1 -->
<g id="node1" class="node">
<title>Node1</title>
<g id="a_node1"><a xlink:title=" ">
<polygon fill="#bfbfbf" stroke="black" points="466.5,-309.5 466.5,-341.5 663.5,-341.5 663.5,-309.5 466.5,-309.5"/>
<text text-anchor="start" x="474.5" y="-328.7" font-family="-apple-system, BlinkMacSystemFont, 'Segoe UI', Roboto, Oxygen, Ubuntu, Cantarell, 'Fira Sans', 'Droid Sans', 'Helvetica Neue', sans-serif" font-size="11.00">libmirai/public/libmirai</text>
<text text-anchor="middle" x="565" y="-316.7" font-family="-apple-system, BlinkMacSystemFont, 'Segoe UI', Roboto, Oxygen, Ubuntu, Cantarell, 'Fira Sans', 'Droid Sans', 'Helvetica Neue', sans-serif" font-size="11.00">/Events/CommandExecutedEvent.hpp</text>
</a>
</g>
</g>
<!-- Node2 -->
<g id="node2" class="node">
<title>Node2</title>
<g id="a_node2"><a xlink:title=" ">
<polygon fill="none" stroke="#bfbfbf" points="66,-177.5 66,-197.5 120,-197.5 120,-177.5 66,-177.5"/>
<text text-anchor="middle" x="93" y="-184.7" font-family="-apple-system, BlinkMacSystemFont, 'Segoe UI', Roboto, Oxygen, Ubuntu, Cantarell, 'Fira Sans', 'Droid Sans', 'Helvetica Neue', sans-serif" font-size="11.00">optional</text>
</a>
</g>
</g>
<!-- Node1&#45;&gt;Node2 -->
<g id="edge1" class="edge">
<title>Node1&#45;&gt;Node2</title>
<path fill="none" stroke="midnightblue" d="M504.88,-309.5C421.12,-288.18 264.85,-246.93 134,-204 131.22,-203.09 128.35,-202.1 125.48,-201.08"/>
<polygon fill="midnightblue" stroke="midnightblue" points="126.45,-197.71 115.86,-197.55 124.04,-204.28 126.45,-197.71"/>
</g>
<!-- Node3 -->
<g id="node3" class="node">
<title>Node3</title>
<g id="a_node3"><a xlink:title=" ">
<polygon fill="none" stroke="#bfbfbf" points="788.5,-0.5 788.5,-20.5 831.5,-20.5 831.5,-0.5 788.5,-0.5"/>
<text text-anchor="middle" x="810" y="-7.7" font-family="-apple-system, BlinkMacSystemFont, 'Segoe UI', Roboto, Oxygen, Ubuntu, Cantarell, 'Fira Sans', 'Droid Sans', 'Helvetica Neue', sans-serif" font-size="11.00">string</text>
</a>
</g>
</g>
<!-- Node1&#45;&gt;Node3 -->
<g id="edge2" class="edge">
<title>Node1&#45;&gt;Node3</title>
<path fill="none" stroke="midnightblue" d="M466.29,-320.06C350.55,-313.72 166.44,-299.75 103,-273 48.44,-249.99 0,-247.71 0,-188.5 0,-188.5 0,-188.5 0,-123.5 0,-43.52 627.71,-17.56 777.97,-12.49"/>
<polygon fill="midnightblue" stroke="midnightblue" points="778.46,-15.98 788.33,-12.15 778.22,-8.98 778.46,-15.98"/>
</g>
<!-- Node4 -->
<g id="node4" class="node">
<title>Node4</title>
<g id="a_node4"><a xlink:title=" ">
<polygon fill="none" stroke="#bfbfbf" points="1069.5,-0.5 1069.5,-20.5 1200.5,-20.5 1200.5,-0.5 1069.5,-0.5"/>
<text text-anchor="middle" x="1135" y="-7.7" font-family="-apple-system, BlinkMacSystemFont, 'Segoe UI', Roboto, Oxygen, Ubuntu, Cantarell, 'Fira Sans', 'Droid Sans', 'Helvetica Neue', sans-serif" font-size="11.00">nlohmann/json_fwd.hpp</text>
</a>
</g>
</g>
<!-- Node1&#45;&gt;Node4 -->
<g id="edge3" class="edge">
<title>Node1&#45;&gt;Node4</title>
<path fill="none" stroke="midnightblue" d="M663.7,-325.15C980.18,-325.93 1949,-317.78 1949,-188.5 1949,-188.5 1949,-188.5 1949,-123.5 1949,-71.96 1902.64,-74.04 1854,-57 1737.12,-16.06 1370.84,-11.23 1210.94,-11.14"/>
<polygon fill="midnightblue" stroke="midnightblue" points="1210.71,-7.64 1200.71,-11.14 1210.71,-14.64 1210.71,-7.64"/>
</g>
<!-- Node5 -->
<g id="node5" class="node">
<title>Node5</title>
<g id="a_node5"><a xlink:href="MessageChain_8hpp.html" target="_top" xlink:title=" ">
<polygon fill="none" stroke="black" points="962.5,-240.5 962.5,-272.5 1111.5,-272.5 1111.5,-240.5 962.5,-240.5"/>
<text text-anchor="start" x="970.5" y="-259.7" font-family="-apple-system, BlinkMacSystemFont, 'Segoe UI', Roboto, Oxygen, Ubuntu, Cantarell, 'Fira Sans', 'Droid Sans', 'Helvetica Neue', sans-serif" font-size="11.00">libmirai/Messages/Message</text>
<text text-anchor="middle" x="1037" y="-247.7" font-family="-apple-system, BlinkMacSystemFont, 'Segoe UI', Roboto, Oxygen, Ubuntu, Cantarell, 'Fira Sans', 'Droid Sans', 'Helvetica Neue', sans-serif" font-size="11.00">Chain.hpp</text>
</a>
</g>
</g>
<!-- Node1&#45;&gt;Node5 -->
<g id="edge4" class="edge">
<title>Node1&#45;&gt;Node5</title>
<path fill="none" stroke="midnightblue" d="M663.66,-310.5C749.05,-298.37 871.24,-281.03 952.29,-269.52"/>
<polygon fill="midnightblue" stroke="midnightblue" points="953.05,-272.95 962.45,-268.08 952.06,-266.02 953.05,-272.95"/>
</g>
<!-- Node19 -->
<g id="node18" class="node">
<title>Node19</title>
<g id="a_node18"><a xlink:href="BasicTypes_8hpp.html" target="_top" xlink:title=" ">
<polygon fill="none" stroke="red" points="256,-57.5 256,-77.5 418,-77.5 418,-57.5 256,-57.5"/>
<text text-anchor="middle" x="337" y="-64.7" font-family="-apple-system, BlinkMacSystemFont, 'Segoe UI', Roboto, Oxygen, Ubuntu, Cantarell, 'Fira Sans', 'Droid Sans', 'Helvetica Neue', sans-serif" font-size="11.00">libmirai/Types/BasicTypes.hpp</text>
</a>
</g>
</g>
<!-- Node1&#45;&gt;Node19 -->
<g id="edge85" class="edge">
<title>Node1&#45;&gt;Node19</title>
<path fill="none" stroke="midnightblue" d="M466.3,-316.26C332.12,-302.67 103.48,-270.21 57,-204 4.22,-128.82 145.18,-93.73 245.73,-78.64"/>
<polygon fill="midnightblue" stroke="midnightblue" points="246.24,-82.1 255.63,-77.2 245.23,-75.17 246.24,-82.1"/>
</g>
<!-- Node33 -->
<g id="node29" class="node">
<title>Node33</title>
<g id="a_node29"><a xlink:href="EventBase_8hpp.html" target="_top" xlink:title=" ">
<polygon fill="none" stroke="black" points="1977.5,-57.5 1977.5,-77.5 2066.5,-77.5 2066.5,-57.5 1977.5,-57.5"/>
<text text-anchor="middle" x="2022" y="-64.7" font-family="-apple-system, BlinkMacSystemFont, 'Segoe UI', Roboto, Oxygen, Ubuntu, Cantarell, 'Fira Sans', 'Droid Sans', 'Helvetica Neue', sans-serif" font-size="11.00">EventBase.hpp</text>
</a>
</g>
</g>
<!-- Node1&#45;&gt;Node33 -->
<g id="edge86" class="edge">
<title>Node1&#45;&gt;Node33</title>
<path fill="none" stroke="midnightblue" d="M663.58,-324.01C973.69,-322.07 1911.93,-312.91 1963,-273 2020.75,-227.87 2024.43,-129.91 2023.16,-88.07"/>
<polygon fill="midnightblue" stroke="midnightblue" points="2026.64,-87.69 2022.71,-77.85 2019.65,-88 2026.64,-87.69"/>
</g>
<!-- Node5&#45;&gt;Node2 -->
<g id="edge8" class="edge">
<title>Node5&#45;&gt;Node2</title>
<path fill="none" stroke="midnightblue" d="M962.17,-254.16C775.19,-250.33 291.35,-237.41 134,-204 130.36,-203.23 126.62,-202.19 122.94,-201"/>
<polygon fill="midnightblue" stroke="midnightblue" points="124.08,-197.69 113.49,-197.64 121.74,-204.29 124.08,-197.69"/>
</g>
<!-- Node5&#45;&gt;Node4 -->
<g id="edge13" class="edge">
<title>Node5&#45;&gt;Node4</title>
<path fill="none" stroke="midnightblue" d="M1111.92,-252.08C1220.52,-246.35 1427.76,-232.52 1602,-204 1634.69,-198.65 1871.47,-160.99 1892,-135 1978.25,-25.82 1419.27,-12.59 1210.98,-11.42"/>
<polygon fill="midnightblue" stroke="midnightblue" points="1210.76,-7.92 1200.74,-11.37 1210.72,-14.92 1210.76,-7.92"/>
</g>
<!-- Node6 -->
<g id="node6" class="node">
<title>Node6</title>
<g id="a_node6"><a xlink:title=" ">
<polygon fill="none" stroke="#bfbfbf" points="1303.5,-177.5 1303.5,-197.5 1354.5,-197.5 1354.5,-177.5 1303.5,-177.5"/>
<text text-anchor="middle" x="1329" y="-184.7" font-family="-apple-system, BlinkMacSystemFont, 'Segoe UI', Roboto, Oxygen, Ubuntu, Cantarell, 'Fira Sans', 'Droid Sans', 'Helvetica Neue', sans-serif" font-size="11.00">cstddef</text>
</a>
</g>
</g>
<!-- Node5&#45;&gt;Node6 -->
<g id="edge5" class="edge">
<title>Node5&#45;&gt;Node6</title>
<path fill="none" stroke="midnightblue" d="M1111.68,-243.64C1162.26,-234.77 1230.3,-221.24 1289,-204 1291.98,-203.13 1295.04,-202.13 1298.09,-201.06"/>
<polygon fill="midnightblue" stroke="midnightblue" points="1299.47,-204.29 1307.64,-197.54 1297.05,-197.72 1299.47,-204.29"/>
</g>
<!-- Node7 -->
<g id="node7" class="node">
<title>Node7</title>
<g id="a_node7"><a xlink:title=" ">
<polygon fill="none" stroke="#bfbfbf" points="216,-0.5 216,-20.5 258,-20.5 258,-0.5 216,-0.5"/>
<text text-anchor="middle" x="237" y="-7.7" font-family="-apple-system, BlinkMacSystemFont, 'Segoe UI', Roboto, Oxygen, Ubuntu, Cantarell, 'Fira Sans', 'Droid Sans', 'Helvetica Neue', sans-serif" font-size="11.00">ctime</text>
</a>
</g>
</g>
<!-- Node5&#45;&gt;Node7 -->
<g id="edge6" class="edge">
<title>Node5&#45;&gt;Node7</title>
<path fill="none" stroke="midnightblue" d="M962.23,-254.71C770.03,-252.15 269.29,-241.88 205,-204 166.64,-181.4 150.32,-157.22 161,-114 167.87,-86.21 173.96,-80 191,-57 198.88,-46.36 209.26,-35.87 218.17,-27.65"/>
<polygon fill="midnightblue" stroke="midnightblue" points="220.7,-30.07 225.82,-20.79 216.03,-24.86 220.7,-30.07"/>
</g>
<!-- Node8 -->
<g id="node8" class="node">
<title>Node8</title>
<g id="a_node8"><a xlink:title=" ">
<polygon fill="none" stroke="#bfbfbf" points="1994,-0.5 1994,-20.5 2050,-20.5 2050,-0.5 1994,-0.5"/>
<text text-anchor="middle" x="2022" y="-7.7" font-family="-apple-system, BlinkMacSystemFont, 'Segoe UI', Roboto, Oxygen, Ubuntu, Cantarell, 'Fira Sans', 'Droid Sans', 'Helvetica Neue', sans-serif" font-size="11.00">memory</text>
</a>
</g>
</g>
<!-- Node5&#45;&gt;Node8 -->
<g id="edge7" class="edge">
<title>Node5&#45;&gt;Node8</title>
<path fill="none" stroke="midnightblue" d="M1111.52,-253.94C1312.41,-249.37 1855.15,-234.31 1930,-204 2009.44,-171.83 2040.32,-155.93 2076,-78 2085.21,-57.9 2065.51,-38.71 2047.37,-26.16"/>
<polygon fill="midnightblue" stroke="midnightblue" points="2049.02,-23.06 2038.73,-20.56 2045.21,-28.94 2049.02,-23.06"/>
</g>
<!-- Node9 -->
<g id="node9" class="node">
<title>Node9</title>
<g id="a_node9"><a xlink:title=" ">
<polygon fill="none" stroke="#bfbfbf" points="180,-114.5 180,-134.5 242,-134.5 242,-114.5 180,-114.5"/>
<text text-anchor="middle" x="211" y="-121.7" font-family="-apple-system, BlinkMacSystemFont, 'Segoe UI', Roboto, Oxygen, Ubuntu, Cantarell, 'Fira Sans', 'Droid Sans', 'Helvetica Neue', sans-serif" font-size="11.00">stdexcept</text>
</a>
</g>
</g>
<!-- Node5&#45;&gt;Node9 -->
<g id="edge9" class="edge">
<title>Node5&#45;&gt;Node9</title>
<path fill="none" stroke="midnightblue" d="M962.43,-255.5C811.04,-254.57 473.04,-247.52 367,-204 345.99,-195.38 347.51,-182.61 328,-171 304.07,-156.77 274.89,-145.41 251.65,-137.6"/>
<polygon fill="midnightblue" stroke="midnightblue" points="252.69,-134.26 242.09,-134.47 250.51,-140.91 252.69,-134.26"/>
</g>
<!-- Node10 -->
<g id="node10" class="node">
<title>Node10</title>
<g id="a_node10"><a xlink:title=" ">
<polygon fill="none" stroke="#bfbfbf" points="1791,-177.5 1791,-197.5 1857,-197.5 1857,-177.5 1791,-177.5"/>
<text text-anchor="middle" x="1824" y="-184.7" font-family="-apple-system, BlinkMacSystemFont, 'Segoe UI', Roboto, Oxygen, Ubuntu, Cantarell, 'Fira Sans', 'Droid Sans', 'Helvetica Neue', sans-serif" font-size="11.00">type_traits</text>
</a>
</g>
</g>
<!-- Node5&#45;&gt;Node10 -->
<g id="edge10" class="edge">
<title>Node5&#45;&gt;Node10</title>
<path fill="none" stroke="midnightblue" d="M1111.59,-256.4C1245.96,-256.69 1537.06,-251.15 1777,-204 1781.48,-203.12 1786.13,-201.93 1790.69,-200.61"/>
<polygon fill="midnightblue" stroke="midnightblue" points="1791.91,-203.9 1800.4,-197.56 1789.81,-197.22 1791.91,-203.9"/>
</g>
<!-- Node11 -->
<g id="node11" class="node">
<title>Node11</title>
<g id="a_node11"><a xlink:title=" ">
<polygon fill="none" stroke="#bfbfbf" points="55.5,-0.5 55.5,-20.5 96.5,-20.5 96.5,-0.5 55.5,-0.5"/>
<text text-anchor="middle" x="76" y="-7.7" font-family="-apple-system, BlinkMacSystemFont, 'Segoe UI', Roboto, Oxygen, Ubuntu, Cantarell, 'Fira Sans', 'Droid Sans', 'Helvetica Neue', sans-serif" font-size="11.00">utility</text>
</a>
</g>
</g>
<!-- Node5&#45;&gt;Node11 -->
<g id="edge11" class="edge">
<title>Node5&#45;&gt;Node11</title>
<path fill="none" stroke="midnightblue" d="M962.3,-254.01C764.31,-249.64 236.27,-235.19 164,-204 144.37,-195.53 145.04,-185.13 129,-171 80.2,-128 43.77,-136.82 16,-78 6.11,-57.05 28.04,-37.97 48.12,-25.67"/>
<polygon fill="midnightblue" stroke="midnightblue" points="49.87,-28.7 56.79,-20.67 46.38,-22.63 49.87,-28.7"/>
</g>
<!-- Node12 -->
<g id="node12" class="node">
<title>Node12</title>
<g id="a_node12"><a xlink:title=" ">
<polygon fill="none" stroke="#bfbfbf" points="1875,-177.5 1875,-197.5 1921,-197.5 1921,-177.5 1875,-177.5"/>
<text text-anchor="middle" x="1898" y="-184.7" font-family="-apple-system, BlinkMacSystemFont, 'Segoe UI', Roboto, Oxygen, Ubuntu, Cantarell, 'Fira Sans', 'Droid Sans', 'Helvetica Neue', sans-serif" font-size="11.00">vector</text>
</a>
</g>
</g>
<!-- Node5&#45;&gt;Node12 -->
<g id="edge12" class="edge">
<title>Node5&#45;&gt;Node12</title>
<path fill="none" stroke="midnightblue" d="M1111.66,-254.55C1287.72,-251.72 1724.69,-241.07 1866,-204 1868.32,-203.39 1870.67,-202.61 1872.99,-201.73"/>
<polygon fill="midnightblue" stroke="midnightblue" points="1874.46,-204.9 1882.19,-197.66 1871.63,-198.5 1874.46,-204.9"/>
</g>
<!-- Node13 -->
<g id="node13" class="node">
<title>Node13</title>
<g id="a_node13"><a xlink:href="Exceptions_8hpp.html" target="_top" xlink:title=" ">
<polygon fill="none" stroke="black" points="214.5,-171.5 214.5,-203.5 319.5,-203.5 319.5,-171.5 214.5,-171.5"/>
<text text-anchor="start" x="222.5" y="-190.7" font-family="-apple-system, BlinkMacSystemFont, 'Segoe UI', Roboto, Oxygen, Ubuntu, Cantarell, 'Fira Sans', 'Droid Sans', 'Helvetica Neue', sans-serif" font-size="11.00">libmirai/Exceptions</text>
<text text-anchor="middle" x="267" y="-178.7" font-family="-apple-system, BlinkMacSystemFont, 'Segoe UI', Roboto, Oxygen, Ubuntu, Cantarell, 'Fira Sans', 'Droid Sans', 'Helvetica Neue', sans-serif" font-size="11.00">/Exceptions.hpp</text>
</a>
</g>
</g>
<!-- Node5&#45;&gt;Node13 -->
<g id="edge14" class="edge">
<title>Node5&#45;&gt;Node13</title>
<path fill="none" stroke="midnightblue" d="M962.44,-253.81C833.62,-250.05 561.32,-238.41 334,-204 332.52,-203.78 331.03,-203.54 329.53,-203.29"/>
<polygon fill="midnightblue" stroke="midnightblue" points="329.99,-199.81 319.52,-201.46 328.73,-206.7 329.99,-199.81"/>
</g>
<!-- Node14 -->
<g id="node14" class="node">
<title>Node14</title>
<g id="a_node14"><a xlink:href="AppMessage_8hpp.html" target="_top" xlink:title=" ">
<polygon fill="none" stroke="black" points="588.5,-114.5 588.5,-134.5 689.5,-134.5 689.5,-114.5 588.5,-114.5"/>
<text text-anchor="middle" x="639" y="-121.7" font-family="-apple-system, BlinkMacSystemFont, 'Segoe UI', Roboto, Oxygen, Ubuntu, Cantarell, 'Fira Sans', 'Droid Sans', 'Helvetica Neue', sans-serif" font-size="11.00">AppMessage.hpp</text>
</a>
</g>
</g>
<!-- Node5&#45;&gt;Node14 -->
<g id="edge17" class="edge">
<title>Node5&#45;&gt;Node14</title>
<path fill="none" stroke="midnightblue" d="M986.83,-240.43C953.6,-230.36 909.11,-216.67 870,-204 800.51,-181.48 719.81,-153.68 674.54,-137.93"/>
<polygon fill="midnightblue" stroke="midnightblue" points="675.5,-134.56 664.9,-134.57 673.19,-141.17 675.5,-134.56"/>
</g>
<!-- Node15 -->
<g id="node15" class="node">
<title>Node15</title>
<g id="a_node15"><a xlink:href="MessageBase_8hpp.html" target="_top" xlink:title=" ">
<polygon fill="none" stroke="red" points="1123,-57.5 1123,-77.5 1229,-77.5 1229,-57.5 1123,-57.5"/>
<text text-anchor="middle" x="1176" y="-64.7" font-family="-apple-system, BlinkMacSystemFont, 'Segoe UI', Roboto, Oxygen, Ubuntu, Cantarell, 'Fira Sans', 'Droid Sans', 'Helvetica Neue', sans-serif" font-size="11.00">MessageBase.hpp</text>
</a>
</g>
</g>
<!-- Node5&#45;&gt;Node15 -->
<g id="edge66" class="edge">
<title>Node5&#45;&gt;Node15</title>
<path fill="none" stroke="midnightblue" d="M1080.61,-240.5C1124.31,-222.84 1189.13,-188.91 1218,-135 1227.63,-117.02 1211.73,-97.39 1196.81,-84.15"/>
<polygon fill="midnightblue" stroke="midnightblue" points="1198.72,-81.19 1188.79,-77.5 1194.26,-86.58 1198.72,-81.19"/>
</g>
<!-- Node17 -->
<g id="node16" class="node">
<title>Node17</title>
<g id="a_node16"><a xlink:href="AtAllMessage_8hpp.html" target="_top" xlink:title=" ">
<polygon fill="none" stroke="black" points="1509,-114.5 1509,-134.5 1613,-134.5 1613,-114.5 1509,-114.5"/>
<text text-anchor="middle" x="1561" y="-121.7" font-family="-apple-system, BlinkMacSystemFont, 'Segoe UI', Roboto, Oxygen, Ubuntu, Cantarell, 'Fira Sans', 'Droid Sans', 'Helvetica Neue', sans-serif" font-size="11.00">AtAllMessage.hpp</text>
</a>
</g>
</g>
<!-- Node5&#45;&gt;Node17 -->
<g id="edge25" class="edge">
<title>Node5&#45;&gt;Node17</title>
<path fill="none" stroke="midnightblue" d="M1111.51,-251.46C1185.32,-245.93 1300.93,-233.12 1397,-204 1449.29,-188.15 1505.85,-157.85 1536.99,-139.88"/>
<polygon fill="midnightblue" stroke="midnightblue" points="1538.94,-142.8 1545.81,-134.73 1535.41,-136.75 1538.94,-142.8"/>
</g>
<!-- Node18 -->
<g id="node17" class="node">
<title>Node18</title>
<g id="a_node17"><a xlink:href="AtMessage_8hpp.html" target="_top" xlink:title=" ">
<polygon fill="none" stroke="black" points="991,-114.5 991,-134.5 1083,-134.5 1083,-114.5 991,-114.5"/>
<text text-anchor="middle" x="1037" y="-121.7" font-family="-apple-system, BlinkMacSystemFont, 'Segoe UI', Roboto, Oxygen, Ubuntu, Cantarell, 'Fira Sans', 'Droid Sans', 'Helvetica Neue', sans-serif" font-size="11.00">AtMessage.hpp</text>
</a>
</g>
</g>
<!-- Node5&#45;&gt;Node18 -->
<g id="edge29" class="edge">
<title>Node5&#45;&gt;Node18</title>
<path fill="none" stroke="midnightblue" d="M1037,-240.33C1037,-216.65 1037,-170.89 1037,-144.86"/>
<polygon fill="midnightblue" stroke="midnightblue" points="1040.5,-144.73 1037,-134.73 1033.5,-144.73 1040.5,-144.73"/>
</g>
<!-- Node21 -->
<g id="node19" class="node">
<title>Node21</title>
<g id="a_node19"><a xlink:href="AudioMessage_8hpp.html" target="_top" xlink:title=" ">
<polygon fill="none" stroke="red" points="707.5,-114.5 707.5,-134.5 816.5,-134.5 816.5,-114.5 707.5,-114.5"/>
<text text-anchor="middle" x="762" y="-121.7" font-family="-apple-system, BlinkMacSystemFont, 'Segoe UI', Roboto, Oxygen, Ubuntu, Cantarell, 'Fira Sans', 'Droid Sans', 'Helvetica Neue', sans-serif" font-size="11.00">AudioMessage.hpp</text>
</a>
</g>
</g>
<!-- Node5&#45;&gt;Node21 -->
<g id="edge38" class="edge">
<title>Node5&#45;&gt;Node21</title>
<path fill="none" stroke="midnightblue" d="M1008.63,-240.38C975.64,-222.98 919.39,-193.87 870,-171 844.86,-159.36 815.92,-147.23 794.32,-138.43"/>
<polygon fill="midnightblue" stroke="midnightblue" points="795.54,-135.15 784.96,-134.63 792.91,-141.63 795.54,-135.15"/>
</g>
<!-- Node23 -->
<g id="node20" class="node">
<title>Node23</title>
<g id="a_node20"><a xlink:href="DiceMessage_8hpp.html" target="_top" xlink:title=" ">
<polygon fill="none" stroke="black" points="1265,-114.5 1265,-134.5 1367,-134.5 1367,-114.5 1265,-114.5"/>
<text text-anchor="middle" x="1316" y="-121.7" font-family="-apple-system, BlinkMacSystemFont, 'Segoe UI', Roboto, Oxygen, Ubuntu, Cantarell, 'Fira Sans', 'Droid Sans', 'Helvetica Neue', sans-serif" font-size="11.00">DiceMessage.hpp</text>
</a>
</g>
</g>
<!-- Node5&#45;&gt;Node23 -->
<g id="edge43" class="edge">
<title>Node5&#45;&gt;Node23</title>
<path fill="none" stroke="midnightblue" d="M1111.61,-249.35C1154.95,-243.01 1209.09,-230.14 1251,-204 1275.19,-188.91 1294.69,-161.71 1305.81,-143.63"/>
<polygon fill="midnightblue" stroke="midnightblue" points="1309.04,-145.04 1311.1,-134.65 1303.01,-141.49 1309.04,-145.04"/>
</g>
<!-- Node24 -->
<g id="node21" class="node">
<title>Node24</title>
<g id="a_node21"><a xlink:href="FaceMessage_8hpp.html" target="_top" xlink:title=" ">
<polygon fill="none" stroke="black" points="1385.5,-114.5 1385.5,-134.5 1490.5,-134.5 1490.5,-114.5 1385.5,-114.5"/>
<text text-anchor="middle" x="1438" y="-121.7" font-family="-apple-system, BlinkMacSystemFont, 'Segoe UI', Roboto, Oxygen, Ubuntu, Cantarell, 'Fira Sans', 'Droid Sans', 'Helvetica Neue', sans-serif" font-size="11.00">FaceMessage.hpp</text>
</a>
</g>
</g>
<!-- Node5&#45;&gt;Node24 -->
<g id="edge47" class="edge">
<title>Node5&#45;&gt;Node24</title>
<path fill="none" stroke="midnightblue" d="M1111.59,-249.38C1194.2,-241.62 1321.37,-226.5 1364,-204 1391.21,-189.64 1413.96,-161.39 1426.78,-142.99"/>
<polygon fill="midnightblue" stroke="midnightblue" points="1429.73,-144.87 1432.4,-134.62 1423.92,-140.97 1429.73,-144.87"/>
</g>
<!-- Node25 -->
<g id="node22" class="node">
<title>Node25</title>
<g id="a_node22"><a xlink:href="FlashImageMessage_8hpp.html" target="_top" xlink:title=" ">
<polygon fill="none" stroke="black" points="376.5,-177.5 376.5,-197.5 513.5,-197.5 513.5,-177.5 376.5,-177.5"/>
<text text-anchor="middle" x="445" y="-184.7" font-family="-apple-system, BlinkMacSystemFont, 'Segoe UI', Roboto, Oxygen, Ubuntu, Cantarell, 'Fira Sans', 'Droid Sans', 'Helvetica Neue', sans-serif" font-size="11.00">FlashImageMessage.hpp</text>
</a>
</g>
</g>
<!-- Node5&#45;&gt;Node25 -->
<g id="edge51" class="edge">
<title>Node5&#45;&gt;Node25</title>
<path fill="none" stroke="midnightblue" d="M962.43,-249.26C864.74,-240.76 688.18,-224.25 538,-204 527.55,-202.59 516.47,-200.91 505.74,-199.18"/>
<polygon fill="midnightblue" stroke="midnightblue" points="506.03,-195.68 495.59,-197.52 504.9,-202.59 506.03,-195.68"/>
</g>
<!-- Node26 -->
<g id="node23" class="node">
<title>Node26</title>
<g id="a_node23"><a xlink:href="ImageMessage_8hpp.html" target="_top" xlink:title=" ">
<polygon fill="none" stroke="red" points="336.5,-114.5 336.5,-134.5 447.5,-134.5 447.5,-114.5 336.5,-114.5"/>
<text text-anchor="middle" x="392" y="-121.7" font-family="-apple-system, BlinkMacSystemFont, 'Segoe UI', Roboto, Oxygen, Ubuntu, Cantarell, 'Fira Sans', 'Droid Sans', 'Helvetica Neue', sans-serif" font-size="11.00">ImageMessage.hpp</text>
</a>
</g>
</g>
<!-- Node5&#45;&gt;Node26 -->
<g id="edge61" class="edge">
<title>Node5&#45;&gt;Node26</title>
<path fill="none" stroke="midnightblue" d="M962.3,-248.85C885.06,-241.17 761.23,-226.61 656,-204 572.68,-186.09 477.42,-155.07 427.23,-137.88"/>
<polygon fill="midnightblue" stroke="midnightblue" points="428.11,-134.48 417.51,-134.53 425.83,-141.1 428.11,-134.48"/>
</g>
<!-- Node27 -->
<g id="node24" class="node">
<title>Node27</title>
<g id="a_node24"><a xlink:href="JsonMessage_8hpp.html" target="_top" xlink:title=" ">
<polygon fill="none" stroke="black" points="1631,-114.5 1631,-134.5 1735,-134.5 1735,-114.5 1631,-114.5"/>
<text text-anchor="middle" x="1683" y="-121.7" font-family="-apple-system, BlinkMacSystemFont, 'Segoe UI', Roboto, Oxygen, Ubuntu, Cantarell, 'Fira Sans', 'Droid Sans', 'Helvetica Neue', sans-serif" font-size="11.00">JsonMessage.hpp</text>
</a>
</g>
</g>
<!-- Node5&#45;&gt;Node27 -->
<g id="edge62" class="edge">
<title>Node5&#45;&gt;Node27</title>
<path fill="none" stroke="midnightblue" d="M1111.64,-250.72C1194.96,-244.35 1333.42,-230.62 1450,-204 1523.89,-187.13 1607.38,-155.89 1651.6,-138.34"/>
<polygon fill="midnightblue" stroke="midnightblue" points="1652.95,-141.57 1660.94,-134.6 1650.35,-135.07 1652.95,-141.57"/>
</g>
<!-- Node28 -->
<g id="node25" class="node">
<title>Node28</title>
<g id="a_node25"><a xlink:href="MiraiCodeMessage_8hpp.html" target="_top" xlink:title=" ">
<polygon fill="none" stroke="black" points="1753,-114.5 1753,-134.5 1883,-134.5 1883,-114.5 1753,-114.5"/>
<text text-anchor="middle" x="1818" y="-121.7" font-family="-apple-system, BlinkMacSystemFont, 'Segoe UI', Roboto, Oxygen, Ubuntu, Cantarell, 'Fira Sans', 'Droid Sans', 'Helvetica Neue', sans-serif" font-size="11.00">MiraiCodeMessage.hpp</text>
</a>
</g>
</g>
<!-- Node5&#45;&gt;Node28 -->
<g id="edge67" class="edge">
<title>Node5&#45;&gt;Node28</title>
<path fill="none" stroke="midnightblue" d="M1111.66,-250.97C1206.65,-244.42 1375.5,-230.12 1518,-204 1613.41,-186.51 1723.13,-154.75 1779.75,-137.48"/>
<polygon fill="midnightblue" stroke="midnightblue" points="1780.83,-140.81 1789.36,-134.53 1778.77,-134.11 1780.83,-140.81"/>
</g>
<!-- Node29 -->
<g id="node26" class="node">
<title>Node29</title>
<g id="a_node26"><a xlink:href="PlainMessage_8hpp.html" target="_top" xlink:title=" ">
<polygon fill="none" stroke="black" points="465.5,-114.5 465.5,-134.5 570.5,-134.5 570.5,-114.5 465.5,-114.5"/>
<text text-anchor="middle" x="518" y="-121.7" font-family="-apple-system, BlinkMacSystemFont, 'Segoe UI', Roboto, Oxygen, Ubuntu, Cantarell, 'Fira Sans', 'Droid Sans', 'Helvetica Neue', sans-serif" font-size="11.00">PlainMessage.hpp</text>
</a>
</g>
</g>
<!-- Node5&#45;&gt;Node29 -->
<g id="edge71" class="edge">
<title>Node5&#45;&gt;Node29</title>
<path fill="none" stroke="midnightblue" d="M962.28,-243.29C908.7,-233.99 834.98,-220.07 771,-204 692.5,-184.29 602.37,-154.58 553.69,-137.94"/>
<polygon fill="midnightblue" stroke="midnightblue" points="554.55,-134.53 543.96,-134.59 552.28,-141.15 554.55,-134.53"/>
</g>
<!-- Node30 -->
<g id="node27" class="node">
<title>Node30</title>
<g id="a_node27"><a xlink:href="PokeMessage_8hpp.html" target="_top" xlink:title=" ">
<polygon fill="none" stroke="red" points="1101.5,-114.5 1101.5,-134.5 1208.5,-134.5 1208.5,-114.5 1101.5,-114.5"/>
<text text-anchor="middle" x="1155" y="-121.7" font-family="-apple-system, BlinkMacSystemFont, 'Segoe UI', Roboto, Oxygen, Ubuntu, Cantarell, 'Fira Sans', 'Droid Sans', 'Helvetica Neue', sans-serif" font-size="11.00">PokeMessage.hpp</text>
</a>
</g>
</g>
<!-- Node5&#45;&gt;Node30 -->
<g id="edge76" class="edge">
<title>Node5&#45;&gt;Node30</title>
<path fill="none" stroke="midnightblue" d="M1050.77,-240.33C1072.94,-215.9 1116.43,-168 1139.6,-142.47"/>
<polygon fill="midnightblue" stroke="midnightblue" points="1142.49,-144.49 1146.62,-134.73 1137.31,-139.78 1142.49,-144.49"/>
</g>
<!-- Node32 -->
<g id="node28" class="node">
<title>Node32</title>
<g id="a_node28"><a xlink:href="XmlMessage_8hpp.html" target="_top" xlink:title=" ">
<polygon fill="none" stroke="black" points="835,-114.5 835,-134.5 935,-134.5 935,-114.5 835,-114.5"/>
<text text-anchor="middle" x="885" y="-121.7" font-family="-apple-system, BlinkMacSystemFont, 'Segoe UI', Roboto, Oxygen, Ubuntu, Cantarell, 'Fira Sans', 'Droid Sans', 'Helvetica Neue', sans-serif" font-size="11.00">XmlMessage.hpp</text>
</a>
</g>
</g>
<!-- Node5&#45;&gt;Node32 -->
<g id="edge80" class="edge">
<title>Node5&#45;&gt;Node32</title>
<path fill="none" stroke="midnightblue" d="M1021.68,-240.32C1003.96,-222.98 973.66,-194.05 946,-171 933.22,-160.35 918.26,-149.17 906.35,-140.56"/>
<polygon fill="midnightblue" stroke="midnightblue" points="908.09,-137.5 897.92,-134.52 904.01,-143.19 908.09,-137.5"/>
</g>
<!-- Node13&#45;&gt;Node3 -->
<g id="edge16" class="edge">
<title>Node13&#45;&gt;Node3</title>
<path fill="none" stroke="midnightblue" d="M216.34,-171.44C198.84,-163.54 181.1,-151.88 171,-135 141.1,-85.03 220.54,-67.02 247,-57 345.31,-19.76 673.88,-12.98 778.04,-11.76"/>
<polygon fill="midnightblue" stroke="midnightblue" points="778.27,-15.26 788.23,-11.65 778.19,-8.26 778.27,-15.26"/>
</g>
<!-- Node13&#45;&gt;Node9 -->
<g id="edge15" class="edge">
<title>Node13&#45;&gt;Node9</title>
<path fill="none" stroke="midnightblue" d="M253.16,-171.42C244.94,-162.47 234.52,-151.12 226.09,-141.94"/>
<polygon fill="midnightblue" stroke="midnightblue" points="228.65,-139.55 219.3,-134.55 223.49,-144.28 228.65,-139.55"/>
</g>
<!-- Node14&#45;&gt;Node3 -->
<g id="edge18" class="edge">
<title>Node14&#45;&gt;Node3</title>
<path fill="none" stroke="midnightblue" d="M652.99,-114.33C682.43,-95.06 750.99,-50.15 786.99,-26.57"/>
<polygon fill="midnightblue" stroke="midnightblue" points="789.37,-29.2 795.81,-20.79 785.53,-23.34 789.37,-29.2"/>
</g>
<!-- Node14&#45;&gt;Node4 -->
<g id="edge20" class="edge">
<title>Node14&#45;&gt;Node4</title>
<path fill="none" stroke="midnightblue" d="M668.59,-114.43C713.97,-100.74 803.66,-74.52 881,-57 943.16,-42.92 1014.67,-30.44 1065.95,-22.13"/>
<polygon fill="midnightblue" stroke="midnightblue" points="1066.61,-25.57 1075.93,-20.52 1065.5,-18.65 1066.61,-25.57"/>
</g>
<!-- Node14&#45;&gt;Node11 -->
<g id="edge19" class="edge">
<title>Node14&#45;&gt;Node11</title>
<path fill="none" stroke="midnightblue" d="M588.3,-115.2C585.16,-114.77 582.04,-114.36 579,-114 481.37,-102.3 226.5,-120.85 138,-78 115.91,-67.3 97.78,-45.07 86.95,-29.26"/>
<polygon fill="midnightblue" stroke="midnightblue" points="89.84,-27.28 81.44,-20.83 83.98,-31.11 89.84,-27.28"/>
</g>
<!-- Node14&#45;&gt;Node15 -->
<g id="edge21" class="edge">
<title>Node14&#45;&gt;Node15</title>
<path fill="none" stroke="midnightblue" d="M689.82,-115.1C692.58,-114.71 695.32,-114.34 698,-114 846.09,-95.05 1020.93,-80.34 1112.6,-73.22"/>
<polygon fill="midnightblue" stroke="midnightblue" points="1113.12,-76.69 1122.82,-72.43 1112.59,-69.71 1113.12,-76.69"/>
</g>
<!-- Node15&#45;&gt;Node3 -->
<g id="edge23" class="edge">
<title>Node15&#45;&gt;Node3</title>
<path fill="none" stroke="midnightblue" d="M1122.78,-58.5C1045.56,-46.9 904.84,-25.75 841.9,-16.29"/>
<polygon fill="midnightblue" stroke="midnightblue" points="842.2,-12.8 831.79,-14.77 841.16,-19.72 842.2,-12.8"/>
</g>
<!-- Node15&#45;&gt;Node4 -->
<g id="edge24" class="edge">
<title>Node15&#45;&gt;Node4</title>
<path fill="none" stroke="midnightblue" d="M1169.23,-57.42C1163.45,-49.66 1154.97,-38.29 1147.9,-28.8"/>
<polygon fill="midnightblue" stroke="midnightblue" points="1150.7,-26.71 1141.92,-20.78 1145.09,-30.89 1150.7,-26.71"/>
</g>
<!-- Node15&#45;&gt;Node8 -->
<g id="edge22" class="edge">
<title>Node15&#45;&gt;Node8</title>
<path fill="none" stroke="midnightblue" d="M1229.24,-63.04C1386.64,-52.81 1847.3,-22.86 1983.59,-14"/>
<polygon fill="midnightblue" stroke="midnightblue" points="1984.18,-17.47 1993.94,-13.32 1983.73,-10.48 1984.18,-17.47"/>
</g>
<!-- Node17&#45;&gt;Node3 -->
<g id="edge26" class="edge">
<title>Node17&#45;&gt;Node3</title>
<path fill="none" stroke="midnightblue" d="M1527.85,-114.49C1464.11,-97.23 1328.83,-60.83 1307,-57 1133.39,-26.54 921.86,-15.76 842.3,-12.61"/>
<polygon fill="midnightblue" stroke="midnightblue" points="842.1,-9.1 831.97,-12.22 841.83,-16.1 842.1,-9.1"/>
</g>
<!-- Node17&#45;&gt;Node4 -->
<g id="edge27" class="edge">
<title>Node17&#45;&gt;Node4</title>
<path fill="none" stroke="midnightblue" d="M1531.86,-114.47C1488.5,-101.17 1404.31,-75.83 1332,-57 1283.1,-44.26 1226.89,-31.46 1187.07,-22.7"/>
<polygon fill="midnightblue" stroke="midnightblue" points="1187.57,-19.22 1177.05,-20.5 1186.07,-26.06 1187.57,-19.22"/>
</g>
<!-- Node17&#45;&gt;Node15 -->
<g id="edge28" class="edge">
<title>Node17&#45;&gt;Node15</title>
<path fill="none" stroke="midnightblue" d="M1508.76,-115.31C1505.8,-114.86 1502.86,-114.42 1500,-114 1409.46,-100.59 1304.54,-86.04 1239.21,-77.09"/>
<polygon fill="midnightblue" stroke="midnightblue" points="1239.45,-73.59 1229.07,-75.7 1238.5,-80.53 1239.45,-73.59"/>
</g>
<!-- Node18&#45;&gt;Node3 -->
<g id="edge30" class="edge">
<title>Node18&#45;&gt;Node3</title>
<path fill="none" stroke="midnightblue" d="M1018.42,-114.33C978.5,-94.64 884.36,-48.19 837.49,-25.07"/>
<polygon fill="midnightblue" stroke="midnightblue" points="839.03,-21.92 828.51,-20.63 835.93,-28.2 839.03,-21.92"/>
</g>
<!-- Node18&#45;&gt;Node4 -->
<g id="edge31" class="edge">
<title>Node18&#45;&gt;Node4</title>
<path fill="none" stroke="midnightblue" d="M1045.02,-114.33C1061.46,-95.55 1099.19,-52.42 1120.2,-28.42"/>
<polygon fill="midnightblue" stroke="midnightblue" points="1122.92,-30.62 1126.87,-20.79 1117.65,-26.01 1122.92,-30.62"/>
</g>
<!-- Node18&#45;&gt;Node15 -->
<g id="edge37" class="edge">
<title>Node18&#45;&gt;Node15</title>
<path fill="none" stroke="midnightblue" d="M1059.95,-114.42C1082.79,-105.38 1118.04,-91.44 1143.69,-81.28"/>
<polygon fill="midnightblue" stroke="midnightblue" points="1145,-84.53 1153.01,-77.6 1142.43,-78.02 1145,-84.53"/>
</g>
<!-- Node18&#45;&gt;Node19 -->
<g id="edge32" class="edge">
<title>Node18&#45;&gt;Node19</title>
<path fill="none" stroke="midnightblue" d="M990.66,-118.52C975.77,-116.98 959.2,-115.35 944,-114 761.17,-97.81 547.01,-82.65 428.2,-74.57"/>
<polygon fill="midnightblue" stroke="midnightblue" points="428.27,-71.06 418.06,-73.88 427.8,-78.05 428.27,-71.06"/>
</g>
<!-- Node19&#45;&gt;Node3 -->
<g id="edge34" class="edge">
<title>Node19&#45;&gt;Node3</title>
<path fill="none" stroke="midnightblue" d="M414.58,-57.48C520.24,-45.19 704.69,-23.75 778.32,-15.18"/>
<polygon fill="midnightblue" stroke="midnightblue" points="778.83,-18.65 788.36,-14.02 778.02,-11.69 778.83,-18.65"/>
</g>
<!-- Node19&#45;&gt;Node4 -->
<g id="edge36" class="edge">
<title>Node19&#45;&gt;Node4</title>
<path fill="none" stroke="midnightblue" d="M418.28,-60.9C573.22,-50.22 908.77,-27.09 1059.28,-16.72"/>
<polygon fill="midnightblue" stroke="midnightblue" points="1059.62,-20.2 1069.35,-16.02 1059.14,-13.22 1059.62,-20.2"/>
</g>
<!-- Node19&#45;&gt;Node7 -->
<g id="edge33" class="edge">
<title>Node19&#45;&gt;Node7</title>
<path fill="none" stroke="midnightblue" d="M320.49,-57.42C304.71,-48.74 280.7,-35.53 262.47,-25.51"/>
<polygon fill="midnightblue" stroke="midnightblue" points="263.99,-22.35 253.54,-20.6 260.61,-28.48 263.99,-22.35"/>
</g>
<!-- Node19&#45;&gt;Node11 -->
<g id="edge35" class="edge">
<title>Node19&#45;&gt;Node11</title>
<path fill="none" stroke="midnightblue" d="M294.19,-57.48C241.47,-46.37 153.19,-27.77 106.73,-17.98"/>
<polygon fill="midnightblue" stroke="midnightblue" points="107.18,-14.49 96.67,-15.86 105.73,-21.34 107.18,-14.49"/>
</g>
<!-- Node21&#45;&gt;Node3 -->
<g id="edge39" class="edge">
<title>Node21&#45;&gt;Node3</title>
<path fill="none" stroke="midnightblue" d="M762.91,-114.09C764.46,-100.85 768.32,-76.2 777,-57 781.61,-46.81 788.7,-36.63 795.13,-28.49"/>
<polygon fill="midnightblue" stroke="midnightblue" points="798.02,-30.49 801.7,-20.55 792.63,-26.03 798.02,-30.49"/>
</g>
<!-- Node21&#45;&gt;Node4 -->
<g id="edge40" class="edge">
<title>Node21&#45;&gt;Node4</title>
<path fill="none" stroke="midnightblue" d="M786.25,-114.49C810.36,-105.47 848.36,-91.09 881,-78 903.37,-69.03 908.04,-64.32 931,-57 977.53,-42.17 1031.53,-30.36 1072.27,-22.49"/>
<polygon fill="midnightblue" stroke="midnightblue" points="1073.16,-25.88 1082.33,-20.57 1071.85,-19 1073.16,-25.88"/>
</g>
<!-- Node21&#45;&gt;Node11 -->
<g id="edge41" class="edge">
<title>Node21&#45;&gt;Node11</title>
<path fill="none" stroke="midnightblue" d="M707.22,-115.08C704.11,-114.69 701.02,-114.33 698,-114 582.4,-101.45 286.08,-115.44 176,-78 159.12,-72.26 120.17,-44.52 96.17,-26.73"/>
<polygon fill="midnightblue" stroke="midnightblue" points="98.18,-23.86 88.07,-20.68 93.99,-29.47 98.18,-23.86"/>
</g>
<!-- Node21&#45;&gt;Node15 -->
<g id="edge42" class="edge">
<title>Node21&#45;&gt;Node15</title>
<path fill="none" stroke="midnightblue" d="M816.8,-115.3C819.91,-114.85 823,-114.42 826,-114 926.22,-100.05 1042.77,-85.16 1112.89,-76.36"/>
<polygon fill="midnightblue" stroke="midnightblue" points="1113.4,-79.82 1122.89,-75.1 1112.53,-72.87 1113.4,-79.82"/>
</g>
<!-- Node23&#45;&gt;Node3 -->
<g id="edge44" class="edge">
<title>Node23&#45;&gt;Node3</title>
<path fill="none" stroke="midnightblue" d="M1308.51,-114.23C1295.81,-99.25 1268.41,-70.07 1238,-57 1166.57,-26.3 928.45,-15.44 841.84,-12.46"/>
<polygon fill="midnightblue" stroke="midnightblue" points="841.7,-8.95 831.59,-12.12 841.47,-15.95 841.7,-8.95"/>
</g>
<!-- Node23&#45;&gt;Node4 -->
<g id="edge45" class="edge">
<title>Node23&#45;&gt;Node4</title>
<path fill="none" stroke="midnightblue" d="M1312.17,-114.36C1305.74,-100.08 1291.43,-72.51 1271,-57 1249.38,-40.59 1221.51,-29.9 1196.63,-23.04"/>
<polygon fill="midnightblue" stroke="midnightblue" points="1197.46,-19.64 1186.9,-20.51 1195.7,-26.41 1197.46,-19.64"/>
</g>
<!-- Node23&#45;&gt;Node15 -->
<g id="edge46" class="edge">
<title>Node23&#45;&gt;Node15</title>
<path fill="none" stroke="midnightblue" d="M1292.88,-114.42C1269.88,-105.38 1234.38,-91.44 1208.54,-81.28"/>
<polygon fill="midnightblue" stroke="midnightblue" points="1209.74,-77.99 1199.15,-77.6 1207.18,-84.51 1209.74,-77.99"/>
</g>
<!-- Node24&#45;&gt;Node3 -->
<g id="edge48" class="edge">
<title>Node24&#45;&gt;Node3</title>
<path fill="none" stroke="midnightblue" d="M1413.77,-114.44C1389.68,-105.39 1351.69,-90.98 1319,-78 1296.22,-68.96 1291.78,-62.94 1268,-57 1111.73,-17.96 917.57,-12.19 842.1,-11.5"/>
<polygon fill="midnightblue" stroke="midnightblue" points="841.87,-8 831.84,-11.43 841.82,-15 841.87,-8"/>
</g>
<!-- Node24&#45;&gt;Node4 -->
<g id="edge49" class="edge">
<title>Node24&#45;&gt;Node4</title>
<path fill="none" stroke="midnightblue" d="M1420.64,-114.42C1393.94,-100.7 1340.98,-74.45 1294,-57 1257.33,-43.38 1214.65,-31.37 1182.75,-23.11"/>
<polygon fill="midnightblue" stroke="midnightblue" points="1183.35,-19.65 1172.79,-20.56 1181.61,-26.43 1183.35,-19.65"/>
</g>
<!-- Node24&#45;&gt;Node15 -->
<g id="edge50" class="edge">
<title>Node24&#45;&gt;Node15</title>
<path fill="none" stroke="midnightblue" d="M1395.03,-114.48C1349.63,-104.95 1277.96,-89.9 1229.07,-79.64"/>
<polygon fill="midnightblue" stroke="midnightblue" points="1229.5,-76.15 1218.99,-77.53 1228.06,-83.01 1229.5,-76.15"/>
</g>
<!-- Node25&#45;&gt;Node3 -->
<g id="edge52" class="edge">
<title>Node25&#45;&gt;Node3</title>
<path fill="none" stroke="midnightblue" d="M401.99,-177.47C358.98,-166.46 302.48,-145.34 327,-114 343.22,-93.26 531.25,-62.5 557,-57 636.12,-40.1 730.06,-24.32 778.15,-16.55"/>
<polygon fill="midnightblue" stroke="midnightblue" points="778.93,-19.97 788.25,-14.92 777.82,-13.05 778.93,-19.97"/>
</g>
<!-- Node25&#45;&gt;Node4 -->
<g id="edge53" class="edge">
<title>Node25&#45;&gt;Node4</title>
<path fill="none" stroke="midnightblue" d="M513.7,-183.38C631.38,-177.37 866.37,-162.32 944,-135 962.51,-128.49 1067.4,-57.65 1113.39,-26.29"/>
<polygon fill="midnightblue" stroke="midnightblue" points="1115.48,-29.1 1121.76,-20.58 1111.53,-23.32 1115.48,-29.1"/>
</g>
<!-- Node25&#45;&gt;Node19 -->
<g id="edge54" class="edge">
<title>Node25&#45;&gt;Node19</title>
<path fill="none" stroke="midnightblue" d="M401.15,-177.46C361.27,-168.24 306.73,-152.8 294,-135 281.87,-118.05 299.18,-97.86 315.32,-84.21"/>
<polygon fill="midnightblue" stroke="midnightblue" points="317.84,-86.68 323.49,-77.72 313.48,-81.2 317.84,-86.68"/>
</g>
<!-- Node25&#45;&gt;Node26 -->
<g id="edge55" class="edge">
<title>Node25&#45;&gt;Node26</title>
<path fill="none" stroke="midnightblue" d="M437.18,-177.5C429.12,-168.22 416.36,-153.53 406.45,-142.13"/>
<polygon fill="midnightblue" stroke="midnightblue" points="409.05,-139.79 399.85,-134.54 403.77,-144.38 409.05,-139.79"/>
</g>
<!-- Node26&#45;&gt;Node3 -->
<g id="edge56" class="edge">
<title>Node26&#45;&gt;Node3</title>
<path fill="none" stroke="midnightblue" d="M424.45,-114.42C470.84,-101.46 558.85,-77.04 634,-57 684.51,-43.53 743.35,-28.44 778.58,-19.47"/>
<polygon fill="midnightblue" stroke="midnightblue" points="779.47,-22.86 788.3,-17 777.74,-16.07 779.47,-22.86"/>
</g>
<!-- Node26&#45;&gt;Node4 -->
<g id="edge57" class="edge">
<title>Node26&#45;&gt;Node4</title>
<path fill="none" stroke="midnightblue" d="M435.26,-114.5C512.83,-98.43 672.72,-65.69 729,-57 843.61,-39.3 977.44,-25.65 1059.18,-18.1"/>
<polygon fill="midnightblue" stroke="midnightblue" points="1059.74,-21.56 1069.38,-17.16 1059.1,-14.59 1059.74,-21.56"/>
</g>
<!-- Node26&#45;&gt;Node11 -->
<g id="edge59" class="edge">
<title>Node26&#45;&gt;Node11</title>
<path fill="none" stroke="midnightblue" d="M336.42,-118.56C236.12,-109.38 34.23,-89.58 24,-78 8.86,-60.88 31.46,-39.94 51.44,-26.19"/>
<polygon fill="midnightblue" stroke="midnightblue" points="53.54,-28.99 60,-20.59 49.72,-23.13 53.54,-28.99"/>
</g>
<!-- Node26&#45;&gt;Node15 -->
<g id="edge60" class="edge">
<title>Node26&#45;&gt;Node15</title>
<path fill="none" stroke="midnightblue" d="M447.81,-114.93C450.58,-114.6 453.32,-114.28 456,-114 697.7,-88.47 986.66,-75.5 1112.37,-70.72"/>
<polygon fill="midnightblue" stroke="midnightblue" points="1112.72,-74.21 1122.58,-70.34 1112.45,-67.21 1112.72,-74.21"/>
</g>
<!-- Node26&#45;&gt;Node19 -->
<g id="edge58" class="edge">
<title>Node26&#45;&gt;Node19</title>
<path fill="none" stroke="midnightblue" d="M382.92,-114.42C374.92,-106.42 363.09,-94.59 353.44,-84.94"/>
<polygon fill="midnightblue" stroke="midnightblue" points="355.83,-82.38 346.28,-77.78 350.88,-87.33 355.83,-82.38"/>
</g>
<!-- Node27&#45;&gt;Node3 -->
<g id="edge63" class="edge">
<title>Node27&#45;&gt;Node3</title>
<path fill="none" stroke="midnightblue" d="M1630.84,-115.34C1566.64,-105.14 1461.41,-87.8 1423,-78 1394.81,-70.8 1389.49,-62.91 1361,-57 1260.57,-36.17 943.82,-18.41 841.92,-13.11"/>
<polygon fill="midnightblue" stroke="midnightblue" points="841.82,-9.6 831.65,-12.58 841.46,-16.59 841.82,-9.6"/>
</g>
<!-- Node27&#45;&gt;Node4 -->
<g id="edge64" class="edge">
<title>Node27&#45;&gt;Node4</title>
<path fill="none" stroke="midnightblue" d="M1644.26,-114.44C1587.2,-101.19 1477.12,-76.06 1383,-57 1319.98,-44.24 1247.64,-31.14 1197.41,-22.3"/>
<polygon fill="midnightblue" stroke="midnightblue" points="1197.81,-18.81 1187.36,-20.53 1196.6,-25.71 1197.81,-18.81"/>
</g>
<!-- Node27&#45;&gt;Node15 -->
<g id="edge65" class="edge">
<title>Node27&#45;&gt;Node15</title>
<path fill="none" stroke="midnightblue" d="M1630.78,-115.18C1627.81,-114.77 1624.87,-114.37 1622,-114 1486.07,-96.49 1326.11,-81.54 1239.5,-73.91"/>
<polygon fill="midnightblue" stroke="midnightblue" points="1239.58,-70.41 1229.31,-73.02 1238.97,-77.38 1239.58,-70.41"/>
</g>
<!-- Node28&#45;&gt;Node3 -->
<g id="edge68" class="edge">
<title>Node28&#45;&gt;Node3</title>
<path fill="none" stroke="midnightblue" d="M1770.29,-114.46C1693.73,-100.27 1538.57,-72.73 1406,-57 1191.12,-31.5 930.86,-17.35 841.72,-12.98"/>
<polygon fill="midnightblue" stroke="midnightblue" points="841.87,-9.49 831.71,-12.5 841.53,-16.48 841.87,-9.49"/>
</g>
<!-- Node28&#45;&gt;Node4 -->
<g id="edge69" class="edge">
<title>Node28&#45;&gt;Node4</title>
<path fill="none" stroke="midnightblue" d="M1806.53,-114.41C1786.87,-99.4 1744.88,-69.82 1704,-57 1614.15,-28.82 1344.11,-17.4 1210.94,-13.39"/>
<polygon fill="midnightblue" stroke="midnightblue" points="1210.92,-9.89 1200.82,-13.09 1210.71,-16.89 1210.92,-9.89"/>
</g>
<!-- Node28&#45;&gt;Node15 -->
<g id="edge70" class="edge">
<title>Node28&#45;&gt;Node15</title>
<path fill="none" stroke="midnightblue" d="M1752.65,-114.94C1749.73,-114.61 1746.83,-114.3 1744,-114 1561.17,-94.95 1344.51,-79.58 1239.45,-72.59"/>
<polygon fill="midnightblue" stroke="midnightblue" points="1239.54,-69.09 1229.33,-71.92 1239.07,-76.07 1239.54,-69.09"/>
</g>
<!-- Node29&#45;&gt;Node3 -->
<g id="edge72" class="edge">
<title>Node29&#45;&gt;Node3</title>
<path fill="none" stroke="midnightblue" d="M541.9,-114.33C594.43,-94.18 719.95,-46.04 778.69,-23.51"/>
<polygon fill="midnightblue" stroke="midnightblue" points="780.1,-26.72 788.19,-19.87 777.6,-20.18 780.1,-26.72"/>
</g>
<!-- Node29&#45;&gt;Node4 -->
<g id="edge73" class="edge">
<title>Node29&#45;&gt;Node4</title>
<path fill="none" stroke="midnightblue" d="M566.06,-114.44C609.02,-106.03 673.56,-92.63 729,-78 759.17,-70.04 765.54,-63.77 796,-57 885.32,-37.16 989.94,-24.72 1059.07,-17.96"/>
<polygon fill="midnightblue" stroke="midnightblue" points="1059.81,-21.4 1069.43,-16.96 1059.14,-14.43 1059.81,-21.4"/>
</g>
<!-- Node29&#45;&gt;Node11 -->
<g id="edge74" class="edge">
<title>Node29&#45;&gt;Node11</title>
<path fill="none" stroke="midnightblue" d="M465.26,-115.2C462.13,-114.77 459.03,-114.37 456,-114 412.36,-108.67 91.64,-110.47 62,-78 49.99,-64.85 57.01,-44.09 64.8,-29.26"/>
<polygon fill="midnightblue" stroke="midnightblue" points="67.87,-30.93 69.83,-20.52 61.81,-27.44 67.87,-30.93"/>
</g>
<!-- Node29&#45;&gt;Node15 -->
<g id="edge75" class="edge">
<title>Node29&#45;&gt;Node15</title>
<path fill="none" stroke="midnightblue" d="M570.54,-115.05C573.4,-114.67 576.23,-114.32 579,-114 772.81,-91.56 1003.34,-77.57 1112.57,-71.7"/>
<polygon fill="midnightblue" stroke="midnightblue" points="1112.96,-75.18 1122.76,-71.15 1112.58,-68.19 1112.96,-75.18"/>
</g>
<!-- Node30&#45;&gt;Node3 -->
<g id="edge77" class="edge">
<title>Node30&#45;&gt;Node3</title>
<path fill="none" stroke="midnightblue" d="M1127.06,-114.43C1063.43,-93.77 908.11,-43.35 841.34,-21.68"/>
<polygon fill="midnightblue" stroke="midnightblue" points="842.38,-18.33 831.79,-18.57 840.22,-24.99 842.38,-18.33"/>
</g>
<!-- Node30&#45;&gt;Node4 -->
<g id="edge78" class="edge">
<title>Node30&#45;&gt;Node4</title>
<path fill="none" stroke="midnightblue" d="M1142.67,-114.22C1132.81,-105.95 1119.72,-92.89 1114,-78 1107.78,-61.81 1115.1,-42.92 1122.75,-29.42"/>
<polygon fill="midnightblue" stroke="midnightblue" points="1125.89,-31 1128.19,-20.66 1119.94,-27.3 1125.89,-31"/>
</g>
<!-- Node30&#45;&gt;Node15 -->
<g id="edge79" class="edge">
<title>Node30&#45;&gt;Node15</title>
<path fill="none" stroke="midnightblue" d="M1158.47,-114.42C1161.28,-107.06 1165.33,-96.44 1168.83,-87.27"/>
<polygon fill="midnightblue" stroke="midnightblue" points="1172.16,-88.37 1172.46,-77.78 1165.62,-85.87 1172.16,-88.37"/>
</g>
<!-- Node32&#45;&gt;Node3 -->
<g id="edge81" class="edge">
<title>Node32&#45;&gt;Node3</title>
<path fill="none" stroke="midnightblue" d="M860.59,-114.38C844.74,-107.09 825.19,-95.21 815,-78 806.62,-63.85 806,-44.93 807.11,-30.89"/>
<polygon fill="midnightblue" stroke="midnightblue" points="810.6,-31.19 808.25,-20.86 803.64,-30.4 810.6,-31.19"/>
</g>
<!-- Node32&#45;&gt;Node4 -->
<g id="edge82" class="edge">
<title>Node32&#45;&gt;Node4</title>
<path fill="none" stroke="midnightblue" d="M893.69,-114.32C907.75,-100 936.98,-72.36 967,-57 998.8,-40.73 1037.05,-29.78 1069.02,-22.71"/>
<polygon fill="midnightblue" stroke="midnightblue" points="1070.11,-26.06 1079.16,-20.55 1068.65,-19.21 1070.11,-26.06"/>
</g>
<!-- Node32&#45;&gt;Node11 -->
<g id="edge83" class="edge">
<title>Node32&#45;&gt;Node11</title>
<path fill="none" stroke="midnightblue" d="M834.83,-115.08C831.85,-114.69 828.89,-114.32 826,-114 569.75,-85.47 498.81,-133.38 247,-78 194.05,-66.35 135.92,-40.8 102.91,-24.98"/>
<polygon fill="midnightblue" stroke="midnightblue" points="104.42,-21.82 93.89,-20.6 101.36,-28.12 104.42,-21.82"/>
</g>
<!-- Node32&#45;&gt;Node15 -->
<g id="edge84" class="edge">
<title>Node32&#45;&gt;Node15</title>
<path fill="none" stroke="midnightblue" d="M932.73,-114.48C983.58,-104.87 1064.08,-89.65 1118.42,-79.38"/>
<polygon fill="midnightblue" stroke="midnightblue" points="1119.07,-82.82 1128.25,-77.53 1117.77,-75.94 1119.07,-82.82"/>
</g>
<!-- Node33&#45;&gt;Node3 -->
<g id="edge88" class="edge">
<title>Node33&#45;&gt;Node3</title>
<path fill="none" stroke="midnightblue" d="M1977.43,-64.48C1782.69,-55.64 1008.85,-20.52 841.87,-12.95"/>
<polygon fill="midnightblue" stroke="midnightblue" points="841.91,-9.44 831.76,-12.49 841.59,-16.44 841.91,-9.44"/>
</g>
<!-- Node33&#45;&gt;Node4 -->
<g id="edge89" class="edge">
<title>Node33&#45;&gt;Node4</title>
<path fill="none" stroke="midnightblue" d="M1977.29,-58.8C1972.47,-58.12 1967.64,-57.5 1963,-57 1686.93,-27.27 1356.86,-16.51 1210.86,-13.01"/>
<polygon fill="midnightblue" stroke="midnightblue" points="1210.74,-9.51 1200.66,-12.77 1210.58,-16.51 1210.74,-9.51"/>
</g>
<!-- Node33&#45;&gt;Node8 -->
<g id="edge87" class="edge">
<title>Node33&#45;&gt;Node8</title>
<path fill="none" stroke="midnightblue" d="M2022,-57.42C2022,-50.22 2022,-39.9 2022,-30.86"/>
<polygon fill="midnightblue" stroke="midnightblue" points="2025.5,-30.78 2022,-20.78 2018.5,-30.78 2025.5,-30.78"/>
</g>
</g>
</svg>
