<?xml version="1.0" encoding="UTF-8" standalone="no"?>
<!DOCTYPE svg PUBLIC "-//W3C//DTD SVG 1.1//EN"
 "http://www.w3.org/Graphics/SVG/1.1/DTD/svg11.dtd">
<!-- Generated by graphviz version 2.43.0 (0)
 -->
<!-- Title: libmirai/public/libmirai/Events/CommandExecutedEvent.hpp Pages: 1 -->
<svg width="386pt" height="179pt"
 viewBox="0.00 0.00 385.50 179.00" xmlns="http://www.w3.org/2000/svg" xmlns:xlink="http://www.w3.org/1999/xlink">
<g id="graph0" class="graph" transform="scale(1 1) rotate(0) translate(4 175)">
<title>libmirai/public/libmirai/Events/CommandExecutedEvent.hpp</title>
<!-- Node1 -->
<g id="node1" class="node">
<title>Node1</title>
<g id="a_node1"><a xlink:title=" ">
<polygon fill="#bfbfbf" stroke="black" points="98.5,-138.5 98.5,-170.5 321.5,-170.5 321.5,-138.5 98.5,-138.5"/>
<text text-anchor="start" x="106.5" y="-157.7" font-family="-apple-system,BlinkMacSystemFont,'SegoeUI',Roboto,Oxygen,Ubuntu,Cantarell,'FiraSans','DroidSans','HelveticaNeue',sans-serif" font-size="11.00">libmirai/public/libmirai</text>
<text text-anchor="middle" x="210" y="-145.7" font-family="-apple-system,BlinkMacSystemFont,'SegoeUI',Roboto,Oxygen,Ubuntu,Cantarell,'FiraSans','DroidSans','HelveticaNeue',sans-serif" font-size="11.00">/Events/CommandExecutedEvent.hpp</text>
</a>
</g>
</g>
<!-- Node2 -->
<g id="node2" class="node">
<title>Node2</title>
<g id="a_node2"><a xlink:href="CommandExecutedEvent_8cpp.html" target="_top" xlink:title=" ">
<polygon fill="none" stroke="black" points="0,-69.5 0,-101.5 222,-101.5 222,-69.5 0,-69.5"/>
<text text-anchor="start" x="8" y="-88.7" font-family="-apple-system,BlinkMacSystemFont,'SegoeUI',Roboto,Oxygen,Ubuntu,Cantarell,'FiraSans','DroidSans','HelveticaNeue',sans-serif" font-size="11.00">libmirai/public/libmirai</text>
<text text-anchor="middle" x="111" y="-76.7" font-family="-apple-system,BlinkMacSystemFont,'SegoeUI',Roboto,Oxygen,Ubuntu,Cantarell,'FiraSans','DroidSans','HelveticaNeue',sans-serif" font-size="11.00">/Events/CommandExecutedEvent.cpp</text>
</a>
</g>
</g>
<!-- Node1&#45;&gt;Node2 -->
<g id="edge1" class="edge">
<title>Node1&#45;&gt;Node2</title>
<path fill="none" stroke="midnightblue" d="M179.16,-132.63C164.34,-122.6 146.9,-110.8 133.38,-101.64"/>
<polygon fill="midnightblue" stroke="midnightblue" points="177.29,-135.59 187.54,-138.3 181.22,-129.79 177.29,-135.59"/>
</g>
<!-- Node3 -->
<g id="node3" class="node">
<title>Node3</title>
<g id="a_node3"><a xlink:href="Events_8hpp.html" target="_top" xlink:title=" ">
<polygon fill="none" stroke="black" points="240.5,-69.5 240.5,-101.5 377.5,-101.5 377.5,-69.5 240.5,-69.5"/>
<text text-anchor="start" x="248.5" y="-88.7" font-family="-apple-system,BlinkMacSystemFont,'SegoeUI',Roboto,Oxygen,Ubuntu,Cantarell,'FiraSans','DroidSans','HelveticaNeue',sans-serif" font-size="11.00">libmirai/public/libmirai</text>
<text text-anchor="middle" x="309" y="-76.7" font-family="-apple-system,BlinkMacSystemFont,'SegoeUI',Roboto,Oxygen,Ubuntu,Cantarell,'FiraSans','DroidSans','HelveticaNeue',sans-serif" font-size="11.00">/Events/Events.hpp</text>
</a>
</g>
</g>
<!-- Node1&#45;&gt;Node3 -->
<g id="edge2" class="edge">
<title>Node1&#45;&gt;Node3</title>
<path fill="none" stroke="midnightblue" d="M240.84,-132.63C255.66,-122.6 273.1,-110.8 286.62,-101.64"/>
<polygon fill="midnightblue" stroke="midnightblue" points="238.78,-129.79 232.46,-138.3 242.71,-135.59 238.78,-129.79"/>
</g>
<!-- Node4 -->
<g id="node4" class="node">
<title>Node4</title>
<g id="a_node4"><a xlink:href="mirai_8hpp.html" target="_top" xlink:title=" ">
<polygon fill="none" stroke="red" points="240.5,-0.5 240.5,-32.5 377.5,-32.5 377.5,-0.5 240.5,-0.5"/>
<text text-anchor="start" x="248.5" y="-19.7" font-family="-apple-system,BlinkMacSystemFont,'SegoeUI',Roboto,Oxygen,Ubuntu,Cantarell,'FiraSans','DroidSans','HelveticaNeue',sans-serif" font-size="11.00">libmirai/public/libmirai</text>
<text text-anchor="middle" x="309" y="-7.7" font-family="-apple-system,BlinkMacSystemFont,'SegoeUI',Roboto,Oxygen,Ubuntu,Cantarell,'FiraSans','DroidSans','HelveticaNeue',sans-serif" font-size="11.00">/mirai.hpp</text>
</a>
</g>
</g>
<!-- Node3&#45;&gt;Node4 -->
<g id="edge3" class="edge">
<title>Node3&#45;&gt;Node4</title>
<path fill="none" stroke="midnightblue" d="M309,-59.02C309,-50.13 309,-40.43 309,-32.64"/>
<polygon fill="midnightblue" stroke="midnightblue" points="305.5,-59.3 309,-69.3 312.5,-59.3 305.5,-59.3"/>
</g>
</g>
</svg>
