<?xml version="1.0" encoding="UTF-8" standalone="no"?>
<!DOCTYPE svg PUBLIC "-//W3C//DTD SVG 1.1//EN"
 "http://www.w3.org/Graphics/SVG/1.1/DTD/svg11.dtd">
<!-- Generated by graphviz version 2.43.0 (0)
 -->
<!-- Title: libmirai/public/libmirai/Events/CommandExecutedEvent.cpp Pages: 1 -->
<svg width="686pt" height="224pt"
 viewBox="0.00 0.00 686.21 224.00" xmlns="http://www.w3.org/2000/svg" xmlns:xlink="http://www.w3.org/1999/xlink">
<g id="graph0" class="graph" transform="scale(1 1) rotate(0) translate(4 220)">
<title>libmirai/public/libmirai/Events/CommandExecutedEvent.cpp</title>
<!-- Node1 -->
<g id="node1" class="node">
<title>Node1</title>
<g id="a_node1"><a xlink:title=" ">
<polygon fill="#bfbfbf" stroke="black" points="326.21,-183.5 326.21,-215.5 548.21,-215.5 548.21,-183.5 326.21,-183.5"/>
<text text-anchor="start" x="334.21" y="-202.7" font-family="-apple-system,BlinkMacSystemFont,'SegoeUI',Roboto,Oxygen,Ubuntu,Cantarell,'FiraSans','DroidSans','HelveticaNeue',sans-serif" font-size="11.00">libmirai/public/libmirai</text>
<text text-anchor="middle" x="437.21" y="-190.7" font-family="-apple-system,BlinkMacSystemFont,'SegoeUI',Roboto,Oxygen,Ubuntu,Cantarell,'FiraSans','DroidSans','HelveticaNeue',sans-serif" font-size="11.00">/Events/CommandExecutedEvent.cpp</text>
</a>
</g>
</g>
<!-- Node2 -->
<g id="node2" class="node">
<title>Node2</title>
<g id="a_node2"><a xlink:href="CommandExecutedEvent_8hpp.html" target="_top" xlink:title=" ">
<polygon fill="none" stroke="black" points="181.21,-126.5 181.21,-146.5 359.21,-146.5 359.21,-126.5 181.21,-126.5"/>
<text text-anchor="middle" x="270.21" y="-133.7" font-family="-apple-system,BlinkMacSystemFont,'SegoeUI',Roboto,Oxygen,Ubuntu,Cantarell,'FiraSans','DroidSans','HelveticaNeue',sans-serif" font-size="11.00">CommandExecutedEvent.hpp</text>
</a>
</g>
</g>
<!-- Node1&#45;&gt;Node2 -->
<g id="edge1" class="edge">
<title>Node1&#45;&gt;Node2</title>
<path fill="none" stroke="midnightblue" d="M395.92,-183.42C367.83,-173.16 331.09,-159.74 304.59,-150.06"/>
<polygon fill="midnightblue" stroke="midnightblue" points="305.56,-146.69 294.97,-146.55 303.16,-153.26 305.56,-146.69"/>
</g>
<!-- Node35 -->
<g id="node9" class="node">
<title>Node35</title>
<g id="a_node9"><a xlink:title=" ">
<polygon fill="none" stroke="#bfbfbf" points="376.71,-126.5 376.71,-146.5 497.71,-146.5 497.71,-126.5 376.71,-126.5"/>
<text text-anchor="middle" x="437.21" y="-133.7" font-family="-apple-system,BlinkMacSystemFont,'SegoeUI',Roboto,Oxygen,Ubuntu,Cantarell,'FiraSans','DroidSans','HelveticaNeue',sans-serif" font-size="11.00">nlohmann/json.hpp</text>
</a>
</g>
</g>
<!-- Node1&#45;&gt;Node35 -->
<g id="edge14" class="edge">
<title>Node1&#45;&gt;Node35</title>
<path fill="none" stroke="midnightblue" d="M437.21,-183.42C437.21,-175.38 437.21,-165.39 437.21,-156.78"/>
<polygon fill="midnightblue" stroke="midnightblue" points="440.71,-156.55 437.21,-146.55 433.71,-156.55 440.71,-156.55"/>
</g>
<!-- Node36 -->
<g id="node10" class="node">
<title>Node36</title>
<g id="a_node10"><a xlink:title=" ">
<polygon fill="none" stroke="#bfbfbf" points="516.21,-126.5 516.21,-146.5 678.21,-146.5 678.21,-126.5 516.21,-126.5"/>
<text text-anchor="middle" x="597.21" y="-133.7" font-family="-apple-system,BlinkMacSystemFont,'SegoeUI',Roboto,Oxygen,Ubuntu,Cantarell,'FiraSans','DroidSans','HelveticaNeue',sans-serif" font-size="11.00">libmirai/Utils/Common.hpp</text>
</a>
</g>
</g>
<!-- Node1&#45;&gt;Node36 -->
<g id="edge15" class="edge">
<title>Node1&#45;&gt;Node36</title>
<path fill="none" stroke="midnightblue" d="M476.76,-183.42C503.55,-173.21 538.56,-159.86 563.93,-150.19"/>
<polygon fill="midnightblue" stroke="midnightblue" points="565.38,-153.38 573.48,-146.55 562.89,-146.84 565.38,-153.38"/>
</g>
<!-- Node3 -->
<g id="node3" class="node">
<title>Node3</title>
<g id="a_node3"><a xlink:title=" ">
<polygon fill="none" stroke="#bfbfbf" points="37.71,-0.5 37.71,-20.5 98.71,-20.5 98.71,-0.5 37.71,-0.5"/>
<text text-anchor="middle" x="68.21" y="-7.7" font-family="-apple-system,BlinkMacSystemFont,'SegoeUI',Roboto,Oxygen,Ubuntu,Cantarell,'FiraSans','DroidSans','HelveticaNeue',sans-serif" font-size="11.00">optional</text>
</a>
</g>
</g>
<!-- Node2&#45;&gt;Node3 -->
<g id="edge2" class="edge">
<title>Node2&#45;&gt;Node3</title>
<path fill="none" stroke="midnightblue" d="M181.07,-132.12C113.44,-127.45 28.42,-116.37 6.21,-90 -3.24,-78.78 -0.42,-70.08 6.21,-57 13.05,-43.49 26.01,-33.01 38.31,-25.54"/>
<polygon fill="midnightblue" stroke="midnightblue" points="40.05,-28.58 47.06,-20.63 36.63,-22.47 40.05,-28.58"/>
</g>
<!-- Node4 -->
<g id="node4" class="node">
<title>Node4</title>
<g id="a_node4"><a xlink:title=" ">
<polygon fill="none" stroke="#bfbfbf" points="464.21,-0.5 464.21,-20.5 512.21,-20.5 512.21,-0.5 464.21,-0.5"/>
<text text-anchor="middle" x="488.21" y="-7.7" font-family="-apple-system,BlinkMacSystemFont,'SegoeUI',Roboto,Oxygen,Ubuntu,Cantarell,'FiraSans','DroidSans','HelveticaNeue',sans-serif" font-size="11.00">string</text>
</a>
</g>
</g>
<!-- Node2&#45;&gt;Node4 -->
<g id="edge3" class="edge">
<title>Node2&#45;&gt;Node4</title>
<path fill="none" stroke="midnightblue" d="M359.46,-126.6C435.69,-118.08 534.96,-104.42 547.21,-90 556.7,-78.82 553.68,-70.16 547.21,-57 540.7,-43.77 528.3,-33.31 516.53,-25.76"/>
<polygon fill="midnightblue" stroke="midnightblue" points="518.16,-22.66 507.77,-20.57 514.59,-28.68 518.16,-22.66"/>
</g>
<!-- Node5 -->
<g id="node5" class="node">
<title>Node5</title>
<g id="a_node5"><a xlink:title=" ">
<polygon fill="none" stroke="#bfbfbf" points="168.21,-0.5 168.21,-20.5 314.21,-20.5 314.21,-0.5 168.21,-0.5"/>
<text text-anchor="middle" x="241.21" y="-7.7" font-family="-apple-system,BlinkMacSystemFont,'SegoeUI',Roboto,Oxygen,Ubuntu,Cantarell,'FiraSans','DroidSans','HelveticaNeue',sans-serif" font-size="11.00">nlohmann/json_fwd.hpp</text>
</a>
</g>
</g>
<!-- Node2&#45;&gt;Node5 -->
<g id="edge4" class="edge">
<title>Node2&#45;&gt;Node5</title>
<path fill="none" stroke="midnightblue" d="M258.56,-126.48C248.89,-118.19 235.85,-104.96 230.21,-90 222.8,-70.35 228.13,-46.24 233.64,-29.96"/>
<polygon fill="midnightblue" stroke="midnightblue" points="236.95,-31.12 237.16,-20.53 230.39,-28.67 236.95,-31.12"/>
</g>
<!-- Node6 -->
<g id="node6" class="node">
<title>Node6</title>
<g id="a_node6"><a xlink:href="MessageChain_8hpp.html" target="_top" xlink:title=" ">
<polygon fill="none" stroke="red" points="15.21,-57.5 15.21,-89.5 183.21,-89.5 183.21,-57.5 15.21,-57.5"/>
<text text-anchor="start" x="23.21" y="-76.7" font-family="-apple-system,BlinkMacSystemFont,'SegoeUI',Roboto,Oxygen,Ubuntu,Cantarell,'FiraSans','DroidSans','HelveticaNeue',sans-serif" font-size="11.00">libmirai/Messages/Message</text>
<text text-anchor="middle" x="99.21" y="-64.7" font-family="-apple-system,BlinkMacSystemFont,'SegoeUI',Roboto,Oxygen,Ubuntu,Cantarell,'FiraSans','DroidSans','HelveticaNeue',sans-serif" font-size="11.00">Chain.hpp</text>
</a>
</g>
</g>
<!-- Node2&#45;&gt;Node6 -->
<g id="edge5" class="edge">
<title>Node2&#45;&gt;Node6</title>
<path fill="none" stroke="midnightblue" d="M244.97,-126.5C220.41,-117.74 182.35,-104.16 151.27,-93.07"/>
<polygon fill="midnightblue" stroke="midnightblue" points="152.05,-89.64 141.46,-89.57 149.7,-96.23 152.05,-89.64"/>
</g>
<!-- Node20 -->
<g id="node7" class="node">
<title>Node20</title>
<g id="a_node7"><a xlink:href="BasicTypes_8hpp.html" target="_top" xlink:title=" ">
<polygon fill="none" stroke="red" points="239.71,-63.5 239.71,-83.5 420.71,-83.5 420.71,-63.5 239.71,-63.5"/>
<text text-anchor="middle" x="330.21" y="-70.7" font-family="-apple-system,BlinkMacSystemFont,'SegoeUI',Roboto,Oxygen,Ubuntu,Cantarell,'FiraSans','DroidSans','HelveticaNeue',sans-serif" font-size="11.00">libmirai/Types/BasicTypes.hpp</text>
</a>
</g>
</g>
<!-- Node2&#45;&gt;Node20 -->
<g id="edge8" class="edge">
<title>Node2&#45;&gt;Node20</title>
<path fill="none" stroke="midnightblue" d="M279.06,-126.5C288.28,-117.13 302.91,-102.25 314.17,-90.8"/>
<polygon fill="midnightblue" stroke="midnightblue" points="316.8,-93.12 321.32,-83.54 311.81,-88.21 316.8,-93.12"/>
</g>
<!-- Node34 -->
<g id="node8" class="node">
<title>Node34</title>
<g id="a_node8"><a xlink:href="EventBase_8hpp.html" target="_top" xlink:title=" ">
<polygon fill="none" stroke="red" points="438.71,-63.5 438.71,-83.5 537.71,-83.5 537.71,-63.5 438.71,-63.5"/>
<text text-anchor="middle" x="488.21" y="-70.7" font-family="-apple-system,BlinkMacSystemFont,'SegoeUI',Roboto,Oxygen,Ubuntu,Cantarell,'FiraSans','DroidSans','HelveticaNeue',sans-serif" font-size="11.00">EventBase.hpp</text>
</a>
</g>
</g>
<!-- Node2&#45;&gt;Node34 -->
<g id="edge11" class="edge">
<title>Node2&#45;&gt;Node34</title>
<path fill="none" stroke="midnightblue" d="M302.37,-126.5C340.53,-115.82 404.25,-97.99 446.25,-86.24"/>
<polygon fill="midnightblue" stroke="midnightblue" points="447.22,-89.6 455.91,-83.54 445.33,-82.86 447.22,-89.6"/>
</g>
<!-- Node6&#45;&gt;Node3 -->
<g id="edge6" class="edge">
<title>Node6&#45;&gt;Node3</title>
<path fill="none" stroke="midnightblue" d="M91.54,-57.42C87.27,-49.01 81.92,-38.48 77.42,-29.63"/>
<polygon fill="midnightblue" stroke="midnightblue" points="80.45,-27.88 72.8,-20.55 74.21,-31.05 80.45,-27.88"/>
</g>
<!-- Node6&#45;&gt;Node5 -->
<g id="edge7" class="edge">
<title>Node6&#45;&gt;Node5</title>
<path fill="none" stroke="midnightblue" d="M134.31,-57.42C157.77,-47.34 188.34,-34.21 210.77,-24.57"/>
<polygon fill="midnightblue" stroke="midnightblue" points="212.34,-27.71 220.15,-20.55 209.58,-21.28 212.34,-27.71"/>
</g>
<!-- Node20&#45;&gt;Node4 -->
<g id="edge9" class="edge">
<title>Node20&#45;&gt;Node4</title>
<path fill="none" stroke="midnightblue" d="M353.52,-63.5C380.47,-53.09 425.03,-35.89 455.45,-24.14"/>
<polygon fill="midnightblue" stroke="midnightblue" points="456.73,-27.4 464.8,-20.54 454.21,-20.87 456.73,-27.4"/>
</g>
<!-- Node20&#45;&gt;Node5 -->
<g id="edge10" class="edge">
<title>Node20&#45;&gt;Node5</title>
<path fill="none" stroke="midnightblue" d="M317.07,-63.5C302.88,-53.77 280.01,-38.1 263.09,-26.5"/>
<polygon fill="midnightblue" stroke="midnightblue" points="264.62,-23.3 254.39,-20.54 260.66,-29.08 264.62,-23.3"/>
</g>
<!-- Node34&#45;&gt;Node4 -->
<g id="edge12" class="edge">
<title>Node34&#45;&gt;Node4</title>
<path fill="none" stroke="midnightblue" d="M488.21,-63.5C488.21,-54.94 488.21,-41.78 488.21,-30.85"/>
<polygon fill="midnightblue" stroke="midnightblue" points="491.71,-30.54 488.21,-20.54 484.71,-30.54 491.71,-30.54"/>
</g>
<!-- Node34&#45;&gt;Node5 -->
<g id="edge13" class="edge">
<title>Node34&#45;&gt;Node5</title>
<path fill="none" stroke="midnightblue" d="M454.81,-63.42C446.76,-61.28 438.19,-59.03 430.21,-57 382.61,-44.91 328.07,-31.87 289.84,-22.86"/>
<polygon fill="midnightblue" stroke="midnightblue" points="290.54,-19.43 280.01,-20.54 288.94,-26.24 290.54,-19.43"/>
</g>
</g>
</svg>
