<?xml version="1.0" encoding="UTF-8" standalone="no"?>
<!DOCTYPE svg PUBLIC "-//W3C//DTD SVG 1.1//EN"
 "http://www.w3.org/Graphics/SVG/1.1/DTD/svg11.dtd">
<!-- Generated by graphviz version 2.43.0 (0)
 -->
<!-- Title: libmirai/public/libmirai/Messages/DiceMessage.hpp Pages: 1 -->
<svg width="440pt" height="212pt"
 viewBox="0.00 0.00 440.00 212.00" xmlns="http://www.w3.org/2000/svg" xmlns:xlink="http://www.w3.org/1999/xlink">
<g id="graph0" class="graph" transform="scale(1 1) rotate(0) translate(4 208)">
<title>libmirai/public/libmirai/Messages/DiceMessage.hpp</title>
<!-- Node1 -->
<g id="node1" class="node">
<title>Node1</title>
<g id="a_node1"><a xlink:title=" ">
<polygon fill="#bfbfbf" stroke="black" points="0,-171.5 0,-203.5 176,-203.5 176,-171.5 0,-171.5"/>
<text text-anchor="start" x="8" y="-190.7" font-family="-apple-system,BlinkMacSystemFont,'SegoeUI',Roboto,Oxygen,Ubuntu,Cantarell,'FiraSans','DroidSans','HelveticaNeue',sans-serif" font-size="11.00">libmirai/public/libmirai</text>
<text text-anchor="middle" x="88" y="-178.7" font-family="-apple-system,BlinkMacSystemFont,'SegoeUI',Roboto,Oxygen,Ubuntu,Cantarell,'FiraSans','DroidSans','HelveticaNeue',sans-serif" font-size="11.00">/Messages/DiceMessage.hpp</text>
</a>
</g>
</g>
<!-- Node2 -->
<g id="node2" class="node">
<title>Node2</title>
<g id="a_node2"><a xlink:title=" ">
<polygon fill="none" stroke="#bfbfbf" points="64,-57.5 64,-77.5 112,-77.5 112,-57.5 64,-57.5"/>
<text text-anchor="middle" x="88" y="-64.7" font-family="-apple-system,BlinkMacSystemFont,'SegoeUI',Roboto,Oxygen,Ubuntu,Cantarell,'FiraSans','DroidSans','HelveticaNeue',sans-serif" font-size="11.00">string</text>
</a>
</g>
</g>
<!-- Node1&#45;&gt;Node2 -->
<g id="edge1" class="edge">
<title>Node1&#45;&gt;Node2</title>
<path fill="none" stroke="midnightblue" d="M88,-171.07C88,-149.71 88,-111.11 88,-87.84"/>
<polygon fill="midnightblue" stroke="midnightblue" points="91.5,-87.79 88,-77.79 84.5,-87.79 91.5,-87.79"/>
</g>
<!-- Node3 -->
<g id="node3" class="node">
<title>Node3</title>
<g id="a_node3"><a xlink:title=" ">
<polygon fill="none" stroke="#bfbfbf" points="149,-0.5 149,-20.5 295,-20.5 295,-0.5 149,-0.5"/>
<text text-anchor="middle" x="222" y="-7.7" font-family="-apple-system,BlinkMacSystemFont,'SegoeUI',Roboto,Oxygen,Ubuntu,Cantarell,'FiraSans','DroidSans','HelveticaNeue',sans-serif" font-size="11.00">nlohmann/json_fwd.hpp</text>
</a>
</g>
</g>
<!-- Node1&#45;&gt;Node3 -->
<g id="edge2" class="edge">
<title>Node1&#45;&gt;Node3</title>
<path fill="none" stroke="midnightblue" d="M76.65,-171.28C58.73,-145.25 28.52,-91.66 55,-57 66.9,-41.43 110.03,-29.91 149.48,-22.36"/>
<polygon fill="midnightblue" stroke="midnightblue" points="150.21,-25.78 159.41,-20.53 148.94,-18.9 150.21,-25.78"/>
</g>
<!-- Node4 -->
<g id="node4" class="node">
<title>Node4</title>
<g id="a_node4"><a xlink:href="MessageBase_8hpp.html" target="_top" xlink:title=" ">
<polygon fill="none" stroke="black" points="164,-114.5 164,-134.5 280,-134.5 280,-114.5 164,-114.5"/>
<text text-anchor="middle" x="222" y="-121.7" font-family="-apple-system,BlinkMacSystemFont,'SegoeUI',Roboto,Oxygen,Ubuntu,Cantarell,'FiraSans','DroidSans','HelveticaNeue',sans-serif" font-size="11.00">MessageBase.hpp</text>
</a>
</g>
</g>
<!-- Node1&#45;&gt;Node4 -->
<g id="edge3" class="edge">
<title>Node1&#45;&gt;Node4</title>
<path fill="none" stroke="midnightblue" d="M121.12,-171.42C143.17,-161.39 171.85,-148.33 193,-138.7"/>
<polygon fill="midnightblue" stroke="midnightblue" points="194.48,-141.87 202.13,-134.55 191.58,-135.5 194.48,-141.87"/>
</g>
<!-- Node4&#45;&gt;Node2 -->
<g id="edge5" class="edge">
<title>Node4&#45;&gt;Node2</title>
<path fill="none" stroke="midnightblue" d="M199.87,-114.42C177.95,-105.42 144.18,-91.56 119.47,-81.42"/>
<polygon fill="midnightblue" stroke="midnightblue" points="120.74,-78.15 110.16,-77.6 118.08,-84.63 120.74,-78.15"/>
</g>
<!-- Node4&#45;&gt;Node3 -->
<g id="edge6" class="edge">
<title>Node4&#45;&gt;Node3</title>
<path fill="none" stroke="midnightblue" d="M267.75,-114.42C288,-107.88 309.92,-96.77 322,-78 338.54,-52.31 303.38,-34.24 270.29,-23.49"/>
<polygon fill="midnightblue" stroke="midnightblue" points="271.18,-20.1 260.6,-20.52 269.13,-26.79 271.18,-20.1"/>
</g>
<!-- Node5 -->
<g id="node5" class="node">
<title>Node5</title>
<g id="a_node5"><a xlink:title=" ">
<polygon fill="none" stroke="#bfbfbf" points="370,-57.5 370,-77.5 432,-77.5 432,-57.5 370,-57.5"/>
<text text-anchor="middle" x="401" y="-64.7" font-family="-apple-system,BlinkMacSystemFont,'SegoeUI',Roboto,Oxygen,Ubuntu,Cantarell,'FiraSans','DroidSans','HelveticaNeue',sans-serif" font-size="11.00">memory</text>
</a>
</g>
</g>
<!-- Node4&#45;&gt;Node5 -->
<g id="edge4" class="edge">
<title>Node4&#45;&gt;Node5</title>
<path fill="none" stroke="midnightblue" d="M251.56,-114.42C281.7,-105.15 328.64,-90.73 361.86,-80.53"/>
<polygon fill="midnightblue" stroke="midnightblue" points="363.16,-83.79 371.7,-77.5 361.11,-77.1 363.16,-83.79"/>
</g>
<!-- Node6 -->
<g id="node6" class="node">
<title>Node6</title>
<g id="a_node6"><a xlink:href="Serializable_8hpp.html" target="_top" xlink:title=" ">
<polygon fill="none" stroke="black" points="130.5,-57.5 130.5,-77.5 313.5,-77.5 313.5,-57.5 130.5,-57.5"/>
<text text-anchor="middle" x="222" y="-64.7" font-family="-apple-system,BlinkMacSystemFont,'SegoeUI',Roboto,Oxygen,Ubuntu,Cantarell,'FiraSans','DroidSans','HelveticaNeue',sans-serif" font-size="11.00">libmirai/Types/Serializable.hpp</text>
</a>
</g>
</g>
<!-- Node4&#45;&gt;Node6 -->
<g id="edge7" class="edge">
<title>Node4&#45;&gt;Node6</title>
<path fill="none" stroke="midnightblue" d="M222,-114.42C222,-107.22 222,-96.9 222,-87.86"/>
<polygon fill="midnightblue" stroke="midnightblue" points="225.5,-87.78 222,-77.78 218.5,-87.78 225.5,-87.78"/>
</g>
<!-- Node6&#45;&gt;Node3 -->
<g id="edge8" class="edge">
<title>Node6&#45;&gt;Node3</title>
<path fill="none" stroke="midnightblue" d="M222,-57.42C222,-50.22 222,-39.9 222,-30.86"/>
<polygon fill="midnightblue" stroke="midnightblue" points="225.5,-30.78 222,-20.78 218.5,-30.78 225.5,-30.78"/>
</g>
</g>
</svg>
