<?xml version="1.0" encoding="UTF-8" standalone="no"?>
<!DOCTYPE svg PUBLIC "-//W3C//DTD SVG 1.1//EN"
 "http://www.w3.org/Graphics/SVG/1.1/DTD/svg11.dtd">
<!-- Generated by graphviz version 3.0.0 (20221109.1736)
 -->
<!-- Title: libmirai/models/libmirai/Messages/DiceMessage.hpp Pages: 1 -->
<svg width="443pt" height="212pt"
 viewBox="0.00 0.00 443.00 212.00" xmlns="http://www.w3.org/2000/svg" xmlns:xlink="http://www.w3.org/1999/xlink">
<g id="graph0" class="graph" transform="scale(1 1) rotate(0) translate(4 208)">
<title>libmirai/models/libmirai/Messages/DiceMessage.hpp</title>
<!-- Node1 -->
<g id="node1" class="node">
<title>Node1</title>
<g id="a_node1"><a xlink:title=" ">
<polygon fill="#bfbfbf" stroke="black" points="0,-171.5 0,-203.5 157,-203.5 157,-171.5 0,-171.5"/>
<text text-anchor="start" x="8" y="-190.7" font-family="-apple-system, BlinkMacSystemFont, 'Segoe UI', Roboto, Oxygen, Ubuntu, Cantarell, 'Fira Sans', 'Droid Sans', 'Helvetica Neue', sans-serif" font-size="11.00">libmirai/models/libmirai</text>
<text text-anchor="middle" x="78.5" y="-178.7" font-family="-apple-system, BlinkMacSystemFont, 'Segoe UI', Roboto, Oxygen, Ubuntu, Cantarell, 'Fira Sans', 'Droid Sans', 'Helvetica Neue', sans-serif" font-size="11.00">/Messages/DiceMessage.hpp</text>
</a>
</g>
</g>
<!-- Node2 -->
<g id="node2" class="node">
<title>Node2</title>
<g id="a_node2"><a xlink:title=" ">
<polygon fill="none" stroke="#bfbfbf" points="48,-0.5 48,-20.5 91,-20.5 91,-0.5 48,-0.5"/>
<text text-anchor="middle" x="69.5" y="-7.7" font-family="-apple-system, BlinkMacSystemFont, 'Segoe UI', Roboto, Oxygen, Ubuntu, Cantarell, 'Fira Sans', 'Droid Sans', 'Helvetica Neue', sans-serif" font-size="11.00">string</text>
</a>
</g>
</g>
<!-- Node1&#45;&gt;Node2 -->
<g id="edge1" class="edge">
<title>Node1&#45;&gt;Node2</title>
<path fill="none" stroke="midnightblue" d="M77.16,-171.19C76.3,-160.95 75.22,-147.18 74.5,-135 72.33,-98.2 70.82,-55.17 70.06,-30.85"/>
<polygon fill="midnightblue" stroke="midnightblue" points="73.56,-30.69 69.76,-20.8 66.56,-30.9 73.56,-30.69"/>
</g>
<!-- Node3 -->
<g id="node3" class="node">
<title>Node3</title>
<g id="a_node3"><a xlink:href="IMessage_8hpp.html" target="_top" xlink:title=" ">
<polygon fill="none" stroke="black" points="83.5,-114.5 83.5,-134.5 167.5,-134.5 167.5,-114.5 83.5,-114.5"/>
<text text-anchor="middle" x="125.5" y="-121.7" font-family="-apple-system, BlinkMacSystemFont, 'Segoe UI', Roboto, Oxygen, Ubuntu, Cantarell, 'Fira Sans', 'Droid Sans', 'Helvetica Neue', sans-serif" font-size="11.00">IMessage.hpp</text>
</a>
</g>
</g>
<!-- Node1&#45;&gt;Node3 -->
<g id="edge2" class="edge">
<title>Node1&#45;&gt;Node3</title>
<path fill="none" stroke="midnightblue" d="M90.12,-171.42C96.87,-162.65 105.41,-151.57 112.4,-142.5"/>
<polygon fill="midnightblue" stroke="midnightblue" points="115.2,-144.6 118.53,-134.55 109.65,-140.33 115.2,-144.6"/>
</g>
<!-- Node3&#45;&gt;Node2 -->
<g id="edge4" class="edge">
<title>Node3&#45;&gt;Node2</title>
<path fill="none" stroke="midnightblue" d="M116.01,-114.21C107.66,-105.55 95.75,-91.9 88.5,-78 80.7,-63.03 75.73,-44.44 72.84,-30.72"/>
<polygon fill="midnightblue" stroke="midnightblue" points="76.21,-29.7 70.89,-20.54 69.34,-31.02 76.21,-29.7"/>
</g>
<!-- Node4 -->
<g id="node4" class="node">
<title>Node4</title>
<g id="a_node4"><a xlink:title=" ">
<polygon fill="none" stroke="#bfbfbf" points="97.5,-57.5 97.5,-77.5 153.5,-77.5 153.5,-57.5 97.5,-57.5"/>
<text text-anchor="middle" x="125.5" y="-64.7" font-family="-apple-system, BlinkMacSystemFont, 'Segoe UI', Roboto, Oxygen, Ubuntu, Cantarell, 'Fira Sans', 'Droid Sans', 'Helvetica Neue', sans-serif" font-size="11.00">memory</text>
</a>
</g>
</g>
<!-- Node3&#45;&gt;Node4 -->
<g id="edge3" class="edge">
<title>Node3&#45;&gt;Node4</title>
<path fill="none" stroke="midnightblue" d="M125.5,-114.42C125.5,-107.22 125.5,-96.9 125.5,-87.86"/>
<polygon fill="midnightblue" stroke="midnightblue" points="129,-87.78 125.5,-77.78 122,-87.78 129,-87.78"/>
</g>
<!-- Node5 -->
<g id="node5" class="node">
<title>Node5</title>
<g id="a_node5"><a xlink:title=" ">
<polygon fill="none" stroke="#bfbfbf" points="171.5,-57.5 171.5,-77.5 237.5,-77.5 237.5,-57.5 171.5,-57.5"/>
<text text-anchor="middle" x="204.5" y="-64.7" font-family="-apple-system, BlinkMacSystemFont, 'Segoe UI', Roboto, Oxygen, Ubuntu, Cantarell, 'Fira Sans', 'Droid Sans', 'Helvetica Neue', sans-serif" font-size="11.00">type_traits</text>
</a>
</g>
</g>
<!-- Node3&#45;&gt;Node5 -->
<g id="edge5" class="edge">
<title>Node3&#45;&gt;Node5</title>
<path fill="none" stroke="midnightblue" d="M138.55,-114.42C150.67,-105.98 168.94,-93.26 183.18,-83.34"/>
<polygon fill="midnightblue" stroke="midnightblue" points="185.23,-86.18 191.44,-77.6 181.23,-80.44 185.23,-86.18"/>
</g>
<!-- Node6 -->
<g id="node6" class="node">
<title>Node6</title>
<g id="a_node6"><a xlink:href="MessageTypes_8hpp.html" target="_top" xlink:title=" ">
<polygon fill="none" stroke="red" points="256,-57.5 256,-77.5 435,-77.5 435,-57.5 256,-57.5"/>
<text text-anchor="middle" x="345.5" y="-64.7" font-family="-apple-system, BlinkMacSystemFont, 'Segoe UI', Roboto, Oxygen, Ubuntu, Cantarell, 'Fira Sans', 'Droid Sans', 'Helvetica Neue', sans-serif" font-size="11.00">libmirai/Types/MessageTypes.hpp</text>
</a>
</g>
</g>
<!-- Node3&#45;&gt;Node6 -->
<g id="edge6" class="edge">
<title>Node3&#45;&gt;Node6</title>
<path fill="none" stroke="midnightblue" d="M161.83,-114.42C199.6,-104.98 258.82,-90.17 299.75,-79.94"/>
<polygon fill="midnightblue" stroke="midnightblue" points="300.63,-83.33 309.48,-77.5 298.93,-76.53 300.63,-83.33"/>
</g>
<!-- Node6&#45;&gt;Node2 -->
<g id="edge7" class="edge">
<title>Node6&#45;&gt;Node2</title>
<path fill="none" stroke="midnightblue" d="M300.23,-57.48C244.1,-46.29 149.86,-27.51 101,-17.78"/>
<polygon fill="midnightblue" stroke="midnightblue" points="101.51,-14.31 91.02,-15.79 100.14,-21.17 101.51,-14.31"/>
</g>
</g>
</svg>
