<?xml version="1.0" encoding="UTF-8" standalone="no"?>
<!DOCTYPE svg PUBLIC "-//W3C//DTD SVG 1.1//EN"
 "http://www.w3.org/Graphics/SVG/1.1/DTD/svg11.dtd">
<!-- Generated by graphviz version 2.43.0 (0)
 -->
<!-- Title: libmirai/public/libmirai/Api Pages: 1 -->
<svg width="196pt" height="296pt"
 viewBox="0.00 0.00 195.80 296.00" xmlns="http://www.w3.org/2000/svg" xmlns:xlink="http://www.w3.org/1999/xlink">
<g id="graph0" class="graph" transform="scale(1 1) rotate(0) translate(4 292)">
<title>libmirai/public/libmirai/Api</title>
<g id="clust1" class="cluster">
<title>clusterdir_6046cf5b588b7c8cda8a2c8a9a5afa80</title>
<g id="a_clust1"><a xlink:href="dir_6046cf5b588b7c8cda8a2c8a9a5afa80.html" target="_top" xlink:title="libmirai">
<polygon fill="#ddddee" stroke="black" points="73,-208 73,-280 143,-280 143,-208 73,-208"/>
<text text-anchor="middle" x="108" y="-267.2" font-family="-apple-system,BlinkMacSystemFont,'SegoeUI',Roboto,Oxygen,Ubuntu,Cantarell,'FiraSans','DroidSans','HelveticaNeue',sans-serif" font-size="11.00">libmirai</text>
</a>
</g>
</g>
<!-- dir_f1f660cd1ca655256dd9360f3608b155 -->
<g id="node1" class="node">
<title>dir_f1f660cd1ca655256dd9360f3608b155</title>
<g id="a_node1"><a xlink:href="dir_f1f660cd1ca655256dd9360f3608b155.html" target="_top" xlink:title="Api">
<polygon fill="#eeeeff" stroke="black" points="135,-252 81,-252 81,-216 135,-216 135,-252"/>
<text text-anchor="middle" x="108" y="-231.2" font-family="-apple-system,BlinkMacSystemFont,'SegoeUI',Roboto,Oxygen,Ubuntu,Cantarell,'FiraSans','DroidSans','HelveticaNeue',sans-serif" font-size="11.00">Api</text>
</a>
</g>
</g>
<!-- dir_c64ef95c53891570beeeee3d656466cb -->
<g id="node2" class="node">
<title>dir_c64ef95c53891570beeeee3d656466cb</title>
<g id="a_node2"><a xlink:href="dir_c64ef95c53891570beeeee3d656466cb.html" target="_top" xlink:title="Messages">
<polygon fill="none" stroke="black" points="175.5,-108 104.5,-108 104.5,-72 175.5,-72 175.5,-108"/>
<text text-anchor="middle" x="140" y="-87.2" font-family="-apple-system,BlinkMacSystemFont,'SegoeUI',Roboto,Oxygen,Ubuntu,Cantarell,'FiraSans','DroidSans','HelveticaNeue',sans-serif" font-size="11.00">Messages</text>
</a>
</g>
</g>
<!-- dir_f1f660cd1ca655256dd9360f3608b155&#45;&gt;dir_c64ef95c53891570beeeee3d656466cb -->
<g id="edge6" class="edge">
<title>dir_f1f660cd1ca655256dd9360f3608b155&#45;&gt;dir_c64ef95c53891570beeeee3d656466cb</title>
<path fill="none" stroke="black" d="M111.86,-215.87C117.34,-191.56 127.42,-146.82 133.91,-118.01"/>
<polygon fill="black" stroke="black" points="137.34,-118.71 136.13,-108.19 130.51,-117.18 137.34,-118.71"/>
<g id="a_edge6&#45;headlabel"><a xlink:href="dir_000005_000008.html" target="_top" xlink:title="2">
<text text-anchor="middle" x="139.32" y="-120.04" font-family="-apple-system,BlinkMacSystemFont,'SegoeUI',Roboto,Oxygen,Ubuntu,Cantarell,'FiraSans','DroidSans','HelveticaNeue',sans-serif" font-size="11.00">2</text>
</a>
</g>
</g>
<!-- dir_b347b0cf57ea4859dbc7be1fc5cc5095 -->
<g id="node3" class="node">
<title>dir_b347b0cf57ea4859dbc7be1fc5cc5095</title>
<g id="a_node3"><a xlink:href="dir_b347b0cf57ea4859dbc7be1fc5cc5095.html" target="_top" xlink:title="Events">
<polygon fill="none" stroke="black" points="105,-180 51,-180 51,-144 105,-144 105,-180"/>
<text text-anchor="middle" x="78" y="-159.2" font-family="-apple-system,BlinkMacSystemFont,'SegoeUI',Roboto,Oxygen,Ubuntu,Cantarell,'FiraSans','DroidSans','HelveticaNeue',sans-serif" font-size="11.00">Events</text>
</a>
</g>
</g>
<!-- dir_f1f660cd1ca655256dd9360f3608b155&#45;&gt;dir_b347b0cf57ea4859dbc7be1fc5cc5095 -->
<g id="edge7" class="edge">
<title>dir_f1f660cd1ca655256dd9360f3608b155&#45;&gt;dir_b347b0cf57ea4859dbc7be1fc5cc5095</title>
<path fill="none" stroke="black" d="M100.58,-215.7C97.21,-207.81 93.13,-198.3 89.38,-189.55"/>
<polygon fill="black" stroke="black" points="92.49,-187.92 85.33,-180.1 86.05,-190.67 92.49,-187.92"/>
<g id="a_edge7&#45;headlabel"><a xlink:href="dir_000005_000006.html" target="_top" xlink:title="16">
<text text-anchor="middle" x="96.51" y="-187.3" font-family="-apple-system,BlinkMacSystemFont,'SegoeUI',Roboto,Oxygen,Ubuntu,Cantarell,'FiraSans','DroidSans','HelveticaNeue',sans-serif" font-size="11.00">16</text>
</a>
</g>
</g>
<!-- dir_82c7da998ff76e62b0b254ecb47557a2 -->
<g id="node4" class="node">
<title>dir_82c7da998ff76e62b0b254ecb47557a2</title>
<g id="a_node4"><a xlink:href="dir_82c7da998ff76e62b0b254ecb47557a2.html" target="_top" xlink:title="Exceptions">
<polygon fill="none" stroke="black" points="76,-36 0,-36 0,0 76,0 76,-36"/>
<text text-anchor="middle" x="38" y="-15.2" font-family="-apple-system,BlinkMacSystemFont,'SegoeUI',Roboto,Oxygen,Ubuntu,Cantarell,'FiraSans','DroidSans','HelveticaNeue',sans-serif" font-size="11.00">Exceptions</text>
</a>
</g>
</g>
<!-- dir_f1f660cd1ca655256dd9360f3608b155&#45;&gt;dir_82c7da998ff76e62b0b254ecb47557a2 -->
<g id="edge8" class="edge">
<title>dir_f1f660cd1ca655256dd9360f3608b155&#45;&gt;dir_82c7da998ff76e62b0b254ecb47557a2</title>
<path fill="none" stroke="black" d="M80.92,-218.93C66.59,-209.9 50.28,-196.73 42,-180 20.74,-137.04 26.16,-79.41 32.06,-46.03"/>
<polygon fill="black" stroke="black" points="35.52,-46.57 33.96,-36.09 28.65,-45.26 35.52,-46.57"/>
<g id="a_edge8&#45;headlabel"><a xlink:href="dir_000005_000007.html" target="_top" xlink:title="1">
<text text-anchor="middle" x="37.64" y="-47.83" font-family="-apple-system,BlinkMacSystemFont,'SegoeUI',Roboto,Oxygen,Ubuntu,Cantarell,'FiraSans','DroidSans','HelveticaNeue',sans-serif" font-size="11.00">1</text>
</a>
</g>
</g>
<!-- dir_40c6e2b8f2227bab670803ea83edefba -->
<g id="node5" class="node">
<title>dir_40c6e2b8f2227bab670803ea83edefba</title>
<g id="a_node5"><a xlink:href="dir_40c6e2b8f2227bab670803ea83edefba.html" target="_top" xlink:title="Types">
<polygon fill="none" stroke="black" points="167,-36 113,-36 113,0 167,0 167,-36"/>
<text text-anchor="middle" x="140" y="-15.2" font-family="-apple-system,BlinkMacSystemFont,'SegoeUI',Roboto,Oxygen,Ubuntu,Cantarell,'FiraSans','DroidSans','HelveticaNeue',sans-serif" font-size="11.00">Types</text>
</a>
</g>
</g>
<!-- dir_f1f660cd1ca655256dd9360f3608b155&#45;&gt;dir_40c6e2b8f2227bab670803ea83edefba -->
<g id="edge9" class="edge">
<title>dir_f1f660cd1ca655256dd9360f3608b155&#45;&gt;dir_40c6e2b8f2227bab670803ea83edefba</title>
<path fill="none" stroke="black" d="M122.73,-215.84C141.25,-193.01 172.08,-150.55 184,-108 188.32,-92.59 189.43,-87.05 184,-72 180.25,-61.6 173.46,-51.8 166.33,-43.52"/>
<polygon fill="black" stroke="black" points="168.83,-41.06 159.47,-36.08 163.68,-45.81 168.83,-41.06"/>
<g id="a_edge9&#45;headlabel"><a xlink:href="dir_000005_000009.html" target="_top" xlink:title="3">
<text text-anchor="middle" x="173.35" y="-38.98" font-family="-apple-system,BlinkMacSystemFont,'SegoeUI',Roboto,Oxygen,Ubuntu,Cantarell,'FiraSans','DroidSans','HelveticaNeue',sans-serif" font-size="11.00">3</text>
</a>
</g>
</g>
<!-- dir_c64ef95c53891570beeeee3d656466cb&#45;&gt;dir_82c7da998ff76e62b0b254ecb47557a2 -->
<g id="edge1" class="edge">
<title>dir_c64ef95c53891570beeeee3d656466cb&#45;&gt;dir_82c7da998ff76e62b0b254ecb47557a2</title>
<path fill="none" stroke="black" d="M115.05,-71.88C101.96,-62.89 85.74,-51.76 71.56,-42.03"/>
<polygon fill="black" stroke="black" points="73.27,-38.96 63.05,-36.19 69.31,-44.73 73.27,-38.96"/>
<g id="a_edge1&#45;headlabel"><a xlink:href="dir_000008_000007.html" target="_top" xlink:title="1">
<text text-anchor="middle" x="77.84" y="-35.86" font-family="-apple-system,BlinkMacSystemFont,'SegoeUI',Roboto,Oxygen,Ubuntu,Cantarell,'FiraSans','DroidSans','HelveticaNeue',sans-serif" font-size="11.00">1</text>
</a>
</g>
</g>
<!-- dir_c64ef95c53891570beeeee3d656466cb&#45;&gt;dir_40c6e2b8f2227bab670803ea83edefba -->
<g id="edge2" class="edge">
<title>dir_c64ef95c53891570beeeee3d656466cb&#45;&gt;dir_40c6e2b8f2227bab670803ea83edefba</title>
<path fill="none" stroke="black" d="M140,-71.7C140,-63.98 140,-54.71 140,-46.11"/>
<polygon fill="black" stroke="black" points="143.5,-46.1 140,-36.1 136.5,-46.1 143.5,-46.1"/>
<g id="a_edge2&#45;headlabel"><a xlink:href="dir_000008_000009.html" target="_top" xlink:title="10">
<text text-anchor="middle" x="146.34" y="-46.9" font-family="-apple-system,BlinkMacSystemFont,'SegoeUI',Roboto,Oxygen,Ubuntu,Cantarell,'FiraSans','DroidSans','HelveticaNeue',sans-serif" font-size="11.00">10</text>
</a>
</g>
</g>
<!-- dir_b347b0cf57ea4859dbc7be1fc5cc5095&#45;&gt;dir_c64ef95c53891570beeeee3d656466cb -->
<g id="edge3" class="edge">
<title>dir_b347b0cf57ea4859dbc7be1fc5cc5095&#45;&gt;dir_c64ef95c53891570beeeee3d656466cb</title>
<path fill="none" stroke="black" d="M93.33,-143.7C100.76,-135.3 109.82,-125.07 117.98,-115.86"/>
<polygon fill="black" stroke="black" points="120.84,-117.91 124.85,-108.1 115.6,-113.27 120.84,-117.91"/>
<g id="a_edge3&#45;headlabel"><a xlink:href="dir_000006_000008.html" target="_top" xlink:title="10">
<text text-anchor="middle" x="120.58" y="-119.68" font-family="-apple-system,BlinkMacSystemFont,'SegoeUI',Roboto,Oxygen,Ubuntu,Cantarell,'FiraSans','DroidSans','HelveticaNeue',sans-serif" font-size="11.00">10</text>
</a>
</g>
</g>
<!-- dir_b347b0cf57ea4859dbc7be1fc5cc5095&#45;&gt;dir_82c7da998ff76e62b0b254ecb47557a2 -->
<g id="edge4" class="edge">
<title>dir_b347b0cf57ea4859dbc7be1fc5cc5095&#45;&gt;dir_82c7da998ff76e62b0b254ecb47557a2</title>
<path fill="none" stroke="black" d="M72.68,-143.85C69.5,-133.49 65.43,-120.01 62,-108 56.1,-87.36 49.79,-63.91 45.13,-46.26"/>
<polygon fill="black" stroke="black" points="48.38,-44.88 42.45,-36.1 41.61,-46.67 48.38,-44.88"/>
<g id="a_edge4&#45;headlabel"><a xlink:href="dir_000006_000007.html" target="_top" xlink:title="1">
<text text-anchor="middle" x="52.04" y="-44.83" font-family="-apple-system,BlinkMacSystemFont,'SegoeUI',Roboto,Oxygen,Ubuntu,Cantarell,'FiraSans','DroidSans','HelveticaNeue',sans-serif" font-size="11.00">1</text>
</a>
</g>
</g>
<!-- dir_b347b0cf57ea4859dbc7be1fc5cc5095&#45;&gt;dir_40c6e2b8f2227bab670803ea83edefba -->
<g id="edge5" class="edge">
<title>dir_b347b0cf57ea4859dbc7be1fc5cc5095&#45;&gt;dir_40c6e2b8f2227bab670803ea83edefba</title>
<path fill="none" stroke="black" d="M78.69,-143.79C80.02,-125.25 83.86,-95.27 95,-72 99.82,-61.93 107.02,-52.23 114.27,-43.93"/>
<polygon fill="black" stroke="black" points="116.96,-46.18 121.14,-36.44 111.8,-41.44 116.96,-46.18"/>
<g id="a_edge5&#45;headlabel"><a xlink:href="dir_000006_000009.html" target="_top" xlink:title="45">
<text text-anchor="middle" x="116.62" y="-47.94" font-family="-apple-system,BlinkMacSystemFont,'SegoeUI',Roboto,Oxygen,Ubuntu,Cantarell,'FiraSans','DroidSans','HelveticaNeue',sans-serif" font-size="11.00">45</text>
</a>
</g>
</g>
</g>
</svg>
