<?xml version="1.0" encoding="UTF-8" standalone="no"?>
<!DOCTYPE svg PUBLIC "-//W3C//DTD SVG 1.1//EN"
 "http://www.w3.org/Graphics/SVG/1.1/DTD/svg11.dtd">
<!-- Generated by graphviz version 3.0.0 (20220413.0242)
 -->
<!-- Title: libmirai/public/libmirai Pages: 1 -->
<svg width="302pt" height="400pt"
 viewBox="0.00 0.00 302.00 400.00" xmlns="http://www.w3.org/2000/svg" xmlns:xlink="http://www.w3.org/1999/xlink">
<g id="graph0" class="graph" transform="scale(1 1) rotate(0) translate(4 396)">
<title>libmirai/public/libmirai</title>
<g id="clust1" class="cluster">
<title>clusterdir_2432e6d01588bf5829668ddc0aacd348</title>
<g id="a_clust1"><a xlink:href="dir_2432e6d01588bf5829668ddc0aacd348.html" target="_top" xlink:title="public">
<polygon fill="#daedff" stroke="#7f7f7f" stroke-dasharray="5,2" points="8,-8 8,-384 286,-384 286,-8 8,-8"/>
<text text-anchor="middle" x="147" y="-371.2" font-family="-apple-system, BlinkMacSystemFont, 'Segoe UI', Roboto, Oxygen, Ubuntu, Cantarell, 'Fira Sans', 'Droid Sans', 'Helvetica Neue', sans-serif" font-size="11.00">public</text>
</a>
</g>
</g>
<g id="clust2" class="cluster">
<title>clusterdir_6046cf5b588b7c8cda8a2c8a9a5afa80</title>
<g id="a_clust2"><a xlink:href="dir_6046cf5b588b7c8cda8a2c8a9a5afa80.html" target="_top">
<polygon fill="#daedff" stroke="#404040" stroke-width="2" points="16,-16 16,-356 278,-356 278,-16 16,-16"/>
</a>
</g>
</g>
<!-- dir_6046cf5b588b7c8cda8a2c8a9a5afa80 -->
<g id="node1" class="node">
<title>dir_6046cf5b588b7c8cda8a2c8a9a5afa80</title>
<text text-anchor="middle" x="124" y="-327.2" font-family="-apple-system, BlinkMacSystemFont, 'Segoe UI', Roboto, Oxygen, Ubuntu, Cantarell, 'Fira Sans', 'Droid Sans', 'Helvetica Neue', sans-serif" font-size="11.00">libmirai</text>
</g>
<!-- dir_f1f660cd1ca655256dd9360f3608b155 -->
<g id="node2" class="node">
<title>dir_f1f660cd1ca655256dd9360f3608b155</title>
<g id="a_node2"><a xlink:href="dir_f1f660cd1ca655256dd9360f3608b155.html" target="_top" xlink:title="Api">
<polygon fill="#4ea9ff" stroke="#404040" points="179,-276 125,-276 125,-240 179,-240 179,-276"/>
<text text-anchor="middle" x="152" y="-255.2" font-family="-apple-system, BlinkMacSystemFont, 'Segoe UI', Roboto, Oxygen, Ubuntu, Cantarell, 'Fira Sans', 'Droid Sans', 'Helvetica Neue', sans-serif" font-size="11.00">Api</text>
</a>
</g>
</g>
<!-- dir_6046cf5b588b7c8cda8a2c8a9a5afa80&#45;&gt;dir_f1f660cd1ca655256dd9360f3608b155 -->
<g id="edge5" class="edge">
<title>dir_6046cf5b588b7c8cda8a2c8a9a5afa80&#45;&gt;dir_f1f660cd1ca655256dd9360f3608b155</title>
<path fill="none" stroke="black" d="M130.92,-311.7C134.07,-303.81 137.88,-294.3 141.38,-285.55"/>
<polygon fill="black" stroke="black" points="144.69,-286.69 145.16,-276.1 138.19,-284.09 144.69,-286.69"/>
<g id="a_edge5&#45;headlabel"><a xlink:href="dir_000006_000000.html" target="_top" xlink:title="1">
<text text-anchor="middle" x="146" y="-288.28" font-family="-apple-system, BlinkMacSystemFont, 'Segoe UI', Roboto, Oxygen, Ubuntu, Cantarell, 'Fira Sans', 'Droid Sans', 'Helvetica Neue', sans-serif" font-size="11.00">1</text>
</a>
</g>
</g>
<!-- dir_b347b0cf57ea4859dbc7be1fc5cc5095 -->
<g id="node3" class="node">
<title>dir_b347b0cf57ea4859dbc7be1fc5cc5095</title>
<g id="a_node3"><a xlink:href="dir_b347b0cf57ea4859dbc7be1fc5cc5095.html" target="_top" xlink:title="Events">
<polygon fill="#4ea9ff" stroke="#404040" points="118,-204 64,-204 64,-168 118,-168 118,-204"/>
<text text-anchor="middle" x="91" y="-183.2" font-family="-apple-system, BlinkMacSystemFont, 'Segoe UI', Roboto, Oxygen, Ubuntu, Cantarell, 'Fira Sans', 'Droid Sans', 'Helvetica Neue', sans-serif" font-size="11.00">Events</text>
</a>
</g>
</g>
<!-- dir_6046cf5b588b7c8cda8a2c8a9a5afa80&#45;&gt;dir_b347b0cf57ea4859dbc7be1fc5cc5095 -->
<g id="edge3" class="edge">
<title>dir_6046cf5b588b7c8cda8a2c8a9a5afa80&#45;&gt;dir_b347b0cf57ea4859dbc7be1fc5cc5095</title>
<path fill="none" stroke="black" d="M120.02,-311.87C114.37,-287.56 103.97,-242.82 97.28,-214.01"/>
<polygon fill="black" stroke="black" points="100.67,-213.14 94.99,-204.19 93.85,-214.72 100.67,-213.14"/>
<g id="a_edge3&#45;headlabel"><a xlink:href="dir_000006_000002.html" target="_top" xlink:title="17">
<text text-anchor="middle" x="104.25" y="-213.2" font-family="-apple-system, BlinkMacSystemFont, 'Segoe UI', Roboto, Oxygen, Ubuntu, Cantarell, 'Fira Sans', 'Droid Sans', 'Helvetica Neue', sans-serif" font-size="11.00">17</text>
</a>
</g>
</g>
<!-- dir_82c7da998ff76e62b0b254ecb47557a2 -->
<g id="node4" class="node">
<title>dir_82c7da998ff76e62b0b254ecb47557a2</title>
<g id="a_node4"><a xlink:href="dir_82c7da998ff76e62b0b254ecb47557a2.html" target="_top" xlink:title="Exceptions">
<polygon fill="#4ea9ff" stroke="#404040" points="112,-60 44,-60 44,-24 112,-24 112,-60"/>
<text text-anchor="middle" x="78" y="-39.2" font-family="-apple-system, BlinkMacSystemFont, 'Segoe UI', Roboto, Oxygen, Ubuntu, Cantarell, 'Fira Sans', 'Droid Sans', 'Helvetica Neue', sans-serif" font-size="11.00">Exceptions</text>
</a>
</g>
</g>
<!-- dir_6046cf5b588b7c8cda8a2c8a9a5afa80&#45;&gt;dir_82c7da998ff76e62b0b254ecb47557a2 -->
<g id="edge2" class="edge">
<title>dir_6046cf5b588b7c8cda8a2c8a9a5afa80&#45;&gt;dir_82c7da998ff76e62b0b254ecb47557a2</title>
<path fill="none" stroke="black" d="M98.14,-311.9C86.06,-302.64 72.5,-290.19 64,-276 47.11,-247.79 50.8,-236.66 47,-204 44.58,-183.18 47.26,-102.43 49,-96 51.51,-86.73 55.93,-77.31 60.58,-69.04"/>
<polygon fill="black" stroke="black" points="63.7,-70.63 65.83,-60.25 57.7,-67.04 63.7,-70.63"/>
<g id="a_edge2&#45;headlabel"><a xlink:href="dir_000006_000004.html" target="_top" xlink:title="4">
<text text-anchor="middle" x="64.3" y="-72.37" font-family="-apple-system, BlinkMacSystemFont, 'Segoe UI', Roboto, Oxygen, Ubuntu, Cantarell, 'Fira Sans', 'Droid Sans', 'Helvetica Neue', sans-serif" font-size="11.00">4</text>
</a>
</g>
</g>
<!-- dir_c64ef95c53891570beeeee3d656466cb -->
<g id="node5" class="node">
<title>dir_c64ef95c53891570beeeee3d656466cb</title>
<g id="a_node5"><a xlink:href="dir_c64ef95c53891570beeeee3d656466cb.html" target="_top" xlink:title="Messages">
<polygon fill="#4ea9ff" stroke="#404040" points="129.5,-132 64.5,-132 64.5,-96 129.5,-96 129.5,-132"/>
<text text-anchor="middle" x="97" y="-111.2" font-family="-apple-system, BlinkMacSystemFont, 'Segoe UI', Roboto, Oxygen, Ubuntu, Cantarell, 'Fira Sans', 'Droid Sans', 'Helvetica Neue', sans-serif" font-size="11.00">Messages</text>
</a>
</g>
</g>
<!-- dir_6046cf5b588b7c8cda8a2c8a9a5afa80&#45;&gt;dir_c64ef95c53891570beeeee3d656466cb -->
<g id="edge4" class="edge">
<title>dir_6046cf5b588b7c8cda8a2c8a9a5afa80&#45;&gt;dir_c64ef95c53891570beeeee3d656466cb</title>
<path fill="none" stroke="black" d="M110.9,-311.99C94.09,-289 65.82,-246.01 55,-204 51.01,-188.51 49.74,-183.11 55,-168 58.53,-157.86 64.91,-148.19 71.64,-139.96"/>
<polygon fill="black" stroke="black" points="74.44,-142.07 78.4,-132.24 69.17,-137.46 74.44,-142.07"/>
<g id="a_edge4&#45;headlabel"><a xlink:href="dir_000006_000007.html" target="_top" xlink:title="13">
<text text-anchor="middle" x="74.21" y="-143.85" font-family="-apple-system, BlinkMacSystemFont, 'Segoe UI', Roboto, Oxygen, Ubuntu, Cantarell, 'Fira Sans', 'Droid Sans', 'Helvetica Neue', sans-serif" font-size="11.00">13</text>
</a>
</g>
</g>
<!-- dir_40c6e2b8f2227bab670803ea83edefba -->
<g id="node6" class="node">
<title>dir_40c6e2b8f2227bab670803ea83edefba</title>
<g id="a_node6"><a xlink:href="dir_40c6e2b8f2227bab670803ea83edefba.html" target="_top" xlink:title="Types">
<polygon fill="#4ea9ff" stroke="#404040" points="216,-60 162,-60 162,-24 216,-24 216,-60"/>
<text text-anchor="middle" x="189" y="-39.2" font-family="-apple-system, BlinkMacSystemFont, 'Segoe UI', Roboto, Oxygen, Ubuntu, Cantarell, 'Fira Sans', 'Droid Sans', 'Helvetica Neue', sans-serif" font-size="11.00">Types</text>
</a>
</g>
</g>
<!-- dir_6046cf5b588b7c8cda8a2c8a9a5afa80&#45;&gt;dir_40c6e2b8f2227bab670803ea83edefba -->
<g id="edge1" class="edge">
<title>dir_6046cf5b588b7c8cda8a2c8a9a5afa80&#45;&gt;dir_40c6e2b8f2227bab670803ea83edefba</title>
<path fill="none" stroke="black" d="M151.06,-314.9C184.93,-295.37 240.74,-256.49 259,-204 276.19,-154.59 238.85,-99.05 212.39,-67.82"/>
<polygon fill="black" stroke="black" points="214.81,-65.28 205.6,-60.05 209.54,-69.88 214.81,-65.28"/>
<g id="a_edge1&#45;headlabel"><a xlink:href="dir_000006_000009.html" target="_top" xlink:title="59">
<text text-anchor="middle" x="219.32" y="-63.32" font-family="-apple-system, BlinkMacSystemFont, 'Segoe UI', Roboto, Oxygen, Ubuntu, Cantarell, 'Fira Sans', 'Droid Sans', 'Helvetica Neue', sans-serif" font-size="11.00">59</text>
</a>
</g>
</g>
<!-- dir_f7ea27b7191626960b587f89d1882457 -->
<g id="node7" class="node">
<title>dir_f7ea27b7191626960b587f89d1882457</title>
<g id="a_node7"><a xlink:href="dir_f7ea27b7191626960b587f89d1882457.html" target="_top" xlink:title="Utils">
<polygon fill="#4ea9ff" stroke="#404040" points="250,-204 196,-204 196,-168 250,-168 250,-204"/>
<text text-anchor="middle" x="223" y="-183.2" font-family="-apple-system, BlinkMacSystemFont, 'Segoe UI', Roboto, Oxygen, Ubuntu, Cantarell, 'Fira Sans', 'Droid Sans', 'Helvetica Neue', sans-serif" font-size="11.00">Utils</text>
</a>
</g>
</g>
<!-- dir_6046cf5b588b7c8cda8a2c8a9a5afa80&#45;&gt;dir_f7ea27b7191626960b587f89d1882457 -->
<g id="edge6" class="edge">
<title>dir_6046cf5b588b7c8cda8a2c8a9a5afa80&#45;&gt;dir_f7ea27b7191626960b587f89d1882457</title>
<path fill="none" stroke="black" d="M150.4,-311.89C163.15,-302.54 177.84,-290.02 188,-276 201.56,-257.28 210.72,-232.6 216.26,-213.98"/>
<polygon fill="black" stroke="black" points="219.64,-214.91 218.97,-204.33 212.9,-213.01 219.64,-214.91"/>
<g id="a_edge6&#45;headlabel"><a xlink:href="dir_000006_000010.html" target="_top" xlink:title="4">
<text text-anchor="middle" x="221.4" y="-216.33" font-family="-apple-system, BlinkMacSystemFont, 'Segoe UI', Roboto, Oxygen, Ubuntu, Cantarell, 'Fira Sans', 'Droid Sans', 'Helvetica Neue', sans-serif" font-size="11.00">4</text>
</a>
</g>
</g>
<!-- dir_f1f660cd1ca655256dd9360f3608b155&#45;&gt;dir_b347b0cf57ea4859dbc7be1fc5cc5095 -->
<g id="edge9" class="edge">
<title>dir_f1f660cd1ca655256dd9360f3608b155&#45;&gt;dir_b347b0cf57ea4859dbc7be1fc5cc5095</title>
<path fill="none" stroke="black" d="M136.92,-239.7C129.61,-231.3 120.69,-221.07 112.66,-211.86"/>
<polygon fill="black" stroke="black" points="115.11,-209.34 105.91,-204.1 109.84,-213.94 115.11,-209.34"/>
<g id="a_edge9&#45;headlabel"><a xlink:href="dir_000000_000002.html" target="_top" xlink:title="16">
<text text-anchor="middle" x="119.62" y="-207.39" font-family="-apple-system, BlinkMacSystemFont, 'Segoe UI', Roboto, Oxygen, Ubuntu, Cantarell, 'Fira Sans', 'Droid Sans', 'Helvetica Neue', sans-serif" font-size="11.00">16</text>
</a>
</g>
</g>
<!-- dir_f1f660cd1ca655256dd9360f3608b155&#45;&gt;dir_82c7da998ff76e62b0b254ecb47557a2 -->
<g id="edge8" class="edge">
<title>dir_f1f660cd1ca655256dd9360f3608b155&#45;&gt;dir_82c7da998ff76e62b0b254ecb47557a2</title>
<path fill="none" stroke="black" d="M154.65,-239.9C158.55,-209.2 163.04,-143.55 139,-96 133.26,-84.65 123.95,-74.7 114.3,-66.57"/>
<polygon fill="black" stroke="black" points="116.21,-63.62 106.19,-60.18 111.88,-69.12 116.21,-63.62"/>
<g id="a_edge8&#45;headlabel"><a xlink:href="dir_000000_000004.html" target="_top" xlink:title="1">
<text text-anchor="middle" x="120.79" y="-60.82" font-family="-apple-system, BlinkMacSystemFont, 'Segoe UI', Roboto, Oxygen, Ubuntu, Cantarell, 'Fira Sans', 'Droid Sans', 'Helvetica Neue', sans-serif" font-size="11.00">1</text>
</a>
</g>
</g>
<!-- dir_f1f660cd1ca655256dd9360f3608b155&#45;&gt;dir_c64ef95c53891570beeeee3d656466cb -->
<g id="edge10" class="edge">
<title>dir_f1f660cd1ca655256dd9360f3608b155&#45;&gt;dir_c64ef95c53891570beeeee3d656466cb</title>
<path fill="none" stroke="black" d="M148.48,-239.86C144.44,-221.63 137.05,-192.15 127,-168 123.18,-158.82 118.12,-149.24 113.25,-140.79"/>
<polygon fill="black" stroke="black" points="116.22,-138.94 108.1,-132.13 110.2,-142.51 116.22,-138.94"/>
<g id="a_edge10&#45;headlabel"><a xlink:href="dir_000000_000007.html" target="_top" xlink:title="2">
<text text-anchor="middle" x="120.5" y="-137.77" font-family="-apple-system, BlinkMacSystemFont, 'Segoe UI', Roboto, Oxygen, Ubuntu, Cantarell, 'Fira Sans', 'Droid Sans', 'Helvetica Neue', sans-serif" font-size="11.00">2</text>
</a>
</g>
</g>
<!-- dir_f1f660cd1ca655256dd9360f3608b155&#45;&gt;dir_40c6e2b8f2227bab670803ea83edefba -->
<g id="edge7" class="edge">
<title>dir_f1f660cd1ca655256dd9360f3608b155&#45;&gt;dir_40c6e2b8f2227bab670803ea83edefba</title>
<path fill="none" stroke="black" d="M155.33,-239.83C157.32,-229.46 159.86,-215.98 162,-204 170.35,-157.12 179.37,-102.43 184.58,-70.37"/>
<polygon fill="black" stroke="black" points="188.05,-70.84 186.2,-60.41 181.14,-69.72 188.05,-70.84"/>
<g id="a_edge7&#45;headlabel"><a xlink:href="dir_000000_000009.html" target="_top" xlink:title="2">
<text text-anchor="middle" x="190.28" y="-72.05" font-family="-apple-system, BlinkMacSystemFont, 'Segoe UI', Roboto, Oxygen, Ubuntu, Cantarell, 'Fira Sans', 'Droid Sans', 'Helvetica Neue', sans-serif" font-size="11.00">2</text>
</a>
</g>
</g>
<!-- dir_f1f660cd1ca655256dd9360f3608b155&#45;&gt;dir_f7ea27b7191626960b587f89d1882457 -->
<g id="edge11" class="edge">
<title>dir_f1f660cd1ca655256dd9360f3608b155&#45;&gt;dir_f7ea27b7191626960b587f89d1882457</title>
<path fill="none" stroke="black" d="M169.55,-239.7C178.23,-231.14 188.86,-220.66 198.35,-211.3"/>
<polygon fill="black" stroke="black" points="200.99,-213.62 205.65,-204.1 196.07,-208.63 200.99,-213.62"/>
<g id="a_edge11&#45;headlabel"><a xlink:href="dir_000000_000010.html" target="_top" xlink:title="3">
<text text-anchor="middle" x="200.42" y="-215.36" font-family="-apple-system, BlinkMacSystemFont, 'Segoe UI', Roboto, Oxygen, Ubuntu, Cantarell, 'Fira Sans', 'Droid Sans', 'Helvetica Neue', sans-serif" font-size="11.00">3</text>
</a>
</g>
</g>
<!-- dir_b347b0cf57ea4859dbc7be1fc5cc5095&#45;&gt;dir_82c7da998ff76e62b0b254ecb47557a2 -->
<g id="edge13" class="edge">
<title>dir_b347b0cf57ea4859dbc7be1fc5cc5095&#45;&gt;dir_82c7da998ff76e62b0b254ecb47557a2</title>
<path fill="none" stroke="black" d="M75.82,-167.7C68.27,-157.94 59.93,-145.1 56,-132 49.74,-111.16 56.44,-87.21 64.04,-69.4"/>
<polygon fill="black" stroke="black" points="67.27,-70.75 68.28,-60.2 60.92,-67.82 67.27,-70.75"/>
<g id="a_edge13&#45;headlabel"><a xlink:href="dir_000002_000004.html" target="_top" xlink:title="1">
<text text-anchor="middle" x="68.35" y="-72.4" font-family="-apple-system, BlinkMacSystemFont, 'Segoe UI', Roboto, Oxygen, Ubuntu, Cantarell, 'Fira Sans', 'Droid Sans', 'Helvetica Neue', sans-serif" font-size="11.00">1</text>
</a>
</g>
</g>
<!-- dir_b347b0cf57ea4859dbc7be1fc5cc5095&#45;&gt;dir_c64ef95c53891570beeeee3d656466cb -->
<g id="edge14" class="edge">
<title>dir_b347b0cf57ea4859dbc7be1fc5cc5095&#45;&gt;dir_c64ef95c53891570beeeee3d656466cb</title>
<path fill="none" stroke="black" d="M92.48,-167.7C93.14,-159.98 93.94,-150.71 94.68,-142.11"/>
<polygon fill="black" stroke="black" points="98.17,-142.37 95.53,-132.1 91.19,-141.77 98.17,-142.37"/>
<g id="a_edge14&#45;headlabel"><a xlink:href="dir_000002_000007.html" target="_top" xlink:title="10">
<text text-anchor="middle" x="100.69" y="-143.39" font-family="-apple-system, BlinkMacSystemFont, 'Segoe UI', Roboto, Oxygen, Ubuntu, Cantarell, 'Fira Sans', 'Droid Sans', 'Helvetica Neue', sans-serif" font-size="11.00">10</text>
</a>
</g>
</g>
<!-- dir_b347b0cf57ea4859dbc7be1fc5cc5095&#45;&gt;dir_40c6e2b8f2227bab670803ea83edefba -->
<g id="edge12" class="edge">
<title>dir_b347b0cf57ea4859dbc7be1fc5cc5095&#45;&gt;dir_40c6e2b8f2227bab670803ea83edefba</title>
<path fill="none" stroke="black" d="M108.49,-167.7C118.09,-157.73 129.86,-144.7 139,-132 153.39,-112 166.9,-87.48 176.24,-69.24"/>
<polygon fill="black" stroke="black" points="179.48,-70.59 180.85,-60.08 173.23,-67.44 179.48,-70.59"/>
<g id="a_edge12&#45;headlabel"><a xlink:href="dir_000002_000009.html" target="_top" xlink:title="45">
<text text-anchor="middle" x="180.4" y="-72.27" font-family="-apple-system, BlinkMacSystemFont, 'Segoe UI', Roboto, Oxygen, Ubuntu, Cantarell, 'Fira Sans', 'Droid Sans', 'Helvetica Neue', sans-serif" font-size="11.00">45</text>
</a>
</g>
</g>
<!-- dir_c64ef95c53891570beeeee3d656466cb&#45;&gt;dir_82c7da998ff76e62b0b254ecb47557a2 -->
<g id="edge16" class="edge">
<title>dir_c64ef95c53891570beeeee3d656466cb&#45;&gt;dir_82c7da998ff76e62b0b254ecb47557a2</title>
<path fill="none" stroke="black" d="M92.3,-95.7C90.19,-87.9 87.64,-78.51 85.28,-69.83"/>
<polygon fill="black" stroke="black" points="88.64,-68.84 82.64,-60.1 81.88,-70.67 88.64,-68.84"/>
<g id="a_edge16&#45;headlabel"><a xlink:href="dir_000007_000004.html" target="_top" xlink:title="1">
<text text-anchor="middle" x="92.32" y="-68.76" font-family="-apple-system, BlinkMacSystemFont, 'Segoe UI', Roboto, Oxygen, Ubuntu, Cantarell, 'Fira Sans', 'Droid Sans', 'Helvetica Neue', sans-serif" font-size="11.00">1</text>
</a>
</g>
</g>
<!-- dir_c64ef95c53891570beeeee3d656466cb&#45;&gt;dir_40c6e2b8f2227bab670803ea83edefba -->
<g id="edge15" class="edge">
<title>dir_c64ef95c53891570beeeee3d656466cb&#45;&gt;dir_40c6e2b8f2227bab670803ea83edefba</title>
<path fill="none" stroke="black" d="M119.74,-95.7C131.44,-86.8 145.86,-75.82 158.51,-66.2"/>
<polygon fill="black" stroke="black" points="160.68,-68.94 166.52,-60.1 156.44,-63.37 160.68,-68.94"/>
<g id="a_edge15&#45;headlabel"><a xlink:href="dir_000007_000009.html" target="_top" xlink:title="10">
<text text-anchor="middle" x="159.54" y="-70.58" font-family="-apple-system, BlinkMacSystemFont, 'Segoe UI', Roboto, Oxygen, Ubuntu, Cantarell, 'Fira Sans', 'Droid Sans', 'Helvetica Neue', sans-serif" font-size="11.00">10</text>
</a>
</g>
</g>
<!-- dir_f7ea27b7191626960b587f89d1882457&#45;&gt;dir_40c6e2b8f2227bab670803ea83edefba -->
<g id="edge17" class="edge">
<title>dir_f7ea27b7191626960b587f89d1882457&#45;&gt;dir_40c6e2b8f2227bab670803ea83edefba</title>
<path fill="none" stroke="black" d="M218.9,-167.87C213.08,-143.56 202.37,-98.82 195.47,-70.01"/>
<polygon fill="black" stroke="black" points="198.85,-69.1 193.12,-60.19 192.04,-70.73 198.85,-69.1"/>
<g id="a_edge17&#45;headlabel"><a xlink:href="dir_000010_000009.html" target="_top" xlink:title="1">
<text text-anchor="middle" x="202.45" y="-69.13" font-family="-apple-system, BlinkMacSystemFont, 'Segoe UI', Roboto, Oxygen, Ubuntu, Cantarell, 'Fira Sans', 'Droid Sans', 'Helvetica Neue', sans-serif" font-size="11.00">1</text>
</a>
</g>
</g>
</g>
</svg>
