<?xml version="1.0" encoding="UTF-8" standalone="no"?>
<!DOCTYPE svg PUBLIC "-//W3C//DTD SVG 1.1//EN"
 "http://www.w3.org/Graphics/SVG/1.1/DTD/svg11.dtd">
<!-- Generated by graphviz version 3.0.0 (20220413.0242)
 -->
<!-- Title: libmirai/public/libmirai Pages: 1 -->
<svg width="242pt" height="400pt"
 viewBox="0.00 0.00 242.00 400.00" xmlns="http://www.w3.org/2000/svg" xmlns:xlink="http://www.w3.org/1999/xlink">
<g id="graph0" class="graph" transform="scale(1 1) rotate(0) translate(4 396)">
<title>libmirai/public/libmirai</title>
<g id="clust1" class="cluster">
<title>clusterdir_2432e6d01588bf5829668ddc0aacd348</title>
<g id="a_clust1"><a xlink:href="dir_2432e6d01588bf5829668ddc0aacd348.html" target="_top" xlink:title="public">
<polygon fill="#daedff" stroke="#7f7f7f" stroke-dasharray="5,2" points="8,-8 8,-384 226,-384 226,-8 8,-8"/>
<text text-anchor="middle" x="117" y="-371.2" font-family="-apple-system, BlinkMacSystemFont, 'Segoe UI', Roboto, Oxygen, Ubuntu, Cantarell, 'Fira Sans', 'Droid Sans', 'Helvetica Neue', sans-serif" font-size="11.00">public</text>
</a>
</g>
</g>
<g id="clust2" class="cluster">
<title>clusterdir_6046cf5b588b7c8cda8a2c8a9a5afa80</title>
<g id="a_clust2"><a xlink:href="dir_6046cf5b588b7c8cda8a2c8a9a5afa80.html" target="_top">
<polygon fill="#daedff" stroke="#404040" stroke-width="2" points="16,-16 16,-356 218,-356 218,-16 16,-16"/>
</a>
</g>
</g>
<!-- dir_6046cf5b588b7c8cda8a2c8a9a5afa80 -->
<g id="node1" class="node">
<title>dir_6046cf5b588b7c8cda8a2c8a9a5afa80</title>
<text text-anchor="middle" x="130" y="-327.2" font-family="-apple-system, BlinkMacSystemFont, 'Segoe UI', Roboto, Oxygen, Ubuntu, Cantarell, 'Fira Sans', 'Droid Sans', 'Helvetica Neue', sans-serif" font-size="11.00">libmirai</text>
</g>
<!-- dir_f1f660cd1ca655256dd9360f3608b155 -->
<g id="node2" class="node">
<title>dir_f1f660cd1ca655256dd9360f3608b155</title>
<g id="a_node2"><a xlink:href="dir_f1f660cd1ca655256dd9360f3608b155.html" target="_top" xlink:title="Api">
<polygon fill="#4ea9ff" stroke="#404040" points="111,-276 57,-276 57,-240 111,-240 111,-276"/>
<text text-anchor="middle" x="84" y="-255.2" font-family="-apple-system, BlinkMacSystemFont, 'Segoe UI', Roboto, Oxygen, Ubuntu, Cantarell, 'Fira Sans', 'Droid Sans', 'Helvetica Neue', sans-serif" font-size="11.00">Api</text>
</a>
</g>
</g>
<!-- dir_6046cf5b588b7c8cda8a2c8a9a5afa80&#45;&gt;dir_f1f660cd1ca655256dd9360f3608b155 -->
<g id="edge5" class="edge">
<title>dir_6046cf5b588b7c8cda8a2c8a9a5afa80&#45;&gt;dir_f1f660cd1ca655256dd9360f3608b155</title>
<path fill="none" stroke="black" d="M118.63,-311.7C113.28,-303.56 106.8,-293.69 100.89,-284.7"/>
<polygon fill="black" stroke="black" points="103.66,-282.54 95.24,-276.1 97.81,-286.38 103.66,-282.54"/>
<g id="a_edge5&#45;headlabel"><a xlink:href="dir_000006_000000.html" target="_top" xlink:title="2">
<text text-anchor="middle" x="108" y="-281.18" font-family="-apple-system, BlinkMacSystemFont, 'Segoe UI', Roboto, Oxygen, Ubuntu, Cantarell, 'Fira Sans', 'Droid Sans', 'Helvetica Neue', sans-serif" font-size="11.00">2</text>
</a>
</g>
</g>
<!-- dir_b347b0cf57ea4859dbc7be1fc5cc5095 -->
<g id="node3" class="node">
<title>dir_b347b0cf57ea4859dbc7be1fc5cc5095</title>
<g id="a_node3"><a xlink:href="dir_b347b0cf57ea4859dbc7be1fc5cc5095.html" target="_top" xlink:title="Events">
<polygon fill="#4ea9ff" stroke="#404040" points="144,-204 90,-204 90,-168 144,-168 144,-204"/>
<text text-anchor="middle" x="117" y="-183.2" font-family="-apple-system, BlinkMacSystemFont, 'Segoe UI', Roboto, Oxygen, Ubuntu, Cantarell, 'Fira Sans', 'Droid Sans', 'Helvetica Neue', sans-serif" font-size="11.00">Events</text>
</a>
</g>
</g>
<!-- dir_6046cf5b588b7c8cda8a2c8a9a5afa80&#45;&gt;dir_b347b0cf57ea4859dbc7be1fc5cc5095 -->
<g id="edge3" class="edge">
<title>dir_6046cf5b588b7c8cda8a2c8a9a5afa80&#45;&gt;dir_b347b0cf57ea4859dbc7be1fc5cc5095</title>
<path fill="none" stroke="black" d="M128.43,-311.87C126.22,-287.67 122.15,-243.21 119.51,-214.39"/>
<polygon fill="black" stroke="black" points="122.97,-213.83 118.57,-204.19 116,-214.47 122.97,-213.83"/>
<g id="a_edge3&#45;headlabel"><a xlink:href="dir_000006_000002.html" target="_top" xlink:title="17">
<text text-anchor="middle" x="126.13" y="-214.35" font-family="-apple-system, BlinkMacSystemFont, 'Segoe UI', Roboto, Oxygen, Ubuntu, Cantarell, 'Fira Sans', 'Droid Sans', 'Helvetica Neue', sans-serif" font-size="11.00">17</text>
</a>
</g>
</g>
<!-- dir_82c7da998ff76e62b0b254ecb47557a2 -->
<g id="node4" class="node">
<title>dir_82c7da998ff76e62b0b254ecb47557a2</title>
<g id="a_node4"><a xlink:href="dir_82c7da998ff76e62b0b254ecb47557a2.html" target="_top" xlink:title="Exceptions">
<polygon fill="#4ea9ff" stroke="#404040" points="206,-60 138,-60 138,-24 206,-24 206,-60"/>
<text text-anchor="middle" x="172" y="-39.2" font-family="-apple-system, BlinkMacSystemFont, 'Segoe UI', Roboto, Oxygen, Ubuntu, Cantarell, 'Fira Sans', 'Droid Sans', 'Helvetica Neue', sans-serif" font-size="11.00">Exceptions</text>
</a>
</g>
</g>
<!-- dir_6046cf5b588b7c8cda8a2c8a9a5afa80&#45;&gt;dir_82c7da998ff76e62b0b254ecb47557a2 -->
<g id="edge2" class="edge">
<title>dir_6046cf5b588b7c8cda8a2c8a9a5afa80&#45;&gt;dir_82c7da998ff76e62b0b254ecb47557a2</title>
<path fill="none" stroke="black" d="M140.4,-311.92C146.12,-301.8 152.87,-288.55 157,-276 182.25,-199.34 187.78,-176.42 181,-96 180.28,-87.5 178.93,-78.31 177.49,-70.01"/>
<polygon fill="black" stroke="black" points="180.91,-69.29 175.65,-60.09 174.03,-70.56 180.91,-69.29"/>
<g id="a_edge2&#45;headlabel"><a xlink:href="dir_000006_000004.html" target="_top" xlink:title="4">
<text text-anchor="middle" x="184.36" y="-69.51" font-family="-apple-system, BlinkMacSystemFont, 'Segoe UI', Roboto, Oxygen, Ubuntu, Cantarell, 'Fira Sans', 'Droid Sans', 'Helvetica Neue', sans-serif" font-size="11.00">4</text>
</a>
</g>
</g>
<!-- dir_c64ef95c53891570beeeee3d656466cb -->
<g id="node5" class="node">
<title>dir_c64ef95c53891570beeeee3d656466cb</title>
<g id="a_node5"><a xlink:href="dir_c64ef95c53891570beeeee3d656466cb.html" target="_top" xlink:title="Messages">
<polygon fill="#4ea9ff" stroke="#404040" points="149.5,-132 84.5,-132 84.5,-96 149.5,-96 149.5,-132"/>
<text text-anchor="middle" x="117" y="-111.2" font-family="-apple-system, BlinkMacSystemFont, 'Segoe UI', Roboto, Oxygen, Ubuntu, Cantarell, 'Fira Sans', 'Droid Sans', 'Helvetica Neue', sans-serif" font-size="11.00">Messages</text>
</a>
</g>
</g>
<!-- dir_6046cf5b588b7c8cda8a2c8a9a5afa80&#45;&gt;dir_c64ef95c53891570beeeee3d656466cb -->
<g id="edge4" class="edge">
<title>dir_6046cf5b588b7c8cda8a2c8a9a5afa80&#45;&gt;dir_c64ef95c53891570beeeee3d656466cb</title>
<path fill="none" stroke="black" d="M137.31,-311.7C148.88,-281.78 168.6,-218.74 153,-168 149.99,-158.22 144.49,-148.62 138.68,-140.33"/>
<polygon fill="black" stroke="black" points="141.41,-138.13 132.61,-132.23 135.81,-142.33 141.41,-138.13"/>
<g id="a_edge4&#45;headlabel"><a xlink:href="dir_000006_000007.html" target="_top" xlink:title="13">
<text text-anchor="middle" x="145.83" y="-136.5" font-family="-apple-system, BlinkMacSystemFont, 'Segoe UI', Roboto, Oxygen, Ubuntu, Cantarell, 'Fira Sans', 'Droid Sans', 'Helvetica Neue', sans-serif" font-size="11.00">13</text>
</a>
</g>
</g>
<!-- dir_40c6e2b8f2227bab670803ea83edefba -->
<g id="node6" class="node">
<title>dir_40c6e2b8f2227bab670803ea83edefba</title>
<g id="a_node6"><a xlink:href="dir_40c6e2b8f2227bab670803ea83edefba.html" target="_top" xlink:title="Types">
<polygon fill="#4ea9ff" stroke="#404040" points="85,-60 31,-60 31,-24 85,-24 85,-60"/>
<text text-anchor="middle" x="58" y="-39.2" font-family="-apple-system, BlinkMacSystemFont, 'Segoe UI', Roboto, Oxygen, Ubuntu, Cantarell, 'Fira Sans', 'Droid Sans', 'Helvetica Neue', sans-serif" font-size="11.00">Types</text>
</a>
</g>
</g>
<!-- dir_6046cf5b588b7c8cda8a2c8a9a5afa80&#45;&gt;dir_40c6e2b8f2227bab670803ea83edefba -->
<g id="edge1" class="edge">
<title>dir_6046cf5b588b7c8cda8a2c8a9a5afa80&#45;&gt;dir_40c6e2b8f2227bab670803ea83edefba</title>
<path fill="none" stroke="black" d="M102.95,-319.58C83.82,-311.33 59.59,-297.29 48,-276 11.72,-209.36 33.92,-115.42 48.42,-69.87"/>
<polygon fill="black" stroke="black" points="51.82,-70.73 51.63,-60.14 45.17,-68.54 51.82,-70.73"/>
<g id="a_edge1&#45;headlabel"><a xlink:href="dir_000006_000009.html" target="_top" xlink:title="59">
<text text-anchor="middle" x="53.38" y="-72.24" font-family="-apple-system, BlinkMacSystemFont, 'Segoe UI', Roboto, Oxygen, Ubuntu, Cantarell, 'Fira Sans', 'Droid Sans', 'Helvetica Neue', sans-serif" font-size="11.00">59</text>
</a>
</g>
</g>
<!-- dir_f1f660cd1ca655256dd9360f3608b155&#45;&gt;dir_b347b0cf57ea4859dbc7be1fc5cc5095 -->
<g id="edge8" class="edge">
<title>dir_f1f660cd1ca655256dd9360f3608b155&#45;&gt;dir_b347b0cf57ea4859dbc7be1fc5cc5095</title>
<path fill="none" stroke="black" d="M92.16,-239.7C95.91,-231.73 100.45,-222.1 104.62,-213.26"/>
<polygon fill="black" stroke="black" points="107.84,-214.64 108.94,-204.1 101.51,-211.66 107.84,-214.64"/>
<g id="a_edge8&#45;headlabel"><a xlink:href="dir_000000_000002.html" target="_top" xlink:title="16">
<text text-anchor="middle" x="108.87" y="-216.3" font-family="-apple-system, BlinkMacSystemFont, 'Segoe UI', Roboto, Oxygen, Ubuntu, Cantarell, 'Fira Sans', 'Droid Sans', 'Helvetica Neue', sans-serif" font-size="11.00">16</text>
</a>
</g>
</g>
<!-- dir_f1f660cd1ca655256dd9360f3608b155&#45;&gt;dir_82c7da998ff76e62b0b254ecb47557a2 -->
<g id="edge7" class="edge">
<title>dir_f1f660cd1ca655256dd9360f3608b155&#45;&gt;dir_82c7da998ff76e62b0b254ecb47557a2</title>
<path fill="none" stroke="black" d="M111.13,-242.57C125.74,-233.42 142.8,-220.25 153,-204 178.79,-162.92 178.47,-104.18 175.5,-70.18"/>
<polygon fill="black" stroke="black" points="178.97,-69.66 174.48,-60.06 172,-70.36 178.97,-69.66"/>
<g id="a_edge7&#45;headlabel"><a xlink:href="dir_000000_000004.html" target="_top" xlink:title="1">
<text text-anchor="middle" x="182.15" y="-70.15" font-family="-apple-system, BlinkMacSystemFont, 'Segoe UI', Roboto, Oxygen, Ubuntu, Cantarell, 'Fira Sans', 'Droid Sans', 'Helvetica Neue', sans-serif" font-size="11.00">1</text>
</a>
</g>
</g>
<!-- dir_f1f660cd1ca655256dd9360f3608b155&#45;&gt;dir_c64ef95c53891570beeeee3d656466cb -->
<g id="edge9" class="edge">
<title>dir_f1f660cd1ca655256dd9360f3608b155&#45;&gt;dir_c64ef95c53891570beeeee3d656466cb</title>
<path fill="none" stroke="black" d="M80.17,-239.83C76.83,-221.58 73.59,-192.09 81,-168 84.01,-158.22 89.51,-148.62 95.32,-140.33"/>
<polygon fill="black" stroke="black" points="98.19,-142.33 101.39,-132.23 92.59,-138.13 98.19,-142.33"/>
<g id="a_edge9&#45;headlabel"><a xlink:href="dir_000000_000007.html" target="_top" xlink:title="2">
<text text-anchor="middle" x="98.31" y="-144.11" font-family="-apple-system, BlinkMacSystemFont, 'Segoe UI', Roboto, Oxygen, Ubuntu, Cantarell, 'Fira Sans', 'Droid Sans', 'Helvetica Neue', sans-serif" font-size="11.00">2</text>
</a>
</g>
</g>
<!-- dir_f1f660cd1ca655256dd9360f3608b155&#45;&gt;dir_40c6e2b8f2227bab670803ea83edefba -->
<g id="edge6" class="edge">
<title>dir_f1f660cd1ca655256dd9360f3608b155&#45;&gt;dir_40c6e2b8f2227bab670803ea83edefba</title>
<path fill="none" stroke="black" d="M79.86,-239.87C77.42,-229.51 74.36,-216.03 72,-204 65.75,-172.17 63.04,-164.3 60,-132 58.06,-111.36 57.6,-87.91 57.61,-70.26"/>
<polygon fill="black" stroke="black" points="61.11,-70.12 57.66,-60.1 54.11,-70.08 61.11,-70.12"/>
<g id="a_edge6&#45;headlabel"><a xlink:href="dir_000000_000009.html" target="_top" xlink:title="3">
<text text-anchor="middle" x="63.93" y="-70.93" font-family="-apple-system, BlinkMacSystemFont, 'Segoe UI', Roboto, Oxygen, Ubuntu, Cantarell, 'Fira Sans', 'Droid Sans', 'Helvetica Neue', sans-serif" font-size="11.00">3</text>
</a>
</g>
</g>
<!-- dir_b347b0cf57ea4859dbc7be1fc5cc5095&#45;&gt;dir_82c7da998ff76e62b0b254ecb47557a2 -->
<g id="edge11" class="edge">
<title>dir_b347b0cf57ea4859dbc7be1fc5cc5095&#45;&gt;dir_82c7da998ff76e62b0b254ecb47557a2</title>
<path fill="none" stroke="black" d="M134.38,-167.92C143.2,-158.22 153.23,-145.37 159,-132 167.45,-112.44 170.58,-88.44 171.67,-70.3"/>
<polygon fill="black" stroke="black" points="175.17,-70.25 172.1,-60.11 168.18,-69.95 175.17,-70.25"/>
<g id="a_edge11&#45;headlabel"><a xlink:href="dir_000002_000004.html" target="_top" xlink:title="1">
<text text-anchor="middle" x="177.86" y="-71.16" font-family="-apple-system, BlinkMacSystemFont, 'Segoe UI', Roboto, Oxygen, Ubuntu, Cantarell, 'Fira Sans', 'Droid Sans', 'Helvetica Neue', sans-serif" font-size="11.00">1</text>
</a>
</g>
</g>
<!-- dir_b347b0cf57ea4859dbc7be1fc5cc5095&#45;&gt;dir_c64ef95c53891570beeeee3d656466cb -->
<g id="edge12" class="edge">
<title>dir_b347b0cf57ea4859dbc7be1fc5cc5095&#45;&gt;dir_c64ef95c53891570beeeee3d656466cb</title>
<path fill="none" stroke="black" d="M117,-167.7C117,-159.98 117,-150.71 117,-142.11"/>
<polygon fill="black" stroke="black" points="120.5,-142.1 117,-132.1 113.5,-142.1 120.5,-142.1"/>
<g id="a_edge12&#45;headlabel"><a xlink:href="dir_000002_000007.html" target="_top" xlink:title="10">
<text text-anchor="middle" x="123.34" y="-142.9" font-family="-apple-system, BlinkMacSystemFont, 'Segoe UI', Roboto, Oxygen, Ubuntu, Cantarell, 'Fira Sans', 'Droid Sans', 'Helvetica Neue', sans-serif" font-size="11.00">10</text>
</a>
</g>
</g>
<!-- dir_b347b0cf57ea4859dbc7be1fc5cc5095&#45;&gt;dir_40c6e2b8f2227bab670803ea83edefba -->
<g id="edge10" class="edge">
<title>dir_b347b0cf57ea4859dbc7be1fc5cc5095&#45;&gt;dir_40c6e2b8f2227bab670803ea83edefba</title>
<path fill="none" stroke="black" d="M100.33,-167.72C91.81,-157.96 82,-145.12 76,-132 67.05,-112.44 62.53,-88.44 60.26,-70.3"/>
<polygon fill="black" stroke="black" points="63.71,-69.67 59.14,-60.11 56.75,-70.43 63.71,-69.67"/>
<g id="a_edge10&#45;headlabel"><a xlink:href="dir_000002_000009.html" target="_top" xlink:title="45">
<text text-anchor="middle" x="66.92" y="-70.13" font-family="-apple-system, BlinkMacSystemFont, 'Segoe UI', Roboto, Oxygen, Ubuntu, Cantarell, 'Fira Sans', 'Droid Sans', 'Helvetica Neue', sans-serif" font-size="11.00">45</text>
</a>
</g>
</g>
<!-- dir_c64ef95c53891570beeeee3d656466cb&#45;&gt;dir_82c7da998ff76e62b0b254ecb47557a2 -->
<g id="edge14" class="edge">
<title>dir_c64ef95c53891570beeeee3d656466cb&#45;&gt;dir_82c7da998ff76e62b0b254ecb47557a2</title>
<path fill="none" stroke="black" d="M130.6,-95.7C137.12,-87.39 145.07,-77.28 152.25,-68.14"/>
<polygon fill="black" stroke="black" points="155.13,-70.13 158.56,-60.1 149.63,-65.81 155.13,-70.13"/>
<g id="a_edge14&#45;headlabel"><a xlink:href="dir_000007_000004.html" target="_top" xlink:title="1">
<text text-anchor="middle" x="155.15" y="-71.91" font-family="-apple-system, BlinkMacSystemFont, 'Segoe UI', Roboto, Oxygen, Ubuntu, Cantarell, 'Fira Sans', 'Droid Sans', 'Helvetica Neue', sans-serif" font-size="11.00">1</text>
</a>
</g>
</g>
<!-- dir_c64ef95c53891570beeeee3d656466cb&#45;&gt;dir_40c6e2b8f2227bab670803ea83edefba -->
<g id="edge13" class="edge">
<title>dir_c64ef95c53891570beeeee3d656466cb&#45;&gt;dir_40c6e2b8f2227bab670803ea83edefba</title>
<path fill="none" stroke="black" d="M102.42,-95.7C95.34,-87.3 86.72,-77.07 78.95,-67.86"/>
<polygon fill="black" stroke="black" points="81.54,-65.49 72.42,-60.1 76.19,-70.01 81.54,-65.49"/>
<g id="a_edge13&#45;headlabel"><a xlink:href="dir_000007_000009.html" target="_top" xlink:title="10">
<text text-anchor="middle" x="86.03" y="-63.61" font-family="-apple-system, BlinkMacSystemFont, 'Segoe UI', Roboto, Oxygen, Ubuntu, Cantarell, 'Fira Sans', 'Droid Sans', 'Helvetica Neue', sans-serif" font-size="11.00">10</text>
</a>
</g>
</g>
</g>
</svg>
