<?xml version="1.0" encoding="UTF-8" standalone="no"?>
<!DOCTYPE svg PUBLIC "-//W3C//DTD SVG 1.1//EN"
 "http://www.w3.org/Graphics/SVG/1.1/DTD/svg11.dtd">
<!-- Generated by graphviz version 3.0.0 (20220413.0242)
 -->
<!-- Title: examples/echo.cpp Pages: 1 -->
<svg width="624pt" height="269pt"
 viewBox="0.00 0.00 623.55 269.00" xmlns="http://www.w3.org/2000/svg" xmlns:xlink="http://www.w3.org/1999/xlink">
<g id="graph0" class="graph" transform="scale(1 1) rotate(0) translate(4 265)">
<title>examples/echo.cpp</title>
<!-- Node1 -->
<g id="node1" class="node">
<title>Node1</title>
<g id="a_node1"><a xlink:title=" ">
<polygon fill="#bfbfbf" stroke="black" points="271,-240.5 271,-260.5 380,-260.5 380,-240.5 271,-240.5"/>
<text text-anchor="middle" x="325.5" y="-247.7" font-family="-apple-system, BlinkMacSystemFont, 'Segoe UI', Roboto, Oxygen, Ubuntu, Cantarell, 'Fira Sans', 'Droid Sans', 'Helvetica Neue', sans-serif" font-size="11.00">examples/echo.cpp</text>
</a>
</g>
</g>
<!-- Node2 -->
<g id="node2" class="node">
<title>Node2</title>
<g id="a_node2"><a xlink:title=" ">
<polygon fill="none" stroke="#bfbfbf" points="200.5,-183.5 200.5,-203.5 258.5,-203.5 258.5,-183.5 200.5,-183.5"/>
<text text-anchor="middle" x="229.5" y="-190.7" font-family="-apple-system, BlinkMacSystemFont, 'Segoe UI', Roboto, Oxygen, Ubuntu, Cantarell, 'Fira Sans', 'Droid Sans', 'Helvetica Neue', sans-serif" font-size="11.00">iostream</text>
</a>
</g>
</g>
<!-- Node1&#45;&gt;Node2 -->
<g id="edge1" class="edge">
<title>Node1&#45;&gt;Node2</title>
<path fill="none" stroke="midnightblue" d="M309.65,-240.42C294.64,-231.82 271.87,-218.78 254.43,-208.78"/>
<polygon fill="midnightblue" stroke="midnightblue" points="255.79,-205.53 245.38,-203.6 252.31,-211.6 255.79,-205.53"/>
</g>
<!-- Node3 -->
<g id="node3" class="node">
<title>Node3</title>
<g id="a_node3"><a xlink:href="mirai_8hpp.html" target="_top" xlink:title=" ">
<polygon fill="none" stroke="black" points="276.5,-183.5 276.5,-203.5 374.5,-203.5 374.5,-183.5 276.5,-183.5"/>
<text text-anchor="middle" x="325.5" y="-190.7" font-family="-apple-system, BlinkMacSystemFont, 'Segoe UI', Roboto, Oxygen, Ubuntu, Cantarell, 'Fira Sans', 'Droid Sans', 'Helvetica Neue', sans-serif" font-size="11.00">libmirai/mirai.hpp</text>
</a>
</g>
</g>
<!-- Node1&#45;&gt;Node3 -->
<g id="edge2" class="edge">
<title>Node1&#45;&gt;Node3</title>
<path fill="none" stroke="midnightblue" d="M325.5,-240.42C325.5,-233.22 325.5,-222.9 325.5,-213.86"/>
<polygon fill="midnightblue" stroke="midnightblue" points="329,-213.78 325.5,-203.78 322,-213.78 329,-213.78"/>
</g>
<!-- Node13 -->
<g id="node5" class="node">
<title>Node13</title>
<g id="a_node5"><a xlink:title=" ">
<polygon fill="none" stroke="#bfbfbf" points="359,-0.5 359,-20.5 402,-20.5 402,-0.5 359,-0.5"/>
<text text-anchor="middle" x="380.5" y="-7.7" font-family="-apple-system, BlinkMacSystemFont, 'Segoe UI', Roboto, Oxygen, Ubuntu, Cantarell, 'Fira Sans', 'Droid Sans', 'Helvetica Neue', sans-serif" font-size="11.00">string</text>
</a>
</g>
</g>
<!-- Node1&#45;&gt;Node13 -->
<g id="edge14" class="edge">
<title>Node1&#45;&gt;Node13</title>
<path fill="none" stroke="midnightblue" d="M380.26,-247.16C446.27,-241.04 554.65,-219.77 605.5,-147 658.53,-71.12 485.95,-30.37 412.24,-16.76"/>
<polygon fill="midnightblue" stroke="midnightblue" points="412.58,-13.26 402.12,-14.95 411.35,-20.15 412.58,-13.26"/>
</g>
<!-- Node4 -->
<g id="node4" class="node">
<title>Node4</title>
<g id="a_node4"><a xlink:href="Client_8hpp.html" target="_top" xlink:title=" ">
<polygon fill="none" stroke="red" points="265.5,-126.5 265.5,-146.5 385.5,-146.5 385.5,-126.5 265.5,-126.5"/>
<text text-anchor="middle" x="325.5" y="-133.7" font-family="-apple-system, BlinkMacSystemFont, 'Segoe UI', Roboto, Oxygen, Ubuntu, Cantarell, 'Fira Sans', 'Droid Sans', 'Helvetica Neue', sans-serif" font-size="11.00">libmirai/Api/Client.hpp</text>
</a>
</g>
</g>
<!-- Node3&#45;&gt;Node4 -->
<g id="edge3" class="edge">
<title>Node3&#45;&gt;Node4</title>
<path fill="none" stroke="midnightblue" d="M325.5,-183.42C325.5,-176.22 325.5,-165.9 325.5,-156.86"/>
<polygon fill="midnightblue" stroke="midnightblue" points="329,-156.78 325.5,-146.78 322,-156.78 329,-156.78"/>
</g>
<!-- Node54 -->
<g id="node6" class="node">
<title>Node54</title>
<g id="a_node6"><a xlink:href="Types_8hpp.html" target="_top" xlink:title=" ">
<polygon fill="none" stroke="red" points="148.5,-63.5 148.5,-83.5 284.5,-83.5 284.5,-63.5 148.5,-63.5"/>
<text text-anchor="middle" x="216.5" y="-70.7" font-family="-apple-system, BlinkMacSystemFont, 'Segoe UI', Roboto, Oxygen, Ubuntu, Cantarell, 'Fira Sans', 'Droid Sans', 'Helvetica Neue', sans-serif" font-size="11.00">libmirai/Types/Types.hpp</text>
</a>
</g>
</g>
<!-- Node3&#45;&gt;Node54 -->
<g id="edge13" class="edge">
<title>Node3&#45;&gt;Node54</title>
<path fill="none" stroke="midnightblue" d="M276.27,-184.34C210.7,-173.25 102.22,-153.97 96.5,-147 72.72,-118.03 120.98,-97.67 163.21,-86.06"/>
<polygon fill="midnightblue" stroke="midnightblue" points="164.15,-89.43 172.93,-83.5 162.37,-82.66 164.15,-89.43"/>
</g>
<!-- Node59 -->
<g id="node7" class="node">
<title>Node59</title>
<g id="a_node7"><a xlink:href="SessionConfig_8hpp.html" target="_top" xlink:title=" ">
<polygon fill="none" stroke="red" points="353,-63.5 353,-83.5 520,-83.5 520,-63.5 353,-63.5"/>
<text text-anchor="middle" x="436.5" y="-70.7" font-family="-apple-system, BlinkMacSystemFont, 'Segoe UI', Roboto, Oxygen, Ubuntu, Cantarell, 'Fira Sans', 'Droid Sans', 'Helvetica Neue', sans-serif" font-size="11.00">libmirai/Utils/SessionConfig.hpp</text>
</a>
</g>
</g>
<!-- Node3&#45;&gt;Node59 -->
<g id="edge8" class="edge">
<title>Node3&#45;&gt;Node59</title>
<path fill="none" stroke="midnightblue" d="M374.74,-191.26C443.19,-188.38 561.72,-178.82 588.5,-147 615.64,-114.76 564.03,-95.84 513.75,-85.46"/>
<polygon fill="midnightblue" stroke="midnightblue" points="514.22,-81.99 503.73,-83.5 512.87,-88.86 514.22,-81.99"/>
</g>
<!-- Node60 -->
<g id="node8" class="node">
<title>Node60</title>
<g id="a_node8"><a xlink:href="Events_8hpp.html" target="_top" xlink:title=" ">
<polygon fill="none" stroke="red" points="105.5,-126.5 105.5,-146.5 247.5,-146.5 247.5,-126.5 105.5,-126.5"/>
<text text-anchor="middle" x="176.5" y="-133.7" font-family="-apple-system, BlinkMacSystemFont, 'Segoe UI', Roboto, Oxygen, Ubuntu, Cantarell, 'Fira Sans', 'Droid Sans', 'Helvetica Neue', sans-serif" font-size="11.00">libmirai/Events/Events.hpp</text>
</a>
</g>
</g>
<!-- Node3&#45;&gt;Node60 -->
<g id="edge9" class="edge">
<title>Node3&#45;&gt;Node60</title>
<path fill="none" stroke="midnightblue" d="M300.9,-183.42C276.31,-174.34 238.3,-160.31 210.77,-150.15"/>
<polygon fill="midnightblue" stroke="midnightblue" points="211.73,-146.78 201.14,-146.6 209.31,-153.34 211.73,-146.78"/>
</g>
<!-- Node29 -->
<g id="node9" class="node">
<title>Node29</title>
<g id="a_node9"><a xlink:href="Exceptions_8hpp.html" target="_top" xlink:title=" ">
<polygon fill="none" stroke="red" points="0,-57.5 0,-89.5 105,-89.5 105,-57.5 0,-57.5"/>
<text text-anchor="start" x="8" y="-76.7" font-family="-apple-system, BlinkMacSystemFont, 'Segoe UI', Roboto, Oxygen, Ubuntu, Cantarell, 'Fira Sans', 'Droid Sans', 'Helvetica Neue', sans-serif" font-size="11.00">libmirai/Exceptions</text>
<text text-anchor="middle" x="52.5" y="-64.7" font-family="-apple-system, BlinkMacSystemFont, 'Segoe UI', Roboto, Oxygen, Ubuntu, Cantarell, 'Fira Sans', 'Droid Sans', 'Helvetica Neue', sans-serif" font-size="11.00">/Exceptions.hpp</text>
</a>
</g>
</g>
<!-- Node3&#45;&gt;Node29 -->
<g id="edge10" class="edge">
<title>Node3&#45;&gt;Node29</title>
<path fill="none" stroke="midnightblue" d="M276.3,-184.36C208.29,-172.94 93,-152.88 85.5,-147 70.6,-135.3 62.19,-115.36 57.6,-99.35"/>
<polygon fill="midnightblue" stroke="midnightblue" points="60.96,-98.35 55.11,-89.52 54.18,-100.08 60.96,-98.35"/>
</g>
<!-- Node102 -->
<g id="node10" class="node">
<title>Node102</title>
<g id="a_node10"><a xlink:href="Messages_8hpp.html" target="_top" xlink:title=" ">
<polygon fill="none" stroke="red" points="404,-126.5 404,-146.5 579,-146.5 579,-126.5 404,-126.5"/>
<text text-anchor="middle" x="491.5" y="-133.7" font-family="-apple-system, BlinkMacSystemFont, 'Segoe UI', Roboto, Oxygen, Ubuntu, Cantarell, 'Fira Sans', 'Droid Sans', 'Helvetica Neue', sans-serif" font-size="11.00">libmirai/Messages/Messages.hpp</text>
</a>
</g>
</g>
<!-- Node3&#45;&gt;Node102 -->
<g id="edge12" class="edge">
<title>Node3&#45;&gt;Node102</title>
<path fill="none" stroke="midnightblue" d="M352.91,-183.42C380.75,-174.19 424.02,-159.86 454.8,-149.66"/>
<polygon fill="midnightblue" stroke="midnightblue" points="455.93,-152.97 464.32,-146.5 453.73,-146.33 455.93,-152.97"/>
</g>
<!-- Node4&#45;&gt;Node13 -->
<g id="edge4" class="edge">
<title>Node4&#45;&gt;Node13</title>
<path fill="none" stroke="midnightblue" d="M326.42,-126.36C328.22,-111.26 333.08,-80.45 344.5,-57 349.54,-46.65 357.26,-36.47 364.26,-28.38"/>
<polygon fill="midnightblue" stroke="midnightblue" points="367.02,-30.53 371.15,-20.77 361.84,-25.83 367.02,-30.53"/>
</g>
<!-- Node4&#45;&gt;Node54 -->
<g id="edge5" class="edge">
<title>Node4&#45;&gt;Node54</title>
<path fill="none" stroke="midnightblue" d="M309.42,-126.5C291.55,-116.5 262.46,-100.22 241.59,-88.54"/>
<polygon fill="midnightblue" stroke="midnightblue" points="243.09,-85.37 232.65,-83.54 239.67,-91.48 243.09,-85.37"/>
</g>
<!-- Node4&#45;&gt;Node59 -->
<g id="edge6" class="edge">
<title>Node4&#45;&gt;Node59</title>
<path fill="none" stroke="midnightblue" d="M341.88,-126.5C360.16,-116.45 389.96,-100.07 411.24,-88.38"/>
<polygon fill="midnightblue" stroke="midnightblue" points="412.98,-91.42 420.05,-83.54 409.6,-85.29 412.98,-91.42"/>
</g>
<!-- Node59&#45;&gt;Node13 -->
<g id="edge7" class="edge">
<title>Node59&#45;&gt;Node13</title>
<path fill="none" stroke="midnightblue" d="M428.24,-63.5C419.72,-54.22 406.24,-39.53 395.77,-28.13"/>
<polygon fill="midnightblue" stroke="midnightblue" points="398.14,-25.54 388.8,-20.54 392.98,-30.27 398.14,-25.54"/>
</g>
<!-- Node29&#45;&gt;Node13 -->
<g id="edge11" class="edge">
<title>Node29&#45;&gt;Node13</title>
<path fill="none" stroke="midnightblue" d="M105.2,-62.7C173.93,-49.92 292.04,-27.95 348.56,-17.44"/>
<polygon fill="midnightblue" stroke="midnightblue" points="349.49,-20.83 358.69,-15.56 348.21,-13.94 349.49,-20.83"/>
</g>
</g>
</svg>
