<?xml version="1.0" encoding="UTF-8" standalone="no"?>
<!DOCTYPE svg PUBLIC "-//W3C//DTD SVG 1.1//EN"
 "http://www.w3.org/Graphics/SVG/1.1/DTD/svg11.dtd">
<!-- Generated by graphviz version 3.0.0 (20221109.1736)
 -->
<!-- Title: libmirai/aggregates/libmirai/Events/Events.hpp Pages: 1 -->
<svg width="1971pt" height="305pt"
 viewBox="0.00 0.00 1970.60 305.00" xmlns="http://www.w3.org/2000/svg" xmlns:xlink="http://www.w3.org/1999/xlink">
<g id="graph0" class="graph" transform="scale(1 1) rotate(0) translate(4 301)">
<title>libmirai/aggregates/libmirai/Events/Events.hpp</title>
<!-- Node1 -->
<g id="node1" class="node">
<title>Node1</title>
<g id="a_node1"><a xlink:title=" ">
<polygon fill="#bfbfbf" stroke="black" points="665.1,-264.5 665.1,-296.5 810.1,-296.5 810.1,-264.5 665.1,-264.5"/>
<text text-anchor="start" x="673.1" y="-283.7" font-family="-apple-system, BlinkMacSystemFont, 'Segoe UI', Roboto, Oxygen, Ubuntu, Cantarell, 'Fira Sans', 'Droid Sans', 'Helvetica Neue', sans-serif" font-size="11.00">libmirai/aggregates</text>
<text text-anchor="middle" x="737.6" y="-271.7" font-family="-apple-system, BlinkMacSystemFont, 'Segoe UI', Roboto, Oxygen, Ubuntu, Cantarell, 'Fira Sans', 'Droid Sans', 'Helvetica Neue', sans-serif" font-size="11.00">/libmirai/Events/Events.hpp</text>
</a>
</g>
</g>
<!-- Node2 -->
<g id="node2" class="node">
<title>Node2</title>
<g id="a_node2"><a xlink:href="BotEvents_8hpp.html" target="_top" xlink:title=" ">
<polygon fill="none" stroke="black" points="538.6,-132.5 538.6,-152.5 696.6,-152.5 696.6,-132.5 538.6,-132.5"/>
<text text-anchor="middle" x="617.6" y="-139.7" font-family="-apple-system, BlinkMacSystemFont, 'Segoe UI', Roboto, Oxygen, Ubuntu, Cantarell, 'Fira Sans', 'Droid Sans', 'Helvetica Neue', sans-serif" font-size="11.00">libmirai/Events/BotEvents.hpp</text>
</a>
</g>
</g>
<!-- Node1&#45;&gt;Node2 -->
<g id="edge1" class="edge">
<title>Node1&#45;&gt;Node2</title>
<path fill="none" stroke="midnightblue" d="M664.88,-269.3C616.95,-260.92 560.38,-247.27 545.6,-228 536.67,-216.36 538.89,-208.04 545.6,-195 554.16,-178.36 570.85,-165.9 586.02,-157.41"/>
<polygon fill="midnightblue" stroke="midnightblue" points="587.93,-160.36 595.18,-152.63 584.69,-154.15 587.93,-160.36"/>
</g>
<!-- Node9 -->
<g id="node6" class="node">
<title>Node9</title>
<g id="a_node6"><a xlink:href="IEvent_8hpp.html" target="_top" xlink:title=" ">
<polygon fill="none" stroke="red" points="400.6,-63.5 400.6,-83.5 468.6,-83.5 468.6,-63.5 400.6,-63.5"/>
<text text-anchor="middle" x="434.6" y="-70.7" font-family="-apple-system, BlinkMacSystemFont, 'Segoe UI', Roboto, Oxygen, Ubuntu, Cantarell, 'Fira Sans', 'Droid Sans', 'Helvetica Neue', sans-serif" font-size="11.00">IEvent.hpp</text>
</a>
</g>
</g>
<!-- Node1&#45;&gt;Node9 -->
<g id="edge18" class="edge">
<title>Node1&#45;&gt;Node9</title>
<path fill="none" stroke="midnightblue" d="M664.95,-278.44C510.9,-274.32 160.79,-254.45 103.6,-159 96.06,-146.42 94.06,-137.14 103.6,-126 139.99,-83.52 308.58,-75.8 390.15,-74.59"/>
<polygon fill="midnightblue" stroke="midnightblue" points="390.64,-78.08 400.59,-74.46 390.55,-71.08 390.64,-78.08"/>
</g>
<!-- Node13 -->
<g id="node7" class="node">
<title>Node13</title>
<g id="a_node7"><a xlink:href="CommandExecutedEvent_8hpp.html" target="_top" xlink:title=" ">
<polygon fill="none" stroke="black" points="1084.6,-195.5 1084.6,-227.5 1266.6,-227.5 1266.6,-195.5 1084.6,-195.5"/>
<text text-anchor="start" x="1092.6" y="-214.7" font-family="-apple-system, BlinkMacSystemFont, 'Segoe UI', Roboto, Oxygen, Ubuntu, Cantarell, 'Fira Sans', 'Droid Sans', 'Helvetica Neue', sans-serif" font-size="11.00">libmirai/Events/CommandExecuted</text>
<text text-anchor="middle" x="1175.6" y="-202.7" font-family="-apple-system, BlinkMacSystemFont, 'Segoe UI', Roboto, Oxygen, Ubuntu, Cantarell, 'Fira Sans', 'Droid Sans', 'Helvetica Neue', sans-serif" font-size="11.00">Event.hpp</text>
</a>
</g>
</g>
<!-- Node1&#45;&gt;Node13 -->
<g id="edge8" class="edge">
<title>Node1&#45;&gt;Node13</title>
<path fill="none" stroke="midnightblue" d="M810.14,-268.5C876.31,-258.46 977.11,-243.13 1074.56,-228.16"/>
<polygon fill="midnightblue" stroke="midnightblue" points="1075.23,-231.6 1084.58,-226.62 1074.17,-224.68 1075.23,-231.6"/>
</g>
<!-- Node43 -->
<g id="node11" class="node">
<title>Node43</title>
<g id="a_node11"><a xlink:href="FriendEvents_8hpp.html" target="_top" xlink:title=" ">
<polygon fill="none" stroke="black" points="299.1,-201.5 299.1,-221.5 472.1,-221.5 472.1,-201.5 299.1,-201.5"/>
<text text-anchor="middle" x="385.6" y="-208.7" font-family="-apple-system, BlinkMacSystemFont, 'Segoe UI', Roboto, Oxygen, Ubuntu, Cantarell, 'Fira Sans', 'Droid Sans', 'Helvetica Neue', sans-serif" font-size="11.00">libmirai/Events/FriendEvents.hpp</text>
</a>
</g>
</g>
<!-- Node1&#45;&gt;Node43 -->
<g id="edge19" class="edge">
<title>Node1&#45;&gt;Node43</title>
<path fill="none" stroke="midnightblue" d="M665.09,-265.7C599.36,-253.19 503.76,-234.99 443.14,-223.45"/>
<polygon fill="midnightblue" stroke="midnightblue" points="443.46,-219.95 432.99,-221.52 442.16,-226.83 443.46,-219.95"/>
</g>
<!-- Node44 -->
<g id="node12" class="node">
<title>Node44</title>
<g id="a_node12"><a xlink:href="GroupEvents_8hpp.html" target="_top" xlink:title=" ">
<polygon fill="none" stroke="black" points="566.6,-201.5 566.6,-221.5 738.6,-221.5 738.6,-201.5 566.6,-201.5"/>
<text text-anchor="middle" x="652.6" y="-208.7" font-family="-apple-system, BlinkMacSystemFont, 'Segoe UI', Roboto, Oxygen, Ubuntu, Cantarell, 'Fira Sans', 'Droid Sans', 'Helvetica Neue', sans-serif" font-size="11.00">libmirai/Events/GroupEvents.hpp</text>
</a>
</g>
</g>
<!-- Node1&#45;&gt;Node44 -->
<g id="edge24" class="edge">
<title>Node1&#45;&gt;Node44</title>
<path fill="none" stroke="midnightblue" d="M718.31,-264.3C704.52,-253.43 686.03,-238.85 672.17,-227.93"/>
<polygon fill="midnightblue" stroke="midnightblue" points="674.25,-225.11 664.23,-221.66 669.91,-230.6 674.25,-225.11"/>
</g>
<!-- Node45 -->
<g id="node13" class="node">
<title>Node45</title>
<g id="a_node13"><a xlink:href="MemberEvents_8hpp.html" target="_top" xlink:title=" ">
<polygon fill="none" stroke="black" points="714.6,-132.5 714.6,-152.5 896.6,-152.5 896.6,-132.5 714.6,-132.5"/>
<text text-anchor="middle" x="805.6" y="-139.7" font-family="-apple-system, BlinkMacSystemFont, 'Segoe UI', Roboto, Oxygen, Ubuntu, Cantarell, 'Fira Sans', 'Droid Sans', 'Helvetica Neue', sans-serif" font-size="11.00">libmirai/Events/MemberEvents.hpp</text>
</a>
</g>
</g>
<!-- Node1&#45;&gt;Node45 -->
<g id="edge30" class="edge">
<title>Node1&#45;&gt;Node45</title>
<path fill="none" stroke="midnightblue" d="M665.04,-270.69C601.03,-259.93 522.9,-237.64 557.6,-195 563.53,-187.72 672,-167.22 743.5,-154.39"/>
<polygon fill="midnightblue" stroke="midnightblue" points="744.54,-157.76 753.77,-152.55 743.31,-150.86 744.54,-157.76"/>
</g>
<!-- Node46 -->
<g id="node14" class="node">
<title>Node46</title>
<g id="a_node14"><a xlink:href="MiraiClientEvents_8hpp.html" target="_top" xlink:title=" ">
<polygon fill="none" stroke="black" points="1725.1,-126.5 1725.1,-158.5 1864.1,-158.5 1864.1,-126.5 1725.1,-126.5"/>
<text text-anchor="start" x="1733.1" y="-145.7" font-family="-apple-system, BlinkMacSystemFont, 'Segoe UI', Roboto, Oxygen, Ubuntu, Cantarell, 'Fira Sans', 'Droid Sans', 'Helvetica Neue', sans-serif" font-size="11.00">libmirai/Events/MiraiClient</text>
<text text-anchor="middle" x="1794.6" y="-133.7" font-family="-apple-system, BlinkMacSystemFont, 'Segoe UI', Roboto, Oxygen, Ubuntu, Cantarell, 'Fira Sans', 'Droid Sans', 'Helvetica Neue', sans-serif" font-size="11.00">Events.hpp</text>
</a>
</g>
</g>
<!-- Node1&#45;&gt;Node46 -->
<g id="edge35" class="edge">
<title>Node1&#45;&gt;Node46</title>
<path fill="none" stroke="midnightblue" d="M810.32,-279.02C993.76,-277.22 1471.6,-268.64 1624.6,-228 1675.99,-214.35 1730.12,-184.34 1763.13,-164.02"/>
<polygon fill="midnightblue" stroke="midnightblue" points="1765.24,-166.83 1771.86,-158.57 1761.53,-160.9 1765.24,-166.83"/>
</g>
<!-- Node48 -->
<g id="node16" class="node">
<title>Node48</title>
<g id="a_node16"><a xlink:href="NewFriendRequestEvent_8hpp.html" target="_top" xlink:title=" ">
<polygon fill="none" stroke="black" points="112.6,-126.5 112.6,-158.5 254.6,-158.5 254.6,-126.5 112.6,-126.5"/>
<text text-anchor="start" x="120.6" y="-145.7" font-family="-apple-system, BlinkMacSystemFont, 'Segoe UI', Roboto, Oxygen, Ubuntu, Cantarell, 'Fira Sans', 'Droid Sans', 'Helvetica Neue', sans-serif" font-size="11.00">libmirai/Events/NewFriend</text>
<text text-anchor="middle" x="183.6" y="-133.7" font-family="-apple-system, BlinkMacSystemFont, 'Segoe UI', Roboto, Oxygen, Ubuntu, Cantarell, 'Fira Sans', 'Droid Sans', 'Helvetica Neue', sans-serif" font-size="11.00">RequestEvent.hpp</text>
</a>
</g>
</g>
<!-- Node1&#45;&gt;Node48 -->
<g id="edge42" class="edge">
<title>Node1&#45;&gt;Node48</title>
<path fill="none" stroke="midnightblue" d="M664.78,-276C555.71,-269.95 355.66,-255.44 289.6,-228 255.87,-213.99 224.09,-185.92 204.28,-165.98"/>
<polygon fill="midnightblue" stroke="midnightblue" points="206.77,-163.52 197.3,-158.78 201.75,-168.39 206.77,-163.52"/>
</g>
<!-- Node49 -->
<g id="node17" class="node">
<title>Node49</title>
<g id="a_node17"><a xlink:href="NudgeEvent_8hpp.html" target="_top" xlink:title=" ">
<polygon fill="none" stroke="black" points="1446.1,-201.5 1446.1,-221.5 1615.1,-221.5 1615.1,-201.5 1446.1,-201.5"/>
<text text-anchor="middle" x="1530.6" y="-208.7" font-family="-apple-system, BlinkMacSystemFont, 'Segoe UI', Roboto, Oxygen, Ubuntu, Cantarell, 'Fira Sans', 'Droid Sans', 'Helvetica Neue', sans-serif" font-size="11.00">libmirai/Events/NudgeEvent.hpp</text>
</a>
</g>
</g>
<!-- Node1&#45;&gt;Node49 -->
<g id="edge46" class="edge">
<title>Node1&#45;&gt;Node49</title>
<path fill="none" stroke="midnightblue" d="M810.11,-276.36C937.44,-270.36 1209.38,-255.35 1437.6,-228 1448.55,-226.69 1460.18,-224.99 1471.37,-223.21"/>
<polygon fill="midnightblue" stroke="midnightblue" points="1472.19,-226.62 1481.49,-221.55 1471.06,-219.71 1472.19,-226.62"/>
</g>
<!-- Node51 -->
<g id="node19" class="node">
<title>Node51</title>
<g id="a_node19"><a xlink:href="OtherClientEvents_8hpp.html" target="_top" xlink:title=" ">
<polygon fill="none" stroke="black" points="1285.1,-195.5 1285.1,-227.5 1428.1,-227.5 1428.1,-195.5 1285.1,-195.5"/>
<text text-anchor="start" x="1293.1" y="-214.7" font-family="-apple-system, BlinkMacSystemFont, 'Segoe UI', Roboto, Oxygen, Ubuntu, Cantarell, 'Fira Sans', 'Droid Sans', 'Helvetica Neue', sans-serif" font-size="11.00">libmirai/Events/OtherClient</text>
<text text-anchor="middle" x="1356.6" y="-202.7" font-family="-apple-system, BlinkMacSystemFont, 'Segoe UI', Roboto, Oxygen, Ubuntu, Cantarell, 'Fira Sans', 'Droid Sans', 'Helvetica Neue', sans-serif" font-size="11.00">Events.hpp</text>
</a>
</g>
</g>
<!-- Node1&#45;&gt;Node51 -->
<g id="edge53" class="edge">
<title>Node1&#45;&gt;Node51</title>
<path fill="none" stroke="midnightblue" d="M810.52,-274.7C912.23,-267.51 1102.61,-252.31 1274.67,-228.05"/>
<polygon fill="midnightblue" stroke="midnightblue" points="1275.26,-231.5 1284.67,-226.63 1274.28,-224.57 1275.26,-231.5"/>
</g>
<!-- Node52 -->
<g id="node20" class="node">
<title>Node52</title>
<g id="a_node20"><a xlink:href="StrangerMessageEvents_8hpp.html" target="_top" xlink:title=" ">
<polygon fill="none" stroke="black" points="757.1,-195.5 757.1,-227.5 888.1,-227.5 888.1,-195.5 757.1,-195.5"/>
<text text-anchor="start" x="765.1" y="-214.7" font-family="-apple-system, BlinkMacSystemFont, 'Segoe UI', Roboto, Oxygen, Ubuntu, Cantarell, 'Fira Sans', 'Droid Sans', 'Helvetica Neue', sans-serif" font-size="11.00">libmirai/Events/Stranger</text>
<text text-anchor="middle" x="822.6" y="-202.7" font-family="-apple-system, BlinkMacSystemFont, 'Segoe UI', Roboto, Oxygen, Ubuntu, Cantarell, 'Fira Sans', 'Droid Sans', 'Helvetica Neue', sans-serif" font-size="11.00">MessageEvents.hpp</text>
</a>
</g>
</g>
<!-- Node1&#45;&gt;Node52 -->
<g id="edge58" class="edge">
<title>Node1&#45;&gt;Node52</title>
<path fill="none" stroke="midnightblue" d="M756.89,-264.3C768.3,-255.3 782.93,-243.77 795.49,-233.87"/>
<polygon fill="midnightblue" stroke="midnightblue" points="797.7,-236.58 803.39,-227.64 793.37,-231.08 797.7,-236.58"/>
</g>
<!-- Node53 -->
<g id="node21" class="node">
<title>Node53</title>
<g id="a_node21"><a xlink:href="TempMessageEvents_8hpp.html" target="_top" xlink:title=" ">
<polygon fill="none" stroke="black" points="906.6,-195.5 906.6,-227.5 1066.6,-227.5 1066.6,-195.5 906.6,-195.5"/>
<text text-anchor="start" x="914.6" y="-214.7" font-family="-apple-system, BlinkMacSystemFont, 'Segoe UI', Roboto, Oxygen, Ubuntu, Cantarell, 'Fira Sans', 'Droid Sans', 'Helvetica Neue', sans-serif" font-size="11.00">libmirai/Events/TempMessage</text>
<text text-anchor="middle" x="986.6" y="-202.7" font-family="-apple-system, BlinkMacSystemFont, 'Segoe UI', Roboto, Oxygen, Ubuntu, Cantarell, 'Fira Sans', 'Droid Sans', 'Helvetica Neue', sans-serif" font-size="11.00">Events.hpp</text>
</a>
</g>
</g>
<!-- Node1&#45;&gt;Node53 -->
<g id="edge63" class="edge">
<title>Node1&#45;&gt;Node53</title>
<path fill="none" stroke="midnightblue" d="M793.48,-264.46C831.15,-254.33 881.02,-240.91 920.64,-230.25"/>
<polygon fill="midnightblue" stroke="midnightblue" points="921.73,-233.58 930.48,-227.6 919.91,-226.82 921.73,-233.58"/>
</g>
<!-- Node3 -->
<g id="node3" class="node">
<title>Node3</title>
<g id="a_node3"><a xlink:title=" ">
<polygon fill="none" stroke="#bfbfbf" points="910.6,-63.5 910.6,-83.5 964.6,-83.5 964.6,-63.5 910.6,-63.5"/>
<text text-anchor="middle" x="937.6" y="-70.7" font-family="-apple-system, BlinkMacSystemFont, 'Segoe UI', Roboto, Oxygen, Ubuntu, Cantarell, 'Fira Sans', 'Droid Sans', 'Helvetica Neue', sans-serif" font-size="11.00">optional</text>
</a>
</g>
</g>
<!-- Node2&#45;&gt;Node3 -->
<g id="edge2" class="edge">
<title>Node2&#45;&gt;Node3</title>
<path fill="none" stroke="midnightblue" d="M660.76,-132.46C724,-119.22 840.81,-94.76 900.45,-82.28"/>
<polygon fill="midnightblue" stroke="midnightblue" points="901.48,-85.64 910.55,-80.16 900.05,-78.79 901.48,-85.64"/>
</g>
<!-- Node4 -->
<g id="node4" class="node">
<title>Node4</title>
<g id="a_node4"><a xlink:title=" ">
<polygon fill="none" stroke="#bfbfbf" points="784.1,-0.5 784.1,-20.5 827.1,-20.5 827.1,-0.5 784.1,-0.5"/>
<text text-anchor="middle" x="805.6" y="-7.7" font-family="-apple-system, BlinkMacSystemFont, 'Segoe UI', Roboto, Oxygen, Ubuntu, Cantarell, 'Fira Sans', 'Droid Sans', 'Helvetica Neue', sans-serif" font-size="11.00">string</text>
</a>
</g>
</g>
<!-- Node2&#45;&gt;Node4 -->
<g id="edge3" class="edge">
<title>Node2&#45;&gt;Node4</title>
<path fill="none" stroke="midnightblue" d="M630.82,-132.36C662.78,-110.26 744.47,-53.77 783.8,-26.57"/>
<polygon fill="midnightblue" stroke="midnightblue" points="786.16,-29.2 792.39,-20.63 782.18,-23.44 786.16,-29.2"/>
</g>
<!-- Node5 -->
<g id="node5" class="node">
<title>Node5</title>
<g id="a_node5"><a xlink:href="BasicTypes_8hpp.html" target="_top" xlink:title=" ">
<polygon fill="none" stroke="red" points="982.6,-63.5 982.6,-83.5 1144.6,-83.5 1144.6,-63.5 982.6,-63.5"/>
<text text-anchor="middle" x="1063.6" y="-70.7" font-family="-apple-system, BlinkMacSystemFont, 'Segoe UI', Roboto, Oxygen, Ubuntu, Cantarell, 'Fira Sans', 'Droid Sans', 'Helvetica Neue', sans-serif" font-size="11.00">libmirai/Types/BasicTypes.hpp</text>
</a>
</g>
</g>
<!-- Node2&#45;&gt;Node5 -->
<g id="edge4" class="edge">
<title>Node2&#45;&gt;Node5</title>
<path fill="none" stroke="midnightblue" d="M666.88,-132.46C679.48,-130.24 693.03,-127.95 705.6,-126 824.36,-107.57 854.81,-108.2 973.6,-90 983.14,-88.54 993.23,-86.9 1003.07,-85.24"/>
<polygon fill="midnightblue" stroke="midnightblue" points="1003.93,-88.65 1013.2,-83.52 1002.75,-81.74 1003.93,-88.65"/>
</g>
<!-- Node2&#45;&gt;Node9 -->
<g id="edge6" class="edge">
<title>Node2&#45;&gt;Node9</title>
<path fill="none" stroke="midnightblue" d="M592.92,-132.46C560.99,-120.78 505.21,-100.35 469.1,-87.13"/>
<polygon fill="midnightblue" stroke="midnightblue" points="470.07,-83.76 459.47,-83.61 467.66,-90.33 470.07,-83.76"/>
</g>
<!-- Node5&#45;&gt;Node4 -->
<g id="edge5" class="edge">
<title>Node5&#45;&gt;Node4</title>
<path fill="none" stroke="midnightblue" d="M1025.53,-63.5C974.45,-51.42 884.66,-30.19 837.15,-18.96"/>
<polygon fill="midnightblue" stroke="midnightblue" points="837.66,-15.48 827.13,-16.59 836.05,-22.3 837.66,-15.48"/>
</g>
<!-- Node9&#45;&gt;Node4 -->
<g id="edge7" class="edge">
<title>Node9&#45;&gt;Node4</title>
<path fill="none" stroke="midnightblue" d="M468.84,-66.87C540.33,-55.12 704.57,-28.11 773.85,-16.72"/>
<polygon fill="midnightblue" stroke="midnightblue" points="774.44,-20.17 783.74,-15.09 773.31,-13.26 774.44,-20.17"/>
</g>
<!-- Node13&#45;&gt;Node3 -->
<g id="edge9" class="edge">
<title>Node13&#45;&gt;Node3</title>
<path fill="none" stroke="midnightblue" d="M1194.93,-195.32C1215.37,-177.47 1242.27,-147.55 1223.6,-126 1186.85,-83.58 1027.62,-105.23 973.6,-90 970.93,-89.25 968.2,-88.34 965.49,-87.35"/>
<polygon fill="midnightblue" stroke="midnightblue" points="966.53,-83.99 955.94,-83.5 963.91,-90.49 966.53,-83.99"/>
</g>
<!-- Node13&#45;&gt;Node4 -->
<g id="edge10" class="edge">
<title>Node13&#45;&gt;Node4</title>
<path fill="none" stroke="midnightblue" d="M1266.86,-196.19C1269.81,-195.78 1272.73,-195.38 1275.6,-195 1347.85,-185.42 1552.97,-213.29 1601.6,-159 1611.39,-148.07 1610.94,-137.3 1601.6,-126 1551.81,-65.76 980.14,-23.3 837.63,-13.61"/>
<polygon fill="midnightblue" stroke="midnightblue" points="837.59,-10.1 827.38,-12.92 837.12,-17.08 837.59,-10.1"/>
</g>
<!-- Node13&#45;&gt;Node5 -->
<g id="edge16" class="edge">
<title>Node13&#45;&gt;Node5</title>
<path fill="none" stroke="midnightblue" d="M1205.56,-195.39C1219.22,-186.76 1234.01,-174.54 1241.6,-159 1248.03,-145.82 1250.41,-137.72 1241.6,-126 1227.99,-107.89 1175.47,-94.12 1130.98,-85.39"/>
<polygon fill="midnightblue" stroke="midnightblue" points="1131.52,-81.93 1121.05,-83.5 1130.21,-88.81 1131.52,-81.93"/>
</g>
<!-- Node13&#45;&gt;Node9 -->
<g id="edge17" class="edge">
<title>Node13&#45;&gt;Node9</title>
<path fill="none" stroke="midnightblue" d="M1084.36,-195.99C1081.41,-195.64 1078.48,-195.31 1075.6,-195 1007.31,-187.73 512.16,-201.98 458.6,-159 439.22,-143.45 434.79,-113.47 434.13,-93.72"/>
<polygon fill="midnightblue" stroke="midnightblue" points="437.63,-93.69 434.08,-83.71 430.63,-93.73 437.63,-93.69"/>
</g>
<!-- Node14 -->
<g id="node8" class="node">
<title>Node14</title>
<g id="a_node8"><a xlink:href="MessageChain_8hpp.html" target="_top" xlink:title=" ">
<polygon fill="none" stroke="red" points="1066.1,-126.5 1066.1,-158.5 1215.1,-158.5 1215.1,-126.5 1066.1,-126.5"/>
<text text-anchor="start" x="1074.1" y="-145.7" font-family="-apple-system, BlinkMacSystemFont, 'Segoe UI', Roboto, Oxygen, Ubuntu, Cantarell, 'Fira Sans', 'Droid Sans', 'Helvetica Neue', sans-serif" font-size="11.00">libmirai/Messages/Message</text>
<text text-anchor="middle" x="1140.6" y="-133.7" font-family="-apple-system, BlinkMacSystemFont, 'Segoe UI', Roboto, Oxygen, Ubuntu, Cantarell, 'Fira Sans', 'Droid Sans', 'Helvetica Neue', sans-serif" font-size="11.00">Chain.hpp</text>
</a>
</g>
</g>
<!-- Node13&#45;&gt;Node14 -->
<g id="edge11" class="edge">
<title>Node13&#45;&gt;Node14</title>
<path fill="none" stroke="midnightblue" d="M1167.66,-195.3C1163.41,-187.16 1158.07,-176.94 1153.26,-167.74"/>
<polygon fill="midnightblue" stroke="midnightblue" points="1156.24,-165.89 1148.51,-158.64 1150.04,-169.13 1156.24,-165.89"/>
</g>
<!-- Node14&#45;&gt;Node3 -->
<g id="edge12" class="edge">
<title>Node14&#45;&gt;Node3</title>
<path fill="none" stroke="midnightblue" d="M1086.71,-126.48C1053.75,-116.9 1010.9,-103.74 973.6,-90 971.47,-89.22 969.29,-88.37 967.1,-87.5"/>
<polygon fill="midnightblue" stroke="midnightblue" points="968.21,-84.17 957.63,-83.58 965.53,-90.64 968.21,-84.17"/>
</g>
<!-- Node21 -->
<g id="node9" class="node">
<title>Node21</title>
<g id="a_node9"><a xlink:href="Exceptions_8hpp.html" target="_top" xlink:title=" ">
<polygon fill="none" stroke="red" points="1725.1,-57.5 1725.1,-89.5 1830.1,-89.5 1830.1,-57.5 1725.1,-57.5"/>
<text text-anchor="start" x="1733.1" y="-76.7" font-family="-apple-system, BlinkMacSystemFont, 'Segoe UI', Roboto, Oxygen, Ubuntu, Cantarell, 'Fira Sans', 'Droid Sans', 'Helvetica Neue', sans-serif" font-size="11.00">libmirai/Exceptions</text>
<text text-anchor="middle" x="1777.6" y="-64.7" font-family="-apple-system, BlinkMacSystemFont, 'Segoe UI', Roboto, Oxygen, Ubuntu, Cantarell, 'Fira Sans', 'Droid Sans', 'Helvetica Neue', sans-serif" font-size="11.00">/Exceptions.hpp</text>
</a>
</g>
</g>
<!-- Node14&#45;&gt;Node21 -->
<g id="edge13" class="edge">
<title>Node14&#45;&gt;Node21</title>
<path fill="none" stroke="midnightblue" d="M1215.23,-133.65C1341.97,-120.32 1596.96,-93.5 1715.01,-81.08"/>
<polygon fill="midnightblue" stroke="midnightblue" points="1715.39,-84.56 1724.97,-80.04 1714.66,-77.6 1715.39,-84.56"/>
</g>
<!-- Node21&#45;&gt;Node4 -->
<g id="edge15" class="edge">
<title>Node21&#45;&gt;Node4</title>
<path fill="none" stroke="midnightblue" d="M1725.1,-59.43C1720.22,-58.49 1715.33,-57.66 1710.6,-57 1371.03,-9.57 953.7,-9.92 837.14,-11.07"/>
<polygon fill="midnightblue" stroke="midnightblue" points="837.07,-7.57 827.11,-11.18 837.15,-14.57 837.07,-7.57"/>
</g>
<!-- Node22 -->
<g id="node10" class="node">
<title>Node22</title>
<g id="a_node10"><a xlink:title=" ">
<polygon fill="none" stroke="#bfbfbf" points="1805.6,-0.5 1805.6,-20.5 1867.6,-20.5 1867.6,-0.5 1805.6,-0.5"/>
<text text-anchor="middle" x="1836.6" y="-7.7" font-family="-apple-system, BlinkMacSystemFont, 'Segoe UI', Roboto, Oxygen, Ubuntu, Cantarell, 'Fira Sans', 'Droid Sans', 'Helvetica Neue', sans-serif" font-size="11.00">exception</text>
</a>
</g>
</g>
<!-- Node21&#45;&gt;Node22 -->
<g id="edge14" class="edge">
<title>Node21&#45;&gt;Node22</title>
<path fill="none" stroke="midnightblue" d="M1792.18,-57.42C1800.84,-48.47 1811.82,-37.12 1820.7,-27.94"/>
<polygon fill="midnightblue" stroke="midnightblue" points="1823.41,-30.17 1827.85,-20.55 1818.38,-25.3 1823.41,-30.17"/>
</g>
<!-- Node43&#45;&gt;Node4 -->
<g id="edge20" class="edge">
<title>Node43&#45;&gt;Node4</title>
<path fill="none" stroke="midnightblue" d="M298.75,-210.61C203.3,-208.66 58.79,-198.96 23.6,-159 -6.36,-124.98 -8.51,-89.97 22.6,-57 48.78,-29.25 629.46,-15.21 773.49,-12.15"/>
<polygon fill="midnightblue" stroke="midnightblue" points="773.92,-15.64 783.84,-11.93 773.77,-8.64 773.92,-15.64"/>
</g>
<!-- Node43&#45;&gt;Node5 -->
<g id="edge22" class="edge">
<title>Node43&#45;&gt;Node5</title>
<path fill="none" stroke="midnightblue" d="M472.11,-202.68C617.47,-189.44 895.92,-163.58 905.6,-159 924.35,-150.13 921.34,-137.51 938.6,-126 964.55,-108.7 997.23,-95.48 1022.67,-86.77"/>
<polygon fill="midnightblue" stroke="midnightblue" points="1024,-90.02 1032.38,-83.55 1021.79,-83.38 1024,-90.02"/>
</g>
<!-- Node43&#45;&gt;Node9 -->
<g id="edge23" class="edge">
<title>Node43&#45;&gt;Node9</title>
<path fill="none" stroke="midnightblue" d="M359.92,-201.46C341.42,-193.43 317.83,-179.73 306.6,-159 299.61,-146.1 298.39,-138.15 306.6,-126 325.25,-98.39 361.42,-85.58 390.57,-79.64"/>
<polygon fill="midnightblue" stroke="midnightblue" points="391.34,-83.05 400.55,-77.81 390.08,-76.17 391.34,-83.05"/>
</g>
<!-- Node43&#45;&gt;Node14 -->
<g id="edge21" class="edge">
<title>Node43&#45;&gt;Node14</title>
<path fill="none" stroke="midnightblue" d="M472.22,-202.66C499.53,-200.2 529.83,-197.48 557.6,-195 734.93,-179.18 942.62,-160.89 1056.04,-150.92"/>
<polygon fill="midnightblue" stroke="midnightblue" points="1056.4,-154.4 1066.05,-150.04 1055.78,-147.43 1056.4,-154.4"/>
</g>
<!-- Node44&#45;&gt;Node3 -->
<g id="edge25" class="edge">
<title>Node44&#45;&gt;Node3</title>
<path fill="none" stroke="midnightblue" d="M703.33,-201.47C774.94,-188.53 897.89,-165.56 905.6,-159 924.88,-142.6 932.57,-113.31 935.62,-93.89"/>
<polygon fill="midnightblue" stroke="midnightblue" points="939.11,-94.14 936.93,-83.77 932.17,-93.24 939.11,-94.14"/>
</g>
<!-- Node44&#45;&gt;Node4 -->
<g id="edge26" class="edge">
<title>Node44&#45;&gt;Node4</title>
<path fill="none" stroke="midnightblue" d="M566.43,-202.61C539,-200.14 508.53,-197.42 480.6,-195 432.39,-190.83 79.37,-194.6 46.6,-159 15.9,-125.65 15.52,-90 46.6,-57 71.91,-30.13 632.4,-15.48 773.56,-12.21"/>
<polygon fill="midnightblue" stroke="midnightblue" points="773.8,-15.7 783.72,-11.98 773.64,-8.71 773.8,-15.7"/>
</g>
<!-- Node44&#45;&gt;Node5 -->
<g id="edge28" class="edge">
<title>Node44&#45;&gt;Node5</title>
<path fill="none" stroke="midnightblue" d="M707.69,-201.45C782.74,-188.95 910.19,-167.03 930.6,-159 974.59,-141.71 1019.78,-109.26 1044.52,-90"/>
<polygon fill="midnightblue" stroke="midnightblue" points="1047,-92.5 1052.67,-83.55 1042.65,-87.01 1047,-92.5"/>
</g>
<!-- Node44&#45;&gt;Node9 -->
<g id="edge29" class="edge">
<title>Node44&#45;&gt;Node9</title>
<path fill="none" stroke="midnightblue" d="M566.24,-201.77C480.21,-192.18 358.9,-175.89 344.6,-159 335.12,-147.81 337.24,-138.69 344.6,-126 355.21,-107.7 375.05,-95.35 393.4,-87.34"/>
<polygon fill="midnightblue" stroke="midnightblue" points="394.85,-90.53 402.81,-83.54 392.22,-84.04 394.85,-90.53"/>
</g>
<!-- Node44&#45;&gt;Node14 -->
<g id="edge27" class="edge">
<title>Node44&#45;&gt;Node14</title>
<path fill="none" stroke="midnightblue" d="M706.31,-201.43C719.78,-199.24 734.21,-196.97 747.6,-195 805.22,-186.53 958.44,-166.74 1055.66,-154.31"/>
<polygon fill="midnightblue" stroke="midnightblue" points="1056.29,-157.76 1065.77,-153.02 1055.41,-150.82 1056.29,-157.76"/>
</g>
<!-- Node45&#45;&gt;Node3 -->
<g id="edge31" class="edge">
<title>Node45&#45;&gt;Node3</title>
<path fill="none" stroke="midnightblue" d="M823.4,-132.46C845.84,-121.08 884.62,-101.39 910.68,-88.16"/>
<polygon fill="midnightblue" stroke="midnightblue" points="912.33,-91.25 919.66,-83.61 909.16,-85.01 912.33,-91.25"/>
</g>
<!-- Node45&#45;&gt;Node4 -->
<g id="edge32" class="edge">
<title>Node45&#45;&gt;Node4</title>
<path fill="none" stroke="midnightblue" d="M805.6,-132.15C805.6,-111.07 805.6,-59.46 805.6,-31.05"/>
<polygon fill="midnightblue" stroke="midnightblue" points="809.1,-30.76 805.6,-20.76 802.1,-30.76 809.1,-30.76"/>
</g>
<!-- Node45&#45;&gt;Node5 -->
<g id="edge33" class="edge">
<title>Node45&#45;&gt;Node5</title>
<path fill="none" stroke="midnightblue" d="M840.39,-132.46C886.56,-120.48 968.11,-99.3 1018.82,-86.13"/>
<polygon fill="midnightblue" stroke="midnightblue" points="1019.73,-89.51 1028.53,-83.61 1017.97,-82.73 1019.73,-89.51"/>
</g>
<!-- Node45&#45;&gt;Node9 -->
<g id="edge34" class="edge">
<title>Node45&#45;&gt;Node9</title>
<path fill="none" stroke="midnightblue" d="M755.57,-132.46C682.66,-119.3 548.39,-95.05 478.88,-82.5"/>
<polygon fill="midnightblue" stroke="midnightblue" points="479.17,-78.99 468.71,-80.66 477.93,-85.88 479.17,-78.99"/>
</g>
<!-- Node46&#45;&gt;Node4 -->
<g id="edge38" class="edge">
<title>Node46&#45;&gt;Node4</title>
<path fill="none" stroke="midnightblue" d="M1813.04,-126.21C1832.88,-107.98 1859.14,-77.41 1839.6,-57 1804.1,-19.9 1007.51,-12.78 837.39,-11.68"/>
<polygon fill="midnightblue" stroke="midnightblue" points="837.34,-8.18 827.32,-11.61 837.3,-15.18 837.34,-8.18"/>
</g>
<!-- Node46&#45;&gt;Node5 -->
<g id="edge40" class="edge">
<title>Node46&#45;&gt;Node5</title>
<path fill="none" stroke="midnightblue" d="M1724.84,-135.11C1591.93,-122.92 1302.49,-96.4 1154.58,-82.84"/>
<polygon fill="midnightblue" stroke="midnightblue" points="1154.89,-79.35 1144.61,-81.92 1154.25,-86.32 1154.89,-79.35"/>
</g>
<!-- Node46&#45;&gt;Node9 -->
<g id="edge41" class="edge">
<title>Node46&#45;&gt;Node9</title>
<path fill="none" stroke="midnightblue" d="M1724.96,-135.3C1688.28,-132.19 1642.53,-128.55 1601.6,-126 1164.32,-98.8 633.99,-80.83 479.07,-75.88"/>
<polygon fill="midnightblue" stroke="midnightblue" points="479.1,-72.38 468.99,-75.56 478.88,-79.38 479.1,-72.38"/>
</g>
<!-- Node46&#45;&gt;Node21 -->
<g id="edge39" class="edge">
<title>Node46&#45;&gt;Node21</title>
<path fill="none" stroke="midnightblue" d="M1790.74,-126.3C1788.74,-118.42 1786.25,-108.59 1783.97,-99.61"/>
<polygon fill="midnightblue" stroke="midnightblue" points="1787.29,-98.48 1781.44,-89.64 1780.51,-100.2 1787.29,-98.48"/>
</g>
<!-- Node46&#45;&gt;Node22 -->
<g id="edge36" class="edge">
<title>Node46&#45;&gt;Node22</title>
<path fill="none" stroke="midnightblue" d="M1832.29,-126.36C1847.7,-118.07 1863.91,-106.15 1872.6,-90 1879.55,-77.08 1877.42,-70.85 1872.6,-57 1868.83,-46.15 1861.28,-35.95 1854.06,-27.96"/>
<polygon fill="midnightblue" stroke="midnightblue" points="1856.57,-25.52 1847.11,-20.77 1851.54,-30.39 1856.57,-25.52"/>
</g>
<!-- Node47 -->
<g id="node15" class="node">
<title>Node47</title>
<g id="a_node15"><a xlink:title=" ">
<polygon fill="none" stroke="#bfbfbf" points="1924.6,-63.5 1924.6,-83.5 1962.6,-83.5 1962.6,-63.5 1924.6,-63.5"/>
<text text-anchor="middle" x="1943.6" y="-70.7" font-family="-apple-system, BlinkMacSystemFont, 'Segoe UI', Roboto, Oxygen, Ubuntu, Cantarell, 'Fira Sans', 'Droid Sans', 'Helvetica Neue', sans-serif" font-size="11.00">map</text>
</a>
</g>
</g>
<!-- Node46&#45;&gt;Node47 -->
<g id="edge37" class="edge">
<title>Node46&#45;&gt;Node47</title>
<path fill="none" stroke="midnightblue" d="M1828.95,-126.48C1852.08,-116.31 1883.24,-102.5 1910.6,-90 1912.14,-89.29 1913.73,-88.57 1915.32,-87.83"/>
<polygon fill="midnightblue" stroke="midnightblue" points="1916.85,-90.98 1924.44,-83.58 1913.89,-84.63 1916.85,-90.98"/>
</g>
<!-- Node48&#45;&gt;Node4 -->
<g id="edge43" class="edge">
<title>Node48&#45;&gt;Node4</title>
<path fill="none" stroke="midnightblue" d="M213.03,-126.5C252.55,-107.07 325.47,-73.72 391.6,-57 530.67,-21.83 702.82,-13.85 773.26,-12.03"/>
<polygon fill="midnightblue" stroke="midnightblue" points="773.76,-15.52 783.68,-11.79 773.6,-8.52 773.76,-15.52"/>
</g>
<!-- Node48&#45;&gt;Node5 -->
<g id="edge44" class="edge">
<title>Node48&#45;&gt;Node5</title>
<path fill="none" stroke="midnightblue" d="M254.89,-137.82C422.04,-129.03 835.49,-106.35 973.6,-90 984.33,-88.73 995.72,-87.04 1006.67,-85.24"/>
<polygon fill="midnightblue" stroke="midnightblue" points="1007.28,-88.68 1016.56,-83.56 1006.12,-81.78 1007.28,-88.68"/>
</g>
<!-- Node48&#45;&gt;Node9 -->
<g id="edge45" class="edge">
<title>Node48&#45;&gt;Node9</title>
<path fill="none" stroke="midnightblue" d="M239.93,-126.46C285.6,-114.27 349.03,-97.34 390.92,-86.16"/>
<polygon fill="midnightblue" stroke="midnightblue" points="392.06,-89.48 400.82,-83.52 390.25,-82.72 392.06,-89.48"/>
</g>
<!-- Node49&#45;&gt;Node4 -->
<g id="edge47" class="edge">
<title>Node49&#45;&gt;Node4</title>
<path fill="none" stroke="midnightblue" d="M1572.26,-201.46C1595.19,-194.13 1621.74,-181.23 1635.6,-159 1643.36,-146.55 1642.97,-138.68 1635.6,-126 1604.5,-72.47 1573.9,-74.77 1514.6,-57 1385.14,-18.2 957.81,-12.49 837.42,-11.65"/>
<polygon fill="midnightblue" stroke="midnightblue" points="837.39,-8.15 827.37,-11.58 837.35,-15.15 837.39,-8.15"/>
</g>
<!-- Node49&#45;&gt;Node5 -->
<g id="edge48" class="edge">
<title>Node49&#45;&gt;Node5</title>
<path fill="none" stroke="midnightblue" d="M1508.65,-201.49C1467.57,-184.88 1376.05,-149.02 1296.6,-126 1238.4,-109.14 1170.64,-94.73 1123.25,-85.48"/>
<polygon fill="midnightblue" stroke="midnightblue" points="1123.64,-81.99 1113.16,-83.53 1122.31,-88.86 1123.64,-81.99"/>
</g>
<!-- Node49&#45;&gt;Node9 -->
<g id="edge52" class="edge">
<title>Node49&#45;&gt;Node9</title>
<path fill="none" stroke="midnightblue" d="M1483.44,-201.46C1468.8,-198.97 1452.58,-196.54 1437.6,-195 1337.16,-184.68 622.96,-197.46 529.6,-159 509.53,-150.73 509.78,-140.47 493.6,-126 480.06,-113.89 464.59,-100.4 452.89,-90.26"/>
<polygon fill="midnightblue" stroke="midnightblue" points="454.97,-87.43 445.11,-83.54 450.39,-92.73 454.97,-87.43"/>
</g>
<!-- Node50 -->
<g id="node18" class="node">
<title>Node50</title>
<g id="a_node18"><a xlink:href="NudgeTarget_8hpp.html" target="_top" xlink:title=" ">
<polygon fill="none" stroke="red" points="1422.6,-132.5 1422.6,-152.5 1592.6,-152.5 1592.6,-132.5 1422.6,-132.5"/>
<text text-anchor="middle" x="1507.6" y="-139.7" font-family="-apple-system, BlinkMacSystemFont, 'Segoe UI', Roboto, Oxygen, Ubuntu, Cantarell, 'Fira Sans', 'Droid Sans', 'Helvetica Neue', sans-serif" font-size="11.00">libmirai/Types/NudgeTarget.hpp</text>
</a>
</g>
</g>
<!-- Node49&#45;&gt;Node50 -->
<g id="edge49" class="edge">
<title>Node49&#45;&gt;Node50</title>
<path fill="none" stroke="midnightblue" d="M1527.5,-201.46C1524.09,-191.53 1518.51,-175.28 1514.13,-162.52"/>
<polygon fill="midnightblue" stroke="midnightblue" points="1517.36,-161.14 1510.8,-152.82 1510.74,-163.42 1517.36,-161.14"/>
</g>
<!-- Node50&#45;&gt;Node4 -->
<g id="edge50" class="edge">
<title>Node50&#45;&gt;Node4</title>
<path fill="none" stroke="midnightblue" d="M1474.66,-132.42C1412.38,-115.52 1272.91,-78.98 1153.6,-57 1038,-35.71 899,-20.67 837.52,-14.55"/>
<polygon fill="midnightblue" stroke="midnightblue" points="837.6,-11.04 827.31,-13.54 836.92,-18.01 837.6,-11.04"/>
</g>
<!-- Node50&#45;&gt;Node5 -->
<g id="edge51" class="edge">
<title>Node50&#45;&gt;Node5</title>
<path fill="none" stroke="midnightblue" d="M1450.55,-132.5C1436.81,-130.35 1422.19,-128.08 1408.6,-126 1314.03,-111.54 1204.79,-95.31 1135.01,-85.01"/>
<polygon fill="midnightblue" stroke="midnightblue" points="1135.41,-81.53 1125.01,-83.53 1134.39,-88.45 1135.41,-81.53"/>
</g>
<!-- Node51&#45;&gt;Node4 -->
<g id="edge54" class="edge">
<title>Node51&#45;&gt;Node4</title>
<path fill="none" stroke="midnightblue" d="M1428.26,-196.69C1505.57,-181.76 1617.83,-159.94 1618.6,-159 1627.92,-147.67 1627.11,-137.94 1618.6,-126 1564.02,-49.43 1510.7,-75.97 1418.6,-57 1199.89,-11.95 929.18,-10.15 837.59,-10.99"/>
<polygon fill="midnightblue" stroke="midnightblue" points="837.28,-7.49 827.32,-11.1 837.36,-14.49 837.28,-7.49"/>
</g>
<!-- Node51&#45;&gt;Node5 -->
<g id="edge56" class="edge">
<title>Node51&#45;&gt;Node5</title>
<path fill="none" stroke="midnightblue" d="M1343.22,-195.33C1325.65,-176.34 1292.98,-144.12 1258.6,-126 1220.49,-105.92 1173.99,-93.25 1135.95,-85.5"/>
<polygon fill="midnightblue" stroke="midnightblue" points="1136.45,-82.03 1125.97,-83.54 1135.1,-88.9 1136.45,-82.03"/>
</g>
<!-- Node51&#45;&gt;Node9 -->
<g id="edge57" class="edge">
<title>Node51&#45;&gt;Node9</title>
<path fill="none" stroke="midnightblue" d="M1284.69,-196.19C1281.63,-195.75 1278.59,-195.35 1275.6,-195 1189.55,-184.83 572.97,-199.93 496.6,-159 469.97,-144.73 451.8,-113.42 442.32,-93.18"/>
<polygon fill="midnightblue" stroke="midnightblue" points="445.4,-91.48 438.16,-83.75 439,-94.31 445.4,-91.48"/>
</g>
<!-- Node51&#45;&gt;Node14 -->
<g id="edge55" class="edge">
<title>Node51&#45;&gt;Node14</title>
<path fill="none" stroke="midnightblue" d="M1308.13,-195.46C1275.86,-185.46 1233.29,-172.25 1199.14,-161.66"/>
<polygon fill="midnightblue" stroke="midnightblue" points="1199.87,-158.22 1189.29,-158.6 1197.8,-164.91 1199.87,-158.22"/>
</g>
<!-- Node52&#45;&gt;Node4 -->
<g id="edge59" class="edge">
<title>Node52&#45;&gt;Node4</title>
<path fill="none" stroke="midnightblue" d="M756.84,-196.33C753.73,-195.84 750.63,-195.39 747.6,-195 672.89,-185.35 122.43,-213.66 70.6,-159 39.41,-126.1 39.55,-90.03 70.6,-57 95.03,-31.01 635.61,-15.75 773.71,-12.27"/>
<polygon fill="midnightblue" stroke="midnightblue" points="774.11,-15.76 784.02,-12.01 773.94,-8.76 774.11,-15.76"/>
</g>
<!-- Node52&#45;&gt;Node5 -->
<g id="edge61" class="edge">
<title>Node52&#45;&gt;Node5</title>
<path fill="none" stroke="midnightblue" d="M888.3,-195.49C939.75,-183.31 1004.29,-166.9 1014.6,-159 1036.52,-142.21 1050.38,-112.59 1057.57,-93.25"/>
<polygon fill="midnightblue" stroke="midnightblue" points="1060.9,-94.31 1060.88,-83.72 1054.29,-92.02 1060.9,-94.31"/>
</g>
<!-- Node52&#45;&gt;Node9 -->
<g id="edge62" class="edge">
<title>Node52&#45;&gt;Node9</title>
<path fill="none" stroke="midnightblue" d="M756.82,-196.5C753.71,-195.96 750.62,-195.46 747.6,-195 707.31,-188.87 409.97,-189.2 382.6,-159 363.11,-137.5 391.8,-107.7 413.69,-89.84"/>
<polygon fill="midnightblue" stroke="midnightblue" points="415.91,-92.54 421.63,-83.62 411.6,-87.03 415.91,-92.54"/>
</g>
<!-- Node52&#45;&gt;Node14 -->
<g id="edge60" class="edge">
<title>Node52&#45;&gt;Node14</title>
<path fill="none" stroke="midnightblue" d="M888.1,-196.7C937.72,-186.24 1006.19,-171.82 1059.3,-160.63"/>
<polygon fill="midnightblue" stroke="midnightblue" points="1060.31,-163.99 1069.37,-158.51 1058.87,-157.14 1060.31,-163.99"/>
</g>
<!-- Node53&#45;&gt;Node4 -->
<g id="edge64" class="edge">
<title>Node53&#45;&gt;Node4</title>
<path fill="none" stroke="midnightblue" d="M906.2,-196.14C902.96,-195.72 899.75,-195.34 896.6,-195 852.76,-190.25 134.07,-190.88 103.6,-159 53.05,-106.11 117.77,-96.12 294.6,-57 472.7,-17.6 692.89,-12.12 773.83,-11.5"/>
<polygon fill="midnightblue" stroke="midnightblue" points="773.9,-15 783.88,-11.45 773.86,-8 773.9,-15"/>
</g>
<!-- Node53&#45;&gt;Node5 -->
<g id="edge66" class="edge">
<title>Node53&#45;&gt;Node5</title>
<path fill="none" stroke="midnightblue" d="M1066.74,-195.56C1133.51,-182.72 1218.51,-165.32 1223.6,-159 1254.38,-120.82 1188.11,-97.78 1131.71,-85.61"/>
<polygon fill="midnightblue" stroke="midnightblue" points="1132.18,-82.14 1121.68,-83.54 1130.77,-88.99 1132.18,-82.14"/>
</g>
<!-- Node53&#45;&gt;Node9 -->
<g id="edge67" class="edge">
<title>Node53&#45;&gt;Node9</title>
<path fill="none" stroke="midnightblue" d="M906.19,-196.26C902.95,-195.81 899.75,-195.39 896.6,-195 843.96,-188.49 456.66,-197.89 420.6,-159 403.98,-141.08 414.47,-111.34 424.11,-92.35"/>
<polygon fill="midnightblue" stroke="midnightblue" points="427.22,-93.97 428.93,-83.51 421.07,-90.62 427.22,-93.97"/>
</g>
<!-- Node53&#45;&gt;Node14 -->
<g id="edge65" class="edge">
<title>Node53&#45;&gt;Node14</title>
<path fill="none" stroke="midnightblue" d="M1021.16,-195.46C1043.47,-185.76 1072.7,-173.04 1096.66,-162.62"/>
<polygon fill="midnightblue" stroke="midnightblue" points="1098.12,-165.8 1105.89,-158.6 1095.32,-159.38 1098.12,-165.8"/>
</g>
</g>
</svg>
