<?xml version="1.0" encoding="UTF-8" standalone="no"?>
<!DOCTYPE svg PUBLIC "-//W3C//DTD SVG 1.1//EN"
 "http://www.w3.org/Graphics/SVG/1.1/DTD/svg11.dtd">
<!-- Generated by graphviz version 3.0.0 (20221109.1736)
 -->
<!-- Title: libmirai/models/libmirai/Types/EventTypes.hpp Pages: 1 -->
<svg width="2034pt" height="386pt"
 viewBox="0.00 0.00 2033.60 386.00" xmlns="http://www.w3.org/2000/svg" xmlns:xlink="http://www.w3.org/1999/xlink">
<g id="graph0" class="graph" transform="scale(1 1) rotate(0) translate(4 382)">
<title>libmirai/models/libmirai/Types/EventTypes.hpp</title>
<!-- Node1 -->
<g id="node1" class="node">
<title>Node1</title>
<g id="a_node1"><a xlink:title=" ">
<polygon fill="#bfbfbf" stroke="black" points="448.1,-345.5 448.1,-377.5 577.1,-377.5 577.1,-345.5 448.1,-345.5"/>
<text text-anchor="start" x="456.1" y="-364.7" font-family="-apple-system, BlinkMacSystemFont, 'Segoe UI', Roboto, Oxygen, Ubuntu, Cantarell, 'Fira Sans', 'Droid Sans', 'Helvetica Neue', sans-serif" font-size="11.00">libmirai/models/libmirai</text>
<text text-anchor="middle" x="512.6" y="-352.7" font-family="-apple-system, BlinkMacSystemFont, 'Segoe UI', Roboto, Oxygen, Ubuntu, Cantarell, 'Fira Sans', 'Droid Sans', 'Helvetica Neue', sans-serif" font-size="11.00">/Types/EventTypes.hpp</text>
</a>
</g>
</g>
<!-- Node2 -->
<g id="node2" class="node">
<title>Node2</title>
<g id="a_node2"><a xlink:href="Types_8hpp.html" target="_top" xlink:title=" ">
<polygon fill="none" stroke="black" points="714.1,-138.5 714.1,-170.5 853.1,-170.5 853.1,-138.5 714.1,-138.5"/>
<text text-anchor="start" x="722.1" y="-157.7" font-family="-apple-system, BlinkMacSystemFont, 'Segoe UI', Roboto, Oxygen, Ubuntu, Cantarell, 'Fira Sans', 'Droid Sans', 'Helvetica Neue', sans-serif" font-size="11.00">libmirai/aggregates</text>
<text text-anchor="middle" x="783.6" y="-145.7" font-family="-apple-system, BlinkMacSystemFont, 'Segoe UI', Roboto, Oxygen, Ubuntu, Cantarell, 'Fira Sans', 'Droid Sans', 'Helvetica Neue', sans-serif" font-size="11.00">/libmirai/Types/Types.hpp</text>
</a>
</g>
</g>
<!-- Node1&#45;&gt;Node2 -->
<g id="edge1" class="edge">
<title>Node1&#45;&gt;Node2</title>
<path fill="none" stroke="midnightblue" d="M437.93,-360.35C273.22,-357.68 -97.3,-337.46 24.6,-207 71.1,-157.24 535.34,-154.23 714.02,-154.94"/>
<polygon fill="midnightblue" stroke="midnightblue" points="437.95,-363.85 448,-360.5 438.05,-356.85 437.95,-363.85"/>
</g>
<!-- Node9 -->
<g id="node6" class="node">
<title>Node9</title>
<g id="a_node6"><a xlink:href="IEvent_8hpp.html" target="_top" xlink:title=" ">
<polygon fill="none" stroke="black" points="958.1,-276.5 958.1,-308.5 1083.1,-308.5 1083.1,-276.5 958.1,-276.5"/>
<text text-anchor="start" x="966.1" y="-295.7" font-family="-apple-system, BlinkMacSystemFont, 'Segoe UI', Roboto, Oxygen, Ubuntu, Cantarell, 'Fira Sans', 'Droid Sans', 'Helvetica Neue', sans-serif" font-size="11.00">libmirai/models/libmirai</text>
<text text-anchor="middle" x="1020.6" y="-283.7" font-family="-apple-system, BlinkMacSystemFont, 'Segoe UI', Roboto, Oxygen, Ubuntu, Cantarell, 'Fira Sans', 'Droid Sans', 'Helvetica Neue', sans-serif" font-size="11.00">/Events/IEvent.hpp</text>
</a>
</g>
</g>
<!-- Node1&#45;&gt;Node9 -->
<g id="edge6" class="edge">
<title>Node1&#45;&gt;Node9</title>
<path fill="none" stroke="midnightblue" d="M587.27,-350.65C687.64,-337.41 864.29,-314.12 958.05,-301.75"/>
<polygon fill="midnightblue" stroke="midnightblue" points="586.66,-347.2 577.2,-351.98 587.57,-354.14 586.66,-347.2"/>
</g>
<!-- Node3 -->
<g id="node3" class="node">
<title>Node3</title>
<g id="a_node3"><a xlink:href="models_8hpp.html" target="_top" xlink:title=" ">
<polygon fill="none" stroke="red" points="922.6,-69.5 922.6,-101.5 1034.6,-101.5 1034.6,-69.5 922.6,-69.5"/>
<text text-anchor="start" x="930.6" y="-88.7" font-family="-apple-system, BlinkMacSystemFont, 'Segoe UI', Roboto, Oxygen, Ubuntu, Cantarell, 'Fira Sans', 'Droid Sans', 'Helvetica Neue', sans-serif" font-size="11.00">libmirai/aggregates</text>
<text text-anchor="middle" x="978.6" y="-76.7" font-family="-apple-system, BlinkMacSystemFont, 'Segoe UI', Roboto, Oxygen, Ubuntu, Cantarell, 'Fira Sans', 'Droid Sans', 'Helvetica Neue', sans-serif" font-size="11.00">/libmirai/models.hpp</text>
</a>
</g>
</g>
<!-- Node2&#45;&gt;Node3 -->
<g id="edge2" class="edge">
<title>Node2&#45;&gt;Node3</title>
<path fill="none" stroke="midnightblue" d="M837.04,-135.14C867.71,-124.6 905.73,-111.54 934.65,-101.6"/>
<polygon fill="midnightblue" stroke="midnightblue" points="835.69,-131.9 827.37,-138.46 837.96,-138.52 835.69,-131.9"/>
</g>
<!-- Node5 -->
<g id="node4" class="node">
<title>Node5</title>
<g id="a_node4"><a xlink:href="IAdaptor_8hpp.html" target="_top" xlink:title=" ">
<polygon fill="none" stroke="red" points="776.6,-69.5 776.6,-101.5 904.6,-101.5 904.6,-69.5 776.6,-69.5"/>
<text text-anchor="start" x="784.6" y="-88.7" font-family="-apple-system, BlinkMacSystemFont, 'Segoe UI', Roboto, Oxygen, Ubuntu, Cantarell, 'Fira Sans', 'Droid Sans', 'Helvetica Neue', sans-serif" font-size="11.00">libmirai/api/libmirai</text>
<text text-anchor="middle" x="840.6" y="-76.7" font-family="-apple-system, BlinkMacSystemFont, 'Segoe UI', Roboto, Oxygen, Ubuntu, Cantarell, 'Fira Sans', 'Droid Sans', 'Helvetica Neue', sans-serif" font-size="11.00">/Adaptors/IAdaptor.hpp</text>
</a>
</g>
</g>
<!-- Node2&#45;&gt;Node5 -->
<g id="edge3" class="edge">
<title>Node2&#45;&gt;Node5</title>
<path fill="none" stroke="midnightblue" d="M803.05,-130.64C811.2,-121.07 820.44,-110.2 827.72,-101.64"/>
<polygon fill="midnightblue" stroke="midnightblue" points="800.35,-128.41 796.54,-138.3 805.68,-132.95 800.35,-128.41"/>
</g>
<!-- Node7 -->
<g id="node5" class="node">
<title>Node7</title>
<g id="a_node5"><a xlink:href="Client_8hpp.html" target="_top" xlink:title=" ">
<polygon fill="none" stroke="red" points="788.6,-0.5 788.6,-32.5 892.6,-32.5 892.6,-0.5 788.6,-0.5"/>
<text text-anchor="start" x="796.6" y="-19.7" font-family="-apple-system, BlinkMacSystemFont, 'Segoe UI', Roboto, Oxygen, Ubuntu, Cantarell, 'Fira Sans', 'Droid Sans', 'Helvetica Neue', sans-serif" font-size="11.00">libmirai/api/libmirai</text>
<text text-anchor="middle" x="840.6" y="-7.7" font-family="-apple-system, BlinkMacSystemFont, 'Segoe UI', Roboto, Oxygen, Ubuntu, Cantarell, 'Fira Sans', 'Droid Sans', 'Helvetica Neue', sans-serif" font-size="11.00">/Client/Client.hpp</text>
</a>
</g>
</g>
<!-- Node2&#45;&gt;Node7 -->
<g id="edge5" class="edge">
<title>Node2&#45;&gt;Node7</title>
<path fill="none" stroke="midnightblue" d="M770.87,-128.77C763.71,-111.24 757.95,-87.62 767.6,-69 775.88,-53.03 791.65,-40.95 806.41,-32.53"/>
<polygon fill="midnightblue" stroke="midnightblue" points="767.86,-130.61 775.14,-138.3 774.24,-127.75 767.86,-130.61"/>
</g>
<!-- Node5&#45;&gt;Node7 -->
<g id="edge4" class="edge">
<title>Node5&#45;&gt;Node7</title>
<path fill="none" stroke="midnightblue" d="M840.6,-59.02C840.6,-50.13 840.6,-40.43 840.6,-32.64"/>
<polygon fill="midnightblue" stroke="midnightblue" points="837.1,-59.3 840.6,-69.3 844.1,-59.3 837.1,-59.3"/>
</g>
<!-- Node10 -->
<g id="node7" class="node">
<title>Node10</title>
<g id="a_node7"><a xlink:href="Events_8hpp.html" target="_top" xlink:title=" ">
<polygon fill="none" stroke="black" points="948.1,-138.5 948.1,-170.5 1093.1,-170.5 1093.1,-138.5 948.1,-138.5"/>
<text text-anchor="start" x="956.1" y="-157.7" font-family="-apple-system, BlinkMacSystemFont, 'Segoe UI', Roboto, Oxygen, Ubuntu, Cantarell, 'Fira Sans', 'Droid Sans', 'Helvetica Neue', sans-serif" font-size="11.00">libmirai/aggregates</text>
<text text-anchor="middle" x="1020.6" y="-145.7" font-family="-apple-system, BlinkMacSystemFont, 'Segoe UI', Roboto, Oxygen, Ubuntu, Cantarell, 'Fira Sans', 'Droid Sans', 'Helvetica Neue', sans-serif" font-size="11.00">/libmirai/Events/Events.hpp</text>
</a>
</g>
</g>
<!-- Node9&#45;&gt;Node10 -->
<g id="edge7" class="edge">
<title>Node9&#45;&gt;Node10</title>
<path fill="none" stroke="midnightblue" d="M1093.3,-289.61C1173.64,-285.8 1295.57,-274.36 1324.6,-240 1334.07,-228.8 1334.07,-218.2 1324.6,-207 1295.58,-172.65 1173.73,-161.21 1093.39,-157.4"/>
<polygon fill="midnightblue" stroke="midnightblue" points="1093.06,-286.11 1083.23,-290.06 1093.37,-293.11 1093.06,-286.11"/>
</g>
<!-- Node11 -->
<g id="node8" class="node">
<title>Node11</title>
<g id="a_node8"><a xlink:href="BotEvents_8hpp.html" target="_top" xlink:title=" ">
<polygon fill="none" stroke="black" points="1372.1,-207.5 1372.1,-239.5 1497.1,-239.5 1497.1,-207.5 1372.1,-207.5"/>
<text text-anchor="start" x="1380.1" y="-226.7" font-family="-apple-system, BlinkMacSystemFont, 'Segoe UI', Roboto, Oxygen, Ubuntu, Cantarell, 'Fira Sans', 'Droid Sans', 'Helvetica Neue', sans-serif" font-size="11.00">libmirai/models/libmirai</text>
<text text-anchor="middle" x="1434.6" y="-214.7" font-family="-apple-system, BlinkMacSystemFont, 'Segoe UI', Roboto, Oxygen, Ubuntu, Cantarell, 'Fira Sans', 'Droid Sans', 'Helvetica Neue', sans-serif" font-size="11.00">/Events/BotEvents.hpp</text>
</a>
</g>
</g>
<!-- Node9&#45;&gt;Node11 -->
<g id="edge11" class="edge">
<title>Node9&#45;&gt;Node11</title>
<path fill="none" stroke="midnightblue" d="M1093.4,-281.38C1161.76,-271.64 1266.83,-256.06 1357.6,-240 1362.3,-239.17 1367.16,-238.27 1372.04,-237.35"/>
<polygon fill="midnightblue" stroke="midnightblue" points="1092.58,-277.96 1083.17,-282.84 1093.56,-284.9 1092.58,-277.96"/>
</g>
<!-- Node12 -->
<g id="node9" class="node">
<title>Node12</title>
<g id="a_node9"><a xlink:href="CommandExecutedEvent_8hpp.html" target="_top" xlink:title=" ">
<polygon fill="none" stroke="black" points="1515.1,-207.5 1515.1,-239.5 1712.1,-239.5 1712.1,-207.5 1515.1,-207.5"/>
<text text-anchor="start" x="1523.1" y="-226.7" font-family="-apple-system, BlinkMacSystemFont, 'Segoe UI', Roboto, Oxygen, Ubuntu, Cantarell, 'Fira Sans', 'Droid Sans', 'Helvetica Neue', sans-serif" font-size="11.00">libmirai/models/libmirai</text>
<text text-anchor="middle" x="1613.6" y="-214.7" font-family="-apple-system, BlinkMacSystemFont, 'Segoe UI', Roboto, Oxygen, Ubuntu, Cantarell, 'Fira Sans', 'Droid Sans', 'Helvetica Neue', sans-serif" font-size="11.00">/Events/CommandExecutedEvent.hpp</text>
</a>
</g>
</g>
<!-- Node9&#45;&gt;Node12 -->
<g id="edge13" class="edge">
<title>Node9&#45;&gt;Node12</title>
<path fill="none" stroke="midnightblue" d="M1093.3,-284.67C1188.41,-275.54 1360.19,-258.36 1506.6,-240 1509.4,-239.65 1512.23,-239.29 1515.09,-238.92"/>
<polygon fill="midnightblue" stroke="midnightblue" points="1092.84,-281.2 1083.22,-285.64 1093.51,-288.17 1092.84,-281.2"/>
</g>
<!-- Node13 -->
<g id="node10" class="node">
<title>Node13</title>
<g id="a_node10"><a xlink:href="FriendEvents_8hpp.html" target="_top" xlink:title=" ">
<polygon fill="none" stroke="black" points="1730.1,-207.5 1730.1,-239.5 1869.1,-239.5 1869.1,-207.5 1730.1,-207.5"/>
<text text-anchor="start" x="1738.1" y="-226.7" font-family="-apple-system, BlinkMacSystemFont, 'Segoe UI', Roboto, Oxygen, Ubuntu, Cantarell, 'Fira Sans', 'Droid Sans', 'Helvetica Neue', sans-serif" font-size="11.00">libmirai/models/libmirai</text>
<text text-anchor="middle" x="1799.6" y="-214.7" font-family="-apple-system, BlinkMacSystemFont, 'Segoe UI', Roboto, Oxygen, Ubuntu, Cantarell, 'Fira Sans', 'Droid Sans', 'Helvetica Neue', sans-serif" font-size="11.00">/Events/FriendEvents.hpp</text>
</a>
</g>
</g>
<!-- Node9&#45;&gt;Node13 -->
<g id="edge15" class="edge">
<title>Node9&#45;&gt;Node13</title>
<path fill="none" stroke="midnightblue" d="M1093.28,-289.1C1220.92,-284.24 1493.49,-270.93 1721.6,-240 1724.34,-239.63 1727.12,-239.22 1729.93,-238.79"/>
<polygon fill="midnightblue" stroke="midnightblue" points="1093.1,-285.61 1083.23,-289.48 1093.36,-292.6 1093.1,-285.61"/>
</g>
<!-- Node14 -->
<g id="node11" class="node">
<title>Node14</title>
<g id="a_node11"><a xlink:href="GroupEvents_8hpp.html" target="_top" xlink:title=" ">
<polygon fill="none" stroke="black" points="1887.6,-207.5 1887.6,-239.5 2025.6,-239.5 2025.6,-207.5 1887.6,-207.5"/>
<text text-anchor="start" x="1895.6" y="-226.7" font-family="-apple-system, BlinkMacSystemFont, 'Segoe UI', Roboto, Oxygen, Ubuntu, Cantarell, 'Fira Sans', 'Droid Sans', 'Helvetica Neue', sans-serif" font-size="11.00">libmirai/models/libmirai</text>
<text text-anchor="middle" x="1956.6" y="-214.7" font-family="-apple-system, BlinkMacSystemFont, 'Segoe UI', Roboto, Oxygen, Ubuntu, Cantarell, 'Fira Sans', 'Droid Sans', 'Helvetica Neue', sans-serif" font-size="11.00">/Events/GroupEvents.hpp</text>
</a>
</g>
</g>
<!-- Node9&#45;&gt;Node14 -->
<g id="edge17" class="edge">
<title>Node9&#45;&gt;Node14</title>
<path fill="none" stroke="midnightblue" d="M1093.66,-290.46C1242.13,-287.62 1589.53,-277.22 1878.6,-240 1881.48,-239.63 1884.41,-239.22 1887.36,-238.77"/>
<polygon fill="midnightblue" stroke="midnightblue" points="1093.25,-286.97 1083.32,-290.66 1093.38,-293.97 1093.25,-286.97"/>
</g>
<!-- Node15 -->
<g id="node12" class="node">
<title>Node15</title>
<g id="a_node12"><a xlink:href="MemberEvents_8hpp.html" target="_top" xlink:title=" ">
<polygon fill="none" stroke="black" points="33.6,-207.5 33.6,-239.5 181.6,-239.5 181.6,-207.5 33.6,-207.5"/>
<text text-anchor="start" x="41.6" y="-226.7" font-family="-apple-system, BlinkMacSystemFont, 'Segoe UI', Roboto, Oxygen, Ubuntu, Cantarell, 'Fira Sans', 'Droid Sans', 'Helvetica Neue', sans-serif" font-size="11.00">libmirai/models/libmirai</text>
<text text-anchor="middle" x="107.6" y="-214.7" font-family="-apple-system, BlinkMacSystemFont, 'Segoe UI', Roboto, Oxygen, Ubuntu, Cantarell, 'Fira Sans', 'Droid Sans', 'Helvetica Neue', sans-serif" font-size="11.00">/Events/MemberEvents.hpp</text>
</a>
</g>
</g>
<!-- Node9&#45;&gt;Node15 -->
<g id="edge19" class="edge">
<title>Node9&#45;&gt;Node15</title>
<path fill="none" stroke="midnightblue" d="M947.8,-289.98C803.05,-286.3 469.04,-274.51 190.6,-240 187.69,-239.64 184.73,-239.24 181.74,-238.81"/>
<polygon fill="midnightblue" stroke="midnightblue" points="947.81,-293.48 957.89,-290.23 947.98,-286.48 947.81,-293.48"/>
</g>
<!-- Node16 -->
<g id="node13" class="node">
<title>Node16</title>
<g id="a_node13"><a xlink:href="MiraiClientEvents_8hpp.html" target="_top" xlink:title=" ">
<polygon fill="none" stroke="red" points="199.6,-207.5 199.6,-239.5 357.6,-239.5 357.6,-207.5 199.6,-207.5"/>
<text text-anchor="start" x="207.6" y="-226.7" font-family="-apple-system, BlinkMacSystemFont, 'Segoe UI', Roboto, Oxygen, Ubuntu, Cantarell, 'Fira Sans', 'Droid Sans', 'Helvetica Neue', sans-serif" font-size="11.00">libmirai/models/libmirai</text>
<text text-anchor="middle" x="278.6" y="-214.7" font-family="-apple-system, BlinkMacSystemFont, 'Segoe UI', Roboto, Oxygen, Ubuntu, Cantarell, 'Fira Sans', 'Droid Sans', 'Helvetica Neue', sans-serif" font-size="11.00">/Events/MiraiClientEvents.hpp</text>
</a>
</g>
</g>
<!-- Node9&#45;&gt;Node16 -->
<g id="edge21" class="edge">
<title>Node9&#45;&gt;Node16</title>
<path fill="none" stroke="midnightblue" d="M947.46,-288.03C826.32,-281.77 576.57,-266.7 366.6,-240 363.68,-239.63 360.7,-239.23 357.7,-238.8"/>
<polygon fill="midnightblue" stroke="midnightblue" points="947.56,-291.54 957.72,-288.56 947.91,-284.55 947.56,-291.54"/>
</g>
<!-- Node17 -->
<g id="node14" class="node">
<title>Node17</title>
<g id="a_node14"><a xlink:href="NewFriendRequestEvent_8hpp.html" target="_top" xlink:title=" ">
<polygon fill="none" stroke="black" points="375.6,-207.5 375.6,-239.5 571.6,-239.5 571.6,-207.5 375.6,-207.5"/>
<text text-anchor="start" x="383.6" y="-226.7" font-family="-apple-system, BlinkMacSystemFont, 'Segoe UI', Roboto, Oxygen, Ubuntu, Cantarell, 'Fira Sans', 'Droid Sans', 'Helvetica Neue', sans-serif" font-size="11.00">libmirai/models/libmirai</text>
<text text-anchor="middle" x="473.6" y="-214.7" font-family="-apple-system, BlinkMacSystemFont, 'Segoe UI', Roboto, Oxygen, Ubuntu, Cantarell, 'Fira Sans', 'Droid Sans', 'Helvetica Neue', sans-serif" font-size="11.00">/Events/NewFriendRequestEvent.hpp</text>
</a>
</g>
</g>
<!-- Node9&#45;&gt;Node17 -->
<g id="edge23" class="edge">
<title>Node9&#45;&gt;Node17</title>
<path fill="none" stroke="midnightblue" d="M947.81,-283.6C860.48,-273.97 709.71,-256.9 580.6,-240 577.72,-239.62 574.79,-239.23 571.84,-238.84"/>
<polygon fill="midnightblue" stroke="midnightblue" points="947.55,-287.09 957.87,-284.7 948.32,-280.13 947.55,-287.09"/>
</g>
<!-- Node18 -->
<g id="node15" class="node">
<title>Node18</title>
<g id="a_node15"><a xlink:href="NudgeEvent_8hpp.html" target="_top" xlink:title=" ">
<polygon fill="none" stroke="black" points="590.1,-207.5 590.1,-239.5 725.1,-239.5 725.1,-207.5 590.1,-207.5"/>
<text text-anchor="start" x="598.1" y="-226.7" font-family="-apple-system, BlinkMacSystemFont, 'Segoe UI', Roboto, Oxygen, Ubuntu, Cantarell, 'Fira Sans', 'Droid Sans', 'Helvetica Neue', sans-serif" font-size="11.00">libmirai/models/libmirai</text>
<text text-anchor="middle" x="657.6" y="-214.7" font-family="-apple-system, BlinkMacSystemFont, 'Segoe UI', Roboto, Oxygen, Ubuntu, Cantarell, 'Fira Sans', 'Droid Sans', 'Helvetica Neue', sans-serif" font-size="11.00">/Events/NudgeEvent.hpp</text>
</a>
</g>
</g>
<!-- Node9&#45;&gt;Node18 -->
<g id="edge25" class="edge">
<title>Node9&#45;&gt;Node18</title>
<path fill="none" stroke="midnightblue" d="M947.91,-278.83C890.06,-268.65 807.07,-253.82 734.6,-240 731.52,-239.41 728.37,-238.81 725.19,-238.19"/>
<polygon fill="midnightblue" stroke="midnightblue" points="947.59,-282.33 958.05,-280.62 948.81,-275.44 947.59,-282.33"/>
</g>
<!-- Node19 -->
<g id="node16" class="node">
<title>Node19</title>
<g id="a_node16"><a xlink:href="OtherClientEvents_8hpp.html" target="_top" xlink:title=" ">
<polygon fill="none" stroke="black" points="743.6,-207.5 743.6,-239.5 905.6,-239.5 905.6,-207.5 743.6,-207.5"/>
<text text-anchor="start" x="751.6" y="-226.7" font-family="-apple-system, BlinkMacSystemFont, 'Segoe UI', Roboto, Oxygen, Ubuntu, Cantarell, 'Fira Sans', 'Droid Sans', 'Helvetica Neue', sans-serif" font-size="11.00">libmirai/models/libmirai</text>
<text text-anchor="middle" x="824.6" y="-214.7" font-family="-apple-system, BlinkMacSystemFont, 'Segoe UI', Roboto, Oxygen, Ubuntu, Cantarell, 'Fira Sans', 'Droid Sans', 'Helvetica Neue', sans-serif" font-size="11.00">/Events/OtherClientEvents.hpp</text>
</a>
</g>
</g>
<!-- Node9&#45;&gt;Node19 -->
<g id="edge27" class="edge">
<title>Node9&#45;&gt;Node19</title>
<path fill="none" stroke="midnightblue" d="M966.89,-273.14C936.07,-262.6 897.85,-249.54 868.78,-239.6"/>
<polygon fill="midnightblue" stroke="midnightblue" points="966.02,-276.54 976.62,-276.46 968.29,-269.92 966.02,-276.54"/>
</g>
<!-- Node20 -->
<g id="node17" class="node">
<title>Node20</title>
<g id="a_node17"><a xlink:href="StrangerMessageEvents_8hpp.html" target="_top" xlink:title=" ">
<polygon fill="none" stroke="black" points="923.6,-207.5 923.6,-239.5 1117.6,-239.5 1117.6,-207.5 923.6,-207.5"/>
<text text-anchor="start" x="931.6" y="-226.7" font-family="-apple-system, BlinkMacSystemFont, 'Segoe UI', Roboto, Oxygen, Ubuntu, Cantarell, 'Fira Sans', 'Droid Sans', 'Helvetica Neue', sans-serif" font-size="11.00">libmirai/models/libmirai</text>
<text text-anchor="middle" x="1020.6" y="-214.7" font-family="-apple-system, BlinkMacSystemFont, 'Segoe UI', Roboto, Oxygen, Ubuntu, Cantarell, 'Fira Sans', 'Droid Sans', 'Helvetica Neue', sans-serif" font-size="11.00">/Events/StrangerMessageEvents.hpp</text>
</a>
</g>
</g>
<!-- Node9&#45;&gt;Node20 -->
<g id="edge29" class="edge">
<title>Node9&#45;&gt;Node20</title>
<path fill="none" stroke="midnightblue" d="M1020.6,-266.02C1020.6,-257.13 1020.6,-247.43 1020.6,-239.64"/>
<polygon fill="midnightblue" stroke="midnightblue" points="1017.1,-266.3 1020.6,-276.3 1024.1,-266.3 1017.1,-266.3"/>
</g>
<!-- Node21 -->
<g id="node18" class="node">
<title>Node21</title>
<g id="a_node18"><a xlink:href="TempMessageEvents_8hpp.html" target="_top" xlink:title=" ">
<polygon fill="none" stroke="black" points="1136.1,-207.5 1136.1,-239.5 1315.1,-239.5 1315.1,-207.5 1136.1,-207.5"/>
<text text-anchor="start" x="1144.1" y="-226.7" font-family="-apple-system, BlinkMacSystemFont, 'Segoe UI', Roboto, Oxygen, Ubuntu, Cantarell, 'Fira Sans', 'Droid Sans', 'Helvetica Neue', sans-serif" font-size="11.00">libmirai/models/libmirai</text>
<text text-anchor="middle" x="1225.6" y="-214.7" font-family="-apple-system, BlinkMacSystemFont, 'Segoe UI', Roboto, Oxygen, Ubuntu, Cantarell, 'Fira Sans', 'Droid Sans', 'Helvetica Neue', sans-serif" font-size="11.00">/Events/TempMessageEvents.hpp</text>
</a>
</g>
</g>
<!-- Node9&#45;&gt;Node21 -->
<g id="edge31" class="edge">
<title>Node9&#45;&gt;Node21</title>
<path fill="none" stroke="midnightblue" d="M1076.36,-273.28C1108.67,-262.72 1148.86,-249.58 1179.4,-239.6"/>
<polygon fill="midnightblue" stroke="midnightblue" points="1075.03,-270.03 1066.61,-276.46 1077.2,-276.68 1075.03,-270.03"/>
</g>
<!-- Node10&#45;&gt;Node3 -->
<g id="edge8" class="edge">
<title>Node10&#45;&gt;Node3</title>
<path fill="none" stroke="midnightblue" d="M1005.73,-129.77C999.86,-120.42 993.3,-109.94 988.1,-101.64"/>
<polygon fill="midnightblue" stroke="midnightblue" points="1002.8,-131.68 1011.07,-138.3 1008.73,-127.96 1002.8,-131.68"/>
</g>
<!-- Node10&#45;&gt;Node5 -->
<g id="edge9" class="edge">
<title>Node10&#45;&gt;Node5</title>
<path fill="none" stroke="midnightblue" d="M970.54,-134.86C942.36,-124.38 907.64,-111.45 881.18,-101.6"/>
<polygon fill="midnightblue" stroke="midnightblue" points="969.62,-138.26 980.21,-138.46 972.06,-131.7 969.62,-138.26"/>
</g>
<!-- Node10&#45;&gt;Node7 -->
<g id="edge10" class="edge">
<title>Node10&#45;&gt;Node7</title>
<path fill="none" stroke="midnightblue" d="M1037.51,-129.34C1047.99,-111.12 1057.12,-86.37 1043.6,-69 1025.24,-45.4 946.66,-30.86 892.83,-23.49"/>
<polygon fill="midnightblue" stroke="midnightblue" points="1034.31,-127.86 1032.02,-138.21 1040.26,-131.55 1034.31,-127.86"/>
</g>
<!-- Node11&#45;&gt;Node10 -->
<g id="edge12" class="edge">
<title>Node11&#45;&gt;Node10</title>
<path fill="none" stroke="midnightblue" d="M1362.05,-207.8C1360.56,-207.53 1359.07,-207.26 1357.6,-207 1266.83,-190.94 1161.77,-175.36 1093.41,-165.62"/>
<polygon fill="midnightblue" stroke="midnightblue" points="1361.56,-211.27 1372.04,-209.65 1362.84,-204.38 1361.56,-211.27"/>
</g>
<!-- Node12&#45;&gt;Node10 -->
<g id="edge14" class="edge">
<title>Node12&#45;&gt;Node10</title>
<path fill="none" stroke="midnightblue" d="M1505.08,-206.83C1352.77,-187.9 1186.2,-171.25 1093.16,-162.31"/>
<polygon fill="midnightblue" stroke="midnightblue" points="1504.73,-210.32 1515.09,-208.08 1505.6,-203.37 1504.73,-210.32"/>
</g>
<!-- Node13&#45;&gt;Node10 -->
<g id="edge16" class="edge">
<title>Node13&#45;&gt;Node10</title>
<path fill="none" stroke="midnightblue" d="M1719.87,-206.86C1485.82,-175.7 1219.16,-162.7 1093.31,-157.9"/>
<polygon fill="midnightblue" stroke="midnightblue" points="1719.56,-210.35 1729.93,-208.21 1720.49,-203.41 1719.56,-210.35"/>
</g>
<!-- Node14&#45;&gt;Node10 -->
<g id="edge18" class="edge">
<title>Node14&#45;&gt;Node10</title>
<path fill="none" stroke="midnightblue" d="M1877.3,-206.95C1581.47,-169.51 1239.8,-159.32 1093.23,-156.53"/>
<polygon fill="midnightblue" stroke="midnightblue" points="1877,-210.44 1887.36,-208.23 1877.89,-203.49 1877,-210.44"/>
</g>
<!-- Node15&#45;&gt;Node10 -->
<g id="edge20" class="edge">
<title>Node15&#45;&gt;Node10</title>
<path fill="none" stroke="midnightblue" d="M191.94,-206.94C488.89,-172 567.15,-193.24 861.6,-171 889.81,-168.87 920.78,-165.98 947.84,-163.27"/>
<polygon fill="midnightblue" stroke="midnightblue" points="191.26,-203.5 181.74,-208.16 192.08,-210.45 191.26,-203.5"/>
</g>
<!-- Node16&#45;&gt;Node10 -->
<g id="edge22" class="edge">
<title>Node16&#45;&gt;Node10</title>
<path fill="none" stroke="midnightblue" d="M367.93,-206.92C587.25,-180.13 645.14,-189.42 861.6,-171 889.79,-168.6 920.76,-165.65 947.82,-162.97"/>
<polygon fill="midnightblue" stroke="midnightblue" points="367.2,-203.48 357.7,-208.18 368.05,-210.43 367.2,-203.48"/>
</g>
<!-- Node17&#45;&gt;Node10 -->
<g id="edge24" class="edge">
<title>Node17&#45;&gt;Node10</title>
<path fill="none" stroke="midnightblue" d="M581.95,-206.84C716.99,-189.27 862.53,-172.8 947.73,-163.41"/>
<polygon fill="midnightblue" stroke="midnightblue" points="581.3,-203.4 571.84,-208.16 582.21,-210.34 581.3,-203.4"/>
</g>
<!-- Node18&#45;&gt;Node10 -->
<g id="edge26" class="edge">
<title>Node18&#45;&gt;Node10</title>
<path fill="none" stroke="midnightblue" d="M735.27,-206.89C813.85,-191.97 892.46,-177.93 947.94,-168.16"/>
<polygon fill="midnightblue" stroke="midnightblue" points="734.36,-203.5 725.19,-208.81 735.67,-210.38 734.36,-203.5"/>
</g>
<!-- Node19&#45;&gt;Node10 -->
<g id="edge28" class="edge">
<title>Node19&#45;&gt;Node10</title>
<path fill="none" stroke="midnightblue" d="M878.32,-204.14C909.14,-193.6 947.36,-180.54 976.43,-170.6"/>
<polygon fill="midnightblue" stroke="midnightblue" points="876.92,-200.92 868.59,-207.46 879.18,-207.54 876.92,-200.92"/>
</g>
<!-- Node20&#45;&gt;Node10 -->
<g id="edge30" class="edge">
<title>Node20&#45;&gt;Node10</title>
<path fill="none" stroke="midnightblue" d="M1020.6,-197.02C1020.6,-188.13 1020.6,-178.43 1020.6,-170.64"/>
<polygon fill="midnightblue" stroke="midnightblue" points="1017.1,-197.3 1020.6,-207.3 1024.1,-197.3 1017.1,-197.3"/>
</g>
<!-- Node21&#45;&gt;Node10 -->
<g id="edge32" class="edge">
<title>Node21&#45;&gt;Node10</title>
<path fill="none" stroke="midnightblue" d="M1169.84,-204.28C1137.53,-193.72 1097.34,-180.58 1066.81,-170.6"/>
<polygon fill="midnightblue" stroke="midnightblue" points="1169,-207.68 1179.6,-207.46 1171.18,-201.03 1169,-207.68"/>
</g>
</g>
</svg>
