<?xml version="1.0" encoding="UTF-8" standalone="no"?>
<!DOCTYPE svg PUBLIC "-//W3C//DTD SVG 1.1//EN"
 "http://www.w3.org/Graphics/SVG/1.1/DTD/svg11.dtd">
<!-- Generated by graphviz version 2.43.0 (0)
 -->
<!-- Title: libmirai/public/libmirai/Exceptions/Exceptions.hpp Pages: 1 -->
<svg width="3119pt" height="317pt"
 viewBox="0.00 0.00 3119.45 317.00" xmlns="http://www.w3.org/2000/svg" xmlns:xlink="http://www.w3.org/1999/xlink">
<g id="graph0" class="graph" transform="scale(1 1) rotate(0) translate(4 313)">
<title>libmirai/public/libmirai/Exceptions/Exceptions.hpp</title>
<!-- Node1 -->
<g id="node1" class="node">
<title>Node1</title>
<g id="a_node1"><a xlink:title=" ">
<polygon fill="#bfbfbf" stroke="black" points="1084.54,-276.5 1084.54,-308.5 1251.54,-308.5 1251.54,-276.5 1084.54,-276.5"/>
<text text-anchor="start" x="1092.54" y="-295.7" font-family="-apple-system,BlinkMacSystemFont,'SegoeUI',Roboto,Oxygen,Ubuntu,Cantarell,'FiraSans','DroidSans','HelveticaNeue',sans-serif" font-size="11.00">libmirai/public/libmirai</text>
<text text-anchor="middle" x="1168.04" y="-283.7" font-family="-apple-system,BlinkMacSystemFont,'SegoeUI',Roboto,Oxygen,Ubuntu,Cantarell,'FiraSans','DroidSans','HelveticaNeue',sans-serif" font-size="11.00">/Exceptions/Exceptions.hpp</text>
</a>
</g>
</g>
<!-- Node2 -->
<g id="node2" class="node">
<title>Node2</title>
<g id="a_node2"><a xlink:href="Client_8cpp.html" target="_top" xlink:title=" ">
<polygon fill="none" stroke="black" points="395.54,-0.5 395.54,-32.5 532.54,-32.5 532.54,-0.5 395.54,-0.5"/>
<text text-anchor="start" x="403.54" y="-19.7" font-family="-apple-system,BlinkMacSystemFont,'SegoeUI',Roboto,Oxygen,Ubuntu,Cantarell,'FiraSans','DroidSans','HelveticaNeue',sans-serif" font-size="11.00">libmirai/public/libmirai</text>
<text text-anchor="middle" x="464.04" y="-7.7" font-family="-apple-system,BlinkMacSystemFont,'SegoeUI',Roboto,Oxygen,Ubuntu,Cantarell,'FiraSans','DroidSans','HelveticaNeue',sans-serif" font-size="11.00">/Api/Client.cpp</text>
</a>
</g>
</g>
<!-- Node1&#45;&gt;Node2 -->
<g id="edge1" class="edge">
<title>Node1&#45;&gt;Node2</title>
<path fill="none" stroke="midnightblue" d="M1073.85,-288.92C809.89,-280.72 77.73,-250.9 8.04,-171 -6.91,-153.86 1.89,-84.69 18.04,-69 44.56,-43.24 276.8,-27.37 395.22,-20.89"/>
<polygon fill="midnightblue" stroke="midnightblue" points="1074.07,-292.43 1084.17,-289.24 1074.28,-285.43 1074.07,-292.43"/>
</g>
<!-- Node3 -->
<g id="node3" class="node">
<title>Node3</title>
<g id="a_node3"><a xlink:href="MiraiClientEvents_8hpp.html" target="_top" xlink:title=" ">
<polygon fill="none" stroke="black" points="40.04,-138.5 40.04,-170.5 222.04,-170.5 222.04,-138.5 40.04,-138.5"/>
<text text-anchor="start" x="48.04" y="-157.7" font-family="-apple-system,BlinkMacSystemFont,'SegoeUI',Roboto,Oxygen,Ubuntu,Cantarell,'FiraSans','DroidSans','HelveticaNeue',sans-serif" font-size="11.00">libmirai/public/libmirai</text>
<text text-anchor="middle" x="131.04" y="-145.7" font-family="-apple-system,BlinkMacSystemFont,'SegoeUI',Roboto,Oxygen,Ubuntu,Cantarell,'FiraSans','DroidSans','HelveticaNeue',sans-serif" font-size="11.00">/Events/MiraiClientEvents.hpp</text>
</a>
</g>
</g>
<!-- Node1&#45;&gt;Node3 -->
<g id="edge2" class="edge">
<title>Node1&#45;&gt;Node3</title>
<path fill="none" stroke="midnightblue" d="M1074.17,-280.24C905.3,-259.81 539.17,-214.69 231.04,-171 228.09,-170.58 225.08,-170.15 222.05,-169.71"/>
<polygon fill="midnightblue" stroke="midnightblue" points="1073.92,-283.74 1084.27,-281.46 1074.76,-276.79 1073.92,-283.74"/>
</g>
<!-- Node5 -->
<g id="node5" class="node">
<title>Node5</title>
<g id="a_node5"><a xlink:href="mirai_8hpp.html" target="_top" xlink:title=" ">
<polygon fill="none" stroke="red" points="2081.54,-0.5 2081.54,-32.5 2218.54,-32.5 2218.54,-0.5 2081.54,-0.5"/>
<text text-anchor="start" x="2089.54" y="-19.7" font-family="-apple-system,BlinkMacSystemFont,'SegoeUI',Roboto,Oxygen,Ubuntu,Cantarell,'FiraSans','DroidSans','HelveticaNeue',sans-serif" font-size="11.00">libmirai/public/libmirai</text>
<text text-anchor="middle" x="2150.04" y="-7.7" font-family="-apple-system,BlinkMacSystemFont,'SegoeUI',Roboto,Oxygen,Ubuntu,Cantarell,'FiraSans','DroidSans','HelveticaNeue',sans-serif" font-size="11.00">/mirai.hpp</text>
</a>
</g>
</g>
<!-- Node1&#45;&gt;Node5 -->
<g id="edge49" class="edge">
<title>Node1&#45;&gt;Node5</title>
<path fill="none" stroke="midnightblue" d="M1261.92,-289.09C1636.81,-279.02 3009.44,-237.69 3072.04,-171 3152.16,-85.66 3110.3,-116.8 2927.04,-69 2794.18,-34.34 2382.98,-22.26 2218.79,-18.75"/>
<polygon fill="midnightblue" stroke="midnightblue" points="1261.55,-285.6 1251.65,-289.36 1261.74,-292.6 1261.55,-285.6"/>
</g>
<!-- Node8 -->
<g id="node7" class="node">
<title>Node8</title>
<g id="a_node7"><a xlink:href="MessageChain_8hpp.html" target="_top" xlink:title=" ">
<polygon fill="none" stroke="black" points="1423.04,-207.5 1423.04,-239.5 1605.04,-239.5 1605.04,-207.5 1423.04,-207.5"/>
<text text-anchor="start" x="1431.04" y="-226.7" font-family="-apple-system,BlinkMacSystemFont,'SegoeUI',Roboto,Oxygen,Ubuntu,Cantarell,'FiraSans','DroidSans','HelveticaNeue',sans-serif" font-size="11.00">libmirai/public/libmirai</text>
<text text-anchor="middle" x="1514.04" y="-214.7" font-family="-apple-system,BlinkMacSystemFont,'SegoeUI',Roboto,Oxygen,Ubuntu,Cantarell,'FiraSans','DroidSans','HelveticaNeue',sans-serif" font-size="11.00">/Messages/MessageChain.hpp</text>
</a>
</g>
</g>
<!-- Node1&#45;&gt;Node8 -->
<g id="edge9" class="edge">
<title>Node1&#45;&gt;Node8</title>
<path fill="none" stroke="midnightblue" d="M1255.54,-274.56C1311.22,-263.77 1382.68,-249.94 1436.35,-239.54"/>
<polygon fill="midnightblue" stroke="midnightblue" points="1254.84,-271.13 1245.69,-276.46 1256.18,-278 1254.84,-271.13"/>
</g>
<!-- Node3&#45;&gt;Node2 -->
<g id="edge6" class="edge">
<title>Node3&#45;&gt;Node2</title>
<path fill="none" stroke="midnightblue" d="M177.39,-134.57C244.19,-107.29 366.19,-57.46 427.22,-32.54"/>
<polygon fill="midnightblue" stroke="midnightblue" points="175.89,-131.4 167.95,-138.43 178.53,-137.89 175.89,-131.4"/>
</g>
<!-- Node4 -->
<g id="node4" class="node">
<title>Node4</title>
<g id="a_node4"><a xlink:href="Client_8hpp.html" target="_top" xlink:title=" ">
<polygon fill="none" stroke="black" points="552.54,-69.5 552.54,-101.5 689.54,-101.5 689.54,-69.5 552.54,-69.5"/>
<text text-anchor="start" x="560.54" y="-88.7" font-family="-apple-system,BlinkMacSystemFont,'SegoeUI',Roboto,Oxygen,Ubuntu,Cantarell,'FiraSans','DroidSans','HelveticaNeue',sans-serif" font-size="11.00">libmirai/public/libmirai</text>
<text text-anchor="middle" x="621.04" y="-76.7" font-family="-apple-system,BlinkMacSystemFont,'SegoeUI',Roboto,Oxygen,Ubuntu,Cantarell,'FiraSans','DroidSans','HelveticaNeue',sans-serif" font-size="11.00">/Api/Client.hpp</text>
</a>
</g>
</g>
<!-- Node3&#45;&gt;Node4 -->
<g id="edge3" class="edge">
<title>Node3&#45;&gt;Node4</title>
<path fill="none" stroke="midnightblue" d="M232.03,-137.88C350.55,-120.95 476.46,-104.7 552.29,-95.1"/>
<polygon fill="midnightblue" stroke="midnightblue" points="231.45,-134.42 222.05,-139.31 232.44,-141.35 231.45,-134.42"/>
</g>
<!-- Node7 -->
<g id="node6" class="node">
<title>Node7</title>
<g id="a_node6"><a xlink:href="Events_8hpp.html" target="_top" xlink:title=" ">
<polygon fill="none" stroke="black" points="1322.54,-69.5 1322.54,-101.5 1459.54,-101.5 1459.54,-69.5 1322.54,-69.5"/>
<text text-anchor="start" x="1330.54" y="-88.7" font-family="-apple-system,BlinkMacSystemFont,'SegoeUI',Roboto,Oxygen,Ubuntu,Cantarell,'FiraSans','DroidSans','HelveticaNeue',sans-serif" font-size="11.00">libmirai/public/libmirai</text>
<text text-anchor="middle" x="1391.04" y="-76.7" font-family="-apple-system,BlinkMacSystemFont,'SegoeUI',Roboto,Oxygen,Ubuntu,Cantarell,'FiraSans','DroidSans','HelveticaNeue',sans-serif" font-size="11.00">/Events/Events.hpp</text>
</a>
</g>
</g>
<!-- Node3&#45;&gt;Node7 -->
<g id="edge7" class="edge">
<title>Node3&#45;&gt;Node7</title>
<path fill="none" stroke="midnightblue" d="M232.48,-137.93C652.04,-96.82 1144.43,-88.6 1322.54,-86.93"/>
<polygon fill="midnightblue" stroke="midnightblue" points="231.88,-134.47 222.28,-138.94 232.57,-141.44 231.88,-134.47"/>
</g>
<!-- Node4&#45;&gt;Node2 -->
<g id="edge4" class="edge">
<title>Node4&#45;&gt;Node2</title>
<path fill="none" stroke="midnightblue" d="M576.41,-65.45C552.01,-55.04 522.21,-42.32 499.43,-32.6"/>
<polygon fill="midnightblue" stroke="midnightblue" points="575.24,-68.76 585.81,-69.46 577.99,-62.32 575.24,-68.76"/>
</g>
<!-- Node4&#45;&gt;Node5 -->
<g id="edge5" class="edge">
<title>Node4&#45;&gt;Node5</title>
<path fill="none" stroke="midnightblue" d="M700.07,-81.04C966.69,-69.35 1830.28,-31.51 2081.13,-20.52"/>
<polygon fill="midnightblue" stroke="midnightblue" points="699.55,-77.56 689.71,-81.49 699.85,-84.55 699.55,-77.56"/>
</g>
<!-- Node7&#45;&gt;Node5 -->
<g id="edge8" class="edge">
<title>Node7&#45;&gt;Node5</title>
<path fill="none" stroke="midnightblue" d="M1469.74,-77.55C1618.94,-64.38 1940.56,-35.99 2081.5,-23.55"/>
<polygon fill="midnightblue" stroke="midnightblue" points="1469.39,-74.07 1459.74,-78.44 1470.01,-81.04 1469.39,-74.07"/>
</g>
<!-- Node8&#45;&gt;Node2 -->
<g id="edge11" class="edge">
<title>Node8&#45;&gt;Node2</title>
<path fill="none" stroke="midnightblue" d="M1412.62,-222.8C1085.86,-223.26 78.99,-220.64 31.04,-171 -79.85,-56.19 247.25,-27.08 395.32,-19.84"/>
<polygon fill="midnightblue" stroke="midnightblue" points="1413.03,-226.3 1423.02,-222.78 1413.02,-219.3 1413.03,-226.3"/>
</g>
<!-- Node8&#45;&gt;Node4 -->
<g id="edge10" class="edge">
<title>Node8&#45;&gt;Node4</title>
<path fill="none" stroke="midnightblue" d="M1412.87,-220.06C1210.1,-214.59 767.94,-199.54 705.04,-171 687.9,-163.22 652.68,-123.79 633.74,-101.65"/>
<polygon fill="midnightblue" stroke="midnightblue" points="1412.84,-223.56 1422.93,-220.33 1413.03,-216.56 1412.84,-223.56"/>
</g>
<!-- Node9 -->
<g id="node8" class="node">
<title>Node9</title>
<g id="a_node8"><a xlink:href="CommandExecutedEvent_8hpp.html" target="_top" xlink:title=" ">
<polygon fill="none" stroke="red" points="2142.54,-138.5 2142.54,-170.5 2365.54,-170.5 2365.54,-138.5 2142.54,-138.5"/>
<text text-anchor="start" x="2150.54" y="-157.7" font-family="-apple-system,BlinkMacSystemFont,'SegoeUI',Roboto,Oxygen,Ubuntu,Cantarell,'FiraSans','DroidSans','HelveticaNeue',sans-serif" font-size="11.00">libmirai/public/libmirai</text>
<text text-anchor="middle" x="2254.04" y="-145.7" font-family="-apple-system,BlinkMacSystemFont,'SegoeUI',Roboto,Oxygen,Ubuntu,Cantarell,'FiraSans','DroidSans','HelveticaNeue',sans-serif" font-size="11.00">/Events/CommandExecutedEvent.hpp</text>
</a>
</g>
</g>
<!-- Node8&#45;&gt;Node9 -->
<g id="edge12" class="edge">
<title>Node8&#45;&gt;Node9</title>
<path fill="none" stroke="midnightblue" d="M1615.45,-215.5C1738.33,-206.69 1951.61,-190.35 2134.04,-171 2136.76,-170.71 2139.51,-170.41 2142.28,-170.11"/>
<polygon fill="midnightblue" stroke="midnightblue" points="1615.03,-212.02 1605.3,-216.23 1615.52,-219.01 1615.03,-212.02"/>
</g>
<!-- Node11 -->
<g id="node9" class="node">
<title>Node11</title>
<g id="a_node9"><a xlink:href="FriendMessageEvent_8hpp.html" target="_top" xlink:title=" ">
<polygon fill="none" stroke="red" points="457.54,-138.5 457.54,-170.5 656.54,-170.5 656.54,-138.5 457.54,-138.5"/>
<text text-anchor="start" x="465.54" y="-157.7" font-family="-apple-system,BlinkMacSystemFont,'SegoeUI',Roboto,Oxygen,Ubuntu,Cantarell,'FiraSans','DroidSans','HelveticaNeue',sans-serif" font-size="11.00">libmirai/public/libmirai</text>
<text text-anchor="middle" x="557.04" y="-145.7" font-family="-apple-system,BlinkMacSystemFont,'SegoeUI',Roboto,Oxygen,Ubuntu,Cantarell,'FiraSans','DroidSans','HelveticaNeue',sans-serif" font-size="11.00">/Events/FriendMessageEvent.hpp</text>
</a>
</g>
</g>
<!-- Node8&#45;&gt;Node11 -->
<g id="edge14" class="edge">
<title>Node8&#45;&gt;Node11</title>
<path fill="none" stroke="midnightblue" d="M1412.59,-218.73C1254.05,-212.3 938.06,-197.27 671.04,-171 666.37,-170.54 661.6,-170.03 656.78,-169.49"/>
<polygon fill="midnightblue" stroke="midnightblue" points="1412.67,-222.24 1422.8,-219.14 1412.95,-215.24 1412.67,-222.24"/>
</g>
<!-- Node13 -->
<g id="node10" class="node">
<title>Node13</title>
<g id="a_node10"><a xlink:href="FriendSyncMessageEvent_8hpp.html" target="_top" xlink:title=" ">
<polygon fill="none" stroke="red" points="2383.54,-138.5 2383.54,-170.5 2608.54,-170.5 2608.54,-138.5 2383.54,-138.5"/>
<text text-anchor="start" x="2391.54" y="-157.7" font-family="-apple-system,BlinkMacSystemFont,'SegoeUI',Roboto,Oxygen,Ubuntu,Cantarell,'FiraSans','DroidSans','HelveticaNeue',sans-serif" font-size="11.00">libmirai/public/libmirai</text>
<text text-anchor="middle" x="2496.04" y="-145.7" font-family="-apple-system,BlinkMacSystemFont,'SegoeUI',Roboto,Oxygen,Ubuntu,Cantarell,'FiraSans','DroidSans','HelveticaNeue',sans-serif" font-size="11.00">/Events/FriendSyncMessageEvent.hpp</text>
</a>
</g>
</g>
<!-- Node8&#45;&gt;Node13 -->
<g id="edge18" class="edge">
<title>Node8&#45;&gt;Node13</title>
<path fill="none" stroke="midnightblue" d="M1615.7,-218.65C1776.94,-212.04 2101.14,-196.71 2375.04,-171 2377.78,-170.74 2380.56,-170.47 2383.36,-170.19"/>
<polygon fill="midnightblue" stroke="midnightblue" points="1615.17,-215.17 1605.32,-219.07 1615.45,-222.16 1615.17,-215.17"/>
</g>
<!-- Node15 -->
<g id="node11" class="node">
<title>Node15</title>
<g id="a_node11"><a xlink:href="GroupMessageEvent_8hpp.html" target="_top" xlink:title=" ">
<polygon fill="none" stroke="red" points="240.54,-138.5 240.54,-170.5 439.54,-170.5 439.54,-138.5 240.54,-138.5"/>
<text text-anchor="start" x="248.54" y="-157.7" font-family="-apple-system,BlinkMacSystemFont,'SegoeUI',Roboto,Oxygen,Ubuntu,Cantarell,'FiraSans','DroidSans','HelveticaNeue',sans-serif" font-size="11.00">libmirai/public/libmirai</text>
<text text-anchor="middle" x="340.04" y="-145.7" font-family="-apple-system,BlinkMacSystemFont,'SegoeUI',Roboto,Oxygen,Ubuntu,Cantarell,'FiraSans','DroidSans','HelveticaNeue',sans-serif" font-size="11.00">/Events/GroupMessageEvent.hpp</text>
</a>
</g>
</g>
<!-- Node8&#45;&gt;Node15 -->
<g id="edge20" class="edge">
<title>Node8&#45;&gt;Node15</title>
<path fill="none" stroke="midnightblue" d="M1412.69,-220.78C1222.97,-216.86 801.43,-204.82 448.04,-171 445.31,-170.74 442.54,-170.46 439.74,-170.16"/>
<polygon fill="midnightblue" stroke="midnightblue" points="1412.86,-224.29 1422.93,-220.99 1413,-217.29 1412.86,-224.29"/>
</g>
<!-- Node17 -->
<g id="node12" class="node">
<title>Node17</title>
<g id="a_node12"><a xlink:href="GroupSyncMessageEvent_8hpp.html" target="_top" xlink:title=" ">
<polygon fill="none" stroke="red" points="1156.54,-138.5 1156.54,-170.5 1381.54,-170.5 1381.54,-138.5 1156.54,-138.5"/>
<text text-anchor="start" x="1164.54" y="-157.7" font-family="-apple-system,BlinkMacSystemFont,'SegoeUI',Roboto,Oxygen,Ubuntu,Cantarell,'FiraSans','DroidSans','HelveticaNeue',sans-serif" font-size="11.00">libmirai/public/libmirai</text>
<text text-anchor="middle" x="1269.04" y="-145.7" font-family="-apple-system,BlinkMacSystemFont,'SegoeUI',Roboto,Oxygen,Ubuntu,Cantarell,'FiraSans','DroidSans','HelveticaNeue',sans-serif" font-size="11.00">/Events/GroupSyncMessageEvent.hpp</text>
</a>
</g>
</g>
<!-- Node8&#45;&gt;Node17 -->
<g id="edge24" class="edge">
<title>Node8&#45;&gt;Node17</title>
<path fill="none" stroke="midnightblue" d="M1449.39,-204.82C1410.45,-194.17 1361.38,-180.75 1324.27,-170.6"/>
<polygon fill="midnightblue" stroke="midnightblue" points="1448.49,-208.2 1459.06,-207.46 1450.34,-201.45 1448.49,-208.2"/>
</g>
<!-- Node19 -->
<g id="node13" class="node">
<title>Node19</title>
<g id="a_node13"><a xlink:href="OtherClientMessageEvent_8hpp.html" target="_top" xlink:title=" ">
<polygon fill="none" stroke="red" points="1399.54,-138.5 1399.54,-170.5 1628.54,-170.5 1628.54,-138.5 1399.54,-138.5"/>
<text text-anchor="start" x="1407.54" y="-157.7" font-family="-apple-system,BlinkMacSystemFont,'SegoeUI',Roboto,Oxygen,Ubuntu,Cantarell,'FiraSans','DroidSans','HelveticaNeue',sans-serif" font-size="11.00">libmirai/public/libmirai</text>
<text text-anchor="middle" x="1514.04" y="-145.7" font-family="-apple-system,BlinkMacSystemFont,'SegoeUI',Roboto,Oxygen,Ubuntu,Cantarell,'FiraSans','DroidSans','HelveticaNeue',sans-serif" font-size="11.00">/Events/OtherClientMessageEvent.hpp</text>
</a>
</g>
</g>
<!-- Node8&#45;&gt;Node19 -->
<g id="edge26" class="edge">
<title>Node8&#45;&gt;Node19</title>
<path fill="none" stroke="midnightblue" d="M1514.04,-197.02C1514.04,-188.13 1514.04,-178.43 1514.04,-170.64"/>
<polygon fill="midnightblue" stroke="midnightblue" points="1510.54,-197.3 1514.04,-207.3 1517.54,-197.3 1510.54,-197.3"/>
</g>
<!-- Node21 -->
<g id="node14" class="node">
<title>Node21</title>
<g id="a_node14"><a xlink:href="StrangerMessageEvent_8hpp.html" target="_top" xlink:title=" ">
<polygon fill="none" stroke="red" points="713.54,-138.5 713.54,-170.5 926.54,-170.5 926.54,-138.5 713.54,-138.5"/>
<text text-anchor="start" x="721.54" y="-157.7" font-family="-apple-system,BlinkMacSystemFont,'SegoeUI',Roboto,Oxygen,Ubuntu,Cantarell,'FiraSans','DroidSans','HelveticaNeue',sans-serif" font-size="11.00">libmirai/public/libmirai</text>
<text text-anchor="middle" x="820.04" y="-145.7" font-family="-apple-system,BlinkMacSystemFont,'SegoeUI',Roboto,Oxygen,Ubuntu,Cantarell,'FiraSans','DroidSans','HelveticaNeue',sans-serif" font-size="11.00">/Events/StrangerMessageEvent.hpp</text>
</a>
</g>
</g>
<!-- Node8&#45;&gt;Node21 -->
<g id="edge28" class="edge">
<title>Node8&#45;&gt;Node21</title>
<path fill="none" stroke="midnightblue" d="M1412.4,-214.86C1296.67,-205.83 1102.01,-189.67 935.04,-171 932.34,-170.7 929.6,-170.38 926.84,-170.06"/>
<polygon fill="midnightblue" stroke="midnightblue" points="1412.42,-218.37 1422.66,-215.66 1412.96,-211.39 1412.42,-218.37"/>
</g>
<!-- Node23 -->
<g id="node15" class="node">
<title>Node23</title>
<g id="a_node15"><a xlink:href="StrangerSyncMessageEvent_8hpp.html" target="_top" xlink:title=" ">
<polygon fill="none" stroke="red" points="1646.54,-138.5 1646.54,-170.5 1885.54,-170.5 1885.54,-138.5 1646.54,-138.5"/>
<text text-anchor="start" x="1654.54" y="-157.7" font-family="-apple-system,BlinkMacSystemFont,'SegoeUI',Roboto,Oxygen,Ubuntu,Cantarell,'FiraSans','DroidSans','HelveticaNeue',sans-serif" font-size="11.00">libmirai/public/libmirai</text>
<text text-anchor="middle" x="1766.04" y="-145.7" font-family="-apple-system,BlinkMacSystemFont,'SegoeUI',Roboto,Oxygen,Ubuntu,Cantarell,'FiraSans','DroidSans','HelveticaNeue',sans-serif" font-size="11.00">/Events/StrangerSyncMessageEvent.hpp</text>
</a>
</g>
</g>
<!-- Node8&#45;&gt;Node23 -->
<g id="edge32" class="edge">
<title>Node8&#45;&gt;Node23</title>
<path fill="none" stroke="midnightblue" d="M1580.29,-204.89C1620.38,-194.23 1670.98,-180.77 1709.24,-170.6"/>
<polygon fill="midnightblue" stroke="midnightblue" points="1579.36,-201.51 1570.6,-207.46 1581.16,-208.28 1579.36,-201.51"/>
</g>
<!-- Node25 -->
<g id="node16" class="node">
<title>Node25</title>
<g id="a_node16"><a xlink:href="TempMessageEvent_8hpp.html" target="_top" xlink:title=" ">
<polygon fill="none" stroke="red" points="944.04,-138.5 944.04,-170.5 1138.04,-170.5 1138.04,-138.5 944.04,-138.5"/>
<text text-anchor="start" x="952.04" y="-157.7" font-family="-apple-system,BlinkMacSystemFont,'SegoeUI',Roboto,Oxygen,Ubuntu,Cantarell,'FiraSans','DroidSans','HelveticaNeue',sans-serif" font-size="11.00">libmirai/public/libmirai</text>
<text text-anchor="middle" x="1041.04" y="-145.7" font-family="-apple-system,BlinkMacSystemFont,'SegoeUI',Roboto,Oxygen,Ubuntu,Cantarell,'FiraSans','DroidSans','HelveticaNeue',sans-serif" font-size="11.00">/Events/TempMessageEvent.hpp</text>
</a>
</g>
</g>
<!-- Node8&#45;&gt;Node25 -->
<g id="edge34" class="edge">
<title>Node8&#45;&gt;Node25</title>
<path fill="none" stroke="midnightblue" d="M1412.85,-208.37C1339.36,-198.09 1237.53,-183.78 1148.04,-171 1144.79,-170.54 1141.48,-170.06 1138.14,-169.58"/>
<polygon fill="midnightblue" stroke="midnightblue" points="1412.64,-211.88 1423.03,-209.8 1413.61,-204.95 1412.64,-211.88"/>
</g>
<!-- Node27 -->
<g id="node17" class="node">
<title>Node27</title>
<g id="a_node17"><a xlink:href="TempSyncMessageEvent_8hpp.html" target="_top" xlink:title=" ">
<polygon fill="none" stroke="red" points="1903.54,-138.5 1903.54,-170.5 2124.54,-170.5 2124.54,-138.5 1903.54,-138.5"/>
<text text-anchor="start" x="1911.54" y="-157.7" font-family="-apple-system,BlinkMacSystemFont,'SegoeUI',Roboto,Oxygen,Ubuntu,Cantarell,'FiraSans','DroidSans','HelveticaNeue',sans-serif" font-size="11.00">libmirai/public/libmirai</text>
<text text-anchor="middle" x="2014.04" y="-145.7" font-family="-apple-system,BlinkMacSystemFont,'SegoeUI',Roboto,Oxygen,Ubuntu,Cantarell,'FiraSans','DroidSans','HelveticaNeue',sans-serif" font-size="11.00">/Events/TempSyncMessageEvent.hpp</text>
</a>
</g>
</g>
<!-- Node8&#45;&gt;Node27 -->
<g id="edge38" class="edge">
<title>Node8&#45;&gt;Node27</title>
<path fill="none" stroke="midnightblue" d="M1615.19,-208.95C1698.8,-197.74 1817.35,-181.86 1903.46,-170.32"/>
<polygon fill="midnightblue" stroke="midnightblue" points="1614.62,-205.49 1605.17,-210.29 1615.55,-212.43 1614.62,-205.49"/>
</g>
<!-- Node29 -->
<g id="node18" class="node">
<title>Node29</title>
<g id="a_node18"><a xlink:href="ForwardMessage_8hpp.html" target="_top" xlink:title=" ">
<polygon fill="none" stroke="red" points="2867.04,-138.5 2867.04,-170.5 3063.04,-170.5 3063.04,-138.5 2867.04,-138.5"/>
<text text-anchor="start" x="2875.04" y="-157.7" font-family="-apple-system,BlinkMacSystemFont,'SegoeUI',Roboto,Oxygen,Ubuntu,Cantarell,'FiraSans','DroidSans','HelveticaNeue',sans-serif" font-size="11.00">libmirai/public/libmirai</text>
<text text-anchor="middle" x="2965.04" y="-145.7" font-family="-apple-system,BlinkMacSystemFont,'SegoeUI',Roboto,Oxygen,Ubuntu,Cantarell,'FiraSans','DroidSans','HelveticaNeue',sans-serif" font-size="11.00">/Messages/ForwardMessage.hpp</text>
</a>
</g>
</g>
<!-- Node8&#45;&gt;Node29 -->
<g id="edge40" class="edge">
<title>Node8&#45;&gt;Node29</title>
<path fill="none" stroke="midnightblue" d="M1615.24,-222.03C1838.9,-220.23 2392.02,-211.67 2853.04,-171 2857.54,-170.6 2862.13,-170.15 2866.77,-169.66"/>
<polygon fill="midnightblue" stroke="midnightblue" points="1615.13,-218.53 1605.16,-222.1 1615.19,-225.53 1615.13,-218.53"/>
</g>
<!-- Node31 -->
<g id="node19" class="node">
<title>Node31</title>
<g id="a_node19"><a xlink:href="MessageChain_8cpp.html" target="_top" xlink:title=" ">
<polygon fill="none" stroke="black" points="2874.04,-0.5 2874.04,-32.5 3056.04,-32.5 3056.04,-0.5 2874.04,-0.5"/>
<text text-anchor="start" x="2882.04" y="-19.7" font-family="-apple-system,BlinkMacSystemFont,'SegoeUI',Roboto,Oxygen,Ubuntu,Cantarell,'FiraSans','DroidSans','HelveticaNeue',sans-serif" font-size="11.00">libmirai/public/libmirai</text>
<text text-anchor="middle" x="2965.04" y="-7.7" font-family="-apple-system,BlinkMacSystemFont,'SegoeUI',Roboto,Oxygen,Ubuntu,Cantarell,'FiraSans','DroidSans','HelveticaNeue',sans-serif" font-size="11.00">/Messages/MessageChain.cpp</text>
</a>
</g>
</g>
<!-- Node8&#45;&gt;Node31 -->
<g id="edge45" class="edge">
<title>Node8&#45;&gt;Node31</title>
<path fill="none" stroke="midnightblue" d="M1615.13,-222.98C1952.5,-224.07 3021.36,-223.38 3072.04,-171 3115.64,-125.94 3032.68,-61.58 2989.21,-32.63"/>
<polygon fill="midnightblue" stroke="midnightblue" points="1615.14,-219.48 1605.12,-222.94 1615.11,-226.48 1615.14,-219.48"/>
</g>
<!-- Node32 -->
<g id="node20" class="node">
<title>Node32</title>
<g id="a_node20"><a xlink:href="Messages_8hpp.html" target="_top" xlink:title=" ">
<polygon fill="none" stroke="black" points="2760.04,-69.5 2760.04,-101.5 2918.04,-101.5 2918.04,-69.5 2760.04,-69.5"/>
<text text-anchor="start" x="2768.04" y="-88.7" font-family="-apple-system,BlinkMacSystemFont,'SegoeUI',Roboto,Oxygen,Ubuntu,Cantarell,'FiraSans','DroidSans','HelveticaNeue',sans-serif" font-size="11.00">libmirai/public/libmirai</text>
<text text-anchor="middle" x="2839.04" y="-76.7" font-family="-apple-system,BlinkMacSystemFont,'SegoeUI',Roboto,Oxygen,Ubuntu,Cantarell,'FiraSans','DroidSans','HelveticaNeue',sans-serif" font-size="11.00">/Messages/Messages.hpp</text>
</a>
</g>
</g>
<!-- Node8&#45;&gt;Node32 -->
<g id="edge46" class="edge">
<title>Node8&#45;&gt;Node32</title>
<path fill="none" stroke="midnightblue" d="M1615.45,-221.87C1914.55,-219.58 2775.17,-209.65 2821.04,-171 2841,-154.18 2842.14,-121.19 2840.83,-101.78"/>
<polygon fill="midnightblue" stroke="midnightblue" points="1615.02,-218.38 1605.05,-221.95 1615.07,-225.38 1615.02,-218.38"/>
</g>
<!-- Node33 -->
<g id="node21" class="node">
<title>Node33</title>
<g id="a_node21"><a xlink:href="QuoteMessage_8hpp.html" target="_top" xlink:title=" ">
<polygon fill="none" stroke="red" points="2626.54,-138.5 2626.54,-170.5 2811.54,-170.5 2811.54,-138.5 2626.54,-138.5"/>
<text text-anchor="start" x="2634.54" y="-157.7" font-family="-apple-system,BlinkMacSystemFont,'SegoeUI',Roboto,Oxygen,Ubuntu,Cantarell,'FiraSans','DroidSans','HelveticaNeue',sans-serif" font-size="11.00">libmirai/public/libmirai</text>
<text text-anchor="middle" x="2719.04" y="-145.7" font-family="-apple-system,BlinkMacSystemFont,'SegoeUI',Roboto,Oxygen,Ubuntu,Cantarell,'FiraSans','DroidSans','HelveticaNeue',sans-serif" font-size="11.00">/Messages/QuoteMessage.hpp</text>
</a>
</g>
</g>
<!-- Node8&#45;&gt;Node33 -->
<g id="edge47" class="edge">
<title>Node8&#45;&gt;Node33</title>
<path fill="none" stroke="midnightblue" d="M1615.37,-221.35C1810.1,-218.35 2249.93,-207.73 2618.04,-171 2620.78,-170.73 2623.55,-170.43 2626.35,-170.11"/>
<polygon fill="midnightblue" stroke="midnightblue" points="1615.1,-217.85 1605.16,-221.5 1615.21,-224.85 1615.1,-217.85"/>
</g>
<!-- Node9&#45;&gt;Node7 -->
<g id="edge13" class="edge">
<title>Node9&#45;&gt;Node7</title>
<path fill="none" stroke="midnightblue" d="M2132.14,-137.84C1878.59,-113 1589.32,-96.61 1459.79,-89.9"/>
<polygon fill="midnightblue" stroke="midnightblue" points="2131.99,-141.35 2142.29,-138.84 2132.68,-134.38 2131.99,-141.35"/>
</g>
<!-- Node11&#45;&gt;Node2 -->
<g id="edge16" class="edge">
<title>Node11&#45;&gt;Node2</title>
<path fill="none" stroke="midnightblue" d="M541,-130.04C521.9,-102.1 490.56,-56.27 474.4,-32.64"/>
<polygon fill="midnightblue" stroke="midnightblue" points="538.2,-132.15 546.73,-138.43 543.98,-128.2 538.2,-132.15"/>
</g>
<!-- Node11&#45;&gt;Node4 -->
<g id="edge15" class="edge">
<title>Node11&#45;&gt;Node4</title>
<path fill="none" stroke="midnightblue" d="M578.61,-130.93C587.82,-121.28 598.32,-110.28 606.58,-101.64"/>
<polygon fill="midnightblue" stroke="midnightblue" points="575.94,-128.65 571.57,-138.3 581,-133.48 575.94,-128.65"/>
</g>
<!-- Node11&#45;&gt;Node7 -->
<g id="edge17" class="edge">
<title>Node11&#45;&gt;Node7</title>
<path fill="none" stroke="midnightblue" d="M667.13,-141.61C679.91,-140.34 692.76,-139.1 705.04,-138 930.76,-117.71 1198.75,-99.21 1322.34,-90.99"/>
<polygon fill="midnightblue" stroke="midnightblue" points="666.51,-138.15 656.92,-142.64 667.22,-145.12 666.51,-138.15"/>
</g>
<!-- Node13&#45;&gt;Node7 -->
<g id="edge19" class="edge">
<title>Node13&#45;&gt;Node7</title>
<path fill="none" stroke="midnightblue" d="M2373.31,-137.88C2024.34,-106.84 1618.73,-92.92 1459.76,-88.32"/>
<polygon fill="midnightblue" stroke="midnightblue" points="2373.09,-141.38 2383.36,-138.78 2373.71,-134.41 2373.09,-141.38"/>
</g>
<!-- Node15&#45;&gt;Node2 -->
<g id="edge22" class="edge">
<title>Node15&#45;&gt;Node2</title>
<path fill="none" stroke="midnightblue" d="M360.78,-130.76C386.18,-102.9 428.5,-56.48 450.24,-32.64"/>
<polygon fill="midnightblue" stroke="midnightblue" points="357.94,-128.68 353.79,-138.43 363.11,-133.39 357.94,-128.68"/>
</g>
<!-- Node15&#45;&gt;Node4 -->
<g id="edge21" class="edge">
<title>Node15&#45;&gt;Node4</title>
<path fill="none" stroke="midnightblue" d="M413.06,-136.09C457.9,-125.4 514.77,-111.84 557.71,-101.6"/>
<polygon fill="midnightblue" stroke="midnightblue" points="412.02,-132.74 403.1,-138.46 413.64,-139.55 412.02,-132.74"/>
</g>
<!-- Node15&#45;&gt;Node7 -->
<g id="edge23" class="edge">
<title>Node15&#45;&gt;Node7</title>
<path fill="none" stroke="midnightblue" d="M450.06,-137.85C782.38,-105.46 1167.97,-92.41 1322.26,-88.18"/>
<polygon fill="midnightblue" stroke="midnightblue" points="449.36,-134.4 439.75,-138.87 450.04,-141.37 449.36,-134.4"/>
</g>
<!-- Node17&#45;&gt;Node7 -->
<g id="edge25" class="edge">
<title>Node17&#45;&gt;Node7</title>
<path fill="none" stroke="midnightblue" d="M1305.21,-133.64C1323.81,-123.42 1346.12,-111.17 1363.33,-101.72"/>
<polygon fill="midnightblue" stroke="midnightblue" points="1303.5,-130.58 1296.42,-138.46 1306.87,-136.72 1303.5,-130.58"/>
</g>
<!-- Node19&#45;&gt;Node7 -->
<g id="edge27" class="edge">
<title>Node19&#45;&gt;Node7</title>
<path fill="none" stroke="midnightblue" d="M1477.57,-133.64C1458.83,-123.42 1436.33,-111.17 1418.98,-101.72"/>
<polygon fill="midnightblue" stroke="midnightblue" points="1475.98,-136.75 1486.44,-138.46 1479.33,-130.61 1475.98,-136.75"/>
</g>
<!-- Node21&#45;&gt;Node2 -->
<g id="edge30" class="edge">
<title>Node21&#45;&gt;Node2</title>
<path fill="none" stroke="midnightblue" d="M795.04,-131.78C771.53,-112.48 734.59,-84.94 698.04,-69 645.04,-45.89 580.61,-32.69 532.79,-25.46"/>
<polygon fill="midnightblue" stroke="midnightblue" points="792.85,-134.51 802.77,-138.23 797.33,-129.14 792.85,-134.51"/>
</g>
<!-- Node21&#45;&gt;Node4 -->
<g id="edge29" class="edge">
<title>Node21&#45;&gt;Node4</title>
<path fill="none" stroke="midnightblue" d="M765.51,-135.14C734.22,-124.6 695.41,-111.54 665.9,-101.6"/>
<polygon fill="midnightblue" stroke="midnightblue" points="764.79,-138.59 775.38,-138.46 767.02,-131.96 764.79,-138.59"/>
</g>
<!-- Node21&#45;&gt;Node7 -->
<g id="edge31" class="edge">
<title>Node21&#45;&gt;Node7</title>
<path fill="none" stroke="midnightblue" d="M936.81,-137.79C1079.72,-120.19 1235,-103.17 1322.23,-93.81"/>
<polygon fill="midnightblue" stroke="midnightblue" points="936.04,-134.36 926.54,-139.06 936.9,-141.31 936.04,-134.36"/>
</g>
<!-- Node23&#45;&gt;Node7 -->
<g id="edge33" class="edge">
<title>Node23&#45;&gt;Node7</title>
<path fill="none" stroke="midnightblue" d="M1671.89,-136.68C1605.86,-124.88 1519.09,-109.38 1459.57,-98.74"/>
<polygon fill="midnightblue" stroke="midnightblue" points="1671.43,-140.15 1681.89,-138.46 1672.66,-133.26 1671.43,-140.15"/>
</g>
<!-- Node25&#45;&gt;Node2 -->
<g id="edge36" class="edge">
<title>Node25&#45;&gt;Node2</title>
<path fill="none" stroke="midnightblue" d="M983.12,-135.5C922.99,-117.21 826.03,-88.83 741.04,-69 670.54,-52.55 588.98,-37.91 532.7,-28.48"/>
<polygon fill="midnightblue" stroke="midnightblue" points="982.22,-138.88 992.81,-138.45 984.27,-132.19 982.22,-138.88"/>
</g>
<!-- Node25&#45;&gt;Node4 -->
<g id="edge35" class="edge">
<title>Node25&#45;&gt;Node4</title>
<path fill="none" stroke="midnightblue" d="M936.57,-136.83C859.49,-124.54 756.8,-108.16 689.83,-97.47"/>
<polygon fill="midnightblue" stroke="midnightblue" points="936.36,-140.34 946.79,-138.46 937.46,-133.43 936.36,-140.34"/>
</g>
<!-- Node25&#45;&gt;Node7 -->
<g id="edge37" class="edge">
<title>Node25&#45;&gt;Node7</title>
<path fill="none" stroke="midnightblue" d="M1129.42,-136.58C1189.31,-125.12 1267.31,-110.19 1322.51,-99.62"/>
<polygon fill="midnightblue" stroke="midnightblue" points="1128.75,-133.15 1119.59,-138.46 1130.07,-140.02 1128.75,-133.15"/>
</g>
<!-- Node27&#45;&gt;Node7 -->
<g id="edge39" class="edge">
<title>Node27&#45;&gt;Node7</title>
<path fill="none" stroke="midnightblue" d="M1893.41,-137.83C1732.06,-119.2 1554.62,-101.9 1459.59,-92.9"/>
<polygon fill="midnightblue" stroke="midnightblue" points="1893.19,-141.32 1903.52,-139 1893.99,-134.37 1893.19,-141.32"/>
</g>
<!-- Node29&#45;&gt;Node31 -->
<g id="edge41" class="edge">
<title>Node29&#45;&gt;Node31</title>
<path fill="none" stroke="midnightblue" d="M2965.04,-128.2C2965.04,-100.13 2965.04,-55.76 2965.04,-32.64"/>
<polygon fill="midnightblue" stroke="midnightblue" points="2961.54,-128.43 2965.04,-138.43 2968.54,-128.43 2961.54,-128.43"/>
</g>
<!-- Node29&#45;&gt;Node32 -->
<g id="edge42" class="edge">
<title>Node29&#45;&gt;Node32</title>
<path fill="none" stroke="midnightblue" d="M2927.69,-133.64C2908.48,-123.42 2885.44,-111.17 2867.66,-101.72"/>
<polygon fill="midnightblue" stroke="midnightblue" points="2926.29,-136.86 2936.77,-138.46 2929.58,-130.68 2926.29,-136.86"/>
</g>
<!-- Node32&#45;&gt;Node5 -->
<g id="edge44" class="edge">
<title>Node32&#45;&gt;Node5</title>
<path fill="none" stroke="midnightblue" d="M2749.79,-75.82C2610.41,-62.27 2344.1,-36.37 2218.64,-24.17"/>
<polygon fill="midnightblue" stroke="midnightblue" points="2749.71,-79.33 2760.01,-76.81 2750.39,-72.36 2749.71,-79.33"/>
</g>
<!-- Node32&#45;&gt;Node31 -->
<g id="edge43" class="edge">
<title>Node32&#45;&gt;Node31</title>
<path fill="none" stroke="midnightblue" d="M2876.4,-64.64C2895.61,-54.42 2918.65,-42.17 2936.42,-32.72"/>
<polygon fill="midnightblue" stroke="midnightblue" points="2874.51,-61.68 2867.32,-69.46 2877.79,-67.86 2874.51,-61.68"/>
</g>
<!-- Node33&#45;&gt;Node32 -->
<g id="edge48" class="edge">
<title>Node33&#45;&gt;Node32</title>
<path fill="none" stroke="midnightblue" d="M2755.12,-133.36C2773.31,-123.2 2795.01,-111.08 2811.79,-101.72"/>
<polygon fill="midnightblue" stroke="midnightblue" points="2753,-130.53 2745.97,-138.46 2756.41,-136.64 2753,-130.53"/>
</g>
</g>
</svg>
