<?xml version="1.0" encoding="UTF-8" standalone="no"?>
<!DOCTYPE svg PUBLIC "-//W3C//DTD SVG 1.1//EN"
 "http://www.w3.org/Graphics/SVG/1.1/DTD/svg11.dtd">
<!-- Generated by graphviz version 3.0.0 (20220413.0242)
 -->
<!-- Title: libmirai/public/libmirai/Exceptions/Exceptions.hpp Pages: 1 -->
<svg width="2803pt" height="317pt"
 viewBox="0.00 0.00 2802.78 317.00" xmlns="http://www.w3.org/2000/svg" xmlns:xlink="http://www.w3.org/1999/xlink">
<g id="graph0" class="graph" transform="scale(1 1) rotate(0) translate(4 313)">
<title>libmirai/public/libmirai/Exceptions/Exceptions.hpp</title>
<!-- Node1 -->
<g id="node1" class="node">
<title>Node1</title>
<g id="a_node1"><a xlink:title=" ">
<polygon fill="#bfbfbf" stroke="black" points="973.83,-276.5 973.83,-308.5 1120.83,-308.5 1120.83,-276.5 973.83,-276.5"/>
<text text-anchor="start" x="981.83" y="-295.7" font-family="-apple-system, BlinkMacSystemFont, 'Segoe UI', Roboto, Oxygen, Ubuntu, Cantarell, 'Fira Sans', 'Droid Sans', 'Helvetica Neue', sans-serif" font-size="11.00">libmirai/public/libmirai</text>
<text text-anchor="middle" x="1047.33" y="-283.7" font-family="-apple-system, BlinkMacSystemFont, 'Segoe UI', Roboto, Oxygen, Ubuntu, Cantarell, 'Fira Sans', 'Droid Sans', 'Helvetica Neue', sans-serif" font-size="11.00">/Exceptions/Exceptions.hpp</text>
</a>
</g>
</g>
<!-- Node2 -->
<g id="node2" class="node">
<title>Node2</title>
<g id="a_node2"><a xlink:href="Client_8cpp.html" target="_top" xlink:title=" ">
<polygon fill="none" stroke="black" points="356.33,-0.5 356.33,-32.5 474.33,-32.5 474.33,-0.5 356.33,-0.5"/>
<text text-anchor="start" x="364.33" y="-19.7" font-family="-apple-system, BlinkMacSystemFont, 'Segoe UI', Roboto, Oxygen, Ubuntu, Cantarell, 'Fira Sans', 'Droid Sans', 'Helvetica Neue', sans-serif" font-size="11.00">libmirai/public/libmirai</text>
<text text-anchor="middle" x="415.33" y="-7.7" font-family="-apple-system, BlinkMacSystemFont, 'Segoe UI', Roboto, Oxygen, Ubuntu, Cantarell, 'Fira Sans', 'Droid Sans', 'Helvetica Neue', sans-serif" font-size="11.00">/Api/Client.cpp</text>
</a>
</g>
</g>
<!-- Node1&#45;&gt;Node2 -->
<g id="edge1" class="edge">
<title>Node1&#45;&gt;Node2</title>
<path fill="none" stroke="midnightblue" d="M963.44,-288.19C727.19,-277.99 69.36,-243.29 7.33,-171 -9.29,-151.63 7.45,-81.94 21.33,-69 68.63,-24.9 258,-17.77 355.96,-17.12"/>
<polygon fill="midnightblue" stroke="midnightblue" points="963.55,-291.7 973.69,-288.63 963.85,-284.7 963.55,-291.7"/>
</g>
<!-- Node3 -->
<g id="node3" class="node">
<title>Node3</title>
<g id="a_node3"><a xlink:href="MiraiClientEvents_8hpp.html" target="_top" xlink:title=" ">
<polygon fill="none" stroke="black" points="39.33,-138.5 39.33,-170.5 197.33,-170.5 197.33,-138.5 39.33,-138.5"/>
<text text-anchor="start" x="47.33" y="-157.7" font-family="-apple-system, BlinkMacSystemFont, 'Segoe UI', Roboto, Oxygen, Ubuntu, Cantarell, 'Fira Sans', 'Droid Sans', 'Helvetica Neue', sans-serif" font-size="11.00">libmirai/public/libmirai</text>
<text text-anchor="middle" x="118.33" y="-145.7" font-family="-apple-system, BlinkMacSystemFont, 'Segoe UI', Roboto, Oxygen, Ubuntu, Cantarell, 'Fira Sans', 'Droid Sans', 'Helvetica Neue', sans-serif" font-size="11.00">/Events/MiraiClientEvents.hpp</text>
</a>
</g>
</g>
<!-- Node1&#45;&gt;Node3 -->
<g id="edge2" class="edge">
<title>Node1&#45;&gt;Node3</title>
<path fill="none" stroke="midnightblue" d="M963.66,-280.42C812.31,-260.16 483.08,-215.19 206.33,-171 203.42,-170.54 200.45,-170.05 197.46,-169.56"/>
<polygon fill="midnightblue" stroke="midnightblue" points="963.43,-283.92 973.8,-281.77 964.36,-276.98 963.43,-283.92"/>
</g>
<!-- Node5 -->
<g id="node5" class="node">
<title>Node5</title>
<g id="a_node5"><a xlink:href="mirai_8hpp.html" target="_top" xlink:title=" ">
<polygon fill="none" stroke="red" points="1872.33,-0.5 1872.33,-32.5 1990.33,-32.5 1990.33,-0.5 1872.33,-0.5"/>
<text text-anchor="start" x="1880.33" y="-19.7" font-family="-apple-system, BlinkMacSystemFont, 'Segoe UI', Roboto, Oxygen, Ubuntu, Cantarell, 'Fira Sans', 'Droid Sans', 'Helvetica Neue', sans-serif" font-size="11.00">libmirai/public/libmirai</text>
<text text-anchor="middle" x="1931.33" y="-7.7" font-family="-apple-system, BlinkMacSystemFont, 'Segoe UI', Roboto, Oxygen, Ubuntu, Cantarell, 'Fira Sans', 'Droid Sans', 'Helvetica Neue', sans-serif" font-size="11.00">/mirai.hpp</text>
</a>
</g>
</g>
<!-- Node1&#45;&gt;Node5 -->
<g id="edge49" class="edge">
<title>Node1&#45;&gt;Node5</title>
<path fill="none" stroke="midnightblue" d="M1131.28,-292.14C1460.42,-293.77 2650.21,-291.27 2762.33,-171 2836.6,-91.32 2776.21,-110.62 2629.33,-69 2509.86,-35.15 2136.28,-22.52 1990.46,-18.81"/>
<polygon fill="midnightblue" stroke="midnightblue" points="1130.89,-288.64 1120.87,-292.08 1130.85,-295.64 1130.89,-288.64"/>
</g>
<!-- Node8 -->
<g id="node7" class="node">
<title>Node8</title>
<g id="a_node7"><a xlink:href="MessageChain_8hpp.html" target="_top" xlink:title=" ">
<polygon fill="none" stroke="black" points="1275.33,-207.5 1275.33,-239.5 1439.33,-239.5 1439.33,-207.5 1275.33,-207.5"/>
<text text-anchor="start" x="1283.33" y="-226.7" font-family="-apple-system, BlinkMacSystemFont, 'Segoe UI', Roboto, Oxygen, Ubuntu, Cantarell, 'Fira Sans', 'Droid Sans', 'Helvetica Neue', sans-serif" font-size="11.00">libmirai/public/libmirai</text>
<text text-anchor="middle" x="1357.33" y="-214.7" font-family="-apple-system, BlinkMacSystemFont, 'Segoe UI', Roboto, Oxygen, Ubuntu, Cantarell, 'Fira Sans', 'Droid Sans', 'Helvetica Neue', sans-serif" font-size="11.00">/Messages/MessageChain.hpp</text>
</a>
</g>
</g>
<!-- Node1&#45;&gt;Node8 -->
<g id="edge9" class="edge">
<title>Node1&#45;&gt;Node8</title>
<path fill="none" stroke="midnightblue" d="M1126.97,-274.29C1176.67,-263.55 1240.03,-249.85 1287.72,-239.54"/>
<polygon fill="midnightblue" stroke="midnightblue" points="1125.93,-270.93 1116.9,-276.46 1127.41,-277.77 1125.93,-270.93"/>
</g>
<!-- Node3&#45;&gt;Node2 -->
<g id="edge3" class="edge">
<title>Node3&#45;&gt;Node2</title>
<path fill="none" stroke="midnightblue" d="M160.39,-134.24C220.04,-106.93 327.97,-57.5 382.26,-32.64"/>
<polygon fill="midnightblue" stroke="midnightblue" points="158.88,-131.08 151.25,-138.43 161.79,-137.44 158.88,-131.08"/>
</g>
<!-- Node4 -->
<g id="node4" class="node">
<title>Node4</title>
<g id="a_node4"><a xlink:href="Client_8hpp.html" target="_top" xlink:title=" ">
<polygon fill="none" stroke="black" points="496.33,-69.5 496.33,-101.5 614.33,-101.5 614.33,-69.5 496.33,-69.5"/>
<text text-anchor="start" x="504.33" y="-88.7" font-family="-apple-system, BlinkMacSystemFont, 'Segoe UI', Roboto, Oxygen, Ubuntu, Cantarell, 'Fira Sans', 'Droid Sans', 'Helvetica Neue', sans-serif" font-size="11.00">libmirai/public/libmirai</text>
<text text-anchor="middle" x="555.33" y="-76.7" font-family="-apple-system, BlinkMacSystemFont, 'Segoe UI', Roboto, Oxygen, Ubuntu, Cantarell, 'Fira Sans', 'Droid Sans', 'Helvetica Neue', sans-serif" font-size="11.00">/Api/Client.hpp</text>
</a>
</g>
</g>
<!-- Node3&#45;&gt;Node4 -->
<g id="edge4" class="edge">
<title>Node3&#45;&gt;Node4</title>
<path fill="none" stroke="midnightblue" d="M207.53,-137.83C315.2,-120.51 428.92,-104.17 496.28,-94.7"/>
<polygon fill="midnightblue" stroke="midnightblue" points="206.78,-134.41 197.46,-139.45 207.89,-141.32 206.78,-134.41"/>
</g>
<!-- Node7 -->
<g id="node6" class="node">
<title>Node7</title>
<g id="a_node6"><a xlink:href="Events_8hpp.html" target="_top" xlink:title=" ">
<polygon fill="none" stroke="black" points="1189.33,-69.5 1189.33,-101.5 1307.33,-101.5 1307.33,-69.5 1189.33,-69.5"/>
<text text-anchor="start" x="1197.33" y="-88.7" font-family="-apple-system, BlinkMacSystemFont, 'Segoe UI', Roboto, Oxygen, Ubuntu, Cantarell, 'Fira Sans', 'Droid Sans', 'Helvetica Neue', sans-serif" font-size="11.00">libmirai/public/libmirai</text>
<text text-anchor="middle" x="1248.33" y="-76.7" font-family="-apple-system, BlinkMacSystemFont, 'Segoe UI', Roboto, Oxygen, Ubuntu, Cantarell, 'Fira Sans', 'Droid Sans', 'Helvetica Neue', sans-serif" font-size="11.00">/Events/Events.hpp</text>
</a>
</g>
</g>
<!-- Node3&#45;&gt;Node7 -->
<g id="edge7" class="edge">
<title>Node3&#45;&gt;Node7</title>
<path fill="none" stroke="midnightblue" d="M207.48,-137.97C586.59,-96.03 1031.1,-88.3 1189.08,-86.84"/>
<polygon fill="midnightblue" stroke="midnightblue" points="206.96,-134.5 197.41,-139.09 207.74,-141.46 206.96,-134.5"/>
</g>
<!-- Node4&#45;&gt;Node2 -->
<g id="edge5" class="edge">
<title>Node4&#45;&gt;Node2</title>
<path fill="none" stroke="midnightblue" d="M514.69,-65.05C493.18,-54.76 467.15,-42.3 447.12,-32.72"/>
<polygon fill="midnightblue" stroke="midnightblue" points="513.38,-68.3 523.91,-69.46 516.4,-61.99 513.38,-68.3"/>
</g>
<!-- Node4&#45;&gt;Node5 -->
<g id="edge6" class="edge">
<title>Node4&#45;&gt;Node5</title>
<path fill="none" stroke="midnightblue" d="M624.74,-81.12C863.63,-69.49 1649.37,-31.23 1872.04,-20.39"/>
<polygon fill="midnightblue" stroke="midnightblue" points="624.27,-77.64 614.45,-81.62 624.61,-84.63 624.27,-77.64"/>
</g>
<!-- Node7&#45;&gt;Node5 -->
<g id="edge8" class="edge">
<title>Node7&#45;&gt;Node5</title>
<path fill="none" stroke="midnightblue" d="M1317.62,-77.7C1452.01,-64.52 1745.92,-35.69 1871.98,-23.32"/>
<polygon fill="midnightblue" stroke="midnightblue" points="1317.06,-74.24 1307.45,-78.7 1317.74,-81.21 1317.06,-74.24"/>
</g>
<!-- Node8&#45;&gt;Node2 -->
<g id="edge10" class="edge">
<title>Node8&#45;&gt;Node2</title>
<path fill="none" stroke="midnightblue" d="M1264.68,-222.38C970.3,-221.56 73.05,-215.41 30.33,-171 -70.07,-66.63 225.32,-31.5 356.25,-21.24"/>
<polygon fill="midnightblue" stroke="midnightblue" points="1264.89,-225.88 1274.9,-222.41 1264.91,-218.88 1264.89,-225.88"/>
</g>
<!-- Node8&#45;&gt;Node4 -->
<g id="edge11" class="edge">
<title>Node8&#45;&gt;Node4</title>
<path fill="none" stroke="midnightblue" d="M1265.12,-219.77C1082.58,-213.8 687.91,-197.94 632.33,-171 616.07,-163.12 584.01,-123.74 566.83,-101.63"/>
<polygon fill="midnightblue" stroke="midnightblue" points="1265.14,-223.27 1275.25,-220.09 1265.36,-216.27 1265.14,-223.27"/>
</g>
<!-- Node9 -->
<g id="node8" class="node">
<title>Node9</title>
<g id="a_node8"><a xlink:href="CommandExecutedEvent_8hpp.html" target="_top" xlink:title=" ">
<polygon fill="none" stroke="red" points="1921.83,-138.5 1921.83,-170.5 2118.83,-170.5 2118.83,-138.5 1921.83,-138.5"/>
<text text-anchor="start" x="1929.83" y="-157.7" font-family="-apple-system, BlinkMacSystemFont, 'Segoe UI', Roboto, Oxygen, Ubuntu, Cantarell, 'Fira Sans', 'Droid Sans', 'Helvetica Neue', sans-serif" font-size="11.00">libmirai/public/libmirai</text>
<text text-anchor="middle" x="2020.33" y="-145.7" font-family="-apple-system, BlinkMacSystemFont, 'Segoe UI', Roboto, Oxygen, Ubuntu, Cantarell, 'Fira Sans', 'Droid Sans', 'Helvetica Neue', sans-serif" font-size="11.00">/Events/CommandExecutedEvent.hpp</text>
</a>
</g>
</g>
<!-- Node8&#45;&gt;Node9 -->
<g id="edge12" class="edge">
<title>Node8&#45;&gt;Node9</title>
<path fill="none" stroke="midnightblue" d="M1449.83,-215.34C1560.12,-206.47 1749.94,-190.17 1912.33,-171 1915.43,-170.63 1918.58,-170.25 1921.76,-169.85"/>
<polygon fill="midnightblue" stroke="midnightblue" points="1449.43,-211.86 1439.74,-216.15 1449.99,-218.84 1449.43,-211.86"/>
</g>
<!-- Node11 -->
<g id="node9" class="node">
<title>Node11</title>
<g id="a_node9"><a xlink:href="FriendMessageEvent_8hpp.html" target="_top" xlink:title=" ">
<polygon fill="none" stroke="red" points="408.83,-138.5 408.83,-170.5 585.83,-170.5 585.83,-138.5 408.83,-138.5"/>
<text text-anchor="start" x="416.83" y="-157.7" font-family="-apple-system, BlinkMacSystemFont, 'Segoe UI', Roboto, Oxygen, Ubuntu, Cantarell, 'Fira Sans', 'Droid Sans', 'Helvetica Neue', sans-serif" font-size="11.00">libmirai/public/libmirai</text>
<text text-anchor="middle" x="497.33" y="-145.7" font-family="-apple-system, BlinkMacSystemFont, 'Segoe UI', Roboto, Oxygen, Ubuntu, Cantarell, 'Fira Sans', 'Droid Sans', 'Helvetica Neue', sans-serif" font-size="11.00">/Events/FriendMessageEvent.hpp</text>
</a>
</g>
</g>
<!-- Node8&#45;&gt;Node11 -->
<g id="edge14" class="edge">
<title>Node8&#45;&gt;Node11</title>
<path fill="none" stroke="midnightblue" d="M1265.2,-218.71C1122.32,-212.27 838.76,-197.28 599.33,-171 594.96,-170.52 590.5,-169.99 586,-169.43"/>
<polygon fill="midnightblue" stroke="midnightblue" points="1265.1,-222.21 1275.25,-219.16 1265.41,-215.21 1265.1,-222.21"/>
</g>
<!-- Node13 -->
<g id="node10" class="node">
<title>Node13</title>
<g id="a_node10"><a xlink:href="FriendSyncMessageEvent_8hpp.html" target="_top" xlink:title=" ">
<polygon fill="none" stroke="red" points="2136.83,-138.5 2136.83,-170.5 2337.83,-170.5 2337.83,-138.5 2136.83,-138.5"/>
<text text-anchor="start" x="2144.83" y="-157.7" font-family="-apple-system, BlinkMacSystemFont, 'Segoe UI', Roboto, Oxygen, Ubuntu, Cantarell, 'Fira Sans', 'Droid Sans', 'Helvetica Neue', sans-serif" font-size="11.00">libmirai/public/libmirai</text>
<text text-anchor="middle" x="2237.33" y="-145.7" font-family="-apple-system, BlinkMacSystemFont, 'Segoe UI', Roboto, Oxygen, Ubuntu, Cantarell, 'Fira Sans', 'Droid Sans', 'Helvetica Neue', sans-serif" font-size="11.00">/Events/FriendSyncMessageEvent.hpp</text>
</a>
</g>
</g>
<!-- Node8&#45;&gt;Node13 -->
<g id="edge18" class="edge">
<title>Node8&#45;&gt;Node13</title>
<path fill="none" stroke="midnightblue" d="M1449.55,-218.57C1594.37,-211.89 1883.85,-196.51 2128.33,-171 2131.08,-170.71 2133.88,-170.41 2136.7,-170.09"/>
<polygon fill="midnightblue" stroke="midnightblue" points="1449.2,-215.08 1439.37,-219.03 1449.52,-222.07 1449.2,-215.08"/>
</g>
<!-- Node15 -->
<g id="node11" class="node">
<title>Node15</title>
<g id="a_node11"><a xlink:href="GroupMessageEvent_8hpp.html" target="_top" xlink:title=" ">
<polygon fill="none" stroke="red" points="215.33,-138.5 215.33,-170.5 391.33,-170.5 391.33,-138.5 215.33,-138.5"/>
<text text-anchor="start" x="223.33" y="-157.7" font-family="-apple-system, BlinkMacSystemFont, 'Segoe UI', Roboto, Oxygen, Ubuntu, Cantarell, 'Fira Sans', 'Droid Sans', 'Helvetica Neue', sans-serif" font-size="11.00">libmirai/public/libmirai</text>
<text text-anchor="middle" x="303.33" y="-145.7" font-family="-apple-system, BlinkMacSystemFont, 'Segoe UI', Roboto, Oxygen, Ubuntu, Cantarell, 'Fira Sans', 'Droid Sans', 'Helvetica Neue', sans-serif" font-size="11.00">/Events/GroupMessageEvent.hpp</text>
</a>
</g>
</g>
<!-- Node8&#45;&gt;Node15 -->
<g id="edge20" class="edge">
<title>Node8&#45;&gt;Node15</title>
<path fill="none" stroke="midnightblue" d="M1264.84,-220.8C1093.61,-216.92 715.8,-204.96 399.33,-171 396.72,-170.72 394.09,-170.42 391.42,-170.1"/>
<polygon fill="midnightblue" stroke="midnightblue" points="1265,-224.3 1275.08,-221.02 1265.16,-217.3 1265,-224.3"/>
</g>
<!-- Node17 -->
<g id="node12" class="node">
<title>Node17</title>
<g id="a_node12"><a xlink:href="GroupSyncMessageEvent_8hpp.html" target="_top" xlink:title=" ">
<polygon fill="none" stroke="red" points="1039.33,-138.5 1039.33,-170.5 1239.33,-170.5 1239.33,-138.5 1039.33,-138.5"/>
<text text-anchor="start" x="1047.33" y="-157.7" font-family="-apple-system, BlinkMacSystemFont, 'Segoe UI', Roboto, Oxygen, Ubuntu, Cantarell, 'Fira Sans', 'Droid Sans', 'Helvetica Neue', sans-serif" font-size="11.00">libmirai/public/libmirai</text>
<text text-anchor="middle" x="1139.33" y="-145.7" font-family="-apple-system, BlinkMacSystemFont, 'Segoe UI', Roboto, Oxygen, Ubuntu, Cantarell, 'Fira Sans', 'Droid Sans', 'Helvetica Neue', sans-serif" font-size="11.00">/Events/GroupSyncMessageEvent.hpp</text>
</a>
</g>
</g>
<!-- Node8&#45;&gt;Node17 -->
<g id="edge24" class="edge">
<title>Node8&#45;&gt;Node17</title>
<path fill="none" stroke="midnightblue" d="M1298.47,-204.41C1264.04,-193.83 1221.07,-180.62 1188.46,-170.6"/>
<polygon fill="midnightblue" stroke="midnightblue" points="1297.82,-207.87 1308.4,-207.46 1299.87,-201.18 1297.82,-207.87"/>
</g>
<!-- Node19 -->
<g id="node13" class="node">
<title>Node19</title>
<g id="a_node13"><a xlink:href="OtherClientMessageEvent_8hpp.html" target="_top" xlink:title=" ">
<polygon fill="none" stroke="red" points="1257.33,-138.5 1257.33,-170.5 1457.33,-170.5 1457.33,-138.5 1257.33,-138.5"/>
<text text-anchor="start" x="1265.33" y="-157.7" font-family="-apple-system, BlinkMacSystemFont, 'Segoe UI', Roboto, Oxygen, Ubuntu, Cantarell, 'Fira Sans', 'Droid Sans', 'Helvetica Neue', sans-serif" font-size="11.00">libmirai/public/libmirai</text>
<text text-anchor="middle" x="1357.33" y="-145.7" font-family="-apple-system, BlinkMacSystemFont, 'Segoe UI', Roboto, Oxygen, Ubuntu, Cantarell, 'Fira Sans', 'Droid Sans', 'Helvetica Neue', sans-serif" font-size="11.00">/Events/OtherClientMessageEvent.hpp</text>
</a>
</g>
</g>
<!-- Node8&#45;&gt;Node19 -->
<g id="edge26" class="edge">
<title>Node8&#45;&gt;Node19</title>
<path fill="none" stroke="midnightblue" d="M1357.33,-197.02C1357.33,-188.13 1357.33,-178.43 1357.33,-170.64"/>
<polygon fill="midnightblue" stroke="midnightblue" points="1353.83,-197.3 1357.33,-207.3 1360.83,-197.3 1353.83,-197.3"/>
</g>
<!-- Node21 -->
<g id="node14" class="node">
<title>Node21</title>
<g id="a_node14"><a xlink:href="StrangerMessageEvent_8hpp.html" target="_top" xlink:title=" ">
<polygon fill="none" stroke="red" points="641.33,-138.5 641.33,-170.5 829.33,-170.5 829.33,-138.5 641.33,-138.5"/>
<text text-anchor="start" x="649.33" y="-157.7" font-family="-apple-system, BlinkMacSystemFont, 'Segoe UI', Roboto, Oxygen, Ubuntu, Cantarell, 'Fira Sans', 'Droid Sans', 'Helvetica Neue', sans-serif" font-size="11.00">libmirai/public/libmirai</text>
<text text-anchor="middle" x="735.33" y="-145.7" font-family="-apple-system, BlinkMacSystemFont, 'Segoe UI', Roboto, Oxygen, Ubuntu, Cantarell, 'Fira Sans', 'Droid Sans', 'Helvetica Neue', sans-serif" font-size="11.00">/Events/StrangerMessageEvent.hpp</text>
</a>
</g>
</g>
<!-- Node8&#45;&gt;Node21 -->
<g id="edge28" class="edge">
<title>Node8&#45;&gt;Node21</title>
<path fill="none" stroke="midnightblue" d="M1264.79,-214.74C1160.86,-205.69 987.24,-189.58 838.33,-171 835.46,-170.64 832.54,-170.27 829.6,-169.88"/>
<polygon fill="midnightblue" stroke="midnightblue" points="1264.67,-218.24 1274.94,-215.62 1265.28,-211.27 1264.67,-218.24"/>
</g>
<!-- Node23 -->
<g id="node15" class="node">
<title>Node23</title>
<g id="a_node15"><a xlink:href="StrangerSyncMessageEvent_8hpp.html" target="_top" xlink:title=" ">
<polygon fill="none" stroke="red" points="1475.33,-138.5 1475.33,-170.5 1687.33,-170.5 1687.33,-138.5 1475.33,-138.5"/>
<text text-anchor="start" x="1483.33" y="-157.7" font-family="-apple-system, BlinkMacSystemFont, 'Segoe UI', Roboto, Oxygen, Ubuntu, Cantarell, 'Fira Sans', 'Droid Sans', 'Helvetica Neue', sans-serif" font-size="11.00">libmirai/public/libmirai</text>
<text text-anchor="middle" x="1581.33" y="-145.7" font-family="-apple-system, BlinkMacSystemFont, 'Segoe UI', Roboto, Oxygen, Ubuntu, Cantarell, 'Fira Sans', 'Droid Sans', 'Helvetica Neue', sans-serif" font-size="11.00">/Events/StrangerSyncMessageEvent.hpp</text>
</a>
</g>
</g>
<!-- Node8&#45;&gt;Node23 -->
<g id="edge32" class="edge">
<title>Node8&#45;&gt;Node23</title>
<path fill="none" stroke="midnightblue" d="M1417.34,-204.55C1452.8,-193.94 1497.19,-180.67 1530.84,-170.6"/>
<polygon fill="midnightblue" stroke="midnightblue" points="1416.17,-201.24 1407.6,-207.46 1418.18,-207.95 1416.17,-201.24"/>
</g>
<!-- Node25 -->
<g id="node16" class="node">
<title>Node25</title>
<g id="a_node16"><a xlink:href="TempMessageEvent_8hpp.html" target="_top" xlink:title=" ">
<polygon fill="none" stroke="red" points="847.33,-138.5 847.33,-170.5 1021.33,-170.5 1021.33,-138.5 847.33,-138.5"/>
<text text-anchor="start" x="855.33" y="-157.7" font-family="-apple-system, BlinkMacSystemFont, 'Segoe UI', Roboto, Oxygen, Ubuntu, Cantarell, 'Fira Sans', 'Droid Sans', 'Helvetica Neue', sans-serif" font-size="11.00">libmirai/public/libmirai</text>
<text text-anchor="middle" x="934.33" y="-145.7" font-family="-apple-system, BlinkMacSystemFont, 'Segoe UI', Roboto, Oxygen, Ubuntu, Cantarell, 'Fira Sans', 'Droid Sans', 'Helvetica Neue', sans-serif" font-size="11.00">/Events/TempMessageEvent.hpp</text>
</a>
</g>
</g>
<!-- Node8&#45;&gt;Node25 -->
<g id="edge34" class="edge">
<title>Node8&#45;&gt;Node25</title>
<path fill="none" stroke="midnightblue" d="M1265.11,-208.07C1199.59,-197.8 1109.55,-183.63 1030.33,-171 1027.41,-170.53 1024.44,-170.06 1021.45,-169.58"/>
<polygon fill="midnightblue" stroke="midnightblue" points="1264.58,-211.53 1275,-209.62 1265.66,-204.62 1264.58,-211.53"/>
</g>
<!-- Node27 -->
<g id="node17" class="node">
<title>Node27</title>
<g id="a_node17"><a xlink:href="TempSyncMessageEvent_8hpp.html" target="_top" xlink:title=" ">
<polygon fill="none" stroke="red" points="1705.33,-138.5 1705.33,-170.5 1903.33,-170.5 1903.33,-138.5 1705.33,-138.5"/>
<text text-anchor="start" x="1713.33" y="-157.7" font-family="-apple-system, BlinkMacSystemFont, 'Segoe UI', Roboto, Oxygen, Ubuntu, Cantarell, 'Fira Sans', 'Droid Sans', 'Helvetica Neue', sans-serif" font-size="11.00">libmirai/public/libmirai</text>
<text text-anchor="middle" x="1804.33" y="-145.7" font-family="-apple-system, BlinkMacSystemFont, 'Segoe UI', Roboto, Oxygen, Ubuntu, Cantarell, 'Fira Sans', 'Droid Sans', 'Helvetica Neue', sans-serif" font-size="11.00">/Events/TempSyncMessageEvent.hpp</text>
</a>
</g>
</g>
<!-- Node8&#45;&gt;Node27 -->
<g id="edge38" class="edge">
<title>Node8&#45;&gt;Node27</title>
<path fill="none" stroke="midnightblue" d="M1449.88,-208.63C1524.35,-197.47 1628.79,-181.81 1705.01,-170.39"/>
<polygon fill="midnightblue" stroke="midnightblue" points="1448.94,-205.23 1439.57,-210.17 1449.98,-212.15 1448.94,-205.23"/>
</g>
<!-- Node29 -->
<g id="node18" class="node">
<title>Node29</title>
<g id="a_node18"><a xlink:href="ForwardMessage_8hpp.html" target="_top" xlink:title=" ">
<polygon fill="none" stroke="red" points="2577.33,-138.5 2577.33,-170.5 2753.33,-170.5 2753.33,-138.5 2577.33,-138.5"/>
<text text-anchor="start" x="2585.33" y="-157.7" font-family="-apple-system, BlinkMacSystemFont, 'Segoe UI', Roboto, Oxygen, Ubuntu, Cantarell, 'Fira Sans', 'Droid Sans', 'Helvetica Neue', sans-serif" font-size="11.00">libmirai/public/libmirai</text>
<text text-anchor="middle" x="2665.33" y="-145.7" font-family="-apple-system, BlinkMacSystemFont, 'Segoe UI', Roboto, Oxygen, Ubuntu, Cantarell, 'Fira Sans', 'Droid Sans', 'Helvetica Neue', sans-serif" font-size="11.00">/Messages/ForwardMessage.hpp</text>
</a>
</g>
</g>
<!-- Node8&#45;&gt;Node29 -->
<g id="edge40" class="edge">
<title>Node8&#45;&gt;Node29</title>
<path fill="none" stroke="midnightblue" d="M1449.71,-221.96C1652.01,-220.02 2149.18,-211.19 2563.33,-171 2567.87,-170.56 2572.53,-170.05 2577.22,-169.5"/>
<polygon fill="midnightblue" stroke="midnightblue" points="1449.39,-218.46 1439.43,-222.05 1449.46,-225.46 1449.39,-218.46"/>
</g>
<!-- Node31 -->
<g id="node19" class="node">
<title>Node31</title>
<g id="a_node19"><a xlink:href="MessageChain_8cpp.html" target="_top" xlink:title=" ">
<polygon fill="none" stroke="black" points="2583.83,-0.5 2583.83,-32.5 2746.83,-32.5 2746.83,-0.5 2583.83,-0.5"/>
<text text-anchor="start" x="2591.83" y="-19.7" font-family="-apple-system, BlinkMacSystemFont, 'Segoe UI', Roboto, Oxygen, Ubuntu, Cantarell, 'Fira Sans', 'Droid Sans', 'Helvetica Neue', sans-serif" font-size="11.00">libmirai/public/libmirai</text>
<text text-anchor="middle" x="2665.33" y="-7.7" font-family="-apple-system, BlinkMacSystemFont, 'Segoe UI', Roboto, Oxygen, Ubuntu, Cantarell, 'Fira Sans', 'Droid Sans', 'Helvetica Neue', sans-serif" font-size="11.00">/Messages/MessageChain.cpp</text>
</a>
</g>
</g>
<!-- Node8&#45;&gt;Node31 -->
<g id="edge45" class="edge">
<title>Node8&#45;&gt;Node31</title>
<path fill="none" stroke="midnightblue" d="M1449.62,-222.59C1755.13,-222.46 2716.76,-218.27 2762.33,-171 2804.66,-127.08 2727.58,-61.86 2687.42,-32.63"/>
<polygon fill="midnightblue" stroke="midnightblue" points="1449.47,-219.09 1439.47,-222.6 1449.47,-226.09 1449.47,-219.09"/>
</g>
<!-- Node32 -->
<g id="node20" class="node">
<title>Node32</title>
<g id="a_node20"><a xlink:href="Messages_8hpp.html" target="_top" xlink:title=" ">
<polygon fill="none" stroke="black" points="2478.83,-69.5 2478.83,-101.5 2619.83,-101.5 2619.83,-69.5 2478.83,-69.5"/>
<text text-anchor="start" x="2486.83" y="-88.7" font-family="-apple-system, BlinkMacSystemFont, 'Segoe UI', Roboto, Oxygen, Ubuntu, Cantarell, 'Fira Sans', 'Droid Sans', 'Helvetica Neue', sans-serif" font-size="11.00">libmirai/public/libmirai</text>
<text text-anchor="middle" x="2549.33" y="-76.7" font-family="-apple-system, BlinkMacSystemFont, 'Segoe UI', Roboto, Oxygen, Ubuntu, Cantarell, 'Fira Sans', 'Droid Sans', 'Helvetica Neue', sans-serif" font-size="11.00">/Messages/Messages.hpp</text>
</a>
</g>
</g>
<!-- Node8&#45;&gt;Node32 -->
<g id="edge46" class="edge">
<title>Node8&#45;&gt;Node32</title>
<path fill="none" stroke="midnightblue" d="M1449.83,-221.48C1719.6,-218.1 2489.11,-205.49 2530.33,-171 2550.39,-154.21 2551.96,-121.21 2550.9,-101.79"/>
<polygon fill="midnightblue" stroke="midnightblue" points="1449.63,-217.98 1439.67,-221.61 1449.72,-224.98 1449.63,-217.98"/>
</g>
<!-- Node33 -->
<g id="node21" class="node">
<title>Node33</title>
<g id="a_node21"><a xlink:href="QuoteMessage_8hpp.html" target="_top" xlink:title=" ">
<polygon fill="none" stroke="red" points="2355.83,-138.5 2355.83,-170.5 2520.83,-170.5 2520.83,-138.5 2355.83,-138.5"/>
<text text-anchor="start" x="2363.83" y="-157.7" font-family="-apple-system, BlinkMacSystemFont, 'Segoe UI', Roboto, Oxygen, Ubuntu, Cantarell, 'Fira Sans', 'Droid Sans', 'Helvetica Neue', sans-serif" font-size="11.00">libmirai/public/libmirai</text>
<text text-anchor="middle" x="2438.33" y="-145.7" font-family="-apple-system, BlinkMacSystemFont, 'Segoe UI', Roboto, Oxygen, Ubuntu, Cantarell, 'Fira Sans', 'Droid Sans', 'Helvetica Neue', sans-serif" font-size="11.00">/Messages/QuoteMessage.hpp</text>
</a>
</g>
</g>
<!-- Node8&#45;&gt;Node33 -->
<g id="edge47" class="edge">
<title>Node8&#45;&gt;Node33</title>
<path fill="none" stroke="midnightblue" d="M1449.62,-221.29C1625.03,-218.2 2018.39,-207.44 2347.33,-171 2350.03,-170.7 2352.78,-170.37 2355.56,-170.02"/>
<polygon fill="midnightblue" stroke="midnightblue" points="1449.34,-217.79 1439.4,-221.47 1449.46,-224.79 1449.34,-217.79"/>
</g>
<!-- Node9&#45;&gt;Node7 -->
<g id="edge13" class="edge">
<title>Node9&#45;&gt;Node7</title>
<path fill="none" stroke="midnightblue" d="M1911.55,-137.96C1681.9,-112.92 1422,-96.44 1307.52,-89.79"/>
<polygon fill="midnightblue" stroke="midnightblue" points="1911.45,-141.47 1921.77,-139.09 1912.21,-134.51 1911.45,-141.47"/>
</g>
<!-- Node11&#45;&gt;Node2 -->
<g id="edge15" class="edge">
<title>Node11&#45;&gt;Node2</title>
<path fill="none" stroke="midnightblue" d="M482.96,-129.67C466.1,-101.71 438.64,-56.17 424.46,-32.64"/>
<polygon fill="midnightblue" stroke="midnightblue" points="480.08,-131.67 488.24,-138.43 486.07,-128.05 480.08,-131.67"/>
</g>
<!-- Node11&#45;&gt;Node4 -->
<g id="edge16" class="edge">
<title>Node11&#45;&gt;Node4</title>
<path fill="none" stroke="midnightblue" d="M517.12,-130.64C525.4,-121.07 534.81,-110.2 542.22,-101.64"/>
<polygon fill="midnightblue" stroke="midnightblue" points="514.39,-128.45 510.49,-138.3 519.68,-133.03 514.39,-128.45"/>
</g>
<!-- Node11&#45;&gt;Node7 -->
<g id="edge17" class="edge">
<title>Node11&#45;&gt;Node7</title>
<path fill="none" stroke="midnightblue" d="M596.09,-141.8C608.29,-140.46 620.59,-139.16 632.33,-138 836.57,-117.74 1079.44,-99.01 1189.24,-90.83"/>
<polygon fill="midnightblue" stroke="midnightblue" points="595.43,-138.36 585.88,-142.94 596.2,-145.31 595.43,-138.36"/>
</g>
<!-- Node13&#45;&gt;Node7 -->
<g id="edge19" class="edge">
<title>Node13&#45;&gt;Node7</title>
<path fill="none" stroke="midnightblue" d="M2126.48,-137.86C1812.21,-106.82 1447.75,-92.83 1307.42,-88.27"/>
<polygon fill="midnightblue" stroke="midnightblue" points="2126.4,-141.37 2136.7,-138.88 2127.09,-134.41 2126.4,-141.37"/>
</g>
<!-- Node15&#45;&gt;Node2 -->
<g id="edge21" class="edge">
<title>Node15&#45;&gt;Node2</title>
<path fill="none" stroke="midnightblue" d="M322.35,-130.4C345.33,-102.5 383.31,-56.38 402.86,-32.64"/>
<polygon fill="midnightblue" stroke="midnightblue" points="319.4,-128.48 315.74,-138.43 324.8,-132.93 319.4,-128.48"/>
</g>
<!-- Node15&#45;&gt;Node4 -->
<g id="edge22" class="edge">
<title>Node15&#45;&gt;Node4</title>
<path fill="none" stroke="midnightblue" d="M369.57,-135.89C409.67,-125.23 460.27,-111.77 498.53,-101.6"/>
<polygon fill="midnightblue" stroke="midnightblue" points="368.65,-132.51 359.88,-138.46 370.44,-139.28 368.65,-132.51"/>
</g>
<!-- Node15&#45;&gt;Node7 -->
<g id="edge23" class="edge">
<title>Node15&#45;&gt;Node7</title>
<path fill="none" stroke="midnightblue" d="M401.67,-137.8C702.85,-104.96 1052.35,-92.11 1189.23,-88.06"/>
<polygon fill="midnightblue" stroke="midnightblue" points="400.98,-134.35 391.43,-138.93 401.75,-141.31 400.98,-134.35"/>
</g>
<!-- Node17&#45;&gt;Node7 -->
<g id="edge25" class="edge">
<title>Node17&#45;&gt;Node7</title>
<path fill="none" stroke="midnightblue" d="M1172.55,-133.08C1188.98,-122.98 1208.47,-111 1223.57,-101.72"/>
<polygon fill="midnightblue" stroke="midnightblue" points="1170.47,-130.25 1163.79,-138.46 1174.14,-136.21 1170.47,-130.25"/>
</g>
<!-- Node19&#45;&gt;Node7 -->
<g id="edge27" class="edge">
<title>Node19&#45;&gt;Node7</title>
<path fill="none" stroke="midnightblue" d="M1324.1,-133.08C1307.67,-122.98 1288.18,-111 1273.08,-101.72"/>
<polygon fill="midnightblue" stroke="midnightblue" points="1322.51,-136.21 1332.86,-138.46 1326.18,-130.25 1322.51,-136.21"/>
</g>
<!-- Node21&#45;&gt;Node2 -->
<g id="edge29" class="edge">
<title>Node21&#45;&gt;Node2</title>
<path fill="none" stroke="midnightblue" d="M712.03,-131.4C690.58,-112.22 657.06,-85.07 623.33,-69 575.8,-46.36 517.27,-33.02 474.41,-25.61"/>
<polygon fill="midnightblue" stroke="midnightblue" points="709.89,-134.18 719.64,-138.33 714.6,-129.01 709.89,-134.18"/>
</g>
<!-- Node21&#45;&gt;Node4 -->
<g id="edge30" class="edge">
<title>Node21&#45;&gt;Node4</title>
<path fill="none" stroke="midnightblue" d="M685.26,-134.86C657.09,-124.38 622.36,-111.45 595.9,-101.6"/>
<polygon fill="midnightblue" stroke="midnightblue" points="684.34,-138.26 694.93,-138.46 686.78,-131.7 684.34,-138.26"/>
</g>
<!-- Node21&#45;&gt;Node7 -->
<g id="edge31" class="edge">
<title>Node21&#45;&gt;Node7</title>
<path fill="none" stroke="midnightblue" d="M839.55,-137.85C970.44,-119.89 1111.48,-102.73 1189.2,-93.47"/>
<polygon fill="midnightblue" stroke="midnightblue" points="838.77,-134.42 829.34,-139.26 839.72,-141.36 838.77,-134.42"/>
</g>
<!-- Node23&#45;&gt;Node7 -->
<g id="edge33" class="edge">
<title>Node23&#45;&gt;Node7</title>
<path fill="none" stroke="midnightblue" d="M1496.53,-136.44C1437.45,-124.55 1360.11,-108.99 1307.58,-98.42"/>
<polygon fill="midnightblue" stroke="midnightblue" points="1496.1,-139.92 1506.59,-138.46 1497.48,-133.06 1496.1,-139.92"/>
</g>
<!-- Node25&#45;&gt;Node2 -->
<g id="edge35" class="edge">
<title>Node25&#45;&gt;Node2</title>
<path fill="none" stroke="midnightblue" d="M881.03,-135.1C826.89,-116.81 740.42,-88.72 664.33,-69 600.02,-52.33 525.26,-37.46 474.57,-28.04"/>
<polygon fill="midnightblue" stroke="midnightblue" points="880.16,-138.5 890.75,-138.39 882.41,-131.87 880.16,-138.5"/>
</g>
<!-- Node25&#45;&gt;Node4 -->
<g id="edge36" class="edge">
<title>Node25&#45;&gt;Node4</title>
<path fill="none" stroke="midnightblue" d="M839.04,-136.65C768.47,-124.18 674.54,-107.57 614.48,-96.96"/>
<polygon fill="midnightblue" stroke="midnightblue" points="838.81,-140.17 849.27,-138.46 840.03,-133.28 838.81,-140.17"/>
</g>
<!-- Node25&#45;&gt;Node7 -->
<g id="edge37" class="edge">
<title>Node25&#45;&gt;Node7</title>
<path fill="none" stroke="midnightblue" d="M1014.76,-136.34C1069.19,-124.72 1139.87,-109.64 1189.16,-99.12"/>
<polygon fill="midnightblue" stroke="midnightblue" points="1013.84,-132.95 1004.79,-138.46 1015.3,-139.8 1013.84,-132.95"/>
</g>
<!-- Node27&#45;&gt;Node7 -->
<g id="edge39" class="edge">
<title>Node27&#45;&gt;Node7</title>
<path fill="none" stroke="midnightblue" d="M1695.18,-137.87C1549.82,-119.21 1391.31,-101.76 1307.46,-92.76"/>
<polygon fill="midnightblue" stroke="midnightblue" points="1694.81,-141.35 1705.18,-139.16 1695.71,-134.41 1694.81,-141.35"/>
</g>
<!-- Node29&#45;&gt;Node31 -->
<g id="edge41" class="edge">
<title>Node29&#45;&gt;Node31</title>
<path fill="none" stroke="midnightblue" d="M2665.33,-128.2C2665.33,-100.13 2665.33,-55.76 2665.33,-32.64"/>
<polygon fill="midnightblue" stroke="midnightblue" points="2661.83,-128.43 2665.33,-138.43 2668.83,-128.43 2661.83,-128.43"/>
</g>
<!-- Node29&#45;&gt;Node32 -->
<g id="edge42" class="edge">
<title>Node29&#45;&gt;Node32</title>
<path fill="none" stroke="midnightblue" d="M2630.45,-133.36C2612.87,-123.2 2591.89,-111.08 2575.67,-101.72"/>
<polygon fill="midnightblue" stroke="midnightblue" points="2628.88,-136.49 2639.29,-138.46 2632.39,-130.43 2628.88,-136.49"/>
</g>
<!-- Node32&#45;&gt;Node5 -->
<g id="edge44" class="edge">
<title>Node32&#45;&gt;Node5</title>
<path fill="none" stroke="midnightblue" d="M2468.75,-75.76C2342.71,-62.1 2101.83,-35.99 1990.48,-23.91"/>
<polygon fill="midnightblue" stroke="midnightblue" points="2468.42,-79.25 2478.74,-76.85 2469.17,-72.29 2468.42,-79.25"/>
</g>
<!-- Node32&#45;&gt;Node31 -->
<g id="edge43" class="edge">
<title>Node32&#45;&gt;Node31</title>
<path fill="none" stroke="midnightblue" d="M2584.2,-64.36C2601.79,-54.2 2622.76,-42.08 2638.98,-32.72"/>
<polygon fill="midnightblue" stroke="midnightblue" points="2582.27,-61.43 2575.36,-69.46 2585.77,-67.49 2582.27,-61.43"/>
</g>
<!-- Node33&#45;&gt;Node32 -->
<g id="edge48" class="edge">
<title>Node33&#45;&gt;Node32</title>
<path fill="none" stroke="midnightblue" d="M2472.16,-133.08C2488.89,-122.98 2508.74,-111 2524.12,-101.72"/>
<polygon fill="midnightblue" stroke="midnightblue" points="2469.99,-130.3 2463.24,-138.46 2473.61,-136.29 2469.99,-130.3"/>
</g>
</g>
</svg>
