<?xml version="1.0" encoding="UTF-8" standalone="no"?>
<!DOCTYPE svg PUBLIC "-//W3C//DTD SVG 1.1//EN"
 "http://www.w3.org/Graphics/SVG/1.1/DTD/svg11.dtd">
<!-- Generated by graphviz version 3.0.0 (20221109.1736)
 -->
<!-- Title: libmirai/models/libmirai/Exceptions/Exceptions.hpp Pages: 1 -->
<svg width="1963pt" height="386pt"
 viewBox="0.00 0.00 1962.69 386.00" xmlns="http://www.w3.org/2000/svg" xmlns:xlink="http://www.w3.org/1999/xlink">
<g id="graph0" class="graph" transform="scale(1 1) rotate(0) translate(4 382)">
<title>libmirai/models/libmirai/Exceptions/Exceptions.hpp</title>
<!-- Node1 -->
<g id="node1" class="node">
<title>Node1</title>
<g id="a_node1"><a xlink:title=" ">
<polygon fill="#bfbfbf" stroke="black" points="897.5,-345.5 897.5,-377.5 1044.5,-377.5 1044.5,-345.5 897.5,-345.5"/>
<text text-anchor="start" x="905.5" y="-364.7" font-family="-apple-system, BlinkMacSystemFont, 'Segoe UI', Roboto, Oxygen, Ubuntu, Cantarell, 'Fira Sans', 'Droid Sans', 'Helvetica Neue', sans-serif" font-size="11.00">libmirai/models/libmirai</text>
<text text-anchor="middle" x="971" y="-352.7" font-family="-apple-system, BlinkMacSystemFont, 'Segoe UI', Roboto, Oxygen, Ubuntu, Cantarell, 'Fira Sans', 'Droid Sans', 'Helvetica Neue', sans-serif" font-size="11.00">/Exceptions/Exceptions.hpp</text>
</a>
</g>
</g>
<!-- Node2 -->
<g id="node2" class="node">
<title>Node2</title>
<g id="a_node2"><a xlink:href="models_8hpp.html" target="_top" xlink:title=" ">
<polygon fill="none" stroke="black" points="670,-69.5 670,-101.5 782,-101.5 782,-69.5 670,-69.5"/>
<text text-anchor="start" x="678" y="-88.7" font-family="-apple-system, BlinkMacSystemFont, 'Segoe UI', Roboto, Oxygen, Ubuntu, Cantarell, 'Fira Sans', 'Droid Sans', 'Helvetica Neue', sans-serif" font-size="11.00">libmirai/aggregates</text>
<text text-anchor="middle" x="726" y="-76.7" font-family="-apple-system, BlinkMacSystemFont, 'Segoe UI', Roboto, Oxygen, Ubuntu, Cantarell, 'Fira Sans', 'Droid Sans', 'Helvetica Neue', sans-serif" font-size="11.00">/libmirai/models.hpp</text>
</a>
</g>
</g>
<!-- Node1&#45;&gt;Node2 -->
<g id="edge1" class="edge">
<title>Node1&#45;&gt;Node2</title>
<path fill="none" stroke="midnightblue" d="M1054.78,-356.41C1280.65,-344.53 1889.12,-306.59 1948,-240 1957.72,-229.01 1955.8,-219.42 1948,-207 1910.48,-147.23 1873.4,-155.36 1805,-138 1608.57,-88.13 974.76,-85.76 782.08,-86.23"/>
<polygon fill="midnightblue" stroke="midnightblue" points="1054.45,-352.92 1044.64,-356.94 1054.81,-359.91 1054.45,-352.92"/>
</g>
<!-- Node4 -->
<g id="node4" class="node">
<title>Node4</title>
<g id="a_node4"><a xlink:href="MiraiClientEvents_8hpp.html" target="_top" xlink:title=" ">
<polygon fill="none" stroke="black" points="0,-207.5 0,-239.5 158,-239.5 158,-207.5 0,-207.5"/>
<text text-anchor="start" x="8" y="-226.7" font-family="-apple-system, BlinkMacSystemFont, 'Segoe UI', Roboto, Oxygen, Ubuntu, Cantarell, 'Fira Sans', 'Droid Sans', 'Helvetica Neue', sans-serif" font-size="11.00">libmirai/models/libmirai</text>
<text text-anchor="middle" x="79" y="-214.7" font-family="-apple-system, BlinkMacSystemFont, 'Segoe UI', Roboto, Oxygen, Ubuntu, Cantarell, 'Fira Sans', 'Droid Sans', 'Helvetica Neue', sans-serif" font-size="11.00">/Events/MiraiClientEvents.hpp</text>
</a>
</g>
</g>
<!-- Node1&#45;&gt;Node4 -->
<g id="edge3" class="edge">
<title>Node1&#45;&gt;Node4</title>
<path fill="none" stroke="midnightblue" d="M887.22,-348.3C741.64,-327 432.63,-281.37 172,-240 167.47,-239.28 162.82,-238.53 158.13,-237.77"/>
<polygon fill="midnightblue" stroke="midnightblue" points="887.01,-351.81 897.41,-349.79 888.02,-344.88 887.01,-351.81"/>
</g>
<!-- Node10 -->
<g id="node8" class="node">
<title>Node10</title>
<g id="a_node8"><a xlink:href="MessageChain_8hpp.html" target="_top" xlink:title=" ">
<polygon fill="none" stroke="black" points="889,-276.5 889,-308.5 1053,-308.5 1053,-276.5 889,-276.5"/>
<text text-anchor="start" x="897" y="-295.7" font-family="-apple-system, BlinkMacSystemFont, 'Segoe UI', Roboto, Oxygen, Ubuntu, Cantarell, 'Fira Sans', 'Droid Sans', 'Helvetica Neue', sans-serif" font-size="11.00">libmirai/models/libmirai</text>
<text text-anchor="middle" x="971" y="-283.7" font-family="-apple-system, BlinkMacSystemFont, 'Segoe UI', Roboto, Oxygen, Ubuntu, Cantarell, 'Fira Sans', 'Droid Sans', 'Helvetica Neue', sans-serif" font-size="11.00">/Messages/MessageChain.hpp</text>
</a>
</g>
</g>
<!-- Node1&#45;&gt;Node10 -->
<g id="edge10" class="edge">
<title>Node1&#45;&gt;Node10</title>
<path fill="none" stroke="midnightblue" d="M971,-335.02C971,-326.13 971,-316.43 971,-308.64"/>
<polygon fill="midnightblue" stroke="midnightblue" points="967.5,-335.3 971,-345.3 974.5,-335.3 967.5,-335.3"/>
</g>
<!-- Node3 -->
<g id="node3" class="node">
<title>Node3</title>
<g id="a_node3"><a xlink:href="mirai_8hpp.html" target="_top" xlink:title=" ">
<polygon fill="none" stroke="black" points="522.5,-0.5 522.5,-32.5 629.5,-32.5 629.5,-0.5 522.5,-0.5"/>
<text text-anchor="start" x="530.5" y="-19.7" font-family="-apple-system, BlinkMacSystemFont, 'Segoe UI', Roboto, Oxygen, Ubuntu, Cantarell, 'Fira Sans', 'Droid Sans', 'Helvetica Neue', sans-serif" font-size="11.00">libmirai/aggregates</text>
<text text-anchor="middle" x="576" y="-7.7" font-family="-apple-system, BlinkMacSystemFont, 'Segoe UI', Roboto, Oxygen, Ubuntu, Cantarell, 'Fira Sans', 'Droid Sans', 'Helvetica Neue', sans-serif" font-size="11.00">/libmirai/mirai.hpp</text>
</a>
</g>
</g>
<!-- Node2&#45;&gt;Node3 -->
<g id="edge2" class="edge">
<title>Node2&#45;&gt;Node3</title>
<path fill="none" stroke="midnightblue" d="M683.04,-65.31C659.79,-54.93 631.48,-42.28 609.81,-32.6"/>
<polygon fill="midnightblue" stroke="midnightblue" points="681.78,-68.58 692.34,-69.46 684.63,-62.19 681.78,-68.58"/>
</g>
<!-- Node5 -->
<g id="node5" class="node">
<title>Node5</title>
<g id="a_node5"><a xlink:href="Events_8hpp.html" target="_top" xlink:title=" ">
<polygon fill="none" stroke="red" points="547.5,-138.5 547.5,-170.5 692.5,-170.5 692.5,-138.5 547.5,-138.5"/>
<text text-anchor="start" x="555.5" y="-157.7" font-family="-apple-system, BlinkMacSystemFont, 'Segoe UI', Roboto, Oxygen, Ubuntu, Cantarell, 'Fira Sans', 'Droid Sans', 'Helvetica Neue', sans-serif" font-size="11.00">libmirai/aggregates</text>
<text text-anchor="middle" x="620" y="-145.7" font-family="-apple-system, BlinkMacSystemFont, 'Segoe UI', Roboto, Oxygen, Ubuntu, Cantarell, 'Fira Sans', 'Droid Sans', 'Helvetica Neue', sans-serif" font-size="11.00">/libmirai/Events/Events.hpp</text>
</a>
</g>
</g>
<!-- Node4&#45;&gt;Node5 -->
<g id="edge4" class="edge">
<title>Node4&#45;&gt;Node5</title>
<path fill="none" stroke="midnightblue" d="M168.29,-211.44C274.39,-198.3 449.35,-176.63 547.47,-164.48"/>
<polygon fill="midnightblue" stroke="midnightblue" points="167.74,-207.98 158.25,-212.69 168.6,-214.93 167.74,-207.98"/>
</g>
<!-- Node9 -->
<g id="node7" class="node">
<title>Node9</title>
<g id="a_node7"><a xlink:href="Client_8cpp.html" target="_top" xlink:title=" ">
<polygon fill="none" stroke="black" points="289,-0.5 289,-32.5 393,-32.5 393,-0.5 289,-0.5"/>
<text text-anchor="start" x="297" y="-19.7" font-family="-apple-system, BlinkMacSystemFont, 'Segoe UI', Roboto, Oxygen, Ubuntu, Cantarell, 'Fira Sans', 'Droid Sans', 'Helvetica Neue', sans-serif" font-size="11.00">libmirai/api/libmirai</text>
<text text-anchor="middle" x="341" y="-7.7" font-family="-apple-system, BlinkMacSystemFont, 'Segoe UI', Roboto, Oxygen, Ubuntu, Cantarell, 'Fira Sans', 'Droid Sans', 'Helvetica Neue', sans-serif" font-size="11.00">/Client/Client.cpp</text>
</a>
</g>
</g>
<!-- Node4&#45;&gt;Node9 -->
<g id="edge9" class="edge">
<title>Node4&#45;&gt;Node9</title>
<path fill="none" stroke="midnightblue" d="M101.97,-200.22C120.4,-182.7 147.18,-158.01 172,-138 222.22,-97.52 284.83,-54.73 317.96,-32.66"/>
<polygon fill="midnightblue" stroke="midnightblue" points="99.43,-197.81 94.62,-207.25 104.27,-202.87 99.43,-197.81"/>
</g>
<!-- Node5&#45;&gt;Node2 -->
<g id="edge5" class="edge">
<title>Node5&#45;&gt;Node2</title>
<path fill="none" stroke="midnightblue" d="M652.31,-133.08C668.29,-122.98 687.24,-111 701.92,-101.72"/>
<polygon fill="midnightblue" stroke="midnightblue" points="650.37,-130.16 643.79,-138.46 654.11,-136.08 650.37,-130.16"/>
</g>
<!-- Node8 -->
<g id="node6" class="node">
<title>Node8</title>
<g id="a_node6"><a xlink:href="Client_8hpp.html" target="_top" xlink:title=" ">
<polygon fill="none" stroke="black" points="461,-69.5 461,-101.5 565,-101.5 565,-69.5 461,-69.5"/>
<text text-anchor="start" x="469" y="-88.7" font-family="-apple-system, BlinkMacSystemFont, 'Segoe UI', Roboto, Oxygen, Ubuntu, Cantarell, 'Fira Sans', 'Droid Sans', 'Helvetica Neue', sans-serif" font-size="11.00">libmirai/api/libmirai</text>
<text text-anchor="middle" x="513" y="-76.7" font-family="-apple-system, BlinkMacSystemFont, 'Segoe UI', Roboto, Oxygen, Ubuntu, Cantarell, 'Fira Sans', 'Droid Sans', 'Helvetica Neue', sans-serif" font-size="11.00">/Client/Client.hpp</text>
</a>
</g>
</g>
<!-- Node5&#45;&gt;Node8 -->
<g id="edge6" class="edge">
<title>Node5&#45;&gt;Node8</title>
<path fill="none" stroke="midnightblue" d="M587.38,-133.08C571.26,-122.98 552.12,-111 537.3,-101.72"/>
<polygon fill="midnightblue" stroke="midnightblue" points="585.65,-136.12 595.99,-138.46 589.37,-130.19 585.65,-136.12"/>
</g>
<!-- Node8&#45;&gt;Node3 -->
<g id="edge7" class="edge">
<title>Node8&#45;&gt;Node3</title>
<path fill="none" stroke="midnightblue" d="M534.23,-61.93C543.29,-52.28 553.64,-41.28 561.76,-32.64"/>
<polygon fill="midnightblue" stroke="midnightblue" points="531.6,-59.61 527.3,-69.3 536.7,-64.41 531.6,-59.61"/>
</g>
<!-- Node8&#45;&gt;Node9 -->
<g id="edge8" class="edge">
<title>Node8&#45;&gt;Node9</title>
<path fill="none" stroke="midnightblue" d="M464.81,-65.73C437.95,-55.26 404.94,-42.41 379.77,-32.6"/>
<polygon fill="midnightblue" stroke="midnightblue" points="463.81,-69.1 474.4,-69.46 466.35,-62.57 463.81,-69.1"/>
</g>
<!-- Node10&#45;&gt;Node8 -->
<g id="edge13" class="edge">
<title>Node10&#45;&gt;Node8</title>
<path fill="none" stroke="midnightblue" d="M878.58,-288.62C679.8,-281.98 227.69,-264.27 205,-240 124.1,-153.48 353.22,-108.91 460.7,-93.2"/>
<polygon fill="midnightblue" stroke="midnightblue" points="878.6,-292.12 888.71,-288.96 878.83,-285.13 878.6,-292.12"/>
</g>
<!-- Node11 -->
<g id="node9" class="node">
<title>Node11</title>
<g id="a_node9"><a xlink:href="Messages_8hpp.html" target="_top" xlink:title=" ">
<polygon fill="none" stroke="black" points="1618,-138.5 1618,-170.5 1796,-170.5 1796,-138.5 1618,-138.5"/>
<text text-anchor="start" x="1626" y="-157.7" font-family="-apple-system, BlinkMacSystemFont, 'Segoe UI', Roboto, Oxygen, Ubuntu, Cantarell, 'Fira Sans', 'Droid Sans', 'Helvetica Neue', sans-serif" font-size="11.00">libmirai/aggregates</text>
<text text-anchor="middle" x="1707" y="-145.7" font-family="-apple-system, BlinkMacSystemFont, 'Segoe UI', Roboto, Oxygen, Ubuntu, Cantarell, 'Fira Sans', 'Droid Sans', 'Helvetica Neue', sans-serif" font-size="11.00">/libmirai/Messages/Messages.hpp</text>
</a>
</g>
</g>
<!-- Node10&#45;&gt;Node11 -->
<g id="edge11" class="edge">
<title>Node10&#45;&gt;Node11</title>
<path fill="none" stroke="midnightblue" d="M1063.28,-290.91C1246.3,-288.88 1641.67,-279.88 1688,-240 1707.83,-222.93 1709.48,-190.03 1708.5,-170.7"/>
<polygon fill="midnightblue" stroke="midnightblue" points="1063.09,-287.41 1053.13,-291.02 1063.17,-294.41 1063.09,-287.41"/>
</g>
<!-- Node12 -->
<g id="node10" class="node">
<title>Node12</title>
<g id="a_node10"><a xlink:href="CommandExecutedEvent_8hpp.html" target="_top" xlink:title=" ">
<polygon fill="none" stroke="black" points="1071.5,-207.5 1071.5,-239.5 1268.5,-239.5 1268.5,-207.5 1071.5,-207.5"/>
<text text-anchor="start" x="1079.5" y="-226.7" font-family="-apple-system, BlinkMacSystemFont, 'Segoe UI', Roboto, Oxygen, Ubuntu, Cantarell, 'Fira Sans', 'Droid Sans', 'Helvetica Neue', sans-serif" font-size="11.00">libmirai/models/libmirai</text>
<text text-anchor="middle" x="1170" y="-214.7" font-family="-apple-system, BlinkMacSystemFont, 'Segoe UI', Roboto, Oxygen, Ubuntu, Cantarell, 'Fira Sans', 'Droid Sans', 'Helvetica Neue', sans-serif" font-size="11.00">/Events/CommandExecutedEvent.hpp</text>
</a>
</g>
</g>
<!-- Node10&#45;&gt;Node12 -->
<g id="edge14" class="edge">
<title>Node10&#45;&gt;Node12</title>
<path fill="none" stroke="midnightblue" d="M1025.53,-273.14C1056.83,-262.6 1095.63,-249.54 1125.15,-239.6"/>
<polygon fill="midnightblue" stroke="midnightblue" points="1024.02,-269.96 1015.66,-276.46 1026.25,-276.59 1024.02,-269.96"/>
</g>
<!-- Node13 -->
<g id="node11" class="node">
<title>Node13</title>
<g id="a_node11"><a xlink:href="FriendEvents_8hpp.html" target="_top" xlink:title=" ">
<polygon fill="none" stroke="black" points="550.5,-207.5 550.5,-239.5 689.5,-239.5 689.5,-207.5 550.5,-207.5"/>
<text text-anchor="start" x="558.5" y="-226.7" font-family="-apple-system, BlinkMacSystemFont, 'Segoe UI', Roboto, Oxygen, Ubuntu, Cantarell, 'Fira Sans', 'Droid Sans', 'Helvetica Neue', sans-serif" font-size="11.00">libmirai/models/libmirai</text>
<text text-anchor="middle" x="620" y="-214.7" font-family="-apple-system, BlinkMacSystemFont, 'Segoe UI', Roboto, Oxygen, Ubuntu, Cantarell, 'Fira Sans', 'Droid Sans', 'Helvetica Neue', sans-serif" font-size="11.00">/Events/FriendEvents.hpp</text>
</a>
</g>
</g>
<!-- Node10&#45;&gt;Node13 -->
<g id="edge16" class="edge">
<title>Node10&#45;&gt;Node13</title>
<path fill="none" stroke="midnightblue" d="M880.89,-274.59C827.91,-264.61 759.63,-251.69 699,-240 695.98,-239.42 692.9,-238.82 689.78,-238.22"/>
<polygon fill="midnightblue" stroke="midnightblue" points="880.46,-278.07 890.93,-276.48 881.75,-271.19 880.46,-278.07"/>
</g>
<!-- Node14 -->
<g id="node12" class="node">
<title>Node14</title>
<g id="a_node12"><a xlink:href="GroupEvents_8hpp.html" target="_top" xlink:title=" ">
<polygon fill="none" stroke="black" points="214,-207.5 214,-239.5 352,-239.5 352,-207.5 214,-207.5"/>
<text text-anchor="start" x="222" y="-226.7" font-family="-apple-system, BlinkMacSystemFont, 'Segoe UI', Roboto, Oxygen, Ubuntu, Cantarell, 'Fira Sans', 'Droid Sans', 'Helvetica Neue', sans-serif" font-size="11.00">libmirai/models/libmirai</text>
<text text-anchor="middle" x="283" y="-214.7" font-family="-apple-system, BlinkMacSystemFont, 'Segoe UI', Roboto, Oxygen, Ubuntu, Cantarell, 'Fira Sans', 'Droid Sans', 'Helvetica Neue', sans-serif" font-size="11.00">/Events/GroupEvents.hpp</text>
</a>
</g>
</g>
<!-- Node10&#45;&gt;Node14 -->
<g id="edge18" class="edge">
<title>Node10&#45;&gt;Node14</title>
<path fill="none" stroke="midnightblue" d="M878.55,-286.92C758.73,-280.25 543.53,-265.76 361,-240 358.13,-239.59 355.2,-239.15 352.25,-238.68"/>
<polygon fill="midnightblue" stroke="midnightblue" points="878.6,-290.43 888.78,-287.49 878.99,-283.44 878.6,-290.43"/>
</g>
<!-- Node15 -->
<g id="node13" class="node">
<title>Node15</title>
<g id="a_node13"><a xlink:href="OtherClientEvents_8hpp.html" target="_top" xlink:title=" ">
<polygon fill="none" stroke="black" points="370,-207.5 370,-239.5 532,-239.5 532,-207.5 370,-207.5"/>
<text text-anchor="start" x="378" y="-226.7" font-family="-apple-system, BlinkMacSystemFont, 'Segoe UI', Roboto, Oxygen, Ubuntu, Cantarell, 'Fira Sans', 'Droid Sans', 'Helvetica Neue', sans-serif" font-size="11.00">libmirai/models/libmirai</text>
<text text-anchor="middle" x="451" y="-214.7" font-family="-apple-system, BlinkMacSystemFont, 'Segoe UI', Roboto, Oxygen, Ubuntu, Cantarell, 'Fira Sans', 'Droid Sans', 'Helvetica Neue', sans-serif" font-size="11.00">/Events/OtherClientEvents.hpp</text>
</a>
</g>
</g>
<!-- Node10&#45;&gt;Node15 -->
<g id="edge20" class="edge">
<title>Node10&#45;&gt;Node15</title>
<path fill="none" stroke="midnightblue" d="M878.89,-281.77C791.9,-272.27 657.86,-256.81 542,-240 538.83,-239.54 535.6,-239.06 532.33,-238.56"/>
<polygon fill="midnightblue" stroke="midnightblue" points="878.68,-285.27 889,-282.87 879.44,-278.31 878.68,-285.27"/>
</g>
<!-- Node16 -->
<g id="node14" class="node">
<title>Node16</title>
<g id="a_node14"><a xlink:href="StrangerMessageEvents_8hpp.html" target="_top" xlink:title=" ">
<polygon fill="none" stroke="black" points="1287,-207.5 1287,-239.5 1481,-239.5 1481,-207.5 1287,-207.5"/>
<text text-anchor="start" x="1295" y="-226.7" font-family="-apple-system, BlinkMacSystemFont, 'Segoe UI', Roboto, Oxygen, Ubuntu, Cantarell, 'Fira Sans', 'Droid Sans', 'Helvetica Neue', sans-serif" font-size="11.00">libmirai/models/libmirai</text>
<text text-anchor="middle" x="1384" y="-214.7" font-family="-apple-system, BlinkMacSystemFont, 'Segoe UI', Roboto, Oxygen, Ubuntu, Cantarell, 'Fira Sans', 'Droid Sans', 'Helvetica Neue', sans-serif" font-size="11.00">/Events/StrangerMessageEvents.hpp</text>
</a>
</g>
</g>
<!-- Node10&#45;&gt;Node16 -->
<g id="edge22" class="edge">
<title>Node10&#45;&gt;Node16</title>
<path fill="none" stroke="midnightblue" d="M1063.35,-276.52C1131.28,-265.5 1223.24,-250.58 1291.26,-239.54"/>
<polygon fill="midnightblue" stroke="midnightblue" points="1062.4,-273.13 1053.09,-278.18 1063.52,-280.04 1062.4,-273.13"/>
</g>
<!-- Node17 -->
<g id="node15" class="node">
<title>Node17</title>
<g id="a_node15"><a xlink:href="TempMessageEvents_8hpp.html" target="_top" xlink:title=" ">
<polygon fill="none" stroke="black" points="1499.5,-207.5 1499.5,-239.5 1678.5,-239.5 1678.5,-207.5 1499.5,-207.5"/>
<text text-anchor="start" x="1507.5" y="-226.7" font-family="-apple-system, BlinkMacSystemFont, 'Segoe UI', Roboto, Oxygen, Ubuntu, Cantarell, 'Fira Sans', 'Droid Sans', 'Helvetica Neue', sans-serif" font-size="11.00">libmirai/models/libmirai</text>
<text text-anchor="middle" x="1589" y="-214.7" font-family="-apple-system, BlinkMacSystemFont, 'Segoe UI', Roboto, Oxygen, Ubuntu, Cantarell, 'Fira Sans', 'Droid Sans', 'Helvetica Neue', sans-serif" font-size="11.00">/Events/TempMessageEvents.hpp</text>
</a>
</g>
</g>
<!-- Node10&#45;&gt;Node17 -->
<g id="edge24" class="edge">
<title>Node10&#45;&gt;Node17</title>
<path fill="none" stroke="midnightblue" d="M1063.56,-283.9C1167.51,-275 1341.15,-259.02 1490,-240 1493.11,-239.6 1496.26,-239.19 1499.45,-238.75"/>
<polygon fill="midnightblue" stroke="midnightblue" points="1063.08,-280.43 1053.41,-284.77 1063.67,-287.4 1063.08,-280.43"/>
</g>
<!-- Node18 -->
<g id="node16" class="node">
<title>Node18</title>
<g id="a_node16"><a xlink:href="ForwardMessageNode_8hpp.html" target="_top" xlink:title=" ">
<polygon fill="none" stroke="red" points="1735.5,-207.5 1735.5,-239.5 1938.5,-239.5 1938.5,-207.5 1735.5,-207.5"/>
<text text-anchor="start" x="1743.5" y="-226.7" font-family="-apple-system, BlinkMacSystemFont, 'Segoe UI', Roboto, Oxygen, Ubuntu, Cantarell, 'Fira Sans', 'Droid Sans', 'Helvetica Neue', sans-serif" font-size="11.00">libmirai/models/libmirai</text>
<text text-anchor="middle" x="1837" y="-214.7" font-family="-apple-system, BlinkMacSystemFont, 'Segoe UI', Roboto, Oxygen, Ubuntu, Cantarell, 'Fira Sans', 'Droid Sans', 'Helvetica Neue', sans-serif" font-size="11.00">/Messages/ForwardMessageNode.hpp</text>
</a>
</g>
</g>
<!-- Node10&#45;&gt;Node18 -->
<g id="edge26" class="edge">
<title>Node10&#45;&gt;Node18</title>
<path fill="none" stroke="midnightblue" d="M1063.66,-287.06C1205.46,-279.83 1484.74,-263.87 1721,-240 1725.65,-239.53 1730.4,-239.02 1735.2,-238.48"/>
<polygon fill="midnightblue" stroke="midnightblue" points="1063.08,-283.58 1053.27,-287.58 1063.44,-290.57 1063.08,-283.58"/>
</g>
<!-- Node20 -->
<g id="node17" class="node">
<title>Node20</title>
<g id="a_node17"><a xlink:href="MessageChain_8cpp.html" target="_top" xlink:title=" ">
<polygon fill="none" stroke="black" points="707.5,-207.5 707.5,-239.5 870.5,-239.5 870.5,-207.5 707.5,-207.5"/>
<text text-anchor="start" x="715.5" y="-226.7" font-family="-apple-system, BlinkMacSystemFont, 'Segoe UI', Roboto, Oxygen, Ubuntu, Cantarell, 'Fira Sans', 'Droid Sans', 'Helvetica Neue', sans-serif" font-size="11.00">libmirai/models/libmirai</text>
<text text-anchor="middle" x="789" y="-214.7" font-family="-apple-system, BlinkMacSystemFont, 'Segoe UI', Roboto, Oxygen, Ubuntu, Cantarell, 'Fira Sans', 'Droid Sans', 'Helvetica Neue', sans-serif" font-size="11.00">/Messages/MessageChain.cpp</text>
</a>
</g>
</g>
<!-- Node10&#45;&gt;Node20 -->
<g id="edge28" class="edge">
<title>Node10&#45;&gt;Node20</title>
<path fill="none" stroke="midnightblue" d="M920.75,-273C892.2,-262.49 856.9,-249.49 830.02,-239.6"/>
<polygon fill="midnightblue" stroke="midnightblue" points="919.56,-276.29 930.16,-276.46 921.98,-269.72 919.56,-276.29"/>
</g>
<!-- Node21 -->
<g id="node18" class="node">
<title>Node21</title>
<g id="a_node18"><a xlink:href="QuoteMessage_8cpp.html" target="_top" xlink:title=" ">
<polygon fill="none" stroke="black" points="889,-207.5 889,-239.5 1053,-239.5 1053,-207.5 889,-207.5"/>
<text text-anchor="start" x="897" y="-226.7" font-family="-apple-system, BlinkMacSystemFont, 'Segoe UI', Roboto, Oxygen, Ubuntu, Cantarell, 'Fira Sans', 'Droid Sans', 'Helvetica Neue', sans-serif" font-size="11.00">libmirai/models/libmirai</text>
<text text-anchor="middle" x="971" y="-214.7" font-family="-apple-system, BlinkMacSystemFont, 'Segoe UI', Roboto, Oxygen, Ubuntu, Cantarell, 'Fira Sans', 'Droid Sans', 'Helvetica Neue', sans-serif" font-size="11.00">/Messages/QuoteMessage.cpp</text>
</a>
</g>
</g>
<!-- Node10&#45;&gt;Node21 -->
<g id="edge29" class="edge">
<title>Node10&#45;&gt;Node21</title>
<path fill="none" stroke="midnightblue" d="M971,-266.02C971,-257.13 971,-247.43 971,-239.64"/>
<polygon fill="midnightblue" stroke="midnightblue" points="967.5,-266.3 971,-276.3 974.5,-266.3 967.5,-266.3"/>
</g>
<!-- Node11&#45;&gt;Node2 -->
<g id="edge12" class="edge">
<title>Node11&#45;&gt;Node2</title>
<path fill="none" stroke="midnightblue" d="M1607.66,-146.72C1403.52,-132.77 942.57,-101.29 782.23,-90.34"/>
<polygon fill="midnightblue" stroke="midnightblue" points="1607.56,-150.22 1617.78,-147.41 1608.04,-143.23 1607.56,-150.22"/>
</g>
<!-- Node12&#45;&gt;Node5 -->
<g id="edge15" class="edge">
<title>Node12&#45;&gt;Node5</title>
<path fill="none" stroke="midnightblue" d="M1061.2,-206.92C924.78,-189.29 778.34,-172.78 692.81,-163.38"/>
<polygon fill="midnightblue" stroke="midnightblue" points="1061.06,-210.43 1071.43,-208.24 1061.96,-203.49 1061.06,-210.43"/>
</g>
<!-- Node13&#45;&gt;Node5 -->
<g id="edge17" class="edge">
<title>Node13&#45;&gt;Node5</title>
<path fill="none" stroke="midnightblue" d="M620,-197.02C620,-188.13 620,-178.43 620,-170.64"/>
<polygon fill="midnightblue" stroke="midnightblue" points="616.5,-197.3 620,-207.3 623.5,-197.3 616.5,-197.3"/>
</g>
<!-- Node14&#45;&gt;Node5 -->
<g id="edge19" class="edge">
<title>Node14&#45;&gt;Node5</title>
<path fill="none" stroke="midnightblue" d="M361.9,-206.81C417.96,-195.67 492.68,-180.81 547.29,-169.95"/>
<polygon fill="midnightblue" stroke="midnightblue" points="361.14,-203.4 352.01,-208.78 362.5,-210.26 361.14,-203.4"/>
</g>
<!-- Node15&#45;&gt;Node5 -->
<g id="edge21" class="edge">
<title>Node15&#45;&gt;Node5</title>
<path fill="none" stroke="midnightblue" d="M498.35,-203.73C524.74,-193.26 557.17,-180.41 581.91,-170.6"/>
<polygon fill="midnightblue" stroke="midnightblue" points="496.93,-200.52 488.93,-207.46 499.51,-207.03 496.93,-200.52"/>
</g>
<!-- Node16&#45;&gt;Node5 -->
<g id="edge23" class="edge">
<title>Node16&#45;&gt;Node5</title>
<path fill="none" stroke="midnightblue" d="M1276.93,-206.93C1058.32,-182.73 812.3,-166.67 692.69,-159.59"/>
<polygon fill="midnightblue" stroke="midnightblue" points="1276.66,-210.42 1286.99,-208.05 1277.44,-203.46 1276.66,-210.42"/>
</g>
<!-- Node17&#45;&gt;Node5 -->
<g id="edge25" class="edge">
<title>Node17&#45;&gt;Node5</title>
<path fill="none" stroke="midnightblue" d="M1489.21,-206.99C1187.43,-174.99 840.58,-161.9 692.66,-157.44"/>
<polygon fill="midnightblue" stroke="midnightblue" points="1489.16,-210.5 1499.47,-208.09 1489.9,-203.54 1489.16,-210.5"/>
</g>
<!-- Node18&#45;&gt;Node11 -->
<g id="edge27" class="edge">
<title>Node18&#45;&gt;Node11</title>
<path fill="none" stroke="midnightblue" d="M1798.73,-202.77C1778.86,-192.53 1754.95,-180.21 1736.53,-170.72"/>
<polygon fill="midnightblue" stroke="midnightblue" points="1797.33,-205.99 1807.83,-207.46 1800.54,-199.77 1797.33,-205.99"/>
</g>
</g>
</svg>
