<?xml version="1.0" encoding="UTF-8" standalone="no"?>
<!DOCTYPE svg PUBLIC "-//W3C//DTD SVG 1.1//EN"
 "http://www.w3.org/Graphics/SVG/1.1/DTD/svg11.dtd">
<!-- Generated by graphviz version 3.0.0 (20220413.0242)
 -->
<!-- Title: libmirai/public/libmirai/Messages/FaceMessage.hpp Pages: 1 -->
<svg width="3050pt" height="317pt"
 viewBox="0.00 0.00 3049.50 317.00" xmlns="http://www.w3.org/2000/svg" xmlns:xlink="http://www.w3.org/1999/xlink">
<g id="graph0" class="graph" transform="scale(1 1) rotate(0) translate(4 313)">
<title>libmirai/public/libmirai/Messages/FaceMessage.hpp</title>
<!-- Node1 -->
<g id="node1" class="node">
<title>Node1</title>
<g id="a_node1"><a xlink:title=" ">
<polygon fill="#bfbfbf" stroke="black" points="255.5,-276.5 255.5,-308.5 415.5,-308.5 415.5,-276.5 255.5,-276.5"/>
<text text-anchor="start" x="263.5" y="-295.7" font-family="-apple-system, BlinkMacSystemFont, 'Segoe UI', Roboto, Oxygen, Ubuntu, Cantarell, 'Fira Sans', 'Droid Sans', 'Helvetica Neue', sans-serif" font-size="11.00">libmirai/public/libmirai</text>
<text text-anchor="middle" x="335.5" y="-283.7" font-family="-apple-system, BlinkMacSystemFont, 'Segoe UI', Roboto, Oxygen, Ubuntu, Cantarell, 'Fira Sans', 'Droid Sans', 'Helvetica Neue', sans-serif" font-size="11.00">/Messages/FaceMessage.hpp</text>
</a>
</g>
</g>
<!-- Node2 -->
<g id="node2" class="node">
<title>Node2</title>
<g id="a_node2"><a xlink:href="FaceMessage_8cpp.html" target="_top" xlink:title=" ">
<polygon fill="none" stroke="black" points="0,-207.5 0,-239.5 159,-239.5 159,-207.5 0,-207.5"/>
<text text-anchor="start" x="8" y="-226.7" font-family="-apple-system, BlinkMacSystemFont, 'Segoe UI', Roboto, Oxygen, Ubuntu, Cantarell, 'Fira Sans', 'Droid Sans', 'Helvetica Neue', sans-serif" font-size="11.00">libmirai/public/libmirai</text>
<text text-anchor="middle" x="79.5" y="-214.7" font-family="-apple-system, BlinkMacSystemFont, 'Segoe UI', Roboto, Oxygen, Ubuntu, Cantarell, 'Fira Sans', 'Droid Sans', 'Helvetica Neue', sans-serif" font-size="11.00">/Messages/FaceMessage.cpp</text>
</a>
</g>
</g>
<!-- Node1&#45;&gt;Node2 -->
<g id="edge1" class="edge">
<title>Node1&#45;&gt;Node2</title>
<path fill="none" stroke="midnightblue" d="M268.2,-273.89C227.47,-263.23 176.07,-249.77 137.2,-239.6"/>
<polygon fill="midnightblue" stroke="midnightblue" points="267.49,-277.32 278.05,-276.46 269.26,-270.55 267.49,-277.32"/>
</g>
<!-- Node3 -->
<g id="node3" class="node">
<title>Node3</title>
<g id="a_node3"><a xlink:href="MarketFaceMessage_8hpp.html" target="_top" xlink:title=" ">
<polygon fill="none" stroke="black" points="176.5,-207.5 176.5,-239.5 370.5,-239.5 370.5,-207.5 176.5,-207.5"/>
<text text-anchor="start" x="184.5" y="-226.7" font-family="-apple-system, BlinkMacSystemFont, 'Segoe UI', Roboto, Oxygen, Ubuntu, Cantarell, 'Fira Sans', 'Droid Sans', 'Helvetica Neue', sans-serif" font-size="11.00">libmirai/public/libmirai</text>
<text text-anchor="middle" x="273.5" y="-214.7" font-family="-apple-system, BlinkMacSystemFont, 'Segoe UI', Roboto, Oxygen, Ubuntu, Cantarell, 'Fira Sans', 'Droid Sans', 'Helvetica Neue', sans-serif" font-size="11.00">/Messages/MarketFaceMessage.hpp</text>
</a>
</g>
</g>
<!-- Node1&#45;&gt;Node3 -->
<g id="edge2" class="edge">
<title>Node1&#45;&gt;Node3</title>
<path fill="none" stroke="midnightblue" d="M314.61,-268.93C305.69,-259.28 295.51,-248.28 287.51,-239.64"/>
<polygon fill="midnightblue" stroke="midnightblue" points="312.07,-271.33 321.43,-276.3 317.21,-266.58 312.07,-271.33"/>
</g>
<!-- Node5 -->
<g id="node5" class="node">
<title>Node5</title>
<g id="a_node5"><a xlink:href="Messages_8hpp.html" target="_top" xlink:title=" ">
<polygon fill="none" stroke="red" points="422,-69.5 422,-101.5 563,-101.5 563,-69.5 422,-69.5"/>
<text text-anchor="start" x="430" y="-88.7" font-family="-apple-system, BlinkMacSystemFont, 'Segoe UI', Roboto, Oxygen, Ubuntu, Cantarell, 'Fira Sans', 'Droid Sans', 'Helvetica Neue', sans-serif" font-size="11.00">libmirai/public/libmirai</text>
<text text-anchor="middle" x="492.5" y="-76.7" font-family="-apple-system, BlinkMacSystemFont, 'Segoe UI', Roboto, Oxygen, Ubuntu, Cantarell, 'Fira Sans', 'Droid Sans', 'Helvetica Neue', sans-serif" font-size="11.00">/Messages/Messages.hpp</text>
</a>
</g>
</g>
<!-- Node1&#45;&gt;Node5 -->
<g id="edge35" class="edge">
<title>Node1&#45;&gt;Node5</title>
<path fill="none" stroke="midnightblue" d="M356.23,-268.63C363.83,-259.89 372.32,-249.7 379.5,-240 411.48,-196.79 411.59,-180.51 444.5,-138 454.53,-125.05 467.21,-111.55 477.02,-101.62"/>
<polygon fill="midnightblue" stroke="midnightblue" points="353.56,-266.37 349.57,-276.19 358.81,-271 353.56,-266.37"/>
</g>
<!-- Node9 -->
<g id="node7" class="node">
<title>Node9</title>
<g id="a_node7"><a xlink:href="MessageChain_8hpp.html" target="_top" xlink:title=" ">
<polygon fill="none" stroke="black" points="1156.5,-207.5 1156.5,-239.5 1320.5,-239.5 1320.5,-207.5 1156.5,-207.5"/>
<text text-anchor="start" x="1164.5" y="-226.7" font-family="-apple-system, BlinkMacSystemFont, 'Segoe UI', Roboto, Oxygen, Ubuntu, Cantarell, 'Fira Sans', 'Droid Sans', 'Helvetica Neue', sans-serif" font-size="11.00">libmirai/public/libmirai</text>
<text text-anchor="middle" x="1238.5" y="-214.7" font-family="-apple-system, BlinkMacSystemFont, 'Segoe UI', Roboto, Oxygen, Ubuntu, Cantarell, 'Fira Sans', 'Droid Sans', 'Helvetica Neue', sans-serif" font-size="11.00">/Messages/MessageChain.hpp</text>
</a>
</g>
</g>
<!-- Node1&#45;&gt;Node9 -->
<g id="edge6" class="edge">
<title>Node1&#45;&gt;Node9</title>
<path fill="none" stroke="midnightblue" d="M425.63,-284.81C601.3,-271.78 987.1,-243.15 1156.27,-230.6"/>
<polygon fill="midnightblue" stroke="midnightblue" points="425.35,-281.32 415.64,-285.55 425.87,-288.3 425.35,-281.32"/>
</g>
<!-- Node4 -->
<g id="node4" class="node">
<title>Node4</title>
<g id="a_node4"><a xlink:href="MarketFaceMessage_8cpp.html" target="_top" xlink:title=" ">
<polygon fill="none" stroke="black" points="139,-138.5 139,-170.5 332,-170.5 332,-138.5 139,-138.5"/>
<text text-anchor="start" x="147" y="-157.7" font-family="-apple-system, BlinkMacSystemFont, 'Segoe UI', Roboto, Oxygen, Ubuntu, Cantarell, 'Fira Sans', 'Droid Sans', 'Helvetica Neue', sans-serif" font-size="11.00">libmirai/public/libmirai</text>
<text text-anchor="middle" x="235.5" y="-145.7" font-family="-apple-system, BlinkMacSystemFont, 'Segoe UI', Roboto, Oxygen, Ubuntu, Cantarell, 'Fira Sans', 'Droid Sans', 'Helvetica Neue', sans-serif" font-size="11.00">/Messages/MarketFaceMessage.cpp</text>
</a>
</g>
</g>
<!-- Node3&#45;&gt;Node4 -->
<g id="edge3" class="edge">
<title>Node3&#45;&gt;Node4</title>
<path fill="none" stroke="midnightblue" d="M259.88,-198.48C254.61,-189.2 248.75,-178.86 244.09,-170.64"/>
<polygon fill="midnightblue" stroke="midnightblue" points="256.9,-200.32 264.88,-207.3 262.99,-196.87 256.9,-200.32"/>
</g>
<!-- Node3&#45;&gt;Node5 -->
<g id="edge4" class="edge">
<title>Node3&#45;&gt;Node5</title>
<path fill="none" stroke="midnightblue" d="M301.27,-201.13C332.7,-176.99 380.11,-140.68 384.5,-138 407.38,-124.04 434.62,-111.08 456.02,-101.64"/>
<polygon fill="midnightblue" stroke="midnightblue" points="299.07,-198.41 293.27,-207.28 303.34,-203.96 299.07,-198.41"/>
</g>
<!-- Node6 -->
<g id="node6" class="node">
<title>Node6</title>
<g id="a_node6"><a xlink:href="MessageChain_8cpp.html" target="_top" xlink:title=" ">
<polygon fill="none" stroke="black" points="655,-0.5 655,-32.5 818,-32.5 818,-0.5 655,-0.5"/>
<text text-anchor="start" x="663" y="-19.7" font-family="-apple-system, BlinkMacSystemFont, 'Segoe UI', Roboto, Oxygen, Ubuntu, Cantarell, 'Fira Sans', 'Droid Sans', 'Helvetica Neue', sans-serif" font-size="11.00">libmirai/public/libmirai</text>
<text text-anchor="middle" x="736.5" y="-7.7" font-family="-apple-system, BlinkMacSystemFont, 'Segoe UI', Roboto, Oxygen, Ubuntu, Cantarell, 'Fira Sans', 'Droid Sans', 'Helvetica Neue', sans-serif" font-size="11.00">/Messages/MessageChain.cpp</text>
</a>
</g>
</g>
<!-- Node5&#45;&gt;Node6 -->
<g id="edge5" class="edge">
<title>Node5&#45;&gt;Node6</title>
<path fill="none" stroke="midnightblue" d="M557.38,-66.68C596.08,-56.06 644.69,-42.71 681.5,-32.6"/>
<polygon fill="midnightblue" stroke="midnightblue" points="555.97,-63.44 547.26,-69.46 557.83,-70.19 555.97,-63.44"/>
</g>
<!-- Node9&#45;&gt;Node5 -->
<g id="edge32" class="edge">
<title>Node9&#45;&gt;Node5</title>
<path fill="none" stroke="midnightblue" d="M1146.46,-223.33C949.81,-224.12 502.77,-220.42 456.5,-171 437.86,-151.1 460.19,-120.08 477.07,-101.68"/>
<polygon fill="midnightblue" stroke="midnightblue" points="1146.5,-226.83 1156.48,-223.28 1146.47,-219.83 1146.5,-226.83"/>
</g>
<!-- Node9&#45;&gt;Node6 -->
<g id="edge31" class="edge">
<title>Node9&#45;&gt;Node6</title>
<path fill="none" stroke="midnightblue" d="M1146.27,-215.48C1058.39,-207.62 933.21,-193.03 889.5,-171 823.31,-137.64 768.39,-64.73 746.59,-32.89"/>
<polygon fill="midnightblue" stroke="midnightblue" points="1145.99,-218.97 1156.26,-216.36 1146.6,-212 1145.99,-218.97"/>
</g>
<!-- Node10 -->
<g id="node8" class="node">
<title>Node10</title>
<g id="a_node8"><a xlink:href="Client_8cpp.html" target="_top" xlink:title=" ">
<polygon fill="none" stroke="black" points="1175.5,-0.5 1175.5,-32.5 1293.5,-32.5 1293.5,-0.5 1175.5,-0.5"/>
<text text-anchor="start" x="1183.5" y="-19.7" font-family="-apple-system, BlinkMacSystemFont, 'Segoe UI', Roboto, Oxygen, Ubuntu, Cantarell, 'Fira Sans', 'Droid Sans', 'Helvetica Neue', sans-serif" font-size="11.00">libmirai/public/libmirai</text>
<text text-anchor="middle" x="1234.5" y="-7.7" font-family="-apple-system, BlinkMacSystemFont, 'Segoe UI', Roboto, Oxygen, Ubuntu, Cantarell, 'Fira Sans', 'Droid Sans', 'Helvetica Neue', sans-serif" font-size="11.00">/Api/Client.cpp</text>
</a>
</g>
</g>
<!-- Node9&#45;&gt;Node10 -->
<g id="edge7" class="edge">
<title>Node9&#45;&gt;Node10</title>
<path fill="none" stroke="midnightblue" d="M1146.17,-220.99C1059.72,-217.39 939.46,-206.02 909.5,-171 830.19,-78.31 1061.55,-37.67 1175.34,-23.64"/>
<polygon fill="midnightblue" stroke="midnightblue" points="1146.15,-224.49 1156.28,-221.38 1146.42,-217.5 1146.15,-224.49"/>
</g>
<!-- Node11 -->
<g id="node9" class="node">
<title>Node11</title>
<g id="a_node9"><a xlink:href="Client_8hpp.html" target="_top" xlink:title=" ">
<polygon fill="none" stroke="red" points="1132.5,-69.5 1132.5,-101.5 1250.5,-101.5 1250.5,-69.5 1132.5,-69.5"/>
<text text-anchor="start" x="1140.5" y="-88.7" font-family="-apple-system, BlinkMacSystemFont, 'Segoe UI', Roboto, Oxygen, Ubuntu, Cantarell, 'Fira Sans', 'Droid Sans', 'Helvetica Neue', sans-serif" font-size="11.00">libmirai/public/libmirai</text>
<text text-anchor="middle" x="1191.5" y="-76.7" font-family="-apple-system, BlinkMacSystemFont, 'Segoe UI', Roboto, Oxygen, Ubuntu, Cantarell, 'Fira Sans', 'Droid Sans', 'Helvetica Neue', sans-serif" font-size="11.00">/Api/Client.hpp</text>
</a>
</g>
</g>
<!-- Node9&#45;&gt;Node11 -->
<g id="edge8" class="edge">
<title>Node9&#45;&gt;Node11</title>
<path fill="none" stroke="midnightblue" d="M1178.02,-203.04C1163.58,-195.41 1149.92,-185.01 1141.5,-171 1133.94,-158.43 1135.99,-151.59 1141.5,-138 1147.4,-123.45 1159.61,-110.75 1170.48,-101.6"/>
<polygon fill="midnightblue" stroke="midnightblue" points="1176.55,-206.22 1187.07,-207.45 1179.61,-199.93 1176.55,-206.22"/>
</g>
<!-- Node12 -->
<g id="node10" class="node">
<title>Node12</title>
<g id="a_node10"><a xlink:href="CommandExecutedEvent_8hpp.html" target="_top" xlink:title=" ">
<polygon fill="none" stroke="red" points="1743,-138.5 1743,-170.5 1940,-170.5 1940,-138.5 1743,-138.5"/>
<text text-anchor="start" x="1751" y="-157.7" font-family="-apple-system, BlinkMacSystemFont, 'Segoe UI', Roboto, Oxygen, Ubuntu, Cantarell, 'Fira Sans', 'Droid Sans', 'Helvetica Neue', sans-serif" font-size="11.00">libmirai/public/libmirai</text>
<text text-anchor="middle" x="1841.5" y="-145.7" font-family="-apple-system, BlinkMacSystemFont, 'Segoe UI', Roboto, Oxygen, Ubuntu, Cantarell, 'Fira Sans', 'Droid Sans', 'Helvetica Neue', sans-serif" font-size="11.00">/Events/CommandExecutedEvent.hpp</text>
</a>
</g>
</g>
<!-- Node9&#45;&gt;Node12 -->
<g id="edge10" class="edge">
<title>Node9&#45;&gt;Node12</title>
<path fill="none" stroke="midnightblue" d="M1330.53,-214C1430.01,-204.57 1593.19,-188.36 1733.5,-171 1736.6,-170.62 1739.75,-170.22 1742.93,-169.81"/>
<polygon fill="midnightblue" stroke="midnightblue" points="1330.13,-210.53 1320.51,-214.95 1330.79,-217.5 1330.13,-210.53"/>
</g>
<!-- Node15 -->
<g id="node11" class="node">
<title>Node15</title>
<g id="a_node11"><a xlink:href="FriendMessageEvent_8hpp.html" target="_top" xlink:title=" ">
<polygon fill="none" stroke="red" points="918,-138.5 918,-170.5 1095,-170.5 1095,-138.5 918,-138.5"/>
<text text-anchor="start" x="926" y="-157.7" font-family="-apple-system, BlinkMacSystemFont, 'Segoe UI', Roboto, Oxygen, Ubuntu, Cantarell, 'Fira Sans', 'Droid Sans', 'Helvetica Neue', sans-serif" font-size="11.00">libmirai/public/libmirai</text>
<text text-anchor="middle" x="1006.5" y="-145.7" font-family="-apple-system, BlinkMacSystemFont, 'Segoe UI', Roboto, Oxygen, Ubuntu, Cantarell, 'Fira Sans', 'Droid Sans', 'Helvetica Neue', sans-serif" font-size="11.00">/Events/FriendMessageEvent.hpp</text>
</a>
</g>
</g>
<!-- Node9&#45;&gt;Node15 -->
<g id="edge11" class="edge">
<title>Node9&#45;&gt;Node15</title>
<path fill="none" stroke="midnightblue" d="M1176.81,-204.68C1140.01,-194.06 1093.79,-180.71 1058.79,-170.6"/>
<polygon fill="midnightblue" stroke="midnightblue" points="1175.86,-208.05 1186.43,-207.46 1177.8,-201.33 1175.86,-208.05"/>
</g>
<!-- Node17 -->
<g id="node12" class="node">
<title>Node17</title>
<g id="a_node12"><a xlink:href="FriendSyncMessageEvent_8hpp.html" target="_top" xlink:title=" ">
<polygon fill="none" stroke="red" points="1958,-138.5 1958,-170.5 2159,-170.5 2159,-138.5 1958,-138.5"/>
<text text-anchor="start" x="1966" y="-157.7" font-family="-apple-system, BlinkMacSystemFont, 'Segoe UI', Roboto, Oxygen, Ubuntu, Cantarell, 'Fira Sans', 'Droid Sans', 'Helvetica Neue', sans-serif" font-size="11.00">libmirai/public/libmirai</text>
<text text-anchor="middle" x="2058.5" y="-145.7" font-family="-apple-system, BlinkMacSystemFont, 'Segoe UI', Roboto, Oxygen, Ubuntu, Cantarell, 'Fira Sans', 'Droid Sans', 'Helvetica Neue', sans-serif" font-size="11.00">/Events/FriendSyncMessageEvent.hpp</text>
</a>
</g>
</g>
<!-- Node9&#45;&gt;Node17 -->
<g id="edge14" class="edge">
<title>Node9&#45;&gt;Node17</title>
<path fill="none" stroke="midnightblue" d="M1330.86,-217.85C1466.66,-210.55 1728.08,-194.73 1949.5,-171 1952.26,-170.7 1955.05,-170.39 1957.87,-170.07"/>
<polygon fill="midnightblue" stroke="midnightblue" points="1330.31,-214.37 1320.51,-218.4 1330.68,-221.36 1330.31,-214.37"/>
</g>
<!-- Node19 -->
<g id="node13" class="node">
<title>Node19</title>
<g id="a_node13"><a xlink:href="GroupMessageEvent_8hpp.html" target="_top" xlink:title=" ">
<polygon fill="none" stroke="red" points="1150.5,-138.5 1150.5,-170.5 1326.5,-170.5 1326.5,-138.5 1150.5,-138.5"/>
<text text-anchor="start" x="1158.5" y="-157.7" font-family="-apple-system, BlinkMacSystemFont, 'Segoe UI', Roboto, Oxygen, Ubuntu, Cantarell, 'Fira Sans', 'Droid Sans', 'Helvetica Neue', sans-serif" font-size="11.00">libmirai/public/libmirai</text>
<text text-anchor="middle" x="1238.5" y="-145.7" font-family="-apple-system, BlinkMacSystemFont, 'Segoe UI', Roboto, Oxygen, Ubuntu, Cantarell, 'Fira Sans', 'Droid Sans', 'Helvetica Neue', sans-serif" font-size="11.00">/Events/GroupMessageEvent.hpp</text>
</a>
</g>
</g>
<!-- Node9&#45;&gt;Node19 -->
<g id="edge15" class="edge">
<title>Node9&#45;&gt;Node19</title>
<path fill="none" stroke="midnightblue" d="M1238.5,-197.02C1238.5,-188.13 1238.5,-178.43 1238.5,-170.64"/>
<polygon fill="midnightblue" stroke="midnightblue" points="1235,-197.3 1238.5,-207.3 1242,-197.3 1235,-197.3"/>
</g>
<!-- Node21 -->
<g id="node14" class="node">
<title>Node21</title>
<g id="a_node14"><a xlink:href="GroupSyncMessageEvent_8hpp.html" target="_top" xlink:title=" ">
<polygon fill="none" stroke="red" points="2177.5,-138.5 2177.5,-170.5 2377.5,-170.5 2377.5,-138.5 2177.5,-138.5"/>
<text text-anchor="start" x="2185.5" y="-157.7" font-family="-apple-system, BlinkMacSystemFont, 'Segoe UI', Roboto, Oxygen, Ubuntu, Cantarell, 'Fira Sans', 'Droid Sans', 'Helvetica Neue', sans-serif" font-size="11.00">libmirai/public/libmirai</text>
<text text-anchor="middle" x="2277.5" y="-145.7" font-family="-apple-system, BlinkMacSystemFont, 'Segoe UI', Roboto, Oxygen, Ubuntu, Cantarell, 'Fira Sans', 'Droid Sans', 'Helvetica Neue', sans-serif" font-size="11.00">/Events/GroupSyncMessageEvent.hpp</text>
</a>
</g>
</g>
<!-- Node9&#45;&gt;Node21 -->
<g id="edge18" class="edge">
<title>Node9&#45;&gt;Node21</title>
<path fill="none" stroke="midnightblue" d="M1330.79,-220.02C1498.11,-214.93 1862.55,-201.17 2168.5,-171 2171.45,-170.71 2174.44,-170.4 2177.46,-170.07"/>
<polygon fill="midnightblue" stroke="midnightblue" points="1330.68,-216.52 1320.79,-220.32 1330.89,-223.52 1330.68,-216.52"/>
</g>
<!-- Node23 -->
<g id="node15" class="node">
<title>Node23</title>
<g id="a_node15"><a xlink:href="OtherClientMessageEvent_8hpp.html" target="_top" xlink:title=" ">
<polygon fill="none" stroke="red" points="2395.5,-138.5 2395.5,-170.5 2595.5,-170.5 2595.5,-138.5 2395.5,-138.5"/>
<text text-anchor="start" x="2403.5" y="-157.7" font-family="-apple-system, BlinkMacSystemFont, 'Segoe UI', Roboto, Oxygen, Ubuntu, Cantarell, 'Fira Sans', 'Droid Sans', 'Helvetica Neue', sans-serif" font-size="11.00">libmirai/public/libmirai</text>
<text text-anchor="middle" x="2495.5" y="-145.7" font-family="-apple-system, BlinkMacSystemFont, 'Segoe UI', Roboto, Oxygen, Ubuntu, Cantarell, 'Fira Sans', 'Droid Sans', 'Helvetica Neue', sans-serif" font-size="11.00">/Events/OtherClientMessageEvent.hpp</text>
</a>
</g>
</g>
<!-- Node9&#45;&gt;Node23 -->
<g id="edge19" class="edge">
<title>Node9&#45;&gt;Node23</title>
<path fill="none" stroke="midnightblue" d="M1331.04,-221.37C1526.42,-218.33 1995.22,-207.51 2386.5,-171 2389.45,-170.72 2392.44,-170.43 2395.46,-170.11"/>
<polygon fill="midnightblue" stroke="midnightblue" points="1330.76,-217.88 1320.82,-221.53 1330.87,-224.87 1330.76,-217.88"/>
</g>
<!-- Node25 -->
<g id="node16" class="node">
<title>Node25</title>
<g id="a_node16"><a xlink:href="StrangerMessageEvent_8hpp.html" target="_top" xlink:title=" ">
<polygon fill="none" stroke="red" points="1344.5,-138.5 1344.5,-170.5 1532.5,-170.5 1532.5,-138.5 1344.5,-138.5"/>
<text text-anchor="start" x="1352.5" y="-157.7" font-family="-apple-system, BlinkMacSystemFont, 'Segoe UI', Roboto, Oxygen, Ubuntu, Cantarell, 'Fira Sans', 'Droid Sans', 'Helvetica Neue', sans-serif" font-size="11.00">libmirai/public/libmirai</text>
<text text-anchor="middle" x="1438.5" y="-145.7" font-family="-apple-system, BlinkMacSystemFont, 'Segoe UI', Roboto, Oxygen, Ubuntu, Cantarell, 'Fira Sans', 'Droid Sans', 'Helvetica Neue', sans-serif" font-size="11.00">/Events/StrangerMessageEvent.hpp</text>
</a>
</g>
</g>
<!-- Node9&#45;&gt;Node25 -->
<g id="edge20" class="edge">
<title>Node9&#45;&gt;Node25</title>
<path fill="none" stroke="midnightblue" d="M1292.9,-204.28C1324.42,-193.72 1363.63,-180.58 1393.42,-170.6"/>
<polygon fill="midnightblue" stroke="midnightblue" points="1291.75,-200.97 1283.38,-207.46 1293.98,-207.61 1291.75,-200.97"/>
</g>
<!-- Node27 -->
<g id="node17" class="node">
<title>Node27</title>
<g id="a_node17"><a xlink:href="StrangerSyncMessageEvent_8hpp.html" target="_top" xlink:title=" ">
<polygon fill="none" stroke="red" points="2613.5,-138.5 2613.5,-170.5 2825.5,-170.5 2825.5,-138.5 2613.5,-138.5"/>
<text text-anchor="start" x="2621.5" y="-157.7" font-family="-apple-system, BlinkMacSystemFont, 'Segoe UI', Roboto, Oxygen, Ubuntu, Cantarell, 'Fira Sans', 'Droid Sans', 'Helvetica Neue', sans-serif" font-size="11.00">libmirai/public/libmirai</text>
<text text-anchor="middle" x="2719.5" y="-145.7" font-family="-apple-system, BlinkMacSystemFont, 'Segoe UI', Roboto, Oxygen, Ubuntu, Cantarell, 'Fira Sans', 'Droid Sans', 'Helvetica Neue', sans-serif" font-size="11.00">/Events/StrangerSyncMessageEvent.hpp</text>
</a>
</g>
</g>
<!-- Node9&#45;&gt;Node27 -->
<g id="edge23" class="edge">
<title>Node9&#45;&gt;Node27</title>
<path fill="none" stroke="midnightblue" d="M1330.9,-222.08C1551.56,-220.42 2126.48,-212.13 2604.5,-171 2607.41,-170.75 2610.36,-170.48 2613.34,-170.19"/>
<polygon fill="midnightblue" stroke="midnightblue" points="1330.63,-218.58 1320.66,-222.16 1330.69,-225.58 1330.63,-218.58"/>
</g>
<!-- Node29 -->
<g id="node18" class="node">
<title>Node29</title>
<g id="a_node18"><a xlink:href="TempMessageEvent_8hpp.html" target="_top" xlink:title=" ">
<polygon fill="none" stroke="red" points="1550.5,-138.5 1550.5,-170.5 1724.5,-170.5 1724.5,-138.5 1550.5,-138.5"/>
<text text-anchor="start" x="1558.5" y="-157.7" font-family="-apple-system, BlinkMacSystemFont, 'Segoe UI', Roboto, Oxygen, Ubuntu, Cantarell, 'Fira Sans', 'Droid Sans', 'Helvetica Neue', sans-serif" font-size="11.00">libmirai/public/libmirai</text>
<text text-anchor="middle" x="1637.5" y="-145.7" font-family="-apple-system, BlinkMacSystemFont, 'Segoe UI', Roboto, Oxygen, Ubuntu, Cantarell, 'Fira Sans', 'Droid Sans', 'Helvetica Neue', sans-serif" font-size="11.00">/Events/TempMessageEvent.hpp</text>
</a>
</g>
</g>
<!-- Node9&#45;&gt;Node29 -->
<g id="edge24" class="edge">
<title>Node9&#45;&gt;Node29</title>
<path fill="none" stroke="midnightblue" d="M1330.69,-207.02C1396.79,-195.92 1485.28,-181.06 1550.23,-170.15"/>
<polygon fill="midnightblue" stroke="midnightblue" points="1329.97,-203.59 1320.69,-208.7 1331.13,-210.49 1329.97,-203.59"/>
</g>
<!-- Node31 -->
<g id="node19" class="node">
<title>Node31</title>
<g id="a_node19"><a xlink:href="TempSyncMessageEvent_8hpp.html" target="_top" xlink:title=" ">
<polygon fill="none" stroke="red" points="2843.5,-138.5 2843.5,-170.5 3041.5,-170.5 3041.5,-138.5 2843.5,-138.5"/>
<text text-anchor="start" x="2851.5" y="-157.7" font-family="-apple-system, BlinkMacSystemFont, 'Segoe UI', Roboto, Oxygen, Ubuntu, Cantarell, 'Fira Sans', 'Droid Sans', 'Helvetica Neue', sans-serif" font-size="11.00">libmirai/public/libmirai</text>
<text text-anchor="middle" x="2942.5" y="-145.7" font-family="-apple-system, BlinkMacSystemFont, 'Segoe UI', Roboto, Oxygen, Ubuntu, Cantarell, 'Fira Sans', 'Droid Sans', 'Helvetica Neue', sans-serif" font-size="11.00">/Events/TempSyncMessageEvent.hpp</text>
</a>
</g>
</g>
<!-- Node9&#45;&gt;Node31 -->
<g id="edge27" class="edge">
<title>Node9&#45;&gt;Node31</title>
<path fill="none" stroke="midnightblue" d="M1331.23,-223.08C1576.91,-223.83 2264.8,-220.92 2834.5,-171 2837.42,-170.74 2840.39,-170.46 2843.38,-170.16"/>
<polygon fill="midnightblue" stroke="midnightblue" points="1330.93,-219.57 1320.92,-223.04 1330.91,-226.57 1330.93,-219.57"/>
</g>
<!-- Node33 -->
<g id="node20" class="node">
<title>Node33</title>
<g id="a_node20"><a xlink:href="ForwardMessage_8hpp.html" target="_top" xlink:title=" ">
<polygon fill="none" stroke="red" points="648.5,-138.5 648.5,-170.5 824.5,-170.5 824.5,-138.5 648.5,-138.5"/>
<text text-anchor="start" x="656.5" y="-157.7" font-family="-apple-system, BlinkMacSystemFont, 'Segoe UI', Roboto, Oxygen, Ubuntu, Cantarell, 'Fira Sans', 'Droid Sans', 'Helvetica Neue', sans-serif" font-size="11.00">libmirai/public/libmirai</text>
<text text-anchor="middle" x="736.5" y="-145.7" font-family="-apple-system, BlinkMacSystemFont, 'Segoe UI', Roboto, Oxygen, Ubuntu, Cantarell, 'Fira Sans', 'Droid Sans', 'Helvetica Neue', sans-serif" font-size="11.00">/Messages/ForwardMessage.hpp</text>
</a>
</g>
</g>
<!-- Node9&#45;&gt;Node33 -->
<g id="edge28" class="edge">
<title>Node9&#45;&gt;Node33</title>
<path fill="none" stroke="midnightblue" d="M1146.27,-211.23C1065.15,-201.17 943.89,-185.79 838.5,-171 833.98,-170.37 829.34,-169.7 824.66,-169.03"/>
<polygon fill="midnightblue" stroke="midnightblue" points="1146.1,-214.74 1156.46,-212.49 1146.96,-207.79 1146.1,-214.74"/>
</g>
<!-- Node35 -->
<g id="node21" class="node">
<title>Node35</title>
<g id="a_node21"><a xlink:href="QuoteMessage_8hpp.html" target="_top" xlink:title=" ">
<polygon fill="none" stroke="red" points="465,-138.5 465,-170.5 630,-170.5 630,-138.5 465,-138.5"/>
<text text-anchor="start" x="473" y="-157.7" font-family="-apple-system, BlinkMacSystemFont, 'Segoe UI', Roboto, Oxygen, Ubuntu, Cantarell, 'Fira Sans', 'Droid Sans', 'Helvetica Neue', sans-serif" font-size="11.00">libmirai/public/libmirai</text>
<text text-anchor="middle" x="547.5" y="-145.7" font-family="-apple-system, BlinkMacSystemFont, 'Segoe UI', Roboto, Oxygen, Ubuntu, Cantarell, 'Fira Sans', 'Droid Sans', 'Helvetica Neue', sans-serif" font-size="11.00">/Messages/QuoteMessage.hpp</text>
</a>
</g>
</g>
<!-- Node9&#45;&gt;Node35 -->
<g id="edge33" class="edge">
<title>Node9&#45;&gt;Node35</title>
<path fill="none" stroke="midnightblue" d="M1146.34,-216.91C1028.52,-209.22 818.34,-193.72 639.5,-171 636.45,-170.61 633.34,-170.2 630.21,-169.76"/>
<polygon fill="midnightblue" stroke="midnightblue" points="1146.2,-220.4 1156.41,-217.56 1146.65,-213.42 1146.2,-220.4"/>
</g>
<!-- Node11&#45;&gt;Node10 -->
<g id="edge9" class="edge">
<title>Node11&#45;&gt;Node10</title>
<path fill="none" stroke="midnightblue" d="M1206.73,-60.77C1212.73,-51.42 1219.46,-40.94 1224.78,-32.64"/>
<polygon fill="midnightblue" stroke="midnightblue" points="1203.71,-58.99 1201.26,-69.3 1209.6,-62.77 1203.71,-58.99"/>
</g>
<!-- Node15&#45;&gt;Node10 -->
<g id="edge12" class="edge">
<title>Node15&#45;&gt;Node10</title>
<path fill="none" stroke="midnightblue" d="M1033.15,-131.99C1056.24,-113.92 1090.96,-88.06 1123.5,-69 1147.33,-55.04 1175.58,-41.98 1197.62,-32.5"/>
<polygon fill="midnightblue" stroke="midnightblue" points="1030.88,-129.33 1025.19,-138.27 1035.21,-134.82 1030.88,-129.33"/>
</g>
<!-- Node15&#45;&gt;Node11 -->
<g id="edge13" class="edge">
<title>Node15&#45;&gt;Node11</title>
<path fill="none" stroke="midnightblue" d="M1057.58,-135C1086.6,-124.49 1122.49,-111.49 1149.8,-101.6"/>
<polygon fill="midnightblue" stroke="midnightblue" points="1056.23,-131.77 1048.02,-138.46 1058.61,-138.35 1056.23,-131.77"/>
</g>
<!-- Node19&#45;&gt;Node10 -->
<g id="edge16" class="edge">
<title>Node19&#45;&gt;Node10</title>
<path fill="none" stroke="midnightblue" d="M1250.73,-129.04C1254.3,-120.67 1257.71,-111.13 1259.5,-102 1262.32,-87.61 1262.79,-83.29 1259.5,-69 1256.52,-56.02 1249.81,-42.52 1244.09,-32.6"/>
<polygon fill="midnightblue" stroke="midnightblue" points="1247.51,-127.66 1246.57,-138.21 1253.89,-130.55 1247.51,-127.66"/>
</g>
<!-- Node19&#45;&gt;Node11 -->
<g id="edge17" class="edge">
<title>Node19&#45;&gt;Node11</title>
<path fill="none" stroke="midnightblue" d="M1222.06,-130.06C1215.44,-120.63 1208,-110.03 1202.12,-101.64"/>
<polygon fill="midnightblue" stroke="midnightblue" points="1219.23,-132.12 1227.83,-138.3 1224.96,-128.1 1219.23,-132.12"/>
</g>
<!-- Node25&#45;&gt;Node10 -->
<g id="edge21" class="edge">
<title>Node25&#45;&gt;Node10</title>
<path fill="none" stroke="midnightblue" d="M1407.56,-132.87C1366.21,-105.3 1293.89,-57.09 1257.21,-32.64"/>
<polygon fill="midnightblue" stroke="midnightblue" points="1405.63,-135.79 1415.89,-138.43 1409.51,-129.97 1405.63,-135.79"/>
</g>
<!-- Node25&#45;&gt;Node11 -->
<g id="edge22" class="edge">
<title>Node25&#45;&gt;Node11</title>
<path fill="none" stroke="midnightblue" d="M1373.32,-135.82C1334.06,-125.17 1284.6,-111.75 1247.17,-101.6"/>
<polygon fill="midnightblue" stroke="midnightblue" points="1372.5,-139.22 1383.07,-138.46 1374.33,-132.47 1372.5,-139.22"/>
</g>
<!-- Node29&#45;&gt;Node10 -->
<g id="edge25" class="edge">
<title>Node29&#45;&gt;Node10</title>
<path fill="none" stroke="midnightblue" d="M1582.89,-135.07C1502.38,-107.9 1353.37,-57.62 1279.06,-32.54"/>
<polygon fill="midnightblue" stroke="midnightblue" points="1582.24,-138.54 1592.83,-138.43 1584.48,-131.91 1582.24,-138.54"/>
</g>
<!-- Node29&#45;&gt;Node11 -->
<g id="edge26" class="edge">
<title>Node29&#45;&gt;Node11</title>
<path fill="none" stroke="midnightblue" d="M1540.28,-137.82C1432.21,-121.2 1318.2,-104.65 1250.68,-94.95"/>
<polygon fill="midnightblue" stroke="midnightblue" points="1539.97,-141.32 1550.39,-139.38 1541.04,-134.4 1539.97,-141.32"/>
</g>
<!-- Node33&#45;&gt;Node5 -->
<g id="edge30" class="edge">
<title>Node33&#45;&gt;Node5</title>
<path fill="none" stroke="midnightblue" d="M671.62,-135.68C632.92,-125.06 584.31,-111.71 547.5,-101.6"/>
<polygon fill="midnightblue" stroke="midnightblue" points="671.17,-139.19 681.74,-138.46 673.03,-132.44 671.17,-139.19"/>
</g>
<!-- Node33&#45;&gt;Node6 -->
<g id="edge29" class="edge">
<title>Node33&#45;&gt;Node6</title>
<path fill="none" stroke="midnightblue" d="M736.5,-128.2C736.5,-100.13 736.5,-55.76 736.5,-32.64"/>
<polygon fill="midnightblue" stroke="midnightblue" points="733,-128.43 736.5,-138.43 740,-128.43 733,-128.43"/>
</g>
<!-- Node35&#45;&gt;Node5 -->
<g id="edge34" class="edge">
<title>Node35&#45;&gt;Node5</title>
<path fill="none" stroke="midnightblue" d="M528.5,-130.35C520.7,-120.85 511.88,-110.11 504.93,-101.64"/>
<polygon fill="midnightblue" stroke="midnightblue" points="525.97,-132.79 535.02,-138.3 531.38,-128.35 525.97,-132.79"/>
</g>
</g>
</svg>
