<?xml version="1.0" encoding="UTF-8" standalone="no"?>
<!DOCTYPE svg PUBLIC "-//W3C//DTD SVG 1.1//EN"
 "http://www.w3.org/Graphics/SVG/1.1/DTD/svg11.dtd">
<!-- Generated by graphviz version 3.0.0 (20221109.1736)
 -->
<!-- Title: libmirai/models/libmirai/Messages/FaceMessage.hpp Pages: 1 -->
<svg width="445pt" height="212pt"
 viewBox="0.00 0.00 444.50 212.00" xmlns="http://www.w3.org/2000/svg" xmlns:xlink="http://www.w3.org/1999/xlink">
<g id="graph0" class="graph" transform="scale(1 1) rotate(0) translate(4 208)">
<title>libmirai/models/libmirai/Messages/FaceMessage.hpp</title>
<!-- Node1 -->
<g id="node1" class="node">
<title>Node1</title>
<g id="a_node1"><a xlink:title=" ">
<polygon fill="#bfbfbf" stroke="black" points="0,-171.5 0,-203.5 160,-203.5 160,-171.5 0,-171.5"/>
<text text-anchor="start" x="8" y="-190.7" font-family="-apple-system, BlinkMacSystemFont, 'Segoe UI', Roboto, Oxygen, Ubuntu, Cantarell, 'Fira Sans', 'Droid Sans', 'Helvetica Neue', sans-serif" font-size="11.00">libmirai/models/libmirai</text>
<text text-anchor="middle" x="80" y="-178.7" font-family="-apple-system, BlinkMacSystemFont, 'Segoe UI', Roboto, Oxygen, Ubuntu, Cantarell, 'Fira Sans', 'Droid Sans', 'Helvetica Neue', sans-serif" font-size="11.00">/Messages/FaceMessage.hpp</text>
</a>
</g>
</g>
<!-- Node2 -->
<g id="node2" class="node">
<title>Node2</title>
<g id="a_node2"><a xlink:title=" ">
<polygon fill="none" stroke="#bfbfbf" points="49.5,-0.5 49.5,-20.5 92.5,-20.5 92.5,-0.5 49.5,-0.5"/>
<text text-anchor="middle" x="71" y="-7.7" font-family="-apple-system, BlinkMacSystemFont, 'Segoe UI', Roboto, Oxygen, Ubuntu, Cantarell, 'Fira Sans', 'Droid Sans', 'Helvetica Neue', sans-serif" font-size="11.00">string</text>
</a>
</g>
</g>
<!-- Node1&#45;&gt;Node2 -->
<g id="edge1" class="edge">
<title>Node1&#45;&gt;Node2</title>
<path fill="none" stroke="midnightblue" d="M78.66,-171.19C77.8,-160.95 76.72,-147.18 76,-135 73.83,-98.2 72.32,-55.17 71.56,-30.85"/>
<polygon fill="midnightblue" stroke="midnightblue" points="75.06,-30.69 71.26,-20.8 68.06,-30.9 75.06,-30.69"/>
</g>
<!-- Node3 -->
<g id="node3" class="node">
<title>Node3</title>
<g id="a_node3"><a xlink:href="IMessage_8hpp.html" target="_top" xlink:title=" ">
<polygon fill="none" stroke="black" points="85,-114.5 85,-134.5 169,-134.5 169,-114.5 85,-114.5"/>
<text text-anchor="middle" x="127" y="-121.7" font-family="-apple-system, BlinkMacSystemFont, 'Segoe UI', Roboto, Oxygen, Ubuntu, Cantarell, 'Fira Sans', 'Droid Sans', 'Helvetica Neue', sans-serif" font-size="11.00">IMessage.hpp</text>
</a>
</g>
</g>
<!-- Node1&#45;&gt;Node3 -->
<g id="edge2" class="edge">
<title>Node1&#45;&gt;Node3</title>
<path fill="none" stroke="midnightblue" d="M91.62,-171.42C98.37,-162.65 106.91,-151.57 113.9,-142.5"/>
<polygon fill="midnightblue" stroke="midnightblue" points="116.7,-144.6 120.03,-134.55 111.15,-140.33 116.7,-144.6"/>
</g>
<!-- Node3&#45;&gt;Node2 -->
<g id="edge4" class="edge">
<title>Node3&#45;&gt;Node2</title>
<path fill="none" stroke="midnightblue" d="M117.51,-114.21C109.16,-105.55 97.25,-91.9 90,-78 82.2,-63.03 77.23,-44.44 74.34,-30.72"/>
<polygon fill="midnightblue" stroke="midnightblue" points="77.71,-29.7 72.39,-20.54 70.84,-31.02 77.71,-29.7"/>
</g>
<!-- Node4 -->
<g id="node4" class="node">
<title>Node4</title>
<g id="a_node4"><a xlink:title=" ">
<polygon fill="none" stroke="#bfbfbf" points="99,-57.5 99,-77.5 155,-77.5 155,-57.5 99,-57.5"/>
<text text-anchor="middle" x="127" y="-64.7" font-family="-apple-system, BlinkMacSystemFont, 'Segoe UI', Roboto, Oxygen, Ubuntu, Cantarell, 'Fira Sans', 'Droid Sans', 'Helvetica Neue', sans-serif" font-size="11.00">memory</text>
</a>
</g>
</g>
<!-- Node3&#45;&gt;Node4 -->
<g id="edge3" class="edge">
<title>Node3&#45;&gt;Node4</title>
<path fill="none" stroke="midnightblue" d="M127,-114.42C127,-107.22 127,-96.9 127,-87.86"/>
<polygon fill="midnightblue" stroke="midnightblue" points="130.5,-87.78 127,-77.78 123.5,-87.78 130.5,-87.78"/>
</g>
<!-- Node5 -->
<g id="node5" class="node">
<title>Node5</title>
<g id="a_node5"><a xlink:title=" ">
<polygon fill="none" stroke="#bfbfbf" points="173,-57.5 173,-77.5 239,-77.5 239,-57.5 173,-57.5"/>
<text text-anchor="middle" x="206" y="-64.7" font-family="-apple-system, BlinkMacSystemFont, 'Segoe UI', Roboto, Oxygen, Ubuntu, Cantarell, 'Fira Sans', 'Droid Sans', 'Helvetica Neue', sans-serif" font-size="11.00">type_traits</text>
</a>
</g>
</g>
<!-- Node3&#45;&gt;Node5 -->
<g id="edge5" class="edge">
<title>Node3&#45;&gt;Node5</title>
<path fill="none" stroke="midnightblue" d="M140.05,-114.42C152.17,-105.98 170.44,-93.26 184.68,-83.34"/>
<polygon fill="midnightblue" stroke="midnightblue" points="186.73,-86.18 192.94,-77.6 182.73,-80.44 186.73,-86.18"/>
</g>
<!-- Node6 -->
<g id="node6" class="node">
<title>Node6</title>
<g id="a_node6"><a xlink:href="MessageTypes_8hpp.html" target="_top" xlink:title=" ">
<polygon fill="none" stroke="red" points="257.5,-57.5 257.5,-77.5 436.5,-77.5 436.5,-57.5 257.5,-57.5"/>
<text text-anchor="middle" x="347" y="-64.7" font-family="-apple-system, BlinkMacSystemFont, 'Segoe UI', Roboto, Oxygen, Ubuntu, Cantarell, 'Fira Sans', 'Droid Sans', 'Helvetica Neue', sans-serif" font-size="11.00">libmirai/Types/MessageTypes.hpp</text>
</a>
</g>
</g>
<!-- Node3&#45;&gt;Node6 -->
<g id="edge6" class="edge">
<title>Node3&#45;&gt;Node6</title>
<path fill="none" stroke="midnightblue" d="M163.33,-114.42C201.1,-104.98 260.32,-90.17 301.25,-79.94"/>
<polygon fill="midnightblue" stroke="midnightblue" points="302.13,-83.33 310.98,-77.5 300.43,-76.53 302.13,-83.33"/>
</g>
<!-- Node6&#45;&gt;Node2 -->
<g id="edge7" class="edge">
<title>Node6&#45;&gt;Node2</title>
<path fill="none" stroke="midnightblue" d="M301.73,-57.48C245.6,-46.29 151.36,-27.51 102.5,-17.78"/>
<polygon fill="midnightblue" stroke="midnightblue" points="103.01,-14.31 92.52,-15.79 101.64,-21.17 103.01,-14.31"/>
</g>
</g>
</svg>
