<?xml version="1.0" encoding="UTF-8" standalone="no"?>
<!DOCTYPE svg PUBLIC "-//W3C//DTD SVG 1.1//EN"
 "http://www.w3.org/Graphics/SVG/1.1/DTD/svg11.dtd">
<!-- Generated by graphviz version 2.43.0 (0)
 -->
<!-- Title: libmirai/public/libmirai/Messages/FaceMessage.hpp Pages: 1 -->
<svg width="3193pt" height="317pt"
 viewBox="0.00 0.00 3193.27 317.00" xmlns="http://www.w3.org/2000/svg" xmlns:xlink="http://www.w3.org/1999/xlink">
<g id="graph0" class="graph" transform="scale(1 1) rotate(0) translate(4 313)">
<title>libmirai/public/libmirai/Messages/FaceMessage.hpp</title>
<!-- Node1 -->
<g id="node1" class="node">
<title>Node1</title>
<g id="a_node1"><a xlink:title=" ">
<polygon fill="#bfbfbf" stroke="black" points="2229.5,-276.5 2229.5,-308.5 2405.5,-308.5 2405.5,-276.5 2229.5,-276.5"/>
<text text-anchor="start" x="2237.5" y="-295.7" font-family="-apple-system,BlinkMacSystemFont,'SegoeUI',Roboto,Oxygen,Ubuntu,Cantarell,'FiraSans','DroidSans','HelveticaNeue',sans-serif" font-size="11.00">libmirai/public/libmirai</text>
<text text-anchor="middle" x="2317.5" y="-283.7" font-family="-apple-system,BlinkMacSystemFont,'SegoeUI',Roboto,Oxygen,Ubuntu,Cantarell,'FiraSans','DroidSans','HelveticaNeue',sans-serif" font-size="11.00">/Messages/FaceMessage.hpp</text>
</a>
</g>
</g>
<!-- Node2 -->
<g id="node2" class="node">
<title>Node2</title>
<g id="a_node2"><a xlink:href="FaceMessage_8cpp.html" target="_top" xlink:title=" ">
<polygon fill="none" stroke="black" points="1403.5,-207.5 1403.5,-239.5 1579.5,-239.5 1579.5,-207.5 1403.5,-207.5"/>
<text text-anchor="start" x="1411.5" y="-226.7" font-family="-apple-system,BlinkMacSystemFont,'SegoeUI',Roboto,Oxygen,Ubuntu,Cantarell,'FiraSans','DroidSans','HelveticaNeue',sans-serif" font-size="11.00">libmirai/public/libmirai</text>
<text text-anchor="middle" x="1491.5" y="-214.7" font-family="-apple-system,BlinkMacSystemFont,'SegoeUI',Roboto,Oxygen,Ubuntu,Cantarell,'FiraSans','DroidSans','HelveticaNeue',sans-serif" font-size="11.00">/Messages/FaceMessage.cpp</text>
</a>
</g>
</g>
<!-- Node1&#45;&gt;Node2 -->
<g id="edge1" class="edge">
<title>Node1&#45;&gt;Node2</title>
<path fill="none" stroke="midnightblue" d="M2219.17,-287.3C2078.88,-280.69 1813.38,-265.86 1588.5,-240 1585.62,-239.67 1582.69,-239.31 1579.74,-238.94"/>
<polygon fill="midnightblue" stroke="midnightblue" points="2219.31,-290.81 2229.46,-287.78 2219.64,-283.82 2219.31,-290.81"/>
</g>
<!-- Node3 -->
<g id="node3" class="node">
<title>Node3</title>
<g id="a_node3"><a xlink:href="MessageChain_8hpp.html" target="_top" xlink:title=" ">
<polygon fill="none" stroke="black" points="1597.5,-207.5 1597.5,-239.5 1779.5,-239.5 1779.5,-207.5 1597.5,-207.5"/>
<text text-anchor="start" x="1605.5" y="-226.7" font-family="-apple-system,BlinkMacSystemFont,'SegoeUI',Roboto,Oxygen,Ubuntu,Cantarell,'FiraSans','DroidSans','HelveticaNeue',sans-serif" font-size="11.00">libmirai/public/libmirai</text>
<text text-anchor="middle" x="1688.5" y="-214.7" font-family="-apple-system,BlinkMacSystemFont,'SegoeUI',Roboto,Oxygen,Ubuntu,Cantarell,'FiraSans','DroidSans','HelveticaNeue',sans-serif" font-size="11.00">/Messages/MessageChain.hpp</text>
</a>
</g>
</g>
<!-- Node1&#45;&gt;Node3 -->
<g id="edge2" class="edge">
<title>Node1&#45;&gt;Node3</title>
<path fill="none" stroke="midnightblue" d="M2219.43,-281.05C2099.08,-268.23 1896.65,-246.67 1779.59,-234.2"/>
<polygon fill="midnightblue" stroke="midnightblue" points="2219.06,-284.53 2229.38,-282.11 2219.8,-277.57 2219.06,-284.53"/>
</g>
<!-- Node32 -->
<g id="node18" class="node">
<title>Node32</title>
<g id="a_node18"><a xlink:href="Messages_8hpp.html" target="_top" xlink:title=" ">
<polygon fill="none" stroke="red" points="2304.5,-69.5 2304.5,-101.5 2462.5,-101.5 2462.5,-69.5 2304.5,-69.5"/>
<text text-anchor="start" x="2312.5" y="-88.7" font-family="-apple-system,BlinkMacSystemFont,'SegoeUI',Roboto,Oxygen,Ubuntu,Cantarell,'FiraSans','DroidSans','HelveticaNeue',sans-serif" font-size="11.00">libmirai/public/libmirai</text>
<text text-anchor="middle" x="2383.5" y="-76.7" font-family="-apple-system,BlinkMacSystemFont,'SegoeUI',Roboto,Oxygen,Ubuntu,Cantarell,'FiraSans','DroidSans','HelveticaNeue',sans-serif" font-size="11.00">/Messages/Messages.hpp</text>
</a>
</g>
</g>
<!-- Node1&#45;&gt;Node32 -->
<g id="edge35" class="edge">
<title>Node1&#45;&gt;Node32</title>
<path fill="none" stroke="midnightblue" d="M2415.8,-289.43C2586.15,-285.02 2929.05,-272.34 3044.5,-240 3109,-221.93 3143.62,-228.19 3178.5,-171 3186.14,-158.48 3188.53,-148.7 3178.5,-138 3154.26,-112.14 2659.05,-94.67 2462.7,-88.74"/>
<polygon fill="midnightblue" stroke="midnightblue" points="2415.49,-285.93 2405.58,-289.69 2415.67,-292.93 2415.49,-285.93"/>
</g>
<!-- Node35 -->
<g id="node20" class="node">
<title>Node35</title>
<g id="a_node20"><a xlink:href="MarketFaceMessage_8hpp.html" target="_top" xlink:title=" ">
<polygon fill="none" stroke="black" points="2820,-207.5 2820,-239.5 3035,-239.5 3035,-207.5 2820,-207.5"/>
<text text-anchor="start" x="2828" y="-226.7" font-family="-apple-system,BlinkMacSystemFont,'SegoeUI',Roboto,Oxygen,Ubuntu,Cantarell,'FiraSans','DroidSans','HelveticaNeue',sans-serif" font-size="11.00">libmirai/public/libmirai</text>
<text text-anchor="middle" x="2927.5" y="-214.7" font-family="-apple-system,BlinkMacSystemFont,'SegoeUI',Roboto,Oxygen,Ubuntu,Cantarell,'FiraSans','DroidSans','HelveticaNeue',sans-serif" font-size="11.00">/Messages/MarketFaceMessage.hpp</text>
</a>
</g>
</g>
<!-- Node1&#45;&gt;Node35 -->
<g id="edge32" class="edge">
<title>Node1&#45;&gt;Node35</title>
<path fill="none" stroke="midnightblue" d="M2415.7,-280.71C2526.34,-268.56 2705.6,-248.87 2819.94,-236.31"/>
<polygon fill="midnightblue" stroke="midnightblue" points="2415.11,-277.26 2405.55,-281.83 2415.87,-284.22 2415.11,-277.26"/>
</g>
<!-- Node4 -->
<g id="node4" class="node">
<title>Node4</title>
<g id="a_node4"><a xlink:href="Client_8hpp.html" target="_top" xlink:title=" ">
<polygon fill="none" stroke="red" points="1140,-69.5 1140,-101.5 1277,-101.5 1277,-69.5 1140,-69.5"/>
<text text-anchor="start" x="1148" y="-88.7" font-family="-apple-system,BlinkMacSystemFont,'SegoeUI',Roboto,Oxygen,Ubuntu,Cantarell,'FiraSans','DroidSans','HelveticaNeue',sans-serif" font-size="11.00">libmirai/public/libmirai</text>
<text text-anchor="middle" x="1208.5" y="-76.7" font-family="-apple-system,BlinkMacSystemFont,'SegoeUI',Roboto,Oxygen,Ubuntu,Cantarell,'FiraSans','DroidSans','HelveticaNeue',sans-serif" font-size="11.00">/Api/Client.hpp</text>
</a>
</g>
</g>
<!-- Node3&#45;&gt;Node4 -->
<g id="edge3" class="edge">
<title>Node3&#45;&gt;Node4</title>
<path fill="none" stroke="midnightblue" d="M1587.23,-207.08C1491.22,-198.78 1277.77,-225.83 1220.5,-171 1201.98,-153.27 1203.01,-120.92 1205.63,-101.8"/>
<polygon fill="midnightblue" stroke="midnightblue" points="1586.93,-210.57 1597.24,-208.14 1587.67,-203.61 1586.93,-210.57"/>
</g>
<!-- Node5 -->
<g id="node5" class="node">
<title>Node5</title>
<g id="a_node5"><a xlink:href="Client_8cpp.html" target="_top" xlink:title=" ">
<polygon fill="none" stroke="black" points="1203,-0.5 1203,-32.5 1340,-32.5 1340,-0.5 1203,-0.5"/>
<text text-anchor="start" x="1211" y="-19.7" font-family="-apple-system,BlinkMacSystemFont,'SegoeUI',Roboto,Oxygen,Ubuntu,Cantarell,'FiraSans','DroidSans','HelveticaNeue',sans-serif" font-size="11.00">libmirai/public/libmirai</text>
<text text-anchor="middle" x="1271.5" y="-7.7" font-family="-apple-system,BlinkMacSystemFont,'SegoeUI',Roboto,Oxygen,Ubuntu,Cantarell,'FiraSans','DroidSans','HelveticaNeue',sans-serif" font-size="11.00">/Api/Client.cpp</text>
</a>
</g>
</g>
<!-- Node3&#45;&gt;Node5 -->
<g id="edge5" class="edge">
<title>Node3&#45;&gt;Node5</title>
<path fill="none" stroke="midnightblue" d="M1682.88,-197.74C1677.37,-178.89 1667.18,-153.61 1649.5,-138 1561.35,-60.14 1422.63,-32.54 1340.01,-22.79"/>
<polygon fill="midnightblue" stroke="midnightblue" points="1679.51,-198.69 1685.47,-207.45 1686.27,-196.88 1679.51,-198.69"/>
</g>
<!-- Node8 -->
<g id="node6" class="node">
<title>Node8</title>
<g id="a_node6"><a xlink:href="CommandExecutedEvent_8hpp.html" target="_top" xlink:title=" ">
<polygon fill="none" stroke="red" points="1988,-138.5 1988,-170.5 2211,-170.5 2211,-138.5 1988,-138.5"/>
<text text-anchor="start" x="1996" y="-157.7" font-family="-apple-system,BlinkMacSystemFont,'SegoeUI',Roboto,Oxygen,Ubuntu,Cantarell,'FiraSans','DroidSans','HelveticaNeue',sans-serif" font-size="11.00">libmirai/public/libmirai</text>
<text text-anchor="middle" x="2099.5" y="-145.7" font-family="-apple-system,BlinkMacSystemFont,'SegoeUI',Roboto,Oxygen,Ubuntu,Cantarell,'FiraSans','DroidSans','HelveticaNeue',sans-serif" font-size="11.00">/Events/CommandExecutedEvent.hpp</text>
</a>
</g>
</g>
<!-- Node3&#45;&gt;Node8 -->
<g id="edge6" class="edge">
<title>Node3&#45;&gt;Node8</title>
<path fill="none" stroke="midnightblue" d="M1789.81,-205.99C1856.4,-195.13 1942.85,-181.04 2007.48,-170.5"/>
<polygon fill="midnightblue" stroke="midnightblue" points="1789.02,-202.57 1779.71,-207.63 1790.15,-209.48 1789.02,-202.57"/>
</g>
<!-- Node11 -->
<g id="node7" class="node">
<title>Node11</title>
<g id="a_node7"><a xlink:href="FriendMessageEvent_8hpp.html" target="_top" xlink:title=" ">
<polygon fill="none" stroke="red" points="1442,-138.5 1442,-170.5 1641,-170.5 1641,-138.5 1442,-138.5"/>
<text text-anchor="start" x="1450" y="-157.7" font-family="-apple-system,BlinkMacSystemFont,'SegoeUI',Roboto,Oxygen,Ubuntu,Cantarell,'FiraSans','DroidSans','HelveticaNeue',sans-serif" font-size="11.00">libmirai/public/libmirai</text>
<text text-anchor="middle" x="1541.5" y="-145.7" font-family="-apple-system,BlinkMacSystemFont,'SegoeUI',Roboto,Oxygen,Ubuntu,Cantarell,'FiraSans','DroidSans','HelveticaNeue',sans-serif" font-size="11.00">/Events/FriendMessageEvent.hpp</text>
</a>
</g>
</g>
<!-- Node3&#45;&gt;Node11 -->
<g id="edge7" class="edge">
<title>Node3&#45;&gt;Node11</title>
<path fill="none" stroke="midnightblue" d="M1646.4,-203.31C1623.62,-192.93 1595.87,-180.28 1574.63,-170.6"/>
<polygon fill="midnightblue" stroke="midnightblue" points="1644.96,-206.5 1655.51,-207.46 1647.86,-200.13 1644.96,-206.5"/>
</g>
<!-- Node13 -->
<g id="node8" class="node">
<title>Node13</title>
<g id="a_node8"><a xlink:href="FriendSyncMessageEvent_8hpp.html" target="_top" xlink:title=" ">
<polygon fill="none" stroke="red" points="2229,-138.5 2229,-170.5 2454,-170.5 2454,-138.5 2229,-138.5"/>
<text text-anchor="start" x="2237" y="-157.7" font-family="-apple-system,BlinkMacSystemFont,'SegoeUI',Roboto,Oxygen,Ubuntu,Cantarell,'FiraSans','DroidSans','HelveticaNeue',sans-serif" font-size="11.00">libmirai/public/libmirai</text>
<text text-anchor="middle" x="2341.5" y="-145.7" font-family="-apple-system,BlinkMacSystemFont,'SegoeUI',Roboto,Oxygen,Ubuntu,Cantarell,'FiraSans','DroidSans','HelveticaNeue',sans-serif" font-size="11.00">/Events/FriendSyncMessageEvent.hpp</text>
</a>
</g>
</g>
<!-- Node3&#45;&gt;Node13 -->
<g id="edge10" class="edge">
<title>Node3&#45;&gt;Node13</title>
<path fill="none" stroke="midnightblue" d="M1789.86,-213.57C1896.79,-203.94 2070.14,-187.73 2219.5,-171 2222.58,-170.66 2225.7,-170.3 2228.84,-169.94"/>
<polygon fill="midnightblue" stroke="midnightblue" points="1789.37,-210.1 1779.73,-214.48 1790,-217.07 1789.37,-210.1"/>
</g>
<!-- Node15 -->
<g id="node9" class="node">
<title>Node15</title>
<g id="a_node9"><a xlink:href="GroupMessageEvent_8hpp.html" target="_top" xlink:title=" ">
<polygon fill="none" stroke="red" points="743,-138.5 743,-170.5 942,-170.5 942,-138.5 743,-138.5"/>
<text text-anchor="start" x="751" y="-157.7" font-family="-apple-system,BlinkMacSystemFont,'SegoeUI',Roboto,Oxygen,Ubuntu,Cantarell,'FiraSans','DroidSans','HelveticaNeue',sans-serif" font-size="11.00">libmirai/public/libmirai</text>
<text text-anchor="middle" x="842.5" y="-145.7" font-family="-apple-system,BlinkMacSystemFont,'SegoeUI',Roboto,Oxygen,Ubuntu,Cantarell,'FiraSans','DroidSans','HelveticaNeue',sans-serif" font-size="11.00">/Events/GroupMessageEvent.hpp</text>
</a>
</g>
</g>
<!-- Node3&#45;&gt;Node15 -->
<g id="edge11" class="edge">
<title>Node3&#45;&gt;Node15</title>
<path fill="none" stroke="midnightblue" d="M1587.11,-206.92C1304.32,-177.72 1229.79,-198.87 950.5,-171 947.77,-170.73 945,-170.44 942.2,-170.13"/>
<polygon fill="midnightblue" stroke="midnightblue" points="1586.95,-210.43 1597.26,-207.98 1587.68,-203.46 1586.95,-210.43"/>
</g>
<!-- Node17 -->
<g id="node10" class="node">
<title>Node17</title>
<g id="a_node10"><a xlink:href="GroupSyncMessageEvent_8hpp.html" target="_top" xlink:title=" ">
<polygon fill="none" stroke="red" points="2472,-138.5 2472,-170.5 2697,-170.5 2697,-138.5 2472,-138.5"/>
<text text-anchor="start" x="2480" y="-157.7" font-family="-apple-system,BlinkMacSystemFont,'SegoeUI',Roboto,Oxygen,Ubuntu,Cantarell,'FiraSans','DroidSans','HelveticaNeue',sans-serif" font-size="11.00">libmirai/public/libmirai</text>
<text text-anchor="middle" x="2584.5" y="-145.7" font-family="-apple-system,BlinkMacSystemFont,'SegoeUI',Roboto,Oxygen,Ubuntu,Cantarell,'FiraSans','DroidSans','HelveticaNeue',sans-serif" font-size="11.00">/Events/GroupSyncMessageEvent.hpp</text>
</a>
</g>
</g>
<!-- Node3&#45;&gt;Node17 -->
<g id="edge14" class="edge">
<title>Node3&#45;&gt;Node17</title>
<path fill="none" stroke="midnightblue" d="M1790.22,-217.68C1938.34,-210.22 2221.96,-194.26 2462.5,-171 2465.58,-170.7 2468.71,-170.39 2471.86,-170.06"/>
<polygon fill="midnightblue" stroke="midnightblue" points="1789.61,-214.2 1779.8,-218.2 1789.96,-221.2 1789.61,-214.2"/>
</g>
<!-- Node19 -->
<g id="node11" class="node">
<title>Node19</title>
<g id="a_node11"><a xlink:href="OtherClientMessageEvent_8hpp.html" target="_top" xlink:title=" ">
<polygon fill="none" stroke="red" points="0,-138.5 0,-170.5 229,-170.5 229,-138.5 0,-138.5"/>
<text text-anchor="start" x="8" y="-157.7" font-family="-apple-system,BlinkMacSystemFont,'SegoeUI',Roboto,Oxygen,Ubuntu,Cantarell,'FiraSans','DroidSans','HelveticaNeue',sans-serif" font-size="11.00">libmirai/public/libmirai</text>
<text text-anchor="middle" x="114.5" y="-145.7" font-family="-apple-system,BlinkMacSystemFont,'SegoeUI',Roboto,Oxygen,Ubuntu,Cantarell,'FiraSans','DroidSans','HelveticaNeue',sans-serif" font-size="11.00">/Events/OtherClientMessageEvent.hpp</text>
</a>
</g>
</g>
<!-- Node3&#45;&gt;Node19 -->
<g id="edge15" class="edge">
<title>Node3&#45;&gt;Node19</title>
<path fill="none" stroke="midnightblue" d="M1587.09,-206.96C988.54,-153.6 833.06,-216.35 237.5,-171 234.71,-170.79 231.89,-170.56 229.04,-170.31"/>
<polygon fill="midnightblue" stroke="midnightblue" points="1587,-210.46 1597.27,-207.87 1587.63,-203.49 1587,-210.46"/>
</g>
<!-- Node21 -->
<g id="node12" class="node">
<title>Node21</title>
<g id="a_node12"><a xlink:href="StrangerMessageEvent_8hpp.html" target="_top" xlink:title=" ">
<polygon fill="none" stroke="red" points="960,-138.5 960,-170.5 1173,-170.5 1173,-138.5 960,-138.5"/>
<text text-anchor="start" x="968" y="-157.7" font-family="-apple-system,BlinkMacSystemFont,'SegoeUI',Roboto,Oxygen,Ubuntu,Cantarell,'FiraSans','DroidSans','HelveticaNeue',sans-serif" font-size="11.00">libmirai/public/libmirai</text>
<text text-anchor="middle" x="1066.5" y="-145.7" font-family="-apple-system,BlinkMacSystemFont,'SegoeUI',Roboto,Oxygen,Ubuntu,Cantarell,'FiraSans','DroidSans','HelveticaNeue',sans-serif" font-size="11.00">/Events/StrangerMessageEvent.hpp</text>
</a>
</g>
</g>
<!-- Node3&#45;&gt;Node21 -->
<g id="edge16" class="edge">
<title>Node3&#45;&gt;Node21</title>
<path fill="none" stroke="midnightblue" d="M1587.28,-206.9C1409.2,-185.46 1362.17,-190.02 1187.5,-171 1182.76,-170.48 1177.92,-169.94 1173.04,-169.37"/>
<polygon fill="midnightblue" stroke="midnightblue" points="1586.9,-210.38 1597.25,-208.11 1587.74,-203.43 1586.9,-210.38"/>
</g>
<!-- Node23 -->
<g id="node13" class="node">
<title>Node23</title>
<g id="a_node13"><a xlink:href="StrangerSyncMessageEvent_8hpp.html" target="_top" xlink:title=" ">
<polygon fill="none" stroke="red" points="247,-138.5 247,-170.5 486,-170.5 486,-138.5 247,-138.5"/>
<text text-anchor="start" x="255" y="-157.7" font-family="-apple-system,BlinkMacSystemFont,'SegoeUI',Roboto,Oxygen,Ubuntu,Cantarell,'FiraSans','DroidSans','HelveticaNeue',sans-serif" font-size="11.00">libmirai/public/libmirai</text>
<text text-anchor="middle" x="366.5" y="-145.7" font-family="-apple-system,BlinkMacSystemFont,'SegoeUI',Roboto,Oxygen,Ubuntu,Cantarell,'FiraSans','DroidSans','HelveticaNeue',sans-serif" font-size="11.00">/Events/StrangerSyncMessageEvent.hpp</text>
</a>
</g>
</g>
<!-- Node3&#45;&gt;Node23 -->
<g id="edge19" class="edge">
<title>Node3&#45;&gt;Node23</title>
<path fill="none" stroke="midnightblue" d="M1587.21,-206.96C1102.41,-162.29 976.24,-208.02 494.5,-171 491.71,-170.79 488.89,-170.56 486.04,-170.31"/>
<polygon fill="midnightblue" stroke="midnightblue" points="1586.99,-210.45 1597.27,-207.89 1587.64,-203.48 1586.99,-210.45"/>
</g>
<!-- Node25 -->
<g id="node14" class="node">
<title>Node25</title>
<g id="a_node14"><a xlink:href="TempMessageEvent_8hpp.html" target="_top" xlink:title=" ">
<polygon fill="none" stroke="red" points="1229.5,-138.5 1229.5,-170.5 1423.5,-170.5 1423.5,-138.5 1229.5,-138.5"/>
<text text-anchor="start" x="1237.5" y="-157.7" font-family="-apple-system,BlinkMacSystemFont,'SegoeUI',Roboto,Oxygen,Ubuntu,Cantarell,'FiraSans','DroidSans','HelveticaNeue',sans-serif" font-size="11.00">libmirai/public/libmirai</text>
<text text-anchor="middle" x="1326.5" y="-145.7" font-family="-apple-system,BlinkMacSystemFont,'SegoeUI',Roboto,Oxygen,Ubuntu,Cantarell,'FiraSans','DroidSans','HelveticaNeue',sans-serif" font-size="11.00">/Events/TempMessageEvent.hpp</text>
</a>
</g>
</g>
<!-- Node3&#45;&gt;Node25 -->
<g id="edge20" class="edge">
<title>Node3&#45;&gt;Node25</title>
<path fill="none" stroke="midnightblue" d="M1597.32,-205.62C1539.01,-194.83 1464.05,-180.96 1407.78,-170.54"/>
<polygon fill="midnightblue" stroke="midnightblue" points="1596.79,-209.09 1607.26,-207.46 1598.06,-202.2 1596.79,-209.09"/>
</g>
<!-- Node27 -->
<g id="node15" class="node">
<title>Node27</title>
<g id="a_node15"><a xlink:href="TempSyncMessageEvent_8hpp.html" target="_top" xlink:title=" ">
<polygon fill="none" stroke="red" points="504,-138.5 504,-170.5 725,-170.5 725,-138.5 504,-138.5"/>
<text text-anchor="start" x="512" y="-157.7" font-family="-apple-system,BlinkMacSystemFont,'SegoeUI',Roboto,Oxygen,Ubuntu,Cantarell,'FiraSans','DroidSans','HelveticaNeue',sans-serif" font-size="11.00">libmirai/public/libmirai</text>
<text text-anchor="middle" x="614.5" y="-145.7" font-family="-apple-system,BlinkMacSystemFont,'SegoeUI',Roboto,Oxygen,Ubuntu,Cantarell,'FiraSans','DroidSans','HelveticaNeue',sans-serif" font-size="11.00">/Events/TempSyncMessageEvent.hpp</text>
</a>
</g>
</g>
<!-- Node3&#45;&gt;Node27 -->
<g id="edge23" class="edge">
<title>Node3&#45;&gt;Node27</title>
<path fill="none" stroke="midnightblue" d="M1587.12,-206.94C1208.25,-170.4 1109.11,-203.31 733.5,-171 730.8,-170.77 728.07,-170.52 725.32,-170.26"/>
<polygon fill="midnightblue" stroke="midnightblue" points="1586.98,-210.44 1597.27,-207.93 1587.65,-203.48 1586.98,-210.44"/>
</g>
<!-- Node29 -->
<g id="node16" class="node">
<title>Node29</title>
<g id="a_node16"><a xlink:href="ForwardMessage_8hpp.html" target="_top" xlink:title=" ">
<polygon fill="none" stroke="red" points="1735.5,-138.5 1735.5,-170.5 1931.5,-170.5 1931.5,-138.5 1735.5,-138.5"/>
<text text-anchor="start" x="1743.5" y="-157.7" font-family="-apple-system,BlinkMacSystemFont,'SegoeUI',Roboto,Oxygen,Ubuntu,Cantarell,'FiraSans','DroidSans','HelveticaNeue',sans-serif" font-size="11.00">libmirai/public/libmirai</text>
<text text-anchor="middle" x="1833.5" y="-145.7" font-family="-apple-system,BlinkMacSystemFont,'SegoeUI',Roboto,Oxygen,Ubuntu,Cantarell,'FiraSans','DroidSans','HelveticaNeue',sans-serif" font-size="11.00">/Messages/ForwardMessage.hpp</text>
</a>
</g>
</g>
<!-- Node3&#45;&gt;Node29 -->
<g id="edge24" class="edge">
<title>Node3&#45;&gt;Node29</title>
<path fill="none" stroke="midnightblue" d="M1730.32,-203.17C1752.75,-192.81 1779.97,-180.24 1800.82,-170.6"/>
<polygon fill="midnightblue" stroke="midnightblue" points="1728.65,-200.09 1721.04,-207.46 1731.59,-206.45 1728.65,-200.09"/>
</g>
<!-- Node31 -->
<g id="node17" class="node">
<title>Node31</title>
<g id="a_node17"><a xlink:href="MessageChain_8cpp.html" target="_top" xlink:title=" ">
<polygon fill="none" stroke="black" points="1742.5,-0.5 1742.5,-32.5 1924.5,-32.5 1924.5,-0.5 1742.5,-0.5"/>
<text text-anchor="start" x="1750.5" y="-19.7" font-family="-apple-system,BlinkMacSystemFont,'SegoeUI',Roboto,Oxygen,Ubuntu,Cantarell,'FiraSans','DroidSans','HelveticaNeue',sans-serif" font-size="11.00">libmirai/public/libmirai</text>
<text text-anchor="middle" x="1833.5" y="-7.7" font-family="-apple-system,BlinkMacSystemFont,'SegoeUI',Roboto,Oxygen,Ubuntu,Cantarell,'FiraSans','DroidSans','HelveticaNeue',sans-serif" font-size="11.00">/Messages/MessageChain.cpp</text>
</a>
</g>
</g>
<!-- Node3&#45;&gt;Node31 -->
<g id="edge28" class="edge">
<title>Node3&#45;&gt;Node31</title>
<path fill="none" stroke="midnightblue" d="M1697.24,-197.98C1703.98,-180.55 1714.23,-156.96 1726.5,-138 1753.56,-96.19 1794.72,-54.27 1817.29,-32.6"/>
<polygon fill="midnightblue" stroke="midnightblue" points="1693.92,-196.86 1693.68,-207.45 1700.47,-199.32 1693.92,-196.86"/>
</g>
<!-- Node3&#45;&gt;Node32 -->
<g id="edge29" class="edge">
<title>Node3&#45;&gt;Node32</title>
<path fill="none" stroke="midnightblue" d="M1789.63,-213.83C1837.27,-206.79 1893.77,-194.06 1940.5,-171 1960.56,-161.1 1958.08,-147.14 1978.5,-138 2035.03,-112.7 2203.1,-97.94 2304.09,-91.13"/>
<polygon fill="midnightblue" stroke="midnightblue" points="1789.02,-210.38 1779.61,-215.25 1790,-217.31 1789.02,-210.38"/>
</g>
<!-- Node33 -->
<g id="node19" class="node">
<title>Node33</title>
<g id="a_node19"><a xlink:href="QuoteMessage_8hpp.html" target="_top" xlink:title=" ">
<polygon fill="none" stroke="red" points="2715,-138.5 2715,-170.5 2900,-170.5 2900,-138.5 2715,-138.5"/>
<text text-anchor="start" x="2723" y="-157.7" font-family="-apple-system,BlinkMacSystemFont,'SegoeUI',Roboto,Oxygen,Ubuntu,Cantarell,'FiraSans','DroidSans','HelveticaNeue',sans-serif" font-size="11.00">libmirai/public/libmirai</text>
<text text-anchor="middle" x="2807.5" y="-145.7" font-family="-apple-system,BlinkMacSystemFont,'SegoeUI',Roboto,Oxygen,Ubuntu,Cantarell,'FiraSans','DroidSans','HelveticaNeue',sans-serif" font-size="11.00">/Messages/QuoteMessage.hpp</text>
</a>
</g>
</g>
<!-- Node3&#45;&gt;Node33 -->
<g id="edge30" class="edge">
<title>Node3&#45;&gt;Node33</title>
<path fill="none" stroke="midnightblue" d="M1789.7,-220.73C1972.84,-216.78 2371.25,-204.77 2705.5,-171 2708.62,-170.68 2711.79,-170.34 2714.99,-169.97"/>
<polygon fill="midnightblue" stroke="midnightblue" points="1789.47,-217.24 1779.55,-220.95 1789.62,-224.23 1789.47,-217.24"/>
</g>
<!-- Node4&#45;&gt;Node5 -->
<g id="edge4" class="edge">
<title>Node4&#45;&gt;Node5</title>
<path fill="none" stroke="midnightblue" d="M1229.73,-61.93C1238.79,-52.28 1249.14,-41.28 1257.26,-32.64"/>
<polygon fill="midnightblue" stroke="midnightblue" points="1227.1,-59.61 1222.8,-69.3 1232.2,-64.41 1227.1,-59.61"/>
</g>
<!-- Node11&#45;&gt;Node4 -->
<g id="edge8" class="edge">
<title>Node11&#45;&gt;Node4</title>
<path fill="none" stroke="midnightblue" d="M1456.92,-136.48C1401.19,-125.27 1329.16,-110.78 1277.03,-100.29"/>
<polygon fill="midnightblue" stroke="midnightblue" points="1456.27,-139.92 1466.77,-138.46 1457.66,-133.06 1456.27,-139.92"/>
</g>
<!-- Node11&#45;&gt;Node5 -->
<g id="edge9" class="edge">
<title>Node11&#45;&gt;Node5</title>
<path fill="none" stroke="midnightblue" d="M1502.59,-133.9C1448.23,-106.52 1350.71,-57.4 1301.56,-32.64"/>
<polygon fill="midnightblue" stroke="midnightblue" points="1501.07,-137.05 1511.57,-138.43 1504.22,-130.8 1501.07,-137.05"/>
</g>
<!-- Node15&#45;&gt;Node4 -->
<g id="edge12" class="edge">
<title>Node15&#45;&gt;Node4</title>
<path fill="none" stroke="midnightblue" d="M934.69,-136.62C998.45,-124.95 1081.9,-109.68 1139.84,-99.07"/>
<polygon fill="midnightblue" stroke="midnightblue" points="933.84,-133.22 924.64,-138.46 935.1,-140.11 933.84,-133.22"/>
</g>
<!-- Node15&#45;&gt;Node5 -->
<g id="edge13" class="edge">
<title>Node15&#45;&gt;Node5</title>
<path fill="none" stroke="midnightblue" d="M895.05,-135.19C945.88,-117.64 1025.2,-90.69 1094.5,-69 1135.58,-56.14 1182.35,-42.58 1217.5,-32.6"/>
<polygon fill="midnightblue" stroke="midnightblue" points="893.89,-131.89 885.58,-138.46 896.18,-138.5 893.89,-131.89"/>
</g>
<!-- Node21&#45;&gt;Node4 -->
<g id="edge17" class="edge">
<title>Node21&#45;&gt;Node4</title>
<path fill="none" stroke="midnightblue" d="M1107.43,-134.19C1129.3,-123.87 1155.85,-111.34 1176.25,-101.72"/>
<polygon fill="midnightblue" stroke="midnightblue" points="1105.92,-131.03 1098.37,-138.46 1108.9,-137.36 1105.92,-131.03"/>
</g>
<!-- Node21&#45;&gt;Node5 -->
<g id="edge18" class="edge">
<title>Node21&#45;&gt;Node5</title>
<path fill="none" stroke="midnightblue" d="M1079.56,-129.39C1090.84,-110.6 1108.72,-85.09 1130.5,-69 1153.03,-52.35 1181.5,-40.6 1206.95,-32.58"/>
<polygon fill="midnightblue" stroke="midnightblue" points="1076.41,-127.85 1074.43,-138.25 1082.47,-131.35 1076.41,-127.85"/>
</g>
<!-- Node25&#45;&gt;Node4 -->
<g id="edge21" class="edge">
<title>Node25&#45;&gt;Node4</title>
<path fill="none" stroke="midnightblue" d="M1291.02,-133.36C1273.13,-123.2 1251.8,-111.08 1235.3,-101.72"/>
<polygon fill="midnightblue" stroke="midnightblue" points="1289.59,-136.57 1300.02,-138.46 1293.05,-130.48 1289.59,-136.57"/>
</g>
<!-- Node25&#45;&gt;Node5 -->
<g id="edge22" class="edge">
<title>Node25&#45;&gt;Node5</title>
<path fill="none" stroke="midnightblue" d="M1316.57,-128.94C1305.23,-100.92 1287.06,-55.97 1277.62,-32.64"/>
<polygon fill="midnightblue" stroke="midnightblue" points="1313.41,-130.47 1320.4,-138.43 1319.9,-127.84 1313.41,-130.47"/>
</g>
<!-- Node29&#45;&gt;Node31 -->
<g id="edge25" class="edge">
<title>Node29&#45;&gt;Node31</title>
<path fill="none" stroke="midnightblue" d="M1833.5,-128.2C1833.5,-100.13 1833.5,-55.76 1833.5,-32.64"/>
<polygon fill="midnightblue" stroke="midnightblue" points="1830,-128.43 1833.5,-138.43 1837,-128.43 1830,-128.43"/>
</g>
<!-- Node29&#45;&gt;Node32 -->
<g id="edge26" class="edge">
<title>Node29&#45;&gt;Node32</title>
<path fill="none" stroke="midnightblue" d="M1941.62,-138.5C1942.92,-138.33 1944.21,-138.16 1945.5,-138 2070.81,-121.96 2216.54,-105.2 2304.31,-95.32"/>
<polygon fill="midnightblue" stroke="midnightblue" points="1940.98,-135.05 1931.52,-139.82 1941.89,-141.99 1940.98,-135.05"/>
</g>
<!-- Node32&#45;&gt;Node31 -->
<g id="edge27" class="edge">
<title>Node32&#45;&gt;Node31</title>
<path fill="none" stroke="midnightblue" d="M2294.47,-73.65C2192.85,-61.28 2027.48,-41.13 1924.88,-28.63"/>
<polygon fill="midnightblue" stroke="midnightblue" points="2294.06,-77.13 2304.41,-74.86 2294.9,-70.18 2294.06,-77.13"/>
</g>
<!-- Node33&#45;&gt;Node32 -->
<g id="edge31" class="edge">
<title>Node33&#45;&gt;Node32</title>
<path fill="none" stroke="midnightblue" d="M2705.09,-137.32C2630.57,-125.54 2531.12,-109.83 2462.65,-99.01"/>
<polygon fill="midnightblue" stroke="midnightblue" points="2704.55,-140.78 2714.98,-138.88 2705.64,-133.86 2704.55,-140.78"/>
</g>
<!-- Node35&#45;&gt;Node32 -->
<g id="edge34" class="edge">
<title>Node35&#45;&gt;Node32</title>
<path fill="none" stroke="midnightblue" d="M2929.1,-197.21C2928.82,-178.02 2924.97,-152.55 2908.5,-138 2875.82,-109.12 2601.06,-94.7 2462.6,-89.22"/>
<polygon fill="midnightblue" stroke="midnightblue" points="2925.6,-197.32 2928.94,-207.38 2932.6,-197.44 2925.6,-197.32"/>
</g>
<!-- Node36 -->
<g id="node21" class="node">
<title>Node36</title>
<g id="a_node21"><a xlink:href="MarketFaceMessage_8cpp.html" target="_top" xlink:title=" ">
<polygon fill="none" stroke="black" points="2955.5,-138.5 2955.5,-170.5 3169.5,-170.5 3169.5,-138.5 2955.5,-138.5"/>
<text text-anchor="start" x="2963.5" y="-157.7" font-family="-apple-system,BlinkMacSystemFont,'SegoeUI',Roboto,Oxygen,Ubuntu,Cantarell,'FiraSans','DroidSans','HelveticaNeue',sans-serif" font-size="11.00">libmirai/public/libmirai</text>
<text text-anchor="middle" x="3062.5" y="-145.7" font-family="-apple-system,BlinkMacSystemFont,'SegoeUI',Roboto,Oxygen,Ubuntu,Cantarell,'FiraSans','DroidSans','HelveticaNeue',sans-serif" font-size="11.00">/Messages/MarketFaceMessage.cpp</text>
</a>
</g>
</g>
<!-- Node35&#45;&gt;Node36 -->
<g id="edge33" class="edge">
<title>Node35&#45;&gt;Node36</title>
<path fill="none" stroke="midnightblue" d="M2966.97,-202.91C2987.66,-192.65 3012.62,-180.26 3031.84,-170.72"/>
<polygon fill="midnightblue" stroke="midnightblue" points="2965.2,-199.88 2957.8,-207.46 2968.31,-206.15 2965.2,-199.88"/>
</g>
</g>
</svg>
