<?xml version="1.0" encoding="UTF-8" standalone="no"?>
<!DOCTYPE svg PUBLIC "-//W3C//DTD SVG 1.1//EN"
 "http://www.w3.org/Graphics/SVG/1.1/DTD/svg11.dtd">
<!-- Generated by graphviz version 3.0.0 (20220413.0242)
 -->
<!-- Title: libmirai/public/libmirai/Messages/FileMessage.hpp Pages: 1 -->
<svg width="399pt" height="212pt"
 viewBox="0.00 0.00 398.50 212.00" xmlns="http://www.w3.org/2000/svg" xmlns:xlink="http://www.w3.org/1999/xlink">
<g id="graph0" class="graph" transform="scale(1 1) rotate(0) translate(4 208)">
<title>libmirai/public/libmirai/Messages/FileMessage.hpp</title>
<!-- Node1 -->
<g id="node1" class="node">
<title>Node1</title>
<g id="a_node1"><a xlink:title=" ">
<polygon fill="#bfbfbf" stroke="black" points="0,-171.5 0,-203.5 153,-203.5 153,-171.5 0,-171.5"/>
<text text-anchor="start" x="8" y="-190.7" font-family="-apple-system, BlinkMacSystemFont, 'Segoe UI', Roboto, Oxygen, Ubuntu, Cantarell, 'Fira Sans', 'Droid Sans', 'Helvetica Neue', sans-serif" font-size="11.00">libmirai/public/libmirai</text>
<text text-anchor="middle" x="76.5" y="-178.7" font-family="-apple-system, BlinkMacSystemFont, 'Segoe UI', Roboto, Oxygen, Ubuntu, Cantarell, 'Fira Sans', 'Droid Sans', 'Helvetica Neue', sans-serif" font-size="11.00">/Messages/FileMessage.hpp</text>
</a>
</g>
</g>
<!-- Node2 -->
<g id="node2" class="node">
<title>Node2</title>
<g id="a_node2"><a xlink:title=" ">
<polygon fill="none" stroke="#bfbfbf" points="55,-57.5 55,-77.5 98,-77.5 98,-57.5 55,-57.5"/>
<text text-anchor="middle" x="76.5" y="-64.7" font-family="-apple-system, BlinkMacSystemFont, 'Segoe UI', Roboto, Oxygen, Ubuntu, Cantarell, 'Fira Sans', 'Droid Sans', 'Helvetica Neue', sans-serif" font-size="11.00">string</text>
</a>
</g>
</g>
<!-- Node1&#45;&gt;Node2 -->
<g id="edge1" class="edge">
<title>Node1&#45;&gt;Node2</title>
<path fill="none" stroke="midnightblue" d="M76.5,-171.07C76.5,-149.71 76.5,-111.11 76.5,-87.84"/>
<polygon fill="midnightblue" stroke="midnightblue" points="80,-87.79 76.5,-77.79 73,-87.79 80,-87.79"/>
</g>
<!-- Node3 -->
<g id="node3" class="node">
<title>Node3</title>
<g id="a_node3"><a xlink:title=" ">
<polygon fill="none" stroke="#bfbfbf" points="132,-0.5 132,-20.5 263,-20.5 263,-0.5 132,-0.5"/>
<text text-anchor="middle" x="197.5" y="-7.7" font-family="-apple-system, BlinkMacSystemFont, 'Segoe UI', Roboto, Oxygen, Ubuntu, Cantarell, 'Fira Sans', 'Droid Sans', 'Helvetica Neue', sans-serif" font-size="11.00">nlohmann/json_fwd.hpp</text>
</a>
</g>
</g>
<!-- Node1&#45;&gt;Node3 -->
<g id="edge2" class="edge">
<title>Node1&#45;&gt;Node3</title>
<path fill="none" stroke="midnightblue" d="M65.61,-171.32C48.43,-145.36 19.55,-91.86 45.5,-57 63.3,-33.08 93.23,-21.26 121.83,-15.57"/>
<polygon fill="midnightblue" stroke="midnightblue" points="122.63,-18.99 131.88,-13.81 121.42,-12.09 122.63,-18.99"/>
</g>
<!-- Node4 -->
<g id="node4" class="node">
<title>Node4</title>
<g id="a_node4"><a xlink:href="MessageBase_8hpp.html" target="_top" xlink:title=" ">
<polygon fill="none" stroke="black" points="144.5,-114.5 144.5,-134.5 250.5,-134.5 250.5,-114.5 144.5,-114.5"/>
<text text-anchor="middle" x="197.5" y="-121.7" font-family="-apple-system, BlinkMacSystemFont, 'Segoe UI', Roboto, Oxygen, Ubuntu, Cantarell, 'Fira Sans', 'Droid Sans', 'Helvetica Neue', sans-serif" font-size="11.00">MessageBase.hpp</text>
</a>
</g>
</g>
<!-- Node1&#45;&gt;Node4 -->
<g id="edge3" class="edge">
<title>Node1&#45;&gt;Node4</title>
<path fill="none" stroke="midnightblue" d="M106.41,-171.42C126.05,-161.52 151.52,-148.68 170.53,-139.1"/>
<polygon fill="midnightblue" stroke="midnightblue" points="172.2,-142.17 179.56,-134.55 169.05,-135.92 172.2,-142.17"/>
</g>
<!-- Node4&#45;&gt;Node2 -->
<g id="edge5" class="edge">
<title>Node4&#45;&gt;Node2</title>
<path fill="none" stroke="midnightblue" d="M177.52,-114.42C157.99,-105.54 128.04,-91.93 105.81,-81.82"/>
<polygon fill="midnightblue" stroke="midnightblue" points="107.06,-78.55 96.51,-77.6 104.17,-84.92 107.06,-78.55"/>
</g>
<!-- Node4&#45;&gt;Node3 -->
<g id="edge6" class="edge">
<title>Node4&#45;&gt;Node3</title>
<path fill="none" stroke="midnightblue" d="M230.48,-114.42C262.56,-103.8 304.19,-84.14 287.5,-57 277.99,-41.54 261.43,-31.14 245.08,-24.24"/>
<polygon fill="midnightblue" stroke="midnightblue" points="246.13,-20.89 235.54,-20.57 243.61,-27.42 246.13,-20.89"/>
</g>
<!-- Node5 -->
<g id="node5" class="node">
<title>Node5</title>
<g id="a_node5"><a xlink:title=" ">
<polygon fill="none" stroke="#bfbfbf" points="334.5,-57.5 334.5,-77.5 390.5,-77.5 390.5,-57.5 334.5,-57.5"/>
<text text-anchor="middle" x="362.5" y="-64.7" font-family="-apple-system, BlinkMacSystemFont, 'Segoe UI', Roboto, Oxygen, Ubuntu, Cantarell, 'Fira Sans', 'Droid Sans', 'Helvetica Neue', sans-serif" font-size="11.00">memory</text>
</a>
</g>
</g>
<!-- Node4&#45;&gt;Node5 -->
<g id="edge4" class="edge">
<title>Node4&#45;&gt;Node5</title>
<path fill="none" stroke="midnightblue" d="M224.75,-114.42C252.3,-105.23 295.06,-90.98 325.63,-80.79"/>
<polygon fill="midnightblue" stroke="midnightblue" points="327.11,-83.99 335.49,-77.5 324.89,-77.35 327.11,-83.99"/>
</g>
<!-- Node6 -->
<g id="node6" class="node">
<title>Node6</title>
<g id="a_node6"><a xlink:href="Serializable_8hpp.html" target="_top" xlink:title=" ">
<polygon fill="none" stroke="black" points="116.5,-57.5 116.5,-77.5 278.5,-77.5 278.5,-57.5 116.5,-57.5"/>
<text text-anchor="middle" x="197.5" y="-64.7" font-family="-apple-system, BlinkMacSystemFont, 'Segoe UI', Roboto, Oxygen, Ubuntu, Cantarell, 'Fira Sans', 'Droid Sans', 'Helvetica Neue', sans-serif" font-size="11.00">libmirai/Types/Serializable.hpp</text>
</a>
</g>
</g>
<!-- Node4&#45;&gt;Node6 -->
<g id="edge7" class="edge">
<title>Node4&#45;&gt;Node6</title>
<path fill="none" stroke="midnightblue" d="M197.5,-114.42C197.5,-107.22 197.5,-96.9 197.5,-87.86"/>
<polygon fill="midnightblue" stroke="midnightblue" points="201,-87.78 197.5,-77.78 194,-87.78 201,-87.78"/>
</g>
<!-- Node6&#45;&gt;Node3 -->
<g id="edge8" class="edge">
<title>Node6&#45;&gt;Node3</title>
<path fill="none" stroke="midnightblue" d="M197.5,-57.42C197.5,-50.22 197.5,-39.9 197.5,-30.86"/>
<polygon fill="midnightblue" stroke="midnightblue" points="201,-30.78 197.5,-20.78 194,-30.78 201,-30.78"/>
</g>
</g>
</svg>
