<?xml version="1.0" encoding="UTF-8" standalone="no"?>
<!DOCTYPE svg PUBLIC "-//W3C//DTD SVG 1.1//EN"
 "http://www.w3.org/Graphics/SVG/1.1/DTD/svg11.dtd">
<!-- Generated by graphviz version 2.43.0 (0)
 -->
<!-- Title: libmirai/public/libmirai/Messages/FileMessage.hpp Pages: 1 -->
<svg width="437pt" height="212pt"
 viewBox="0.00 0.00 437.00 212.00" xmlns="http://www.w3.org/2000/svg" xmlns:xlink="http://www.w3.org/1999/xlink">
<g id="graph0" class="graph" transform="scale(1 1) rotate(0) translate(4 208)">
<title>libmirai/public/libmirai/Messages/FileMessage.hpp</title>
<!-- Node1 -->
<g id="node1" class="node">
<title>Node1</title>
<g id="a_node1"><a xlink:title=" ">
<polygon fill="#bfbfbf" stroke="black" points="0,-171.5 0,-203.5 170,-203.5 170,-171.5 0,-171.5"/>
<text text-anchor="start" x="8" y="-190.7" font-family="-apple-system,BlinkMacSystemFont,'SegoeUI',Roboto,Oxygen,Ubuntu,Cantarell,'FiraSans','DroidSans','HelveticaNeue',sans-serif" font-size="11.00">libmirai/public/libmirai</text>
<text text-anchor="middle" x="85" y="-178.7" font-family="-apple-system,BlinkMacSystemFont,'SegoeUI',Roboto,Oxygen,Ubuntu,Cantarell,'FiraSans','DroidSans','HelveticaNeue',sans-serif" font-size="11.00">/Messages/FileMessage.hpp</text>
</a>
</g>
</g>
<!-- Node2 -->
<g id="node2" class="node">
<title>Node2</title>
<g id="a_node2"><a xlink:title=" ">
<polygon fill="none" stroke="#bfbfbf" points="61,-57.5 61,-77.5 109,-77.5 109,-57.5 61,-57.5"/>
<text text-anchor="middle" x="85" y="-64.7" font-family="-apple-system,BlinkMacSystemFont,'SegoeUI',Roboto,Oxygen,Ubuntu,Cantarell,'FiraSans','DroidSans','HelveticaNeue',sans-serif" font-size="11.00">string</text>
</a>
</g>
</g>
<!-- Node1&#45;&gt;Node2 -->
<g id="edge1" class="edge">
<title>Node1&#45;&gt;Node2</title>
<path fill="none" stroke="midnightblue" d="M85,-171.07C85,-149.71 85,-111.11 85,-87.84"/>
<polygon fill="midnightblue" stroke="midnightblue" points="88.5,-87.79 85,-77.79 81.5,-87.79 88.5,-87.79"/>
</g>
<!-- Node3 -->
<g id="node3" class="node">
<title>Node3</title>
<g id="a_node3"><a xlink:title=" ">
<polygon fill="none" stroke="#bfbfbf" points="146,-0.5 146,-20.5 292,-20.5 292,-0.5 146,-0.5"/>
<text text-anchor="middle" x="219" y="-7.7" font-family="-apple-system,BlinkMacSystemFont,'SegoeUI',Roboto,Oxygen,Ubuntu,Cantarell,'FiraSans','DroidSans','HelveticaNeue',sans-serif" font-size="11.00">nlohmann/json_fwd.hpp</text>
</a>
</g>
</g>
<!-- Node1&#45;&gt;Node3 -->
<g id="edge2" class="edge">
<title>Node1&#45;&gt;Node3</title>
<path fill="none" stroke="midnightblue" d="M73.65,-171.28C55.73,-145.25 25.52,-91.66 52,-57 63.9,-41.43 107.03,-29.91 146.48,-22.36"/>
<polygon fill="midnightblue" stroke="midnightblue" points="147.21,-25.78 156.41,-20.53 145.94,-18.9 147.21,-25.78"/>
</g>
<!-- Node4 -->
<g id="node4" class="node">
<title>Node4</title>
<g id="a_node4"><a xlink:href="MessageBase_8hpp.html" target="_top" xlink:title=" ">
<polygon fill="none" stroke="black" points="161,-114.5 161,-134.5 277,-134.5 277,-114.5 161,-114.5"/>
<text text-anchor="middle" x="219" y="-121.7" font-family="-apple-system,BlinkMacSystemFont,'SegoeUI',Roboto,Oxygen,Ubuntu,Cantarell,'FiraSans','DroidSans','HelveticaNeue',sans-serif" font-size="11.00">MessageBase.hpp</text>
</a>
</g>
</g>
<!-- Node1&#45;&gt;Node4 -->
<g id="edge3" class="edge">
<title>Node1&#45;&gt;Node4</title>
<path fill="none" stroke="midnightblue" d="M118.12,-171.42C140.17,-161.39 168.85,-148.33 190,-138.7"/>
<polygon fill="midnightblue" stroke="midnightblue" points="191.48,-141.87 199.13,-134.55 188.58,-135.5 191.48,-141.87"/>
</g>
<!-- Node4&#45;&gt;Node2 -->
<g id="edge5" class="edge">
<title>Node4&#45;&gt;Node2</title>
<path fill="none" stroke="midnightblue" d="M196.87,-114.42C174.95,-105.42 141.18,-91.56 116.47,-81.42"/>
<polygon fill="midnightblue" stroke="midnightblue" points="117.74,-78.15 107.16,-77.6 115.08,-84.63 117.74,-78.15"/>
</g>
<!-- Node4&#45;&gt;Node3 -->
<g id="edge6" class="edge">
<title>Node4&#45;&gt;Node3</title>
<path fill="none" stroke="midnightblue" d="M264.75,-114.42C285,-107.88 306.92,-96.77 319,-78 335.54,-52.31 300.38,-34.24 267.29,-23.49"/>
<polygon fill="midnightblue" stroke="midnightblue" points="268.18,-20.1 257.6,-20.52 266.13,-26.79 268.18,-20.1"/>
</g>
<!-- Node5 -->
<g id="node5" class="node">
<title>Node5</title>
<g id="a_node5"><a xlink:title=" ">
<polygon fill="none" stroke="#bfbfbf" points="367,-57.5 367,-77.5 429,-77.5 429,-57.5 367,-57.5"/>
<text text-anchor="middle" x="398" y="-64.7" font-family="-apple-system,BlinkMacSystemFont,'SegoeUI',Roboto,Oxygen,Ubuntu,Cantarell,'FiraSans','DroidSans','HelveticaNeue',sans-serif" font-size="11.00">memory</text>
</a>
</g>
</g>
<!-- Node4&#45;&gt;Node5 -->
<g id="edge4" class="edge">
<title>Node4&#45;&gt;Node5</title>
<path fill="none" stroke="midnightblue" d="M248.56,-114.42C278.7,-105.15 325.64,-90.73 358.86,-80.53"/>
<polygon fill="midnightblue" stroke="midnightblue" points="360.16,-83.79 368.7,-77.5 358.11,-77.1 360.16,-83.79"/>
</g>
<!-- Node6 -->
<g id="node6" class="node">
<title>Node6</title>
<g id="a_node6"><a xlink:href="Serializable_8hpp.html" target="_top" xlink:title=" ">
<polygon fill="none" stroke="black" points="127.5,-57.5 127.5,-77.5 310.5,-77.5 310.5,-57.5 127.5,-57.5"/>
<text text-anchor="middle" x="219" y="-64.7" font-family="-apple-system,BlinkMacSystemFont,'SegoeUI',Roboto,Oxygen,Ubuntu,Cantarell,'FiraSans','DroidSans','HelveticaNeue',sans-serif" font-size="11.00">libmirai/Types/Serializable.hpp</text>
</a>
</g>
</g>
<!-- Node4&#45;&gt;Node6 -->
<g id="edge7" class="edge">
<title>Node4&#45;&gt;Node6</title>
<path fill="none" stroke="midnightblue" d="M219,-114.42C219,-107.22 219,-96.9 219,-87.86"/>
<polygon fill="midnightblue" stroke="midnightblue" points="222.5,-87.78 219,-77.78 215.5,-87.78 222.5,-87.78"/>
</g>
<!-- Node6&#45;&gt;Node3 -->
<g id="edge8" class="edge">
<title>Node6&#45;&gt;Node3</title>
<path fill="none" stroke="midnightblue" d="M219,-57.42C219,-50.22 219,-39.9 219,-30.86"/>
<polygon fill="midnightblue" stroke="midnightblue" points="222.5,-30.78 219,-20.78 215.5,-30.78 222.5,-30.78"/>
</g>
</g>
</svg>
