<?xml version="1.0" encoding="UTF-8" standalone="no"?>
<!DOCTYPE svg PUBLIC "-//W3C//DTD SVG 1.1//EN"
 "http://www.w3.org/Graphics/SVG/1.1/DTD/svg11.dtd">
<!-- Generated by graphviz version 3.0.0 (20220413.0242)
 -->
<!-- Title: libmirai/public/libmirai/Messages/FlashImageMessage.cpp Pages: 1 -->
<svg width="329pt" height="269pt"
 viewBox="0.00 0.00 328.86 269.00" xmlns="http://www.w3.org/2000/svg" xmlns:xlink="http://www.w3.org/1999/xlink">
<g id="graph0" class="graph" transform="scale(1 1) rotate(0) translate(4 265)">
<title>libmirai/public/libmirai/Messages/FlashImageMessage.cpp</title>
<!-- Node1 -->
<g id="node1" class="node">
<title>Node1</title>
<g id="a_node1"><a xlink:title=" ">
<polygon fill="#bfbfbf" stroke="black" points="100.36,-228.5 100.36,-260.5 291.36,-260.5 291.36,-228.5 100.36,-228.5"/>
<text text-anchor="start" x="108.36" y="-247.7" font-family="-apple-system, BlinkMacSystemFont, 'Segoe UI', Roboto, Oxygen, Ubuntu, Cantarell, 'Fira Sans', 'Droid Sans', 'Helvetica Neue', sans-serif" font-size="11.00">libmirai/public/libmirai</text>
<text text-anchor="middle" x="195.86" y="-235.7" font-family="-apple-system, BlinkMacSystemFont, 'Segoe UI', Roboto, Oxygen, Ubuntu, Cantarell, 'Fira Sans', 'Droid Sans', 'Helvetica Neue', sans-serif" font-size="11.00">/Messages/FlashImageMessage.cpp</text>
</a>
</g>
</g>
<!-- Node2 -->
<g id="node2" class="node">
<title>Node2</title>
<g id="a_node2"><a xlink:href="FlashImageMessage_8hpp.html" target="_top" xlink:title=" ">
<polygon fill="none" stroke="black" points="57.36,-171.5 57.36,-191.5 194.36,-191.5 194.36,-171.5 57.36,-171.5"/>
<text text-anchor="middle" x="125.86" y="-178.7" font-family="-apple-system, BlinkMacSystemFont, 'Segoe UI', Roboto, Oxygen, Ubuntu, Cantarell, 'Fira Sans', 'Droid Sans', 'Helvetica Neue', sans-serif" font-size="11.00">FlashImageMessage.hpp</text>
</a>
</g>
</g>
<!-- Node1&#45;&gt;Node2 -->
<g id="edge1" class="edge">
<title>Node1&#45;&gt;Node2</title>
<path fill="none" stroke="midnightblue" d="M178.56,-228.42C168.08,-219.29 154.73,-207.66 144.09,-198.38"/>
<polygon fill="midnightblue" stroke="midnightblue" points="146.08,-195.48 136.24,-191.55 141.48,-200.75 146.08,-195.48"/>
</g>
<!-- Node14 -->
<g id="node7" class="node">
<title>Node14</title>
<g id="a_node7"><a xlink:title=" ">
<polygon fill="none" stroke="#bfbfbf" points="212.86,-171.5 212.86,-191.5 320.86,-191.5 320.86,-171.5 212.86,-171.5"/>
<text text-anchor="middle" x="266.86" y="-178.7" font-family="-apple-system, BlinkMacSystemFont, 'Segoe UI', Roboto, Oxygen, Ubuntu, Cantarell, 'Fira Sans', 'Droid Sans', 'Helvetica Neue', sans-serif" font-size="11.00">nlohmann/json.hpp</text>
</a>
</g>
</g>
<!-- Node1&#45;&gt;Node14 -->
<g id="edge11" class="edge">
<title>Node1&#45;&gt;Node14</title>
<path fill="none" stroke="midnightblue" d="M213.41,-228.42C224.15,-219.2 237.85,-207.43 248.69,-198.11"/>
<polygon fill="midnightblue" stroke="midnightblue" points="251.03,-200.72 256.33,-191.55 246.47,-195.41 251.03,-200.72"/>
</g>
<!-- Node3 -->
<g id="node3" class="node">
<title>Node3</title>
<g id="a_node3"><a xlink:title=" ">
<polygon fill="none" stroke="#bfbfbf" points="0.36,-0.5 0.36,-20.5 43.36,-20.5 43.36,-0.5 0.36,-0.5"/>
<text text-anchor="middle" x="21.86" y="-7.7" font-family="-apple-system, BlinkMacSystemFont, 'Segoe UI', Roboto, Oxygen, Ubuntu, Cantarell, 'Fira Sans', 'Droid Sans', 'Helvetica Neue', sans-serif" font-size="11.00">string</text>
</a>
</g>
</g>
<!-- Node2&#45;&gt;Node3 -->
<g id="edge2" class="edge">
<title>Node2&#45;&gt;Node3</title>
<path fill="none" stroke="midnightblue" d="M68.26,-171.48C46.87,-165.03 24.71,-153.96 11.86,-135 -9.67,-103.23 3.67,-55.75 13.73,-29.9"/>
<polygon fill="midnightblue" stroke="midnightblue" points="17.01,-31.12 17.6,-20.54 10.55,-28.44 17.01,-31.12"/>
</g>
<!-- Node4 -->
<g id="node4" class="node">
<title>Node4</title>
<g id="a_node4"><a xlink:title=" ">
<polygon fill="none" stroke="#bfbfbf" points="103.36,-0.5 103.36,-20.5 234.36,-20.5 234.36,-0.5 103.36,-0.5"/>
<text text-anchor="middle" x="168.86" y="-7.7" font-family="-apple-system, BlinkMacSystemFont, 'Segoe UI', Roboto, Oxygen, Ubuntu, Cantarell, 'Fira Sans', 'Droid Sans', 'Helvetica Neue', sans-serif" font-size="11.00">nlohmann/json_fwd.hpp</text>
</a>
</g>
</g>
<!-- Node2&#45;&gt;Node4 -->
<g id="edge3" class="edge">
<title>Node2&#45;&gt;Node4</title>
<path fill="none" stroke="midnightblue" d="M147.42,-171.45C178.73,-156.98 235.57,-125.35 258.86,-78 271.26,-52.78 240.92,-34.83 212.17,-23.99"/>
<polygon fill="midnightblue" stroke="midnightblue" points="213.14,-20.62 202.55,-20.58 210.81,-27.22 213.14,-20.62"/>
</g>
<!-- Node5 -->
<g id="node5" class="node">
<title>Node5</title>
<g id="a_node5"><a xlink:href="BasicTypes_8hpp.html" target="_top" xlink:title=" ">
<polygon fill="none" stroke="red" points="87.86,-57.5 87.86,-77.5 249.86,-77.5 249.86,-57.5 87.86,-57.5"/>
<text text-anchor="middle" x="168.86" y="-64.7" font-family="-apple-system, BlinkMacSystemFont, 'Segoe UI', Roboto, Oxygen, Ubuntu, Cantarell, 'Fira Sans', 'Droid Sans', 'Helvetica Neue', sans-serif" font-size="11.00">libmirai/Types/BasicTypes.hpp</text>
</a>
</g>
</g>
<!-- Node2&#45;&gt;Node5 -->
<g id="edge4" class="edge">
<title>Node2&#45;&gt;Node5</title>
<path fill="none" stroke="midnightblue" d="M129.38,-171.33C136.4,-153.04 152.29,-111.67 161.63,-87.34"/>
<polygon fill="midnightblue" stroke="midnightblue" points="164.98,-88.38 165.29,-77.79 158.44,-85.87 164.98,-88.38"/>
</g>
<!-- Node9 -->
<g id="node6" class="node">
<title>Node9</title>
<g id="a_node6"><a xlink:href="ImageMessage_8hpp.html" target="_top" xlink:title=" ">
<polygon fill="none" stroke="red" points="20.36,-114.5 20.36,-134.5 131.36,-134.5 131.36,-114.5 20.36,-114.5"/>
<text text-anchor="middle" x="75.86" y="-121.7" font-family="-apple-system, BlinkMacSystemFont, 'Segoe UI', Roboto, Oxygen, Ubuntu, Cantarell, 'Fira Sans', 'Droid Sans', 'Helvetica Neue', sans-serif" font-size="11.00">ImageMessage.hpp</text>
</a>
</g>
</g>
<!-- Node2&#45;&gt;Node9 -->
<g id="edge7" class="edge">
<title>Node2&#45;&gt;Node9</title>
<path fill="none" stroke="midnightblue" d="M117.61,-171.42C110.41,-163.5 99.79,-151.82 91.07,-142.23"/>
<polygon fill="midnightblue" stroke="midnightblue" points="93.61,-139.82 84.3,-134.78 88.43,-144.53 93.61,-139.82"/>
</g>
<!-- Node5&#45;&gt;Node3 -->
<g id="edge5" class="edge">
<title>Node5&#45;&gt;Node3</title>
<path fill="none" stroke="midnightblue" d="M144.59,-57.42C119.6,-48.07 80.58,-33.47 53.26,-23.25"/>
<polygon fill="midnightblue" stroke="midnightblue" points="54.36,-19.92 43.77,-19.7 51.91,-26.48 54.36,-19.92"/>
</g>
<!-- Node5&#45;&gt;Node4 -->
<g id="edge6" class="edge">
<title>Node5&#45;&gt;Node4</title>
<path fill="none" stroke="midnightblue" d="M168.86,-57.42C168.86,-50.22 168.86,-39.9 168.86,-30.86"/>
<polygon fill="midnightblue" stroke="midnightblue" points="172.36,-30.78 168.86,-20.78 165.36,-30.78 172.36,-30.78"/>
</g>
<!-- Node9&#45;&gt;Node3 -->
<g id="edge8" class="edge">
<title>Node9&#45;&gt;Node3</title>
<path fill="none" stroke="midnightblue" d="M68.98,-114.48C62.42,-105.56 52.56,-91.36 45.86,-78 38.14,-62.59 31.66,-44.07 27.4,-30.49"/>
<polygon fill="midnightblue" stroke="midnightblue" points="30.71,-29.37 24.46,-20.82 24.01,-31.4 30.71,-29.37"/>
</g>
<!-- Node9&#45;&gt;Node4 -->
<g id="edge9" class="edge">
<title>Node9&#45;&gt;Node4</title>
<path fill="none" stroke="midnightblue" d="M73.61,-114.47C70.74,-100.82 67.44,-74.66 78.86,-57 88.79,-41.64 105.61,-31.23 122.04,-24.3"/>
<polygon fill="midnightblue" stroke="midnightblue" points="123.54,-27.48 131.61,-20.61 121.02,-20.94 123.54,-27.48"/>
</g>
<!-- Node9&#45;&gt;Node5 -->
<g id="edge10" class="edge">
<title>Node9&#45;&gt;Node5</title>
<path fill="none" stroke="midnightblue" d="M91.22,-114.42C105.76,-105.82 127.81,-92.78 144.71,-82.78"/>
<polygon fill="midnightblue" stroke="midnightblue" points="146.66,-85.7 153.48,-77.6 143.09,-79.67 146.66,-85.7"/>
</g>
</g>
</svg>
