<?xml version="1.0" encoding="UTF-8" standalone="no"?>
<!DOCTYPE svg PUBLIC "-//W3C//DTD SVG 1.1//EN"
 "http://www.w3.org/Graphics/SVG/1.1/DTD/svg11.dtd">
<!-- Generated by graphviz version 2.43.0 (0)
 -->
<!-- Title: libmirai/public/libmirai/Messages/FlashImageMessage.cpp Pages: 1 -->
<svg width="359pt" height="269pt"
 viewBox="0.00 0.00 358.50 269.00" xmlns="http://www.w3.org/2000/svg" xmlns:xlink="http://www.w3.org/1999/xlink">
<g id="graph0" class="graph" transform="scale(1 1) rotate(0) translate(4 265)">
<title>libmirai/public/libmirai/Messages/FlashImageMessage.cpp</title>
<!-- Node1 -->
<g id="node1" class="node">
<title>Node1</title>
<g id="a_node1"><a xlink:title=" ">
<polygon fill="#bfbfbf" stroke="black" points="105.5,-228.5 105.5,-260.5 318.5,-260.5 318.5,-228.5 105.5,-228.5"/>
<text text-anchor="start" x="113.5" y="-247.7" font-family="-apple-system,BlinkMacSystemFont,'SegoeUI',Roboto,Oxygen,Ubuntu,Cantarell,'FiraSans','DroidSans','HelveticaNeue',sans-serif" font-size="11.00">libmirai/public/libmirai</text>
<text text-anchor="middle" x="212" y="-235.7" font-family="-apple-system,BlinkMacSystemFont,'SegoeUI',Roboto,Oxygen,Ubuntu,Cantarell,'FiraSans','DroidSans','HelveticaNeue',sans-serif" font-size="11.00">/Messages/FlashImageMessage.cpp</text>
</a>
</g>
</g>
<!-- Node2 -->
<g id="node2" class="node">
<title>Node2</title>
<g id="a_node2"><a xlink:href="FlashImageMessage_8hpp.html" target="_top" xlink:title=" ">
<polygon fill="none" stroke="black" points="59,-171.5 59,-191.5 211,-191.5 211,-171.5 59,-171.5"/>
<text text-anchor="middle" x="135" y="-178.7" font-family="-apple-system,BlinkMacSystemFont,'SegoeUI',Roboto,Oxygen,Ubuntu,Cantarell,'FiraSans','DroidSans','HelveticaNeue',sans-serif" font-size="11.00">FlashImageMessage.hpp</text>
</a>
</g>
</g>
<!-- Node1&#45;&gt;Node2 -->
<g id="edge1" class="edge">
<title>Node1&#45;&gt;Node2</title>
<path fill="none" stroke="midnightblue" d="M192.97,-228.42C181.21,-219.11 166.17,-207.19 154.36,-197.84"/>
<polygon fill="midnightblue" stroke="midnightblue" points="156.43,-195.01 146.42,-191.55 152.08,-200.5 156.43,-195.01"/>
</g>
<!-- Node14 -->
<g id="node7" class="node">
<title>Node14</title>
<g id="a_node7"><a xlink:title=" ">
<polygon fill="none" stroke="#bfbfbf" points="229.5,-171.5 229.5,-191.5 350.5,-191.5 350.5,-171.5 229.5,-171.5"/>
<text text-anchor="middle" x="290" y="-178.7" font-family="-apple-system,BlinkMacSystemFont,'SegoeUI',Roboto,Oxygen,Ubuntu,Cantarell,'FiraSans','DroidSans','HelveticaNeue',sans-serif" font-size="11.00">nlohmann/json.hpp</text>
</a>
</g>
</g>
<!-- Node1&#45;&gt;Node14 -->
<g id="edge11" class="edge">
<title>Node1&#45;&gt;Node14</title>
<path fill="none" stroke="midnightblue" d="M231.28,-228.42C243.19,-219.11 258.42,-207.19 270.39,-197.84"/>
<polygon fill="midnightblue" stroke="midnightblue" points="272.71,-200.46 278.43,-191.55 268.4,-194.95 272.71,-200.46"/>
</g>
<!-- Node3 -->
<g id="node3" class="node">
<title>Node3</title>
<g id="a_node3"><a xlink:title=" ">
<polygon fill="none" stroke="#bfbfbf" points="0,-0.5 0,-20.5 48,-20.5 48,-0.5 0,-0.5"/>
<text text-anchor="middle" x="24" y="-7.7" font-family="-apple-system,BlinkMacSystemFont,'SegoeUI',Roboto,Oxygen,Ubuntu,Cantarell,'FiraSans','DroidSans','HelveticaNeue',sans-serif" font-size="11.00">string</text>
</a>
</g>
</g>
<!-- Node2&#45;&gt;Node3 -->
<g id="edge2" class="edge">
<title>Node2&#45;&gt;Node3</title>
<path fill="none" stroke="midnightblue" d="M69.95,-171.48C48.19,-165.01 26.15,-153.94 13,-135 -8.9,-103.45 5.07,-55.89 15.55,-29.96"/>
<polygon fill="midnightblue" stroke="midnightblue" points="18.85,-31.14 19.58,-20.57 12.42,-28.38 18.85,-31.14"/>
</g>
<!-- Node4 -->
<g id="node4" class="node">
<title>Node4</title>
<g id="a_node4"><a xlink:title=" ">
<polygon fill="none" stroke="#bfbfbf" points="108,-0.5 108,-20.5 254,-20.5 254,-0.5 108,-0.5"/>
<text text-anchor="middle" x="181" y="-7.7" font-family="-apple-system,BlinkMacSystemFont,'SegoeUI',Roboto,Oxygen,Ubuntu,Cantarell,'FiraSans','DroidSans','HelveticaNeue',sans-serif" font-size="11.00">nlohmann/json_fwd.hpp</text>
</a>
</g>
</g>
<!-- Node2&#45;&gt;Node4 -->
<g id="edge3" class="edge">
<title>Node2&#45;&gt;Node4</title>
<path fill="none" stroke="midnightblue" d="M160.03,-171.49C194.58,-157.53 255.5,-127.05 281,-78 294.72,-51.59 262.06,-33.96 230.46,-23.53"/>
<polygon fill="midnightblue" stroke="midnightblue" points="231.34,-20.13 220.75,-20.52 229.26,-26.82 231.34,-20.13"/>
</g>
<!-- Node5 -->
<g id="node5" class="node">
<title>Node5</title>
<g id="a_node5"><a xlink:href="BasicTypes_8hpp.html" target="_top" xlink:title=" ">
<polygon fill="none" stroke="red" points="90.5,-57.5 90.5,-77.5 271.5,-77.5 271.5,-57.5 90.5,-57.5"/>
<text text-anchor="middle" x="181" y="-64.7" font-family="-apple-system,BlinkMacSystemFont,'SegoeUI',Roboto,Oxygen,Ubuntu,Cantarell,'FiraSans','DroidSans','HelveticaNeue',sans-serif" font-size="11.00">libmirai/Types/BasicTypes.hpp</text>
</a>
</g>
</g>
<!-- Node2&#45;&gt;Node5 -->
<g id="edge4" class="edge">
<title>Node2&#45;&gt;Node5</title>
<path fill="none" stroke="midnightblue" d="M138.81,-171.45C142.67,-162.27 148.78,-147.66 154,-135 160.66,-118.82 168.14,-100.37 173.54,-87.02"/>
<polygon fill="midnightblue" stroke="midnightblue" points="176.86,-88.13 177.36,-77.55 170.37,-85.51 176.86,-88.13"/>
</g>
<!-- Node9 -->
<g id="node6" class="node">
<title>Node9</title>
<g id="a_node6"><a xlink:href="ImageMessage_8hpp.html" target="_top" xlink:title=" ">
<polygon fill="none" stroke="red" points="21.5,-114.5 21.5,-134.5 144.5,-134.5 144.5,-114.5 21.5,-114.5"/>
<text text-anchor="middle" x="83" y="-121.7" font-family="-apple-system,BlinkMacSystemFont,'SegoeUI',Roboto,Oxygen,Ubuntu,Cantarell,'FiraSans','DroidSans','HelveticaNeue',sans-serif" font-size="11.00">ImageMessage.hpp</text>
</a>
</g>
</g>
<!-- Node2&#45;&gt;Node9 -->
<g id="edge7" class="edge">
<title>Node2&#45;&gt;Node9</title>
<path fill="none" stroke="midnightblue" d="M126.41,-171.42C118.93,-163.5 107.89,-151.82 98.81,-142.23"/>
<polygon fill="midnightblue" stroke="midnightblue" points="101.19,-139.64 91.77,-134.78 96.1,-144.45 101.19,-139.64"/>
</g>
<!-- Node5&#45;&gt;Node3 -->
<g id="edge5" class="edge">
<title>Node5&#45;&gt;Node3</title>
<path fill="none" stroke="midnightblue" d="M155.07,-57.42C128.51,-48.11 87.07,-33.6 57.91,-23.38"/>
<polygon fill="midnightblue" stroke="midnightblue" points="58.75,-19.97 48.16,-19.96 56.44,-26.57 58.75,-19.97"/>
</g>
<!-- Node5&#45;&gt;Node4 -->
<g id="edge6" class="edge">
<title>Node5&#45;&gt;Node4</title>
<path fill="none" stroke="midnightblue" d="M181,-57.42C181,-50.22 181,-39.9 181,-30.86"/>
<polygon fill="midnightblue" stroke="midnightblue" points="184.5,-30.78 181,-20.78 177.5,-30.78 184.5,-30.78"/>
</g>
<!-- Node9&#45;&gt;Node3 -->
<g id="edge8" class="edge">
<title>Node9&#45;&gt;Node3</title>
<path fill="none" stroke="midnightblue" d="M74.57,-114.34C66.83,-105.55 55.47,-91.64 48,-78 39.72,-62.88 33.3,-44.33 29.19,-30.67"/>
<polygon fill="midnightblue" stroke="midnightblue" points="32.52,-29.57 26.4,-20.92 25.79,-31.5 32.52,-29.57"/>
</g>
<!-- Node9&#45;&gt;Node4 -->
<g id="edge9" class="edge">
<title>Node9&#45;&gt;Node4</title>
<path fill="none" stroke="midnightblue" d="M79.96,-114.48C75.95,-100.84 70.66,-74.69 82,-57 92.16,-41.14 109.4,-30.74 126.66,-23.94"/>
<polygon fill="midnightblue" stroke="midnightblue" points="127.97,-27.19 136.21,-20.53 125.62,-20.6 127.97,-27.19"/>
</g>
<!-- Node9&#45;&gt;Node5 -->
<g id="edge10" class="edge">
<title>Node9&#45;&gt;Node5</title>
<path fill="none" stroke="midnightblue" d="M99.18,-114.42C114.65,-105.74 138.18,-92.53 156.04,-82.51"/>
<polygon fill="midnightblue" stroke="midnightblue" points="157.79,-85.54 164.79,-77.6 154.36,-79.44 157.79,-85.54"/>
</g>
</g>
</svg>
