<?xml version="1.0" encoding="UTF-8" standalone="no"?>
<!DOCTYPE svg PUBLIC "-//W3C//DTD SVG 1.1//EN"
 "http://www.w3.org/Graphics/SVG/1.1/DTD/svg11.dtd">
<!-- Generated by graphviz version 3.0.0 (20220413.0242)
 -->
<!-- Title: libmirai/public/libmirai/Messages/FlashImageMessage.hpp Pages: 1 -->
<svg width="558pt" height="326pt"
 viewBox="0.00 0.00 557.50 326.00" xmlns="http://www.w3.org/2000/svg" xmlns:xlink="http://www.w3.org/1999/xlink">
<g id="graph0" class="graph" transform="scale(1 1) rotate(0) translate(4 322)">
<title>libmirai/public/libmirai/Messages/FlashImageMessage.hpp</title>
<!-- Node1 -->
<g id="node1" class="node">
<title>Node1</title>
<g id="a_node1"><a xlink:title=" ">
<polygon fill="#bfbfbf" stroke="black" points="14,-285.5 14,-317.5 206,-317.5 206,-285.5 14,-285.5"/>
<text text-anchor="start" x="22" y="-304.7" font-family="-apple-system, BlinkMacSystemFont, 'Segoe UI', Roboto, Oxygen, Ubuntu, Cantarell, 'Fira Sans', 'Droid Sans', 'Helvetica Neue', sans-serif" font-size="11.00">libmirai/public/libmirai</text>
<text text-anchor="middle" x="110" y="-292.7" font-family="-apple-system, BlinkMacSystemFont, 'Segoe UI', Roboto, Oxygen, Ubuntu, Cantarell, 'Fira Sans', 'Droid Sans', 'Helvetica Neue', sans-serif" font-size="11.00">/Messages/FlashImageMessage.hpp</text>
</a>
</g>
</g>
<!-- Node2 -->
<g id="node2" class="node">
<title>Node2</title>
<g id="a_node2"><a xlink:title=" ">
<polygon fill="none" stroke="#bfbfbf" points="506.5,-57.5 506.5,-77.5 549.5,-77.5 549.5,-57.5 506.5,-57.5"/>
<text text-anchor="middle" x="528" y="-64.7" font-family="-apple-system, BlinkMacSystemFont, 'Segoe UI', Roboto, Oxygen, Ubuntu, Cantarell, 'Fira Sans', 'Droid Sans', 'Helvetica Neue', sans-serif" font-size="11.00">string</text>
</a>
</g>
</g>
<!-- Node1&#45;&gt;Node2 -->
<g id="edge1" class="edge">
<title>Node1&#45;&gt;Node2</title>
<path fill="none" stroke="midnightblue" d="M188.15,-285.49C260.39,-269.43 369.07,-239.63 454,-192 487.8,-173.04 501.79,-169.21 520,-135 527.68,-120.56 529.34,-101.92 529.27,-88.05"/>
<polygon fill="midnightblue" stroke="midnightblue" points="532.76,-87.59 528.9,-77.72 525.76,-87.84 532.76,-87.59"/>
</g>
<!-- Node3 -->
<g id="node3" class="node">
<title>Node3</title>
<g id="a_node3"><a xlink:title=" ">
<polygon fill="none" stroke="#bfbfbf" points="111.5,-0.5 111.5,-20.5 242.5,-20.5 242.5,-0.5 111.5,-0.5"/>
<text text-anchor="middle" x="177" y="-7.7" font-family="-apple-system, BlinkMacSystemFont, 'Segoe UI', Roboto, Oxygen, Ubuntu, Cantarell, 'Fira Sans', 'Droid Sans', 'Helvetica Neue', sans-serif" font-size="11.00">nlohmann/json_fwd.hpp</text>
</a>
</g>
</g>
<!-- Node1&#45;&gt;Node3 -->
<g id="edge2" class="edge">
<title>Node1&#45;&gt;Node3</title>
<path fill="none" stroke="midnightblue" d="M80.81,-285.45C48.22,-266.31 0,-229.97 0,-182.5 0,-182.5 0,-182.5 0,-123.5 0,-66.28 66.88,-37.08 118.41,-23.08"/>
<polygon fill="midnightblue" stroke="midnightblue" points="119.36,-26.45 128.17,-20.56 117.61,-19.68 119.36,-26.45"/>
</g>
<!-- Node4 -->
<g id="node4" class="node">
<title>Node4</title>
<g id="a_node4"><a xlink:href="BasicTypes_8hpp.html" target="_top" xlink:title=" ">
<polygon fill="none" stroke="black" points="66,-114.5 66,-134.5 228,-134.5 228,-114.5 66,-114.5"/>
<text text-anchor="middle" x="147" y="-121.7" font-family="-apple-system, BlinkMacSystemFont, 'Segoe UI', Roboto, Oxygen, Ubuntu, Cantarell, 'Fira Sans', 'Droid Sans', 'Helvetica Neue', sans-serif" font-size="11.00">libmirai/Types/BasicTypes.hpp</text>
</a>
</g>
</g>
<!-- Node1&#45;&gt;Node4 -->
<g id="edge3" class="edge">
<title>Node1&#45;&gt;Node4</title>
<path fill="none" stroke="midnightblue" d="M113.22,-285.28C119.98,-253.31 135.63,-179.28 143.01,-144.37"/>
<polygon fill="midnightblue" stroke="midnightblue" points="146.45,-145.02 145.09,-134.51 139.6,-143.57 146.45,-145.02"/>
</g>
<!-- Node8 -->
<g id="node8" class="node">
<title>Node8</title>
<g id="a_node8"><a xlink:href="ImageMessage_8hpp.html" target="_top" xlink:title=" ">
<polygon fill="none" stroke="black" points="155.5,-228.5 155.5,-248.5 266.5,-248.5 266.5,-228.5 155.5,-228.5"/>
<text text-anchor="middle" x="211" y="-235.7" font-family="-apple-system, BlinkMacSystemFont, 'Segoe UI', Roboto, Oxygen, Ubuntu, Cantarell, 'Fira Sans', 'Droid Sans', 'Helvetica Neue', sans-serif" font-size="11.00">ImageMessage.hpp</text>
</a>
</g>
</g>
<!-- Node1&#45;&gt;Node8 -->
<g id="edge10" class="edge">
<title>Node1&#45;&gt;Node8</title>
<path fill="none" stroke="midnightblue" d="M134.97,-285.42C150.98,-275.75 171.65,-263.27 187.39,-253.76"/>
<polygon fill="midnightblue" stroke="midnightblue" points="189.27,-256.71 196.02,-248.55 185.65,-250.72 189.27,-256.71"/>
</g>
<!-- Node4&#45;&gt;Node2 -->
<g id="edge6" class="edge">
<title>Node4&#45;&gt;Node2</title>
<path fill="none" stroke="midnightblue" d="M209.49,-114.48C291.71,-102.61 433.14,-82.19 496.13,-73.1"/>
<polygon fill="midnightblue" stroke="midnightblue" points="496.85,-76.53 506.25,-71.64 495.85,-69.6 496.85,-76.53"/>
</g>
<!-- Node4&#45;&gt;Node3 -->
<g id="edge7" class="edge">
<title>Node4&#45;&gt;Node3</title>
<path fill="none" stroke="midnightblue" d="M136.51,-114.45C122.99,-101.65 102.42,-77.51 113,-57 120.04,-43.35 133.28,-32.9 145.9,-25.48"/>
<polygon fill="midnightblue" stroke="midnightblue" points="147.76,-28.46 154.88,-20.61 144.42,-22.3 147.76,-28.46"/>
</g>
<!-- Node5 -->
<g id="node5" class="node">
<title>Node5</title>
<g id="a_node5"><a xlink:title=" ">
<polygon fill="none" stroke="#bfbfbf" points="122,-57.5 122,-77.5 172,-77.5 172,-57.5 122,-57.5"/>
<text text-anchor="middle" x="147" y="-64.7" font-family="-apple-system, BlinkMacSystemFont, 'Segoe UI', Roboto, Oxygen, Ubuntu, Cantarell, 'Fira Sans', 'Droid Sans', 'Helvetica Neue', sans-serif" font-size="11.00">chrono</text>
</a>
</g>
</g>
<!-- Node4&#45;&gt;Node5 -->
<g id="edge4" class="edge">
<title>Node4&#45;&gt;Node5</title>
<path fill="none" stroke="midnightblue" d="M147,-114.42C147,-107.22 147,-96.9 147,-87.86"/>
<polygon fill="midnightblue" stroke="midnightblue" points="150.5,-87.78 147,-77.78 143.5,-87.78 150.5,-87.78"/>
</g>
<!-- Node6 -->
<g id="node6" class="node">
<title>Node6</title>
<g id="a_node6"><a xlink:title=" ">
<polygon fill="none" stroke="#bfbfbf" points="190,-57.5 190,-77.5 232,-77.5 232,-57.5 190,-57.5"/>
<text text-anchor="middle" x="211" y="-64.7" font-family="-apple-system, BlinkMacSystemFont, 'Segoe UI', Roboto, Oxygen, Ubuntu, Cantarell, 'Fira Sans', 'Droid Sans', 'Helvetica Neue', sans-serif" font-size="11.00">ctime</text>
</a>
</g>
</g>
<!-- Node4&#45;&gt;Node6 -->
<g id="edge5" class="edge">
<title>Node4&#45;&gt;Node6</title>
<path fill="none" stroke="midnightblue" d="M157.57,-114.42C167.05,-106.27 181.19,-94.12 192.54,-84.37"/>
<polygon fill="midnightblue" stroke="midnightblue" points="194.9,-86.95 200.2,-77.78 190.34,-81.64 194.9,-86.95"/>
</g>
<!-- Node7 -->
<g id="node7" class="node">
<title>Node7</title>
<g id="a_node7"><a xlink:href="Serializable_8hpp.html" target="_top" xlink:title=" ">
<polygon fill="none" stroke="black" points="288,-57.5 288,-77.5 450,-77.5 450,-57.5 288,-57.5"/>
<text text-anchor="middle" x="369" y="-64.7" font-family="-apple-system, BlinkMacSystemFont, 'Segoe UI', Roboto, Oxygen, Ubuntu, Cantarell, 'Fira Sans', 'Droid Sans', 'Helvetica Neue', sans-serif" font-size="11.00">libmirai/Types/Serializable.hpp</text>
</a>
</g>
</g>
<!-- Node4&#45;&gt;Node7 -->
<g id="edge8" class="edge">
<title>Node4&#45;&gt;Node7</title>
<path fill="none" stroke="midnightblue" d="M183.66,-114.42C221.77,-104.98 281.53,-90.17 322.84,-79.94"/>
<polygon fill="midnightblue" stroke="midnightblue" points="323.79,-83.31 332.66,-77.5 322.11,-76.51 323.79,-83.31"/>
</g>
<!-- Node7&#45;&gt;Node3 -->
<g id="edge9" class="edge">
<title>Node7&#45;&gt;Node3</title>
<path fill="none" stroke="midnightblue" d="M337.3,-57.42C304.68,-48.08 253.74,-33.48 218.06,-23.26"/>
<polygon fill="midnightblue" stroke="midnightblue" points="219.01,-19.89 208.43,-20.5 217.08,-26.62 219.01,-19.89"/>
</g>
<!-- Node8&#45;&gt;Node2 -->
<g id="edge11" class="edge">
<title>Node8&#45;&gt;Node2</title>
<path fill="none" stroke="midnightblue" d="M266.55,-233.45C332.11,-225.6 439.8,-202.57 500,-135 512.09,-121.43 519.46,-101.9 523.59,-87.51"/>
<polygon fill="midnightblue" stroke="midnightblue" points="527.01,-88.25 526.14,-77.69 520.24,-86.49 527.01,-88.25"/>
</g>
<!-- Node8&#45;&gt;Node3 -->
<g id="edge12" class="edge">
<title>Node8&#45;&gt;Node3</title>
<path fill="none" stroke="midnightblue" d="M183.41,-228.44C146.83,-214.76 83.77,-184.97 57,-135 31.47,-87.35 101.88,-45.4 145.43,-24.87"/>
<polygon fill="midnightblue" stroke="midnightblue" points="147.16,-27.93 154.8,-20.58 144.25,-21.56 147.16,-27.93"/>
</g>
<!-- Node8&#45;&gt;Node4 -->
<g id="edge13" class="edge">
<title>Node8&#45;&gt;Node4</title>
<path fill="none" stroke="midnightblue" d="M205.76,-228.33C195.21,-209.88 171.24,-167.92 157.39,-143.69"/>
<polygon fill="midnightblue" stroke="midnightblue" points="160.31,-141.74 152.31,-134.79 154.23,-145.21 160.31,-141.74"/>
</g>
<!-- Node9 -->
<g id="node9" class="node">
<title>Node9</title>
<g id="a_node9"><a xlink:href="MediaTypes_8hpp.html" target="_top" xlink:title=" ">
<polygon fill="none" stroke="red" points="202.5,-171.5 202.5,-191.5 367.5,-191.5 367.5,-171.5 202.5,-171.5"/>
<text text-anchor="middle" x="285" y="-178.7" font-family="-apple-system, BlinkMacSystemFont, 'Segoe UI', Roboto, Oxygen, Ubuntu, Cantarell, 'Fira Sans', 'Droid Sans', 'Helvetica Neue', sans-serif" font-size="11.00">libmirai/Types/MediaTypes.hpp</text>
</a>
</g>
</g>
<!-- Node8&#45;&gt;Node9 -->
<g id="edge14" class="edge">
<title>Node8&#45;&gt;Node9</title>
<path fill="none" stroke="midnightblue" d="M223.22,-228.42C234.47,-220.06 251.37,-207.5 264.65,-197.62"/>
<polygon fill="midnightblue" stroke="midnightblue" points="266.82,-200.37 272.76,-191.6 262.65,-194.75 266.82,-200.37"/>
</g>
<!-- Node12 -->
<g id="node10" class="node">
<title>Node12</title>
<g id="a_node10"><a xlink:href="MessageBase_8hpp.html" target="_top" xlink:title=" ">
<polygon fill="none" stroke="red" points="360,-114.5 360,-134.5 466,-134.5 466,-114.5 360,-114.5"/>
<text text-anchor="middle" x="413" y="-121.7" font-family="-apple-system, BlinkMacSystemFont, 'Segoe UI', Roboto, Oxygen, Ubuntu, Cantarell, 'Fira Sans', 'Droid Sans', 'Helvetica Neue', sans-serif" font-size="11.00">MessageBase.hpp</text>
</a>
</g>
</g>
<!-- Node8&#45;&gt;Node12 -->
<g id="edge20" class="edge">
<title>Node8&#45;&gt;Node12</title>
<path fill="none" stroke="midnightblue" d="M266.8,-233.31C301.63,-228.2 345.64,-216.9 377,-192 392.22,-179.91 401.88,-159.56 407.32,-144.55"/>
<polygon fill="midnightblue" stroke="midnightblue" points="410.74,-145.35 410.55,-134.76 404.09,-143.16 410.74,-145.35"/>
</g>
<!-- Node9&#45;&gt;Node2 -->
<g id="edge16" class="edge">
<title>Node9&#45;&gt;Node2</title>
<path fill="none" stroke="midnightblue" d="M367.77,-172.77C402.93,-166.54 443.09,-155.3 475,-135 493.8,-123.04 508.86,-102.07 518.05,-86.87"/>
<polygon fill="midnightblue" stroke="midnightblue" points="521.27,-88.28 523.22,-77.86 515.2,-84.79 521.27,-88.28"/>
</g>
<!-- Node9&#45;&gt;Node3 -->
<g id="edge17" class="edge">
<title>Node9&#45;&gt;Node3</title>
<path fill="none" stroke="midnightblue" d="M283.68,-171.21C280.18,-149.3 268.93,-93.52 241,-57 231.2,-44.19 216.8,-33.5 204.13,-25.71"/>
<polygon fill="midnightblue" stroke="midnightblue" points="205.71,-22.58 195.31,-20.56 202.18,-28.63 205.71,-22.58"/>
</g>
<!-- Node9&#45;&gt;Node4 -->
<g id="edge18" class="edge">
<title>Node9&#45;&gt;Node4</title>
<path fill="none" stroke="midnightblue" d="M262.21,-171.42C239.64,-162.42 204.85,-148.56 179.41,-138.42"/>
<polygon fill="midnightblue" stroke="midnightblue" points="180.41,-135.05 169.82,-134.6 177.82,-141.55 180.41,-135.05"/>
</g>
<!-- Node9&#45;&gt;Node6 -->
<g id="edge15" class="edge">
<title>Node9&#45;&gt;Node6</title>
<path fill="none" stroke="midnightblue" d="M278.94,-171.33C266.69,-152.79 238.78,-110.55 222.81,-86.37"/>
<polygon fill="midnightblue" stroke="midnightblue" points="225.57,-84.21 217.14,-77.79 219.73,-88.06 225.57,-84.21"/>
</g>
<!-- Node9&#45;&gt;Node7 -->
<g id="edge19" class="edge">
<title>Node9&#45;&gt;Node7</title>
<path fill="none" stroke="midnightblue" d="M291.87,-171.33C305.84,-152.71 337.74,-110.17 355.84,-86.05"/>
<polygon fill="midnightblue" stroke="midnightblue" points="358.83,-87.89 362.03,-77.79 353.23,-83.69 358.83,-87.89"/>
</g>
<!-- Node12&#45;&gt;Node2 -->
<g id="edge21" class="edge">
<title>Node12&#45;&gt;Node2</title>
<path fill="none" stroke="midnightblue" d="M431.99,-114.42C450.47,-105.58 478.76,-92.05 499.86,-81.96"/>
<polygon fill="midnightblue" stroke="midnightblue" points="501.47,-85.07 508.98,-77.6 498.45,-78.75 501.47,-85.07"/>
</g>
<!-- Node12&#45;&gt;Node3 -->
<g id="edge22" class="edge">
<title>Node12&#45;&gt;Node3</title>
<path fill="none" stroke="midnightblue" d="M427.09,-114.48C445.99,-101.3 475.38,-76.24 459,-57 433.01,-26.48 327.41,-16.36 253.09,-13.05"/>
<polygon fill="midnightblue" stroke="midnightblue" points="252.96,-9.54 242.83,-12.63 252.67,-16.54 252.96,-9.54"/>
</g>
<!-- Node12&#45;&gt;Node7 -->
<g id="edge23" class="edge">
<title>Node12&#45;&gt;Node7</title>
<path fill="none" stroke="midnightblue" d="M405.73,-114.42C399.53,-106.66 390.43,-95.29 382.84,-85.8"/>
<polygon fill="midnightblue" stroke="midnightblue" points="385.4,-83.4 376.42,-77.78 379.94,-87.77 385.4,-83.4"/>
</g>
</g>
</svg>
