<?xml version="1.0" encoding="UTF-8" standalone="no"?>
<!DOCTYPE svg PUBLIC "-//W3C//DTD SVG 1.1//EN"
 "http://www.w3.org/Graphics/SVG/1.1/DTD/svg11.dtd">
<!-- Generated by graphviz version 3.0.0 (20220413.0242)
 -->
<!-- Title: libmirai/public/libmirai/Messages/ForwardMessage.hpp Pages: 1 -->
<svg width="1954pt" height="395pt"
 viewBox="0.00 0.00 1953.86 395.00" xmlns="http://www.w3.org/2000/svg" xmlns:xlink="http://www.w3.org/1999/xlink">
<g id="graph0" class="graph" transform="scale(1 1) rotate(0) translate(4 391)">
<title>libmirai/public/libmirai/Messages/ForwardMessage.hpp</title>
<!-- Node1 -->
<g id="node1" class="node">
<title>Node1</title>
<g id="a_node1"><a xlink:title=" ">
<polygon fill="#bfbfbf" stroke="black" points="577.86,-354.5 577.86,-386.5 753.86,-386.5 753.86,-354.5 577.86,-354.5"/>
<text text-anchor="start" x="585.86" y="-373.7" font-family="-apple-system, BlinkMacSystemFont, 'Segoe UI', Roboto, Oxygen, Ubuntu, Cantarell, 'Fira Sans', 'Droid Sans', 'Helvetica Neue', sans-serif" font-size="11.00">libmirai/public/libmirai</text>
<text text-anchor="middle" x="665.86" y="-361.7" font-family="-apple-system, BlinkMacSystemFont, 'Segoe UI', Roboto, Oxygen, Ubuntu, Cantarell, 'Fira Sans', 'Droid Sans', 'Helvetica Neue', sans-serif" font-size="11.00">/Messages/ForwardMessage.hpp</text>
</a>
</g>
</g>
<!-- Node2 -->
<g id="node2" class="node">
<title>Node2</title>
<g id="a_node2"><a xlink:title=" ">
<polygon fill="none" stroke="#bfbfbf" points="1848.86,-57.5 1848.86,-77.5 1890.86,-77.5 1890.86,-57.5 1848.86,-57.5"/>
<text text-anchor="middle" x="1869.86" y="-64.7" font-family="-apple-system, BlinkMacSystemFont, 'Segoe UI', Roboto, Oxygen, Ubuntu, Cantarell, 'Fira Sans', 'Droid Sans', 'Helvetica Neue', sans-serif" font-size="11.00">ctime</text>
</a>
</g>
</g>
<!-- Node1&#45;&gt;Node2 -->
<g id="edge1" class="edge">
<title>Node1&#45;&gt;Node2</title>
<path fill="none" stroke="midnightblue" d="M754.19,-369.94C1037.93,-370.21 1907.86,-361.57 1907.86,-245.5 1907.86,-245.5 1907.86,-245.5 1907.86,-180.5 1907.86,-145.93 1891.43,-108.4 1880.18,-86.74"/>
<polygon fill="midnightblue" stroke="midnightblue" points="1883.14,-84.86 1875.31,-77.73 1876.98,-88.19 1883.14,-84.86"/>
</g>
<!-- Node3 -->
<g id="node3" class="node">
<title>Node3</title>
<g id="a_node3"><a xlink:title=" ">
<polygon fill="none" stroke="#bfbfbf" points="206.86,-234.5 206.86,-254.5 260.86,-254.5 260.86,-234.5 206.86,-234.5"/>
<text text-anchor="middle" x="233.86" y="-241.7" font-family="-apple-system, BlinkMacSystemFont, 'Segoe UI', Roboto, Oxygen, Ubuntu, Cantarell, 'Fira Sans', 'Droid Sans', 'Helvetica Neue', sans-serif" font-size="11.00">optional</text>
</a>
</g>
</g>
<!-- Node1&#45;&gt;Node3 -->
<g id="edge2" class="edge">
<title>Node1&#45;&gt;Node3</title>
<path fill="none" stroke="midnightblue" d="M577.46,-362.48C488.85,-354.39 359.25,-339.41 313.86,-318 286.58,-305.13 261.98,-279.79 247.48,-262.74"/>
<polygon fill="midnightblue" stroke="midnightblue" points="249.91,-260.19 240.85,-254.69 244.5,-264.64 249.91,-260.19"/>
</g>
<!-- Node4 -->
<g id="node4" class="node">
<title>Node4</title>
<g id="a_node4"><a xlink:title=" ">
<polygon fill="none" stroke="#bfbfbf" points="279.36,-234.5 279.36,-254.5 320.36,-254.5 320.36,-234.5 279.36,-234.5"/>
<text text-anchor="middle" x="299.86" y="-241.7" font-family="-apple-system, BlinkMacSystemFont, 'Segoe UI', Roboto, Oxygen, Ubuntu, Cantarell, 'Fira Sans', 'Droid Sans', 'Helvetica Neue', sans-serif" font-size="11.00">utility</text>
</a>
</g>
</g>
<!-- Node1&#45;&gt;Node4 -->
<g id="edge3" class="edge">
<title>Node1&#45;&gt;Node4</title>
<path fill="none" stroke="midnightblue" d="M577.7,-364.95C492.95,-358.97 372.36,-345.79 334.86,-318 317.54,-305.17 308.39,-281.49 303.85,-264.68"/>
<polygon fill="midnightblue" stroke="midnightblue" points="307.22,-263.73 301.49,-254.82 300.41,-265.36 307.22,-263.73"/>
</g>
<!-- Node5 -->
<g id="node5" class="node">
<title>Node5</title>
<g id="a_node5"><a xlink:title=" ">
<polygon fill="none" stroke="#bfbfbf" points="376.86,-234.5 376.86,-254.5 422.86,-254.5 422.86,-234.5 376.86,-234.5"/>
<text text-anchor="middle" x="399.86" y="-241.7" font-family="-apple-system, BlinkMacSystemFont, 'Segoe UI', Roboto, Oxygen, Ubuntu, Cantarell, 'Fira Sans', 'Droid Sans', 'Helvetica Neue', sans-serif" font-size="11.00">vector</text>
</a>
</g>
</g>
<!-- Node1&#45;&gt;Node5 -->
<g id="edge4" class="edge">
<title>Node1&#45;&gt;Node5</title>
<path fill="none" stroke="midnightblue" d="M633.51,-354.42C581.07,-329.97 478.36,-282.09 428.45,-258.82"/>
<polygon fill="midnightblue" stroke="midnightblue" points="429.74,-255.57 419.2,-254.51 426.78,-261.91 429.74,-255.57"/>
</g>
<!-- Node6 -->
<g id="node6" class="node">
<title>Node6</title>
<g id="a_node6"><a xlink:title=" ">
<polygon fill="none" stroke="#bfbfbf" points="1067.36,-0.5 1067.36,-20.5 1198.36,-20.5 1198.36,-0.5 1067.36,-0.5"/>
<text text-anchor="middle" x="1132.86" y="-7.7" font-family="-apple-system, BlinkMacSystemFont, 'Segoe UI', Roboto, Oxygen, Ubuntu, Cantarell, 'Fira Sans', 'Droid Sans', 'Helvetica Neue', sans-serif" font-size="11.00">nlohmann/json_fwd.hpp</text>
</a>
</g>
</g>
<!-- Node1&#45;&gt;Node6 -->
<g id="edge5" class="edge">
<title>Node1&#45;&gt;Node6</title>
<path fill="none" stroke="midnightblue" d="M753.92,-370.04C985.03,-370.73 1604.74,-367.74 1802.86,-318 1871.97,-300.65 1945.86,-316.76 1945.86,-245.5 1945.86,-245.5 1945.86,-245.5 1945.86,-123.5 1945.86,-87.56 1931.18,-74.62 1899.86,-57 1840.67,-23.7 1390.27,-14.59 1208.54,-12.25"/>
<polygon fill="midnightblue" stroke="midnightblue" points="1208.57,-8.75 1198.53,-12.13 1208.48,-15.75 1208.57,-8.75"/>
</g>
<!-- Node7 -->
<g id="node7" class="node">
<title>Node7</title>
<g id="a_node7"><a xlink:href="BasicTypes_8hpp.html" target="_top" xlink:title=" ">
<polygon fill="none" stroke="black" points="1628.86,-114.5 1628.86,-134.5 1790.86,-134.5 1790.86,-114.5 1628.86,-114.5"/>
<text text-anchor="middle" x="1709.86" y="-121.7" font-family="-apple-system, BlinkMacSystemFont, 'Segoe UI', Roboto, Oxygen, Ubuntu, Cantarell, 'Fira Sans', 'Droid Sans', 'Helvetica Neue', sans-serif" font-size="11.00">libmirai/Types/BasicTypes.hpp</text>
</a>
</g>
</g>
<!-- Node1&#45;&gt;Node7 -->
<g id="edge6" class="edge">
<title>Node1&#45;&gt;Node7</title>
<path fill="none" stroke="midnightblue" d="M753.95,-367.25C973.83,-360.55 1541.46,-336.26 1712.86,-261 1761.33,-239.72 1817.6,-216.68 1790.86,-171 1782.09,-156.01 1766.37,-145.59 1751.1,-138.53"/>
<polygon fill="midnightblue" stroke="midnightblue" points="1752.29,-135.23 1741.72,-134.57 1749.56,-141.68 1752.29,-135.23"/>
</g>
<!-- Node11 -->
<g id="node11" class="node">
<title>Node11</title>
<g id="a_node11"><a xlink:href="MessageBase_8hpp.html" target="_top" xlink:title=" ">
<polygon fill="none" stroke="black" points="709.86,-114.5 709.86,-134.5 815.86,-134.5 815.86,-114.5 709.86,-114.5"/>
<text text-anchor="middle" x="762.86" y="-121.7" font-family="-apple-system, BlinkMacSystemFont, 'Segoe UI', Roboto, Oxygen, Ubuntu, Cantarell, 'Fira Sans', 'Droid Sans', 'Helvetica Neue', sans-serif" font-size="11.00">MessageBase.hpp</text>
</a>
</g>
</g>
<!-- Node1&#45;&gt;Node11 -->
<g id="edge13" class="edge">
<title>Node1&#45;&gt;Node11</title>
<path fill="none" stroke="midnightblue" d="M577.84,-359.03C467.84,-342.53 301.62,-304.17 367.86,-228 405.71,-184.49 569.67,-208.72 624.86,-192 666.98,-179.24 712.32,-155.19 739.1,-139.78"/>
<polygon fill="midnightblue" stroke="midnightblue" points="740.9,-142.78 747.77,-134.72 737.37,-136.74 740.9,-142.78"/>
</g>
<!-- Node13 -->
<g id="node13" class="node">
<title>Node13</title>
<g id="a_node13"><a xlink:href="MessageChain_8hpp.html" target="_top" xlink:title=" ">
<polygon fill="none" stroke="black" points="700.36,-297.5 700.36,-317.5 809.36,-317.5 809.36,-297.5 700.36,-297.5"/>
<text text-anchor="middle" x="754.86" y="-304.7" font-family="-apple-system, BlinkMacSystemFont, 'Segoe UI', Roboto, Oxygen, Ubuntu, Cantarell, 'Fira Sans', 'Droid Sans', 'Helvetica Neue', sans-serif" font-size="11.00">MessageChain.hpp</text>
</a>
</g>
</g>
<!-- Node1&#45;&gt;Node13 -->
<g id="edge18" class="edge">
<title>Node1&#45;&gt;Node13</title>
<path fill="none" stroke="midnightblue" d="M687.86,-354.42C701.71,-344.93 719.51,-332.73 733.28,-323.29"/>
<polygon fill="midnightblue" stroke="midnightblue" points="735.39,-326.09 741.66,-317.55 731.44,-320.31 735.39,-326.09"/>
</g>
<!-- Node7&#45;&gt;Node2 -->
<g id="edge8" class="edge">
<title>Node7&#45;&gt;Node2</title>
<path fill="none" stroke="midnightblue" d="M1736.28,-114.42C1764.51,-104.71 1809.21,-89.35 1839.03,-79.1"/>
<polygon fill="midnightblue" stroke="midnightblue" points="1840.21,-82.39 1848.53,-75.83 1837.93,-75.77 1840.21,-82.39"/>
</g>
<!-- Node7&#45;&gt;Node6 -->
<g id="edge10" class="edge">
<title>Node7&#45;&gt;Node6</title>
<path fill="none" stroke="midnightblue" d="M1700.58,-114.44C1684.6,-99.49 1650.2,-69.99 1614.86,-57 1542.31,-30.32 1325.16,-18.49 1208.67,-13.94"/>
<polygon fill="midnightblue" stroke="midnightblue" points="1208.53,-10.43 1198.41,-13.55 1208.27,-17.43 1208.53,-10.43"/>
</g>
<!-- Node8 -->
<g id="node8" class="node">
<title>Node8</title>
<g id="a_node8"><a xlink:title=" ">
<polygon fill="none" stroke="#bfbfbf" points="1684.86,-57.5 1684.86,-77.5 1734.86,-77.5 1734.86,-57.5 1684.86,-57.5"/>
<text text-anchor="middle" x="1709.86" y="-64.7" font-family="-apple-system, BlinkMacSystemFont, 'Segoe UI', Roboto, Oxygen, Ubuntu, Cantarell, 'Fira Sans', 'Droid Sans', 'Helvetica Neue', sans-serif" font-size="11.00">chrono</text>
</a>
</g>
</g>
<!-- Node7&#45;&gt;Node8 -->
<g id="edge7" class="edge">
<title>Node7&#45;&gt;Node8</title>
<path fill="none" stroke="midnightblue" d="M1709.86,-114.42C1709.86,-107.22 1709.86,-96.9 1709.86,-87.86"/>
<polygon fill="midnightblue" stroke="midnightblue" points="1713.36,-87.78 1709.86,-77.78 1706.36,-87.78 1713.36,-87.78"/>
</g>
<!-- Node9 -->
<g id="node9" class="node">
<title>Node9</title>
<g id="a_node9"><a xlink:title=" ">
<polygon fill="none" stroke="#bfbfbf" points="915.36,-57.5 915.36,-77.5 958.36,-77.5 958.36,-57.5 915.36,-57.5"/>
<text text-anchor="middle" x="936.86" y="-64.7" font-family="-apple-system, BlinkMacSystemFont, 'Segoe UI', Roboto, Oxygen, Ubuntu, Cantarell, 'Fira Sans', 'Droid Sans', 'Helvetica Neue', sans-serif" font-size="11.00">string</text>
</a>
</g>
</g>
<!-- Node7&#45;&gt;Node9 -->
<g id="edge9" class="edge">
<title>Node7&#45;&gt;Node9</title>
<path fill="none" stroke="midnightblue" d="M1628.6,-117.72C1460.37,-105.75 1080.31,-78.71 968.42,-70.75"/>
<polygon fill="midnightblue" stroke="midnightblue" points="968.67,-67.25 958.44,-70.04 968.17,-74.24 968.67,-67.25"/>
</g>
<!-- Node10 -->
<g id="node10" class="node">
<title>Node10</title>
<g id="a_node10"><a xlink:href="Serializable_8hpp.html" target="_top" xlink:title=" ">
<polygon fill="none" stroke="black" points="1369.86,-57.5 1369.86,-77.5 1531.86,-77.5 1531.86,-57.5 1369.86,-57.5"/>
<text text-anchor="middle" x="1450.86" y="-64.7" font-family="-apple-system, BlinkMacSystemFont, 'Segoe UI', Roboto, Oxygen, Ubuntu, Cantarell, 'Fira Sans', 'Droid Sans', 'Helvetica Neue', sans-serif" font-size="11.00">libmirai/Types/Serializable.hpp</text>
</a>
</g>
</g>
<!-- Node7&#45;&gt;Node10 -->
<g id="edge11" class="edge">
<title>Node7&#45;&gt;Node10</title>
<path fill="none" stroke="midnightblue" d="M1667.38,-114.48C1622.5,-104.95 1551.66,-89.9 1503.32,-79.64"/>
<polygon fill="midnightblue" stroke="midnightblue" points="1503.87,-76.18 1493.36,-77.53 1502.42,-83.03 1503.87,-76.18"/>
</g>
<!-- Node10&#45;&gt;Node6 -->
<g id="edge12" class="edge">
<title>Node10&#45;&gt;Node6</title>
<path fill="none" stroke="midnightblue" d="M1398.71,-57.48C1342.91,-47.83 1254.43,-32.53 1195.05,-22.26"/>
<polygon fill="midnightblue" stroke="midnightblue" points="1195.5,-18.78 1185.05,-20.53 1194.3,-25.68 1195.5,-18.78"/>
</g>
<!-- Node11&#45;&gt;Node6 -->
<g id="edge16" class="edge">
<title>Node11&#45;&gt;Node6</title>
<path fill="none" stroke="midnightblue" d="M769.17,-114.37C779.93,-99.59 803.37,-70.69 830.86,-57 869.47,-37.78 980.99,-24.61 1057.14,-17.57"/>
<polygon fill="midnightblue" stroke="midnightblue" points="1057.53,-21.05 1067.17,-16.65 1056.9,-14.07 1057.53,-21.05"/>
</g>
<!-- Node11&#45;&gt;Node9 -->
<g id="edge15" class="edge">
<title>Node11&#45;&gt;Node9</title>
<path fill="none" stroke="midnightblue" d="M791.59,-114.42C822.95,-104.51 872.99,-88.69 905.39,-78.45"/>
<polygon fill="midnightblue" stroke="midnightblue" points="906.76,-81.69 915.24,-75.33 904.65,-75.01 906.76,-81.69"/>
</g>
<!-- Node11&#45;&gt;Node10 -->
<g id="edge17" class="edge">
<title>Node11&#45;&gt;Node10</title>
<path fill="none" stroke="midnightblue" d="M815.99,-119.25C932.88,-109.91 1213.51,-87.47 1359.36,-75.81"/>
<polygon fill="midnightblue" stroke="midnightblue" points="1359.94,-79.28 1369.63,-74.99 1359.38,-72.3 1359.94,-79.28"/>
</g>
<!-- Node12 -->
<g id="node12" class="node">
<title>Node12</title>
<g id="a_node12"><a xlink:title=" ">
<polygon fill="none" stroke="#bfbfbf" points="437.86,-57.5 437.86,-77.5 493.86,-77.5 493.86,-57.5 437.86,-57.5"/>
<text text-anchor="middle" x="465.86" y="-64.7" font-family="-apple-system, BlinkMacSystemFont, 'Segoe UI', Roboto, Oxygen, Ubuntu, Cantarell, 'Fira Sans', 'Droid Sans', 'Helvetica Neue', sans-serif" font-size="11.00">memory</text>
</a>
</g>
</g>
<!-- Node11&#45;&gt;Node12 -->
<g id="edge14" class="edge">
<title>Node11&#45;&gt;Node12</title>
<path fill="none" stroke="midnightblue" d="M714.15,-114.48C655.37,-103.59 557.76,-85.52 504.11,-75.58"/>
<polygon fill="midnightblue" stroke="midnightblue" points="504.46,-72.09 493.99,-73.71 503.19,-78.97 504.46,-72.09"/>
</g>
<!-- Node13&#45;&gt;Node2 -->
<g id="edge20" class="edge">
<title>Node13&#45;&gt;Node2</title>
<path fill="none" stroke="midnightblue" d="M809.62,-306.01C1000.47,-304.03 1629.27,-294.96 1712.86,-261 1793.16,-228.38 1844.14,-128.34 1862.35,-86.84"/>
<polygon fill="midnightblue" stroke="midnightblue" points="1865.57,-88.2 1866.27,-77.63 1859.13,-85.46 1865.57,-88.2"/>
</g>
<!-- Node13&#45;&gt;Node3 -->
<g id="edge22" class="edge">
<title>Node13&#45;&gt;Node3</title>
<path fill="none" stroke="midnightblue" d="M700.09,-306.89C609.24,-306.31 422.27,-299.93 269.86,-261 267.02,-260.27 264.11,-259.35 261.24,-258.32"/>
<polygon fill="midnightblue" stroke="midnightblue" points="262.37,-255 251.79,-254.53 259.76,-261.5 262.37,-255"/>
</g>
<!-- Node13&#45;&gt;Node4 -->
<g id="edge25" class="edge">
<title>Node13&#45;&gt;Node4</title>
<path fill="none" stroke="midnightblue" d="M700.12,-301.93C624.9,-295.22 485.53,-281.27 367.86,-261 355.5,-258.87 342,-255.92 330.31,-253.17"/>
<polygon fill="midnightblue" stroke="midnightblue" points="331.12,-249.77 320.58,-250.83 329.48,-256.57 331.12,-249.77"/>
</g>
<!-- Node13&#45;&gt;Node5 -->
<g id="edge26" class="edge">
<title>Node13&#45;&gt;Node5</title>
<path fill="none" stroke="midnightblue" d="M700.27,-302.93C636.23,-297.78 527.31,-285.98 436.86,-261 434.09,-260.24 431.26,-259.31 428.44,-258.31"/>
<polygon fill="midnightblue" stroke="midnightblue" points="429.71,-255.04 419.12,-254.66 427.15,-261.56 429.71,-255.04"/>
</g>
<!-- Node13&#45;&gt;Node6 -->
<g id="edge27" class="edge">
<title>Node13&#45;&gt;Node6</title>
<path fill="none" stroke="midnightblue" d="M700.24,-301.99C627.96,-295.33 505.01,-281.42 464.86,-261 446.37,-251.6 450.67,-236.74 431.86,-228 345.04,-187.68 -47.94,-250.85 4.86,-171 76.26,-63.04 146.76,-86.2 272.86,-57 420.84,-22.74 875.66,-14.2 1057.04,-12.14"/>
<polygon fill="midnightblue" stroke="midnightblue" points="1057.33,-15.63 1067.29,-12.02 1057.25,-8.63 1057.33,-15.63"/>
</g>
<!-- Node13&#45;&gt;Node11 -->
<g id="edge70" class="edge">
<title>Node13&#45;&gt;Node11</title>
<path fill="none" stroke="midnightblue" d="M745.89,-297.38C725.2,-275.19 677.63,-216.86 700.86,-171 707.71,-157.49 720.66,-147.01 732.97,-139.54"/>
<polygon fill="midnightblue" stroke="midnightblue" points="734.71,-142.58 741.72,-134.63 731.29,-136.47 734.71,-142.58"/>
</g>
<!-- Node13&#45;&gt;Node12 -->
<g id="edge21" class="edge">
<title>Node13&#45;&gt;Node12</title>
<path fill="none" stroke="midnightblue" d="M700.2,-304.95C647.35,-301.57 566.21,-291.35 502.86,-261 482.69,-251.33 485.49,-236.66 464.86,-228 372.36,-189.17 82.91,-265.71 14.86,-192 -43.87,-128.38 308.41,-85.04 427.52,-72.35"/>
<polygon fill="midnightblue" stroke="midnightblue" points="428.08,-75.81 437.65,-71.29 427.34,-68.85 428.08,-75.81"/>
</g>
<!-- Node14 -->
<g id="node14" class="node">
<title>Node14</title>
<g id="a_node14"><a xlink:title=" ">
<polygon fill="none" stroke="#bfbfbf" points="1021.36,-234.5 1021.36,-254.5 1072.36,-254.5 1072.36,-234.5 1021.36,-234.5"/>
<text text-anchor="middle" x="1046.86" y="-241.7" font-family="-apple-system, BlinkMacSystemFont, 'Segoe UI', Roboto, Oxygen, Ubuntu, Cantarell, 'Fira Sans', 'Droid Sans', 'Helvetica Neue', sans-serif" font-size="11.00">cstddef</text>
</a>
</g>
</g>
<!-- Node13&#45;&gt;Node14 -->
<g id="edge19" class="edge">
<title>Node13&#45;&gt;Node14</title>
<path fill="none" stroke="midnightblue" d="M809.62,-299.69C861.13,-292.57 940.1,-279.78 1006.86,-261 1009.85,-260.16 1012.92,-259.18 1015.98,-258.14"/>
<polygon fill="midnightblue" stroke="midnightblue" points="1017.34,-261.36 1025.53,-254.63 1014.93,-254.79 1017.34,-261.36"/>
</g>
<!-- Node15 -->
<g id="node15" class="node">
<title>Node15</title>
<g id="a_node15"><a xlink:title=" ">
<polygon fill="none" stroke="#bfbfbf" points="833.86,-171.5 833.86,-191.5 895.86,-191.5 895.86,-171.5 833.86,-171.5"/>
<text text-anchor="middle" x="864.86" y="-178.7" font-family="-apple-system, BlinkMacSystemFont, 'Segoe UI', Roboto, Oxygen, Ubuntu, Cantarell, 'Fira Sans', 'Droid Sans', 'Helvetica Neue', sans-serif" font-size="11.00">stdexcept</text>
</a>
</g>
</g>
<!-- Node13&#45;&gt;Node15 -->
<g id="edge23" class="edge">
<title>Node13&#45;&gt;Node15</title>
<path fill="none" stroke="midnightblue" d="M760.55,-297.27C770.16,-282.04 790.63,-251.03 811.86,-228 821.88,-217.13 834.37,-206.3 844.71,-197.93"/>
<polygon fill="midnightblue" stroke="midnightblue" points="847.12,-200.49 852.79,-191.54 842.78,-195 847.12,-200.49"/>
</g>
<!-- Node16 -->
<g id="node16" class="node">
<title>Node16</title>
<g id="a_node16"><a xlink:title=" ">
<polygon fill="none" stroke="#bfbfbf" points="1128.86,-234.5 1128.86,-254.5 1194.86,-254.5 1194.86,-234.5 1128.86,-234.5"/>
<text text-anchor="middle" x="1161.86" y="-241.7" font-family="-apple-system, BlinkMacSystemFont, 'Segoe UI', Roboto, Oxygen, Ubuntu, Cantarell, 'Fira Sans', 'Droid Sans', 'Helvetica Neue', sans-serif" font-size="11.00">type_traits</text>
</a>
</g>
</g>
<!-- Node13&#45;&gt;Node16 -->
<g id="edge24" class="edge">
<title>Node13&#45;&gt;Node16</title>
<path fill="none" stroke="midnightblue" d="M809.4,-302.9C880.42,-297.46 1008.09,-285.12 1114.86,-261 1119.01,-260.06 1123.31,-258.91 1127.55,-257.66"/>
<polygon fill="midnightblue" stroke="midnightblue" points="1128.74,-260.95 1137.23,-254.61 1126.64,-254.27 1128.74,-260.95"/>
</g>
<!-- Node17 -->
<g id="node17" class="node">
<title>Node17</title>
<g id="a_node17"><a xlink:href="Exceptions_8hpp.html" target="_top" xlink:title=" ">
<polygon fill="none" stroke="black" points="821.36,-228.5 821.36,-260.5 926.36,-260.5 926.36,-228.5 821.36,-228.5"/>
<text text-anchor="start" x="829.36" y="-247.7" font-family="-apple-system, BlinkMacSystemFont, 'Segoe UI', Roboto, Oxygen, Ubuntu, Cantarell, 'Fira Sans', 'Droid Sans', 'Helvetica Neue', sans-serif" font-size="11.00">libmirai/Exceptions</text>
<text text-anchor="middle" x="873.86" y="-235.7" font-family="-apple-system, BlinkMacSystemFont, 'Segoe UI', Roboto, Oxygen, Ubuntu, Cantarell, 'Fira Sans', 'Droid Sans', 'Helvetica Neue', sans-serif" font-size="11.00">/Exceptions.hpp</text>
</a>
</g>
</g>
<!-- Node13&#45;&gt;Node17 -->
<g id="edge28" class="edge">
<title>Node13&#45;&gt;Node17</title>
<path fill="none" stroke="midnightblue" d="M772.42,-297.5C788.87,-289.07 814.01,-276.18 835.15,-265.35"/>
<polygon fill="midnightblue" stroke="midnightblue" points="836.92,-268.37 844.23,-260.69 833.73,-262.14 836.92,-268.37"/>
</g>
<!-- Node18 -->
<g id="node18" class="node">
<title>Node18</title>
<g id="a_node18"><a xlink:href="AppMessage_8hpp.html" target="_top" xlink:title=" ">
<polygon fill="none" stroke="black" points="24.36,-171.5 24.36,-191.5 125.36,-191.5 125.36,-171.5 24.36,-171.5"/>
<text text-anchor="middle" x="74.86" y="-178.7" font-family="-apple-system, BlinkMacSystemFont, 'Segoe UI', Roboto, Oxygen, Ubuntu, Cantarell, 'Fira Sans', 'Droid Sans', 'Helvetica Neue', sans-serif" font-size="11.00">AppMessage.hpp</text>
</a>
</g>
</g>
<!-- Node13&#45;&gt;Node18 -->
<g id="edge31" class="edge">
<title>Node13&#45;&gt;Node18</title>
<path fill="none" stroke="midnightblue" d="M700.05,-302.48C655.27,-297.44 591.35,-286.16 540.86,-261 520.84,-251.02 523.41,-236.84 502.86,-228 354.45,-164.17 299.44,-211.19 135.3,-192.07"/>
<polygon fill="midnightblue" stroke="midnightblue" points="135.72,-188.59 125.36,-190.84 134.86,-195.54 135.72,-188.59"/>
</g>
<!-- Node19 -->
<g id="node19" class="node">
<title>Node19</title>
<g id="a_node19"><a xlink:href="AtAllMessage_8hpp.html" target="_top" xlink:title=" ">
<polygon fill="none" stroke="black" points="511.86,-171.5 511.86,-191.5 615.86,-191.5 615.86,-171.5 511.86,-171.5"/>
<text text-anchor="middle" x="563.86" y="-178.7" font-family="-apple-system, BlinkMacSystemFont, 'Segoe UI', Roboto, Oxygen, Ubuntu, Cantarell, 'Fira Sans', 'Droid Sans', 'Helvetica Neue', sans-serif" font-size="11.00">AtAllMessage.hpp</text>
</a>
</g>
</g>
<!-- Node13&#45;&gt;Node19 -->
<g id="edge35" class="edge">
<title>Node13&#45;&gt;Node19</title>
<path fill="none" stroke="midnightblue" d="M744.58,-297.28C727.02,-281.79 689.73,-250.08 654.86,-228 635.6,-215.8 612.62,-204.33 594.58,-195.96"/>
<polygon fill="midnightblue" stroke="midnightblue" points="595.66,-192.61 585.11,-191.65 592.76,-198.98 595.66,-192.61"/>
</g>
<!-- Node20 -->
<g id="node20" class="node">
<title>Node20</title>
<g id="a_node20"><a xlink:href="AtMessage_8hpp.html" target="_top" xlink:title=" ">
<polygon fill="none" stroke="black" points="1467.86,-171.5 1467.86,-191.5 1559.86,-191.5 1559.86,-171.5 1467.86,-171.5"/>
<text text-anchor="middle" x="1513.86" y="-178.7" font-family="-apple-system, BlinkMacSystemFont, 'Segoe UI', Roboto, Oxygen, Ubuntu, Cantarell, 'Fira Sans', 'Droid Sans', 'Helvetica Neue', sans-serif" font-size="11.00">AtMessage.hpp</text>
</a>
</g>
</g>
<!-- Node13&#45;&gt;Node20 -->
<g id="edge39" class="edge">
<title>Node13&#45;&gt;Node20</title>
<path fill="none" stroke="midnightblue" d="M809.38,-305.49C903.28,-302.91 1101.2,-293.7 1264.86,-261 1344.37,-245.12 1434.34,-213.1 1481.33,-195.26"/>
<polygon fill="midnightblue" stroke="midnightblue" points="1482.87,-198.41 1490.96,-191.57 1480.37,-191.88 1482.87,-198.41"/>
</g>
<!-- Node21 -->
<g id="node21" class="node">
<title>Node21</title>
<g id="a_node21"><a xlink:href="AudioMessage_8hpp.html" target="_top" xlink:title=" ">
<polygon fill="none" stroke="red" points="1218.36,-171.5 1218.36,-191.5 1327.36,-191.5 1327.36,-171.5 1218.36,-171.5"/>
<text text-anchor="middle" x="1272.86" y="-178.7" font-family="-apple-system, BlinkMacSystemFont, 'Segoe UI', Roboto, Oxygen, Ubuntu, Cantarell, 'Fira Sans', 'Droid Sans', 'Helvetica Neue', sans-serif" font-size="11.00">AudioMessage.hpp</text>
</a>
</g>
</g>
<!-- Node13&#45;&gt;Node21 -->
<g id="edge44" class="edge">
<title>Node13&#45;&gt;Node21</title>
<path fill="none" stroke="midnightblue" d="M809.59,-302.56C889.44,-296.19 1033.52,-282.17 1080.86,-261 1101.59,-251.73 1099.89,-238.8 1119.86,-228 1149.32,-212.07 1185.06,-201.04 1214.58,-193.84"/>
<polygon fill="midnightblue" stroke="midnightblue" points="1215.41,-197.24 1224.34,-191.54 1213.8,-190.43 1215.41,-197.24"/>
</g>
<!-- Node23 -->
<g id="node22" class="node">
<title>Node23</title>
<g id="a_node22"><a xlink:href="DiceMessage_8hpp.html" target="_top" xlink:title=" ">
<polygon fill="none" stroke="black" points="391.86,-171.5 391.86,-191.5 493.86,-191.5 493.86,-171.5 391.86,-171.5"/>
<text text-anchor="middle" x="442.86" y="-178.7" font-family="-apple-system, BlinkMacSystemFont, 'Segoe UI', Roboto, Oxygen, Ubuntu, Cantarell, 'Fira Sans', 'Droid Sans', 'Helvetica Neue', sans-serif" font-size="11.00">DiceMessage.hpp</text>
</a>
</g>
</g>
<!-- Node13&#45;&gt;Node23 -->
<g id="edge48" class="edge">
<title>Node13&#45;&gt;Node23</title>
<path fill="none" stroke="midnightblue" d="M729.59,-297.35C708.73,-289.25 678.77,-276.36 654.86,-261 636.04,-248.91 636.65,-238.44 616.86,-228 596.04,-217.02 539.4,-203.19 496.35,-193.68"/>
<polygon fill="midnightblue" stroke="midnightblue" points="497.08,-190.26 486.56,-191.54 495.58,-197.09 497.08,-190.26"/>
</g>
<!-- Node24 -->
<g id="node23" class="node">
<title>Node24</title>
<g id="a_node23"><a xlink:href="FaceMessage_8hpp.html" target="_top" xlink:title=" ">
<polygon fill="none" stroke="black" points="710.36,-171.5 710.36,-191.5 815.36,-191.5 815.36,-171.5 710.36,-171.5"/>
<text text-anchor="middle" x="762.86" y="-178.7" font-family="-apple-system, BlinkMacSystemFont, 'Segoe UI', Roboto, Oxygen, Ubuntu, Cantarell, 'Fira Sans', 'Droid Sans', 'Helvetica Neue', sans-serif" font-size="11.00">FaceMessage.hpp</text>
</a>
</g>
</g>
<!-- Node13&#45;&gt;Node24 -->
<g id="edge52" class="edge">
<title>Node13&#45;&gt;Node24</title>
<path fill="none" stroke="midnightblue" d="M755.46,-297.18C756.77,-276.97 759.88,-228.78 761.62,-201.74"/>
<polygon fill="midnightblue" stroke="midnightblue" points="765.12,-201.8 762.28,-191.59 758.14,-201.35 765.12,-201.8"/>
</g>
<!-- Node25 -->
<g id="node24" class="node">
<title>Node25</title>
<g id="a_node24"><a xlink:href="FlashImageMessage_8hpp.html" target="_top" xlink:title=" ">
<polygon fill="none" stroke="black" points="1544.36,-234.5 1544.36,-254.5 1681.36,-254.5 1681.36,-234.5 1544.36,-234.5"/>
<text text-anchor="middle" x="1612.86" y="-241.7" font-family="-apple-system, BlinkMacSystemFont, 'Segoe UI', Roboto, Oxygen, Ubuntu, Cantarell, 'Fira Sans', 'Droid Sans', 'Helvetica Neue', sans-serif" font-size="11.00">FlashImageMessage.hpp</text>
</a>
</g>
</g>
<!-- Node13&#45;&gt;Node25 -->
<g id="edge56" class="edge">
<title>Node13&#45;&gt;Node25</title>
<path fill="none" stroke="midnightblue" d="M809.7,-303.42C926.91,-296.74 1210.49,-279.94 1447.86,-261 1475.96,-258.76 1506.73,-255.96 1533.99,-253.36"/>
<polygon fill="midnightblue" stroke="midnightblue" points="1534.64,-256.82 1544.26,-252.38 1533.97,-249.85 1534.64,-256.82"/>
</g>
<!-- Node26 -->
<g id="node25" class="node">
<title>Node26</title>
<g id="a_node25"><a xlink:href="ImageMessage_8hpp.html" target="_top" xlink:title=" ">
<polygon fill="none" stroke="red" points="1654.36,-171.5 1654.36,-191.5 1765.36,-191.5 1765.36,-171.5 1654.36,-171.5"/>
<text text-anchor="middle" x="1709.86" y="-178.7" font-family="-apple-system, BlinkMacSystemFont, 'Segoe UI', Roboto, Oxygen, Ubuntu, Cantarell, 'Fira Sans', 'Droid Sans', 'Helvetica Neue', sans-serif" font-size="11.00">ImageMessage.hpp</text>
</a>
</g>
</g>
<!-- Node13&#45;&gt;Node26 -->
<g id="edge65" class="edge">
<title>Node13&#45;&gt;Node26</title>
<path fill="none" stroke="midnightblue" d="M809.62,-305.62C1004.65,-302.25 1655.64,-288.95 1689.86,-261 1707.18,-246.85 1710.7,-220 1710.88,-201.68"/>
<polygon fill="midnightblue" stroke="midnightblue" points="1714.38,-201.48 1710.66,-191.56 1707.38,-201.64 1714.38,-201.48"/>
</g>
<!-- Node27 -->
<g id="node26" class="node">
<title>Node27</title>
<g id="a_node26"><a xlink:href="JsonMessage_8hpp.html" target="_top" xlink:title=" ">
<polygon fill="none" stroke="black" points="1345.86,-171.5 1345.86,-191.5 1449.86,-191.5 1449.86,-171.5 1345.86,-171.5"/>
<text text-anchor="middle" x="1397.86" y="-178.7" font-family="-apple-system, BlinkMacSystemFont, 'Segoe UI', Roboto, Oxygen, Ubuntu, Cantarell, 'Fira Sans', 'Droid Sans', 'Helvetica Neue', sans-serif" font-size="11.00">JsonMessage.hpp</text>
</a>
</g>
</g>
<!-- Node13&#45;&gt;Node27 -->
<g id="edge66" class="edge">
<title>Node13&#45;&gt;Node27</title>
<path fill="none" stroke="midnightblue" d="M809.62,-305.92C895.05,-303.91 1064.68,-295.46 1203.86,-261 1266.02,-245.61 1334.55,-214.2 1371.21,-196.13"/>
<polygon fill="midnightblue" stroke="midnightblue" points="1372.86,-199.22 1380.25,-191.62 1369.73,-192.95 1372.86,-199.22"/>
</g>
<!-- Node28 -->
<g id="node27" class="node">
<title>Node28</title>
<g id="a_node27"><a xlink:href="MiraiCodeMessage_8hpp.html" target="_top" xlink:title=" ">
<polygon fill="none" stroke="black" points="1069.86,-171.5 1069.86,-191.5 1199.86,-191.5 1199.86,-171.5 1069.86,-171.5"/>
<text text-anchor="middle" x="1134.86" y="-178.7" font-family="-apple-system, BlinkMacSystemFont, 'Segoe UI', Roboto, Oxygen, Ubuntu, Cantarell, 'Fira Sans', 'Droid Sans', 'Helvetica Neue', sans-serif" font-size="11.00">MiraiCodeMessage.hpp</text>
</a>
</g>
</g>
<!-- Node13&#45;&gt;Node28 -->
<g id="edge71" class="edge">
<title>Node13&#45;&gt;Node28</title>
<path fill="none" stroke="midnightblue" d="M809.53,-301.17C853.55,-295.39 916.21,-283.75 966.86,-261 989.49,-250.84 990.02,-239.75 1011.86,-228 1037.86,-214.02 1069.07,-202.53 1093.54,-194.59"/>
<polygon fill="midnightblue" stroke="midnightblue" points="1094.77,-197.88 1103.25,-191.52 1092.66,-191.2 1094.77,-197.88"/>
</g>
<!-- Node29 -->
<g id="node28" class="node">
<title>Node29</title>
<g id="a_node28"><a xlink:href="PlainMessage_8hpp.html" target="_top" xlink:title=" ">
<polygon fill="none" stroke="black" points="268.36,-171.5 268.36,-191.5 373.36,-191.5 373.36,-171.5 268.36,-171.5"/>
<text text-anchor="middle" x="320.86" y="-178.7" font-family="-apple-system, BlinkMacSystemFont, 'Segoe UI', Roboto, Oxygen, Ubuntu, Cantarell, 'Fira Sans', 'Droid Sans', 'Helvetica Neue', sans-serif" font-size="11.00">PlainMessage.hpp</text>
</a>
</g>
</g>
<!-- Node13&#45;&gt;Node29 -->
<g id="edge75" class="edge">
<title>Node13&#45;&gt;Node29</title>
<path fill="none" stroke="midnightblue" d="M713.53,-297.45C685.14,-290.16 647.24,-278.26 616.86,-261 597.41,-249.95 599.05,-237.63 578.86,-228 570.05,-223.8 457.03,-204.77 383.53,-192.69"/>
<polygon fill="midnightblue" stroke="midnightblue" points="383.87,-189.2 373.44,-191.03 382.74,-196.11 383.87,-189.2"/>
</g>
<!-- Node30 -->
<g id="node29" class="node">
<title>Node30</title>
<g id="a_node29"><a xlink:href="PokeMessage_8hpp.html" target="_top" xlink:title=" ">
<polygon fill="none" stroke="red" points="143.36,-171.5 143.36,-191.5 250.36,-191.5 250.36,-171.5 143.36,-171.5"/>
<text text-anchor="middle" x="196.86" y="-178.7" font-family="-apple-system, BlinkMacSystemFont, 'Segoe UI', Roboto, Oxygen, Ubuntu, Cantarell, 'Fira Sans', 'Droid Sans', 'Helvetica Neue', sans-serif" font-size="11.00">PokeMessage.hpp</text>
</a>
</g>
</g>
<!-- Node13&#45;&gt;Node30 -->
<g id="edge79" class="edge">
<title>Node13&#45;&gt;Node30</title>
<path fill="none" stroke="midnightblue" d="M700.14,-299.05C664.15,-292.57 616.85,-280.97 578.86,-261 559.06,-250.59 561.28,-237.14 540.86,-228 428.47,-177.67 386.14,-207.94 260.6,-192.15"/>
<polygon fill="midnightblue" stroke="midnightblue" points="260.99,-188.67 250.62,-190.82 260.07,-195.61 260.99,-188.67"/>
</g>
<!-- Node32 -->
<g id="node30" class="node">
<title>Node32</title>
<g id="a_node30"><a xlink:href="XmlMessage_8hpp.html" target="_top" xlink:title=" ">
<polygon fill="none" stroke="black" points="951.86,-171.5 951.86,-191.5 1051.86,-191.5 1051.86,-171.5 951.86,-171.5"/>
<text text-anchor="middle" x="1001.86" y="-178.7" font-family="-apple-system, BlinkMacSystemFont, 'Segoe UI', Roboto, Oxygen, Ubuntu, Cantarell, 'Fira Sans', 'Droid Sans', 'Helvetica Neue', sans-serif" font-size="11.00">XmlMessage.hpp</text>
</a>
</g>
</g>
<!-- Node13&#45;&gt;Node32 -->
<g id="edge83" class="edge">
<title>Node13&#45;&gt;Node32</title>
<path fill="none" stroke="midnightblue" d="M809.44,-301.49C847.01,-296.03 896.81,-284.64 934.86,-261 959.39,-245.76 979.59,-218.6 991.19,-200.57"/>
<polygon fill="midnightblue" stroke="midnightblue" points="994.44,-201.97 996.72,-191.62 988.48,-198.28 994.44,-201.97"/>
</g>
<!-- Node17&#45;&gt;Node9 -->
<g id="edge30" class="edge">
<title>Node17&#45;&gt;Node9</title>
<path fill="none" stroke="midnightblue" d="M884.58,-228.34C891.21,-218.4 899.45,-204.89 904.86,-192 919.74,-156.58 929.15,-112.47 933.67,-87.7"/>
<polygon fill="midnightblue" stroke="midnightblue" points="937.13,-88.23 935.4,-77.78 930.23,-87.03 937.13,-88.23"/>
</g>
<!-- Node17&#45;&gt;Node15 -->
<g id="edge29" class="edge">
<title>Node17&#45;&gt;Node15</title>
<path fill="none" stroke="midnightblue" d="M871.64,-228.42C870.44,-220.28 868.94,-210.16 867.66,-201.49"/>
<polygon fill="midnightblue" stroke="midnightblue" points="871.12,-200.93 866.2,-191.55 864.19,-201.95 871.12,-200.93"/>
</g>
<!-- Node18&#45;&gt;Node6 -->
<g id="edge33" class="edge">
<title>Node18&#45;&gt;Node6</title>
<path fill="none" stroke="midnightblue" d="M89.19,-171.48C128.03,-147.58 239.31,-82.68 341.86,-57 475.81,-23.46 886.19,-14.54 1057.01,-12.26"/>
<polygon fill="midnightblue" stroke="midnightblue" points="1057.22,-15.75 1067.17,-12.12 1057.13,-8.75 1057.22,-15.75"/>
</g>
<!-- Node18&#45;&gt;Node9 -->
<g id="edge32" class="edge">
<title>Node18&#45;&gt;Node9</title>
<path fill="none" stroke="midnightblue" d="M108.09,-171.49C162.84,-157.01 275.64,-128.7 372.86,-114 574.06,-83.59 818.92,-72.6 905.06,-69.52"/>
<polygon fill="midnightblue" stroke="midnightblue" points="905.35,-73.01 915.22,-69.16 905.11,-66.01 905.35,-73.01"/>
</g>
<!-- Node18&#45;&gt;Node11 -->
<g id="edge34" class="edge">
<title>Node18&#45;&gt;Node11</title>
<path fill="none" stroke="midnightblue" d="M125.67,-172.03C128.44,-171.66 131.18,-171.31 133.86,-171 340.04,-146.99 585.8,-133.59 699.45,-128.25"/>
<polygon fill="midnightblue" stroke="midnightblue" points="699.87,-131.73 709.7,-127.77 699.55,-124.74 699.87,-131.73"/>
</g>
<!-- Node19&#45;&gt;Node6 -->
<g id="edge37" class="edge">
<title>Node19&#45;&gt;Node6</title>
<path fill="none" stroke="midnightblue" d="M573.37,-171.48C588.4,-157.61 619.02,-130.88 648.86,-114 779.52,-40.12 957.32,-19.34 1057.03,-13.6"/>
<polygon fill="midnightblue" stroke="midnightblue" points="1057.22,-17.09 1067.02,-13.05 1056.84,-10.1 1057.22,-17.09"/>
</g>
<!-- Node19&#45;&gt;Node9 -->
<g id="edge36" class="edge">
<title>Node19&#45;&gt;Node9</title>
<path fill="none" stroke="midnightblue" d="M579.32,-171.32C604.12,-156.99 654.7,-129.36 700.86,-114 771.94,-90.35 859.38,-77.5 905.29,-71.93"/>
<polygon fill="midnightblue" stroke="midnightblue" points="905.71,-75.4 915.23,-70.75 904.89,-68.45 905.71,-75.4"/>
</g>
<!-- Node19&#45;&gt;Node11 -->
<g id="edge38" class="edge">
<title>Node19&#45;&gt;Node11</title>
<path fill="none" stroke="midnightblue" d="M596.72,-171.42C630.53,-162.08 683.32,-147.48 720.3,-137.26"/>
<polygon fill="midnightblue" stroke="midnightblue" points="721.58,-140.54 730.28,-134.5 719.71,-133.79 721.58,-140.54"/>
</g>
<!-- Node20&#45;&gt;Node6 -->
<g id="edge41" class="edge">
<title>Node20&#45;&gt;Node6</title>
<path fill="none" stroke="midnightblue" d="M1520.45,-171.41C1535.84,-148.98 1570.72,-90.37 1540.86,-57 1519.17,-32.76 1320.95,-19.95 1208.99,-14.6"/>
<polygon fill="midnightblue" stroke="midnightblue" points="1208.92,-11.09 1198.77,-14.12 1208.59,-18.09 1208.92,-11.09"/>
</g>
<!-- Node20&#45;&gt;Node7 -->
<g id="edge42" class="edge">
<title>Node20&#45;&gt;Node7</title>
<path fill="none" stroke="midnightblue" d="M1546.23,-171.42C1579.52,-162.08 1631.52,-147.48 1667.94,-137.26"/>
<polygon fill="midnightblue" stroke="midnightblue" points="1669.09,-140.58 1677.77,-134.5 1667.2,-133.84 1669.09,-140.58"/>
</g>
<!-- Node20&#45;&gt;Node9 -->
<g id="edge40" class="edge">
<title>Node20&#45;&gt;Node9</title>
<path fill="none" stroke="midnightblue" d="M1467.67,-172.37C1464.69,-171.89 1461.74,-171.43 1458.86,-171 1333.47,-152.2 1298.08,-168.75 1175.86,-135 1153.42,-128.8 1149.94,-121.39 1127.86,-114 1072.91,-95.6 1006.7,-81.57 968.43,-74.22"/>
<polygon fill="midnightblue" stroke="midnightblue" points="968.88,-70.75 958.41,-72.33 967.59,-77.62 968.88,-70.75"/>
</g>
<!-- Node20&#45;&gt;Node11 -->
<g id="edge43" class="edge">
<title>Node20&#45;&gt;Node11</title>
<path fill="none" stroke="midnightblue" d="M1467.7,-172.16C1464.71,-171.74 1461.75,-171.34 1458.86,-171 1226.93,-143.47 949.4,-131.59 826.64,-127.41"/>
<polygon fill="midnightblue" stroke="midnightblue" points="826.41,-123.9 816.3,-127.07 826.18,-130.9 826.41,-123.9"/>
</g>
<!-- Node21&#45;&gt;Node6 -->
<g id="edge46" class="edge">
<title>Node21&#45;&gt;Node6</title>
<path fill="none" stroke="midnightblue" d="M1265.34,-171.41C1242.93,-144.36 1176.38,-64.04 1147.04,-28.61"/>
<polygon fill="midnightblue" stroke="midnightblue" points="1149.5,-26.1 1140.43,-20.63 1144.11,-30.56 1149.5,-26.1"/>
</g>
<!-- Node21&#45;&gt;Node9 -->
<g id="edge45" class="edge">
<title>Node21&#45;&gt;Node9</title>
<path fill="none" stroke="midnightblue" d="M1231.84,-171.43C1196.48,-163.2 1144.27,-150.08 1099.86,-135 1077.04,-127.25 1072.15,-123.17 1049.86,-114 1022.26,-102.65 990.75,-89.99 968.03,-80.91"/>
<polygon fill="midnightblue" stroke="midnightblue" points="969.15,-77.58 958.56,-77.13 966.55,-84.09 969.15,-77.58"/>
</g>
<!-- Node21&#45;&gt;Node11 -->
<g id="edge47" class="edge">
<title>Node21&#45;&gt;Node11</title>
<path fill="none" stroke="midnightblue" d="M1218.07,-172.2C1214.96,-171.78 1211.87,-171.38 1208.86,-171 1072.87,-153.98 912.94,-138.85 826.35,-131.06"/>
<polygon fill="midnightblue" stroke="midnightblue" points="826.43,-127.55 816.16,-130.14 825.81,-134.52 826.43,-127.55"/>
</g>
<!-- Node23&#45;&gt;Node6 -->
<g id="edge50" class="edge">
<title>Node23&#45;&gt;Node6</title>
<path fill="none" stroke="midnightblue" d="M458.58,-171.43C482.26,-157.97 528.7,-132.3 569.86,-114 636.55,-84.35 652.85,-73.83 723.86,-57 838.15,-29.92 974.31,-18.86 1057.13,-14.41"/>
<polygon fill="midnightblue" stroke="midnightblue" points="1057.4,-17.9 1067.21,-13.88 1057.04,-10.91 1057.4,-17.9"/>
</g>
<!-- Node23&#45;&gt;Node9 -->
<g id="edge49" class="edge">
<title>Node23&#45;&gt;Node9</title>
<path fill="none" stroke="midnightblue" d="M466.38,-171.47C503.98,-157.35 580.21,-129.98 646.86,-114 739.36,-91.82 851.13,-77.8 904.9,-71.83"/>
<polygon fill="midnightblue" stroke="midnightblue" points="905.61,-75.27 915.17,-70.71 904.85,-68.31 905.61,-75.27"/>
</g>
<!-- Node23&#45;&gt;Node11 -->
<g id="edge51" class="edge">
<title>Node23&#45;&gt;Node11</title>
<path fill="none" stroke="midnightblue" d="M493.92,-171.72C549.97,-162.09 639.98,-146.62 700.24,-136.26"/>
<polygon fill="midnightblue" stroke="midnightblue" points="701.13,-139.66 710.39,-134.52 699.94,-132.76 701.13,-139.66"/>
</g>
<!-- Node24&#45;&gt;Node6 -->
<g id="edge54" class="edge">
<title>Node24&#45;&gt;Node6</title>
<path fill="none" stroke="midnightblue" d="M776.56,-171.24C789.39,-162.38 808.93,-148.41 824.86,-135 863.09,-102.81 861.58,-80.18 905.86,-57 952.63,-32.52 1011.14,-21.19 1057.05,-15.95"/>
<polygon fill="midnightblue" stroke="midnightblue" points="1057.67,-19.4 1067.24,-14.86 1056.93,-12.44 1057.67,-19.4"/>
</g>
<!-- Node24&#45;&gt;Node9 -->
<g id="edge53" class="edge">
<title>Node24&#45;&gt;Node9</title>
<path fill="none" stroke="midnightblue" d="M786.26,-171.45C806.28,-163.24 835.48,-150.13 858.86,-135 881.8,-120.16 905.29,-99.19 920.41,-84.79"/>
<polygon fill="midnightblue" stroke="midnightblue" points="923.14,-87.02 927.89,-77.55 918.27,-81.99 923.14,-87.02"/>
</g>
<!-- Node24&#45;&gt;Node11 -->
<g id="edge55" class="edge">
<title>Node24&#45;&gt;Node11</title>
<path fill="none" stroke="midnightblue" d="M762.86,-171.42C762.86,-164.22 762.86,-153.9 762.86,-144.86"/>
<polygon fill="midnightblue" stroke="midnightblue" points="766.36,-144.78 762.86,-134.78 759.36,-144.78 766.36,-144.78"/>
</g>
<!-- Node25&#45;&gt;Node6 -->
<g id="edge58" class="edge">
<title>Node25&#45;&gt;Node6</title>
<path fill="none" stroke="midnightblue" d="M1613.55,-234.25C1615.28,-203.41 1616.25,-103.42 1560.86,-57 1534.49,-34.9 1324.5,-21.05 1208.77,-15.02"/>
<polygon fill="midnightblue" stroke="midnightblue" points="1208.73,-11.51 1198.56,-14.49 1208.37,-18.5 1208.73,-11.51"/>
</g>
<!-- Node25&#45;&gt;Node7 -->
<g id="edge59" class="edge">
<title>Node25&#45;&gt;Node7</title>
<path fill="none" stroke="midnightblue" d="M1681.67,-239.71C1715.2,-233.97 1752.75,-220.92 1773.86,-192 1788.37,-172.12 1762.43,-152.15 1739.35,-139.36"/>
<polygon fill="midnightblue" stroke="midnightblue" points="1740.89,-136.22 1730.41,-134.67 1737.64,-142.42 1740.89,-136.22"/>
</g>
<!-- Node25&#45;&gt;Node9 -->
<g id="edge57" class="edge">
<title>Node25&#45;&gt;Node9</title>
<path fill="none" stroke="midnightblue" d="M1610.22,-234.28C1605.12,-218.37 1592.3,-185.99 1568.86,-171 1508.95,-132.68 1320.86,-147.56 1250.86,-135 1212.56,-128.13 1203.84,-122.46 1165.86,-114 1095.54,-98.33 1012.47,-82.49 968.26,-74.26"/>
<polygon fill="midnightblue" stroke="midnightblue" points="968.87,-70.82 958.4,-72.44 967.59,-77.7 968.87,-70.82"/>
</g>
<!-- Node25&#45;&gt;Node26 -->
<g id="edge60" class="edge">
<title>Node25&#45;&gt;Node26</title>
<path fill="none" stroke="midnightblue" d="M1627.17,-234.5C1642.86,-224.63 1668.26,-208.66 1686.78,-197.02"/>
<polygon fill="midnightblue" stroke="midnightblue" points="1688.89,-199.82 1695.49,-191.54 1685.16,-193.9 1688.89,-199.82"/>
</g>
<!-- Node26&#45;&gt;Node6 -->
<g id="edge62" class="edge">
<title>Node26&#45;&gt;Node6</title>
<path fill="none" stroke="midnightblue" d="M1747.9,-171.43C1767.02,-164.75 1788.49,-153.49 1799.86,-135 1824.6,-94.78 1756.76,-62.98 1743.86,-57 1696.46,-35.01 1361.89,-19.97 1208.89,-14.17"/>
<polygon fill="midnightblue" stroke="midnightblue" points="1208.76,-10.66 1198.64,-13.78 1208.5,-17.66 1208.76,-10.66"/>
</g>
<!-- Node26&#45;&gt;Node7 -->
<g id="edge63" class="edge">
<title>Node26&#45;&gt;Node7</title>
<path fill="none" stroke="midnightblue" d="M1709.86,-171.42C1709.86,-164.22 1709.86,-153.9 1709.86,-144.86"/>
<polygon fill="midnightblue" stroke="midnightblue" points="1713.36,-144.78 1709.86,-134.78 1706.36,-144.78 1713.36,-144.78"/>
</g>
<!-- Node26&#45;&gt;Node9 -->
<g id="edge61" class="edge">
<title>Node26&#45;&gt;Node9</title>
<path fill="none" stroke="midnightblue" d="M1654.27,-172.45C1503.04,-150.53 1087.59,-90.34 968.91,-73.14"/>
<polygon fill="midnightblue" stroke="midnightblue" points="969.08,-69.63 958.68,-71.66 968.07,-76.56 969.08,-69.63"/>
</g>
<!-- Node26&#45;&gt;Node11 -->
<g id="edge64" class="edge">
<title>Node26&#45;&gt;Node11</title>
<path fill="none" stroke="midnightblue" d="M1654.29,-176.62C1628.34,-174.84 1597.02,-172.74 1568.86,-171 1292.45,-153.89 962.53,-136.08 826.4,-128.85"/>
<polygon fill="midnightblue" stroke="midnightblue" points="826.33,-125.34 816.16,-128.31 825.96,-132.33 826.33,-125.34"/>
</g>
<!-- Node27&#45;&gt;Node6 -->
<g id="edge68" class="edge">
<title>Node27&#45;&gt;Node6</title>
<path fill="none" stroke="midnightblue" d="M1383.61,-171.41C1340.21,-143.73 1209.33,-60.26 1155.93,-26.21"/>
<polygon fill="midnightblue" stroke="midnightblue" points="1157.49,-23.06 1147.18,-20.63 1153.73,-28.96 1157.49,-23.06"/>
</g>
<!-- Node27&#45;&gt;Node9 -->
<g id="edge67" class="edge">
<title>Node27&#45;&gt;Node9</title>
<path fill="none" stroke="midnightblue" d="M1345.6,-172.02C1275.47,-160.54 1157.41,-140.81 1137.86,-135 1115.15,-128.25 1111.14,-122.08 1088.86,-114 1047.8,-99.11 999.29,-85.21 968.31,-76.78"/>
<polygon fill="midnightblue" stroke="midnightblue" points="969.08,-73.37 958.51,-74.14 967.25,-80.13 969.08,-73.37"/>
</g>
<!-- Node27&#45;&gt;Node11 -->
<g id="edge69" class="edge">
<title>Node27&#45;&gt;Node11</title>
<path fill="none" stroke="midnightblue" d="M1345.8,-172.24C1342.44,-171.8 1339.11,-171.38 1335.86,-171 1151.19,-149.55 931.85,-135.22 826.1,-129.01"/>
<polygon fill="midnightblue" stroke="midnightblue" points="826.1,-125.51 815.92,-128.42 825.7,-132.49 826.1,-125.51"/>
</g>
<!-- Node28&#45;&gt;Node6 -->
<g id="edge73" class="edge">
<title>Node28&#45;&gt;Node6</title>
<path fill="none" stroke="midnightblue" d="M1134.75,-171.41C1134.44,-144.94 1133.52,-67.42 1133.09,-30.92"/>
<polygon fill="midnightblue" stroke="midnightblue" points="1136.59,-30.59 1132.97,-20.63 1129.59,-30.67 1136.59,-30.59"/>
</g>
<!-- Node28&#45;&gt;Node9 -->
<g id="edge72" class="edge">
<title>Node28&#45;&gt;Node9</title>
<path fill="none" stroke="midnightblue" d="M1118.66,-171.33C1084.13,-151.8 1003.09,-105.96 961.88,-82.65"/>
<polygon fill="midnightblue" stroke="midnightblue" points="963.44,-79.51 953.01,-77.63 959.99,-85.6 963.44,-79.51"/>
</g>
<!-- Node28&#45;&gt;Node11 -->
<g id="edge74" class="edge">
<title>Node28&#45;&gt;Node11</title>
<path fill="none" stroke="midnightblue" d="M1073.85,-171.48C1005.48,-161.37 895.18,-145.06 825.97,-134.83"/>
<polygon fill="midnightblue" stroke="midnightblue" points="826.47,-131.37 816.06,-133.37 825.45,-138.29 826.47,-131.37"/>
</g>
<!-- Node29&#45;&gt;Node6 -->
<g id="edge77" class="edge">
<title>Node29&#45;&gt;Node6</title>
<path fill="none" stroke="midnightblue" d="M325.59,-171.18C338.38,-147.11 376.24,-82.96 428.86,-57 484.06,-29.76 886.65,-17.25 1057.03,-13.13"/>
<polygon fill="midnightblue" stroke="midnightblue" points="1057.26,-16.62 1067.18,-12.88 1057.09,-9.62 1057.26,-16.62"/>
</g>
<!-- Node29&#45;&gt;Node9 -->
<g id="edge76" class="edge">
<title>Node29&#45;&gt;Node9</title>
<path fill="none" stroke="midnightblue" d="M349.69,-171.41C395.77,-157.2 489.05,-129.72 569.86,-114 692.59,-90.12 840.96,-76.24 904.95,-70.97"/>
<polygon fill="midnightblue" stroke="midnightblue" points="905.5,-74.43 915.19,-70.14 904.94,-67.46 905.5,-74.43"/>
</g>
<!-- Node29&#45;&gt;Node11 -->
<g id="edge78" class="edge">
<title>Node29&#45;&gt;Node11</title>
<path fill="none" stroke="midnightblue" d="M373.61,-172.3C376.74,-171.85 379.84,-171.41 382.86,-171 494,-155.84 623.8,-140.89 699.32,-132.46"/>
<polygon fill="midnightblue" stroke="midnightblue" points="700.06,-135.9 709.61,-131.32 699.29,-128.94 700.06,-135.9"/>
</g>
<!-- Node30&#45;&gt;Node6 -->
<g id="edge81" class="edge">
<title>Node30&#45;&gt;Node6</title>
<path fill="none" stroke="midnightblue" d="M207.13,-171.47C235.05,-147.53 315.67,-82.56 395.86,-57 517.17,-18.34 893.95,-12.28 1056.71,-11.51"/>
<polygon fill="midnightblue" stroke="midnightblue" points="1057.13,-15 1067.12,-11.46 1057.1,-8 1057.13,-15"/>
</g>
<!-- Node30&#45;&gt;Node9 -->
<g id="edge80" class="edge">
<title>Node30&#45;&gt;Node9</title>
<path fill="none" stroke="midnightblue" d="M228.91,-171.4C280.64,-157.04 385.95,-129.22 476.86,-114 636.42,-87.29 829.92,-74.43 904.97,-70.17"/>
<polygon fill="midnightblue" stroke="midnightblue" points="905.38,-73.66 915.17,-69.61 904.99,-66.67 905.38,-73.66"/>
</g>
<!-- Node30&#45;&gt;Node11 -->
<g id="edge82" class="edge">
<title>Node30&#45;&gt;Node11</title>
<path fill="none" stroke="midnightblue" d="M250.6,-172.06C253.39,-171.68 256.16,-171.33 258.86,-171 417.06,-151.76 604.11,-136.94 699.7,-129.94"/>
<polygon fill="midnightblue" stroke="midnightblue" points="700.06,-133.42 709.78,-129.2 699.55,-126.44 700.06,-133.42"/>
</g>
<!-- Node32&#45;&gt;Node6 -->
<g id="edge85" class="edge">
<title>Node32&#45;&gt;Node6</title>
<path fill="none" stroke="midnightblue" d="M1008.91,-171.41C1029.87,-144.36 1092.14,-64.04 1119.6,-28.61"/>
<polygon fill="midnightblue" stroke="midnightblue" points="1122.42,-30.68 1125.78,-20.63 1116.89,-26.39 1122.42,-30.68"/>
</g>
<!-- Node32&#45;&gt;Node9 -->
<g id="edge84" class="edge">
<title>Node32&#45;&gt;Node9</title>
<path fill="none" stroke="midnightblue" d="M996.54,-171.33C985.83,-152.88 961.48,-110.92 947.42,-86.69"/>
<polygon fill="midnightblue" stroke="midnightblue" points="950.3,-84.68 942.25,-77.79 944.25,-88.2 950.3,-84.68"/>
</g>
<!-- Node32&#45;&gt;Node11 -->
<g id="edge86" class="edge">
<title>Node32&#45;&gt;Node11</title>
<path fill="none" stroke="midnightblue" d="M962.66,-171.48C921.42,-161.99 856.42,-147.03 811.83,-136.77"/>
<polygon fill="midnightblue" stroke="midnightblue" points="812.61,-133.36 802.08,-134.53 811.04,-140.18 812.61,-133.36"/>
</g>
</g>
</svg>
