<?xml version="1.0" encoding="UTF-8" standalone="no"?>
<!DOCTYPE svg PUBLIC "-//W3C//DTD SVG 1.1//EN"
 "http://www.w3.org/Graphics/SVG/1.1/DTD/svg11.dtd">
<!-- Generated by graphviz version 3.0.0 (20220413.0242)
 -->
<!-- Title: libmirai/public/libmirai/Messages/ForwardMessage.cpp Pages: 1 -->
<svg width="841pt" height="269pt"
 viewBox="0.00 0.00 841.41 269.00" xmlns="http://www.w3.org/2000/svg" xmlns:xlink="http://www.w3.org/1999/xlink">
<g id="graph0" class="graph" transform="scale(1 1) rotate(0) translate(4 265)">
<title>libmirai/public/libmirai/Messages/ForwardMessage.cpp</title>
<!-- Node1 -->
<g id="node1" class="node">
<title>Node1</title>
<g id="a_node1"><a xlink:title=" ">
<polygon fill="#bfbfbf" stroke="black" points="449.41,-228.5 449.41,-260.5 625.41,-260.5 625.41,-228.5 449.41,-228.5"/>
<text text-anchor="start" x="457.41" y="-247.7" font-family="-apple-system, BlinkMacSystemFont, 'Segoe UI', Roboto, Oxygen, Ubuntu, Cantarell, 'Fira Sans', 'Droid Sans', 'Helvetica Neue', sans-serif" font-size="11.00">libmirai/public/libmirai</text>
<text text-anchor="middle" x="537.41" y="-235.7" font-family="-apple-system, BlinkMacSystemFont, 'Segoe UI', Roboto, Oxygen, Ubuntu, Cantarell, 'Fira Sans', 'Droid Sans', 'Helvetica Neue', sans-serif" font-size="11.00">/Messages/ForwardMessage.cpp</text>
</a>
</g>
</g>
<!-- Node2 -->
<g id="node2" class="node">
<title>Node2</title>
<g id="a_node2"><a xlink:href="ForwardMessage_8hpp.html" target="_top" xlink:title=" ">
<polygon fill="none" stroke="black" points="241.41,-171.5 241.41,-191.5 363.41,-191.5 363.41,-171.5 241.41,-171.5"/>
<text text-anchor="middle" x="302.41" y="-178.7" font-family="-apple-system, BlinkMacSystemFont, 'Segoe UI', Roboto, Oxygen, Ubuntu, Cantarell, 'Fira Sans', 'Droid Sans', 'Helvetica Neue', sans-serif" font-size="11.00">ForwardMessage.hpp</text>
</a>
</g>
</g>
<!-- Node1&#45;&gt;Node2 -->
<g id="edge1" class="edge">
<title>Node1&#45;&gt;Node2</title>
<path fill="none" stroke="midnightblue" d="M479.62,-228.5C438.88,-217.92 385.08,-203.96 347.5,-194.2"/>
<polygon fill="midnightblue" stroke="midnightblue" points="347.91,-190.69 337.35,-191.57 346.15,-197.47 347.91,-190.69"/>
</g>
<!-- Node4 -->
<g id="node4" class="node">
<title>Node4</title>
<g id="a_node4"><a xlink:title=" ">
<polygon fill="none" stroke="#bfbfbf" points="396.41,-57.5 396.41,-77.5 450.41,-77.5 450.41,-57.5 396.41,-57.5"/>
<text text-anchor="middle" x="423.41" y="-64.7" font-family="-apple-system, BlinkMacSystemFont, 'Segoe UI', Roboto, Oxygen, Ubuntu, Cantarell, 'Fira Sans', 'Droid Sans', 'Helvetica Neue', sans-serif" font-size="11.00">optional</text>
</a>
</g>
</g>
<!-- Node1&#45;&gt;Node4 -->
<g id="edge20" class="edge">
<title>Node1&#45;&gt;Node4</title>
<path fill="none" stroke="midnightblue" d="M527.49,-228.28C506.4,-195.9 457.19,-120.35 434.83,-86.03"/>
<polygon fill="midnightblue" stroke="midnightblue" points="437.67,-83.98 429.28,-77.51 431.8,-87.8 437.67,-83.98"/>
</g>
<!-- Node6 -->
<g id="node6" class="node">
<title>Node6</title>
<g id="a_node6"><a xlink:title=" ">
<polygon fill="none" stroke="#bfbfbf" points="468.41,-57.5 468.41,-77.5 514.41,-77.5 514.41,-57.5 468.41,-57.5"/>
<text text-anchor="middle" x="491.41" y="-64.7" font-family="-apple-system, BlinkMacSystemFont, 'Segoe UI', Roboto, Oxygen, Ubuntu, Cantarell, 'Fira Sans', 'Droid Sans', 'Helvetica Neue', sans-serif" font-size="11.00">vector</text>
</a>
</g>
</g>
<!-- Node1&#45;&gt;Node6 -->
<g id="edge21" class="edge">
<title>Node1&#45;&gt;Node6</title>
<path fill="none" stroke="midnightblue" d="M535.94,-228.42C533.25,-203.93 526.59,-154.2 513.41,-114 510.34,-104.63 505.73,-94.73 501.52,-86.56"/>
<polygon fill="midnightblue" stroke="midnightblue" points="504.53,-84.76 496.71,-77.61 498.36,-88.07 504.53,-84.76"/>
</g>
<!-- Node34 -->
<g id="node11" class="node">
<title>Node34</title>
<g id="a_node11"><a xlink:title=" ">
<polygon fill="none" stroke="#bfbfbf" points="565.41,-171.5 565.41,-191.5 673.41,-191.5 673.41,-171.5 565.41,-171.5"/>
<text text-anchor="middle" x="619.41" y="-178.7" font-family="-apple-system, BlinkMacSystemFont, 'Segoe UI', Roboto, Oxygen, Ubuntu, Cantarell, 'Fira Sans', 'Droid Sans', 'Helvetica Neue', sans-serif" font-size="11.00">nlohmann/json.hpp</text>
</a>
</g>
</g>
<!-- Node1&#45;&gt;Node34 -->
<g id="edge22" class="edge">
<title>Node1&#45;&gt;Node34</title>
<path fill="none" stroke="midnightblue" d="M557.68,-228.42C570.32,-219.02 586.52,-206.96 599.16,-197.56"/>
<polygon fill="midnightblue" stroke="midnightblue" points="601.31,-200.32 607.25,-191.55 597.14,-194.71 601.31,-200.32"/>
</g>
<!-- Node35 -->
<g id="node12" class="node">
<title>Node35</title>
<g id="a_node12"><a xlink:title=" ">
<polygon fill="none" stroke="#bfbfbf" points="691.41,-171.5 691.41,-191.5 833.41,-191.5 833.41,-171.5 691.41,-171.5"/>
<text text-anchor="middle" x="762.41" y="-178.7" font-family="-apple-system, BlinkMacSystemFont, 'Segoe UI', Roboto, Oxygen, Ubuntu, Cantarell, 'Fira Sans', 'Droid Sans', 'Helvetica Neue', sans-serif" font-size="11.00">libmirai/Utils/Common.hpp</text>
</a>
</g>
</g>
<!-- Node1&#45;&gt;Node35 -->
<g id="edge23" class="edge">
<title>Node1&#45;&gt;Node35</title>
<path fill="none" stroke="midnightblue" d="M592.74,-228.5C631.75,-217.92 683.25,-203.96 719.24,-194.2"/>
<polygon fill="midnightblue" stroke="midnightblue" points="720.22,-197.56 728.96,-191.57 718.39,-190.81 720.22,-197.56"/>
</g>
<!-- Node3 -->
<g id="node3" class="node">
<title>Node3</title>
<g id="a_node3"><a xlink:title=" ">
<polygon fill="none" stroke="#bfbfbf" points="114.41,-57.5 114.41,-77.5 156.41,-77.5 156.41,-57.5 114.41,-57.5"/>
<text text-anchor="middle" x="135.41" y="-64.7" font-family="-apple-system, BlinkMacSystemFont, 'Segoe UI', Roboto, Oxygen, Ubuntu, Cantarell, 'Fira Sans', 'Droid Sans', 'Helvetica Neue', sans-serif" font-size="11.00">ctime</text>
</a>
</g>
</g>
<!-- Node2&#45;&gt;Node3 -->
<g id="edge2" class="edge">
<title>Node2&#45;&gt;Node3</title>
<path fill="none" stroke="midnightblue" d="M241.15,-179.54C166.88,-176.93 48.18,-167.61 20.41,-135 -6.6,-103.29 61.74,-83.22 104.33,-74.15"/>
<polygon fill="midnightblue" stroke="midnightblue" points="105.17,-77.56 114.28,-72.14 103.78,-70.7 105.17,-77.56"/>
</g>
<!-- Node2&#45;&gt;Node4 -->
<g id="edge3" class="edge">
<title>Node2&#45;&gt;Node4</title>
<path fill="none" stroke="midnightblue" d="M324.4,-171.38C341.39,-163.55 364.74,-151 381.41,-135 395.83,-121.15 407.5,-101.38 414.84,-87"/>
<polygon fill="midnightblue" stroke="midnightblue" points="418.17,-88.17 419.4,-77.64 411.88,-85.1 418.17,-88.17"/>
</g>
<!-- Node5 -->
<g id="node5" class="node">
<title>Node5</title>
<g id="a_node5"><a xlink:title=" ">
<polygon fill="none" stroke="#bfbfbf" points="174.91,-57.5 174.91,-77.5 215.91,-77.5 215.91,-57.5 174.91,-57.5"/>
<text text-anchor="middle" x="195.41" y="-64.7" font-family="-apple-system, BlinkMacSystemFont, 'Segoe UI', Roboto, Oxygen, Ubuntu, Cantarell, 'Fira Sans', 'Droid Sans', 'Helvetica Neue', sans-serif" font-size="11.00">utility</text>
</a>
</g>
</g>
<!-- Node2&#45;&gt;Node5 -->
<g id="edge4" class="edge">
<title>Node2&#45;&gt;Node5</title>
<path fill="none" stroke="midnightblue" d="M286.7,-171.4C273.16,-163.06 253.61,-149.79 239.41,-135 225.39,-120.39 213.03,-100.77 205.01,-86.63"/>
<polygon fill="midnightblue" stroke="midnightblue" points="208.06,-84.93 200.18,-77.85 201.93,-88.3 208.06,-84.93"/>
</g>
<!-- Node2&#45;&gt;Node6 -->
<g id="edge5" class="edge">
<title>Node2&#45;&gt;Node6</title>
<path fill="none" stroke="midnightblue" d="M326.42,-171.46C347.37,-163.15 378.26,-149.91 403.41,-135 428.94,-119.86 455.81,-98.68 473.04,-84.32"/>
<polygon fill="midnightblue" stroke="midnightblue" points="475.73,-86.63 481.12,-77.5 471.22,-81.28 475.73,-86.63"/>
</g>
<!-- Node7 -->
<g id="node7" class="node">
<title>Node7</title>
<g id="a_node7"><a xlink:title=" ">
<polygon fill="none" stroke="#bfbfbf" points="99.91,-0.5 99.91,-20.5 230.91,-20.5 230.91,-0.5 99.91,-0.5"/>
<text text-anchor="middle" x="165.41" y="-7.7" font-family="-apple-system, BlinkMacSystemFont, 'Segoe UI', Roboto, Oxygen, Ubuntu, Cantarell, 'Fira Sans', 'Droid Sans', 'Helvetica Neue', sans-serif" font-size="11.00">nlohmann/json_fwd.hpp</text>
</a>
</g>
</g>
<!-- Node2&#45;&gt;Node7 -->
<g id="edge6" class="edge">
<title>Node2&#45;&gt;Node7</title>
<path fill="none" stroke="midnightblue" d="M241.32,-179.94C164.62,-177.79 39.52,-169 10.41,-135 -30.84,-86.82 67.68,-43.99 126.07,-23.79"/>
<polygon fill="midnightblue" stroke="midnightblue" points="127.41,-27.03 135.77,-20.51 125.17,-20.4 127.41,-27.03"/>
</g>
<!-- Node8 -->
<g id="node8" class="node">
<title>Node8</title>
<g id="a_node8"><a xlink:href="BasicTypes_8hpp.html" target="_top" xlink:title=" ">
<polygon fill="none" stroke="red" points="29.41,-114.5 29.41,-134.5 191.41,-134.5 191.41,-114.5 29.41,-114.5"/>
<text text-anchor="middle" x="110.41" y="-121.7" font-family="-apple-system, BlinkMacSystemFont, 'Segoe UI', Roboto, Oxygen, Ubuntu, Cantarell, 'Fira Sans', 'Droid Sans', 'Helvetica Neue', sans-serif" font-size="11.00">libmirai/Types/BasicTypes.hpp</text>
</a>
</g>
</g>
<!-- Node2&#45;&gt;Node8 -->
<g id="edge7" class="edge">
<title>Node2&#45;&gt;Node8</title>
<path fill="none" stroke="midnightblue" d="M270.7,-171.42C238.09,-162.08 187.15,-147.48 151.47,-137.26"/>
<polygon fill="midnightblue" stroke="midnightblue" points="152.42,-133.89 141.84,-134.5 150.49,-140.62 152.42,-133.89"/>
</g>
<!-- Node12 -->
<g id="node9" class="node">
<title>Node12</title>
<g id="a_node9"><a xlink:href="MessageBase_8hpp.html" target="_top" xlink:title=" ">
<polygon fill="none" stroke="red" points="272.41,-57.5 272.41,-77.5 378.41,-77.5 378.41,-57.5 272.41,-57.5"/>
<text text-anchor="middle" x="325.41" y="-64.7" font-family="-apple-system, BlinkMacSystemFont, 'Segoe UI', Roboto, Oxygen, Ubuntu, Cantarell, 'Fira Sans', 'Droid Sans', 'Helvetica Neue', sans-serif" font-size="11.00">MessageBase.hpp</text>
</a>
</g>
</g>
<!-- Node2&#45;&gt;Node12 -->
<g id="edge11" class="edge">
<title>Node2&#45;&gt;Node12</title>
<path fill="none" stroke="midnightblue" d="M324.53,-171.39C339.34,-163.98 357.66,-151.96 366.41,-135 375.64,-117.1 360.37,-97.59 345.91,-84.36"/>
<polygon fill="midnightblue" stroke="midnightblue" points="348,-81.54 338.12,-77.71 343.45,-86.87 348,-81.54"/>
</g>
<!-- Node14 -->
<g id="node10" class="node">
<title>Node14</title>
<g id="a_node10"><a xlink:href="MessageChain_8hpp.html" target="_top" xlink:title=" ">
<polygon fill="none" stroke="red" points="247.91,-114.5 247.91,-134.5 356.91,-134.5 356.91,-114.5 247.91,-114.5"/>
<text text-anchor="middle" x="302.41" y="-121.7" font-family="-apple-system, BlinkMacSystemFont, 'Segoe UI', Roboto, Oxygen, Ubuntu, Cantarell, 'Fira Sans', 'Droid Sans', 'Helvetica Neue', sans-serif" font-size="11.00">MessageChain.hpp</text>
</a>
</g>
</g>
<!-- Node2&#45;&gt;Node14 -->
<g id="edge13" class="edge">
<title>Node2&#45;&gt;Node14</title>
<path fill="none" stroke="midnightblue" d="M302.41,-171.42C302.41,-164.22 302.41,-153.9 302.41,-144.86"/>
<polygon fill="midnightblue" stroke="midnightblue" points="305.91,-144.78 302.41,-134.78 298.91,-144.78 305.91,-144.78"/>
</g>
<!-- Node8&#45;&gt;Node3 -->
<g id="edge8" class="edge">
<title>Node8&#45;&gt;Node3</title>
<path fill="none" stroke="midnightblue" d="M114.54,-114.42C117.92,-106.98 122.81,-96.21 127.01,-86.97"/>
<polygon fill="midnightblue" stroke="midnightblue" points="130.24,-88.33 131.19,-77.78 123.87,-85.43 130.24,-88.33"/>
</g>
<!-- Node8&#45;&gt;Node5 -->
<g id="edge9" class="edge">
<title>Node8&#45;&gt;Node5</title>
<path fill="none" stroke="midnightblue" d="M124.44,-114.42C137.61,-105.9 157.52,-93.02 172.9,-83.06"/>
<polygon fill="midnightblue" stroke="midnightblue" points="174.86,-85.97 181.35,-77.6 171.05,-80.09 174.86,-85.97"/>
</g>
<!-- Node8&#45;&gt;Node7 -->
<g id="edge10" class="edge">
<title>Node8&#45;&gt;Node7</title>
<path fill="none" stroke="midnightblue" d="M106.9,-114.33C102.38,-100.96 96.14,-75.66 105.41,-57 111.99,-43.75 124.47,-33.33 136.36,-25.81"/>
<polygon fill="midnightblue" stroke="midnightblue" points="138.35,-28.71 145.22,-20.64 134.82,-22.66 138.35,-28.71"/>
</g>
<!-- Node12&#45;&gt;Node7 -->
<g id="edge12" class="edge">
<title>Node12&#45;&gt;Node7</title>
<path fill="none" stroke="midnightblue" d="M298.99,-57.42C272.27,-48.23 230.81,-33.98 201.16,-23.79"/>
<polygon fill="midnightblue" stroke="midnightblue" points="202.2,-20.45 191.6,-20.5 199.92,-27.06 202.2,-20.45"/>
</g>
<!-- Node14&#45;&gt;Node3 -->
<g id="edge14" class="edge">
<title>Node14&#45;&gt;Node3</title>
<path fill="none" stroke="midnightblue" d="M274.83,-114.42C244.95,-104.58 197.39,-88.91 166.28,-78.67"/>
<polygon fill="midnightblue" stroke="midnightblue" points="167,-75.22 156.41,-75.42 164.81,-81.87 167,-75.22"/>
</g>
<!-- Node14&#45;&gt;Node4 -->
<g id="edge15" class="edge">
<title>Node14&#45;&gt;Node4</title>
<path fill="none" stroke="midnightblue" d="M322.39,-114.42C341.92,-105.54 371.87,-91.93 394.1,-81.82"/>
<polygon fill="midnightblue" stroke="midnightblue" points="395.74,-84.92 403.4,-77.6 392.85,-78.55 395.74,-84.92"/>
</g>
<!-- Node14&#45;&gt;Node5 -->
<g id="edge16" class="edge">
<title>Node14&#45;&gt;Node5</title>
<path fill="none" stroke="midnightblue" d="M284.74,-114.42C267.7,-105.66 241.69,-92.29 222.12,-82.23"/>
<polygon fill="midnightblue" stroke="midnightblue" points="223.6,-79.05 213.1,-77.6 220.4,-85.28 223.6,-79.05"/>
</g>
<!-- Node14&#45;&gt;Node6 -->
<g id="edge17" class="edge">
<title>Node14&#45;&gt;Node6</title>
<path fill="none" stroke="midnightblue" d="M333.7,-114.5C363.42,-105.93 409.61,-92.58 458.53,-78.25"/>
<polygon fill="midnightblue" stroke="midnightblue" points="459.73,-81.54 468.34,-75.37 457.76,-74.82 459.73,-81.54"/>
</g>
<!-- Node14&#45;&gt;Node7 -->
<g id="edge18" class="edge">
<title>Node14&#45;&gt;Node7</title>
<path fill="none" stroke="midnightblue" d="M292.13,-114.25C277.53,-101.21 249.84,-76.78 225.41,-57 212.62,-46.64 197.89,-35.47 186.23,-26.78"/>
<polygon fill="midnightblue" stroke="midnightblue" points="188.12,-23.82 178,-20.68 183.95,-29.45 188.12,-23.82"/>
</g>
<!-- Node14&#45;&gt;Node12 -->
<g id="edge19" class="edge">
<title>Node14&#45;&gt;Node12</title>
<path fill="none" stroke="midnightblue" d="M306.21,-114.42C309.28,-107.06 313.72,-96.44 317.56,-87.27"/>
<polygon fill="midnightblue" stroke="midnightblue" points="320.9,-88.36 321.53,-77.78 314.44,-85.65 320.9,-88.36"/>
</g>
</g>
</svg>
