<?xml version="1.0" encoding="UTF-8" standalone="no"?>
<!DOCTYPE svg PUBLIC "-//W3C//DTD SVG 1.1//EN"
 "http://www.w3.org/Graphics/SVG/1.1/DTD/svg11.dtd">
<!-- Generated by graphviz version 2.43.0 (0)
 -->
<!-- Title: libmirai/public/libmirai/Messages/ForwardMessage.cpp Pages: 1 -->
<svg width="935pt" height="269pt"
 viewBox="0.00 0.00 934.50 269.00" xmlns="http://www.w3.org/2000/svg" xmlns:xlink="http://www.w3.org/1999/xlink">
<g id="graph0" class="graph" transform="scale(1 1) rotate(0) translate(4 265)">
<title>libmirai/public/libmirai/Messages/ForwardMessage.cpp</title>
<!-- Node1 -->
<g id="node1" class="node">
<title>Node1</title>
<g id="a_node1"><a xlink:title=" ">
<polygon fill="#bfbfbf" stroke="black" points="499,-228.5 499,-260.5 694,-260.5 694,-228.5 499,-228.5"/>
<text text-anchor="start" x="507" y="-247.7" font-family="-apple-system,BlinkMacSystemFont,'SegoeUI',Roboto,Oxygen,Ubuntu,Cantarell,'FiraSans','DroidSans','HelveticaNeue',sans-serif" font-size="11.00">libmirai/public/libmirai</text>
<text text-anchor="middle" x="596.5" y="-235.7" font-family="-apple-system,BlinkMacSystemFont,'SegoeUI',Roboto,Oxygen,Ubuntu,Cantarell,'FiraSans','DroidSans','HelveticaNeue',sans-serif" font-size="11.00">/Messages/ForwardMessage.cpp</text>
</a>
</g>
</g>
<!-- Node2 -->
<g id="node2" class="node">
<title>Node2</title>
<g id="a_node2"><a xlink:href="ForwardMessage_8hpp.html" target="_top" xlink:title=" ">
<polygon fill="none" stroke="black" points="215.5,-171.5 215.5,-191.5 349.5,-191.5 349.5,-171.5 215.5,-171.5"/>
<text text-anchor="middle" x="282.5" y="-178.7" font-family="-apple-system,BlinkMacSystemFont,'SegoeUI',Roboto,Oxygen,Ubuntu,Cantarell,'FiraSans','DroidSans','HelveticaNeue',sans-serif" font-size="11.00">ForwardMessage.hpp</text>
</a>
</g>
</g>
<!-- Node1&#45;&gt;Node2 -->
<g id="edge1" class="edge">
<title>Node1&#45;&gt;Node2</title>
<path fill="none" stroke="midnightblue" d="M519.28,-228.5C463.56,-217.67 389.58,-203.3 339.24,-193.52"/>
<polygon fill="midnightblue" stroke="midnightblue" points="339.67,-190.04 329.19,-191.57 338.33,-196.91 339.67,-190.04"/>
</g>
<!-- Node4 -->
<g id="node4" class="node">
<title>Node4</title>
<g id="a_node4"><a xlink:title=" ">
<polygon fill="none" stroke="#bfbfbf" points="0,-57.5 0,-77.5 61,-77.5 61,-57.5 0,-57.5"/>
<text text-anchor="middle" x="30.5" y="-64.7" font-family="-apple-system,BlinkMacSystemFont,'SegoeUI',Roboto,Oxygen,Ubuntu,Cantarell,'FiraSans','DroidSans','HelveticaNeue',sans-serif" font-size="11.00">optional</text>
</a>
</g>
</g>
<!-- Node1&#45;&gt;Node4 -->
<g id="edge19" class="edge">
<title>Node1&#45;&gt;Node4</title>
<path fill="none" stroke="midnightblue" d="M498.8,-236.74C419.22,-229.77 304.42,-216.37 206.5,-192 136.08,-174.47 104.2,-186.91 53.5,-135 40.98,-122.19 35.26,-102.24 32.65,-87.53"/>
<polygon fill="midnightblue" stroke="midnightblue" points="36.1,-86.9 31.21,-77.51 29.17,-87.9 36.1,-86.9"/>
</g>
<!-- Node6 -->
<g id="node6" class="node">
<title>Node6</title>
<g id="a_node6"><a xlink:title=" ">
<polygon fill="none" stroke="#bfbfbf" points="478.5,-57.5 478.5,-77.5 530.5,-77.5 530.5,-57.5 478.5,-57.5"/>
<text text-anchor="middle" x="504.5" y="-64.7" font-family="-apple-system,BlinkMacSystemFont,'SegoeUI',Roboto,Oxygen,Ubuntu,Cantarell,'FiraSans','DroidSans','HelveticaNeue',sans-serif" font-size="11.00">vector</text>
</a>
</g>
</g>
<!-- Node1&#45;&gt;Node6 -->
<g id="edge20" class="edge">
<title>Node1&#45;&gt;Node6</title>
<path fill="none" stroke="midnightblue" d="M588.5,-228.28C571.55,-196.03 532.1,-121 513.95,-86.47"/>
<polygon fill="midnightblue" stroke="midnightblue" points="516.99,-84.73 509.24,-77.51 510.79,-87.99 516.99,-84.73"/>
</g>
<!-- Node34 -->
<g id="node11" class="node">
<title>Node34</title>
<g id="a_node11"><a xlink:title=" ">
<polygon fill="none" stroke="#bfbfbf" points="625,-171.5 625,-191.5 746,-191.5 746,-171.5 625,-171.5"/>
<text text-anchor="middle" x="685.5" y="-178.7" font-family="-apple-system,BlinkMacSystemFont,'SegoeUI',Roboto,Oxygen,Ubuntu,Cantarell,'FiraSans','DroidSans','HelveticaNeue',sans-serif" font-size="11.00">nlohmann/json.hpp</text>
</a>
</g>
</g>
<!-- Node1&#45;&gt;Node34 -->
<g id="edge21" class="edge">
<title>Node1&#45;&gt;Node34</title>
<path fill="none" stroke="midnightblue" d="M618.5,-228.42C632.35,-218.93 650.15,-206.73 663.92,-197.29"/>
<polygon fill="midnightblue" stroke="midnightblue" points="666.03,-200.09 672.3,-191.55 662.07,-194.31 666.03,-200.09"/>
</g>
<!-- Node35 -->
<g id="node12" class="node">
<title>Node35</title>
<g id="a_node12"><a xlink:title=" ">
<polygon fill="none" stroke="#bfbfbf" points="764.5,-171.5 764.5,-191.5 926.5,-191.5 926.5,-171.5 764.5,-171.5"/>
<text text-anchor="middle" x="845.5" y="-178.7" font-family="-apple-system,BlinkMacSystemFont,'SegoeUI',Roboto,Oxygen,Ubuntu,Cantarell,'FiraSans','DroidSans','HelveticaNeue',sans-serif" font-size="11.00">libmirai/Utils/Common.hpp</text>
</a>
</g>
</g>
<!-- Node1&#45;&gt;Node35 -->
<g id="edge22" class="edge">
<title>Node1&#45;&gt;Node35</title>
<path fill="none" stroke="midnightblue" d="M657.73,-228.5C701.27,-217.83 758.87,-203.72 798.74,-193.95"/>
<polygon fill="midnightblue" stroke="midnightblue" points="799.6,-197.35 808.48,-191.57 797.93,-190.55 799.6,-197.35"/>
</g>
<!-- Node3 -->
<g id="node3" class="node">
<title>Node3</title>
<g id="a_node3"><a xlink:title=" ">
<polygon fill="none" stroke="#bfbfbf" points="320,-57.5 320,-77.5 367,-77.5 367,-57.5 320,-57.5"/>
<text text-anchor="middle" x="343.5" y="-64.7" font-family="-apple-system,BlinkMacSystemFont,'SegoeUI',Roboto,Oxygen,Ubuntu,Cantarell,'FiraSans','DroidSans','HelveticaNeue',sans-serif" font-size="11.00">ctime</text>
</a>
</g>
</g>
<!-- Node2&#45;&gt;Node3 -->
<g id="edge2" class="edge">
<title>Node2&#45;&gt;Node3</title>
<path fill="none" stroke="midnightblue" d="M283.73,-171.38C285.82,-158.06 290.91,-132.84 301.5,-114 307.64,-103.06 316.92,-92.64 325.19,-84.54"/>
<polygon fill="midnightblue" stroke="midnightblue" points="327.76,-86.93 332.67,-77.54 322.98,-81.81 327.76,-86.93"/>
</g>
<!-- Node2&#45;&gt;Node4 -->
<g id="edge3" class="edge">
<title>Node2&#45;&gt;Node4</title>
<path fill="none" stroke="midnightblue" d="M215.33,-177.57C173.1,-172.96 119.11,-161.75 78.5,-135 60.55,-123.18 47.08,-102.18 39.05,-86.93"/>
<polygon fill="midnightblue" stroke="midnightblue" points="42.15,-85.3 34.56,-77.9 35.88,-88.41 42.15,-85.3"/>
</g>
<!-- Node5 -->
<g id="node5" class="node">
<title>Node5</title>
<g id="a_node5"><a xlink:title=" ">
<polygon fill="none" stroke="#bfbfbf" points="80.5,-57.5 80.5,-77.5 128.5,-77.5 128.5,-57.5 80.5,-57.5"/>
<text text-anchor="middle" x="104.5" y="-64.7" font-family="-apple-system,BlinkMacSystemFont,'SegoeUI',Roboto,Oxygen,Ubuntu,Cantarell,'FiraSans','DroidSans','HelveticaNeue',sans-serif" font-size="11.00">utility</text>
</a>
</g>
</g>
<!-- Node2&#45;&gt;Node5 -->
<g id="edge4" class="edge">
<title>Node2&#45;&gt;Node5</title>
<path fill="none" stroke="midnightblue" d="M215.44,-173.7C165.53,-167.09 103.41,-155.05 87.5,-135 76.44,-121.06 84.06,-100.77 92.34,-86.26"/>
<polygon fill="midnightblue" stroke="midnightblue" points="95.36,-88.04 97.68,-77.7 89.42,-84.33 95.36,-88.04"/>
</g>
<!-- Node2&#45;&gt;Node6 -->
<g id="edge5" class="edge">
<title>Node2&#45;&gt;Node6</title>
<path fill="none" stroke="midnightblue" d="M349.58,-175.46C406.55,-169.64 482.08,-157.8 501.5,-135 512.37,-122.24 511.89,-102.59 509.42,-87.96"/>
<polygon fill="midnightblue" stroke="midnightblue" points="512.8,-87.01 507.31,-77.94 505.95,-88.45 512.8,-87.01"/>
</g>
<!-- Node7 -->
<g id="node7" class="node">
<title>Node7</title>
<g id="a_node7"><a xlink:title=" ">
<polygon fill="none" stroke="#bfbfbf" points="249.5,-0.5 249.5,-20.5 395.5,-20.5 395.5,-0.5 249.5,-0.5"/>
<text text-anchor="middle" x="322.5" y="-7.7" font-family="-apple-system,BlinkMacSystemFont,'SegoeUI',Roboto,Oxygen,Ubuntu,Cantarell,'FiraSans','DroidSans','HelveticaNeue',sans-serif" font-size="11.00">nlohmann/json_fwd.hpp</text>
</a>
</g>
</g>
<!-- Node2&#45;&gt;Node7 -->
<g id="edge6" class="edge">
<title>Node2&#45;&gt;Node7</title>
<path fill="none" stroke="midnightblue" d="M349.66,-175.04C410.56,-168.8 494.51,-156.54 519.5,-135 539.83,-117.47 534.99,-104.47 539.5,-78 541.07,-68.8 545.38,-64.25 539.5,-57 522.57,-36.16 459.65,-24.52 405.89,-18.24"/>
<polygon fill="midnightblue" stroke="midnightblue" points="405.95,-14.73 395.63,-17.09 405.18,-21.68 405.95,-14.73"/>
</g>
<!-- Node8 -->
<g id="node8" class="node">
<title>Node8</title>
<g id="a_node8"><a xlink:href="BasicTypes_8hpp.html" target="_top" xlink:title=" ">
<polygon fill="none" stroke="red" points="311,-114.5 311,-134.5 492,-134.5 492,-114.5 311,-114.5"/>
<text text-anchor="middle" x="401.5" y="-121.7" font-family="-apple-system,BlinkMacSystemFont,'SegoeUI',Roboto,Oxygen,Ubuntu,Cantarell,'FiraSans','DroidSans','HelveticaNeue',sans-serif" font-size="11.00">libmirai/Types/BasicTypes.hpp</text>
</a>
</g>
</g>
<!-- Node2&#45;&gt;Node8 -->
<g id="edge7" class="edge">
<title>Node2&#45;&gt;Node8</title>
<path fill="none" stroke="midnightblue" d="M302.15,-171.42C321.36,-162.54 350.82,-148.93 372.67,-138.82"/>
<polygon fill="midnightblue" stroke="midnightblue" points="374.21,-141.97 381.82,-134.6 371.27,-135.61 374.21,-141.97"/>
</g>
<!-- Node12 -->
<g id="node9" class="node">
<title>Node12</title>
<g id="a_node9"><a xlink:href="MessageBase_8hpp.html" target="_top" xlink:title=" ">
<polygon fill="none" stroke="red" points="185.5,-57.5 185.5,-77.5 301.5,-77.5 301.5,-57.5 185.5,-57.5"/>
<text text-anchor="middle" x="243.5" y="-64.7" font-family="-apple-system,BlinkMacSystemFont,'SegoeUI',Roboto,Oxygen,Ubuntu,Cantarell,'FiraSans','DroidSans','HelveticaNeue',sans-serif" font-size="11.00">MessageBase.hpp</text>
</a>
</g>
</g>
<!-- Node2&#45;&gt;Node12 -->
<g id="edge10" class="edge">
<title>Node2&#45;&gt;Node12</title>
<path fill="none" stroke="midnightblue" d="M279.31,-171.33C272.94,-153.04 258.53,-111.67 250.06,-87.34"/>
<polygon fill="midnightblue" stroke="midnightblue" points="253.33,-86.08 246.74,-77.79 246.72,-88.39 253.33,-86.08"/>
</g>
<!-- Node14 -->
<g id="node10" class="node">
<title>Node14</title>
<g id="a_node10"><a xlink:href="MessageChain_8hpp.html" target="_top" xlink:title=" ">
<polygon fill="none" stroke="red" points="96.5,-114.5 96.5,-134.5 216.5,-134.5 216.5,-114.5 96.5,-114.5"/>
<text text-anchor="middle" x="156.5" y="-121.7" font-family="-apple-system,BlinkMacSystemFont,'SegoeUI',Roboto,Oxygen,Ubuntu,Cantarell,'FiraSans','DroidSans','HelveticaNeue',sans-serif" font-size="11.00">MessageChain.hpp</text>
</a>
</g>
</g>
<!-- Node2&#45;&gt;Node14 -->
<g id="edge12" class="edge">
<title>Node2&#45;&gt;Node14</title>
<path fill="none" stroke="midnightblue" d="M261.69,-171.42C241.27,-162.5 209.89,-148.8 186.71,-138.69"/>
<polygon fill="midnightblue" stroke="midnightblue" points="187.9,-135.39 177.34,-134.6 185.1,-141.8 187.9,-135.39"/>
</g>
<!-- Node8&#45;&gt;Node3 -->
<g id="edge8" class="edge">
<title>Node8&#45;&gt;Node3</title>
<path fill="none" stroke="midnightblue" d="M391.92,-114.42C383.49,-106.42 371.01,-94.59 360.83,-84.94"/>
<polygon fill="midnightblue" stroke="midnightblue" points="362.95,-82.12 353.29,-77.78 358.13,-87.2 362.95,-82.12"/>
</g>
<!-- Node8&#45;&gt;Node7 -->
<g id="edge9" class="edge">
<title>Node8&#45;&gt;Node7</title>
<path fill="none" stroke="midnightblue" d="M399.4,-114.21C396.02,-100.68 388.41,-75.2 375.5,-57 367.28,-45.41 355.48,-34.9 345.1,-26.9"/>
<polygon fill="midnightblue" stroke="midnightblue" points="346.95,-23.92 336.82,-20.81 342.8,-29.56 346.95,-23.92"/>
</g>
<!-- Node12&#45;&gt;Node7 -->
<g id="edge11" class="edge">
<title>Node12&#45;&gt;Node7</title>
<path fill="none" stroke="midnightblue" d="M256.55,-57.42C268.67,-48.98 286.94,-36.26 301.18,-26.34"/>
<polygon fill="midnightblue" stroke="midnightblue" points="303.23,-29.18 309.44,-20.6 299.23,-23.44 303.23,-29.18"/>
</g>
<!-- Node14&#45;&gt;Node3 -->
<g id="edge13" class="edge">
<title>Node14&#45;&gt;Node3</title>
<path fill="none" stroke="midnightblue" d="M187.38,-114.42C221.27,-104.45 275.49,-88.5 310.29,-78.27"/>
<polygon fill="midnightblue" stroke="midnightblue" points="311.38,-81.6 319.98,-75.42 309.4,-74.88 311.38,-81.6"/>
</g>
<!-- Node14&#45;&gt;Node4 -->
<g id="edge14" class="edge">
<title>Node14&#45;&gt;Node4</title>
<path fill="none" stroke="midnightblue" d="M135.69,-114.42C115.27,-105.5 83.89,-91.8 60.71,-81.69"/>
<polygon fill="midnightblue" stroke="midnightblue" points="61.9,-78.39 51.34,-77.6 59.1,-84.8 61.9,-78.39"/>
</g>
<!-- Node14&#45;&gt;Node5 -->
<g id="edge15" class="edge">
<title>Node14&#45;&gt;Node5</title>
<path fill="none" stroke="midnightblue" d="M147.91,-114.42C140.43,-106.5 129.39,-94.82 120.31,-85.23"/>
<polygon fill="midnightblue" stroke="midnightblue" points="122.69,-82.64 113.27,-77.78 117.6,-87.45 122.69,-82.64"/>
</g>
<!-- Node14&#45;&gt;Node6 -->
<g id="edge16" class="edge">
<title>Node14&#45;&gt;Node6</title>
<path fill="none" stroke="midnightblue" d="M213.58,-114.48C285.61,-103.09 407.4,-83.85 468,-74.27"/>
<polygon fill="midnightblue" stroke="midnightblue" points="468.89,-77.67 478.23,-72.65 467.8,-70.76 468.89,-77.67"/>
</g>
<!-- Node14&#45;&gt;Node7 -->
<g id="edge17" class="edge">
<title>Node14&#45;&gt;Node7</title>
<path fill="none" stroke="midnightblue" d="M156.65,-114.42C157.39,-100.22 160.89,-72.76 176.5,-57 193.42,-39.91 216.64,-29.22 239.58,-22.54"/>
<polygon fill="midnightblue" stroke="midnightblue" points="240.63,-25.88 249.38,-19.91 238.81,-19.12 240.63,-25.88"/>
</g>
<!-- Node14&#45;&gt;Node12 -->
<g id="edge18" class="edge">
<title>Node14&#45;&gt;Node12</title>
<path fill="none" stroke="midnightblue" d="M170.87,-114.42C184.34,-105.9 204.72,-93.02 220.46,-83.06"/>
<polygon fill="midnightblue" stroke="midnightblue" points="222.53,-85.9 229.11,-77.6 218.79,-79.98 222.53,-85.9"/>
</g>
</g>
</svg>
