<?xml version="1.0" encoding="UTF-8" standalone="no"?>
<!DOCTYPE svg PUBLIC "-//W3C//DTD SVG 1.1//EN"
 "http://www.w3.org/Graphics/SVG/1.1/DTD/svg11.dtd">
<!-- Generated by graphviz version 3.0.0 (20221109.1736)
 -->
<!-- Title: libmirai/models/libmirai/Messages/ForwardMessage.hpp Pages: 1 -->
<svg width="1955pt" height="317pt"
 viewBox="0.00 0.00 1954.56 317.00" xmlns="http://www.w3.org/2000/svg" xmlns:xlink="http://www.w3.org/1999/xlink">
<g id="graph0" class="graph" transform="scale(1 1) rotate(0) translate(4 313)">
<title>libmirai/models/libmirai/Messages/ForwardMessage.hpp</title>
<!-- Node1 -->
<g id="node1" class="node">
<title>Node1</title>
<g id="a_node1"><a xlink:title=" ">
<polygon fill="#bfbfbf" stroke="black" points="511,-276.5 511,-308.5 687,-308.5 687,-276.5 511,-276.5"/>
<text text-anchor="start" x="519" y="-295.7" font-family="-apple-system, BlinkMacSystemFont, 'Segoe UI', Roboto, Oxygen, Ubuntu, Cantarell, 'Fira Sans', 'Droid Sans', 'Helvetica Neue', sans-serif" font-size="11.00">libmirai/models/libmirai</text>
<text text-anchor="middle" x="599" y="-283.7" font-family="-apple-system, BlinkMacSystemFont, 'Segoe UI', Roboto, Oxygen, Ubuntu, Cantarell, 'Fira Sans', 'Droid Sans', 'Helvetica Neue', sans-serif" font-size="11.00">/Messages/ForwardMessage.hpp</text>
</a>
</g>
</g>
<!-- Node2 -->
<g id="node2" class="node">
<title>Node2</title>
<g id="a_node2"><a xlink:href="Messages_8hpp.html" target="_top" xlink:title=" ">
<polygon fill="none" stroke="black" points="226,-69.5 226,-101.5 404,-101.5 404,-69.5 226,-69.5"/>
<text text-anchor="start" x="234" y="-88.7" font-family="-apple-system, BlinkMacSystemFont, 'Segoe UI', Roboto, Oxygen, Ubuntu, Cantarell, 'Fira Sans', 'Droid Sans', 'Helvetica Neue', sans-serif" font-size="11.00">libmirai/aggregates</text>
<text text-anchor="middle" x="315" y="-76.7" font-family="-apple-system, BlinkMacSystemFont, 'Segoe UI', Roboto, Oxygen, Ubuntu, Cantarell, 'Fira Sans', 'Droid Sans', 'Helvetica Neue', sans-serif" font-size="11.00">/libmirai/Messages/Messages.hpp</text>
</a>
</g>
</g>
<!-- Node1&#45;&gt;Node2 -->
<g id="edge1" class="edge">
<title>Node1&#45;&gt;Node2</title>
<path fill="none" stroke="midnightblue" d="M697.32,-290.13C992.45,-285.02 1855.53,-262.31 1939,-171 1948.9,-160.17 1949.21,-148.53 1939,-138 1912.1,-110.24 740.08,-92.25 404.13,-87.66"/>
<polygon fill="midnightblue" stroke="midnightblue" points="697,-286.64 687.06,-290.31 697.12,-293.64 697,-286.64"/>
</g>
<!-- Node5 -->
<g id="node4" class="node">
<title>Node5</title>
<g id="a_node4"><a xlink:href="ForwardMessage_8cpp.html" target="_top" xlink:title=" ">
<polygon fill="none" stroke="black" points="0,-69.5 0,-101.5 176,-101.5 176,-69.5 0,-69.5"/>
<text text-anchor="start" x="8" y="-88.7" font-family="-apple-system, BlinkMacSystemFont, 'Segoe UI', Roboto, Oxygen, Ubuntu, Cantarell, 'Fira Sans', 'Droid Sans', 'Helvetica Neue', sans-serif" font-size="11.00">libmirai/models/libmirai</text>
<text text-anchor="middle" x="88" y="-76.7" font-family="-apple-system, BlinkMacSystemFont, 'Segoe UI', Roboto, Oxygen, Ubuntu, Cantarell, 'Fira Sans', 'Droid Sans', 'Helvetica Neue', sans-serif" font-size="11.00">/Messages/ForwardMessage.cpp</text>
</a>
</g>
</g>
<!-- Node1&#45;&gt;Node5 -->
<g id="edge3" class="edge">
<title>Node1&#45;&gt;Node5</title>
<path fill="none" stroke="midnightblue" d="M500.69,-283.5C363.44,-270.04 125.37,-237.52 74,-171 58.46,-150.87 69.93,-119.93 79.25,-101.6"/>
<polygon fill="midnightblue" stroke="midnightblue" points="500.51,-287 510.8,-284.48 501.19,-280.03 500.51,-287"/>
</g>
<!-- Node6 -->
<g id="node5" class="node">
<title>Node6</title>
<g id="a_node5"><a xlink:href="ForwardMessageNode_8hpp.html" target="_top" xlink:title=" ">
<polygon fill="none" stroke="black" points="83.5,-138.5 83.5,-170.5 286.5,-170.5 286.5,-138.5 83.5,-138.5"/>
<text text-anchor="start" x="91.5" y="-157.7" font-family="-apple-system, BlinkMacSystemFont, 'Segoe UI', Roboto, Oxygen, Ubuntu, Cantarell, 'Fira Sans', 'Droid Sans', 'Helvetica Neue', sans-serif" font-size="11.00">libmirai/models/libmirai</text>
<text text-anchor="middle" x="185" y="-145.7" font-family="-apple-system, BlinkMacSystemFont, 'Segoe UI', Roboto, Oxygen, Ubuntu, Cantarell, 'Fira Sans', 'Droid Sans', 'Helvetica Neue', sans-serif" font-size="11.00">/Messages/ForwardMessageNode.hpp</text>
</a>
</g>
</g>
<!-- Node1&#45;&gt;Node6 -->
<g id="edge4" class="edge">
<title>Node1&#45;&gt;Node6</title>
<path fill="none" stroke="midnightblue" d="M543.4,-273.24C460.82,-246.11 307.27,-195.67 230.78,-170.54"/>
<polygon fill="midnightblue" stroke="midnightblue" points="542.52,-276.63 553.11,-276.43 544.7,-269.98 542.52,-276.63"/>
</g>
<!-- Node7 -->
<g id="node6" class="node">
<title>Node7</title>
<g id="a_node6"><a xlink:href="MessageChain_8hpp.html" target="_top" xlink:title=" ">
<polygon fill="none" stroke="black" points="754,-207.5 754,-239.5 918,-239.5 918,-207.5 754,-207.5"/>
<text text-anchor="start" x="762" y="-226.7" font-family="-apple-system, BlinkMacSystemFont, 'Segoe UI', Roboto, Oxygen, Ubuntu, Cantarell, 'Fira Sans', 'Droid Sans', 'Helvetica Neue', sans-serif" font-size="11.00">libmirai/models/libmirai</text>
<text text-anchor="middle" x="836" y="-214.7" font-family="-apple-system, BlinkMacSystemFont, 'Segoe UI', Roboto, Oxygen, Ubuntu, Cantarell, 'Fira Sans', 'Droid Sans', 'Helvetica Neue', sans-serif" font-size="11.00">/Messages/MessageChain.hpp</text>
</a>
</g>
</g>
<!-- Node1&#45;&gt;Node7 -->
<g id="edge7" class="edge">
<title>Node1&#45;&gt;Node7</title>
<path fill="none" stroke="midnightblue" d="M662.02,-273.68C699.61,-263.06 746.83,-249.71 782.58,-239.6"/>
<polygon fill="midnightblue" stroke="midnightblue" points="660.86,-270.38 652.19,-276.46 662.76,-277.11 660.86,-270.38"/>
</g>
<!-- Node3 -->
<g id="node3" class="node">
<title>Node3</title>
<g id="a_node3"><a xlink:href="models_8hpp.html" target="_top" xlink:title=" ">
<polygon fill="none" stroke="red" points="259,-0.5 259,-32.5 371,-32.5 371,-0.5 259,-0.5"/>
<text text-anchor="start" x="267" y="-19.7" font-family="-apple-system, BlinkMacSystemFont, 'Segoe UI', Roboto, Oxygen, Ubuntu, Cantarell, 'Fira Sans', 'Droid Sans', 'Helvetica Neue', sans-serif" font-size="11.00">libmirai/aggregates</text>
<text text-anchor="middle" x="315" y="-7.7" font-family="-apple-system, BlinkMacSystemFont, 'Segoe UI', Roboto, Oxygen, Ubuntu, Cantarell, 'Fira Sans', 'Droid Sans', 'Helvetica Neue', sans-serif" font-size="11.00">/libmirai/models.hpp</text>
</a>
</g>
</g>
<!-- Node2&#45;&gt;Node3 -->
<g id="edge2" class="edge">
<title>Node2&#45;&gt;Node3</title>
<path fill="none" stroke="midnightblue" d="M315,-59.02C315,-50.13 315,-40.43 315,-32.64"/>
<polygon fill="midnightblue" stroke="midnightblue" points="311.5,-59.3 315,-69.3 318.5,-59.3 311.5,-59.3"/>
</g>
<!-- Node6&#45;&gt;Node2 -->
<g id="edge5" class="edge">
<title>Node6&#45;&gt;Node2</title>
<path fill="none" stroke="midnightblue" d="M223.27,-133.77C243.14,-123.53 267.05,-111.21 285.47,-101.72"/>
<polygon fill="midnightblue" stroke="midnightblue" points="221.46,-130.77 214.17,-138.46 224.67,-136.99 221.46,-130.77"/>
</g>
<!-- Node6&#45;&gt;Node5 -->
<g id="edge6" class="edge">
<title>Node6&#45;&gt;Node5</title>
<path fill="none" stroke="midnightblue" d="M154.38,-132.35C139.94,-122.38 123.05,-110.71 109.92,-101.64"/>
<polygon fill="midnightblue" stroke="midnightblue" points="152.77,-135.49 162.99,-138.3 156.75,-129.73 152.77,-135.49"/>
</g>
<!-- Node7&#45;&gt;Node2 -->
<g id="edge8" class="edge">
<title>Node7&#45;&gt;Node2</title>
<path fill="none" stroke="midnightblue" d="M743.91,-218.74C607.63,-212.33 365.03,-197.36 335,-171 315.29,-153.7 313.13,-120.88 313.77,-101.63"/>
<polygon fill="midnightblue" stroke="midnightblue" points="743.78,-222.24 753.93,-219.21 744.11,-215.25 743.78,-222.24"/>
</g>
<!-- Node7&#45;&gt;Node6 -->
<g id="edge16" class="edge">
<title>Node7&#45;&gt;Node6</title>
<path fill="none" stroke="midnightblue" d="M743.78,-214.66C637.07,-205.35 456.14,-188.83 301,-171 296.26,-170.45 291.41,-169.88 286.51,-169.28"/>
<polygon fill="midnightblue" stroke="midnightblue" points="743.61,-218.16 753.87,-215.54 744.21,-211.19 743.61,-218.16"/>
</g>
<!-- Node8 -->
<g id="node7" class="node">
<title>Node8</title>
<g id="a_node7"><a xlink:href="Client_8hpp.html" target="_top" xlink:title=" ">
<polygon fill="none" stroke="red" points="1610,-138.5 1610,-170.5 1714,-170.5 1714,-138.5 1610,-138.5"/>
<text text-anchor="start" x="1618" y="-157.7" font-family="-apple-system, BlinkMacSystemFont, 'Segoe UI', Roboto, Oxygen, Ubuntu, Cantarell, 'Fira Sans', 'Droid Sans', 'Helvetica Neue', sans-serif" font-size="11.00">libmirai/api/libmirai</text>
<text text-anchor="middle" x="1662" y="-145.7" font-family="-apple-system, BlinkMacSystemFont, 'Segoe UI', Roboto, Oxygen, Ubuntu, Cantarell, 'Fira Sans', 'Droid Sans', 'Helvetica Neue', sans-serif" font-size="11.00">/Client/Client.hpp</text>
</a>
</g>
</g>
<!-- Node7&#45;&gt;Node8 -->
<g id="edge9" class="edge">
<title>Node7&#45;&gt;Node8</title>
<path fill="none" stroke="midnightblue" d="M928.21,-221.68C1072.56,-219.19 1360.3,-209.36 1601,-171 1603.91,-170.54 1606.89,-170 1609.89,-169.4"/>
<polygon fill="midnightblue" stroke="midnightblue" points="928,-218.18 918.06,-221.85 928.12,-225.18 928,-218.18"/>
</g>
<!-- Node10 -->
<g id="node8" class="node">
<title>Node10</title>
<g id="a_node8"><a xlink:href="CommandExecutedEvent_8hpp.html" target="_top" xlink:title=" ">
<polygon fill="none" stroke="red" points="1732.5,-138.5 1732.5,-170.5 1929.5,-170.5 1929.5,-138.5 1732.5,-138.5"/>
<text text-anchor="start" x="1740.5" y="-157.7" font-family="-apple-system, BlinkMacSystemFont, 'Segoe UI', Roboto, Oxygen, Ubuntu, Cantarell, 'Fira Sans', 'Droid Sans', 'Helvetica Neue', sans-serif" font-size="11.00">libmirai/models/libmirai</text>
<text text-anchor="middle" x="1831" y="-145.7" font-family="-apple-system, BlinkMacSystemFont, 'Segoe UI', Roboto, Oxygen, Ubuntu, Cantarell, 'Fira Sans', 'Droid Sans', 'Helvetica Neue', sans-serif" font-size="11.00">/Events/CommandExecutedEvent.hpp</text>
</a>
</g>
</g>
<!-- Node7&#45;&gt;Node10 -->
<g id="edge10" class="edge">
<title>Node7&#45;&gt;Node10</title>
<path fill="none" stroke="midnightblue" d="M928.49,-219.71C1090.02,-214.25 1433.9,-200.09 1723,-171 1726.11,-170.69 1729.27,-170.35 1732.45,-169.99"/>
<polygon fill="midnightblue" stroke="midnightblue" points="927.99,-216.22 918.12,-220.05 928.23,-223.22 927.99,-216.22"/>
</g>
<!-- Node14 -->
<g id="node9" class="node">
<title>Node14</title>
<g id="a_node9"><a xlink:href="FriendEvents_8hpp.html" target="_top" xlink:title=" ">
<polygon fill="none" stroke="red" points="343.5,-138.5 343.5,-170.5 482.5,-170.5 482.5,-138.5 343.5,-138.5"/>
<text text-anchor="start" x="351.5" y="-157.7" font-family="-apple-system, BlinkMacSystemFont, 'Segoe UI', Roboto, Oxygen, Ubuntu, Cantarell, 'Fira Sans', 'Droid Sans', 'Helvetica Neue', sans-serif" font-size="11.00">libmirai/models/libmirai</text>
<text text-anchor="middle" x="413" y="-145.7" font-family="-apple-system, BlinkMacSystemFont, 'Segoe UI', Roboto, Oxygen, Ubuntu, Cantarell, 'Fira Sans', 'Droid Sans', 'Helvetica Neue', sans-serif" font-size="11.00">/Events/FriendEvents.hpp</text>
</a>
</g>
</g>
<!-- Node7&#45;&gt;Node14 -->
<g id="edge11" class="edge">
<title>Node7&#45;&gt;Node14</title>
<path fill="none" stroke="midnightblue" d="M743.79,-209.85C674.42,-200.05 577.07,-185.71 492,-171 488.97,-170.48 485.88,-169.93 482.76,-169.36"/>
<polygon fill="midnightblue" stroke="midnightblue" points="743.43,-213.33 753.82,-211.26 744.4,-206.4 743.43,-213.33"/>
</g>
<!-- Node15 -->
<g id="node10" class="node">
<title>Node15</title>
<g id="a_node10"><a xlink:href="GroupEvents_8hpp.html" target="_top" xlink:title=" ">
<polygon fill="none" stroke="red" points="501,-138.5 501,-170.5 639,-170.5 639,-138.5 501,-138.5"/>
<text text-anchor="start" x="509" y="-157.7" font-family="-apple-system, BlinkMacSystemFont, 'Segoe UI', Roboto, Oxygen, Ubuntu, Cantarell, 'Fira Sans', 'Droid Sans', 'Helvetica Neue', sans-serif" font-size="11.00">libmirai/models/libmirai</text>
<text text-anchor="middle" x="570" y="-145.7" font-family="-apple-system, BlinkMacSystemFont, 'Segoe UI', Roboto, Oxygen, Ubuntu, Cantarell, 'Fira Sans', 'Droid Sans', 'Helvetica Neue', sans-serif" font-size="11.00">/Events/GroupEvents.hpp</text>
</a>
</g>
</g>
<!-- Node7&#45;&gt;Node15 -->
<g id="edge12" class="edge">
<title>Node7&#45;&gt;Node15</title>
<path fill="none" stroke="midnightblue" d="M766.34,-204.95C723.98,-194.28 670.43,-180.8 629.96,-170.6"/>
<polygon fill="midnightblue" stroke="midnightblue" points="765.75,-208.42 776.3,-207.46 767.46,-201.63 765.75,-208.42"/>
</g>
<!-- Node16 -->
<g id="node11" class="node">
<title>Node16</title>
<g id="a_node11"><a xlink:href="OtherClientEvents_8hpp.html" target="_top" xlink:title=" ">
<polygon fill="none" stroke="red" points="657,-138.5 657,-170.5 819,-170.5 819,-138.5 657,-138.5"/>
<text text-anchor="start" x="665" y="-157.7" font-family="-apple-system, BlinkMacSystemFont, 'Segoe UI', Roboto, Oxygen, Ubuntu, Cantarell, 'Fira Sans', 'Droid Sans', 'Helvetica Neue', sans-serif" font-size="11.00">libmirai/models/libmirai</text>
<text text-anchor="middle" x="738" y="-145.7" font-family="-apple-system, BlinkMacSystemFont, 'Segoe UI', Roboto, Oxygen, Ubuntu, Cantarell, 'Fira Sans', 'Droid Sans', 'Helvetica Neue', sans-serif" font-size="11.00">/Events/OtherClientEvents.hpp</text>
</a>
</g>
</g>
<!-- Node7&#45;&gt;Node16 -->
<g id="edge13" class="edge">
<title>Node7&#45;&gt;Node16</title>
<path fill="none" stroke="midnightblue" d="M805.47,-201.63C790.8,-191.6 773.54,-179.8 760.15,-170.64"/>
<polygon fill="midnightblue" stroke="midnightblue" points="803.53,-204.54 813.76,-207.3 807.48,-198.76 803.53,-204.54"/>
</g>
<!-- Node17 -->
<g id="node12" class="node">
<title>Node17</title>
<g id="a_node12"><a xlink:href="StrangerMessageEvents_8hpp.html" target="_top" xlink:title=" ">
<polygon fill="none" stroke="red" points="837,-138.5 837,-170.5 1031,-170.5 1031,-138.5 837,-138.5"/>
<text text-anchor="start" x="845" y="-157.7" font-family="-apple-system, BlinkMacSystemFont, 'Segoe UI', Roboto, Oxygen, Ubuntu, Cantarell, 'Fira Sans', 'Droid Sans', 'Helvetica Neue', sans-serif" font-size="11.00">libmirai/models/libmirai</text>
<text text-anchor="middle" x="934" y="-145.7" font-family="-apple-system, BlinkMacSystemFont, 'Segoe UI', Roboto, Oxygen, Ubuntu, Cantarell, 'Fira Sans', 'Droid Sans', 'Helvetica Neue', sans-serif" font-size="11.00">/Events/StrangerMessageEvents.hpp</text>
</a>
</g>
</g>
<!-- Node7&#45;&gt;Node17 -->
<g id="edge14" class="edge">
<title>Node7&#45;&gt;Node17</title>
<path fill="none" stroke="midnightblue" d="M866.53,-201.63C881.2,-191.6 898.46,-179.8 911.85,-170.64"/>
<polygon fill="midnightblue" stroke="midnightblue" points="864.52,-198.76 858.24,-207.3 868.47,-204.54 864.52,-198.76"/>
</g>
<!-- Node18 -->
<g id="node13" class="node">
<title>Node18</title>
<g id="a_node13"><a xlink:href="TempMessageEvents_8hpp.html" target="_top" xlink:title=" ">
<polygon fill="none" stroke="red" points="1049.5,-138.5 1049.5,-170.5 1228.5,-170.5 1228.5,-138.5 1049.5,-138.5"/>
<text text-anchor="start" x="1057.5" y="-157.7" font-family="-apple-system, BlinkMacSystemFont, 'Segoe UI', Roboto, Oxygen, Ubuntu, Cantarell, 'Fira Sans', 'Droid Sans', 'Helvetica Neue', sans-serif" font-size="11.00">libmirai/models/libmirai</text>
<text text-anchor="middle" x="1139" y="-145.7" font-family="-apple-system, BlinkMacSystemFont, 'Segoe UI', Roboto, Oxygen, Ubuntu, Cantarell, 'Fira Sans', 'Droid Sans', 'Helvetica Neue', sans-serif" font-size="11.00">/Events/TempMessageEvents.hpp</text>
</a>
</g>
</g>
<!-- Node7&#45;&gt;Node18 -->
<g id="edge15" class="edge">
<title>Node7&#45;&gt;Node18</title>
<path fill="none" stroke="midnightblue" d="M913.84,-205.29C962.42,-194.55 1024.35,-180.85 1070.97,-170.54"/>
<polygon fill="midnightblue" stroke="midnightblue" points="913.01,-201.89 904,-207.46 914.52,-208.72 913.01,-201.89"/>
</g>
<!-- Node19 -->
<g id="node14" class="node">
<title>Node19</title>
<g id="a_node14"><a xlink:href="MessageChain_8cpp.html" target="_top" xlink:title=" ">
<polygon fill="none" stroke="black" points="1246.5,-138.5 1246.5,-170.5 1409.5,-170.5 1409.5,-138.5 1246.5,-138.5"/>
<text text-anchor="start" x="1254.5" y="-157.7" font-family="-apple-system, BlinkMacSystemFont, 'Segoe UI', Roboto, Oxygen, Ubuntu, Cantarell, 'Fira Sans', 'Droid Sans', 'Helvetica Neue', sans-serif" font-size="11.00">libmirai/models/libmirai</text>
<text text-anchor="middle" x="1328" y="-145.7" font-family="-apple-system, BlinkMacSystemFont, 'Segoe UI', Roboto, Oxygen, Ubuntu, Cantarell, 'Fira Sans', 'Droid Sans', 'Helvetica Neue', sans-serif" font-size="11.00">/Messages/MessageChain.cpp</text>
</a>
</g>
</g>
<!-- Node7&#45;&gt;Node19 -->
<g id="edge17" class="edge">
<title>Node7&#45;&gt;Node19</title>
<path fill="none" stroke="midnightblue" d="M928.38,-211.81C1009.96,-202.1 1132.07,-186.9 1238,-171 1240.67,-170.6 1243.37,-170.18 1246.11,-169.76"/>
<polygon fill="midnightblue" stroke="midnightblue" points="927.66,-208.37 918.14,-213.03 928.48,-215.33 927.66,-208.37"/>
</g>
<!-- Node20 -->
<g id="node15" class="node">
<title>Node20</title>
<g id="a_node15"><a xlink:href="QuoteMessage_8cpp.html" target="_top" xlink:title=" ">
<polygon fill="none" stroke="black" points="1428,-138.5 1428,-170.5 1592,-170.5 1592,-138.5 1428,-138.5"/>
<text text-anchor="start" x="1436" y="-157.7" font-family="-apple-system, BlinkMacSystemFont, 'Segoe UI', Roboto, Oxygen, Ubuntu, Cantarell, 'Fira Sans', 'Droid Sans', 'Helvetica Neue', sans-serif" font-size="11.00">libmirai/models/libmirai</text>
<text text-anchor="middle" x="1510" y="-145.7" font-family="-apple-system, BlinkMacSystemFont, 'Segoe UI', Roboto, Oxygen, Ubuntu, Cantarell, 'Fira Sans', 'Droid Sans', 'Helvetica Neue', sans-serif" font-size="11.00">/Messages/QuoteMessage.cpp</text>
</a>
</g>
</g>
<!-- Node7&#45;&gt;Node20 -->
<g id="edge18" class="edge">
<title>Node7&#45;&gt;Node20</title>
<path fill="none" stroke="midnightblue" d="M928.48,-216.64C1043.66,-208.81 1246.35,-193.29 1419,-171 1421.86,-170.63 1424.77,-170.24 1427.7,-169.82"/>
<polygon fill="midnightblue" stroke="midnightblue" points="928.03,-213.16 918.29,-217.33 928.51,-220.15 928.03,-213.16"/>
</g>
</g>
</svg>
