<?xml version="1.0" encoding="UTF-8" standalone="no"?>
<!DOCTYPE svg PUBLIC "-//W3C//DTD SVG 1.1//EN"
 "http://www.w3.org/Graphics/SVG/1.1/DTD/svg11.dtd">
<!-- Generated by graphviz version 3.0.0 (20221109.1736)
 -->
<!-- Title: libmirai/models/libmirai/Messages/ForwardMessageNode.hpp Pages: 1 -->
<svg width="2811pt" height="281pt"
 viewBox="0.00 0.00 2811.46 281.00" xmlns="http://www.w3.org/2000/svg" xmlns:xlink="http://www.w3.org/1999/xlink">
<g id="graph0" class="graph" transform="scale(1 1) rotate(0) translate(4 277)">
<title>libmirai/models/libmirai/Messages/ForwardMessageNode.hpp</title>
<!-- Node1 -->
<g id="node1" class="node">
<title>Node1</title>
<g id="a_node1"><a xlink:title=" ">
<polygon fill="#bfbfbf" stroke="black" points="14.5,-240.5 14.5,-272.5 217.5,-272.5 217.5,-240.5 14.5,-240.5"/>
<text text-anchor="start" x="22.5" y="-259.7" font-family="-apple-system, BlinkMacSystemFont, 'Segoe UI', Roboto, Oxygen, Ubuntu, Cantarell, 'Fira Sans', 'Droid Sans', 'Helvetica Neue', sans-serif" font-size="11.00">libmirai/models/libmirai</text>
<text text-anchor="middle" x="116" y="-247.7" font-family="-apple-system, BlinkMacSystemFont, 'Segoe UI', Roboto, Oxygen, Ubuntu, Cantarell, 'Fira Sans', 'Droid Sans', 'Helvetica Neue', sans-serif" font-size="11.00">/Messages/ForwardMessageNode.hpp</text>
</a>
</g>
</g>
<!-- Node2 -->
<g id="node2" class="node">
<title>Node2</title>
<g id="a_node2"><a xlink:title=" ">
<polygon fill="none" stroke="#bfbfbf" points="0,-57.5 0,-77.5 54,-77.5 54,-57.5 0,-57.5"/>
<text text-anchor="middle" x="27" y="-64.7" font-family="-apple-system, BlinkMacSystemFont, 'Segoe UI', Roboto, Oxygen, Ubuntu, Cantarell, 'Fira Sans', 'Droid Sans', 'Helvetica Neue', sans-serif" font-size="11.00">optional</text>
</a>
</g>
</g>
<!-- Node1&#45;&gt;Node2 -->
<g id="edge1" class="edge">
<title>Node1&#45;&gt;Node2</title>
<path fill="none" stroke="midnightblue" d="M96.93,-240.29C74.73,-221.23 39.29,-186.28 25,-147 17.96,-127.64 19.93,-103.78 22.72,-87.48"/>
<polygon fill="midnightblue" stroke="midnightblue" points="26.18,-88.04 24.69,-77.55 19.31,-86.68 26.18,-88.04"/>
</g>
<!-- Node3 -->
<g id="node3" class="node">
<title>Node3</title>
<g id="a_node3"><a xlink:href="ForwardMessage_8hpp.html" target="_top" xlink:title=" ">
<polygon fill="none" stroke="black" points="55,-120.5 55,-140.5 177,-140.5 177,-120.5 55,-120.5"/>
<text text-anchor="middle" x="116" y="-127.7" font-family="-apple-system, BlinkMacSystemFont, 'Segoe UI', Roboto, Oxygen, Ubuntu, Cantarell, 'Fira Sans', 'Droid Sans', 'Helvetica Neue', sans-serif" font-size="11.00">ForwardMessage.hpp</text>
</a>
</g>
</g>
<!-- Node1&#45;&gt;Node3 -->
<g id="edge2" class="edge">
<title>Node1&#45;&gt;Node3</title>
<path fill="none" stroke="midnightblue" d="M116,-240.3C116,-217.85 116,-175.85 116,-151.11"/>
<polygon fill="midnightblue" stroke="midnightblue" points="119.5,-150.81 116,-140.81 112.5,-150.81 119.5,-150.81"/>
</g>
<!-- Node15 -->
<g id="node12" class="node">
<title>Node15</title>
<g id="a_node12"><a xlink:href="MessageChain_8hpp.html" target="_top" xlink:title=" ">
<polygon fill="none" stroke="black" points="1473.5,-183.5 1473.5,-203.5 1582.5,-203.5 1582.5,-183.5 1473.5,-183.5"/>
<text text-anchor="middle" x="1528" y="-190.7" font-family="-apple-system, BlinkMacSystemFont, 'Segoe UI', Roboto, Oxygen, Ubuntu, Cantarell, 'Fira Sans', 'Droid Sans', 'Helvetica Neue', sans-serif" font-size="11.00">MessageChain.hpp</text>
</a>
</g>
</g>
<!-- Node1&#45;&gt;Node15 -->
<g id="edge14" class="edge">
<title>Node1&#45;&gt;Node15</title>
<path fill="none" stroke="midnightblue" d="M217.55,-251.11C491.12,-239.29 1238.03,-207.03 1463.02,-197.31"/>
<polygon fill="midnightblue" stroke="midnightblue" points="1463.49,-200.79 1473.33,-196.86 1463.19,-193.8 1463.49,-200.79"/>
</g>
<!-- Node3&#45;&gt;Node2 -->
<g id="edge4" class="edge">
<title>Node3&#45;&gt;Node2</title>
<path fill="none" stroke="midnightblue" d="M102.87,-120.5C88.67,-110.77 65.8,-95.1 48.88,-83.5"/>
<polygon fill="midnightblue" stroke="midnightblue" points="50.41,-80.3 40.19,-77.54 46.46,-86.08 50.41,-80.3"/>
</g>
<!-- Node4 -->
<g id="node4" class="node">
<title>Node4</title>
<g id="a_node4"><a xlink:title=" ">
<polygon fill="none" stroke="#bfbfbf" points="253,-0.5 253,-20.5 295,-20.5 295,-0.5 253,-0.5"/>
<text text-anchor="middle" x="274" y="-7.7" font-family="-apple-system, BlinkMacSystemFont, 'Segoe UI', Roboto, Oxygen, Ubuntu, Cantarell, 'Fira Sans', 'Droid Sans', 'Helvetica Neue', sans-serif" font-size="11.00">ctime</text>
</a>
</g>
</g>
<!-- Node3&#45;&gt;Node4 -->
<g id="edge3" class="edge">
<title>Node3&#45;&gt;Node4</title>
<path fill="none" stroke="midnightblue" d="M114.55,-120.23C112.75,-105.09 111.55,-74.95 127,-57 155.78,-23.56 208.59,-14.33 242.46,-11.99"/>
<polygon fill="midnightblue" stroke="midnightblue" points="242.93,-15.47 252.74,-11.45 242.57,-8.48 242.93,-15.47"/>
</g>
<!-- Node5 -->
<g id="node5" class="node">
<title>Node5</title>
<g id="a_node5"><a xlink:title=" ">
<polygon fill="none" stroke="#bfbfbf" points="806.5,-0.5 806.5,-20.5 847.5,-20.5 847.5,-0.5 806.5,-0.5"/>
<text text-anchor="middle" x="827" y="-7.7" font-family="-apple-system, BlinkMacSystemFont, 'Segoe UI', Roboto, Oxygen, Ubuntu, Cantarell, 'Fira Sans', 'Droid Sans', 'Helvetica Neue', sans-serif" font-size="11.00">utility</text>
</a>
</g>
</g>
<!-- Node3&#45;&gt;Node5 -->
<g id="edge5" class="edge">
<title>Node3&#45;&gt;Node5</title>
<path fill="none" stroke="midnightblue" d="M118.5,-120.43C123.44,-104.44 136.1,-71.54 160,-57 214.8,-23.65 672.38,-13.97 796.21,-11.95"/>
<polygon fill="midnightblue" stroke="midnightblue" points="796.54,-15.44 806.49,-11.78 796.43,-8.44 796.54,-15.44"/>
</g>
<!-- Node6 -->
<g id="node6" class="node">
<title>Node6</title>
<g id="a_node6"><a xlink:title=" ">
<polygon fill="none" stroke="#bfbfbf" points="169,-57.5 169,-77.5 215,-77.5 215,-57.5 169,-57.5"/>
<text text-anchor="middle" x="192" y="-64.7" font-family="-apple-system, BlinkMacSystemFont, 'Segoe UI', Roboto, Oxygen, Ubuntu, Cantarell, 'Fira Sans', 'Droid Sans', 'Helvetica Neue', sans-serif" font-size="11.00">vector</text>
</a>
</g>
</g>
<!-- Node3&#45;&gt;Node6 -->
<g id="edge6" class="edge">
<title>Node3&#45;&gt;Node6</title>
<path fill="none" stroke="midnightblue" d="M127.21,-120.5C139.23,-110.86 158.5,-95.39 172.91,-83.82"/>
<polygon fill="midnightblue" stroke="midnightblue" points="175.13,-86.53 180.74,-77.54 170.75,-81.07 175.13,-86.53"/>
</g>
<!-- Node7 -->
<g id="node7" class="node">
<title>Node7</title>
<g id="a_node7"><a xlink:href="BasicTypes_8hpp.html" target="_top" xlink:title=" ">
<polygon fill="none" stroke="red" points="523,-57.5 523,-77.5 685,-77.5 685,-57.5 523,-57.5"/>
<text text-anchor="middle" x="604" y="-64.7" font-family="-apple-system, BlinkMacSystemFont, 'Segoe UI', Roboto, Oxygen, Ubuntu, Cantarell, 'Fira Sans', 'Droid Sans', 'Helvetica Neue', sans-serif" font-size="11.00">libmirai/Types/BasicTypes.hpp</text>
</a>
</g>
</g>
<!-- Node3&#45;&gt;Node7 -->
<g id="edge7" class="edge">
<title>Node3&#45;&gt;Node7</title>
<path fill="none" stroke="midnightblue" d="M177.31,-121.84C264.46,-110.94 424.37,-90.95 521.75,-78.78"/>
<polygon fill="midnightblue" stroke="midnightblue" points="522.36,-82.23 531.84,-77.52 521.49,-75.29 522.36,-82.23"/>
</g>
<!-- Node10 -->
<g id="node8" class="node">
<title>Node10</title>
<g id="a_node8"><a xlink:href="IMessage_8hpp.html" target="_top" xlink:title=" ">
<polygon fill="none" stroke="red" points="1388,-57.5 1388,-77.5 1472,-77.5 1472,-57.5 1388,-57.5"/>
<text text-anchor="middle" x="1430" y="-64.7" font-family="-apple-system, BlinkMacSystemFont, 'Segoe UI', Roboto, Oxygen, Ubuntu, Cantarell, 'Fira Sans', 'Droid Sans', 'Helvetica Neue', sans-serif" font-size="11.00">IMessage.hpp</text>
</a>
</g>
</g>
<!-- Node3&#45;&gt;Node10 -->
<g id="edge10" class="edge">
<title>Node3&#45;&gt;Node10</title>
<path fill="none" stroke="midnightblue" d="M177.01,-122.1C203.15,-119.17 234.03,-116.03 262,-114 692.02,-82.83 1212.76,-72.06 1377.45,-69.3"/>
<polygon fill="midnightblue" stroke="midnightblue" points="1377.84,-72.79 1387.78,-69.13 1377.72,-65.79 1377.84,-72.79"/>
</g>
<!-- Node7&#45;&gt;Node4 -->
<g id="edge8" class="edge">
<title>Node7&#45;&gt;Node4</title>
<path fill="none" stroke="midnightblue" d="M549.88,-57.48C480.13,-45.86 361.2,-26.03 305.07,-16.68"/>
<polygon fill="midnightblue" stroke="midnightblue" points="305.47,-13.2 295.03,-15.01 304.32,-20.1 305.47,-13.2"/>
</g>
<!-- Node7&#45;&gt;Node5 -->
<g id="edge9" class="edge">
<title>Node7&#45;&gt;Node5</title>
<path fill="none" stroke="midnightblue" d="M640.82,-57.42C684.3,-46.7 755.8,-29.06 796.37,-19.05"/>
<polygon fill="midnightblue" stroke="midnightblue" points="797.36,-22.42 806.23,-16.62 795.68,-15.62 797.36,-22.42"/>
</g>
<!-- Node11 -->
<g id="node9" class="node">
<title>Node11</title>
<g id="a_node9"><a xlink:title=" ">
<polygon fill="none" stroke="#bfbfbf" points="1402,-0.5 1402,-20.5 1458,-20.5 1458,-0.5 1402,-0.5"/>
<text text-anchor="middle" x="1430" y="-7.7" font-family="-apple-system, BlinkMacSystemFont, 'Segoe UI', Roboto, Oxygen, Ubuntu, Cantarell, 'Fira Sans', 'Droid Sans', 'Helvetica Neue', sans-serif" font-size="11.00">memory</text>
</a>
</g>
</g>
<!-- Node10&#45;&gt;Node11 -->
<g id="edge11" class="edge">
<title>Node10&#45;&gt;Node11</title>
<path fill="none" stroke="midnightblue" d="M1430,-57.42C1430,-50.22 1430,-39.9 1430,-30.86"/>
<polygon fill="midnightblue" stroke="midnightblue" points="1433.5,-30.78 1430,-20.78 1426.5,-30.78 1433.5,-30.78"/>
</g>
<!-- Node12 -->
<g id="node10" class="node">
<title>Node12</title>
<g id="a_node10"><a xlink:title=" ">
<polygon fill="none" stroke="#bfbfbf" points="2059,-0.5 2059,-20.5 2125,-20.5 2125,-0.5 2059,-0.5"/>
<text text-anchor="middle" x="2092" y="-7.7" font-family="-apple-system, BlinkMacSystemFont, 'Segoe UI', Roboto, Oxygen, Ubuntu, Cantarell, 'Fira Sans', 'Droid Sans', 'Helvetica Neue', sans-serif" font-size="11.00">type_traits</text>
</a>
</g>
</g>
<!-- Node10&#45;&gt;Node12 -->
<g id="edge12" class="edge">
<title>Node10&#45;&gt;Node12</title>
<path fill="none" stroke="midnightblue" d="M1472.17,-63C1591.04,-53.12 1928.04,-25.12 2048.52,-15.11"/>
<polygon fill="midnightblue" stroke="midnightblue" points="2049.14,-18.57 2058.82,-14.26 2048.56,-11.6 2049.14,-18.57"/>
</g>
<!-- Node13 -->
<g id="node11" class="node">
<title>Node13</title>
<g id="a_node11"><a xlink:href="MessageTypes_8hpp.html" target="_top" xlink:title=" ">
<polygon fill="none" stroke="red" points="2464.5,-0.5 2464.5,-20.5 2643.5,-20.5 2643.5,-0.5 2464.5,-0.5"/>
<text text-anchor="middle" x="2554" y="-7.7" font-family="-apple-system, BlinkMacSystemFont, 'Segoe UI', Roboto, Oxygen, Ubuntu, Cantarell, 'Fira Sans', 'Droid Sans', 'Helvetica Neue', sans-serif" font-size="11.00">libmirai/Types/MessageTypes.hpp</text>
</a>
</g>
</g>
<!-- Node10&#45;&gt;Node13 -->
<g id="edge13" class="edge">
<title>Node10&#45;&gt;Node13</title>
<path fill="none" stroke="midnightblue" d="M1472.01,-64.44C1633.61,-56.54 2217.84,-27.95 2453.96,-16.4"/>
<polygon fill="midnightblue" stroke="midnightblue" points="2454.44,-19.88 2464.26,-15.89 2454.1,-12.88 2454.44,-19.88"/>
</g>
<!-- Node15&#45;&gt;Node2 -->
<g id="edge20" class="edge">
<title>Node15&#45;&gt;Node2</title>
<path fill="none" stroke="midnightblue" d="M1473.17,-192.66C1211.78,-193.2 102.39,-192.79 46,-147 28.69,-132.95 25.55,-106.07 25.66,-87.72"/>
<polygon fill="midnightblue" stroke="midnightblue" points="29.16,-87.71 26.05,-77.58 22.17,-87.44 29.16,-87.71"/>
</g>
<!-- Node15&#45;&gt;Node3 -->
<g id="edge45" class="edge">
<title>Node15&#45;&gt;Node3</title>
<path fill="none" stroke="midnightblue" d="M1473.41,-191.88C1255.25,-189.21 445.54,-177.41 191,-147 182.08,-145.93 172.64,-144.35 163.58,-142.6"/>
<polygon fill="midnightblue" stroke="midnightblue" points="164.06,-139.12 153.56,-140.57 162.67,-145.98 164.06,-139.12"/>
</g>
<!-- Node15&#45;&gt;Node4 -->
<g id="edge17" class="edge">
<title>Node15&#45;&gt;Node4</title>
<path fill="none" stroke="midnightblue" d="M1473.24,-192.63C1235.7,-192.9 304.61,-191.17 262,-147 231.64,-115.53 251.48,-58.69 264.78,-29.65"/>
<polygon fill="midnightblue" stroke="midnightblue" points="267.94,-31.15 269.12,-20.63 261.63,-28.12 267.94,-31.15"/>
</g>
<!-- Node15&#45;&gt;Node5 -->
<g id="edge23" class="edge">
<title>Node15&#45;&gt;Node5</title>
<path fill="none" stroke="midnightblue" d="M1473.45,-192.73C1319.79,-192.85 891.54,-189.35 846,-147 814.07,-117.31 818.16,-60.54 823.03,-30.78"/>
<polygon fill="midnightblue" stroke="midnightblue" points="826.5,-31.28 824.86,-20.81 819.61,-30.01 826.5,-31.28"/>
</g>
<!-- Node15&#45;&gt;Node6 -->
<g id="edge24" class="edge">
<title>Node15&#45;&gt;Node6</title>
<path fill="none" stroke="midnightblue" d="M1473.46,-192.17C1233.54,-190.5 281.67,-181.71 229,-147 208.8,-133.69 199.38,-106.19 195.17,-87.54"/>
<polygon fill="midnightblue" stroke="midnightblue" points="198.56,-86.66 193.21,-77.52 191.69,-88 198.56,-86.66"/>
</g>
<!-- Node15&#45;&gt;Node10 -->
<g id="edge46" class="edge">
<title>Node15&#45;&gt;Node10</title>
<path fill="none" stroke="midnightblue" d="M1555.68,-183.37C1572.33,-176.28 1592.14,-164.64 1602,-147 1609.16,-134.2 1610.95,-125.62 1602,-114 1587.37,-95 1527.22,-82.31 1482.15,-75.27"/>
<polygon fill="midnightblue" stroke="midnightblue" points="1482.62,-71.8 1472.21,-73.76 1481.57,-78.72 1482.62,-71.8"/>
</g>
<!-- Node15&#45;&gt;Node11 -->
<g id="edge19" class="edge">
<title>Node15&#45;&gt;Node11</title>
<path fill="none" stroke="midnightblue" d="M1582.66,-192.46C1723,-191.79 2087.63,-186.25 2124,-147 2133.97,-136.24 2133.58,-125.1 2124,-114 2037.9,-14.25 1601.5,-9.9 1468.52,-10.94"/>
<polygon fill="midnightblue" stroke="midnightblue" points="1468.36,-7.44 1458.4,-11.03 1468.43,-14.44 1468.36,-7.44"/>
</g>
<!-- Node15&#45;&gt;Node12 -->
<g id="edge22" class="edge">
<title>Node15&#45;&gt;Node12</title>
<path fill="none" stroke="midnightblue" d="M1582.67,-192.3C1798.68,-191.22 2582.81,-184.73 2619,-147 2629.15,-136.42 2628.33,-125.32 2619,-114 2557.56,-39.46 2250.12,-18.43 2135.32,-13.12"/>
<polygon fill="midnightblue" stroke="midnightblue" points="2135.29,-9.62 2125.15,-12.67 2134.98,-16.61 2135.29,-9.62"/>
</g>
<!-- Node15&#45;&gt;Node13 -->
<g id="edge27" class="edge">
<title>Node15&#45;&gt;Node13</title>
<path fill="none" stroke="midnightblue" d="M1582.54,-192.63C1820.17,-192.94 2755.23,-191.33 2798,-147 2810.72,-133.81 2796.96,-65.24 2789,-57 2770.08,-37.41 2708.91,-25.95 2653.73,-19.43"/>
<polygon fill="midnightblue" stroke="midnightblue" points="2653.84,-15.92 2643.51,-18.27 2653.05,-22.88 2653.84,-15.92"/>
</g>
<!-- Node16 -->
<g id="node13" class="node">
<title>Node16</title>
<g id="a_node13"><a xlink:title=" ">
<polygon fill="none" stroke="#bfbfbf" points="2171.5,-120.5 2171.5,-140.5 2222.5,-140.5 2222.5,-120.5 2171.5,-120.5"/>
<text text-anchor="middle" x="2197" y="-127.7" font-family="-apple-system, BlinkMacSystemFont, 'Segoe UI', Roboto, Oxygen, Ubuntu, Cantarell, 'Fira Sans', 'Droid Sans', 'Helvetica Neue', sans-serif" font-size="11.00">cassert</text>
</a>
</g>
</g>
<!-- Node15&#45;&gt;Node16 -->
<g id="edge15" class="edge">
<title>Node15&#45;&gt;Node16</title>
<path fill="none" stroke="midnightblue" d="M1582.8,-190.62C1714.95,-185.77 2048.31,-171.41 2157,-147 2160.45,-146.23 2163.99,-145.21 2167.48,-144.06"/>
<polygon fill="midnightblue" stroke="midnightblue" points="2168.82,-147.3 2177.02,-140.58 2166.42,-140.72 2168.82,-147.3"/>
</g>
<!-- Node17 -->
<g id="node14" class="node">
<title>Node17</title>
<g id="a_node14"><a xlink:title=" ">
<polygon fill="none" stroke="#bfbfbf" points="2240.5,-120.5 2240.5,-140.5 2291.5,-140.5 2291.5,-120.5 2240.5,-120.5"/>
<text text-anchor="middle" x="2266" y="-127.7" font-family="-apple-system, BlinkMacSystemFont, 'Segoe UI', Roboto, Oxygen, Ubuntu, Cantarell, 'Fira Sans', 'Droid Sans', 'Helvetica Neue', sans-serif" font-size="11.00">cstddef</text>
</a>
</g>
</g>
<!-- Node15&#45;&gt;Node17 -->
<g id="edge16" class="edge">
<title>Node15&#45;&gt;Node17</title>
<path fill="none" stroke="midnightblue" d="M1582.51,-191.52C1725.57,-188.55 2109.21,-177.85 2232,-147 2234.53,-146.36 2237.11,-145.54 2239.65,-144.62"/>
<polygon fill="midnightblue" stroke="midnightblue" points="2241.27,-147.73 2249.14,-140.64 2238.57,-141.28 2241.27,-147.73"/>
</g>
<!-- Node18 -->
<g id="node15" class="node">
<title>Node18</title>
<g id="a_node15"><a xlink:title=" ">
<polygon fill="none" stroke="#bfbfbf" points="2310,-120.5 2310,-140.5 2372,-140.5 2372,-120.5 2310,-120.5"/>
<text text-anchor="middle" x="2341" y="-127.7" font-family="-apple-system, BlinkMacSystemFont, 'Segoe UI', Roboto, Oxygen, Ubuntu, Cantarell, 'Fira Sans', 'Droid Sans', 'Helvetica Neue', sans-serif" font-size="11.00">functional</text>
</a>
</g>
</g>
<!-- Node15&#45;&gt;Node18 -->
<g id="edge18" class="edge">
<title>Node15&#45;&gt;Node18</title>
<path fill="none" stroke="midnightblue" d="M1582.72,-191.48C1735.38,-188.29 2163.73,-176.87 2301,-147 2304.45,-146.25 2308,-145.24 2311.49,-144.1"/>
<polygon fill="midnightblue" stroke="midnightblue" points="2312.82,-147.34 2321.03,-140.64 2310.43,-140.76 2312.82,-147.34"/>
</g>
<!-- Node19 -->
<g id="node16" class="node">
<title>Node19</title>
<g id="a_node16"><a xlink:title=" ">
<polygon fill="none" stroke="#bfbfbf" points="2718,-57.5 2718,-77.5 2780,-77.5 2780,-57.5 2718,-57.5"/>
<text text-anchor="middle" x="2749" y="-64.7" font-family="-apple-system, BlinkMacSystemFont, 'Segoe UI', Roboto, Oxygen, Ubuntu, Cantarell, 'Fira Sans', 'Droid Sans', 'Helvetica Neue', sans-serif" font-size="11.00">stdexcept</text>
</a>
</g>
</g>
<!-- Node15&#45;&gt;Node19 -->
<g id="edge21" class="edge">
<title>Node15&#45;&gt;Node19</title>
<path fill="none" stroke="midnightblue" d="M1582.6,-192.6C1818.33,-192.79 2738.86,-190.7 2781,-147 2797.59,-129.79 2780.25,-102.82 2765.35,-85.4"/>
<polygon fill="midnightblue" stroke="midnightblue" points="2767.7,-82.78 2758.4,-77.7 2762.5,-87.47 2767.7,-82.78"/>
</g>
<!-- Node20 -->
<g id="node17" class="node">
<title>Node20</title>
<g id="a_node17"><a xlink:href="Exceptions_8hpp.html" target="_top" xlink:title=" ">
<polygon fill="none" stroke="red" points="2666.5,-114.5 2666.5,-146.5 2771.5,-146.5 2771.5,-114.5 2666.5,-114.5"/>
<text text-anchor="start" x="2674.5" y="-133.7" font-family="-apple-system, BlinkMacSystemFont, 'Segoe UI', Roboto, Oxygen, Ubuntu, Cantarell, 'Fira Sans', 'Droid Sans', 'Helvetica Neue', sans-serif" font-size="11.00">libmirai/Exceptions</text>
<text text-anchor="middle" x="2719" y="-121.7" font-family="-apple-system, BlinkMacSystemFont, 'Segoe UI', Roboto, Oxygen, Ubuntu, Cantarell, 'Fira Sans', 'Droid Sans', 'Helvetica Neue', sans-serif" font-size="11.00">/Exceptions.hpp</text>
</a>
</g>
</g>
<!-- Node15&#45;&gt;Node20 -->
<g id="edge25" class="edge">
<title>Node15&#45;&gt;Node20</title>
<path fill="none" stroke="midnightblue" d="M1582.67,-191.64C1778.11,-188.36 2441.63,-175.34 2652,-147 2653.3,-146.83 2654.61,-146.64 2655.93,-146.44"/>
<polygon fill="midnightblue" stroke="midnightblue" points="2656.87,-149.83 2666.14,-144.69 2655.69,-142.93 2656.87,-149.83"/>
</g>
<!-- Node22 -->
<g id="node18" class="node">
<title>Node22</title>
<g id="a_node18"><a xlink:href="AppMessage_8hpp.html" target="_top" xlink:title=" ">
<polygon fill="none" stroke="red" points="1093.5,-120.5 1093.5,-140.5 1194.5,-140.5 1194.5,-120.5 1093.5,-120.5"/>
<text text-anchor="middle" x="1144" y="-127.7" font-family="-apple-system, BlinkMacSystemFont, 'Segoe UI', Roboto, Oxygen, Ubuntu, Cantarell, 'Fira Sans', 'Droid Sans', 'Helvetica Neue', sans-serif" font-size="11.00">AppMessage.hpp</text>
</a>
</g>
</g>
<!-- Node15&#45;&gt;Node22 -->
<g id="edge28" class="edge">
<title>Node15&#45;&gt;Node22</title>
<path fill="none" stroke="midnightblue" d="M1473.22,-186.73C1408.54,-179.46 1297.88,-165.65 1204,-147 1198.19,-145.84 1192.1,-144.47 1186.12,-143.02"/>
<polygon fill="midnightblue" stroke="midnightblue" points="1186.78,-139.58 1176.23,-140.54 1185.08,-146.37 1186.78,-139.58"/>
</g>
<!-- Node23 -->
<g id="node19" class="node">
<title>Node23</title>
<g id="a_node19"><a xlink:href="AtAllMessage_8hpp.html" target="_top" xlink:title=" ">
<polygon fill="none" stroke="red" points="1649,-120.5 1649,-140.5 1753,-140.5 1753,-120.5 1649,-120.5"/>
<text text-anchor="middle" x="1701" y="-127.7" font-family="-apple-system, BlinkMacSystemFont, 'Segoe UI', Roboto, Oxygen, Ubuntu, Cantarell, 'Fira Sans', 'Droid Sans', 'Helvetica Neue', sans-serif" font-size="11.00">AtAllMessage.hpp</text>
</a>
</g>
</g>
<!-- Node15&#45;&gt;Node23 -->
<g id="edge31" class="edge">
<title>Node15&#45;&gt;Node23</title>
<path fill="none" stroke="midnightblue" d="M1553.53,-183.5C1583.17,-173.05 1632.25,-155.74 1665.57,-143.99"/>
<polygon fill="midnightblue" stroke="midnightblue" points="1667.1,-147.16 1675.37,-140.54 1664.77,-140.56 1667.1,-147.16"/>
</g>
<!-- Node24 -->
<g id="node20" class="node">
<title>Node24</title>
<g id="a_node20"><a xlink:href="AtMessage_8hpp.html" target="_top" xlink:title=" ">
<polygon fill="none" stroke="red" points="983,-120.5 983,-140.5 1075,-140.5 1075,-120.5 983,-120.5"/>
<text text-anchor="middle" x="1029" y="-127.7" font-family="-apple-system, BlinkMacSystemFont, 'Segoe UI', Roboto, Oxygen, Ubuntu, Cantarell, 'Fira Sans', 'Droid Sans', 'Helvetica Neue', sans-serif" font-size="11.00">AtMessage.hpp</text>
</a>
</g>
</g>
<!-- Node15&#45;&gt;Node24 -->
<g id="edge33" class="edge">
<title>Node15&#45;&gt;Node24</title>
<path fill="none" stroke="midnightblue" d="M1473.36,-189.84C1389.3,-185.09 1223.47,-173.08 1085,-147 1079.49,-145.96 1073.72,-144.64 1068.08,-143.21"/>
<polygon fill="midnightblue" stroke="midnightblue" points="1068.7,-139.76 1058.14,-140.56 1066.9,-146.52 1068.7,-139.76"/>
</g>
<!-- Node25 -->
<g id="node21" class="node">
<title>Node25</title>
<g id="a_node21"><a xlink:href="AudioMessage_8hpp.html" target="_top" xlink:title=" ">
<polygon fill="none" stroke="red" points="1212.5,-120.5 1212.5,-140.5 1321.5,-140.5 1321.5,-120.5 1212.5,-120.5"/>
<text text-anchor="middle" x="1267" y="-127.7" font-family="-apple-system, BlinkMacSystemFont, 'Segoe UI', Roboto, Oxygen, Ubuntu, Cantarell, 'Fira Sans', 'Droid Sans', 'Helvetica Neue', sans-serif" font-size="11.00">AudioMessage.hpp</text>
</a>
</g>
</g>
<!-- Node15&#45;&gt;Node25 -->
<g id="edge36" class="edge">
<title>Node15&#45;&gt;Node25</title>
<path fill="none" stroke="midnightblue" d="M1488.35,-183.47C1448.55,-174.38 1385.48,-159.89 1331,-147 1325.37,-145.67 1319.46,-144.26 1313.61,-142.85"/>
<polygon fill="midnightblue" stroke="midnightblue" points="1314.41,-139.44 1303.87,-140.5 1312.77,-146.25 1314.41,-139.44"/>
</g>
<!-- Node27 -->
<g id="node22" class="node">
<title>Node27</title>
<g id="a_node22"><a xlink:href="DiceMessage_8hpp.html" target="_top" xlink:title=" ">
<polygon fill="none" stroke="red" points="1771,-120.5 1771,-140.5 1873,-140.5 1873,-120.5 1771,-120.5"/>
<text text-anchor="middle" x="1822" y="-127.7" font-family="-apple-system, BlinkMacSystemFont, 'Segoe UI', Roboto, Oxygen, Ubuntu, Cantarell, 'Fira Sans', 'Droid Sans', 'Helvetica Neue', sans-serif" font-size="11.00">DiceMessage.hpp</text>
</a>
</g>
</g>
<!-- Node15&#45;&gt;Node27 -->
<g id="edge39" class="edge">
<title>Node15&#45;&gt;Node27</title>
<path fill="none" stroke="midnightblue" d="M1579.31,-183.45C1626.85,-174.85 1699.43,-161.15 1762,-147 1767.38,-145.78 1773.01,-144.43 1778.57,-143.05"/>
<polygon fill="midnightblue" stroke="midnightblue" points="1779.61,-146.4 1788.45,-140.55 1777.9,-139.61 1779.61,-146.4"/>
</g>
<!-- Node28 -->
<g id="node23" class="node">
<title>Node28</title>
<g id="a_node23"><a xlink:href="FaceMessage_8hpp.html" target="_top" xlink:title=" ">
<polygon fill="none" stroke="red" points="1891.5,-120.5 1891.5,-140.5 1996.5,-140.5 1996.5,-120.5 1891.5,-120.5"/>
<text text-anchor="middle" x="1944" y="-127.7" font-family="-apple-system, BlinkMacSystemFont, 'Segoe UI', Roboto, Oxygen, Ubuntu, Cantarell, 'Fira Sans', 'Droid Sans', 'Helvetica Neue', sans-serif" font-size="11.00">FaceMessage.hpp</text>
</a>
</g>
</g>
<!-- Node15&#45;&gt;Node28 -->
<g id="edge41" class="edge">
<title>Node15&#45;&gt;Node28</title>
<path fill="none" stroke="midnightblue" d="M1582.59,-187.49C1652.39,-180.62 1776.81,-166.84 1882,-147 1888.22,-145.83 1894.76,-144.4 1901.15,-142.9"/>
<polygon fill="midnightblue" stroke="midnightblue" points="1902.13,-146.27 1911.02,-140.51 1900.47,-139.47 1902.13,-146.27"/>
</g>
<!-- Node29 -->
<g id="node24" class="node">
<title>Node29</title>
<g id="a_node24"><a xlink:href="FileMessage_8hpp.html" target="_top" xlink:title=" ">
<polygon fill="none" stroke="red" points="2390,-120.5 2390,-140.5 2488,-140.5 2488,-120.5 2390,-120.5"/>
<text text-anchor="middle" x="2439" y="-127.7" font-family="-apple-system, BlinkMacSystemFont, 'Segoe UI', Roboto, Oxygen, Ubuntu, Cantarell, 'Fira Sans', 'Droid Sans', 'Helvetica Neue', sans-serif" font-size="11.00">FileMessage.hpp</text>
</a>
</g>
</g>
<!-- Node15&#45;&gt;Node29 -->
<g id="edge43" class="edge">
<title>Node15&#45;&gt;Node29</title>
<path fill="none" stroke="midnightblue" d="M1582.61,-191.07C1745.5,-186.58 2226.2,-171.54 2381,-147 2387.28,-146 2393.87,-144.6 2400.25,-143.04"/>
<polygon fill="midnightblue" stroke="midnightblue" points="2401.24,-146.4 2410.05,-140.5 2399.49,-139.63 2401.24,-146.4"/>
</g>
<!-- Node30 -->
<g id="node25" class="node">
<title>Node30</title>
<g id="a_node25"><a xlink:href="ImageMessage_8hpp.html" target="_top" xlink:title=" ">
<polygon fill="none" stroke="red" points="405.5,-120.5 405.5,-140.5 516.5,-140.5 516.5,-120.5 405.5,-120.5"/>
<text text-anchor="middle" x="461" y="-127.7" font-family="-apple-system, BlinkMacSystemFont, 'Segoe UI', Roboto, Oxygen, Ubuntu, Cantarell, 'Fira Sans', 'Droid Sans', 'Helvetica Neue', sans-serif" font-size="11.00">ImageMessage.hpp</text>
</a>
</g>
</g>
<!-- Node15&#45;&gt;Node30 -->
<g id="edge47" class="edge">
<title>Node15&#45;&gt;Node30</title>
<path fill="none" stroke="midnightblue" d="M1473.39,-191.38C1292.13,-187.44 711.37,-173.07 526,-147 518.65,-145.97 510.92,-144.48 503.46,-142.84"/>
<polygon fill="midnightblue" stroke="midnightblue" points="504.04,-139.38 493.5,-140.52 502.45,-146.2 504.04,-139.38"/>
</g>
<!-- Node31 -->
<g id="node26" class="node">
<title>Node31</title>
<g id="a_node26"><a xlink:href="JsonMessage_8hpp.html" target="_top" xlink:title=" ">
<polygon fill="none" stroke="red" points="2506,-120.5 2506,-140.5 2610,-140.5 2610,-120.5 2506,-120.5"/>
<text text-anchor="middle" x="2558" y="-127.7" font-family="-apple-system, BlinkMacSystemFont, 'Segoe UI', Roboto, Oxygen, Ubuntu, Cantarell, 'Fira Sans', 'Droid Sans', 'Helvetica Neue', sans-serif" font-size="11.00">JsonMessage.hpp</text>
</a>
</g>
</g>
<!-- Node15&#45;&gt;Node31 -->
<g id="edge51" class="edge">
<title>Node15&#45;&gt;Node31</title>
<path fill="none" stroke="midnightblue" d="M1582.67,-191.39C1760.08,-187.54 2318.55,-173.58 2497,-147 2503.75,-145.99 2510.84,-144.56 2517.7,-142.96"/>
<polygon fill="midnightblue" stroke="midnightblue" points="2518.66,-146.33 2527.53,-140.53 2516.98,-139.53 2518.66,-146.33"/>
</g>
<!-- Node32 -->
<g id="node27" class="node">
<title>Node32</title>
<g id="a_node27"><a xlink:href="MiraiCodeMessage_8hpp.html" target="_top" xlink:title=" ">
<polygon fill="none" stroke="red" points="1463,-120.5 1463,-140.5 1593,-140.5 1593,-120.5 1463,-120.5"/>
<text text-anchor="middle" x="1528" y="-127.7" font-family="-apple-system, BlinkMacSystemFont, 'Segoe UI', Roboto, Oxygen, Ubuntu, Cantarell, 'Fira Sans', 'Droid Sans', 'Helvetica Neue', sans-serif" font-size="11.00">MiraiCodeMessage.hpp</text>
</a>
</g>
</g>
<!-- Node15&#45;&gt;Node32 -->
<g id="edge53" class="edge">
<title>Node15&#45;&gt;Node32</title>
<path fill="none" stroke="midnightblue" d="M1528,-183.5C1528,-174.94 1528,-161.78 1528,-150.85"/>
<polygon fill="midnightblue" stroke="midnightblue" points="1531.5,-150.54 1528,-140.54 1524.5,-150.54 1531.5,-150.54"/>
</g>
<!-- Node33 -->
<g id="node28" class="node">
<title>Node33</title>
<g id="a_node28"><a xlink:href="MusicShareMessage_8hpp.html" target="_top" xlink:title=" ">
<polygon fill="none" stroke="red" points="535,-120.5 535,-140.5 673,-140.5 673,-120.5 535,-120.5"/>
<text text-anchor="middle" x="604" y="-127.7" font-family="-apple-system, BlinkMacSystemFont, 'Segoe UI', Roboto, Oxygen, Ubuntu, Cantarell, 'Fira Sans', 'Droid Sans', 'Helvetica Neue', sans-serif" font-size="11.00">MusicShareMessage.hpp</text>
</a>
</g>
</g>
<!-- Node15&#45;&gt;Node33 -->
<g id="edge55" class="edge">
<title>Node15&#45;&gt;Node33</title>
<path fill="none" stroke="midnightblue" d="M1473.32,-192.25C1338.4,-191.05 978.99,-184.3 682,-147 672.85,-145.85 663.15,-144.24 653.83,-142.5"/>
<polygon fill="midnightblue" stroke="midnightblue" points="654.39,-139.04 643.9,-140.57 653.05,-145.91 654.39,-139.04"/>
</g>
<!-- Node34 -->
<g id="node29" class="node">
<title>Node34</title>
<g id="a_node29"><a xlink:href="PlainMessage_8hpp.html" target="_top" xlink:title=" ">
<polygon fill="none" stroke="red" points="1339.5,-120.5 1339.5,-140.5 1444.5,-140.5 1444.5,-120.5 1339.5,-120.5"/>
<text text-anchor="middle" x="1392" y="-127.7" font-family="-apple-system, BlinkMacSystemFont, 'Segoe UI', Roboto, Oxygen, Ubuntu, Cantarell, 'Fira Sans', 'Droid Sans', 'Helvetica Neue', sans-serif" font-size="11.00">PlainMessage.hpp</text>
</a>
</g>
</g>
<!-- Node15&#45;&gt;Node34 -->
<g id="edge59" class="edge">
<title>Node15&#45;&gt;Node34</title>
<path fill="none" stroke="midnightblue" d="M1507.93,-183.5C1485.13,-173.27 1447.7,-156.48 1421.56,-144.76"/>
<polygon fill="midnightblue" stroke="midnightblue" points="1422.71,-141.44 1412.15,-140.54 1419.84,-147.82 1422.71,-141.44"/>
</g>
<!-- Node35 -->
<g id="node30" class="node">
<title>Node35</title>
<g id="a_node30"><a xlink:href="PokeMessage_8hpp.html" target="_top" xlink:title=" ">
<polygon fill="none" stroke="red" points="691.5,-120.5 691.5,-140.5 798.5,-140.5 798.5,-120.5 691.5,-120.5"/>
<text text-anchor="middle" x="745" y="-127.7" font-family="-apple-system, BlinkMacSystemFont, 'Segoe UI', Roboto, Oxygen, Ubuntu, Cantarell, 'Fira Sans', 'Droid Sans', 'Helvetica Neue', sans-serif" font-size="11.00">PokeMessage.hpp</text>
</a>
</g>
</g>
<!-- Node15&#45;&gt;Node35 -->
<g id="edge62" class="edge">
<title>Node15&#45;&gt;Node35</title>
<path fill="none" stroke="midnightblue" d="M1473.43,-192.01C1353.39,-190.27 1057.66,-182.43 813,-147 805.42,-145.9 797.43,-144.4 789.7,-142.76"/>
<polygon fill="midnightblue" stroke="midnightblue" points="790.26,-139.3 779.74,-140.55 788.74,-146.13 790.26,-139.3"/>
</g>
<!-- Node36 -->
<g id="node31" class="node">
<title>Node36</title>
<g id="a_node31"><a xlink:href="QuoteMessage_8hpp.html" target="_top" xlink:title=" ">
<polygon fill="none" stroke="red" points="855,-120.5 855,-140.5 965,-140.5 965,-120.5 855,-120.5"/>
<text text-anchor="middle" x="910" y="-127.7" font-family="-apple-system, BlinkMacSystemFont, 'Segoe UI', Roboto, Oxygen, Ubuntu, Cantarell, 'Fira Sans', 'Droid Sans', 'Helvetica Neue', sans-serif" font-size="11.00">QuoteMessage.hpp</text>
</a>
</g>
</g>
<!-- Node15&#45;&gt;Node36 -->
<g id="edge65" class="edge">
<title>Node15&#45;&gt;Node36</title>
<path fill="none" stroke="midnightblue" d="M1473.4,-190.83C1373.65,-187.16 1155.5,-176.25 974,-147 967.18,-145.9 960,-144.46 953.03,-142.89"/>
<polygon fill="midnightblue" stroke="midnightblue" points="953.55,-139.42 943.02,-140.53 951.95,-146.23 953.55,-139.42"/>
</g>
<!-- Node37 -->
<g id="node32" class="node">
<title>Node37</title>
<g id="a_node32"><a xlink:href="SourceMessage_8hpp.html" target="_top" xlink:title=" ">
<polygon fill="none" stroke="red" points="271,-120.5 271,-140.5 387,-140.5 387,-120.5 271,-120.5"/>
<text text-anchor="middle" x="329" y="-127.7" font-family="-apple-system, BlinkMacSystemFont, 'Segoe UI', Roboto, Oxygen, Ubuntu, Cantarell, 'Fira Sans', 'Droid Sans', 'Helvetica Neue', sans-serif" font-size="11.00">SourceMessage.hpp</text>
</a>
</g>
</g>
<!-- Node15&#45;&gt;Node37 -->
<g id="edge69" class="edge">
<title>Node15&#45;&gt;Node37</title>
<path fill="none" stroke="midnightblue" d="M1473.28,-191.66C1276.88,-188.42 607.99,-175.53 396,-147 388.35,-145.97 380.29,-144.47 372.51,-142.81"/>
<polygon fill="midnightblue" stroke="midnightblue" points="373.04,-139.34 362.51,-140.55 371.5,-146.17 373.04,-139.34"/>
</g>
<!-- Node38 -->
<g id="node33" class="node">
<title>Node38</title>
<g id="a_node33"><a xlink:href="XmlMessage_8hpp.html" target="_top" xlink:title=" ">
<polygon fill="none" stroke="red" points="2015,-120.5 2015,-140.5 2115,-140.5 2115,-120.5 2015,-120.5"/>
<text text-anchor="middle" x="2065" y="-127.7" font-family="-apple-system, BlinkMacSystemFont, 'Segoe UI', Roboto, Oxygen, Ubuntu, Cantarell, 'Fira Sans', 'Droid Sans', 'Helvetica Neue', sans-serif" font-size="11.00">XmlMessage.hpp</text>
</a>
</g>
</g>
<!-- Node15&#45;&gt;Node38 -->
<g id="edge73" class="edge">
<title>Node15&#45;&gt;Node38</title>
<path fill="none" stroke="midnightblue" d="M1582.51,-190.19C1671.66,-185.76 1853.96,-174.02 2006,-147 2011.95,-145.94 2018.17,-144.59 2024.25,-143.12"/>
<polygon fill="midnightblue" stroke="midnightblue" points="2025.45,-146.43 2034.28,-140.58 2023.73,-139.64 2025.45,-146.43"/>
</g>
<!-- Node20&#45;&gt;Node19 -->
<g id="edge26" class="edge">
<title>Node20&#45;&gt;Node19</title>
<path fill="none" stroke="midnightblue" d="M2726.42,-114.42C2730.55,-106.01 2735.73,-95.48 2740.08,-86.63"/>
<polygon fill="midnightblue" stroke="midnightblue" points="2743.28,-88.06 2744.55,-77.55 2737,-84.97 2743.28,-88.06"/>
</g>
<!-- Node22&#45;&gt;Node5 -->
<g id="edge29" class="edge">
<title>Node22&#45;&gt;Node5</title>
<path fill="none" stroke="midnightblue" d="M1119.65,-120.44C1062.52,-99.17 919.97,-46.11 857.34,-22.79"/>
<polygon fill="midnightblue" stroke="midnightblue" points="858.24,-19.39 847.65,-19.19 855.8,-25.95 858.24,-19.39"/>
</g>
<!-- Node22&#45;&gt;Node10 -->
<g id="edge30" class="edge">
<title>Node22&#45;&gt;Node10</title>
<path fill="none" stroke="midnightblue" d="M1177.56,-120.49C1186.16,-118.27 1195.4,-115.97 1204,-114 1263.29,-100.38 1331.85,-86.9 1377.77,-78.18"/>
<polygon fill="midnightblue" stroke="midnightblue" points="1378.61,-81.59 1387.78,-76.29 1377.31,-74.71 1378.61,-81.59"/>
</g>
<!-- Node23&#45;&gt;Node10 -->
<g id="edge32" class="edge">
<title>Node23&#45;&gt;Node10</title>
<path fill="none" stroke="midnightblue" d="M1662.98,-120.49C1653.82,-118.34 1644.06,-116.07 1635,-114 1582.63,-102.04 1522.63,-88.77 1481.13,-79.67"/>
<polygon fill="midnightblue" stroke="midnightblue" points="1481.78,-76.23 1471.26,-77.5 1480.28,-83.06 1481.78,-76.23"/>
</g>
<!-- Node24&#45;&gt;Node7 -->
<g id="edge34" class="edge">
<title>Node24&#45;&gt;Node7</title>
<path fill="none" stroke="midnightblue" d="M1000.09,-120.46C991.73,-118.09 982.56,-115.72 974,-114 879.92,-95.07 770.7,-82.81 695.43,-75.84"/>
<polygon fill="midnightblue" stroke="midnightblue" points="695.32,-72.31 685.04,-74.89 694.69,-79.28 695.32,-72.31"/>
</g>
<!-- Node24&#45;&gt;Node10 -->
<g id="edge35" class="edge">
<title>Node24&#45;&gt;Node10</title>
<path fill="none" stroke="midnightblue" d="M1058.45,-120.5C1066.96,-118.13 1076.3,-115.75 1085,-114 1208.43,-89.14 1241.28,-95.24 1366,-78 1369.72,-77.49 1373.57,-76.94 1377.44,-76.39"/>
<polygon fill="midnightblue" stroke="midnightblue" points="1378.28,-79.8 1387.67,-74.9 1377.27,-72.88 1378.28,-79.8"/>
</g>
<!-- Node25&#45;&gt;Node5 -->
<g id="edge37" class="edge">
<title>Node25&#45;&gt;Node5</title>
<path fill="none" stroke="midnightblue" d="M1233.2,-120.44C1150.2,-98.18 937.3,-41.08 857.67,-19.72"/>
<polygon fill="midnightblue" stroke="midnightblue" points="858.34,-16.28 847.77,-17.07 856.52,-23.04 858.34,-16.28"/>
</g>
<!-- Node25&#45;&gt;Node10 -->
<g id="edge38" class="edge">
<title>Node25&#45;&gt;Node10</title>
<path fill="none" stroke="midnightblue" d="M1291.05,-120.5C1318.86,-110.09 1364.82,-92.89 1396.21,-81.14"/>
<polygon fill="midnightblue" stroke="midnightblue" points="1397.71,-84.32 1405.85,-77.54 1395.26,-77.76 1397.71,-84.32"/>
</g>
<!-- Node27&#45;&gt;Node10 -->
<g id="edge40" class="edge">
<title>Node27&#45;&gt;Node10</title>
<path fill="none" stroke="midnightblue" d="M1789.77,-120.44C1780.83,-118.12 1771.08,-115.79 1762,-114 1663.93,-94.68 1547.96,-80.8 1482.29,-73.76"/>
<polygon fill="midnightblue" stroke="midnightblue" points="1482.5,-70.26 1472.19,-72.69 1481.76,-77.22 1482.5,-70.26"/>
</g>
<!-- Node28&#45;&gt;Node10 -->
<g id="edge42" class="edge">
<title>Node28&#45;&gt;Node10</title>
<path fill="none" stroke="midnightblue" d="M1911.69,-120.48C1902.19,-118.09 1891.73,-115.7 1882,-114 1738.42,-88.96 1566.61,-76.36 1482.13,-71.29"/>
<polygon fill="midnightblue" stroke="midnightblue" points="1482.22,-67.79 1472.03,-70.7 1481.8,-74.78 1482.22,-67.79"/>
</g>
<!-- Node29&#45;&gt;Node10 -->
<g id="edge44" class="edge">
<title>Node29&#45;&gt;Node10</title>
<path fill="none" stroke="midnightblue" d="M2410.05,-120.46C2400.85,-117.94 2390.58,-115.49 2381,-114 2205.54,-86.68 1654.7,-73.17 1482.19,-69.53"/>
<polygon fill="midnightblue" stroke="midnightblue" points="1482.17,-66.03 1472.1,-69.32 1482.02,-73.03 1482.17,-66.03"/>
</g>
<!-- Node30&#45;&gt;Node5 -->
<g id="edge48" class="edge">
<title>Node30&#45;&gt;Node5</title>
<path fill="none" stroke="midnightblue" d="M464.8,-120.32C471.9,-104.47 488.75,-72.2 514,-57 561.22,-28.57 726.87,-16.75 796.16,-12.97"/>
<polygon fill="midnightblue" stroke="midnightblue" points="796.62,-16.45 806.42,-12.43 796.25,-9.46 796.62,-16.45"/>
</g>
<!-- Node30&#45;&gt;Node7 -->
<g id="edge49" class="edge">
<title>Node30&#45;&gt;Node7</title>
<path fill="none" stroke="midnightblue" d="M482.1,-120.5C506.18,-110.23 545.78,-93.34 573.28,-81.6"/>
<polygon fill="midnightblue" stroke="midnightblue" points="574.99,-84.68 582.81,-77.54 572.24,-78.24 574.99,-84.68"/>
</g>
<!-- Node30&#45;&gt;Node10 -->
<g id="edge50" class="edge">
<title>Node30&#45;&gt;Node10</title>
<path fill="none" stroke="midnightblue" d="M493.84,-120.43C504.07,-117.94 515.43,-115.51 526,-114 847.03,-68.04 1237.95,-66.61 1377.45,-67.79"/>
<polygon fill="midnightblue" stroke="midnightblue" points="1377.8,-71.29 1387.83,-67.88 1377.87,-64.29 1377.8,-71.29"/>
</g>
<!-- Node31&#45;&gt;Node10 -->
<g id="edge52" class="edge">
<title>Node31&#45;&gt;Node10</title>
<path fill="none" stroke="midnightblue" d="M2527.53,-120.45C2517.85,-117.92 2507.05,-115.48 2497,-114 2297.72,-84.75 1668.14,-72.38 1482.2,-69.3"/>
<polygon fill="midnightblue" stroke="midnightblue" points="1482.19,-65.8 1472.13,-69.14 1482.08,-72.8 1482.19,-65.8"/>
</g>
<!-- Node32&#45;&gt;Node10 -->
<g id="edge54" class="edge">
<title>Node32&#45;&gt;Node10</title>
<path fill="none" stroke="midnightblue" d="M1513.54,-120.5C1497.62,-110.59 1471.79,-94.51 1453.07,-82.86"/>
<polygon fill="midnightblue" stroke="midnightblue" points="1454.86,-79.85 1444.52,-77.54 1451.16,-85.79 1454.86,-79.85"/>
</g>
<!-- Node33&#45;&gt;Node5 -->
<g id="edge56" class="edge">
<title>Node33&#45;&gt;Node5</title>
<path fill="none" stroke="midnightblue" d="M621.13,-120.44C659.88,-99.93 754.5,-49.86 800.72,-25.4"/>
<polygon fill="midnightblue" stroke="midnightblue" points="802.61,-28.36 809.81,-20.59 799.34,-22.18 802.61,-28.36"/>
</g>
<!-- Node33&#45;&gt;Node7 -->
<g id="edge57" class="edge">
<title>Node33&#45;&gt;Node7</title>
<path fill="none" stroke="midnightblue" d="M604,-120.5C604,-111.94 604,-98.78 604,-87.85"/>
<polygon fill="midnightblue" stroke="midnightblue" points="607.5,-87.54 604,-77.54 600.5,-87.54 607.5,-87.54"/>
</g>
<!-- Node33&#45;&gt;Node10 -->
<g id="edge58" class="edge">
<title>Node33&#45;&gt;Node10</title>
<path fill="none" stroke="midnightblue" d="M643.91,-120.49C656.08,-118.03 669.54,-115.61 682,-114 941.53,-80.48 1254.99,-71.54 1377.42,-69.25"/>
<polygon fill="midnightblue" stroke="midnightblue" points="1377.7,-72.75 1387.63,-69.07 1377.57,-65.75 1377.7,-72.75"/>
</g>
<!-- Node34&#45;&gt;Node5 -->
<g id="edge60" class="edge">
<title>Node34&#45;&gt;Node5</title>
<path fill="none" stroke="midnightblue" d="M1357.55,-120.45C1348.9,-118.26 1339.63,-115.98 1331,-114 1152.72,-73.03 937.02,-31.99 857.95,-17.23"/>
<polygon fill="midnightblue" stroke="midnightblue" points="858.2,-13.72 847.72,-15.33 856.91,-20.6 858.2,-13.72"/>
</g>
<!-- Node34&#45;&gt;Node10 -->
<g id="edge61" class="edge">
<title>Node34&#45;&gt;Node10</title>
<path fill="none" stroke="midnightblue" d="M1397.61,-120.5C1403.22,-111.49 1412.01,-97.39 1419.01,-86.14"/>
<polygon fill="midnightblue" stroke="midnightblue" points="1422.05,-87.88 1424.37,-77.54 1416.11,-84.17 1422.05,-87.88"/>
</g>
<!-- Node35&#45;&gt;Node7 -->
<g id="edge63" class="edge">
<title>Node35&#45;&gt;Node7</title>
<path fill="none" stroke="midnightblue" d="M724.19,-120.5C700.45,-110.23 661.41,-93.34 634.29,-81.6"/>
<polygon fill="midnightblue" stroke="midnightblue" points="635.46,-78.3 624.89,-77.54 632.68,-84.72 635.46,-78.3"/>
</g>
<!-- Node35&#45;&gt;Node10 -->
<g id="edge64" class="edge">
<title>Node35&#45;&gt;Node10</title>
<path fill="none" stroke="midnightblue" d="M798.63,-120.51C813.9,-118.16 830.58,-115.78 846,-114 1041.58,-91.41 1275.35,-76.96 1377.68,-71.26"/>
<polygon fill="midnightblue" stroke="midnightblue" points="1377.96,-74.75 1387.76,-70.71 1377.58,-67.77 1377.96,-74.75"/>
</g>
<!-- Node36&#45;&gt;Node7 -->
<g id="edge67" class="edge">
<title>Node36&#45;&gt;Node7</title>
<path fill="none" stroke="midnightblue" d="M864.85,-120.5C810.16,-109.6 718.06,-91.24 659.2,-79.5"/>
<polygon fill="midnightblue" stroke="midnightblue" points="659.83,-76.06 649.34,-77.54 658.46,-82.93 659.83,-76.06"/>
</g>
<!-- Node36&#45;&gt;Node10 -->
<g id="edge68" class="edge">
<title>Node36&#45;&gt;Node10</title>
<path fill="none" stroke="midnightblue" d="M943.36,-120.45C953.17,-118.05 963.96,-115.67 974,-114 1146.59,-85.33 1192.29,-98.85 1366,-78 1369.73,-77.55 1373.58,-77.06 1377.46,-76.54"/>
<polygon fill="midnightblue" stroke="midnightblue" points="1378.28,-79.96 1387.7,-75.12 1377.31,-73.03 1378.28,-79.96"/>
</g>
<!-- Node36&#45;&gt;Node11 -->
<g id="edge66" class="edge">
<title>Node36&#45;&gt;Node11</title>
<path fill="none" stroke="midnightblue" d="M946.86,-120.46C955.74,-118.32 965.2,-116.05 974,-114 1128.84,-77.85 1313.81,-36.99 1392.06,-19.81"/>
<polygon fill="midnightblue" stroke="midnightblue" points="1392.93,-23.2 1401.94,-17.64 1391.43,-16.36 1392.93,-23.2"/>
</g>
<!-- Node37&#45;&gt;Node4 -->
<g id="edge70" class="edge">
<title>Node37&#45;&gt;Node4</title>
<path fill="none" stroke="midnightblue" d="M324.68,-120.24C315.65,-100.85 294.59,-55.67 282.65,-30.07"/>
<polygon fill="midnightblue" stroke="midnightblue" points="285.69,-28.3 278.3,-20.72 279.35,-31.26 285.69,-28.3"/>
</g>
<!-- Node37&#45;&gt;Node7 -->
<g id="edge71" class="edge">
<title>Node37&#45;&gt;Node7</title>
<path fill="none" stroke="midnightblue" d="M367.6,-120.49C376.9,-118.34 386.8,-116.07 396,-114 449.14,-102.04 510.02,-88.78 552.12,-79.67"/>
<polygon fill="midnightblue" stroke="midnightblue" points="553.1,-83.04 562.14,-77.5 551.62,-76.2 553.1,-83.04"/>
</g>
<!-- Node37&#45;&gt;Node10 -->
<g id="edge72" class="edge">
<title>Node37&#45;&gt;Node10</title>
<path fill="none" stroke="midnightblue" d="M362.52,-120.48C373.15,-117.96 385,-115.5 396,-114 588.77,-87.69 1195.26,-73.33 1377.63,-69.53"/>
<polygon fill="midnightblue" stroke="midnightblue" points="1377.84,-73.03 1387.76,-69.32 1377.69,-66.03 1377.84,-73.03"/>
</g>
<!-- Node38&#45;&gt;Node5 -->
<g id="edge74" class="edge">
<title>Node38&#45;&gt;Node5</title>
<path fill="none" stroke="midnightblue" d="M2033.96,-120.42C2025,-118.05 2015.16,-115.69 2006,-114 1555.02,-30.76 994.18,-14.75 857.88,-12.02"/>
<polygon fill="midnightblue" stroke="midnightblue" points="857.82,-8.52 847.76,-11.82 857.69,-15.51 857.82,-8.52"/>
</g>
<!-- Node38&#45;&gt;Node10 -->
<g id="edge75" class="edge">
<title>Node38&#45;&gt;Node10</title>
<path fill="none" stroke="midnightblue" d="M2034.91,-120.49C2025.7,-118.03 2015.5,-115.61 2006,-114 1814.76,-81.59 1583.81,-72.18 1482.23,-69.52"/>
<polygon fill="midnightblue" stroke="midnightblue" points="1482.32,-66.02 1472.23,-69.27 1482.14,-73.02 1482.32,-66.02"/>
</g>
</g>
</svg>
