<?xml version="1.0" encoding="UTF-8" standalone="no"?>
<!DOCTYPE svg PUBLIC "-//W3C//DTD SVG 1.1//EN"
 "http://www.w3.org/Graphics/SVG/1.1/DTD/svg11.dtd">
<!-- Generated by graphviz version 3.0.0 (20220413.0242)
 -->
<!-- Title: libmirai/public/libmirai/Messages/ForwardMessage.cpp Pages: 1 -->
<svg width="867pt" height="269pt"
 viewBox="0.00 0.00 867.00 269.00" xmlns="http://www.w3.org/2000/svg" xmlns:xlink="http://www.w3.org/1999/xlink">
<g id="graph0" class="graph" transform="scale(1 1) rotate(0) translate(4 265)">
<title>libmirai/public/libmirai/Messages/ForwardMessage.cpp</title>
<!-- Node1 -->
<g id="node1" class="node">
<title>Node1</title>
<g id="a_node1"><a xlink:title=" ">
<polygon fill="#bfbfbf" stroke="black" points="475,-228.5 475,-260.5 651,-260.5 651,-228.5 475,-228.5"/>
<text text-anchor="start" x="483" y="-247.7" font-family="-apple-system, BlinkMacSystemFont, 'Segoe UI', Roboto, Oxygen, Ubuntu, Cantarell, 'Fira Sans', 'Droid Sans', 'Helvetica Neue', sans-serif" font-size="11.00">libmirai/public/libmirai</text>
<text text-anchor="middle" x="563" y="-235.7" font-family="-apple-system, BlinkMacSystemFont, 'Segoe UI', Roboto, Oxygen, Ubuntu, Cantarell, 'Fira Sans', 'Droid Sans', 'Helvetica Neue', sans-serif" font-size="11.00">/Messages/ForwardMessage.cpp</text>
</a>
</g>
</g>
<!-- Node2 -->
<g id="node2" class="node">
<title>Node2</title>
<g id="a_node2"><a xlink:href="ForwardMessage_8hpp.html" target="_top" xlink:title=" ">
<polygon fill="none" stroke="black" points="208,-171.5 208,-191.5 330,-191.5 330,-171.5 208,-171.5"/>
<text text-anchor="middle" x="269" y="-178.7" font-family="-apple-system, BlinkMacSystemFont, 'Segoe UI', Roboto, Oxygen, Ubuntu, Cantarell, 'Fira Sans', 'Droid Sans', 'Helvetica Neue', sans-serif" font-size="11.00">ForwardMessage.hpp</text>
</a>
</g>
</g>
<!-- Node1&#45;&gt;Node2 -->
<g id="edge1" class="edge">
<title>Node1&#45;&gt;Node2</title>
<path fill="none" stroke="midnightblue" d="M490.7,-228.5C438.75,-217.72 369.84,-203.42 322.72,-193.65"/>
<polygon fill="midnightblue" stroke="midnightblue" points="323.21,-190.17 312.71,-191.57 321.79,-197.03 323.21,-190.17"/>
</g>
<!-- Node4 -->
<g id="node4" class="node">
<title>Node4</title>
<g id="a_node4"><a xlink:title=" ">
<polygon fill="none" stroke="#bfbfbf" points="0,-57.5 0,-77.5 54,-77.5 54,-57.5 0,-57.5"/>
<text text-anchor="middle" x="27" y="-64.7" font-family="-apple-system, BlinkMacSystemFont, 'Segoe UI', Roboto, Oxygen, Ubuntu, Cantarell, 'Fira Sans', 'Droid Sans', 'Helvetica Neue', sans-serif" font-size="11.00">optional</text>
</a>
</g>
</g>
<!-- Node1&#45;&gt;Node4 -->
<g id="edge19" class="edge">
<title>Node1&#45;&gt;Node4</title>
<path fill="none" stroke="midnightblue" d="M474.76,-236.61C400.36,-229.48 291.53,-215.92 199,-192 130.35,-174.26 99.32,-185.94 50,-135 37.68,-122.27 31.93,-102.62 29.27,-87.98"/>
<polygon fill="midnightblue" stroke="midnightblue" points="32.71,-87.33 27.78,-77.95 25.79,-88.36 32.71,-87.33"/>
</g>
<!-- Node6 -->
<g id="node6" class="node">
<title>Node6</title>
<g id="a_node6"><a xlink:title=" ">
<polygon fill="none" stroke="#bfbfbf" points="451,-57.5 451,-77.5 497,-77.5 497,-57.5 451,-57.5"/>
<text text-anchor="middle" x="474" y="-64.7" font-family="-apple-system, BlinkMacSystemFont, 'Segoe UI', Roboto, Oxygen, Ubuntu, Cantarell, 'Fira Sans', 'Droid Sans', 'Helvetica Neue', sans-serif" font-size="11.00">vector</text>
</a>
</g>
</g>
<!-- Node1&#45;&gt;Node6 -->
<g id="edge20" class="edge">
<title>Node1&#45;&gt;Node6</title>
<path fill="none" stroke="midnightblue" d="M555.26,-228.28C538.86,-196.03 500.7,-121 483.14,-86.47"/>
<polygon fill="midnightblue" stroke="midnightblue" points="486.24,-84.84 478.58,-77.51 480,-88.01 486.24,-84.84"/>
</g>
<!-- Node34 -->
<g id="node11" class="node">
<title>Node34</title>
<g id="a_node11"><a xlink:title=" ">
<polygon fill="none" stroke="#bfbfbf" points="591,-171.5 591,-191.5 699,-191.5 699,-171.5 591,-171.5"/>
<text text-anchor="middle" x="645" y="-178.7" font-family="-apple-system, BlinkMacSystemFont, 'Segoe UI', Roboto, Oxygen, Ubuntu, Cantarell, 'Fira Sans', 'Droid Sans', 'Helvetica Neue', sans-serif" font-size="11.00">nlohmann/json.hpp</text>
</a>
</g>
</g>
<!-- Node1&#45;&gt;Node34 -->
<g id="edge21" class="edge">
<title>Node1&#45;&gt;Node34</title>
<path fill="none" stroke="midnightblue" d="M583.27,-228.42C595.91,-219.02 612.12,-206.96 624.75,-197.56"/>
<polygon fill="midnightblue" stroke="midnightblue" points="626.91,-200.32 632.84,-191.55 622.73,-194.71 626.91,-200.32"/>
</g>
<!-- Node35 -->
<g id="node12" class="node">
<title>Node35</title>
<g id="a_node12"><a xlink:title=" ">
<polygon fill="none" stroke="#bfbfbf" points="717,-171.5 717,-191.5 859,-191.5 859,-171.5 717,-171.5"/>
<text text-anchor="middle" x="788" y="-178.7" font-family="-apple-system, BlinkMacSystemFont, 'Segoe UI', Roboto, Oxygen, Ubuntu, Cantarell, 'Fira Sans', 'Droid Sans', 'Helvetica Neue', sans-serif" font-size="11.00">libmirai/Utils/Common.hpp</text>
</a>
</g>
</g>
<!-- Node1&#45;&gt;Node35 -->
<g id="edge22" class="edge">
<title>Node1&#45;&gt;Node35</title>
<path fill="none" stroke="midnightblue" d="M618.33,-228.5C657.34,-217.92 708.84,-203.96 744.83,-194.2"/>
<polygon fill="midnightblue" stroke="midnightblue" points="745.81,-197.56 754.55,-191.57 743.98,-190.81 745.81,-197.56"/>
</g>
<!-- Node3 -->
<g id="node3" class="node">
<title>Node3</title>
<g id="a_node3"><a xlink:title=" ">
<polygon fill="none" stroke="#bfbfbf" points="301,-57.5 301,-77.5 343,-77.5 343,-57.5 301,-57.5"/>
<text text-anchor="middle" x="322" y="-64.7" font-family="-apple-system, BlinkMacSystemFont, 'Segoe UI', Roboto, Oxygen, Ubuntu, Cantarell, 'Fira Sans', 'Droid Sans', 'Helvetica Neue', sans-serif" font-size="11.00">ctime</text>
</a>
</g>
</g>
<!-- Node2&#45;&gt;Node3 -->
<g id="edge2" class="edge">
<title>Node2&#45;&gt;Node3</title>
<path fill="none" stroke="midnightblue" d="M270.57,-171.08C273.03,-157.82 278.51,-133.15 288,-114 293.07,-103.77 300.51,-93.49 307.14,-85.29"/>
<polygon fill="midnightblue" stroke="midnightblue" points="309.85,-87.5 313.62,-77.59 304.5,-82.99 309.85,-87.5"/>
</g>
<!-- Node2&#45;&gt;Node4 -->
<g id="edge3" class="edge">
<title>Node2&#45;&gt;Node4</title>
<path fill="none" stroke="midnightblue" d="M207.78,-177.19C167.22,-172.47 114.44,-161.29 75,-135 57.12,-123.08 43.64,-102.1 35.58,-86.88"/>
<polygon fill="midnightblue" stroke="midnightblue" points="38.68,-85.26 31.08,-77.87 32.42,-88.38 38.68,-85.26"/>
</g>
<!-- Node5 -->
<g id="node5" class="node">
<title>Node5</title>
<g id="a_node5"><a xlink:title=" ">
<polygon fill="none" stroke="#bfbfbf" points="75.5,-57.5 75.5,-77.5 116.5,-77.5 116.5,-57.5 75.5,-57.5"/>
<text text-anchor="middle" x="96" y="-64.7" font-family="-apple-system, BlinkMacSystemFont, 'Segoe UI', Roboto, Oxygen, Ubuntu, Cantarell, 'Fira Sans', 'Droid Sans', 'Helvetica Neue', sans-serif" font-size="11.00">utility</text>
</a>
</g>
</g>
<!-- Node2&#45;&gt;Node5 -->
<g id="edge4" class="edge">
<title>Node2&#45;&gt;Node5</title>
<path fill="none" stroke="midnightblue" d="M207.98,-173.6C160.19,-166.79 99.3,-154.52 84,-135 73.3,-121.35 78.96,-101.28 85.66,-86.76"/>
<polygon fill="midnightblue" stroke="midnightblue" points="88.83,-88.24 90.27,-77.74 82.6,-85.05 88.83,-88.24"/>
</g>
<!-- Node2&#45;&gt;Node6 -->
<g id="edge5" class="edge">
<title>Node2&#45;&gt;Node6</title>
<path fill="none" stroke="midnightblue" d="M330.05,-174.37C381.68,-167.84 450.05,-155.55 468,-135 479.18,-122.2 479.52,-102.25 477.77,-87.53"/>
<polygon fill="midnightblue" stroke="midnightblue" points="481.21,-86.83 476.17,-77.51 474.29,-87.94 481.21,-86.83"/>
</g>
<!-- Node7 -->
<g id="node7" class="node">
<title>Node7</title>
<g id="a_node7"><a xlink:title=" ">
<polygon fill="none" stroke="#bfbfbf" points="238.5,-0.5 238.5,-20.5 369.5,-20.5 369.5,-0.5 238.5,-0.5"/>
<text text-anchor="middle" x="304" y="-7.7" font-family="-apple-system, BlinkMacSystemFont, 'Segoe UI', Roboto, Oxygen, Ubuntu, Cantarell, 'Fira Sans', 'Droid Sans', 'Helvetica Neue', sans-serif" font-size="11.00">nlohmann/json_fwd.hpp</text>
</a>
</g>
</g>
<!-- Node2&#45;&gt;Node7 -->
<g id="edge6" class="edge">
<title>Node2&#45;&gt;Node7</title>
<path fill="none" stroke="midnightblue" d="M330,-174.42C385.84,-167.68 463.14,-155.05 486,-135 506.18,-117.3 501.49,-104.47 506,-78 507.57,-68.8 511.83,-64.29 506,-57 490.11,-37.13 430.02,-25.32 379.48,-18.74"/>
<polygon fill="midnightblue" stroke="midnightblue" points="379.87,-15.26 369.51,-17.49 379,-22.2 379.87,-15.26"/>
</g>
<!-- Node8 -->
<g id="node8" class="node">
<title>Node8</title>
<g id="a_node8"><a xlink:href="BasicTypes_8hpp.html" target="_top" xlink:title=" ">
<polygon fill="none" stroke="red" points="297,-114.5 297,-134.5 459,-134.5 459,-114.5 297,-114.5"/>
<text text-anchor="middle" x="378" y="-121.7" font-family="-apple-system, BlinkMacSystemFont, 'Segoe UI', Roboto, Oxygen, Ubuntu, Cantarell, 'Fira Sans', 'Droid Sans', 'Helvetica Neue', sans-serif" font-size="11.00">libmirai/Types/BasicTypes.hpp</text>
</a>
</g>
</g>
<!-- Node2&#45;&gt;Node8 -->
<g id="edge7" class="edge">
<title>Node2&#45;&gt;Node8</title>
<path fill="none" stroke="midnightblue" d="M287,-171.42C304.36,-162.66 330.85,-149.29 350.78,-139.23"/>
<polygon fill="midnightblue" stroke="midnightblue" points="352.62,-142.23 359.97,-134.6 349.47,-135.98 352.62,-142.23"/>
</g>
<!-- Node12 -->
<g id="node9" class="node">
<title>Node12</title>
<g id="a_node9"><a xlink:href="MessageBase_8hpp.html" target="_top" xlink:title=" ">
<polygon fill="none" stroke="red" points="177,-57.5 177,-77.5 283,-77.5 283,-57.5 177,-57.5"/>
<text text-anchor="middle" x="230" y="-64.7" font-family="-apple-system, BlinkMacSystemFont, 'Segoe UI', Roboto, Oxygen, Ubuntu, Cantarell, 'Fira Sans', 'Droid Sans', 'Helvetica Neue', sans-serif" font-size="11.00">MessageBase.hpp</text>
</a>
</g>
</g>
<!-- Node2&#45;&gt;Node12 -->
<g id="edge10" class="edge">
<title>Node2&#45;&gt;Node12</title>
<path fill="none" stroke="midnightblue" d="M265.81,-171.33C259.44,-153.04 245.03,-111.67 236.56,-87.34"/>
<polygon fill="midnightblue" stroke="midnightblue" points="239.83,-86.08 233.24,-77.79 233.22,-88.39 239.83,-86.08"/>
</g>
<!-- Node14 -->
<g id="node10" class="node">
<title>Node14</title>
<g id="a_node10"><a xlink:href="MessageChain_8hpp.html" target="_top" xlink:title=" ">
<polygon fill="none" stroke="red" points="93.5,-114.5 93.5,-134.5 202.5,-134.5 202.5,-114.5 93.5,-114.5"/>
<text text-anchor="middle" x="148" y="-121.7" font-family="-apple-system, BlinkMacSystemFont, 'Segoe UI', Roboto, Oxygen, Ubuntu, Cantarell, 'Fira Sans', 'Droid Sans', 'Helvetica Neue', sans-serif" font-size="11.00">MessageChain.hpp</text>
</a>
</g>
</g>
<!-- Node2&#45;&gt;Node14 -->
<g id="edge12" class="edge">
<title>Node2&#45;&gt;Node14</title>
<path fill="none" stroke="midnightblue" d="M249.02,-171.42C229.49,-162.54 199.54,-148.93 177.31,-138.82"/>
<polygon fill="midnightblue" stroke="midnightblue" points="178.56,-135.55 168.01,-134.6 175.67,-141.92 178.56,-135.55"/>
</g>
<!-- Node8&#45;&gt;Node3 -->
<g id="edge8" class="edge">
<title>Node8&#45;&gt;Node3</title>
<path fill="none" stroke="midnightblue" d="M368.75,-114.42C360.61,-106.42 348.56,-94.59 338.74,-84.94"/>
<polygon fill="midnightblue" stroke="midnightblue" points="341.04,-82.29 331.45,-77.78 336.13,-87.28 341.04,-82.29"/>
</g>
<!-- Node8&#45;&gt;Node7 -->
<g id="edge9" class="edge">
<title>Node8&#45;&gt;Node7</title>
<path fill="none" stroke="midnightblue" d="M375.78,-114.29C372.25,-100.87 364.46,-75.51 352,-57 344.46,-45.8 333.73,-35.29 324.32,-27.2"/>
<polygon fill="midnightblue" stroke="midnightblue" points="326.45,-24.42 316.5,-20.76 321.99,-29.82 326.45,-24.42"/>
</g>
<!-- Node12&#45;&gt;Node7 -->
<g id="edge11" class="edge">
<title>Node12&#45;&gt;Node7</title>
<path fill="none" stroke="midnightblue" d="M242.22,-57.42C253.47,-49.06 270.37,-36.5 283.65,-26.62"/>
<polygon fill="midnightblue" stroke="midnightblue" points="285.82,-29.37 291.76,-20.6 281.65,-23.75 285.82,-29.37"/>
</g>
<!-- Node14&#45;&gt;Node3 -->
<g id="edge13" class="edge">
<title>Node14&#45;&gt;Node3</title>
<path fill="none" stroke="midnightblue" d="M176.69,-114.44C203.82,-105.87 245.94,-92.57 291.03,-78.31"/>
<polygon fill="midnightblue" stroke="midnightblue" points="292.22,-81.6 300.7,-75.25 290.11,-74.93 292.22,-81.6"/>
</g>
<!-- Node14&#45;&gt;Node4 -->
<g id="edge14" class="edge">
<title>Node14&#45;&gt;Node4</title>
<path fill="none" stroke="midnightblue" d="M128.02,-114.42C108.49,-105.54 78.54,-91.93 56.31,-81.82"/>
<polygon fill="midnightblue" stroke="midnightblue" points="57.56,-78.55 47.01,-77.6 54.67,-84.92 57.56,-78.55"/>
</g>
<!-- Node14&#45;&gt;Node5 -->
<g id="edge15" class="edge">
<title>Node14&#45;&gt;Node5</title>
<path fill="none" stroke="midnightblue" d="M139.41,-114.42C131.93,-106.5 120.89,-94.82 111.81,-85.23"/>
<polygon fill="midnightblue" stroke="midnightblue" points="114.19,-82.64 104.77,-77.78 109.1,-87.45 114.19,-82.64"/>
</g>
<!-- Node14&#45;&gt;Node6 -->
<g id="edge16" class="edge">
<title>Node14&#45;&gt;Node6</title>
<path fill="none" stroke="midnightblue" d="M201.47,-114.48C269.35,-103.03 384.39,-83.62 440.81,-74.1"/>
<polygon fill="midnightblue" stroke="midnightblue" points="441.68,-77.5 450.95,-72.39 440.51,-70.6 441.68,-77.5"/>
</g>
<!-- Node14&#45;&gt;Node7 -->
<g id="edge17" class="edge">
<title>Node14&#45;&gt;Node7</title>
<path fill="none" stroke="midnightblue" d="M148.19,-114.46C148.98,-100.31 152.56,-72.92 168,-57 184.16,-40.34 206.58,-29.78 228.56,-23.09"/>
<polygon fill="midnightblue" stroke="midnightblue" points="229.58,-26.43 238.26,-20.36 227.69,-19.7 229.58,-26.43"/>
</g>
<!-- Node14&#45;&gt;Node12 -->
<g id="edge18" class="edge">
<title>Node14&#45;&gt;Node12</title>
<path fill="none" stroke="midnightblue" d="M161.54,-114.42C174.12,-105.98 193.09,-93.26 207.87,-83.34"/>
<polygon fill="midnightblue" stroke="midnightblue" points="210.08,-86.07 216.44,-77.6 206.18,-80.26 210.08,-86.07"/>
</g>
</g>
</svg>
