<?xml version="1.0" encoding="UTF-8" standalone="no"?>
<!DOCTYPE svg PUBLIC "-//W3C//DTD SVG 1.1//EN"
 "http://www.w3.org/Graphics/SVG/1.1/DTD/svg11.dtd">
<!-- Generated by graphviz version 3.0.0 (20220413.0242)
 -->
<!-- Title: libmirai/public/libmirai/Messages/ForwardMessage.hpp Pages: 1 -->
<svg width="2143pt" height="395pt"
 viewBox="0.00 0.00 2143.50 395.00" xmlns="http://www.w3.org/2000/svg" xmlns:xlink="http://www.w3.org/1999/xlink">
<g id="graph0" class="graph" transform="scale(1 1) rotate(0) translate(4 391)">
<title>libmirai/public/libmirai/Messages/ForwardMessage.hpp</title>
<!-- Node1 -->
<g id="node1" class="node">
<title>Node1</title>
<g id="a_node1"><a xlink:title=" ">
<polygon fill="#bfbfbf" stroke="black" points="1482.5,-354.5 1482.5,-386.5 1658.5,-386.5 1658.5,-354.5 1482.5,-354.5"/>
<text text-anchor="start" x="1490.5" y="-373.7" font-family="-apple-system, BlinkMacSystemFont, 'Segoe UI', Roboto, Oxygen, Ubuntu, Cantarell, 'Fira Sans', 'Droid Sans', 'Helvetica Neue', sans-serif" font-size="11.00">libmirai/public/libmirai</text>
<text text-anchor="middle" x="1570.5" y="-361.7" font-family="-apple-system, BlinkMacSystemFont, 'Segoe UI', Roboto, Oxygen, Ubuntu, Cantarell, 'Fira Sans', 'Droid Sans', 'Helvetica Neue', sans-serif" font-size="11.00">/Messages/ForwardMessage.hpp</text>
</a>
</g>
</g>
<!-- Node2 -->
<g id="node2" class="node">
<title>Node2</title>
<g id="a_node2"><a xlink:title=" ">
<polygon fill="none" stroke="#bfbfbf" points="2000.5,-57.5 2000.5,-77.5 2042.5,-77.5 2042.5,-57.5 2000.5,-57.5"/>
<text text-anchor="middle" x="2021.5" y="-64.7" font-family="-apple-system, BlinkMacSystemFont, 'Segoe UI', Roboto, Oxygen, Ubuntu, Cantarell, 'Fira Sans', 'Droid Sans', 'Helvetica Neue', sans-serif" font-size="11.00">ctime</text>
</a>
</g>
</g>
<!-- Node1&#45;&gt;Node2 -->
<g id="edge1" class="edge">
<title>Node1&#45;&gt;Node2</title>
<path fill="none" stroke="midnightblue" d="M1658.71,-366.77C1808.73,-359.71 2097.5,-334.56 2097.5,-245.5 2097.5,-245.5 2097.5,-245.5 2097.5,-180.5 2097.5,-140.32 2063.59,-103.84 2041.07,-84.05"/>
<polygon fill="midnightblue" stroke="midnightblue" points="2043.27,-81.33 2033.37,-77.54 2038.75,-86.67 2043.27,-81.33"/>
</g>
<!-- Node3 -->
<g id="node3" class="node">
<title>Node3</title>
<g id="a_node3"><a xlink:title=" ">
<polygon fill="none" stroke="#bfbfbf" points="400.5,-234.5 400.5,-254.5 454.5,-254.5 454.5,-234.5 400.5,-234.5"/>
<text text-anchor="middle" x="427.5" y="-241.7" font-family="-apple-system, BlinkMacSystemFont, 'Segoe UI', Roboto, Oxygen, Ubuntu, Cantarell, 'Fira Sans', 'Droid Sans', 'Helvetica Neue', sans-serif" font-size="11.00">optional</text>
</a>
</g>
</g>
<!-- Node1&#45;&gt;Node3 -->
<g id="edge2" class="edge">
<title>Node1&#45;&gt;Node3</title>
<path fill="none" stroke="midnightblue" d="M1482.38,-368.56C1244.01,-365.56 598.38,-354.15 509.5,-318 480.87,-306.36 455.52,-280.24 440.84,-262.75"/>
<polygon fill="midnightblue" stroke="midnightblue" points="443.18,-260.08 434.17,-254.5 437.74,-264.48 443.18,-260.08"/>
</g>
<!-- Node4 -->
<g id="node4" class="node">
<title>Node4</title>
<g id="a_node4"><a xlink:title=" ">
<polygon fill="none" stroke="#bfbfbf" points="1759,-57.5 1759,-77.5 1800,-77.5 1800,-57.5 1759,-57.5"/>
<text text-anchor="middle" x="1779.5" y="-64.7" font-family="-apple-system, BlinkMacSystemFont, 'Segoe UI', Roboto, Oxygen, Ubuntu, Cantarell, 'Fira Sans', 'Droid Sans', 'Helvetica Neue', sans-serif" font-size="11.00">utility</text>
</a>
</g>
</g>
<!-- Node1&#45;&gt;Node4 -->
<g id="edge3" class="edge">
<title>Node1&#45;&gt;Node4</title>
<path fill="none" stroke="midnightblue" d="M1658.77,-365.12C1799.62,-355.69 2059.5,-327.23 2059.5,-245.5 2059.5,-245.5 2059.5,-245.5 2059.5,-180.5 2059.5,-127.23 1882.58,-87.88 1810,-73.98"/>
<polygon fill="midnightblue" stroke="midnightblue" points="1810.56,-70.52 1800.09,-72.11 1809.27,-77.4 1810.56,-70.52"/>
</g>
<!-- Node5 -->
<g id="node5" class="node">
<title>Node5</title>
<g id="a_node5"><a xlink:title=" ">
<polygon fill="none" stroke="#bfbfbf" points="472.5,-234.5 472.5,-254.5 518.5,-254.5 518.5,-234.5 472.5,-234.5"/>
<text text-anchor="middle" x="495.5" y="-241.7" font-family="-apple-system, BlinkMacSystemFont, 'Segoe UI', Roboto, Oxygen, Ubuntu, Cantarell, 'Fira Sans', 'Droid Sans', 'Helvetica Neue', sans-serif" font-size="11.00">vector</text>
</a>
</g>
</g>
<!-- Node1&#45;&gt;Node5 -->
<g id="edge4" class="edge">
<title>Node1&#45;&gt;Node5</title>
<path fill="none" stroke="midnightblue" d="M1482.16,-370.13C1245.75,-371.1 611.18,-368.9 532.5,-318 514.01,-306.04 504.32,-281.77 499.56,-264.61"/>
<polygon fill="midnightblue" stroke="midnightblue" points="502.88,-263.45 497.11,-254.56 496.08,-265.11 502.88,-263.45"/>
</g>
<!-- Node6 -->
<g id="node6" class="node">
<title>Node6</title>
<g id="a_node6"><a xlink:title=" ">
<polygon fill="none" stroke="#bfbfbf" points="1002,-0.5 1002,-20.5 1133,-20.5 1133,-0.5 1002,-0.5"/>
<text text-anchor="middle" x="1067.5" y="-7.7" font-family="-apple-system, BlinkMacSystemFont, 'Segoe UI', Roboto, Oxygen, Ubuntu, Cantarell, 'Fira Sans', 'Droid Sans', 'Helvetica Neue', sans-serif" font-size="11.00">nlohmann/json_fwd.hpp</text>
</a>
</g>
</g>
<!-- Node1&#45;&gt;Node6 -->
<g id="edge5" class="edge">
<title>Node1&#45;&gt;Node6</title>
<path fill="none" stroke="midnightblue" d="M1658.78,-368.2C1817.69,-363.45 2135.5,-341.91 2135.5,-245.5 2135.5,-245.5 2135.5,-245.5 2135.5,-123.5 2135.5,-75.88 2096.1,-73.68 2051.5,-57 1967.43,-25.56 1359.5,-15.09 1143.44,-12.34"/>
<polygon fill="midnightblue" stroke="midnightblue" points="1143.19,-8.83 1133.15,-12.21 1143.1,-15.83 1143.19,-8.83"/>
</g>
<!-- Node7 -->
<g id="node7" class="node">
<title>Node7</title>
<g id="a_node7"><a xlink:href="BasicTypes_8hpp.html" target="_top" xlink:title=" ">
<polygon fill="none" stroke="black" points="1475.5,-114.5 1475.5,-134.5 1637.5,-134.5 1637.5,-114.5 1475.5,-114.5"/>
<text text-anchor="middle" x="1556.5" y="-121.7" font-family="-apple-system, BlinkMacSystemFont, 'Segoe UI', Roboto, Oxygen, Ubuntu, Cantarell, 'Fira Sans', 'Droid Sans', 'Helvetica Neue', sans-serif" font-size="11.00">libmirai/Types/BasicTypes.hpp</text>
</a>
</g>
</g>
<!-- Node1&#45;&gt;Node7 -->
<g id="edge6" class="edge">
<title>Node1&#45;&gt;Node7</title>
<path fill="none" stroke="midnightblue" d="M1658.57,-354.48C1789.62,-328.54 2011.74,-268.53 1925.5,-171 1907.37,-150.5 1751.3,-137.19 1648.02,-130.54"/>
<polygon fill="midnightblue" stroke="midnightblue" points="1648.09,-127.04 1637.89,-129.9 1647.65,-134.03 1648.09,-127.04"/>
</g>
<!-- Node11 -->
<g id="node11" class="node">
<title>Node11</title>
<g id="a_node11"><a xlink:href="MessageBase_8hpp.html" target="_top" xlink:title=" ">
<polygon fill="none" stroke="black" points="857.5,-114.5 857.5,-134.5 963.5,-134.5 963.5,-114.5 857.5,-114.5"/>
<text text-anchor="middle" x="910.5" y="-121.7" font-family="-apple-system, BlinkMacSystemFont, 'Segoe UI', Roboto, Oxygen, Ubuntu, Cantarell, 'Fira Sans', 'Droid Sans', 'Helvetica Neue', sans-serif" font-size="11.00">MessageBase.hpp</text>
</a>
</g>
</g>
<!-- Node1&#45;&gt;Node11 -->
<g id="edge14" class="edge">
<title>Node1&#45;&gt;Node11</title>
<path fill="none" stroke="midnightblue" d="M1482.19,-366.83C1315.97,-360.07 965.12,-336.95 874.5,-261 841.48,-233.33 817.71,-208.73 838.5,-171 846.46,-156.55 861.16,-146.06 875.2,-138.81"/>
<polygon fill="midnightblue" stroke="midnightblue" points="876.73,-141.96 884.27,-134.51 873.73,-135.64 876.73,-141.96"/>
</g>
<!-- Node13 -->
<g id="node13" class="node">
<title>Node13</title>
<g id="a_node13"><a xlink:href="MessageChain_8hpp.html" target="_top" xlink:title=" ">
<polygon fill="none" stroke="black" points="1065,-297.5 1065,-317.5 1174,-317.5 1174,-297.5 1065,-297.5"/>
<text text-anchor="middle" x="1119.5" y="-304.7" font-family="-apple-system, BlinkMacSystemFont, 'Segoe UI', Roboto, Oxygen, Ubuntu, Cantarell, 'Fira Sans', 'Droid Sans', 'Helvetica Neue', sans-serif" font-size="11.00">MessageChain.hpp</text>
</a>
</g>
</g>
<!-- Node1&#45;&gt;Node13 -->
<g id="edge19" class="edge">
<title>Node1&#45;&gt;Node13</title>
<path fill="none" stroke="midnightblue" d="M1482.47,-357.59C1395.01,-345.76 1262.93,-327.9 1184.54,-317.3"/>
<polygon fill="midnightblue" stroke="midnightblue" points="1184.69,-313.79 1174.31,-315.91 1183.76,-320.72 1184.69,-313.79"/>
</g>
<!-- Node7&#45;&gt;Node2 -->
<g id="edge8" class="edge">
<title>Node7&#45;&gt;Node2</title>
<path fill="none" stroke="midnightblue" d="M1632.76,-114.48C1736.43,-102.22 1917.22,-80.83 1989.91,-72.24"/>
<polygon fill="midnightblue" stroke="midnightblue" points="1990.7,-75.67 2000.22,-71.02 1989.88,-68.72 1990.7,-75.67"/>
</g>
<!-- Node7&#45;&gt;Node4 -->
<g id="edge10" class="edge">
<title>Node7&#45;&gt;Node4</title>
<path fill="none" stroke="midnightblue" d="M1593.32,-114.42C1636.79,-103.7 1708.29,-86.06 1748.87,-76.05"/>
<polygon fill="midnightblue" stroke="midnightblue" points="1749.85,-79.42 1758.73,-73.62 1748.18,-72.62 1749.85,-79.42"/>
</g>
<!-- Node7&#45;&gt;Node6 -->
<g id="edge11" class="edge">
<title>Node7&#45;&gt;Node6</title>
<path fill="none" stroke="midnightblue" d="M1557.33,-114.08C1558.04,-99.41 1556.99,-71.33 1540.5,-57 1511.23,-31.58 1269.94,-18.96 1143.76,-14.05"/>
<polygon fill="midnightblue" stroke="midnightblue" points="1143.53,-10.53 1133.4,-13.65 1143.26,-17.53 1143.53,-10.53"/>
</g>
<!-- Node8 -->
<g id="node8" class="node">
<title>Node8</title>
<g id="a_node8"><a xlink:title=" ">
<polygon fill="none" stroke="#bfbfbf" points="1587.5,-57.5 1587.5,-77.5 1637.5,-77.5 1637.5,-57.5 1587.5,-57.5"/>
<text text-anchor="middle" x="1612.5" y="-64.7" font-family="-apple-system, BlinkMacSystemFont, 'Segoe UI', Roboto, Oxygen, Ubuntu, Cantarell, 'Fira Sans', 'Droid Sans', 'Helvetica Neue', sans-serif" font-size="11.00">chrono</text>
</a>
</g>
</g>
<!-- Node7&#45;&gt;Node8 -->
<g id="edge7" class="edge">
<title>Node7&#45;&gt;Node8</title>
<path fill="none" stroke="midnightblue" d="M1565.75,-114.42C1573.88,-106.42 1585.93,-94.59 1595.76,-84.94"/>
<polygon fill="midnightblue" stroke="midnightblue" points="1598.37,-87.28 1603.05,-77.78 1593.46,-82.29 1598.37,-87.28"/>
</g>
<!-- Node9 -->
<g id="node9" class="node">
<title>Node9</title>
<g id="a_node9"><a xlink:title=" ">
<polygon fill="none" stroke="#bfbfbf" points="1059,-57.5 1059,-77.5 1102,-77.5 1102,-57.5 1059,-57.5"/>
<text text-anchor="middle" x="1080.5" y="-64.7" font-family="-apple-system, BlinkMacSystemFont, 'Segoe UI', Roboto, Oxygen, Ubuntu, Cantarell, 'Fira Sans', 'Droid Sans', 'Helvetica Neue', sans-serif" font-size="11.00">string</text>
</a>
</g>
</g>
<!-- Node7&#45;&gt;Node9 -->
<g id="edge9" class="edge">
<title>Node7&#45;&gt;Node9</title>
<path fill="none" stroke="midnightblue" d="M1478.43,-114.48C1372.09,-102.19 1186.48,-80.75 1112.38,-72.18"/>
<polygon fill="midnightblue" stroke="midnightblue" points="1112.61,-68.69 1102.28,-71.02 1111.81,-75.64 1112.61,-68.69"/>
</g>
<!-- Node10 -->
<g id="node10" class="node">
<title>Node10</title>
<g id="a_node10"><a xlink:href="Serializable_8hpp.html" target="_top" xlink:title=" ">
<polygon fill="none" stroke="black" points="1369.5,-57.5 1369.5,-77.5 1531.5,-77.5 1531.5,-57.5 1369.5,-57.5"/>
<text text-anchor="middle" x="1450.5" y="-64.7" font-family="-apple-system, BlinkMacSystemFont, 'Segoe UI', Roboto, Oxygen, Ubuntu, Cantarell, 'Fira Sans', 'Droid Sans', 'Helvetica Neue', sans-serif" font-size="11.00">libmirai/Types/Serializable.hpp</text>
</a>
</g>
</g>
<!-- Node7&#45;&gt;Node10 -->
<g id="edge12" class="edge">
<title>Node7&#45;&gt;Node10</title>
<path fill="none" stroke="midnightblue" d="M1538.99,-114.42C1522.12,-105.66 1496.35,-92.29 1476.96,-82.23"/>
<polygon fill="midnightblue" stroke="midnightblue" points="1478.52,-79.09 1468.03,-77.6 1475.29,-85.31 1478.52,-79.09"/>
</g>
<!-- Node10&#45;&gt;Node6 -->
<g id="edge13" class="edge">
<title>Node10&#45;&gt;Node6</title>
<path fill="none" stroke="midnightblue" d="M1387.68,-57.48C1319.92,-47.75 1212.15,-32.27 1140.63,-22"/>
<polygon fill="midnightblue" stroke="midnightblue" points="1140.74,-18.48 1130.35,-20.53 1139.75,-25.41 1140.74,-18.48"/>
</g>
<!-- Node11&#45;&gt;Node6 -->
<g id="edge17" class="edge">
<title>Node11&#45;&gt;Node6</title>
<path fill="none" stroke="midnightblue" d="M917.99,-114.42C929.65,-100.7 953.31,-74.45 977.5,-57 995.47,-44.04 1017.67,-32.77 1035.52,-24.69"/>
<polygon fill="midnightblue" stroke="midnightblue" points="1037.2,-27.78 1044.94,-20.54 1034.38,-21.37 1037.2,-27.78"/>
</g>
<!-- Node11&#45;&gt;Node9 -->
<g id="edge16" class="edge">
<title>Node11&#45;&gt;Node9</title>
<path fill="none" stroke="midnightblue" d="M938.57,-114.42C969.03,-104.56 1017.56,-88.86 1049.22,-78.62"/>
<polygon fill="midnightblue" stroke="midnightblue" points="1050.43,-81.91 1058.87,-75.5 1048.27,-75.25 1050.43,-81.91"/>
</g>
<!-- Node11&#45;&gt;Node10 -->
<g id="edge18" class="edge">
<title>Node11&#45;&gt;Node10</title>
<path fill="none" stroke="midnightblue" d="M963.75,-118.08C1055.83,-108.7 1245.8,-89.35 1359.27,-77.79"/>
<polygon fill="midnightblue" stroke="midnightblue" points="1359.73,-81.26 1369.33,-76.77 1359.02,-74.3 1359.73,-81.26"/>
</g>
<!-- Node12 -->
<g id="node12" class="node">
<title>Node12</title>
<g id="a_node12"><a xlink:title=" ">
<polygon fill="none" stroke="#bfbfbf" points="496.5,-57.5 496.5,-77.5 552.5,-77.5 552.5,-57.5 496.5,-57.5"/>
<text text-anchor="middle" x="524.5" y="-64.7" font-family="-apple-system, BlinkMacSystemFont, 'Segoe UI', Roboto, Oxygen, Ubuntu, Cantarell, 'Fira Sans', 'Droid Sans', 'Helvetica Neue', sans-serif" font-size="11.00">memory</text>
</a>
</g>
</g>
<!-- Node11&#45;&gt;Node12 -->
<g id="edge15" class="edge">
<title>Node11&#45;&gt;Node12</title>
<path fill="none" stroke="midnightblue" d="M857.23,-115.91C778.35,-104.67 632.34,-83.87 562.99,-73.99"/>
<polygon fill="midnightblue" stroke="midnightblue" points="563.33,-70.5 552.94,-72.55 562.35,-77.43 563.33,-70.5"/>
</g>
<!-- Node13&#45;&gt;Node2 -->
<g id="edge21" class="edge">
<title>Node13&#45;&gt;Node2</title>
<path fill="none" stroke="midnightblue" d="M1174.04,-306.93C1321.04,-307.5 1722.67,-304.86 1846.5,-261 1896.37,-243.34 1907.13,-230.42 1943.5,-192 1974.45,-159.3 1999.98,-112.56 2012.73,-86.98"/>
<polygon fill="midnightblue" stroke="midnightblue" points="2016.02,-88.22 2017.25,-77.7 2009.72,-85.16 2016.02,-88.22"/>
</g>
<!-- Node13&#45;&gt;Node3 -->
<g id="edge23" class="edge">
<title>Node13&#45;&gt;Node3</title>
<path fill="none" stroke="midnightblue" d="M1064.81,-305.07C928.61,-301.13 577.08,-288.54 463.5,-261 460.65,-260.31 457.73,-259.41 454.86,-258.39"/>
<polygon fill="midnightblue" stroke="midnightblue" points="455.99,-255.07 445.4,-254.62 453.39,-261.58 455.99,-255.07"/>
</g>
<!-- Node13&#45;&gt;Node4 -->
<g id="edge26" class="edge">
<title>Node13&#45;&gt;Node4</title>
<path fill="none" stroke="midnightblue" d="M1174.38,-305.14C1310.16,-301.38 1658.95,-289.19 1771.5,-261 1844.25,-242.78 1884.72,-254.95 1925.5,-192 1959.93,-138.84 1861.96,-96.32 1809.8,-78.11"/>
<polygon fill="midnightblue" stroke="midnightblue" points="1810.63,-74.7 1800.03,-74.8 1808.38,-81.33 1810.63,-74.7"/>
</g>
<!-- Node13&#45;&gt;Node5 -->
<g id="edge27" class="edge">
<title>Node13&#45;&gt;Node5</title>
<path fill="none" stroke="midnightblue" d="M1064.71,-304.16C965.65,-299.44 750.35,-286.94 570.5,-261 556.69,-259.01 541.6,-256.04 528.59,-253.24"/>
<polygon fill="midnightblue" stroke="midnightblue" points="529.2,-249.79 518.68,-251.05 527.69,-256.62 529.2,-249.79"/>
</g>
<!-- Node13&#45;&gt;Node6 -->
<g id="edge28" class="edge">
<title>Node13&#45;&gt;Node6</title>
<path fill="none" stroke="midnightblue" d="M1064.76,-304.12C949.51,-298.73 685.34,-284.2 598.5,-261 564.88,-252.02 561.12,-236.97 527.5,-228 438.06,-204.13 175.06,-260.23 112.5,-192 55.88,-130.26 -218.45,-200.51 376.5,-57 491.32,-29.3 836.94,-17.32 991.44,-13.24"/>
<polygon fill="midnightblue" stroke="midnightblue" points="991.88,-16.73 1001.78,-12.97 991.7,-9.74 991.88,-16.73"/>
</g>
<!-- Node13&#45;&gt;Node11 -->
<g id="edge73" class="edge">
<title>Node13&#45;&gt;Node11</title>
<path fill="none" stroke="midnightblue" d="M1064.73,-301.96C998.93,-293.17 891.65,-267.42 845.5,-192 832.76,-171.18 857.73,-151.76 880.32,-139.35"/>
<polygon fill="midnightblue" stroke="midnightblue" points="882.15,-142.34 889.41,-134.63 878.93,-136.13 882.15,-142.34"/>
</g>
<!-- Node13&#45;&gt;Node12 -->
<g id="edge22" class="edge">
<title>Node13&#45;&gt;Node12</title>
<path fill="none" stroke="midnightblue" d="M1064.84,-305.53C955.19,-302.9 712.38,-293.49 636.5,-261 615.94,-252.2 619.14,-236.62 598.5,-228 501.84,-187.62 199.68,-268.85 128.5,-192 24.1,-79.3 368.63,-68.67 486.43,-68.26"/>
<polygon fill="midnightblue" stroke="midnightblue" points="486.46,-71.76 496.46,-68.24 486.45,-64.76 486.46,-71.76"/>
</g>
<!-- Node14 -->
<g id="node14" class="node">
<title>Node14</title>
<g id="a_node14"><a xlink:title=" ">
<polygon fill="none" stroke="#bfbfbf" points="1546,-234.5 1546,-254.5 1597,-254.5 1597,-234.5 1546,-234.5"/>
<text text-anchor="middle" x="1571.5" y="-241.7" font-family="-apple-system, BlinkMacSystemFont, 'Segoe UI', Roboto, Oxygen, Ubuntu, Cantarell, 'Fira Sans', 'Droid Sans', 'Helvetica Neue', sans-serif" font-size="11.00">cstddef</text>
</a>
</g>
</g>
<!-- Node13&#45;&gt;Node14 -->
<g id="edge20" class="edge">
<title>Node13&#45;&gt;Node14</title>
<path fill="none" stroke="midnightblue" d="M1174.13,-305.86C1254.75,-303.74 1409.74,-295.1 1536.5,-261 1539.12,-260.3 1541.79,-259.42 1544.43,-258.45"/>
<polygon fill="midnightblue" stroke="midnightblue" points="1545.8,-261.67 1553.72,-254.64 1543.14,-255.2 1545.8,-261.67"/>
</g>
<!-- Node15 -->
<g id="node15" class="node">
<title>Node15</title>
<g id="a_node15"><a xlink:title=" ">
<polygon fill="none" stroke="#bfbfbf" points="1249.5,-171.5 1249.5,-191.5 1311.5,-191.5 1311.5,-171.5 1249.5,-171.5"/>
<text text-anchor="middle" x="1280.5" y="-178.7" font-family="-apple-system, BlinkMacSystemFont, 'Segoe UI', Roboto, Oxygen, Ubuntu, Cantarell, 'Fira Sans', 'Droid Sans', 'Helvetica Neue', sans-serif" font-size="11.00">stdexcept</text>
</a>
</g>
</g>
<!-- Node13&#45;&gt;Node15 -->
<g id="edge24" class="edge">
<title>Node13&#45;&gt;Node15</title>
<path fill="none" stroke="midnightblue" d="M1174.28,-301.82C1203.99,-296.46 1239.11,-285.08 1261.5,-261 1276.38,-245 1280.18,-219.38 1280.88,-201.79"/>
<polygon fill="midnightblue" stroke="midnightblue" points="1284.38,-201.6 1280.98,-191.57 1277.38,-201.54 1284.38,-201.6"/>
</g>
<!-- Node16 -->
<g id="node16" class="node">
<title>Node16</title>
<g id="a_node16"><a xlink:title=" ">
<polygon fill="none" stroke="#bfbfbf" points="1615.5,-234.5 1615.5,-254.5 1681.5,-254.5 1681.5,-234.5 1615.5,-234.5"/>
<text text-anchor="middle" x="1648.5" y="-241.7" font-family="-apple-system, BlinkMacSystemFont, 'Segoe UI', Roboto, Oxygen, Ubuntu, Cantarell, 'Fira Sans', 'Droid Sans', 'Helvetica Neue', sans-serif" font-size="11.00">type_traits</text>
</a>
</g>
</g>
<!-- Node13&#45;&gt;Node16 -->
<g id="edge25" class="edge">
<title>Node13&#45;&gt;Node16</title>
<path fill="none" stroke="midnightblue" d="M1174.13,-305.86C1264.81,-303.8 1451.66,-295.35 1605.5,-261 1609.2,-260.17 1613.02,-259.11 1616.78,-257.94"/>
<polygon fill="midnightblue" stroke="midnightblue" points="1618.16,-261.17 1626.5,-254.64 1615.9,-254.54 1618.16,-261.17"/>
</g>
<!-- Node17 -->
<g id="node17" class="node">
<title>Node17</title>
<g id="a_node17"><a xlink:href="Exceptions_8hpp.html" target="_top" xlink:title=" ">
<polygon fill="none" stroke="black" points="1148,-228.5 1148,-260.5 1253,-260.5 1253,-228.5 1148,-228.5"/>
<text text-anchor="start" x="1156" y="-247.7" font-family="-apple-system, BlinkMacSystemFont, 'Segoe UI', Roboto, Oxygen, Ubuntu, Cantarell, 'Fira Sans', 'Droid Sans', 'Helvetica Neue', sans-serif" font-size="11.00">libmirai/Exceptions</text>
<text text-anchor="middle" x="1200.5" y="-235.7" font-family="-apple-system, BlinkMacSystemFont, 'Segoe UI', Roboto, Oxygen, Ubuntu, Cantarell, 'Fira Sans', 'Droid Sans', 'Helvetica Neue', sans-serif" font-size="11.00">/Exceptions.hpp</text>
</a>
</g>
</g>
<!-- Node13&#45;&gt;Node17 -->
<g id="edge29" class="edge">
<title>Node13&#45;&gt;Node17</title>
<path fill="none" stroke="midnightblue" d="M1131.45,-297.5C1142.09,-289.49 1158.08,-277.44 1172,-266.96"/>
<polygon fill="midnightblue" stroke="midnightblue" points="1174.44,-269.5 1180.33,-260.69 1170.23,-263.91 1174.44,-269.5"/>
</g>
<!-- Node18 -->
<g id="node18" class="node">
<title>Node18</title>
<g id="a_node18"><a xlink:href="AppMessage_8hpp.html" target="_top" xlink:title=" ">
<polygon fill="none" stroke="black" points="1092,-171.5 1092,-191.5 1193,-191.5 1193,-171.5 1092,-171.5"/>
<text text-anchor="middle" x="1142.5" y="-178.7" font-family="-apple-system, BlinkMacSystemFont, 'Segoe UI', Roboto, Oxygen, Ubuntu, Cantarell, 'Fira Sans', 'Droid Sans', 'Helvetica Neue', sans-serif" font-size="11.00">AppMessage.hpp</text>
</a>
</g>
</g>
<!-- Node13&#45;&gt;Node18 -->
<g id="edge32" class="edge">
<title>Node13&#45;&gt;Node18</title>
<path fill="none" stroke="midnightblue" d="M1121.23,-297.18C1124.97,-276.97 1133.91,-228.78 1138.93,-201.74"/>
<polygon fill="midnightblue" stroke="midnightblue" points="1142.43,-202.06 1140.81,-191.59 1135.55,-200.79 1142.43,-202.06"/>
</g>
<!-- Node19 -->
<g id="node19" class="node">
<title>Node19</title>
<g id="a_node19"><a xlink:href="AtAllMessage_8hpp.html" target="_top" xlink:title=" ">
<polygon fill="none" stroke="black" points="656.5,-171.5 656.5,-191.5 760.5,-191.5 760.5,-171.5 656.5,-171.5"/>
<text text-anchor="middle" x="708.5" y="-178.7" font-family="-apple-system, BlinkMacSystemFont, 'Segoe UI', Roboto, Oxygen, Ubuntu, Cantarell, 'Fira Sans', 'Droid Sans', 'Helvetica Neue', sans-serif" font-size="11.00">AtAllMessage.hpp</text>
</a>
</g>
</g>
<!-- Node13&#45;&gt;Node19 -->
<g id="edge36" class="edge">
<title>Node13&#45;&gt;Node19</title>
<path fill="none" stroke="midnightblue" d="M1064.94,-304.82C1006.52,-301.41 912.03,-291.24 836.5,-261 812.46,-251.38 810.44,-241.75 788.5,-228 770.78,-216.9 750.28,-205.26 734.46,-196.53"/>
<polygon fill="midnightblue" stroke="midnightblue" points="735.74,-193.24 725.29,-191.51 732.38,-199.38 735.74,-193.24"/>
</g>
<!-- Node20 -->
<g id="node20" class="node">
<title>Node20</title>
<g id="a_node20"><a xlink:href="AtMessage_8hpp.html" target="_top" xlink:title=" ">
<polygon fill="none" stroke="black" points="854.5,-171.5 854.5,-191.5 946.5,-191.5 946.5,-171.5 854.5,-171.5"/>
<text text-anchor="middle" x="900.5" y="-178.7" font-family="-apple-system, BlinkMacSystemFont, 'Segoe UI', Roboto, Oxygen, Ubuntu, Cantarell, 'Fira Sans', 'Droid Sans', 'Helvetica Neue', sans-serif" font-size="11.00">AtMessage.hpp</text>
</a>
</g>
</g>
<!-- Node13&#45;&gt;Node20 -->
<g id="edge40" class="edge">
<title>Node13&#45;&gt;Node20</title>
<path fill="none" stroke="midnightblue" d="M1103.39,-297.38C1065.58,-275.97 970.91,-222.37 925.52,-196.67"/>
<polygon fill="midnightblue" stroke="midnightblue" points="927.05,-193.51 916.63,-191.63 923.6,-199.6 927.05,-193.51"/>
</g>
<!-- Node21 -->
<g id="node21" class="node">
<title>Node21</title>
<g id="a_node21"><a xlink:href="AudioMessage_8hpp.html" target="_top" xlink:title=" ">
<polygon fill="none" stroke="red" points="965,-171.5 965,-191.5 1074,-191.5 1074,-171.5 965,-171.5"/>
<text text-anchor="middle" x="1019.5" y="-178.7" font-family="-apple-system, BlinkMacSystemFont, 'Segoe UI', Roboto, Oxygen, Ubuntu, Cantarell, 'Fira Sans', 'Droid Sans', 'Helvetica Neue', sans-serif" font-size="11.00">AudioMessage.hpp</text>
</a>
</g>
</g>
<!-- Node13&#45;&gt;Node21 -->
<g id="edge45" class="edge">
<title>Node13&#45;&gt;Node21</title>
<path fill="none" stroke="midnightblue" d="M1111.98,-297.18C1095.25,-276.43 1054.72,-226.18 1033.3,-199.61"/>
<polygon fill="midnightblue" stroke="midnightblue" points="1035.83,-197.18 1026.83,-191.59 1030.38,-201.57 1035.83,-197.18"/>
</g>
<!-- Node23 -->
<g id="node22" class="node">
<title>Node23</title>
<g id="a_node22"><a xlink:href="DiceMessage_8hpp.html" target="_top" xlink:title=" ">
<polygon fill="none" stroke="black" points="1329.5,-171.5 1329.5,-191.5 1431.5,-191.5 1431.5,-171.5 1329.5,-171.5"/>
<text text-anchor="middle" x="1380.5" y="-178.7" font-family="-apple-system, BlinkMacSystemFont, 'Segoe UI', Roboto, Oxygen, Ubuntu, Cantarell, 'Fira Sans', 'Droid Sans', 'Helvetica Neue', sans-serif" font-size="11.00">DiceMessage.hpp</text>
</a>
</g>
</g>
<!-- Node13&#45;&gt;Node23 -->
<g id="edge50" class="edge">
<title>Node13&#45;&gt;Node23</title>
<path fill="none" stroke="midnightblue" d="M1172.87,-297.46C1205.98,-290.48 1248.69,-278.92 1283.5,-261 1315.23,-244.66 1346.3,-216.84 1364.41,-199.08"/>
<polygon fill="midnightblue" stroke="midnightblue" points="1367.19,-201.25 1371.78,-191.71 1362.23,-196.31 1367.19,-201.25"/>
</g>
<!-- Node24 -->
<g id="node23" class="node">
<title>Node24</title>
<g id="a_node23"><a xlink:href="FaceMessage_8hpp.html" target="_top" xlink:title=" ">
<polygon fill="none" stroke="black" points="411,-171.5 411,-191.5 516,-191.5 516,-171.5 411,-171.5"/>
<text text-anchor="middle" x="463.5" y="-178.7" font-family="-apple-system, BlinkMacSystemFont, 'Segoe UI', Roboto, Oxygen, Ubuntu, Cantarell, 'Fira Sans', 'Droid Sans', 'Helvetica Neue', sans-serif" font-size="11.00">FaceMessage.hpp</text>
</a>
</g>
</g>
<!-- Node13&#45;&gt;Node24 -->
<g id="edge54" class="edge">
<title>Node13&#45;&gt;Node24</title>
<path fill="none" stroke="midnightblue" d="M1064.83,-303.67C976.2,-298.44 805.48,-285.48 750.5,-261 730.06,-251.9 732.66,-237.69 712.5,-228 695.92,-220.03 594.55,-203.03 526.37,-192.21"/>
<polygon fill="midnightblue" stroke="midnightblue" points="526.57,-188.7 516.14,-190.6 525.48,-195.62 526.57,-188.7"/>
</g>
<!-- Node25 -->
<g id="node24" class="node">
<title>Node25</title>
<g id="a_node24"><a xlink:href="FlashImageMessage_8hpp.html" target="_top" xlink:title=" ">
<polygon fill="none" stroke="black" points="1391,-234.5 1391,-254.5 1528,-254.5 1528,-234.5 1391,-234.5"/>
<text text-anchor="middle" x="1459.5" y="-241.7" font-family="-apple-system, BlinkMacSystemFont, 'Segoe UI', Roboto, Oxygen, Ubuntu, Cantarell, 'Fira Sans', 'Droid Sans', 'Helvetica Neue', sans-serif" font-size="11.00">FlashImageMessage.hpp</text>
</a>
</g>
</g>
<!-- Node13&#45;&gt;Node25 -->
<g id="edge58" class="edge">
<title>Node13&#45;&gt;Node25</title>
<path fill="none" stroke="midnightblue" d="M1171,-297.45C1222.71,-288.34 1304.65,-273.83 1375.5,-261 1383.68,-259.52 1392.31,-257.94 1400.79,-256.38"/>
<polygon fill="midnightblue" stroke="midnightblue" points="1401.45,-259.82 1410.65,-254.57 1400.18,-252.94 1401.45,-259.82"/>
</g>
<!-- Node26 -->
<g id="node25" class="node">
<title>Node26</title>
<g id="a_node25"><a xlink:href="ImageMessage_8hpp.html" target="_top" xlink:title=" ">
<polygon fill="none" stroke="red" points="1488,-171.5 1488,-191.5 1599,-191.5 1599,-171.5 1488,-171.5"/>
<text text-anchor="middle" x="1543.5" y="-178.7" font-family="-apple-system, BlinkMacSystemFont, 'Segoe UI', Roboto, Oxygen, Ubuntu, Cantarell, 'Fira Sans', 'Droid Sans', 'Helvetica Neue', sans-serif" font-size="11.00">ImageMessage.hpp</text>
</a>
</g>
</g>
<!-- Node13&#45;&gt;Node26 -->
<g id="edge68" class="edge">
<title>Node13&#45;&gt;Node26</title>
<path fill="none" stroke="midnightblue" d="M1174.29,-298.45C1215.63,-291.36 1273.26,-279.28 1321.5,-261 1349.96,-250.22 1353.33,-239.52 1381.5,-228 1417.12,-213.43 1458.98,-201.8 1491.23,-193.95"/>
<polygon fill="midnightblue" stroke="midnightblue" points="1492.42,-197.27 1501.34,-191.54 1490.8,-190.46 1492.42,-197.27"/>
</g>
<!-- Node27 -->
<g id="node26" class="node">
<title>Node27</title>
<g id="a_node26"><a xlink:href="JsonMessage_8hpp.html" target="_top" xlink:title=" ">
<polygon fill="none" stroke="black" points="534.5,-171.5 534.5,-191.5 638.5,-191.5 638.5,-171.5 534.5,-171.5"/>
<text text-anchor="middle" x="586.5" y="-178.7" font-family="-apple-system, BlinkMacSystemFont, 'Segoe UI', Roboto, Oxygen, Ubuntu, Cantarell, 'Fira Sans', 'Droid Sans', 'Helvetica Neue', sans-serif" font-size="11.00">JsonMessage.hpp</text>
</a>
</g>
</g>
<!-- Node13&#45;&gt;Node27 -->
<g id="edge69" class="edge">
<title>Node13&#45;&gt;Node27</title>
<path fill="none" stroke="midnightblue" d="M1064.9,-302.78C983.99,-296.64 836.64,-282.84 788.5,-261 768.13,-251.76 770.2,-238.58 750.5,-228 718.91,-211.03 680.41,-199.93 648.65,-192.94"/>
<polygon fill="midnightblue" stroke="midnightblue" points="649.11,-189.46 638.6,-190.81 647.66,-196.31 649.11,-189.46"/>
</g>
<!-- Node28 -->
<g id="node27" class="node">
<title>Node28</title>
<g id="a_node27"><a xlink:href="MiraiCodeMessage_8hpp.html" target="_top" xlink:title=" ">
<polygon fill="none" stroke="black" points="137.5,-171.5 137.5,-191.5 267.5,-191.5 267.5,-171.5 137.5,-171.5"/>
<text text-anchor="middle" x="202.5" y="-178.7" font-family="-apple-system, BlinkMacSystemFont, 'Segoe UI', Roboto, Oxygen, Ubuntu, Cantarell, 'Fira Sans', 'Droid Sans', 'Helvetica Neue', sans-serif" font-size="11.00">MiraiCodeMessage.hpp</text>
</a>
</g>
</g>
<!-- Node13&#45;&gt;Node28 -->
<g id="edge74" class="edge">
<title>Node13&#45;&gt;Node28</title>
<path fill="none" stroke="midnightblue" d="M1064.81,-305.01C961.84,-301.54 743.36,-290.81 674.5,-261 653.97,-252.11 657.04,-236.86 636.5,-228 491.89,-165.6 438.46,-208.4 278.07,-192.09"/>
<polygon fill="midnightblue" stroke="midnightblue" points="278.17,-188.59 267.86,-190.99 277.42,-195.55 278.17,-188.59"/>
</g>
<!-- Node29 -->
<g id="node28" class="node">
<title>Node29</title>
<g id="a_node28"><a xlink:href="PlainMessage_8hpp.html" target="_top" xlink:title=" ">
<polygon fill="none" stroke="black" points="1812,-171.5 1812,-191.5 1917,-191.5 1917,-171.5 1812,-171.5"/>
<text text-anchor="middle" x="1864.5" y="-178.7" font-family="-apple-system, BlinkMacSystemFont, 'Segoe UI', Roboto, Oxygen, Ubuntu, Cantarell, 'Fira Sans', 'Droid Sans', 'Helvetica Neue', sans-serif" font-size="11.00">PlainMessage.hpp</text>
</a>
</g>
</g>
<!-- Node13&#45;&gt;Node29 -->
<g id="edge78" class="edge">
<title>Node13&#45;&gt;Node29</title>
<path fill="none" stroke="midnightblue" d="M1174.43,-305.29C1302.76,-301.99 1619.02,-290.99 1720.5,-261 1767.85,-247.01 1817.12,-215.96 1843.99,-197.37"/>
<polygon fill="midnightblue" stroke="midnightblue" points="1846.04,-200.21 1852.2,-191.59 1842.01,-194.48 1846.04,-200.21"/>
</g>
<!-- Node30 -->
<g id="node29" class="node">
<title>Node30</title>
<g id="a_node29"><a xlink:href="PokeMessage_8hpp.html" target="_top" xlink:title=" ">
<polygon fill="none" stroke="red" points="286,-171.5 286,-191.5 393,-191.5 393,-171.5 286,-171.5"/>
<text text-anchor="middle" x="339.5" y="-178.7" font-family="-apple-system, BlinkMacSystemFont, 'Segoe UI', Roboto, Oxygen, Ubuntu, Cantarell, 'Fira Sans', 'Droid Sans', 'Helvetica Neue', sans-serif" font-size="11.00">PokeMessage.hpp</text>
</a>
</g>
</g>
<!-- Node13&#45;&gt;Node30 -->
<g id="edge83" class="edge">
<title>Node13&#45;&gt;Node30</title>
<path fill="none" stroke="midnightblue" d="M1064.63,-304.39C968.59,-300.05 774.36,-288.12 712.5,-261 692.01,-252.02 694.89,-237.18 674.5,-228 565.85,-179.08 524.83,-207.66 403.31,-192.17"/>
<polygon fill="midnightblue" stroke="midnightblue" points="403.64,-188.68 393.26,-190.81 402.7,-195.62 403.64,-188.68"/>
</g>
<!-- Node32 -->
<g id="node30" class="node">
<title>Node32</title>
<g id="a_node30"><a xlink:href="XmlMessage_8hpp.html" target="_top" xlink:title=" ">
<polygon fill="none" stroke="black" points="1693.5,-171.5 1693.5,-191.5 1793.5,-191.5 1793.5,-171.5 1693.5,-171.5"/>
<text text-anchor="middle" x="1743.5" y="-178.7" font-family="-apple-system, BlinkMacSystemFont, 'Segoe UI', Roboto, Oxygen, Ubuntu, Cantarell, 'Fira Sans', 'Droid Sans', 'Helvetica Neue', sans-serif" font-size="11.00">XmlMessage.hpp</text>
</a>
</g>
</g>
<!-- Node13&#45;&gt;Node32 -->
<g id="edge87" class="edge">
<title>Node13&#45;&gt;Node32</title>
<path fill="none" stroke="midnightblue" d="M1174.19,-304.83C1308.46,-300.34 1646.59,-286.62 1690.5,-261 1713.52,-247.57 1728.64,-219.67 1736.63,-201.02"/>
<polygon fill="midnightblue" stroke="midnightblue" points="1739.96,-202.1 1740.43,-191.52 1733.47,-199.5 1739.96,-202.1"/>
</g>
<!-- Node17&#45;&gt;Node9 -->
<g id="edge31" class="edge">
<title>Node17&#45;&gt;Node9</title>
<path fill="none" stroke="midnightblue" d="M1204.39,-228.27C1207.46,-213.03 1209.97,-189.27 1201.5,-171 1182.38,-129.75 1137.58,-99.07 1108.19,-82.48"/>
<polygon fill="midnightblue" stroke="midnightblue" points="1109.69,-79.32 1099.24,-77.6 1106.34,-85.46 1109.69,-79.32"/>
</g>
<!-- Node17&#45;&gt;Node15 -->
<g id="edge30" class="edge">
<title>Node17&#45;&gt;Node15</title>
<path fill="none" stroke="midnightblue" d="M1220.27,-228.42C1232.49,-219.11 1248.11,-207.19 1260.39,-197.84"/>
<polygon fill="midnightblue" stroke="midnightblue" points="1262.8,-200.39 1268.63,-191.55 1258.56,-194.83 1262.8,-200.39"/>
</g>
<!-- Node18&#45;&gt;Node6 -->
<g id="edge34" class="edge">
<title>Node18&#45;&gt;Node6</title>
<path fill="none" stroke="midnightblue" d="M1141.7,-171.24C1139.52,-149.85 1132.12,-95.91 1110.5,-57 1104.42,-46.06 1095.1,-35.75 1086.7,-27.72"/>
<polygon fill="midnightblue" stroke="midnightblue" points="1088.8,-24.91 1079.05,-20.78 1084.1,-30.09 1088.8,-24.91"/>
</g>
<!-- Node18&#45;&gt;Node9 -->
<g id="edge33" class="edge">
<title>Node18&#45;&gt;Node9</title>
<path fill="none" stroke="midnightblue" d="M1137.42,-171.33C1127.21,-152.88 1103.98,-110.92 1090.57,-86.69"/>
<polygon fill="midnightblue" stroke="midnightblue" points="1093.55,-84.85 1085.64,-77.79 1087.42,-88.24 1093.55,-84.85"/>
</g>
<!-- Node18&#45;&gt;Node11 -->
<g id="edge35" class="edge">
<title>Node18&#45;&gt;Node11</title>
<path fill="none" stroke="midnightblue" d="M1104.45,-171.48C1064.5,-162.01 1001.58,-147.09 958.31,-136.83"/>
<polygon fill="midnightblue" stroke="midnightblue" points="959.11,-133.43 948.57,-134.53 957.49,-140.24 959.11,-133.43"/>
</g>
<!-- Node19&#45;&gt;Node6 -->
<g id="edge38" class="edge">
<title>Node19&#45;&gt;Node6</title>
<path fill="none" stroke="midnightblue" d="M717.9,-171.47C742.18,-148.65 809.88,-88.26 877.5,-57 913.66,-40.28 956.64,-29.33 992.56,-22.36"/>
<polygon fill="midnightblue" stroke="midnightblue" points="993.31,-25.79 1002.49,-20.51 992.02,-18.9 993.31,-25.79"/>
</g>
<!-- Node19&#45;&gt;Node9 -->
<g id="edge37" class="edge">
<title>Node19&#45;&gt;Node9</title>
<path fill="none" stroke="midnightblue" d="M724.33,-171.36C749.73,-157.08 801.48,-129.51 848.5,-114 918.15,-91.03 1003.59,-77.96 1048.85,-72.16"/>
<polygon fill="midnightblue" stroke="midnightblue" points="1049.44,-75.61 1058.93,-70.9 1048.57,-68.67 1049.44,-75.61"/>
</g>
<!-- Node19&#45;&gt;Node11 -->
<g id="edge39" class="edge">
<title>Node19&#45;&gt;Node11</title>
<path fill="none" stroke="midnightblue" d="M741.85,-171.42C776.31,-162.04 830.22,-147.36 867.78,-137.13"/>
<polygon fill="midnightblue" stroke="midnightblue" points="868.7,-140.51 877.43,-134.5 866.86,-133.75 868.7,-140.51"/>
</g>
<!-- Node20&#45;&gt;Node6 -->
<g id="edge42" class="edge">
<title>Node20&#45;&gt;Node6</title>
<path fill="none" stroke="midnightblue" d="M884.28,-171.38C864.58,-159.07 835.52,-136.12 848.5,-114 879.48,-61.19 946.25,-35.29 997.96,-22.77"/>
<polygon fill="midnightblue" stroke="midnightblue" points="998.8,-26.17 1007.76,-20.51 997.23,-19.35 998.8,-26.17"/>
</g>
<!-- Node20&#45;&gt;Node7 -->
<g id="edge43" class="edge">
<title>Node20&#45;&gt;Node7</title>
<path fill="none" stroke="midnightblue" d="M946.66,-172.2C949.65,-171.76 952.61,-171.36 955.5,-171 1135.36,-148.71 1346.95,-135.75 1465,-129.7"/>
<polygon fill="midnightblue" stroke="midnightblue" points="1465.27,-133.2 1475.08,-129.19 1464.92,-126.2 1465.27,-133.2"/>
</g>
<!-- Node20&#45;&gt;Node9 -->
<g id="edge41" class="edge">
<title>Node20&#45;&gt;Node9</title>
<path fill="none" stroke="midnightblue" d="M915.23,-171.33C946.42,-151.93 1019.36,-106.54 1057.04,-83.09"/>
<polygon fill="midnightblue" stroke="midnightblue" points="1059.18,-85.89 1065.82,-77.63 1055.48,-79.95 1059.18,-85.89"/>
</g>
<!-- Node20&#45;&gt;Node11 -->
<g id="edge44" class="edge">
<title>Node20&#45;&gt;Node11</title>
<path fill="none" stroke="midnightblue" d="M902.15,-171.42C903.46,-164.22 905.34,-153.9 906.98,-144.86"/>
<polygon fill="midnightblue" stroke="midnightblue" points="910.47,-145.24 908.81,-134.78 903.58,-143.99 910.47,-145.24"/>
</g>
<!-- Node21&#45;&gt;Node4 -->
<g id="edge48" class="edge">
<title>Node21&#45;&gt;Node4</title>
<path fill="none" stroke="midnightblue" d="M1074.1,-171.97C1076.94,-171.62 1079.75,-171.29 1082.5,-171 1332.25,-144.25 1404,-200.47 1646.5,-135 1688.01,-123.79 1731.8,-99.02 1757.33,-83.08"/>
<polygon fill="midnightblue" stroke="midnightblue" points="1759.32,-85.97 1765.88,-77.65 1755.56,-80.06 1759.32,-85.97"/>
</g>
<!-- Node21&#45;&gt;Node6 -->
<g id="edge47" class="edge">
<title>Node21&#45;&gt;Node6</title>
<path fill="none" stroke="midnightblue" d="M1021.26,-171.39C1025.34,-150.78 1036.14,-99.06 1049.5,-57 1052.35,-48.01 1056.12,-38.25 1059.47,-30.09"/>
<polygon fill="midnightblue" stroke="midnightblue" points="1062.74,-31.35 1063.39,-20.77 1056.28,-28.63 1062.74,-31.35"/>
</g>
<!-- Node21&#45;&gt;Node9 -->
<g id="edge46" class="edge">
<title>Node21&#45;&gt;Node9</title>
<path fill="none" stroke="midnightblue" d="M1024.49,-171.33C1034.54,-152.88 1057.39,-110.92 1070.59,-86.69"/>
<polygon fill="midnightblue" stroke="midnightblue" points="1073.73,-88.25 1075.44,-77.79 1067.58,-84.9 1073.73,-88.25"/>
</g>
<!-- Node21&#45;&gt;Node11 -->
<g id="edge49" class="edge">
<title>Node21&#45;&gt;Node11</title>
<path fill="none" stroke="midnightblue" d="M1001.5,-171.42C984.14,-162.66 957.65,-149.29 937.71,-139.23"/>
<polygon fill="midnightblue" stroke="midnightblue" points="939.03,-135.98 928.52,-134.6 935.88,-142.23 939.03,-135.98"/>
</g>
<!-- Node23&#45;&gt;Node6 -->
<g id="edge52" class="edge">
<title>Node23&#45;&gt;Node6</title>
<path fill="none" stroke="midnightblue" d="M1363.67,-171.41C1312.08,-143.56 1155.89,-59.22 1093.57,-25.58"/>
<polygon fill="midnightblue" stroke="midnightblue" points="1094.87,-22.3 1084.41,-20.63 1091.55,-28.46 1094.87,-22.3"/>
</g>
<!-- Node23&#45;&gt;Node9 -->
<g id="edge51" class="edge">
<title>Node23&#45;&gt;Node9</title>
<path fill="none" stroke="midnightblue" d="M1350.56,-171.43C1322.61,-162.75 1279.88,-148.97 1243.5,-135 1221.76,-126.65 1216.99,-122.95 1195.5,-114 1167.23,-102.23 1134.76,-89.45 1111.55,-80.44"/>
<polygon fill="midnightblue" stroke="midnightblue" points="1112.8,-77.17 1102.21,-76.82 1110.27,-83.7 1112.8,-77.17"/>
</g>
<!-- Node23&#45;&gt;Node11 -->
<g id="edge53" class="edge">
<title>Node23&#45;&gt;Node11</title>
<path fill="none" stroke="midnightblue" d="M1329.46,-172.25C1326.43,-171.82 1323.42,-171.39 1320.5,-171 1197.98,-154.51 1054.27,-139.57 973.66,-131.59"/>
<polygon fill="midnightblue" stroke="midnightblue" points="973.96,-128.1 963.67,-130.6 973.28,-135.07 973.96,-128.1"/>
</g>
<!-- Node24&#45;&gt;Node6 -->
<g id="edge56" class="edge">
<title>Node24&#45;&gt;Node6</title>
<path fill="none" stroke="midnightblue" d="M462,-171.3C458.8,-148.07 454.09,-86.81 487.5,-57 524.3,-24.16 842.55,-14.95 991.37,-12.42"/>
<polygon fill="midnightblue" stroke="midnightblue" points="991.85,-15.92 1001.79,-12.25 991.73,-8.92 991.85,-15.92"/>
</g>
<!-- Node24&#45;&gt;Node9 -->
<g id="edge55" class="edge">
<title>Node24&#45;&gt;Node9</title>
<path fill="none" stroke="midnightblue" d="M492.69,-171.43C539.33,-157.25 633.76,-129.81 715.5,-114 837.59,-90.39 985.14,-76.37 1048.77,-71.01"/>
<polygon fill="midnightblue" stroke="midnightblue" points="1049.27,-74.48 1058.95,-70.17 1048.69,-67.51 1049.27,-74.48"/>
</g>
<!-- Node24&#45;&gt;Node11 -->
<g id="edge57" class="edge">
<title>Node24&#45;&gt;Node11</title>
<path fill="none" stroke="midnightblue" d="M516.25,-172.29C519.37,-171.84 522.48,-171.41 525.5,-171 638.56,-155.66 770.71,-140.68 847.09,-132.32"/>
<polygon fill="midnightblue" stroke="midnightblue" points="847.93,-135.75 857.49,-131.18 847.17,-128.79 847.93,-135.75"/>
</g>
<!-- Node25&#45;&gt;Node6 -->
<g id="edge60" class="edge">
<title>Node25&#45;&gt;Node6</title>
<path fill="none" stroke="midnightblue" d="M1502.02,-234.49C1544.41,-224.77 1605.69,-208.45 1623.5,-192 1668.21,-150.7 1687.82,-101.69 1646.5,-57 1613,-20.77 1292.19,-13.34 1143.04,-11.85"/>
<polygon fill="midnightblue" stroke="midnightblue" points="1143.07,-8.35 1133.04,-11.76 1143.01,-15.35 1143.07,-8.35"/>
</g>
<!-- Node25&#45;&gt;Node7 -->
<g id="edge61" class="edge">
<title>Node25&#45;&gt;Node7</title>
<path fill="none" stroke="midnightblue" d="M1502.11,-234.43C1541.25,-225.13 1595.01,-209.57 1607.5,-192 1620.44,-173.8 1599.53,-153.52 1580.7,-140.19"/>
<polygon fill="midnightblue" stroke="midnightblue" points="1582.59,-137.24 1572.33,-134.59 1578.7,-143.06 1582.59,-137.24"/>
</g>
<!-- Node25&#45;&gt;Node9 -->
<g id="edge59" class="edge">
<title>Node25&#45;&gt;Node9</title>
<path fill="none" stroke="midnightblue" d="M1459.93,-234.45C1460.15,-219.07 1458.19,-187.89 1440.5,-171 1384.95,-117.97 1343.44,-161.86 1271.5,-135 1253.42,-128.25 1251.29,-121.46 1233.5,-114 1192.74,-96.91 1143.39,-83.46 1111.97,-75.74"/>
<polygon fill="midnightblue" stroke="midnightblue" points="1112.58,-72.29 1102.04,-73.35 1110.94,-79.09 1112.58,-72.29"/>
</g>
<!-- Node25&#45;&gt;Node26 -->
<g id="edge62" class="edge">
<title>Node25&#45;&gt;Node26</title>
<path fill="none" stroke="midnightblue" d="M1471.89,-234.5C1485.29,-224.77 1506.87,-209.1 1522.84,-197.5"/>
<polygon fill="midnightblue" stroke="midnightblue" points="1525.02,-200.25 1531.05,-191.54 1520.9,-194.58 1525.02,-200.25"/>
</g>
<!-- Node26&#45;&gt;Node4 -->
<g id="edge66" class="edge">
<title>Node26&#45;&gt;Node4</title>
<path fill="none" stroke="midnightblue" d="M1599.11,-174.09C1634.89,-168.07 1681.3,-156.6 1717.5,-135 1738.15,-122.67 1756.18,-101.46 1767.4,-86.31"/>
<polygon fill="midnightblue" stroke="midnightblue" points="1770.51,-87.97 1773.46,-77.79 1764.81,-83.91 1770.51,-87.97"/>
</g>
<!-- Node26&#45;&gt;Node6 -->
<g id="edge64" class="edge">
<title>Node26&#45;&gt;Node6</title>
<path fill="none" stroke="midnightblue" d="M1517.91,-171.41C1438.15,-143.1 1193.98,-56.41 1102.55,-23.94"/>
<polygon fill="midnightblue" stroke="midnightblue" points="1103.52,-20.58 1092.93,-20.53 1101.18,-27.17 1103.52,-20.58"/>
</g>
<!-- Node26&#45;&gt;Node7 -->
<g id="edge65" class="edge">
<title>Node26&#45;&gt;Node7</title>
<path fill="none" stroke="midnightblue" d="M1545.64,-171.42C1547.37,-164.14 1549.84,-153.67 1551.99,-144.57"/>
<polygon fill="midnightblue" stroke="midnightblue" points="1555.41,-145.32 1554.3,-134.78 1548.6,-143.71 1555.41,-145.32"/>
</g>
<!-- Node26&#45;&gt;Node9 -->
<g id="edge63" class="edge">
<title>Node26&#45;&gt;Node9</title>
<path fill="none" stroke="midnightblue" d="M1506.49,-171.45C1434.81,-153.91 1283.02,-116.78 1271.5,-114 1215.46,-100.48 1150.12,-84.97 1112.21,-75.99"/>
<polygon fill="midnightblue" stroke="midnightblue" points="1112.82,-72.54 1102.28,-73.64 1111.2,-79.35 1112.82,-72.54"/>
</g>
<!-- Node26&#45;&gt;Node11 -->
<g id="edge67" class="edge">
<title>Node26&#45;&gt;Node11</title>
<path fill="none" stroke="midnightblue" d="M1487.91,-175.31C1472.55,-173.89 1455.88,-172.37 1440.5,-171 1271.92,-155.99 1073.09,-139.15 973.71,-130.8"/>
<polygon fill="midnightblue" stroke="midnightblue" points="973.8,-127.29 963.54,-129.94 973.21,-134.27 973.8,-127.29"/>
</g>
<!-- Node27&#45;&gt;Node6 -->
<g id="edge71" class="edge">
<title>Node27&#45;&gt;Node6</title>
<path fill="none" stroke="midnightblue" d="M603.49,-171.45C628.06,-158.43 674.98,-133.82 715.5,-114 769.62,-87.52 781.21,-75.67 838.5,-57 888.48,-40.71 946.59,-29.25 991.77,-21.9"/>
<polygon fill="midnightblue" stroke="midnightblue" points="992.46,-25.34 1001.79,-20.31 991.36,-18.42 992.46,-25.34"/>
</g>
<!-- Node27&#45;&gt;Node9 -->
<g id="edge70" class="edge">
<title>Node27&#45;&gt;Node9</title>
<path fill="none" stroke="midnightblue" d="M610.69,-171.39C648.98,-157.27 726.12,-130.06 793.5,-114 884.86,-92.22 995.13,-78.05 1048.48,-71.95"/>
<polygon fill="midnightblue" stroke="midnightblue" points="1049.13,-75.4 1058.67,-70.8 1048.34,-68.44 1049.13,-75.4"/>
</g>
<!-- Node27&#45;&gt;Node11 -->
<g id="edge72" class="edge">
<title>Node27&#45;&gt;Node11</title>
<path fill="none" stroke="midnightblue" d="M638.55,-171.66C695.49,-162 786.73,-146.51 847.62,-136.17"/>
<polygon fill="midnightblue" stroke="midnightblue" points="848.22,-139.62 857.49,-134.5 847.05,-132.72 848.22,-139.62"/>
</g>
<!-- Node28&#45;&gt;Node6 -->
<g id="edge76" class="edge">
<title>Node28&#45;&gt;Node6</title>
<path fill="none" stroke="midnightblue" d="M215.13,-171.18C248.54,-147.12 342.82,-83 432.5,-57 535.45,-27.15 846.95,-16.42 991.85,-12.96"/>
<polygon fill="midnightblue" stroke="midnightblue" points="992.08,-16.46 1001.99,-12.73 991.91,-9.46 992.08,-16.46"/>
</g>
<!-- Node28&#45;&gt;Node9 -->
<g id="edge75" class="edge">
<title>Node28&#45;&gt;Node9</title>
<path fill="none" stroke="midnightblue" d="M250.44,-171.45C296.46,-162.64 367.88,-148.61 429.5,-135 468.34,-126.42 477.22,-120.29 516.5,-114 717.43,-81.85 962.45,-71.94 1048.66,-69.33"/>
<polygon fill="midnightblue" stroke="midnightblue" points="1048.94,-72.82 1058.84,-69.03 1048.74,-65.82 1048.94,-72.82"/>
</g>
<!-- Node28&#45;&gt;Node11 -->
<g id="edge77" class="edge">
<title>Node28&#45;&gt;Node11</title>
<path fill="none" stroke="midnightblue" d="M267.85,-171.91C270.77,-171.59 273.66,-171.28 276.5,-171 484.93,-150.16 732.85,-135.21 847.09,-128.87"/>
<polygon fill="midnightblue" stroke="midnightblue" points="847.6,-132.35 857.39,-128.3 847.22,-125.36 847.6,-132.35"/>
</g>
<!-- Node29&#45;&gt;Node4 -->
<g id="edge81" class="edge">
<title>Node29&#45;&gt;Node4</title>
<path fill="none" stroke="midnightblue" d="M1857.54,-171.33C1843.41,-152.71 1811.13,-110.17 1792.82,-86.05"/>
<polygon fill="midnightblue" stroke="midnightblue" points="1795.38,-83.64 1786.55,-77.79 1789.81,-87.87 1795.38,-83.64"/>
</g>
<!-- Node29&#45;&gt;Node6 -->
<g id="edge80" class="edge">
<title>Node29&#45;&gt;Node6</title>
<path fill="none" stroke="midnightblue" d="M1864.95,-171.48C1865.58,-148.15 1863.65,-85.62 1827.5,-57 1774.74,-15.22 1324.97,-11.12 1143.22,-11.19"/>
<polygon fill="midnightblue" stroke="midnightblue" points="1143.21,-7.69 1133.21,-11.2 1143.21,-14.69 1143.21,-7.69"/>
</g>
<!-- Node29&#45;&gt;Node9 -->
<g id="edge79" class="edge">
<title>Node29&#45;&gt;Node9</title>
<path fill="none" stroke="midnightblue" d="M1811.76,-172.25C1808.63,-171.81 1805.52,-171.39 1802.5,-171 1653.57,-151.62 1613.89,-163.87 1466.5,-135 1433.37,-128.51 1426.5,-121.11 1393.5,-114 1291.88,-92.1 1169.4,-77.71 1112.48,-71.7"/>
<polygon fill="midnightblue" stroke="midnightblue" points="1112.62,-68.19 1102.31,-70.64 1111.89,-75.16 1112.62,-68.19"/>
</g>
<!-- Node29&#45;&gt;Node11 -->
<g id="edge82" class="edge">
<title>Node29&#45;&gt;Node11</title>
<path fill="none" stroke="midnightblue" d="M1811.78,-172.05C1808.64,-171.66 1805.53,-171.31 1802.5,-171 1492.73,-139.45 1120.09,-129.4 973.81,-126.53"/>
<polygon fill="midnightblue" stroke="midnightblue" points="973.74,-123.03 963.68,-126.34 973.61,-130.03 973.74,-123.03"/>
</g>
<!-- Node30&#45;&gt;Node6 -->
<g id="edge85" class="edge">
<title>Node30&#45;&gt;Node6</title>
<path fill="none" stroke="midnightblue" d="M345.66,-171.19C362.18,-147.14 410.17,-83.03 468.5,-57 560.08,-16.13 852.1,-10.99 991.73,-10.96"/>
<polygon fill="midnightblue" stroke="midnightblue" points="991.92,-14.46 1001.92,-10.97 991.92,-7.46 991.92,-14.46"/>
</g>
<!-- Node30&#45;&gt;Node9 -->
<g id="edge84" class="edge">
<title>Node30&#45;&gt;Node9</title>
<path fill="none" stroke="midnightblue" d="M371.78,-171.41C423.89,-157.07 529.96,-129.26 621.5,-114 780.73,-87.45 973.8,-74.5 1048.68,-70.2"/>
<polygon fill="midnightblue" stroke="midnightblue" points="1049.07,-73.68 1058.86,-69.62 1048.67,-66.69 1049.07,-73.68"/>
</g>
<!-- Node30&#45;&gt;Node11 -->
<g id="edge86" class="edge">
<title>Node30&#45;&gt;Node11</title>
<path fill="none" stroke="midnightblue" d="M393.24,-172.05C396.03,-171.68 398.8,-171.33 401.5,-171 561.47,-151.61 750.67,-136.83 847.09,-129.88"/>
<polygon fill="midnightblue" stroke="midnightblue" points="847.53,-133.36 857.26,-129.15 847.03,-126.38 847.53,-133.36"/>
</g>
<!-- Node32&#45;&gt;Node4 -->
<g id="edge90" class="edge">
<title>Node32&#45;&gt;Node4</title>
<path fill="none" stroke="midnightblue" d="M1746.44,-171.33C1752.32,-153.04 1765.62,-111.67 1773.44,-87.34"/>
<polygon fill="midnightblue" stroke="midnightblue" points="1776.78,-88.38 1776.51,-77.79 1770.12,-86.24 1776.78,-88.38"/>
</g>
<!-- Node32&#45;&gt;Node6 -->
<g id="edge89" class="edge">
<title>Node32&#45;&gt;Node6</title>
<path fill="none" stroke="midnightblue" d="M1755.04,-171.42C1781.58,-149.49 1842.19,-92.83 1808.5,-57 1785.95,-33.03 1327.63,-18.34 1143.3,-13.39"/>
<polygon fill="midnightblue" stroke="midnightblue" points="1143.23,-9.88 1133.14,-13.12 1143.04,-16.88 1143.23,-9.88"/>
</g>
<!-- Node32&#45;&gt;Node9 -->
<g id="edge88" class="edge">
<title>Node32&#45;&gt;Node9</title>
<path fill="none" stroke="midnightblue" d="M1693.45,-173.88C1632.08,-165.6 1524.92,-150.59 1433.5,-135 1385.29,-126.78 1373.54,-123.13 1325.5,-114 1249,-99.46 1158.97,-82.88 1112.24,-74.31"/>
<polygon fill="midnightblue" stroke="midnightblue" points="1112.61,-70.82 1102.14,-72.46 1111.35,-77.7 1112.61,-70.82"/>
</g>
<!-- Node32&#45;&gt;Node11 -->
<g id="edge91" class="edge">
<title>Node32&#45;&gt;Node11</title>
<path fill="none" stroke="midnightblue" d="M1693.44,-176.95C1667.75,-175.14 1635.95,-172.92 1607.5,-171 1374.14,-155.23 1096.76,-137.4 974.16,-129.56"/>
<polygon fill="midnightblue" stroke="midnightblue" points="974.05,-126.04 963.84,-128.9 973.6,-133.03 974.05,-126.04"/>
</g>
</g>
</svg>
