<?xml version="1.0" encoding="UTF-8" standalone="no"?>
<!DOCTYPE svg PUBLIC "-//W3C//DTD SVG 1.1//EN"
 "http://www.w3.org/Graphics/SVG/1.1/DTD/svg11.dtd">
<!-- Generated by graphviz version 3.0.0 (20220413.0242)
 -->
<!-- Title: libmirai/public/libmirai/Events/FriendRecallEvent.hpp Pages: 1 -->
<svg width="528pt" height="212pt"
 viewBox="0.00 0.00 528.28 212.00" xmlns="http://www.w3.org/2000/svg" xmlns:xlink="http://www.w3.org/1999/xlink">
<g id="graph0" class="graph" transform="scale(1 1) rotate(0) translate(4 208)">
<title>libmirai/public/libmirai/Events/FriendRecallEvent.hpp</title>
<!-- Node1 -->
<g id="node1" class="node">
<title>Node1</title>
<g id="a_node1"><a xlink:title=" ">
<polygon fill="#bfbfbf" stroke="black" points="66.78,-171.5 66.78,-203.5 229.78,-203.5 229.78,-171.5 66.78,-171.5"/>
<text text-anchor="start" x="74.78" y="-190.7" font-family="-apple-system, BlinkMacSystemFont, 'Segoe UI', Roboto, Oxygen, Ubuntu, Cantarell, 'Fira Sans', 'Droid Sans', 'Helvetica Neue', sans-serif" font-size="11.00">libmirai/public/libmirai</text>
<text text-anchor="middle" x="148.28" y="-178.7" font-family="-apple-system, BlinkMacSystemFont, 'Segoe UI', Roboto, Oxygen, Ubuntu, Cantarell, 'Fira Sans', 'Droid Sans', 'Helvetica Neue', sans-serif" font-size="11.00">/Events/FriendRecallEvent.hpp</text>
</a>
</g>
</g>
<!-- Node2 -->
<g id="node2" class="node">
<title>Node2</title>
<g id="a_node2"><a xlink:title=" ">
<polygon fill="none" stroke="#bfbfbf" points="18.28,-57.5 18.28,-77.5 60.28,-77.5 60.28,-57.5 18.28,-57.5"/>
<text text-anchor="middle" x="39.28" y="-64.7" font-family="-apple-system, BlinkMacSystemFont, 'Segoe UI', Roboto, Oxygen, Ubuntu, Cantarell, 'Fira Sans', 'Droid Sans', 'Helvetica Neue', sans-serif" font-size="11.00">ctime</text>
</a>
</g>
</g>
<!-- Node1&#45;&gt;Node2 -->
<g id="edge1" class="edge">
<title>Node1&#45;&gt;Node2</title>
<path fill="none" stroke="midnightblue" d="M107.61,-171.45C90.17,-163.13 70.93,-151.15 58.28,-135 47.64,-121.43 42.96,-102.16 40.9,-87.85"/>
<polygon fill="midnightblue" stroke="midnightblue" points="44.34,-87.19 39.74,-77.65 37.39,-87.98 44.34,-87.19"/>
</g>
<!-- Node3 -->
<g id="node3" class="node">
<title>Node3</title>
<g id="a_node3"><a xlink:title=" ">
<polygon fill="none" stroke="#bfbfbf" points="364.78,-57.5 364.78,-77.5 407.78,-77.5 407.78,-57.5 364.78,-57.5"/>
<text text-anchor="middle" x="386.28" y="-64.7" font-family="-apple-system, BlinkMacSystemFont, 'Segoe UI', Roboto, Oxygen, Ubuntu, Cantarell, 'Fira Sans', 'Droid Sans', 'Helvetica Neue', sans-serif" font-size="11.00">string</text>
</a>
</g>
</g>
<!-- Node1&#45;&gt;Node3 -->
<g id="edge2" class="edge">
<title>Node1&#45;&gt;Node3</title>
<path fill="none" stroke="midnightblue" d="M178.9,-171.32C225.69,-148.12 314.23,-104.22 358.95,-82.05"/>
<polygon fill="midnightblue" stroke="midnightblue" points="360.65,-85.11 368.06,-77.53 357.54,-78.84 360.65,-85.11"/>
</g>
<!-- Node4 -->
<g id="node4" class="node">
<title>Node4</title>
<g id="a_node4"><a xlink:title=" ">
<polygon fill="none" stroke="#bfbfbf" points="110.78,-0.5 110.78,-20.5 241.78,-20.5 241.78,-0.5 110.78,-0.5"/>
<text text-anchor="middle" x="176.28" y="-7.7" font-family="-apple-system, BlinkMacSystemFont, 'Segoe UI', Roboto, Oxygen, Ubuntu, Cantarell, 'Fira Sans', 'Droid Sans', 'Helvetica Neue', sans-serif" font-size="11.00">nlohmann/json_fwd.hpp</text>
</a>
</g>
</g>
<!-- Node1&#45;&gt;Node4 -->
<g id="edge3" class="edge">
<title>Node1&#45;&gt;Node4</title>
<path fill="none" stroke="midnightblue" d="M108.83,-171.32C56.13,-148.78 -26.67,-104.04 9.28,-57 21.17,-41.43 64.31,-29.91 103.75,-22.36"/>
<polygon fill="midnightblue" stroke="midnightblue" points="104.48,-25.78 113.68,-20.53 103.21,-18.9 104.48,-25.78"/>
</g>
<!-- Node5 -->
<g id="node5" class="node">
<title>Node5</title>
<g id="a_node5"><a xlink:href="BasicTypes_8hpp.html" target="_top" xlink:title=" ">
<polygon fill="none" stroke="black" points="67.28,-114.5 67.28,-134.5 229.28,-134.5 229.28,-114.5 67.28,-114.5"/>
<text text-anchor="middle" x="148.28" y="-121.7" font-family="-apple-system, BlinkMacSystemFont, 'Segoe UI', Roboto, Oxygen, Ubuntu, Cantarell, 'Fira Sans', 'Droid Sans', 'Helvetica Neue', sans-serif" font-size="11.00">libmirai/Types/BasicTypes.hpp</text>
</a>
</g>
</g>
<!-- Node1&#45;&gt;Node5 -->
<g id="edge4" class="edge">
<title>Node1&#45;&gt;Node5</title>
<path fill="none" stroke="midnightblue" d="M148.28,-171.42C148.28,-163.38 148.28,-153.39 148.28,-144.78"/>
<polygon fill="midnightblue" stroke="midnightblue" points="151.78,-144.55 148.28,-134.55 144.78,-144.55 151.78,-144.55"/>
</g>
<!-- Node8 -->
<g id="node8" class="node">
<title>Node8</title>
<g id="a_node8"><a xlink:href="EventBase_8hpp.html" target="_top" xlink:title=" ">
<polygon fill="none" stroke="black" points="366.78,-114.5 366.78,-134.5 455.78,-134.5 455.78,-114.5 366.78,-114.5"/>
<text text-anchor="middle" x="411.28" y="-121.7" font-family="-apple-system, BlinkMacSystemFont, 'Segoe UI', Roboto, Oxygen, Ubuntu, Cantarell, 'Fira Sans', 'Droid Sans', 'Helvetica Neue', sans-serif" font-size="11.00">EventBase.hpp</text>
</a>
</g>
</g>
<!-- Node1&#45;&gt;Node8 -->
<g id="edge11" class="edge">
<title>Node1&#45;&gt;Node8</title>
<path fill="none" stroke="midnightblue" d="M212.95,-171.5C259.13,-160.79 320.3,-146.6 362.42,-136.83"/>
<polygon fill="midnightblue" stroke="midnightblue" points="363.22,-140.24 372.17,-134.57 361.64,-133.42 363.22,-140.24"/>
</g>
<!-- Node5&#45;&gt;Node2 -->
<g id="edge6" class="edge">
<title>Node5&#45;&gt;Node2</title>
<path fill="none" stroke="midnightblue" d="M130.28,-114.42C112.92,-105.66 86.42,-92.29 66.49,-82.23"/>
<polygon fill="midnightblue" stroke="midnightblue" points="67.81,-78.98 57.3,-77.6 64.65,-85.23 67.81,-78.98"/>
</g>
<!-- Node5&#45;&gt;Node3 -->
<g id="edge7" class="edge">
<title>Node5&#45;&gt;Node3</title>
<path fill="none" stroke="midnightblue" d="M194.57,-114.44C234.55,-106.37 294.05,-93.76 354.89,-77.94"/>
<polygon fill="midnightblue" stroke="midnightblue" points="355.88,-81.29 364.66,-75.37 354.1,-74.52 355.88,-81.29"/>
</g>
<!-- Node5&#45;&gt;Node4 -->
<g id="edge8" class="edge">
<title>Node5&#45;&gt;Node4</title>
<path fill="none" stroke="midnightblue" d="M135.72,-114.45C119.85,-101.84 95.89,-78.14 107.28,-57 114.85,-42.94 128.88,-32.5 142.32,-25.2"/>
<polygon fill="midnightblue" stroke="midnightblue" points="144.07,-28.24 151.45,-20.63 140.94,-21.98 144.07,-28.24"/>
</g>
<!-- Node6 -->
<g id="node6" class="node">
<title>Node6</title>
<g id="a_node6"><a xlink:title=" ">
<polygon fill="none" stroke="#bfbfbf" points="116.28,-57.5 116.28,-77.5 166.28,-77.5 166.28,-57.5 116.28,-57.5"/>
<text text-anchor="middle" x="141.28" y="-64.7" font-family="-apple-system, BlinkMacSystemFont, 'Segoe UI', Roboto, Oxygen, Ubuntu, Cantarell, 'Fira Sans', 'Droid Sans', 'Helvetica Neue', sans-serif" font-size="11.00">chrono</text>
</a>
</g>
</g>
<!-- Node5&#45;&gt;Node6 -->
<g id="edge5" class="edge">
<title>Node5&#45;&gt;Node6</title>
<path fill="none" stroke="midnightblue" d="M147.12,-114.42C146.2,-107.22 144.89,-96.9 143.74,-87.86"/>
<polygon fill="midnightblue" stroke="midnightblue" points="147.19,-87.26 142.46,-77.78 140.25,-88.14 147.19,-87.26"/>
</g>
<!-- Node7 -->
<g id="node7" class="node">
<title>Node7</title>
<g id="a_node7"><a xlink:href="Serializable_8hpp.html" target="_top" xlink:title=" ">
<polygon fill="none" stroke="black" points="184.28,-57.5 184.28,-77.5 346.28,-77.5 346.28,-57.5 184.28,-57.5"/>
<text text-anchor="middle" x="265.28" y="-64.7" font-family="-apple-system, BlinkMacSystemFont, 'Segoe UI', Roboto, Oxygen, Ubuntu, Cantarell, 'Fira Sans', 'Droid Sans', 'Helvetica Neue', sans-serif" font-size="11.00">libmirai/Types/Serializable.hpp</text>
</a>
</g>
</g>
<!-- Node5&#45;&gt;Node7 -->
<g id="edge9" class="edge">
<title>Node5&#45;&gt;Node7</title>
<path fill="none" stroke="midnightblue" d="M167.6,-114.42C186.39,-105.58 215.18,-92.05 236.64,-81.96"/>
<polygon fill="midnightblue" stroke="midnightblue" points="238.37,-85.02 245.93,-77.6 235.39,-78.68 238.37,-85.02"/>
</g>
<!-- Node7&#45;&gt;Node4 -->
<g id="edge10" class="edge">
<title>Node7&#45;&gt;Node4</title>
<path fill="none" stroke="midnightblue" d="M250.58,-57.42C236.79,-48.9 215.95,-36.02 199.84,-26.06"/>
<polygon fill="midnightblue" stroke="midnightblue" points="201.34,-22.88 190.99,-20.6 197.66,-28.83 201.34,-22.88"/>
</g>
<!-- Node8&#45;&gt;Node3 -->
<g id="edge13" class="edge">
<title>Node8&#45;&gt;Node3</title>
<path fill="none" stroke="midnightblue" d="M407.15,-114.42C403.77,-106.98 398.87,-96.21 394.67,-86.97"/>
<polygon fill="midnightblue" stroke="midnightblue" points="397.82,-85.43 390.49,-77.78 391.45,-88.33 397.82,-85.43"/>
</g>
<!-- Node8&#45;&gt;Node4 -->
<g id="edge14" class="edge">
<title>Node8&#45;&gt;Node4</title>
<path fill="none" stroke="midnightblue" d="M415.66,-114.11C421.52,-99.99 429.72,-73.23 416.28,-57 395.65,-32.09 314.42,-20.71 252.12,-15.58"/>
<polygon fill="midnightblue" stroke="midnightblue" points="252.14,-12.08 241.9,-14.78 251.6,-19.05 252.14,-12.08"/>
</g>
<!-- Node9 -->
<g id="node9" class="node">
<title>Node9</title>
<g id="a_node9"><a xlink:title=" ">
<polygon fill="none" stroke="#bfbfbf" points="464.28,-57.5 464.28,-77.5 520.28,-77.5 520.28,-57.5 464.28,-57.5"/>
<text text-anchor="middle" x="492.28" y="-64.7" font-family="-apple-system, BlinkMacSystemFont, 'Segoe UI', Roboto, Oxygen, Ubuntu, Cantarell, 'Fira Sans', 'Droid Sans', 'Helvetica Neue', sans-serif" font-size="11.00">memory</text>
</a>
</g>
</g>
<!-- Node8&#45;&gt;Node9 -->
<g id="edge12" class="edge">
<title>Node8&#45;&gt;Node9</title>
<path fill="none" stroke="midnightblue" d="M424.65,-114.42C437.08,-105.98 455.82,-93.26 470.42,-83.34"/>
<polygon fill="midnightblue" stroke="midnightblue" points="472.57,-86.11 478.88,-77.6 468.64,-80.32 472.57,-86.11"/>
</g>
</g>
</svg>
