<?xml version="1.0" encoding="UTF-8" standalone="no"?>
<!DOCTYPE svg PUBLIC "-//W3C//DTD SVG 1.1//EN"
 "http://www.w3.org/Graphics/SVG/1.1/DTD/svg11.dtd">
<!-- Generated by graphviz version 2.43.0 (0)
 -->
<!-- Title: libmirai/public/libmirai/Events/FriendMessageEvent.hpp Pages: 1 -->
<svg width="2121pt" height="350pt"
 viewBox="0.00 0.00 2120.80 350.00" xmlns="http://www.w3.org/2000/svg" xmlns:xlink="http://www.w3.org/1999/xlink">
<g id="graph0" class="graph" transform="scale(1 1) rotate(0) translate(4 346)">
<title>libmirai/public/libmirai/Events/FriendMessageEvent.hpp</title>
<!-- Node1 -->
<g id="node1" class="node">
<title>Node1</title>
<g id="a_node1"><a xlink:title=" ">
<polygon fill="#bfbfbf" stroke="black" points="1094.11,-309.5 1094.11,-341.5 1293.11,-341.5 1293.11,-309.5 1094.11,-309.5"/>
<text text-anchor="start" x="1102.11" y="-328.7" font-family="-apple-system,BlinkMacSystemFont,'SegoeUI',Roboto,Oxygen,Ubuntu,Cantarell,'FiraSans','DroidSans','HelveticaNeue',sans-serif" font-size="11.00">libmirai/public/libmirai</text>
<text text-anchor="middle" x="1193.61" y="-316.7" font-family="-apple-system,BlinkMacSystemFont,'SegoeUI',Roboto,Oxygen,Ubuntu,Cantarell,'FiraSans','DroidSans','HelveticaNeue',sans-serif" font-size="11.00">/Events/FriendMessageEvent.hpp</text>
</a>
</g>
</g>
<!-- Node2 -->
<g id="node2" class="node">
<title>Node2</title>
<g id="a_node2"><a xlink:title=" ">
<polygon fill="none" stroke="#bfbfbf" points="999.61,-0.5 999.61,-20.5 1047.61,-20.5 1047.61,-0.5 999.61,-0.5"/>
<text text-anchor="middle" x="1023.61" y="-7.7" font-family="-apple-system,BlinkMacSystemFont,'SegoeUI',Roboto,Oxygen,Ubuntu,Cantarell,'FiraSans','DroidSans','HelveticaNeue',sans-serif" font-size="11.00">string</text>
</a>
</g>
</g>
<!-- Node1&#45;&gt;Node2 -->
<g id="edge1" class="edge">
<title>Node1&#45;&gt;Node2</title>
<path fill="none" stroke="midnightblue" d="M1093.75,-324.11C845.69,-320.68 213.2,-296.02 98.61,-135 48.95,-65.22 -105.86,-123.11 378.61,-57 610.71,-25.33 893,-15.06 989.43,-12.34"/>
<polygon fill="midnightblue" stroke="midnightblue" points="989.58,-15.84 999.48,-12.07 989.39,-8.84 989.58,-15.84"/>
</g>
<!-- Node3 -->
<g id="node3" class="node">
<title>Node3</title>
<g id="a_node3"><a xlink:title=" ">
<polygon fill="none" stroke="#bfbfbf" points="1230.61,-0.5 1230.61,-20.5 1376.61,-20.5 1376.61,-0.5 1230.61,-0.5"/>
<text text-anchor="middle" x="1303.61" y="-7.7" font-family="-apple-system,BlinkMacSystemFont,'SegoeUI',Roboto,Oxygen,Ubuntu,Cantarell,'FiraSans','DroidSans','HelveticaNeue',sans-serif" font-size="11.00">nlohmann/json_fwd.hpp</text>
</a>
</g>
</g>
<!-- Node1&#45;&gt;Node3 -->
<g id="edge2" class="edge">
<title>Node1&#45;&gt;Node3</title>
<path fill="none" stroke="midnightblue" d="M1293.19,-320.51C1453.58,-313.47 1761.96,-297.27 1868.61,-273 1969.53,-250.04 2085.61,-292 2085.61,-188.5 2085.61,-188.5 2085.61,-188.5 2085.61,-123.5 2085.61,-73.41 2041.69,-74.1 1994.61,-57 1885.14,-17.24 1545.58,-11.6 1386.9,-11.21"/>
<polygon fill="midnightblue" stroke="midnightblue" points="1386.72,-7.71 1376.72,-11.19 1386.71,-14.71 1386.72,-7.71"/>
</g>
<!-- Node4 -->
<g id="node4" class="node">
<title>Node4</title>
<g id="a_node4"><a xlink:href="MessageChain_8hpp.html" target="_top" xlink:title=" ">
<polygon fill="none" stroke="black" points="1109.61,-240.5 1109.61,-272.5 1277.61,-272.5 1277.61,-240.5 1109.61,-240.5"/>
<text text-anchor="start" x="1117.61" y="-259.7" font-family="-apple-system,BlinkMacSystemFont,'SegoeUI',Roboto,Oxygen,Ubuntu,Cantarell,'FiraSans','DroidSans','HelveticaNeue',sans-serif" font-size="11.00">libmirai/Messages/Message</text>
<text text-anchor="middle" x="1193.61" y="-247.7" font-family="-apple-system,BlinkMacSystemFont,'SegoeUI',Roboto,Oxygen,Ubuntu,Cantarell,'FiraSans','DroidSans','HelveticaNeue',sans-serif" font-size="11.00">Chain.hpp</text>
</a>
</g>
</g>
<!-- Node1&#45;&gt;Node4 -->
<g id="edge3" class="edge">
<title>Node1&#45;&gt;Node4</title>
<path fill="none" stroke="midnightblue" d="M1193.61,-309.3C1193.61,-301.5 1193.61,-291.8 1193.61,-282.91"/>
<polygon fill="midnightblue" stroke="midnightblue" points="1197.11,-282.64 1193.61,-272.64 1190.11,-282.64 1197.11,-282.64"/>
</g>
<!-- Node19 -->
<g id="node18" class="node">
<title>Node19</title>
<g id="a_node18"><a xlink:href="BasicTypes_8hpp.html" target="_top" xlink:title=" ">
<polygon fill="none" stroke="red" points="1771.11,-57.5 1771.11,-77.5 1952.11,-77.5 1952.11,-57.5 1771.11,-57.5"/>
<text text-anchor="middle" x="1861.61" y="-64.7" font-family="-apple-system,BlinkMacSystemFont,'SegoeUI',Roboto,Oxygen,Ubuntu,Cantarell,'FiraSans','DroidSans','HelveticaNeue',sans-serif" font-size="11.00">libmirai/Types/BasicTypes.hpp</text>
</a>
</g>
</g>
<!-- Node1&#45;&gt;Node19 -->
<g id="edge78" class="edge">
<title>Node1&#45;&gt;Node19</title>
<path fill="none" stroke="midnightblue" d="M1293.33,-324C1479.56,-320.71 1868.96,-301.98 1952.61,-204 1979.81,-172.14 1951.63,-146.01 1924.61,-114 1914.18,-101.64 1899.7,-90.87 1887.25,-82.92"/>
<polygon fill="midnightblue" stroke="midnightblue" points="1888.99,-79.89 1878.63,-77.65 1885.33,-85.86 1888.99,-79.89"/>
</g>
<!-- Node33 -->
<g id="node29" class="node">
<title>Node33</title>
<g id="a_node29"><a xlink:href="EventBase_8hpp.html" target="_top" xlink:title=" ">
<polygon fill="none" stroke="black" points="13.11,-57.5 13.11,-77.5 112.11,-77.5 112.11,-57.5 13.11,-57.5"/>
<text text-anchor="middle" x="62.61" y="-64.7" font-family="-apple-system,BlinkMacSystemFont,'SegoeUI',Roboto,Oxygen,Ubuntu,Cantarell,'FiraSans','DroidSans','HelveticaNeue',sans-serif" font-size="11.00">EventBase.hpp</text>
</a>
</g>
</g>
<!-- Node1&#45;&gt;Node33 -->
<g id="edge79" class="edge">
<title>Node1&#45;&gt;Node33</title>
<path fill="none" stroke="midnightblue" d="M1093.74,-323.61C824.44,-320.73 101.11,-309.62 65.61,-273 16.71,-222.56 41.6,-127.93 55.44,-87.55"/>
<polygon fill="midnightblue" stroke="midnightblue" points="58.82,-88.48 58.9,-77.88 52.23,-86.12 58.82,-88.48"/>
</g>
<!-- Node4&#45;&gt;Node3 -->
<g id="edge12" class="edge">
<title>Node4&#45;&gt;Node3</title>
<path fill="none" stroke="midnightblue" d="M1277.76,-255.4C1464.79,-254.39 1902.53,-247.37 1952.61,-204 1995.9,-166.51 1973.58,-134.95 1979.61,-78 1980.59,-68.72 1985.98,-63.82 1979.61,-57 1939.91,-14.54 1558.41,-10.52 1386.67,-10.9"/>
<polygon fill="midnightblue" stroke="midnightblue" points="1386.66,-7.4 1376.67,-10.92 1386.68,-14.4 1386.66,-7.4"/>
</g>
<!-- Node5 -->
<g id="node5" class="node">
<title>Node5</title>
<g id="a_node5"><a xlink:title=" ">
<polygon fill="none" stroke="#bfbfbf" points="1194.11,-177.5 1194.11,-197.5 1251.11,-197.5 1251.11,-177.5 1194.11,-177.5"/>
<text text-anchor="middle" x="1222.61" y="-184.7" font-family="-apple-system,BlinkMacSystemFont,'SegoeUI',Roboto,Oxygen,Ubuntu,Cantarell,'FiraSans','DroidSans','HelveticaNeue',sans-serif" font-size="11.00">cstddef</text>
</a>
</g>
</g>
<!-- Node4&#45;&gt;Node5 -->
<g id="edge4" class="edge">
<title>Node4&#45;&gt;Node5</title>
<path fill="none" stroke="midnightblue" d="M1200.19,-240.3C1204.45,-230.45 1210.03,-217.56 1214.55,-207.11"/>
<polygon fill="midnightblue" stroke="midnightblue" points="1217.88,-208.23 1218.64,-197.66 1211.46,-205.45 1217.88,-208.23"/>
</g>
<!-- Node6 -->
<g id="node6" class="node">
<title>Node6</title>
<g id="a_node6"><a xlink:title=" ">
<polygon fill="none" stroke="#bfbfbf" points="1969.11,-0.5 1969.11,-20.5 2016.11,-20.5 2016.11,-0.5 1969.11,-0.5"/>
<text text-anchor="middle" x="1992.61" y="-7.7" font-family="-apple-system,BlinkMacSystemFont,'SegoeUI',Roboto,Oxygen,Ubuntu,Cantarell,'FiraSans','DroidSans','HelveticaNeue',sans-serif" font-size="11.00">ctime</text>
</a>
</g>
</g>
<!-- Node4&#45;&gt;Node6 -->
<g id="edge5" class="edge">
<title>Node4&#45;&gt;Node6</title>
<path fill="none" stroke="midnightblue" d="M1277.66,-253.39C1467.01,-248.14 1915.37,-232.81 1977.61,-204 2054.66,-168.33 2146.45,-127.81 2099.61,-57 2083.43,-32.54 2051.17,-21.19 2026.28,-15.95"/>
<polygon fill="midnightblue" stroke="midnightblue" points="2026.6,-12.45 2016.13,-14.05 2025.32,-19.33 2026.6,-12.45"/>
</g>
<!-- Node7 -->
<g id="node7" class="node">
<title>Node7</title>
<g id="a_node7"><a xlink:title=" ">
<polygon fill="none" stroke="#bfbfbf" points="31.61,-0.5 31.61,-20.5 93.61,-20.5 93.61,-0.5 31.61,-0.5"/>
<text text-anchor="middle" x="62.61" y="-7.7" font-family="-apple-system,BlinkMacSystemFont,'SegoeUI',Roboto,Oxygen,Ubuntu,Cantarell,'FiraSans','DroidSans','HelveticaNeue',sans-serif" font-size="11.00">memory</text>
</a>
</g>
</g>
<!-- Node4&#45;&gt;Node7 -->
<g id="edge6" class="edge">
<title>Node4&#45;&gt;Node7</title>
<path fill="none" stroke="midnightblue" d="M1109.3,-253.62C917.13,-248.86 451.41,-234.47 297.61,-204 158.16,-176.37 73.65,-201.71 3.61,-78 -7.85,-57.76 14.63,-38.31 35.06,-25.72"/>
<polygon fill="midnightblue" stroke="midnightblue" points="36.98,-28.66 43.88,-20.61 33.47,-22.6 36.98,-28.66"/>
</g>
<!-- Node8 -->
<g id="node8" class="node">
<title>Node8</title>
<g id="a_node8"><a xlink:title=" ">
<polygon fill="none" stroke="#bfbfbf" points="1269.11,-177.5 1269.11,-197.5 1330.11,-197.5 1330.11,-177.5 1269.11,-177.5"/>
<text text-anchor="middle" x="1299.61" y="-184.7" font-family="-apple-system,BlinkMacSystemFont,'SegoeUI',Roboto,Oxygen,Ubuntu,Cantarell,'FiraSans','DroidSans','HelveticaNeue',sans-serif" font-size="11.00">optional</text>
</a>
</g>
</g>
<!-- Node4&#45;&gt;Node8 -->
<g id="edge7" class="edge">
<title>Node4&#45;&gt;Node8</title>
<path fill="none" stroke="midnightblue" d="M1217.4,-240.46C1235.17,-229.23 1259.33,-213.96 1276.85,-202.88"/>
<polygon fill="midnightblue" stroke="midnightblue" points="1278.76,-205.82 1285.34,-197.52 1275.02,-199.9 1278.76,-205.82"/>
</g>
<!-- Node9 -->
<g id="node9" class="node">
<title>Node9</title>
<g id="a_node9"><a xlink:title=" ">
<polygon fill="none" stroke="#bfbfbf" points="1103.11,-114.5 1103.11,-134.5 1174.11,-134.5 1174.11,-114.5 1103.11,-114.5"/>
<text text-anchor="middle" x="1138.61" y="-121.7" font-family="-apple-system,BlinkMacSystemFont,'SegoeUI',Roboto,Oxygen,Ubuntu,Cantarell,'FiraSans','DroidSans','HelveticaNeue',sans-serif" font-size="11.00">stdexcept</text>
</a>
</g>
</g>
<!-- Node4&#45;&gt;Node9 -->
<g id="edge8" class="edge">
<title>Node4&#45;&gt;Node9</title>
<path fill="none" stroke="midnightblue" d="M1109.53,-242.24C1066.87,-233.61 1021.39,-220.82 1008.61,-204 999.74,-192.32 1000.12,-182.96 1008.61,-171 1018.7,-156.77 1059.52,-143.98 1092.76,-135.61"/>
<polygon fill="midnightblue" stroke="midnightblue" points="1093.91,-138.94 1102.79,-133.16 1092.25,-132.14 1093.91,-138.94"/>
</g>
<!-- Node10 -->
<g id="node10" class="node">
<title>Node10</title>
<g id="a_node10"><a xlink:title=" ">
<polygon fill="none" stroke="#bfbfbf" points="1348.61,-177.5 1348.61,-197.5 1424.61,-197.5 1424.61,-177.5 1348.61,-177.5"/>
<text text-anchor="middle" x="1386.61" y="-184.7" font-family="-apple-system,BlinkMacSystemFont,'SegoeUI',Roboto,Oxygen,Ubuntu,Cantarell,'FiraSans','DroidSans','HelveticaNeue',sans-serif" font-size="11.00">type_traits</text>
</a>
</g>
</g>
<!-- Node4&#45;&gt;Node10 -->
<g id="edge9" class="edge">
<title>Node4&#45;&gt;Node10</title>
<path fill="none" stroke="midnightblue" d="M1236.92,-240.46C1271.37,-228.51 1318.96,-211.98 1351.16,-200.8"/>
<polygon fill="midnightblue" stroke="midnightblue" points="1352.33,-204.1 1360.63,-197.52 1350.04,-197.49 1352.33,-204.1"/>
</g>
<!-- Node11 -->
<g id="node11" class="node">
<title>Node11</title>
<g id="a_node11"><a xlink:title=" ">
<polygon fill="none" stroke="#bfbfbf" points="1442.61,-177.5 1442.61,-197.5 1490.61,-197.5 1490.61,-177.5 1442.61,-177.5"/>
<text text-anchor="middle" x="1466.61" y="-184.7" font-family="-apple-system,BlinkMacSystemFont,'SegoeUI',Roboto,Oxygen,Ubuntu,Cantarell,'FiraSans','DroidSans','HelveticaNeue',sans-serif" font-size="11.00">utility</text>
</a>
</g>
</g>
<!-- Node4&#45;&gt;Node11 -->
<g id="edge10" class="edge">
<title>Node4&#45;&gt;Node11</title>
<path fill="none" stroke="midnightblue" d="M1277.62,-242.32C1324.26,-233.8 1382.93,-221.09 1433.61,-204 1435.54,-203.35 1437.51,-202.61 1439.48,-201.83"/>
<polygon fill="midnightblue" stroke="midnightblue" points="1441.34,-204.84 1449.1,-197.63 1438.54,-198.42 1441.34,-204.84"/>
</g>
<!-- Node12 -->
<g id="node12" class="node">
<title>Node12</title>
<g id="a_node12"><a xlink:title=" ">
<polygon fill="none" stroke="#bfbfbf" points="1508.61,-177.5 1508.61,-197.5 1560.61,-197.5 1560.61,-177.5 1508.61,-177.5"/>
<text text-anchor="middle" x="1534.61" y="-184.7" font-family="-apple-system,BlinkMacSystemFont,'SegoeUI',Roboto,Oxygen,Ubuntu,Cantarell,'FiraSans','DroidSans','HelveticaNeue',sans-serif" font-size="11.00">vector</text>
</a>
</g>
</g>
<!-- Node4&#45;&gt;Node12 -->
<g id="edge11" class="edge">
<title>Node4&#45;&gt;Node12</title>
<path fill="none" stroke="midnightblue" d="M1277.69,-247.09C1339.9,-239.49 1426.22,-226.05 1499.61,-204 1502.06,-203.26 1504.56,-202.4 1507.05,-201.46"/>
<polygon fill="midnightblue" stroke="midnightblue" points="1508.51,-204.65 1516.41,-197.59 1505.83,-198.18 1508.51,-204.65"/>
</g>
<!-- Node13 -->
<g id="node13" class="node">
<title>Node13</title>
<g id="a_node13"><a xlink:href="Exceptions_8hpp.html" target="_top" xlink:title=" ">
<polygon fill="none" stroke="black" points="1017.61,-171.5 1017.61,-203.5 1137.61,-203.5 1137.61,-171.5 1017.61,-171.5"/>
<text text-anchor="start" x="1025.61" y="-190.7" font-family="-apple-system,BlinkMacSystemFont,'SegoeUI',Roboto,Oxygen,Ubuntu,Cantarell,'FiraSans','DroidSans','HelveticaNeue',sans-serif" font-size="11.00">libmirai/Exceptions</text>
<text text-anchor="middle" x="1077.61" y="-178.7" font-family="-apple-system,BlinkMacSystemFont,'SegoeUI',Roboto,Oxygen,Ubuntu,Cantarell,'FiraSans','DroidSans','HelveticaNeue',sans-serif" font-size="11.00">/Exceptions.hpp</text>
</a>
</g>
</g>
<!-- Node4&#45;&gt;Node13 -->
<g id="edge13" class="edge">
<title>Node4&#45;&gt;Node13</title>
<path fill="none" stroke="midnightblue" d="M1167.58,-240.46C1151.42,-231.13 1130.45,-219.02 1112.83,-208.84"/>
<polygon fill="midnightblue" stroke="midnightblue" points="1114.37,-205.69 1103.96,-203.72 1110.86,-211.75 1114.37,-205.69"/>
</g>
<!-- Node14 -->
<g id="node14" class="node">
<title>Node14</title>
<g id="a_node14"><a xlink:href="AppMessage_8hpp.html" target="_top" xlink:title=" ">
<polygon fill="none" stroke="black" points="379.61,-114.5 379.61,-134.5 489.61,-134.5 489.61,-114.5 379.61,-114.5"/>
<text text-anchor="middle" x="434.61" y="-121.7" font-family="-apple-system,BlinkMacSystemFont,'SegoeUI',Roboto,Oxygen,Ubuntu,Cantarell,'FiraSans','DroidSans','HelveticaNeue',sans-serif" font-size="11.00">AppMessage.hpp</text>
</a>
</g>
</g>
<!-- Node4&#45;&gt;Node14 -->
<g id="edge16" class="edge">
<title>Node4&#45;&gt;Node14</title>
<path fill="none" stroke="midnightblue" d="M1109.52,-253.09C1005.09,-248.77 821.98,-236.81 668.61,-204 593.81,-188 509.56,-156.15 465.4,-138.33"/>
<polygon fill="midnightblue" stroke="midnightblue" points="466.67,-135.07 456.09,-134.54 464.03,-141.55 466.67,-135.07"/>
</g>
<!-- Node15 -->
<g id="node15" class="node">
<title>Node15</title>
<g id="a_node15"><a xlink:href="MessageBase_8hpp.html" target="_top" xlink:title=" ">
<polygon fill="none" stroke="red" points="922.61,-57.5 922.61,-77.5 1038.61,-77.5 1038.61,-57.5 922.61,-57.5"/>
<text text-anchor="middle" x="980.61" y="-64.7" font-family="-apple-system,BlinkMacSystemFont,'SegoeUI',Roboto,Oxygen,Ubuntu,Cantarell,'FiraSans','DroidSans','HelveticaNeue',sans-serif" font-size="11.00">MessageBase.hpp</text>
</a>
</g>
</g>
<!-- Node4&#45;&gt;Node15 -->
<g id="edge61" class="edge">
<title>Node4&#45;&gt;Node15</title>
<path fill="none" stroke="midnightblue" d="M1109.33,-246.24C1059.02,-238.81 994.62,-225.87 940.61,-204 887.81,-182.63 859.97,-184.96 832.61,-135 828.12,-126.81 827.06,-121.51 832.61,-114 843.34,-99.47 883.58,-87.66 919.39,-79.72"/>
<polygon fill="midnightblue" stroke="midnightblue" points="920.31,-83.1 929.35,-77.58 918.84,-76.26 920.31,-83.1"/>
</g>
<!-- Node17 -->
<g id="node16" class="node">
<title>Node17</title>
<g id="a_node16"><a xlink:href="AtAllMessage_8hpp.html" target="_top" xlink:title=" ">
<polygon fill="none" stroke="black" points="670.11,-114.5 670.11,-134.5 785.11,-134.5 785.11,-114.5 670.11,-114.5"/>
<text text-anchor="middle" x="727.61" y="-121.7" font-family="-apple-system,BlinkMacSystemFont,'SegoeUI',Roboto,Oxygen,Ubuntu,Cantarell,'FiraSans','DroidSans','HelveticaNeue',sans-serif" font-size="11.00">AtAllMessage.hpp</text>
</a>
</g>
</g>
<!-- Node4&#45;&gt;Node17 -->
<g id="edge23" class="edge">
<title>Node4&#45;&gt;Node17</title>
<path fill="none" stroke="midnightblue" d="M1109.45,-251.23C1010.16,-245.04 851.95,-231.2 799.61,-204 772.66,-189.99 750.65,-161.65 738.34,-143.12"/>
<polygon fill="midnightblue" stroke="midnightblue" points="741.29,-141.24 732.95,-134.7 735.39,-145.01 741.29,-141.24"/>
</g>
<!-- Node18 -->
<g id="node17" class="node">
<title>Node18</title>
<g id="a_node17"><a xlink:href="AtMessage_8hpp.html" target="_top" xlink:title=" ">
<polygon fill="none" stroke="black" points="1625.11,-114.5 1625.11,-134.5 1726.11,-134.5 1726.11,-114.5 1625.11,-114.5"/>
<text text-anchor="middle" x="1675.61" y="-121.7" font-family="-apple-system,BlinkMacSystemFont,'SegoeUI',Roboto,Oxygen,Ubuntu,Cantarell,'FiraSans','DroidSans','HelveticaNeue',sans-serif" font-size="11.00">AtMessage.hpp</text>
</a>
</g>
</g>
<!-- Node4&#45;&gt;Node18 -->
<g id="edge27" class="edge">
<title>Node4&#45;&gt;Node18</title>
<path fill="none" stroke="midnightblue" d="M1278.02,-251.72C1381.1,-245.95 1548.55,-232.44 1603.61,-204 1630.6,-190.06 1652.59,-161.69 1664.89,-143.15"/>
<polygon fill="midnightblue" stroke="midnightblue" points="1667.85,-145.02 1670.27,-134.71 1661.95,-141.26 1667.85,-145.02"/>
</g>
<!-- Node21 -->
<g id="node19" class="node">
<title>Node21</title>
<g id="a_node19"><a xlink:href="AudioMessage_8hpp.html" target="_top" xlink:title=" ">
<polygon fill="none" stroke="red" points="107.61,-114.5 107.61,-134.5 227.61,-134.5 227.61,-114.5 107.61,-114.5"/>
<text text-anchor="middle" x="167.61" y="-121.7" font-family="-apple-system,BlinkMacSystemFont,'SegoeUI',Roboto,Oxygen,Ubuntu,Cantarell,'FiraSans','DroidSans','HelveticaNeue',sans-serif" font-size="11.00">AudioMessage.hpp</text>
</a>
</g>
</g>
<!-- Node4&#45;&gt;Node21 -->
<g id="edge35" class="edge">
<title>Node4&#45;&gt;Node21</title>
<path fill="none" stroke="midnightblue" d="M1109.54,-255.83C968.48,-255.05 675.68,-247.67 432.61,-204 347.56,-188.72 251.02,-156.09 201.25,-138.08"/>
<polygon fill="midnightblue" stroke="midnightblue" points="202.25,-134.72 191.65,-134.58 199.85,-141.29 202.25,-134.72"/>
</g>
<!-- Node23 -->
<g id="node20" class="node">
<title>Node23</title>
<g id="a_node20"><a xlink:href="DiceMessage_8hpp.html" target="_top" xlink:title=" ">
<polygon fill="none" stroke="black" points="972.11,-114.5 972.11,-134.5 1085.11,-134.5 1085.11,-114.5 972.11,-114.5"/>
<text text-anchor="middle" x="1028.61" y="-121.7" font-family="-apple-system,BlinkMacSystemFont,'SegoeUI',Roboto,Oxygen,Ubuntu,Cantarell,'FiraSans','DroidSans','HelveticaNeue',sans-serif" font-size="11.00">DiceMessage.hpp</text>
</a>
</g>
</g>
<!-- Node4&#45;&gt;Node23 -->
<g id="edge39" class="edge">
<title>Node4&#45;&gt;Node23</title>
<path fill="none" stroke="midnightblue" d="M1109.55,-243.65C1063.34,-235.23 1012.6,-222.17 998.61,-204 984.36,-185.49 999.66,-159.43 1013.13,-142.51"/>
<polygon fill="midnightblue" stroke="midnightblue" points="1016.05,-144.47 1019.84,-134.57 1010.71,-139.95 1016.05,-144.47"/>
</g>
<!-- Node24 -->
<g id="node21" class="node">
<title>Node24</title>
<g id="a_node21"><a xlink:href="FaceMessage_8hpp.html" target="_top" xlink:title=" ">
<polygon fill="none" stroke="black" points="1230.61,-114.5 1230.61,-134.5 1344.61,-134.5 1344.61,-114.5 1230.61,-114.5"/>
<text text-anchor="middle" x="1287.61" y="-121.7" font-family="-apple-system,BlinkMacSystemFont,'SegoeUI',Roboto,Oxygen,Ubuntu,Cantarell,'FiraSans','DroidSans','HelveticaNeue',sans-serif" font-size="11.00">FaceMessage.hpp</text>
</a>
</g>
</g>
<!-- Node4&#45;&gt;Node24 -->
<g id="edge43" class="edge">
<title>Node4&#45;&gt;Node24</title>
<path fill="none" stroke="midnightblue" d="M1186.61,-240.41C1179.38,-222.38 1170.92,-192.01 1184.61,-171 1194.96,-155.11 1212.27,-144.72 1229.76,-137.96"/>
<polygon fill="midnightblue" stroke="midnightblue" points="1231.18,-141.17 1239.46,-134.56 1228.86,-134.57 1231.18,-141.17"/>
</g>
<!-- Node25 -->
<g id="node22" class="node">
<title>Node25</title>
<g id="a_node22"><a xlink:href="FlashImageMessage_8hpp.html" target="_top" xlink:title=" ">
<polygon fill="none" stroke="black" points="1791.61,-177.5 1791.61,-197.5 1943.61,-197.5 1943.61,-177.5 1791.61,-177.5"/>
<text text-anchor="middle" x="1867.61" y="-184.7" font-family="-apple-system,BlinkMacSystemFont,'SegoeUI',Roboto,Oxygen,Ubuntu,Cantarell,'FiraSans','DroidSans','HelveticaNeue',sans-serif" font-size="11.00">FlashImageMessage.hpp</text>
</a>
</g>
</g>
<!-- Node4&#45;&gt;Node25 -->
<g id="edge47" class="edge">
<title>Node4&#45;&gt;Node25</title>
<path fill="none" stroke="midnightblue" d="M1278.02,-248.69C1387.06,-239.67 1582.7,-222.69 1749.61,-204 1763.41,-202.46 1778.09,-200.65 1792.24,-198.84"/>
<polygon fill="midnightblue" stroke="midnightblue" points="1792.97,-202.27 1802.44,-197.51 1792.07,-195.33 1792.97,-202.27"/>
</g>
<!-- Node26 -->
<g id="node23" class="node">
<title>Node26</title>
<g id="a_node23"><a xlink:href="ImageMessage_8hpp.html" target="_top" xlink:title=" ">
<polygon fill="none" stroke="red" points="1744.11,-114.5 1744.11,-134.5 1867.11,-134.5 1867.11,-114.5 1744.11,-114.5"/>
<text text-anchor="middle" x="1805.61" y="-121.7" font-family="-apple-system,BlinkMacSystemFont,'SegoeUI',Roboto,Oxygen,Ubuntu,Cantarell,'FiraSans','DroidSans','HelveticaNeue',sans-serif" font-size="11.00">ImageMessage.hpp</text>
</a>
</g>
</g>
<!-- Node4&#45;&gt;Node26 -->
<g id="edge56" class="edge">
<title>Node4&#45;&gt;Node26</title>
<path fill="none" stroke="midnightblue" d="M1278.02,-253.65C1368.32,-249.84 1514.97,-238.36 1636.61,-204 1690.78,-188.7 1749.39,-157.93 1781.37,-139.79"/>
<polygon fill="midnightblue" stroke="midnightblue" points="1783.48,-142.62 1790.41,-134.6 1780,-136.55 1783.48,-142.62"/>
</g>
<!-- Node27 -->
<g id="node24" class="node">
<title>Node27</title>
<g id="a_node24"><a xlink:href="JsonMessage_8hpp.html" target="_top" xlink:title=" ">
<polygon fill="none" stroke="black" points="841.61,-114.5 841.61,-134.5 953.61,-134.5 953.61,-114.5 841.61,-114.5"/>
<text text-anchor="middle" x="897.61" y="-121.7" font-family="-apple-system,BlinkMacSystemFont,'SegoeUI',Roboto,Oxygen,Ubuntu,Cantarell,'FiraSans','DroidSans','HelveticaNeue',sans-serif" font-size="11.00">JsonMessage.hpp</text>
</a>
</g>
</g>
<!-- Node4&#45;&gt;Node27 -->
<g id="edge57" class="edge">
<title>Node4&#45;&gt;Node27</title>
<path fill="none" stroke="midnightblue" d="M1109.59,-243.29C1071.5,-235.52 1026.77,-223.2 989.61,-204 958.71,-188.04 929.28,-159.87 912.36,-141.97"/>
<polygon fill="midnightblue" stroke="midnightblue" points="914.86,-139.52 905.5,-134.55 909.72,-144.27 914.86,-139.52"/>
</g>
<!-- Node28 -->
<g id="node25" class="node">
<title>Node28</title>
<g id="a_node25"><a xlink:href="MiraiCodeMessage_8hpp.html" target="_top" xlink:title=" ">
<polygon fill="none" stroke="black" points="507.61,-114.5 507.61,-134.5 651.61,-134.5 651.61,-114.5 507.61,-114.5"/>
<text text-anchor="middle" x="579.61" y="-121.7" font-family="-apple-system,BlinkMacSystemFont,'SegoeUI',Roboto,Oxygen,Ubuntu,Cantarell,'FiraSans','DroidSans','HelveticaNeue',sans-serif" font-size="11.00">MiraiCodeMessage.hpp</text>
</a>
</g>
</g>
<!-- Node4&#45;&gt;Node28 -->
<g id="edge62" class="edge">
<title>Node4&#45;&gt;Node28</title>
<path fill="none" stroke="midnightblue" d="M1109.22,-253.03C1020.15,-248.71 876.34,-236.8 756.61,-204 699.95,-188.48 638.17,-157.57 604.66,-139.51"/>
<polygon fill="midnightblue" stroke="midnightblue" points="606.05,-136.28 595.59,-134.57 602.7,-142.43 606.05,-136.28"/>
</g>
<!-- Node29 -->
<g id="node26" class="node">
<title>Node29</title>
<g id="a_node26"><a xlink:href="PlainMessage_8hpp.html" target="_top" xlink:title=" ">
<polygon fill="none" stroke="black" points="1490.61,-114.5 1490.61,-134.5 1606.61,-134.5 1606.61,-114.5 1490.61,-114.5"/>
<text text-anchor="middle" x="1548.61" y="-121.7" font-family="-apple-system,BlinkMacSystemFont,'SegoeUI',Roboto,Oxygen,Ubuntu,Cantarell,'FiraSans','DroidSans','HelveticaNeue',sans-serif" font-size="11.00">PlainMessage.hpp</text>
</a>
</g>
</g>
<!-- Node4&#45;&gt;Node29 -->
<g id="edge66" class="edge">
<title>Node4&#45;&gt;Node29</title>
<path fill="none" stroke="midnightblue" d="M1277.98,-250.29C1387.36,-242.66 1566.58,-226.82 1586.61,-204 1602.89,-185.45 1583.02,-158.69 1566.45,-141.7"/>
<polygon fill="midnightblue" stroke="midnightblue" points="1568.81,-139.11 1559.2,-134.64 1563.92,-144.13 1568.81,-139.11"/>
</g>
<!-- Node30 -->
<g id="node27" class="node">
<title>Node30</title>
<g id="a_node27"><a xlink:href="PokeMessage_8hpp.html" target="_top" xlink:title=" ">
<polygon fill="none" stroke="red" points="246.11,-114.5 246.11,-134.5 361.11,-134.5 361.11,-114.5 246.11,-114.5"/>
<text text-anchor="middle" x="303.61" y="-121.7" font-family="-apple-system,BlinkMacSystemFont,'SegoeUI',Roboto,Oxygen,Ubuntu,Cantarell,'FiraSans','DroidSans','HelveticaNeue',sans-serif" font-size="11.00">PokeMessage.hpp</text>
</a>
</g>
</g>
<!-- Node4&#45;&gt;Node30 -->
<g id="edge70" class="edge">
<title>Node4&#45;&gt;Node30</title>
<path fill="none" stroke="midnightblue" d="M1109.58,-254.66C986.63,-252.1 751,-242.13 554.61,-204 474.06,-188.36 382.9,-155.99 335.73,-138.09"/>
<polygon fill="midnightblue" stroke="midnightblue" points="336.94,-134.81 326.35,-134.5 334.44,-141.34 336.94,-134.81"/>
</g>
<!-- Node32 -->
<g id="node28" class="node">
<title>Node32</title>
<g id="a_node28"><a xlink:href="XmlMessage_8hpp.html" target="_top" xlink:title=" ">
<polygon fill="none" stroke="black" points="1362.61,-114.5 1362.61,-134.5 1472.61,-134.5 1472.61,-114.5 1362.61,-114.5"/>
<text text-anchor="middle" x="1417.61" y="-121.7" font-family="-apple-system,BlinkMacSystemFont,'SegoeUI',Roboto,Oxygen,Ubuntu,Cantarell,'FiraSans','DroidSans','HelveticaNeue',sans-serif" font-size="11.00">XmlMessage.hpp</text>
</a>
</g>
</g>
<!-- Node4&#45;&gt;Node32 -->
<g id="edge74" class="edge">
<title>Node4&#45;&gt;Node32</title>
<path fill="none" stroke="midnightblue" d="M1277.76,-256.28C1376.8,-255.19 1532.52,-246.51 1569.61,-204 1600.12,-169.02 1536.74,-147.5 1482.73,-136.03"/>
<polygon fill="midnightblue" stroke="midnightblue" points="1483.27,-132.57 1472.78,-134.01 1481.88,-139.43 1483.27,-132.57"/>
</g>
<!-- Node13&#45;&gt;Node2 -->
<g id="edge15" class="edge">
<title>Node13&#45;&gt;Node2</title>
<path fill="none" stroke="midnightblue" d="M1133.65,-171.47C1165.81,-159.67 1197.19,-140.74 1182.61,-114 1156.13,-65.43 1095.66,-36.4 1057.39,-22.22"/>
<polygon fill="midnightblue" stroke="midnightblue" points="1058.3,-18.83 1047.7,-18.77 1055.95,-25.42 1058.3,-18.83"/>
</g>
<!-- Node13&#45;&gt;Node9 -->
<g id="edge14" class="edge">
<title>Node13&#45;&gt;Node9</title>
<path fill="none" stroke="midnightblue" d="M1092.69,-171.42C1101.73,-162.38 1113.22,-150.89 1122.45,-141.66"/>
<polygon fill="midnightblue" stroke="midnightblue" points="1124.97,-144.09 1129.56,-134.55 1120.02,-139.14 1124.97,-144.09"/>
</g>
<!-- Node14&#45;&gt;Node2 -->
<g id="edge17" class="edge">
<title>Node14&#45;&gt;Node2</title>
<path fill="none" stroke="midnightblue" d="M468.45,-114.45C520.89,-100.67 625.06,-74.19 714.61,-57 813.87,-37.94 932.4,-22.51 989.52,-15.53"/>
<polygon fill="midnightblue" stroke="midnightblue" points="989.94,-19.01 999.45,-14.33 989.1,-12.06 989.94,-19.01"/>
</g>
<!-- Node14&#45;&gt;Node3 -->
<g id="edge18" class="edge">
<title>Node14&#45;&gt;Node3</title>
<path fill="none" stroke="midnightblue" d="M469.67,-114.42C526.84,-99.96 643.87,-71.84 744.61,-57 912.52,-32.26 1110.93,-20.12 1220.46,-14.89"/>
<polygon fill="midnightblue" stroke="midnightblue" points="1220.63,-18.38 1230.46,-14.42 1220.31,-11.39 1220.63,-18.38"/>
</g>
<!-- Node14&#45;&gt;Node15 -->
<g id="edge19" class="edge">
<title>Node14&#45;&gt;Node15</title>
<path fill="none" stroke="midnightblue" d="M489.74,-115.13C492.74,-114.73 495.71,-114.35 498.61,-114 645.59,-96.17 818.5,-81.33 912.07,-73.81"/>
<polygon fill="midnightblue" stroke="midnightblue" points="912.57,-77.29 922.26,-73 912.01,-70.31 912.57,-77.29"/>
</g>
<!-- Node15&#45;&gt;Node2 -->
<g id="edge21" class="edge">
<title>Node15&#45;&gt;Node2</title>
<path fill="none" stroke="midnightblue" d="M987.71,-57.42C993.77,-49.66 1002.66,-38.29 1010.08,-28.8"/>
<polygon fill="midnightblue" stroke="midnightblue" points="1012.95,-30.81 1016.35,-20.78 1007.44,-26.5 1012.95,-30.81"/>
</g>
<!-- Node15&#45;&gt;Node3 -->
<g id="edge22" class="edge">
<title>Node15&#45;&gt;Node3</title>
<path fill="none" stroke="midnightblue" d="M1033.58,-57.48C1090.26,-47.83 1180.13,-32.53 1240.45,-22.26"/>
<polygon fill="midnightblue" stroke="midnightblue" points="1241.33,-25.65 1250.6,-20.53 1240.16,-18.75 1241.33,-25.65"/>
</g>
<!-- Node15&#45;&gt;Node7 -->
<g id="edge20" class="edge">
<title>Node15&#45;&gt;Node7</title>
<path fill="none" stroke="midnightblue" d="M922.49,-63.02C751.21,-52.76 251.22,-22.8 103.91,-13.97"/>
<polygon fill="midnightblue" stroke="midnightblue" points="104.11,-10.48 93.92,-13.38 103.69,-17.47 104.11,-10.48"/>
</g>
<!-- Node17&#45;&gt;Node2 -->
<g id="edge24" class="edge">
<title>Node17&#45;&gt;Node2</title>
<path fill="none" stroke="midnightblue" d="M738.66,-114.3C756.47,-99.93 793.12,-72.25 828.61,-57 882.27,-33.95 949.47,-21.56 989.34,-15.76"/>
<polygon fill="midnightblue" stroke="midnightblue" points="989.92,-19.21 999.34,-14.36 988.95,-12.28 989.92,-19.21"/>
</g>
<!-- Node17&#45;&gt;Node3 -->
<g id="edge25" class="edge">
<title>Node17&#45;&gt;Node3</title>
<path fill="none" stroke="midnightblue" d="M748.06,-114.44C781.83,-99.9 851.67,-71.49 913.61,-57 1017.63,-32.67 1140.45,-21.08 1220.06,-15.74"/>
<polygon fill="midnightblue" stroke="midnightblue" points="1220.77,-19.21 1230.52,-15.06 1220.31,-12.22 1220.77,-19.21"/>
</g>
<!-- Node17&#45;&gt;Node15 -->
<g id="edge26" class="edge">
<title>Node17&#45;&gt;Node15</title>
<path fill="none" stroke="midnightblue" d="M769.1,-114.48C812.86,-104.97 881.86,-89.97 929.07,-79.7"/>
<polygon fill="midnightblue" stroke="midnightblue" points="930.06,-83.07 939.09,-77.53 928.58,-76.23 930.06,-83.07"/>
</g>
<!-- Node18&#45;&gt;Node2 -->
<g id="edge28" class="edge">
<title>Node18&#45;&gt;Node2</title>
<path fill="none" stroke="midnightblue" d="M1627.31,-114.49C1556.86,-101.43 1421.79,-76.64 1306.61,-57 1216.93,-41.71 1111.02,-25.06 1057.79,-16.78"/>
<polygon fill="midnightblue" stroke="midnightblue" points="1058.28,-13.32 1047.86,-15.24 1057.21,-20.23 1058.28,-13.32"/>
</g>
<!-- Node18&#45;&gt;Node3 -->
<g id="edge29" class="edge">
<title>Node18&#45;&gt;Node3</title>
<path fill="none" stroke="midnightblue" d="M1645.48,-114.43C1578.82,-94.36 1418.83,-46.19 1343.77,-23.59"/>
<polygon fill="midnightblue" stroke="midnightblue" points="1344.34,-20.11 1333.76,-20.58 1342.32,-26.81 1344.34,-20.11"/>
</g>
<!-- Node18&#45;&gt;Node15 -->
<g id="edge34" class="edge">
<title>Node18&#45;&gt;Node15</title>
<path fill="none" stroke="midnightblue" d="M1624.91,-115.16C1621.77,-114.74 1618.65,-114.35 1615.61,-114 1410.16,-90.42 1165.83,-77 1049.19,-71.49"/>
<polygon fill="midnightblue" stroke="midnightblue" points="1049.14,-67.98 1038.98,-71.01 1048.81,-74.97 1049.14,-67.98"/>
</g>
<!-- Node18&#45;&gt;Node19 -->
<g id="edge30" class="edge">
<title>Node18&#45;&gt;Node19</title>
<path fill="none" stroke="midnightblue" d="M1706.32,-114.42C1737.78,-105.12 1786.84,-90.61 1821.38,-80.39"/>
<polygon fill="midnightblue" stroke="midnightblue" points="1822.56,-83.7 1831.16,-77.5 1820.58,-76.98 1822.56,-83.7"/>
</g>
<!-- Node19&#45;&gt;Node2 -->
<g id="edge32" class="edge">
<title>Node19&#45;&gt;Node2</title>
<path fill="none" stroke="midnightblue" d="M1770.73,-60.54C1587.09,-48.48 1178.97,-21.7 1058.03,-13.76"/>
<polygon fill="midnightblue" stroke="midnightblue" points="1058.08,-10.26 1047.87,-13.09 1057.62,-17.24 1058.08,-10.26"/>
</g>
<!-- Node19&#45;&gt;Node3 -->
<g id="edge33" class="edge">
<title>Node19&#45;&gt;Node3</title>
<path fill="none" stroke="midnightblue" d="M1771.03,-57.57C1664.69,-47.09 1489.82,-29.85 1386.79,-19.7"/>
<polygon fill="midnightblue" stroke="midnightblue" points="1387.04,-16.21 1376.74,-18.71 1386.35,-23.17 1387.04,-16.21"/>
</g>
<!-- Node19&#45;&gt;Node6 -->
<g id="edge31" class="edge">
<title>Node19&#45;&gt;Node6</title>
<path fill="none" stroke="midnightblue" d="M1883.24,-57.42C1904.57,-48.46 1937.4,-34.68 1961.52,-24.55"/>
<polygon fill="midnightblue" stroke="midnightblue" points="1963.08,-27.69 1970.94,-20.6 1960.37,-21.24 1963.08,-27.69"/>
</g>
<!-- Node21&#45;&gt;Node2 -->
<g id="edge36" class="edge">
<title>Node21&#45;&gt;Node2</title>
<path fill="none" stroke="midnightblue" d="M205.69,-114.5C267.46,-100.22 393.47,-72.43 501.61,-57 684.51,-30.9 905.75,-17.58 989.38,-13.18"/>
<polygon fill="midnightblue" stroke="midnightblue" points="989.76,-16.67 999.57,-12.66 989.4,-9.68 989.76,-16.67"/>
</g>
<!-- Node21&#45;&gt;Node3 -->
<g id="edge37" class="edge">
<title>Node21&#45;&gt;Node3</title>
<path fill="none" stroke="midnightblue" d="M205.18,-114.44C267.72,-99.75 397.29,-70.97 508.61,-57 644.36,-39.96 1045.44,-22.07 1220.41,-14.83"/>
<polygon fill="midnightblue" stroke="midnightblue" points="1220.74,-18.32 1230.59,-14.41 1220.46,-11.33 1220.74,-18.32"/>
</g>
<!-- Node21&#45;&gt;Node15 -->
<g id="edge38" class="edge">
<title>Node21&#45;&gt;Node15</title>
<path fill="none" stroke="midnightblue" d="M227.79,-114.94C230.77,-114.6 233.72,-114.29 236.61,-114 484.86,-89.35 781.13,-76.03 912.32,-70.95"/>
<polygon fill="midnightblue" stroke="midnightblue" points="912.75,-74.43 922.61,-70.55 912.48,-67.44 912.75,-74.43"/>
</g>
<!-- Node23&#45;&gt;Node2 -->
<g id="edge40" class="edge">
<title>Node23&#45;&gt;Node2</title>
<path fill="none" stroke="midnightblue" d="M1034.5,-114.09C1041.8,-101.25 1052.69,-77.51 1047.61,-57 1045.2,-47.28 1040.3,-37.35 1035.55,-29.25"/>
<polygon fill="midnightblue" stroke="midnightblue" points="1038.48,-27.33 1030.2,-20.71 1032.54,-31.05 1038.48,-27.33"/>
</g>
<!-- Node23&#45;&gt;Node3 -->
<g id="edge41" class="edge">
<title>Node23&#45;&gt;Node3</title>
<path fill="none" stroke="midnightblue" d="M1081.84,-114.45C1117.34,-107.27 1164.49,-95.5 1203.61,-78 1233.98,-64.42 1265.34,-41.93 1284.66,-26.92"/>
<polygon fill="midnightblue" stroke="midnightblue" points="1286.97,-29.55 1292.64,-20.6 1282.62,-24.06 1286.97,-29.55"/>
</g>
<!-- Node23&#45;&gt;Node15 -->
<g id="edge42" class="edge">
<title>Node23&#45;&gt;Node15</title>
<path fill="none" stroke="midnightblue" d="M1020.68,-114.42C1013.85,-106.58 1003.79,-95.06 995.46,-85.51"/>
<polygon fill="midnightblue" stroke="midnightblue" points="997.92,-83.01 988.71,-77.78 992.65,-87.62 997.92,-83.01"/>
</g>
<!-- Node24&#45;&gt;Node2 -->
<g id="edge44" class="edge">
<title>Node24&#45;&gt;Node2</title>
<path fill="none" stroke="midnightblue" d="M1273.04,-114.37C1250.6,-100.6 1205.97,-74.28 1165.61,-57 1129.63,-41.6 1086.63,-28.52 1057.44,-20.39"/>
<polygon fill="midnightblue" stroke="midnightblue" points="1058.3,-17 1047.73,-17.73 1056.45,-23.75 1058.3,-17"/>
</g>
<!-- Node24&#45;&gt;Node3 -->
<g id="edge45" class="edge">
<title>Node24&#45;&gt;Node3</title>
<path fill="none" stroke="midnightblue" d="M1288.92,-114.33C1291.51,-96.2 1297.34,-55.41 1300.82,-31"/>
<polygon fill="midnightblue" stroke="midnightblue" points="1304.33,-31.19 1302.28,-20.79 1297.4,-30.2 1304.33,-31.19"/>
</g>
<!-- Node24&#45;&gt;Node15 -->
<g id="edge46" class="edge">
<title>Node24&#45;&gt;Node15</title>
<path fill="none" stroke="midnightblue" d="M1237.26,-114.48C1183.5,-104.85 1098.33,-89.59 1041,-79.32"/>
<polygon fill="midnightblue" stroke="midnightblue" points="1041.45,-75.84 1030.99,-77.53 1040.21,-82.73 1041.45,-75.84"/>
</g>
<!-- Node25&#45;&gt;Node2 -->
<g id="edge48" class="edge">
<title>Node25&#45;&gt;Node2</title>
<path fill="none" stroke="midnightblue" d="M1872.74,-177.19C1880.34,-161.99 1892.12,-131.78 1876.61,-114 1849.11,-82.48 1214.6,-27.48 1058.21,-14.36"/>
<polygon fill="midnightblue" stroke="midnightblue" points="1058.04,-10.84 1047.79,-13.49 1057.46,-17.81 1058.04,-10.84"/>
</g>
<!-- Node25&#45;&gt;Node3 -->
<g id="edge49" class="edge">
<title>Node25&#45;&gt;Node3</title>
<path fill="none" stroke="midnightblue" d="M1882.98,-177.45C1918.43,-155.5 2000.09,-98.23 1961.61,-57 1923.18,-15.83 1555.23,-11.06 1386.91,-11.07"/>
<polygon fill="midnightblue" stroke="midnightblue" points="1386.84,-7.57 1376.85,-11.07 1386.85,-14.57 1386.84,-7.57"/>
</g>
<!-- Node25&#45;&gt;Node19 -->
<g id="edge50" class="edge">
<title>Node25&#45;&gt;Node19</title>
<path fill="none" stroke="midnightblue" d="M1879.25,-177.48C1894.99,-164.13 1919.95,-138.05 1909.61,-114 1904.42,-101.93 1894.27,-91.55 1884.64,-83.77"/>
<polygon fill="midnightblue" stroke="midnightblue" points="1886.55,-80.83 1876.45,-77.63 1882.35,-86.43 1886.55,-80.83"/>
</g>
<!-- Node25&#45;&gt;Node26 -->
<g id="edge51" class="edge">
<title>Node25&#45;&gt;Node26</title>
<path fill="none" stroke="midnightblue" d="M1858.46,-177.5C1848.94,-168.13 1833.81,-153.25 1822.18,-141.8"/>
<polygon fill="midnightblue" stroke="midnightblue" points="1824.38,-139.06 1814.79,-134.54 1819.47,-144.05 1824.38,-139.06"/>
</g>
<!-- Node26&#45;&gt;Node2 -->
<g id="edge52" class="edge">
<title>Node26&#45;&gt;Node2</title>
<path fill="none" stroke="midnightblue" d="M1750.01,-114.45C1668.13,-101.22 1510.23,-76.11 1375.61,-57 1259.4,-40.51 1121.25,-23.37 1058.14,-15.67"/>
<polygon fill="midnightblue" stroke="midnightblue" points="1058.31,-12.17 1047.96,-14.44 1057.47,-19.12 1058.31,-12.17"/>
</g>
<!-- Node26&#45;&gt;Node3 -->
<g id="edge53" class="edge">
<title>Node26&#45;&gt;Node3</title>
<path fill="none" stroke="midnightblue" d="M1764.95,-114.43C1673.9,-94.11 1453.78,-45 1354.12,-22.77"/>
<polygon fill="midnightblue" stroke="midnightblue" points="1354.82,-19.34 1344.29,-20.58 1353.29,-26.17 1354.82,-19.34"/>
</g>
<!-- Node26&#45;&gt;Node15 -->
<g id="edge55" class="edge">
<title>Node26&#45;&gt;Node15</title>
<path fill="none" stroke="midnightblue" d="M1743.8,-114.86C1741.03,-114.55 1738.29,-114.26 1735.61,-114 1483.09,-89.29 1181.67,-75.96 1049,-70.91"/>
<polygon fill="midnightblue" stroke="midnightblue" points="1049.11,-67.41 1038.98,-70.53 1048.84,-74.41 1049.11,-67.41"/>
</g>
<!-- Node26&#45;&gt;Node19 -->
<g id="edge54" class="edge">
<title>Node26&#45;&gt;Node19</title>
<path fill="none" stroke="midnightblue" d="M1814.86,-114.42C1822.99,-106.42 1835.04,-94.59 1844.87,-84.94"/>
<polygon fill="midnightblue" stroke="midnightblue" points="1847.48,-87.28 1852.16,-77.78 1842.57,-82.29 1847.48,-87.28"/>
</g>
<!-- Node27&#45;&gt;Node2 -->
<g id="edge58" class="edge">
<title>Node27&#45;&gt;Node2</title>
<path fill="none" stroke="midnightblue" d="M897.33,-114.16C897.4,-100.11 899.56,-73.43 913.61,-57 932.76,-34.6 964.72,-23.03 989.26,-17.19"/>
<polygon fill="midnightblue" stroke="midnightblue" points="990.24,-20.55 999.27,-15.01 988.76,-13.71 990.24,-20.55"/>
</g>
<!-- Node27&#45;&gt;Node3 -->
<g id="edge59" class="edge">
<title>Node27&#45;&gt;Node3</title>
<path fill="none" stroke="midnightblue" d="M930.49,-114.43C1003.54,-94.28 1179.29,-45.8 1260.78,-23.31"/>
<polygon fill="midnightblue" stroke="midnightblue" points="1262,-26.61 1270.7,-20.58 1260.13,-19.86 1262,-26.61"/>
</g>
<!-- Node27&#45;&gt;Node15 -->
<g id="edge60" class="edge">
<title>Node27&#45;&gt;Node15</title>
<path fill="none" stroke="midnightblue" d="M911.31,-114.42C924.05,-105.98 943.25,-93.26 958.21,-83.34"/>
<polygon fill="midnightblue" stroke="midnightblue" points="960.48,-86.04 966.88,-77.6 956.61,-80.2 960.48,-86.04"/>
</g>
<!-- Node28&#45;&gt;Node2 -->
<g id="edge63" class="edge">
<title>Node28&#45;&gt;Node2</title>
<path fill="none" stroke="midnightblue" d="M604.5,-114.42C643.08,-100.59 719.87,-74.06 786.61,-57 857.97,-38.76 943.09,-24.11 989.42,-16.73"/>
<polygon fill="midnightblue" stroke="midnightblue" points="990.18,-20.15 999.51,-15.14 989.09,-13.24 990.18,-20.15"/>
</g>
<!-- Node28&#45;&gt;Node3 -->
<g id="edge64" class="edge">
<title>Node28&#45;&gt;Node3</title>
<path fill="none" stroke="midnightblue" d="M609.27,-114.45C657.65,-100.05 756.78,-72 842.61,-57 973.57,-34.11 1127.61,-21.81 1220.33,-15.97"/>
<polygon fill="midnightblue" stroke="midnightblue" points="1220.73,-19.45 1230.5,-15.34 1220.3,-12.46 1220.73,-19.45"/>
</g>
<!-- Node28&#45;&gt;Node15 -->
<g id="edge65" class="edge">
<title>Node28&#45;&gt;Node15</title>
<path fill="none" stroke="midnightblue" d="M645.38,-114.48C718.91,-104.39 837.44,-88.14 912.07,-77.9"/>
<polygon fill="midnightblue" stroke="midnightblue" points="912.87,-81.32 922.31,-76.5 911.92,-74.39 912.87,-81.32"/>
</g>
<!-- Node29&#45;&gt;Node2 -->
<g id="edge67" class="edge">
<title>Node29&#45;&gt;Node2</title>
<path fill="none" stroke="midnightblue" d="M1508.73,-114.46C1451.14,-101.46 1341.32,-76.87 1247.61,-57 1180.4,-42.75 1101.65,-26.97 1057.71,-18.24"/>
<polygon fill="midnightblue" stroke="midnightblue" points="1058.32,-14.79 1047.83,-16.28 1056.96,-21.66 1058.32,-14.79"/>
</g>
<!-- Node29&#45;&gt;Node3 -->
<g id="edge68" class="edge">
<title>Node29&#45;&gt;Node3</title>
<path fill="none" stroke="midnightblue" d="M1528.56,-114.33C1485.38,-94.6 1383.44,-47.99 1332.97,-24.92"/>
<polygon fill="midnightblue" stroke="midnightblue" points="1334.14,-21.61 1323.59,-20.63 1331.23,-27.98 1334.14,-21.61"/>
</g>
<!-- Node29&#45;&gt;Node15 -->
<g id="edge69" class="edge">
<title>Node29&#45;&gt;Node15</title>
<path fill="none" stroke="midnightblue" d="M1490.53,-115.08C1487.51,-114.7 1484.53,-114.34 1481.61,-114 1327.39,-96.07 1145.76,-81.1 1049.16,-73.63"/>
<polygon fill="midnightblue" stroke="midnightblue" points="1049.18,-70.12 1038.95,-72.84 1048.65,-77.1 1049.18,-70.12"/>
</g>
<!-- Node30&#45;&gt;Node2 -->
<g id="edge71" class="edge">
<title>Node30&#45;&gt;Node2</title>
<path fill="none" stroke="midnightblue" d="M340.73,-114.45C399.41,-100.42 517.35,-73.34 618.61,-57 755.14,-34.97 919.29,-20.06 989.29,-14.23"/>
<polygon fill="midnightblue" stroke="midnightblue" points="989.62,-17.72 999.3,-13.41 989.05,-10.74 989.62,-17.72"/>
</g>
<!-- Node30&#45;&gt;Node3 -->
<g id="edge72" class="edge">
<title>Node30&#45;&gt;Node3</title>
<path fill="none" stroke="midnightblue" d="M340,-114.41C399.96,-99.82 523.42,-71.35 629.61,-57 741.38,-41.9 1065.64,-23.81 1220.01,-15.74"/>
<polygon fill="midnightblue" stroke="midnightblue" points="1220.58,-19.22 1230.38,-15.2 1220.21,-12.23 1220.58,-19.22"/>
</g>
<!-- Node30&#45;&gt;Node15 -->
<g id="edge73" class="edge">
<title>Node30&#45;&gt;Node15</title>
<path fill="none" stroke="midnightblue" d="M361.32,-115.07C364.46,-114.69 367.57,-114.33 370.61,-114 566.68,-92.81 799.28,-78.42 912.23,-72.12"/>
<polygon fill="midnightblue" stroke="midnightblue" points="912.67,-75.6 922.46,-71.55 912.28,-68.61 912.67,-75.6"/>
</g>
<!-- Node32&#45;&gt;Node2 -->
<g id="edge75" class="edge">
<title>Node32&#45;&gt;Node2</title>
<path fill="none" stroke="midnightblue" d="M1389.64,-114.48C1348.43,-101.29 1268.88,-76.22 1200.61,-57 1151.13,-43.07 1093.39,-28.55 1057.66,-19.76"/>
<polygon fill="midnightblue" stroke="midnightblue" points="1058.3,-16.31 1047.75,-17.33 1056.63,-23.11 1058.3,-16.31"/>
</g>
<!-- Node32&#45;&gt;Node3 -->
<g id="edge76" class="edge">
<title>Node32&#45;&gt;Node3</title>
<path fill="none" stroke="midnightblue" d="M1408.28,-114.33C1389.07,-95.47 1344.88,-52.05 1320.51,-28.1"/>
<polygon fill="midnightblue" stroke="midnightblue" points="1322.65,-25.3 1313.07,-20.79 1317.75,-30.3 1322.65,-25.3"/>
</g>
<!-- Node32&#45;&gt;Node15 -->
<g id="edge77" class="edge">
<title>Node32&#45;&gt;Node15</title>
<path fill="none" stroke="midnightblue" d="M1362.46,-115.22C1359.47,-114.8 1356.5,-114.39 1353.61,-114 1247.41,-99.64 1123.91,-84.98 1049.05,-76.31"/>
<polygon fill="midnightblue" stroke="midnightblue" points="1049.15,-72.8 1038.82,-75.13 1048.35,-79.75 1049.15,-72.8"/>
</g>
<!-- Node33&#45;&gt;Node2 -->
<g id="edge81" class="edge">
<title>Node33&#45;&gt;Node2</title>
<path fill="none" stroke="midnightblue" d="M112.16,-58.66C117.04,-58.04 121.91,-57.47 126.61,-57 461.74,-23.71 869.86,-14.2 989.27,-12.05"/>
<polygon fill="midnightblue" stroke="midnightblue" points="989.35,-15.55 999.28,-11.87 989.22,-8.55 989.35,-15.55"/>
</g>
<!-- Node33&#45;&gt;Node3 -->
<g id="edge82" class="edge">
<title>Node33&#45;&gt;Node3</title>
<path fill="none" stroke="midnightblue" d="M112.41,-64.29C302.29,-55.88 982.12,-25.75 1220.39,-15.19"/>
<polygon fill="midnightblue" stroke="midnightblue" points="1220.54,-18.68 1230.38,-14.75 1220.23,-11.69 1220.54,-18.68"/>
</g>
<!-- Node33&#45;&gt;Node7 -->
<g id="edge80" class="edge">
<title>Node33&#45;&gt;Node7</title>
<path fill="none" stroke="midnightblue" d="M62.61,-57.42C62.61,-50.22 62.61,-39.9 62.61,-30.86"/>
<polygon fill="midnightblue" stroke="midnightblue" points="66.11,-30.78 62.61,-20.78 59.11,-30.78 66.11,-30.78"/>
</g>
</g>
</svg>
