<?xml version="1.0" encoding="UTF-8" standalone="no"?>
<!DOCTYPE svg PUBLIC "-//W3C//DTD SVG 1.1//EN"
 "http://www.w3.org/Graphics/SVG/1.1/DTD/svg11.dtd">
<!-- Generated by graphviz version 2.43.0 (0)
 -->
<!-- Title: libmirai/public/libmirai/Events/FriendInputStatusChangedEvent.cpp Pages: 1 -->
<svg width="592pt" height="236pt"
 viewBox="0.00 0.00 592.34 236.00" xmlns="http://www.w3.org/2000/svg" xmlns:xlink="http://www.w3.org/1999/xlink">
<g id="graph0" class="graph" transform="scale(1 1) rotate(0) translate(4 232)">
<title>libmirai/public/libmirai/Events/FriendInputStatusChangedEvent.cpp</title>
<!-- Node1 -->
<g id="node1" class="node">
<title>Node1</title>
<g id="a_node1"><a xlink:title=" ">
<polygon fill="#bfbfbf" stroke="black" points="240.34,-183.5 240.34,-227.5 446.34,-227.5 446.34,-183.5 240.34,-183.5"/>
<text text-anchor="start" x="248.34" y="-214.7" font-family="-apple-system,BlinkMacSystemFont,'SegoeUI',Roboto,Oxygen,Ubuntu,Cantarell,'FiraSans','DroidSans','HelveticaNeue',sans-serif" font-size="11.00">libmirai/public/libmirai</text>
<text text-anchor="start" x="248.34" y="-202.7" font-family="-apple-system,BlinkMacSystemFont,'SegoeUI',Roboto,Oxygen,Ubuntu,Cantarell,'FiraSans','DroidSans','HelveticaNeue',sans-serif" font-size="11.00">/Events/FriendInputStatusChanged</text>
<text text-anchor="middle" x="343.34" y="-190.7" font-family="-apple-system,BlinkMacSystemFont,'SegoeUI',Roboto,Oxygen,Ubuntu,Cantarell,'FiraSans','DroidSans','HelveticaNeue',sans-serif" font-size="11.00">Event.cpp</text>
</a>
</g>
</g>
<!-- Node2 -->
<g id="node2" class="node">
<title>Node2</title>
<g id="a_node2"><a xlink:href="FriendInputStatusChangedEvent_8hpp.html" target="_top" xlink:title=" ">
<polygon fill="none" stroke="black" points="103.84,-114.5 103.84,-146.5 264.84,-146.5 264.84,-114.5 103.84,-114.5"/>
<text text-anchor="start" x="111.84" y="-133.7" font-family="-apple-system,BlinkMacSystemFont,'SegoeUI',Roboto,Oxygen,Ubuntu,Cantarell,'FiraSans','DroidSans','HelveticaNeue',sans-serif" font-size="11.00">FriendInputStatusChanged</text>
<text text-anchor="middle" x="184.34" y="-121.7" font-family="-apple-system,BlinkMacSystemFont,'SegoeUI',Roboto,Oxygen,Ubuntu,Cantarell,'FiraSans','DroidSans','HelveticaNeue',sans-serif" font-size="11.00">Event.hpp</text>
</a>
</g>
</g>
<!-- Node1&#45;&gt;Node2 -->
<g id="edge1" class="edge">
<title>Node1&#45;&gt;Node2</title>
<path fill="none" stroke="midnightblue" d="M297.35,-183.39C274.98,-173.11 248.28,-160.85 226.44,-150.83"/>
<polygon fill="midnightblue" stroke="midnightblue" points="227.65,-147.53 217.1,-146.54 224.73,-153.9 227.65,-147.53"/>
</g>
<!-- Node11 -->
<g id="node7" class="node">
<title>Node11</title>
<g id="a_node7"><a xlink:title=" ">
<polygon fill="none" stroke="#bfbfbf" points="282.84,-120.5 282.84,-140.5 403.84,-140.5 403.84,-120.5 282.84,-120.5"/>
<text text-anchor="middle" x="343.34" y="-127.7" font-family="-apple-system,BlinkMacSystemFont,'SegoeUI',Roboto,Oxygen,Ubuntu,Cantarell,'FiraSans','DroidSans','HelveticaNeue',sans-serif" font-size="11.00">nlohmann/json.hpp</text>
</a>
</g>
</g>
<!-- Node1&#45;&gt;Node11 -->
<g id="edge10" class="edge">
<title>Node1&#45;&gt;Node11</title>
<path fill="none" stroke="midnightblue" d="M343.34,-183.39C343.34,-173.11 343.34,-160.83 343.34,-150.8"/>
<polygon fill="midnightblue" stroke="midnightblue" points="346.84,-150.66 343.34,-140.66 339.84,-150.66 346.84,-150.66"/>
</g>
<!-- Node12 -->
<g id="node8" class="node">
<title>Node12</title>
<g id="a_node8"><a xlink:title=" ">
<polygon fill="none" stroke="#bfbfbf" points="422.34,-120.5 422.34,-140.5 584.34,-140.5 584.34,-120.5 422.34,-120.5"/>
<text text-anchor="middle" x="503.34" y="-127.7" font-family="-apple-system,BlinkMacSystemFont,'SegoeUI',Roboto,Oxygen,Ubuntu,Cantarell,'FiraSans','DroidSans','HelveticaNeue',sans-serif" font-size="11.00">libmirai/Utils/Common.hpp</text>
</a>
</g>
</g>
<!-- Node1&#45;&gt;Node12 -->
<g id="edge11" class="edge">
<title>Node1&#45;&gt;Node12</title>
<path fill="none" stroke="midnightblue" d="M389.62,-183.39C416.87,-170.95 450.52,-155.6 474.12,-144.83"/>
<polygon fill="midnightblue" stroke="midnightblue" points="475.61,-148 483.26,-140.66 472.71,-141.63 475.61,-148"/>
</g>
<!-- Node3 -->
<g id="node3" class="node">
<title>Node3</title>
<g id="a_node3"><a xlink:title=" ">
<polygon fill="none" stroke="#bfbfbf" points="81.34,-0.5 81.34,-20.5 129.34,-20.5 129.34,-0.5 81.34,-0.5"/>
<text text-anchor="middle" x="105.34" y="-7.7" font-family="-apple-system,BlinkMacSystemFont,'SegoeUI',Roboto,Oxygen,Ubuntu,Cantarell,'FiraSans','DroidSans','HelveticaNeue',sans-serif" font-size="11.00">string</text>
</a>
</g>
</g>
<!-- Node2&#45;&gt;Node3 -->
<g id="edge2" class="edge">
<title>Node2&#45;&gt;Node3</title>
<path fill="none" stroke="midnightblue" d="M103.69,-116.05C62.19,-107.31 17.74,-94.47 5.34,-78 -15.87,-49.83 34.58,-29.86 71.26,-19.55"/>
<polygon fill="midnightblue" stroke="midnightblue" points="72.42,-22.86 81.18,-16.9 70.61,-16.1 72.42,-22.86"/>
</g>
<!-- Node4 -->
<g id="node4" class="node">
<title>Node4</title>
<g id="a_node4"><a xlink:title=" ">
<polygon fill="none" stroke="#bfbfbf" points="190.34,-0.5 190.34,-20.5 336.34,-20.5 336.34,-0.5 190.34,-0.5"/>
<text text-anchor="middle" x="263.34" y="-7.7" font-family="-apple-system,BlinkMacSystemFont,'SegoeUI',Roboto,Oxygen,Ubuntu,Cantarell,'FiraSans','DroidSans','HelveticaNeue',sans-serif" font-size="11.00">nlohmann/json_fwd.hpp</text>
</a>
</g>
</g>
<!-- Node2&#45;&gt;Node4 -->
<g id="edge3" class="edge">
<title>Node2&#45;&gt;Node4</title>
<path fill="none" stroke="midnightblue" d="M265.16,-116.97C287.33,-109.41 308.92,-97.33 322.34,-78 335.82,-58.59 312.06,-38.6 290.79,-25.68"/>
<polygon fill="midnightblue" stroke="midnightblue" points="292.36,-22.54 281.95,-20.6 288.87,-28.61 292.36,-22.54"/>
</g>
<!-- Node5 -->
<g id="node5" class="node">
<title>Node5</title>
<g id="a_node5"><a xlink:href="BasicTypes_8hpp.html" target="_top" xlink:title=" ">
<polygon fill="none" stroke="red" points="14.84,-57.5 14.84,-77.5 195.84,-77.5 195.84,-57.5 14.84,-57.5"/>
<text text-anchor="middle" x="105.34" y="-64.7" font-family="-apple-system,BlinkMacSystemFont,'SegoeUI',Roboto,Oxygen,Ubuntu,Cantarell,'FiraSans','DroidSans','HelveticaNeue',sans-serif" font-size="11.00">libmirai/Types/BasicTypes.hpp</text>
</a>
</g>
</g>
<!-- Node2&#45;&gt;Node5 -->
<g id="edge4" class="edge">
<title>Node2&#45;&gt;Node5</title>
<path fill="none" stroke="midnightblue" d="M164.81,-114.42C152.75,-105.11 137.32,-93.19 125.2,-83.84"/>
<polygon fill="midnightblue" stroke="midnightblue" points="127.11,-80.89 117.05,-77.55 122.83,-86.43 127.11,-80.89"/>
</g>
<!-- Node9 -->
<g id="node6" class="node">
<title>Node9</title>
<g id="a_node6"><a xlink:href="EventBase_8hpp.html" target="_top" xlink:title=" ">
<polygon fill="none" stroke="red" points="213.84,-57.5 213.84,-77.5 312.84,-77.5 312.84,-57.5 213.84,-57.5"/>
<text text-anchor="middle" x="263.34" y="-64.7" font-family="-apple-system,BlinkMacSystemFont,'SegoeUI',Roboto,Oxygen,Ubuntu,Cantarell,'FiraSans','DroidSans','HelveticaNeue',sans-serif" font-size="11.00">EventBase.hpp</text>
</a>
</g>
</g>
<!-- Node2&#45;&gt;Node9 -->
<g id="edge7" class="edge">
<title>Node2&#45;&gt;Node9</title>
<path fill="none" stroke="midnightblue" d="M203.87,-114.42C215.93,-105.11 231.36,-93.19 243.48,-83.84"/>
<polygon fill="midnightblue" stroke="midnightblue" points="245.85,-86.43 251.62,-77.55 241.57,-80.89 245.85,-86.43"/>
</g>
<!-- Node5&#45;&gt;Node3 -->
<g id="edge5" class="edge">
<title>Node5&#45;&gt;Node3</title>
<path fill="none" stroke="midnightblue" d="M105.34,-57.42C105.34,-50.22 105.34,-39.9 105.34,-30.86"/>
<polygon fill="midnightblue" stroke="midnightblue" points="108.84,-30.78 105.34,-20.78 101.84,-30.78 108.84,-30.78"/>
</g>
<!-- Node5&#45;&gt;Node4 -->
<g id="edge6" class="edge">
<title>Node5&#45;&gt;Node4</title>
<path fill="none" stroke="midnightblue" d="M131.43,-57.42C157.7,-48.27 198.4,-34.1 227.65,-23.92"/>
<polygon fill="midnightblue" stroke="midnightblue" points="229.18,-27.1 237.47,-20.5 226.88,-20.49 229.18,-27.1"/>
</g>
<!-- Node9&#45;&gt;Node3 -->
<g id="edge8" class="edge">
<title>Node9&#45;&gt;Node3</title>
<path fill="none" stroke="midnightblue" d="M237.25,-57.42C210.43,-48.08 168.57,-33.51 139.21,-23.29"/>
<polygon fill="midnightblue" stroke="midnightblue" points="139.99,-19.86 129.39,-19.87 137.69,-26.47 139.99,-19.86"/>
</g>
<!-- Node9&#45;&gt;Node4 -->
<g id="edge9" class="edge">
<title>Node9&#45;&gt;Node4</title>
<path fill="none" stroke="midnightblue" d="M263.34,-57.42C263.34,-50.22 263.34,-39.9 263.34,-30.86"/>
<polygon fill="midnightblue" stroke="midnightblue" points="266.84,-30.78 263.34,-20.78 259.84,-30.78 266.84,-30.78"/>
</g>
</g>
</svg>
