<?xml version="1.0" encoding="UTF-8" standalone="no"?>
<!DOCTYPE svg PUBLIC "-//W3C//DTD SVG 1.1//EN"
 "http://www.w3.org/Graphics/SVG/1.1/DTD/svg11.dtd">
<!-- Generated by graphviz version 2.43.0 (0)
 -->
<!-- Title: libmirai/public/libmirai/Events/FriendSyncMessageEvent.hpp Pages: 1 -->
<svg width="388pt" height="179pt"
 viewBox="0.00 0.00 387.50 179.00" xmlns="http://www.w3.org/2000/svg" xmlns:xlink="http://www.w3.org/1999/xlink">
<g id="graph0" class="graph" transform="scale(1 1) rotate(0) translate(4 175)">
<title>libmirai/public/libmirai/Events/FriendSyncMessageEvent.hpp</title>
<!-- Node1 -->
<g id="node1" class="node">
<title>Node1</title>
<g id="a_node1"><a xlink:title=" ">
<polygon fill="#bfbfbf" stroke="black" points="55,-138.5 55,-170.5 280,-170.5 280,-138.5 55,-138.5"/>
<text text-anchor="start" x="63" y="-157.7" font-family="-apple-system,BlinkMacSystemFont,'SegoeUI',Roboto,Oxygen,Ubuntu,Cantarell,'FiraSans','DroidSans','HelveticaNeue',sans-serif" font-size="11.00">libmirai/public/libmirai</text>
<text text-anchor="middle" x="167.5" y="-145.7" font-family="-apple-system,BlinkMacSystemFont,'SegoeUI',Roboto,Oxygen,Ubuntu,Cantarell,'FiraSans','DroidSans','HelveticaNeue',sans-serif" font-size="11.00">/Events/FriendSyncMessageEvent.hpp</text>
</a>
</g>
</g>
<!-- Node2 -->
<g id="node2" class="node">
<title>Node2</title>
<g id="a_node2"><a xlink:href="Events_8hpp.html" target="_top" xlink:title=" ">
<polygon fill="none" stroke="black" points="0,-69.5 0,-101.5 137,-101.5 137,-69.5 0,-69.5"/>
<text text-anchor="start" x="8" y="-88.7" font-family="-apple-system,BlinkMacSystemFont,'SegoeUI',Roboto,Oxygen,Ubuntu,Cantarell,'FiraSans','DroidSans','HelveticaNeue',sans-serif" font-size="11.00">libmirai/public/libmirai</text>
<text text-anchor="middle" x="68.5" y="-76.7" font-family="-apple-system,BlinkMacSystemFont,'SegoeUI',Roboto,Oxygen,Ubuntu,Cantarell,'FiraSans','DroidSans','HelveticaNeue',sans-serif" font-size="11.00">/Events/Events.hpp</text>
</a>
</g>
</g>
<!-- Node1&#45;&gt;Node2 -->
<g id="edge1" class="edge">
<title>Node1&#45;&gt;Node2</title>
<path fill="none" stroke="midnightblue" d="M136.66,-132.63C121.84,-122.6 104.4,-110.8 90.88,-101.64"/>
<polygon fill="midnightblue" stroke="midnightblue" points="134.79,-135.59 145.04,-138.3 138.72,-129.79 134.79,-135.59"/>
</g>
<!-- Node5 -->
<g id="node4" class="node">
<title>Node5</title>
<g id="a_node4"><a xlink:href="FriendSyncMessageEvent_8cpp.html" target="_top" xlink:title=" ">
<polygon fill="none" stroke="black" points="155.5,-69.5 155.5,-101.5 379.5,-101.5 379.5,-69.5 155.5,-69.5"/>
<text text-anchor="start" x="163.5" y="-88.7" font-family="-apple-system,BlinkMacSystemFont,'SegoeUI',Roboto,Oxygen,Ubuntu,Cantarell,'FiraSans','DroidSans','HelveticaNeue',sans-serif" font-size="11.00">libmirai/public/libmirai</text>
<text text-anchor="middle" x="267.5" y="-76.7" font-family="-apple-system,BlinkMacSystemFont,'SegoeUI',Roboto,Oxygen,Ubuntu,Cantarell,'FiraSans','DroidSans','HelveticaNeue',sans-serif" font-size="11.00">/Events/FriendSyncMessageEvent.cpp</text>
</a>
</g>
</g>
<!-- Node1&#45;&gt;Node5 -->
<g id="edge3" class="edge">
<title>Node1&#45;&gt;Node5</title>
<path fill="none" stroke="midnightblue" d="M198.65,-132.63C213.62,-122.6 231.23,-110.8 244.9,-101.64"/>
<polygon fill="midnightblue" stroke="midnightblue" points="196.55,-129.82 190.19,-138.3 200.45,-135.64 196.55,-129.82"/>
</g>
<!-- Node3 -->
<g id="node3" class="node">
<title>Node3</title>
<g id="a_node3"><a xlink:href="mirai_8hpp.html" target="_top" xlink:title=" ">
<polygon fill="none" stroke="red" points="0,-0.5 0,-32.5 137,-32.5 137,-0.5 0,-0.5"/>
<text text-anchor="start" x="8" y="-19.7" font-family="-apple-system,BlinkMacSystemFont,'SegoeUI',Roboto,Oxygen,Ubuntu,Cantarell,'FiraSans','DroidSans','HelveticaNeue',sans-serif" font-size="11.00">libmirai/public/libmirai</text>
<text text-anchor="middle" x="68.5" y="-7.7" font-family="-apple-system,BlinkMacSystemFont,'SegoeUI',Roboto,Oxygen,Ubuntu,Cantarell,'FiraSans','DroidSans','HelveticaNeue',sans-serif" font-size="11.00">/mirai.hpp</text>
</a>
</g>
</g>
<!-- Node2&#45;&gt;Node3 -->
<g id="edge2" class="edge">
<title>Node2&#45;&gt;Node3</title>
<path fill="none" stroke="midnightblue" d="M68.5,-59.02C68.5,-50.13 68.5,-40.43 68.5,-32.64"/>
<polygon fill="midnightblue" stroke="midnightblue" points="65,-59.3 68.5,-69.3 72,-59.3 65,-59.3"/>
</g>
</g>
</svg>
