<?xml version="1.0" encoding="UTF-8" standalone="no"?>
<!DOCTYPE svg PUBLIC "-//W3C//DTD SVG 1.1//EN"
 "http://www.w3.org/Graphics/SVG/1.1/DTD/svg11.dtd">
<!-- Generated by graphviz version 2.43.0 (0)
 -->
<!-- Title: libmirai/public/libmirai/Events/FriendRecallEvent.hpp Pages: 1 -->
<svg width="571pt" height="212pt"
 viewBox="0.00 0.00 570.73 212.00" xmlns="http://www.w3.org/2000/svg" xmlns:xlink="http://www.w3.org/1999/xlink">
<g id="graph0" class="graph" transform="scale(1 1) rotate(0) translate(4 208)">
<title>libmirai/public/libmirai/Events/FriendRecallEvent.hpp</title>
<!-- Node1 -->
<g id="node1" class="node">
<title>Node1</title>
<g id="a_node1"><a xlink:title=" ">
<polygon fill="#bfbfbf" stroke="black" points="70.23,-171.5 70.23,-203.5 253.23,-203.5 253.23,-171.5 70.23,-171.5"/>
<text text-anchor="start" x="78.23" y="-190.7" font-family="-apple-system,BlinkMacSystemFont,'SegoeUI',Roboto,Oxygen,Ubuntu,Cantarell,'FiraSans','DroidSans','HelveticaNeue',sans-serif" font-size="11.00">libmirai/public/libmirai</text>
<text text-anchor="middle" x="161.73" y="-178.7" font-family="-apple-system,BlinkMacSystemFont,'SegoeUI',Roboto,Oxygen,Ubuntu,Cantarell,'FiraSans','DroidSans','HelveticaNeue',sans-serif" font-size="11.00">/Events/FriendRecallEvent.hpp</text>
</a>
</g>
</g>
<!-- Node2 -->
<g id="node2" class="node">
<title>Node2</title>
<g id="a_node2"><a xlink:title=" ">
<polygon fill="none" stroke="#bfbfbf" points="19.23,-57.5 19.23,-77.5 66.23,-77.5 66.23,-57.5 19.23,-57.5"/>
<text text-anchor="middle" x="42.73" y="-64.7" font-family="-apple-system,BlinkMacSystemFont,'SegoeUI',Roboto,Oxygen,Ubuntu,Cantarell,'FiraSans','DroidSans','HelveticaNeue',sans-serif" font-size="11.00">ctime</text>
</a>
</g>
</g>
<!-- Node1&#45;&gt;Node2 -->
<g id="edge1" class="edge">
<title>Node1&#45;&gt;Node2</title>
<path fill="none" stroke="midnightblue" d="M114.28,-171.45C95.54,-163.35 75.28,-151.54 61.73,-135 50.79,-121.67 46.15,-102.36 44.18,-87.99"/>
<polygon fill="midnightblue" stroke="midnightblue" points="47.62,-87.3 43.1,-77.72 40.66,-88.03 47.62,-87.3"/>
</g>
<!-- Node3 -->
<g id="node3" class="node">
<title>Node3</title>
<g id="a_node3"><a xlink:title=" ">
<polygon fill="none" stroke="#bfbfbf" points="396.73,-57.5 396.73,-77.5 444.73,-77.5 444.73,-57.5 396.73,-57.5"/>
<text text-anchor="middle" x="420.73" y="-64.7" font-family="-apple-system,BlinkMacSystemFont,'SegoeUI',Roboto,Oxygen,Ubuntu,Cantarell,'FiraSans','DroidSans','HelveticaNeue',sans-serif" font-size="11.00">string</text>
</a>
</g>
</g>
<!-- Node1&#45;&gt;Node3 -->
<g id="edge2" class="edge">
<title>Node1&#45;&gt;Node3</title>
<path fill="none" stroke="midnightblue" d="M194.79,-171.44C245.82,-148.18 342.95,-103.93 391.53,-81.8"/>
<polygon fill="midnightblue" stroke="midnightblue" points="393.2,-84.89 400.85,-77.55 390.3,-78.52 393.2,-84.89"/>
</g>
<!-- Node4 -->
<g id="node4" class="node">
<title>Node4</title>
<g id="a_node4"><a xlink:title=" ">
<polygon fill="none" stroke="#bfbfbf" points="117.73,-0.5 117.73,-20.5 263.73,-20.5 263.73,-0.5 117.73,-0.5"/>
<text text-anchor="middle" x="190.73" y="-7.7" font-family="-apple-system,BlinkMacSystemFont,'SegoeUI',Roboto,Oxygen,Ubuntu,Cantarell,'FiraSans','DroidSans','HelveticaNeue',sans-serif" font-size="11.00">nlohmann/json_fwd.hpp</text>
</a>
</g>
</g>
<!-- Node1&#45;&gt;Node4 -->
<g id="edge3" class="edge">
<title>Node1&#45;&gt;Node4</title>
<path fill="none" stroke="midnightblue" d="M117.91,-171.5C60.59,-149.51 -28.33,-105.8 9.73,-57 22.36,-40.8 66.9,-29.48 108.64,-22.19"/>
<polygon fill="midnightblue" stroke="midnightblue" points="109.32,-25.62 118.6,-20.51 108.16,-18.72 109.32,-25.62"/>
</g>
<!-- Node5 -->
<g id="node5" class="node">
<title>Node5</title>
<g id="a_node5"><a xlink:href="BasicTypes_8hpp.html" target="_top" xlink:title=" ">
<polygon fill="none" stroke="black" points="71.23,-114.5 71.23,-134.5 252.23,-134.5 252.23,-114.5 71.23,-114.5"/>
<text text-anchor="middle" x="161.73" y="-121.7" font-family="-apple-system,BlinkMacSystemFont,'SegoeUI',Roboto,Oxygen,Ubuntu,Cantarell,'FiraSans','DroidSans','HelveticaNeue',sans-serif" font-size="11.00">libmirai/Types/BasicTypes.hpp</text>
</a>
</g>
</g>
<!-- Node1&#45;&gt;Node5 -->
<g id="edge4" class="edge">
<title>Node1&#45;&gt;Node5</title>
<path fill="none" stroke="midnightblue" d="M161.73,-171.42C161.73,-163.38 161.73,-153.39 161.73,-144.78"/>
<polygon fill="midnightblue" stroke="midnightblue" points="165.23,-144.55 161.73,-134.55 158.23,-144.55 165.23,-144.55"/>
</g>
<!-- Node8 -->
<g id="node8" class="node">
<title>Node8</title>
<g id="a_node8"><a xlink:href="EventBase_8hpp.html" target="_top" xlink:title=" ">
<polygon fill="none" stroke="black" points="397.23,-114.5 397.23,-134.5 496.23,-134.5 496.23,-114.5 397.23,-114.5"/>
<text text-anchor="middle" x="446.73" y="-121.7" font-family="-apple-system,BlinkMacSystemFont,'SegoeUI',Roboto,Oxygen,Ubuntu,Cantarell,'FiraSans','DroidSans','HelveticaNeue',sans-serif" font-size="11.00">EventBase.hpp</text>
</a>
</g>
</g>
<!-- Node1&#45;&gt;Node8 -->
<g id="edge11" class="edge">
<title>Node1&#45;&gt;Node8</title>
<path fill="none" stroke="midnightblue" d="M231.81,-171.5C282.07,-160.74 348.7,-146.48 394.37,-136.71"/>
<polygon fill="midnightblue" stroke="midnightblue" points="395.31,-140.09 404.35,-134.57 393.84,-133.24 395.31,-140.09"/>
</g>
<!-- Node5&#45;&gt;Node2 -->
<g id="edge6" class="edge">
<title>Node5&#45;&gt;Node2</title>
<path fill="none" stroke="midnightblue" d="M142.08,-114.42C122.87,-105.54 93.41,-91.93 71.55,-81.82"/>
<polygon fill="midnightblue" stroke="midnightblue" points="72.95,-78.61 62.41,-77.6 70.01,-84.97 72.95,-78.61"/>
</g>
<!-- Node5&#45;&gt;Node3 -->
<g id="edge7" class="edge">
<title>Node5&#45;&gt;Node3</title>
<path fill="none" stroke="midnightblue" d="M212,-114.42C257.75,-105.9 327.05,-92.35 386.73,-78 386.83,-77.98 386.93,-77.95 387.03,-77.93"/>
<polygon fill="midnightblue" stroke="midnightblue" points="387.82,-81.34 396.64,-75.46 386.08,-74.56 387.82,-81.34"/>
</g>
<!-- Node5&#45;&gt;Node4 -->
<g id="edge8" class="edge">
<title>Node5&#45;&gt;Node4</title>
<path fill="none" stroke="midnightblue" d="M146.95,-114.45C128.65,-102.04 101.31,-78.77 113.73,-57 122.06,-42.4 137.12,-32.01 151.72,-24.88"/>
<polygon fill="midnightblue" stroke="midnightblue" points="153.48,-27.93 161.18,-20.65 150.62,-21.54 153.48,-27.93"/>
</g>
<!-- Node6 -->
<g id="node6" class="node">
<title>Node6</title>
<g id="a_node6"><a xlink:title=" ">
<polygon fill="none" stroke="#bfbfbf" points="122.73,-57.5 122.73,-77.5 176.73,-77.5 176.73,-57.5 122.73,-57.5"/>
<text text-anchor="middle" x="149.73" y="-64.7" font-family="-apple-system,BlinkMacSystemFont,'SegoeUI',Roboto,Oxygen,Ubuntu,Cantarell,'FiraSans','DroidSans','HelveticaNeue',sans-serif" font-size="11.00">chrono</text>
</a>
</g>
</g>
<!-- Node5&#45;&gt;Node6 -->
<g id="edge5" class="edge">
<title>Node5&#45;&gt;Node6</title>
<path fill="none" stroke="midnightblue" d="M159.74,-114.42C158.16,-107.14 155.87,-96.67 153.89,-87.57"/>
<polygon fill="midnightblue" stroke="midnightblue" points="157.3,-86.8 151.75,-77.78 150.46,-88.3 157.3,-86.8"/>
</g>
<!-- Node7 -->
<g id="node7" class="node">
<title>Node7</title>
<g id="a_node7"><a xlink:href="Serializable_8hpp.html" target="_top" xlink:title=" ">
<polygon fill="none" stroke="black" points="195.23,-57.5 195.23,-77.5 378.23,-77.5 378.23,-57.5 195.23,-57.5"/>
<text text-anchor="middle" x="286.73" y="-64.7" font-family="-apple-system,BlinkMacSystemFont,'SegoeUI',Roboto,Oxygen,Ubuntu,Cantarell,'FiraSans','DroidSans','HelveticaNeue',sans-serif" font-size="11.00">libmirai/Types/Serializable.hpp</text>
</a>
</g>
</g>
<!-- Node5&#45;&gt;Node7 -->
<g id="edge9" class="edge">
<title>Node5&#45;&gt;Node7</title>
<path fill="none" stroke="midnightblue" d="M182.37,-114.42C202.63,-105.5 233.76,-91.8 256.75,-81.69"/>
<polygon fill="midnightblue" stroke="midnightblue" points="258.31,-84.83 266.05,-77.6 255.49,-78.42 258.31,-84.83"/>
</g>
<!-- Node7&#45;&gt;Node4 -->
<g id="edge10" class="edge">
<title>Node7&#45;&gt;Node4</title>
<path fill="none" stroke="midnightblue" d="M270.87,-57.42C255.87,-48.82 233.1,-35.78 215.66,-25.78"/>
<polygon fill="midnightblue" stroke="midnightblue" points="217.02,-22.53 206.6,-20.6 213.54,-28.6 217.02,-22.53"/>
</g>
<!-- Node8&#45;&gt;Node3 -->
<g id="edge13" class="edge">
<title>Node8&#45;&gt;Node3</title>
<path fill="none" stroke="midnightblue" d="M442.43,-114.42C438.92,-106.98 433.83,-96.21 429.46,-86.97"/>
<polygon fill="midnightblue" stroke="midnightblue" points="432.55,-85.32 425.11,-77.78 426.22,-88.32 432.55,-85.32"/>
</g>
<!-- Node8&#45;&gt;Node4 -->
<g id="edge14" class="edge">
<title>Node8&#45;&gt;Node4</title>
<path fill="none" stroke="midnightblue" d="M451.55,-114.09C458.05,-99.96 467.33,-73.16 453.73,-57 431.02,-30.03 342.36,-19.04 274.19,-14.57"/>
<polygon fill="midnightblue" stroke="midnightblue" points="274.07,-11.06 263.87,-13.93 273.63,-18.04 274.07,-11.06"/>
</g>
<!-- Node9 -->
<g id="node9" class="node">
<title>Node9</title>
<g id="a_node9"><a xlink:title=" ">
<polygon fill="none" stroke="#bfbfbf" points="500.73,-57.5 500.73,-77.5 562.73,-77.5 562.73,-57.5 500.73,-57.5"/>
<text text-anchor="middle" x="531.73" y="-64.7" font-family="-apple-system,BlinkMacSystemFont,'SegoeUI',Roboto,Oxygen,Ubuntu,Cantarell,'FiraSans','DroidSans','HelveticaNeue',sans-serif" font-size="11.00">memory</text>
</a>
</g>
</g>
<!-- Node8&#45;&gt;Node9 -->
<g id="edge12" class="edge">
<title>Node8&#45;&gt;Node9</title>
<path fill="none" stroke="midnightblue" d="M460.76,-114.42C473.93,-105.9 493.84,-93.02 509.22,-83.06"/>
<polygon fill="midnightblue" stroke="midnightblue" points="511.17,-85.97 517.67,-77.6 507.37,-80.09 511.17,-85.97"/>
</g>
</g>
</svg>
