<?xml version="1.0" encoding="UTF-8" standalone="no"?>
<!DOCTYPE svg PUBLIC "-//W3C//DTD SVG 1.1//EN"
 "http://www.w3.org/Graphics/SVG/1.1/DTD/svg11.dtd">
<!-- Generated by graphviz version 3.0.0 (20220413.0242)
 -->
<!-- Title: libmirai/public/libmirai/Events/FriendMessageEvent.hpp Pages: 1 -->
<svg width="1934pt" height="350pt"
 viewBox="0.00 0.00 1934.08 350.00" xmlns="http://www.w3.org/2000/svg" xmlns:xlink="http://www.w3.org/1999/xlink">
<g id="graph0" class="graph" transform="scale(1 1) rotate(0) translate(4 346)">
<title>libmirai/public/libmirai/Events/FriendMessageEvent.hpp</title>
<!-- Node1 -->
<g id="node1" class="node">
<title>Node1</title>
<g id="a_node1"><a xlink:title=" ">
<polygon fill="#bfbfbf" stroke="black" points="1010.7,-309.5 1010.7,-341.5 1187.7,-341.5 1187.7,-309.5 1010.7,-309.5"/>
<text text-anchor="start" x="1018.7" y="-328.7" font-family="-apple-system, BlinkMacSystemFont, 'Segoe UI', Roboto, Oxygen, Ubuntu, Cantarell, 'Fira Sans', 'Droid Sans', 'Helvetica Neue', sans-serif" font-size="11.00">libmirai/public/libmirai</text>
<text text-anchor="middle" x="1099.2" y="-316.7" font-family="-apple-system, BlinkMacSystemFont, 'Segoe UI', Roboto, Oxygen, Ubuntu, Cantarell, 'Fira Sans', 'Droid Sans', 'Helvetica Neue', sans-serif" font-size="11.00">/Events/FriendMessageEvent.hpp</text>
</a>
</g>
</g>
<!-- Node2 -->
<g id="node2" class="node">
<title>Node2</title>
<g id="a_node2"><a xlink:title=" ">
<polygon fill="none" stroke="#bfbfbf" points="810.7,-0.5 810.7,-20.5 853.7,-20.5 853.7,-0.5 810.7,-0.5"/>
<text text-anchor="middle" x="832.2" y="-7.7" font-family="-apple-system, BlinkMacSystemFont, 'Segoe UI', Roboto, Oxygen, Ubuntu, Cantarell, 'Fira Sans', 'Droid Sans', 'Helvetica Neue', sans-serif" font-size="11.00">string</text>
</a>
</g>
</g>
<!-- Node1&#45;&gt;Node2 -->
<g id="edge1" class="edge">
<title>Node1&#45;&gt;Node2</title>
<path fill="none" stroke="midnightblue" d="M1010.32,-322.33C786.59,-314.72 210.41,-281.04 104.2,-135 98.72,-127.45 98.99,-121.74 104.2,-114 128.06,-78.62 154.68,-96.35 193.2,-78 210.63,-69.7 212.72,-62.52 231.2,-57 339.29,-24.72 691.58,-14.54 800.09,-12.13"/>
<polygon fill="midnightblue" stroke="midnightblue" points="800.47,-15.62 810.39,-11.91 800.32,-8.62 800.47,-15.62"/>
</g>
<!-- Node3 -->
<g id="node3" class="node">
<title>Node3</title>
<g id="a_node3"><a xlink:title=" ">
<polygon fill="none" stroke="#bfbfbf" points="1078.7,-0.5 1078.7,-20.5 1209.7,-20.5 1209.7,-0.5 1078.7,-0.5"/>
<text text-anchor="middle" x="1144.2" y="-7.7" font-family="-apple-system, BlinkMacSystemFont, 'Segoe UI', Roboto, Oxygen, Ubuntu, Cantarell, 'Fira Sans', 'Droid Sans', 'Helvetica Neue', sans-serif" font-size="11.00">nlohmann/json_fwd.hpp</text>
</a>
</g>
</g>
<!-- Node1&#45;&gt;Node3 -->
<g id="edge2" class="edge">
<title>Node1&#45;&gt;Node3</title>
<path fill="none" stroke="midnightblue" d="M1187.9,-321.58C1294.02,-316.79 1476.62,-304.39 1630.2,-273 1729.77,-252.65 1760.8,-255.84 1848.2,-204 1886.33,-181.39 1902.81,-175.77 1920.2,-135 1937.92,-93.5 1896.91,-74.24 1855.2,-57 1797.69,-33.23 1391.15,-18.71 1219.93,-13.59"/>
<polygon fill="midnightblue" stroke="midnightblue" points="1219.84,-10.09 1209.74,-13.29 1219.63,-17.08 1219.84,-10.09"/>
</g>
<!-- Node4 -->
<g id="node4" class="node">
<title>Node4</title>
<g id="a_node4"><a xlink:href="MessageChain_8hpp.html" target="_top" xlink:title=" ">
<polygon fill="none" stroke="black" points="1024.7,-240.5 1024.7,-272.5 1173.7,-272.5 1173.7,-240.5 1024.7,-240.5"/>
<text text-anchor="start" x="1032.7" y="-259.7" font-family="-apple-system, BlinkMacSystemFont, 'Segoe UI', Roboto, Oxygen, Ubuntu, Cantarell, 'Fira Sans', 'Droid Sans', 'Helvetica Neue', sans-serif" font-size="11.00">libmirai/Messages/Message</text>
<text text-anchor="middle" x="1099.2" y="-247.7" font-family="-apple-system, BlinkMacSystemFont, 'Segoe UI', Roboto, Oxygen, Ubuntu, Cantarell, 'Fira Sans', 'Droid Sans', 'Helvetica Neue', sans-serif" font-size="11.00">Chain.hpp</text>
</a>
</g>
</g>
<!-- Node1&#45;&gt;Node4 -->
<g id="edge3" class="edge">
<title>Node1&#45;&gt;Node4</title>
<path fill="none" stroke="midnightblue" d="M1099.2,-309.3C1099.2,-301.5 1099.2,-291.8 1099.2,-282.91"/>
<polygon fill="midnightblue" stroke="midnightblue" points="1102.71,-282.64 1099.2,-272.64 1095.71,-282.64 1102.71,-282.64"/>
</g>
<!-- Node19 -->
<g id="node18" class="node">
<title>Node19</title>
<g id="a_node18"><a xlink:href="BasicTypes_8hpp.html" target="_top" xlink:title=" ">
<polygon fill="none" stroke="red" points="1666.2,-57.5 1666.2,-77.5 1828.2,-77.5 1828.2,-57.5 1666.2,-57.5"/>
<text text-anchor="middle" x="1747.2" y="-64.7" font-family="-apple-system, BlinkMacSystemFont, 'Segoe UI', Roboto, Oxygen, Ubuntu, Cantarell, 'Fira Sans', 'Droid Sans', 'Helvetica Neue', sans-serif" font-size="11.00">libmirai/Types/BasicTypes.hpp</text>
</a>
</g>
</g>
<!-- Node1&#45;&gt;Node19 -->
<g id="edge83" class="edge">
<title>Node1&#45;&gt;Node19</title>
<path fill="none" stroke="midnightblue" d="M1187.77,-317.97C1379.25,-301.73 1821.16,-252.08 1903.2,-135 1925.32,-103.44 1884.04,-86.77 1838.4,-78.01"/>
<polygon fill="midnightblue" stroke="midnightblue" points="1838.77,-74.52 1828.31,-76.21 1837.54,-81.41 1838.77,-74.52"/>
</g>
<!-- Node33 -->
<g id="node29" class="node">
<title>Node33</title>
<g id="a_node29"><a xlink:href="EventBase_8hpp.html" target="_top" xlink:title=" ">
<polygon fill="none" stroke="black" points="95.7,-57.5 95.7,-77.5 184.7,-77.5 184.7,-57.5 95.7,-57.5"/>
<text text-anchor="middle" x="140.2" y="-64.7" font-family="-apple-system, BlinkMacSystemFont, 'Segoe UI', Roboto, Oxygen, Ubuntu, Cantarell, 'Fira Sans', 'Droid Sans', 'Helvetica Neue', sans-serif" font-size="11.00">EventBase.hpp</text>
</a>
</g>
</g>
<!-- Node1&#45;&gt;Node33 -->
<g id="edge84" class="edge">
<title>Node1&#45;&gt;Node33</title>
<path fill="none" stroke="midnightblue" d="M1010.68,-323.51C760.93,-320.28 66.72,-308.17 33.2,-273 -15.54,-221.84 -5.78,-172.94 33.2,-114 45.12,-95.99 65.77,-85.08 85.76,-78.49"/>
<polygon fill="midnightblue" stroke="midnightblue" points="86.9,-81.8 95.49,-75.59 84.9,-75.1 86.9,-81.8"/>
</g>
<!-- Node4&#45;&gt;Node3 -->
<g id="edge12" class="edge">
<title>Node4&#45;&gt;Node3</title>
<path fill="none" stroke="midnightblue" d="M1173.93,-253.05C1304.26,-247.99 1561.96,-234.25 1589.2,-204 1645.26,-141.74 1549.94,-85.64 1471.2,-57 1388.59,-26.94 1287.59,-16.57 1219.89,-13.08"/>
<polygon fill="midnightblue" stroke="midnightblue" points="1219.89,-9.58 1209.74,-12.6 1219.56,-16.57 1219.89,-9.58"/>
</g>
<!-- Node5 -->
<g id="node5" class="node">
<title>Node5</title>
<g id="a_node5"><a xlink:title=" ">
<polygon fill="none" stroke="#bfbfbf" points="1000.7,-177.5 1000.7,-197.5 1051.7,-197.5 1051.7,-177.5 1000.7,-177.5"/>
<text text-anchor="middle" x="1026.2" y="-184.7" font-family="-apple-system, BlinkMacSystemFont, 'Segoe UI', Roboto, Oxygen, Ubuntu, Cantarell, 'Fira Sans', 'Droid Sans', 'Helvetica Neue', sans-serif" font-size="11.00">cstddef</text>
</a>
</g>
</g>
<!-- Node4&#45;&gt;Node5 -->
<g id="edge4" class="edge">
<title>Node4&#45;&gt;Node5</title>
<path fill="none" stroke="midnightblue" d="M1082.64,-240.3C1071.02,-229.63 1055.51,-215.4 1043.69,-204.55"/>
<polygon fill="midnightblue" stroke="midnightblue" points="1045.92,-201.85 1036.19,-197.66 1041.19,-207.01 1045.92,-201.85"/>
</g>
<!-- Node6 -->
<g id="node6" class="node">
<title>Node6</title>
<g id="a_node6"><a xlink:title=" ">
<polygon fill="none" stroke="#bfbfbf" points="1856.2,-0.5 1856.2,-20.5 1898.2,-20.5 1898.2,-0.5 1856.2,-0.5"/>
<text text-anchor="middle" x="1877.2" y="-7.7" font-family="-apple-system, BlinkMacSystemFont, 'Segoe UI', Roboto, Oxygen, Ubuntu, Cantarell, 'Fira Sans', 'Droid Sans', 'Helvetica Neue', sans-serif" font-size="11.00">ctime</text>
</a>
</g>
</g>
<!-- Node4&#45;&gt;Node6 -->
<g id="edge5" class="edge">
<title>Node4&#45;&gt;Node6</title>
<path fill="none" stroke="midnightblue" d="M1173.83,-254.41C1330.44,-251.41 1688.45,-240.65 1804.2,-204 1861.03,-186.01 1889.84,-186.87 1919.2,-135 1939.18,-99.72 1910.68,-53.39 1891.73,-28.72"/>
<polygon fill="midnightblue" stroke="midnightblue" points="1894.27,-26.29 1885.29,-20.67 1888.81,-30.66 1894.27,-26.29"/>
</g>
<!-- Node7 -->
<g id="node7" class="node">
<title>Node7</title>
<g id="a_node7"><a xlink:title=" ">
<polygon fill="none" stroke="#bfbfbf" points="112.2,-0.5 112.2,-20.5 168.2,-20.5 168.2,-0.5 112.2,-0.5"/>
<text text-anchor="middle" x="140.2" y="-7.7" font-family="-apple-system, BlinkMacSystemFont, 'Segoe UI', Roboto, Oxygen, Ubuntu, Cantarell, 'Fira Sans', 'Droid Sans', 'Helvetica Neue', sans-serif" font-size="11.00">memory</text>
</a>
</g>
</g>
<!-- Node4&#45;&gt;Node7 -->
<g id="edge6" class="edge">
<title>Node4&#45;&gt;Node7</title>
<path fill="none" stroke="midnightblue" d="M1024.4,-252.93C855.98,-246.77 451.33,-229.73 317.2,-204 219.48,-185.25 174.31,-205.62 104.2,-135 79.14,-109.75 71.2,-89.26 86.2,-57 92.12,-44.28 103.53,-33.84 114.35,-26.19"/>
<polygon fill="midnightblue" stroke="midnightblue" points="116.34,-29.07 122.78,-20.65 112.5,-23.22 116.34,-29.07"/>
</g>
<!-- Node8 -->
<g id="node8" class="node">
<title>Node8</title>
<g id="a_node8"><a xlink:title=" ">
<polygon fill="none" stroke="#bfbfbf" points="1184.2,-177.5 1184.2,-197.5 1238.2,-197.5 1238.2,-177.5 1184.2,-177.5"/>
<text text-anchor="middle" x="1211.2" y="-184.7" font-family="-apple-system, BlinkMacSystemFont, 'Segoe UI', Roboto, Oxygen, Ubuntu, Cantarell, 'Fira Sans', 'Droid Sans', 'Helvetica Neue', sans-serif" font-size="11.00">optional</text>
</a>
</g>
</g>
<!-- Node4&#45;&gt;Node8 -->
<g id="edge7" class="edge">
<title>Node4&#45;&gt;Node8</title>
<path fill="none" stroke="midnightblue" d="M1124.34,-240.46C1143.21,-229.18 1168.88,-213.82 1187.41,-202.73"/>
<polygon fill="midnightblue" stroke="midnightblue" points="1189.35,-205.66 1196.13,-197.52 1185.75,-199.65 1189.35,-205.66"/>
</g>
<!-- Node9 -->
<g id="node9" class="node">
<title>Node9</title>
<g id="a_node9"><a xlink:title=" ">
<polygon fill="none" stroke="#bfbfbf" points="667.2,-114.5 667.2,-134.5 729.2,-134.5 729.2,-114.5 667.2,-114.5"/>
<text text-anchor="middle" x="698.2" y="-121.7" font-family="-apple-system, BlinkMacSystemFont, 'Segoe UI', Roboto, Oxygen, Ubuntu, Cantarell, 'Fira Sans', 'Droid Sans', 'Helvetica Neue', sans-serif" font-size="11.00">stdexcept</text>
</a>
</g>
</g>
<!-- Node4&#45;&gt;Node9 -->
<g id="edge8" class="edge">
<title>Node4&#45;&gt;Node9</title>
<path fill="none" stroke="midnightblue" d="M1097.03,-240.45C1093.36,-220.98 1083.96,-187.57 1061.2,-171 1005.17,-130.18 824.64,-145.95 739.69,-134.87"/>
<polygon fill="midnightblue" stroke="midnightblue" points="739.98,-131.37 729.57,-133.33 738.94,-138.29 739.98,-131.37"/>
</g>
<!-- Node10 -->
<g id="node10" class="node">
<title>Node10</title>
<g id="a_node10"><a xlink:title=" ">
<polygon fill="none" stroke="#bfbfbf" points="1294.2,-177.5 1294.2,-197.5 1360.2,-197.5 1360.2,-177.5 1294.2,-177.5"/>
<text text-anchor="middle" x="1327.2" y="-184.7" font-family="-apple-system, BlinkMacSystemFont, 'Segoe UI', Roboto, Oxygen, Ubuntu, Cantarell, 'Fira Sans', 'Droid Sans', 'Helvetica Neue', sans-serif" font-size="11.00">type_traits</text>
</a>
</g>
</g>
<!-- Node4&#45;&gt;Node10 -->
<g id="edge9" class="edge">
<title>Node4&#45;&gt;Node10</title>
<path fill="none" stroke="midnightblue" d="M1154.43,-240.42C1190.37,-230.46 1238.2,-216.9 1280.2,-204 1283.59,-202.96 1287.11,-201.85 1290.63,-200.73"/>
<polygon fill="midnightblue" stroke="midnightblue" points="1291.99,-203.96 1300.42,-197.54 1289.83,-197.3 1291.99,-203.96"/>
</g>
<!-- Node11 -->
<g id="node11" class="node">
<title>Node11</title>
<g id="a_node11"><a xlink:title=" ">
<polygon fill="none" stroke="#bfbfbf" points="1633.7,-0.5 1633.7,-20.5 1674.7,-20.5 1674.7,-0.5 1633.7,-0.5"/>
<text text-anchor="middle" x="1654.2" y="-7.7" font-family="-apple-system, BlinkMacSystemFont, 'Segoe UI', Roboto, Oxygen, Ubuntu, Cantarell, 'Fira Sans', 'Droid Sans', 'Helvetica Neue', sans-serif" font-size="11.00">utility</text>
</a>
</g>
</g>
<!-- Node4&#45;&gt;Node11 -->
<g id="edge10" class="edge">
<title>Node4&#45;&gt;Node11</title>
<path fill="none" stroke="midnightblue" d="M1173.87,-255.56C1290.4,-254.25 1522,-245.96 1713.2,-204 1800.96,-184.74 1851.65,-208.57 1903.2,-135 1917.15,-115.1 1900.37,-69.87 1886.2,-57 1857.02,-30.49 1740.98,-18.15 1684.88,-13.63"/>
<polygon fill="midnightblue" stroke="midnightblue" points="1685.06,-10.14 1674.82,-12.86 1684.52,-17.12 1685.06,-10.14"/>
</g>
<!-- Node12 -->
<g id="node12" class="node">
<title>Node12</title>
<g id="a_node12"><a xlink:title=" ">
<polygon fill="none" stroke="#bfbfbf" points="1534.2,-177.5 1534.2,-197.5 1580.2,-197.5 1580.2,-177.5 1534.2,-177.5"/>
<text text-anchor="middle" x="1557.2" y="-184.7" font-family="-apple-system, BlinkMacSystemFont, 'Segoe UI', Roboto, Oxygen, Ubuntu, Cantarell, 'Fira Sans', 'Droid Sans', 'Helvetica Neue', sans-serif" font-size="11.00">vector</text>
</a>
</g>
</g>
<!-- Node4&#45;&gt;Node12 -->
<g id="edge11" class="edge">
<title>Node4&#45;&gt;Node12</title>
<path fill="none" stroke="midnightblue" d="M1173.81,-253.9C1260.05,-250.36 1405.48,-239.17 1525.2,-204 1527.37,-203.36 1529.57,-202.59 1531.75,-201.74"/>
<polygon fill="midnightblue" stroke="midnightblue" points="1533.3,-204.88 1541.01,-197.62 1530.45,-198.49 1533.3,-204.88"/>
</g>
<!-- Node13 -->
<g id="node13" class="node">
<title>Node13</title>
<g id="a_node13"><a xlink:href="Exceptions_8hpp.html" target="_top" xlink:title=" ">
<polygon fill="none" stroke="black" points="645.7,-171.5 645.7,-203.5 750.7,-203.5 750.7,-171.5 645.7,-171.5"/>
<text text-anchor="start" x="653.7" y="-190.7" font-family="-apple-system, BlinkMacSystemFont, 'Segoe UI', Roboto, Oxygen, Ubuntu, Cantarell, 'Fira Sans', 'Droid Sans', 'Helvetica Neue', sans-serif" font-size="11.00">libmirai/Exceptions</text>
<text text-anchor="middle" x="698.2" y="-178.7" font-family="-apple-system, BlinkMacSystemFont, 'Segoe UI', Roboto, Oxygen, Ubuntu, Cantarell, 'Fira Sans', 'Droid Sans', 'Helvetica Neue', sans-serif" font-size="11.00">/Exceptions.hpp</text>
</a>
</g>
</g>
<!-- Node4&#45;&gt;Node13 -->
<g id="edge13" class="edge">
<title>Node4&#45;&gt;Node13</title>
<path fill="none" stroke="midnightblue" d="M1024.43,-244.92C957.83,-235.22 857.79,-219.98 771.2,-204 767.79,-203.37 764.29,-202.7 760.76,-202.01"/>
<polygon fill="midnightblue" stroke="midnightblue" points="761.26,-198.54 750.77,-200.01 759.89,-205.41 761.26,-198.54"/>
</g>
<!-- Node14 -->
<g id="node14" class="node">
<title>Node14</title>
<g id="a_node14"><a xlink:href="AppMessage_8hpp.html" target="_top" xlink:title=" ">
<polygon fill="none" stroke="black" points="547.7,-114.5 547.7,-134.5 648.7,-134.5 648.7,-114.5 547.7,-114.5"/>
<text text-anchor="middle" x="598.2" y="-121.7" font-family="-apple-system, BlinkMacSystemFont, 'Segoe UI', Roboto, Oxygen, Ubuntu, Cantarell, 'Fira Sans', 'Droid Sans', 'Helvetica Neue', sans-serif" font-size="11.00">AppMessage.hpp</text>
</a>
</g>
</g>
<!-- Node4&#45;&gt;Node14 -->
<g id="edge16" class="edge">
<title>Node4&#45;&gt;Node14</title>
<path fill="none" stroke="midnightblue" d="M1024.46,-247.47C968.28,-240.02 890.02,-226.59 824.2,-204 793.93,-193.61 789.98,-182.72 760.2,-171 723.9,-156.71 681.39,-144.95 649.02,-136.97"/>
<polygon fill="midnightblue" stroke="midnightblue" points="649.44,-133.46 638.89,-134.51 647.79,-140.27 649.44,-133.46"/>
</g>
<!-- Node15 -->
<g id="node15" class="node">
<title>Node15</title>
<g id="a_node15"><a xlink:href="MessageBase_8hpp.html" target="_top" xlink:title=" ">
<polygon fill="none" stroke="red" points="858.2,-57.5 858.2,-77.5 964.2,-77.5 964.2,-57.5 858.2,-57.5"/>
<text text-anchor="middle" x="911.2" y="-64.7" font-family="-apple-system, BlinkMacSystemFont, 'Segoe UI', Roboto, Oxygen, Ubuntu, Cantarell, 'Fira Sans', 'Droid Sans', 'Helvetica Neue', sans-serif" font-size="11.00">MessageBase.hpp</text>
</a>
</g>
</g>
<!-- Node4&#45;&gt;Node15 -->
<g id="edge64" class="edge">
<title>Node4&#45;&gt;Node15</title>
<path fill="none" stroke="midnightblue" d="M1041.35,-240.43C1015.51,-232.1 985.49,-220.13 961.2,-204 926.11,-180.69 911.75,-174.16 896.2,-135 890.01,-119.4 895.29,-100.67 901.22,-87.07"/>
<polygon fill="midnightblue" stroke="midnightblue" points="904.5,-88.33 905.71,-77.81 898.2,-85.28 904.5,-88.33"/>
</g>
<!-- Node17 -->
<g id="node16" class="node">
<title>Node17</title>
<g id="a_node16"><a xlink:href="AtAllMessage_8hpp.html" target="_top" xlink:title=" ">
<polygon fill="none" stroke="black" points="905.2,-114.5 905.2,-134.5 1009.2,-134.5 1009.2,-114.5 905.2,-114.5"/>
<text text-anchor="middle" x="957.2" y="-121.7" font-family="-apple-system, BlinkMacSystemFont, 'Segoe UI', Roboto, Oxygen, Ubuntu, Cantarell, 'Fira Sans', 'Droid Sans', 'Helvetica Neue', sans-serif" font-size="11.00">AtAllMessage.hpp</text>
</a>
</g>
</g>
<!-- Node4&#45;&gt;Node17 -->
<g id="edge23" class="edge">
<title>Node4&#45;&gt;Node17</title>
<path fill="none" stroke="midnightblue" d="M1039.86,-240.4C1019.2,-232.54 997.41,-220.92 982.2,-204 967.38,-187.51 961.34,-162.2 958.89,-144.8"/>
<polygon fill="midnightblue" stroke="midnightblue" points="962.34,-144.22 957.73,-134.69 955.39,-145.02 962.34,-144.22"/>
</g>
<!-- Node18 -->
<g id="node17" class="node">
<title>Node18</title>
<g id="a_node17"><a xlink:href="AtMessage_8hpp.html" target="_top" xlink:title=" ">
<polygon fill="none" stroke="black" points="1636.2,-114.5 1636.2,-134.5 1728.2,-134.5 1728.2,-114.5 1636.2,-114.5"/>
<text text-anchor="middle" x="1682.2" y="-121.7" font-family="-apple-system, BlinkMacSystemFont, 'Segoe UI', Roboto, Oxygen, Ubuntu, Cantarell, 'Fira Sans', 'Droid Sans', 'Helvetica Neue', sans-serif" font-size="11.00">AtMessage.hpp</text>
</a>
</g>
</g>
<!-- Node4&#45;&gt;Node18 -->
<g id="edge27" class="edge">
<title>Node4&#45;&gt;Node18</title>
<path fill="none" stroke="midnightblue" d="M1173.94,-255.37C1299.69,-253.97 1547.18,-245.79 1622.2,-204 1646.59,-190.42 1664.22,-162.38 1673.83,-143.75"/>
<polygon fill="midnightblue" stroke="midnightblue" points="1676.98,-145.28 1678.22,-134.76 1670.69,-142.21 1676.98,-145.28"/>
</g>
<!-- Node21 -->
<g id="node19" class="node">
<title>Node21</title>
<g id="a_node19"><a xlink:href="AudioMessage_8hpp.html" target="_top" xlink:title=" ">
<polygon fill="none" stroke="red" points="1784.7,-114.5 1784.7,-134.5 1893.7,-134.5 1893.7,-114.5 1784.7,-114.5"/>
<text text-anchor="middle" x="1839.2" y="-121.7" font-family="-apple-system, BlinkMacSystemFont, 'Segoe UI', Roboto, Oxygen, Ubuntu, Cantarell, 'Fira Sans', 'Droid Sans', 'Helvetica Neue', sans-serif" font-size="11.00">AudioMessage.hpp</text>
</a>
</g>
</g>
<!-- Node4&#45;&gt;Node21 -->
<g id="edge36" class="edge">
<title>Node4&#45;&gt;Node21</title>
<path fill="none" stroke="midnightblue" d="M1173.9,-255.75C1281.47,-254.51 1485.51,-246.11 1653.2,-204 1712.87,-189.02 1778.14,-157.68 1813.29,-139.46"/>
<polygon fill="midnightblue" stroke="midnightblue" points="1815.15,-142.44 1822.38,-134.69 1811.9,-136.24 1815.15,-142.44"/>
</g>
<!-- Node23 -->
<g id="node20" class="node">
<title>Node23</title>
<g id="a_node20"><a xlink:href="DiceMessage_8hpp.html" target="_top" xlink:title=" ">
<polygon fill="none" stroke="black" points="747.2,-114.5 747.2,-134.5 849.2,-134.5 849.2,-114.5 747.2,-114.5"/>
<text text-anchor="middle" x="798.2" y="-121.7" font-family="-apple-system, BlinkMacSystemFont, 'Segoe UI', Roboto, Oxygen, Ubuntu, Cantarell, 'Fira Sans', 'Droid Sans', 'Helvetica Neue', sans-serif" font-size="11.00">DiceMessage.hpp</text>
</a>
</g>
</g>
<!-- Node4&#45;&gt;Node23 -->
<g id="edge41" class="edge">
<title>Node4&#45;&gt;Node23</title>
<path fill="none" stroke="midnightblue" d="M1024.63,-251.75C975.71,-246.39 912.01,-233.72 863.2,-204 838.85,-189.17 819.4,-161.9 808.33,-143.73"/>
<polygon fill="midnightblue" stroke="midnightblue" points="811.13,-141.58 803.07,-134.71 805.08,-145.11 811.13,-141.58"/>
</g>
<!-- Node24 -->
<g id="node21" class="node">
<title>Node24</title>
<g id="a_node21"><a xlink:href="FaceMessage_8hpp.html" target="_top" xlink:title=" ">
<polygon fill="none" stroke="black" points="1027.7,-114.5 1027.7,-134.5 1132.7,-134.5 1132.7,-114.5 1027.7,-114.5"/>
<text text-anchor="middle" x="1080.2" y="-121.7" font-family="-apple-system, BlinkMacSystemFont, 'Segoe UI', Roboto, Oxygen, Ubuntu, Cantarell, 'Fira Sans', 'Droid Sans', 'Helvetica Neue', sans-serif" font-size="11.00">FaceMessage.hpp</text>
</a>
</g>
</g>
<!-- Node4&#45;&gt;Node24 -->
<g id="edge45" class="edge">
<title>Node4&#45;&gt;Node24</title>
<path fill="none" stroke="midnightblue" d="M1039.53,-240.41C1021.16,-232.66 1002.96,-221.11 992.2,-204 984.4,-191.58 984.58,-183.53 992.2,-171 1001.55,-155.65 1017.93,-145.25 1034.04,-138.32"/>
<polygon fill="midnightblue" stroke="midnightblue" points="1035.41,-141.54 1043.44,-134.62 1032.85,-135.02 1035.41,-141.54"/>
</g>
<!-- Node25 -->
<g id="node22" class="node">
<title>Node25</title>
<g id="a_node22"><a xlink:href="FlashImageMessage_8hpp.html" target="_top" xlink:title=" ">
<polygon fill="none" stroke="black" points="1378.7,-177.5 1378.7,-197.5 1515.7,-197.5 1515.7,-177.5 1378.7,-177.5"/>
<text text-anchor="middle" x="1447.2" y="-184.7" font-family="-apple-system, BlinkMacSystemFont, 'Segoe UI', Roboto, Oxygen, Ubuntu, Cantarell, 'Fira Sans', 'Droid Sans', 'Helvetica Neue', sans-serif" font-size="11.00">FlashImageMessage.hpp</text>
</a>
</g>
</g>
<!-- Node4&#45;&gt;Node25 -->
<g id="edge49" class="edge">
<title>Node4&#45;&gt;Node25</title>
<path fill="none" stroke="midnightblue" d="M1173.73,-241.45C1227.96,-231.18 1303.16,-216.86 1369.2,-204 1376.55,-202.57 1384.29,-201.05 1391.92,-199.54"/>
<polygon fill="midnightblue" stroke="midnightblue" points="1392.72,-202.95 1401.85,-197.57 1391.36,-196.08 1392.72,-202.95"/>
</g>
<!-- Node26 -->
<g id="node23" class="node">
<title>Node26</title>
<g id="a_node23"><a xlink:href="ImageMessage_8hpp.html" target="_top" xlink:title=" ">
<polygon fill="none" stroke="red" points="1392.7,-114.5 1392.7,-134.5 1503.7,-134.5 1503.7,-114.5 1392.7,-114.5"/>
<text text-anchor="middle" x="1448.2" y="-121.7" font-family="-apple-system, BlinkMacSystemFont, 'Segoe UI', Roboto, Oxygen, Ubuntu, Cantarell, 'Fira Sans', 'Droid Sans', 'Helvetica Neue', sans-serif" font-size="11.00">ImageMessage.hpp</text>
</a>
</g>
</g>
<!-- Node4&#45;&gt;Node26 -->
<g id="edge59" class="edge">
<title>Node4&#45;&gt;Node26</title>
<path fill="none" stroke="midnightblue" d="M1111.97,-240.24C1131.47,-217.11 1167.25,-175.37 1175.2,-171 1184.26,-166.03 1304.42,-147.19 1382.28,-135.37"/>
<polygon fill="midnightblue" stroke="midnightblue" points="1383.13,-138.78 1392.49,-133.82 1382.08,-131.86 1383.13,-138.78"/>
</g>
<!-- Node27 -->
<g id="node24" class="node">
<title>Node27</title>
<g id="a_node24"><a xlink:href="JsonMessage_8hpp.html" target="_top" xlink:title=" ">
<polygon fill="none" stroke="black" points="425.2,-114.5 425.2,-134.5 529.2,-134.5 529.2,-114.5 425.2,-114.5"/>
<text text-anchor="middle" x="477.2" y="-121.7" font-family="-apple-system, BlinkMacSystemFont, 'Segoe UI', Roboto, Oxygen, Ubuntu, Cantarell, 'Fira Sans', 'Droid Sans', 'Helvetica Neue', sans-serif" font-size="11.00">JsonMessage.hpp</text>
</a>
</g>
</g>
<!-- Node4&#45;&gt;Node27 -->
<g id="edge60" class="edge">
<title>Node4&#45;&gt;Node27</title>
<path fill="none" stroke="midnightblue" d="M1024.46,-255.02C931.8,-252.65 769.89,-242.67 637.2,-204 585.74,-189 530.65,-158.35 500.42,-140.1"/>
<polygon fill="midnightblue" stroke="midnightblue" points="501.87,-136.89 491.51,-134.65 498.21,-142.86 501.87,-136.89"/>
</g>
<!-- Node28 -->
<g id="node25" class="node">
<title>Node28</title>
<g id="a_node25"><a xlink:href="MiraiCodeMessage_8hpp.html" target="_top" xlink:title=" ">
<polygon fill="none" stroke="black" points="113.2,-114.5 113.2,-134.5 243.2,-134.5 243.2,-114.5 113.2,-114.5"/>
<text text-anchor="middle" x="178.2" y="-121.7" font-family="-apple-system, BlinkMacSystemFont, 'Segoe UI', Roboto, Oxygen, Ubuntu, Cantarell, 'Fira Sans', 'Droid Sans', 'Helvetica Neue', sans-serif" font-size="11.00">MiraiCodeMessage.hpp</text>
</a>
</g>
</g>
<!-- Node4&#45;&gt;Node28 -->
<g id="edge65" class="edge">
<title>Node4&#45;&gt;Node28</title>
<path fill="none" stroke="midnightblue" d="M1024.37,-254.52C902.62,-251.83 654.52,-241.74 448.2,-204 361.77,-188.19 263.4,-155.8 212.61,-137.97"/>
<polygon fill="midnightblue" stroke="midnightblue" points="213.7,-134.64 203.11,-134.6 211.37,-141.24 213.7,-134.64"/>
</g>
<!-- Node29 -->
<g id="node26" class="node">
<title>Node29</title>
<g id="a_node26"><a xlink:href="PlainMessage_8hpp.html" target="_top" xlink:title=" ">
<polygon fill="none" stroke="black" points="1150.7,-114.5 1150.7,-134.5 1255.7,-134.5 1255.7,-114.5 1150.7,-114.5"/>
<text text-anchor="middle" x="1203.2" y="-121.7" font-family="-apple-system, BlinkMacSystemFont, 'Segoe UI', Roboto, Oxygen, Ubuntu, Cantarell, 'Fira Sans', 'Droid Sans', 'Helvetica Neue', sans-serif" font-size="11.00">PlainMessage.hpp</text>
</a>
</g>
</g>
<!-- Node4&#45;&gt;Node29 -->
<g id="edge69" class="edge">
<title>Node4&#45;&gt;Node29</title>
<path fill="none" stroke="midnightblue" d="M1104.52,-240.23C1111.28,-222.28 1124.28,-192.27 1142.2,-171 1152.38,-158.92 1166.35,-148.21 1178.36,-140.21"/>
<polygon fill="midnightblue" stroke="midnightblue" points="1180.52,-142.98 1187.06,-134.65 1176.75,-137.09 1180.52,-142.98"/>
</g>
<!-- Node30 -->
<g id="node27" class="node">
<title>Node30</title>
<g id="a_node27"><a xlink:href="PokeMessage_8hpp.html" target="_top" xlink:title=" ">
<polygon fill="none" stroke="red" points="299.7,-114.5 299.7,-134.5 406.7,-134.5 406.7,-114.5 299.7,-114.5"/>
<text text-anchor="middle" x="353.2" y="-121.7" font-family="-apple-system, BlinkMacSystemFont, 'Segoe UI', Roboto, Oxygen, Ubuntu, Cantarell, 'Fira Sans', 'Droid Sans', 'Helvetica Neue', sans-serif" font-size="11.00">PokeMessage.hpp</text>
</a>
</g>
</g>
<!-- Node4&#45;&gt;Node30 -->
<g id="edge74" class="edge">
<title>Node4&#45;&gt;Node30</title>
<path fill="none" stroke="midnightblue" d="M1024.69,-255.09C918.41,-253.02 717.8,-243.61 552.2,-204 488.38,-188.73 417.85,-157.14 380.28,-139.03"/>
<polygon fill="midnightblue" stroke="midnightblue" points="381.55,-135.76 371.03,-134.52 378.48,-142.05 381.55,-135.76"/>
</g>
<!-- Node32 -->
<g id="node28" class="node">
<title>Node32</title>
<g id="a_node28"><a xlink:href="XmlMessage_8hpp.html" target="_top" xlink:title=" ">
<polygon fill="none" stroke="black" points="1274.2,-114.5 1274.2,-134.5 1374.2,-134.5 1374.2,-114.5 1274.2,-114.5"/>
<text text-anchor="middle" x="1324.2" y="-121.7" font-family="-apple-system, BlinkMacSystemFont, 'Segoe UI', Roboto, Oxygen, Ubuntu, Cantarell, 'Fira Sans', 'Droid Sans', 'Helvetica Neue', sans-serif" font-size="11.00">XmlMessage.hpp</text>
</a>
</g>
</g>
<!-- Node4&#45;&gt;Node32 -->
<g id="edge78" class="edge">
<title>Node4&#45;&gt;Node32</title>
<path fill="none" stroke="midnightblue" d="M1162.58,-240.43C1189.92,-232.21 1221.47,-220.31 1247.2,-204 1261.09,-195.2 1291.16,-162.7 1309.34,-142.38"/>
<polygon fill="midnightblue" stroke="midnightblue" points="1312.08,-144.56 1316.1,-134.76 1306.84,-139.91 1312.08,-144.56"/>
</g>
<!-- Node13&#45;&gt;Node2 -->
<g id="edge15" class="edge">
<title>Node13&#45;&gt;Node2</title>
<path fill="none" stroke="midnightblue" d="M645.37,-185.78C525.18,-183.16 245.05,-170.92 290.2,-114 354.29,-33.22 694.11,-15.81 800.4,-12.32"/>
<polygon fill="midnightblue" stroke="midnightblue" points="800.62,-15.82 810.5,-12.01 800.4,-8.82 800.62,-15.82"/>
</g>
<!-- Node13&#45;&gt;Node9 -->
<g id="edge14" class="edge">
<title>Node13&#45;&gt;Node9</title>
<path fill="none" stroke="midnightblue" d="M698.2,-171.42C698.2,-163.38 698.2,-153.39 698.2,-144.78"/>
<polygon fill="midnightblue" stroke="midnightblue" points="701.71,-144.55 698.2,-134.55 694.71,-144.55 701.71,-144.55"/>
</g>
<!-- Node14&#45;&gt;Node2 -->
<g id="edge17" class="edge">
<title>Node14&#45;&gt;Node2</title>
<path fill="none" stroke="midnightblue" d="M615.89,-114.49C641.44,-101.52 690.22,-76.96 732.2,-57 755.74,-45.81 782.64,-33.6 802.61,-24.65"/>
<polygon fill="midnightblue" stroke="midnightblue" points="804.11,-27.81 811.81,-20.54 801.25,-21.42 804.11,-27.81"/>
</g>
<!-- Node14&#45;&gt;Node3 -->
<g id="edge18" class="edge">
<title>Node14&#45;&gt;Node3</title>
<path fill="none" stroke="midnightblue" d="M623.97,-114.44C665.15,-100.27 748.58,-72.85 821.2,-57 904.84,-38.75 1002.32,-26.19 1068.14,-18.96"/>
<polygon fill="midnightblue" stroke="midnightblue" points="1068.86,-22.4 1078.43,-17.84 1068.11,-15.44 1068.86,-22.4"/>
</g>
<!-- Node14&#45;&gt;Node15 -->
<g id="edge19" class="edge">
<title>Node14&#45;&gt;Node15</title>
<path fill="none" stroke="midnightblue" d="M648.84,-114.6C703.72,-104.96 791.28,-89.57 849.98,-79.26"/>
<polygon fill="midnightblue" stroke="midnightblue" points="850.62,-82.7 859.86,-77.52 849.41,-75.81 850.62,-82.7"/>
</g>
<!-- Node15&#45;&gt;Node2 -->
<g id="edge21" class="edge">
<title>Node15&#45;&gt;Node2</title>
<path fill="none" stroke="midnightblue" d="M898.16,-57.42C886.04,-48.98 867.76,-36.26 853.52,-26.34"/>
<polygon fill="midnightblue" stroke="midnightblue" points="855.48,-23.44 845.27,-20.6 851.48,-29.18 855.48,-23.44"/>
</g>
<!-- Node15&#45;&gt;Node3 -->
<g id="edge22" class="edge">
<title>Node15&#45;&gt;Node3</title>
<path fill="none" stroke="midnightblue" d="M949.42,-57.48C989.54,-48.01 1052.73,-33.09 1096.19,-22.83"/>
<polygon fill="midnightblue" stroke="midnightblue" points="1097.04,-26.23 1105.97,-20.53 1095.43,-19.42 1097.04,-26.23"/>
</g>
<!-- Node15&#45;&gt;Node7 -->
<g id="edge20" class="edge">
<title>Node15&#45;&gt;Node7</title>
<path fill="none" stroke="midnightblue" d="M857.91,-62.7C711.37,-52.24 304.9,-23.25 178.33,-14.22"/>
<polygon fill="midnightblue" stroke="midnightblue" points="178.56,-10.73 168.33,-13.51 178.06,-17.71 178.56,-10.73"/>
</g>
<!-- Node17&#45;&gt;Node2 -->
<g id="edge24" class="edge">
<title>Node17&#45;&gt;Node2</title>
<path fill="none" stroke="midnightblue" d="M912.19,-114.45C890.28,-107.84 865.27,-96.65 849.2,-78 838.03,-65.04 834.05,-45.69 832.7,-31.2"/>
<polygon fill="midnightblue" stroke="midnightblue" points="836.17,-30.62 832.1,-20.84 829.18,-31.02 836.17,-30.62"/>
</g>
<!-- Node17&#45;&gt;Node3 -->
<g id="edge25" class="edge">
<title>Node17&#45;&gt;Node3</title>
<path fill="none" stroke="midnightblue" d="M972.51,-114.33C1005.05,-94.84 1081.34,-49.15 1120.33,-25.8"/>
<polygon fill="midnightblue" stroke="midnightblue" points="1122.17,-28.78 1128.95,-20.63 1118.58,-22.77 1122.17,-28.78"/>
</g>
<!-- Node17&#45;&gt;Node15 -->
<g id="edge26" class="edge">
<title>Node17&#45;&gt;Node15</title>
<path fill="none" stroke="midnightblue" d="M949.61,-114.42C943.06,-106.58 933.42,-95.06 925.43,-85.51"/>
<polygon fill="midnightblue" stroke="midnightblue" points="928.07,-83.2 918.97,-77.78 922.7,-87.7 928.07,-83.2"/>
</g>
<!-- Node18&#45;&gt;Node2 -->
<g id="edge28" class="edge">
<title>Node18&#45;&gt;Node2</title>
<path fill="none" stroke="midnightblue" d="M1638.69,-114.42C1596.17,-105.46 1529.64,-91.23 1472.2,-78 1433.86,-69.17 1425.04,-63.3 1386.2,-57 1189.11,-25.05 948.73,-15.02 863.77,-12.35"/>
<polygon fill="midnightblue" stroke="midnightblue" points="863.84,-8.85 853.74,-12.05 863.63,-15.85 863.84,-8.85"/>
</g>
<!-- Node18&#45;&gt;Node3 -->
<g id="edge29" class="edge">
<title>Node18&#45;&gt;Node3</title>
<path fill="none" stroke="midnightblue" d="M1675.98,-114.21C1665.33,-99.19 1642.05,-69.95 1614.2,-57 1546.11,-25.33 1334.74,-15.68 1220.06,-12.76"/>
<polygon fill="midnightblue" stroke="midnightblue" points="1220.03,-9.26 1209.94,-12.51 1219.86,-16.26 1220.03,-9.26"/>
</g>
<!-- Node18&#45;&gt;Node15 -->
<g id="edge35" class="edge">
<title>Node18&#45;&gt;Node15</title>
<path fill="none" stroke="midnightblue" d="M1636,-120.2C1504.04,-110.79 1125.32,-83.77 974.39,-73.01"/>
<polygon fill="midnightblue" stroke="midnightblue" points="974.58,-69.51 964.36,-72.29 974.08,-76.49 974.58,-69.51"/>
</g>
<!-- Node18&#45;&gt;Node19 -->
<g id="edge30" class="edge">
<title>Node18&#45;&gt;Node19</title>
<path fill="none" stroke="midnightblue" d="M1692.94,-114.42C1702.57,-106.27 1716.93,-94.12 1728.45,-84.37"/>
<polygon fill="midnightblue" stroke="midnightblue" points="1730.87,-86.91 1736.24,-77.78 1726.34,-81.57 1730.87,-86.91"/>
</g>
<!-- Node19&#45;&gt;Node2 -->
<g id="edge32" class="edge">
<title>Node19&#45;&gt;Node2</title>
<path fill="none" stroke="midnightblue" d="M1666,-61.62C1472.85,-50.01 992.56,-21.14 864.18,-13.42"/>
<polygon fill="midnightblue" stroke="midnightblue" points="864.06,-9.91 853.87,-12.8 863.64,-16.9 864.06,-9.91"/>
</g>
<!-- Node19&#45;&gt;Node3 -->
<g id="edge34" class="edge">
<title>Node19&#45;&gt;Node3</title>
<path fill="none" stroke="midnightblue" d="M1666.1,-58.33C1661.4,-57.88 1656.74,-57.43 1652.2,-57 1498.95,-42.47 1319.57,-26.69 1220.23,-18.06"/>
<polygon fill="midnightblue" stroke="midnightblue" points="1220.25,-14.55 1209.98,-17.17 1219.64,-21.52 1220.25,-14.55"/>
</g>
<!-- Node19&#45;&gt;Node6 -->
<g id="edge31" class="edge">
<title>Node19&#45;&gt;Node6</title>
<path fill="none" stroke="midnightblue" d="M1768.67,-57.42C1789.97,-48.41 1822.8,-34.52 1846.78,-24.37"/>
<polygon fill="midnightblue" stroke="midnightblue" points="1848.29,-27.53 1856.14,-20.41 1845.56,-21.09 1848.29,-27.53"/>
</g>
<!-- Node19&#45;&gt;Node11 -->
<g id="edge33" class="edge">
<title>Node19&#45;&gt;Node11</title>
<path fill="none" stroke="midnightblue" d="M1731.85,-57.42C1717.31,-48.82 1695.25,-35.78 1678.36,-25.78"/>
<polygon fill="midnightblue" stroke="midnightblue" points="1679.97,-22.67 1669.58,-20.6 1676.41,-28.7 1679.97,-22.67"/>
</g>
<!-- Node21&#45;&gt;Node2 -->
<g id="edge37" class="edge">
<title>Node21&#45;&gt;Node2</title>
<path fill="none" stroke="midnightblue" d="M1793.67,-114.45C1720.22,-100.17 1570.89,-72.44 1443.2,-57 1222.5,-30.31 954.91,-16.87 864.1,-12.84"/>
<polygon fill="midnightblue" stroke="midnightblue" points="864.07,-9.33 853.92,-12.39 863.76,-16.33 864.07,-9.33"/>
</g>
<!-- Node21&#45;&gt;Node3 -->
<g id="edge38" class="edge">
<title>Node21&#45;&gt;Node3</title>
<path fill="none" stroke="midnightblue" d="M1842.32,-114.31C1846.54,-99.96 1851.96,-72.29 1837.2,-57 1816.03,-35.06 1395.38,-19.38 1219.98,-13.77"/>
<polygon fill="midnightblue" stroke="midnightblue" points="1219.9,-10.26 1209.8,-13.44 1219.68,-17.26 1219.9,-10.26"/>
</g>
<!-- Node21&#45;&gt;Node11 -->
<g id="edge39" class="edge">
<title>Node21&#45;&gt;Node11</title>
<path fill="none" stroke="midnightblue" d="M1849.6,-114.1C1863.46,-100.45 1884.65,-74.81 1870.2,-57 1847.23,-28.68 1739.04,-17.32 1685.03,-13.36"/>
<polygon fill="midnightblue" stroke="midnightblue" points="1685.21,-9.86 1674.99,-12.66 1684.73,-16.84 1685.21,-9.86"/>
</g>
<!-- Node21&#45;&gt;Node15 -->
<g id="edge40" class="edge">
<title>Node21&#45;&gt;Node15</title>
<path fill="none" stroke="midnightblue" d="M1784.45,-118.02C1769.17,-116.59 1752.55,-115.14 1737.2,-114 1452.85,-92.93 1112.76,-77.18 974.4,-71.16"/>
<polygon fill="midnightblue" stroke="midnightblue" points="974.54,-67.67 964.4,-70.73 974.24,-74.66 974.54,-67.67"/>
</g>
<!-- Node23&#45;&gt;Node2 -->
<g id="edge42" class="edge">
<title>Node23&#45;&gt;Node2</title>
<path fill="none" stroke="midnightblue" d="M779.84,-114.37C757.99,-102.23 726.14,-79.64 740.2,-57 753.37,-35.8 779.68,-24.17 800.8,-18"/>
<polygon fill="midnightblue" stroke="midnightblue" points="801.9,-21.33 810.67,-15.38 800.11,-14.56 801.9,-21.33"/>
</g>
<!-- Node23&#45;&gt;Node3 -->
<g id="edge43" class="edge">
<title>Node23&#45;&gt;Node3</title>
<path fill="none" stroke="midnightblue" d="M802.34,-114.4C809.55,-99.65 825.92,-70.79 849.2,-57 885.24,-35.65 993.39,-23.12 1068.21,-16.79"/>
<polygon fill="midnightblue" stroke="midnightblue" points="1068.86,-20.25 1078.54,-15.93 1068.28,-13.27 1068.86,-20.25"/>
</g>
<!-- Node23&#45;&gt;Node15 -->
<g id="edge44" class="edge">
<title>Node23&#45;&gt;Node15</title>
<path fill="none" stroke="midnightblue" d="M816.86,-114.42C834.94,-105.62 862.58,-92.17 883.27,-82.1"/>
<polygon fill="midnightblue" stroke="midnightblue" points="885.06,-85.12 892.52,-77.6 881.99,-78.83 885.06,-85.12"/>
</g>
<!-- Node24&#45;&gt;Node2 -->
<g id="edge46" class="edge">
<title>Node24&#45;&gt;Node2</title>
<path fill="none" stroke="midnightblue" d="M1067.92,-114.47C1048.59,-100.58 1009.52,-73.83 973.2,-57 937.04,-40.23 892.99,-27.09 863.86,-19.33"/>
<polygon fill="midnightblue" stroke="midnightblue" points="864.4,-15.86 853.84,-16.72 862.63,-22.63 864.4,-15.86"/>
</g>
<!-- Node24&#45;&gt;Node3 -->
<g id="edge47" class="edge">
<title>Node24&#45;&gt;Node3</title>
<path fill="none" stroke="midnightblue" d="M1085.44,-114.33C1095.99,-95.88 1119.96,-53.92 1133.81,-29.69"/>
<polygon fill="midnightblue" stroke="midnightblue" points="1136.97,-31.21 1138.9,-20.79 1130.89,-27.74 1136.97,-31.21"/>
</g>
<!-- Node24&#45;&gt;Node15 -->
<g id="edge48" class="edge">
<title>Node24&#45;&gt;Node15</title>
<path fill="none" stroke="midnightblue" d="M1052.3,-114.42C1023.96,-105.19 979.9,-90.86 948.56,-80.66"/>
<polygon fill="midnightblue" stroke="midnightblue" points="949.46,-77.27 938.87,-77.5 947.3,-83.93 949.46,-77.27"/>
</g>
<!-- Node25&#45;&gt;Node2 -->
<g id="edge50" class="edge">
<title>Node25&#45;&gt;Node2</title>
<path fill="none" stroke="midnightblue" d="M1466.44,-177.31C1492.33,-163.72 1533.01,-137.38 1513.2,-114 1491.78,-88.71 996.43,-30.32 864.33,-15.15"/>
<polygon fill="midnightblue" stroke="midnightblue" points="864.41,-11.64 854.07,-13.98 863.61,-18.59 864.41,-11.64"/>
</g>
<!-- Node25&#45;&gt;Node3 -->
<g id="edge51" class="edge">
<title>Node25&#45;&gt;Node3</title>
<path fill="none" stroke="midnightblue" d="M1479.77,-177.45C1516.57,-165.58 1568.62,-142.85 1546.2,-114 1506.59,-63.02 1325.31,-33.17 1220.21,-19.86"/>
<polygon fill="midnightblue" stroke="midnightblue" points="1220.32,-16.35 1209.97,-18.59 1219.46,-23.3 1220.32,-16.35"/>
</g>
<!-- Node25&#45;&gt;Node19 -->
<g id="edge52" class="edge">
<title>Node25&#45;&gt;Node19</title>
<path fill="none" stroke="midnightblue" d="M1491.71,-177.43C1502.65,-175.27 1514.34,-173 1525.2,-171 1572.2,-162.34 1703.74,-169.11 1737.2,-135 1749.19,-122.78 1750.73,-102.74 1749.85,-87.85"/>
<polygon fill="midnightblue" stroke="midnightblue" points="1753.32,-87.29 1748.85,-77.68 1746.35,-87.98 1753.32,-87.29"/>
</g>
<!-- Node25&#45;&gt;Node26 -->
<g id="edge53" class="edge">
<title>Node25&#45;&gt;Node26</title>
<path fill="none" stroke="midnightblue" d="M1447.35,-177.5C1447.49,-168.94 1447.71,-155.78 1447.89,-144.85"/>
<polygon fill="midnightblue" stroke="midnightblue" points="1451.39,-144.59 1448.06,-134.54 1444.39,-144.48 1451.39,-144.59"/>
</g>
<!-- Node26&#45;&gt;Node2 -->
<g id="edge54" class="edge">
<title>Node26&#45;&gt;Node2</title>
<path fill="none" stroke="midnightblue" d="M1403.74,-114.45C1338.56,-101.27 1213.21,-76.28 1106.2,-57 1018.7,-41.23 915.11,-24.57 863.99,-16.49"/>
<polygon fill="midnightblue" stroke="midnightblue" points="864.33,-13 853.91,-14.9 863.24,-19.91 864.33,-13"/>
</g>
<!-- Node26&#45;&gt;Node3 -->
<g id="edge55" class="edge">
<title>Node26&#45;&gt;Node3</title>
<path fill="none" stroke="midnightblue" d="M1423.58,-114.43C1369.62,-94.55 1240.82,-47.09 1178.77,-24.24"/>
<polygon fill="midnightblue" stroke="midnightblue" points="1179.65,-20.83 1169.05,-20.66 1177.23,-27.4 1179.65,-20.83"/>
</g>
<!-- Node26&#45;&gt;Node11 -->
<g id="edge57" class="edge">
<title>Node26&#45;&gt;Node11</title>
<path fill="none" stroke="midnightblue" d="M1465.06,-114.33C1501.06,-94.76 1585.66,-48.77 1628.45,-25.5"/>
<polygon fill="midnightblue" stroke="midnightblue" points="1630.29,-28.49 1637.4,-20.63 1626.95,-22.34 1630.29,-28.49"/>
</g>
<!-- Node26&#45;&gt;Node15 -->
<g id="edge58" class="edge">
<title>Node26&#45;&gt;Node15</title>
<path fill="none" stroke="midnightblue" d="M1392.56,-115.18C1389.4,-114.77 1386.26,-114.37 1383.2,-114 1237.23,-96.31 1065.18,-81.15 974.5,-73.61"/>
<polygon fill="midnightblue" stroke="midnightblue" points="974.64,-70.11 964.39,-72.77 974.06,-77.08 974.64,-70.11"/>
</g>
<!-- Node26&#45;&gt;Node19 -->
<g id="edge56" class="edge">
<title>Node26&#45;&gt;Node19</title>
<path fill="none" stroke="midnightblue" d="M1497.24,-114.48C1549.49,-104.87 1632.21,-89.65 1688.04,-79.38"/>
<polygon fill="midnightblue" stroke="midnightblue" points="1688.94,-82.78 1698.14,-77.53 1687.67,-75.89 1688.94,-82.78"/>
</g>
<!-- Node27&#45;&gt;Node2 -->
<g id="edge61" class="edge">
<title>Node27&#45;&gt;Node2</title>
<path fill="none" stroke="midnightblue" d="M505.73,-114.44C546.12,-101.62 622.28,-77.47 687.2,-57 726.37,-44.65 771.51,-30.5 800.89,-21.3"/>
<polygon fill="midnightblue" stroke="midnightblue" points="802.08,-24.59 810.58,-18.27 799.99,-17.91 802.08,-24.59"/>
</g>
<!-- Node27&#45;&gt;Node3 -->
<g id="edge62" class="edge">
<title>Node27&#45;&gt;Node3</title>
<path fill="none" stroke="midnightblue" d="M506.81,-114.45C554.62,-100.16 651.96,-72.43 736.2,-57 851.12,-35.95 986.14,-23.2 1068.41,-16.75"/>
<polygon fill="midnightblue" stroke="midnightblue" points="1068.73,-20.24 1078.43,-15.98 1068.19,-13.26 1068.73,-20.24"/>
</g>
<!-- Node27&#45;&gt;Node15 -->
<g id="edge63" class="edge">
<title>Node27&#45;&gt;Node15</title>
<path fill="none" stroke="midnightblue" d="M529.28,-115.4C532.64,-114.92 535.97,-114.45 539.2,-114 647.55,-99.08 774,-84.13 848.06,-75.63"/>
<polygon fill="midnightblue" stroke="midnightblue" points="848.62,-79.09 858.16,-74.48 847.83,-72.14 848.62,-79.09"/>
</g>
<!-- Node28&#45;&gt;Node2 -->
<g id="edge66" class="edge">
<title>Node28&#45;&gt;Node2</title>
<path fill="none" stroke="midnightblue" d="M187.71,-114.4C204.05,-99.37 239.23,-69.78 275.2,-57 373.11,-22.23 697.05,-13.79 800.29,-11.96"/>
<polygon fill="midnightblue" stroke="midnightblue" points="800.47,-15.46 810.41,-11.79 800.35,-8.46 800.47,-15.46"/>
</g>
<!-- Node28&#45;&gt;Node3 -->
<g id="edge67" class="edge">
<title>Node28&#45;&gt;Node3</title>
<path fill="none" stroke="midnightblue" d="M218.2,-114.45C283.4,-100.03 416.81,-71.97 531.2,-57 723.79,-31.79 952.39,-19.43 1068.44,-14.39"/>
<polygon fill="midnightblue" stroke="midnightblue" points="1068.8,-17.88 1078.64,-13.95 1068.5,-10.88 1068.8,-17.88"/>
</g>
<!-- Node28&#45;&gt;Node15 -->
<g id="edge68" class="edge">
<title>Node28&#45;&gt;Node15</title>
<path fill="none" stroke="midnightblue" d="M243.34,-117.85C258.71,-116.55 275.03,-115.2 290.2,-114 493.99,-97.89 735.55,-80.76 847.89,-72.9"/>
<polygon fill="midnightblue" stroke="midnightblue" points="848.29,-76.38 858.03,-72.19 847.81,-69.4 848.29,-76.38"/>
</g>
<!-- Node29&#45;&gt;Node2 -->
<g id="edge70" class="edge">
<title>Node29&#45;&gt;Node2</title>
<path fill="none" stroke="midnightblue" d="M1178.06,-114.45C1140.63,-101.12 1067.91,-75.75 1005.2,-57 956.26,-42.36 898.79,-27.75 863.96,-19.18"/>
<polygon fill="midnightblue" stroke="midnightblue" points="864.46,-15.69 853.91,-16.71 862.79,-22.49 864.46,-15.69"/>
</g>
<!-- Node29&#45;&gt;Node3 -->
<g id="edge71" class="edge">
<title>Node29&#45;&gt;Node3</title>
<path fill="none" stroke="midnightblue" d="M1198.38,-114.33C1188.65,-95.88 1166.55,-53.92 1153.79,-29.69"/>
<polygon fill="midnightblue" stroke="midnightblue" points="1156.86,-28.01 1149.1,-20.79 1150.66,-31.27 1156.86,-28.01"/>
</g>
<!-- Node29&#45;&gt;Node11 -->
<g id="edge72" class="edge">
<title>Node29&#45;&gt;Node11</title>
<path fill="none" stroke="midnightblue" d="M1236.14,-114.44C1284.18,-101.3 1376.34,-76.42 1455.2,-57 1514.62,-42.37 1584.42,-26.78 1623.56,-18.17"/>
<polygon fill="midnightblue" stroke="midnightblue" points="1624.51,-21.55 1633.53,-15.99 1623.01,-14.71 1624.51,-21.55"/>
</g>
<!-- Node29&#45;&gt;Node15 -->
<g id="edge73" class="edge">
<title>Node29&#45;&gt;Node15</title>
<path fill="none" stroke="midnightblue" d="M1155.31,-114.48C1104.29,-104.87 1023.51,-89.65 968.98,-79.38"/>
<polygon fill="midnightblue" stroke="midnightblue" points="969.6,-75.94 959.12,-77.53 968.3,-82.82 969.6,-75.94"/>
</g>
<!-- Node30&#45;&gt;Node2 -->
<g id="edge75" class="edge">
<title>Node30&#45;&gt;Node2</title>
<path fill="none" stroke="midnightblue" d="M387.97,-114.4C438.68,-101.22 535.97,-76.29 619.2,-57 683.56,-42.09 759.27,-26.34 800.87,-17.84"/>
<polygon fill="midnightblue" stroke="midnightblue" points="801.58,-21.27 810.68,-15.84 800.19,-14.41 801.58,-21.27"/>
</g>
<!-- Node30&#45;&gt;Node3 -->
<g id="edge76" class="edge">
<title>Node30&#45;&gt;Node3</title>
<path fill="none" stroke="midnightblue" d="M385.4,-114.44C437.89,-100.01 545.4,-71.92 638.2,-57 789.6,-32.65 968.72,-20.39 1068.09,-15.03"/>
<polygon fill="midnightblue" stroke="midnightblue" points="1068.54,-18.51 1078.34,-14.48 1068.17,-11.52 1068.54,-18.51"/>
</g>
<!-- Node30&#45;&gt;Node15 -->
<g id="edge77" class="edge">
<title>Node30&#45;&gt;Node15</title>
<path fill="none" stroke="midnightblue" d="M406.79,-115.2C409.97,-114.78 413.13,-114.37 416.2,-114 570.83,-95.25 753.47,-80.32 847.76,-73.15"/>
<polygon fill="midnightblue" stroke="midnightblue" points="848.28,-76.62 857.99,-72.37 847.75,-69.64 848.28,-76.62"/>
</g>
<!-- Node32&#45;&gt;Node2 -->
<g id="edge79" class="edge">
<title>Node32&#45;&gt;Node2</title>
<path fill="none" stroke="midnightblue" d="M1288.52,-114.4C1236.47,-101.21 1136.62,-76.27 1051.2,-57 984.68,-41.99 906.37,-26.16 863.74,-17.7"/>
<polygon fill="midnightblue" stroke="midnightblue" points="864.2,-14.22 853.71,-15.71 862.84,-21.09 864.2,-14.22"/>
</g>
<!-- Node32&#45;&gt;Node3 -->
<g id="edge80" class="edge">
<title>Node32&#45;&gt;Node3</title>
<path fill="none" stroke="midnightblue" d="M1309.47,-114.33C1278.28,-94.93 1205.34,-49.54 1167.66,-26.09"/>
<polygon fill="midnightblue" stroke="midnightblue" points="1169.23,-22.95 1158.89,-20.63 1165.53,-28.89 1169.23,-22.95"/>
</g>
<!-- Node32&#45;&gt;Node11 -->
<g id="edge81" class="edge">
<title>Node32&#45;&gt;Node11</title>
<path fill="none" stroke="midnightblue" d="M1350.93,-114.43C1411.67,-93.82 1559.75,-43.56 1623.83,-21.81"/>
<polygon fill="midnightblue" stroke="midnightblue" points="1625.02,-25.1 1633.37,-18.57 1622.77,-18.47 1625.02,-25.1"/>
</g>
<!-- Node32&#45;&gt;Node15 -->
<g id="edge82" class="edge">
<title>Node32&#45;&gt;Node15</title>
<path fill="none" stroke="midnightblue" d="M1274.01,-115.31C1271.03,-114.85 1268.08,-114.42 1265.2,-114 1163.65,-99.3 1045.34,-84.58 974.46,-76.01"/>
<polygon fill="midnightblue" stroke="midnightblue" points="974.7,-72.52 964.35,-74.8 973.86,-79.47 974.7,-72.52"/>
</g>
<!-- Node33&#45;&gt;Node2 -->
<g id="edge86" class="edge">
<title>Node33&#45;&gt;Node2</title>
<path fill="none" stroke="midnightblue" d="M184.93,-58.88C189.74,-58.18 194.57,-57.54 199.2,-57 428.97,-30.3 707.59,-16.79 800.42,-12.8"/>
<polygon fill="midnightblue" stroke="midnightblue" points="800.71,-16.29 810.55,-12.37 800.41,-9.29 800.71,-16.29"/>
</g>
<!-- Node33&#45;&gt;Node3 -->
<g id="edge87" class="edge">
<title>Node33&#45;&gt;Node3</title>
<path fill="none" stroke="midnightblue" d="M184.97,-64.05C342.25,-55.43 870.69,-26.48 1068.56,-15.64"/>
<polygon fill="midnightblue" stroke="midnightblue" points="1068.79,-19.14 1078.58,-15.1 1068.4,-12.15 1068.79,-19.14"/>
</g>
<!-- Node33&#45;&gt;Node7 -->
<g id="edge85" class="edge">
<title>Node33&#45;&gt;Node7</title>
<path fill="none" stroke="midnightblue" d="M140.2,-57.42C140.2,-50.22 140.2,-39.9 140.2,-30.86"/>
<polygon fill="midnightblue" stroke="midnightblue" points="143.71,-30.78 140.2,-20.78 136.71,-30.78 143.71,-30.78"/>
</g>
</g>
</svg>
