<?xml version="1.0" encoding="UTF-8" standalone="no"?>
<!DOCTYPE svg PUBLIC "-//W3C//DTD SVG 1.1//EN"
 "http://www.w3.org/Graphics/SVG/1.1/DTD/svg11.dtd">
<!-- Generated by graphviz version 2.43.0 (0)
 -->
<!-- Title: libmirai/public/libmirai/Events/FriendRecallEvent.cpp Pages: 1 -->
<svg width="604pt" height="212pt"
 viewBox="0.00 0.00 603.50 212.00" xmlns="http://www.w3.org/2000/svg" xmlns:xlink="http://www.w3.org/1999/xlink">
<g id="graph0" class="graph" transform="scale(1 1) rotate(0) translate(4 208)">
<title>libmirai/public/libmirai/Events/FriendRecallEvent.cpp</title>
<!-- Node1 -->
<g id="node1" class="node">
<title>Node1</title>
<g id="a_node1"><a xlink:title=" ">
<polygon fill="#bfbfbf" stroke="black" points="210.5,-171.5 210.5,-203.5 392.5,-203.5 392.5,-171.5 210.5,-171.5"/>
<text text-anchor="start" x="218.5" y="-190.7" font-family="-apple-system,BlinkMacSystemFont,'SegoeUI',Roboto,Oxygen,Ubuntu,Cantarell,'FiraSans','DroidSans','HelveticaNeue',sans-serif" font-size="11.00">libmirai/public/libmirai</text>
<text text-anchor="middle" x="301.5" y="-178.7" font-family="-apple-system,BlinkMacSystemFont,'SegoeUI',Roboto,Oxygen,Ubuntu,Cantarell,'FiraSans','DroidSans','HelveticaNeue',sans-serif" font-size="11.00">/Events/FriendRecallEvent.cpp</text>
</a>
</g>
</g>
<!-- Node2 -->
<g id="node2" class="node">
<title>Node2</title>
<g id="a_node2"><a xlink:href="FriendRecallEvent_8hpp.html" target="_top" xlink:title=" ">
<polygon fill="none" stroke="black" points="65.5,-114.5 65.5,-134.5 203.5,-134.5 203.5,-114.5 65.5,-114.5"/>
<text text-anchor="middle" x="134.5" y="-121.7" font-family="-apple-system,BlinkMacSystemFont,'SegoeUI',Roboto,Oxygen,Ubuntu,Cantarell,'FiraSans','DroidSans','HelveticaNeue',sans-serif" font-size="11.00">FriendRecallEvent.hpp</text>
</a>
</g>
</g>
<!-- Node1&#45;&gt;Node2 -->
<g id="edge1" class="edge">
<title>Node1&#45;&gt;Node2</title>
<path fill="none" stroke="midnightblue" d="M260.22,-171.42C232.13,-161.16 195.38,-147.74 168.88,-138.06"/>
<polygon fill="midnightblue" stroke="midnightblue" points="169.86,-134.69 159.27,-134.55 167.46,-141.26 169.86,-134.69"/>
</g>
<!-- Node11 -->
<g id="node8" class="node">
<title>Node11</title>
<g id="a_node8"><a xlink:title=" ">
<polygon fill="none" stroke="#bfbfbf" points="221.5,-114.5 221.5,-134.5 275.5,-134.5 275.5,-114.5 221.5,-114.5"/>
<text text-anchor="middle" x="248.5" y="-121.7" font-family="-apple-system,BlinkMacSystemFont,'SegoeUI',Roboto,Oxygen,Ubuntu,Cantarell,'FiraSans','DroidSans','HelveticaNeue',sans-serif" font-size="11.00">cstdint</text>
</a>
</g>
</g>
<!-- Node1&#45;&gt;Node11 -->
<g id="edge12" class="edge">
<title>Node1&#45;&gt;Node11</title>
<path fill="none" stroke="midnightblue" d="M288.4,-171.42C280.7,-162.56 270.96,-151.35 263.02,-142.22"/>
<polygon fill="midnightblue" stroke="midnightblue" points="265.56,-139.8 256.36,-134.55 260.28,-144.39 265.56,-139.8"/>
</g>
<!-- Node12 -->
<g id="node9" class="node">
<title>Node12</title>
<g id="a_node9"><a xlink:title=" ">
<polygon fill="none" stroke="#bfbfbf" points="294,-114.5 294,-134.5 415,-134.5 415,-114.5 294,-114.5"/>
<text text-anchor="middle" x="354.5" y="-121.7" font-family="-apple-system,BlinkMacSystemFont,'SegoeUI',Roboto,Oxygen,Ubuntu,Cantarell,'FiraSans','DroidSans','HelveticaNeue',sans-serif" font-size="11.00">nlohmann/json.hpp</text>
</a>
</g>
</g>
<!-- Node1&#45;&gt;Node12 -->
<g id="edge13" class="edge">
<title>Node1&#45;&gt;Node12</title>
<path fill="none" stroke="midnightblue" d="M314.6,-171.42C322.3,-162.56 332.04,-151.35 339.98,-142.22"/>
<polygon fill="midnightblue" stroke="midnightblue" points="342.72,-144.39 346.64,-134.55 337.44,-139.8 342.72,-144.39"/>
</g>
<!-- Node13 -->
<g id="node10" class="node">
<title>Node13</title>
<g id="a_node10"><a xlink:title=" ">
<polygon fill="none" stroke="#bfbfbf" points="433.5,-114.5 433.5,-134.5 595.5,-134.5 595.5,-114.5 433.5,-114.5"/>
<text text-anchor="middle" x="514.5" y="-121.7" font-family="-apple-system,BlinkMacSystemFont,'SegoeUI',Roboto,Oxygen,Ubuntu,Cantarell,'FiraSans','DroidSans','HelveticaNeue',sans-serif" font-size="11.00">libmirai/Utils/Common.hpp</text>
</a>
</g>
</g>
<!-- Node1&#45;&gt;Node13 -->
<g id="edge14" class="edge">
<title>Node1&#45;&gt;Node13</title>
<path fill="none" stroke="midnightblue" d="M353.88,-171.5C390.65,-160.97 439.15,-147.08 473.2,-137.33"/>
<polygon fill="midnightblue" stroke="midnightblue" points="474.18,-140.69 482.83,-134.57 472.25,-133.96 474.18,-140.69"/>
</g>
<!-- Node3 -->
<g id="node3" class="node">
<title>Node3</title>
<g id="a_node3"><a xlink:title=" ">
<polygon fill="none" stroke="#bfbfbf" points="0,-0.5 0,-20.5 47,-20.5 47,-0.5 0,-0.5"/>
<text text-anchor="middle" x="23.5" y="-7.7" font-family="-apple-system,BlinkMacSystemFont,'SegoeUI',Roboto,Oxygen,Ubuntu,Cantarell,'FiraSans','DroidSans','HelveticaNeue',sans-serif" font-size="11.00">ctime</text>
</a>
</g>
</g>
<!-- Node2&#45;&gt;Node3 -->
<g id="edge2" class="edge">
<title>Node2&#45;&gt;Node3</title>
<path fill="none" stroke="midnightblue" d="M83.36,-114.43C62.23,-107.94 39.64,-96.86 26.5,-78 17.01,-64.38 17.22,-45.12 19.24,-30.82"/>
<polygon fill="midnightblue" stroke="midnightblue" points="22.75,-31.1 21.09,-20.63 15.86,-29.84 22.75,-31.1"/>
</g>
<!-- Node4 -->
<g id="node4" class="node">
<title>Node4</title>
<g id="a_node4"><a xlink:title=" ">
<polygon fill="none" stroke="#bfbfbf" points="110.5,-0.5 110.5,-20.5 158.5,-20.5 158.5,-0.5 110.5,-0.5"/>
<text text-anchor="middle" x="134.5" y="-7.7" font-family="-apple-system,BlinkMacSystemFont,'SegoeUI',Roboto,Oxygen,Ubuntu,Cantarell,'FiraSans','DroidSans','HelveticaNeue',sans-serif" font-size="11.00">string</text>
</a>
</g>
</g>
<!-- Node2&#45;&gt;Node4 -->
<g id="edge3" class="edge">
<title>Node2&#45;&gt;Node4</title>
<path fill="none" stroke="midnightblue" d="M88.75,-114.42C68.5,-107.88 46.58,-96.77 34.5,-78 15.52,-48.51 64.64,-29.07 100.57,-19.2"/>
<polygon fill="midnightblue" stroke="midnightblue" points="101.5,-22.57 110.29,-16.67 99.73,-15.8 101.5,-22.57"/>
</g>
<!-- Node5 -->
<g id="node5" class="node">
<title>Node5</title>
<g id="a_node5"><a xlink:title=" ">
<polygon fill="none" stroke="#bfbfbf" points="219.5,-0.5 219.5,-20.5 365.5,-20.5 365.5,-0.5 219.5,-0.5"/>
<text text-anchor="middle" x="292.5" y="-7.7" font-family="-apple-system,BlinkMacSystemFont,'SegoeUI',Roboto,Oxygen,Ubuntu,Cantarell,'FiraSans','DroidSans','HelveticaNeue',sans-serif" font-size="11.00">nlohmann/json_fwd.hpp</text>
</a>
</g>
</g>
<!-- Node2&#45;&gt;Node5 -->
<g id="edge4" class="edge">
<title>Node2&#45;&gt;Node5</title>
<path fill="none" stroke="midnightblue" d="M196.81,-114.5C257.38,-105.11 341.67,-90.1 351.5,-78 366.64,-59.36 341.59,-38.82 319.61,-25.57"/>
<polygon fill="midnightblue" stroke="midnightblue" points="321.23,-22.46 310.81,-20.53 317.75,-28.54 321.23,-22.46"/>
</g>
<!-- Node6 -->
<g id="node6" class="node">
<title>Node6</title>
<g id="a_node6"><a xlink:href="BasicTypes_8hpp.html" target="_top" xlink:title=" ">
<polygon fill="none" stroke="red" points="44,-57.5 44,-77.5 225,-77.5 225,-57.5 44,-57.5"/>
<text text-anchor="middle" x="134.5" y="-64.7" font-family="-apple-system,BlinkMacSystemFont,'SegoeUI',Roboto,Oxygen,Ubuntu,Cantarell,'FiraSans','DroidSans','HelveticaNeue',sans-serif" font-size="11.00">libmirai/Types/BasicTypes.hpp</text>
</a>
</g>
</g>
<!-- Node2&#45;&gt;Node6 -->
<g id="edge5" class="edge">
<title>Node2&#45;&gt;Node6</title>
<path fill="none" stroke="midnightblue" d="M134.5,-114.42C134.5,-107.22 134.5,-96.9 134.5,-87.86"/>
<polygon fill="midnightblue" stroke="midnightblue" points="138,-87.78 134.5,-77.78 131,-87.78 138,-87.78"/>
</g>
<!-- Node9 -->
<g id="node7" class="node">
<title>Node9</title>
<g id="a_node7"><a xlink:href="EventBase_8hpp.html" target="_top" xlink:title=" ">
<polygon fill="none" stroke="red" points="243,-57.5 243,-77.5 342,-77.5 342,-57.5 243,-57.5"/>
<text text-anchor="middle" x="292.5" y="-64.7" font-family="-apple-system,BlinkMacSystemFont,'SegoeUI',Roboto,Oxygen,Ubuntu,Cantarell,'FiraSans','DroidSans','HelveticaNeue',sans-serif" font-size="11.00">EventBase.hpp</text>
</a>
</g>
</g>
<!-- Node2&#45;&gt;Node9 -->
<g id="edge9" class="edge">
<title>Node2&#45;&gt;Node9</title>
<path fill="none" stroke="midnightblue" d="M160.59,-114.42C186.86,-105.27 227.56,-91.1 256.81,-80.92"/>
<polygon fill="midnightblue" stroke="midnightblue" points="258.34,-84.1 266.63,-77.5 256.04,-77.49 258.34,-84.1"/>
</g>
<!-- Node6&#45;&gt;Node3 -->
<g id="edge6" class="edge">
<title>Node6&#45;&gt;Node3</title>
<path fill="none" stroke="midnightblue" d="M116.17,-57.42C98.42,-48.62 71.27,-35.17 50.94,-25.1"/>
<polygon fill="midnightblue" stroke="midnightblue" points="52.37,-21.9 41.86,-20.6 49.26,-28.17 52.37,-21.9"/>
</g>
<!-- Node6&#45;&gt;Node4 -->
<g id="edge7" class="edge">
<title>Node6&#45;&gt;Node4</title>
<path fill="none" stroke="midnightblue" d="M134.5,-57.42C134.5,-50.22 134.5,-39.9 134.5,-30.86"/>
<polygon fill="midnightblue" stroke="midnightblue" points="138,-30.78 134.5,-20.78 131,-30.78 138,-30.78"/>
</g>
<!-- Node6&#45;&gt;Node5 -->
<g id="edge8" class="edge">
<title>Node6&#45;&gt;Node5</title>
<path fill="none" stroke="midnightblue" d="M160.59,-57.42C186.86,-48.27 227.56,-34.1 256.81,-23.92"/>
<polygon fill="midnightblue" stroke="midnightblue" points="258.34,-27.1 266.63,-20.5 256.04,-20.49 258.34,-27.1"/>
</g>
<!-- Node9&#45;&gt;Node4 -->
<g id="edge10" class="edge">
<title>Node9&#45;&gt;Node4</title>
<path fill="none" stroke="midnightblue" d="M266.41,-57.42C239.59,-48.08 197.73,-33.51 168.37,-23.29"/>
<polygon fill="midnightblue" stroke="midnightblue" points="169.15,-19.86 158.56,-19.87 166.85,-26.47 169.15,-19.86"/>
</g>
<!-- Node9&#45;&gt;Node5 -->
<g id="edge11" class="edge">
<title>Node9&#45;&gt;Node5</title>
<path fill="none" stroke="midnightblue" d="M292.5,-57.42C292.5,-50.22 292.5,-39.9 292.5,-30.86"/>
<polygon fill="midnightblue" stroke="midnightblue" points="296,-30.78 292.5,-20.78 289,-30.78 296,-30.78"/>
</g>
</g>
</svg>
