<?xml version="1.0" encoding="UTF-8" standalone="no"?>
<!DOCTYPE svg PUBLIC "-//W3C//DTD SVG 1.1//EN"
 "http://www.w3.org/Graphics/SVG/1.1/DTD/svg11.dtd">
<!-- Generated by graphviz version 3.0.0 (20221109.1736)
 -->
<!-- Title: 图例 Pages: 1 -->
<svg width="543pt" height="164pt"
 viewBox="0.00 0.00 542.50 164.00" xmlns="http://www.w3.org/2000/svg" xmlns:xlink="http://www.w3.org/1999/xlink">
<g id="graph0" class="graph" transform="scale(1 1) rotate(0) translate(4 160)">
<title>图例</title>
<!-- Node9 -->
<g id="node1" class="node">
<title>Node9</title>
<polygon fill="#bfbfbf" stroke="black" points="312,-20 253,-20 253,0 312,0 312,-20"/>
<text text-anchor="middle" x="282.5" y="-7.2" font-family="-apple-system, BlinkMacSystemFont, 'Segoe UI', Roboto, Oxygen, Ubuntu, Cantarell, 'Fira Sans', 'Droid Sans', 'Helvetica Neue', sans-serif" font-size="11.00">Inherited</text>
</g>
<!-- Node10 -->
<g id="node2" class="node">
<title>Node10</title>
<polygon fill="none" stroke="black" points="71,-88 0,-88 0,-68 71,-68 71,-88"/>
<text text-anchor="middle" x="35.5" y="-75.2" font-family="-apple-system, BlinkMacSystemFont, 'Segoe UI', Roboto, Oxygen, Ubuntu, Cantarell, 'Fira Sans', 'Droid Sans', 'Helvetica Neue', sans-serif" font-size="11.00">PublicBase</text>
</g>
<!-- Node10&#45;&gt;Node9 -->
<g id="edge1" class="edge">
<title>Node10&#45;&gt;Node9</title>
<path fill="none" stroke="midnightblue" d="M79.21,-65.32C129.22,-51.96 209.78,-30.43 252.94,-18.9"/>
<polygon fill="midnightblue" stroke="midnightblue" points="78.08,-62 69.33,-67.96 79.89,-68.76 78.08,-62"/>
</g>
<!-- Node11 -->
<g id="node3" class="node">
<title>Node11</title>
<polygon fill="none" stroke="red" points="68,-156 3,-156 3,-136 68,-136 68,-156"/>
<text text-anchor="middle" x="35.5" y="-143.2" font-family="-apple-system, BlinkMacSystemFont, 'Segoe UI', Roboto, Oxygen, Ubuntu, Cantarell, 'Fira Sans', 'Droid Sans', 'Helvetica Neue', sans-serif" font-size="11.00">Truncated</text>
</g>
<!-- Node11&#45;&gt;Node10 -->
<g id="edge2" class="edge">
<title>Node11&#45;&gt;Node10</title>
<path fill="none" stroke="midnightblue" d="M35.5,-125.58C35.5,-113.19 35.5,-97.72 35.5,-88.1"/>
<polygon fill="midnightblue" stroke="midnightblue" points="32,-125.82 35.5,-135.82 39,-125.82 32,-125.82"/>
</g>
<!-- Node13 -->
<g id="node4" class="node">
<title>Node13</title>
<polygon fill="none" stroke="black" points="177.5,-88 89.5,-88 89.5,-68 177.5,-68 177.5,-88"/>
<text text-anchor="middle" x="133.5" y="-75.2" font-family="-apple-system, BlinkMacSystemFont, 'Segoe UI', Roboto, Oxygen, Ubuntu, Cantarell, 'Fira Sans', 'Droid Sans', 'Helvetica Neue', sans-serif" font-size="11.00">ProtectedBase</text>
</g>
<!-- Node13&#45;&gt;Node9 -->
<g id="edge3" class="edge">
<title>Node13&#45;&gt;Node9</title>
<path fill="none" stroke="darkgreen" d="M163.21,-63.84C192.42,-50.9 236.26,-31.48 261.86,-20.14"/>
<polygon fill="darkgreen" stroke="darkgreen" points="161.63,-60.71 153.91,-67.96 164.47,-67.11 161.63,-60.71"/>
</g>
<!-- Node14 -->
<g id="node5" class="node">
<title>Node14</title>
<polygon fill="none" stroke="black" points="270,-88 195,-88 195,-68 270,-68 270,-88"/>
<text text-anchor="middle" x="232.5" y="-75.2" font-family="-apple-system, BlinkMacSystemFont, 'Segoe UI', Roboto, Oxygen, Ubuntu, Cantarell, 'Fira Sans', 'Droid Sans', 'Helvetica Neue', sans-serif" font-size="11.00">PrivateBase</text>
</g>
<!-- Node14&#45;&gt;Node9 -->
<g id="edge4" class="edge">
<title>Node14&#45;&gt;Node9</title>
<path fill="none" stroke="#8b1a1a" d="M245.52,-59.81C255.14,-47.11 267.87,-30.31 275.61,-20.1"/>
<polygon fill="#8b1a1a" stroke="#8b1a1a" points="242.7,-57.74 239.45,-67.82 248.28,-61.97 242.7,-57.74"/>
</g>
<!-- Node15 -->
<g id="node6" class="node">
<title>Node15</title>
<polygon fill="none" stroke="#bfbfbf" points="378.5,-88 288.5,-88 288.5,-68 378.5,-68 378.5,-88"/>
<text text-anchor="middle" x="333.5" y="-75.2" font-family="-apple-system, BlinkMacSystemFont, 'Segoe UI', Roboto, Oxygen, Ubuntu, Cantarell, 'Fira Sans', 'Droid Sans', 'Helvetica Neue', sans-serif" font-size="11.00">Undocumented</text>
</g>
<!-- Node15&#45;&gt;Node9 -->
<g id="edge5" class="edge">
<title>Node15&#45;&gt;Node9</title>
<path fill="none" stroke="midnightblue" d="M320.22,-59.81C310.4,-47.11 297.42,-30.31 289.53,-20.1"/>
<polygon fill="midnightblue" stroke="midnightblue" points="317.52,-62.05 326.41,-67.82 323.06,-57.77 317.52,-62.05"/>
</g>
<!-- Node16 -->
<g id="node7" class="node">
<title>Node16</title>
<polygon fill="none" stroke="black" points="474,-88 397,-88 397,-68 474,-68 474,-88"/>
<text text-anchor="middle" x="435.5" y="-75.2" font-family="-apple-system, BlinkMacSystemFont, 'Segoe UI', Roboto, Oxygen, Ubuntu, Cantarell, 'Fira Sans', 'Droid Sans', 'Helvetica Neue', sans-serif" font-size="11.00">Templ&lt; int &gt;</text>
</g>
<!-- Node16&#45;&gt;Node9 -->
<g id="edge6" class="edge">
<title>Node16&#45;&gt;Node9</title>
<path fill="none" stroke="midnightblue" d="M405,-63.84C374.99,-50.9 329.98,-31.48 303.69,-20.14"/>
<polygon fill="midnightblue" stroke="midnightblue" points="403.98,-67.21 414.55,-67.96 406.75,-60.79 403.98,-67.21"/>
</g>
<!-- Node17 -->
<g id="node8" class="node">
<title>Node17</title>
<polygon fill="none" stroke="black" points="472,-156 399,-156 399,-136 472,-136 472,-156"/>
<text text-anchor="middle" x="435.5" y="-143.2" font-family="-apple-system, BlinkMacSystemFont, 'Segoe UI', Roboto, Oxygen, Ubuntu, Cantarell, 'Fira Sans', 'Droid Sans', 'Helvetica Neue', sans-serif" font-size="11.00">Templ&lt; T &gt;</text>
</g>
<!-- Node17&#45;&gt;Node16 -->
<g id="edge7" class="edge">
<title>Node17&#45;&gt;Node16</title>
<path fill="none" stroke="orange" stroke-dasharray="5,2" d="M435.5,-125.58C435.5,-113.19 435.5,-97.72 435.5,-88.1"/>
<polygon fill="orange" stroke="orange" points="432,-125.82 435.5,-135.82 439,-125.82 432,-125.82"/>
<text text-anchor="middle" x="451" y="-109.2" font-family="-apple-system, BlinkMacSystemFont, 'Segoe UI', Roboto, Oxygen, Ubuntu, Cantarell, 'Fira Sans', 'Droid Sans', 'Helvetica Neue', sans-serif" font-size="11.00">&lt; int &gt;</text>
</g>
<!-- Node18 -->
<g id="node9" class="node">
<title>Node18</title>
<polygon fill="none" stroke="black" points="534.5,-88 492.5,-88 492.5,-68 534.5,-68 534.5,-88"/>
<text text-anchor="middle" x="513.5" y="-75.2" font-family="-apple-system, BlinkMacSystemFont, 'Segoe UI', Roboto, Oxygen, Ubuntu, Cantarell, 'Fira Sans', 'Droid Sans', 'Helvetica Neue', sans-serif" font-size="11.00">Used</text>
</g>
<!-- Node18&#45;&gt;Node9 -->
<g id="edge8" class="edge">
<title>Node18&#45;&gt;Node9</title>
<path fill="none" stroke="#9a32cd" stroke-dasharray="5,2" d="M482.43,-67.72C416.12,-48.41 349.58,-29.71 312.17,-19.26"/>
<polygon fill="#9a32cd" stroke="#9a32cd" points="481.63,-71.13 492.21,-70.57 483.59,-64.41 481.63,-71.13"/>
<text text-anchor="middle" x="449" y="-41.2" font-family="-apple-system, BlinkMacSystemFont, 'Segoe UI', Roboto, Oxygen, Ubuntu, Cantarell, 'Fira Sans', 'Droid Sans', 'Helvetica Neue', sans-serif" font-size="11.00">m_usedClass</text>
</g>
</g>
</svg>
