<?xml version="1.0" encoding="UTF-8" standalone="no"?>
<!DOCTYPE svg PUBLIC "-//W3C//DTD SVG 1.1//EN"
 "http://www.w3.org/Graphics/SVG/1.1/DTD/svg11.dtd">
<!-- Generated by graphviz version 3.0.0 (20220413.0242)
 -->
<!-- Title: libmirai/public/libmirai/Events/GroupRecallEvent.cpp Pages: 1 -->
<svg width="596pt" height="212pt"
 viewBox="0.00 0.00 595.90 212.00" xmlns="http://www.w3.org/2000/svg" xmlns:xlink="http://www.w3.org/1999/xlink">
<g id="graph0" class="graph" transform="scale(1 1) rotate(0) translate(4 208)">
<title>libmirai/public/libmirai/Events/GroupRecallEvent.cpp</title>
<!-- Node1 -->
<g id="node1" class="node">
<title>Node1</title>
<g id="a_node1"><a xlink:title=" ">
<polygon fill="#bfbfbf" stroke="black" points="293.4,-171.5 293.4,-203.5 454.4,-203.5 454.4,-171.5 293.4,-171.5"/>
<text text-anchor="start" x="301.4" y="-190.7" font-family="-apple-system, BlinkMacSystemFont, 'Segoe UI', Roboto, Oxygen, Ubuntu, Cantarell, 'Fira Sans', 'Droid Sans', 'Helvetica Neue', sans-serif" font-size="11.00">libmirai/public/libmirai</text>
<text text-anchor="middle" x="373.9" y="-178.7" font-family="-apple-system, BlinkMacSystemFont, 'Segoe UI', Roboto, Oxygen, Ubuntu, Cantarell, 'Fira Sans', 'Droid Sans', 'Helvetica Neue', sans-serif" font-size="11.00">/Events/GroupRecallEvent.cpp</text>
</a>
</g>
</g>
<!-- Node2 -->
<g id="node2" class="node">
<title>Node2</title>
<g id="a_node2"><a xlink:href="GroupRecallEvent_8hpp.html" target="_top" xlink:title=" ">
<polygon fill="none" stroke="black" points="177.9,-114.5 177.9,-134.5 301.9,-134.5 301.9,-114.5 177.9,-114.5"/>
<text text-anchor="middle" x="239.9" y="-121.7" font-family="-apple-system, BlinkMacSystemFont, 'Segoe UI', Roboto, Oxygen, Ubuntu, Cantarell, 'Fira Sans', 'Droid Sans', 'Helvetica Neue', sans-serif" font-size="11.00">GroupRecallEvent.hpp</text>
</a>
</g>
</g>
<!-- Node1&#45;&gt;Node2 -->
<g id="edge1" class="edge">
<title>Node1&#45;&gt;Node2</title>
<path fill="none" stroke="midnightblue" d="M340.78,-171.42C318.73,-161.39 290.05,-148.33 268.91,-138.7"/>
<polygon fill="midnightblue" stroke="midnightblue" points="270.32,-135.5 259.77,-134.55 267.42,-141.87 270.32,-135.5"/>
</g>
<!-- Node13 -->
<g id="node9" class="node">
<title>Node13</title>
<g id="a_node9"><a xlink:title=" ">
<polygon fill="none" stroke="#bfbfbf" points="319.9,-114.5 319.9,-134.5 427.9,-134.5 427.9,-114.5 319.9,-114.5"/>
<text text-anchor="middle" x="373.9" y="-121.7" font-family="-apple-system, BlinkMacSystemFont, 'Segoe UI', Roboto, Oxygen, Ubuntu, Cantarell, 'Fira Sans', 'Droid Sans', 'Helvetica Neue', sans-serif" font-size="11.00">nlohmann/json.hpp</text>
</a>
</g>
</g>
<!-- Node1&#45;&gt;Node13 -->
<g id="edge13" class="edge">
<title>Node1&#45;&gt;Node13</title>
<path fill="none" stroke="midnightblue" d="M373.9,-171.42C373.9,-163.38 373.9,-153.39 373.9,-144.78"/>
<polygon fill="midnightblue" stroke="midnightblue" points="377.4,-144.55 373.9,-134.55 370.4,-144.55 377.4,-144.55"/>
</g>
<!-- Node14 -->
<g id="node10" class="node">
<title>Node14</title>
<g id="a_node10"><a xlink:title=" ">
<polygon fill="none" stroke="#bfbfbf" points="445.9,-114.5 445.9,-134.5 587.9,-134.5 587.9,-114.5 445.9,-114.5"/>
<text text-anchor="middle" x="516.9" y="-121.7" font-family="-apple-system, BlinkMacSystemFont, 'Segoe UI', Roboto, Oxygen, Ubuntu, Cantarell, 'Fira Sans', 'Droid Sans', 'Helvetica Neue', sans-serif" font-size="11.00">libmirai/Utils/Common.hpp</text>
</a>
</g>
</g>
<!-- Node1&#45;&gt;Node14 -->
<g id="edge14" class="edge">
<title>Node1&#45;&gt;Node14</title>
<path fill="none" stroke="midnightblue" d="M409.25,-171.42C432.88,-161.34 463.66,-148.21 486.25,-138.57"/>
<polygon fill="midnightblue" stroke="midnightblue" points="487.87,-141.69 495.7,-134.55 485.12,-135.25 487.87,-141.69"/>
</g>
<!-- Node3 -->
<g id="node3" class="node">
<title>Node3</title>
<g id="a_node3"><a xlink:title=" ">
<polygon fill="none" stroke="#bfbfbf" points="19.9,-0.5 19.9,-20.5 61.9,-20.5 61.9,-0.5 19.9,-0.5"/>
<text text-anchor="middle" x="40.9" y="-7.7" font-family="-apple-system, BlinkMacSystemFont, 'Segoe UI', Roboto, Oxygen, Ubuntu, Cantarell, 'Fira Sans', 'Droid Sans', 'Helvetica Neue', sans-serif" font-size="11.00">ctime</text>
</a>
</g>
</g>
<!-- Node2&#45;&gt;Node3 -->
<g id="edge2" class="edge">
<title>Node2&#45;&gt;Node3</title>
<path fill="none" stroke="midnightblue" d="M177.64,-120.17C115.56,-115.39 26.42,-104.09 4.9,-78 -7.86,-62.53 7.42,-41.85 21.82,-27.69"/>
<polygon fill="midnightblue" stroke="midnightblue" points="24.57,-29.91 29.55,-20.56 19.82,-24.77 24.57,-29.91"/>
</g>
<!-- Node4 -->
<g id="node4" class="node">
<title>Node4</title>
<g id="a_node4"><a xlink:title=" ">
<polygon fill="none" stroke="#bfbfbf" points="377.9,-57.5 377.9,-77.5 431.9,-77.5 431.9,-57.5 377.9,-57.5"/>
<text text-anchor="middle" x="404.9" y="-64.7" font-family="-apple-system, BlinkMacSystemFont, 'Segoe UI', Roboto, Oxygen, Ubuntu, Cantarell, 'Fira Sans', 'Droid Sans', 'Helvetica Neue', sans-serif" font-size="11.00">optional</text>
</a>
</g>
</g>
<!-- Node2&#45;&gt;Node4 -->
<g id="edge3" class="edge">
<title>Node2&#45;&gt;Node4</title>
<path fill="none" stroke="midnightblue" d="M267.15,-114.42C294.7,-105.23 337.46,-90.98 368.03,-80.79"/>
<polygon fill="midnightblue" stroke="midnightblue" points="369.51,-83.99 377.89,-77.5 367.3,-77.35 369.51,-83.99"/>
</g>
<!-- Node5 -->
<g id="node5" class="node">
<title>Node5</title>
<g id="a_node5"><a xlink:title=" ">
<polygon fill="none" stroke="#bfbfbf" points="166.4,-0.5 166.4,-20.5 209.4,-20.5 209.4,-0.5 166.4,-0.5"/>
<text text-anchor="middle" x="187.9" y="-7.7" font-family="-apple-system, BlinkMacSystemFont, 'Segoe UI', Roboto, Oxygen, Ubuntu, Cantarell, 'Fira Sans', 'Droid Sans', 'Helvetica Neue', sans-serif" font-size="11.00">string</text>
</a>
</g>
</g>
<!-- Node2&#45;&gt;Node5 -->
<g id="edge4" class="edge">
<title>Node2&#45;&gt;Node5</title>
<path fill="none" stroke="midnightblue" d="M235.65,-114.33C227.11,-95.96 207.77,-54.29 196.5,-30.01"/>
<polygon fill="midnightblue" stroke="midnightblue" points="199.6,-28.39 192.22,-20.79 193.25,-31.34 199.6,-28.39"/>
</g>
<!-- Node6 -->
<g id="node6" class="node">
<title>Node6</title>
<g id="a_node6"><a xlink:title=" ">
<polygon fill="none" stroke="#bfbfbf" points="227.4,-0.5 227.4,-20.5 358.4,-20.5 358.4,-0.5 227.4,-0.5"/>
<text text-anchor="middle" x="292.9" y="-7.7" font-family="-apple-system, BlinkMacSystemFont, 'Segoe UI', Roboto, Oxygen, Ubuntu, Cantarell, 'Fira Sans', 'Droid Sans', 'Helvetica Neue', sans-serif" font-size="11.00">nlohmann/json_fwd.hpp</text>
</a>
</g>
</g>
<!-- Node2&#45;&gt;Node6 -->
<g id="edge5" class="edge">
<title>Node2&#45;&gt;Node6</title>
<path fill="none" stroke="midnightblue" d="M277.94,-114.43C297.06,-107.75 318.53,-96.49 329.9,-78 340.3,-61.1 325.76,-41.14 311.97,-27.53"/>
<polygon fill="midnightblue" stroke="midnightblue" points="314.27,-24.89 304.54,-20.68 309.52,-30.03 314.27,-24.89"/>
</g>
<!-- Node7 -->
<g id="node7" class="node">
<title>Node7</title>
<g id="a_node7"><a xlink:href="BasicTypes_8hpp.html" target="_top" xlink:title=" ">
<polygon fill="none" stroke="red" points="13.9,-57.5 13.9,-77.5 175.9,-77.5 175.9,-57.5 13.9,-57.5"/>
<text text-anchor="middle" x="94.9" y="-64.7" font-family="-apple-system, BlinkMacSystemFont, 'Segoe UI', Roboto, Oxygen, Ubuntu, Cantarell, 'Fira Sans', 'Droid Sans', 'Helvetica Neue', sans-serif" font-size="11.00">libmirai/Types/BasicTypes.hpp</text>
</a>
</g>
</g>
<!-- Node2&#45;&gt;Node7 -->
<g id="edge6" class="edge">
<title>Node2&#45;&gt;Node7</title>
<path fill="none" stroke="midnightblue" d="M215.96,-114.42C192.03,-105.34 155.04,-91.31 128.25,-81.15"/>
<polygon fill="midnightblue" stroke="midnightblue" points="129.47,-77.87 118.88,-77.6 126.99,-84.41 129.47,-77.87"/>
</g>
<!-- Node11 -->
<g id="node8" class="node">
<title>Node11</title>
<g id="a_node8"><a xlink:href="EventBase_8hpp.html" target="_top" xlink:title=" ">
<polygon fill="none" stroke="red" points="232.4,-57.5 232.4,-77.5 321.4,-77.5 321.4,-57.5 232.4,-57.5"/>
<text text-anchor="middle" x="276.9" y="-64.7" font-family="-apple-system, BlinkMacSystemFont, 'Segoe UI', Roboto, Oxygen, Ubuntu, Cantarell, 'Fira Sans', 'Droid Sans', 'Helvetica Neue', sans-serif" font-size="11.00">EventBase.hpp</text>
</a>
</g>
</g>
<!-- Node2&#45;&gt;Node11 -->
<g id="edge10" class="edge">
<title>Node2&#45;&gt;Node11</title>
<path fill="none" stroke="midnightblue" d="M246.01,-114.42C251.18,-106.74 258.72,-95.52 265.07,-86.09"/>
<polygon fill="midnightblue" stroke="midnightblue" points="267.98,-88.03 270.66,-77.78 262.17,-84.12 267.98,-88.03"/>
</g>
<!-- Node7&#45;&gt;Node3 -->
<g id="edge7" class="edge">
<title>Node7&#45;&gt;Node3</title>
<path fill="none" stroke="midnightblue" d="M85.98,-57.42C78.14,-49.42 66.52,-37.59 57.04,-27.94"/>
<polygon fill="midnightblue" stroke="midnightblue" points="59.52,-25.46 50.01,-20.78 54.52,-30.37 59.52,-25.46"/>
</g>
<!-- Node7&#45;&gt;Node5 -->
<g id="edge8" class="edge">
<title>Node7&#45;&gt;Node5</title>
<path fill="none" stroke="midnightblue" d="M110.26,-57.42C124.8,-48.82 146.85,-35.78 163.75,-25.78"/>
<polygon fill="midnightblue" stroke="midnightblue" points="165.7,-28.7 172.52,-20.6 162.13,-22.67 165.7,-28.7"/>
</g>
<!-- Node7&#45;&gt;Node6 -->
<g id="edge9" class="edge">
<title>Node7&#45;&gt;Node6</title>
<path fill="none" stroke="midnightblue" d="M127.6,-57.42C161.23,-48.08 213.76,-33.48 250.55,-23.26"/>
<polygon fill="midnightblue" stroke="midnightblue" points="251.79,-26.55 260.49,-20.5 249.91,-19.81 251.79,-26.55"/>
</g>
<!-- Node11&#45;&gt;Node5 -->
<g id="edge11" class="edge">
<title>Node11&#45;&gt;Node5</title>
<path fill="none" stroke="midnightblue" d="M262.2,-57.42C248.42,-48.9 227.57,-36.02 211.47,-26.06"/>
<polygon fill="midnightblue" stroke="midnightblue" points="212.97,-22.88 202.62,-20.6 209.29,-28.83 212.97,-22.88"/>
</g>
<!-- Node11&#45;&gt;Node6 -->
<g id="edge12" class="edge">
<title>Node11&#45;&gt;Node6</title>
<path fill="none" stroke="midnightblue" d="M279.54,-57.42C281.66,-50.14 284.71,-39.67 287.35,-30.57"/>
<polygon fill="midnightblue" stroke="midnightblue" points="290.77,-31.36 290.2,-20.78 284.05,-29.4 290.77,-31.36"/>
</g>
</g>
</svg>
