<?xml version="1.0" encoding="UTF-8" standalone="no"?>
<!DOCTYPE svg PUBLIC "-//W3C//DTD SVG 1.1//EN"
 "http://www.w3.org/Graphics/SVG/1.1/DTD/svg11.dtd">
<!-- Generated by graphviz version 3.0.0 (20220413.0242)
 -->
<!-- Title: libmirai/public/libmirai/Events/GroupRecallEvent.hpp Pages: 1 -->
<svg width="590pt" height="212pt"
 viewBox="0.00 0.00 589.77 212.00" xmlns="http://www.w3.org/2000/svg" xmlns:xlink="http://www.w3.org/1999/xlink">
<g id="graph0" class="graph" transform="scale(1 1) rotate(0) translate(4 208)">
<title>libmirai/public/libmirai/Events/GroupRecallEvent.hpp</title>
<!-- Node1 -->
<g id="node1" class="node">
<title>Node1</title>
<g id="a_node1"><a xlink:title=" ">
<polygon fill="#bfbfbf" stroke="black" points="272,-171.5 272,-203.5 434,-203.5 434,-171.5 272,-171.5"/>
<text text-anchor="start" x="280" y="-190.7" font-family="-apple-system, BlinkMacSystemFont, 'Segoe UI', Roboto, Oxygen, Ubuntu, Cantarell, 'Fira Sans', 'Droid Sans', 'Helvetica Neue', sans-serif" font-size="11.00">libmirai/public/libmirai</text>
<text text-anchor="middle" x="353" y="-178.7" font-family="-apple-system, BlinkMacSystemFont, 'Segoe UI', Roboto, Oxygen, Ubuntu, Cantarell, 'Fira Sans', 'Droid Sans', 'Helvetica Neue', sans-serif" font-size="11.00">/Events/GroupRecallEvent.hpp</text>
</a>
</g>
</g>
<!-- Node2 -->
<g id="node2" class="node">
<title>Node2</title>
<g id="a_node2"><a xlink:title=" ">
<polygon fill="none" stroke="#bfbfbf" points="0,-57.5 0,-77.5 42,-77.5 42,-57.5 0,-57.5"/>
<text text-anchor="middle" x="21" y="-64.7" font-family="-apple-system, BlinkMacSystemFont, 'Segoe UI', Roboto, Oxygen, Ubuntu, Cantarell, 'Fira Sans', 'Droid Sans', 'Helvetica Neue', sans-serif" font-size="11.00">ctime</text>
</a>
</g>
</g>
<!-- Node1&#45;&gt;Node2 -->
<g id="edge1" class="edge">
<title>Node1&#45;&gt;Node2</title>
<path fill="none" stroke="midnightblue" d="M271.82,-172.87C230.57,-164.53 180.19,-152.11 137,-135 102.1,-121.17 65,-98.28 42.41,-83.29"/>
<polygon fill="midnightblue" stroke="midnightblue" points="44.19,-80.27 33.94,-77.59 40.28,-86.08 44.19,-80.27"/>
</g>
<!-- Node3 -->
<g id="node3" class="node">
<title>Node3</title>
<g id="a_node3"><a xlink:title=" ">
<polygon fill="none" stroke="#bfbfbf" points="146,-114.5 146,-134.5 200,-134.5 200,-114.5 146,-114.5"/>
<text text-anchor="middle" x="173" y="-121.7" font-family="-apple-system, BlinkMacSystemFont, 'Segoe UI', Roboto, Oxygen, Ubuntu, Cantarell, 'Fira Sans', 'Droid Sans', 'Helvetica Neue', sans-serif" font-size="11.00">optional</text>
</a>
</g>
</g>
<!-- Node1&#45;&gt;Node3 -->
<g id="edge2" class="edge">
<title>Node1&#45;&gt;Node3</title>
<path fill="none" stroke="midnightblue" d="M308.51,-171.42C277.96,-161.07 237.92,-147.5 209.31,-137.8"/>
<polygon fill="midnightblue" stroke="midnightblue" points="210.29,-134.44 199.69,-134.55 208.04,-141.07 210.29,-134.44"/>
</g>
<!-- Node4 -->
<g id="node4" class="node">
<title>Node4</title>
<g id="a_node4"><a xlink:title=" ">
<polygon fill="none" stroke="#bfbfbf" points="405.5,-57.5 405.5,-77.5 448.5,-77.5 448.5,-57.5 405.5,-57.5"/>
<text text-anchor="middle" x="427" y="-64.7" font-family="-apple-system, BlinkMacSystemFont, 'Segoe UI', Roboto, Oxygen, Ubuntu, Cantarell, 'Fira Sans', 'Droid Sans', 'Helvetica Neue', sans-serif" font-size="11.00">string</text>
</a>
</g>
</g>
<!-- Node1&#45;&gt;Node4 -->
<g id="edge3" class="edge">
<title>Node1&#45;&gt;Node4</title>
<path fill="none" stroke="midnightblue" d="M364.08,-171.42C371.4,-161.28 381.06,-147.53 389,-135 399.19,-118.91 409.87,-100.01 417.31,-86.48"/>
<polygon fill="midnightblue" stroke="midnightblue" points="420.38,-88.15 422.09,-77.69 414.24,-84.8 420.38,-88.15"/>
</g>
<!-- Node5 -->
<g id="node5" class="node">
<title>Node5</title>
<g id="a_node5"><a xlink:title=" ">
<polygon fill="none" stroke="#bfbfbf" points="297.5,-0.5 297.5,-20.5 428.5,-20.5 428.5,-0.5 297.5,-0.5"/>
<text text-anchor="middle" x="363" y="-7.7" font-family="-apple-system, BlinkMacSystemFont, 'Segoe UI', Roboto, Oxygen, Ubuntu, Cantarell, 'Fira Sans', 'Droid Sans', 'Helvetica Neue', sans-serif" font-size="11.00">nlohmann/json_fwd.hpp</text>
</a>
</g>
</g>
<!-- Node1&#45;&gt;Node5 -->
<g id="edge4" class="edge">
<title>Node1&#45;&gt;Node5</title>
<path fill="none" stroke="midnightblue" d="M428.67,-171.48C508.3,-152.26 616.19,-114.44 570,-57 553.48,-36.46 490.62,-24.66 438.46,-18.25"/>
<polygon fill="midnightblue" stroke="midnightblue" points="438.87,-14.77 428.53,-17.08 438.05,-21.72 438.87,-14.77"/>
</g>
<!-- Node6 -->
<g id="node6" class="node">
<title>Node6</title>
<g id="a_node6"><a xlink:href="BasicTypes_8hpp.html" target="_top" xlink:title=" ">
<polygon fill="none" stroke="black" points="218,-114.5 218,-134.5 380,-134.5 380,-114.5 218,-114.5"/>
<text text-anchor="middle" x="299" y="-121.7" font-family="-apple-system, BlinkMacSystemFont, 'Segoe UI', Roboto, Oxygen, Ubuntu, Cantarell, 'Fira Sans', 'Droid Sans', 'Helvetica Neue', sans-serif" font-size="11.00">libmirai/Types/BasicTypes.hpp</text>
</a>
</g>
</g>
<!-- Node1&#45;&gt;Node6 -->
<g id="edge5" class="edge">
<title>Node1&#45;&gt;Node6</title>
<path fill="none" stroke="midnightblue" d="M339.65,-171.42C331.81,-162.56 321.88,-151.35 313.8,-142.22"/>
<polygon fill="midnightblue" stroke="midnightblue" points="316.26,-139.71 307.01,-134.55 311.02,-144.35 316.26,-139.71"/>
</g>
<!-- Node10 -->
<g id="node10" class="node">
<title>Node10</title>
<g id="a_node10"><a xlink:href="EventBase_8hpp.html" target="_top" xlink:title=" ">
<polygon fill="none" stroke="black" points="436.5,-114.5 436.5,-134.5 525.5,-134.5 525.5,-114.5 436.5,-114.5"/>
<text text-anchor="middle" x="481" y="-121.7" font-family="-apple-system, BlinkMacSystemFont, 'Segoe UI', Roboto, Oxygen, Ubuntu, Cantarell, 'Fira Sans', 'Droid Sans', 'Helvetica Neue', sans-serif" font-size="11.00">EventBase.hpp</text>
</a>
</g>
</g>
<!-- Node1&#45;&gt;Node10 -->
<g id="edge13" class="edge">
<title>Node1&#45;&gt;Node10</title>
<path fill="none" stroke="midnightblue" d="M384.64,-171.42C405.51,-161.48 432.6,-148.56 452.75,-138.96"/>
<polygon fill="midnightblue" stroke="midnightblue" points="454.5,-142.01 462.02,-134.55 451.49,-135.69 454.5,-142.01"/>
</g>
<!-- Node6&#45;&gt;Node2 -->
<g id="edge7" class="edge">
<title>Node6&#45;&gt;Node2</title>
<path fill="none" stroke="midnightblue" d="M237.9,-114.48C189.79,-106.88 120.9,-94.9 52.32,-78.09"/>
<polygon fill="midnightblue" stroke="midnightblue" points="52.76,-74.59 42.21,-75.58 51.07,-81.39 52.76,-74.59"/>
</g>
<!-- Node6&#45;&gt;Node4 -->
<g id="edge8" class="edge">
<title>Node6&#45;&gt;Node4</title>
<path fill="none" stroke="midnightblue" d="M320.14,-114.42C340.98,-105.46 373.05,-91.68 396.62,-81.55"/>
<polygon fill="midnightblue" stroke="midnightblue" points="398.03,-84.76 405.83,-77.6 395.26,-78.33 398.03,-84.76"/>
</g>
<!-- Node6&#45;&gt;Node5 -->
<g id="edge10" class="edge">
<title>Node6&#45;&gt;Node5</title>
<path fill="none" stroke="midnightblue" d="M289.01,-114.06C276.21,-100.79 257.02,-76.1 269,-57 278.74,-41.46 295.46,-31.1 312.12,-24.25"/>
<polygon fill="midnightblue" stroke="midnightblue" points="313.73,-27.38 321.87,-20.61 311.28,-20.83 313.73,-27.38"/>
</g>
<!-- Node7 -->
<g id="node7" class="node">
<title>Node7</title>
<g id="a_node7"><a xlink:title=" ">
<polygon fill="none" stroke="#bfbfbf" points="278,-57.5 278,-77.5 328,-77.5 328,-57.5 278,-57.5"/>
<text text-anchor="middle" x="303" y="-64.7" font-family="-apple-system, BlinkMacSystemFont, 'Segoe UI', Roboto, Oxygen, Ubuntu, Cantarell, 'Fira Sans', 'Droid Sans', 'Helvetica Neue', sans-serif" font-size="11.00">chrono</text>
</a>
</g>
</g>
<!-- Node6&#45;&gt;Node7 -->
<g id="edge6" class="edge">
<title>Node6&#45;&gt;Node7</title>
<path fill="none" stroke="midnightblue" d="M299.66,-114.42C300.18,-107.22 300.93,-96.9 301.59,-87.86"/>
<polygon fill="midnightblue" stroke="midnightblue" points="305.09,-88.01 302.33,-77.78 298.11,-87.5 305.09,-88.01"/>
</g>
<!-- Node8 -->
<g id="node8" class="node">
<title>Node8</title>
<g id="a_node8"><a xlink:title=" ">
<polygon fill="none" stroke="#bfbfbf" points="346.5,-57.5 346.5,-77.5 387.5,-77.5 387.5,-57.5 346.5,-57.5"/>
<text text-anchor="middle" x="367" y="-64.7" font-family="-apple-system, BlinkMacSystemFont, 'Segoe UI', Roboto, Oxygen, Ubuntu, Cantarell, 'Fira Sans', 'Droid Sans', 'Helvetica Neue', sans-serif" font-size="11.00">utility</text>
</a>
</g>
</g>
<!-- Node6&#45;&gt;Node8 -->
<g id="edge9" class="edge">
<title>Node6&#45;&gt;Node8</title>
<path fill="none" stroke="midnightblue" d="M310.23,-114.42C320.4,-106.19 335.62,-93.88 347.73,-84.08"/>
<polygon fill="midnightblue" stroke="midnightblue" points="349.95,-86.79 355.53,-77.78 345.55,-81.35 349.95,-86.79"/>
</g>
<!-- Node9 -->
<g id="node9" class="node">
<title>Node9</title>
<g id="a_node9"><a xlink:href="Serializable_8hpp.html" target="_top" xlink:title=" ">
<polygon fill="none" stroke="black" points="60,-57.5 60,-77.5 222,-77.5 222,-57.5 60,-57.5"/>
<text text-anchor="middle" x="141" y="-64.7" font-family="-apple-system, BlinkMacSystemFont, 'Segoe UI', Roboto, Oxygen, Ubuntu, Cantarell, 'Fira Sans', 'Droid Sans', 'Helvetica Neue', sans-serif" font-size="11.00">libmirai/Types/Serializable.hpp</text>
</a>
</g>
</g>
<!-- Node6&#45;&gt;Node9 -->
<g id="edge11" class="edge">
<title>Node6&#45;&gt;Node9</title>
<path fill="none" stroke="midnightblue" d="M272.91,-114.42C246.64,-105.27 205.94,-91.1 176.69,-80.92"/>
<polygon fill="midnightblue" stroke="midnightblue" points="177.46,-77.49 166.87,-77.5 175.16,-84.1 177.46,-77.49"/>
</g>
<!-- Node9&#45;&gt;Node5 -->
<g id="edge12" class="edge">
<title>Node9&#45;&gt;Node5</title>
<path fill="none" stroke="midnightblue" d="M177.66,-57.42C215.77,-47.98 275.53,-33.17 316.84,-22.94"/>
<polygon fill="midnightblue" stroke="midnightblue" points="317.79,-26.31 326.66,-20.5 316.11,-19.51 317.79,-26.31"/>
</g>
<!-- Node10&#45;&gt;Node4 -->
<g id="edge15" class="edge">
<title>Node10&#45;&gt;Node4</title>
<path fill="none" stroke="midnightblue" d="M472.08,-114.42C464.24,-106.42 452.62,-94.59 443.14,-84.94"/>
<polygon fill="midnightblue" stroke="midnightblue" points="445.61,-82.46 436.11,-77.78 440.62,-87.37 445.61,-82.46"/>
</g>
<!-- Node10&#45;&gt;Node5 -->
<g id="edge16" class="edge">
<title>Node10&#45;&gt;Node5</title>
<path fill="none" stroke="midnightblue" d="M480.06,-114.2C478.18,-100.2 472.8,-73.59 458,-57 444.44,-41.8 424.7,-31.22 406.72,-24.11"/>
<polygon fill="midnightblue" stroke="midnightblue" points="407.56,-20.69 396.96,-20.51 405.13,-27.25 407.56,-20.69"/>
</g>
<!-- Node11 -->
<g id="node11" class="node">
<title>Node11</title>
<g id="a_node11"><a xlink:title=" ">
<polygon fill="none" stroke="#bfbfbf" points="505,-57.5 505,-77.5 561,-77.5 561,-57.5 505,-57.5"/>
<text text-anchor="middle" x="533" y="-64.7" font-family="-apple-system, BlinkMacSystemFont, 'Segoe UI', Roboto, Oxygen, Ubuntu, Cantarell, 'Fira Sans', 'Droid Sans', 'Helvetica Neue', sans-serif" font-size="11.00">memory</text>
</a>
</g>
</g>
<!-- Node10&#45;&gt;Node11 -->
<g id="edge14" class="edge">
<title>Node10&#45;&gt;Node11</title>
<path fill="none" stroke="midnightblue" d="M489.59,-114.42C497.07,-106.5 508.11,-94.82 517.19,-85.23"/>
<polygon fill="midnightblue" stroke="midnightblue" points="519.9,-87.45 524.23,-77.78 514.81,-82.64 519.9,-87.45"/>
</g>
</g>
</svg>
