<?xml version="1.0" encoding="UTF-8" standalone="no"?>
<!DOCTYPE svg PUBLIC "-//W3C//DTD SVG 1.1//EN"
 "http://www.w3.org/Graphics/SVG/1.1/DTD/svg11.dtd">
<!-- Generated by graphviz version 3.0.0 (20221109.1736)
 -->
<!-- Title: libmirai/models/libmirai/Types/GroupSettings.hpp Pages: 1 -->
<svg width="270pt" height="155pt"
 viewBox="0.00 0.00 269.50 155.00" xmlns="http://www.w3.org/2000/svg" xmlns:xlink="http://www.w3.org/1999/xlink">
<g id="graph0" class="graph" transform="scale(1 1) rotate(0) translate(4 151)">
<title>libmirai/models/libmirai/Types/GroupSettings.hpp</title>
<!-- Node1 -->
<g id="node1" class="node">
<title>Node1</title>
<g id="a_node1"><a xlink:title=" ">
<polygon fill="#bfbfbf" stroke="black" points="0,-114.5 0,-146.5 142,-146.5 142,-114.5 0,-114.5"/>
<text text-anchor="start" x="8" y="-133.7" font-family="-apple-system, BlinkMacSystemFont, 'Segoe UI', Roboto, Oxygen, Ubuntu, Cantarell, 'Fira Sans', 'Droid Sans', 'Helvetica Neue', sans-serif" font-size="11.00">libmirai/models/libmirai</text>
<text text-anchor="middle" x="71" y="-121.7" font-family="-apple-system, BlinkMacSystemFont, 'Segoe UI', Roboto, Oxygen, Ubuntu, Cantarell, 'Fira Sans', 'Droid Sans', 'Helvetica Neue', sans-serif" font-size="11.00">/Types/GroupSettings.hpp</text>
</a>
</g>
</g>
<!-- Node2 -->
<g id="node2" class="node">
<title>Node2</title>
<g id="a_node2"><a xlink:title=" ">
<polygon fill="none" stroke="#bfbfbf" points="22,-0.5 22,-20.5 64,-20.5 64,-0.5 22,-0.5"/>
<text text-anchor="middle" x="43" y="-7.7" font-family="-apple-system, BlinkMacSystemFont, 'Segoe UI', Roboto, Oxygen, Ubuntu, Cantarell, 'Fira Sans', 'Droid Sans', 'Helvetica Neue', sans-serif" font-size="11.00">ctime</text>
</a>
</g>
</g>
<!-- Node1&#45;&gt;Node2 -->
<g id="edge1" class="edge">
<title>Node1&#45;&gt;Node2</title>
<path fill="none" stroke="midnightblue" d="M66.6,-114.24C63.72,-104.02 59.95,-90.25 57,-78 53.16,-62.05 49.36,-43.81 46.69,-30.47"/>
<polygon fill="midnightblue" stroke="midnightblue" points="50.11,-29.71 44.74,-20.57 43.24,-31.06 50.11,-29.71"/>
</g>
<!-- Node3 -->
<g id="node3" class="node">
<title>Node3</title>
<g id="a_node3"><a xlink:title=" ">
<polygon fill="none" stroke="#bfbfbf" points="87.5,-0.5 87.5,-20.5 130.5,-20.5 130.5,-0.5 87.5,-0.5"/>
<text text-anchor="middle" x="109" y="-7.7" font-family="-apple-system, BlinkMacSystemFont, 'Segoe UI', Roboto, Oxygen, Ubuntu, Cantarell, 'Fira Sans', 'Droid Sans', 'Helvetica Neue', sans-serif" font-size="11.00">string</text>
</a>
</g>
</g>
<!-- Node1&#45;&gt;Node3 -->
<g id="edge2" class="edge">
<title>Node1&#45;&gt;Node3</title>
<path fill="none" stroke="midnightblue" d="M74.33,-114.32C77.72,-99.53 83.42,-76.48 90,-57 93.05,-47.99 97.03,-38.23 100.56,-30.07"/>
<polygon fill="midnightblue" stroke="midnightblue" points="103.83,-31.33 104.68,-20.77 97.43,-28.49 103.83,-31.33"/>
</g>
<!-- Node4 -->
<g id="node4" class="node">
<title>Node4</title>
<g id="a_node4"><a xlink:href="BasicTypes_8hpp.html" target="_top" xlink:title=" ">
<polygon fill="none" stroke="black" points="99,-57.5 99,-77.5 261,-77.5 261,-57.5 99,-57.5"/>
<text text-anchor="middle" x="180" y="-64.7" font-family="-apple-system, BlinkMacSystemFont, 'Segoe UI', Roboto, Oxygen, Ubuntu, Cantarell, 'Fira Sans', 'Droid Sans', 'Helvetica Neue', sans-serif" font-size="11.00">libmirai/Types/BasicTypes.hpp</text>
</a>
</g>
</g>
<!-- Node1&#45;&gt;Node4 -->
<g id="edge3" class="edge">
<title>Node1&#45;&gt;Node4</title>
<path fill="none" stroke="midnightblue" d="M97.94,-114.42C115.39,-104.66 137.95,-92.03 155,-82.49"/>
<polygon fill="midnightblue" stroke="midnightblue" points="156.82,-85.48 163.84,-77.55 153.4,-79.38 156.82,-85.48"/>
</g>
<!-- Node4&#45;&gt;Node2 -->
<g id="edge5" class="edge">
<title>Node4&#45;&gt;Node2</title>
<path fill="none" stroke="midnightblue" d="M157.38,-57.42C134.57,-48.26 99.19,-34.06 73.82,-23.87"/>
<polygon fill="midnightblue" stroke="midnightblue" points="74.89,-20.53 64.3,-20.05 72.28,-27.03 74.89,-20.53"/>
</g>
<!-- Node4&#45;&gt;Node3 -->
<g id="edge6" class="edge">
<title>Node4&#45;&gt;Node3</title>
<path fill="none" stroke="midnightblue" d="M168.28,-57.42C157.65,-49.19 141.77,-36.88 129.12,-27.08"/>
<polygon fill="midnightblue" stroke="midnightblue" points="131.03,-24.14 120.98,-20.78 126.74,-29.67 131.03,-24.14"/>
</g>
<!-- Node5 -->
<g id="node5" class="node">
<title>Node5</title>
<g id="a_node5"><a xlink:title=" ">
<polygon fill="none" stroke="#bfbfbf" points="152,-0.5 152,-20.5 202,-20.5 202,-0.5 152,-0.5"/>
<text text-anchor="middle" x="177" y="-7.7" font-family="-apple-system, BlinkMacSystemFont, 'Segoe UI', Roboto, Oxygen, Ubuntu, Cantarell, 'Fira Sans', 'Droid Sans', 'Helvetica Neue', sans-serif" font-size="11.00">chrono</text>
</a>
</g>
</g>
<!-- Node4&#45;&gt;Node5 -->
<g id="edge4" class="edge">
<title>Node4&#45;&gt;Node5</title>
<path fill="none" stroke="midnightblue" d="M179.5,-57.42C179.11,-50.22 178.55,-39.9 178.06,-30.86"/>
<polygon fill="midnightblue" stroke="midnightblue" points="181.55,-30.57 177.51,-20.78 174.56,-30.96 181.55,-30.57"/>
</g>
<!-- Node6 -->
<g id="node6" class="node">
<title>Node6</title>
<g id="a_node6"><a xlink:title=" ">
<polygon fill="none" stroke="#bfbfbf" points="220.5,-0.5 220.5,-20.5 261.5,-20.5 261.5,-0.5 220.5,-0.5"/>
<text text-anchor="middle" x="241" y="-7.7" font-family="-apple-system, BlinkMacSystemFont, 'Segoe UI', Roboto, Oxygen, Ubuntu, Cantarell, 'Fira Sans', 'Droid Sans', 'Helvetica Neue', sans-serif" font-size="11.00">utility</text>
</a>
</g>
</g>
<!-- Node4&#45;&gt;Node6 -->
<g id="edge7" class="edge">
<title>Node4&#45;&gt;Node6</title>
<path fill="none" stroke="midnightblue" d="M190.07,-57.42C199.03,-49.35 212.32,-37.36 223.09,-27.65"/>
<polygon fill="midnightblue" stroke="midnightblue" points="225.63,-30.08 230.71,-20.78 220.94,-24.88 225.63,-30.08"/>
</g>
</g>
</svg>
