<?xml version="1.0" encoding="UTF-8" standalone="no"?>
<!DOCTYPE svg PUBLIC "-//W3C//DTD SVG 1.1//EN"
 "http://www.w3.org/Graphics/SVG/1.1/DTD/svg11.dtd">
<!-- Generated by graphviz version 3.0.0 (20220413.0242)
 -->
<!-- Title: libmirai/public/libmirai/Events/GroupRecallEvent.hpp Pages: 1 -->
<svg width="534pt" height="212pt"
 viewBox="0.00 0.00 534.46 212.00" xmlns="http://www.w3.org/2000/svg" xmlns:xlink="http://www.w3.org/1999/xlink">
<g id="graph0" class="graph" transform="scale(1 1) rotate(0) translate(4 208)">
<title>libmirai/public/libmirai/Events/GroupRecallEvent.hpp</title>
<!-- Node1 -->
<g id="node1" class="node">
<title>Node1</title>
<g id="a_node1"><a xlink:title=" ">
<polygon fill="#bfbfbf" stroke="black" points="79.46,-171.5 79.46,-203.5 241.46,-203.5 241.46,-171.5 79.46,-171.5"/>
<text text-anchor="start" x="87.46" y="-190.7" font-family="-apple-system, BlinkMacSystemFont, 'Segoe UI', Roboto, Oxygen, Ubuntu, Cantarell, 'Fira Sans', 'Droid Sans', 'Helvetica Neue', sans-serif" font-size="11.00">libmirai/public/libmirai</text>
<text text-anchor="middle" x="160.46" y="-178.7" font-family="-apple-system, BlinkMacSystemFont, 'Segoe UI', Roboto, Oxygen, Ubuntu, Cantarell, 'Fira Sans', 'Droid Sans', 'Helvetica Neue', sans-serif" font-size="11.00">/Events/GroupRecallEvent.hpp</text>
</a>
</g>
</g>
<!-- Node2 -->
<g id="node2" class="node">
<title>Node2</title>
<g id="a_node2"><a xlink:title=" ">
<polygon fill="none" stroke="#bfbfbf" points="24.46,-57.5 24.46,-77.5 66.46,-77.5 66.46,-57.5 24.46,-57.5"/>
<text text-anchor="middle" x="45.46" y="-64.7" font-family="-apple-system, BlinkMacSystemFont, 'Segoe UI', Roboto, Oxygen, Ubuntu, Cantarell, 'Fira Sans', 'Droid Sans', 'Helvetica Neue', sans-serif" font-size="11.00">ctime</text>
</a>
</g>
</g>
<!-- Node1&#45;&gt;Node2 -->
<g id="edge1" class="edge">
<title>Node1&#45;&gt;Node2</title>
<path fill="none" stroke="midnightblue" d="M145.42,-171.07C123.75,-148.83 83.88,-107.93 61.6,-85.07"/>
<polygon fill="midnightblue" stroke="midnightblue" points="64,-82.51 54.51,-77.79 58.99,-87.4 64,-82.51"/>
</g>
<!-- Node3 -->
<g id="node3" class="node">
<title>Node3</title>
<g id="a_node3"><a xlink:title=" ">
<polygon fill="none" stroke="#bfbfbf" points="24.46,-114.5 24.46,-134.5 78.46,-134.5 78.46,-114.5 24.46,-114.5"/>
<text text-anchor="middle" x="51.46" y="-121.7" font-family="-apple-system, BlinkMacSystemFont, 'Segoe UI', Roboto, Oxygen, Ubuntu, Cantarell, 'Fira Sans', 'Droid Sans', 'Helvetica Neue', sans-serif" font-size="11.00">optional</text>
</a>
</g>
</g>
<!-- Node1&#45;&gt;Node3 -->
<g id="edge2" class="edge">
<title>Node1&#45;&gt;Node3</title>
<path fill="none" stroke="midnightblue" d="M133.51,-171.42C116.06,-161.66 93.5,-149.03 76.46,-139.49"/>
<polygon fill="midnightblue" stroke="midnightblue" points="78.06,-136.38 67.62,-134.55 74.64,-142.48 78.06,-136.38"/>
</g>
<!-- Node4 -->
<g id="node4" class="node">
<title>Node4</title>
<g id="a_node4"><a xlink:title=" ">
<polygon fill="none" stroke="#bfbfbf" points="370.96,-57.5 370.96,-77.5 413.96,-77.5 413.96,-57.5 370.96,-57.5"/>
<text text-anchor="middle" x="392.46" y="-64.7" font-family="-apple-system, BlinkMacSystemFont, 'Segoe UI', Roboto, Oxygen, Ubuntu, Cantarell, 'Fira Sans', 'Droid Sans', 'Helvetica Neue', sans-serif" font-size="11.00">string</text>
</a>
</g>
</g>
<!-- Node1&#45;&gt;Node4 -->
<g id="edge3" class="edge">
<title>Node1&#45;&gt;Node4</title>
<path fill="none" stroke="midnightblue" d="M215.19,-171.5C243.09,-162.76 277.04,-150.41 305.46,-135 331.5,-120.88 358.07,-99.31 374.88,-84.59"/>
<polygon fill="midnightblue" stroke="midnightblue" points="377.59,-86.86 382.73,-77.59 372.93,-81.64 377.59,-86.86"/>
</g>
<!-- Node5 -->
<g id="node5" class="node">
<title>Node5</title>
<g id="a_node5"><a xlink:title=" ">
<polygon fill="none" stroke="#bfbfbf" points="116.96,-0.5 116.96,-20.5 247.96,-20.5 247.96,-0.5 116.96,-0.5"/>
<text text-anchor="middle" x="182.46" y="-7.7" font-family="-apple-system, BlinkMacSystemFont, 'Segoe UI', Roboto, Oxygen, Ubuntu, Cantarell, 'Fira Sans', 'Droid Sans', 'Helvetica Neue', sans-serif" font-size="11.00">nlohmann/json_fwd.hpp</text>
</a>
</g>
</g>
<!-- Node1&#45;&gt;Node5 -->
<g id="edge4" class="edge">
<title>Node1&#45;&gt;Node5</title>
<path fill="none" stroke="midnightblue" d="M79.43,-176.08C54.84,-168.69 30.4,-156.17 15.46,-135 -4.54,-106.68 -5.59,-84.55 15.46,-57 27.35,-41.43 70.49,-29.91 109.93,-22.36"/>
<polygon fill="midnightblue" stroke="midnightblue" points="110.67,-25.78 119.86,-20.53 109.39,-18.9 110.67,-25.78"/>
</g>
<!-- Node6 -->
<g id="node6" class="node">
<title>Node6</title>
<g id="a_node6"><a xlink:href="BasicTypes_8hpp.html" target="_top" xlink:title=" ">
<polygon fill="none" stroke="black" points="134.46,-114.5 134.46,-134.5 296.46,-134.5 296.46,-114.5 134.46,-114.5"/>
<text text-anchor="middle" x="215.46" y="-121.7" font-family="-apple-system, BlinkMacSystemFont, 'Segoe UI', Roboto, Oxygen, Ubuntu, Cantarell, 'Fira Sans', 'Droid Sans', 'Helvetica Neue', sans-serif" font-size="11.00">libmirai/Types/BasicTypes.hpp</text>
</a>
</g>
</g>
<!-- Node1&#45;&gt;Node6 -->
<g id="edge5" class="edge">
<title>Node1&#45;&gt;Node6</title>
<path fill="none" stroke="midnightblue" d="M174.05,-171.42C182.04,-162.56 192.15,-151.35 200.38,-142.22"/>
<polygon fill="midnightblue" stroke="midnightblue" points="203.2,-144.32 207.3,-134.55 198,-139.63 203.2,-144.32"/>
</g>
<!-- Node9 -->
<g id="node9" class="node">
<title>Node9</title>
<g id="a_node9"><a xlink:href="EventBase_8hpp.html" target="_top" xlink:title=" ">
<polygon fill="none" stroke="black" points="385.96,-114.5 385.96,-134.5 474.96,-134.5 474.96,-114.5 385.96,-114.5"/>
<text text-anchor="middle" x="430.46" y="-121.7" font-family="-apple-system, BlinkMacSystemFont, 'Segoe UI', Roboto, Oxygen, Ubuntu, Cantarell, 'Fira Sans', 'Droid Sans', 'Helvetica Neue', sans-serif" font-size="11.00">EventBase.hpp</text>
</a>
</g>
</g>
<!-- Node1&#45;&gt;Node9 -->
<g id="edge12" class="edge">
<title>Node1&#45;&gt;Node9</title>
<path fill="none" stroke="midnightblue" d="M226.85,-171.5C274.26,-160.79 337.05,-146.6 380.3,-136.83"/>
<polygon fill="midnightblue" stroke="midnightblue" points="381.33,-140.19 390.31,-134.57 379.79,-133.36 381.33,-140.19"/>
</g>
<!-- Node6&#45;&gt;Node2 -->
<g id="edge7" class="edge">
<title>Node6&#45;&gt;Node2</title>
<path fill="none" stroke="midnightblue" d="M187.38,-114.42C156.75,-104.51 107.86,-88.69 76.2,-78.45"/>
<polygon fill="midnightblue" stroke="midnightblue" points="77.17,-75.08 66.58,-75.33 75.02,-81.74 77.17,-75.08"/>
</g>
<!-- Node6&#45;&gt;Node4 -->
<g id="edge8" class="edge">
<title>Node6&#45;&gt;Node4</title>
<path fill="none" stroke="midnightblue" d="M244.68,-114.42C276.81,-104.44 328.21,-88.46 361.14,-78.23"/>
<polygon fill="midnightblue" stroke="midnightblue" points="362.22,-81.56 370.73,-75.25 360.14,-74.88 362.22,-81.56"/>
</g>
<!-- Node6&#45;&gt;Node5 -->
<g id="edge9" class="edge">
<title>Node6&#45;&gt;Node5</title>
<path fill="none" stroke="midnightblue" d="M168.29,-114.49C147.79,-107.98 125.7,-96.87 113.46,-78 99.64,-56.71 126.78,-37.19 150.98,-24.88"/>
<polygon fill="midnightblue" stroke="midnightblue" points="152.52,-28.02 160.01,-20.53 149.48,-21.71 152.52,-28.02"/>
</g>
<!-- Node7 -->
<g id="node7" class="node">
<title>Node7</title>
<g id="a_node7"><a xlink:title=" ">
<polygon fill="none" stroke="#bfbfbf" points="122.46,-57.5 122.46,-77.5 172.46,-77.5 172.46,-57.5 122.46,-57.5"/>
<text text-anchor="middle" x="147.46" y="-64.7" font-family="-apple-system, BlinkMacSystemFont, 'Segoe UI', Roboto, Oxygen, Ubuntu, Cantarell, 'Fira Sans', 'Droid Sans', 'Helvetica Neue', sans-serif" font-size="11.00">chrono</text>
</a>
</g>
</g>
<!-- Node6&#45;&gt;Node7 -->
<g id="edge6" class="edge">
<title>Node6&#45;&gt;Node7</title>
<path fill="none" stroke="midnightblue" d="M204.23,-114.42C194.05,-106.19 178.84,-93.88 166.72,-84.08"/>
<polygon fill="midnightblue" stroke="midnightblue" points="168.9,-81.35 158.93,-77.78 164.5,-86.79 168.9,-81.35"/>
</g>
<!-- Node8 -->
<g id="node8" class="node">
<title>Node8</title>
<g id="a_node8"><a xlink:href="Serializable_8hpp.html" target="_top" xlink:title=" ">
<polygon fill="none" stroke="black" points="190.46,-57.5 190.46,-77.5 352.46,-77.5 352.46,-57.5 190.46,-57.5"/>
<text text-anchor="middle" x="271.46" y="-64.7" font-family="-apple-system, BlinkMacSystemFont, 'Segoe UI', Roboto, Oxygen, Ubuntu, Cantarell, 'Fira Sans', 'Droid Sans', 'Helvetica Neue', sans-serif" font-size="11.00">libmirai/Types/Serializable.hpp</text>
</a>
</g>
</g>
<!-- Node6&#45;&gt;Node8 -->
<g id="edge10" class="edge">
<title>Node6&#45;&gt;Node8</title>
<path fill="none" stroke="midnightblue" d="M224.7,-114.42C232.84,-106.42 244.89,-94.59 254.72,-84.94"/>
<polygon fill="midnightblue" stroke="midnightblue" points="257.33,-87.28 262.01,-77.78 252.42,-82.29 257.33,-87.28"/>
</g>
<!-- Node8&#45;&gt;Node5 -->
<g id="edge11" class="edge">
<title>Node8&#45;&gt;Node5</title>
<path fill="none" stroke="midnightblue" d="M256.76,-57.42C242.97,-48.9 222.13,-36.02 206.02,-26.06"/>
<polygon fill="midnightblue" stroke="midnightblue" points="207.52,-22.88 197.17,-20.6 203.84,-28.83 207.52,-22.88"/>
</g>
<!-- Node9&#45;&gt;Node4 -->
<g id="edge14" class="edge">
<title>Node9&#45;&gt;Node4</title>
<path fill="none" stroke="midnightblue" d="M424.18,-114.42C418.88,-106.74 411.13,-95.52 404.61,-86.09"/>
<polygon fill="midnightblue" stroke="midnightblue" points="407.43,-84.02 398.87,-77.78 401.67,-88 407.43,-84.02"/>
</g>
<!-- Node9&#45;&gt;Node5 -->
<g id="edge15" class="edge">
<title>Node9&#45;&gt;Node5</title>
<path fill="none" stroke="midnightblue" d="M432.38,-114.39C434.81,-100.15 437.07,-72.63 422.46,-57 400.44,-33.45 319.93,-21.82 258.16,-16.26"/>
<polygon fill="midnightblue" stroke="midnightblue" points="258.3,-12.76 248.03,-15.39 257.7,-19.74 258.3,-12.76"/>
</g>
<!-- Node10 -->
<g id="node10" class="node">
<title>Node10</title>
<g id="a_node10"><a xlink:title=" ">
<polygon fill="none" stroke="#bfbfbf" points="470.46,-57.5 470.46,-77.5 526.46,-77.5 526.46,-57.5 470.46,-57.5"/>
<text text-anchor="middle" x="498.46" y="-64.7" font-family="-apple-system, BlinkMacSystemFont, 'Segoe UI', Roboto, Oxygen, Ubuntu, Cantarell, 'Fira Sans', 'Droid Sans', 'Helvetica Neue', sans-serif" font-size="11.00">memory</text>
</a>
</g>
</g>
<!-- Node9&#45;&gt;Node10 -->
<g id="edge13" class="edge">
<title>Node9&#45;&gt;Node10</title>
<path fill="none" stroke="midnightblue" d="M441.68,-114.42C451.86,-106.19 467.07,-93.88 479.19,-84.08"/>
<polygon fill="midnightblue" stroke="midnightblue" points="481.41,-86.79 486.98,-77.78 477.01,-81.35 481.41,-86.79"/>
</g>
</g>
</svg>
