<?xml version="1.0" encoding="UTF-8" standalone="no"?>
<!DOCTYPE svg PUBLIC "-//W3C//DTD SVG 1.1//EN"
 "http://www.w3.org/Graphics/SVG/1.1/DTD/svg11.dtd">
<!-- Generated by graphviz version 3.0.0 (20220413.0242)
 -->
<!-- Title: libmirai/public/libmirai/Events/GroupMessageEvent.hpp Pages: 1 -->
<svg width="2046pt" height="407pt"
 viewBox="0.00 0.00 2046.00 407.00" xmlns="http://www.w3.org/2000/svg" xmlns:xlink="http://www.w3.org/1999/xlink">
<g id="graph0" class="graph" transform="scale(1 1) rotate(0) translate(4 403)">
<title>libmirai/public/libmirai/Events/GroupMessageEvent.hpp</title>
<!-- Node1 -->
<g id="node1" class="node">
<title>Node1</title>
<g id="a_node1"><a xlink:title=" ">
<polygon fill="#bfbfbf" stroke="black" points="1862,-366.5 1862,-398.5 2038,-398.5 2038,-366.5 1862,-366.5"/>
<text text-anchor="start" x="1870" y="-385.7" font-family="-apple-system, BlinkMacSystemFont, 'Segoe UI', Roboto, Oxygen, Ubuntu, Cantarell, 'Fira Sans', 'Droid Sans', 'Helvetica Neue', sans-serif" font-size="11.00">libmirai/public/libmirai</text>
<text text-anchor="middle" x="1950" y="-373.7" font-family="-apple-system, BlinkMacSystemFont, 'Segoe UI', Roboto, Oxygen, Ubuntu, Cantarell, 'Fira Sans', 'Droid Sans', 'Helvetica Neue', sans-serif" font-size="11.00">/Events/GroupMessageEvent.hpp</text>
</a>
</g>
</g>
<!-- Node2 -->
<g id="node2" class="node">
<title>Node2</title>
<g id="a_node2"><a xlink:title=" ">
<polygon fill="none" stroke="#bfbfbf" points="1109.5,-57.5 1109.5,-77.5 1152.5,-77.5 1152.5,-57.5 1109.5,-57.5"/>
<text text-anchor="middle" x="1131" y="-64.7" font-family="-apple-system, BlinkMacSystemFont, 'Segoe UI', Roboto, Oxygen, Ubuntu, Cantarell, 'Fira Sans', 'Droid Sans', 'Helvetica Neue', sans-serif" font-size="11.00">string</text>
</a>
</g>
</g>
<!-- Node1&#45;&gt;Node2 -->
<g id="edge1" class="edge">
<title>Node1&#45;&gt;Node2</title>
<path fill="none" stroke="midnightblue" d="M1951.04,-366.43C1952.81,-327.39 1951.63,-222.43 1893,-171 1781.85,-73.51 1292.49,-67.99 1162.69,-68.27"/>
<polygon fill="midnightblue" stroke="midnightblue" points="1162.6,-64.77 1152.62,-68.31 1162.63,-71.77 1162.6,-64.77"/>
</g>
<!-- Node3 -->
<g id="node3" class="node">
<title>Node3</title>
<g id="a_node3"><a xlink:title=" ">
<polygon fill="none" stroke="#bfbfbf" points="1000.5,-0.5 1000.5,-20.5 1131.5,-20.5 1131.5,-0.5 1000.5,-0.5"/>
<text text-anchor="middle" x="1066" y="-7.7" font-family="-apple-system, BlinkMacSystemFont, 'Segoe UI', Roboto, Oxygen, Ubuntu, Cantarell, 'Fira Sans', 'Droid Sans', 'Helvetica Neue', sans-serif" font-size="11.00">nlohmann/json_fwd.hpp</text>
</a>
</g>
</g>
<!-- Node1&#45;&gt;Node3 -->
<g id="edge2" class="edge">
<title>Node1&#45;&gt;Node3</title>
<path fill="none" stroke="midnightblue" d="M1966.19,-366.48C1989.57,-343.06 2030,-295.36 2030,-245.5 2030,-245.5 2030,-245.5 2030,-123.5 2030,-75.18 1989.3,-73.79 1944,-57 1869.88,-29.52 1340.83,-16.72 1141.62,-12.84"/>
<polygon fill="midnightblue" stroke="midnightblue" points="1141.6,-9.34 1131.53,-12.64 1141.46,-16.33 1141.6,-9.34"/>
</g>
<!-- Node4 -->
<g id="node4" class="node">
<title>Node4</title>
<g id="a_node4"><a xlink:href="BasicTypes_8hpp.html" target="_top" xlink:title=" ">
<polygon fill="none" stroke="black" points="415,-114.5 415,-134.5 577,-134.5 577,-114.5 415,-114.5"/>
<text text-anchor="middle" x="496" y="-121.7" font-family="-apple-system, BlinkMacSystemFont, 'Segoe UI', Roboto, Oxygen, Ubuntu, Cantarell, 'Fira Sans', 'Droid Sans', 'Helvetica Neue', sans-serif" font-size="11.00">libmirai/Types/BasicTypes.hpp</text>
</a>
</g>
</g>
<!-- Node1&#45;&gt;Node4 -->
<g id="edge3" class="edge">
<title>Node1&#45;&gt;Node4</title>
<path fill="none" stroke="midnightblue" d="M1861.9,-380.25C1506.65,-374.21 193.8,-341.82 96,-192 61.13,-138.59 276.07,-127.47 404.62,-125.54"/>
<polygon fill="midnightblue" stroke="midnightblue" points="404.91,-129.03 414.86,-125.4 404.82,-122.03 404.91,-129.03"/>
</g>
<!-- Node9 -->
<g id="node9" class="node">
<title>Node9</title>
<g id="a_node9"><a xlink:href="MessageChain_8hpp.html" target="_top" xlink:title=" ">
<polygon fill="none" stroke="black" points="973.5,-297.5 973.5,-329.5 1122.5,-329.5 1122.5,-297.5 973.5,-297.5"/>
<text text-anchor="start" x="981.5" y="-316.7" font-family="-apple-system, BlinkMacSystemFont, 'Segoe UI', Roboto, Oxygen, Ubuntu, Cantarell, 'Fira Sans', 'Droid Sans', 'Helvetica Neue', sans-serif" font-size="11.00">libmirai/Messages/Message</text>
<text text-anchor="middle" x="1048" y="-304.7" font-family="-apple-system, BlinkMacSystemFont, 'Segoe UI', Roboto, Oxygen, Ubuntu, Cantarell, 'Fira Sans', 'Droid Sans', 'Helvetica Neue', sans-serif" font-size="11.00">Chain.hpp</text>
</a>
</g>
</g>
<!-- Node1&#45;&gt;Node9 -->
<g id="edge11" class="edge">
<title>Node1&#45;&gt;Node9</title>
<path fill="none" stroke="midnightblue" d="M1861.87,-374.95C1688.21,-362.05 1303.84,-333.5 1132.86,-320.8"/>
<polygon fill="midnightblue" stroke="midnightblue" points="1132.88,-317.3 1122.65,-320.05 1132.36,-324.28 1132.88,-317.3"/>
</g>
<!-- Node33 -->
<g id="node31" class="node">
<title>Node33</title>
<g id="a_node31"><a xlink:href="EventBase_8hpp.html" target="_top" xlink:title=" ">
<polygon fill="none" stroke="black" points="1912.5,-114.5 1912.5,-134.5 2001.5,-134.5 2001.5,-114.5 1912.5,-114.5"/>
<text text-anchor="middle" x="1957" y="-121.7" font-family="-apple-system, BlinkMacSystemFont, 'Segoe UI', Roboto, Oxygen, Ubuntu, Cantarell, 'Fira Sans', 'Droid Sans', 'Helvetica Neue', sans-serif" font-size="11.00">EventBase.hpp</text>
</a>
</g>
</g>
<!-- Node1&#45;&gt;Node33 -->
<g id="edge88" class="edge">
<title>Node1&#45;&gt;Node33</title>
<path fill="none" stroke="midnightblue" d="M1955.25,-366.39C1958.49,-356.24 1962.33,-342.49 1964,-330 1973.35,-259.95 1969.39,-241.46 1964,-171 1963.33,-162.23 1961.94,-152.6 1960.58,-144.46"/>
<polygon fill="midnightblue" stroke="midnightblue" points="1964.01,-143.75 1958.8,-134.52 1957.12,-144.98 1964.01,-143.75"/>
</g>
<!-- Node4&#45;&gt;Node2 -->
<g id="edge6" class="edge">
<title>Node4&#45;&gt;Node2</title>
<path fill="none" stroke="midnightblue" d="M577.1,-115.3C581.8,-114.86 586.46,-114.42 591,-114 783.97,-96.22 1015.99,-77.6 1099.3,-71"/>
<polygon fill="midnightblue" stroke="midnightblue" points="1099.69,-74.48 1109.38,-70.2 1099.14,-67.5 1099.69,-74.48"/>
</g>
<!-- Node4&#45;&gt;Node3 -->
<g id="edge8" class="edge">
<title>Node4&#45;&gt;Node3</title>
<path fill="none" stroke="midnightblue" d="M492.58,-114.38C487.89,-100.13 481.59,-72.61 496,-57 528.84,-21.43 842.59,-13.65 990.08,-11.96"/>
<polygon fill="midnightblue" stroke="midnightblue" points="990.44,-15.46 1000.41,-11.85 990.37,-8.46 990.44,-15.46"/>
</g>
<!-- Node5 -->
<g id="node5" class="node">
<title>Node5</title>
<g id="a_node5"><a xlink:title=" ">
<polygon fill="none" stroke="#bfbfbf" points="505,-57.5 505,-77.5 555,-77.5 555,-57.5 505,-57.5"/>
<text text-anchor="middle" x="530" y="-64.7" font-family="-apple-system, BlinkMacSystemFont, 'Segoe UI', Roboto, Oxygen, Ubuntu, Cantarell, 'Fira Sans', 'Droid Sans', 'Helvetica Neue', sans-serif" font-size="11.00">chrono</text>
</a>
</g>
</g>
<!-- Node4&#45;&gt;Node5 -->
<g id="edge4" class="edge">
<title>Node4&#45;&gt;Node5</title>
<path fill="none" stroke="midnightblue" d="M501.61,-114.42C506.31,-106.82 513.15,-95.75 518.94,-86.39"/>
<polygon fill="midnightblue" stroke="midnightblue" points="521.98,-88.13 524.26,-77.78 516.03,-84.45 521.98,-88.13"/>
</g>
<!-- Node6 -->
<g id="node6" class="node">
<title>Node6</title>
<g id="a_node6"><a xlink:title=" ">
<polygon fill="none" stroke="#bfbfbf" points="573,-57.5 573,-77.5 615,-77.5 615,-57.5 573,-57.5"/>
<text text-anchor="middle" x="594" y="-64.7" font-family="-apple-system, BlinkMacSystemFont, 'Segoe UI', Roboto, Oxygen, Ubuntu, Cantarell, 'Fira Sans', 'Droid Sans', 'Helvetica Neue', sans-serif" font-size="11.00">ctime</text>
</a>
</g>
</g>
<!-- Node4&#45;&gt;Node6 -->
<g id="edge5" class="edge">
<title>Node4&#45;&gt;Node6</title>
<path fill="none" stroke="midnightblue" d="M512.18,-114.42C527.65,-105.74 551.18,-92.53 569.04,-82.51"/>
<polygon fill="midnightblue" stroke="midnightblue" points="570.79,-85.54 577.79,-77.6 567.36,-79.44 570.79,-85.54"/>
</g>
<!-- Node7 -->
<g id="node7" class="node">
<title>Node7</title>
<g id="a_node7"><a xlink:title=" ">
<polygon fill="none" stroke="#bfbfbf" points="271.5,-57.5 271.5,-77.5 312.5,-77.5 312.5,-57.5 271.5,-57.5"/>
<text text-anchor="middle" x="292" y="-64.7" font-family="-apple-system, BlinkMacSystemFont, 'Segoe UI', Roboto, Oxygen, Ubuntu, Cantarell, 'Fira Sans', 'Droid Sans', 'Helvetica Neue', sans-serif" font-size="11.00">utility</text>
</a>
</g>
</g>
<!-- Node4&#45;&gt;Node7 -->
<g id="edge7" class="edge">
<title>Node4&#45;&gt;Node7</title>
<path fill="none" stroke="midnightblue" d="M462.31,-114.42C423.42,-103.93 360,-86.83 322.51,-76.72"/>
<polygon fill="midnightblue" stroke="midnightblue" points="323.23,-73.29 312.66,-74.07 321.4,-80.05 323.23,-73.29"/>
</g>
<!-- Node8 -->
<g id="node8" class="node">
<title>Node8</title>
<g id="a_node8"><a xlink:href="Serializable_8hpp.html" target="_top" xlink:title=" ">
<polygon fill="none" stroke="black" points="671,-57.5 671,-77.5 833,-77.5 833,-57.5 671,-57.5"/>
<text text-anchor="middle" x="752" y="-64.7" font-family="-apple-system, BlinkMacSystemFont, 'Segoe UI', Roboto, Oxygen, Ubuntu, Cantarell, 'Fira Sans', 'Droid Sans', 'Helvetica Neue', sans-serif" font-size="11.00">libmirai/Types/Serializable.hpp</text>
</a>
</g>
</g>
<!-- Node4&#45;&gt;Node8 -->
<g id="edge9" class="edge">
<title>Node4&#45;&gt;Node8</title>
<path fill="none" stroke="midnightblue" d="M537.99,-114.48C582.35,-104.95 652.37,-89.9 700.15,-79.64"/>
<polygon fill="midnightblue" stroke="midnightblue" points="700.95,-83.05 709.99,-77.53 699.48,-76.2 700.95,-83.05"/>
</g>
<!-- Node8&#45;&gt;Node3 -->
<g id="edge10" class="edge">
<title>Node8&#45;&gt;Node3</title>
<path fill="none" stroke="midnightblue" d="M803.5,-57.48C858.6,-47.83 945.96,-32.53 1004.6,-22.26"/>
<polygon fill="midnightblue" stroke="midnightblue" points="1005.23,-25.7 1014.47,-20.53 1004.02,-18.8 1005.23,-25.7"/>
</g>
<!-- Node9&#45;&gt;Node3 -->
<g id="edge20" class="edge">
<title>Node9&#45;&gt;Node3</title>
<path fill="none" stroke="midnightblue" d="M973.46,-313.12C782.98,-313.93 282.32,-311.09 125,-261 62.49,-241.1 0,-248.1 0,-182.5 0,-182.5 0,-182.5 0,-123.5 0,-23.86 746.12,-12.55 989.93,-11.51"/>
<polygon fill="midnightblue" stroke="midnightblue" points="990.13,-15.01 1000.12,-11.47 990.11,-8.01 990.13,-15.01"/>
</g>
<!-- Node9&#45;&gt;Node6 -->
<g id="edge13" class="edge">
<title>Node9&#45;&gt;Node6</title>
<path fill="none" stroke="midnightblue" d="M973.3,-306.48C920.5,-300.12 849.09,-287.17 791,-261 703.41,-221.54 631.98,-125.47 605.28,-85.93"/>
<polygon fill="midnightblue" stroke="midnightblue" points="608.18,-83.97 599.74,-77.57 602.35,-87.84 608.18,-83.97"/>
</g>
<!-- Node9&#45;&gt;Node7 -->
<g id="edge18" class="edge">
<title>Node9&#45;&gt;Node7</title>
<path fill="none" stroke="midnightblue" d="M973.34,-310.98C802.66,-306.96 388.29,-294.02 253,-261 178.95,-242.93 137.67,-255.82 96,-192 52.16,-124.85 195.53,-87.38 261.06,-74.09"/>
<polygon fill="midnightblue" stroke="midnightblue" points="262.1,-77.46 271.24,-72.1 260.75,-70.59 262.1,-77.46"/>
</g>
<!-- Node10 -->
<g id="node10" class="node">
<title>Node10</title>
<g id="a_node10"><a xlink:title=" ">
<polygon fill="none" stroke="#bfbfbf" points="1076.5,-234.5 1076.5,-254.5 1127.5,-254.5 1127.5,-234.5 1076.5,-234.5"/>
<text text-anchor="middle" x="1102" y="-241.7" font-family="-apple-system, BlinkMacSystemFont, 'Segoe UI', Roboto, Oxygen, Ubuntu, Cantarell, 'Fira Sans', 'Droid Sans', 'Helvetica Neue', sans-serif" font-size="11.00">cstddef</text>
</a>
</g>
</g>
<!-- Node9&#45;&gt;Node10 -->
<g id="edge12" class="edge">
<title>Node9&#45;&gt;Node10</title>
<path fill="none" stroke="midnightblue" d="M1060.25,-297.3C1068.6,-286.94 1079.66,-273.21 1088.3,-262.5"/>
<polygon fill="midnightblue" stroke="midnightblue" points="1091.06,-264.65 1094.61,-254.66 1085.61,-260.25 1091.06,-264.65"/>
</g>
<!-- Node11 -->
<g id="node11" class="node">
<title>Node11</title>
<g id="a_node11"><a xlink:title=" ">
<polygon fill="none" stroke="#bfbfbf" points="1856,-57.5 1856,-77.5 1912,-77.5 1912,-57.5 1856,-57.5"/>
<text text-anchor="middle" x="1884" y="-64.7" font-family="-apple-system, BlinkMacSystemFont, 'Segoe UI', Roboto, Oxygen, Ubuntu, Cantarell, 'Fira Sans', 'Droid Sans', 'Helvetica Neue', sans-serif" font-size="11.00">memory</text>
</a>
</g>
</g>
<!-- Node9&#45;&gt;Node11 -->
<g id="edge14" class="edge">
<title>Node9&#45;&gt;Node11</title>
<path fill="none" stroke="midnightblue" d="M1122.6,-309.69C1232.89,-304.66 1445.64,-291.64 1624,-261 1745.64,-240.1 1817.34,-289.52 1893,-192 1905.26,-176.19 1894.94,-118.08 1888.38,-87.54"/>
<polygon fill="midnightblue" stroke="midnightblue" points="1891.78,-86.67 1886.19,-77.66 1884.94,-88.19 1891.78,-86.67"/>
</g>
<!-- Node12 -->
<g id="node12" class="node">
<title>Node12</title>
<g id="a_node12"><a xlink:title=" ">
<polygon fill="none" stroke="#bfbfbf" points="1146,-234.5 1146,-254.5 1200,-254.5 1200,-234.5 1146,-234.5"/>
<text text-anchor="middle" x="1173" y="-241.7" font-family="-apple-system, BlinkMacSystemFont, 'Segoe UI', Roboto, Oxygen, Ubuntu, Cantarell, 'Fira Sans', 'Droid Sans', 'Helvetica Neue', sans-serif" font-size="11.00">optional</text>
</a>
</g>
</g>
<!-- Node9&#45;&gt;Node12 -->
<g id="edge15" class="edge">
<title>Node9&#45;&gt;Node12</title>
<path fill="none" stroke="midnightblue" d="M1076.05,-297.46C1097.4,-286.02 1126.55,-270.4 1147.29,-259.28"/>
<polygon fill="midnightblue" stroke="midnightblue" points="1149.02,-262.33 1156.18,-254.52 1145.71,-256.16 1149.02,-262.33"/>
</g>
<!-- Node13 -->
<g id="node13" class="node">
<title>Node13</title>
<g id="a_node13"><a xlink:title=" ">
<polygon fill="none" stroke="#bfbfbf" points="903,-171.5 903,-191.5 965,-191.5 965,-171.5 903,-171.5"/>
<text text-anchor="middle" x="934" y="-178.7" font-family="-apple-system, BlinkMacSystemFont, 'Segoe UI', Roboto, Oxygen, Ubuntu, Cantarell, 'Fira Sans', 'Droid Sans', 'Helvetica Neue', sans-serif" font-size="11.00">stdexcept</text>
</a>
</g>
</g>
<!-- Node9&#45;&gt;Node13 -->
<g id="edge16" class="edge">
<title>Node9&#45;&gt;Node13</title>
<path fill="none" stroke="midnightblue" d="M973.45,-303.11C947.77,-295.9 921.58,-283.22 906,-261 892.84,-242.23 906.69,-216.64 919.15,-199.85"/>
<polygon fill="midnightblue" stroke="midnightblue" points="921.94,-201.97 925.4,-191.96 916.45,-197.63 921.94,-201.97"/>
</g>
<!-- Node14 -->
<g id="node14" class="node">
<title>Node14</title>
<g id="a_node14"><a xlink:title=" ">
<polygon fill="none" stroke="#bfbfbf" points="1218,-234.5 1218,-254.5 1284,-254.5 1284,-234.5 1218,-234.5"/>
<text text-anchor="middle" x="1251" y="-241.7" font-family="-apple-system, BlinkMacSystemFont, 'Segoe UI', Roboto, Oxygen, Ubuntu, Cantarell, 'Fira Sans', 'Droid Sans', 'Helvetica Neue', sans-serif" font-size="11.00">type_traits</text>
</a>
</g>
</g>
<!-- Node9&#45;&gt;Node14 -->
<g id="edge17" class="edge">
<title>Node9&#45;&gt;Node14</title>
<path fill="none" stroke="midnightblue" d="M1097.15,-297.39C1129.13,-287.41 1171.68,-273.85 1209,-261 1211.76,-260.05 1214.61,-259.05 1217.46,-258.03"/>
<polygon fill="midnightblue" stroke="midnightblue" points="1218.87,-261.24 1227.08,-254.53 1216.48,-254.66 1218.87,-261.24"/>
</g>
<!-- Node15 -->
<g id="node15" class="node">
<title>Node15</title>
<g id="a_node15"><a xlink:title=" ">
<polygon fill="none" stroke="#bfbfbf" points="1302,-234.5 1302,-254.5 1348,-254.5 1348,-234.5 1302,-234.5"/>
<text text-anchor="middle" x="1325" y="-241.7" font-family="-apple-system, BlinkMacSystemFont, 'Segoe UI', Roboto, Oxygen, Ubuntu, Cantarell, 'Fira Sans', 'Droid Sans', 'Helvetica Neue', sans-serif" font-size="11.00">vector</text>
</a>
</g>
</g>
<!-- Node9&#45;&gt;Node15 -->
<g id="edge19" class="edge">
<title>Node9&#45;&gt;Node15</title>
<path fill="none" stroke="midnightblue" d="M1122.7,-301.66C1171.89,-293.35 1237.27,-280.04 1293,-261 1294.88,-260.36 1296.8,-259.63 1298.71,-258.85"/>
<polygon fill="midnightblue" stroke="midnightblue" points="1300.36,-261.95 1308.05,-254.66 1297.5,-255.56 1300.36,-261.95"/>
</g>
<!-- Node16 -->
<g id="node16" class="node">
<title>Node16</title>
<g id="a_node16"><a xlink:href="Exceptions_8hpp.html" target="_top" xlink:title=" ">
<polygon fill="none" stroke="black" points="914.5,-228.5 914.5,-260.5 1019.5,-260.5 1019.5,-228.5 914.5,-228.5"/>
<text text-anchor="start" x="922.5" y="-247.7" font-family="-apple-system, BlinkMacSystemFont, 'Segoe UI', Roboto, Oxygen, Ubuntu, Cantarell, 'Fira Sans', 'Droid Sans', 'Helvetica Neue', sans-serif" font-size="11.00">libmirai/Exceptions</text>
<text text-anchor="middle" x="967" y="-235.7" font-family="-apple-system, BlinkMacSystemFont, 'Segoe UI', Roboto, Oxygen, Ubuntu, Cantarell, 'Fira Sans', 'Droid Sans', 'Helvetica Neue', sans-serif" font-size="11.00">/Exceptions.hpp</text>
</a>
</g>
</g>
<!-- Node9&#45;&gt;Node16 -->
<g id="edge21" class="edge">
<title>Node9&#45;&gt;Node16</title>
<path fill="none" stroke="midnightblue" d="M1029.62,-297.3C1018.85,-288.39 1005.07,-276.99 993.18,-267.15"/>
<polygon fill="midnightblue" stroke="midnightblue" points="995.24,-264.32 985.31,-260.64 990.78,-269.71 995.24,-264.32"/>
</g>
<!-- Node17 -->
<g id="node17" class="node">
<title>Node17</title>
<g id="a_node17"><a xlink:href="AppMessage_8hpp.html" target="_top" xlink:title=" ">
<polygon fill="none" stroke="black" points="1660.5,-171.5 1660.5,-191.5 1761.5,-191.5 1761.5,-171.5 1660.5,-171.5"/>
<text text-anchor="middle" x="1711" y="-178.7" font-family="-apple-system, BlinkMacSystemFont, 'Segoe UI', Roboto, Oxygen, Ubuntu, Cantarell, 'Fira Sans', 'Droid Sans', 'Helvetica Neue', sans-serif" font-size="11.00">AppMessage.hpp</text>
</a>
</g>
</g>
<!-- Node9&#45;&gt;Node17 -->
<g id="edge24" class="edge">
<title>Node9&#45;&gt;Node17</title>
<path fill="none" stroke="midnightblue" d="M1122.64,-308C1208.3,-301.8 1352.59,-288.16 1474,-261 1549.11,-244.2 1634.05,-212.94 1679.05,-195.36"/>
<polygon fill="midnightblue" stroke="midnightblue" points="1680.52,-198.54 1688.55,-191.62 1677.96,-192.02 1680.52,-198.54"/>
</g>
<!-- Node18 -->
<g id="node18" class="node">
<title>Node18</title>
<g id="a_node18"><a xlink:href="MessageBase_8hpp.html" target="_top" xlink:title=" ">
<polygon fill="none" stroke="black" points="1013,-114.5 1013,-134.5 1119,-134.5 1119,-114.5 1013,-114.5"/>
<text text-anchor="middle" x="1066" y="-121.7" font-family="-apple-system, BlinkMacSystemFont, 'Segoe UI', Roboto, Oxygen, Ubuntu, Cantarell, 'Fira Sans', 'Droid Sans', 'Helvetica Neue', sans-serif" font-size="11.00">MessageBase.hpp</text>
</a>
</g>
</g>
<!-- Node9&#45;&gt;Node18 -->
<g id="edge69" class="edge">
<title>Node9&#45;&gt;Node18</title>
<path fill="none" stroke="midnightblue" d="M973.46,-305.31C944.57,-298.5 914.14,-285.53 896,-261 872.22,-228.83 869.59,-202.7 894,-171 907.46,-153.52 959.47,-141.38 1002.81,-134.06"/>
<polygon fill="midnightblue" stroke="midnightblue" points="1003.45,-137.5 1012.75,-132.44 1002.32,-130.59 1003.45,-137.5"/>
</g>
<!-- Node19 -->
<g id="node19" class="node">
<title>Node19</title>
<g id="a_node19"><a xlink:href="AtAllMessage_8hpp.html" target="_top" xlink:title=" ">
<polygon fill="none" stroke="black" points="1021,-171.5 1021,-191.5 1125,-191.5 1125,-171.5 1021,-171.5"/>
<text text-anchor="middle" x="1073" y="-178.7" font-family="-apple-system, BlinkMacSystemFont, 'Segoe UI', Roboto, Oxygen, Ubuntu, Cantarell, 'Fira Sans', 'Droid Sans', 'Helvetica Neue', sans-serif" font-size="11.00">AtAllMessage.hpp</text>
</a>
</g>
</g>
<!-- Node9&#45;&gt;Node19 -->
<g id="edge32" class="edge">
<title>Node9&#45;&gt;Node19</title>
<path fill="none" stroke="midnightblue" d="M1050.92,-297.33C1055.47,-273.65 1064.27,-227.89 1069.28,-201.86"/>
<polygon fill="midnightblue" stroke="midnightblue" points="1072.77,-202.21 1071.22,-191.73 1065.9,-200.89 1072.77,-202.21"/>
</g>
<!-- Node20 -->
<g id="node20" class="node">
<title>Node20</title>
<g id="a_node20"><a xlink:href="AtMessage_8hpp.html" target="_top" xlink:title=" ">
<polygon fill="none" stroke="black" points="561,-171.5 561,-191.5 653,-191.5 653,-171.5 561,-171.5"/>
<text text-anchor="middle" x="607" y="-178.7" font-family="-apple-system, BlinkMacSystemFont, 'Segoe UI', Roboto, Oxygen, Ubuntu, Cantarell, 'Fira Sans', 'Droid Sans', 'Helvetica Neue', sans-serif" font-size="11.00">AtMessage.hpp</text>
</a>
</g>
</g>
<!-- Node9&#45;&gt;Node20 -->
<g id="edge36" class="edge">
<title>Node9&#45;&gt;Node20</title>
<path fill="none" stroke="midnightblue" d="M973.29,-309.13C877.46,-303.67 717.57,-290.38 667,-261 642.97,-247.04 625.33,-219.31 615.61,-200.83"/>
<polygon fill="midnightblue" stroke="midnightblue" points="618.63,-199.05 611.04,-191.66 612.37,-202.17 618.63,-199.05"/>
</g>
<!-- Node21 -->
<g id="node21" class="node">
<title>Node21</title>
<g id="a_node21"><a xlink:href="AudioMessage_8hpp.html" target="_top" xlink:title=" ">
<polygon fill="none" stroke="red" points="227.5,-171.5 227.5,-191.5 336.5,-191.5 336.5,-171.5 227.5,-171.5"/>
<text text-anchor="middle" x="282" y="-178.7" font-family="-apple-system, BlinkMacSystemFont, 'Segoe UI', Roboto, Oxygen, Ubuntu, Cantarell, 'Fira Sans', 'Droid Sans', 'Helvetica Neue', sans-serif" font-size="11.00">AudioMessage.hpp</text>
</a>
</g>
</g>
<!-- Node9&#45;&gt;Node21 -->
<g id="edge41" class="edge">
<title>Node9&#45;&gt;Node21</title>
<path fill="none" stroke="midnightblue" d="M973.37,-309.43C835.09,-303.21 544.28,-287.38 447,-261 393.45,-246.48 336.05,-215.16 305.06,-196.77"/>
<polygon fill="midnightblue" stroke="midnightblue" points="306.7,-193.67 296.32,-191.51 303.09,-199.67 306.7,-193.67"/>
</g>
<!-- Node23 -->
<g id="node22" class="node">
<title>Node23</title>
<g id="a_node22"><a xlink:href="DiceMessage_8hpp.html" target="_top" xlink:title=" ">
<polygon fill="none" stroke="black" points="1267,-171.5 1267,-191.5 1369,-191.5 1369,-171.5 1267,-171.5"/>
<text text-anchor="middle" x="1318" y="-178.7" font-family="-apple-system, BlinkMacSystemFont, 'Segoe UI', Roboto, Oxygen, Ubuntu, Cantarell, 'Fira Sans', 'Droid Sans', 'Helvetica Neue', sans-serif" font-size="11.00">DiceMessage.hpp</text>
</a>
</g>
</g>
<!-- Node9&#45;&gt;Node23 -->
<g id="edge46" class="edge">
<title>Node9&#45;&gt;Node23</title>
<path fill="none" stroke="midnightblue" d="M1122.56,-311.52C1208.59,-308.62 1342.32,-298.08 1374,-261 1383.53,-249.85 1380.3,-241.24 1374,-228 1367.88,-215.15 1356.16,-204.74 1345.02,-197.14"/>
<polygon fill="midnightblue" stroke="midnightblue" points="1346.65,-194.03 1336.33,-191.65 1342.91,-199.95 1346.65,-194.03"/>
</g>
<!-- Node24 -->
<g id="node23" class="node">
<title>Node24</title>
<g id="a_node23"><a xlink:href="FaceMessage_8hpp.html" target="_top" xlink:title=" ">
<polygon fill="none" stroke="black" points="1143.5,-171.5 1143.5,-191.5 1248.5,-191.5 1248.5,-171.5 1143.5,-171.5"/>
<text text-anchor="middle" x="1196" y="-178.7" font-family="-apple-system, BlinkMacSystemFont, 'Segoe UI', Roboto, Oxygen, Ubuntu, Cantarell, 'Fira Sans', 'Droid Sans', 'Helvetica Neue', sans-serif" font-size="11.00">FaceMessage.hpp</text>
</a>
</g>
</g>
<!-- Node9&#45;&gt;Node24 -->
<g id="edge50" class="edge">
<title>Node9&#45;&gt;Node24</title>
<path fill="none" stroke="midnightblue" d="M1122.7,-310.75C1204.36,-307.08 1327.56,-295.75 1357,-261 1366.48,-249.81 1365.85,-239.7 1357,-228 1344.84,-211.93 1298.57,-199.92 1258.74,-192.28"/>
<polygon fill="midnightblue" stroke="midnightblue" points="1259.24,-188.81 1248.77,-190.43 1257.97,-195.7 1259.24,-188.81"/>
</g>
<!-- Node25 -->
<g id="node24" class="node">
<title>Node25</title>
<g id="a_node24"><a xlink:href="FlashImageMessage_8hpp.html" target="_top" xlink:title=" ">
<polygon fill="none" stroke="black" points="477.5,-234.5 477.5,-254.5 614.5,-254.5 614.5,-234.5 477.5,-234.5"/>
<text text-anchor="middle" x="546" y="-241.7" font-family="-apple-system, BlinkMacSystemFont, 'Segoe UI', Roboto, Oxygen, Ubuntu, Cantarell, 'Fira Sans', 'Droid Sans', 'Helvetica Neue', sans-serif" font-size="11.00">FlashImageMessage.hpp</text>
</a>
</g>
</g>
<!-- Node9&#45;&gt;Node25 -->
<g id="edge54" class="edge">
<title>Node9&#45;&gt;Node25</title>
<path fill="none" stroke="midnightblue" d="M973.25,-304.73C889.29,-295.68 749.05,-279.57 629,-261 620.06,-259.62 610.61,-258 601.42,-256.34"/>
<polygon fill="midnightblue" stroke="midnightblue" points="602.04,-252.9 591.58,-254.54 600.78,-259.79 602.04,-252.9"/>
</g>
<!-- Node26 -->
<g id="node25" class="node">
<title>Node26</title>
<g id="a_node25"><a xlink:href="ImageMessage_8hpp.html" target="_top" xlink:title=" ">
<polygon fill="none" stroke="red" points="393.5,-171.5 393.5,-191.5 504.5,-191.5 504.5,-171.5 393.5,-171.5"/>
<text text-anchor="middle" x="449" y="-178.7" font-family="-apple-system, BlinkMacSystemFont, 'Segoe UI', Roboto, Oxygen, Ubuntu, Cantarell, 'Fira Sans', 'Droid Sans', 'Helvetica Neue', sans-serif" font-size="11.00">ImageMessage.hpp</text>
</a>
</g>
</g>
<!-- Node9&#45;&gt;Node26 -->
<g id="edge64" class="edge">
<title>Node9&#45;&gt;Node26</title>
<path fill="none" stroke="midnightblue" d="M973.42,-310.61C825.65,-306.19 506.64,-293.03 469,-261 452.06,-246.58 448.42,-220.01 448.11,-201.81"/>
<polygon fill="midnightblue" stroke="midnightblue" points="451.61,-201.8 448.26,-191.75 444.61,-201.69 451.61,-201.8"/>
</g>
<!-- Node27 -->
<g id="node26" class="node">
<title>Node27</title>
<g id="a_node26"><a xlink:href="JsonMessage_8hpp.html" target="_top" xlink:title=" ">
<polygon fill="none" stroke="black" points="1780,-171.5 1780,-191.5 1884,-191.5 1884,-171.5 1780,-171.5"/>
<text text-anchor="middle" x="1832" y="-178.7" font-family="-apple-system, BlinkMacSystemFont, 'Segoe UI', Roboto, Oxygen, Ubuntu, Cantarell, 'Fira Sans', 'Droid Sans', 'Helvetica Neue', sans-serif" font-size="11.00">JsonMessage.hpp</text>
</a>
</g>
</g>
<!-- Node9&#45;&gt;Node27 -->
<g id="edge65" class="edge">
<title>Node9&#45;&gt;Node27</title>
<path fill="none" stroke="midnightblue" d="M1122.76,-308.49C1220.15,-302.42 1395.42,-288.53 1543,-261 1634.9,-243.85 1740.28,-212.07 1794.86,-194.67"/>
<polygon fill="midnightblue" stroke="midnightblue" points="1795.99,-197.98 1804.45,-191.59 1793.86,-191.31 1795.99,-197.98"/>
</g>
<!-- Node28 -->
<g id="node27" class="node">
<title>Node28</title>
<g id="a_node27"><a xlink:href="MiraiCodeMessage_8hpp.html" target="_top" xlink:title=" ">
<polygon fill="none" stroke="black" points="1387,-171.5 1387,-191.5 1517,-191.5 1517,-171.5 1387,-171.5"/>
<text text-anchor="middle" x="1452" y="-178.7" font-family="-apple-system, BlinkMacSystemFont, 'Segoe UI', Roboto, Oxygen, Ubuntu, Cantarell, 'Fira Sans', 'Droid Sans', 'Helvetica Neue', sans-serif" font-size="11.00">MiraiCodeMessage.hpp</text>
</a>
</g>
</g>
<!-- Node9&#45;&gt;Node28 -->
<g id="edge70" class="edge">
<title>Node9&#45;&gt;Node28</title>
<path fill="none" stroke="midnightblue" d="M1122.53,-307.67C1209.13,-300.97 1345.79,-286.66 1390,-261 1414.45,-246.81 1432.87,-218.94 1443.04,-200.51"/>
<polygon fill="midnightblue" stroke="midnightblue" points="1446.16,-202.11 1447.72,-191.63 1439.97,-198.85 1446.16,-202.11"/>
</g>
<!-- Node29 -->
<g id="node28" class="node">
<title>Node29</title>
<g id="a_node28"><a xlink:href="PlainMessage_8hpp.html" target="_top" xlink:title=" ">
<polygon fill="none" stroke="black" points="104.5,-171.5 104.5,-191.5 209.5,-191.5 209.5,-171.5 104.5,-171.5"/>
<text text-anchor="middle" x="157" y="-178.7" font-family="-apple-system, BlinkMacSystemFont, 'Segoe UI', Roboto, Oxygen, Ubuntu, Cantarell, 'Fira Sans', 'Droid Sans', 'Helvetica Neue', sans-serif" font-size="11.00">PlainMessage.hpp</text>
</a>
</g>
</g>
<!-- Node9&#45;&gt;Node29 -->
<g id="edge74" class="edge">
<title>Node9&#45;&gt;Node29</title>
<path fill="none" stroke="midnightblue" d="M973.44,-309.71C820.13,-303.52 474.24,-287.09 359,-261 293.99,-246.28 222.21,-214.34 184.17,-196.06"/>
<polygon fill="midnightblue" stroke="midnightblue" points="185.34,-192.73 174.81,-191.51 182.28,-199.03 185.34,-192.73"/>
</g>
<!-- Node30 -->
<g id="node29" class="node">
<title>Node30</title>
<g id="a_node29"><a xlink:href="PokeMessage_8hpp.html" target="_top" xlink:title=" ">
<polygon fill="none" stroke="red" points="1535.5,-171.5 1535.5,-191.5 1642.5,-191.5 1642.5,-171.5 1535.5,-171.5"/>
<text text-anchor="middle" x="1589" y="-178.7" font-family="-apple-system, BlinkMacSystemFont, 'Segoe UI', Roboto, Oxygen, Ubuntu, Cantarell, 'Fira Sans', 'Droid Sans', 'Helvetica Neue', sans-serif" font-size="11.00">PokeMessage.hpp</text>
</a>
</g>
</g>
<!-- Node9&#45;&gt;Node30 -->
<g id="edge79" class="edge">
<title>Node9&#45;&gt;Node30</title>
<path fill="none" stroke="midnightblue" d="M1122.77,-308.68C1198.88,-303.28 1319.61,-290.54 1420,-261 1473.72,-245.19 1532.06,-214.87 1564.21,-196.89"/>
<polygon fill="midnightblue" stroke="midnightblue" points="1566.33,-199.71 1573.31,-191.74 1562.89,-193.62 1566.33,-199.71"/>
</g>
<!-- Node32 -->
<g id="node30" class="node">
<title>Node32</title>
<g id="a_node30"><a xlink:href="XmlMessage_8hpp.html" target="_top" xlink:title=" ">
<polygon fill="none" stroke="black" points="709,-171.5 709,-191.5 809,-191.5 809,-171.5 709,-171.5"/>
<text text-anchor="middle" x="759" y="-178.7" font-family="-apple-system, BlinkMacSystemFont, 'Segoe UI', Roboto, Oxygen, Ubuntu, Cantarell, 'Fira Sans', 'Droid Sans', 'Helvetica Neue', sans-serif" font-size="11.00">XmlMessage.hpp</text>
</a>
</g>
</g>
<!-- Node9&#45;&gt;Node32 -->
<g id="edge83" class="edge">
<title>Node9&#45;&gt;Node32</title>
<path fill="none" stroke="midnightblue" d="M973.3,-305.13C930.31,-298.37 876.56,-285.49 834,-261 807.43,-245.71 784.35,-218.16 771.05,-200.1"/>
<polygon fill="midnightblue" stroke="midnightblue" points="773.67,-197.75 765.02,-191.64 767.97,-201.81 773.67,-197.75"/>
</g>
<!-- Node16&#45;&gt;Node2 -->
<g id="edge23" class="edge">
<title>Node16&#45;&gt;Node2</title>
<path fill="none" stroke="midnightblue" d="M969.56,-228.25C974.97,-197.75 988.34,-130.73 1004,-114 1028.95,-87.35 1070.59,-76.29 1099.36,-71.71"/>
<polygon fill="midnightblue" stroke="midnightblue" points="1099.91,-75.17 1109.32,-70.3 1098.92,-68.23 1099.91,-75.17"/>
</g>
<!-- Node16&#45;&gt;Node13 -->
<g id="edge22" class="edge">
<title>Node16&#45;&gt;Node13</title>
<path fill="none" stroke="midnightblue" d="M958.84,-228.42C954.25,-219.92 948.48,-209.26 943.65,-200.34"/>
<polygon fill="midnightblue" stroke="midnightblue" points="946.73,-198.68 938.89,-191.55 940.57,-202.01 946.73,-198.68"/>
</g>
<!-- Node17&#45;&gt;Node2 -->
<g id="edge25" class="edge">
<title>Node17&#45;&gt;Node2</title>
<path fill="none" stroke="midnightblue" d="M1660.49,-172.24C1657.62,-171.81 1654.77,-171.39 1652,-171 1522.98,-152.64 1486.68,-169.48 1361,-135 1338.54,-128.84 1335.04,-121.52 1313,-114 1261.38,-96.39 1199.41,-82.35 1162.72,-74.74"/>
<polygon fill="midnightblue" stroke="midnightblue" points="1163.13,-71.25 1152.63,-72.68 1161.73,-78.11 1163.13,-71.25"/>
</g>
<!-- Node17&#45;&gt;Node3 -->
<g id="edge26" class="edge">
<title>Node17&#45;&gt;Node3</title>
<path fill="none" stroke="midnightblue" d="M1684.67,-171.41C1620.42,-149.48 1450.21,-92.8 1305,-57 1247.38,-42.79 1181.01,-30.48 1132.86,-22.25"/>
<polygon fill="midnightblue" stroke="midnightblue" points="1133.31,-18.78 1122.87,-20.56 1132.14,-25.68 1133.31,-18.78"/>
</g>
<!-- Node17&#45;&gt;Node18 -->
<g id="edge27" class="edge">
<title>Node17&#45;&gt;Node18</title>
<path fill="none" stroke="midnightblue" d="M1660.19,-172.05C1657.42,-171.67 1654.68,-171.32 1652,-171 1462.31,-148.4 1236.67,-134.52 1129.11,-128.7"/>
<polygon fill="midnightblue" stroke="midnightblue" points="1129.24,-125.2 1119.07,-128.16 1128.87,-132.19 1129.24,-125.2"/>
</g>
<!-- Node18&#45;&gt;Node2 -->
<g id="edge29" class="edge">
<title>Node18&#45;&gt;Node2</title>
<path fill="none" stroke="midnightblue" d="M1076.73,-114.42C1086.37,-106.27 1100.72,-94.12 1112.25,-84.37"/>
<polygon fill="midnightblue" stroke="midnightblue" points="1114.66,-86.91 1120.03,-77.78 1110.14,-81.57 1114.66,-86.91"/>
</g>
<!-- Node18&#45;&gt;Node3 -->
<g id="edge30" class="edge">
<title>Node18&#45;&gt;Node3</title>
<path fill="none" stroke="midnightblue" d="M1066,-114.33C1066,-96.2 1066,-55.41 1066,-31"/>
<polygon fill="midnightblue" stroke="midnightblue" points="1069.5,-30.79 1066,-20.79 1062.5,-30.79 1069.5,-30.79"/>
</g>
<!-- Node18&#45;&gt;Node8 -->
<g id="edge31" class="edge">
<title>Node18&#45;&gt;Node8</title>
<path fill="none" stroke="midnightblue" d="M1014.5,-114.48C959.4,-104.83 872.04,-89.53 813.4,-79.26"/>
<polygon fill="midnightblue" stroke="midnightblue" points="813.98,-75.8 803.53,-77.53 812.77,-82.7 813.98,-75.8"/>
</g>
<!-- Node18&#45;&gt;Node11 -->
<g id="edge28" class="edge">
<title>Node18&#45;&gt;Node11</title>
<path fill="none" stroke="midnightblue" d="M1119.04,-119.93C1272.26,-109.63 1713.01,-80 1845.73,-71.07"/>
<polygon fill="midnightblue" stroke="midnightblue" points="1846.08,-74.56 1855.82,-70.39 1845.61,-67.57 1846.08,-74.56"/>
</g>
<!-- Node19&#45;&gt;Node2 -->
<g id="edge33" class="edge">
<title>Node19&#45;&gt;Node2</title>
<path fill="none" stroke="midnightblue" d="M1090.27,-171.49C1103.18,-163.72 1119.93,-151.19 1128,-135 1135.25,-120.45 1135.44,-101.82 1134.14,-87.98"/>
<polygon fill="midnightblue" stroke="midnightblue" points="1137.56,-87.15 1132.82,-77.68 1130.62,-88.04 1137.56,-87.15"/>
</g>
<!-- Node19&#45;&gt;Node3 -->
<g id="edge34" class="edge">
<title>Node19&#45;&gt;Node3</title>
<path fill="none" stroke="midnightblue" d="M1094.85,-171.45C1110.61,-163.87 1131.27,-151.62 1144,-135 1165.63,-106.75 1181.02,-87.07 1162,-57 1152.02,-41.22 1134.91,-30.8 1117.88,-23.98"/>
<polygon fill="midnightblue" stroke="midnightblue" points="1119.07,-20.69 1108.48,-20.54 1116.67,-27.26 1119.07,-20.69"/>
</g>
<!-- Node19&#45;&gt;Node18 -->
<g id="edge35" class="edge">
<title>Node19&#45;&gt;Node18</title>
<path fill="none" stroke="midnightblue" d="M1071.84,-171.42C1070.93,-164.22 1069.61,-153.9 1068.46,-144.86"/>
<polygon fill="midnightblue" stroke="midnightblue" points="1071.92,-144.26 1067.18,-134.78 1064.97,-145.14 1071.92,-144.26"/>
</g>
<!-- Node20&#45;&gt;Node2 -->
<g id="edge37" class="edge">
<title>Node20&#45;&gt;Node2</title>
<path fill="none" stroke="midnightblue" d="M650.09,-171.42C691.09,-162.64 754.43,-148.68 809,-135 842.99,-126.48 850.85,-121.86 885,-114 961.37,-96.42 1052.3,-81.02 1099.32,-73.46"/>
<polygon fill="midnightblue" stroke="midnightblue" points="1100.16,-76.87 1109.48,-71.84 1099.06,-69.95 1100.16,-76.87"/>
</g>
<!-- Node20&#45;&gt;Node3 -->
<g id="edge38" class="edge">
<title>Node20&#45;&gt;Node3</title>
<path fill="none" stroke="midnightblue" d="M560.62,-176.59C507.39,-171.03 424.98,-158.76 406,-135 400.17,-127.71 401.8,-122.33 406,-114 425.16,-75.98 443.11,-71.9 483,-57 573.83,-23.06 853.72,-14.44 989.95,-12.25"/>
<polygon fill="midnightblue" stroke="midnightblue" points="990.35,-15.74 1000.3,-12.09 990.24,-8.74 990.35,-15.74"/>
</g>
<!-- Node20&#45;&gt;Node4 -->
<g id="edge39" class="edge">
<title>Node20&#45;&gt;Node4</title>
<path fill="none" stroke="midnightblue" d="M588.67,-171.42C570.92,-162.62 543.77,-149.17 523.44,-139.1"/>
<polygon fill="midnightblue" stroke="midnightblue" points="524.87,-135.9 514.36,-134.6 521.76,-142.17 524.87,-135.9"/>
</g>
<!-- Node20&#45;&gt;Node18 -->
<g id="edge40" class="edge">
<title>Node20&#45;&gt;Node18</title>
<path fill="none" stroke="midnightblue" d="M653.11,-174.97C735.72,-165.08 909.05,-144.31 1002.71,-133.08"/>
<polygon fill="midnightblue" stroke="midnightblue" points="1003.39,-136.53 1012.9,-131.86 1002.55,-129.58 1003.39,-136.53"/>
</g>
<!-- Node21&#45;&gt;Node2 -->
<g id="edge42" class="edge">
<title>Node21&#45;&gt;Node2</title>
<path fill="none" stroke="midnightblue" d="M336.69,-173.93C403.46,-165.73 519.74,-150.83 619,-135 669.88,-126.88 682.04,-121.6 733,-114 868.81,-93.75 1031.87,-77.67 1099.37,-71.38"/>
<polygon fill="midnightblue" stroke="midnightblue" points="1099.73,-74.86 1109.36,-70.45 1099.08,-67.89 1099.73,-74.86"/>
</g>
<!-- Node21&#45;&gt;Node3 -->
<g id="edge43" class="edge">
<title>Node21&#45;&gt;Node3</title>
<path fill="none" stroke="midnightblue" d="M276.2,-171.26C262.72,-148.49 232.61,-89.17 263,-57 287.75,-30.81 794.72,-17.27 990.12,-13.01"/>
<polygon fill="midnightblue" stroke="midnightblue" points="990.39,-16.51 1000.31,-12.79 990.24,-9.51 990.39,-16.51"/>
</g>
<!-- Node21&#45;&gt;Node7 -->
<g id="edge44" class="edge">
<title>Node21&#45;&gt;Node7</title>
<path fill="none" stroke="midnightblue" d="M282.82,-171.33C284.44,-153.2 288.08,-112.41 290.26,-88"/>
<polygon fill="midnightblue" stroke="midnightblue" points="293.77,-88.06 291.17,-77.79 286.79,-87.44 293.77,-88.06"/>
</g>
<!-- Node21&#45;&gt;Node18 -->
<g id="edge45" class="edge">
<title>Node21&#45;&gt;Node18</title>
<path fill="none" stroke="midnightblue" d="M336.5,-175.21C352.15,-173.77 369.25,-172.25 385,-171 612.25,-152.93 882.56,-136.32 1002.86,-129.18"/>
<polygon fill="midnightblue" stroke="midnightblue" points="1003.21,-132.67 1012.99,-128.58 1002.8,-125.68 1003.21,-132.67"/>
</g>
<!-- Node23&#45;&gt;Node2 -->
<g id="edge47" class="edge">
<title>Node23&#45;&gt;Node2</title>
<path fill="none" stroke="midnightblue" d="M1302.7,-171.33C1270.15,-151.84 1193.87,-106.15 1154.87,-82.8"/>
<polygon fill="midnightblue" stroke="midnightblue" points="1156.63,-79.77 1146.25,-77.63 1153.03,-85.78 1156.63,-79.77"/>
</g>
<!-- Node23&#45;&gt;Node3 -->
<g id="edge48" class="edge">
<title>Node23&#45;&gt;Node3</title>
<path fill="none" stroke="midnightblue" d="M1311.61,-171.32C1295.38,-148.67 1250.24,-89.61 1199,-57 1174.46,-41.38 1143.95,-30.45 1118.34,-23.22"/>
<polygon fill="midnightblue" stroke="midnightblue" points="1118.99,-19.77 1108.42,-20.53 1117.16,-26.52 1118.99,-19.77"/>
</g>
<!-- Node23&#45;&gt;Node18 -->
<g id="edge49" class="edge">
<title>Node23&#45;&gt;Node18</title>
<path fill="none" stroke="midnightblue" d="M1276.67,-171.48C1233.09,-161.97 1164.36,-146.97 1117.34,-136.7"/>
<polygon fill="midnightblue" stroke="midnightblue" points="1117.87,-133.24 1107.35,-134.53 1116.38,-140.08 1117.87,-133.24"/>
</g>
<!-- Node24&#45;&gt;Node2 -->
<g id="edge51" class="edge">
<title>Node24&#45;&gt;Node2</title>
<path fill="none" stroke="midnightblue" d="M1190.68,-171.33C1179.97,-152.88 1155.62,-110.92 1141.56,-86.69"/>
<polygon fill="midnightblue" stroke="midnightblue" points="1144.44,-84.68 1136.39,-77.79 1138.39,-88.2 1144.44,-84.68"/>
</g>
<!-- Node24&#45;&gt;Node3 -->
<g id="edge52" class="edge">
<title>Node24&#45;&gt;Node3</title>
<path fill="none" stroke="midnightblue" d="M1197.69,-171.27C1201.2,-149.01 1206.91,-91.67 1180,-57 1167.43,-40.8 1148.2,-30.35 1129.09,-23.61"/>
<polygon fill="midnightblue" stroke="midnightblue" points="1130.04,-20.24 1119.45,-20.51 1127.89,-26.91 1130.04,-20.24"/>
</g>
<!-- Node24&#45;&gt;Node18 -->
<g id="edge53" class="edge">
<title>Node24&#45;&gt;Node18</title>
<path fill="none" stroke="midnightblue" d="M1174.53,-171.42C1153.36,-162.46 1120.79,-148.68 1096.85,-138.55"/>
<polygon fill="midnightblue" stroke="midnightblue" points="1098.07,-135.27 1087.5,-134.6 1095.34,-141.72 1098.07,-135.27"/>
</g>
<!-- Node25&#45;&gt;Node2 -->
<g id="edge55" class="edge">
<title>Node25&#45;&gt;Node2</title>
<path fill="none" stroke="midnightblue" d="M614.75,-235.15C670.43,-227.29 750.44,-213.46 818,-192 897.61,-166.71 911.09,-144.13 989,-114 1026.2,-99.61 1070.06,-86.06 1099.09,-77.55"/>
<polygon fill="midnightblue" stroke="midnightblue" points="1100.44,-80.8 1109.07,-74.65 1098.49,-74.08 1100.44,-80.8"/>
</g>
<!-- Node25&#45;&gt;Node3 -->
<g id="edge56" class="edge">
<title>Node25&#45;&gt;Node3</title>
<path fill="none" stroke="midnightblue" d="M543.8,-234.31C540.79,-219.29 537.3,-189.32 552,-171 559.72,-161.37 905,-58.94 1025.23,-23.49"/>
<polygon fill="midnightblue" stroke="midnightblue" points="1026.56,-26.75 1035.16,-20.57 1024.58,-20.03 1026.56,-26.75"/>
</g>
<!-- Node25&#45;&gt;Node4 -->
<g id="edge57" class="edge">
<title>Node25&#45;&gt;Node4</title>
<path fill="none" stroke="midnightblue" d="M477.2,-239.71C443.67,-233.97 406.11,-220.92 385,-192 365.73,-165.6 404.22,-147.73 441.04,-137.22"/>
<polygon fill="midnightblue" stroke="midnightblue" points="442.08,-140.56 450.83,-134.58 440.26,-133.8 442.08,-140.56"/>
</g>
<!-- Node25&#45;&gt;Node26 -->
<g id="edge58" class="edge">
<title>Node25&#45;&gt;Node26</title>
<path fill="none" stroke="midnightblue" d="M531.69,-234.5C516,-224.63 490.6,-208.66 472.09,-197.02"/>
<polygon fill="midnightblue" stroke="midnightblue" points="473.7,-193.9 463.37,-191.54 469.97,-199.82 473.7,-193.9"/>
</g>
<!-- Node26&#45;&gt;Node2 -->
<g id="edge59" class="edge">
<title>Node26&#45;&gt;Node2</title>
<path fill="none" stroke="midnightblue" d="M504.58,-173.45C562.08,-165.72 654.32,-152.12 733,-135 767.24,-127.55 774.69,-121.13 809,-114 914.38,-92.09 1041.37,-77.58 1099.35,-71.6"/>
<polygon fill="midnightblue" stroke="midnightblue" points="1099.76,-75.08 1109.35,-70.58 1099.05,-68.11 1099.76,-75.08"/>
</g>
<!-- Node26&#45;&gt;Node3 -->
<g id="edge60" class="edge">
<title>Node26&#45;&gt;Node3</title>
<path fill="none" stroke="midnightblue" d="M493.29,-171.49C521.34,-164.46 557.54,-152.83 586,-135 627.02,-109.31 618.53,-78.28 662,-57 718.08,-29.55 889.61,-18.31 990.22,-13.98"/>
<polygon fill="midnightblue" stroke="midnightblue" points="990.49,-17.48 1000.33,-13.56 990.2,-10.48 990.49,-17.48"/>
</g>
<!-- Node26&#45;&gt;Node4 -->
<g id="edge61" class="edge">
<title>Node26&#45;&gt;Node4</title>
<path fill="none" stroke="midnightblue" d="M456.76,-171.42C463.46,-163.58 473.31,-152.06 481.46,-142.51"/>
<polygon fill="midnightblue" stroke="midnightblue" points="484.23,-144.66 488.07,-134.78 478.91,-140.11 484.23,-144.66"/>
</g>
<!-- Node26&#45;&gt;Node7 -->
<g id="edge62" class="edge">
<title>Node26&#45;&gt;Node7</title>
<path fill="none" stroke="midnightblue" d="M410.23,-171.47C386.58,-164.49 356.81,-152.94 335,-135 319.13,-121.94 307.13,-101.46 299.89,-86.67"/>
<polygon fill="midnightblue" stroke="midnightblue" points="303.03,-85.12 295.65,-77.51 296.67,-88.05 303.03,-85.12"/>
</g>
<!-- Node26&#45;&gt;Node18 -->
<g id="edge63" class="edge">
<title>Node26&#45;&gt;Node18</title>
<path fill="none" stroke="midnightblue" d="M504.59,-175.34C519.95,-173.92 536.62,-172.39 552,-171 714.27,-156.33 905.4,-139.54 1002.49,-131.05"/>
<polygon fill="midnightblue" stroke="midnightblue" points="1003.06,-134.51 1012.72,-130.15 1002.45,-127.54 1003.06,-134.51"/>
</g>
<!-- Node27&#45;&gt;Node2 -->
<g id="edge66" class="edge">
<title>Node27&#45;&gt;Node2</title>
<path fill="none" stroke="midnightblue" d="M1779.78,-172.2C1776.81,-171.78 1773.87,-171.38 1771,-171 1622.97,-151.51 1584.06,-160.76 1437,-135 1398.25,-128.21 1389.38,-122.65 1351,-114 1284.04,-98.91 1205.17,-83.06 1162.41,-74.63"/>
<polygon fill="midnightblue" stroke="midnightblue" points="1163.09,-71.2 1152.6,-72.7 1161.74,-78.07 1163.09,-71.2"/>
</g>
<!-- Node27&#45;&gt;Node3 -->
<g id="edge67" class="edge">
<title>Node27&#45;&gt;Node3</title>
<path fill="none" stroke="midnightblue" d="M1801.27,-171.43C1725.83,-149.42 1525.23,-92.35 1355,-57 1283.22,-42.09 1200.52,-29.53 1142.02,-21.41"/>
<polygon fill="midnightblue" stroke="midnightblue" points="1142.14,-17.89 1131.75,-20 1141.18,-24.83 1142.14,-17.89"/>
</g>
<!-- Node27&#45;&gt;Node18 -->
<g id="edge68" class="edge">
<title>Node27&#45;&gt;Node18</title>
<path fill="none" stroke="midnightblue" d="M1779.8,-172.05C1776.82,-171.67 1773.88,-171.32 1771,-171 1535.02,-145.06 1252.86,-132.34 1129.25,-127.67"/>
<polygon fill="midnightblue" stroke="midnightblue" points="1129.33,-124.17 1119.21,-127.3 1129.07,-131.17 1129.33,-124.17"/>
</g>
<!-- Node28&#45;&gt;Node2 -->
<g id="edge71" class="edge">
<title>Node28&#45;&gt;Node2</title>
<path fill="none" stroke="midnightblue" d="M1411.99,-171.44C1377.82,-163.27 1327.59,-150.21 1285,-135 1263.45,-127.3 1258.97,-123.14 1238,-114 1212.49,-102.88 1183.42,-90.54 1162.02,-81.52"/>
<polygon fill="midnightblue" stroke="midnightblue" points="1163.35,-78.28 1152.77,-77.62 1160.63,-84.73 1163.35,-78.28"/>
</g>
<!-- Node28&#45;&gt;Node3 -->
<g id="edge72" class="edge">
<title>Node28&#45;&gt;Node3</title>
<path fill="none" stroke="midnightblue" d="M1438.01,-171.4C1403.35,-149.18 1310.21,-91.47 1226,-57 1190.67,-42.54 1149.16,-30.88 1117.28,-22.98"/>
<polygon fill="midnightblue" stroke="midnightblue" points="1117.83,-19.52 1107.29,-20.55 1116.18,-26.32 1117.83,-19.52"/>
</g>
<!-- Node28&#45;&gt;Node18 -->
<g id="edge73" class="edge">
<title>Node28&#45;&gt;Node18</title>
<path fill="none" stroke="midnightblue" d="M1388.69,-171.48C1317.04,-161.27 1200.99,-144.73 1129.33,-134.52"/>
<polygon fill="midnightblue" stroke="midnightblue" points="1129.48,-131.01 1119.09,-133.06 1128.49,-137.94 1129.48,-131.01"/>
</g>
<!-- Node29&#45;&gt;Node2 -->
<g id="edge75" class="edge">
<title>Node29&#45;&gt;Node2</title>
<path fill="none" stroke="midnightblue" d="M209.74,-172.22C212.87,-171.79 215.97,-171.38 219,-171 381.62,-150.58 431.07,-188.46 586,-135 602.43,-129.33 602.54,-119.6 619,-114 708.68,-83.51 1001.72,-72.3 1099.16,-69.36"/>
<polygon fill="midnightblue" stroke="midnightblue" points="1099.38,-72.86 1109.28,-69.06 1099.18,-65.86 1099.38,-72.86"/>
</g>
<!-- Node29&#45;&gt;Node3 -->
<g id="edge76" class="edge">
<title>Node29&#45;&gt;Node3</title>
<path fill="none" stroke="midnightblue" d="M160.54,-171.19C170.22,-147.16 199.74,-83.09 248,-57 312.23,-22.27 799.74,-13.98 990.14,-12.06"/>
<polygon fill="midnightblue" stroke="midnightblue" points="990.38,-15.56 1000.35,-11.96 990.31,-8.56 990.38,-15.56"/>
</g>
<!-- Node29&#45;&gt;Node7 -->
<g id="edge77" class="edge">
<title>Node29&#45;&gt;Node7</title>
<path fill="none" stroke="midnightblue" d="M168.05,-171.33C190.99,-152.3 244.04,-108.29 272.74,-84.48"/>
<polygon fill="midnightblue" stroke="midnightblue" points="275.34,-86.87 280.8,-77.79 270.87,-81.48 275.34,-86.87"/>
</g>
<!-- Node29&#45;&gt;Node18 -->
<g id="edge78" class="edge">
<title>Node29&#45;&gt;Node18</title>
<path fill="none" stroke="midnightblue" d="M209.72,-172.06C212.86,-171.67 215.97,-171.31 219,-171 510.89,-140.87 861.55,-130.08 1002.64,-126.77"/>
<polygon fill="midnightblue" stroke="midnightblue" points="1002.92,-130.27 1012.84,-126.54 1002.76,-123.27 1002.92,-130.27"/>
</g>
<!-- Node30&#45;&gt;Node2 -->
<g id="edge80" class="edge">
<title>Node30&#45;&gt;Node2</title>
<path fill="none" stroke="midnightblue" d="M1535.23,-172.02C1463.43,-160.59 1342.94,-140.97 1323,-135 1300.69,-128.32 1296.8,-122.19 1275,-114 1236.8,-99.65 1191.82,-85.93 1162.42,-77.38"/>
<polygon fill="midnightblue" stroke="midnightblue" points="1163.29,-73.99 1152.71,-74.58 1161.35,-80.71 1163.29,-73.99"/>
</g>
<!-- Node30&#45;&gt;Node3 -->
<g id="edge81" class="edge">
<title>Node30&#45;&gt;Node3</title>
<path fill="none" stroke="midnightblue" d="M1567.91,-171.41C1516.43,-149.47 1379.88,-92.77 1262,-57 1215.72,-42.96 1162.17,-30.8 1122.75,-22.59"/>
<polygon fill="midnightblue" stroke="midnightblue" points="1123.29,-19.13 1112.79,-20.54 1121.88,-25.98 1123.29,-19.13"/>
</g>
<!-- Node30&#45;&gt;Node18 -->
<g id="edge82" class="edge">
<title>Node30&#45;&gt;Node18</title>
<path fill="none" stroke="midnightblue" d="M1535.41,-172.23C1532.23,-171.8 1529.07,-171.38 1526,-171 1384.67,-153.37 1218.22,-138.31 1129.4,-130.74"/>
<polygon fill="midnightblue" stroke="midnightblue" points="1129.48,-127.23 1119.22,-129.88 1128.89,-134.21 1129.48,-127.23"/>
</g>
<!-- Node32&#45;&gt;Node2 -->
<g id="edge84" class="edge">
<title>Node32&#45;&gt;Node2</title>
<path fill="none" stroke="midnightblue" d="M785.74,-171.42C811.38,-162.57 851.08,-148.53 885,-135 906.63,-126.37 910.89,-121.31 933,-114 990.37,-95.04 1059.61,-81.08 1099.16,-73.92"/>
<polygon fill="midnightblue" stroke="midnightblue" points="1100.02,-77.32 1109.25,-72.12 1098.79,-70.43 1100.02,-77.32"/>
</g>
<!-- Node32&#45;&gt;Node3 -->
<g id="edge85" class="edge">
<title>Node32&#45;&gt;Node3</title>
<path fill="none" stroke="midnightblue" d="M775.51,-171.41C826.1,-143.56 979.31,-59.22 1040.42,-25.58"/>
<polygon fill="midnightblue" stroke="midnightblue" points="1042.34,-28.52 1049.41,-20.63 1038.96,-22.39 1042.34,-28.52"/>
</g>
<!-- Node32&#45;&gt;Node7 -->
<g id="edge86" class="edge">
<title>Node32&#45;&gt;Node7</title>
<path fill="none" stroke="midnightblue" d="M708.75,-175.14C618.12,-165.32 434.04,-144.55 406,-135 370.54,-122.93 333.88,-99.16 312.01,-83.55"/>
<polygon fill="midnightblue" stroke="midnightblue" points="314.01,-80.67 303.86,-77.62 309.89,-86.33 314.01,-80.67"/>
</g>
<!-- Node32&#45;&gt;Node18 -->
<g id="edge87" class="edge">
<title>Node32&#45;&gt;Node18</title>
<path fill="none" stroke="midnightblue" d="M809.01,-171.54C862.78,-161.91 948.28,-146.59 1005.73,-136.3"/>
<polygon fill="midnightblue" stroke="midnightblue" points="1006.53,-139.71 1015.76,-134.5 1005.3,-132.82 1006.53,-139.71"/>
</g>
<!-- Node33&#45;&gt;Node2 -->
<g id="edge90" class="edge">
<title>Node33&#45;&gt;Node2</title>
<path fill="none" stroke="midnightblue" d="M1912.3,-120.52C1763.97,-110.65 1290.24,-79.1 1162.81,-70.62"/>
<polygon fill="midnightblue" stroke="midnightblue" points="1162.78,-67.11 1152.57,-69.94 1162.32,-74.09 1162.78,-67.11"/>
</g>
<!-- Node33&#45;&gt;Node3 -->
<g id="edge91" class="edge">
<title>Node33&#45;&gt;Node3</title>
<path fill="none" stroke="midnightblue" d="M1955.03,-114.23C1951.29,-99.24 1941.64,-70.05 1921,-57 1856.12,-15.97 1339.32,-11.53 1142.11,-11.34"/>
<polygon fill="midnightblue" stroke="midnightblue" points="1141.83,-7.84 1131.83,-11.34 1141.83,-14.84 1141.83,-7.84"/>
</g>
<!-- Node33&#45;&gt;Node11 -->
<g id="edge89" class="edge">
<title>Node33&#45;&gt;Node11</title>
<path fill="none" stroke="midnightblue" d="M1944.95,-114.42C1933.92,-106.11 1917.38,-93.65 1904.31,-83.8"/>
<polygon fill="midnightblue" stroke="midnightblue" points="1906.41,-81 1896.32,-77.78 1902.2,-86.59 1906.41,-81"/>
</g>
</g>
</svg>
