<?xml version="1.0" encoding="UTF-8" standalone="no"?>
<!DOCTYPE svg PUBLIC "-//W3C//DTD SVG 1.1//EN"
 "http://www.w3.org/Graphics/SVG/1.1/DTD/svg11.dtd">
<!-- Generated by graphviz version 3.0.0 (20220413.0242)
 -->
<!-- Title: libmirai/public/libmirai/Events/GroupAllowAnonymousChatEvent.hpp Pages: 1 -->
<svg width="656pt" height="224pt"
 viewBox="0.00 0.00 656.21 224.00" xmlns="http://www.w3.org/2000/svg" xmlns:xlink="http://www.w3.org/1999/xlink">
<g id="graph0" class="graph" transform="scale(1 1) rotate(0) translate(4 220)">
<title>libmirai/public/libmirai/Events/GroupAllowAnonymousChatEvent.hpp</title>
<!-- Node1 -->
<g id="node1" class="node">
<title>Node1</title>
<g id="a_node1"><a xlink:title=" ">
<polygon fill="#bfbfbf" stroke="black" points="226.5,-171.5 226.5,-215.5 417.5,-215.5 417.5,-171.5 226.5,-171.5"/>
<text text-anchor="start" x="234.5" y="-202.7" font-family="-apple-system, BlinkMacSystemFont, 'Segoe UI', Roboto, Oxygen, Ubuntu, Cantarell, 'Fira Sans', 'Droid Sans', 'Helvetica Neue', sans-serif" font-size="11.00">libmirai/public/libmirai</text>
<text text-anchor="start" x="234.5" y="-190.7" font-family="-apple-system, BlinkMacSystemFont, 'Segoe UI', Roboto, Oxygen, Ubuntu, Cantarell, 'Fira Sans', 'Droid Sans', 'Helvetica Neue', sans-serif" font-size="11.00">/Events/GroupAllowAnonymousChat</text>
<text text-anchor="middle" x="322" y="-178.7" font-family="-apple-system, BlinkMacSystemFont, 'Segoe UI', Roboto, Oxygen, Ubuntu, Cantarell, 'Fira Sans', 'Droid Sans', 'Helvetica Neue', sans-serif" font-size="11.00">Event.hpp</text>
</a>
</g>
</g>
<!-- Node2 -->
<g id="node2" class="node">
<title>Node2</title>
<g id="a_node2"><a xlink:title=" ">
<polygon fill="none" stroke="#bfbfbf" points="0,-114.5 0,-134.5 54,-134.5 54,-114.5 0,-114.5"/>
<text text-anchor="middle" x="27" y="-121.7" font-family="-apple-system, BlinkMacSystemFont, 'Segoe UI', Roboto, Oxygen, Ubuntu, Cantarell, 'Fira Sans', 'Droid Sans', 'Helvetica Neue', sans-serif" font-size="11.00">optional</text>
</a>
</g>
</g>
<!-- Node1&#45;&gt;Node2 -->
<g id="edge1" class="edge">
<title>Node1&#45;&gt;Node2</title>
<path fill="none" stroke="midnightblue" d="M228.48,-171.45C180.49,-160.62 121.11,-147.16 68,-135 66.76,-134.72 65.5,-134.43 64.22,-134.13"/>
<polygon fill="midnightblue" stroke="midnightblue" points="64.87,-130.69 54.34,-131.86 63.3,-137.51 64.87,-130.69"/>
</g>
<!-- Node3 -->
<g id="node3" class="node">
<title>Node3</title>
<g id="a_node3"><a xlink:title=" ">
<polygon fill="none" stroke="#bfbfbf" points="516.5,-57.5 516.5,-77.5 559.5,-77.5 559.5,-57.5 516.5,-57.5"/>
<text text-anchor="middle" x="538" y="-64.7" font-family="-apple-system, BlinkMacSystemFont, 'Segoe UI', Roboto, Oxygen, Ubuntu, Cantarell, 'Fira Sans', 'Droid Sans', 'Helvetica Neue', sans-serif" font-size="11.00">string</text>
</a>
</g>
</g>
<!-- Node1&#45;&gt;Node3 -->
<g id="edge2" class="edge">
<title>Node1&#45;&gt;Node3</title>
<path fill="none" stroke="midnightblue" d="M358.64,-171.47C402.69,-146.18 475.41,-104.43 513.31,-82.68"/>
<polygon fill="midnightblue" stroke="midnightblue" points="515.22,-85.61 522.15,-77.6 511.74,-79.54 515.22,-85.61"/>
</g>
<!-- Node4 -->
<g id="node4" class="node">
<title>Node4</title>
<g id="a_node4"><a xlink:title=" ">
<polygon fill="none" stroke="#bfbfbf" points="299.5,-0.5 299.5,-20.5 430.5,-20.5 430.5,-0.5 299.5,-0.5"/>
<text text-anchor="middle" x="365" y="-7.7" font-family="-apple-system, BlinkMacSystemFont, 'Segoe UI', Roboto, Oxygen, Ubuntu, Cantarell, 'Fira Sans', 'Droid Sans', 'Helvetica Neue', sans-serif" font-size="11.00">nlohmann/json_fwd.hpp</text>
</a>
</g>
</g>
<!-- Node1&#45;&gt;Node4 -->
<g id="edge3" class="edge">
<title>Node1&#45;&gt;Node4</title>
<path fill="none" stroke="midnightblue" d="M227.23,-171.42C148.32,-149.51 55.62,-110.87 101,-57 124.7,-28.86 219.95,-18.12 289.25,-14.03"/>
<polygon fill="midnightblue" stroke="midnightblue" points="289.49,-17.52 299.28,-13.47 289.1,-10.53 289.49,-17.52"/>
</g>
<!-- Node5 -->
<g id="node5" class="node">
<title>Node5</title>
<g id="a_node5"><a xlink:href="BasicTypes_8hpp.html" target="_top" xlink:title=" ">
<polygon fill="none" stroke="black" points="241,-114.5 241,-134.5 403,-134.5 403,-114.5 241,-114.5"/>
<text text-anchor="middle" x="322" y="-121.7" font-family="-apple-system, BlinkMacSystemFont, 'Segoe UI', Roboto, Oxygen, Ubuntu, Cantarell, 'Fira Sans', 'Droid Sans', 'Helvetica Neue', sans-serif" font-size="11.00">libmirai/Types/BasicTypes.hpp</text>
</a>
</g>
</g>
<!-- Node1&#45;&gt;Node5 -->
<g id="edge4" class="edge">
<title>Node1&#45;&gt;Node5</title>
<path fill="none" stroke="midnightblue" d="M322,-171.3C322,-162.87 322,-153.22 322,-144.97"/>
<polygon fill="midnightblue" stroke="midnightblue" points="325.5,-144.82 322,-134.82 318.5,-144.82 325.5,-144.82"/>
</g>
<!-- Node10 -->
<g id="node10" class="node">
<title>Node10</title>
<g id="a_node10"><a xlink:href="EventBase_8hpp.html" target="_top" xlink:title=" ">
<polygon fill="none" stroke="black" points="527.5,-114.5 527.5,-134.5 616.5,-134.5 616.5,-114.5 527.5,-114.5"/>
<text text-anchor="middle" x="572" y="-121.7" font-family="-apple-system, BlinkMacSystemFont, 'Segoe UI', Roboto, Oxygen, Ubuntu, Cantarell, 'Fira Sans', 'Droid Sans', 'Helvetica Neue', sans-serif" font-size="11.00">EventBase.hpp</text>
</a>
</g>
</g>
<!-- Node1&#45;&gt;Node10 -->
<g id="edge12" class="edge">
<title>Node1&#45;&gt;Node10</title>
<path fill="none" stroke="midnightblue" d="M400.42,-171.48C442.64,-160.17 493.15,-146.63 528.39,-137.19"/>
<polygon fill="midnightblue" stroke="midnightblue" points="529.6,-140.49 538.35,-134.52 527.79,-133.73 529.6,-140.49"/>
</g>
<!-- Node5&#45;&gt;Node3 -->
<g id="edge7" class="edge">
<title>Node5&#45;&gt;Node3</title>
<path fill="none" stroke="midnightblue" d="M361.5,-114.46C397.02,-106.19 450.82,-93.28 506.66,-77.98"/>
<polygon fill="midnightblue" stroke="midnightblue" points="507.66,-81.33 516.37,-75.3 505.79,-74.59 507.66,-81.33"/>
</g>
<!-- Node5&#45;&gt;Node4 -->
<g id="edge9" class="edge">
<title>Node5&#45;&gt;Node4</title>
<path fill="none" stroke="midnightblue" d="M352.69,-114.39C370.18,-107.44 390.62,-95.95 401,-78 410.78,-61.09 397.03,-41.37 383.79,-27.82"/>
<polygon fill="midnightblue" stroke="midnightblue" points="385.9,-24.99 376.25,-20.62 381.07,-30.06 385.9,-24.99"/>
</g>
<!-- Node6 -->
<g id="node6" class="node">
<title>Node6</title>
<g id="a_node6"><a xlink:title=" ">
<polygon fill="none" stroke="#bfbfbf" points="448,-57.5 448,-77.5 498,-77.5 498,-57.5 448,-57.5"/>
<text text-anchor="middle" x="473" y="-64.7" font-family="-apple-system, BlinkMacSystemFont, 'Segoe UI', Roboto, Oxygen, Ubuntu, Cantarell, 'Fira Sans', 'Droid Sans', 'Helvetica Neue', sans-serif" font-size="11.00">chrono</text>
</a>
</g>
</g>
<!-- Node5&#45;&gt;Node6 -->
<g id="edge5" class="edge">
<title>Node5&#45;&gt;Node6</title>
<path fill="none" stroke="midnightblue" d="M346.93,-114.42C371.93,-105.31 410.6,-91.23 438.52,-81.06"/>
<polygon fill="midnightblue" stroke="midnightblue" points="440.08,-84.22 448.28,-77.5 437.69,-77.64 440.08,-84.22"/>
</g>
<!-- Node7 -->
<g id="node7" class="node">
<title>Node7</title>
<g id="a_node7"><a xlink:title=" ">
<polygon fill="none" stroke="#bfbfbf" points="110,-57.5 110,-77.5 152,-77.5 152,-57.5 110,-57.5"/>
<text text-anchor="middle" x="131" y="-64.7" font-family="-apple-system, BlinkMacSystemFont, 'Segoe UI', Roboto, Oxygen, Ubuntu, Cantarell, 'Fira Sans', 'Droid Sans', 'Helvetica Neue', sans-serif" font-size="11.00">ctime</text>
</a>
</g>
</g>
<!-- Node5&#45;&gt;Node7 -->
<g id="edge6" class="edge">
<title>Node5&#45;&gt;Node7</title>
<path fill="none" stroke="midnightblue" d="M288.92,-114.48C258.35,-106.07 211.43,-92.98 162.16,-78.29"/>
<polygon fill="midnightblue" stroke="midnightblue" points="162.86,-74.84 152.28,-75.33 160.86,-81.55 162.86,-74.84"/>
</g>
<!-- Node8 -->
<g id="node8" class="node">
<title>Node8</title>
<g id="a_node8"><a xlink:title=" ">
<polygon fill="none" stroke="#bfbfbf" points="170.5,-57.5 170.5,-77.5 211.5,-77.5 211.5,-57.5 170.5,-57.5"/>
<text text-anchor="middle" x="191" y="-64.7" font-family="-apple-system, BlinkMacSystemFont, 'Segoe UI', Roboto, Oxygen, Ubuntu, Cantarell, 'Fira Sans', 'Droid Sans', 'Helvetica Neue', sans-serif" font-size="11.00">utility</text>
</a>
</g>
</g>
<!-- Node5&#45;&gt;Node8 -->
<g id="edge8" class="edge">
<title>Node5&#45;&gt;Node8</title>
<path fill="none" stroke="midnightblue" d="M300.37,-114.42C278.78,-105.35 245.42,-91.35 221.22,-81.19"/>
<polygon fill="midnightblue" stroke="midnightblue" points="222.37,-77.88 211.8,-77.23 219.66,-84.33 222.37,-77.88"/>
</g>
<!-- Node9 -->
<g id="node9" class="node">
<title>Node9</title>
<g id="a_node9"><a xlink:href="Serializable_8hpp.html" target="_top" xlink:title=" ">
<polygon fill="none" stroke="black" points="230,-57.5 230,-77.5 392,-77.5 392,-57.5 230,-57.5"/>
<text text-anchor="middle" x="311" y="-64.7" font-family="-apple-system, BlinkMacSystemFont, 'Segoe UI', Roboto, Oxygen, Ubuntu, Cantarell, 'Fira Sans', 'Droid Sans', 'Helvetica Neue', sans-serif" font-size="11.00">libmirai/Types/Serializable.hpp</text>
</a>
</g>
</g>
<!-- Node5&#45;&gt;Node9 -->
<g id="edge10" class="edge">
<title>Node5&#45;&gt;Node9</title>
<path fill="none" stroke="midnightblue" d="M320.18,-114.42C318.74,-107.22 316.68,-96.9 314.87,-87.86"/>
<polygon fill="midnightblue" stroke="midnightblue" points="318.25,-86.9 312.86,-77.78 311.39,-88.27 318.25,-86.9"/>
</g>
<!-- Node9&#45;&gt;Node4 -->
<g id="edge11" class="edge">
<title>Node9&#45;&gt;Node4</title>
<path fill="none" stroke="midnightblue" d="M319.92,-57.42C327.76,-49.42 339.38,-37.59 348.86,-27.94"/>
<polygon fill="midnightblue" stroke="midnightblue" points="351.38,-30.37 355.89,-20.78 346.39,-25.46 351.38,-30.37"/>
</g>
<!-- Node10&#45;&gt;Node3 -->
<g id="edge14" class="edge">
<title>Node10&#45;&gt;Node3</title>
<path fill="none" stroke="midnightblue" d="M566.39,-114.42C561.69,-106.82 554.85,-95.75 549.06,-86.39"/>
<polygon fill="midnightblue" stroke="midnightblue" points="551.97,-84.45 543.74,-77.78 546.02,-88.13 551.97,-84.45"/>
</g>
<!-- Node10&#45;&gt;Node4 -->
<g id="edge15" class="edge">
<title>Node10&#45;&gt;Node4</title>
<path fill="none" stroke="midnightblue" d="M595.04,-114.3C622.39,-102.07 662.03,-79.39 643,-57 617.48,-26.97 513.91,-16.71 440.67,-13.24"/>
<polygon fill="midnightblue" stroke="midnightblue" points="440.7,-9.74 430.55,-12.79 440.39,-16.73 440.7,-9.74"/>
</g>
<!-- Node11 -->
<g id="node11" class="node">
<title>Node11</title>
<g id="a_node11"><a xlink:title=" ">
<polygon fill="none" stroke="#bfbfbf" points="578,-57.5 578,-77.5 634,-77.5 634,-57.5 578,-57.5"/>
<text text-anchor="middle" x="606" y="-64.7" font-family="-apple-system, BlinkMacSystemFont, 'Segoe UI', Roboto, Oxygen, Ubuntu, Cantarell, 'Fira Sans', 'Droid Sans', 'Helvetica Neue', sans-serif" font-size="11.00">memory</text>
</a>
</g>
</g>
<!-- Node10&#45;&gt;Node11 -->
<g id="edge13" class="edge">
<title>Node10&#45;&gt;Node11</title>
<path fill="none" stroke="midnightblue" d="M577.61,-114.42C582.31,-106.82 589.15,-95.75 594.94,-86.39"/>
<polygon fill="midnightblue" stroke="midnightblue" points="597.98,-88.13 600.26,-77.78 592.03,-84.45 597.98,-88.13"/>
</g>
</g>
</svg>
