<?xml version="1.0" encoding="UTF-8" standalone="no"?>
<!DOCTYPE svg PUBLIC "-//W3C//DTD SVG 1.1//EN"
 "http://www.w3.org/Graphics/SVG/1.1/DTD/svg11.dtd">
<!-- Generated by graphviz version 3.0.0 (20220413.0242)
 -->
<!-- Title: libmirai/public/libmirai/Events/GroupSyncMessageEvent.hpp Pages: 1 -->
<svg width="1978pt" height="350pt"
 viewBox="0.00 0.00 1977.95 350.00" xmlns="http://www.w3.org/2000/svg" xmlns:xlink="http://www.w3.org/1999/xlink">
<g id="graph0" class="graph" transform="scale(1 1) rotate(0) translate(4 346)">
<title>libmirai/public/libmirai/Events/GroupSyncMessageEvent.hpp</title>
<!-- Node1 -->
<g id="node1" class="node">
<title>Node1</title>
<g id="a_node1"><a xlink:title=" ">
<polygon fill="#bfbfbf" stroke="black" points="1015.54,-309.5 1015.54,-341.5 1215.54,-341.5 1215.54,-309.5 1015.54,-309.5"/>
<text text-anchor="start" x="1023.54" y="-328.7" font-family="-apple-system, BlinkMacSystemFont, 'Segoe UI', Roboto, Oxygen, Ubuntu, Cantarell, 'Fira Sans', 'Droid Sans', 'Helvetica Neue', sans-serif" font-size="11.00">libmirai/public/libmirai</text>
<text text-anchor="middle" x="1115.54" y="-316.7" font-family="-apple-system, BlinkMacSystemFont, 'Segoe UI', Roboto, Oxygen, Ubuntu, Cantarell, 'Fira Sans', 'Droid Sans', 'Helvetica Neue', sans-serif" font-size="11.00">/Events/GroupSyncMessageEvent.hpp</text>
</a>
</g>
</g>
<!-- Node2 -->
<g id="node2" class="node">
<title>Node2</title>
<g id="a_node2"><a xlink:title=" ">
<polygon fill="none" stroke="#bfbfbf" points="918.04,-0.5 918.04,-20.5 961.04,-20.5 961.04,-0.5 918.04,-0.5"/>
<text text-anchor="middle" x="939.54" y="-7.7" font-family="-apple-system, BlinkMacSystemFont, 'Segoe UI', Roboto, Oxygen, Ubuntu, Cantarell, 'Fira Sans', 'Droid Sans', 'Helvetica Neue', sans-serif" font-size="11.00">string</text>
</a>
</g>
</g>
<!-- Node1&#45;&gt;Node2 -->
<g id="edge1" class="edge">
<title>Node1&#45;&gt;Node2</title>
<path fill="none" stroke="midnightblue" d="M1015.28,-322.75C779.54,-316.16 202.11,-284.74 98.54,-135 53.72,-70.2 -30.39,-114.54 355.54,-57 564.83,-25.8 819.7,-15.26 907.8,-12.41"/>
<polygon fill="midnightblue" stroke="midnightblue" points="908.06,-15.9 917.94,-12.09 907.84,-8.9 908.06,-15.9"/>
</g>
<!-- Node3 -->
<g id="node3" class="node">
<title>Node3</title>
<g id="a_node3"><a xlink:title=" ">
<polygon fill="none" stroke="#bfbfbf" points="1142.04,-0.5 1142.04,-20.5 1273.04,-20.5 1273.04,-0.5 1142.04,-0.5"/>
<text text-anchor="middle" x="1207.54" y="-7.7" font-family="-apple-system, BlinkMacSystemFont, 'Segoe UI', Roboto, Oxygen, Ubuntu, Cantarell, 'Fira Sans', 'Droid Sans', 'Helvetica Neue', sans-serif" font-size="11.00">nlohmann/json_fwd.hpp</text>
</a>
</g>
</g>
<!-- Node1&#45;&gt;Node3 -->
<g id="edge2" class="edge">
<title>Node1&#45;&gt;Node3</title>
<path fill="none" stroke="midnightblue" d="M1215.78,-324.88C1339.32,-323.36 1554.95,-314.22 1734.54,-273 1836.22,-249.66 1953.54,-292.83 1953.54,-188.5 1953.54,-188.5 1953.54,-188.5 1953.54,-123.5 1953.54,-72.69 1908.36,-74.19 1860.54,-57 1756.3,-19.52 1432.15,-12.74 1283.46,-11.63"/>
<polygon fill="midnightblue" stroke="midnightblue" points="1283.09,-8.13 1273.07,-11.56 1283.04,-15.13 1283.09,-8.13"/>
</g>
<!-- Node4 -->
<g id="node4" class="node">
<title>Node4</title>
<g id="a_node4"><a xlink:href="MessageChain_8hpp.html" target="_top" xlink:title=" ">
<polygon fill="none" stroke="black" points="1041.04,-240.5 1041.04,-272.5 1190.04,-272.5 1190.04,-240.5 1041.04,-240.5"/>
<text text-anchor="start" x="1049.04" y="-259.7" font-family="-apple-system, BlinkMacSystemFont, 'Segoe UI', Roboto, Oxygen, Ubuntu, Cantarell, 'Fira Sans', 'Droid Sans', 'Helvetica Neue', sans-serif" font-size="11.00">libmirai/Messages/Message</text>
<text text-anchor="middle" x="1115.54" y="-247.7" font-family="-apple-system, BlinkMacSystemFont, 'Segoe UI', Roboto, Oxygen, Ubuntu, Cantarell, 'Fira Sans', 'Droid Sans', 'Helvetica Neue', sans-serif" font-size="11.00">Chain.hpp</text>
</a>
</g>
</g>
<!-- Node1&#45;&gt;Node4 -->
<g id="edge3" class="edge">
<title>Node1&#45;&gt;Node4</title>
<path fill="none" stroke="midnightblue" d="M1115.54,-309.3C1115.54,-301.5 1115.54,-291.8 1115.54,-282.91"/>
<polygon fill="midnightblue" stroke="midnightblue" points="1119.04,-282.64 1115.54,-272.64 1112.04,-282.64 1119.04,-282.64"/>
</g>
<!-- Node19 -->
<g id="node18" class="node">
<title>Node19</title>
<g id="a_node18"><a xlink:href="BasicTypes_8hpp.html" target="_top" xlink:title=" ">
<polygon fill="none" stroke="red" points="1656.54,-57.5 1656.54,-77.5 1818.54,-77.5 1818.54,-57.5 1656.54,-57.5"/>
<text text-anchor="middle" x="1737.54" y="-64.7" font-family="-apple-system, BlinkMacSystemFont, 'Segoe UI', Roboto, Oxygen, Ubuntu, Cantarell, 'Fira Sans', 'Droid Sans', 'Helvetica Neue', sans-serif" font-size="11.00">libmirai/Types/BasicTypes.hpp</text>
</a>
</g>
</g>
<!-- Node1&#45;&gt;Node19 -->
<g id="edge78" class="edge">
<title>Node1&#45;&gt;Node19</title>
<path fill="none" stroke="midnightblue" d="M1215.75,-322.61C1391.59,-316.96 1744.33,-294.34 1820.54,-204 1853.99,-164.34 1793.5,-109.83 1759.04,-83.69"/>
<polygon fill="midnightblue" stroke="midnightblue" points="1761.04,-80.81 1750.92,-77.68 1756.88,-86.44 1761.04,-80.81"/>
</g>
<!-- Node33 -->
<g id="node29" class="node">
<title>Node33</title>
<g id="a_node29"><a xlink:href="EventBase_8hpp.html" target="_top" xlink:title=" ">
<polygon fill="none" stroke="black" points="13.04,-57.5 13.04,-77.5 102.04,-77.5 102.04,-57.5 13.04,-57.5"/>
<text text-anchor="middle" x="57.54" y="-64.7" font-family="-apple-system, BlinkMacSystemFont, 'Segoe UI', Roboto, Oxygen, Ubuntu, Cantarell, 'Fira Sans', 'Droid Sans', 'Helvetica Neue', sans-serif" font-size="11.00">EventBase.hpp</text>
</a>
</g>
</g>
<!-- Node1&#45;&gt;Node33 -->
<g id="edge79" class="edge">
<title>Node1&#45;&gt;Node33</title>
<path fill="none" stroke="midnightblue" d="M1015.27,-323.2C759.16,-319.41 98.63,-306.42 65.54,-273 16.08,-223.04 38.29,-128.15 50.94,-87.62"/>
<polygon fill="midnightblue" stroke="midnightblue" points="54.33,-88.52 54.11,-77.92 47.67,-86.34 54.33,-88.52"/>
</g>
<!-- Node4&#45;&gt;Node3 -->
<g id="edge12" class="edge">
<title>Node4&#45;&gt;Node3</title>
<path fill="none" stroke="midnightblue" d="M1190.22,-255.07C1362.01,-253.38 1774.11,-245.05 1820.54,-204 1863.31,-166.19 1839.96,-134.82 1845.54,-78 1846.45,-68.71 1851.9,-63.83 1845.54,-57 1807.96,-16.64 1444.58,-11.52 1283.62,-11.25"/>
<polygon fill="midnightblue" stroke="midnightblue" points="1283.32,-7.75 1273.32,-11.24 1283.31,-14.75 1283.32,-7.75"/>
</g>
<!-- Node5 -->
<g id="node5" class="node">
<title>Node5</title>
<g id="a_node5"><a xlink:title=" ">
<polygon fill="none" stroke="#bfbfbf" points="1117.04,-177.5 1117.04,-197.5 1168.04,-197.5 1168.04,-177.5 1117.04,-177.5"/>
<text text-anchor="middle" x="1142.54" y="-184.7" font-family="-apple-system, BlinkMacSystemFont, 'Segoe UI', Roboto, Oxygen, Ubuntu, Cantarell, 'Fira Sans', 'Droid Sans', 'Helvetica Neue', sans-serif" font-size="11.00">cstddef</text>
</a>
</g>
</g>
<!-- Node4&#45;&gt;Node5 -->
<g id="edge4" class="edge">
<title>Node4&#45;&gt;Node5</title>
<path fill="none" stroke="midnightblue" d="M1121.67,-240.3C1125.64,-230.45 1130.83,-217.56 1135.04,-207.11"/>
<polygon fill="midnightblue" stroke="midnightblue" points="1138.36,-208.25 1138.85,-197.66 1131.86,-205.63 1138.36,-208.25"/>
</g>
<!-- Node6 -->
<g id="node6" class="node">
<title>Node6</title>
<g id="a_node6"><a xlink:title=" ">
<polygon fill="none" stroke="#bfbfbf" points="1843.54,-0.5 1843.54,-20.5 1885.54,-20.5 1885.54,-0.5 1843.54,-0.5"/>
<text text-anchor="middle" x="1864.54" y="-7.7" font-family="-apple-system, BlinkMacSystemFont, 'Segoe UI', Roboto, Oxygen, Ubuntu, Cantarell, 'Fira Sans', 'Droid Sans', 'Helvetica Neue', sans-serif" font-size="11.00">ctime</text>
</a>
</g>
</g>
<!-- Node4&#45;&gt;Node6 -->
<g id="edge5" class="edge">
<title>Node4&#45;&gt;Node6</title>
<path fill="none" stroke="midnightblue" d="M1190.22,-253.25C1364.41,-247.58 1787.24,-231.16 1845.54,-204 1916.2,-171.08 1938.29,-150.25 1967.54,-78 1981.21,-44.24 1930.59,-25.9 1895.52,-17.45"/>
<polygon fill="midnightblue" stroke="midnightblue" points="1896.19,-14.01 1885.66,-15.23 1894.65,-20.84 1896.19,-14.01"/>
</g>
<!-- Node7 -->
<g id="node7" class="node">
<title>Node7</title>
<g id="a_node7"><a xlink:title=" ">
<polygon fill="none" stroke="#bfbfbf" points="29.54,-0.5 29.54,-20.5 85.54,-20.5 85.54,-0.5 29.54,-0.5"/>
<text text-anchor="middle" x="57.54" y="-7.7" font-family="-apple-system, BlinkMacSystemFont, 'Segoe UI', Roboto, Oxygen, Ubuntu, Cantarell, 'Fira Sans', 'Droid Sans', 'Helvetica Neue', sans-serif" font-size="11.00">memory</text>
</a>
</g>
</g>
<!-- Node4&#45;&gt;Node7 -->
<g id="edge6" class="edge">
<title>Node4&#45;&gt;Node7</title>
<path fill="none" stroke="midnightblue" d="M1040.96,-253.74C864.49,-249.12 425.34,-234.82 281.54,-204 148.9,-175.57 70.38,-196.05 3.54,-78 -7.52,-58.47 13.22,-38.86 32.11,-26.05"/>
<polygon fill="midnightblue" stroke="midnightblue" points="34,-29 40.54,-20.67 30.23,-23.1 34,-29"/>
</g>
<!-- Node8 -->
<g id="node8" class="node">
<title>Node8</title>
<g id="a_node8"><a xlink:title=" ">
<polygon fill="none" stroke="#bfbfbf" points="1186.54,-177.5 1186.54,-197.5 1240.54,-197.5 1240.54,-177.5 1186.54,-177.5"/>
<text text-anchor="middle" x="1213.54" y="-184.7" font-family="-apple-system, BlinkMacSystemFont, 'Segoe UI', Roboto, Oxygen, Ubuntu, Cantarell, 'Fira Sans', 'Droid Sans', 'Helvetica Neue', sans-serif" font-size="11.00">optional</text>
</a>
</g>
</g>
<!-- Node4&#45;&gt;Node8 -->
<g id="edge7" class="edge">
<title>Node4&#45;&gt;Node8</title>
<path fill="none" stroke="midnightblue" d="M1137.78,-240.3C1153.98,-229.22 1175.81,-214.3 1191.88,-203.31"/>
<polygon fill="midnightblue" stroke="midnightblue" points="1193.86,-206.2 1200.14,-197.66 1189.91,-200.42 1193.86,-206.2"/>
</g>
<!-- Node9 -->
<g id="node9" class="node">
<title>Node9</title>
<g id="a_node9"><a xlink:title=" ">
<polygon fill="none" stroke="#bfbfbf" points="1029.54,-114.5 1029.54,-134.5 1091.54,-134.5 1091.54,-114.5 1029.54,-114.5"/>
<text text-anchor="middle" x="1060.54" y="-121.7" font-family="-apple-system, BlinkMacSystemFont, 'Segoe UI', Roboto, Oxygen, Ubuntu, Cantarell, 'Fira Sans', 'Droid Sans', 'Helvetica Neue', sans-serif" font-size="11.00">stdexcept</text>
</a>
</g>
</g>
<!-- Node4&#45;&gt;Node9 -->
<g id="edge8" class="edge">
<title>Node4&#45;&gt;Node9</title>
<path fill="none" stroke="midnightblue" d="M1040.82,-252.43C1006,-246.78 967.5,-233.6 945.54,-204 936.8,-192.22 937.3,-183.13 945.54,-171 954.33,-158.08 990.29,-145.14 1019.7,-136.38"/>
<polygon fill="midnightblue" stroke="midnightblue" points="1020.74,-139.73 1029.37,-133.58 1018.79,-133 1020.74,-139.73"/>
</g>
<!-- Node10 -->
<g id="node10" class="node">
<title>Node10</title>
<g id="a_node10"><a xlink:title=" ">
<polygon fill="none" stroke="#bfbfbf" points="1258.54,-177.5 1258.54,-197.5 1324.54,-197.5 1324.54,-177.5 1258.54,-177.5"/>
<text text-anchor="middle" x="1291.54" y="-184.7" font-family="-apple-system, BlinkMacSystemFont, 'Segoe UI', Roboto, Oxygen, Ubuntu, Cantarell, 'Fira Sans', 'Droid Sans', 'Helvetica Neue', sans-serif" font-size="11.00">type_traits</text>
</a>
</g>
</g>
<!-- Node4&#45;&gt;Node10 -->
<g id="edge9" class="edge">
<title>Node4&#45;&gt;Node10</title>
<path fill="none" stroke="midnightblue" d="M1155.04,-240.46C1186.18,-228.61 1229.11,-212.27 1258.46,-201.1"/>
<polygon fill="midnightblue" stroke="midnightblue" points="1259.75,-204.35 1267.85,-197.52 1257.26,-197.8 1259.75,-204.35"/>
</g>
<!-- Node11 -->
<g id="node11" class="node">
<title>Node11</title>
<g id="a_node11"><a xlink:title=" ">
<polygon fill="none" stroke="#bfbfbf" points="1343.04,-177.5 1343.04,-197.5 1384.04,-197.5 1384.04,-177.5 1343.04,-177.5"/>
<text text-anchor="middle" x="1363.54" y="-184.7" font-family="-apple-system, BlinkMacSystemFont, 'Segoe UI', Roboto, Oxygen, Ubuntu, Cantarell, 'Fira Sans', 'Droid Sans', 'Helvetica Neue', sans-serif" font-size="11.00">utility</text>
</a>
</g>
</g>
<!-- Node4&#45;&gt;Node11 -->
<g id="edge10" class="edge">
<title>Node4&#45;&gt;Node11</title>
<path fill="none" stroke="midnightblue" d="M1190.28,-242.56C1233,-234 1287.13,-221.17 1333.54,-204 1335.17,-203.4 1336.82,-202.73 1338.46,-202.02"/>
<polygon fill="midnightblue" stroke="midnightblue" points="1340.16,-205.08 1347.68,-197.61 1337.15,-198.77 1340.16,-205.08"/>
</g>
<!-- Node12 -->
<g id="node12" class="node">
<title>Node12</title>
<g id="a_node12"><a xlink:title=" ">
<polygon fill="none" stroke="#bfbfbf" points="1402.54,-177.5 1402.54,-197.5 1448.54,-197.5 1448.54,-177.5 1402.54,-177.5"/>
<text text-anchor="middle" x="1425.54" y="-184.7" font-family="-apple-system, BlinkMacSystemFont, 'Segoe UI', Roboto, Oxygen, Ubuntu, Cantarell, 'Fira Sans', 'Droid Sans', 'Helvetica Neue', sans-serif" font-size="11.00">vector</text>
</a>
</g>
</g>
<!-- Node4&#45;&gt;Node12 -->
<g id="edge11" class="edge">
<title>Node4&#45;&gt;Node12</title>
<path fill="none" stroke="midnightblue" d="M1190.05,-247.21C1246.82,-239.58 1326.38,-226.04 1393.54,-204 1395.48,-203.36 1397.44,-202.64 1399.41,-201.85"/>
<polygon fill="midnightblue" stroke="midnightblue" points="1401.25,-204.85 1408.95,-197.58 1398.4,-198.46 1401.25,-204.85"/>
</g>
<!-- Node13 -->
<g id="node13" class="node">
<title>Node13</title>
<g id="a_node13"><a xlink:href="Exceptions_8hpp.html" target="_top" xlink:title=" ">
<polygon fill="none" stroke="black" points="955.04,-171.5 955.04,-203.5 1060.04,-203.5 1060.04,-171.5 955.04,-171.5"/>
<text text-anchor="start" x="963.04" y="-190.7" font-family="-apple-system, BlinkMacSystemFont, 'Segoe UI', Roboto, Oxygen, Ubuntu, Cantarell, 'Fira Sans', 'Droid Sans', 'Helvetica Neue', sans-serif" font-size="11.00">libmirai/Exceptions</text>
<text text-anchor="middle" x="1007.54" y="-178.7" font-family="-apple-system, BlinkMacSystemFont, 'Segoe UI', Roboto, Oxygen, Ubuntu, Cantarell, 'Fira Sans', 'Droid Sans', 'Helvetica Neue', sans-serif" font-size="11.00">/Exceptions.hpp</text>
</a>
</g>
</g>
<!-- Node4&#45;&gt;Node13 -->
<g id="edge13" class="edge">
<title>Node4&#45;&gt;Node13</title>
<path fill="none" stroke="midnightblue" d="M1091.3,-240.46C1076.4,-231.22 1057.1,-219.25 1040.78,-209.12"/>
<polygon fill="midnightblue" stroke="midnightblue" points="1042.41,-206.02 1032.07,-203.72 1038.72,-211.96 1042.41,-206.02"/>
</g>
<!-- Node14 -->
<g id="node14" class="node">
<title>Node14</title>
<g id="a_node14"><a xlink:href="AppMessage_8hpp.html" target="_top" xlink:title=" ">
<polygon fill="none" stroke="black" points="360.04,-114.5 360.04,-134.5 461.04,-134.5 461.04,-114.5 360.04,-114.5"/>
<text text-anchor="middle" x="410.54" y="-121.7" font-family="-apple-system, BlinkMacSystemFont, 'Segoe UI', Roboto, Oxygen, Ubuntu, Cantarell, 'Fira Sans', 'Droid Sans', 'Helvetica Neue', sans-serif" font-size="11.00">AppMessage.hpp</text>
</a>
</g>
</g>
<!-- Node4&#45;&gt;Node14 -->
<g id="edge16" class="edge">
<title>Node4&#45;&gt;Node14</title>
<path fill="none" stroke="midnightblue" d="M1040.98,-253.39C943.94,-249.36 769.61,-237.67 624.54,-204 556.16,-188.13 479.81,-156.57 439.35,-138.68"/>
<polygon fill="midnightblue" stroke="midnightblue" points="440.66,-135.43 430.1,-134.54 437.8,-141.82 440.66,-135.43"/>
</g>
<!-- Node15 -->
<g id="node15" class="node">
<title>Node15</title>
<g id="a_node15"><a xlink:href="MessageBase_8hpp.html" target="_top" xlink:title=" ">
<polygon fill="none" stroke="red" points="846.54,-57.5 846.54,-77.5 952.54,-77.5 952.54,-57.5 846.54,-57.5"/>
<text text-anchor="middle" x="899.54" y="-64.7" font-family="-apple-system, BlinkMacSystemFont, 'Segoe UI', Roboto, Oxygen, Ubuntu, Cantarell, 'Fira Sans', 'Droid Sans', 'Helvetica Neue', sans-serif" font-size="11.00">MessageBase.hpp</text>
</a>
</g>
</g>
<!-- Node4&#45;&gt;Node15 -->
<g id="edge61" class="edge">
<title>Node4&#45;&gt;Node15</title>
<path fill="none" stroke="midnightblue" d="M1040.99,-246.72C993.39,-239.32 931.14,-226.25 879.54,-204 829.62,-182.47 803.92,-183.08 778.54,-135 763.08,-105.71 799.55,-88.67 836.4,-79.18"/>
<polygon fill="midnightblue" stroke="midnightblue" points="837.34,-82.56 846.25,-76.82 835.71,-75.75 837.34,-82.56"/>
</g>
<!-- Node17 -->
<g id="node16" class="node">
<title>Node17</title>
<g id="a_node16"><a xlink:href="AtAllMessage_8hpp.html" target="_top" xlink:title=" ">
<polygon fill="none" stroke="black" points="627.54,-114.5 627.54,-134.5 731.54,-134.5 731.54,-114.5 627.54,-114.5"/>
<text text-anchor="middle" x="679.54" y="-121.7" font-family="-apple-system, BlinkMacSystemFont, 'Segoe UI', Roboto, Oxygen, Ubuntu, Cantarell, 'Fira Sans', 'Droid Sans', 'Helvetica Neue', sans-serif" font-size="11.00">AtAllMessage.hpp</text>
</a>
</g>
</g>
<!-- Node4&#45;&gt;Node17 -->
<g id="edge23" class="edge">
<title>Node4&#45;&gt;Node17</title>
<path fill="none" stroke="midnightblue" d="M1040.77,-251.41C947.67,-245.24 794.85,-231.26 745.54,-204 720.18,-189.98 700.39,-162.06 689.34,-143.58"/>
<polygon fill="midnightblue" stroke="midnightblue" points="692.24,-141.61 684.24,-134.66 686.17,-145.08 692.24,-141.61"/>
</g>
<!-- Node18 -->
<g id="node17" class="node">
<title>Node18</title>
<g id="a_node17"><a xlink:href="AtMessage_8hpp.html" target="_top" xlink:title=" ">
<polygon fill="none" stroke="black" points="1513.54,-114.5 1513.54,-134.5 1605.54,-134.5 1605.54,-114.5 1513.54,-114.5"/>
<text text-anchor="middle" x="1559.54" y="-121.7" font-family="-apple-system, BlinkMacSystemFont, 'Segoe UI', Roboto, Oxygen, Ubuntu, Cantarell, 'Fira Sans', 'Droid Sans', 'Helvetica Neue', sans-serif" font-size="11.00">AtMessage.hpp</text>
</a>
</g>
</g>
<!-- Node4&#45;&gt;Node18 -->
<g id="edge27" class="edge">
<title>Node4&#45;&gt;Node18</title>
<path fill="none" stroke="midnightblue" d="M1190.23,-251.49C1284.66,-245.37 1441,-231.39 1491.54,-204 1517.46,-189.96 1538.01,-161.83 1549.48,-143.34"/>
<polygon fill="midnightblue" stroke="midnightblue" points="1552.53,-145.06 1554.62,-134.67 1546.51,-141.48 1552.53,-145.06"/>
</g>
<!-- Node21 -->
<g id="node19" class="node">
<title>Node21</title>
<g id="a_node19"><a xlink:href="AudioMessage_8hpp.html" target="_top" xlink:title=" ">
<polygon fill="none" stroke="red" points="108.04,-114.5 108.04,-134.5 217.04,-134.5 217.04,-114.5 108.04,-114.5"/>
<text text-anchor="middle" x="162.54" y="-121.7" font-family="-apple-system, BlinkMacSystemFont, 'Segoe UI', Roboto, Oxygen, Ubuntu, Cantarell, 'Fira Sans', 'Droid Sans', 'Helvetica Neue', sans-serif" font-size="11.00">AudioMessage.hpp</text>
</a>
</g>
</g>
<!-- Node4&#45;&gt;Node21 -->
<g id="edge35" class="edge">
<title>Node4&#45;&gt;Node21</title>
<path fill="none" stroke="midnightblue" d="M1041.03,-255.9C911.01,-255.31 634.76,-248.34 406.54,-204 328.2,-188.78 239.87,-156.36 194,-138.31"/>
<polygon fill="midnightblue" stroke="midnightblue" points="195.2,-135.02 184.61,-134.58 192.61,-141.52 195.2,-135.02"/>
</g>
<!-- Node23 -->
<g id="node20" class="node">
<title>Node23</title>
<g id="a_node20"><a xlink:href="DiceMessage_8hpp.html" target="_top" xlink:title=" ">
<polygon fill="none" stroke="black" points="909.54,-114.5 909.54,-134.5 1011.54,-134.5 1011.54,-114.5 909.54,-114.5"/>
<text text-anchor="middle" x="960.54" y="-121.7" font-family="-apple-system, BlinkMacSystemFont, 'Segoe UI', Roboto, Oxygen, Ubuntu, Cantarell, 'Fira Sans', 'Droid Sans', 'Helvetica Neue', sans-serif" font-size="11.00">DiceMessage.hpp</text>
</a>
</g>
</g>
<!-- Node4&#45;&gt;Node23 -->
<g id="edge39" class="edge">
<title>Node4&#45;&gt;Node23</title>
<path fill="none" stroke="midnightblue" d="M1040.8,-243.41C997.36,-234.68 948.65,-221.39 935.54,-204 921.88,-185.88 934.75,-160.08 946.51,-143.07"/>
<polygon fill="midnightblue" stroke="midnightblue" points="949.62,-144.75 952.76,-134.63 944,-140.58 949.62,-144.75"/>
</g>
<!-- Node24 -->
<g id="node21" class="node">
<title>Node24</title>
<g id="a_node21"><a xlink:href="FaceMessage_8hpp.html" target="_top" xlink:title=" ">
<polygon fill="none" stroke="black" points="1148.04,-114.5 1148.04,-134.5 1253.04,-134.5 1253.04,-114.5 1148.04,-114.5"/>
<text text-anchor="middle" x="1200.54" y="-121.7" font-family="-apple-system, BlinkMacSystemFont, 'Segoe UI', Roboto, Oxygen, Ubuntu, Cantarell, 'Fira Sans', 'Droid Sans', 'Helvetica Neue', sans-serif" font-size="11.00">FaceMessage.hpp</text>
</a>
</g>
</g>
<!-- Node4&#45;&gt;Node24 -->
<g id="edge43" class="edge">
<title>Node4&#45;&gt;Node24</title>
<path fill="none" stroke="midnightblue" d="M1108.95,-240.49C1102.16,-222.54 1094.28,-192.25 1107.54,-171 1117.25,-155.45 1133.98,-145.07 1150.6,-138.2"/>
<polygon fill="midnightblue" stroke="midnightblue" points="1152.18,-141.35 1160.32,-134.56 1149.72,-134.79 1152.18,-141.35"/>
</g>
<!-- Node25 -->
<g id="node22" class="node">
<title>Node25</title>
<g id="a_node22"><a xlink:href="FlashImageMessage_8hpp.html" target="_top" xlink:title=" ">
<polygon fill="none" stroke="black" points="1674.04,-177.5 1674.04,-197.5 1811.04,-197.5 1811.04,-177.5 1674.04,-177.5"/>
<text text-anchor="middle" x="1742.54" y="-184.7" font-family="-apple-system, BlinkMacSystemFont, 'Segoe UI', Roboto, Oxygen, Ubuntu, Cantarell, 'Fira Sans', 'Droid Sans', 'Helvetica Neue', sans-serif" font-size="11.00">FlashImageMessage.hpp</text>
</a>
</g>
</g>
<!-- Node4&#45;&gt;Node25 -->
<g id="edge47" class="edge">
<title>Node4&#45;&gt;Node25</title>
<path fill="none" stroke="midnightblue" d="M1190.28,-249.07C1291.07,-240.16 1476.08,-223.01 1633.54,-204 1646.04,-202.49 1659.33,-200.73 1672.17,-198.95"/>
<polygon fill="midnightblue" stroke="midnightblue" points="1672.93,-202.38 1682.35,-197.52 1671.96,-195.45 1672.93,-202.38"/>
</g>
<!-- Node26 -->
<g id="node23" class="node">
<title>Node26</title>
<g id="a_node23"><a xlink:href="ImageMessage_8hpp.html" target="_top" xlink:title=" ">
<polygon fill="none" stroke="red" points="1624.04,-114.5 1624.04,-134.5 1735.04,-134.5 1735.04,-114.5 1624.04,-114.5"/>
<text text-anchor="middle" x="1679.54" y="-121.7" font-family="-apple-system, BlinkMacSystemFont, 'Segoe UI', Roboto, Oxygen, Ubuntu, Cantarell, 'Fira Sans', 'Droid Sans', 'Helvetica Neue', sans-serif" font-size="11.00">ImageMessage.hpp</text>
</a>
</g>
</g>
<!-- Node4&#45;&gt;Node26 -->
<g id="edge56" class="edge">
<title>Node4&#45;&gt;Node26</title>
<path fill="none" stroke="midnightblue" d="M1190.28,-253.74C1273.53,-250.03 1411.28,-238.67 1524.54,-204 1574.51,-188.7 1627.84,-158.16 1657.09,-140.01"/>
<polygon fill="midnightblue" stroke="midnightblue" points="1659.11,-142.88 1665.71,-134.59 1655.38,-136.95 1659.11,-142.88"/>
</g>
<!-- Node27 -->
<g id="node24" class="node">
<title>Node27</title>
<g id="a_node24"><a xlink:href="JsonMessage_8hpp.html" target="_top" xlink:title=" ">
<polygon fill="none" stroke="black" points="787.54,-114.5 787.54,-134.5 891.54,-134.5 891.54,-114.5 787.54,-114.5"/>
<text text-anchor="middle" x="839.54" y="-121.7" font-family="-apple-system, BlinkMacSystemFont, 'Segoe UI', Roboto, Oxygen, Ubuntu, Cantarell, 'Fira Sans', 'Droid Sans', 'Helvetica Neue', sans-serif" font-size="11.00">JsonMessage.hpp</text>
</a>
</g>
</g>
<!-- Node4&#45;&gt;Node27 -->
<g id="edge57" class="edge">
<title>Node4&#45;&gt;Node27</title>
<path fill="none" stroke="midnightblue" d="M1040.69,-243.51C1004.66,-235.69 961.76,-223.24 926.54,-204 897.24,-187.99 869.75,-160.24 853.79,-142.38"/>
<polygon fill="midnightblue" stroke="midnightblue" points="856.13,-139.75 846.92,-134.51 850.86,-144.35 856.13,-139.75"/>
</g>
<!-- Node28 -->
<g id="node25" class="node">
<title>Node28</title>
<g id="a_node25"><a xlink:href="MiraiCodeMessage_8hpp.html" target="_top" xlink:title=" ">
<polygon fill="none" stroke="black" points="479.54,-114.5 479.54,-134.5 609.54,-134.5 609.54,-114.5 479.54,-114.5"/>
<text text-anchor="middle" x="544.54" y="-121.7" font-family="-apple-system, BlinkMacSystemFont, 'Segoe UI', Roboto, Oxygen, Ubuntu, Cantarell, 'Fira Sans', 'Droid Sans', 'Helvetica Neue', sans-serif" font-size="11.00">MiraiCodeMessage.hpp</text>
</a>
</g>
</g>
<!-- Node4&#45;&gt;Node28 -->
<g id="edge62" class="edge">
<title>Node4&#45;&gt;Node28</title>
<path fill="none" stroke="midnightblue" d="M1040.9,-253.54C957.36,-249.65 818.75,-238.13 704.54,-204 653.18,-188.65 598.06,-158.12 567.79,-139.99"/>
<polygon fill="midnightblue" stroke="midnightblue" points="569.23,-136.78 558.87,-134.58 565.6,-142.76 569.23,-136.78"/>
</g>
<!-- Node29 -->
<g id="node26" class="node">
<title>Node29</title>
<g id="a_node26"><a xlink:href="PlainMessage_8hpp.html" target="_top" xlink:title=" ">
<polygon fill="none" stroke="black" points="1390.04,-114.5 1390.04,-134.5 1495.04,-134.5 1495.04,-114.5 1390.04,-114.5"/>
<text text-anchor="middle" x="1442.54" y="-121.7" font-family="-apple-system, BlinkMacSystemFont, 'Segoe UI', Roboto, Oxygen, Ubuntu, Cantarell, 'Fira Sans', 'Droid Sans', 'Helvetica Neue', sans-serif" font-size="11.00">PlainMessage.hpp</text>
</a>
</g>
</g>
<!-- Node4&#45;&gt;Node29 -->
<g id="edge66" class="edge">
<title>Node4&#45;&gt;Node29</title>
<path fill="none" stroke="midnightblue" d="M1190.19,-255.79C1284.39,-254.39 1438.51,-245.57 1474.54,-204 1490.12,-186.03 1473.29,-159.48 1458.75,-142.33"/>
<polygon fill="midnightblue" stroke="midnightblue" points="1461.23,-139.86 1451.95,-134.75 1456.02,-144.53 1461.23,-139.86"/>
</g>
<!-- Node30 -->
<g id="node27" class="node">
<title>Node30</title>
<g id="a_node27"><a xlink:href="PokeMessage_8hpp.html" target="_top" xlink:title=" ">
<polygon fill="none" stroke="red" points="235.04,-114.5 235.04,-134.5 342.04,-134.5 342.04,-114.5 235.04,-114.5"/>
<text text-anchor="middle" x="288.54" y="-121.7" font-family="-apple-system, BlinkMacSystemFont, 'Segoe UI', Roboto, Oxygen, Ubuntu, Cantarell, 'Fira Sans', 'Droid Sans', 'Helvetica Neue', sans-serif" font-size="11.00">PokeMessage.hpp</text>
</a>
</g>
</g>
<!-- Node4&#45;&gt;Node30 -->
<g id="edge70" class="edge">
<title>Node4&#45;&gt;Node30</title>
<path fill="none" stroke="midnightblue" d="M1040.83,-254.8C927.11,-252.45 704.28,-242.77 519.54,-204 445.51,-188.46 362.35,-156.4 318.83,-138.43"/>
<polygon fill="midnightblue" stroke="midnightblue" points="319.98,-135.12 309.4,-134.5 317.28,-141.58 319.98,-135.12"/>
</g>
<!-- Node32 -->
<g id="node28" class="node">
<title>Node32</title>
<g id="a_node28"><a xlink:href="XmlMessage_8hpp.html" target="_top" xlink:title=" ">
<polygon fill="none" stroke="black" points="1271.54,-114.5 1271.54,-134.5 1371.54,-134.5 1371.54,-114.5 1271.54,-114.5"/>
<text text-anchor="middle" x="1321.54" y="-121.7" font-family="-apple-system, BlinkMacSystemFont, 'Segoe UI', Roboto, Oxygen, Ubuntu, Cantarell, 'Fira Sans', 'Droid Sans', 'Helvetica Neue', sans-serif" font-size="11.00">XmlMessage.hpp</text>
</a>
</g>
</g>
<!-- Node4&#45;&gt;Node32 -->
<g id="edge74" class="edge">
<title>Node4&#45;&gt;Node32</title>
<path fill="none" stroke="midnightblue" d="M1190.18,-255.16C1280.22,-252.99 1423.76,-243.25 1457.54,-204 1467.11,-192.88 1466.11,-182.9 1457.54,-171 1447.62,-157.22 1409.67,-145.21 1376.37,-136.99"/>
<polygon fill="midnightblue" stroke="midnightblue" points="1376.76,-133.49 1366.22,-134.57 1375.13,-140.3 1376.76,-133.49"/>
</g>
<!-- Node13&#45;&gt;Node2 -->
<g id="edge15" class="edge">
<title>Node13&#45;&gt;Node2</title>
<path fill="none" stroke="midnightblue" d="M1054.45,-171.46C1084.17,-159.14 1114.58,-139.57 1100.54,-114 1085.94,-87.39 1009.76,-46.36 967.63,-25.19"/>
<polygon fill="midnightblue" stroke="midnightblue" points="968.97,-21.94 958.45,-20.62 965.85,-28.21 968.97,-21.94"/>
</g>
<!-- Node13&#45;&gt;Node9 -->
<g id="edge14" class="edge">
<title>Node13&#45;&gt;Node9</title>
<path fill="none" stroke="midnightblue" d="M1020.64,-171.42C1028.34,-162.56 1038.09,-151.35 1046.02,-142.22"/>
<polygon fill="midnightblue" stroke="midnightblue" points="1048.76,-144.39 1052.68,-134.55 1043.48,-139.8 1048.76,-144.39"/>
</g>
<!-- Node14&#45;&gt;Node2 -->
<g id="edge17" class="edge">
<title>Node14&#45;&gt;Node2</title>
<path fill="none" stroke="midnightblue" d="M441.21,-114.49C488.74,-100.75 583.18,-74.34 664.54,-57 752.03,-38.35 856.55,-22.91 907.9,-15.77"/>
<polygon fill="midnightblue" stroke="midnightblue" points="908.59,-19.21 918.02,-14.37 907.64,-12.27 908.59,-19.21"/>
</g>
<!-- Node14&#45;&gt;Node3 -->
<g id="edge18" class="edge">
<title>Node14&#45;&gt;Node3</title>
<path fill="none" stroke="midnightblue" d="M442.04,-114.4C493.4,-99.91 598.61,-71.75 689.54,-57 845.48,-31.71 1030.27,-19.73 1131.6,-14.69"/>
<polygon fill="midnightblue" stroke="midnightblue" points="1131.93,-18.18 1141.74,-14.19 1131.58,-11.18 1131.93,-18.18"/>
</g>
<!-- Node14&#45;&gt;Node15 -->
<g id="edge19" class="edge">
<title>Node14&#45;&gt;Node15</title>
<path fill="none" stroke="midnightblue" d="M461.25,-115.28C464.39,-114.83 467.51,-114.4 470.54,-114 600.09,-96.89 752.32,-81.96 836.14,-74.2"/>
<polygon fill="midnightblue" stroke="midnightblue" points="836.63,-77.67 846.27,-73.26 835.99,-70.7 836.63,-77.67"/>
</g>
<!-- Node15&#45;&gt;Node2 -->
<g id="edge21" class="edge">
<title>Node15&#45;&gt;Node2</title>
<path fill="none" stroke="midnightblue" d="M906.15,-57.42C911.73,-49.74 919.89,-38.52 926.75,-29.09"/>
<polygon fill="midnightblue" stroke="midnightblue" points="929.74,-30.93 932.79,-20.78 924.08,-26.81 929.74,-30.93"/>
</g>
<!-- Node15&#45;&gt;Node3 -->
<g id="edge22" class="edge">
<title>Node15&#45;&gt;Node3</title>
<path fill="none" stroke="midnightblue" d="M950.06,-57.48C1003.99,-47.85 1089.44,-32.59 1146.95,-22.32"/>
<polygon fill="midnightblue" stroke="midnightblue" points="1147.77,-25.73 1157,-20.53 1146.54,-18.84 1147.77,-25.73"/>
</g>
<!-- Node15&#45;&gt;Node7 -->
<g id="edge20" class="edge">
<title>Node15&#45;&gt;Node7</title>
<path fill="none" stroke="midnightblue" d="M846.23,-63.02C689.43,-52.78 232.26,-22.91 96.19,-14.02"/>
<polygon fill="midnightblue" stroke="midnightblue" points="96.06,-10.51 85.85,-13.35 95.6,-17.49 96.06,-10.51"/>
</g>
<!-- Node17&#45;&gt;Node2 -->
<g id="edge24" class="edge">
<title>Node17&#45;&gt;Node2</title>
<path fill="none" stroke="midnightblue" d="M688.73,-114.31C703.58,-99.97 734.38,-72.32 765.54,-57 812.34,-33.99 872.13,-21.64 908.05,-15.83"/>
<polygon fill="midnightblue" stroke="midnightblue" points="908.6,-19.29 917.95,-14.3 907.53,-12.37 908.6,-19.29"/>
</g>
<!-- Node17&#45;&gt;Node3 -->
<g id="edge25" class="edge">
<title>Node17&#45;&gt;Node3</title>
<path fill="none" stroke="midnightblue" d="M696.52,-114.5C724.88,-99.9 784.05,-71.25 837.54,-57 937.14,-30.47 1056.01,-19.34 1131.63,-14.71"/>
<polygon fill="midnightblue" stroke="midnightblue" points="1132.23,-18.19 1142.01,-14.1 1131.82,-11.2 1132.23,-18.19"/>
</g>
<!-- Node17&#45;&gt;Node15 -->
<g id="edge26" class="edge">
<title>Node17&#45;&gt;Node15</title>
<path fill="none" stroke="midnightblue" d="M715.87,-114.42C753.64,-104.98 812.86,-90.17 853.79,-79.94"/>
<polygon fill="midnightblue" stroke="midnightblue" points="854.67,-83.33 863.52,-77.5 852.97,-76.53 854.67,-83.33"/>
</g>
<!-- Node18&#45;&gt;Node2 -->
<g id="edge28" class="edge">
<title>Node18&#45;&gt;Node2</title>
<path fill="none" stroke="midnightblue" d="M1513.73,-114.48C1446.93,-101.4 1318.82,-76.59 1209.54,-57 1123.49,-41.58 1021.72,-24.83 971.24,-16.62"/>
<polygon fill="midnightblue" stroke="midnightblue" points="971.7,-13.15 961.27,-15 970.58,-20.06 971.7,-13.15"/>
</g>
<!-- Node18&#45;&gt;Node3 -->
<g id="edge29" class="edge">
<title>Node18&#45;&gt;Node3</title>
<path fill="none" stroke="midnightblue" d="M1531.03,-114.43C1468.17,-94.43 1317.56,-46.51 1246.24,-23.81"/>
<polygon fill="midnightblue" stroke="midnightblue" points="1246.91,-20.35 1236.31,-20.66 1244.78,-27.02 1246.91,-20.35"/>
</g>
<!-- Node18&#45;&gt;Node15 -->
<g id="edge34" class="edge">
<title>Node18&#45;&gt;Node15</title>
<path fill="none" stroke="midnightblue" d="M1513.38,-115.2C1510.39,-114.76 1507.43,-114.36 1504.54,-114 1307.83,-89.67 1073.41,-76.52 963.01,-71.27"/>
<polygon fill="midnightblue" stroke="midnightblue" points="962.87,-67.76 952.72,-70.78 962.54,-74.75 962.87,-67.76"/>
</g>
<!-- Node18&#45;&gt;Node19 -->
<g id="edge30" class="edge">
<title>Node18&#45;&gt;Node19</title>
<path fill="none" stroke="midnightblue" d="M1588.93,-114.42C1618.91,-105.15 1665.59,-90.73 1698.62,-80.53"/>
<polygon fill="midnightblue" stroke="midnightblue" points="1699.88,-83.8 1708.4,-77.5 1697.81,-77.11 1699.88,-83.8"/>
</g>
<!-- Node19&#45;&gt;Node2 -->
<g id="edge32" class="edge">
<title>Node19&#45;&gt;Node2</title>
<path fill="none" stroke="midnightblue" d="M1656.26,-60.9C1483.69,-49 1087.06,-21.67 971.61,-13.71"/>
<polygon fill="midnightblue" stroke="midnightblue" points="971.55,-10.2 961.33,-13 971.07,-17.18 971.55,-10.2"/>
</g>
<!-- Node19&#45;&gt;Node3 -->
<g id="edge33" class="edge">
<title>Node19&#45;&gt;Node3</title>
<path fill="none" stroke="midnightblue" d="M1656.47,-58.09C1554.94,-47.55 1382.35,-29.64 1283.36,-19.37"/>
<polygon fill="midnightblue" stroke="midnightblue" points="1283.44,-15.86 1273.13,-18.31 1282.71,-22.82 1283.44,-15.86"/>
</g>
<!-- Node19&#45;&gt;Node6 -->
<g id="edge31" class="edge">
<title>Node19&#45;&gt;Node6</title>
<path fill="none" stroke="midnightblue" d="M1758.51,-57.42C1779.1,-48.5 1810.73,-34.8 1834.09,-24.69"/>
<polygon fill="midnightblue" stroke="midnightblue" points="1835.75,-27.78 1843.54,-20.6 1832.97,-21.36 1835.75,-27.78"/>
</g>
<!-- Node21&#45;&gt;Node2 -->
<g id="edge36" class="edge">
<title>Node21&#45;&gt;Node2</title>
<path fill="none" stroke="midnightblue" d="M197.74,-114.47C254.55,-100.21 370.13,-72.52 469.54,-57 633.21,-31.44 831.32,-17.88 907.54,-13.3"/>
<polygon fill="midnightblue" stroke="midnightblue" points="908.1,-16.78 917.88,-12.69 907.69,-9.79 908.1,-16.78"/>
</g>
<!-- Node21&#45;&gt;Node3 -->
<g id="edge37" class="edge">
<title>Node21&#45;&gt;Node3</title>
<path fill="none" stroke="midnightblue" d="M196.99,-114.44C254.32,-99.75 373.16,-70.98 475.54,-57 600.61,-39.92 971.04,-22 1131.74,-14.79"/>
<polygon fill="midnightblue" stroke="midnightblue" points="1132.18,-18.28 1142.02,-14.33 1131.87,-11.28 1132.18,-18.28"/>
</g>
<!-- Node21&#45;&gt;Node15 -->
<g id="edge38" class="edge">
<title>Node21&#45;&gt;Node15</title>
<path fill="none" stroke="midnightblue" d="M217.14,-114.99C219.98,-114.63 222.79,-114.3 225.54,-114 449.29,-89.62 716.33,-76.22 836.03,-71.04"/>
<polygon fill="midnightblue" stroke="midnightblue" points="836.27,-74.54 846.11,-70.61 835.97,-67.54 836.27,-74.54"/>
</g>
<!-- Node23&#45;&gt;Node2 -->
<g id="edge40" class="edge">
<title>Node23&#45;&gt;Node2</title>
<path fill="none" stroke="midnightblue" d="M962.04,-114.32C963.85,-101.36 966.13,-77.03 961.54,-57 959.37,-47.51 954.95,-37.71 950.64,-29.64"/>
<polygon fill="midnightblue" stroke="midnightblue" points="953.59,-27.75 945.59,-20.8 947.51,-31.22 953.59,-27.75"/>
</g>
<!-- Node23&#45;&gt;Node3 -->
<g id="edge41" class="edge">
<title>Node23&#45;&gt;Node3</title>
<path fill="none" stroke="midnightblue" d="M1000.38,-114.47C1030.62,-106.84 1072.79,-94.51 1107.54,-78 1137.43,-63.8 1168.69,-41.65 1188.14,-26.87"/>
<polygon fill="midnightblue" stroke="midnightblue" points="1190.42,-29.53 1196.19,-20.64 1186.14,-23.99 1190.42,-29.53"/>
</g>
<!-- Node23&#45;&gt;Node15 -->
<g id="edge42" class="edge">
<title>Node23&#45;&gt;Node15</title>
<path fill="none" stroke="midnightblue" d="M950.47,-114.42C941.52,-106.35 928.22,-94.36 917.45,-84.65"/>
<polygon fill="midnightblue" stroke="midnightblue" points="919.6,-81.88 909.83,-77.78 914.92,-87.08 919.6,-81.88"/>
</g>
<!-- Node24&#45;&gt;Node2 -->
<g id="edge44" class="edge">
<title>Node24&#45;&gt;Node2</title>
<path fill="none" stroke="midnightblue" d="M1184.33,-114.39C1159.91,-100.86 1112,-75.11 1069.54,-57 1036.58,-42.94 997.66,-29.75 971.06,-21.23"/>
<polygon fill="midnightblue" stroke="midnightblue" points="972.09,-17.88 961.5,-18.2 969.97,-24.56 972.09,-17.88"/>
</g>
<!-- Node24&#45;&gt;Node3 -->
<g id="edge45" class="edge">
<title>Node24&#45;&gt;Node3</title>
<path fill="none" stroke="midnightblue" d="M1201.11,-114.33C1202.25,-96.2 1204.8,-55.41 1206.32,-31"/>
<polygon fill="midnightblue" stroke="midnightblue" points="1209.83,-30.99 1206.96,-20.79 1202.84,-30.55 1209.83,-30.99"/>
</g>
<!-- Node24&#45;&gt;Node15 -->
<g id="edge46" class="edge">
<title>Node24&#45;&gt;Node15</title>
<path fill="none" stroke="midnightblue" d="M1151.17,-114.48C1098.58,-104.87 1015.3,-89.65 959.1,-79.38"/>
<polygon fill="midnightblue" stroke="midnightblue" points="959.4,-75.88 948.94,-77.53 958.14,-82.77 959.4,-75.88"/>
</g>
<!-- Node25&#45;&gt;Node2 -->
<g id="edge48" class="edge">
<title>Node25&#45;&gt;Node2</title>
<path fill="none" stroke="midnightblue" d="M1746.34,-177.18C1751.86,-161.96 1759.85,-131.72 1744.54,-114 1692.92,-54.26 1114.49,-20.55 971.41,-13.09"/>
<polygon fill="midnightblue" stroke="midnightblue" points="971.29,-9.58 961.13,-12.56 970.93,-16.57 971.29,-9.58"/>
</g>
<!-- Node25&#45;&gt;Node3 -->
<g id="edge49" class="edge">
<title>Node25&#45;&gt;Node3</title>
<path fill="none" stroke="midnightblue" d="M1756.74,-177.29C1789.48,-154.99 1864.7,-96.99 1827.54,-57 1791.19,-17.88 1440.51,-12.05 1283.22,-11.42"/>
<polygon fill="midnightblue" stroke="midnightblue" points="1283.16,-7.92 1273.15,-11.39 1283.13,-14.92 1283.16,-7.92"/>
</g>
<!-- Node25&#45;&gt;Node19 -->
<g id="edge50" class="edge">
<title>Node25&#45;&gt;Node19</title>
<path fill="none" stroke="midnightblue" d="M1752.31,-177.35C1765.51,-163.82 1786.42,-137.54 1777.54,-114 1773.31,-102.78 1764.92,-92.53 1756.9,-84.61"/>
<polygon fill="midnightblue" stroke="midnightblue" points="1758.92,-81.71 1749.19,-77.52 1754.18,-86.86 1758.92,-81.71"/>
</g>
<!-- Node25&#45;&gt;Node26 -->
<g id="edge51" class="edge">
<title>Node25&#45;&gt;Node26</title>
<path fill="none" stroke="midnightblue" d="M1733.25,-177.5C1723.57,-168.13 1708.2,-153.25 1696.38,-141.8"/>
<polygon fill="midnightblue" stroke="midnightblue" points="1698.49,-138.98 1688.88,-134.54 1693.62,-144.01 1698.49,-138.98"/>
</g>
<!-- Node26&#45;&gt;Node2 -->
<g id="edge52" class="edge">
<title>Node26&#45;&gt;Node2</title>
<path fill="none" stroke="midnightblue" d="M1627.64,-114.47C1550.81,-101.21 1402.25,-76 1275.54,-57 1164.02,-40.27 1031.24,-23.1 971.48,-15.52"/>
<polygon fill="midnightblue" stroke="midnightblue" points="971.55,-12 961.19,-14.21 970.67,-18.94 971.55,-12"/>
</g>
<!-- Node26&#45;&gt;Node3 -->
<g id="edge53" class="edge">
<title>Node26&#45;&gt;Node3</title>
<path fill="none" stroke="midnightblue" d="M1641.32,-114.43C1555.87,-94.16 1349.57,-45.2 1255.61,-22.91"/>
<polygon fill="midnightblue" stroke="midnightblue" points="1256.33,-19.48 1245.79,-20.58 1254.72,-26.29 1256.33,-19.48"/>
</g>
<!-- Node26&#45;&gt;Node15 -->
<g id="edge55" class="edge">
<title>Node26&#45;&gt;Node15</title>
<path fill="none" stroke="midnightblue" d="M1623.91,-115.06C1620.74,-114.68 1617.6,-114.32 1614.54,-114 1374.49,-88.86 1087.55,-75.69 962.73,-70.79"/>
<polygon fill="midnightblue" stroke="midnightblue" points="962.72,-67.29 952.59,-70.39 962.44,-74.28 962.72,-67.29"/>
</g>
<!-- Node26&#45;&gt;Node19 -->
<g id="edge54" class="edge">
<title>Node26&#45;&gt;Node19</title>
<path fill="none" stroke="midnightblue" d="M1689.12,-114.42C1697.55,-106.42 1710.03,-94.59 1720.21,-84.94"/>
<polygon fill="midnightblue" stroke="midnightblue" points="1722.91,-87.2 1727.76,-77.78 1718.09,-82.12 1722.91,-87.2"/>
</g>
<!-- Node27&#45;&gt;Node2 -->
<g id="edge58" class="edge">
<title>Node27&#45;&gt;Node2</title>
<path fill="none" stroke="midnightblue" d="M836.27,-114.46C831.94,-100.81 826.1,-74.63 837.54,-57 852.99,-33.2 884.11,-21.74 907.93,-16.29"/>
<polygon fill="midnightblue" stroke="midnightblue" points="908.86,-19.67 917.96,-14.25 907.46,-12.82 908.86,-19.67"/>
</g>
<!-- Node27&#45;&gt;Node3 -->
<g id="edge59" class="edge">
<title>Node27&#45;&gt;Node3</title>
<path fill="none" stroke="midnightblue" d="M869.34,-114.43C935.29,-94.36 1093.56,-46.19 1167.82,-23.59"/>
<polygon fill="midnightblue" stroke="midnightblue" points="1169.17,-26.84 1177.72,-20.58 1167.13,-20.14 1169.17,-26.84"/>
</g>
<!-- Node27&#45;&gt;Node15 -->
<g id="edge60" class="edge">
<title>Node27&#45;&gt;Node15</title>
<path fill="none" stroke="midnightblue" d="M849.45,-114.42C858.25,-106.35 871.34,-94.36 881.92,-84.65"/>
<polygon fill="midnightblue" stroke="midnightblue" points="884.41,-87.12 889.42,-77.78 879.68,-81.96 884.41,-87.12"/>
</g>
<!-- Node28&#45;&gt;Node2 -->
<g id="edge63" class="edge">
<title>Node28&#45;&gt;Node2</title>
<path fill="none" stroke="midnightblue" d="M566.73,-114.45C601.14,-100.65 669.67,-74.17 729.54,-57 791.89,-39.12 866.41,-24.54 907.82,-17.03"/>
<polygon fill="midnightblue" stroke="midnightblue" points="908.62,-20.44 917.84,-15.23 907.38,-13.55 908.62,-20.44"/>
</g>
<!-- Node28&#45;&gt;Node3 -->
<g id="edge64" class="edge">
<title>Node28&#45;&gt;Node3</title>
<path fill="none" stroke="midnightblue" d="M570.62,-114.41C613.18,-99.94 700.45,-71.8 776.54,-57 899.8,-33.02 1045.53,-20.97 1132.04,-15.48"/>
<polygon fill="midnightblue" stroke="midnightblue" points="1132.27,-18.98 1142.03,-14.86 1131.83,-11.99 1132.27,-18.98"/>
</g>
<!-- Node28&#45;&gt;Node15 -->
<g id="edge65" class="edge">
<title>Node28&#45;&gt;Node15</title>
<path fill="none" stroke="midnightblue" d="M602.76,-114.48C667.13,-104.51 770.43,-88.5 836.62,-78.25"/>
<polygon fill="midnightblue" stroke="midnightblue" points="837.16,-81.71 846.51,-76.72 836.09,-74.79 837.16,-81.71"/>
</g>
<!-- Node29&#45;&gt;Node2 -->
<g id="edge67" class="edge">
<title>Node29&#45;&gt;Node2</title>
<path fill="none" stroke="midnightblue" d="M1404.12,-114.5C1348.63,-101.54 1242.81,-76.99 1152.54,-57 1088.22,-42.76 1012.78,-26.82 971.16,-18.1"/>
<polygon fill="midnightblue" stroke="midnightblue" points="971.84,-14.67 961.34,-16.04 970.41,-21.52 971.84,-14.67"/>
</g>
<!-- Node29&#45;&gt;Node3 -->
<g id="edge68" class="edge">
<title>Node29&#45;&gt;Node3</title>
<path fill="none" stroke="midnightblue" d="M1423.31,-114.33C1381.98,-94.64 1284.52,-48.19 1236,-25.07"/>
<polygon fill="midnightblue" stroke="midnightblue" points="1237.24,-21.78 1226.71,-20.63 1234.23,-28.1 1237.24,-21.78"/>
</g>
<!-- Node29&#45;&gt;Node15 -->
<g id="edge69" class="edge">
<title>Node29&#45;&gt;Node15</title>
<path fill="none" stroke="midnightblue" d="M1389.8,-115.21C1386.67,-114.78 1383.57,-114.37 1380.54,-114 1231.1,-95.5 1054.72,-80.57 962.67,-73.3"/>
<polygon fill="midnightblue" stroke="midnightblue" points="962.92,-69.81 952.68,-72.52 962.37,-76.79 962.92,-69.81"/>
</g>
<!-- Node30&#45;&gt;Node2 -->
<g id="edge71" class="edge">
<title>Node30&#45;&gt;Node2</title>
<path fill="none" stroke="midnightblue" d="M322.45,-114.48C376.05,-100.5 483.83,-73.47 576.54,-57 698.02,-35.42 844.16,-20.39 907.58,-14.4"/>
<polygon fill="midnightblue" stroke="midnightblue" points="908.11,-17.86 917.74,-13.45 907.46,-10.89 908.11,-17.86"/>
</g>
<!-- Node30&#45;&gt;Node3 -->
<g id="edge72" class="edge">
<title>Node30&#45;&gt;Node3</title>
<path fill="none" stroke="midnightblue" d="M321.65,-114.41C376.19,-99.8 488.58,-71.32 585.54,-57 688.86,-41.74 989.7,-23.64 1131.68,-15.65"/>
<polygon fill="midnightblue" stroke="midnightblue" points="1132.25,-19.12 1142.04,-15.07 1131.86,-12.13 1132.25,-19.12"/>
</g>
<!-- Node30&#45;&gt;Node15 -->
<g id="edge73" class="edge">
<title>Node30&#45;&gt;Node15</title>
<path fill="none" stroke="midnightblue" d="M342.28,-115.03C345.07,-114.67 347.84,-114.32 350.54,-114 525.93,-93.32 733.94,-78.8 836.26,-72.31"/>
<polygon fill="midnightblue" stroke="midnightblue" points="836.66,-75.79 846.42,-71.67 836.22,-68.81 836.66,-75.79"/>
</g>
<!-- Node32&#45;&gt;Node2 -->
<g id="edge75" class="edge">
<title>Node32&#45;&gt;Node2</title>
<path fill="none" stroke="midnightblue" d="M1292.98,-114.4C1251.71,-101.31 1172.98,-76.62 1105.54,-57 1058.94,-43.44 1004.65,-28.77 971.19,-19.86"/>
<polygon fill="midnightblue" stroke="midnightblue" points="971.65,-16.36 961.09,-17.18 969.86,-23.13 971.65,-16.36"/>
</g>
<!-- Node32&#45;&gt;Node3 -->
<g id="edge76" class="edge">
<title>Node32&#45;&gt;Node3</title>
<path fill="none" stroke="midnightblue" d="M1312.21,-114.33C1293.01,-95.47 1248.81,-52.05 1224.44,-28.1"/>
<polygon fill="midnightblue" stroke="midnightblue" points="1226.59,-25.3 1217,-20.79 1221.68,-30.3 1226.59,-25.3"/>
</g>
<!-- Node32&#45;&gt;Node15 -->
<g id="edge77" class="edge">
<title>Node32&#45;&gt;Node15</title>
<path fill="none" stroke="midnightblue" d="M1271.35,-115.3C1268.37,-114.85 1265.42,-114.41 1262.54,-114 1157.82,-99.01 1035.71,-84.27 963.16,-75.79"/>
<polygon fill="midnightblue" stroke="midnightblue" points="963.16,-72.27 952.82,-74.59 962.35,-79.22 963.16,-72.27"/>
</g>
<!-- Node33&#45;&gt;Node2 -->
<g id="edge81" class="edge">
<title>Node33&#45;&gt;Node2</title>
<path fill="none" stroke="midnightblue" d="M102.25,-58.8C107.07,-58.12 111.9,-57.5 116.54,-57 423.59,-23.88 797.84,-14.27 907.77,-12.06"/>
<polygon fill="midnightblue" stroke="midnightblue" points="907.93,-15.56 917.86,-11.87 907.79,-8.56 907.93,-15.56"/>
</g>
<!-- Node33&#45;&gt;Node3 -->
<g id="edge82" class="edge">
<title>Node33&#45;&gt;Node3</title>
<path fill="none" stroke="midnightblue" d="M102.27,-64.36C276.6,-56.02 911.73,-25.65 1131.83,-15.12"/>
<polygon fill="midnightblue" stroke="midnightblue" points="1132.17,-18.61 1141.99,-14.63 1131.84,-11.62 1132.17,-18.61"/>
</g>
<!-- Node33&#45;&gt;Node7 -->
<g id="edge80" class="edge">
<title>Node33&#45;&gt;Node7</title>
<path fill="none" stroke="midnightblue" d="M57.54,-57.42C57.54,-50.22 57.54,-39.9 57.54,-30.86"/>
<polygon fill="midnightblue" stroke="midnightblue" points="61.04,-30.78 57.54,-20.78 54.04,-30.78 61.04,-30.78"/>
</g>
</g>
</svg>
