<?xml version="1.0" encoding="UTF-8" standalone="no"?>
<!DOCTYPE svg PUBLIC "-//W3C//DTD SVG 1.1//EN"
 "http://www.w3.org/Graphics/SVG/1.1/DTD/svg11.dtd">
<!-- Generated by graphviz version 2.43.0 (0)
 -->
<!-- Title: libmirai/public/libmirai/Events/GroupNameChangeEvent.cpp Pages: 1 -->
<svg width="585pt" height="212pt"
 viewBox="0.00 0.00 584.50 212.00" xmlns="http://www.w3.org/2000/svg" xmlns:xlink="http://www.w3.org/1999/xlink">
<g id="graph0" class="graph" transform="scale(1 1) rotate(0) translate(4 208)">
<title>libmirai/public/libmirai/Events/GroupNameChangeEvent.cpp</title>
<!-- Node1 -->
<g id="node1" class="node">
<title>Node1</title>
<g id="a_node1"><a xlink:title=" ">
<polygon fill="#bfbfbf" stroke="black" points="224,-171.5 224,-203.5 447,-203.5 447,-171.5 224,-171.5"/>
<text text-anchor="start" x="232" y="-190.7" font-family="-apple-system,BlinkMacSystemFont,'SegoeUI',Roboto,Oxygen,Ubuntu,Cantarell,'FiraSans','DroidSans','HelveticaNeue',sans-serif" font-size="11.00">libmirai/public/libmirai</text>
<text text-anchor="middle" x="335.5" y="-178.7" font-family="-apple-system,BlinkMacSystemFont,'SegoeUI',Roboto,Oxygen,Ubuntu,Cantarell,'FiraSans','DroidSans','HelveticaNeue',sans-serif" font-size="11.00">/Events/GroupNameChangeEvent.cpp</text>
</a>
</g>
</g>
<!-- Node2 -->
<g id="node2" class="node">
<title>Node2</title>
<g id="a_node2"><a xlink:href="GroupNameChangeEvent_8hpp.html" target="_top" xlink:title=" ">
<polygon fill="none" stroke="black" points="78,-114.5 78,-134.5 257,-134.5 257,-114.5 78,-114.5"/>
<text text-anchor="middle" x="167.5" y="-121.7" font-family="-apple-system,BlinkMacSystemFont,'SegoeUI',Roboto,Oxygen,Ubuntu,Cantarell,'FiraSans','DroidSans','HelveticaNeue',sans-serif" font-size="11.00">GroupNameChangeEvent.hpp</text>
</a>
</g>
</g>
<!-- Node1&#45;&gt;Node2 -->
<g id="edge1" class="edge">
<title>Node1&#45;&gt;Node2</title>
<path fill="none" stroke="midnightblue" d="M293.97,-171.42C265.71,-161.16 228.75,-147.74 202.09,-138.06"/>
<polygon fill="midnightblue" stroke="midnightblue" points="203.01,-134.67 192.41,-134.55 200.62,-141.25 203.01,-134.67"/>
</g>
<!-- Node12 -->
<g id="node8" class="node">
<title>Node12</title>
<g id="a_node8"><a xlink:title=" ">
<polygon fill="none" stroke="#bfbfbf" points="275,-114.5 275,-134.5 396,-134.5 396,-114.5 275,-114.5"/>
<text text-anchor="middle" x="335.5" y="-121.7" font-family="-apple-system,BlinkMacSystemFont,'SegoeUI',Roboto,Oxygen,Ubuntu,Cantarell,'FiraSans','DroidSans','HelveticaNeue',sans-serif" font-size="11.00">nlohmann/json.hpp</text>
</a>
</g>
</g>
<!-- Node1&#45;&gt;Node12 -->
<g id="edge11" class="edge">
<title>Node1&#45;&gt;Node12</title>
<path fill="none" stroke="midnightblue" d="M335.5,-171.42C335.5,-163.38 335.5,-153.39 335.5,-144.78"/>
<polygon fill="midnightblue" stroke="midnightblue" points="339,-144.55 335.5,-134.55 332,-144.55 339,-144.55"/>
</g>
<!-- Node13 -->
<g id="node9" class="node">
<title>Node13</title>
<g id="a_node9"><a xlink:title=" ">
<polygon fill="none" stroke="#bfbfbf" points="414.5,-114.5 414.5,-134.5 576.5,-134.5 576.5,-114.5 414.5,-114.5"/>
<text text-anchor="middle" x="495.5" y="-121.7" font-family="-apple-system,BlinkMacSystemFont,'SegoeUI',Roboto,Oxygen,Ubuntu,Cantarell,'FiraSans','DroidSans','HelveticaNeue',sans-serif" font-size="11.00">libmirai/Utils/Common.hpp</text>
</a>
</g>
</g>
<!-- Node1&#45;&gt;Node13 -->
<g id="edge12" class="edge">
<title>Node1&#45;&gt;Node13</title>
<path fill="none" stroke="midnightblue" d="M375.05,-171.42C401.85,-161.21 436.86,-147.86 462.22,-138.19"/>
<polygon fill="midnightblue" stroke="midnightblue" points="463.68,-141.38 471.77,-134.55 461.18,-134.84 463.68,-141.38"/>
</g>
<!-- Node3 -->
<g id="node3" class="node">
<title>Node3</title>
<g id="a_node3"><a xlink:title=" ">
<polygon fill="none" stroke="#bfbfbf" points="0,-57.5 0,-77.5 61,-77.5 61,-57.5 0,-57.5"/>
<text text-anchor="middle" x="30.5" y="-64.7" font-family="-apple-system,BlinkMacSystemFont,'SegoeUI',Roboto,Oxygen,Ubuntu,Cantarell,'FiraSans','DroidSans','HelveticaNeue',sans-serif" font-size="11.00">optional</text>
</a>
</g>
</g>
<!-- Node2&#45;&gt;Node3 -->
<g id="edge2" class="edge">
<title>Node2&#45;&gt;Node3</title>
<path fill="none" stroke="midnightblue" d="M144.88,-114.42C122.47,-105.42 87.94,-91.56 62.68,-81.42"/>
<polygon fill="midnightblue" stroke="midnightblue" points="63.74,-78.07 53.16,-77.6 61.13,-84.57 63.74,-78.07"/>
</g>
<!-- Node4 -->
<g id="node4" class="node">
<title>Node4</title>
<g id="a_node4"><a xlink:title=" ">
<polygon fill="none" stroke="#bfbfbf" points="143.5,-0.5 143.5,-20.5 191.5,-20.5 191.5,-0.5 143.5,-0.5"/>
<text text-anchor="middle" x="167.5" y="-7.7" font-family="-apple-system,BlinkMacSystemFont,'SegoeUI',Roboto,Oxygen,Ubuntu,Cantarell,'FiraSans','DroidSans','HelveticaNeue',sans-serif" font-size="11.00">string</text>
</a>
</g>
</g>
<!-- Node2&#45;&gt;Node4 -->
<g id="edge3" class="edge">
<title>Node2&#45;&gt;Node4</title>
<path fill="none" stroke="midnightblue" d="M148.25,-114.35C134.67,-106.73 117.51,-94.46 109.5,-78 99.5,-57.45 120.85,-38.27 140.4,-25.84"/>
<polygon fill="midnightblue" stroke="midnightblue" points="142.35,-28.76 149.14,-20.63 138.76,-22.75 142.35,-28.76"/>
</g>
<!-- Node5 -->
<g id="node5" class="node">
<title>Node5</title>
<g id="a_node5"><a xlink:title=" ">
<polygon fill="none" stroke="#bfbfbf" points="252.5,-0.5 252.5,-20.5 398.5,-20.5 398.5,-0.5 252.5,-0.5"/>
<text text-anchor="middle" x="325.5" y="-7.7" font-family="-apple-system,BlinkMacSystemFont,'SegoeUI',Roboto,Oxygen,Ubuntu,Cantarell,'FiraSans','DroidSans','HelveticaNeue',sans-serif" font-size="11.00">nlohmann/json_fwd.hpp</text>
</a>
</g>
</g>
<!-- Node2&#45;&gt;Node5 -->
<g id="edge4" class="edge">
<title>Node2&#45;&gt;Node5</title>
<path fill="none" stroke="midnightblue" d="M248.26,-114.48C319.59,-105.69 414.03,-91.68 425.5,-78 445.83,-53.77 406.93,-34.9 371.87,-23.55"/>
<polygon fill="midnightblue" stroke="midnightblue" points="372.72,-20.15 362.14,-20.55 370.66,-26.84 372.72,-20.15"/>
</g>
<!-- Node6 -->
<g id="node6" class="node">
<title>Node6</title>
<g id="a_node6"><a xlink:href="BasicTypes_8hpp.html" target="_top" xlink:title=" ">
<polygon fill="none" stroke="red" points="235,-57.5 235,-77.5 416,-77.5 416,-57.5 235,-57.5"/>
<text text-anchor="middle" x="325.5" y="-64.7" font-family="-apple-system,BlinkMacSystemFont,'SegoeUI',Roboto,Oxygen,Ubuntu,Cantarell,'FiraSans','DroidSans','HelveticaNeue',sans-serif" font-size="11.00">libmirai/Types/BasicTypes.hpp</text>
</a>
</g>
</g>
<!-- Node2&#45;&gt;Node6 -->
<g id="edge5" class="edge">
<title>Node2&#45;&gt;Node6</title>
<path fill="none" stroke="midnightblue" d="M193.59,-114.42C219.86,-105.27 260.56,-91.1 289.81,-80.92"/>
<polygon fill="midnightblue" stroke="midnightblue" points="291.34,-84.1 299.63,-77.5 289.04,-77.49 291.34,-84.1"/>
</g>
<!-- Node10 -->
<g id="node7" class="node">
<title>Node10</title>
<g id="a_node7"><a xlink:href="EventBase_8hpp.html" target="_top" xlink:title=" ">
<polygon fill="none" stroke="red" points="118,-57.5 118,-77.5 217,-77.5 217,-57.5 118,-57.5"/>
<text text-anchor="middle" x="167.5" y="-64.7" font-family="-apple-system,BlinkMacSystemFont,'SegoeUI',Roboto,Oxygen,Ubuntu,Cantarell,'FiraSans','DroidSans','HelveticaNeue',sans-serif" font-size="11.00">EventBase.hpp</text>
</a>
</g>
</g>
<!-- Node2&#45;&gt;Node10 -->
<g id="edge8" class="edge">
<title>Node2&#45;&gt;Node10</title>
<path fill="none" stroke="midnightblue" d="M167.5,-114.42C167.5,-107.22 167.5,-96.9 167.5,-87.86"/>
<polygon fill="midnightblue" stroke="midnightblue" points="171,-87.78 167.5,-77.78 164,-87.78 171,-87.78"/>
</g>
<!-- Node6&#45;&gt;Node4 -->
<g id="edge6" class="edge">
<title>Node6&#45;&gt;Node4</title>
<path fill="none" stroke="midnightblue" d="M299.41,-57.42C272.59,-48.08 230.73,-33.51 201.37,-23.29"/>
<polygon fill="midnightblue" stroke="midnightblue" points="202.15,-19.86 191.56,-19.87 199.85,-26.47 202.15,-19.86"/>
</g>
<!-- Node6&#45;&gt;Node5 -->
<g id="edge7" class="edge">
<title>Node6&#45;&gt;Node5</title>
<path fill="none" stroke="midnightblue" d="M325.5,-57.42C325.5,-50.22 325.5,-39.9 325.5,-30.86"/>
<polygon fill="midnightblue" stroke="midnightblue" points="329,-30.78 325.5,-20.78 322,-30.78 329,-30.78"/>
</g>
<!-- Node10&#45;&gt;Node4 -->
<g id="edge9" class="edge">
<title>Node10&#45;&gt;Node4</title>
<path fill="none" stroke="midnightblue" d="M167.5,-57.42C167.5,-50.22 167.5,-39.9 167.5,-30.86"/>
<polygon fill="midnightblue" stroke="midnightblue" points="171,-30.78 167.5,-20.78 164,-30.78 171,-30.78"/>
</g>
<!-- Node10&#45;&gt;Node5 -->
<g id="edge10" class="edge">
<title>Node10&#45;&gt;Node5</title>
<path fill="none" stroke="midnightblue" d="M193.59,-57.42C219.86,-48.27 260.56,-34.1 289.81,-23.92"/>
<polygon fill="midnightblue" stroke="midnightblue" points="291.34,-27.1 299.63,-20.5 289.04,-20.49 291.34,-27.1"/>
</g>
</g>
</svg>
