<?xml version="1.0" encoding="UTF-8" standalone="no"?>
<!DOCTYPE svg PUBLIC "-//W3C//DTD SVG 1.1//EN"
 "http://www.w3.org/Graphics/SVG/1.1/DTD/svg11.dtd">
<!-- Generated by graphviz version 2.43.0 (0)
 -->
<!-- Title: libmirai/public/libmirai/Events/GroupRecallEvent.hpp Pages: 1 -->
<svg width="577pt" height="212pt"
 viewBox="0.00 0.00 576.69 212.00" xmlns="http://www.w3.org/2000/svg" xmlns:xlink="http://www.w3.org/1999/xlink">
<g id="graph0" class="graph" transform="scale(1 1) rotate(0) translate(4 208)">
<title>libmirai/public/libmirai/Events/GroupRecallEvent.hpp</title>
<!-- Node1 -->
<g id="node1" class="node">
<title>Node1</title>
<g id="a_node1"><a xlink:title=" ">
<polygon fill="#bfbfbf" stroke="black" points="82.19,-171.5 82.19,-203.5 265.19,-203.5 265.19,-171.5 82.19,-171.5"/>
<text text-anchor="start" x="90.19" y="-190.7" font-family="-apple-system,BlinkMacSystemFont,'SegoeUI',Roboto,Oxygen,Ubuntu,Cantarell,'FiraSans','DroidSans','HelveticaNeue',sans-serif" font-size="11.00">libmirai/public/libmirai</text>
<text text-anchor="middle" x="173.69" y="-178.7" font-family="-apple-system,BlinkMacSystemFont,'SegoeUI',Roboto,Oxygen,Ubuntu,Cantarell,'FiraSans','DroidSans','HelveticaNeue',sans-serif" font-size="11.00">/Events/GroupRecallEvent.hpp</text>
</a>
</g>
</g>
<!-- Node2 -->
<g id="node2" class="node">
<title>Node2</title>
<g id="a_node2"><a xlink:title=" ">
<polygon fill="none" stroke="#bfbfbf" points="25.19,-57.5 25.19,-77.5 72.19,-77.5 72.19,-57.5 25.19,-57.5"/>
<text text-anchor="middle" x="48.69" y="-64.7" font-family="-apple-system,BlinkMacSystemFont,'SegoeUI',Roboto,Oxygen,Ubuntu,Cantarell,'FiraSans','DroidSans','HelveticaNeue',sans-serif" font-size="11.00">ctime</text>
</a>
</g>
</g>
<!-- Node1&#45;&gt;Node2 -->
<g id="edge1" class="edge">
<title>Node1&#45;&gt;Node2</title>
<path fill="none" stroke="midnightblue" d="M157.6,-171.32C133.91,-148.95 89.82,-107.32 65.64,-84.5"/>
<polygon fill="midnightblue" stroke="midnightblue" points="67.93,-81.85 58.26,-77.53 63.13,-86.94 67.93,-81.85"/>
</g>
<!-- Node3 -->
<g id="node3" class="node">
<title>Node3</title>
<g id="a_node3"><a xlink:title=" ">
<polygon fill="none" stroke="#bfbfbf" points="25.19,-114.5 25.19,-134.5 86.19,-134.5 86.19,-114.5 25.19,-114.5"/>
<text text-anchor="middle" x="55.69" y="-121.7" font-family="-apple-system,BlinkMacSystemFont,'SegoeUI',Roboto,Oxygen,Ubuntu,Cantarell,'FiraSans','DroidSans','HelveticaNeue',sans-serif" font-size="11.00">optional</text>
</a>
</g>
</g>
<!-- Node1&#45;&gt;Node3 -->
<g id="edge2" class="edge">
<title>Node1&#45;&gt;Node3</title>
<path fill="none" stroke="midnightblue" d="M144.52,-171.42C125.46,-161.57 100.76,-148.8 82.24,-139.23"/>
<polygon fill="midnightblue" stroke="midnightblue" points="83.68,-136.03 73.19,-134.55 80.46,-142.25 83.68,-136.03"/>
</g>
<!-- Node4 -->
<g id="node4" class="node">
<title>Node4</title>
<g id="a_node4"><a xlink:title=" ">
<polygon fill="none" stroke="#bfbfbf" points="402.69,-57.5 402.69,-77.5 450.69,-77.5 450.69,-57.5 402.69,-57.5"/>
<text text-anchor="middle" x="426.69" y="-64.7" font-family="-apple-system,BlinkMacSystemFont,'SegoeUI',Roboto,Oxygen,Ubuntu,Cantarell,'FiraSans','DroidSans','HelveticaNeue',sans-serif" font-size="11.00">string</text>
</a>
</g>
</g>
<!-- Node1&#45;&gt;Node4 -->
<g id="edge3" class="edge">
<title>Node1&#45;&gt;Node4</title>
<path fill="none" stroke="midnightblue" d="M234.66,-171.44C264.98,-162.79 301.69,-150.53 332.69,-135 360.8,-120.92 389.84,-99.04 408.07,-84.26"/>
<polygon fill="midnightblue" stroke="midnightblue" points="410.61,-86.7 416.1,-77.64 406.16,-81.3 410.61,-86.7"/>
</g>
<!-- Node5 -->
<g id="node5" class="node">
<title>Node5</title>
<g id="a_node5"><a xlink:title=" ">
<polygon fill="none" stroke="#bfbfbf" points="123.69,-0.5 123.69,-20.5 269.69,-20.5 269.69,-0.5 123.69,-0.5"/>
<text text-anchor="middle" x="196.69" y="-7.7" font-family="-apple-system,BlinkMacSystemFont,'SegoeUI',Roboto,Oxygen,Ubuntu,Cantarell,'FiraSans','DroidSans','HelveticaNeue',sans-serif" font-size="11.00">nlohmann/json_fwd.hpp</text>
</a>
</g>
</g>
<!-- Node1&#45;&gt;Node5 -->
<g id="edge4" class="edge">
<title>Node1&#45;&gt;Node5</title>
<path fill="none" stroke="midnightblue" d="M81.85,-176.74C56.34,-169.31 31.37,-156.6 15.69,-135 -4.67,-106.94 -5.63,-84.34 15.69,-57 28.32,-40.8 72.87,-29.48 114.6,-22.19"/>
<polygon fill="midnightblue" stroke="midnightblue" points="115.29,-25.62 124.57,-20.51 114.12,-18.72 115.29,-25.62"/>
</g>
<!-- Node6 -->
<g id="node6" class="node">
<title>Node6</title>
<g id="a_node6"><a xlink:href="BasicTypes_8hpp.html" target="_top" xlink:title=" ">
<polygon fill="none" stroke="black" points="143.19,-114.5 143.19,-134.5 324.19,-134.5 324.19,-114.5 143.19,-114.5"/>
<text text-anchor="middle" x="233.69" y="-121.7" font-family="-apple-system,BlinkMacSystemFont,'SegoeUI',Roboto,Oxygen,Ubuntu,Cantarell,'FiraSans','DroidSans','HelveticaNeue',sans-serif" font-size="11.00">libmirai/Types/BasicTypes.hpp</text>
</a>
</g>
</g>
<!-- Node1&#45;&gt;Node6 -->
<g id="edge5" class="edge">
<title>Node1&#45;&gt;Node6</title>
<path fill="none" stroke="midnightblue" d="M188.52,-171.42C197.32,-162.47 208.49,-151.12 217.52,-141.94"/>
<polygon fill="midnightblue" stroke="midnightblue" points="220.27,-144.13 224.79,-134.55 215.28,-139.22 220.27,-144.13"/>
</g>
<!-- Node9 -->
<g id="node9" class="node">
<title>Node9</title>
<g id="a_node9"><a xlink:href="EventBase_8hpp.html" target="_top" xlink:title=" ">
<polygon fill="none" stroke="black" points="417.19,-114.5 417.19,-134.5 516.19,-134.5 516.19,-114.5 417.19,-114.5"/>
<text text-anchor="middle" x="466.69" y="-121.7" font-family="-apple-system,BlinkMacSystemFont,'SegoeUI',Roboto,Oxygen,Ubuntu,Cantarell,'FiraSans','DroidSans','HelveticaNeue',sans-serif" font-size="11.00">EventBase.hpp</text>
</a>
</g>
</g>
<!-- Node1&#45;&gt;Node9 -->
<g id="edge12" class="edge">
<title>Node1&#45;&gt;Node9</title>
<path fill="none" stroke="midnightblue" d="M245.74,-171.5C297.52,-160.72 366.19,-146.42 413.15,-136.65"/>
<polygon fill="midnightblue" stroke="midnightblue" points="414.05,-140.03 423.13,-134.57 412.62,-133.18 414.05,-140.03"/>
</g>
<!-- Node6&#45;&gt;Node2 -->
<g id="edge7" class="edge">
<title>Node6&#45;&gt;Node2</title>
<path fill="none" stroke="midnightblue" d="M203.14,-114.42C169.7,-104.48 116.27,-88.59 81.84,-78.35"/>
<polygon fill="midnightblue" stroke="midnightblue" points="82.81,-74.99 72.23,-75.5 80.82,-81.7 82.81,-74.99"/>
</g>
<!-- Node6&#45;&gt;Node4 -->
<g id="edge8" class="edge">
<title>Node6&#45;&gt;Node4</title>
<path fill="none" stroke="midnightblue" d="M265.56,-114.42C300.54,-104.45 356.5,-88.5 392.41,-78.27"/>
<polygon fill="midnightblue" stroke="midnightblue" points="393.76,-81.52 402.42,-75.42 391.84,-74.79 393.76,-81.52"/>
</g>
<!-- Node6&#45;&gt;Node5 -->
<g id="edge9" class="edge">
<title>Node6&#45;&gt;Node5</title>
<path fill="none" stroke="midnightblue" d="M176.09,-114.48C154.7,-108.03 132.54,-96.96 119.69,-78 104.62,-55.76 134.63,-36.48 161.47,-24.49"/>
<polygon fill="midnightblue" stroke="midnightblue" points="162.91,-27.68 170.76,-20.56 160.18,-21.23 162.91,-27.68"/>
</g>
<!-- Node7 -->
<g id="node7" class="node">
<title>Node7</title>
<g id="a_node7"><a xlink:title=" ">
<polygon fill="none" stroke="#bfbfbf" points="128.69,-57.5 128.69,-77.5 182.69,-77.5 182.69,-57.5 128.69,-57.5"/>
<text text-anchor="middle" x="155.69" y="-64.7" font-family="-apple-system,BlinkMacSystemFont,'SegoeUI',Roboto,Oxygen,Ubuntu,Cantarell,'FiraSans','DroidSans','HelveticaNeue',sans-serif" font-size="11.00">chrono</text>
</a>
</g>
</g>
<!-- Node6&#45;&gt;Node7 -->
<g id="edge6" class="edge">
<title>Node6&#45;&gt;Node7</title>
<path fill="none" stroke="midnightblue" d="M220.81,-114.42C208.95,-106.06 191.14,-93.5 177.14,-83.62"/>
<polygon fill="midnightblue" stroke="midnightblue" points="178.78,-80.5 168.59,-77.6 174.74,-86.22 178.78,-80.5"/>
</g>
<!-- Node8 -->
<g id="node8" class="node">
<title>Node8</title>
<g id="a_node8"><a xlink:href="Serializable_8hpp.html" target="_top" xlink:title=" ">
<polygon fill="none" stroke="black" points="201.19,-57.5 201.19,-77.5 384.19,-77.5 384.19,-57.5 201.19,-57.5"/>
<text text-anchor="middle" x="292.69" y="-64.7" font-family="-apple-system,BlinkMacSystemFont,'SegoeUI',Roboto,Oxygen,Ubuntu,Cantarell,'FiraSans','DroidSans','HelveticaNeue',sans-serif" font-size="11.00">libmirai/Types/Serializable.hpp</text>
</a>
</g>
</g>
<!-- Node6&#45;&gt;Node8 -->
<g id="edge10" class="edge">
<title>Node6&#45;&gt;Node8</title>
<path fill="none" stroke="midnightblue" d="M243.43,-114.42C252.09,-106.35 264.95,-94.36 275.36,-84.65"/>
<polygon fill="midnightblue" stroke="midnightblue" points="277.81,-87.16 282.74,-77.78 273.03,-82.04 277.81,-87.16"/>
</g>
<!-- Node8&#45;&gt;Node5 -->
<g id="edge11" class="edge">
<title>Node8&#45;&gt;Node5</title>
<path fill="none" stroke="midnightblue" d="M276.84,-57.42C261.83,-48.82 239.06,-35.78 221.62,-25.78"/>
<polygon fill="midnightblue" stroke="midnightblue" points="222.98,-22.53 212.57,-20.6 219.5,-28.6 222.98,-22.53"/>
</g>
<!-- Node9&#45;&gt;Node4 -->
<g id="edge14" class="edge">
<title>Node9&#45;&gt;Node4</title>
<path fill="none" stroke="midnightblue" d="M460.08,-114.42C454.5,-106.74 446.34,-95.52 439.49,-86.09"/>
<polygon fill="midnightblue" stroke="midnightblue" points="442.15,-83.81 433.44,-77.78 436.49,-87.93 442.15,-83.81"/>
</g>
<!-- Node9&#45;&gt;Node5 -->
<g id="edge15" class="edge">
<title>Node9&#45;&gt;Node5</title>
<path fill="none" stroke="midnightblue" d="M468.8,-114.38C471.52,-100.13 474.28,-72.6 459.69,-57 435.67,-31.33 347.76,-20.11 280.11,-15.22"/>
<polygon fill="midnightblue" stroke="midnightblue" points="280.08,-11.71 269.86,-14.52 279.6,-18.7 280.08,-11.71"/>
</g>
<!-- Node10 -->
<g id="node10" class="node">
<title>Node10</title>
<g id="a_node10"><a xlink:title=" ">
<polygon fill="none" stroke="#bfbfbf" points="506.69,-57.5 506.69,-77.5 568.69,-77.5 568.69,-57.5 506.69,-57.5"/>
<text text-anchor="middle" x="537.69" y="-64.7" font-family="-apple-system,BlinkMacSystemFont,'SegoeUI',Roboto,Oxygen,Ubuntu,Cantarell,'FiraSans','DroidSans','HelveticaNeue',sans-serif" font-size="11.00">memory</text>
</a>
</g>
</g>
<!-- Node9&#45;&gt;Node10 -->
<g id="edge13" class="edge">
<title>Node9&#45;&gt;Node10</title>
<path fill="none" stroke="midnightblue" d="M478.41,-114.42C489.04,-106.19 504.92,-93.88 517.57,-84.08"/>
<polygon fill="midnightblue" stroke="midnightblue" points="519.95,-86.67 525.71,-77.78 515.66,-81.14 519.95,-86.67"/>
</g>
</g>
</svg>
