<?xml version="1.0" encoding="UTF-8" standalone="no"?>
<!DOCTYPE svg PUBLIC "-//W3C//DTD SVG 1.1//EN"
 "http://www.w3.org/Graphics/SVG/1.1/DTD/svg11.dtd">
<!-- Generated by graphviz version 2.43.0 (0)
 -->
<!-- Title: libmirai/public/libmirai/Types/GroupSettings.hpp Pages: 1 -->
<svg width="477pt" height="212pt"
 viewBox="0.00 0.00 477.00 212.00" xmlns="http://www.w3.org/2000/svg" xmlns:xlink="http://www.w3.org/1999/xlink">
<g id="graph0" class="graph" transform="scale(1 1) rotate(0) translate(4 208)">
<title>libmirai/public/libmirai/Types/GroupSettings.hpp</title>
<!-- Node1 -->
<g id="node1" class="node">
<title>Node1</title>
<g id="a_node1"><a xlink:title=" ">
<polygon fill="#bfbfbf" stroke="black" points="0,-171.5 0,-203.5 158,-203.5 158,-171.5 0,-171.5"/>
<text text-anchor="start" x="8" y="-190.7" font-family="-apple-system,BlinkMacSystemFont,'SegoeUI',Roboto,Oxygen,Ubuntu,Cantarell,'FiraSans','DroidSans','HelveticaNeue',sans-serif" font-size="11.00">libmirai/public/libmirai</text>
<text text-anchor="middle" x="79" y="-178.7" font-family="-apple-system,BlinkMacSystemFont,'SegoeUI',Roboto,Oxygen,Ubuntu,Cantarell,'FiraSans','DroidSans','HelveticaNeue',sans-serif" font-size="11.00">/Types/GroupSettings.hpp</text>
</a>
</g>
</g>
<!-- Node2 -->
<g id="node2" class="node">
<title>Node2</title>
<g id="a_node2"><a xlink:title=" ">
<polygon fill="none" stroke="#bfbfbf" points="43.5,-57.5 43.5,-77.5 90.5,-77.5 90.5,-57.5 43.5,-57.5"/>
<text text-anchor="middle" x="67" y="-64.7" font-family="-apple-system,BlinkMacSystemFont,'SegoeUI',Roboto,Oxygen,Ubuntu,Cantarell,'FiraSans','DroidSans','HelveticaNeue',sans-serif" font-size="11.00">ctime</text>
</a>
</g>
</g>
<!-- Node1&#45;&gt;Node2 -->
<g id="edge1" class="edge">
<title>Node1&#45;&gt;Node2</title>
<path fill="none" stroke="midnightblue" d="M77.43,-171.07C75.26,-149.71 71.33,-111.11 68.97,-87.84"/>
<polygon fill="midnightblue" stroke="midnightblue" points="72.44,-87.39 67.95,-77.79 65.47,-88.1 72.44,-87.39"/>
</g>
<!-- Node3 -->
<g id="node3" class="node">
<title>Node3</title>
<g id="a_node3"><a xlink:title=" ">
<polygon fill="none" stroke="#bfbfbf" points="109,-57.5 109,-77.5 157,-77.5 157,-57.5 109,-57.5"/>
<text text-anchor="middle" x="133" y="-64.7" font-family="-apple-system,BlinkMacSystemFont,'SegoeUI',Roboto,Oxygen,Ubuntu,Cantarell,'FiraSans','DroidSans','HelveticaNeue',sans-serif" font-size="11.00">string</text>
</a>
</g>
</g>
<!-- Node1&#45;&gt;Node3 -->
<g id="edge2" class="edge">
<title>Node1&#45;&gt;Node3</title>
<path fill="none" stroke="midnightblue" d="M86.06,-171.07C95.97,-149.42 113.98,-110.06 124.58,-86.9"/>
<polygon fill="midnightblue" stroke="midnightblue" points="127.77,-88.34 128.75,-77.79 121.4,-85.43 127.77,-88.34"/>
</g>
<!-- Node4 -->
<g id="node4" class="node">
<title>Node4</title>
<g id="a_node4"><a xlink:title=" ">
<polygon fill="none" stroke="#bfbfbf" points="112,-0.5 112,-20.5 258,-20.5 258,-0.5 112,-0.5"/>
<text text-anchor="middle" x="185" y="-7.7" font-family="-apple-system,BlinkMacSystemFont,'SegoeUI',Roboto,Oxygen,Ubuntu,Cantarell,'FiraSans','DroidSans','HelveticaNeue',sans-serif" font-size="11.00">nlohmann/json_fwd.hpp</text>
</a>
</g>
</g>
<!-- Node1&#45;&gt;Node4 -->
<g id="edge3" class="edge">
<title>Node1&#45;&gt;Node4</title>
<path fill="none" stroke="midnightblue" d="M65.17,-171.13C43.7,-145.36 7.45,-92.73 34,-57 50.07,-35.37 76.11,-23.65 102.07,-17.41"/>
<polygon fill="midnightblue" stroke="midnightblue" points="102.95,-20.8 111.99,-15.28 101.48,-13.96 102.95,-20.8"/>
</g>
<!-- Node5 -->
<g id="node5" class="node">
<title>Node5</title>
<g id="a_node5"><a xlink:href="BasicTypes_8hpp.html" target="_top" xlink:title=" ">
<polygon fill="none" stroke="black" points="126.5,-114.5 126.5,-134.5 307.5,-134.5 307.5,-114.5 126.5,-114.5"/>
<text text-anchor="middle" x="217" y="-121.7" font-family="-apple-system,BlinkMacSystemFont,'SegoeUI',Roboto,Oxygen,Ubuntu,Cantarell,'FiraSans','DroidSans','HelveticaNeue',sans-serif" font-size="11.00">libmirai/Types/BasicTypes.hpp</text>
</a>
</g>
</g>
<!-- Node1&#45;&gt;Node5 -->
<g id="edge4" class="edge">
<title>Node1&#45;&gt;Node5</title>
<path fill="none" stroke="midnightblue" d="M113.11,-171.42C135.82,-161.39 165.36,-148.33 187.13,-138.7"/>
<polygon fill="midnightblue" stroke="midnightblue" points="188.8,-141.79 196.54,-134.55 185.97,-135.39 188.8,-141.79"/>
</g>
<!-- Node5&#45;&gt;Node2 -->
<g id="edge6" class="edge">
<title>Node5&#45;&gt;Node2</title>
<path fill="none" stroke="midnightblue" d="M192.23,-114.42C167.18,-105.23 128.3,-90.98 100.51,-80.79"/>
<polygon fill="midnightblue" stroke="midnightblue" points="101.41,-77.39 90.81,-77.23 99,-83.96 101.41,-77.39"/>
</g>
<!-- Node5&#45;&gt;Node3 -->
<g id="edge7" class="edge">
<title>Node5&#45;&gt;Node3</title>
<path fill="none" stroke="midnightblue" d="M203.13,-114.42C190.24,-105.98 170.81,-93.26 155.67,-83.34"/>
<polygon fill="midnightblue" stroke="midnightblue" points="157.17,-80.15 146.89,-77.6 153.34,-86 157.17,-80.15"/>
</g>
<!-- Node5&#45;&gt;Node4 -->
<g id="edge8" class="edge">
<title>Node5&#45;&gt;Node4</title>
<path fill="none" stroke="midnightblue" d="M214.38,-114.33C209.18,-96.12 197.44,-55.04 190.48,-30.67"/>
<polygon fill="midnightblue" stroke="midnightblue" points="193.77,-29.45 187.65,-20.79 187.04,-31.37 193.77,-29.45"/>
</g>
<!-- Node6 -->
<g id="node6" class="node">
<title>Node6</title>
<g id="a_node6"><a xlink:title=" ">
<polygon fill="none" stroke="#bfbfbf" points="415,-57.5 415,-77.5 469,-77.5 469,-57.5 415,-57.5"/>
<text text-anchor="middle" x="442" y="-64.7" font-family="-apple-system,BlinkMacSystemFont,'SegoeUI',Roboto,Oxygen,Ubuntu,Cantarell,'FiraSans','DroidSans','HelveticaNeue',sans-serif" font-size="11.00">chrono</text>
</a>
</g>
</g>
<!-- Node5&#45;&gt;Node6 -->
<g id="edge5" class="edge">
<title>Node5&#45;&gt;Node6</title>
<path fill="none" stroke="midnightblue" d="M255.79,-114.42C291.95,-105.9 347.62,-92.64 404.93,-78.23"/>
<polygon fill="midnightblue" stroke="midnightblue" points="406.05,-81.56 414.89,-75.72 404.34,-74.77 406.05,-81.56"/>
</g>
<!-- Node7 -->
<g id="node7" class="node">
<title>Node7</title>
<g id="a_node7"><a xlink:href="Serializable_8hpp.html" target="_top" xlink:title=" ">
<polygon fill="none" stroke="black" points="213.5,-57.5 213.5,-77.5 396.5,-77.5 396.5,-57.5 213.5,-57.5"/>
<text text-anchor="middle" x="305" y="-64.7" font-family="-apple-system,BlinkMacSystemFont,'SegoeUI',Roboto,Oxygen,Ubuntu,Cantarell,'FiraSans','DroidSans','HelveticaNeue',sans-serif" font-size="11.00">libmirai/Types/Serializable.hpp</text>
</a>
</g>
</g>
<!-- Node5&#45;&gt;Node7 -->
<g id="edge9" class="edge">
<title>Node5&#45;&gt;Node7</title>
<path fill="none" stroke="midnightblue" d="M231.53,-114.42C245.16,-105.9 265.77,-93.02 281.7,-83.06"/>
<polygon fill="midnightblue" stroke="midnightblue" points="283.82,-85.86 290.45,-77.6 280.11,-79.93 283.82,-85.86"/>
</g>
<!-- Node7&#45;&gt;Node4 -->
<g id="edge10" class="edge">
<title>Node7&#45;&gt;Node4</title>
<path fill="none" stroke="midnightblue" d="M285.18,-57.42C265.82,-48.54 236.11,-34.93 214.07,-24.82"/>
<polygon fill="midnightblue" stroke="midnightblue" points="215.39,-21.58 204.84,-20.6 212.48,-27.94 215.39,-21.58"/>
</g>
</g>
</svg>
