<?xml version="1.0" encoding="UTF-8" standalone="no"?>
<!DOCTYPE svg PUBLIC "-//W3C//DTD SVG 1.1//EN"
 "http://www.w3.org/Graphics/SVG/1.1/DTD/svg11.dtd">
<!-- Generated by graphviz version 2.43.0 (0)
 -->
<!-- Title: libmirai/public/libmirai/Types/GroupSettings.cpp Pages: 1 -->
<svg width="552pt" height="212pt"
 viewBox="0.00 0.00 551.50 212.00" xmlns="http://www.w3.org/2000/svg" xmlns:xlink="http://www.w3.org/1999/xlink">
<g id="graph0" class="graph" transform="scale(1 1) rotate(0) translate(4 208)">
<title>libmirai/public/libmirai/Types/GroupSettings.cpp</title>
<!-- Node1 -->
<g id="node1" class="node">
<title>Node1</title>
<g id="a_node1"><a xlink:title=" ">
<polygon fill="#bfbfbf" stroke="black" points="224,-171.5 224,-203.5 381,-203.5 381,-171.5 224,-171.5"/>
<text text-anchor="start" x="232" y="-190.7" font-family="-apple-system,BlinkMacSystemFont,'SegoeUI',Roboto,Oxygen,Ubuntu,Cantarell,'FiraSans','DroidSans','HelveticaNeue',sans-serif" font-size="11.00">libmirai/public/libmirai</text>
<text text-anchor="middle" x="302.5" y="-178.7" font-family="-apple-system,BlinkMacSystemFont,'SegoeUI',Roboto,Oxygen,Ubuntu,Cantarell,'FiraSans','DroidSans','HelveticaNeue',sans-serif" font-size="11.00">/Types/GroupSettings.cpp</text>
</a>
</g>
</g>
<!-- Node2 -->
<g id="node2" class="node">
<title>Node2</title>
<g id="a_node2"><a xlink:href="GroupSettings_8hpp.html" target="_top" xlink:title=" ">
<polygon fill="none" stroke="black" points="105,-114.5 105,-134.5 224,-134.5 224,-114.5 105,-114.5"/>
<text text-anchor="middle" x="164.5" y="-121.7" font-family="-apple-system,BlinkMacSystemFont,'SegoeUI',Roboto,Oxygen,Ubuntu,Cantarell,'FiraSans','DroidSans','HelveticaNeue',sans-serif" font-size="11.00">GroupSettings.hpp</text>
</a>
</g>
</g>
<!-- Node1&#45;&gt;Node2 -->
<g id="edge1" class="edge">
<title>Node1&#45;&gt;Node2</title>
<path fill="none" stroke="midnightblue" d="M268.39,-171.42C245.68,-161.39 216.14,-148.33 194.37,-138.7"/>
<polygon fill="midnightblue" stroke="midnightblue" points="195.53,-135.39 184.96,-134.55 192.7,-141.79 195.53,-135.39"/>
</g>
<!-- Node9 -->
<g id="node7" class="node">
<title>Node9</title>
<g id="a_node7"><a xlink:title=" ">
<polygon fill="none" stroke="#bfbfbf" points="242,-114.5 242,-134.5 363,-134.5 363,-114.5 242,-114.5"/>
<text text-anchor="middle" x="302.5" y="-121.7" font-family="-apple-system,BlinkMacSystemFont,'SegoeUI',Roboto,Oxygen,Ubuntu,Cantarell,'FiraSans','DroidSans','HelveticaNeue',sans-serif" font-size="11.00">nlohmann/json.hpp</text>
</a>
</g>
</g>
<!-- Node1&#45;&gt;Node9 -->
<g id="edge9" class="edge">
<title>Node1&#45;&gt;Node9</title>
<path fill="none" stroke="midnightblue" d="M302.5,-171.42C302.5,-163.38 302.5,-153.39 302.5,-144.78"/>
<polygon fill="midnightblue" stroke="midnightblue" points="306,-144.55 302.5,-134.55 299,-144.55 306,-144.55"/>
</g>
<!-- Node10 -->
<g id="node8" class="node">
<title>Node10</title>
<g id="a_node8"><a xlink:title=" ">
<polygon fill="none" stroke="#bfbfbf" points="381.5,-114.5 381.5,-134.5 543.5,-134.5 543.5,-114.5 381.5,-114.5"/>
<text text-anchor="middle" x="462.5" y="-121.7" font-family="-apple-system,BlinkMacSystemFont,'SegoeUI',Roboto,Oxygen,Ubuntu,Cantarell,'FiraSans','DroidSans','HelveticaNeue',sans-serif" font-size="11.00">libmirai/Utils/Common.hpp</text>
</a>
</g>
</g>
<!-- Node1&#45;&gt;Node10 -->
<g id="edge10" class="edge">
<title>Node1&#45;&gt;Node10</title>
<path fill="none" stroke="midnightblue" d="M342.05,-171.42C368.85,-161.21 403.86,-147.86 429.22,-138.19"/>
<polygon fill="midnightblue" stroke="midnightblue" points="430.68,-141.38 438.77,-134.55 428.18,-134.84 430.68,-141.38"/>
</g>
<!-- Node3 -->
<g id="node3" class="node">
<title>Node3</title>
<g id="a_node3"><a xlink:title=" ">
<polygon fill="none" stroke="#bfbfbf" points="0,-0.5 0,-20.5 47,-20.5 47,-0.5 0,-0.5"/>
<text text-anchor="middle" x="23.5" y="-7.7" font-family="-apple-system,BlinkMacSystemFont,'SegoeUI',Roboto,Oxygen,Ubuntu,Cantarell,'FiraSans','DroidSans','HelveticaNeue',sans-serif" font-size="11.00">ctime</text>
</a>
</g>
</g>
<!-- Node2&#45;&gt;Node3 -->
<g id="edge2" class="edge">
<title>Node2&#45;&gt;Node3</title>
<path fill="none" stroke="midnightblue" d="M106.98,-114.47C66.7,-106.84 17.95,-94.51 5.5,-78 -5.25,-63.74 2.66,-43.5 11.12,-29.1"/>
<polygon fill="midnightblue" stroke="midnightblue" points="14.12,-30.91 16.57,-20.6 8.23,-27.13 14.12,-30.91"/>
</g>
<!-- Node4 -->
<g id="node4" class="node">
<title>Node4</title>
<g id="a_node4"><a xlink:title=" ">
<polygon fill="none" stroke="#bfbfbf" points="91.5,-0.5 91.5,-20.5 139.5,-20.5 139.5,-0.5 91.5,-0.5"/>
<text text-anchor="middle" x="115.5" y="-7.7" font-family="-apple-system,BlinkMacSystemFont,'SegoeUI',Roboto,Oxygen,Ubuntu,Cantarell,'FiraSans','DroidSans','HelveticaNeue',sans-serif" font-size="11.00">string</text>
</a>
</g>
</g>
<!-- Node2&#45;&gt;Node4 -->
<g id="edge3" class="edge">
<title>Node2&#45;&gt;Node4</title>
<path fill="none" stroke="midnightblue" d="M177.12,-114.47C193.38,-101.68 218.15,-77.56 205.5,-57 193.34,-37.22 169.63,-25.73 149.6,-19.24"/>
<polygon fill="midnightblue" stroke="midnightblue" points="150.42,-15.83 139.83,-16.36 148.44,-22.55 150.42,-15.83"/>
</g>
<!-- Node5 -->
<g id="node5" class="node">
<title>Node5</title>
<g id="a_node5"><a xlink:title=" ">
<polygon fill="none" stroke="#bfbfbf" points="178.5,-0.5 178.5,-20.5 324.5,-20.5 324.5,-0.5 178.5,-0.5"/>
<text text-anchor="middle" x="251.5" y="-7.7" font-family="-apple-system,BlinkMacSystemFont,'SegoeUI',Roboto,Oxygen,Ubuntu,Cantarell,'FiraSans','DroidSans','HelveticaNeue',sans-serif" font-size="11.00">nlohmann/json_fwd.hpp</text>
</a>
</g>
</g>
<!-- Node2&#45;&gt;Node5 -->
<g id="edge4" class="edge">
<title>Node2&#45;&gt;Node5</title>
<path fill="none" stroke="midnightblue" d="M179.41,-114.18C191.7,-105.89 208.94,-92.82 220.5,-78 231.74,-63.59 240.11,-44.45 245.31,-30.41"/>
<polygon fill="midnightblue" stroke="midnightblue" points="248.66,-31.42 248.65,-20.82 242.05,-29.11 248.66,-31.42"/>
</g>
<!-- Node6 -->
<g id="node6" class="node">
<title>Node6</title>
<g id="a_node6"><a xlink:href="BasicTypes_8hpp.html" target="_top" xlink:title=" ">
<polygon fill="none" stroke="red" points="15,-57.5 15,-77.5 196,-77.5 196,-57.5 15,-57.5"/>
<text text-anchor="middle" x="105.5" y="-64.7" font-family="-apple-system,BlinkMacSystemFont,'SegoeUI',Roboto,Oxygen,Ubuntu,Cantarell,'FiraSans','DroidSans','HelveticaNeue',sans-serif" font-size="11.00">libmirai/Types/BasicTypes.hpp</text>
</a>
</g>
</g>
<!-- Node2&#45;&gt;Node6 -->
<g id="edge5" class="edge">
<title>Node2&#45;&gt;Node6</title>
<path fill="none" stroke="midnightblue" d="M154.76,-114.42C146.1,-106.35 133.24,-94.36 122.83,-84.65"/>
<polygon fill="midnightblue" stroke="midnightblue" points="125.16,-82.04 115.45,-77.78 120.38,-87.16 125.16,-82.04"/>
</g>
<!-- Node6&#45;&gt;Node3 -->
<g id="edge6" class="edge">
<title>Node6&#45;&gt;Node3</title>
<path fill="none" stroke="midnightblue" d="M91.96,-57.42C79.38,-48.98 60.41,-36.26 45.63,-26.34"/>
<polygon fill="midnightblue" stroke="midnightblue" points="47.32,-23.26 37.06,-20.6 43.42,-29.07 47.32,-23.26"/>
</g>
<!-- Node6&#45;&gt;Node4 -->
<g id="edge7" class="edge">
<title>Node6&#45;&gt;Node4</title>
<path fill="none" stroke="midnightblue" d="M107.15,-57.42C108.46,-50.22 110.34,-39.9 111.98,-30.86"/>
<polygon fill="midnightblue" stroke="midnightblue" points="115.47,-31.24 113.81,-20.78 108.58,-29.99 115.47,-31.24"/>
</g>
<!-- Node6&#45;&gt;Node5 -->
<g id="edge8" class="edge">
<title>Node6&#45;&gt;Node5</title>
<path fill="none" stroke="midnightblue" d="M129.61,-57.42C153.7,-48.34 190.94,-34.31 217.92,-24.15"/>
<polygon fill="midnightblue" stroke="midnightblue" points="219.23,-27.4 227.36,-20.6 216.76,-20.85 219.23,-27.4"/>
</g>
</g>
</svg>
