<?xml version="1.0" encoding="UTF-8" standalone="no"?>
<!DOCTYPE svg PUBLIC "-//W3C//DTD SVG 1.1//EN"
 "http://www.w3.org/Graphics/SVG/1.1/DTD/svg11.dtd">
<!-- Generated by graphviz version 3.0.0 (20220413.0242)
 -->
<!-- Title: libmirai/public/libmirai/Events/GroupEntranceAnnouncementChangeEvent.cpp Pages: 1 -->
<svg width="530pt" height="236pt"
 viewBox="0.00 0.00 530.00 236.00" xmlns="http://www.w3.org/2000/svg" xmlns:xlink="http://www.w3.org/1999/xlink">
<g id="graph0" class="graph" transform="scale(1 1) rotate(0) translate(4 232)">
<title>libmirai/public/libmirai/Events/GroupEntranceAnnouncementChangeEvent.cpp</title>
<!-- Node1 -->
<g id="node1" class="node">
<title>Node1</title>
<g id="a_node1"><a xlink:title=" ">
<polygon fill="#bfbfbf" stroke="black" points="208,-183.5 208,-227.5 408,-227.5 408,-183.5 208,-183.5"/>
<text text-anchor="start" x="216" y="-214.7" font-family="-apple-system, BlinkMacSystemFont, 'Segoe UI', Roboto, Oxygen, Ubuntu, Cantarell, 'Fira Sans', 'Droid Sans', 'Helvetica Neue', sans-serif" font-size="11.00">libmirai/public/libmirai</text>
<text text-anchor="start" x="216" y="-202.7" font-family="-apple-system, BlinkMacSystemFont, 'Segoe UI', Roboto, Oxygen, Ubuntu, Cantarell, 'Fira Sans', 'Droid Sans', 'Helvetica Neue', sans-serif" font-size="11.00">/Events/GroupEntranceAnnouncement</text>
<text text-anchor="middle" x="308" y="-190.7" font-family="-apple-system, BlinkMacSystemFont, 'Segoe UI', Roboto, Oxygen, Ubuntu, Cantarell, 'Fira Sans', 'Droid Sans', 'Helvetica Neue', sans-serif" font-size="11.00">ChangeEvent.cpp</text>
</a>
</g>
</g>
<!-- Node2 -->
<g id="node2" class="node">
<title>Node2</title>
<g id="a_node2"><a xlink:href="GroupEntranceAnnouncementChangeEvent_8hpp.html" target="_top" xlink:title=" ">
<polygon fill="none" stroke="black" points="74,-114.5 74,-146.5 236,-146.5 236,-114.5 74,-114.5"/>
<text text-anchor="start" x="82" y="-133.7" font-family="-apple-system, BlinkMacSystemFont, 'Segoe UI', Roboto, Oxygen, Ubuntu, Cantarell, 'Fira Sans', 'Droid Sans', 'Helvetica Neue', sans-serif" font-size="11.00">GroupEntranceAnnouncement</text>
<text text-anchor="middle" x="155" y="-121.7" font-family="-apple-system, BlinkMacSystemFont, 'Segoe UI', Roboto, Oxygen, Ubuntu, Cantarell, 'Fira Sans', 'Droid Sans', 'Helvetica Neue', sans-serif" font-size="11.00">ChangeEvent.hpp</text>
</a>
</g>
</g>
<!-- Node1&#45;&gt;Node2 -->
<g id="edge1" class="edge">
<title>Node1&#45;&gt;Node2</title>
<path fill="none" stroke="midnightblue" d="M263.75,-183.39C242.32,-173.16 216.75,-160.96 195.8,-150.97"/>
<polygon fill="midnightblue" stroke="midnightblue" points="197.06,-147.69 186.53,-146.54 194.05,-154.01 197.06,-147.69"/>
</g>
<!-- Node12 -->
<g id="node8" class="node">
<title>Node12</title>
<g id="a_node8"><a xlink:title=" ">
<polygon fill="none" stroke="#bfbfbf" points="254,-120.5 254,-140.5 362,-140.5 362,-120.5 254,-120.5"/>
<text text-anchor="middle" x="308" y="-127.7" font-family="-apple-system, BlinkMacSystemFont, 'Segoe UI', Roboto, Oxygen, Ubuntu, Cantarell, 'Fira Sans', 'Droid Sans', 'Helvetica Neue', sans-serif" font-size="11.00">nlohmann/json.hpp</text>
</a>
</g>
</g>
<!-- Node1&#45;&gt;Node12 -->
<g id="edge11" class="edge">
<title>Node1&#45;&gt;Node12</title>
<path fill="none" stroke="midnightblue" d="M308,-183.39C308,-173.11 308,-160.83 308,-150.8"/>
<polygon fill="midnightblue" stroke="midnightblue" points="311.5,-150.66 308,-140.66 304.5,-150.66 311.5,-150.66"/>
</g>
<!-- Node13 -->
<g id="node9" class="node">
<title>Node13</title>
<g id="a_node9"><a xlink:title=" ">
<polygon fill="none" stroke="#bfbfbf" points="380,-120.5 380,-140.5 522,-140.5 522,-120.5 380,-120.5"/>
<text text-anchor="middle" x="451" y="-127.7" font-family="-apple-system, BlinkMacSystemFont, 'Segoe UI', Roboto, Oxygen, Ubuntu, Cantarell, 'Fira Sans', 'Droid Sans', 'Helvetica Neue', sans-serif" font-size="11.00">libmirai/Utils/Common.hpp</text>
</a>
</g>
</g>
<!-- Node1&#45;&gt;Node13 -->
<g id="edge12" class="edge">
<title>Node1&#45;&gt;Node13</title>
<path fill="none" stroke="midnightblue" d="M349.36,-183.39C373.4,-171.12 402.99,-156.01 424.04,-145.26"/>
<polygon fill="midnightblue" stroke="midnightblue" points="425.74,-148.33 433.05,-140.66 422.55,-142.09 425.74,-148.33"/>
</g>
<!-- Node3 -->
<g id="node3" class="node">
<title>Node3</title>
<g id="a_node3"><a xlink:title=" ">
<polygon fill="none" stroke="#bfbfbf" points="0,-57.5 0,-77.5 54,-77.5 54,-57.5 0,-57.5"/>
<text text-anchor="middle" x="27" y="-64.7" font-family="-apple-system, BlinkMacSystemFont, 'Segoe UI', Roboto, Oxygen, Ubuntu, Cantarell, 'Fira Sans', 'Droid Sans', 'Helvetica Neue', sans-serif" font-size="11.00">optional</text>
</a>
</g>
</g>
<!-- Node2&#45;&gt;Node3 -->
<g id="edge2" class="edge">
<title>Node2&#45;&gt;Node3</title>
<path fill="none" stroke="midnightblue" d="M123.36,-114.42C102.49,-104.48 75.4,-91.56 55.25,-81.96"/>
<polygon fill="midnightblue" stroke="midnightblue" points="56.51,-78.69 45.98,-77.55 53.5,-85.01 56.51,-78.69"/>
</g>
<!-- Node4 -->
<g id="node4" class="node">
<title>Node4</title>
<g id="a_node4"><a xlink:title=" ">
<polygon fill="none" stroke="#bfbfbf" points="133.5,-0.5 133.5,-20.5 176.5,-20.5 176.5,-0.5 133.5,-0.5"/>
<text text-anchor="middle" x="155" y="-7.7" font-family="-apple-system, BlinkMacSystemFont, 'Segoe UI', Roboto, Oxygen, Ubuntu, Cantarell, 'Fira Sans', 'Droid Sans', 'Helvetica Neue', sans-serif" font-size="11.00">string</text>
</a>
</g>
</g>
<!-- Node2&#45;&gt;Node4 -->
<g id="edge3" class="edge">
<title>Node2&#45;&gt;Node4</title>
<path fill="none" stroke="midnightblue" d="M132.47,-114.45C121.03,-105.4 108.24,-92.77 102,-78 98.37,-69.4 98.1,-65.48 102,-57 107.83,-44.31 119.15,-33.82 129.83,-26.13"/>
<polygon fill="midnightblue" stroke="midnightblue" points="131.78,-29.04 138.15,-20.57 127.89,-23.22 131.78,-29.04"/>
</g>
<!-- Node5 -->
<g id="node5" class="node">
<title>Node5</title>
<g id="a_node5"><a xlink:title=" ">
<polygon fill="none" stroke="#bfbfbf" points="233.5,-0.5 233.5,-20.5 364.5,-20.5 364.5,-0.5 233.5,-0.5"/>
<text text-anchor="middle" x="299" y="-7.7" font-family="-apple-system, BlinkMacSystemFont, 'Segoe UI', Roboto, Oxygen, Ubuntu, Cantarell, 'Fira Sans', 'Droid Sans', 'Helvetica Neue', sans-serif" font-size="11.00">nlohmann/json_fwd.hpp</text>
</a>
</g>
</g>
<!-- Node2&#45;&gt;Node5 -->
<g id="edge4" class="edge">
<title>Node2&#45;&gt;Node5</title>
<path fill="none" stroke="midnightblue" d="M234.45,-114.46C300.32,-101.61 383.98,-84.24 389,-78 407.59,-54.88 371.98,-35.68 340.21,-23.95"/>
<polygon fill="midnightblue" stroke="midnightblue" points="341.14,-20.57 330.54,-20.55 338.82,-27.17 341.14,-20.57"/>
</g>
<!-- Node6 -->
<g id="node6" class="node">
<title>Node6</title>
<g id="a_node6"><a xlink:href="BasicTypes_8hpp.html" target="_top" xlink:title=" ">
<polygon fill="none" stroke="red" points="218,-57.5 218,-77.5 380,-77.5 380,-57.5 218,-57.5"/>
<text text-anchor="middle" x="299" y="-64.7" font-family="-apple-system, BlinkMacSystemFont, 'Segoe UI', Roboto, Oxygen, Ubuntu, Cantarell, 'Fira Sans', 'Droid Sans', 'Helvetica Neue', sans-serif" font-size="11.00">libmirai/Types/BasicTypes.hpp</text>
</a>
</g>
</g>
<!-- Node2&#45;&gt;Node6 -->
<g id="edge5" class="edge">
<title>Node2&#45;&gt;Node6</title>
<path fill="none" stroke="midnightblue" d="M190.6,-114.42C214.39,-104.34 245.39,-91.21 268.14,-81.57"/>
<polygon fill="midnightblue" stroke="midnightblue" points="269.8,-84.67 277.65,-77.55 267.07,-78.22 269.8,-84.67"/>
</g>
<!-- Node10 -->
<g id="node7" class="node">
<title>Node10</title>
<g id="a_node7"><a xlink:href="EventBase_8hpp.html" target="_top" xlink:title=" ">
<polygon fill="none" stroke="red" points="110.5,-57.5 110.5,-77.5 199.5,-77.5 199.5,-57.5 110.5,-57.5"/>
<text text-anchor="middle" x="155" y="-64.7" font-family="-apple-system, BlinkMacSystemFont, 'Segoe UI', Roboto, Oxygen, Ubuntu, Cantarell, 'Fira Sans', 'Droid Sans', 'Helvetica Neue', sans-serif" font-size="11.00">EventBase.hpp</text>
</a>
</g>
</g>
<!-- Node2&#45;&gt;Node10 -->
<g id="edge8" class="edge">
<title>Node2&#45;&gt;Node10</title>
<path fill="none" stroke="midnightblue" d="M155,-114.42C155,-106.38 155,-96.39 155,-87.78"/>
<polygon fill="midnightblue" stroke="midnightblue" points="158.5,-87.55 155,-77.55 151.5,-87.55 158.5,-87.55"/>
</g>
<!-- Node6&#45;&gt;Node4 -->
<g id="edge6" class="edge">
<title>Node6&#45;&gt;Node4</title>
<path fill="none" stroke="midnightblue" d="M275.22,-57.42C251,-48.17 213.29,-33.76 186.57,-23.56"/>
<polygon fill="midnightblue" stroke="midnightblue" points="187.51,-20.17 176.92,-19.87 185.02,-26.71 187.51,-20.17"/>
</g>
<!-- Node6&#45;&gt;Node5 -->
<g id="edge7" class="edge">
<title>Node6&#45;&gt;Node5</title>
<path fill="none" stroke="midnightblue" d="M299,-57.42C299,-50.22 299,-39.9 299,-30.86"/>
<polygon fill="midnightblue" stroke="midnightblue" points="302.5,-30.78 299,-20.78 295.5,-30.78 302.5,-30.78"/>
</g>
<!-- Node10&#45;&gt;Node4 -->
<g id="edge9" class="edge">
<title>Node10&#45;&gt;Node4</title>
<path fill="none" stroke="midnightblue" d="M155,-57.42C155,-50.22 155,-39.9 155,-30.86"/>
<polygon fill="midnightblue" stroke="midnightblue" points="158.5,-30.78 155,-20.78 151.5,-30.78 158.5,-30.78"/>
</g>
<!-- Node10&#45;&gt;Node5 -->
<g id="edge10" class="edge">
<title>Node10&#45;&gt;Node5</title>
<path fill="none" stroke="midnightblue" d="M178.78,-57.42C202.44,-48.38 238.95,-34.44 265.53,-24.28"/>
<polygon fill="midnightblue" stroke="midnightblue" points="267.09,-27.43 275.19,-20.6 264.6,-20.89 267.09,-27.43"/>
</g>
</g>
</svg>
