<?xml version="1.0" encoding="UTF-8" standalone="no"?>
<!DOCTYPE svg PUBLIC "-//W3C//DTD SVG 1.1//EN"
 "http://www.w3.org/Graphics/SVG/1.1/DTD/svg11.dtd">
<!-- Generated by graphviz version 3.0.0 (20220413.0242)
 -->
<!-- Title: libmirai/public/libmirai/Types/GroupSettings.cpp Pages: 1 -->
<svg width="498pt" height="212pt"
 viewBox="0.00 0.00 498.00 212.00" xmlns="http://www.w3.org/2000/svg" xmlns:xlink="http://www.w3.org/1999/xlink">
<g id="graph0" class="graph" transform="scale(1 1) rotate(0) translate(4 208)">
<title>libmirai/public/libmirai/Types/GroupSettings.cpp</title>
<!-- Node1 -->
<g id="node1" class="node">
<title>Node1</title>
<g id="a_node1"><a xlink:title=" ">
<polygon fill="#bfbfbf" stroke="black" points="205.5,-171.5 205.5,-203.5 346.5,-203.5 346.5,-171.5 205.5,-171.5"/>
<text text-anchor="start" x="213.5" y="-190.7" font-family="-apple-system, BlinkMacSystemFont, 'Segoe UI', Roboto, Oxygen, Ubuntu, Cantarell, 'Fira Sans', 'Droid Sans', 'Helvetica Neue', sans-serif" font-size="11.00">libmirai/public/libmirai</text>
<text text-anchor="middle" x="276" y="-178.7" font-family="-apple-system, BlinkMacSystemFont, 'Segoe UI', Roboto, Oxygen, Ubuntu, Cantarell, 'Fira Sans', 'Droid Sans', 'Helvetica Neue', sans-serif" font-size="11.00">/Types/GroupSettings.cpp</text>
</a>
</g>
</g>
<!-- Node2 -->
<g id="node2" class="node">
<title>Node2</title>
<g id="a_node2"><a xlink:href="GroupSettings_8hpp.html" target="_top" xlink:title=" ">
<polygon fill="none" stroke="black" points="96.5,-114.5 96.5,-134.5 203.5,-134.5 203.5,-114.5 96.5,-114.5"/>
<text text-anchor="middle" x="150" y="-121.7" font-family="-apple-system, BlinkMacSystemFont, 'Segoe UI', Roboto, Oxygen, Ubuntu, Cantarell, 'Fira Sans', 'Droid Sans', 'Helvetica Neue', sans-serif" font-size="11.00">GroupSettings.hpp</text>
</a>
</g>
</g>
<!-- Node1&#45;&gt;Node2 -->
<g id="edge1" class="edge">
<title>Node1&#45;&gt;Node2</title>
<path fill="none" stroke="midnightblue" d="M244.85,-171.42C224.31,-161.48 197.64,-148.56 177.81,-138.96"/>
<polygon fill="midnightblue" stroke="midnightblue" points="179.21,-135.75 168.68,-134.55 176.16,-142.05 179.21,-135.75"/>
</g>
<!-- Node10 -->
<g id="node7" class="node">
<title>Node10</title>
<g id="a_node7"><a xlink:title=" ">
<polygon fill="none" stroke="#bfbfbf" points="222,-114.5 222,-134.5 330,-134.5 330,-114.5 222,-114.5"/>
<text text-anchor="middle" x="276" y="-121.7" font-family="-apple-system, BlinkMacSystemFont, 'Segoe UI', Roboto, Oxygen, Ubuntu, Cantarell, 'Fira Sans', 'Droid Sans', 'Helvetica Neue', sans-serif" font-size="11.00">nlohmann/json.hpp</text>
</a>
</g>
</g>
<!-- Node1&#45;&gt;Node10 -->
<g id="edge9" class="edge">
<title>Node1&#45;&gt;Node10</title>
<path fill="none" stroke="midnightblue" d="M276,-171.42C276,-163.38 276,-153.39 276,-144.78"/>
<polygon fill="midnightblue" stroke="midnightblue" points="279.5,-144.55 276,-134.55 272.5,-144.55 279.5,-144.55"/>
</g>
<!-- Node11 -->
<g id="node8" class="node">
<title>Node11</title>
<g id="a_node8"><a xlink:title=" ">
<polygon fill="none" stroke="#bfbfbf" points="348,-114.5 348,-134.5 490,-134.5 490,-114.5 348,-114.5"/>
<text text-anchor="middle" x="419" y="-121.7" font-family="-apple-system, BlinkMacSystemFont, 'Segoe UI', Roboto, Oxygen, Ubuntu, Cantarell, 'Fira Sans', 'Droid Sans', 'Helvetica Neue', sans-serif" font-size="11.00">libmirai/Utils/Common.hpp</text>
</a>
</g>
</g>
<!-- Node1&#45;&gt;Node11 -->
<g id="edge10" class="edge">
<title>Node1&#45;&gt;Node11</title>
<path fill="none" stroke="midnightblue" d="M311.35,-171.42C334.98,-161.34 365.76,-148.21 388.35,-138.57"/>
<polygon fill="midnightblue" stroke="midnightblue" points="389.97,-141.69 397.79,-134.55 387.22,-135.25 389.97,-141.69"/>
</g>
<!-- Node3 -->
<g id="node3" class="node">
<title>Node3</title>
<g id="a_node3"><a xlink:title=" ">
<polygon fill="none" stroke="#bfbfbf" points="0,-0.5 0,-20.5 42,-20.5 42,-0.5 0,-0.5"/>
<text text-anchor="middle" x="21" y="-7.7" font-family="-apple-system, BlinkMacSystemFont, 'Segoe UI', Roboto, Oxygen, Ubuntu, Cantarell, 'Fira Sans', 'Droid Sans', 'Helvetica Neue', sans-serif" font-size="11.00">ctime</text>
</a>
</g>
</g>
<!-- Node2&#45;&gt;Node3 -->
<g id="edge2" class="edge">
<title>Node2&#45;&gt;Node3</title>
<path fill="none" stroke="midnightblue" d="M96.49,-121.56C64.67,-117.31 26.61,-106.13 6,-78 -4.34,-63.88 2.27,-43.89 9.7,-29.51"/>
<polygon fill="midnightblue" stroke="midnightblue" points="12.86,-31.02 14.77,-20.6 6.78,-27.56 12.86,-31.02"/>
</g>
<!-- Node4 -->
<g id="node4" class="node">
<title>Node4</title>
<g id="a_node4"><a xlink:title=" ">
<polygon fill="none" stroke="#bfbfbf" points="84.5,-0.5 84.5,-20.5 127.5,-20.5 127.5,-0.5 84.5,-0.5"/>
<text text-anchor="middle" x="106" y="-7.7" font-family="-apple-system, BlinkMacSystemFont, 'Segoe UI', Roboto, Oxygen, Ubuntu, Cantarell, 'Fira Sans', 'Droid Sans', 'Helvetica Neue', sans-serif" font-size="11.00">string</text>
</a>
</g>
</g>
<!-- Node2&#45;&gt;Node4 -->
<g id="edge3" class="edge">
<title>Node2&#45;&gt;Node4</title>
<path fill="none" stroke="midnightblue" d="M161.26,-114.37C175.76,-101.46 197.75,-77.2 186,-57 175.49,-38.94 154.84,-27.45 137.16,-20.54"/>
<polygon fill="midnightblue" stroke="midnightblue" points="138.31,-17.24 127.72,-17.16 135.95,-23.83 138.31,-17.24"/>
</g>
<!-- Node5 -->
<g id="node5" class="node">
<title>Node5</title>
<g id="a_node5"><a xlink:title=" ">
<polygon fill="none" stroke="#bfbfbf" points="166.5,-0.5 166.5,-20.5 297.5,-20.5 297.5,-0.5 166.5,-0.5"/>
<text text-anchor="middle" x="232" y="-7.7" font-family="-apple-system, BlinkMacSystemFont, 'Segoe UI', Roboto, Oxygen, Ubuntu, Cantarell, 'Fira Sans', 'Droid Sans', 'Helvetica Neue', sans-serif" font-size="11.00">nlohmann/json_fwd.hpp</text>
</a>
</g>
</g>
<!-- Node2&#45;&gt;Node5 -->
<g id="edge4" class="edge">
<title>Node2&#45;&gt;Node5</title>
<path fill="none" stroke="midnightblue" d="M163.08,-114.24C174.28,-105.8 190.24,-92.47 201,-78 211.9,-63.34 220.32,-44.23 225.61,-30.26"/>
<polygon fill="midnightblue" stroke="midnightblue" points="228.95,-31.33 229.04,-20.74 222.36,-28.96 228.95,-31.33"/>
</g>
<!-- Node6 -->
<g id="node6" class="node">
<title>Node6</title>
<g id="a_node6"><a xlink:href="BasicTypes_8hpp.html" target="_top" xlink:title=" ">
<polygon fill="none" stroke="red" points="15,-57.5 15,-77.5 177,-77.5 177,-57.5 15,-57.5"/>
<text text-anchor="middle" x="96" y="-64.7" font-family="-apple-system, BlinkMacSystemFont, 'Segoe UI', Roboto, Oxygen, Ubuntu, Cantarell, 'Fira Sans', 'Droid Sans', 'Helvetica Neue', sans-serif" font-size="11.00">libmirai/Types/BasicTypes.hpp</text>
</a>
</g>
</g>
<!-- Node2&#45;&gt;Node6 -->
<g id="edge5" class="edge">
<title>Node2&#45;&gt;Node6</title>
<path fill="none" stroke="midnightblue" d="M141.08,-114.42C133.24,-106.42 121.62,-94.59 112.14,-84.94"/>
<polygon fill="midnightblue" stroke="midnightblue" points="114.61,-82.46 105.11,-77.78 109.62,-87.37 114.61,-82.46"/>
</g>
<!-- Node6&#45;&gt;Node3 -->
<g id="edge6" class="edge">
<title>Node6&#45;&gt;Node3</title>
<path fill="none" stroke="midnightblue" d="M83.62,-57.42C72.22,-49.06 55.09,-36.5 41.62,-26.62"/>
<polygon fill="midnightblue" stroke="midnightblue" points="43.54,-23.69 33.4,-20.6 39.4,-29.33 43.54,-23.69"/>
</g>
<!-- Node6&#45;&gt;Node4 -->
<g id="edge7" class="edge">
<title>Node6&#45;&gt;Node4</title>
<path fill="none" stroke="midnightblue" d="M97.65,-57.42C98.96,-50.22 100.84,-39.9 102.48,-30.86"/>
<polygon fill="midnightblue" stroke="midnightblue" points="105.97,-31.24 104.31,-20.78 99.08,-29.99 105.97,-31.24"/>
</g>
<!-- Node6&#45;&gt;Node5 -->
<g id="edge8" class="edge">
<title>Node6&#45;&gt;Node5</title>
<path fill="none" stroke="midnightblue" d="M118.46,-57.42C140.7,-48.42 174.98,-34.56 200.06,-24.42"/>
<polygon fill="midnightblue" stroke="midnightblue" points="201.55,-27.59 209.51,-20.6 198.93,-21.1 201.55,-27.59"/>
</g>
</g>
</svg>
