<?xml version="1.0" encoding="UTF-8" standalone="no"?>
<!DOCTYPE svg PUBLIC "-//W3C//DTD SVG 1.1//EN"
 "http://www.w3.org/Graphics/SVG/1.1/DTD/svg11.dtd">
<!-- Generated by graphviz version 3.0.0 (20220413.0242)
 -->
<!-- Title: libmirai/public/libmirai/Events/GroupAllowAnonymousChatEvent.cpp Pages: 1 -->
<svg width="549pt" height="224pt"
 viewBox="0.00 0.00 549.00 224.00" xmlns="http://www.w3.org/2000/svg" xmlns:xlink="http://www.w3.org/1999/xlink">
<g id="graph0" class="graph" transform="scale(1 1) rotate(0) translate(4 220)">
<title>libmirai/public/libmirai/Events/GroupAllowAnonymousChatEvent.cpp</title>
<!-- Node1 -->
<g id="node1" class="node">
<title>Node1</title>
<g id="a_node1"><a xlink:title=" ">
<polygon fill="#bfbfbf" stroke="black" points="231.5,-171.5 231.5,-215.5 422.5,-215.5 422.5,-171.5 231.5,-171.5"/>
<text text-anchor="start" x="239.5" y="-202.7" font-family="-apple-system, BlinkMacSystemFont, 'Segoe UI', Roboto, Oxygen, Ubuntu, Cantarell, 'Fira Sans', 'Droid Sans', 'Helvetica Neue', sans-serif" font-size="11.00">libmirai/public/libmirai</text>
<text text-anchor="start" x="239.5" y="-190.7" font-family="-apple-system, BlinkMacSystemFont, 'Segoe UI', Roboto, Oxygen, Ubuntu, Cantarell, 'Fira Sans', 'Droid Sans', 'Helvetica Neue', sans-serif" font-size="11.00">/Events/GroupAllowAnonymousChat</text>
<text text-anchor="middle" x="327" y="-178.7" font-family="-apple-system, BlinkMacSystemFont, 'Segoe UI', Roboto, Oxygen, Ubuntu, Cantarell, 'Fira Sans', 'Droid Sans', 'Helvetica Neue', sans-serif" font-size="11.00">Event.cpp</text>
</a>
</g>
</g>
<!-- Node2 -->
<g id="node2" class="node">
<title>Node2</title>
<g id="a_node2"><a xlink:href="GroupAllowAnonymousChatEvent_8hpp.html" target="_top" xlink:title=" ">
<polygon fill="none" stroke="black" points="55,-114.5 55,-134.5 255,-134.5 255,-114.5 55,-114.5"/>
<text text-anchor="middle" x="155" y="-121.7" font-family="-apple-system, BlinkMacSystemFont, 'Segoe UI', Roboto, Oxygen, Ubuntu, Cantarell, 'Fira Sans', 'Droid Sans', 'Helvetica Neue', sans-serif" font-size="11.00">GroupAllowAnonymousChatEvent.hpp</text>
</a>
</g>
</g>
<!-- Node1&#45;&gt;Node2 -->
<g id="edge1" class="edge">
<title>Node1&#45;&gt;Node2</title>
<path fill="none" stroke="midnightblue" d="M273.05,-171.48C245,-160.56 211.63,-147.56 187.54,-138.18"/>
<polygon fill="midnightblue" stroke="midnightblue" points="188.74,-134.89 178.15,-134.52 186.2,-141.41 188.74,-134.89"/>
</g>
<!-- Node12 -->
<g id="node8" class="node">
<title>Node12</title>
<g id="a_node8"><a xlink:title=" ">
<polygon fill="none" stroke="#bfbfbf" points="273,-114.5 273,-134.5 381,-134.5 381,-114.5 273,-114.5"/>
<text text-anchor="middle" x="327" y="-121.7" font-family="-apple-system, BlinkMacSystemFont, 'Segoe UI', Roboto, Oxygen, Ubuntu, Cantarell, 'Fira Sans', 'Droid Sans', 'Helvetica Neue', sans-serif" font-size="11.00">nlohmann/json.hpp</text>
</a>
</g>
</g>
<!-- Node1&#45;&gt;Node12 -->
<g id="edge11" class="edge">
<title>Node1&#45;&gt;Node12</title>
<path fill="none" stroke="midnightblue" d="M327,-171.3C327,-162.87 327,-153.22 327,-144.97"/>
<polygon fill="midnightblue" stroke="midnightblue" points="330.5,-144.82 327,-134.82 323.5,-144.82 330.5,-144.82"/>
</g>
<!-- Node13 -->
<g id="node9" class="node">
<title>Node13</title>
<g id="a_node9"><a xlink:title=" ">
<polygon fill="none" stroke="#bfbfbf" points="399,-114.5 399,-134.5 541,-134.5 541,-114.5 399,-114.5"/>
<text text-anchor="middle" x="470" y="-121.7" font-family="-apple-system, BlinkMacSystemFont, 'Segoe UI', Roboto, Oxygen, Ubuntu, Cantarell, 'Fira Sans', 'Droid Sans', 'Helvetica Neue', sans-serif" font-size="11.00">libmirai/Utils/Common.hpp</text>
</a>
</g>
</g>
<!-- Node1&#45;&gt;Node13 -->
<g id="edge12" class="edge">
<title>Node1&#45;&gt;Node13</title>
<path fill="none" stroke="midnightblue" d="M371.85,-171.48C394.66,-160.8 421.69,-148.14 441.6,-138.81"/>
<polygon fill="midnightblue" stroke="midnightblue" points="443.18,-141.93 450.75,-134.52 440.21,-135.59 443.18,-141.93"/>
</g>
<!-- Node3 -->
<g id="node3" class="node">
<title>Node3</title>
<g id="a_node3"><a xlink:title=" ">
<polygon fill="none" stroke="#bfbfbf" points="0,-57.5 0,-77.5 54,-77.5 54,-57.5 0,-57.5"/>
<text text-anchor="middle" x="27" y="-64.7" font-family="-apple-system, BlinkMacSystemFont, 'Segoe UI', Roboto, Oxygen, Ubuntu, Cantarell, 'Fira Sans', 'Droid Sans', 'Helvetica Neue', sans-serif" font-size="11.00">optional</text>
</a>
</g>
</g>
<!-- Node2&#45;&gt;Node3 -->
<g id="edge2" class="edge">
<title>Node2&#45;&gt;Node3</title>
<path fill="none" stroke="midnightblue" d="M133.86,-114.42C113.02,-105.46 80.95,-91.68 57.38,-81.55"/>
<polygon fill="midnightblue" stroke="midnightblue" points="58.74,-78.33 48.17,-77.6 55.97,-84.76 58.74,-78.33"/>
</g>
<!-- Node4 -->
<g id="node4" class="node">
<title>Node4</title>
<g id="a_node4"><a xlink:title=" ">
<polygon fill="none" stroke="#bfbfbf" points="133.5,-0.5 133.5,-20.5 176.5,-20.5 176.5,-0.5 133.5,-0.5"/>
<text text-anchor="middle" x="155" y="-7.7" font-family="-apple-system, BlinkMacSystemFont, 'Segoe UI', Roboto, Oxygen, Ubuntu, Cantarell, 'Fira Sans', 'Droid Sans', 'Helvetica Neue', sans-serif" font-size="11.00">string</text>
</a>
</g>
</g>
<!-- Node2&#45;&gt;Node4 -->
<g id="edge3" class="edge">
<title>Node2&#45;&gt;Node4</title>
<path fill="none" stroke="midnightblue" d="M138.15,-114.43C125.59,-106.63 109.39,-94.09 102,-78 92.84,-58.06 112.19,-38.85 130.03,-26.25"/>
<polygon fill="midnightblue" stroke="midnightblue" points="132.13,-29.06 138.54,-20.62 128.27,-23.22 132.13,-29.06"/>
</g>
<!-- Node5 -->
<g id="node5" class="node">
<title>Node5</title>
<g id="a_node5"><a xlink:title=" ">
<polygon fill="none" stroke="#bfbfbf" points="233.5,-0.5 233.5,-20.5 364.5,-20.5 364.5,-0.5 233.5,-0.5"/>
<text text-anchor="middle" x="299" y="-7.7" font-family="-apple-system, BlinkMacSystemFont, 'Segoe UI', Roboto, Oxygen, Ubuntu, Cantarell, 'Fira Sans', 'Droid Sans', 'Helvetica Neue', sans-serif" font-size="11.00">nlohmann/json_fwd.hpp</text>
</a>
</g>
</g>
<!-- Node2&#45;&gt;Node5 -->
<g id="edge4" class="edge">
<title>Node2&#45;&gt;Node5</title>
<path fill="none" stroke="midnightblue" d="M224.6,-114.49C289.7,-105.35 378.47,-90.77 389,-78 407.93,-55.04 371.99,-35.75 340.07,-23.96"/>
<polygon fill="midnightblue" stroke="midnightblue" points="340.95,-20.56 330.35,-20.54 338.63,-27.16 340.95,-20.56"/>
</g>
<!-- Node6 -->
<g id="node6" class="node">
<title>Node6</title>
<g id="a_node6"><a xlink:href="BasicTypes_8hpp.html" target="_top" xlink:title=" ">
<polygon fill="none" stroke="red" points="218,-57.5 218,-77.5 380,-77.5 380,-57.5 218,-57.5"/>
<text text-anchor="middle" x="299" y="-64.7" font-family="-apple-system, BlinkMacSystemFont, 'Segoe UI', Roboto, Oxygen, Ubuntu, Cantarell, 'Fira Sans', 'Droid Sans', 'Helvetica Neue', sans-serif" font-size="11.00">libmirai/Types/BasicTypes.hpp</text>
</a>
</g>
</g>
<!-- Node2&#45;&gt;Node6 -->
<g id="edge5" class="edge">
<title>Node2&#45;&gt;Node6</title>
<path fill="none" stroke="midnightblue" d="M178.78,-114.42C202.44,-105.38 238.95,-91.44 265.53,-81.28"/>
<polygon fill="midnightblue" stroke="midnightblue" points="267.09,-84.43 275.19,-77.6 264.6,-77.89 267.09,-84.43"/>
</g>
<!-- Node10 -->
<g id="node7" class="node">
<title>Node10</title>
<g id="a_node7"><a xlink:href="EventBase_8hpp.html" target="_top" xlink:title=" ">
<polygon fill="none" stroke="red" points="110.5,-57.5 110.5,-77.5 199.5,-77.5 199.5,-57.5 110.5,-57.5"/>
<text text-anchor="middle" x="155" y="-64.7" font-family="-apple-system, BlinkMacSystemFont, 'Segoe UI', Roboto, Oxygen, Ubuntu, Cantarell, 'Fira Sans', 'Droid Sans', 'Helvetica Neue', sans-serif" font-size="11.00">EventBase.hpp</text>
</a>
</g>
</g>
<!-- Node2&#45;&gt;Node10 -->
<g id="edge8" class="edge">
<title>Node2&#45;&gt;Node10</title>
<path fill="none" stroke="midnightblue" d="M155,-114.42C155,-107.22 155,-96.9 155,-87.86"/>
<polygon fill="midnightblue" stroke="midnightblue" points="158.5,-87.78 155,-77.78 151.5,-87.78 158.5,-87.78"/>
</g>
<!-- Node6&#45;&gt;Node4 -->
<g id="edge6" class="edge">
<title>Node6&#45;&gt;Node4</title>
<path fill="none" stroke="midnightblue" d="M275.22,-57.42C251,-48.17 213.29,-33.76 186.57,-23.56"/>
<polygon fill="midnightblue" stroke="midnightblue" points="187.51,-20.17 176.92,-19.87 185.02,-26.71 187.51,-20.17"/>
</g>
<!-- Node6&#45;&gt;Node5 -->
<g id="edge7" class="edge">
<title>Node6&#45;&gt;Node5</title>
<path fill="none" stroke="midnightblue" d="M299,-57.42C299,-50.22 299,-39.9 299,-30.86"/>
<polygon fill="midnightblue" stroke="midnightblue" points="302.5,-30.78 299,-20.78 295.5,-30.78 302.5,-30.78"/>
</g>
<!-- Node10&#45;&gt;Node4 -->
<g id="edge9" class="edge">
<title>Node10&#45;&gt;Node4</title>
<path fill="none" stroke="midnightblue" d="M155,-57.42C155,-50.22 155,-39.9 155,-30.86"/>
<polygon fill="midnightblue" stroke="midnightblue" points="158.5,-30.78 155,-20.78 151.5,-30.78 158.5,-30.78"/>
</g>
<!-- Node10&#45;&gt;Node5 -->
<g id="edge10" class="edge">
<title>Node10&#45;&gt;Node5</title>
<path fill="none" stroke="midnightblue" d="M178.78,-57.42C202.44,-48.38 238.95,-34.44 265.53,-24.28"/>
<polygon fill="midnightblue" stroke="midnightblue" points="267.09,-27.43 275.19,-20.6 264.6,-20.89 267.09,-27.43"/>
</g>
</g>
</svg>
