<?xml version="1.0" encoding="UTF-8" standalone="no"?>
<!DOCTYPE svg PUBLIC "-//W3C//DTD SVG 1.1//EN"
 "http://www.w3.org/Graphics/SVG/1.1/DTD/svg11.dtd">
<!-- Generated by graphviz version 3.0.0 (20220413.0242)
 -->
<!-- Title: libmirai/public/libmirai/Types/GroupSettings.hpp Pages: 1 -->
<svg width="514pt" height="212pt"
 viewBox="0.00 0.00 513.50 212.00" xmlns="http://www.w3.org/2000/svg" xmlns:xlink="http://www.w3.org/1999/xlink">
<g id="graph0" class="graph" transform="scale(1 1) rotate(0) translate(4 208)">
<title>libmirai/public/libmirai/Types/GroupSettings.hpp</title>
<!-- Node1 -->
<g id="node1" class="node">
<title>Node1</title>
<g id="a_node1"><a xlink:title=" ">
<polygon fill="#bfbfbf" stroke="black" points="77,-171.5 77,-203.5 219,-203.5 219,-171.5 77,-171.5"/>
<text text-anchor="start" x="85" y="-190.7" font-family="-apple-system, BlinkMacSystemFont, 'Segoe UI', Roboto, Oxygen, Ubuntu, Cantarell, 'Fira Sans', 'Droid Sans', 'Helvetica Neue', sans-serif" font-size="11.00">libmirai/public/libmirai</text>
<text text-anchor="middle" x="148" y="-178.7" font-family="-apple-system, BlinkMacSystemFont, 'Segoe UI', Roboto, Oxygen, Ubuntu, Cantarell, 'Fira Sans', 'Droid Sans', 'Helvetica Neue', sans-serif" font-size="11.00">/Types/GroupSettings.hpp</text>
</a>
</g>
</g>
<!-- Node2 -->
<g id="node2" class="node">
<title>Node2</title>
<g id="a_node2"><a xlink:title=" ">
<polygon fill="none" stroke="#bfbfbf" points="0,-57.5 0,-77.5 42,-77.5 42,-57.5 0,-57.5"/>
<text text-anchor="middle" x="21" y="-64.7" font-family="-apple-system, BlinkMacSystemFont, 'Segoe UI', Roboto, Oxygen, Ubuntu, Cantarell, 'Fira Sans', 'Droid Sans', 'Helvetica Neue', sans-serif" font-size="11.00">ctime</text>
</a>
</g>
</g>
<!-- Node1&#45;&gt;Node2 -->
<g id="edge1" class="edge">
<title>Node1&#45;&gt;Node2</title>
<path fill="none" stroke="midnightblue" d="M131.66,-171.32C107.58,-148.95 62.79,-107.32 38.22,-84.5"/>
<polygon fill="midnightblue" stroke="midnightblue" points="40.43,-81.78 30.72,-77.53 35.67,-86.9 40.43,-81.78"/>
</g>
<!-- Node3 -->
<g id="node3" class="node">
<title>Node3</title>
<g id="a_node3"><a xlink:title=" ">
<polygon fill="none" stroke="#bfbfbf" points="60.5,-57.5 60.5,-77.5 103.5,-77.5 103.5,-57.5 60.5,-57.5"/>
<text text-anchor="middle" x="82" y="-64.7" font-family="-apple-system, BlinkMacSystemFont, 'Segoe UI', Roboto, Oxygen, Ubuntu, Cantarell, 'Fira Sans', 'Droid Sans', 'Helvetica Neue', sans-serif" font-size="11.00">string</text>
</a>
</g>
</g>
<!-- Node1&#45;&gt;Node3 -->
<g id="edge2" class="edge">
<title>Node1&#45;&gt;Node3</title>
<path fill="none" stroke="midnightblue" d="M136.6,-171.14C129.41,-161.12 120.15,-147.6 113,-135 104.08,-119.29 95.52,-100.57 89.67,-87"/>
<polygon fill="midnightblue" stroke="midnightblue" points="92.88,-85.61 85.76,-77.77 86.44,-88.34 92.88,-85.61"/>
</g>
<!-- Node4 -->
<g id="node4" class="node">
<title>Node4</title>
<g id="a_node4"><a xlink:title=" ">
<polygon fill="none" stroke="#bfbfbf" points="374.5,-0.5 374.5,-20.5 505.5,-20.5 505.5,-0.5 374.5,-0.5"/>
<text text-anchor="middle" x="440" y="-7.7" font-family="-apple-system, BlinkMacSystemFont, 'Segoe UI', Roboto, Oxygen, Ubuntu, Cantarell, 'Fira Sans', 'Droid Sans', 'Helvetica Neue', sans-serif" font-size="11.00">nlohmann/json_fwd.hpp</text>
</a>
</g>
</g>
<!-- Node1&#45;&gt;Node4 -->
<g id="edge3" class="edge">
<title>Node1&#45;&gt;Node4</title>
<path fill="none" stroke="midnightblue" d="M219.01,-182.47C288.75,-174.28 391.65,-149.89 441,-78 450.48,-64.19 448.9,-44.69 445.74,-30.37"/>
<polygon fill="midnightblue" stroke="midnightblue" points="449.11,-29.4 443.18,-20.61 442.34,-31.18 449.11,-29.4"/>
</g>
<!-- Node5 -->
<g id="node5" class="node">
<title>Node5</title>
<g id="a_node5"><a xlink:href="BasicTypes_8hpp.html" target="_top" xlink:title=" ">
<polygon fill="none" stroke="black" points="122,-114.5 122,-134.5 284,-134.5 284,-114.5 122,-114.5"/>
<text text-anchor="middle" x="203" y="-121.7" font-family="-apple-system, BlinkMacSystemFont, 'Segoe UI', Roboto, Oxygen, Ubuntu, Cantarell, 'Fira Sans', 'Droid Sans', 'Helvetica Neue', sans-serif" font-size="11.00">libmirai/Types/BasicTypes.hpp</text>
</a>
</g>
</g>
<!-- Node1&#45;&gt;Node5 -->
<g id="edge4" class="edge">
<title>Node1&#45;&gt;Node5</title>
<path fill="none" stroke="midnightblue" d="M161.6,-171.42C169.58,-162.56 179.7,-151.35 187.93,-142.22"/>
<polygon fill="midnightblue" stroke="midnightblue" points="190.75,-144.32 194.84,-134.55 185.55,-139.63 190.75,-144.32"/>
</g>
<!-- Node5&#45;&gt;Node2 -->
<g id="edge6" class="edge">
<title>Node5&#45;&gt;Node2</title>
<path fill="none" stroke="midnightblue" d="M172.39,-114.49C143.64,-106 99.19,-92.78 52.07,-78.3"/>
<polygon fill="midnightblue" stroke="midnightblue" points="52.88,-74.89 42.29,-75.29 50.82,-81.58 52.88,-74.89"/>
</g>
<!-- Node5&#45;&gt;Node3 -->
<g id="edge7" class="edge">
<title>Node5&#45;&gt;Node3</title>
<path fill="none" stroke="midnightblue" d="M183.02,-114.42C163.49,-105.54 133.54,-91.93 111.31,-81.82"/>
<polygon fill="midnightblue" stroke="midnightblue" points="112.56,-78.55 102.01,-77.6 109.67,-84.92 112.56,-78.55"/>
</g>
<!-- Node5&#45;&gt;Node4 -->
<g id="edge9" class="edge">
<title>Node5&#45;&gt;Node4</title>
<path fill="none" stroke="midnightblue" d="M284.22,-115.33C337.62,-108.35 401.15,-96.46 421,-78 433.89,-66.01 438.25,-45.94 439.62,-30.98"/>
<polygon fill="midnightblue" stroke="midnightblue" points="443.13,-30.93 440.18,-20.75 436.14,-30.55 443.13,-30.93"/>
</g>
<!-- Node6 -->
<g id="node6" class="node">
<title>Node6</title>
<g id="a_node6"><a xlink:title=" ">
<polygon fill="none" stroke="#bfbfbf" points="302,-57.5 302,-77.5 352,-77.5 352,-57.5 302,-57.5"/>
<text text-anchor="middle" x="327" y="-64.7" font-family="-apple-system, BlinkMacSystemFont, 'Segoe UI', Roboto, Oxygen, Ubuntu, Cantarell, 'Fira Sans', 'Droid Sans', 'Helvetica Neue', sans-serif" font-size="11.00">chrono</text>
</a>
</g>
</g>
<!-- Node5&#45;&gt;Node6 -->
<g id="edge5" class="edge">
<title>Node5&#45;&gt;Node6</title>
<path fill="none" stroke="midnightblue" d="M223.48,-114.42C243.58,-105.5 274.46,-91.8 297.27,-81.69"/>
<polygon fill="midnightblue" stroke="midnightblue" points="298.77,-84.85 306.49,-77.6 295.93,-78.45 298.77,-84.85"/>
</g>
<!-- Node7 -->
<g id="node7" class="node">
<title>Node7</title>
<g id="a_node7"><a xlink:title=" ">
<polygon fill="none" stroke="#bfbfbf" points="370.5,-57.5 370.5,-77.5 411.5,-77.5 411.5,-57.5 370.5,-57.5"/>
<text text-anchor="middle" x="391" y="-64.7" font-family="-apple-system, BlinkMacSystemFont, 'Segoe UI', Roboto, Oxygen, Ubuntu, Cantarell, 'Fira Sans', 'Droid Sans', 'Helvetica Neue', sans-serif" font-size="11.00">utility</text>
</a>
</g>
</g>
<!-- Node5&#45;&gt;Node7 -->
<g id="edge8" class="edge">
<title>Node5&#45;&gt;Node7</title>
<path fill="none" stroke="midnightblue" d="M235.45,-114.42C265.44,-105.98 311.48,-92.86 360.52,-78.09"/>
<polygon fill="midnightblue" stroke="midnightblue" points="361.81,-81.36 370.37,-75.11 359.78,-74.66 361.81,-81.36"/>
</g>
<!-- Node8 -->
<g id="node8" class="node">
<title>Node8</title>
<g id="a_node8"><a xlink:href="Serializable_8hpp.html" target="_top" xlink:title=" ">
<polygon fill="none" stroke="black" points="122,-57.5 122,-77.5 284,-77.5 284,-57.5 122,-57.5"/>
<text text-anchor="middle" x="203" y="-64.7" font-family="-apple-system, BlinkMacSystemFont, 'Segoe UI', Roboto, Oxygen, Ubuntu, Cantarell, 'Fira Sans', 'Droid Sans', 'Helvetica Neue', sans-serif" font-size="11.00">libmirai/Types/Serializable.hpp</text>
</a>
</g>
</g>
<!-- Node5&#45;&gt;Node8 -->
<g id="edge10" class="edge">
<title>Node5&#45;&gt;Node8</title>
<path fill="none" stroke="midnightblue" d="M203,-114.42C203,-107.22 203,-96.9 203,-87.86"/>
<polygon fill="midnightblue" stroke="midnightblue" points="206.5,-87.78 203,-77.78 199.5,-87.78 206.5,-87.78"/>
</g>
<!-- Node8&#45;&gt;Node4 -->
<g id="edge11" class="edge">
<title>Node8&#45;&gt;Node4</title>
<path fill="none" stroke="midnightblue" d="M241.87,-57.48C282.68,-48.01 346.95,-33.09 391.16,-22.83"/>
<polygon fill="midnightblue" stroke="midnightblue" points="392.16,-26.2 401.11,-20.53 390.58,-19.38 392.16,-26.2"/>
</g>
</g>
</svg>
