<?xml version="1.0" encoding="UTF-8" standalone="no"?>
<!DOCTYPE svg PUBLIC "-//W3C//DTD SVG 1.1//EN"
 "http://www.w3.org/Graphics/SVG/1.1/DTD/svg11.dtd">
<!-- Generated by graphviz version 2.43.0 (0)
 -->
<!-- Title: libmirai/public/libmirai/Events/GroupMessageEvent.hpp Pages: 1 -->
<svg width="2289pt" height="407pt"
 viewBox="0.00 0.00 2289.00 407.00" xmlns="http://www.w3.org/2000/svg" xmlns:xlink="http://www.w3.org/1999/xlink">
<g id="graph0" class="graph" transform="scale(1 1) rotate(0) translate(4 403)">
<title>libmirai/public/libmirai/Events/GroupMessageEvent.hpp</title>
<!-- Node1 -->
<g id="node1" class="node">
<title>Node1</title>
<g id="a_node1"><a xlink:title=" ">
<polygon fill="#bfbfbf" stroke="black" points="1949.5,-366.5 1949.5,-398.5 2148.5,-398.5 2148.5,-366.5 1949.5,-366.5"/>
<text text-anchor="start" x="1957.5" y="-385.7" font-family="-apple-system,BlinkMacSystemFont,'SegoeUI',Roboto,Oxygen,Ubuntu,Cantarell,'FiraSans','DroidSans','HelveticaNeue',sans-serif" font-size="11.00">libmirai/public/libmirai</text>
<text text-anchor="middle" x="2049" y="-373.7" font-family="-apple-system,BlinkMacSystemFont,'SegoeUI',Roboto,Oxygen,Ubuntu,Cantarell,'FiraSans','DroidSans','HelveticaNeue',sans-serif" font-size="11.00">/Events/GroupMessageEvent.hpp</text>
</a>
</g>
</g>
<!-- Node2 -->
<g id="node2" class="node">
<title>Node2</title>
<g id="a_node2"><a xlink:title=" ">
<polygon fill="none" stroke="#bfbfbf" points="1034,-57.5 1034,-77.5 1082,-77.5 1082,-57.5 1034,-57.5"/>
<text text-anchor="middle" x="1058" y="-64.7" font-family="-apple-system,BlinkMacSystemFont,'SegoeUI',Roboto,Oxygen,Ubuntu,Cantarell,'FiraSans','DroidSans','HelveticaNeue',sans-serif" font-size="11.00">string</text>
</a>
</g>
</g>
<!-- Node1&#45;&gt;Node2 -->
<g id="edge1" class="edge">
<title>Node1&#45;&gt;Node2</title>
<path fill="none" stroke="midnightblue" d="M1949.46,-381.31C1797.46,-379.61 1498.82,-370.79 1249,-330 1131.01,-310.73 1100.95,-302.97 989,-261 924.05,-236.65 885.64,-250.9 849,-192 844.07,-184.07 844.06,-178.92 849,-171 859.24,-154.58 971.11,-105.37 1026.83,-81.61"/>
<polygon fill="midnightblue" stroke="midnightblue" points="1028.39,-84.75 1036.23,-77.62 1025.66,-78.31 1028.39,-84.75"/>
</g>
<!-- Node3 -->
<g id="node3" class="node">
<title>Node3</title>
<g id="a_node3"><a xlink:title=" ">
<polygon fill="none" stroke="#bfbfbf" points="1157,-0.5 1157,-20.5 1303,-20.5 1303,-0.5 1157,-0.5"/>
<text text-anchor="middle" x="1230" y="-7.7" font-family="-apple-system,BlinkMacSystemFont,'SegoeUI',Roboto,Oxygen,Ubuntu,Cantarell,'FiraSans','DroidSans','HelveticaNeue',sans-serif" font-size="11.00">nlohmann/json_fwd.hpp</text>
</a>
</g>
</g>
<!-- Node1&#45;&gt;Node3 -->
<g id="edge2" class="edge">
<title>Node1&#45;&gt;Node3</title>
<path fill="none" stroke="midnightblue" d="M2137.04,-366.46C2202.67,-349.61 2281,-314.95 2281,-245.5 2281,-245.5 2281,-245.5 2281,-123.5 2281,-79.28 2247.91,-73.78 2207,-57 2125.52,-23.57 1534.49,-14.44 1313.28,-12.18"/>
<polygon fill="midnightblue" stroke="midnightblue" points="1313.06,-8.68 1303.03,-12.08 1312.99,-15.68 1313.06,-8.68"/>
</g>
<!-- Node4 -->
<g id="node4" class="node">
<title>Node4</title>
<g id="a_node4"><a xlink:href="BasicTypes_8hpp.html" target="_top" xlink:title=" ">
<polygon fill="none" stroke="black" points="1654.5,-114.5 1654.5,-134.5 1835.5,-134.5 1835.5,-114.5 1654.5,-114.5"/>
<text text-anchor="middle" x="1745" y="-121.7" font-family="-apple-system,BlinkMacSystemFont,'SegoeUI',Roboto,Oxygen,Ubuntu,Cantarell,'FiraSans','DroidSans','HelveticaNeue',sans-serif" font-size="11.00">libmirai/Types/BasicTypes.hpp</text>
</a>
</g>
</g>
<!-- Node1&#45;&gt;Node4 -->
<g id="edge3" class="edge">
<title>Node1&#45;&gt;Node4</title>
<path fill="none" stroke="midnightblue" d="M2047,-366.13C2042.39,-336.19 2028.46,-269.38 1992,-228 1945.82,-175.58 1868.6,-149.37 1812.77,-136.67"/>
<polygon fill="midnightblue" stroke="midnightblue" points="1813.48,-133.24 1802.96,-134.53 1811.99,-140.08 1813.48,-133.24"/>
</g>
<!-- Node8 -->
<g id="node8" class="node">
<title>Node8</title>
<g id="a_node8"><a xlink:href="MessageChain_8hpp.html" target="_top" xlink:title=" ">
<polygon fill="none" stroke="black" points="1258,-297.5 1258,-329.5 1426,-329.5 1426,-297.5 1258,-297.5"/>
<text text-anchor="start" x="1266" y="-316.7" font-family="-apple-system,BlinkMacSystemFont,'SegoeUI',Roboto,Oxygen,Ubuntu,Cantarell,'FiraSans','DroidSans','HelveticaNeue',sans-serif" font-size="11.00">libmirai/Messages/Message</text>
<text text-anchor="middle" x="1342" y="-304.7" font-family="-apple-system,BlinkMacSystemFont,'SegoeUI',Roboto,Oxygen,Ubuntu,Cantarell,'FiraSans','DroidSans','HelveticaNeue',sans-serif" font-size="11.00">Chain.hpp</text>
</a>
</g>
</g>
<!-- Node1&#45;&gt;Node8 -->
<g id="edge10" class="edge">
<title>Node1&#45;&gt;Node8</title>
<path fill="none" stroke="midnightblue" d="M1949.2,-372.04C1812.78,-359.11 1569.81,-336.09 1436.31,-323.44"/>
<polygon fill="midnightblue" stroke="midnightblue" points="1436.39,-319.93 1426.1,-322.47 1435.73,-326.9 1436.39,-319.93"/>
</g>
<!-- Node33 -->
<g id="node31" class="node">
<title>Node33</title>
<g id="a_node31"><a xlink:href="EventBase_8hpp.html" target="_top" xlink:title=" ">
<polygon fill="none" stroke="black" points="2153.5,-114.5 2153.5,-134.5 2252.5,-134.5 2252.5,-114.5 2153.5,-114.5"/>
<text text-anchor="middle" x="2203" y="-121.7" font-family="-apple-system,BlinkMacSystemFont,'SegoeUI',Roboto,Oxygen,Ubuntu,Cantarell,'FiraSans','DroidSans','HelveticaNeue',sans-serif" font-size="11.00">EventBase.hpp</text>
</a>
</g>
</g>
<!-- Node1&#45;&gt;Node33 -->
<g id="edge83" class="edge">
<title>Node1&#45;&gt;Node33</title>
<path fill="none" stroke="midnightblue" d="M2061.99,-366.22C2080.51,-344.01 2114.91,-301.06 2139,-261 2163.03,-221.04 2184.78,-170.63 2195.66,-143.98"/>
<polygon fill="midnightblue" stroke="midnightblue" points="2198.91,-145.28 2199.41,-134.7 2192.42,-142.66 2198.91,-145.28"/>
</g>
<!-- Node4&#45;&gt;Node2 -->
<g id="edge6" class="edge">
<title>Node4&#45;&gt;Node2</title>
<path fill="none" stroke="midnightblue" d="M1654.23,-115.17C1649.42,-114.77 1644.65,-114.37 1640,-114 1413.06,-95.74 1355.5,-101.11 1129,-78 1117.06,-76.78 1104.04,-75.13 1092.45,-73.55"/>
<polygon fill="midnightblue" stroke="midnightblue" points="1092.66,-70.05 1082.27,-72.13 1091.69,-76.98 1092.66,-70.05"/>
</g>
<!-- Node4&#45;&gt;Node3 -->
<g id="edge7" class="edge">
<title>Node4&#45;&gt;Node3</title>
<path fill="none" stroke="midnightblue" d="M1729.75,-114.44C1704.27,-99.76 1650.96,-71 1602,-57 1505.31,-29.35 1389.77,-18.51 1313.39,-14.25"/>
<polygon fill="midnightblue" stroke="midnightblue" points="1313.52,-10.75 1303.35,-13.71 1313.15,-17.74 1313.52,-10.75"/>
</g>
<!-- Node5 -->
<g id="node5" class="node">
<title>Node5</title>
<g id="a_node5"><a xlink:title=" ">
<polygon fill="none" stroke="#bfbfbf" points="1718,-57.5 1718,-77.5 1772,-77.5 1772,-57.5 1718,-57.5"/>
<text text-anchor="middle" x="1745" y="-64.7" font-family="-apple-system,BlinkMacSystemFont,'SegoeUI',Roboto,Oxygen,Ubuntu,Cantarell,'FiraSans','DroidSans','HelveticaNeue',sans-serif" font-size="11.00">chrono</text>
</a>
</g>
</g>
<!-- Node4&#45;&gt;Node5 -->
<g id="edge4" class="edge">
<title>Node4&#45;&gt;Node5</title>
<path fill="none" stroke="midnightblue" d="M1745,-114.42C1745,-107.22 1745,-96.9 1745,-87.86"/>
<polygon fill="midnightblue" stroke="midnightblue" points="1748.5,-87.78 1745,-77.78 1741.5,-87.78 1748.5,-87.78"/>
</g>
<!-- Node6 -->
<g id="node6" class="node">
<title>Node6</title>
<g id="a_node6"><a xlink:title=" ">
<polygon fill="none" stroke="#bfbfbf" points="1865.5,-57.5 1865.5,-77.5 1912.5,-77.5 1912.5,-57.5 1865.5,-57.5"/>
<text text-anchor="middle" x="1889" y="-64.7" font-family="-apple-system,BlinkMacSystemFont,'SegoeUI',Roboto,Oxygen,Ubuntu,Cantarell,'FiraSans','DroidSans','HelveticaNeue',sans-serif" font-size="11.00">ctime</text>
</a>
</g>
</g>
<!-- Node4&#45;&gt;Node6 -->
<g id="edge5" class="edge">
<title>Node4&#45;&gt;Node6</title>
<path fill="none" stroke="midnightblue" d="M1768.78,-114.42C1792.44,-105.38 1828.95,-91.44 1855.53,-81.28"/>
<polygon fill="midnightblue" stroke="midnightblue" points="1857.09,-84.43 1865.19,-77.6 1854.6,-77.89 1857.09,-84.43"/>
</g>
<!-- Node7 -->
<g id="node7" class="node">
<title>Node7</title>
<g id="a_node7"><a xlink:href="Serializable_8hpp.html" target="_top" xlink:title=" ">
<polygon fill="none" stroke="black" points="1138.5,-57.5 1138.5,-77.5 1321.5,-77.5 1321.5,-57.5 1138.5,-57.5"/>
<text text-anchor="middle" x="1230" y="-64.7" font-family="-apple-system,BlinkMacSystemFont,'SegoeUI',Roboto,Oxygen,Ubuntu,Cantarell,'FiraSans','DroidSans','HelveticaNeue',sans-serif" font-size="11.00">libmirai/Types/Serializable.hpp</text>
</a>
</g>
</g>
<!-- Node4&#45;&gt;Node7 -->
<g id="edge8" class="edge">
<title>Node4&#45;&gt;Node7</title>
<path fill="none" stroke="midnightblue" d="M1660.53,-114.48C1568.21,-104.62 1420.64,-88.86 1324.52,-78.59"/>
<polygon fill="midnightblue" stroke="midnightblue" points="1324.83,-75.11 1314.51,-77.53 1324.08,-82.07 1324.83,-75.11"/>
</g>
<!-- Node7&#45;&gt;Node3 -->
<g id="edge9" class="edge">
<title>Node7&#45;&gt;Node3</title>
<path fill="none" stroke="midnightblue" d="M1230,-57.42C1230,-50.22 1230,-39.9 1230,-30.86"/>
<polygon fill="midnightblue" stroke="midnightblue" points="1233.5,-30.78 1230,-20.78 1226.5,-30.78 1233.5,-30.78"/>
</g>
<!-- Node8&#45;&gt;Node3 -->
<g id="edge19" class="edge">
<title>Node8&#45;&gt;Node3</title>
<path fill="none" stroke="midnightblue" d="M1426.28,-309.47C1594.94,-302.9 1962.28,-285.92 2014,-261 2056.92,-240.32 2087,-230.14 2087,-182.5 2087,-182.5 2087,-182.5 2087,-123.5 2087,-60.18 2021.96,-74.13 1961,-57 1841.39,-23.4 1478.47,-14.58 1313.37,-12.29"/>
<polygon fill="midnightblue" stroke="midnightblue" points="1313.31,-8.79 1303.26,-12.16 1313.21,-15.79 1313.31,-8.79"/>
</g>
<!-- Node8&#45;&gt;Node6 -->
<g id="edge12" class="edge">
<title>Node8&#45;&gt;Node6</title>
<path fill="none" stroke="midnightblue" d="M1426.18,-312.05C1593.34,-310.29 1954.36,-301.74 1992,-261 2043.5,-205.26 1951.45,-118.97 1908.88,-84"/>
<polygon fill="midnightblue" stroke="midnightblue" points="1910.84,-81.08 1900.85,-77.53 1906.44,-86.53 1910.84,-81.08"/>
</g>
<!-- Node9 -->
<g id="node9" class="node">
<title>Node9</title>
<g id="a_node9"><a xlink:title=" ">
<polygon fill="none" stroke="#bfbfbf" points="1616.5,-234.5 1616.5,-254.5 1673.5,-254.5 1673.5,-234.5 1616.5,-234.5"/>
<text text-anchor="middle" x="1645" y="-241.7" font-family="-apple-system,BlinkMacSystemFont,'SegoeUI',Roboto,Oxygen,Ubuntu,Cantarell,'FiraSans','DroidSans','HelveticaNeue',sans-serif" font-size="11.00">cstddef</text>
</a>
</g>
</g>
<!-- Node8&#45;&gt;Node9 -->
<g id="edge11" class="edge">
<title>Node8&#45;&gt;Node9</title>
<path fill="none" stroke="midnightblue" d="M1426.18,-299.14C1477.45,-290.18 1544.03,-277.09 1602,-261 1605.39,-260.06 1608.9,-258.98 1612.38,-257.84"/>
<polygon fill="midnightblue" stroke="midnightblue" points="1613.69,-261.09 1622,-254.51 1611.4,-254.47 1613.69,-261.09"/>
</g>
<!-- Node10 -->
<g id="node10" class="node">
<title>Node10</title>
<g id="a_node10"><a xlink:title=" ">
<polygon fill="none" stroke="#bfbfbf" points="2115,-57.5 2115,-77.5 2177,-77.5 2177,-57.5 2115,-57.5"/>
<text text-anchor="middle" x="2146" y="-64.7" font-family="-apple-system,BlinkMacSystemFont,'SegoeUI',Roboto,Oxygen,Ubuntu,Cantarell,'FiraSans','DroidSans','HelveticaNeue',sans-serif" font-size="11.00">memory</text>
</a>
</g>
</g>
<!-- Node8&#45;&gt;Node10 -->
<g id="edge13" class="edge">
<title>Node8&#45;&gt;Node10</title>
<path fill="none" stroke="midnightblue" d="M1426.09,-312.34C1613.01,-311.19 2050.52,-303.9 2101,-261 2127.34,-238.61 2140.09,-132.24 2144.33,-87.94"/>
<polygon fill="midnightblue" stroke="midnightblue" points="2147.82,-88.15 2145.25,-77.88 2140.85,-87.52 2147.82,-88.15"/>
</g>
<!-- Node11 -->
<g id="node11" class="node">
<title>Node11</title>
<g id="a_node11"><a xlink:title=" ">
<polygon fill="none" stroke="#bfbfbf" points="1691.5,-234.5 1691.5,-254.5 1752.5,-254.5 1752.5,-234.5 1691.5,-234.5"/>
<text text-anchor="middle" x="1722" y="-241.7" font-family="-apple-system,BlinkMacSystemFont,'SegoeUI',Roboto,Oxygen,Ubuntu,Cantarell,'FiraSans','DroidSans','HelveticaNeue',sans-serif" font-size="11.00">optional</text>
</a>
</g>
</g>
<!-- Node8&#45;&gt;Node11 -->
<g id="edge14" class="edge">
<title>Node8&#45;&gt;Node11</title>
<path fill="none" stroke="midnightblue" d="M1426.19,-304.94C1495.64,-297.47 1596.32,-283.79 1682,-261 1685.17,-260.16 1688.43,-259.15 1691.65,-258.05"/>
<polygon fill="midnightblue" stroke="midnightblue" points="1692.93,-261.31 1701.11,-254.59 1690.52,-254.74 1692.93,-261.31"/>
</g>
<!-- Node12 -->
<g id="node12" class="node">
<title>Node12</title>
<g id="a_node12"><a xlink:title=" ">
<polygon fill="none" stroke="#bfbfbf" points="1327.5,-171.5 1327.5,-191.5 1398.5,-191.5 1398.5,-171.5 1327.5,-171.5"/>
<text text-anchor="middle" x="1363" y="-178.7" font-family="-apple-system,BlinkMacSystemFont,'SegoeUI',Roboto,Oxygen,Ubuntu,Cantarell,'FiraSans','DroidSans','HelveticaNeue',sans-serif" font-size="11.00">stdexcept</text>
</a>
</g>
</g>
<!-- Node8&#45;&gt;Node12 -->
<g id="edge15" class="edge">
<title>Node8&#45;&gt;Node12</title>
<path fill="none" stroke="midnightblue" d="M1335.2,-297.49C1328.4,-280.31 1320,-251.51 1328,-228 1331.62,-217.36 1338.85,-207.26 1345.8,-199.29"/>
<polygon fill="midnightblue" stroke="midnightblue" points="1348.5,-201.52 1352.78,-191.83 1343.39,-196.74 1348.5,-201.52"/>
</g>
<!-- Node13 -->
<g id="node13" class="node">
<title>Node13</title>
<g id="a_node13"><a xlink:title=" ">
<polygon fill="none" stroke="#bfbfbf" points="1771,-234.5 1771,-254.5 1847,-254.5 1847,-234.5 1771,-234.5"/>
<text text-anchor="middle" x="1809" y="-241.7" font-family="-apple-system,BlinkMacSystemFont,'SegoeUI',Roboto,Oxygen,Ubuntu,Cantarell,'FiraSans','DroidSans','HelveticaNeue',sans-serif" font-size="11.00">type_traits</text>
</a>
</g>
</g>
<!-- Node8&#45;&gt;Node13 -->
<g id="edge16" class="edge">
<title>Node8&#45;&gt;Node13</title>
<path fill="none" stroke="midnightblue" d="M1426.27,-306.87C1511.45,-300.08 1646.49,-286.28 1761,-261 1765.23,-260.07 1769.62,-258.91 1773.95,-257.66"/>
<polygon fill="midnightblue" stroke="midnightblue" points="1775.31,-260.91 1783.84,-254.62 1773.25,-254.21 1775.31,-260.91"/>
</g>
<!-- Node14 -->
<g id="node14" class="node">
<title>Node14</title>
<g id="a_node14"><a xlink:title=" ">
<polygon fill="none" stroke="#bfbfbf" points="1865,-234.5 1865,-254.5 1913,-254.5 1913,-234.5 1865,-234.5"/>
<text text-anchor="middle" x="1889" y="-241.7" font-family="-apple-system,BlinkMacSystemFont,'SegoeUI',Roboto,Oxygen,Ubuntu,Cantarell,'FiraSans','DroidSans','HelveticaNeue',sans-serif" font-size="11.00">utility</text>
</a>
</g>
</g>
<!-- Node8&#45;&gt;Node14 -->
<g id="edge17" class="edge">
<title>Node8&#45;&gt;Node14</title>
<path fill="none" stroke="midnightblue" d="M1426.38,-312.73C1529.55,-311.04 1708.61,-301.71 1856,-261 1858.46,-260.32 1860.96,-259.47 1863.42,-258.53"/>
<polygon fill="midnightblue" stroke="midnightblue" points="1864.86,-261.72 1872.63,-254.52 1862.07,-255.3 1864.86,-261.72"/>
</g>
<!-- Node15 -->
<g id="node15" class="node">
<title>Node15</title>
<g id="a_node15"><a xlink:title=" ">
<polygon fill="none" stroke="#bfbfbf" points="1931,-234.5 1931,-254.5 1983,-254.5 1983,-234.5 1931,-234.5"/>
<text text-anchor="middle" x="1957" y="-241.7" font-family="-apple-system,BlinkMacSystemFont,'SegoeUI',Roboto,Oxygen,Ubuntu,Cantarell,'FiraSans','DroidSans','HelveticaNeue',sans-serif" font-size="11.00">vector</text>
</a>
</g>
</g>
<!-- Node8&#45;&gt;Node15 -->
<g id="edge18" class="edge">
<title>Node8&#45;&gt;Node15</title>
<path fill="none" stroke="midnightblue" d="M1426.02,-308.43C1563.54,-301.2 1830.54,-284.62 1922,-261 1924.68,-260.31 1927.42,-259.43 1930.12,-258.44"/>
<polygon fill="midnightblue" stroke="midnightblue" points="1931.68,-261.59 1939.6,-254.55 1929.02,-255.11 1931.68,-261.59"/>
</g>
<!-- Node16 -->
<g id="node16" class="node">
<title>Node16</title>
<g id="a_node16"><a xlink:href="Exceptions_8hpp.html" target="_top" xlink:title=" ">
<polygon fill="none" stroke="black" points="1156,-228.5 1156,-260.5 1276,-260.5 1276,-228.5 1156,-228.5"/>
<text text-anchor="start" x="1164" y="-247.7" font-family="-apple-system,BlinkMacSystemFont,'SegoeUI',Roboto,Oxygen,Ubuntu,Cantarell,'FiraSans','DroidSans','HelveticaNeue',sans-serif" font-size="11.00">libmirai/Exceptions</text>
<text text-anchor="middle" x="1216" y="-235.7" font-family="-apple-system,BlinkMacSystemFont,'SegoeUI',Roboto,Oxygen,Ubuntu,Cantarell,'FiraSans','DroidSans','HelveticaNeue',sans-serif" font-size="11.00">/Exceptions.hpp</text>
</a>
</g>
</g>
<!-- Node8&#45;&gt;Node16 -->
<g id="edge20" class="edge">
<title>Node8&#45;&gt;Node16</title>
<path fill="none" stroke="midnightblue" d="M1313.72,-297.46C1295.93,-288 1272.77,-275.69 1253.47,-265.42"/>
<polygon fill="midnightblue" stroke="midnightblue" points="1255.09,-262.32 1244.62,-260.72 1251.8,-268.5 1255.09,-262.32"/>
</g>
<!-- Node17 -->
<g id="node17" class="node">
<title>Node17</title>
<g id="a_node17"><a xlink:href="AppMessage_8hpp.html" target="_top" xlink:title=" ">
<polygon fill="none" stroke="black" points="1161,-171.5 1161,-191.5 1271,-191.5 1271,-171.5 1161,-171.5"/>
<text text-anchor="middle" x="1216" y="-178.7" font-family="-apple-system,BlinkMacSystemFont,'SegoeUI',Roboto,Oxygen,Ubuntu,Cantarell,'FiraSans','DroidSans','HelveticaNeue',sans-serif" font-size="11.00">AppMessage.hpp</text>
</a>
</g>
</g>
<!-- Node8&#45;&gt;Node17 -->
<g id="edge23" class="edge">
<title>Node8&#45;&gt;Node17</title>
<path fill="none" stroke="midnightblue" d="M1257.94,-300.65C1211.73,-292.23 1160.99,-279.17 1147,-261 1138.05,-249.38 1140.05,-240.91 1147,-228 1154.57,-213.94 1168.6,-203.5 1182.05,-196.2"/>
<polygon fill="midnightblue" stroke="midnightblue" points="1183.79,-199.24 1191.17,-191.63 1180.66,-192.98 1183.79,-199.24"/>
</g>
<!-- Node18 -->
<g id="node18" class="node">
<title>Node18</title>
<g id="a_node18"><a xlink:href="MessageBase_8hpp.html" target="_top" xlink:title=" ">
<polygon fill="none" stroke="black" points="1072,-114.5 1072,-134.5 1188,-134.5 1188,-114.5 1072,-114.5"/>
<text text-anchor="middle" x="1130" y="-121.7" font-family="-apple-system,BlinkMacSystemFont,'SegoeUI',Roboto,Oxygen,Ubuntu,Cantarell,'FiraSans','DroidSans','HelveticaNeue',sans-serif" font-size="11.00">MessageBase.hpp</text>
</a>
</g>
</g>
<!-- Node8&#45;&gt;Node18 -->
<g id="edge66" class="edge">
<title>Node8&#45;&gt;Node18</title>
<path fill="none" stroke="midnightblue" d="M1257.8,-301.41C1208.76,-293.08 1153.6,-279.86 1138,-261 1110.68,-227.98 1118.14,-173.49 1124.75,-144.7"/>
<polygon fill="midnightblue" stroke="midnightblue" points="1128.22,-145.26 1127.25,-134.71 1121.43,-143.56 1128.22,-145.26"/>
</g>
<!-- Node19 -->
<g id="node19" class="node">
<title>Node19</title>
<g id="a_node19"><a xlink:href="AtAllMessage_8hpp.html" target="_top" xlink:title=" ">
<polygon fill="none" stroke="black" points="989.5,-171.5 989.5,-191.5 1104.5,-191.5 1104.5,-171.5 989.5,-171.5"/>
<text text-anchor="middle" x="1047" y="-178.7" font-family="-apple-system,BlinkMacSystemFont,'SegoeUI',Roboto,Oxygen,Ubuntu,Cantarell,'FiraSans','DroidSans','HelveticaNeue',sans-serif" font-size="11.00">AtAllMessage.hpp</text>
</a>
</g>
</g>
<!-- Node8&#45;&gt;Node19 -->
<g id="edge31" class="edge">
<title>Node8&#45;&gt;Node19</title>
<path fill="none" stroke="midnightblue" d="M1257.79,-305.18C1190.46,-297.73 1103.02,-283.95 1076,-261 1058.48,-246.12 1051.54,-219.66 1048.79,-201.61"/>
<polygon fill="midnightblue" stroke="midnightblue" points="1052.26,-201.14 1047.57,-191.64 1045.31,-201.99 1052.26,-201.14"/>
</g>
<!-- Node20 -->
<g id="node20" class="node">
<title>Node20</title>
<g id="a_node20"><a xlink:href="AtMessage_8hpp.html" target="_top" xlink:title=" ">
<polygon fill="none" stroke="black" points="1773.5,-171.5 1773.5,-191.5 1874.5,-191.5 1874.5,-171.5 1773.5,-171.5"/>
<text text-anchor="middle" x="1824" y="-178.7" font-family="-apple-system,BlinkMacSystemFont,'SegoeUI',Roboto,Oxygen,Ubuntu,Cantarell,'FiraSans','DroidSans','HelveticaNeue',sans-serif" font-size="11.00">AtMessage.hpp</text>
</a>
</g>
</g>
<!-- Node8&#45;&gt;Node20 -->
<g id="edge35" class="edge">
<title>Node8&#45;&gt;Node20</title>
<path fill="none" stroke="midnightblue" d="M1426.25,-303.44C1470.53,-296.24 1524.66,-283.47 1569,-261 1588.95,-250.89 1586.97,-237.95 1607,-228 1633.94,-214.62 1708.85,-200.62 1763.13,-191.74"/>
<polygon fill="midnightblue" stroke="midnightblue" points="1763.69,-195.2 1773.01,-190.15 1762.58,-188.29 1763.69,-195.2"/>
</g>
<!-- Node21 -->
<g id="node21" class="node">
<title>Node21</title>
<g id="a_node21"><a xlink:href="AudioMessage_8hpp.html" target="_top" xlink:title=" ">
<polygon fill="none" stroke="red" points="1417,-171.5 1417,-191.5 1537,-191.5 1537,-171.5 1417,-171.5"/>
<text text-anchor="middle" x="1477" y="-178.7" font-family="-apple-system,BlinkMacSystemFont,'SegoeUI',Roboto,Oxygen,Ubuntu,Cantarell,'FiraSans','DroidSans','HelveticaNeue',sans-serif" font-size="11.00">AudioMessage.hpp</text>
</a>
</g>
</g>
<!-- Node8&#45;&gt;Node21 -->
<g id="edge40" class="edge">
<title>Node8&#45;&gt;Node21</title>
<path fill="none" stroke="midnightblue" d="M1342.41,-297.49C1343.7,-278.98 1348.52,-247.56 1366,-228 1380.37,-211.92 1401.28,-201.4 1421.08,-194.58"/>
<polygon fill="midnightblue" stroke="midnightblue" points="1422.22,-197.89 1430.68,-191.52 1420.09,-191.22 1422.22,-197.89"/>
</g>
<!-- Node23 -->
<g id="node22" class="node">
<title>Node23</title>
<g id="a_node22"><a xlink:href="DiceMessage_8hpp.html" target="_top" xlink:title=" ">
<polygon fill="none" stroke="black" points="858.5,-171.5 858.5,-191.5 971.5,-191.5 971.5,-171.5 858.5,-171.5"/>
<text text-anchor="middle" x="915" y="-178.7" font-family="-apple-system,BlinkMacSystemFont,'SegoeUI',Roboto,Oxygen,Ubuntu,Cantarell,'FiraSans','DroidSans','HelveticaNeue',sans-serif" font-size="11.00">DiceMessage.hpp</text>
</a>
</g>
</g>
<!-- Node8&#45;&gt;Node23 -->
<g id="edge44" class="edge">
<title>Node8&#45;&gt;Node23</title>
<path fill="none" stroke="midnightblue" d="M1257.83,-305.29C1198.86,-298.39 1118.94,-285.28 1052,-261 1040.2,-256.72 975.17,-218.39 939.11,-196.92"/>
<polygon fill="midnightblue" stroke="midnightblue" points="940.58,-193.72 930.2,-191.6 936.99,-199.73 940.58,-193.72"/>
</g>
<!-- Node24 -->
<g id="node23" class="node">
<title>Node24</title>
<g id="a_node23"><a xlink:href="FaceMessage_8hpp.html" target="_top" xlink:title=" ">
<polygon fill="none" stroke="black" points="0,-171.5 0,-191.5 114,-191.5 114,-171.5 0,-171.5"/>
<text text-anchor="middle" x="57" y="-178.7" font-family="-apple-system,BlinkMacSystemFont,'SegoeUI',Roboto,Oxygen,Ubuntu,Cantarell,'FiraSans','DroidSans','HelveticaNeue',sans-serif" font-size="11.00">FaceMessage.hpp</text>
</a>
</g>
</g>
<!-- Node8&#45;&gt;Node24 -->
<g id="edge48" class="edge">
<title>Node8&#45;&gt;Node24</title>
<path fill="none" stroke="midnightblue" d="M1257.86,-312.17C1095.51,-310.56 727.98,-302.21 422,-261 304.38,-245.16 168.29,-211.82 100.32,-194.12"/>
<polygon fill="midnightblue" stroke="midnightblue" points="100.97,-190.67 90.41,-191.52 99.19,-197.44 100.97,-190.67"/>
</g>
<!-- Node25 -->
<g id="node24" class="node">
<title>Node25</title>
<g id="a_node24"><a xlink:href="FlashImageMessage_8hpp.html" target="_top" xlink:title=" ">
<polygon fill="none" stroke="black" points="1408,-234.5 1408,-254.5 1560,-254.5 1560,-234.5 1408,-234.5"/>
<text text-anchor="middle" x="1484" y="-241.7" font-family="-apple-system,BlinkMacSystemFont,'SegoeUI',Roboto,Oxygen,Ubuntu,Cantarell,'FiraSans','DroidSans','HelveticaNeue',sans-serif" font-size="11.00">FlashImageMessage.hpp</text>
</a>
</g>
</g>
<!-- Node8&#45;&gt;Node25 -->
<g id="edge52" class="edge">
<title>Node8&#45;&gt;Node25</title>
<path fill="none" stroke="midnightblue" d="M1373.87,-297.46C1398.45,-285.87 1432.12,-269.98 1455.75,-258.83"/>
<polygon fill="midnightblue" stroke="midnightblue" points="1457.34,-261.95 1464.89,-254.52 1454.35,-255.62 1457.34,-261.95"/>
</g>
<!-- Node26 -->
<g id="node25" class="node">
<title>Node26</title>
<g id="a_node25"><a xlink:href="ImageMessage_8hpp.html" target="_top" xlink:title=" ">
<polygon fill="none" stroke="red" points="1593.5,-171.5 1593.5,-191.5 1716.5,-191.5 1716.5,-171.5 1593.5,-171.5"/>
<text text-anchor="middle" x="1655" y="-178.7" font-family="-apple-system,BlinkMacSystemFont,'SegoeUI',Roboto,Oxygen,Ubuntu,Cantarell,'FiraSans','DroidSans','HelveticaNeue',sans-serif" font-size="11.00">ImageMessage.hpp</text>
</a>
</g>
</g>
<!-- Node8&#45;&gt;Node26 -->
<g id="edge61" class="edge">
<title>Node8&#45;&gt;Node26</title>
<path fill="none" stroke="midnightblue" d="M1347.85,-297.21C1356.13,-277.79 1373.19,-244.79 1399,-228 1428.72,-208.67 1518.37,-195.93 1583.2,-188.97"/>
<polygon fill="midnightblue" stroke="midnightblue" points="1583.8,-192.43 1593.38,-187.9 1583.07,-185.47 1583.8,-192.43"/>
</g>
<!-- Node27 -->
<g id="node26" class="node">
<title>Node27</title>
<g id="a_node26"><a xlink:href="JsonMessage_8hpp.html" target="_top" xlink:title=" ">
<polygon fill="none" stroke="black" points="132,-171.5 132,-191.5 244,-191.5 244,-171.5 132,-171.5"/>
<text text-anchor="middle" x="188" y="-178.7" font-family="-apple-system,BlinkMacSystemFont,'SegoeUI',Roboto,Oxygen,Ubuntu,Cantarell,'FiraSans','DroidSans','HelveticaNeue',sans-serif" font-size="11.00">JsonMessage.hpp</text>
</a>
</g>
</g>
<!-- Node8&#45;&gt;Node27 -->
<g id="edge62" class="edge">
<title>Node8&#45;&gt;Node27</title>
<path fill="none" stroke="midnightblue" d="M1257.81,-309.15C1124.89,-303.23 858.43,-288.84 634,-261 490.94,-243.25 324.02,-210.66 240.8,-193.59"/>
<polygon fill="midnightblue" stroke="midnightblue" points="241.34,-190.13 230.84,-191.54 239.92,-196.98 241.34,-190.13"/>
</g>
<!-- Node28 -->
<g id="node27" class="node">
<title>Node28</title>
<g id="a_node27"><a xlink:href="MiraiCodeMessage_8hpp.html" target="_top" xlink:title=" ">
<polygon fill="none" stroke="black" points="262,-171.5 262,-191.5 406,-191.5 406,-171.5 262,-171.5"/>
<text text-anchor="middle" x="334" y="-178.7" font-family="-apple-system,BlinkMacSystemFont,'SegoeUI',Roboto,Oxygen,Ubuntu,Cantarell,'FiraSans','DroidSans','HelveticaNeue',sans-serif" font-size="11.00">MiraiCodeMessage.hpp</text>
</a>
</g>
</g>
<!-- Node8&#45;&gt;Node28 -->
<g id="edge67" class="edge">
<title>Node8&#45;&gt;Node28</title>
<path fill="none" stroke="midnightblue" d="M1257.71,-304.05C1164.3,-294.48 1009.22,-278 876,-261 704.86,-239.16 504.02,-208.84 401.57,-193.04"/>
<polygon fill="midnightblue" stroke="midnightblue" points="402.08,-189.57 391.67,-191.51 401.02,-196.49 402.08,-189.57"/>
</g>
<!-- Node29 -->
<g id="node28" class="node">
<title>Node29</title>
<g id="a_node28"><a xlink:href="PlainMessage_8hpp.html" target="_top" xlink:title=" ">
<polygon fill="none" stroke="black" points="424,-171.5 424,-191.5 540,-191.5 540,-171.5 424,-171.5"/>
<text text-anchor="middle" x="482" y="-178.7" font-family="-apple-system,BlinkMacSystemFont,'SegoeUI',Roboto,Oxygen,Ubuntu,Cantarell,'FiraSans','DroidSans','HelveticaNeue',sans-serif" font-size="11.00">PlainMessage.hpp</text>
</a>
</g>
</g>
<!-- Node8&#45;&gt;Node29 -->
<g id="edge71" class="edge">
<title>Node8&#45;&gt;Node29</title>
<path fill="none" stroke="midnightblue" d="M1257.63,-308.21C1150.87,-301.78 973.69,-287.47 914,-261 893.55,-251.93 896.49,-236.96 876,-228 745.05,-170.72 696.26,-208.48 550.31,-192.07"/>
<polygon fill="midnightblue" stroke="midnightblue" points="550.43,-188.56 540.09,-190.85 549.6,-195.51 550.43,-188.56"/>
</g>
<!-- Node30 -->
<g id="node29" class="node">
<title>Node30</title>
<g id="a_node29"><a xlink:href="PokeMessage_8hpp.html" target="_top" xlink:title=" ">
<polygon fill="none" stroke="red" points="558.5,-171.5 558.5,-191.5 673.5,-191.5 673.5,-171.5 558.5,-171.5"/>
<text text-anchor="middle" x="616" y="-178.7" font-family="-apple-system,BlinkMacSystemFont,'SegoeUI',Roboto,Oxygen,Ubuntu,Cantarell,'FiraSans','DroidSans','HelveticaNeue',sans-serif" font-size="11.00">PokeMessage.hpp</text>
</a>
</g>
</g>
<!-- Node8&#45;&gt;Node30 -->
<g id="edge75" class="edge">
<title>Node8&#45;&gt;Node30</title>
<path fill="none" stroke="midnightblue" d="M1257.88,-307.07C1160,-299.77 1005.01,-284.88 952,-261 931.6,-251.81 934.3,-237.39 914,-228 908.77,-225.58 769.84,-204.98 683.54,-192.34"/>
<polygon fill="midnightblue" stroke="midnightblue" points="683.95,-188.86 673.55,-190.88 682.94,-195.79 683.95,-188.86"/>
</g>
<!-- Node32 -->
<g id="node30" class="node">
<title>Node32</title>
<g id="a_node30"><a xlink:href="XmlMessage_8hpp.html" target="_top" xlink:title=" ">
<polygon fill="none" stroke="black" points="692,-171.5 692,-191.5 802,-191.5 802,-171.5 692,-171.5"/>
<text text-anchor="middle" x="747" y="-178.7" font-family="-apple-system,BlinkMacSystemFont,'SegoeUI',Roboto,Oxygen,Ubuntu,Cantarell,'FiraSans','DroidSans','HelveticaNeue',sans-serif" font-size="11.00">XmlMessage.hpp</text>
</a>
</g>
</g>
<!-- Node8&#45;&gt;Node32 -->
<g id="edge79" class="edge">
<title>Node8&#45;&gt;Node32</title>
<path fill="none" stroke="midnightblue" d="M1257.74,-305.66C1169.15,-297.5 1036.31,-282.25 990,-261 969.67,-251.67 971.98,-238.07 952,-228 908.24,-205.95 853.91,-194.51 812.19,-188.62"/>
<polygon fill="midnightblue" stroke="midnightblue" points="812.51,-185.13 802.13,-187.27 811.58,-192.07 812.51,-185.13"/>
</g>
<!-- Node16&#45;&gt;Node2 -->
<g id="edge22" class="edge">
<title>Node16&#45;&gt;Node2</title>
<path fill="none" stroke="midnightblue" d="M1245.04,-228.36C1266.41,-214.99 1290.12,-194.06 1280,-171 1264.95,-136.73 1250.66,-132.28 1218,-114 1177.98,-91.6 1126.04,-79.48 1092.37,-73.51"/>
<polygon fill="midnightblue" stroke="midnightblue" points="1092.56,-69.99 1082.12,-71.78 1091.39,-76.89 1092.56,-69.99"/>
</g>
<!-- Node16&#45;&gt;Node12 -->
<g id="edge21" class="edge">
<title>Node16&#45;&gt;Node12</title>
<path fill="none" stroke="midnightblue" d="M1252.34,-228.42C1276.74,-218.3 1308.56,-205.09 1331.81,-195.44"/>
<polygon fill="midnightblue" stroke="midnightblue" points="1333.31,-198.61 1341.2,-191.55 1330.62,-192.15 1333.31,-198.61"/>
</g>
<!-- Node17&#45;&gt;Node2 -->
<g id="edge24" class="edge">
<title>Node17&#45;&gt;Node2</title>
<path fill="none" stroke="midnightblue" d="M1215.97,-171.46C1215.43,-157.31 1212.32,-129.92 1197,-114 1182.41,-98.85 1128.51,-84.25 1092.27,-75.84"/>
<polygon fill="midnightblue" stroke="midnightblue" points="1092.64,-72.33 1082.11,-73.53 1091.09,-79.16 1092.64,-72.33"/>
</g>
<!-- Node17&#45;&gt;Node3 -->
<g id="edge25" class="edge">
<title>Node17&#45;&gt;Node3</title>
<path fill="none" stroke="midnightblue" d="M1233.25,-171.35C1259.89,-156.11 1310.07,-122.73 1330,-78 1341.91,-51.28 1310.72,-33.87 1280.1,-23.6"/>
<polygon fill="midnightblue" stroke="midnightblue" points="1280.83,-20.16 1270.24,-20.51 1278.73,-26.84 1280.83,-20.16"/>
</g>
<!-- Node17&#45;&gt;Node18 -->
<g id="edge26" class="edge">
<title>Node17&#45;&gt;Node18</title>
<path fill="none" stroke="midnightblue" d="M1201.8,-171.42C1188.48,-162.9 1168.33,-150.02 1152.77,-140.06"/>
<polygon fill="midnightblue" stroke="midnightblue" points="1154.53,-137.03 1144.22,-134.6 1150.76,-142.93 1154.53,-137.03"/>
</g>
<!-- Node18&#45;&gt;Node2 -->
<g id="edge28" class="edge">
<title>Node18&#45;&gt;Node2</title>
<path fill="none" stroke="midnightblue" d="M1118.11,-114.42C1107.34,-106.19 1091.23,-93.88 1078.4,-84.08"/>
<polygon fill="midnightblue" stroke="midnightblue" points="1080.22,-81.07 1070.15,-77.78 1075.97,-86.63 1080.22,-81.07"/>
</g>
<!-- Node18&#45;&gt;Node3 -->
<g id="edge29" class="edge">
<title>Node18&#45;&gt;Node3</title>
<path fill="none" stroke="midnightblue" d="M1126.94,-114.47C1122.91,-100.81 1117.59,-74.65 1129,-57 1139.26,-41.12 1156.53,-30.73 1173.92,-23.95"/>
<polygon fill="midnightblue" stroke="midnightblue" points="1175.29,-27.18 1183.55,-20.54 1172.95,-20.58 1175.29,-27.18"/>
</g>
<!-- Node18&#45;&gt;Node7 -->
<g id="edge30" class="edge">
<title>Node18&#45;&gt;Node7</title>
<path fill="none" stroke="midnightblue" d="M1146.51,-114.42C1162.29,-105.74 1186.3,-92.53 1204.53,-82.51"/>
<polygon fill="midnightblue" stroke="midnightblue" points="1206.39,-85.48 1213.46,-77.6 1203.01,-79.35 1206.39,-85.48"/>
</g>
<!-- Node18&#45;&gt;Node10 -->
<g id="edge27" class="edge">
<title>Node18&#45;&gt;Node10</title>
<path fill="none" stroke="midnightblue" d="M1188.27,-120.35C1373.34,-110.33 1944.93,-79.38 2104.34,-70.76"/>
<polygon fill="midnightblue" stroke="midnightblue" points="2104.87,-74.23 2114.67,-70.2 2104.49,-67.24 2104.87,-74.23"/>
</g>
<!-- Node19&#45;&gt;Node2 -->
<g id="edge32" class="edge">
<title>Node19&#45;&gt;Node2</title>
<path fill="none" stroke="midnightblue" d="M1047.9,-171.33C1049.68,-153.2 1053.69,-112.41 1056.08,-88"/>
<polygon fill="midnightblue" stroke="midnightblue" points="1059.59,-88.09 1057.09,-77.79 1052.63,-87.4 1059.59,-88.09"/>
</g>
<!-- Node19&#45;&gt;Node3 -->
<g id="edge33" class="edge">
<title>Node19&#45;&gt;Node3</title>
<path fill="none" stroke="midnightblue" d="M1041,-171.25C1027.38,-148.93 997.33,-91.48 1025,-57 1040.45,-37.75 1096.92,-26.13 1146.69,-19.46"/>
<polygon fill="midnightblue" stroke="midnightblue" points="1147.39,-22.9 1156.86,-18.15 1146.5,-15.96 1147.39,-22.9"/>
</g>
<!-- Node19&#45;&gt;Node18 -->
<g id="edge34" class="edge">
<title>Node19&#45;&gt;Node18</title>
<path fill="none" stroke="midnightblue" d="M1060.71,-171.42C1073.44,-162.98 1092.64,-150.26 1107.6,-140.34"/>
<polygon fill="midnightblue" stroke="midnightblue" points="1109.87,-143.04 1116.27,-134.6 1106,-137.2 1109.87,-143.04"/>
</g>
<!-- Node20&#45;&gt;Node2 -->
<g id="edge36" class="edge">
<title>Node20&#45;&gt;Node2</title>
<path fill="none" stroke="midnightblue" d="M1791.35,-171.43C1738.1,-157 1629.07,-128.92 1535,-114 1356.08,-85.62 1309.04,-98.02 1129,-78 1117.08,-76.67 1104.06,-75 1092.46,-73.43"/>
<polygon fill="midnightblue" stroke="midnightblue" points="1092.67,-69.92 1082.28,-72.02 1091.71,-76.86 1092.67,-69.92"/>
</g>
<!-- Node20&#45;&gt;Node3 -->
<g id="edge37" class="edge">
<title>Node20&#45;&gt;Node3</title>
<path fill="none" stroke="midnightblue" d="M1840.69,-171.39C1877.3,-150.32 1958.45,-97 1921,-57 1880.26,-13.49 1488.02,-10.09 1313.28,-10.76"/>
<polygon fill="midnightblue" stroke="midnightblue" points="1313.08,-7.26 1303.1,-10.81 1313.11,-14.26 1313.08,-7.26"/>
</g>
<!-- Node20&#45;&gt;Node4 -->
<g id="edge38" class="edge">
<title>Node20&#45;&gt;Node4</title>
<path fill="none" stroke="midnightblue" d="M1810.95,-171.42C1798.83,-162.98 1780.56,-150.26 1766.32,-140.34"/>
<polygon fill="midnightblue" stroke="midnightblue" points="1768.27,-137.44 1758.06,-134.6 1764.27,-143.18 1768.27,-137.44"/>
</g>
<!-- Node20&#45;&gt;Node18 -->
<g id="edge39" class="edge">
<title>Node20&#45;&gt;Node18</title>
<path fill="none" stroke="midnightblue" d="M1773.4,-175.45C1757.88,-173.96 1740.74,-172.36 1725,-171 1534.32,-154.56 1309,-138.15 1198.33,-130.29"/>
<polygon fill="midnightblue" stroke="midnightblue" points="1198.53,-126.8 1188.3,-129.58 1198.03,-133.78 1198.53,-126.8"/>
</g>
<!-- Node21&#45;&gt;Node2 -->
<g id="edge41" class="edge">
<title>Node21&#45;&gt;Node2</title>
<path fill="none" stroke="midnightblue" d="M1458.27,-171.4C1428.28,-157.17 1367.32,-129.67 1313,-114 1272.04,-102.18 1151.86,-82.91 1092.29,-73.71"/>
<polygon fill="midnightblue" stroke="midnightblue" points="1092.66,-70.22 1082.24,-72.16 1091.59,-77.14 1092.66,-70.22"/>
</g>
<!-- Node21&#45;&gt;Node3 -->
<g id="edge42" class="edge">
<title>Node21&#45;&gt;Node3</title>
<path fill="none" stroke="midnightblue" d="M1469.37,-171.18C1450.56,-148.72 1399.59,-90.97 1346,-57 1323.16,-42.52 1294.97,-31.34 1272.09,-23.68"/>
<polygon fill="midnightblue" stroke="midnightblue" points="1272.92,-20.27 1262.33,-20.51 1270.76,-26.92 1272.92,-20.27"/>
</g>
<!-- Node21&#45;&gt;Node18 -->
<g id="edge43" class="edge">
<title>Node21&#45;&gt;Node18</title>
<path fill="none" stroke="midnightblue" d="M1420.09,-171.48C1358.95,-161.79 1261.86,-146.4 1197.06,-136.13"/>
<polygon fill="midnightblue" stroke="midnightblue" points="1197.37,-132.63 1186.94,-134.53 1196.27,-139.55 1197.37,-132.63"/>
</g>
<!-- Node23&#45;&gt;Node2 -->
<g id="edge45" class="edge">
<title>Node23&#45;&gt;Node2</title>
<path fill="none" stroke="midnightblue" d="M926.7,-171.33C951.11,-152.22 1007.68,-107.91 1037.99,-84.18"/>
<polygon fill="midnightblue" stroke="midnightblue" points="1040.42,-86.71 1046.14,-77.79 1036.11,-81.2 1040.42,-86.71"/>
</g>
<!-- Node23&#45;&gt;Node3 -->
<g id="edge46" class="edge">
<title>Node23&#45;&gt;Node3</title>
<path fill="none" stroke="midnightblue" d="M919.36,-171.26C930.88,-147.94 964.51,-86.47 1012,-57 1052.22,-32.04 1103.83,-20.55 1146.74,-15.35"/>
<polygon fill="midnightblue" stroke="midnightblue" points="1147.33,-18.81 1156.88,-14.22 1146.56,-11.85 1147.33,-18.81"/>
</g>
<!-- Node23&#45;&gt;Node18 -->
<g id="edge47" class="edge">
<title>Node23&#45;&gt;Node18</title>
<path fill="none" stroke="midnightblue" d="M950.5,-171.42C987.34,-162 1045.04,-147.23 1085.04,-137"/>
<polygon fill="midnightblue" stroke="midnightblue" points="1085.98,-140.37 1094.8,-134.5 1084.25,-133.59 1085.98,-140.37"/>
</g>
<!-- Node24&#45;&gt;Node2 -->
<g id="edge49" class="edge">
<title>Node24&#45;&gt;Node2</title>
<path fill="none" stroke="midnightblue" d="M114.22,-172.14C117.19,-171.75 120.13,-171.36 123,-171 474.08,-126.5 900.78,-83.89 1023.5,-71.86"/>
<polygon fill="midnightblue" stroke="midnightblue" points="1024.15,-75.31 1033.77,-70.85 1023.47,-68.34 1024.15,-75.31"/>
</g>
<!-- Node24&#45;&gt;Node3 -->
<g id="edge50" class="edge">
<title>Node24&#45;&gt;Node3</title>
<path fill="none" stroke="midnightblue" d="M86.78,-171.49C165.18,-148.18 384.13,-85.7 571,-57 776.35,-25.47 1021.07,-15.78 1146.61,-12.81"/>
<polygon fill="midnightblue" stroke="midnightblue" points="1147,-16.3 1156.91,-12.57 1146.84,-9.3 1147,-16.3"/>
</g>
<!-- Node24&#45;&gt;Node18 -->
<g id="edge51" class="edge">
<title>Node24&#45;&gt;Node18</title>
<path fill="none" stroke="midnightblue" d="M114.2,-171.92C117.17,-171.58 120.12,-171.27 123,-171 475.06,-137.79 898.72,-128.66 1061.62,-126.29"/>
<polygon fill="midnightblue" stroke="midnightblue" points="1062.02,-129.78 1071.97,-126.14 1061.92,-122.78 1062.02,-129.78"/>
</g>
<!-- Node25&#45;&gt;Node2 -->
<g id="edge53" class="edge">
<title>Node25&#45;&gt;Node2</title>
<path fill="none" stroke="midnightblue" d="M1501.85,-234.45C1525.9,-221.05 1563.78,-194.93 1546,-171 1519.84,-135.79 1399.79,-123.66 1357,-114 1307.04,-102.73 1159.62,-82.22 1092.27,-73.09"/>
<polygon fill="midnightblue" stroke="midnightblue" points="1092.55,-69.6 1082.17,-71.73 1091.61,-76.53 1092.55,-69.6"/>
</g>
<!-- Node25&#45;&gt;Node3 -->
<g id="edge54" class="edge">
<title>Node25&#45;&gt;Node3</title>
<path fill="none" stroke="midnightblue" d="M1555.42,-234.47C1669.74,-220 1881.28,-193.1 1883,-192 1937.91,-156.97 1984.56,-104.5 1940,-57 1918.85,-34.45 1496.5,-19.34 1313.44,-13.83"/>
<polygon fill="midnightblue" stroke="midnightblue" points="1313.42,-10.33 1303.32,-13.53 1313.21,-17.32 1313.42,-10.33"/>
</g>
<!-- Node25&#45;&gt;Node4 -->
<g id="edge55" class="edge">
<title>Node25&#45;&gt;Node4</title>
<path fill="none" stroke="midnightblue" d="M1532.39,-234.46C1600.68,-221.52 1717.89,-198.55 1725,-192 1738,-180.02 1742.67,-159.95 1744.29,-144.98"/>
<polygon fill="midnightblue" stroke="midnightblue" points="1747.79,-144.98 1745.01,-134.75 1740.81,-144.48 1747.79,-144.98"/>
</g>
<!-- Node25&#45;&gt;Node26 -->
<g id="edge56" class="edge">
<title>Node25&#45;&gt;Node26</title>
<path fill="none" stroke="midnightblue" d="M1509.23,-234.5C1538.53,-224.05 1587.04,-206.74 1619.98,-194.99"/>
<polygon fill="midnightblue" stroke="midnightblue" points="1621.42,-198.19 1629.66,-191.54 1619.07,-191.6 1621.42,-198.19"/>
</g>
<!-- Node26&#45;&gt;Node2 -->
<g id="edge57" class="edge">
<title>Node26&#45;&gt;Node2</title>
<path fill="none" stroke="midnightblue" d="M1637.02,-171.39C1607,-156.63 1544.39,-127.77 1488,-114 1332.22,-75.97 1288.27,-96.64 1129,-78 1117.08,-76.61 1104.07,-74.91 1092.47,-73.35"/>
<polygon fill="midnightblue" stroke="midnightblue" points="1092.67,-69.84 1082.29,-71.95 1091.72,-76.78 1092.67,-69.84"/>
</g>
<!-- Node26&#45;&gt;Node3 -->
<g id="edge58" class="edge">
<title>Node26&#45;&gt;Node3</title>
<path fill="none" stroke="midnightblue" d="M1640.25,-171.29C1618.01,-157.64 1574.29,-131.74 1535,-114 1445.24,-73.47 1334.46,-40.15 1274.18,-23.33"/>
<polygon fill="midnightblue" stroke="midnightblue" points="1274.81,-19.88 1264.24,-20.58 1272.94,-26.62 1274.81,-19.88"/>
</g>
<!-- Node26&#45;&gt;Node4 -->
<g id="edge59" class="edge">
<title>Node26&#45;&gt;Node4</title>
<path fill="none" stroke="midnightblue" d="M1669.86,-171.42C1683.8,-162.9 1704.88,-150.02 1721.17,-140.06"/>
<polygon fill="midnightblue" stroke="midnightblue" points="1723.41,-142.8 1730.12,-134.6 1719.76,-136.82 1723.41,-142.8"/>
</g>
<!-- Node26&#45;&gt;Node18 -->
<g id="edge60" class="edge">
<title>Node26&#45;&gt;Node18</title>
<path fill="none" stroke="midnightblue" d="M1593.49,-174.06C1494.7,-163.71 1301.35,-143.45 1198.37,-132.66"/>
<polygon fill="midnightblue" stroke="midnightblue" points="1198.7,-129.18 1188.39,-131.62 1197.97,-136.14 1198.7,-129.18"/>
</g>
<!-- Node27&#45;&gt;Node2 -->
<g id="edge63" class="edge">
<title>Node27&#45;&gt;Node2</title>
<path fill="none" stroke="midnightblue" d="M244.34,-172.03C247.27,-171.66 250.17,-171.32 253,-171 458.12,-148.06 518.29,-194.26 716,-135 734.48,-129.46 735.72,-120.19 754,-114 848.02,-82.14 965.91,-72.56 1023.34,-69.7"/>
<polygon fill="midnightblue" stroke="midnightblue" points="1023.84,-73.18 1033.67,-69.23 1023.52,-66.19 1023.84,-73.18"/>
</g>
<!-- Node27&#45;&gt;Node3 -->
<g id="edge64" class="edge">
<title>Node27&#45;&gt;Node3</title>
<path fill="none" stroke="midnightblue" d="M217.16,-171.44C292.96,-148.28 502.77,-86.64 682,-57 845.33,-29.99 1038.83,-18.69 1146.68,-14.22"/>
<polygon fill="midnightblue" stroke="midnightblue" points="1147,-17.71 1156.85,-13.8 1146.72,-10.71 1147,-17.71"/>
</g>
<!-- Node27&#45;&gt;Node18 -->
<g id="edge65" class="edge">
<title>Node27&#45;&gt;Node18</title>
<path fill="none" stroke="midnightblue" d="M244.33,-171.94C247.26,-171.6 250.16,-171.28 253,-171 553.41,-141.32 913.74,-130.33 1061.6,-126.88"/>
<polygon fill="midnightblue" stroke="midnightblue" points="1061.96,-130.37 1071.88,-126.64 1061.8,-123.37 1061.96,-130.37"/>
</g>
<!-- Node28&#45;&gt;Node2 -->
<g id="edge68" class="edge">
<title>Node28&#45;&gt;Node2</title>
<path fill="none" stroke="midnightblue" d="M406.42,-171.97C409.32,-171.64 412.19,-171.31 415,-171 565.58,-154.18 609.49,-180.55 754,-135 772.4,-129.2 773.79,-120.38 792,-114 872.08,-85.93 971.99,-74.8 1023.59,-70.7"/>
<polygon fill="midnightblue" stroke="midnightblue" points="1024.14,-74.17 1033.84,-69.92 1023.61,-67.19 1024.14,-74.17"/>
</g>
<!-- Node28&#45;&gt;Node3 -->
<g id="edge69" class="edge">
<title>Node28&#45;&gt;Node3</title>
<path fill="none" stroke="midnightblue" d="M360.77,-171.47C429.93,-148.5 620.55,-87.55 784,-57 909.24,-33.59 1056.67,-21.52 1146.7,-15.85"/>
<polygon fill="midnightblue" stroke="midnightblue" points="1147.09,-19.33 1156.85,-15.23 1146.66,-12.35 1147.09,-19.33"/>
</g>
<!-- Node28&#45;&gt;Node18 -->
<g id="edge70" class="edge">
<title>Node28&#45;&gt;Node18</title>
<path fill="none" stroke="midnightblue" d="M406.4,-171.81C409.31,-171.53 412.18,-171.25 415,-171 652.07,-149.57 934.25,-134.75 1061.62,-128.64"/>
<polygon fill="midnightblue" stroke="midnightblue" points="1062.17,-132.12 1072,-128.14 1061.84,-125.12 1062.17,-132.12"/>
</g>
<!-- Node29&#45;&gt;Node2 -->
<g id="edge72" class="edge">
<title>Node29&#45;&gt;Node2</title>
<path fill="none" stroke="midnightblue" d="M540.01,-172.25C628.09,-159.69 786.06,-137 792,-135 810.28,-128.83 811.88,-120.63 830,-114 896.15,-89.79 978.06,-77.44 1023.51,-72.04"/>
<polygon fill="midnightblue" stroke="midnightblue" points="1024.17,-75.48 1033.71,-70.87 1023.37,-68.53 1024.17,-75.48"/>
</g>
<!-- Node29&#45;&gt;Node3 -->
<g id="edge73" class="edge">
<title>Node29&#45;&gt;Node3</title>
<path fill="none" stroke="midnightblue" d="M504.83,-171.43C563.46,-148.52 724.5,-87.93 864,-57 959.68,-35.79 1071.77,-23.68 1146.46,-17.36"/>
<polygon fill="midnightblue" stroke="midnightblue" points="1147.06,-20.83 1156.74,-16.51 1146.48,-13.85 1147.06,-20.83"/>
</g>
<!-- Node29&#45;&gt;Node18 -->
<g id="edge74" class="edge">
<title>Node29&#45;&gt;Node18</title>
<path fill="none" stroke="midnightblue" d="M540.08,-172.04C543.09,-171.67 546.08,-171.32 549,-171 733.87,-150.67 952.81,-136.08 1061.57,-129.46"/>
<polygon fill="midnightblue" stroke="midnightblue" points="1061.98,-132.95 1071.75,-128.85 1061.56,-125.96 1061.98,-132.95"/>
</g>
<!-- Node30&#45;&gt;Node2 -->
<g id="edge76" class="edge">
<title>Node30&#45;&gt;Node2</title>
<path fill="none" stroke="midnightblue" d="M666.77,-171.49C720.23,-161.69 800.64,-145.96 830,-135 848.08,-128.25 850.01,-120.98 868,-114 920.61,-93.6 985.08,-80.5 1023.78,-73.82"/>
<polygon fill="midnightblue" stroke="midnightblue" points="1024.7,-77.22 1033.98,-72.11 1023.54,-70.32 1024.7,-77.22"/>
</g>
<!-- Node30&#45;&gt;Node3 -->
<g id="edge77" class="edge">
<title>Node30&#45;&gt;Node3</title>
<path fill="none" stroke="midnightblue" d="M634.61,-171.46C682.44,-148.62 814.03,-88.18 930,-57 1001.9,-37.67 1085.84,-25.82 1146.62,-19.08"/>
<polygon fill="midnightblue" stroke="midnightblue" points="1147.36,-22.52 1156.93,-17.96 1146.61,-15.56 1147.36,-22.52"/>
</g>
<!-- Node30&#45;&gt;Node18 -->
<g id="edge78" class="edge">
<title>Node30&#45;&gt;Node18</title>
<path fill="none" stroke="midnightblue" d="M673.72,-172.17C676.86,-171.76 679.97,-171.37 683,-171 816.89,-154.7 973.83,-139.66 1061.6,-131.62"/>
<polygon fill="midnightblue" stroke="midnightblue" points="1062.06,-135.09 1071.7,-130.7 1061.42,-128.12 1062.06,-135.09"/>
</g>
<!-- Node32&#45;&gt;Node2 -->
<g id="edge80" class="edge">
<title>Node32&#45;&gt;Node2</title>
<path fill="none" stroke="midnightblue" d="M772.18,-171.47C796.76,-162.55 835.15,-148.35 868,-135 889.57,-126.23 894.22,-122.23 916,-114 952.5,-100.21 995.25,-86.88 1024.23,-78.26"/>
<polygon fill="midnightblue" stroke="midnightblue" points="1025.27,-81.6 1033.87,-75.41 1023.29,-74.89 1025.27,-81.6"/>
</g>
<!-- Node32&#45;&gt;Node3 -->
<g id="edge81" class="edge">
<title>Node32&#45;&gt;Node3</title>
<path fill="none" stroke="midnightblue" d="M760.63,-171.42C795.72,-148.49 892.7,-87.85 982,-57 1035.42,-38.54 1098.03,-27.13 1146.98,-20.35"/>
<polygon fill="midnightblue" stroke="midnightblue" points="1147.45,-23.82 1156.89,-19.02 1146.52,-16.88 1147.45,-23.82"/>
</g>
<!-- Node32&#45;&gt;Node18 -->
<g id="edge82" class="edge">
<title>Node32&#45;&gt;Node18</title>
<path fill="none" stroke="midnightblue" d="M802.28,-172.56C870.84,-162.72 987.68,-145.94 1061.75,-135.3"/>
<polygon fill="midnightblue" stroke="midnightblue" points="1062.51,-138.73 1071.91,-133.84 1061.52,-131.8 1062.51,-138.73"/>
</g>
<!-- Node33&#45;&gt;Node2 -->
<g id="edge85" class="edge">
<title>Node33&#45;&gt;Node2</title>
<path fill="none" stroke="midnightblue" d="M2153.38,-122C1970.17,-116.35 1331.99,-95.84 1129,-78 1117.05,-76.95 1104.02,-75.34 1092.43,-73.75"/>
<polygon fill="midnightblue" stroke="midnightblue" points="1092.65,-70.24 1082.26,-72.3 1091.66,-77.17 1092.65,-70.24"/>
</g>
<!-- Node33&#45;&gt;Node3 -->
<g id="edge86" class="edge">
<title>Node33&#45;&gt;Node3</title>
<path fill="none" stroke="midnightblue" d="M2203.74,-114.44C2204.37,-99.76 2203.18,-71.01 2186,-57 2152.45,-29.64 1539.86,-16.67 1313.31,-12.8"/>
<polygon fill="midnightblue" stroke="midnightblue" points="1313.2,-9.29 1303.14,-12.62 1313.08,-16.29 1313.2,-9.29"/>
</g>
<!-- Node33&#45;&gt;Node10 -->
<g id="edge84" class="edge">
<title>Node33&#45;&gt;Node10</title>
<path fill="none" stroke="midnightblue" d="M2193.59,-114.42C2185.3,-106.42 2173.04,-94.59 2163.04,-84.94"/>
<polygon fill="midnightblue" stroke="midnightblue" points="2165.24,-82.2 2155.62,-77.78 2160.38,-87.24 2165.24,-82.2"/>
</g>
</g>
</svg>
