<?xml version="1.0" encoding="UTF-8" standalone="no"?>
<!DOCTYPE svg PUBLIC "-//W3C//DTD SVG 1.1//EN"
 "http://www.w3.org/Graphics/SVG/1.1/DTD/svg11.dtd">
<!-- Generated by graphviz version 3.0.0 (20220413.0242)
 -->
<!-- Title: libmirai/public/libmirai/Events/GroupMessageEvent.hpp Pages: 1 -->
<svg width="2149pt" height="407pt"
 viewBox="0.00 0.00 2148.50 407.00" xmlns="http://www.w3.org/2000/svg" xmlns:xlink="http://www.w3.org/1999/xlink">
<g id="graph0" class="graph" transform="scale(1 1) rotate(0) translate(4 403)">
<title>libmirai/public/libmirai/Events/GroupMessageEvent.hpp</title>
<!-- Node1 -->
<g id="node1" class="node">
<title>Node1</title>
<g id="a_node1"><a xlink:title=" ">
<polygon fill="#bfbfbf" stroke="black" points="1830.5,-366.5 1830.5,-398.5 2006.5,-398.5 2006.5,-366.5 1830.5,-366.5"/>
<text text-anchor="start" x="1838.5" y="-385.7" font-family="-apple-system, BlinkMacSystemFont, 'Segoe UI', Roboto, Oxygen, Ubuntu, Cantarell, 'Fira Sans', 'Droid Sans', 'Helvetica Neue', sans-serif" font-size="11.00">libmirai/public/libmirai</text>
<text text-anchor="middle" x="1918.5" y="-373.7" font-family="-apple-system, BlinkMacSystemFont, 'Segoe UI', Roboto, Oxygen, Ubuntu, Cantarell, 'Fira Sans', 'Droid Sans', 'Helvetica Neue', sans-serif" font-size="11.00">/Events/GroupMessageEvent.hpp</text>
</a>
</g>
</g>
<!-- Node2 -->
<g id="node2" class="node">
<title>Node2</title>
<g id="a_node2"><a xlink:title=" ">
<polygon fill="none" stroke="#bfbfbf" points="958,-57.5 958,-77.5 1001,-77.5 1001,-57.5 958,-57.5"/>
<text text-anchor="middle" x="979.5" y="-64.7" font-family="-apple-system, BlinkMacSystemFont, 'Segoe UI', Roboto, Oxygen, Ubuntu, Cantarell, 'Fira Sans', 'Droid Sans', 'Helvetica Neue', sans-serif" font-size="11.00">string</text>
</a>
</g>
</g>
<!-- Node1&#45;&gt;Node2 -->
<g id="edge1" class="edge">
<title>Node1&#45;&gt;Node2</title>
<path fill="none" stroke="midnightblue" d="M1830.47,-380.89C1690.86,-378.7 1410.5,-369.27 1176.5,-330 1060.29,-310.5 1030.19,-304.05 920.5,-261 859.24,-236.96 823.5,-248.34 789.5,-192 784.68,-184.01 784.72,-179.01 789.5,-171 807.33,-141.12 899.28,-100.65 948.42,-80.68"/>
<polygon fill="midnightblue" stroke="midnightblue" points="949.96,-83.83 957.93,-76.86 947.35,-77.34 949.96,-83.83"/>
</g>
<!-- Node3 -->
<g id="node3" class="node">
<title>Node3</title>
<g id="a_node3"><a xlink:title=" ">
<polygon fill="none" stroke="#bfbfbf" points="1073,-0.5 1073,-20.5 1204,-20.5 1204,-0.5 1073,-0.5"/>
<text text-anchor="middle" x="1138.5" y="-7.7" font-family="-apple-system, BlinkMacSystemFont, 'Segoe UI', Roboto, Oxygen, Ubuntu, Cantarell, 'Fira Sans', 'Droid Sans', 'Helvetica Neue', sans-serif" font-size="11.00">nlohmann/json_fwd.hpp</text>
</a>
</g>
</g>
<!-- Node1&#45;&gt;Node3 -->
<g id="edge2" class="edge">
<title>Node1&#45;&gt;Node3</title>
<path fill="none" stroke="midnightblue" d="M1998.65,-366.42C2062.24,-349.27 2140.5,-314.2 2140.5,-245.5 2140.5,-245.5 2140.5,-245.5 2140.5,-123.5 2140.5,-80.59 2109.95,-73.88 2070.5,-57 1992.83,-23.77 1422.9,-14.48 1214.52,-12.18"/>
<polygon fill="midnightblue" stroke="midnightblue" points="1214.32,-8.68 1204.28,-12.07 1214.25,-15.68 1214.32,-8.68"/>
</g>
<!-- Node4 -->
<g id="node4" class="node">
<title>Node4</title>
<g id="a_node4"><a xlink:href="BasicTypes_8hpp.html" target="_top" xlink:title=" ">
<polygon fill="none" stroke="black" points="1541.5,-114.5 1541.5,-134.5 1703.5,-134.5 1703.5,-114.5 1541.5,-114.5"/>
<text text-anchor="middle" x="1622.5" y="-121.7" font-family="-apple-system, BlinkMacSystemFont, 'Segoe UI', Roboto, Oxygen, Ubuntu, Cantarell, 'Fira Sans', 'Droid Sans', 'Helvetica Neue', sans-serif" font-size="11.00">libmirai/Types/BasicTypes.hpp</text>
</a>
</g>
</g>
<!-- Node1&#45;&gt;Node4 -->
<g id="edge3" class="edge">
<title>Node1&#45;&gt;Node4</title>
<path fill="none" stroke="midnightblue" d="M1916.52,-366.12C1911.93,-336.16 1898.04,-269.31 1861.5,-228 1815.74,-176.26 1739.33,-149.76 1685.23,-136.8"/>
<polygon fill="midnightblue" stroke="midnightblue" points="1685.94,-133.37 1675.41,-134.54 1684.36,-140.19 1685.94,-133.37"/>
</g>
<!-- Node8 -->
<g id="node8" class="node">
<title>Node8</title>
<g id="a_node8"><a xlink:href="MessageChain_8hpp.html" target="_top" xlink:title=" ">
<polygon fill="none" stroke="black" points="1186,-297.5 1186,-329.5 1335,-329.5 1335,-297.5 1186,-297.5"/>
<text text-anchor="start" x="1194" y="-316.7" font-family="-apple-system, BlinkMacSystemFont, 'Segoe UI', Roboto, Oxygen, Ubuntu, Cantarell, 'Fira Sans', 'Droid Sans', 'Helvetica Neue', sans-serif" font-size="11.00">libmirai/Messages/Message</text>
<text text-anchor="middle" x="1260.5" y="-304.7" font-family="-apple-system, BlinkMacSystemFont, 'Segoe UI', Roboto, Oxygen, Ubuntu, Cantarell, 'Fira Sans', 'Droid Sans', 'Helvetica Neue', sans-serif" font-size="11.00">Chain.hpp</text>
</a>
</g>
</g>
<!-- Node1&#45;&gt;Node8 -->
<g id="edge10" class="edge">
<title>Node1&#45;&gt;Node8</title>
<path fill="none" stroke="midnightblue" d="M1830.44,-372.53C1703.56,-359.61 1470.85,-335.92 1345.62,-323.17"/>
<polygon fill="midnightblue" stroke="midnightblue" points="1345.63,-319.65 1335.32,-322.12 1344.92,-326.61 1345.63,-319.65"/>
</g>
<!-- Node33 -->
<g id="node31" class="node">
<title>Node33</title>
<g id="a_node31"><a xlink:href="EventBase_8hpp.html" target="_top" xlink:title=" ">
<polygon fill="none" stroke="black" points="2023,-114.5 2023,-134.5 2112,-134.5 2112,-114.5 2023,-114.5"/>
<text text-anchor="middle" x="2067.5" y="-121.7" font-family="-apple-system, BlinkMacSystemFont, 'Segoe UI', Roboto, Oxygen, Ubuntu, Cantarell, 'Fira Sans', 'Droid Sans', 'Helvetica Neue', sans-serif" font-size="11.00">EventBase.hpp</text>
</a>
</g>
</g>
<!-- Node1&#45;&gt;Node33 -->
<g id="edge83" class="edge">
<title>Node1&#45;&gt;Node33</title>
<path fill="none" stroke="midnightblue" d="M1931.66,-366.32C1950.38,-344.23 1985.03,-301.42 2008.5,-261 2031.49,-221.41 2051.09,-171.19 2060.86,-144.38"/>
<polygon fill="midnightblue" stroke="midnightblue" points="2064.24,-145.32 2064.32,-134.73 2057.65,-142.96 2064.24,-145.32"/>
</g>
<!-- Node4&#45;&gt;Node2 -->
<g id="edge6" class="edge">
<title>Node4&#45;&gt;Node2</title>
<path fill="none" stroke="midnightblue" d="M1541.41,-115.26C1536.7,-114.82 1532.04,-114.4 1527.5,-114 1314.82,-95.38 1260.79,-100.57 1048.5,-78 1036.35,-76.71 1023.04,-74.96 1011.38,-73.31"/>
<polygon fill="midnightblue" stroke="midnightblue" points="1011.61,-69.81 1001.21,-71.84 1010.61,-76.73 1011.61,-69.81"/>
</g>
<!-- Node4&#45;&gt;Node3 -->
<g id="edge7" class="edge">
<title>Node4&#45;&gt;Node3</title>
<path fill="none" stroke="midnightblue" d="M1608.41,-114.45C1584.83,-99.77 1535.43,-71.02 1489.5,-57 1397.5,-28.91 1286.76,-18.16 1214.6,-14.05"/>
<polygon fill="midnightblue" stroke="midnightblue" points="1214.42,-10.53 1204.24,-13.49 1214.04,-17.52 1214.42,-10.53"/>
</g>
<!-- Node5 -->
<g id="node5" class="node">
<title>Node5</title>
<g id="a_node5"><a xlink:title=" ">
<polygon fill="none" stroke="#bfbfbf" points="1597.5,-57.5 1597.5,-77.5 1647.5,-77.5 1647.5,-57.5 1597.5,-57.5"/>
<text text-anchor="middle" x="1622.5" y="-64.7" font-family="-apple-system, BlinkMacSystemFont, 'Segoe UI', Roboto, Oxygen, Ubuntu, Cantarell, 'Fira Sans', 'Droid Sans', 'Helvetica Neue', sans-serif" font-size="11.00">chrono</text>
</a>
</g>
</g>
<!-- Node4&#45;&gt;Node5 -->
<g id="edge4" class="edge">
<title>Node4&#45;&gt;Node5</title>
<path fill="none" stroke="midnightblue" d="M1622.5,-114.42C1622.5,-107.22 1622.5,-96.9 1622.5,-87.86"/>
<polygon fill="midnightblue" stroke="midnightblue" points="1626,-87.78 1622.5,-77.78 1619,-87.78 1626,-87.78"/>
</g>
<!-- Node6 -->
<g id="node6" class="node">
<title>Node6</title>
<g id="a_node6"><a xlink:title=" ">
<polygon fill="none" stroke="#bfbfbf" points="1745.5,-57.5 1745.5,-77.5 1787.5,-77.5 1787.5,-57.5 1745.5,-57.5"/>
<text text-anchor="middle" x="1766.5" y="-64.7" font-family="-apple-system, BlinkMacSystemFont, 'Segoe UI', Roboto, Oxygen, Ubuntu, Cantarell, 'Fira Sans', 'Droid Sans', 'Helvetica Neue', sans-serif" font-size="11.00">ctime</text>
</a>
</g>
</g>
<!-- Node4&#45;&gt;Node6 -->
<g id="edge5" class="edge">
<title>Node4&#45;&gt;Node6</title>
<path fill="none" stroke="midnightblue" d="M1646.28,-114.42C1670.79,-105.06 1709.09,-90.43 1735.86,-80.2"/>
<polygon fill="midnightblue" stroke="midnightblue" points="1737.41,-83.36 1745.5,-76.52 1734.91,-76.82 1737.41,-83.36"/>
</g>
<!-- Node7 -->
<g id="node7" class="node">
<title>Node7</title>
<g id="a_node7"><a xlink:href="Serializable_8hpp.html" target="_top" xlink:title=" ">
<polygon fill="none" stroke="black" points="1057.5,-57.5 1057.5,-77.5 1219.5,-77.5 1219.5,-57.5 1057.5,-57.5"/>
<text text-anchor="middle" x="1138.5" y="-64.7" font-family="-apple-system, BlinkMacSystemFont, 'Segoe UI', Roboto, Oxygen, Ubuntu, Cantarell, 'Fira Sans', 'Droid Sans', 'Helvetica Neue', sans-serif" font-size="11.00">libmirai/Types/Serializable.hpp</text>
</a>
</g>
</g>
<!-- Node4&#45;&gt;Node7 -->
<g id="edge8" class="edge">
<title>Node4&#45;&gt;Node7</title>
<path fill="none" stroke="midnightblue" d="M1543.12,-114.48C1456.52,-104.64 1318.22,-88.92 1227.88,-78.66"/>
<polygon fill="midnightblue" stroke="midnightblue" points="1228.26,-75.18 1217.92,-77.53 1227.46,-82.13 1228.26,-75.18"/>
</g>
<!-- Node7&#45;&gt;Node3 -->
<g id="edge9" class="edge">
<title>Node7&#45;&gt;Node3</title>
<path fill="none" stroke="midnightblue" d="M1138.5,-57.42C1138.5,-50.22 1138.5,-39.9 1138.5,-30.86"/>
<polygon fill="midnightblue" stroke="midnightblue" points="1142,-30.78 1138.5,-20.78 1135,-30.78 1142,-30.78"/>
</g>
<!-- Node8&#45;&gt;Node3 -->
<g id="edge19" class="edge">
<title>Node8&#45;&gt;Node3</title>
<path fill="none" stroke="midnightblue" d="M1335.21,-312.99C1479.06,-312.87 1788.68,-307.05 1883.5,-261 1926.36,-240.19 1956.5,-230.14 1956.5,-182.5 1956.5,-182.5 1956.5,-182.5 1956.5,-123.5 1956.5,-62.52 1895.01,-74.18 1836.5,-57 1721.81,-23.33 1370.79,-14.54 1214.7,-12.27"/>
<polygon fill="midnightblue" stroke="midnightblue" points="1214.3,-8.77 1204.25,-12.13 1214.2,-15.77 1214.3,-8.77"/>
</g>
<!-- Node8&#45;&gt;Node6 -->
<g id="edge12" class="edge">
<title>Node8&#45;&gt;Node6</title>
<path fill="none" stroke="midnightblue" d="M1335.12,-311.62C1488.24,-309.05 1826.56,-299.07 1861.5,-261 1911.85,-206.15 1825.75,-119.67 1785.51,-84.33"/>
<polygon fill="midnightblue" stroke="midnightblue" points="1787.55,-81.47 1777.69,-77.6 1782.98,-86.78 1787.55,-81.47"/>
</g>
<!-- Node9 -->
<g id="node9" class="node">
<title>Node9</title>
<g id="a_node9"><a xlink:title=" ">
<polygon fill="none" stroke="#bfbfbf" points="1521,-234.5 1521,-254.5 1572,-254.5 1572,-234.5 1521,-234.5"/>
<text text-anchor="middle" x="1546.5" y="-241.7" font-family="-apple-system, BlinkMacSystemFont, 'Segoe UI', Roboto, Oxygen, Ubuntu, Cantarell, 'Fira Sans', 'Droid Sans', 'Helvetica Neue', sans-serif" font-size="11.00">cstddef</text>
</a>
</g>
</g>
<!-- Node8&#45;&gt;Node9 -->
<g id="edge11" class="edge">
<title>Node8&#45;&gt;Node9</title>
<path fill="none" stroke="midnightblue" d="M1335.02,-300.17C1384.21,-291.24 1449.81,-277.79 1506.5,-261 1509.47,-260.12 1512.54,-259.11 1515.59,-258.05"/>
<polygon fill="midnightblue" stroke="midnightblue" points="1516.97,-261.27 1525.13,-254.52 1514.54,-254.7 1516.97,-261.27"/>
</g>
<!-- Node10 -->
<g id="node10" class="node">
<title>Node10</title>
<g id="a_node10"><a xlink:title=" ">
<polygon fill="none" stroke="#bfbfbf" points="1984.5,-57.5 1984.5,-77.5 2040.5,-77.5 2040.5,-57.5 1984.5,-57.5"/>
<text text-anchor="middle" x="2012.5" y="-64.7" font-family="-apple-system, BlinkMacSystemFont, 'Segoe UI', Roboto, Oxygen, Ubuntu, Cantarell, 'Fira Sans', 'Droid Sans', 'Helvetica Neue', sans-serif" font-size="11.00">memory</text>
</a>
</g>
</g>
<!-- Node8&#45;&gt;Node10 -->
<g id="edge13" class="edge">
<title>Node8&#45;&gt;Node10</title>
<path fill="none" stroke="midnightblue" d="M1335.01,-312.06C1507.52,-310.33 1923.28,-301.93 1970.5,-261 1996.54,-238.43 2007.6,-132.17 2011.14,-87.91"/>
<polygon fill="midnightblue" stroke="midnightblue" points="2014.63,-88.1 2011.9,-77.86 2007.65,-87.57 2014.63,-88.1"/>
</g>
<!-- Node11 -->
<g id="node11" class="node">
<title>Node11</title>
<g id="a_node11"><a xlink:title=" ">
<polygon fill="none" stroke="#bfbfbf" points="1590.5,-234.5 1590.5,-254.5 1644.5,-254.5 1644.5,-234.5 1590.5,-234.5"/>
<text text-anchor="middle" x="1617.5" y="-241.7" font-family="-apple-system, BlinkMacSystemFont, 'Segoe UI', Roboto, Oxygen, Ubuntu, Cantarell, 'Fira Sans', 'Droid Sans', 'Helvetica Neue', sans-serif" font-size="11.00">optional</text>
</a>
</g>
</g>
<!-- Node8&#45;&gt;Node11 -->
<g id="edge14" class="edge">
<title>Node8&#45;&gt;Node11</title>
<path fill="none" stroke="midnightblue" d="M1335.31,-305.53C1400.86,-298.24 1498.26,-284.48 1580.5,-261 1583.26,-260.21 1586.1,-259.27 1588.9,-258.26"/>
<polygon fill="midnightblue" stroke="midnightblue" points="1590.2,-261.51 1598.22,-254.59 1587.64,-254.99 1590.2,-261.51"/>
</g>
<!-- Node12 -->
<g id="node12" class="node">
<title>Node12</title>
<g id="a_node12"><a xlink:title=" ">
<polygon fill="none" stroke="#bfbfbf" points="1236.5,-171.5 1236.5,-191.5 1298.5,-191.5 1298.5,-171.5 1236.5,-171.5"/>
<text text-anchor="middle" x="1267.5" y="-178.7" font-family="-apple-system, BlinkMacSystemFont, 'Segoe UI', Roboto, Oxygen, Ubuntu, Cantarell, 'Fira Sans', 'Droid Sans', 'Helvetica Neue', sans-serif" font-size="11.00">stdexcept</text>
</a>
</g>
</g>
<!-- Node8&#45;&gt;Node12 -->
<g id="edge15" class="edge">
<title>Node8&#45;&gt;Node12</title>
<path fill="none" stroke="midnightblue" d="M1254.56,-297.45C1248.66,-280.48 1241.2,-252.11 1246.5,-228 1248.57,-218.58 1252.79,-208.78 1256.9,-200.7"/>
<polygon fill="midnightblue" stroke="midnightblue" points="1260.02,-202.29 1261.72,-191.84 1253.87,-198.95 1260.02,-202.29"/>
</g>
<!-- Node13 -->
<g id="node13" class="node">
<title>Node13</title>
<g id="a_node13"><a xlink:title=" ">
<polygon fill="none" stroke="#bfbfbf" points="1662.5,-234.5 1662.5,-254.5 1728.5,-254.5 1728.5,-234.5 1662.5,-234.5"/>
<text text-anchor="middle" x="1695.5" y="-241.7" font-family="-apple-system, BlinkMacSystemFont, 'Segoe UI', Roboto, Oxygen, Ubuntu, Cantarell, 'Fira Sans', 'Droid Sans', 'Helvetica Neue', sans-serif" font-size="11.00">type_traits</text>
</a>
</g>
</g>
<!-- Node8&#45;&gt;Node13 -->
<g id="edge16" class="edge">
<title>Node8&#45;&gt;Node13</title>
<path fill="none" stroke="midnightblue" d="M1335.3,-307.69C1415.05,-301.4 1544.6,-287.87 1653.5,-261 1656.92,-260.16 1660.45,-259.12 1663.94,-258"/>
<polygon fill="midnightblue" stroke="midnightblue" points="1665.26,-261.24 1673.56,-254.65 1662.96,-254.63 1665.26,-261.24"/>
</g>
<!-- Node14 -->
<g id="node14" class="node">
<title>Node14</title>
<g id="a_node14"><a xlink:title=" ">
<polygon fill="none" stroke="#bfbfbf" points="1747,-234.5 1747,-254.5 1788,-254.5 1788,-234.5 1747,-234.5"/>
<text text-anchor="middle" x="1767.5" y="-241.7" font-family="-apple-system, BlinkMacSystemFont, 'Segoe UI', Roboto, Oxygen, Ubuntu, Cantarell, 'Fira Sans', 'Droid Sans', 'Helvetica Neue', sans-serif" font-size="11.00">utility</text>
</a>
</g>
</g>
<!-- Node8&#45;&gt;Node14 -->
<g id="edge17" class="edge">
<title>Node8&#45;&gt;Node14</title>
<path fill="none" stroke="midnightblue" d="M1335.31,-312.85C1430.68,-311.41 1599.71,-302.45 1737.5,-261 1739.44,-260.42 1741.4,-259.71 1743.34,-258.92"/>
<polygon fill="midnightblue" stroke="midnightblue" points="1745.14,-261.94 1752.7,-254.52 1742.16,-255.61 1745.14,-261.94"/>
</g>
<!-- Node15 -->
<g id="node15" class="node">
<title>Node15</title>
<g id="a_node15"><a xlink:title=" ">
<polygon fill="none" stroke="#bfbfbf" points="1806.5,-234.5 1806.5,-254.5 1852.5,-254.5 1852.5,-234.5 1806.5,-234.5"/>
<text text-anchor="middle" x="1829.5" y="-241.7" font-family="-apple-system, BlinkMacSystemFont, 'Segoe UI', Roboto, Oxygen, Ubuntu, Cantarell, 'Fira Sans', 'Droid Sans', 'Helvetica Neue', sans-serif" font-size="11.00">vector</text>
</a>
</g>
</g>
<!-- Node8&#45;&gt;Node15 -->
<g id="edge18" class="edge">
<title>Node8&#45;&gt;Node15</title>
<path fill="none" stroke="midnightblue" d="M1335.2,-313.32C1440.12,-312.67 1636.24,-304.91 1796.5,-261 1798.96,-260.33 1801.46,-259.48 1803.93,-258.54"/>
<polygon fill="midnightblue" stroke="midnightblue" points="1805.36,-261.73 1813.14,-254.54 1802.57,-255.31 1805.36,-261.73"/>
</g>
<!-- Node16 -->
<g id="node16" class="node">
<title>Node16</title>
<g id="a_node16"><a xlink:href="Exceptions_8hpp.html" target="_top" xlink:title=" ">
<polygon fill="none" stroke="black" points="1089,-228.5 1089,-260.5 1194,-260.5 1194,-228.5 1089,-228.5"/>
<text text-anchor="start" x="1097" y="-247.7" font-family="-apple-system, BlinkMacSystemFont, 'Segoe UI', Roboto, Oxygen, Ubuntu, Cantarell, 'Fira Sans', 'Droid Sans', 'Helvetica Neue', sans-serif" font-size="11.00">libmirai/Exceptions</text>
<text text-anchor="middle" x="1141.5" y="-235.7" font-family="-apple-system, BlinkMacSystemFont, 'Segoe UI', Roboto, Oxygen, Ubuntu, Cantarell, 'Fira Sans', 'Droid Sans', 'Helvetica Neue', sans-serif" font-size="11.00">/Exceptions.hpp</text>
</a>
</g>
</g>
<!-- Node8&#45;&gt;Node16 -->
<g id="edge20" class="edge">
<title>Node8&#45;&gt;Node16</title>
<path fill="none" stroke="midnightblue" d="M1233.79,-297.46C1217.22,-288.13 1195.71,-276.02 1177.63,-265.84"/>
<polygon fill="midnightblue" stroke="midnightblue" points="1178.96,-262.57 1168.53,-260.72 1175.53,-268.67 1178.96,-262.57"/>
</g>
<!-- Node17 -->
<g id="node17" class="node">
<title>Node17</title>
<g id="a_node17"><a xlink:href="AppMessage_8hpp.html" target="_top" xlink:title=" ">
<polygon fill="none" stroke="black" points="1079,-171.5 1079,-191.5 1180,-191.5 1180,-171.5 1079,-171.5"/>
<text text-anchor="middle" x="1129.5" y="-178.7" font-family="-apple-system, BlinkMacSystemFont, 'Segoe UI', Roboto, Oxygen, Ubuntu, Cantarell, 'Fira Sans', 'Droid Sans', 'Helvetica Neue', sans-serif" font-size="11.00">AppMessage.hpp</text>
</a>
</g>
</g>
<!-- Node8&#45;&gt;Node17 -->
<g id="edge23" class="edge">
<title>Node8&#45;&gt;Node17</title>
<path fill="none" stroke="midnightblue" d="M1185.84,-300.56C1142.03,-291.86 1092.74,-278.53 1079.5,-261 1070.66,-249.3 1073.57,-241.41 1079.5,-228 1084.91,-215.76 1095.43,-205.39 1105.42,-197.66"/>
<polygon fill="midnightblue" stroke="midnightblue" points="1107.5,-200.48 1113.58,-191.8 1103.41,-194.79 1107.5,-200.48"/>
</g>
<!-- Node18 -->
<g id="node18" class="node">
<title>Node18</title>
<g id="a_node18"><a xlink:href="MessageBase_8hpp.html" target="_top" xlink:title=" ">
<polygon fill="none" stroke="black" points="995.5,-114.5 995.5,-134.5 1101.5,-134.5 1101.5,-114.5 995.5,-114.5"/>
<text text-anchor="middle" x="1048.5" y="-121.7" font-family="-apple-system, BlinkMacSystemFont, 'Segoe UI', Roboto, Oxygen, Ubuntu, Cantarell, 'Fira Sans', 'Droid Sans', 'Helvetica Neue', sans-serif" font-size="11.00">MessageBase.hpp</text>
</a>
</g>
</g>
<!-- Node8&#45;&gt;Node18 -->
<g id="edge66" class="edge">
<title>Node8&#45;&gt;Node18</title>
<path fill="none" stroke="midnightblue" d="M1185.92,-300.78C1139.68,-291.97 1086.2,-278.42 1070.5,-261 1041.48,-228.81 1042.59,-173.97 1045.67,-144.91"/>
<polygon fill="midnightblue" stroke="midnightblue" points="1049.16,-145.17 1046.93,-134.81 1042.21,-144.3 1049.16,-145.17"/>
</g>
<!-- Node19 -->
<g id="node19" class="node">
<title>Node19</title>
<g id="a_node19"><a xlink:href="AtAllMessage_8hpp.html" target="_top" xlink:title=" ">
<polygon fill="none" stroke="black" points="918.5,-171.5 918.5,-191.5 1022.5,-191.5 1022.5,-171.5 918.5,-171.5"/>
<text text-anchor="middle" x="970.5" y="-178.7" font-family="-apple-system, BlinkMacSystemFont, 'Segoe UI', Roboto, Oxygen, Ubuntu, Cantarell, 'Fira Sans', 'Droid Sans', 'Helvetica Neue', sans-serif" font-size="11.00">AtAllMessage.hpp</text>
</a>
</g>
</g>
<!-- Node8&#45;&gt;Node19 -->
<g id="edge31" class="edge">
<title>Node8&#45;&gt;Node19</title>
<path fill="none" stroke="midnightblue" d="M1185.91,-304.62C1121.88,-296.55 1035.73,-282.17 1008.5,-261 989.5,-246.23 979.45,-219.55 974.55,-201.43"/>
<polygon fill="midnightblue" stroke="midnightblue" points="977.95,-200.57 972.19,-191.68 971.14,-202.22 977.95,-200.57"/>
</g>
<!-- Node20 -->
<g id="node20" class="node">
<title>Node20</title>
<g id="a_node20"><a xlink:href="AtMessage_8hpp.html" target="_top" xlink:title=" ">
<polygon fill="none" stroke="black" points="1650.5,-171.5 1650.5,-191.5 1742.5,-191.5 1742.5,-171.5 1650.5,-171.5"/>
<text text-anchor="middle" x="1696.5" y="-178.7" font-family="-apple-system, BlinkMacSystemFont, 'Segoe UI', Roboto, Oxygen, Ubuntu, Cantarell, 'Fira Sans', 'Droid Sans', 'Helvetica Neue', sans-serif" font-size="11.00">AtMessage.hpp</text>
</a>
</g>
</g>
<!-- Node8&#45;&gt;Node20 -->
<g id="edge35" class="edge">
<title>Node8&#45;&gt;Node20</title>
<path fill="none" stroke="midnightblue" d="M1335.08,-303.05C1377.11,-295.64 1429.62,-282.8 1472.5,-261 1492.74,-250.71 1491.27,-238.32 1511.5,-228 1551.9,-207.39 1602.09,-195.81 1640,-189.49"/>
<polygon fill="midnightblue" stroke="midnightblue" points="1641.02,-192.87 1650.34,-187.85 1639.92,-185.96 1641.02,-192.87"/>
</g>
<!-- Node21 -->
<g id="node21" class="node">
<title>Node21</title>
<g id="a_node21"><a xlink:href="AudioMessage_8hpp.html" target="_top" xlink:title=" ">
<polygon fill="none" stroke="red" points="1317,-171.5 1317,-191.5 1426,-191.5 1426,-171.5 1317,-171.5"/>
<text text-anchor="middle" x="1371.5" y="-178.7" font-family="-apple-system, BlinkMacSystemFont, 'Segoe UI', Roboto, Oxygen, Ubuntu, Cantarell, 'Fira Sans', 'Droid Sans', 'Helvetica Neue', sans-serif" font-size="11.00">AudioMessage.hpp</text>
</a>
</g>
</g>
<!-- Node8&#45;&gt;Node21 -->
<g id="edge40" class="edge">
<title>Node8&#45;&gt;Node21</title>
<path fill="none" stroke="midnightblue" d="M1261.24,-297.43C1262.86,-279.14 1268.04,-248.23 1284.5,-228 1296.55,-213.19 1314.71,-202.63 1331.33,-195.43"/>
<polygon fill="midnightblue" stroke="midnightblue" points="1332.91,-198.57 1340.88,-191.58 1330.29,-192.08 1332.91,-198.57"/>
</g>
<!-- Node23 -->
<g id="node22" class="node">
<title>Node23</title>
<g id="a_node22"><a xlink:href="DiceMessage_8hpp.html" target="_top" xlink:title=" ">
<polygon fill="none" stroke="black" points="798.5,-171.5 798.5,-191.5 900.5,-191.5 900.5,-171.5 798.5,-171.5"/>
<text text-anchor="middle" x="849.5" y="-178.7" font-family="-apple-system, BlinkMacSystemFont, 'Segoe UI', Roboto, Oxygen, Ubuntu, Cantarell, 'Fira Sans', 'Droid Sans', 'Helvetica Neue', sans-serif" font-size="11.00">DiceMessage.hpp</text>
</a>
</g>
</g>
<!-- Node8&#45;&gt;Node23 -->
<g id="edge44" class="edge">
<title>Node8&#45;&gt;Node23</title>
<path fill="none" stroke="midnightblue" d="M1185.74,-305.95C1128.43,-299.22 1048.12,-286.04 981.5,-261 970.1,-256.72 907.76,-218.57 872.98,-197.08"/>
<polygon fill="midnightblue" stroke="midnightblue" points="874.72,-194.04 864.37,-191.75 871.03,-199.99 874.72,-194.04"/>
</g>
<!-- Node24 -->
<g id="node23" class="node">
<title>Node24</title>
<g id="a_node23"><a xlink:href="FaceMessage_8hpp.html" target="_top" xlink:title=" ">
<polygon fill="none" stroke="black" points="0,-171.5 0,-191.5 105,-191.5 105,-171.5 0,-171.5"/>
<text text-anchor="middle" x="52.5" y="-178.7" font-family="-apple-system, BlinkMacSystemFont, 'Segoe UI', Roboto, Oxygen, Ubuntu, Cantarell, 'Fira Sans', 'Droid Sans', 'Helvetica Neue', sans-serif" font-size="11.00">FaceMessage.hpp</text>
</a>
</g>
</g>
<!-- Node8&#45;&gt;Node24 -->
<g id="edge48" class="edge">
<title>Node8&#45;&gt;Node24</title>
<path fill="none" stroke="midnightblue" d="M1185.88,-312.32C1034.9,-311.02 682.69,-303.27 390.5,-261 281.78,-245.27 156.45,-212.12 93.34,-194.35"/>
<polygon fill="midnightblue" stroke="midnightblue" points="93.96,-190.89 83.39,-191.53 92.05,-197.62 93.96,-190.89"/>
</g>
<!-- Node25 -->
<g id="node24" class="node">
<title>Node25</title>
<g id="a_node24"><a xlink:href="FlashImageMessage_8hpp.html" target="_top" xlink:title=" ">
<polygon fill="none" stroke="black" points="1327,-234.5 1327,-254.5 1464,-254.5 1464,-234.5 1327,-234.5"/>
<text text-anchor="middle" x="1395.5" y="-241.7" font-family="-apple-system, BlinkMacSystemFont, 'Segoe UI', Roboto, Oxygen, Ubuntu, Cantarell, 'Fira Sans', 'Droid Sans', 'Helvetica Neue', sans-serif" font-size="11.00">FlashImageMessage.hpp</text>
</a>
</g>
</g>
<!-- Node8&#45;&gt;Node25 -->
<g id="edge52" class="edge">
<title>Node8&#45;&gt;Node25</title>
<path fill="none" stroke="midnightblue" d="M1290.8,-297.46C1314.06,-285.92 1345.9,-270.12 1368.34,-258.98"/>
<polygon fill="midnightblue" stroke="midnightblue" points="1369.93,-262.1 1377.33,-254.52 1366.82,-255.83 1369.93,-262.1"/>
</g>
<!-- Node26 -->
<g id="node25" class="node">
<title>Node26</title>
<g id="a_node25"><a xlink:href="ImageMessage_8hpp.html" target="_top" xlink:title=" ">
<polygon fill="none" stroke="red" points="1483,-171.5 1483,-191.5 1594,-191.5 1594,-171.5 1483,-171.5"/>
<text text-anchor="middle" x="1538.5" y="-178.7" font-family="-apple-system, BlinkMacSystemFont, 'Segoe UI', Roboto, Oxygen, Ubuntu, Cantarell, 'Fira Sans', 'Droid Sans', 'Helvetica Neue', sans-serif" font-size="11.00">ImageMessage.hpp</text>
</a>
</g>
</g>
<!-- Node8&#45;&gt;Node26 -->
<g id="edge61" class="edge">
<title>Node8&#45;&gt;Node26</title>
<path fill="none" stroke="midnightblue" d="M1266.42,-297.32C1274.78,-278.01 1291.92,-245.14 1317.5,-228 1342.51,-211.25 1417.14,-198.21 1472.8,-190.47"/>
<polygon fill="midnightblue" stroke="midnightblue" points="1473.52,-193.9 1482.95,-189.08 1472.57,-186.97 1473.52,-193.9"/>
</g>
<!-- Node27 -->
<g id="node26" class="node">
<title>Node27</title>
<g id="a_node26"><a xlink:href="JsonMessage_8hpp.html" target="_top" xlink:title=" ">
<polygon fill="none" stroke="black" points="123.5,-171.5 123.5,-191.5 227.5,-191.5 227.5,-171.5 123.5,-171.5"/>
<text text-anchor="middle" x="175.5" y="-178.7" font-family="-apple-system, BlinkMacSystemFont, 'Segoe UI', Roboto, Oxygen, Ubuntu, Cantarell, 'Fira Sans', 'Droid Sans', 'Helvetica Neue', sans-serif" font-size="11.00">JsonMessage.hpp</text>
</a>
</g>
</g>
<!-- Node8&#45;&gt;Node27 -->
<g id="edge62" class="edge">
<title>Node8&#45;&gt;Node27</title>
<path fill="none" stroke="midnightblue" d="M1185.91,-309.54C1061.32,-303.99 803.16,-289.87 586.5,-261 454.7,-243.43 301.27,-210.86 224.51,-193.72"/>
<polygon fill="midnightblue" stroke="midnightblue" points="225.17,-190.28 214.65,-191.5 223.64,-197.11 225.17,-190.28"/>
</g>
<!-- Node28 -->
<g id="node27" class="node">
<title>Node28</title>
<g id="a_node27"><a xlink:href="MiraiCodeMessage_8hpp.html" target="_top" xlink:title=" ">
<polygon fill="none" stroke="black" points="245.5,-171.5 245.5,-191.5 375.5,-191.5 375.5,-171.5 245.5,-171.5"/>
<text text-anchor="middle" x="310.5" y="-178.7" font-family="-apple-system, BlinkMacSystemFont, 'Segoe UI', Roboto, Oxygen, Ubuntu, Cantarell, 'Fira Sans', 'Droid Sans', 'Helvetica Neue', sans-serif" font-size="11.00">MiraiCodeMessage.hpp</text>
</a>
</g>
</g>
<!-- Node8&#45;&gt;Node28 -->
<g id="edge67" class="edge">
<title>Node8&#45;&gt;Node28</title>
<path fill="none" stroke="midnightblue" d="M1185.99,-305C1096.3,-295.74 941.15,-279 808.5,-261 651.39,-239.68 467.27,-209.22 373.03,-193.24"/>
<polygon fill="midnightblue" stroke="midnightblue" points="373.54,-189.78 363.09,-191.55 372.37,-196.68 373.54,-189.78"/>
</g>
<!-- Node29 -->
<g id="node28" class="node">
<title>Node29</title>
<g id="a_node28"><a xlink:href="PlainMessage_8hpp.html" target="_top" xlink:title=" ">
<polygon fill="none" stroke="black" points="394,-171.5 394,-191.5 499,-191.5 499,-171.5 394,-171.5"/>
<text text-anchor="middle" x="446.5" y="-178.7" font-family="-apple-system, BlinkMacSystemFont, 'Segoe UI', Roboto, Oxygen, Ubuntu, Cantarell, 'Fira Sans', 'Droid Sans', 'Helvetica Neue', sans-serif" font-size="11.00">PlainMessage.hpp</text>
</a>
</g>
</g>
<!-- Node8&#45;&gt;Node29 -->
<g id="edge71" class="edge">
<title>Node8&#45;&gt;Node29</title>
<path fill="none" stroke="midnightblue" d="M1185.88,-308.44C1083.53,-301.98 905.54,-287.32 846.5,-261 826.07,-251.89 828.95,-237.06 808.5,-228 688.33,-174.76 643.19,-208.62 509.28,-192.14"/>
<polygon fill="midnightblue" stroke="midnightblue" points="509.42,-188.63 499.06,-190.81 508.52,-195.57 509.42,-188.63"/>
</g>
<!-- Node30 -->
<g id="node29" class="node">
<title>Node30</title>
<g id="a_node29"><a xlink:href="PokeMessage_8hpp.html" target="_top" xlink:title=" ">
<polygon fill="none" stroke="red" points="517,-171.5 517,-191.5 624,-191.5 624,-171.5 517,-171.5"/>
<text text-anchor="middle" x="570.5" y="-178.7" font-family="-apple-system, BlinkMacSystemFont, 'Segoe UI', Roboto, Oxygen, Ubuntu, Cantarell, 'Fira Sans', 'Droid Sans', 'Helvetica Neue', sans-serif" font-size="11.00">PokeMessage.hpp</text>
</a>
</g>
</g>
<!-- Node8&#45;&gt;Node30 -->
<g id="edge75" class="edge">
<title>Node8&#45;&gt;Node30</title>
<path fill="none" stroke="midnightblue" d="M1185.95,-307.35C1092.09,-300 936.78,-284.7 884.5,-261 864.13,-251.76 866.75,-237.51 846.5,-228 836.94,-223.51 712.96,-204.12 634.45,-192.14"/>
<polygon fill="midnightblue" stroke="midnightblue" points="634.58,-188.62 624.17,-190.58 633.52,-195.54 634.58,-188.62"/>
</g>
<!-- Node32 -->
<g id="node30" class="node">
<title>Node32</title>
<g id="a_node30"><a xlink:href="XmlMessage_8hpp.html" target="_top" xlink:title=" ">
<polygon fill="none" stroke="black" points="642.5,-171.5 642.5,-191.5 742.5,-191.5 742.5,-171.5 642.5,-171.5"/>
<text text-anchor="middle" x="692.5" y="-178.7" font-family="-apple-system, BlinkMacSystemFont, 'Segoe UI', Roboto, Oxygen, Ubuntu, Cantarell, 'Fira Sans', 'Droid Sans', 'Helvetica Neue', sans-serif" font-size="11.00">XmlMessage.hpp</text>
</a>
</g>
</g>
<!-- Node8&#45;&gt;Node32 -->
<g id="edge79" class="edge">
<title>Node8&#45;&gt;Node32</title>
<path fill="none" stroke="midnightblue" d="M1185.9,-312.9C1115.05,-310.62 1007.09,-300.12 922.5,-261 902.2,-251.61 904.4,-238.21 884.5,-228 843.14,-206.79 791.68,-195.28 752.46,-189.15"/>
<polygon fill="midnightblue" stroke="midnightblue" points="752.91,-185.68 742.5,-187.67 751.88,-192.6 752.91,-185.68"/>
</g>
<!-- Node16&#45;&gt;Node2 -->
<g id="edge22" class="edge">
<title>Node16&#45;&gt;Node2</title>
<path fill="none" stroke="midnightblue" d="M1162.15,-228.31C1178.54,-214.24 1197.34,-192.34 1188.5,-171 1159.7,-101.46 1062.18,-78.85 1011.17,-71.69"/>
<polygon fill="midnightblue" stroke="midnightblue" points="1011.4,-68.19 1001.04,-70.39 1010.51,-75.14 1011.4,-68.19"/>
</g>
<!-- Node16&#45;&gt;Node12 -->
<g id="edge21" class="edge">
<title>Node16&#45;&gt;Node12</title>
<path fill="none" stroke="midnightblue" d="M1172.65,-228.42C1193.19,-218.48 1219.86,-205.56 1239.69,-195.96"/>
<polygon fill="midnightblue" stroke="midnightblue" points="1241.34,-199.05 1248.82,-191.55 1238.29,-192.75 1241.34,-199.05"/>
</g>
<!-- Node17&#45;&gt;Node2 -->
<g id="edge24" class="edge">
<title>Node17&#45;&gt;Node2</title>
<path fill="none" stroke="midnightblue" d="M1129.44,-171.49C1128.85,-157.38 1125.68,-130.05 1110.5,-114 1084.57,-86.58 1041.28,-75.68 1011.61,-71.35"/>
<polygon fill="midnightblue" stroke="midnightblue" points="1011.72,-67.83 1001.35,-70.03 1010.83,-74.78 1011.72,-67.83"/>
</g>
<!-- Node17&#45;&gt;Node3 -->
<g id="edge25" class="edge">
<title>Node17&#45;&gt;Node3</title>
<path fill="none" stroke="midnightblue" d="M1143.79,-171.27C1166.81,-155.44 1211.26,-120.67 1228.5,-78 1232,-69.35 1233.39,-64.95 1228.5,-57 1218.99,-41.54 1202.43,-31.14 1186.08,-24.24"/>
<polygon fill="midnightblue" stroke="midnightblue" points="1187.13,-20.89 1176.54,-20.57 1184.61,-27.42 1187.13,-20.89"/>
</g>
<!-- Node17&#45;&gt;Node18 -->
<g id="edge26" class="edge">
<title>Node17&#45;&gt;Node18</title>
<path fill="none" stroke="midnightblue" d="M1116.12,-171.42C1103.7,-162.98 1084.96,-150.26 1070.36,-140.34"/>
<polygon fill="midnightblue" stroke="midnightblue" points="1072.13,-137.32 1061.9,-134.6 1068.2,-143.11 1072.13,-137.32"/>
</g>
<!-- Node18&#45;&gt;Node2 -->
<g id="edge28" class="edge">
<title>Node18&#45;&gt;Node2</title>
<path fill="none" stroke="midnightblue" d="M1037.11,-114.42C1026.78,-106.19 1011.35,-93.88 999.05,-84.08"/>
<polygon fill="midnightblue" stroke="midnightblue" points="1001.14,-81.28 991.14,-77.78 996.78,-86.75 1001.14,-81.28"/>
</g>
<!-- Node18&#45;&gt;Node3 -->
<g id="edge29" class="edge">
<title>Node18&#45;&gt;Node3</title>
<path fill="none" stroke="midnightblue" d="M1045.62,-114.08C1042.04,-100.39 1037.61,-74.7 1048.5,-57 1058.01,-41.54 1074.57,-31.14 1090.92,-24.24"/>
<polygon fill="midnightblue" stroke="midnightblue" points="1092.39,-27.42 1100.46,-20.57 1089.87,-20.89 1092.39,-27.42"/>
</g>
<!-- Node18&#45;&gt;Node7 -->
<g id="edge30" class="edge">
<title>Node18&#45;&gt;Node7</title>
<path fill="none" stroke="midnightblue" d="M1063.36,-114.42C1077.3,-105.9 1098.38,-93.02 1114.67,-83.06"/>
<polygon fill="midnightblue" stroke="midnightblue" points="1116.91,-85.8 1123.62,-77.6 1113.26,-79.82 1116.91,-85.8"/>
</g>
<!-- Node18&#45;&gt;Node10 -->
<g id="edge27" class="edge">
<title>Node18&#45;&gt;Node10</title>
<path fill="none" stroke="midnightblue" d="M1101.7,-120.46C1275.54,-110.55 1824.27,-79.24 1974.28,-70.68"/>
<polygon fill="midnightblue" stroke="midnightblue" points="1974.59,-74.17 1984.38,-70.1 1974.19,-67.18 1974.59,-74.17"/>
</g>
<!-- Node19&#45;&gt;Node2 -->
<g id="edge32" class="edge">
<title>Node19&#45;&gt;Node2</title>
<path fill="none" stroke="midnightblue" d="M971.24,-171.33C972.69,-153.2 975.97,-112.41 977.93,-88"/>
<polygon fill="midnightblue" stroke="midnightblue" points="981.44,-88.04 978.75,-77.79 974.46,-87.48 981.44,-88.04"/>
</g>
<!-- Node19&#45;&gt;Node3 -->
<g id="edge33" class="edge">
<title>Node19&#45;&gt;Node3</title>
<path fill="none" stroke="midnightblue" d="M964.54,-171.27C951,-149.03 921.12,-91.71 948.5,-57 962.88,-38.76 1016.25,-27.02 1062.78,-20.04"/>
<polygon fill="midnightblue" stroke="midnightblue" points="1063.5,-23.47 1072.89,-18.58 1062.5,-16.54 1063.5,-23.47"/>
</g>
<!-- Node19&#45;&gt;Node18 -->
<g id="edge34" class="edge">
<title>Node19&#45;&gt;Node18</title>
<path fill="none" stroke="midnightblue" d="M983.38,-171.42C995.24,-163.06 1013.05,-150.5 1027.05,-140.62"/>
<polygon fill="midnightblue" stroke="midnightblue" points="1029.45,-143.22 1035.6,-134.6 1025.41,-137.5 1029.45,-143.22"/>
</g>
<!-- Node20&#45;&gt;Node2 -->
<g id="edge36" class="edge">
<title>Node20&#45;&gt;Node2</title>
<path fill="none" stroke="midnightblue" d="M1665.22,-171.48C1614.21,-157.12 1509.73,-129.13 1419.5,-114 1256.12,-86.6 1213.04,-97.3 1048.5,-78 1036.36,-76.58 1023.05,-74.8 1011.39,-73.16"/>
<polygon fill="midnightblue" stroke="midnightblue" points="1011.62,-69.66 1001.23,-71.72 1010.63,-76.59 1011.62,-69.66"/>
</g>
<!-- Node20&#45;&gt;Node3 -->
<g id="edge37" class="edge">
<title>Node20&#45;&gt;Node3</title>
<path fill="none" stroke="midnightblue" d="M1713.6,-171.46C1751.11,-150.55 1834.33,-97.54 1796.5,-57 1757.5,-15.21 1378.96,-10.93 1214.33,-11.07"/>
<polygon fill="midnightblue" stroke="midnightblue" points="1214.27,-7.57 1204.28,-11.08 1214.28,-14.57 1214.27,-7.57"/>
</g>
<!-- Node20&#45;&gt;Node4 -->
<g id="edge38" class="edge">
<title>Node20&#45;&gt;Node4</title>
<path fill="none" stroke="midnightblue" d="M1684.28,-171.42C1673.03,-163.06 1656.13,-150.5 1642.85,-140.62"/>
<polygon fill="midnightblue" stroke="midnightblue" points="1644.85,-137.75 1634.74,-134.6 1640.68,-143.37 1644.85,-137.75"/>
</g>
<!-- Node20&#45;&gt;Node18 -->
<g id="edge39" class="edge">
<title>Node20&#45;&gt;Node18</title>
<path fill="none" stroke="midnightblue" d="M1650.14,-175.64C1634.96,-174.1 1618.02,-172.42 1602.5,-171 1424.81,-154.73 1214.79,-138.22 1111.84,-130.31"/>
<polygon fill="midnightblue" stroke="midnightblue" points="1111.86,-126.8 1101.62,-129.53 1111.32,-133.78 1111.86,-126.8"/>
</g>
<!-- Node21&#45;&gt;Node2 -->
<g id="edge41" class="edge">
<title>Node21&#45;&gt;Node2</title>
<path fill="none" stroke="midnightblue" d="M1354.58,-171.36C1327.46,-157.09 1272.26,-129.52 1222.5,-114 1183.43,-101.81 1067.72,-82.53 1011.23,-73.49"/>
<polygon fill="midnightblue" stroke="midnightblue" points="1011.51,-69.99 1001.09,-71.87 1010.41,-76.9 1011.51,-69.99"/>
</g>
<!-- Node21&#45;&gt;Node3 -->
<g id="edge42" class="edge">
<title>Node21&#45;&gt;Node3</title>
<path fill="none" stroke="midnightblue" d="M1364.1,-171.27C1345.86,-149.01 1296.43,-91.65 1244.5,-57 1223.65,-43.09 1197.84,-31.9 1176.92,-24.1"/>
<polygon fill="midnightblue" stroke="midnightblue" points="1177.97,-20.76 1167.38,-20.65 1175.59,-27.34 1177.97,-20.76"/>
</g>
<!-- Node21&#45;&gt;Node18 -->
<g id="edge43" class="edge">
<title>Node21&#45;&gt;Node18</title>
<path fill="none" stroke="midnightblue" d="M1318.52,-171.48C1261.85,-161.83 1171.98,-146.53 1111.66,-136.26"/>
<polygon fill="midnightblue" stroke="midnightblue" points="1111.95,-132.75 1101.5,-134.53 1110.77,-139.65 1111.95,-132.75"/>
</g>
<!-- Node23&#45;&gt;Node2 -->
<g id="edge45" class="edge">
<title>Node23&#45;&gt;Node2</title>
<path fill="none" stroke="midnightblue" d="M860.14,-171.33C882.23,-152.3 933.32,-108.29 960.95,-84.48"/>
<polygon fill="midnightblue" stroke="midnightblue" points="963.42,-86.97 968.71,-77.79 958.85,-81.67 963.42,-86.97"/>
</g>
<!-- Node23&#45;&gt;Node3 -->
<g id="edge46" class="edge">
<title>Node23&#45;&gt;Node3</title>
<path fill="none" stroke="midnightblue" d="M853.09,-171.3C862.64,-148.09 891.04,-86.87 935.5,-57 972.95,-31.84 1022.19,-20.4 1062.79,-15.28"/>
<polygon fill="midnightblue" stroke="midnightblue" points="1063.38,-18.74 1072.91,-14.11 1062.58,-11.79 1063.38,-18.74"/>
</g>
<!-- Node23&#45;&gt;Node18 -->
<g id="edge47" class="edge">
<title>Node23&#45;&gt;Node18</title>
<path fill="none" stroke="midnightblue" d="M882.36,-171.42C916.16,-162.08 968.96,-147.48 1005.94,-137.26"/>
<polygon fill="midnightblue" stroke="midnightblue" points="1007.21,-140.54 1015.92,-134.5 1005.35,-133.79 1007.21,-140.54"/>
</g>
<!-- Node24&#45;&gt;Node2 -->
<g id="edge49" class="edge">
<title>Node24&#45;&gt;Node2</title>
<path fill="none" stroke="midnightblue" d="M105.25,-172.29C108.38,-171.84 111.48,-171.41 114.5,-171 439.31,-126.88 834.21,-83.99 947.65,-71.88"/>
<polygon fill="midnightblue" stroke="midnightblue" points="948.17,-75.34 957.74,-70.8 947.42,-68.38 948.17,-75.34"/>
</g>
<!-- Node24&#45;&gt;Node3 -->
<g id="edge50" class="edge">
<title>Node24&#45;&gt;Node3</title>
<path fill="none" stroke="midnightblue" d="M79.9,-171.49C152.07,-148.18 353.69,-85.7 526.5,-57 717.8,-25.24 946.43,-15.64 1062.62,-12.75"/>
<polygon fill="midnightblue" stroke="midnightblue" points="1062.91,-16.24 1072.82,-12.5 1062.74,-9.24 1062.91,-16.24"/>
</g>
<!-- Node24&#45;&gt;Node18 -->
<g id="edge51" class="edge">
<title>Node24&#45;&gt;Node18</title>
<path fill="none" stroke="midnightblue" d="M105.22,-172.04C108.35,-171.66 111.47,-171.31 114.5,-171 441.16,-138.11 834.57,-128.79 985.42,-126.33"/>
<polygon fill="midnightblue" stroke="midnightblue" points="985.49,-129.82 995.44,-126.17 985.38,-122.83 985.49,-129.82"/>
</g>
<!-- Node25&#45;&gt;Node2 -->
<g id="edge53" class="edge">
<title>Node25&#45;&gt;Node2</title>
<path fill="none" stroke="midnightblue" d="M1406.93,-234.36C1423.28,-220.16 1449.77,-192.23 1434.5,-171 1411.23,-138.66 1303.19,-123.51 1264.5,-114 1216.89,-102.3 1075.55,-81.9 1011.58,-72.94"/>
<polygon fill="midnightblue" stroke="midnightblue" points="1011.68,-69.42 1001.29,-71.5 1010.71,-76.35 1011.68,-69.42"/>
</g>
<!-- Node25&#45;&gt;Node3 -->
<g id="edge54" class="edge">
<title>Node25&#45;&gt;Node3</title>
<path fill="none" stroke="midnightblue" d="M1462.68,-234.45C1564.12,-220.68 1745.34,-195.69 1751.5,-192 1808.46,-157.88 1860.85,-105.5 1815.5,-57 1775.14,-13.84 1382.15,-10.38 1214.1,-10.91"/>
<polygon fill="midnightblue" stroke="midnightblue" points="1214.07,-7.41 1204.08,-10.94 1214.1,-14.41 1214.07,-7.41"/>
</g>
<!-- Node25&#45;&gt;Node4 -->
<g id="edge55" class="edge">
<title>Node25&#45;&gt;Node4</title>
<path fill="none" stroke="midnightblue" d="M1442.02,-234.45C1499.4,-222.91 1590.84,-203.11 1602.5,-192 1615.3,-179.81 1620,-159.77 1621.68,-144.87"/>
<polygon fill="midnightblue" stroke="midnightblue" points="1625.18,-144.93 1622.45,-134.69 1618.2,-144.39 1625.18,-144.93"/>
</g>
<!-- Node25&#45;&gt;Node26 -->
<g id="edge56" class="edge">
<title>Node25&#45;&gt;Node26</title>
<path fill="none" stroke="midnightblue" d="M1416.6,-234.5C1440.68,-224.23 1480.28,-207.34 1507.78,-195.6"/>
<polygon fill="midnightblue" stroke="midnightblue" points="1509.49,-198.68 1517.31,-191.54 1506.74,-192.24 1509.49,-198.68"/>
</g>
<!-- Node26&#45;&gt;Node2 -->
<g id="edge57" class="edge">
<title>Node26&#45;&gt;Node2</title>
<path fill="none" stroke="midnightblue" d="M1520.96,-171.44C1491.68,-156.75 1430.6,-127.98 1375.5,-114 1233.78,-78.04 1193.6,-95.97 1048.5,-78 1036.37,-76.5 1023.07,-74.7 1011.4,-73.08"/>
<polygon fill="midnightblue" stroke="midnightblue" points="1011.62,-69.57 1001.23,-71.65 1010.65,-76.51 1011.62,-69.57"/>
</g>
<!-- Node26&#45;&gt;Node3 -->
<g id="edge58" class="edge">
<title>Node26&#45;&gt;Node3</title>
<path fill="none" stroke="midnightblue" d="M1523.82,-171.42C1501.7,-157.93 1458.26,-132.24 1419.5,-114 1336.34,-74.87 1233.86,-40.86 1178.52,-23.58"/>
<polygon fill="midnightblue" stroke="midnightblue" points="1179.34,-20.17 1168.75,-20.56 1177.26,-26.86 1179.34,-20.17"/>
</g>
<!-- Node26&#45;&gt;Node4 -->
<g id="edge59" class="edge">
<title>Node26&#45;&gt;Node4</title>
<path fill="none" stroke="midnightblue" d="M1552.37,-171.42C1565.26,-162.98 1584.69,-150.26 1599.83,-140.34"/>
<polygon fill="midnightblue" stroke="midnightblue" points="1602.16,-143 1608.61,-134.6 1598.33,-137.15 1602.16,-143"/>
</g>
<!-- Node26&#45;&gt;Node18 -->
<g id="edge60" class="edge">
<title>Node26&#45;&gt;Node18</title>
<path fill="none" stroke="midnightblue" d="M1482.77,-174.24C1390.92,-163.94 1208.34,-143.44 1111.78,-132.6"/>
<polygon fill="midnightblue" stroke="midnightblue" points="1111.9,-129.09 1101.57,-131.46 1111.12,-136.05 1111.9,-129.09"/>
</g>
<!-- Node27&#45;&gt;Node2 -->
<g id="edge63" class="edge">
<title>Node27&#45;&gt;Node2</title>
<path fill="none" stroke="midnightblue" d="M227.71,-172.14C230.68,-171.73 233.63,-171.35 236.5,-171 414.99,-149.15 467.55,-187.62 639.5,-135 657.95,-129.35 659.23,-120.2 677.5,-114 772.31,-81.82 891.57,-72.36 947.62,-69.61"/>
<polygon fill="midnightblue" stroke="midnightblue" points="947.81,-73.1 957.65,-69.16 947.5,-66.11 947.81,-73.1"/>
</g>
<!-- Node27&#45;&gt;Node3 -->
<g id="edge64" class="edge">
<title>Node27&#45;&gt;Node3</title>
<path fill="none" stroke="midnightblue" d="M202.24,-171.44C271.76,-148.27 464.27,-86.62 629.5,-57 781.89,-29.68 963.04,-18.46 1062.93,-14.09"/>
<polygon fill="midnightblue" stroke="midnightblue" points="1063.09,-17.59 1072.93,-13.67 1062.79,-10.59 1063.09,-17.59"/>
</g>
<!-- Node27&#45;&gt;Node18 -->
<g id="edge65" class="edge">
<title>Node27&#45;&gt;Node18</title>
<path fill="none" stroke="midnightblue" d="M227.7,-172.02C230.67,-171.65 233.62,-171.3 236.5,-171 514.3,-141.66 847.7,-130.49 984.84,-126.93"/>
<polygon fill="midnightblue" stroke="midnightblue" points="985.24,-130.43 995.15,-126.67 985.07,-123.43 985.24,-130.43"/>
</g>
<!-- Node28&#45;&gt;Node2 -->
<g id="edge68" class="edge">
<title>Node28&#45;&gt;Node2</title>
<path fill="none" stroke="midnightblue" d="M375.87,-172.09C378.78,-171.72 381.67,-171.36 384.5,-171 514.68,-154.65 552.7,-175.47 677.5,-135 695.86,-129.05 697.29,-120.39 715.5,-114 796.21,-85.65 897.21,-74.55 947.69,-70.55"/>
<polygon fill="midnightblue" stroke="midnightblue" points="947.96,-74.04 957.67,-69.8 947.44,-67.06 947.96,-74.04"/>
</g>
<!-- Node28&#45;&gt;Node3 -->
<g id="edge69" class="edge">
<title>Node28&#45;&gt;Node3</title>
<path fill="none" stroke="midnightblue" d="M335.24,-171.38C398.75,-148.33 573.14,-87.46 723.5,-57 840.62,-33.27 979.02,-21.23 1062.7,-15.67"/>
<polygon fill="midnightblue" stroke="midnightblue" points="1063.13,-19.15 1072.88,-15.01 1062.68,-12.17 1063.13,-19.15"/>
</g>
<!-- Node28&#45;&gt;Node18 -->
<g id="edge70" class="edge">
<title>Node28&#45;&gt;Node18</title>
<path fill="none" stroke="midnightblue" d="M375.85,-171.9C378.77,-171.58 381.66,-171.28 384.5,-171 604.68,-149.34 866.94,-134.63 985.17,-128.59"/>
<polygon fill="midnightblue" stroke="midnightblue" points="985.67,-132.07 995.48,-128.06 985.31,-125.08 985.67,-132.07"/>
</g>
<!-- Node29&#45;&gt;Node2 -->
<g id="edge72" class="edge">
<title>Node29&#45;&gt;Node2</title>
<path fill="none" stroke="midnightblue" d="M499.01,-172.08C574.38,-159.93 705.36,-138.55 715.5,-135 733.72,-128.63 735.39,-120.65 753.5,-114 820.14,-89.54 902.93,-77.13 947.5,-71.82"/>
<polygon fill="midnightblue" stroke="midnightblue" points="948.18,-75.26 957.71,-70.64 947.38,-68.31 948.18,-75.26"/>
</g>
<!-- Node29&#45;&gt;Node3 -->
<g id="edge73" class="edge">
<title>Node29&#45;&gt;Node3</title>
<path fill="none" stroke="midnightblue" d="M467.41,-171.43C521.11,-148.51 668.73,-87.9 797.5,-57 887.31,-35.45 993.05,-23.33 1062.7,-17.12"/>
<polygon fill="midnightblue" stroke="midnightblue" points="1063.05,-20.6 1072.71,-16.24 1062.45,-13.62 1063.05,-20.6"/>
</g>
<!-- Node29&#45;&gt;Node18 -->
<g id="edge74" class="edge">
<title>Node29&#45;&gt;Node18</title>
<path fill="none" stroke="midnightblue" d="M499.04,-172.08C501.9,-171.69 504.73,-171.33 507.5,-171 679.86,-150.36 884.23,-135.87 985.34,-129.36"/>
<polygon fill="midnightblue" stroke="midnightblue" points="985.63,-132.85 995.39,-128.72 985.19,-125.86 985.63,-132.85"/>
</g>
<!-- Node30&#45;&gt;Node2 -->
<g id="edge76" class="edge">
<title>Node30&#45;&gt;Node2</title>
<path fill="none" stroke="midnightblue" d="M621.7,-171.5C659.02,-164.05 710.38,-151.94 753.5,-135 771.46,-127.95 773.52,-121 791.5,-114 844.56,-93.35 909.81,-80.09 947.82,-73.5"/>
<polygon fill="midnightblue" stroke="midnightblue" points="948.51,-76.93 957.79,-71.81 947.34,-70.03 948.51,-76.93"/>
</g>
<!-- Node30&#45;&gt;Node3 -->
<g id="edge77" class="edge">
<title>Node30&#45;&gt;Node3</title>
<path fill="none" stroke="midnightblue" d="M587.55,-171.46C631.38,-148.63 752.09,-88.21 859.5,-57 926.97,-37.4 1006.22,-25.49 1062.99,-18.8"/>
<polygon fill="midnightblue" stroke="midnightblue" points="1063.43,-22.27 1072.96,-17.65 1062.63,-15.32 1063.43,-22.27"/>
</g>
<!-- Node30&#45;&gt;Node18 -->
<g id="edge78" class="edge">
<title>Node30&#45;&gt;Node18</title>
<path fill="none" stroke="midnightblue" d="M624.1,-172.27C627.28,-171.83 630.43,-171.4 633.5,-171 757.91,-154.81 903.81,-139.71 985.26,-131.63"/>
<polygon fill="midnightblue" stroke="midnightblue" points="985.75,-135.1 995.35,-130.63 985.06,-128.13 985.75,-135.1"/>
</g>
<!-- Node32&#45;&gt;Node2 -->
<g id="edge80" class="edge">
<title>Node32&#45;&gt;Node2</title>
<path fill="none" stroke="midnightblue" d="M712.25,-171.42C749.35,-154.38 826.86,-118.89 839.5,-114 876.22,-99.78 919.45,-86.19 948.06,-77.63"/>
<polygon fill="midnightblue" stroke="midnightblue" points="949.3,-80.91 957.89,-74.71 947.31,-74.2 949.3,-80.91"/>
</g>
<!-- Node32&#45;&gt;Node3 -->
<g id="edge81" class="edge">
<title>Node32&#45;&gt;Node3</title>
<path fill="none" stroke="midnightblue" d="M704.86,-171.43C736.7,-148.51 824.85,-87.92 907.5,-57 957.6,-38.26 1016.83,-26.79 1062.78,-20.06"/>
<polygon fill="midnightblue" stroke="midnightblue" points="1063.56,-23.48 1072.96,-18.61 1062.57,-16.55 1063.56,-23.48"/>
</g>
<!-- Node32&#45;&gt;Node18 -->
<g id="edge82" class="edge">
<title>Node32&#45;&gt;Node18</title>
<path fill="none" stroke="midnightblue" d="M742.75,-172.74C806.41,-162.9 916.16,-145.95 985.4,-135.25"/>
<polygon fill="midnightblue" stroke="midnightblue" points="985.96,-138.7 995.31,-133.72 984.89,-131.79 985.96,-138.7"/>
</g>
<!-- Node33&#45;&gt;Node2 -->
<g id="edge85" class="edge">
<title>Node33&#45;&gt;Node2</title>
<path fill="none" stroke="midnightblue" d="M2022.78,-122.05C1852.14,-116.45 1241.94,-95.6 1048.5,-78 1036.33,-76.89 1023.01,-75.18 1011.36,-73.51"/>
<polygon fill="midnightblue" stroke="midnightblue" points="1011.6,-70.01 1001.19,-72.01 1010.58,-76.93 1011.6,-70.01"/>
</g>
<!-- Node33&#45;&gt;Node3 -->
<g id="edge86" class="edge">
<title>Node33&#45;&gt;Node3</title>
<path fill="none" stroke="midnightblue" d="M2068.08,-114.43C2068.48,-99.74 2066.82,-70.96 2049.5,-57 2017.2,-30.97 1427.28,-17.07 1214.35,-12.88"/>
<polygon fill="midnightblue" stroke="midnightblue" points="1214.26,-9.38 1204.19,-12.68 1214.12,-16.38 1214.26,-9.38"/>
</g>
<!-- Node33&#45;&gt;Node10 -->
<g id="edge84" class="edge">
<title>Node33&#45;&gt;Node10</title>
<path fill="none" stroke="midnightblue" d="M2058.42,-114.42C2050.42,-106.42 2038.59,-94.59 2028.94,-84.94"/>
<polygon fill="midnightblue" stroke="midnightblue" points="2031.33,-82.38 2021.78,-77.78 2026.38,-87.33 2031.33,-82.38"/>
</g>
</g>
</svg>
