<?xml version="1.0" encoding="UTF-8" standalone="no"?>
<!DOCTYPE svg PUBLIC "-//W3C//DTD SVG 1.1//EN"
 "http://www.w3.org/Graphics/SVG/1.1/DTD/svg11.dtd">
<!-- Generated by graphviz version 3.0.0 (20221109.1736)
 -->
<!-- Title: libmirai/models/libmirai/Events/IEvent.hpp Pages: 1 -->
<svg width="1979pt" height="386pt"
 viewBox="0.00 0.00 1978.55 386.00" xmlns="http://www.w3.org/2000/svg" xmlns:xlink="http://www.w3.org/1999/xlink">
<g id="graph0" class="graph" transform="scale(1 1) rotate(0) translate(4 382)">
<title>libmirai/models/libmirai/Events/IEvent.hpp</title>
<!-- Node1 -->
<g id="node1" class="node">
<title>Node1</title>
<g id="a_node1"><a xlink:title=" ">
<polygon fill="#bfbfbf" stroke="black" points="795.05,-345.5 795.05,-377.5 920.05,-377.5 920.05,-345.5 795.05,-345.5"/>
<text text-anchor="start" x="803.05" y="-364.7" font-family="-apple-system, BlinkMacSystemFont, 'Segoe UI', Roboto, Oxygen, Ubuntu, Cantarell, 'Fira Sans', 'Droid Sans', 'Helvetica Neue', sans-serif" font-size="11.00">libmirai/models/libmirai</text>
<text text-anchor="middle" x="857.55" y="-352.7" font-family="-apple-system, BlinkMacSystemFont, 'Segoe UI', Roboto, Oxygen, Ubuntu, Cantarell, 'Fira Sans', 'Droid Sans', 'Helvetica Neue', sans-serif" font-size="11.00">/Events/IEvent.hpp</text>
</a>
</g>
</g>
<!-- Node2 -->
<g id="node2" class="node">
<title>Node2</title>
<g id="a_node2"><a xlink:href="Events_8hpp.html" target="_top" xlink:title=" ">
<polygon fill="none" stroke="black" points="880.05,-207.5 880.05,-239.5 1025.05,-239.5 1025.05,-207.5 880.05,-207.5"/>
<text text-anchor="start" x="888.05" y="-226.7" font-family="-apple-system, BlinkMacSystemFont, 'Segoe UI', Roboto, Oxygen, Ubuntu, Cantarell, 'Fira Sans', 'Droid Sans', 'Helvetica Neue', sans-serif" font-size="11.00">libmirai/aggregates</text>
<text text-anchor="middle" x="952.55" y="-214.7" font-family="-apple-system, BlinkMacSystemFont, 'Segoe UI', Roboto, Oxygen, Ubuntu, Cantarell, 'Fira Sans', 'Droid Sans', 'Helvetica Neue', sans-serif" font-size="11.00">/libmirai/Events/Events.hpp</text>
</a>
</g>
</g>
<!-- Node1&#45;&gt;Node2 -->
<g id="edge1" class="edge">
<title>Node1&#45;&gt;Node2</title>
<path fill="none" stroke="midnightblue" d="M784.77,-358.77C583.77,-353.65 34.02,-337.12 7.55,-309 -2.5,-298.32 -2.53,-286.65 7.55,-276 37.44,-244.44 663.7,-229.87 879.91,-225.76"/>
<polygon fill="midnightblue" stroke="midnightblue" points="784.85,-362.28 794.94,-359.03 785.03,-355.28 784.85,-362.28"/>
</g>
<!-- Node9 -->
<g id="node7" class="node">
<title>Node9</title>
<g id="a_node7"><a xlink:href="BotEvents_8hpp.html" target="_top" xlink:title=" ">
<polygon fill="none" stroke="black" points="17.05,-276.5 17.05,-308.5 142.05,-308.5 142.05,-276.5 17.05,-276.5"/>
<text text-anchor="start" x="25.05" y="-295.7" font-family="-apple-system, BlinkMacSystemFont, 'Segoe UI', Roboto, Oxygen, Ubuntu, Cantarell, 'Fira Sans', 'Droid Sans', 'Helvetica Neue', sans-serif" font-size="11.00">libmirai/models/libmirai</text>
<text text-anchor="middle" x="79.55" y="-283.7" font-family="-apple-system, BlinkMacSystemFont, 'Segoe UI', Roboto, Oxygen, Ubuntu, Cantarell, 'Fira Sans', 'Droid Sans', 'Helvetica Neue', sans-serif" font-size="11.00">/Events/BotEvents.hpp</text>
</a>
</g>
</g>
<!-- Node1&#45;&gt;Node9 -->
<g id="edge7" class="edge">
<title>Node1&#45;&gt;Node9</title>
<path fill="none" stroke="midnightblue" d="M784.69,-358.61C656.07,-354.51 380.61,-342.32 150.55,-309 147.81,-308.6 145.01,-308.16 142.19,-307.68"/>
<polygon fill="midnightblue" stroke="midnightblue" points="784.71,-362.11 794.81,-358.92 784.93,-355.11 784.71,-362.11"/>
</g>
<!-- Node10 -->
<g id="node8" class="node">
<title>Node10</title>
<g id="a_node8"><a xlink:href="CommandExecutedEvent_8hpp.html" target="_top" xlink:title=" ">
<polygon fill="none" stroke="black" points="160.05,-276.5 160.05,-308.5 357.05,-308.5 357.05,-276.5 160.05,-276.5"/>
<text text-anchor="start" x="168.05" y="-295.7" font-family="-apple-system, BlinkMacSystemFont, 'Segoe UI', Roboto, Oxygen, Ubuntu, Cantarell, 'Fira Sans', 'Droid Sans', 'Helvetica Neue', sans-serif" font-size="11.00">libmirai/models/libmirai</text>
<text text-anchor="middle" x="258.55" y="-283.7" font-family="-apple-system, BlinkMacSystemFont, 'Segoe UI', Roboto, Oxygen, Ubuntu, Cantarell, 'Fira Sans', 'Droid Sans', 'Helvetica Neue', sans-serif" font-size="11.00">/Events/CommandExecutedEvent.hpp</text>
</a>
</g>
</g>
<!-- Node1&#45;&gt;Node10 -->
<g id="edge9" class="edge">
<title>Node1&#45;&gt;Node10</title>
<path fill="none" stroke="midnightblue" d="M784.75,-353.79C688.63,-344.72 514.18,-327.54 365.55,-309 362.76,-308.65 359.93,-308.29 357.07,-307.92"/>
<polygon fill="midnightblue" stroke="midnightblue" points="784.66,-357.29 794.94,-354.75 785.31,-350.32 784.66,-357.29"/>
</g>
<!-- Node11 -->
<g id="node9" class="node">
<title>Node11</title>
<g id="a_node9"><a xlink:href="FriendEvents_8hpp.html" target="_top" xlink:title=" ">
<polygon fill="none" stroke="black" points="375.05,-276.5 375.05,-308.5 514.05,-308.5 514.05,-276.5 375.05,-276.5"/>
<text text-anchor="start" x="383.05" y="-295.7" font-family="-apple-system, BlinkMacSystemFont, 'Segoe UI', Roboto, Oxygen, Ubuntu, Cantarell, 'Fira Sans', 'Droid Sans', 'Helvetica Neue', sans-serif" font-size="11.00">libmirai/models/libmirai</text>
<text text-anchor="middle" x="444.55" y="-283.7" font-family="-apple-system, BlinkMacSystemFont, 'Segoe UI', Roboto, Oxygen, Ubuntu, Cantarell, 'Fira Sans', 'Droid Sans', 'Helvetica Neue', sans-serif" font-size="11.00">/Events/FriendEvents.hpp</text>
</a>
</g>
</g>
<!-- Node1&#45;&gt;Node11 -->
<g id="edge11" class="edge">
<title>Node1&#45;&gt;Node11</title>
<path fill="none" stroke="midnightblue" d="M784.8,-350.15C717.05,-340.31 613.29,-324.72 523.55,-309 520.52,-308.47 517.43,-307.92 514.31,-307.35"/>
<polygon fill="midnightblue" stroke="midnightblue" points="784.55,-353.65 794.95,-351.62 785.55,-346.73 784.55,-353.65"/>
</g>
<!-- Node12 -->
<g id="node10" class="node">
<title>Node12</title>
<g id="a_node10"><a xlink:href="GroupEvents_8hpp.html" target="_top" xlink:title=" ">
<polygon fill="none" stroke="black" points="532.55,-276.5 532.55,-308.5 670.55,-308.5 670.55,-276.5 532.55,-276.5"/>
<text text-anchor="start" x="540.55" y="-295.7" font-family="-apple-system, BlinkMacSystemFont, 'Segoe UI', Roboto, Oxygen, Ubuntu, Cantarell, 'Fira Sans', 'Droid Sans', 'Helvetica Neue', sans-serif" font-size="11.00">libmirai/models/libmirai</text>
<text text-anchor="middle" x="601.55" y="-283.7" font-family="-apple-system, BlinkMacSystemFont, 'Segoe UI', Roboto, Oxygen, Ubuntu, Cantarell, 'Fira Sans', 'Droid Sans', 'Helvetica Neue', sans-serif" font-size="11.00">/Events/GroupEvents.hpp</text>
</a>
</g>
</g>
<!-- Node1&#45;&gt;Node12 -->
<g id="edge13" class="edge">
<title>Node1&#45;&gt;Node12</title>
<path fill="none" stroke="midnightblue" d="M790.26,-342.89C749.53,-332.23 698.12,-318.77 659.26,-308.6"/>
<polygon fill="midnightblue" stroke="midnightblue" points="789.54,-346.32 800.1,-345.46 791.31,-339.55 789.54,-346.32"/>
</g>
<!-- Node13 -->
<g id="node11" class="node">
<title>Node13</title>
<g id="a_node11"><a xlink:href="MemberEvents_8hpp.html" target="_top" xlink:title=" ">
<polygon fill="none" stroke="black" points="688.55,-276.5 688.55,-308.5 836.55,-308.5 836.55,-276.5 688.55,-276.5"/>
<text text-anchor="start" x="696.55" y="-295.7" font-family="-apple-system, BlinkMacSystemFont, 'Segoe UI', Roboto, Oxygen, Ubuntu, Cantarell, 'Fira Sans', 'Droid Sans', 'Helvetica Neue', sans-serif" font-size="11.00">libmirai/models/libmirai</text>
<text text-anchor="middle" x="762.55" y="-283.7" font-family="-apple-system, BlinkMacSystemFont, 'Segoe UI', Roboto, Oxygen, Ubuntu, Cantarell, 'Fira Sans', 'Droid Sans', 'Helvetica Neue', sans-serif" font-size="11.00">/Events/MemberEvents.hpp</text>
</a>
</g>
</g>
<!-- Node1&#45;&gt;Node13 -->
<g id="edge15" class="edge">
<title>Node1&#45;&gt;Node13</title>
<path fill="none" stroke="midnightblue" d="M827.56,-339.35C813.42,-329.38 796.88,-317.71 784.03,-308.64"/>
<polygon fill="midnightblue" stroke="midnightblue" points="825.81,-342.39 836,-345.3 829.84,-336.67 825.81,-342.39"/>
</g>
<!-- Node14 -->
<g id="node12" class="node">
<title>Node14</title>
<g id="a_node12"><a xlink:href="MiraiClientEvents_8hpp.html" target="_top" xlink:title=" ">
<polygon fill="none" stroke="black" points="1812.55,-276.5 1812.55,-308.5 1970.55,-308.5 1970.55,-276.5 1812.55,-276.5"/>
<text text-anchor="start" x="1820.55" y="-295.7" font-family="-apple-system, BlinkMacSystemFont, 'Segoe UI', Roboto, Oxygen, Ubuntu, Cantarell, 'Fira Sans', 'Droid Sans', 'Helvetica Neue', sans-serif" font-size="11.00">libmirai/models/libmirai</text>
<text text-anchor="middle" x="1891.55" y="-283.7" font-family="-apple-system, BlinkMacSystemFont, 'Segoe UI', Roboto, Oxygen, Ubuntu, Cantarell, 'Fira Sans', 'Droid Sans', 'Helvetica Neue', sans-serif" font-size="11.00">/Events/MiraiClientEvents.hpp</text>
</a>
</g>
</g>
<!-- Node1&#45;&gt;Node14 -->
<g id="edge17" class="edge">
<title>Node1&#45;&gt;Node14</title>
<path fill="none" stroke="midnightblue" d="M930.45,-359.51C1089.5,-356.69 1479.37,-346.24 1803.55,-309 1806.48,-308.66 1809.46,-308.29 1812.46,-307.89"/>
<polygon fill="midnightblue" stroke="midnightblue" points="930.25,-356.01 920.31,-359.68 930.37,-363.01 930.25,-356.01"/>
</g>
<!-- Node15 -->
<g id="node13" class="node">
<title>Node15</title>
<g id="a_node13"><a xlink:href="NewFriendRequestEvent_8hpp.html" target="_top" xlink:title=" ">
<polygon fill="none" stroke="black" points="854.55,-276.5 854.55,-308.5 1050.55,-308.5 1050.55,-276.5 854.55,-276.5"/>
<text text-anchor="start" x="862.55" y="-295.7" font-family="-apple-system, BlinkMacSystemFont, 'Segoe UI', Roboto, Oxygen, Ubuntu, Cantarell, 'Fira Sans', 'Droid Sans', 'Helvetica Neue', sans-serif" font-size="11.00">libmirai/models/libmirai</text>
<text text-anchor="middle" x="952.55" y="-283.7" font-family="-apple-system, BlinkMacSystemFont, 'Segoe UI', Roboto, Oxygen, Ubuntu, Cantarell, 'Fira Sans', 'Droid Sans', 'Helvetica Neue', sans-serif" font-size="11.00">/Events/NewFriendRequestEvent.hpp</text>
</a>
</g>
</g>
<!-- Node1&#45;&gt;Node15 -->
<g id="edge20" class="edge">
<title>Node1&#45;&gt;Node15</title>
<path fill="none" stroke="midnightblue" d="M887.55,-339.35C901.68,-329.38 918.22,-317.71 931.08,-308.64"/>
<polygon fill="midnightblue" stroke="midnightblue" points="885.27,-336.67 879.11,-345.3 889.3,-342.39 885.27,-336.67"/>
</g>
<!-- Node16 -->
<g id="node14" class="node">
<title>Node16</title>
<g id="a_node14"><a xlink:href="NudgeEvent_8hpp.html" target="_top" xlink:title=" ">
<polygon fill="none" stroke="black" points="1069.05,-276.5 1069.05,-308.5 1204.05,-308.5 1204.05,-276.5 1069.05,-276.5"/>
<text text-anchor="start" x="1077.05" y="-295.7" font-family="-apple-system, BlinkMacSystemFont, 'Segoe UI', Roboto, Oxygen, Ubuntu, Cantarell, 'Fira Sans', 'Droid Sans', 'Helvetica Neue', sans-serif" font-size="11.00">libmirai/models/libmirai</text>
<text text-anchor="middle" x="1136.55" y="-283.7" font-family="-apple-system, BlinkMacSystemFont, 'Segoe UI', Roboto, Oxygen, Ubuntu, Cantarell, 'Fira Sans', 'Droid Sans', 'Helvetica Neue', sans-serif" font-size="11.00">/Events/NudgeEvent.hpp</text>
</a>
</g>
</g>
<!-- Node1&#45;&gt;Node16 -->
<g id="edge22" class="edge">
<title>Node1&#45;&gt;Node16</title>
<path fill="none" stroke="midnightblue" d="M930.05,-343.09C974.57,-332.4 1031.04,-318.84 1073.67,-308.6"/>
<polygon fill="midnightblue" stroke="midnightblue" points="929.07,-339.73 920.17,-345.46 930.71,-346.53 929.07,-339.73"/>
</g>
<!-- Node17 -->
<g id="node15" class="node">
<title>Node17</title>
<g id="a_node15"><a xlink:href="OtherClientEvents_8hpp.html" target="_top" xlink:title=" ">
<polygon fill="none" stroke="black" points="1222.55,-276.5 1222.55,-308.5 1384.55,-308.5 1384.55,-276.5 1222.55,-276.5"/>
<text text-anchor="start" x="1230.55" y="-295.7" font-family="-apple-system, BlinkMacSystemFont, 'Segoe UI', Roboto, Oxygen, Ubuntu, Cantarell, 'Fira Sans', 'Droid Sans', 'Helvetica Neue', sans-serif" font-size="11.00">libmirai/models/libmirai</text>
<text text-anchor="middle" x="1303.55" y="-283.7" font-family="-apple-system, BlinkMacSystemFont, 'Segoe UI', Roboto, Oxygen, Ubuntu, Cantarell, 'Fira Sans', 'Droid Sans', 'Helvetica Neue', sans-serif" font-size="11.00">/Events/OtherClientEvents.hpp</text>
</a>
</g>
</g>
<!-- Node1&#45;&gt;Node17 -->
<g id="edge24" class="edge">
<title>Node1&#45;&gt;Node17</title>
<path fill="none" stroke="midnightblue" d="M930.65,-350.51C1002.68,-340.53 1115.82,-324.48 1213.55,-309 1216.37,-308.55 1219.24,-308.09 1222.13,-307.62"/>
<polygon fill="midnightblue" stroke="midnightblue" points="929.76,-347.1 920.33,-351.94 930.72,-354.04 929.76,-347.1"/>
</g>
<!-- Node18 -->
<g id="node16" class="node">
<title>Node18</title>
<g id="a_node16"><a xlink:href="StrangerMessageEvents_8hpp.html" target="_top" xlink:title=" ">
<polygon fill="none" stroke="black" points="1402.55,-276.5 1402.55,-308.5 1596.55,-308.5 1596.55,-276.5 1402.55,-276.5"/>
<text text-anchor="start" x="1410.55" y="-295.7" font-family="-apple-system, BlinkMacSystemFont, 'Segoe UI', Roboto, Oxygen, Ubuntu, Cantarell, 'Fira Sans', 'Droid Sans', 'Helvetica Neue', sans-serif" font-size="11.00">libmirai/models/libmirai</text>
<text text-anchor="middle" x="1499.55" y="-283.7" font-family="-apple-system, BlinkMacSystemFont, 'Segoe UI', Roboto, Oxygen, Ubuntu, Cantarell, 'Fira Sans', 'Droid Sans', 'Helvetica Neue', sans-serif" font-size="11.00">/Events/StrangerMessageEvents.hpp</text>
</a>
</g>
</g>
<!-- Node1&#45;&gt;Node18 -->
<g id="edge26" class="edge">
<title>Node1&#45;&gt;Node18</title>
<path fill="none" stroke="midnightblue" d="M930.38,-354.65C1033.6,-346.1 1228.29,-329.01 1393.55,-309 1396.51,-308.64 1399.51,-308.27 1402.53,-307.88"/>
<polygon fill="midnightblue" stroke="midnightblue" points="930.05,-351.17 920.38,-355.48 930.63,-358.14 930.05,-351.17"/>
</g>
<!-- Node19 -->
<g id="node17" class="node">
<title>Node19</title>
<g id="a_node17"><a xlink:href="TempMessageEvents_8hpp.html" target="_top" xlink:title=" ">
<polygon fill="none" stroke="black" points="1615.05,-276.5 1615.05,-308.5 1794.05,-308.5 1794.05,-276.5 1615.05,-276.5"/>
<text text-anchor="start" x="1623.05" y="-295.7" font-family="-apple-system, BlinkMacSystemFont, 'Segoe UI', Roboto, Oxygen, Ubuntu, Cantarell, 'Fira Sans', 'Droid Sans', 'Helvetica Neue', sans-serif" font-size="11.00">libmirai/models/libmirai</text>
<text text-anchor="middle" x="1704.55" y="-283.7" font-family="-apple-system, BlinkMacSystemFont, 'Segoe UI', Roboto, Oxygen, Ubuntu, Cantarell, 'Fira Sans', 'Droid Sans', 'Helvetica Neue', sans-serif" font-size="11.00">/Events/TempMessageEvents.hpp</text>
</a>
</g>
</g>
<!-- Node1&#45;&gt;Node19 -->
<g id="edge28" class="edge">
<title>Node1&#45;&gt;Node19</title>
<path fill="none" stroke="midnightblue" d="M930.41,-357.58C1064.39,-351.75 1358.77,-336.76 1605.55,-309 1608.67,-308.65 1611.83,-308.27 1615.02,-307.87"/>
<polygon fill="midnightblue" stroke="midnightblue" points="930.11,-354.09 920.27,-358.02 930.41,-361.08 930.11,-354.09"/>
</g>
<!-- Node3 -->
<g id="node3" class="node">
<title>Node3</title>
<g id="a_node3"><a xlink:href="models_8hpp.html" target="_top" xlink:title=" ">
<polygon fill="none" stroke="red" points="827.55,-138.5 827.55,-170.5 939.55,-170.5 939.55,-138.5 827.55,-138.5"/>
<text text-anchor="start" x="835.55" y="-157.7" font-family="-apple-system, BlinkMacSystemFont, 'Segoe UI', Roboto, Oxygen, Ubuntu, Cantarell, 'Fira Sans', 'Droid Sans', 'Helvetica Neue', sans-serif" font-size="11.00">libmirai/aggregates</text>
<text text-anchor="middle" x="883.55" y="-145.7" font-family="-apple-system, BlinkMacSystemFont, 'Segoe UI', Roboto, Oxygen, Ubuntu, Cantarell, 'Fira Sans', 'Droid Sans', 'Helvetica Neue', sans-serif" font-size="11.00">/libmirai/models.hpp</text>
</a>
</g>
</g>
<!-- Node2&#45;&gt;Node3 -->
<g id="edge2" class="edge">
<title>Node2&#45;&gt;Node3</title>
<path fill="none" stroke="midnightblue" d="M929.6,-200.21C919.6,-190.5 908.14,-179.37 899.15,-170.64"/>
<polygon fill="midnightblue" stroke="midnightblue" points="927.28,-202.84 936.9,-207.3 932.16,-197.82 927.28,-202.84"/>
</g>
<!-- Node5 -->
<g id="node4" class="node">
<title>Node5</title>
<g id="a_node4"><a xlink:href="IAdaptor_8hpp.html" target="_top" xlink:title=" ">
<polygon fill="none" stroke="red" points="957.55,-138.5 957.55,-170.5 1085.55,-170.5 1085.55,-138.5 957.55,-138.5"/>
<text text-anchor="start" x="965.55" y="-157.7" font-family="-apple-system, BlinkMacSystemFont, 'Segoe UI', Roboto, Oxygen, Ubuntu, Cantarell, 'Fira Sans', 'Droid Sans', 'Helvetica Neue', sans-serif" font-size="11.00">libmirai/api/libmirai</text>
<text text-anchor="middle" x="1021.55" y="-145.7" font-family="-apple-system, BlinkMacSystemFont, 'Segoe UI', Roboto, Oxygen, Ubuntu, Cantarell, 'Fira Sans', 'Droid Sans', 'Helvetica Neue', sans-serif" font-size="11.00">/Adaptors/IAdaptor.hpp</text>
</a>
</g>
</g>
<!-- Node2&#45;&gt;Node5 -->
<g id="edge3" class="edge">
<title>Node2&#45;&gt;Node5</title>
<path fill="none" stroke="midnightblue" d="M975.51,-200.21C985.51,-190.5 996.97,-179.37 1005.96,-170.64"/>
<polygon fill="midnightblue" stroke="midnightblue" points="972.95,-197.82 968.21,-207.3 977.82,-202.84 972.95,-197.82"/>
</g>
<!-- Node7 -->
<g id="node5" class="node">
<title>Node7</title>
<g id="a_node5"><a xlink:href="Client_8hpp.html" target="_top" xlink:title=" ">
<polygon fill="none" stroke="red" points="1061.55,-69.5 1061.55,-101.5 1165.55,-101.5 1165.55,-69.5 1061.55,-69.5"/>
<text text-anchor="start" x="1069.55" y="-88.7" font-family="-apple-system, BlinkMacSystemFont, 'Segoe UI', Roboto, Oxygen, Ubuntu, Cantarell, 'Fira Sans', 'Droid Sans', 'Helvetica Neue', sans-serif" font-size="11.00">libmirai/api/libmirai</text>
<text text-anchor="middle" x="1113.55" y="-76.7" font-family="-apple-system, BlinkMacSystemFont, 'Segoe UI', Roboto, Oxygen, Ubuntu, Cantarell, 'Fira Sans', 'Droid Sans', 'Helvetica Neue', sans-serif" font-size="11.00">/Client/Client.hpp</text>
</a>
</g>
</g>
<!-- Node2&#45;&gt;Node7 -->
<g id="edge6" class="edge">
<title>Node2&#45;&gt;Node7</title>
<path fill="none" stroke="midnightblue" d="M1035.09,-207.78C1057.12,-200.15 1079.08,-188.57 1094.55,-171 1111.65,-151.59 1114.35,-120.12 1114.28,-101.55"/>
<polygon fill="midnightblue" stroke="midnightblue" points="1033.78,-204.53 1025.33,-210.91 1035.92,-211.19 1033.78,-204.53"/>
</g>
<!-- Node5&#45;&gt;Node7 -->
<g id="edge4" class="edge">
<title>Node5&#45;&gt;Node7</title>
<path fill="none" stroke="midnightblue" d="M1050.6,-132.35C1064.29,-122.38 1080.31,-110.71 1092.76,-101.64"/>
<polygon fill="midnightblue" stroke="midnightblue" points="1048.45,-129.58 1042.43,-138.3 1052.57,-135.24 1048.45,-129.58"/>
</g>
<!-- Node8 -->
<g id="node6" class="node">
<title>Node8</title>
<g id="a_node6"><a xlink:href="Client_8cpp.html" target="_top" xlink:title=" ">
<polygon fill="none" stroke="black" points="1101.55,-0.5 1101.55,-32.5 1205.55,-32.5 1205.55,-0.5 1101.55,-0.5"/>
<text text-anchor="start" x="1109.55" y="-19.7" font-family="-apple-system, BlinkMacSystemFont, 'Segoe UI', Roboto, Oxygen, Ubuntu, Cantarell, 'Fira Sans', 'Droid Sans', 'Helvetica Neue', sans-serif" font-size="11.00">libmirai/api/libmirai</text>
<text text-anchor="middle" x="1153.55" y="-7.7" font-family="-apple-system, BlinkMacSystemFont, 'Segoe UI', Roboto, Oxygen, Ubuntu, Cantarell, 'Fira Sans', 'Droid Sans', 'Helvetica Neue', sans-serif" font-size="11.00">/Client/Client.cpp</text>
</a>
</g>
</g>
<!-- Node7&#45;&gt;Node8 -->
<g id="edge5" class="edge">
<title>Node7&#45;&gt;Node8</title>
<path fill="none" stroke="midnightblue" d="M1127.89,-60.48C1133.43,-51.2 1139.61,-40.86 1144.51,-32.64"/>
<polygon fill="midnightblue" stroke="midnightblue" points="1124.75,-58.92 1122.63,-69.3 1130.76,-62.5 1124.75,-58.92"/>
</g>
<!-- Node9&#45;&gt;Node2 -->
<g id="edge8" class="edge">
<title>Node9&#45;&gt;Node2</title>
<path fill="none" stroke="midnightblue" d="M152.29,-275.88C425.55,-238.23 740.61,-228.22 880.02,-225.5"/>
<polygon fill="midnightblue" stroke="midnightblue" points="151.6,-272.44 142.18,-277.29 152.57,-279.38 151.6,-272.44"/>
</g>
<!-- Node10&#45;&gt;Node2 -->
<g id="edge10" class="edge">
<title>Node10&#45;&gt;Node2</title>
<path fill="none" stroke="midnightblue" d="M367.27,-275.84C557.89,-253.95 770.52,-237.45 879.67,-229.57"/>
<polygon fill="midnightblue" stroke="midnightblue" points="366.59,-272.39 357.06,-277.02 367.39,-279.35 366.59,-272.39"/>
</g>
<!-- Node11&#45;&gt;Node2 -->
<g id="edge12" class="edge">
<title>Node11&#45;&gt;Node2</title>
<path fill="none" stroke="midnightblue" d="M524.51,-275.92C655.6,-255.5 796.49,-240.04 879.84,-231.57"/>
<polygon fill="midnightblue" stroke="midnightblue" points="523.63,-272.52 514.29,-277.53 524.71,-279.43 523.63,-272.52"/>
</g>
<!-- Node12&#45;&gt;Node2 -->
<g id="edge14" class="edge">
<title>Node12&#45;&gt;Node2</title>
<path fill="none" stroke="midnightblue" d="M680.74,-275.78C754,-261.62 827.15,-247.86 879.81,-238.02"/>
<polygon fill="midnightblue" stroke="midnightblue" points="680.02,-272.35 670.87,-277.69 681.35,-279.23 680.02,-272.35"/>
</g>
<!-- Node13&#45;&gt;Node2 -->
<g id="edge16" class="edge">
<title>Node13&#45;&gt;Node2</title>
<path fill="none" stroke="midnightblue" d="M815.01,-273C844.82,-262.49 881.67,-249.49 909.73,-239.6"/>
<polygon fill="midnightblue" stroke="midnightblue" points="813.46,-269.84 805.19,-276.46 815.79,-276.44 813.46,-269.84"/>
</g>
<!-- Node14&#45;&gt;Node2 -->
<g id="edge18" class="edge">
<title>Node14&#45;&gt;Node2</title>
<path fill="none" stroke="midnightblue" d="M1802.47,-275.96C1508.84,-241.88 1170.65,-229.93 1025.09,-226.11"/>
<polygon fill="midnightblue" stroke="midnightblue" points="1802.12,-279.44 1812.46,-277.13 1802.94,-272.49 1802.12,-279.44"/>
</g>
<!-- Node14&#45;&gt;Node8 -->
<g id="edge19" class="edge">
<title>Node14&#45;&gt;Node8</title>
<path fill="none" stroke="midnightblue" d="M1841.6,-272.95C1703.79,-221.79 1320.17,-79.36 1194.2,-32.59"/>
<polygon fill="midnightblue" stroke="midnightblue" points="1840.5,-276.28 1851.09,-276.48 1842.93,-269.71 1840.5,-276.28"/>
</g>
<!-- Node15&#45;&gt;Node2 -->
<g id="edge21" class="edge">
<title>Node15&#45;&gt;Node2</title>
<path fill="none" stroke="midnightblue" d="M952.55,-266.02C952.55,-257.13 952.55,-247.43 952.55,-239.64"/>
<polygon fill="midnightblue" stroke="midnightblue" points="949.05,-266.3 952.55,-276.3 956.05,-266.3 949.05,-266.3"/>
</g>
<!-- Node16&#45;&gt;Node2 -->
<g id="edge23" class="edge">
<title>Node16&#45;&gt;Node2</title>
<path fill="none" stroke="midnightblue" d="M1085.75,-273C1056.88,-262.49 1021.19,-249.49 994.03,-239.6"/>
<polygon fill="midnightblue" stroke="midnightblue" points="1084.67,-276.33 1095.26,-276.46 1087.06,-269.75 1084.67,-276.33"/>
</g>
<!-- Node17&#45;&gt;Node2 -->
<g id="edge25" class="edge">
<title>Node17&#45;&gt;Node2</title>
<path fill="none" stroke="midnightblue" d="M1214.78,-274.55C1156.09,-263.35 1080.13,-248.85 1025.08,-238.34"/>
<polygon fill="midnightblue" stroke="midnightblue" points="1214.3,-278.03 1224.78,-276.46 1215.62,-271.15 1214.3,-278.03"/>
</g>
<!-- Node18&#45;&gt;Node2 -->
<g id="edge27" class="edge">
<title>Node18&#45;&gt;Node2</title>
<path fill="none" stroke="midnightblue" d="M1392.36,-275.86C1256.66,-258.14 1110.55,-241.68 1025.21,-232.33"/>
<polygon fill="midnightblue" stroke="midnightblue" points="1392.15,-279.37 1402.52,-277.2 1393.06,-272.43 1392.15,-279.37"/>
</g>
<!-- Node19&#45;&gt;Node2 -->
<g id="edge29" class="edge">
<title>Node19&#45;&gt;Node2</title>
<path fill="none" stroke="midnightblue" d="M1605.03,-276C1387.96,-250.83 1144.13,-235.21 1025.2,-228.41"/>
<polygon fill="midnightblue" stroke="midnightblue" points="1604.68,-279.48 1615.02,-277.17 1605.49,-272.53 1604.68,-279.48"/>
</g>
</g>
</svg>
