<?xml version="1.0" encoding="UTF-8" standalone="no"?>
<!DOCTYPE svg PUBLIC "-//W3C//DTD SVG 1.1//EN"
 "http://www.w3.org/Graphics/SVG/1.1/DTD/svg11.dtd">
<!-- Generated by graphviz version 3.0.0 (20220413.0242)
 -->
<!-- Title: libmirai/public/libmirai/Messages/ImageMessage.cpp Pages: 1 -->
<svg width="516pt" height="269pt"
 viewBox="0.00 0.00 515.92 269.00" xmlns="http://www.w3.org/2000/svg" xmlns:xlink="http://www.w3.org/1999/xlink">
<g id="graph0" class="graph" transform="scale(1 1) rotate(0) translate(4 265)">
<title>libmirai/public/libmirai/Messages/ImageMessage.cpp</title>
<!-- Node1 -->
<g id="node1" class="node">
<title>Node1</title>
<g id="a_node1"><a xlink:title=" ">
<polygon fill="#bfbfbf" stroke="black" points="211.42,-228.5 211.42,-260.5 376.42,-260.5 376.42,-228.5 211.42,-228.5"/>
<text text-anchor="start" x="219.42" y="-247.7" font-family="-apple-system, BlinkMacSystemFont, 'Segoe UI', Roboto, Oxygen, Ubuntu, Cantarell, 'Fira Sans', 'Droid Sans', 'Helvetica Neue', sans-serif" font-size="11.00">libmirai/public/libmirai</text>
<text text-anchor="middle" x="293.92" y="-235.7" font-family="-apple-system, BlinkMacSystemFont, 'Segoe UI', Roboto, Oxygen, Ubuntu, Cantarell, 'Fira Sans', 'Droid Sans', 'Helvetica Neue', sans-serif" font-size="11.00">/Messages/ImageMessage.cpp</text>
</a>
</g>
</g>
<!-- Node2 -->
<g id="node2" class="node">
<title>Node2</title>
<g id="a_node2"><a xlink:href="ImageMessage_8hpp.html" target="_top" xlink:title=" ">
<polygon fill="none" stroke="black" points="110.42,-171.5 110.42,-191.5 221.42,-191.5 221.42,-171.5 110.42,-171.5"/>
<text text-anchor="middle" x="165.92" y="-178.7" font-family="-apple-system, BlinkMacSystemFont, 'Segoe UI', Roboto, Oxygen, Ubuntu, Cantarell, 'Fira Sans', 'Droid Sans', 'Helvetica Neue', sans-serif" font-size="11.00">ImageMessage.hpp</text>
</a>
</g>
</g>
<!-- Node1&#45;&gt;Node2 -->
<g id="edge1" class="edge">
<title>Node1&#45;&gt;Node2</title>
<path fill="none" stroke="midnightblue" d="M262.27,-228.42C241.41,-218.48 214.31,-205.56 194.17,-195.96"/>
<polygon fill="midnightblue" stroke="midnightblue" points="195.43,-192.69 184.9,-191.55 192.42,-199.01 195.43,-192.69"/>
</g>
<!-- Node14 -->
<g id="node9" class="node">
<title>Node14</title>
<g id="a_node9"><a xlink:title=" ">
<polygon fill="none" stroke="#bfbfbf" points="239.92,-171.5 239.92,-191.5 347.92,-191.5 347.92,-171.5 239.92,-171.5"/>
<text text-anchor="middle" x="293.92" y="-178.7" font-family="-apple-system, BlinkMacSystemFont, 'Segoe UI', Roboto, Oxygen, Ubuntu, Cantarell, 'Fira Sans', 'Droid Sans', 'Helvetica Neue', sans-serif" font-size="11.00">nlohmann/json.hpp</text>
</a>
</g>
</g>
<!-- Node1&#45;&gt;Node14 -->
<g id="edge17" class="edge">
<title>Node1&#45;&gt;Node14</title>
<path fill="none" stroke="midnightblue" d="M293.92,-228.42C293.92,-220.38 293.92,-210.39 293.92,-201.78"/>
<polygon fill="midnightblue" stroke="midnightblue" points="297.42,-201.55 293.92,-191.55 290.42,-201.55 297.42,-201.55"/>
</g>
<!-- Node15 -->
<g id="node10" class="node">
<title>Node15</title>
<g id="a_node10"><a xlink:title=" ">
<polygon fill="none" stroke="#bfbfbf" points="365.92,-171.5 365.92,-191.5 507.92,-191.5 507.92,-171.5 365.92,-171.5"/>
<text text-anchor="middle" x="436.92" y="-178.7" font-family="-apple-system, BlinkMacSystemFont, 'Segoe UI', Roboto, Oxygen, Ubuntu, Cantarell, 'Fira Sans', 'Droid Sans', 'Helvetica Neue', sans-serif" font-size="11.00">libmirai/Utils/Common.hpp</text>
</a>
</g>
</g>
<!-- Node1&#45;&gt;Node15 -->
<g id="edge18" class="edge">
<title>Node1&#45;&gt;Node15</title>
<path fill="none" stroke="midnightblue" d="M329.26,-228.42C352.89,-218.34 383.68,-205.21 406.27,-195.57"/>
<polygon fill="midnightblue" stroke="midnightblue" points="407.88,-198.69 415.71,-191.55 405.14,-192.25 407.88,-198.69"/>
</g>
<!-- Node3 -->
<g id="node3" class="node">
<title>Node3</title>
<g id="a_node3"><a xlink:title=" ">
<polygon fill="none" stroke="#bfbfbf" points="104.42,-0.5 104.42,-20.5 147.42,-20.5 147.42,-0.5 104.42,-0.5"/>
<text text-anchor="middle" x="125.92" y="-7.7" font-family="-apple-system, BlinkMacSystemFont, 'Segoe UI', Roboto, Oxygen, Ubuntu, Cantarell, 'Fira Sans', 'Droid Sans', 'Helvetica Neue', sans-serif" font-size="11.00">string</text>
</a>
</g>
</g>
<!-- Node2&#45;&gt;Node3 -->
<g id="edge2" class="edge">
<title>Node2&#45;&gt;Node3</title>
<path fill="none" stroke="midnightblue" d="M135.63,-171.42C97.02,-158.02 31.93,-128.87 3.92,-78 -16.99,-40.03 51.55,-22.6 94.28,-15.58"/>
<polygon fill="midnightblue" stroke="midnightblue" points="94.9,-19.03 104.26,-14.05 93.84,-12.11 94.9,-19.03"/>
</g>
<!-- Node4 -->
<g id="node4" class="node">
<title>Node4</title>
<g id="a_node4"><a xlink:title=" ">
<polygon fill="none" stroke="#bfbfbf" points="226.42,-0.5 226.42,-20.5 357.42,-20.5 357.42,-0.5 226.42,-0.5"/>
<text text-anchor="middle" x="291.92" y="-7.7" font-family="-apple-system, BlinkMacSystemFont, 'Segoe UI', Roboto, Oxygen, Ubuntu, Cantarell, 'Fira Sans', 'Droid Sans', 'Helvetica Neue', sans-serif" font-size="11.00">nlohmann/json_fwd.hpp</text>
</a>
</g>
</g>
<!-- Node2&#45;&gt;Node4 -->
<g id="edge3" class="edge">
<title>Node2&#45;&gt;Node4</title>
<path fill="none" stroke="midnightblue" d="M166.29,-171.23C167.65,-148.89 174.04,-91.37 203.92,-57 216.65,-42.35 235.26,-31.78 252.08,-24.53"/>
<polygon fill="midnightblue" stroke="midnightblue" points="253.76,-27.63 261.73,-20.64 251.15,-21.13 253.76,-27.63"/>
</g>
<!-- Node5 -->
<g id="node5" class="node">
<title>Node5</title>
<g id="a_node5"><a xlink:href="BasicTypes_8hpp.html" target="_top" xlink:title=" ">
<polygon fill="none" stroke="red" points="212.92,-57.5 212.92,-77.5 374.92,-77.5 374.92,-57.5 212.92,-57.5"/>
<text text-anchor="middle" x="293.92" y="-64.7" font-family="-apple-system, BlinkMacSystemFont, 'Segoe UI', Roboto, Oxygen, Ubuntu, Cantarell, 'Fira Sans', 'Droid Sans', 'Helvetica Neue', sans-serif" font-size="11.00">libmirai/Types/BasicTypes.hpp</text>
</a>
</g>
</g>
<!-- Node2&#45;&gt;Node5 -->
<g id="edge4" class="edge">
<title>Node2&#45;&gt;Node5</title>
<path fill="none" stroke="midnightblue" d="M169.37,-171.23C174.96,-157.28 187.2,-130.72 204.92,-114 219.93,-99.83 240.21,-89 257.62,-81.47"/>
<polygon fill="midnightblue" stroke="midnightblue" points="259.03,-84.68 266.94,-77.63 256.36,-78.2 259.03,-84.68"/>
</g>
<!-- Node8 -->
<g id="node6" class="node">
<title>Node8</title>
<g id="a_node6"><a xlink:title=" ">
<polygon fill="none" stroke="#bfbfbf" points="420.42,-0.5 420.42,-20.5 461.42,-20.5 461.42,-0.5 420.42,-0.5"/>
<text text-anchor="middle" x="440.92" y="-7.7" font-family="-apple-system, BlinkMacSystemFont, 'Segoe UI', Roboto, Oxygen, Ubuntu, Cantarell, 'Fira Sans', 'Droid Sans', 'Helvetica Neue', sans-serif" font-size="11.00">utility</text>
</a>
</g>
</g>
<!-- Node2&#45;&gt;Node8 -->
<g id="edge13" class="edge">
<title>Node2&#45;&gt;Node8</title>
<path fill="none" stroke="midnightblue" d="M221.53,-171.5C282.77,-161.22 374.42,-144.58 387.92,-135 422.36,-110.54 434.59,-58.9 438.8,-30.77"/>
<polygon fill="midnightblue" stroke="midnightblue" points="442.31,-30.98 440.12,-20.61 435.36,-30.07 442.31,-30.98"/>
</g>
<!-- Node10 -->
<g id="node7" class="node">
<title>Node10</title>
<g id="a_node7"><a xlink:href="MediaTypes_8hpp.html" target="_top" xlink:title=" ">
<polygon fill="none" stroke="red" points="213.42,-114.5 213.42,-134.5 378.42,-134.5 378.42,-114.5 213.42,-114.5"/>
<text text-anchor="middle" x="295.92" y="-121.7" font-family="-apple-system, BlinkMacSystemFont, 'Segoe UI', Roboto, Oxygen, Ubuntu, Cantarell, 'Fira Sans', 'Droid Sans', 'Helvetica Neue', sans-serif" font-size="11.00">libmirai/Types/MediaTypes.hpp</text>
</a>
</g>
</g>
<!-- Node2&#45;&gt;Node10 -->
<g id="edge8" class="edge">
<title>Node2&#45;&gt;Node10</title>
<path fill="none" stroke="midnightblue" d="M187.38,-171.42C208.55,-162.46 241.12,-148.68 265.07,-138.55"/>
<polygon fill="midnightblue" stroke="midnightblue" points="266.57,-141.72 274.42,-134.6 263.84,-135.27 266.57,-141.72"/>
</g>
<!-- Node13 -->
<g id="node8" class="node">
<title>Node13</title>
<g id="a_node8"><a xlink:href="MessageBase_8hpp.html" target="_top" xlink:title=" ">
<polygon fill="none" stroke="red" points="12.92,-57.5 12.92,-77.5 118.92,-77.5 118.92,-57.5 12.92,-57.5"/>
<text text-anchor="middle" x="65.92" y="-64.7" font-family="-apple-system, BlinkMacSystemFont, 'Segoe UI', Roboto, Oxygen, Ubuntu, Cantarell, 'Fira Sans', 'Droid Sans', 'Helvetica Neue', sans-serif" font-size="11.00">MessageBase.hpp</text>
</a>
</g>
</g>
<!-- Node2&#45;&gt;Node13 -->
<g id="edge14" class="edge">
<title>Node2&#45;&gt;Node13</title>
<path fill="none" stroke="midnightblue" d="M157.73,-171.33C140.96,-152.55 102.45,-109.42 81.02,-85.42"/>
<polygon fill="midnightblue" stroke="midnightblue" points="83.48,-82.92 74.21,-77.79 78.26,-87.58 83.48,-82.92"/>
</g>
<!-- Node5&#45;&gt;Node3 -->
<g id="edge5" class="edge">
<title>Node5&#45;&gt;Node3</title>
<path fill="none" stroke="midnightblue" d="M266.17,-57.42C236.15,-47.59 188.39,-31.95 157.09,-21.71"/>
<polygon fill="midnightblue" stroke="midnightblue" points="158.14,-18.37 147.55,-18.58 155.96,-25.02 158.14,-18.37"/>
</g>
<!-- Node5&#45;&gt;Node4 -->
<g id="edge7" class="edge">
<title>Node5&#45;&gt;Node4</title>
<path fill="none" stroke="midnightblue" d="M293.59,-57.42C293.32,-50.22 292.95,-39.9 292.62,-30.86"/>
<polygon fill="midnightblue" stroke="midnightblue" points="296.11,-30.65 292.25,-20.78 289.12,-30.9 296.11,-30.65"/>
</g>
<!-- Node5&#45;&gt;Node8 -->
<g id="edge6" class="edge">
<title>Node5&#45;&gt;Node8</title>
<path fill="none" stroke="midnightblue" d="M318.19,-57.42C343.61,-47.91 383.57,-32.96 410.94,-22.72"/>
<polygon fill="midnightblue" stroke="midnightblue" points="412.26,-25.96 420.4,-19.17 409.81,-19.4 412.26,-25.96"/>
</g>
<!-- Node10&#45;&gt;Node3 -->
<g id="edge9" class="edge">
<title>Node10&#45;&gt;Node3</title>
<path fill="none" stroke="midnightblue" d="M273.9,-114.45C254.72,-106.15 226.53,-92.9 203.92,-78 181.35,-63.13 158.1,-42.5 142.93,-28.17"/>
<polygon fill="midnightblue" stroke="midnightblue" points="145.03,-25.34 135.39,-20.94 140.18,-30.39 145.03,-25.34"/>
</g>
<!-- Node10&#45;&gt;Node4 -->
<g id="edge11" class="edge">
<title>Node10&#45;&gt;Node4</title>
<path fill="none" stroke="midnightblue" d="M327.69,-114.44C359.21,-103.71 400.59,-83.84 383.92,-57 374.25,-41.44 357.51,-31.03 340.93,-24.16"/>
<polygon fill="midnightblue" stroke="midnightblue" points="341.84,-20.76 331.25,-20.51 339.37,-27.31 341.84,-20.76"/>
</g>
<!-- Node10&#45;&gt;Node5 -->
<g id="edge12" class="edge">
<title>Node10&#45;&gt;Node5</title>
<path fill="none" stroke="midnightblue" d="M295.59,-114.42C295.32,-107.22 294.95,-96.9 294.62,-87.86"/>
<polygon fill="midnightblue" stroke="midnightblue" points="298.11,-87.65 294.25,-77.78 291.12,-87.9 298.11,-87.65"/>
</g>
<!-- Node10&#45;&gt;Node8 -->
<g id="edge10" class="edge">
<title>Node10&#45;&gt;Node8</title>
<path fill="none" stroke="midnightblue" d="M328.85,-114.48C350.56,-107.29 378.64,-95.49 398.92,-78 414.21,-64.81 425.85,-44.67 432.95,-30.01"/>
<polygon fill="midnightblue" stroke="midnightblue" points="436.15,-31.44 437.13,-20.89 429.78,-28.52 436.15,-31.44"/>
</g>
<!-- Node13&#45;&gt;Node3 -->
<g id="edge15" class="edge">
<title>Node13&#45;&gt;Node3</title>
<path fill="none" stroke="midnightblue" d="M75.82,-57.42C84.63,-49.35 97.71,-37.36 108.3,-27.65"/>
<polygon fill="midnightblue" stroke="midnightblue" points="110.79,-30.12 115.79,-20.78 106.06,-24.96 110.79,-30.12"/>
</g>
<!-- Node13&#45;&gt;Node4 -->
<g id="edge16" class="edge">
<title>Node13&#45;&gt;Node4</title>
<path fill="none" stroke="midnightblue" d="M102.98,-57.48C141.82,-48.03 202.93,-33.16 245.08,-22.9"/>
<polygon fill="midnightblue" stroke="midnightblue" points="245.94,-26.29 254.83,-20.53 244.28,-19.49 245.94,-26.29"/>
</g>
</g>
</svg>
