<?xml version="1.0" encoding="UTF-8" standalone="no"?>
<!DOCTYPE svg PUBLIC "-//W3C//DTD SVG 1.1//EN"
 "http://www.w3.org/Graphics/SVG/1.1/DTD/svg11.dtd">
<!-- Generated by graphviz version 3.0.0 (20220413.0242)
 -->
<!-- Title: libmirai/public/libmirai/Messages/ImageMessage.cpp Pages: 1 -->
<svg width="532pt" height="269pt"
 viewBox="0.00 0.00 531.81 269.00" xmlns="http://www.w3.org/2000/svg" xmlns:xlink="http://www.w3.org/1999/xlink">
<g id="graph0" class="graph" transform="scale(1 1) rotate(0) translate(4 265)">
<title>libmirai/public/libmirai/Messages/ImageMessage.cpp</title>
<!-- Node1 -->
<g id="node1" class="node">
<title>Node1</title>
<g id="a_node1"><a xlink:title=" ">
<polygon fill="#bfbfbf" stroke="black" points="227.31,-228.5 227.31,-260.5 392.31,-260.5 392.31,-228.5 227.31,-228.5"/>
<text text-anchor="start" x="235.31" y="-247.7" font-family="-apple-system, BlinkMacSystemFont, 'Segoe UI', Roboto, Oxygen, Ubuntu, Cantarell, 'Fira Sans', 'Droid Sans', 'Helvetica Neue', sans-serif" font-size="11.00">libmirai/public/libmirai</text>
<text text-anchor="middle" x="309.81" y="-235.7" font-family="-apple-system, BlinkMacSystemFont, 'Segoe UI', Roboto, Oxygen, Ubuntu, Cantarell, 'Fira Sans', 'Droid Sans', 'Helvetica Neue', sans-serif" font-size="11.00">/Messages/ImageMessage.cpp</text>
</a>
</g>
</g>
<!-- Node2 -->
<g id="node2" class="node">
<title>Node2</title>
<g id="a_node2"><a xlink:href="ImageMessage_8hpp.html" target="_top" xlink:title=" ">
<polygon fill="none" stroke="black" points="126.31,-171.5 126.31,-191.5 237.31,-191.5 237.31,-171.5 126.31,-171.5"/>
<text text-anchor="middle" x="181.81" y="-178.7" font-family="-apple-system, BlinkMacSystemFont, 'Segoe UI', Roboto, Oxygen, Ubuntu, Cantarell, 'Fira Sans', 'Droid Sans', 'Helvetica Neue', sans-serif" font-size="11.00">ImageMessage.hpp</text>
</a>
</g>
</g>
<!-- Node1&#45;&gt;Node2 -->
<g id="edge1" class="edge">
<title>Node1&#45;&gt;Node2</title>
<path fill="none" stroke="midnightblue" d="M278.17,-228.42C257.3,-218.48 230.2,-205.56 210.06,-195.96"/>
<polygon fill="midnightblue" stroke="midnightblue" points="211.32,-192.69 200.79,-191.55 208.31,-199.01 211.32,-192.69"/>
</g>
<!-- Node13 -->
<g id="node8" class="node">
<title>Node13</title>
<g id="a_node8"><a xlink:title=" ">
<polygon fill="none" stroke="#bfbfbf" points="255.81,-171.5 255.81,-191.5 363.81,-191.5 363.81,-171.5 255.81,-171.5"/>
<text text-anchor="middle" x="309.81" y="-178.7" font-family="-apple-system, BlinkMacSystemFont, 'Segoe UI', Roboto, Oxygen, Ubuntu, Cantarell, 'Fira Sans', 'Droid Sans', 'Helvetica Neue', sans-serif" font-size="11.00">nlohmann/json.hpp</text>
</a>
</g>
</g>
<!-- Node1&#45;&gt;Node13 -->
<g id="edge14" class="edge">
<title>Node1&#45;&gt;Node13</title>
<path fill="none" stroke="midnightblue" d="M309.81,-228.42C309.81,-220.38 309.81,-210.39 309.81,-201.78"/>
<polygon fill="midnightblue" stroke="midnightblue" points="313.31,-201.55 309.81,-191.55 306.31,-201.55 313.31,-201.55"/>
</g>
<!-- Node14 -->
<g id="node9" class="node">
<title>Node14</title>
<g id="a_node9"><a xlink:title=" ">
<polygon fill="none" stroke="#bfbfbf" points="381.81,-171.5 381.81,-191.5 523.81,-191.5 523.81,-171.5 381.81,-171.5"/>
<text text-anchor="middle" x="452.81" y="-178.7" font-family="-apple-system, BlinkMacSystemFont, 'Segoe UI', Roboto, Oxygen, Ubuntu, Cantarell, 'Fira Sans', 'Droid Sans', 'Helvetica Neue', sans-serif" font-size="11.00">libmirai/Utils/Common.hpp</text>
</a>
</g>
</g>
<!-- Node1&#45;&gt;Node14 -->
<g id="edge15" class="edge">
<title>Node1&#45;&gt;Node14</title>
<path fill="none" stroke="midnightblue" d="M345.16,-228.42C368.79,-218.34 399.57,-205.21 422.16,-195.57"/>
<polygon fill="midnightblue" stroke="midnightblue" points="423.78,-198.69 431.6,-191.55 421.03,-192.25 423.78,-198.69"/>
</g>
<!-- Node3 -->
<g id="node3" class="node">
<title>Node3</title>
<g id="a_node3"><a xlink:title=" ">
<polygon fill="none" stroke="#bfbfbf" points="133.31,-0.5 133.31,-20.5 176.31,-20.5 176.31,-0.5 133.31,-0.5"/>
<text text-anchor="middle" x="154.81" y="-7.7" font-family="-apple-system, BlinkMacSystemFont, 'Segoe UI', Roboto, Oxygen, Ubuntu, Cantarell, 'Fira Sans', 'Droid Sans', 'Helvetica Neue', sans-serif" font-size="11.00">string</text>
</a>
</g>
</g>
<!-- Node2&#45;&gt;Node3 -->
<g id="edge2" class="edge">
<title>Node2&#45;&gt;Node3</title>
<path fill="none" stroke="midnightblue" d="M145.89,-171.39C103.52,-158.5 35.05,-130.45 4.81,-78 -21.94,-31.59 71.54,-17.48 123.06,-13.26"/>
<polygon fill="midnightblue" stroke="midnightblue" points="123.34,-16.75 133.05,-12.52 122.82,-9.77 123.34,-16.75"/>
</g>
<!-- Node4 -->
<g id="node4" class="node">
<title>Node4</title>
<g id="a_node4"><a xlink:title=" ">
<polygon fill="none" stroke="#bfbfbf" points="217.31,-0.5 217.31,-20.5 348.31,-20.5 348.31,-0.5 217.31,-0.5"/>
<text text-anchor="middle" x="282.81" y="-7.7" font-family="-apple-system, BlinkMacSystemFont, 'Segoe UI', Roboto, Oxygen, Ubuntu, Cantarell, 'Fira Sans', 'Droid Sans', 'Helvetica Neue', sans-serif" font-size="11.00">nlohmann/json_fwd.hpp</text>
</a>
</g>
</g>
<!-- Node2&#45;&gt;Node4 -->
<g id="edge3" class="edge">
<title>Node2&#45;&gt;Node4</title>
<path fill="none" stroke="midnightblue" d="M237.51,-171.66C294.35,-162.08 375.53,-146.59 384.81,-135 403.29,-111.92 371.24,-72.86 356.81,-57 344.74,-43.73 327.91,-32.97 313.35,-25.25"/>
<polygon fill="midnightblue" stroke="midnightblue" points="314.69,-22 304.18,-20.62 311.53,-28.25 314.69,-22"/>
</g>
<!-- Node5 -->
<g id="node5" class="node">
<title>Node5</title>
<g id="a_node5"><a xlink:href="BasicTypes_8hpp.html" target="_top" xlink:title=" ">
<polygon fill="none" stroke="red" points="137.81,-57.5 137.81,-77.5 299.81,-77.5 299.81,-57.5 137.81,-57.5"/>
<text text-anchor="middle" x="218.81" y="-64.7" font-family="-apple-system, BlinkMacSystemFont, 'Segoe UI', Roboto, Oxygen, Ubuntu, Cantarell, 'Fira Sans', 'Droid Sans', 'Helvetica Neue', sans-serif" font-size="11.00">libmirai/Types/BasicTypes.hpp</text>
</a>
</g>
</g>
<!-- Node2&#45;&gt;Node5 -->
<g id="edge4" class="edge">
<title>Node2&#45;&gt;Node5</title>
<path fill="none" stroke="midnightblue" d="M184.34,-171.41C187.97,-158.54 194.96,-134.34 201.81,-114 204.84,-105.01 208.49,-95.13 211.63,-86.89"/>
<polygon fill="midnightblue" stroke="midnightblue" points="214.91,-88.09 215.25,-77.5 208.38,-85.57 214.91,-88.09"/>
</g>
<!-- Node9 -->
<g id="node6" class="node">
<title>Node9</title>
<g id="a_node6"><a xlink:href="MediaTypes_8hpp.html" target="_top" xlink:title=" ">
<polygon fill="none" stroke="red" points="210.31,-114.5 210.31,-134.5 375.31,-134.5 375.31,-114.5 210.31,-114.5"/>
<text text-anchor="middle" x="292.81" y="-121.7" font-family="-apple-system, BlinkMacSystemFont, 'Segoe UI', Roboto, Oxygen, Ubuntu, Cantarell, 'Fira Sans', 'Droid Sans', 'Helvetica Neue', sans-serif" font-size="11.00">libmirai/Types/MediaTypes.hpp</text>
</a>
</g>
</g>
<!-- Node2&#45;&gt;Node9 -->
<g id="edge7" class="edge">
<title>Node2&#45;&gt;Node9</title>
<path fill="none" stroke="midnightblue" d="M200.14,-171.42C217.89,-162.62 245.04,-149.17 265.37,-139.1"/>
<polygon fill="midnightblue" stroke="midnightblue" points="267.05,-142.17 274.45,-134.6 263.94,-135.9 267.05,-142.17"/>
</g>
<!-- Node12 -->
<g id="node7" class="node">
<title>Node12</title>
<g id="a_node7"><a xlink:href="MessageBase_8hpp.html" target="_top" xlink:title=" ">
<polygon fill="none" stroke="red" points="13.81,-57.5 13.81,-77.5 119.81,-77.5 119.81,-57.5 13.81,-57.5"/>
<text text-anchor="middle" x="66.81" y="-64.7" font-family="-apple-system, BlinkMacSystemFont, 'Segoe UI', Roboto, Oxygen, Ubuntu, Cantarell, 'Fira Sans', 'Droid Sans', 'Helvetica Neue', sans-serif" font-size="11.00">MessageBase.hpp</text>
</a>
</g>
</g>
<!-- Node2&#45;&gt;Node12 -->
<g id="edge11" class="edge">
<title>Node2&#45;&gt;Node12</title>
<path fill="none" stroke="midnightblue" d="M172.4,-171.33C152.94,-152.38 108.05,-108.67 83.54,-84.79"/>
<polygon fill="midnightblue" stroke="midnightblue" points="85.96,-82.26 76.35,-77.79 81.07,-87.28 85.96,-82.26"/>
</g>
<!-- Node5&#45;&gt;Node3 -->
<g id="edge5" class="edge">
<title>Node5&#45;&gt;Node3</title>
<path fill="none" stroke="midnightblue" d="M208.24,-57.42C198.76,-49.27 184.62,-37.12 173.27,-27.37"/>
<polygon fill="midnightblue" stroke="midnightblue" points="175.47,-24.64 165.61,-20.78 170.91,-29.95 175.47,-24.64"/>
</g>
<!-- Node5&#45;&gt;Node4 -->
<g id="edge6" class="edge">
<title>Node5&#45;&gt;Node4</title>
<path fill="none" stroke="midnightblue" d="M229.38,-57.42C238.86,-49.27 253,-37.12 264.35,-27.37"/>
<polygon fill="midnightblue" stroke="midnightblue" points="266.71,-29.95 272.01,-20.78 262.15,-24.64 266.71,-29.95"/>
</g>
<!-- Node9&#45;&gt;Node3 -->
<g id="edge8" class="edge">
<title>Node9&#45;&gt;Node3</title>
<path fill="none" stroke="midnightblue" d="M299.29,-114.38C308.2,-100.62 321.75,-74.31 308.81,-57 301.35,-47.02 229.22,-28.79 186.37,-18.7"/>
<polygon fill="midnightblue" stroke="midnightblue" points="186.96,-15.24 176.42,-16.38 185.36,-22.06 186.96,-15.24"/>
</g>
<!-- Node9&#45;&gt;Node4 -->
<g id="edge9" class="edge">
<title>Node9&#45;&gt;Node4</title>
<path fill="none" stroke="midnightblue" d="M308.06,-114.29C326.23,-102.07 352.82,-79.39 341.81,-57 335.31,-43.77 322.9,-33.31 311.14,-25.76"/>
<polygon fill="midnightblue" stroke="midnightblue" points="312.76,-22.66 302.38,-20.57 309.19,-28.68 312.76,-22.66"/>
</g>
<!-- Node9&#45;&gt;Node5 -->
<g id="edge10" class="edge">
<title>Node9&#45;&gt;Node5</title>
<path fill="none" stroke="midnightblue" d="M280.59,-114.42C269.34,-106.06 252.44,-93.5 239.16,-83.62"/>
<polygon fill="midnightblue" stroke="midnightblue" points="241.16,-80.75 231.05,-77.6 236.99,-86.37 241.16,-80.75"/>
</g>
<!-- Node12&#45;&gt;Node3 -->
<g id="edge12" class="edge">
<title>Node12&#45;&gt;Node3</title>
<path fill="none" stroke="midnightblue" d="M81.34,-57.42C94.97,-48.9 115.58,-36.02 131.51,-26.06"/>
<polygon fill="midnightblue" stroke="midnightblue" points="133.63,-28.86 140.26,-20.6 129.92,-22.93 133.63,-28.86"/>
</g>
<!-- Node12&#45;&gt;Node4 -->
<g id="edge13" class="edge">
<title>Node12&#45;&gt;Node4</title>
<path fill="none" stroke="midnightblue" d="M102.48,-57.42C139.48,-48 197.46,-33.23 237.64,-23"/>
<polygon fill="midnightblue" stroke="midnightblue" points="238.62,-26.36 247.45,-20.5 236.89,-19.58 238.62,-26.36"/>
</g>
</g>
</svg>
