<?xml version="1.0" encoding="UTF-8" standalone="no"?>
<!DOCTYPE svg PUBLIC "-//W3C//DTD SVG 1.1//EN"
 "http://www.w3.org/Graphics/SVG/1.1/DTD/svg11.dtd">
<!-- Generated by graphviz version 2.43.0 (0)
 -->
<!-- Title: libmirai/public/libmirai/Messages/ImageMessage.cpp Pages: 1 -->
<svg width="583pt" height="269pt"
 viewBox="0.00 0.00 583.31 269.00" xmlns="http://www.w3.org/2000/svg" xmlns:xlink="http://www.w3.org/1999/xlink">
<g id="graph0" class="graph" transform="scale(1 1) rotate(0) translate(4 265)">
<title>libmirai/public/libmirai/Messages/ImageMessage.cpp</title>
<!-- Node1 -->
<g id="node1" class="node">
<title>Node1</title>
<g id="a_node1"><a xlink:title=" ">
<polygon fill="#bfbfbf" stroke="black" points="241.81,-228.5 241.81,-260.5 426.81,-260.5 426.81,-228.5 241.81,-228.5"/>
<text text-anchor="start" x="249.81" y="-247.7" font-family="-apple-system,BlinkMacSystemFont,'SegoeUI',Roboto,Oxygen,Ubuntu,Cantarell,'FiraSans','DroidSans','HelveticaNeue',sans-serif" font-size="11.00">libmirai/public/libmirai</text>
<text text-anchor="middle" x="334.31" y="-235.7" font-family="-apple-system,BlinkMacSystemFont,'SegoeUI',Roboto,Oxygen,Ubuntu,Cantarell,'FiraSans','DroidSans','HelveticaNeue',sans-serif" font-size="11.00">/Messages/ImageMessage.cpp</text>
</a>
</g>
</g>
<!-- Node2 -->
<g id="node2" class="node">
<title>Node2</title>
<g id="a_node2"><a xlink:href="ImageMessage_8hpp.html" target="_top" xlink:title=" ">
<polygon fill="none" stroke="black" points="132.81,-171.5 132.81,-191.5 255.81,-191.5 255.81,-171.5 132.81,-171.5"/>
<text text-anchor="middle" x="194.31" y="-178.7" font-family="-apple-system,BlinkMacSystemFont,'SegoeUI',Roboto,Oxygen,Ubuntu,Cantarell,'FiraSans','DroidSans','HelveticaNeue',sans-serif" font-size="11.00">ImageMessage.hpp</text>
</a>
</g>
</g>
<!-- Node1&#45;&gt;Node2 -->
<g id="edge1" class="edge">
<title>Node1&#45;&gt;Node2</title>
<path fill="none" stroke="midnightblue" d="M299.7,-228.42C276.56,-218.34 246.43,-205.21 224.31,-195.57"/>
<polygon fill="midnightblue" stroke="midnightblue" points="225.63,-192.33 215.07,-191.55 222.84,-198.75 225.63,-192.33"/>
</g>
<!-- Node13 -->
<g id="node8" class="node">
<title>Node13</title>
<g id="a_node8"><a xlink:title=" ">
<polygon fill="none" stroke="#bfbfbf" points="273.81,-171.5 273.81,-191.5 394.81,-191.5 394.81,-171.5 273.81,-171.5"/>
<text text-anchor="middle" x="334.31" y="-178.7" font-family="-apple-system,BlinkMacSystemFont,'SegoeUI',Roboto,Oxygen,Ubuntu,Cantarell,'FiraSans','DroidSans','HelveticaNeue',sans-serif" font-size="11.00">nlohmann/json.hpp</text>
</a>
</g>
</g>
<!-- Node1&#45;&gt;Node13 -->
<g id="edge14" class="edge">
<title>Node1&#45;&gt;Node13</title>
<path fill="none" stroke="midnightblue" d="M334.31,-228.42C334.31,-220.38 334.31,-210.39 334.31,-201.78"/>
<polygon fill="midnightblue" stroke="midnightblue" points="337.81,-201.55 334.31,-191.55 330.81,-201.55 337.81,-201.55"/>
</g>
<!-- Node14 -->
<g id="node9" class="node">
<title>Node14</title>
<g id="a_node9"><a xlink:title=" ">
<polygon fill="none" stroke="#bfbfbf" points="413.31,-171.5 413.31,-191.5 575.31,-191.5 575.31,-171.5 413.31,-171.5"/>
<text text-anchor="middle" x="494.31" y="-178.7" font-family="-apple-system,BlinkMacSystemFont,'SegoeUI',Roboto,Oxygen,Ubuntu,Cantarell,'FiraSans','DroidSans','HelveticaNeue',sans-serif" font-size="11.00">libmirai/Utils/Common.hpp</text>
</a>
</g>
</g>
<!-- Node1&#45;&gt;Node14 -->
<g id="edge15" class="edge">
<title>Node1&#45;&gt;Node14</title>
<path fill="none" stroke="midnightblue" d="M373.86,-228.42C400.65,-218.21 435.67,-204.86 461.03,-195.19"/>
<polygon fill="midnightblue" stroke="midnightblue" points="462.48,-198.38 470.58,-191.55 459.99,-191.84 462.48,-198.38"/>
</g>
<!-- Node3 -->
<g id="node3" class="node">
<title>Node3</title>
<g id="a_node3"><a xlink:title=" ">
<polygon fill="none" stroke="#bfbfbf" points="144.31,-0.5 144.31,-20.5 192.31,-20.5 192.31,-0.5 144.31,-0.5"/>
<text text-anchor="middle" x="168.31" y="-7.7" font-family="-apple-system,BlinkMacSystemFont,'SegoeUI',Roboto,Oxygen,Ubuntu,Cantarell,'FiraSans','DroidSans','HelveticaNeue',sans-serif" font-size="11.00">string</text>
</a>
</g>
</g>
<!-- Node2&#45;&gt;Node3 -->
<g id="edge2" class="edge">
<title>Node2&#45;&gt;Node3</title>
<path fill="none" stroke="midnightblue" d="M153.63,-171.48C108.33,-159.03 37.29,-131.73 5.31,-78 -24.14,-28.53 77.99,-15.86 134.01,-12.61"/>
<polygon fill="midnightblue" stroke="midnightblue" points="134.41,-16.1 144.22,-12.1 134.06,-9.11 134.41,-16.1"/>
</g>
<!-- Node4 -->
<g id="node4" class="node">
<title>Node4</title>
<g id="a_node4"><a xlink:title=" ">
<polygon fill="none" stroke="#bfbfbf" points="236.31,-0.5 236.31,-20.5 382.31,-20.5 382.31,-0.5 236.31,-0.5"/>
<text text-anchor="middle" x="309.31" y="-7.7" font-family="-apple-system,BlinkMacSystemFont,'SegoeUI',Roboto,Oxygen,Ubuntu,Cantarell,'FiraSans','DroidSans','HelveticaNeue',sans-serif" font-size="11.00">nlohmann/json_fwd.hpp</text>
</a>
</g>
</g>
<!-- Node2&#45;&gt;Node4 -->
<g id="edge3" class="edge">
<title>Node2&#45;&gt;Node4</title>
<path fill="none" stroke="midnightblue" d="M256.05,-171.89C318.14,-162.61 406.12,-147.48 416.31,-135 435.41,-111.58 402.59,-73.19 387.31,-57 374.47,-43.41 356.67,-32.6 341.31,-24.94"/>
<polygon fill="midnightblue" stroke="midnightblue" points="342.67,-21.71 332.13,-20.58 339.66,-28.03 342.67,-21.71"/>
</g>
<!-- Node5 -->
<g id="node5" class="node">
<title>Node5</title>
<g id="a_node5"><a xlink:href="BasicTypes_8hpp.html" target="_top" xlink:title=" ">
<polygon fill="none" stroke="red" points="148.81,-57.5 148.81,-77.5 329.81,-77.5 329.81,-57.5 148.81,-57.5"/>
<text text-anchor="middle" x="239.31" y="-64.7" font-family="-apple-system,BlinkMacSystemFont,'SegoeUI',Roboto,Oxygen,Ubuntu,Cantarell,'FiraSans','DroidSans','HelveticaNeue',sans-serif" font-size="11.00">libmirai/Types/BasicTypes.hpp</text>
</a>
</g>
</g>
<!-- Node2&#45;&gt;Node5 -->
<g id="edge4" class="edge">
<title>Node2&#45;&gt;Node5</title>
<path fill="none" stroke="midnightblue" d="M196.21,-171.23C199.06,-158.15 205.01,-133.7 213.31,-114 217.32,-104.48 222.89,-94.45 227.84,-86.24"/>
<polygon fill="midnightblue" stroke="midnightblue" points="230.92,-87.91 233.25,-77.57 224.98,-84.21 230.92,-87.91"/>
</g>
<!-- Node9 -->
<g id="node6" class="node">
<title>Node9</title>
<g id="a_node6"><a xlink:href="MediaTypes_8hpp.html" target="_top" xlink:title=" ">
<polygon fill="none" stroke="red" points="221.81,-114.5 221.81,-134.5 406.81,-134.5 406.81,-114.5 221.81,-114.5"/>
<text text-anchor="middle" x="314.31" y="-121.7" font-family="-apple-system,BlinkMacSystemFont,'SegoeUI',Roboto,Oxygen,Ubuntu,Cantarell,'FiraSans','DroidSans','HelveticaNeue',sans-serif" font-size="11.00">libmirai/Types/MediaTypes.hpp</text>
</a>
</g>
</g>
<!-- Node2&#45;&gt;Node9 -->
<g id="edge7" class="edge">
<title>Node2&#45;&gt;Node9</title>
<path fill="none" stroke="midnightblue" d="M214.12,-171.42C233.49,-162.54 263.2,-148.93 285.24,-138.82"/>
<polygon fill="midnightblue" stroke="midnightblue" points="286.83,-141.94 294.46,-134.6 283.91,-135.58 286.83,-141.94"/>
</g>
<!-- Node12 -->
<g id="node7" class="node">
<title>Node12</title>
<g id="a_node7"><a xlink:href="MessageBase_8hpp.html" target="_top" xlink:title=" ">
<polygon fill="none" stroke="red" points="14.31,-57.5 14.31,-77.5 130.31,-77.5 130.31,-57.5 14.31,-57.5"/>
<text text-anchor="middle" x="72.31" y="-64.7" font-family="-apple-system,BlinkMacSystemFont,'SegoeUI',Roboto,Oxygen,Ubuntu,Cantarell,'FiraSans','DroidSans','HelveticaNeue',sans-serif" font-size="11.00">MessageBase.hpp</text>
</a>
</g>
</g>
<!-- Node2&#45;&gt;Node12 -->
<g id="edge11" class="edge">
<title>Node2&#45;&gt;Node12</title>
<path fill="none" stroke="midnightblue" d="M184.32,-171.33C163.68,-152.38 116.06,-108.67 90.05,-84.79"/>
<polygon fill="midnightblue" stroke="midnightblue" points="92.16,-81.98 82.43,-77.79 87.43,-87.13 92.16,-81.98"/>
</g>
<!-- Node5&#45;&gt;Node3 -->
<g id="edge5" class="edge">
<title>Node5&#45;&gt;Node3</title>
<path fill="none" stroke="midnightblue" d="M227.58,-57.42C216.96,-49.19 201.07,-36.88 188.42,-27.08"/>
<polygon fill="midnightblue" stroke="midnightblue" points="190.33,-24.14 180.28,-20.78 186.05,-29.67 190.33,-24.14"/>
</g>
<!-- Node5&#45;&gt;Node4 -->
<g id="edge6" class="edge">
<title>Node5&#45;&gt;Node4</title>
<path fill="none" stroke="midnightblue" d="M250.86,-57.42C261.34,-49.19 277,-36.88 289.47,-27.08"/>
<polygon fill="midnightblue" stroke="midnightblue" points="291.79,-29.71 297.5,-20.78 287.47,-24.21 291.79,-29.71"/>
</g>
<!-- Node9&#45;&gt;Node3 -->
<g id="edge8" class="edge">
<title>Node9&#45;&gt;Node3</title>
<path fill="none" stroke="midnightblue" d="M323.19,-114.05C334.98,-100.33 352.84,-74.6 339.31,-57 330.89,-46.05 249.94,-28.04 202.5,-18.28"/>
<polygon fill="midnightblue" stroke="midnightblue" points="203.13,-14.84 192.64,-16.28 201.74,-21.7 203.13,-14.84"/>
</g>
<!-- Node9&#45;&gt;Node4 -->
<g id="edge9" class="edge">
<title>Node9&#45;&gt;Node4</title>
<path fill="none" stroke="midnightblue" d="M332.82,-114.3C354,-102.42 384.3,-80.46 372.31,-57 365.34,-43.37 352.17,-32.88 339.67,-25.43"/>
<polygon fill="midnightblue" stroke="midnightblue" points="341.23,-22.3 330.78,-20.54 337.85,-28.43 341.23,-22.3"/>
</g>
<!-- Node9&#45;&gt;Node5 -->
<g id="edge10" class="edge">
<title>Node9&#45;&gt;Node5</title>
<path fill="none" stroke="midnightblue" d="M301.92,-114.42C290.52,-106.06 273.39,-93.5 259.93,-83.62"/>
<polygon fill="midnightblue" stroke="midnightblue" points="261.84,-80.69 251.71,-77.6 257.7,-86.33 261.84,-80.69"/>
</g>
<!-- Node12&#45;&gt;Node3 -->
<g id="edge12" class="edge">
<title>Node12&#45;&gt;Node3</title>
<path fill="none" stroke="midnightblue" d="M88.16,-57.42C103.17,-48.82 125.93,-35.78 143.37,-25.78"/>
<polygon fill="midnightblue" stroke="midnightblue" points="145.49,-28.6 152.43,-20.6 142.01,-22.53 145.49,-28.6"/>
</g>
<!-- Node12&#45;&gt;Node4 -->
<g id="edge13" class="edge">
<title>Node12&#45;&gt;Node4</title>
<path fill="none" stroke="midnightblue" d="M111.18,-57.48C151.99,-48.01 216.26,-33.09 260.47,-22.83"/>
<polygon fill="midnightblue" stroke="midnightblue" points="261.46,-26.2 270.41,-20.53 259.88,-19.38 261.46,-26.2"/>
</g>
</g>
</svg>
