<?xml version="1.0" encoding="UTF-8" standalone="no"?>
<!DOCTYPE svg PUBLIC "-//W3C//DTD SVG 1.1//EN"
 "http://www.w3.org/Graphics/SVG/1.1/DTD/svg11.dtd">
<!-- Generated by graphviz version 3.0.0 (20220413.0242)
 -->
<!-- Title: libmirai/public/libmirai/Messages/ImageMessage.hpp Pages: 1 -->
<svg width="641pt" height="248pt"
 viewBox="0.00 0.00 641.00 248.00" xmlns="http://www.w3.org/2000/svg" xmlns:xlink="http://www.w3.org/1999/xlink">
<g id="graph0" class="graph" transform="scale(1 1) rotate(0) translate(4 244)">
<title>libmirai/public/libmirai/Messages/ImageMessage.hpp</title>
<!-- Node1 -->
<g id="node1" class="node">
<title>Node1</title>
<g id="a_node1"><a xlink:title=" ">
<polygon fill="#bfbfbf" stroke="black" points="323.5,-207.5 323.5,-239.5 489.5,-239.5 489.5,-207.5 323.5,-207.5"/>
<text text-anchor="start" x="331.5" y="-226.7" font-family="-apple-system, BlinkMacSystemFont, 'Segoe UI', Roboto, Oxygen, Ubuntu, Cantarell, 'Fira Sans', 'Droid Sans', 'Helvetica Neue', sans-serif" font-size="11.00">libmirai/public/libmirai</text>
<text text-anchor="middle" x="406.5" y="-214.7" font-family="-apple-system, BlinkMacSystemFont, 'Segoe UI', Roboto, Oxygen, Ubuntu, Cantarell, 'Fira Sans', 'Droid Sans', 'Helvetica Neue', sans-serif" font-size="11.00">/Messages/ImageMessage.hpp</text>
</a>
</g>
</g>
<!-- Node2 -->
<g id="node2" class="node">
<title>Node2</title>
<g id="a_node2"><a xlink:href="FlashImageMessage_8hpp.html" target="_top" xlink:title=" ">
<polygon fill="none" stroke="black" points="138.5,-138.5 138.5,-170.5 330.5,-170.5 330.5,-138.5 138.5,-138.5"/>
<text text-anchor="start" x="146.5" y="-157.7" font-family="-apple-system, BlinkMacSystemFont, 'Segoe UI', Roboto, Oxygen, Ubuntu, Cantarell, 'Fira Sans', 'Droid Sans', 'Helvetica Neue', sans-serif" font-size="11.00">libmirai/public/libmirai</text>
<text text-anchor="middle" x="234.5" y="-145.7" font-family="-apple-system, BlinkMacSystemFont, 'Segoe UI', Roboto, Oxygen, Ubuntu, Cantarell, 'Fira Sans', 'Droid Sans', 'Helvetica Neue', sans-serif" font-size="11.00">/Messages/FlashImageMessage.hpp</text>
</a>
</g>
</g>
<!-- Node1&#45;&gt;Node2 -->
<g id="edge1" class="edge">
<title>Node1&#45;&gt;Node2</title>
<path fill="none" stroke="midnightblue" d="M358.31,-203.73C331.45,-193.26 298.44,-180.41 273.27,-170.6"/>
<polygon fill="midnightblue" stroke="midnightblue" points="357.31,-207.1 367.9,-207.46 359.85,-200.57 357.31,-207.1"/>
</g>
<!-- Node4 -->
<g id="node4" class="node">
<title>Node4</title>
<g id="a_node4"><a xlink:href="MessageChain_8hpp.html" target="_top" xlink:title=" ">
<polygon fill="none" stroke="red" points="247.5,-69.5 247.5,-101.5 411.5,-101.5 411.5,-69.5 247.5,-69.5"/>
<text text-anchor="start" x="255.5" y="-88.7" font-family="-apple-system, BlinkMacSystemFont, 'Segoe UI', Roboto, Oxygen, Ubuntu, Cantarell, 'Fira Sans', 'Droid Sans', 'Helvetica Neue', sans-serif" font-size="11.00">libmirai/public/libmirai</text>
<text text-anchor="middle" x="329.5" y="-76.7" font-family="-apple-system, BlinkMacSystemFont, 'Segoe UI', Roboto, Oxygen, Ubuntu, Cantarell, 'Fira Sans', 'Droid Sans', 'Helvetica Neue', sans-serif" font-size="11.00">/Messages/MessageChain.hpp</text>
</a>
</g>
</g>
<!-- Node1&#45;&gt;Node4 -->
<g id="edge7" class="edge">
<title>Node1&#45;&gt;Node4</title>
<path fill="none" stroke="midnightblue" d="M393.01,-198.67C377.18,-170.71 351.39,-125.17 338.07,-101.64"/>
<polygon fill="midnightblue" stroke="midnightblue" points="389.99,-200.45 397.97,-207.43 396.08,-197 389.99,-200.45"/>
</g>
<!-- Node33 -->
<g id="node5" class="node">
<title>Node33</title>
<g id="a_node5"><a xlink:href="Messages_8hpp.html" target="_top" xlink:title=" ">
<polygon fill="none" stroke="red" points="259,-0.5 259,-32.5 400,-32.5 400,-0.5 259,-0.5"/>
<text text-anchor="start" x="267" y="-19.7" font-family="-apple-system, BlinkMacSystemFont, 'Segoe UI', Roboto, Oxygen, Ubuntu, Cantarell, 'Fira Sans', 'Droid Sans', 'Helvetica Neue', sans-serif" font-size="11.00">libmirai/public/libmirai</text>
<text text-anchor="middle" x="329.5" y="-7.7" font-family="-apple-system, BlinkMacSystemFont, 'Segoe UI', Roboto, Oxygen, Ubuntu, Cantarell, 'Fira Sans', 'Droid Sans', 'Helvetica Neue', sans-serif" font-size="11.00">/Messages/Messages.hpp</text>
</a>
</g>
</g>
<!-- Node1&#45;&gt;Node33 -->
<g id="edge8" class="edge">
<title>Node1&#45;&gt;Node33</title>
<path fill="none" stroke="midnightblue" d="M417.08,-197.81C429.03,-165.78 443.97,-109.26 420.5,-69 410.81,-52.38 393.54,-40.69 376.63,-32.7"/>
<polygon fill="midnightblue" stroke="midnightblue" points="413.75,-196.71 413.35,-207.29 420.27,-199.26 413.75,-196.71"/>
</g>
<!-- Node36 -->
<g id="node6" class="node">
<title>Node36</title>
<g id="a_node6"><a xlink:href="ImageMessage_8cpp.html" target="_top" xlink:title=" ">
<polygon fill="none" stroke="black" points="468,-138.5 468,-170.5 633,-170.5 633,-138.5 468,-138.5"/>
<text text-anchor="start" x="476" y="-157.7" font-family="-apple-system, BlinkMacSystemFont, 'Segoe UI', Roboto, Oxygen, Ubuntu, Cantarell, 'Fira Sans', 'Droid Sans', 'Helvetica Neue', sans-serif" font-size="11.00">libmirai/public/libmirai</text>
<text text-anchor="middle" x="550.5" y="-145.7" font-family="-apple-system, BlinkMacSystemFont, 'Segoe UI', Roboto, Oxygen, Ubuntu, Cantarell, 'Fira Sans', 'Droid Sans', 'Helvetica Neue', sans-serif" font-size="11.00">/Messages/ImageMessage.cpp</text>
</a>
</g>
</g>
<!-- Node1&#45;&gt;Node36 -->
<g id="edge6" class="edge">
<title>Node1&#45;&gt;Node36</title>
<path fill="none" stroke="midnightblue" d="M448,-203.19C470.19,-192.87 497.11,-180.34 517.79,-170.72"/>
<polygon fill="midnightblue" stroke="midnightblue" points="446.41,-200.07 438.82,-207.46 449.36,-206.42 446.41,-200.07"/>
</g>
<!-- Node3 -->
<g id="node3" class="node">
<title>Node3</title>
<g id="a_node3"><a xlink:href="FlashImageMessage_8cpp.html" target="_top" xlink:title=" ">
<polygon fill="none" stroke="black" points="0,-69.5 0,-101.5 191,-101.5 191,-69.5 0,-69.5"/>
<text text-anchor="start" x="8" y="-88.7" font-family="-apple-system, BlinkMacSystemFont, 'Segoe UI', Roboto, Oxygen, Ubuntu, Cantarell, 'Fira Sans', 'Droid Sans', 'Helvetica Neue', sans-serif" font-size="11.00">libmirai/public/libmirai</text>
<text text-anchor="middle" x="95.5" y="-76.7" font-family="-apple-system, BlinkMacSystemFont, 'Segoe UI', Roboto, Oxygen, Ubuntu, Cantarell, 'Fira Sans', 'Droid Sans', 'Helvetica Neue', sans-serif" font-size="11.00">/Messages/FlashImageMessage.cpp</text>
</a>
</g>
</g>
<!-- Node2&#45;&gt;Node3 -->
<g id="edge2" class="edge">
<title>Node2&#45;&gt;Node3</title>
<path fill="none" stroke="midnightblue" d="M194.15,-134.05C172.79,-123.76 146.95,-111.3 127.07,-101.72"/>
<polygon fill="midnightblue" stroke="midnightblue" points="192.78,-137.27 203.31,-138.46 195.82,-130.97 192.78,-137.27"/>
</g>
<!-- Node2&#45;&gt;Node4 -->
<g id="edge3" class="edge">
<title>Node2&#45;&gt;Node4</title>
<path fill="none" stroke="midnightblue" d="M264.49,-132.35C278.63,-122.38 295.17,-110.71 308.03,-101.64"/>
<polygon fill="midnightblue" stroke="midnightblue" points="262.21,-129.67 256.06,-138.3 266.25,-135.39 262.21,-129.67"/>
</g>
<!-- Node2&#45;&gt;Node33 -->
<g id="edge5" class="edge">
<title>Node2&#45;&gt;Node33</title>
<path fill="none" stroke="midnightblue" d="M229.65,-128.51C227.54,-110.63 227.61,-86.69 238.5,-69 248.68,-52.46 266.25,-40.75 283.25,-32.72"/>
<polygon fill="midnightblue" stroke="midnightblue" points="226.2,-129.12 231.12,-138.5 233.12,-128.09 226.2,-129.12"/>
</g>
<!-- Node4&#45;&gt;Node33 -->
<g id="edge4" class="edge">
<title>Node4&#45;&gt;Node33</title>
<path fill="none" stroke="midnightblue" d="M329.5,-59.02C329.5,-50.13 329.5,-40.43 329.5,-32.64"/>
<polygon fill="midnightblue" stroke="midnightblue" points="326,-59.3 329.5,-69.3 333,-59.3 326,-59.3"/>
</g>
</g>
</svg>
