<?xml version="1.0" encoding="UTF-8" standalone="no"?>
<!DOCTYPE svg PUBLIC "-//W3C//DTD SVG 1.1//EN"
 "http://www.w3.org/Graphics/SVG/1.1/DTD/svg11.dtd">
<!-- Generated by graphviz version 3.0.0 (20221109.1736)
 -->
<!-- Title: libmirai/models/libmirai/Messages/ImageMessage.hpp Pages: 1 -->
<svg width="774pt" height="212pt"
 viewBox="0.00 0.00 774.00 212.00" xmlns="http://www.w3.org/2000/svg" xmlns:xlink="http://www.w3.org/1999/xlink">
<g id="graph0" class="graph" transform="scale(1 1) rotate(0) translate(4 208)">
<title>libmirai/models/libmirai/Messages/ImageMessage.hpp</title>
<!-- Node1 -->
<g id="node1" class="node">
<title>Node1</title>
<g id="a_node1"><a xlink:title=" ">
<polygon fill="#bfbfbf" stroke="black" points="184.5,-171.5 184.5,-203.5 350.5,-203.5 350.5,-171.5 184.5,-171.5"/>
<text text-anchor="start" x="192.5" y="-190.7" font-family="-apple-system, BlinkMacSystemFont, 'Segoe UI', Roboto, Oxygen, Ubuntu, Cantarell, 'Fira Sans', 'Droid Sans', 'Helvetica Neue', sans-serif" font-size="11.00">libmirai/models/libmirai</text>
<text text-anchor="middle" x="267.5" y="-178.7" font-family="-apple-system, BlinkMacSystemFont, 'Segoe UI', Roboto, Oxygen, Ubuntu, Cantarell, 'Fira Sans', 'Droid Sans', 'Helvetica Neue', sans-serif" font-size="11.00">/Messages/ImageMessage.hpp</text>
</a>
</g>
</g>
<!-- Node2 -->
<g id="node2" class="node">
<title>Node2</title>
<g id="a_node2"><a xlink:title=" ">
<polygon fill="none" stroke="#bfbfbf" points="439,-0.5 439,-20.5 482,-20.5 482,-0.5 439,-0.5"/>
<text text-anchor="middle" x="460.5" y="-7.7" font-family="-apple-system, BlinkMacSystemFont, 'Segoe UI', Roboto, Oxygen, Ubuntu, Cantarell, 'Fira Sans', 'Droid Sans', 'Helvetica Neue', sans-serif" font-size="11.00">string</text>
</a>
</g>
</g>
<!-- Node1&#45;&gt;Node2 -->
<g id="edge1" class="edge">
<title>Node1&#45;&gt;Node2</title>
<path fill="none" stroke="midnightblue" d="M350.53,-180.59C477.65,-169.61 711.09,-141.2 761.5,-78 767.32,-70.7 767.59,-64.08 761.5,-57 727,-16.89 562.34,-11.69 492.23,-11.33"/>
<polygon fill="midnightblue" stroke="midnightblue" points="492.22,-7.83 482.21,-11.3 492.2,-14.83 492.22,-7.83"/>
</g>
<!-- Node3 -->
<g id="node3" class="node">
<title>Node3</title>
<g id="a_node3"><a xlink:title=" ">
<polygon fill="none" stroke="#bfbfbf" points="0,-0.5 0,-20.5 41,-20.5 41,-0.5 0,-0.5"/>
<text text-anchor="middle" x="20.5" y="-7.7" font-family="-apple-system, BlinkMacSystemFont, 'Segoe UI', Roboto, Oxygen, Ubuntu, Cantarell, 'Fira Sans', 'Droid Sans', 'Helvetica Neue', sans-serif" font-size="11.00">utility</text>
</a>
</g>
</g>
<!-- Node1&#45;&gt;Node3 -->
<g id="edge2" class="edge">
<title>Node1&#45;&gt;Node3</title>
<path fill="none" stroke="midnightblue" d="M184.24,-172.66C128.88,-158.74 59.88,-131.33 23.5,-78 14.15,-64.29 14.34,-45.04 16.32,-30.77"/>
<polygon fill="midnightblue" stroke="midnightblue" points="19.82,-31.06 18.14,-20.6 12.93,-29.83 19.82,-31.06"/>
</g>
<!-- Node4 -->
<g id="node4" class="node">
<title>Node4</title>
<g id="a_node4"><a xlink:href="BasicTypes_8hpp.html" target="_top" xlink:title=" ">
<polygon fill="none" stroke="black" points="48.5,-57.5 48.5,-77.5 210.5,-77.5 210.5,-57.5 48.5,-57.5"/>
<text text-anchor="middle" x="129.5" y="-64.7" font-family="-apple-system, BlinkMacSystemFont, 'Segoe UI', Roboto, Oxygen, Ubuntu, Cantarell, 'Fira Sans', 'Droid Sans', 'Helvetica Neue', sans-serif" font-size="11.00">libmirai/Types/BasicTypes.hpp</text>
</a>
</g>
</g>
<!-- Node1&#45;&gt;Node4 -->
<g id="edge3" class="edge">
<title>Node1&#45;&gt;Node4</title>
<path fill="none" stroke="midnightblue" d="M231.85,-171.29C213.69,-162.43 192.02,-150.02 175.5,-135 160.14,-121.03 147.18,-101.01 138.97,-86.59"/>
<polygon fill="midnightblue" stroke="midnightblue" points="141.94,-84.74 134.07,-77.65 135.8,-88.1 141.94,-84.74"/>
</g>
<!-- Node7 -->
<g id="node7" class="node">
<title>Node7</title>
<g id="a_node7"><a xlink:href="MediaTypes_8hpp.html" target="_top" xlink:title=" ">
<polygon fill="none" stroke="black" points="185,-114.5 185,-134.5 350,-134.5 350,-114.5 185,-114.5"/>
<text text-anchor="middle" x="267.5" y="-121.7" font-family="-apple-system, BlinkMacSystemFont, 'Segoe UI', Roboto, Oxygen, Ubuntu, Cantarell, 'Fira Sans', 'Droid Sans', 'Helvetica Neue', sans-serif" font-size="11.00">libmirai/Types/MediaTypes.hpp</text>
</a>
</g>
</g>
<!-- Node1&#45;&gt;Node7 -->
<g id="edge8" class="edge">
<title>Node1&#45;&gt;Node7</title>
<path fill="none" stroke="midnightblue" d="M267.5,-171.42C267.5,-163.38 267.5,-153.39 267.5,-144.78"/>
<polygon fill="midnightblue" stroke="midnightblue" points="271,-144.55 267.5,-134.55 264,-144.55 271,-144.55"/>
</g>
<!-- Node10 -->
<g id="node10" class="node">
<title>Node10</title>
<g id="a_node10"><a xlink:href="IMessage_8hpp.html" target="_top" xlink:title=" ">
<polygon fill="none" stroke="black" points="418.5,-114.5 418.5,-134.5 502.5,-134.5 502.5,-114.5 418.5,-114.5"/>
<text text-anchor="middle" x="460.5" y="-121.7" font-family="-apple-system, BlinkMacSystemFont, 'Segoe UI', Roboto, Oxygen, Ubuntu, Cantarell, 'Fira Sans', 'Droid Sans', 'Helvetica Neue', sans-serif" font-size="11.00">IMessage.hpp</text>
</a>
</g>
</g>
<!-- Node1&#45;&gt;Node10 -->
<g id="edge15" class="edge">
<title>Node1&#45;&gt;Node10</title>
<path fill="none" stroke="midnightblue" d="M315.21,-171.42C348.1,-161.02 391.26,-147.38 421.97,-137.68"/>
<polygon fill="midnightblue" stroke="midnightblue" points="423.4,-140.9 431.88,-134.55 421.29,-134.22 423.4,-140.9"/>
</g>
<!-- Node4&#45;&gt;Node2 -->
<g id="edge6" class="edge">
<title>Node4&#45;&gt;Node2</title>
<path fill="none" stroke="midnightblue" d="M183.79,-57.48C253.4,-45.91 371.86,-26.23 428.5,-16.82"/>
<polygon fill="midnightblue" stroke="midnightblue" points="429.36,-20.22 438.65,-15.13 428.21,-13.32 429.36,-20.22"/>
</g>
<!-- Node4&#45;&gt;Node3 -->
<g id="edge7" class="edge">
<title>Node4&#45;&gt;Node3</title>
<path fill="none" stroke="midnightblue" d="M111.5,-57.42C94.14,-48.66 67.65,-35.29 47.72,-25.23"/>
<polygon fill="midnightblue" stroke="midnightblue" points="49.03,-21.98 38.53,-20.6 45.88,-28.23 49.03,-21.98"/>
</g>
<!-- Node5 -->
<g id="node5" class="node">
<title>Node5</title>
<g id="a_node5"><a xlink:title=" ">
<polygon fill="none" stroke="#bfbfbf" points="104.5,-0.5 104.5,-20.5 154.5,-20.5 154.5,-0.5 104.5,-0.5"/>
<text text-anchor="middle" x="129.5" y="-7.7" font-family="-apple-system, BlinkMacSystemFont, 'Segoe UI', Roboto, Oxygen, Ubuntu, Cantarell, 'Fira Sans', 'Droid Sans', 'Helvetica Neue', sans-serif" font-size="11.00">chrono</text>
</a>
</g>
</g>
<!-- Node4&#45;&gt;Node5 -->
<g id="edge4" class="edge">
<title>Node4&#45;&gt;Node5</title>
<path fill="none" stroke="midnightblue" d="M129.5,-57.42C129.5,-50.22 129.5,-39.9 129.5,-30.86"/>
<polygon fill="midnightblue" stroke="midnightblue" points="133,-30.78 129.5,-20.78 126,-30.78 133,-30.78"/>
</g>
<!-- Node6 -->
<g id="node6" class="node">
<title>Node6</title>
<g id="a_node6"><a xlink:title=" ">
<polygon fill="none" stroke="#bfbfbf" points="195.5,-0.5 195.5,-20.5 237.5,-20.5 237.5,-0.5 195.5,-0.5"/>
<text text-anchor="middle" x="216.5" y="-7.7" font-family="-apple-system, BlinkMacSystemFont, 'Segoe UI', Roboto, Oxygen, Ubuntu, Cantarell, 'Fira Sans', 'Droid Sans', 'Helvetica Neue', sans-serif" font-size="11.00">ctime</text>
</a>
</g>
</g>
<!-- Node4&#45;&gt;Node6 -->
<g id="edge5" class="edge">
<title>Node4&#45;&gt;Node6</title>
<path fill="none" stroke="midnightblue" d="M143.87,-57.42C157.34,-48.9 177.72,-36.02 193.46,-26.06"/>
<polygon fill="midnightblue" stroke="midnightblue" points="195.53,-28.9 202.11,-20.6 191.79,-22.98 195.53,-28.9"/>
</g>
<!-- Node7&#45;&gt;Node2 -->
<g id="edge12" class="edge">
<title>Node7&#45;&gt;Node2</title>
<path fill="none" stroke="midnightblue" d="M268.79,-114.29C271.29,-99.91 278.18,-72.21 295.5,-57 333.09,-23.98 392.61,-14.71 428.96,-12.24"/>
<polygon fill="midnightblue" stroke="midnightblue" points="429.2,-15.73 439,-11.69 428.82,-8.74 429.2,-15.73"/>
</g>
<!-- Node7&#45;&gt;Node3 -->
<g id="edge13" class="edge">
<title>Node7&#45;&gt;Node3</title>
<path fill="none" stroke="midnightblue" d="M184.96,-116.06C128.66,-109.34 60.61,-97.46 39.5,-78 26.56,-66.07 22.21,-45.99 20.85,-31.01"/>
<polygon fill="midnightblue" stroke="midnightblue" points="24.33,-30.57 20.31,-20.77 17.34,-30.94 24.33,-30.57"/>
</g>
<!-- Node7&#45;&gt;Node4 -->
<g id="edge14" class="edge">
<title>Node7&#45;&gt;Node4</title>
<path fill="none" stroke="midnightblue" d="M244.71,-114.42C222.14,-105.42 187.35,-91.56 161.91,-81.42"/>
<polygon fill="midnightblue" stroke="midnightblue" points="162.91,-78.05 152.32,-77.6 160.32,-84.55 162.91,-78.05"/>
</g>
<!-- Node7&#45;&gt;Node6 -->
<g id="edge9" class="edge">
<title>Node7&#45;&gt;Node6</title>
<path fill="none" stroke="midnightblue" d="M263.33,-114.33C254.96,-95.96 235.99,-54.29 224.93,-30.01"/>
<polygon fill="midnightblue" stroke="midnightblue" points="228.06,-28.44 220.73,-20.79 221.69,-31.34 228.06,-28.44"/>
</g>
<!-- Node8 -->
<g id="node8" class="node">
<title>Node8</title>
<g id="a_node8"><a xlink:title=" ">
<polygon fill="none" stroke="#bfbfbf" points="376.5,-57.5 376.5,-77.5 432.5,-77.5 432.5,-57.5 376.5,-57.5"/>
<text text-anchor="middle" x="404.5" y="-64.7" font-family="-apple-system, BlinkMacSystemFont, 'Segoe UI', Roboto, Oxygen, Ubuntu, Cantarell, 'Fira Sans', 'Droid Sans', 'Helvetica Neue', sans-serif" font-size="11.00">memory</text>
</a>
</g>
</g>
<!-- Node7&#45;&gt;Node8 -->
<g id="edge10" class="edge">
<title>Node7&#45;&gt;Node8</title>
<path fill="none" stroke="midnightblue" d="M290.12,-114.42C312.53,-105.42 347.06,-91.56 372.32,-81.42"/>
<polygon fill="midnightblue" stroke="midnightblue" points="373.87,-84.57 381.84,-77.6 371.26,-78.07 373.87,-84.57"/>
</g>
<!-- Node9 -->
<g id="node9" class="node">
<title>Node9</title>
<g id="a_node9"><a xlink:title=" ">
<polygon fill="none" stroke="#bfbfbf" points="304.5,-57.5 304.5,-77.5 358.5,-77.5 358.5,-57.5 304.5,-57.5"/>
<text text-anchor="middle" x="331.5" y="-64.7" font-family="-apple-system, BlinkMacSystemFont, 'Segoe UI', Roboto, Oxygen, Ubuntu, Cantarell, 'Fira Sans', 'Droid Sans', 'Helvetica Neue', sans-serif" font-size="11.00">optional</text>
</a>
</g>
</g>
<!-- Node7&#45;&gt;Node9 -->
<g id="edge11" class="edge">
<title>Node7&#45;&gt;Node9</title>
<path fill="none" stroke="midnightblue" d="M278.07,-114.42C287.55,-106.27 301.69,-94.12 313.04,-84.37"/>
<polygon fill="midnightblue" stroke="midnightblue" points="315.4,-86.95 320.7,-77.78 310.84,-81.64 315.4,-86.95"/>
</g>
<!-- Node10&#45;&gt;Node2 -->
<g id="edge17" class="edge">
<title>Node10&#45;&gt;Node2</title>
<path fill="none" stroke="midnightblue" d="M460.5,-114.33C460.5,-96.2 460.5,-55.41 460.5,-31"/>
<polygon fill="midnightblue" stroke="midnightblue" points="464,-30.79 460.5,-20.79 457,-30.79 464,-30.79"/>
</g>
<!-- Node10&#45;&gt;Node8 -->
<g id="edge16" class="edge">
<title>Node10&#45;&gt;Node8</title>
<path fill="none" stroke="midnightblue" d="M451.25,-114.42C443.11,-106.42 431.06,-94.59 421.24,-84.94"/>
<polygon fill="midnightblue" stroke="midnightblue" points="423.54,-82.29 413.95,-77.78 418.63,-87.28 423.54,-82.29"/>
</g>
<!-- Node11 -->
<g id="node11" class="node">
<title>Node11</title>
<g id="a_node11"><a xlink:title=" ">
<polygon fill="none" stroke="#bfbfbf" points="686.5,-57.5 686.5,-77.5 752.5,-77.5 752.5,-57.5 686.5,-57.5"/>
<text text-anchor="middle" x="719.5" y="-64.7" font-family="-apple-system, BlinkMacSystemFont, 'Segoe UI', Roboto, Oxygen, Ubuntu, Cantarell, 'Fira Sans', 'Droid Sans', 'Helvetica Neue', sans-serif" font-size="11.00">type_traits</text>
</a>
</g>
</g>
<!-- Node10&#45;&gt;Node11 -->
<g id="edge18" class="edge">
<title>Node10&#45;&gt;Node11</title>
<path fill="none" stroke="midnightblue" d="M502.55,-114.89C544.24,-106.3 610.21,-92.6 676.69,-78.15"/>
<polygon fill="midnightblue" stroke="midnightblue" points="677.47,-81.56 686.5,-76.02 675.98,-74.72 677.47,-81.56"/>
</g>
<!-- Node12 -->
<g id="node12" class="node">
<title>Node12</title>
<g id="a_node12"><a xlink:href="MessageTypes_8hpp.html" target="_top" xlink:title=" ">
<polygon fill="none" stroke="red" points="489,-57.5 489,-77.5 668,-77.5 668,-57.5 489,-57.5"/>
<text text-anchor="middle" x="578.5" y="-64.7" font-family="-apple-system, BlinkMacSystemFont, 'Segoe UI', Roboto, Oxygen, Ubuntu, Cantarell, 'Fira Sans', 'Droid Sans', 'Helvetica Neue', sans-serif" font-size="11.00">libmirai/Types/MessageTypes.hpp</text>
</a>
</g>
</g>
<!-- Node10&#45;&gt;Node12 -->
<g id="edge19" class="edge">
<title>Node10&#45;&gt;Node12</title>
<path fill="none" stroke="midnightblue" d="M479.99,-114.42C499.03,-105.54 528.24,-91.93 549.92,-81.82"/>
<polygon fill="midnightblue" stroke="midnightblue" points="551.4,-84.99 558.99,-77.6 548.44,-78.65 551.4,-84.99"/>
</g>
<!-- Node12&#45;&gt;Node2 -->
<g id="edge20" class="edge">
<title>Node12&#45;&gt;Node2</title>
<path fill="none" stroke="midnightblue" d="M559.01,-57.42C539.97,-48.54 510.76,-34.93 489.08,-24.82"/>
<polygon fill="midnightblue" stroke="midnightblue" points="490.56,-21.65 480.01,-20.6 487.6,-27.99 490.56,-21.65"/>
</g>
</g>
</svg>
