<?xml version="1.0" encoding="UTF-8" standalone="no"?>
<!DOCTYPE svg PUBLIC "-//W3C//DTD SVG 1.1//EN"
 "http://www.w3.org/Graphics/SVG/1.1/DTD/svg11.dtd">
<!-- Generated by graphviz version 3.0.0 (20221109.1736)
 -->
<!-- Title: libmirai/models/libmirai/Messages/IMessage.hpp Pages: 1 -->
<svg width="3218pt" height="386pt"
 viewBox="0.00 0.00 3217.72 386.00" xmlns="http://www.w3.org/2000/svg" xmlns:xlink="http://www.w3.org/1999/xlink">
<g id="graph0" class="graph" transform="scale(1 1) rotate(0) translate(4 382)">
<title>libmirai/models/libmirai/Messages/IMessage.hpp</title>
<!-- Node1 -->
<g id="node1" class="node">
<title>Node1</title>
<g id="a_node1"><a xlink:title=" ">
<polygon fill="#bfbfbf" stroke="black" points="1559.22,-345.5 1559.22,-377.5 1698.22,-377.5 1698.22,-345.5 1559.22,-345.5"/>
<text text-anchor="start" x="1567.22" y="-364.7" font-family="-apple-system, BlinkMacSystemFont, 'Segoe UI', Roboto, Oxygen, Ubuntu, Cantarell, 'Fira Sans', 'Droid Sans', 'Helvetica Neue', sans-serif" font-size="11.00">libmirai/models/libmirai</text>
<text text-anchor="middle" x="1628.72" y="-352.7" font-family="-apple-system, BlinkMacSystemFont, 'Segoe UI', Roboto, Oxygen, Ubuntu, Cantarell, 'Fira Sans', 'Droid Sans', 'Helvetica Neue', sans-serif" font-size="11.00">/Messages/IMessage.hpp</text>
</a>
</g>
</g>
<!-- Node2 -->
<g id="node2" class="node">
<title>Node2</title>
<g id="a_node2"><a xlink:href="Messages_8hpp.html" target="_top" xlink:title=" ">
<polygon fill="none" stroke="black" points="1576.72,-69.5 1576.72,-101.5 1754.72,-101.5 1754.72,-69.5 1576.72,-69.5"/>
<text text-anchor="start" x="1584.72" y="-88.7" font-family="-apple-system, BlinkMacSystemFont, 'Segoe UI', Roboto, Oxygen, Ubuntu, Cantarell, 'Fira Sans', 'Droid Sans', 'Helvetica Neue', sans-serif" font-size="11.00">libmirai/aggregates</text>
<text text-anchor="middle" x="1665.72" y="-76.7" font-family="-apple-system, BlinkMacSystemFont, 'Segoe UI', Roboto, Oxygen, Ubuntu, Cantarell, 'Fira Sans', 'Droid Sans', 'Helvetica Neue', sans-serif" font-size="11.00">/libmirai/Messages/Messages.hpp</text>
</a>
</g>
</g>
<!-- Node1&#45;&gt;Node2 -->
<g id="edge1" class="edge">
<title>Node1&#45;&gt;Node2</title>
<path fill="none" stroke="midnightblue" d="M1548.86,-360.87C1239.94,-361.93 137.93,-361.95 86.72,-309 24.79,-244.96 -242.06,-268.88 639.72,-138 819.23,-111.36 1361.68,-94.53 1576.62,-88.75"/>
<polygon fill="midnightblue" stroke="midnightblue" points="1549.09,-364.37 1559.08,-360.84 1549.07,-357.37 1549.09,-364.37"/>
</g>
<!-- Node5 -->
<g id="node4" class="node">
<title>Node5</title>
<g id="a_node4"><a xlink:href="AppMessage_8hpp.html" target="_top" xlink:title=" ">
<polygon fill="none" stroke="black" points="2501.22,-276.5 2501.22,-308.5 2656.22,-308.5 2656.22,-276.5 2501.22,-276.5"/>
<text text-anchor="start" x="2509.22" y="-295.7" font-family="-apple-system, BlinkMacSystemFont, 'Segoe UI', Roboto, Oxygen, Ubuntu, Cantarell, 'Fira Sans', 'Droid Sans', 'Helvetica Neue', sans-serif" font-size="11.00">libmirai/models/libmirai</text>
<text text-anchor="middle" x="2578.72" y="-283.7" font-family="-apple-system, BlinkMacSystemFont, 'Segoe UI', Roboto, Oxygen, Ubuntu, Cantarell, 'Fira Sans', 'Droid Sans', 'Helvetica Neue', sans-serif" font-size="11.00">/Messages/AppMessage.hpp</text>
</a>
</g>
</g>
<!-- Node1&#45;&gt;Node5 -->
<g id="edge3" class="edge">
<title>Node1&#45;&gt;Node5</title>
<path fill="none" stroke="midnightblue" d="M1708.64,-358.91C1861.43,-355.16 2205.39,-343.33 2492.72,-309 2495.43,-308.68 2498.19,-308.32 2500.97,-307.94"/>
<polygon fill="midnightblue" stroke="midnightblue" points="1708.32,-355.41 1698.41,-359.15 1708.49,-362.41 1708.32,-355.41"/>
</g>
<!-- Node6 -->
<g id="node5" class="node">
<title>Node6</title>
<g id="a_node5"><a xlink:href="MessageChain_8hpp.html" target="_top" xlink:title=" ">
<polygon fill="none" stroke="red" points="1741.72,-207.5 1741.72,-239.5 1905.72,-239.5 1905.72,-207.5 1741.72,-207.5"/>
<text text-anchor="start" x="1749.72" y="-226.7" font-family="-apple-system, BlinkMacSystemFont, 'Segoe UI', Roboto, Oxygen, Ubuntu, Cantarell, 'Fira Sans', 'Droid Sans', 'Helvetica Neue', sans-serif" font-size="11.00">libmirai/models/libmirai</text>
<text text-anchor="middle" x="1823.72" y="-214.7" font-family="-apple-system, BlinkMacSystemFont, 'Segoe UI', Roboto, Oxygen, Ubuntu, Cantarell, 'Fira Sans', 'Droid Sans', 'Helvetica Neue', sans-serif" font-size="11.00">/Messages/MessageChain.hpp</text>
</a>
</g>
</g>
<!-- Node1&#45;&gt;Node6 -->
<g id="edge40" class="edge">
<title>Node1&#45;&gt;Node6</title>
<path fill="none" stroke="midnightblue" d="M1708.78,-357.12C1783.48,-352.08 1887.15,-339.63 1912.72,-309 1922.12,-297.74 1920.05,-288.71 1912.72,-276 1903.18,-259.45 1886.07,-247.74 1869.38,-239.71"/>
<polygon fill="midnightblue" stroke="midnightblue" points="1708.2,-353.65 1698.45,-357.78 1708.65,-360.63 1708.2,-353.65"/>
</g>
<!-- Node22 -->
<g id="node9" class="node">
<title>Node22</title>
<g id="a_node9"><a xlink:href="AtAllMessage_8hpp.html" target="_top" xlink:title=" ">
<polygon fill="none" stroke="black" points="2857.72,-276.5 2857.72,-308.5 3015.72,-308.5 3015.72,-276.5 2857.72,-276.5"/>
<text text-anchor="start" x="2865.72" y="-295.7" font-family="-apple-system, BlinkMacSystemFont, 'Segoe UI', Roboto, Oxygen, Ubuntu, Cantarell, 'Fira Sans', 'Droid Sans', 'Helvetica Neue', sans-serif" font-size="11.00">libmirai/models/libmirai</text>
<text text-anchor="middle" x="2936.72" y="-283.7" font-family="-apple-system, BlinkMacSystemFont, 'Segoe UI', Roboto, Oxygen, Ubuntu, Cantarell, 'Fira Sans', 'Droid Sans', 'Helvetica Neue', sans-serif" font-size="11.00">/Messages/AtAllMessage.hpp</text>
</a>
</g>
</g>
<!-- Node1&#45;&gt;Node22 -->
<g id="edge11" class="edge">
<title>Node1&#45;&gt;Node22</title>
<path fill="none" stroke="midnightblue" d="M1708.6,-360.77C1903.85,-360.64 2420.65,-355.53 2848.72,-309 2851.65,-308.68 2854.63,-308.32 2857.64,-307.94"/>
<polygon fill="midnightblue" stroke="midnightblue" points="1708.43,-357.27 1698.43,-360.77 1708.43,-364.27 1708.43,-357.27"/>
</g>
<!-- Node23 -->
<g id="node10" class="node">
<title>Node23</title>
<g id="a_node10"><a xlink:href="AtMessage_8hpp.html" target="_top" xlink:title=" ">
<polygon fill="none" stroke="black" points="95.72,-276.5 95.72,-308.5 241.72,-308.5 241.72,-276.5 95.72,-276.5"/>
<text text-anchor="start" x="103.72" y="-295.7" font-family="-apple-system, BlinkMacSystemFont, 'Segoe UI', Roboto, Oxygen, Ubuntu, Cantarell, 'Fira Sans', 'Droid Sans', 'Helvetica Neue', sans-serif" font-size="11.00">libmirai/models/libmirai</text>
<text text-anchor="middle" x="168.72" y="-283.7" font-family="-apple-system, BlinkMacSystemFont, 'Segoe UI', Roboto, Oxygen, Ubuntu, Cantarell, 'Fira Sans', 'Droid Sans', 'Helvetica Neue', sans-serif" font-size="11.00">/Messages/AtMessage.hpp</text>
</a>
</g>
</g>
<!-- Node1&#45;&gt;Node23 -->
<g id="edge14" class="edge">
<title>Node1&#45;&gt;Node23</title>
<path fill="none" stroke="midnightblue" d="M1548.54,-359.08C1293.78,-354.32 504.73,-337.59 250.72,-309 247.84,-308.68 244.91,-308.31 241.96,-307.9"/>
<polygon fill="midnightblue" stroke="midnightblue" points="1548.76,-362.58 1558.82,-359.27 1548.89,-355.59 1548.76,-362.58"/>
</g>
<!-- Node24 -->
<g id="node11" class="node">
<title>Node24</title>
<g id="a_node11"><a xlink:href="AudioMessage_8hpp.html" target="_top" xlink:title=" ">
<polygon fill="none" stroke="black" points="259.72,-276.5 259.72,-308.5 423.72,-308.5 423.72,-276.5 259.72,-276.5"/>
<text text-anchor="start" x="267.72" y="-295.7" font-family="-apple-system, BlinkMacSystemFont, 'Segoe UI', Roboto, Oxygen, Ubuntu, Cantarell, 'Fira Sans', 'Droid Sans', 'Helvetica Neue', sans-serif" font-size="11.00">libmirai/models/libmirai</text>
<text text-anchor="middle" x="341.72" y="-283.7" font-family="-apple-system, BlinkMacSystemFont, 'Segoe UI', Roboto, Oxygen, Ubuntu, Cantarell, 'Fira Sans', 'Droid Sans', 'Helvetica Neue', sans-serif" font-size="11.00">/Messages/AudioMessage.hpp</text>
</a>
</g>
</g>
<!-- Node1&#45;&gt;Node24 -->
<g id="edge17" class="edge">
<title>Node1&#45;&gt;Node24</title>
<path fill="none" stroke="midnightblue" d="M1549.04,-360.52C1356.61,-359.82 851.48,-353.5 432.72,-309 429.85,-308.7 426.94,-308.36 424,-307.99"/>
<polygon fill="midnightblue" stroke="midnightblue" points="1549.06,-364.02 1559.07,-360.55 1549.08,-357.02 1549.06,-364.02"/>
</g>
<!-- Node25 -->
<g id="node12" class="node">
<title>Node25</title>
<g id="a_node12"><a xlink:href="DiceMessage_8hpp.html" target="_top" xlink:title=" ">
<polygon fill="none" stroke="black" points="442.22,-276.5 442.22,-308.5 599.22,-308.5 599.22,-276.5 442.22,-276.5"/>
<text text-anchor="start" x="450.22" y="-295.7" font-family="-apple-system, BlinkMacSystemFont, 'Segoe UI', Roboto, Oxygen, Ubuntu, Cantarell, 'Fira Sans', 'Droid Sans', 'Helvetica Neue', sans-serif" font-size="11.00">libmirai/models/libmirai</text>
<text text-anchor="middle" x="520.72" y="-283.7" font-family="-apple-system, BlinkMacSystemFont, 'Segoe UI', Roboto, Oxygen, Ubuntu, Cantarell, 'Fira Sans', 'Droid Sans', 'Helvetica Neue', sans-serif" font-size="11.00">/Messages/DiceMessage.hpp</text>
</a>
</g>
</g>
<!-- Node1&#45;&gt;Node25 -->
<g id="edge20" class="edge">
<title>Node1&#45;&gt;Node25</title>
<path fill="none" stroke="midnightblue" d="M1548.66,-359.83C1376.26,-357.63 957.29,-348.34 608.72,-309 605.64,-308.65 602.5,-308.26 599.34,-307.84"/>
<polygon fill="midnightblue" stroke="midnightblue" points="1548.87,-363.33 1558.92,-359.95 1548.96,-356.33 1548.87,-363.33"/>
</g>
<!-- Node26 -->
<g id="node13" class="node">
<title>Node26</title>
<g id="a_node13"><a xlink:href="FaceMessage_8hpp.html" target="_top" xlink:title=" ">
<polygon fill="none" stroke="black" points="617.72,-276.5 617.72,-308.5 777.72,-308.5 777.72,-276.5 617.72,-276.5"/>
<text text-anchor="start" x="625.72" y="-295.7" font-family="-apple-system, BlinkMacSystemFont, 'Segoe UI', Roboto, Oxygen, Ubuntu, Cantarell, 'Fira Sans', 'Droid Sans', 'Helvetica Neue', sans-serif" font-size="11.00">libmirai/models/libmirai</text>
<text text-anchor="middle" x="697.72" y="-283.7" font-family="-apple-system, BlinkMacSystemFont, 'Segoe UI', Roboto, Oxygen, Ubuntu, Cantarell, 'Fira Sans', 'Droid Sans', 'Helvetica Neue', sans-serif" font-size="11.00">/Messages/FaceMessage.hpp</text>
</a>
</g>
</g>
<!-- Node1&#45;&gt;Node26 -->
<g id="edge23" class="edge">
<title>Node1&#45;&gt;Node26</title>
<path fill="none" stroke="midnightblue" d="M1549.16,-358.58C1399.44,-354.33 1065.77,-341.73 786.72,-309 783.92,-308.67 781.07,-308.31 778.19,-307.93"/>
<polygon fill="midnightblue" stroke="midnightblue" points="1549.09,-362.08 1559.18,-358.86 1549.28,-355.09 1549.09,-362.08"/>
</g>
<!-- Node27 -->
<g id="node14" class="node">
<title>Node27</title>
<g id="a_node14"><a xlink:href="FileMessage_8hpp.html" target="_top" xlink:title=" ">
<polygon fill="none" stroke="black" points="796.22,-276.5 796.22,-308.5 949.22,-308.5 949.22,-276.5 796.22,-276.5"/>
<text text-anchor="start" x="804.22" y="-295.7" font-family="-apple-system, BlinkMacSystemFont, 'Segoe UI', Roboto, Oxygen, Ubuntu, Cantarell, 'Fira Sans', 'Droid Sans', 'Helvetica Neue', sans-serif" font-size="11.00">libmirai/models/libmirai</text>
<text text-anchor="middle" x="872.72" y="-283.7" font-family="-apple-system, BlinkMacSystemFont, 'Segoe UI', Roboto, Oxygen, Ubuntu, Cantarell, 'Fira Sans', 'Droid Sans', 'Helvetica Neue', sans-serif" font-size="11.00">/Messages/FileMessage.hpp</text>
</a>
</g>
</g>
<!-- Node1&#45;&gt;Node27 -->
<g id="edge26" class="edge">
<title>Node1&#45;&gt;Node27</title>
<path fill="none" stroke="midnightblue" d="M1548.72,-356.98C1422.81,-350.86 1170.88,-336.2 958.72,-309 955.71,-308.61 952.65,-308.19 949.56,-307.75"/>
<polygon fill="midnightblue" stroke="midnightblue" points="1548.88,-360.49 1559.04,-357.48 1549.22,-353.5 1548.88,-360.49"/>
</g>
<!-- Node28 -->
<g id="node15" class="node">
<title>Node28</title>
<g id="a_node15"><a xlink:href="ForwardMessage_8hpp.html" target="_top" xlink:title=" ">
<polygon fill="none" stroke="black" points="3033.72,-276.5 3033.72,-308.5 3209.72,-308.5 3209.72,-276.5 3033.72,-276.5"/>
<text text-anchor="start" x="3041.72" y="-295.7" font-family="-apple-system, BlinkMacSystemFont, 'Segoe UI', Roboto, Oxygen, Ubuntu, Cantarell, 'Fira Sans', 'Droid Sans', 'Helvetica Neue', sans-serif" font-size="11.00">libmirai/models/libmirai</text>
<text text-anchor="middle" x="3121.72" y="-283.7" font-family="-apple-system, BlinkMacSystemFont, 'Segoe UI', Roboto, Oxygen, Ubuntu, Cantarell, 'Fira Sans', 'Droid Sans', 'Helvetica Neue', sans-serif" font-size="11.00">/Messages/ForwardMessage.hpp</text>
</a>
</g>
</g>
<!-- Node1&#45;&gt;Node28 -->
<g id="edge29" class="edge">
<title>Node1&#45;&gt;Node28</title>
<path fill="none" stroke="midnightblue" d="M1708.47,-360.94C1922.24,-361.4 2525.72,-357.89 3024.72,-309 3027.61,-308.72 3030.54,-308.4 3033.49,-308.06"/>
<polygon fill="midnightblue" stroke="midnightblue" points="1708.29,-357.44 1698.28,-360.92 1708.27,-364.44 1708.29,-357.44"/>
</g>
<!-- Node29 -->
<g id="node16" class="node">
<title>Node29</title>
<g id="a_node16"><a xlink:href="ImageMessage_8hpp.html" target="_top" xlink:title=" ">
<polygon fill="none" stroke="black" points="967.72,-276.5 967.72,-308.5 1133.72,-308.5 1133.72,-276.5 967.72,-276.5"/>
<text text-anchor="start" x="975.72" y="-295.7" font-family="-apple-system, BlinkMacSystemFont, 'Segoe UI', Roboto, Oxygen, Ubuntu, Cantarell, 'Fira Sans', 'Droid Sans', 'Helvetica Neue', sans-serif" font-size="11.00">libmirai/models/libmirai</text>
<text text-anchor="middle" x="1050.72" y="-283.7" font-family="-apple-system, BlinkMacSystemFont, 'Segoe UI', Roboto, Oxygen, Ubuntu, Cantarell, 'Fira Sans', 'Droid Sans', 'Helvetica Neue', sans-serif" font-size="11.00">/Messages/ImageMessage.hpp</text>
</a>
</g>
</g>
<!-- Node1&#45;&gt;Node29 -->
<g id="edge34" class="edge">
<title>Node1&#45;&gt;Node29</title>
<path fill="none" stroke="midnightblue" d="M1548.98,-353.56C1452.55,-344.82 1285.41,-328.56 1142.72,-309 1139.83,-308.6 1136.9,-308.19 1133.93,-307.75"/>
<polygon fill="midnightblue" stroke="midnightblue" points="1548.67,-357.05 1558.94,-354.46 1549.3,-350.08 1548.67,-357.05"/>
</g>
<!-- Node30 -->
<g id="node17" class="node">
<title>Node30</title>
<g id="a_node17"><a xlink:href="JsonMessage_8hpp.html" target="_top" xlink:title=" ">
<polygon fill="none" stroke="black" points="1152.22,-276.5 1152.22,-308.5 1311.22,-308.5 1311.22,-276.5 1152.22,-276.5"/>
<text text-anchor="start" x="1160.22" y="-295.7" font-family="-apple-system, BlinkMacSystemFont, 'Segoe UI', Roboto, Oxygen, Ubuntu, Cantarell, 'Fira Sans', 'Droid Sans', 'Helvetica Neue', sans-serif" font-size="11.00">libmirai/models/libmirai</text>
<text text-anchor="middle" x="1231.72" y="-283.7" font-family="-apple-system, BlinkMacSystemFont, 'Segoe UI', Roboto, Oxygen, Ubuntu, Cantarell, 'Fira Sans', 'Droid Sans', 'Helvetica Neue', sans-serif" font-size="11.00">/Messages/JsonMessage.hpp</text>
</a>
</g>
</g>
<!-- Node1&#45;&gt;Node30 -->
<g id="edge37" class="edge">
<title>Node1&#45;&gt;Node30</title>
<path fill="none" stroke="midnightblue" d="M1548.88,-347.4C1486.46,-337.11 1397.54,-322.34 1319.72,-309 1316.97,-308.53 1314.17,-308.05 1311.34,-307.56"/>
<polygon fill="midnightblue" stroke="midnightblue" points="1548.61,-350.9 1559.05,-349.08 1549.75,-344 1548.61,-350.9"/>
</g>
<!-- Node31 -->
<g id="node18" class="node">
<title>Node31</title>
<g id="a_node18"><a xlink:href="MiraiCodeMessage_8hpp.html" target="_top" xlink:title=" ">
<polygon fill="none" stroke="black" points="1329.22,-276.5 1329.22,-308.5 1514.22,-308.5 1514.22,-276.5 1329.22,-276.5"/>
<text text-anchor="start" x="1337.22" y="-295.7" font-family="-apple-system, BlinkMacSystemFont, 'Segoe UI', Roboto, Oxygen, Ubuntu, Cantarell, 'Fira Sans', 'Droid Sans', 'Helvetica Neue', sans-serif" font-size="11.00">libmirai/models/libmirai</text>
<text text-anchor="middle" x="1421.72" y="-283.7" font-family="-apple-system, BlinkMacSystemFont, 'Segoe UI', Roboto, Oxygen, Ubuntu, Cantarell, 'Fira Sans', 'Droid Sans', 'Helvetica Neue', sans-serif" font-size="11.00">/Messages/MiraiCodeMessage.hpp</text>
</a>
</g>
</g>
<!-- Node1&#45;&gt;Node31 -->
<g id="edge41" class="edge">
<title>Node1&#45;&gt;Node31</title>
<path fill="none" stroke="midnightblue" d="M1572.42,-342.28C1539.8,-331.72 1499.21,-318.58 1468.38,-308.6"/>
<polygon fill="midnightblue" stroke="midnightblue" points="1571.68,-345.71 1582.27,-345.46 1573.83,-339.05 1571.68,-345.71"/>
</g>
<!-- Node32 -->
<g id="node19" class="node">
<title>Node32</title>
<g id="a_node19"><a xlink:href="MusicShareMessage_8hpp.html" target="_top" xlink:title=" ">
<polygon fill="none" stroke="black" points="1532.22,-276.5 1532.22,-308.5 1725.22,-308.5 1725.22,-276.5 1532.22,-276.5"/>
<text text-anchor="start" x="1540.22" y="-295.7" font-family="-apple-system, BlinkMacSystemFont, 'Segoe UI', Roboto, Oxygen, Ubuntu, Cantarell, 'Fira Sans', 'Droid Sans', 'Helvetica Neue', sans-serif" font-size="11.00">libmirai/models/libmirai</text>
<text text-anchor="middle" x="1628.72" y="-283.7" font-family="-apple-system, BlinkMacSystemFont, 'Segoe UI', Roboto, Oxygen, Ubuntu, Cantarell, 'Fira Sans', 'Droid Sans', 'Helvetica Neue', sans-serif" font-size="11.00">/Messages/MusicShareMessage.hpp</text>
</a>
</g>
</g>
<!-- Node1&#45;&gt;Node32 -->
<g id="edge44" class="edge">
<title>Node1&#45;&gt;Node32</title>
<path fill="none" stroke="midnightblue" d="M1628.72,-335.02C1628.72,-326.13 1628.72,-316.43 1628.72,-308.64"/>
<polygon fill="midnightblue" stroke="midnightblue" points="1625.22,-335.3 1628.72,-345.3 1632.22,-335.3 1625.22,-335.3"/>
</g>
<!-- Node33 -->
<g id="node20" class="node">
<title>Node33</title>
<g id="a_node20"><a xlink:href="PlainMessage_8hpp.html" target="_top" xlink:title=" ">
<polygon fill="none" stroke="black" points="1743.72,-276.5 1743.72,-308.5 1903.72,-308.5 1903.72,-276.5 1743.72,-276.5"/>
<text text-anchor="start" x="1751.72" y="-295.7" font-family="-apple-system, BlinkMacSystemFont, 'Segoe UI', Roboto, Oxygen, Ubuntu, Cantarell, 'Fira Sans', 'Droid Sans', 'Helvetica Neue', sans-serif" font-size="11.00">libmirai/models/libmirai</text>
<text text-anchor="middle" x="1823.72" y="-283.7" font-family="-apple-system, BlinkMacSystemFont, 'Segoe UI', Roboto, Oxygen, Ubuntu, Cantarell, 'Fira Sans', 'Droid Sans', 'Helvetica Neue', sans-serif" font-size="11.00">/Messages/PlainMessage.hpp</text>
</a>
</g>
</g>
<!-- Node1&#45;&gt;Node33 -->
<g id="edge47" class="edge">
<title>Node1&#45;&gt;Node33</title>
<path fill="none" stroke="midnightblue" d="M1682.16,-342.14C1712.83,-331.6 1750.85,-318.54 1779.77,-308.6"/>
<polygon fill="midnightblue" stroke="midnightblue" points="1680.81,-338.9 1672.49,-345.46 1683.08,-345.52 1680.81,-338.9"/>
</g>
<!-- Node34 -->
<g id="node21" class="node">
<title>Node34</title>
<g id="a_node21"><a xlink:href="PokeMessage_8hpp.html" target="_top" xlink:title=" ">
<polygon fill="none" stroke="black" points="1960.22,-276.5 1960.22,-308.5 2121.22,-308.5 2121.22,-276.5 1960.22,-276.5"/>
<text text-anchor="start" x="1968.22" y="-295.7" font-family="-apple-system, BlinkMacSystemFont, 'Segoe UI', Roboto, Oxygen, Ubuntu, Cantarell, 'Fira Sans', 'Droid Sans', 'Helvetica Neue', sans-serif" font-size="11.00">libmirai/models/libmirai</text>
<text text-anchor="middle" x="2040.72" y="-283.7" font-family="-apple-system, BlinkMacSystemFont, 'Segoe UI', Roboto, Oxygen, Ubuntu, Cantarell, 'Fira Sans', 'Droid Sans', 'Helvetica Neue', sans-serif" font-size="11.00">/Messages/PokeMessage.hpp</text>
</a>
</g>
</g>
<!-- Node1&#45;&gt;Node34 -->
<g id="edge50" class="edge">
<title>Node1&#45;&gt;Node34</title>
<path fill="none" stroke="midnightblue" d="M1708.34,-347.58C1772.45,-337.17 1864.89,-322.16 1945.72,-309 1950.42,-308.23 1955.26,-307.45 1960.13,-306.65"/>
<polygon fill="midnightblue" stroke="midnightblue" points="1707.61,-344.15 1698.3,-349.21 1708.73,-351.06 1707.61,-344.15"/>
</g>
<!-- Node35 -->
<g id="node22" class="node">
<title>Node35</title>
<g id="a_node22"><a xlink:href="QuoteMessage_8hpp.html" target="_top" xlink:title=" ">
<polygon fill="none" stroke="black" points="2674.22,-276.5 2674.22,-308.5 2839.22,-308.5 2839.22,-276.5 2674.22,-276.5"/>
<text text-anchor="start" x="2682.22" y="-295.7" font-family="-apple-system, BlinkMacSystemFont, 'Segoe UI', Roboto, Oxygen, Ubuntu, Cantarell, 'Fira Sans', 'Droid Sans', 'Helvetica Neue', sans-serif" font-size="11.00">libmirai/models/libmirai</text>
<text text-anchor="middle" x="2756.72" y="-283.7" font-family="-apple-system, BlinkMacSystemFont, 'Segoe UI', Roboto, Oxygen, Ubuntu, Cantarell, 'Fira Sans', 'Droid Sans', 'Helvetica Neue', sans-serif" font-size="11.00">/Messages/QuoteMessage.hpp</text>
</a>
</g>
</g>
<!-- Node1&#45;&gt;Node35 -->
<g id="edge53" class="edge">
<title>Node1&#45;&gt;Node35</title>
<path fill="none" stroke="midnightblue" d="M1708.54,-359.77C1882.8,-357.47 2310.18,-347.97 2665.72,-309 2668.43,-308.7 2671.18,-308.38 2673.96,-308.03"/>
<polygon fill="midnightblue" stroke="midnightblue" points="1708.39,-356.27 1698.43,-359.9 1708.48,-363.27 1708.39,-356.27"/>
</g>
<!-- Node36 -->
<g id="node23" class="node">
<title>Node36</title>
<g id="a_node23"><a xlink:href="SourceMessage_8hpp.html" target="_top" xlink:title=" ">
<polygon fill="none" stroke="black" points="2139.72,-276.5 2139.72,-308.5 2309.72,-308.5 2309.72,-276.5 2139.72,-276.5"/>
<text text-anchor="start" x="2147.72" y="-295.7" font-family="-apple-system, BlinkMacSystemFont, 'Segoe UI', Roboto, Oxygen, Ubuntu, Cantarell, 'Fira Sans', 'Droid Sans', 'Helvetica Neue', sans-serif" font-size="11.00">libmirai/models/libmirai</text>
<text text-anchor="middle" x="2224.72" y="-283.7" font-family="-apple-system, BlinkMacSystemFont, 'Segoe UI', Roboto, Oxygen, Ubuntu, Cantarell, 'Fira Sans', 'Droid Sans', 'Helvetica Neue', sans-serif" font-size="11.00">/Messages/SourceMessage.hpp</text>
</a>
</g>
</g>
<!-- Node1&#45;&gt;Node36 -->
<g id="edge57" class="edge">
<title>Node1&#45;&gt;Node36</title>
<path fill="none" stroke="midnightblue" d="M1708.81,-353.74C1807.86,-345.05 1981.55,-328.69 2129.72,-309 2132.95,-308.57 2136.24,-308.12 2139.56,-307.65"/>
<polygon fill="midnightblue" stroke="midnightblue" points="1708.24,-350.28 1698.58,-354.64 1708.85,-357.25 1708.24,-350.28"/>
</g>
<!-- Node37 -->
<g id="node24" class="node">
<title>Node37</title>
<g id="a_node24"><a xlink:href="XmlMessage_8hpp.html" target="_top" xlink:title=" ">
<polygon fill="none" stroke="black" points="2328.22,-276.5 2328.22,-308.5 2483.22,-308.5 2483.22,-276.5 2328.22,-276.5"/>
<text text-anchor="start" x="2336.22" y="-295.7" font-family="-apple-system, BlinkMacSystemFont, 'Segoe UI', Roboto, Oxygen, Ubuntu, Cantarell, 'Fira Sans', 'Droid Sans', 'Helvetica Neue', sans-serif" font-size="11.00">libmirai/models/libmirai</text>
<text text-anchor="middle" x="2405.72" y="-283.7" font-family="-apple-system, BlinkMacSystemFont, 'Segoe UI', Roboto, Oxygen, Ubuntu, Cantarell, 'Fira Sans', 'Droid Sans', 'Helvetica Neue', sans-serif" font-size="11.00">/Messages/XmlMessage.hpp</text>
</a>
</g>
</g>
<!-- Node1&#45;&gt;Node37 -->
<g id="edge60" class="edge">
<title>Node1&#45;&gt;Node37</title>
<path fill="none" stroke="midnightblue" d="M1708.67,-357.18C1837.49,-351.23 2098.83,-336.72 2318.72,-309 2321.77,-308.62 2324.87,-308.2 2328,-307.75"/>
<polygon fill="midnightblue" stroke="midnightblue" points="1708.32,-353.69 1698.49,-357.64 1708.64,-360.68 1708.32,-353.69"/>
</g>
<!-- Node3 -->
<g id="node3" class="node">
<title>Node3</title>
<g id="a_node3"><a xlink:href="models_8hpp.html" target="_top" xlink:title=" ">
<polygon fill="none" stroke="red" points="1609.72,-0.5 1609.72,-32.5 1721.72,-32.5 1721.72,-0.5 1609.72,-0.5"/>
<text text-anchor="start" x="1617.72" y="-19.7" font-family="-apple-system, BlinkMacSystemFont, 'Segoe UI', Roboto, Oxygen, Ubuntu, Cantarell, 'Fira Sans', 'Droid Sans', 'Helvetica Neue', sans-serif" font-size="11.00">libmirai/aggregates</text>
<text text-anchor="middle" x="1665.72" y="-7.7" font-family="-apple-system, BlinkMacSystemFont, 'Segoe UI', Roboto, Oxygen, Ubuntu, Cantarell, 'Fira Sans', 'Droid Sans', 'Helvetica Neue', sans-serif" font-size="11.00">/libmirai/models.hpp</text>
</a>
</g>
</g>
<!-- Node2&#45;&gt;Node3 -->
<g id="edge2" class="edge">
<title>Node2&#45;&gt;Node3</title>
<path fill="none" stroke="midnightblue" d="M1665.72,-59.02C1665.72,-50.13 1665.72,-40.43 1665.72,-32.64"/>
<polygon fill="midnightblue" stroke="midnightblue" points="1662.22,-59.3 1665.72,-69.3 1669.22,-59.3 1662.22,-59.3"/>
</g>
<!-- Node5&#45;&gt;Node2 -->
<g id="edge4" class="edge">
<title>Node5&#45;&gt;Node2</title>
<path fill="none" stroke="midnightblue" d="M2560.81,-268.29C2531.94,-232.88 2471.36,-166.5 2402.72,-138 2287.96,-90.36 1924.76,-85.33 1754.91,-85.7"/>
<polygon fill="midnightblue" stroke="midnightblue" points="2558.15,-270.56 2567.13,-276.17 2563.61,-266.18 2558.15,-270.56"/>
</g>
<!-- Node5&#45;&gt;Node6 -->
<g id="edge5" class="edge">
<title>Node5&#45;&gt;Node6</title>
<path fill="none" stroke="midnightblue" d="M2491.01,-275.85C2274.61,-248.55 2030.42,-234.24 1905.87,-228.13"/>
<polygon fill="midnightblue" stroke="midnightblue" points="2490.6,-279.33 2500.96,-277.12 2491.48,-272.38 2490.6,-279.33"/>
</g>
<!-- Node6&#45;&gt;Node2 -->
<g id="edge6" class="edge">
<title>Node6&#45;&gt;Node2</title>
<path fill="none" stroke="midnightblue" d="M1798.54,-200.82C1766.33,-173.1 1711.36,-125.78 1683.31,-101.64"/>
<polygon fill="midnightblue" stroke="midnightblue" points="1796.35,-203.55 1806.21,-207.43 1800.92,-198.25 1796.35,-203.55"/>
</g>
<!-- Node18 -->
<g id="node6" class="node">
<title>Node18</title>
<g id="a_node6"><a xlink:href="ForwardMessageNode_8hpp.html" target="_top" xlink:title=" ">
<polygon fill="none" stroke="black" points="2888.22,-138.5 2888.22,-170.5 3091.22,-170.5 3091.22,-138.5 2888.22,-138.5"/>
<text text-anchor="start" x="2896.22" y="-157.7" font-family="-apple-system, BlinkMacSystemFont, 'Segoe UI', Roboto, Oxygen, Ubuntu, Cantarell, 'Fira Sans', 'Droid Sans', 'Helvetica Neue', sans-serif" font-size="11.00">libmirai/models/libmirai</text>
<text text-anchor="middle" x="2989.72" y="-145.7" font-family="-apple-system, BlinkMacSystemFont, 'Segoe UI', Roboto, Oxygen, Ubuntu, Cantarell, 'Fira Sans', 'Droid Sans', 'Helvetica Neue', sans-serif" font-size="11.00">/Messages/ForwardMessageNode.hpp</text>
</a>
</g>
</g>
<!-- Node6&#45;&gt;Node18 -->
<g id="edge7" class="edge">
<title>Node6&#45;&gt;Node18</title>
<path fill="none" stroke="midnightblue" d="M1916.18,-217.19C2131.29,-204.83 2664,-174.22 2887.96,-161.35"/>
<polygon fill="midnightblue" stroke="midnightblue" points="1915.96,-213.69 1906.18,-217.76 1916.36,-220.68 1915.96,-213.69"/>
</g>
<!-- Node21 -->
<g id="node8" class="node">
<title>Node21</title>
<g id="a_node8"><a xlink:href="QuoteMessage_8cpp.html" target="_top" xlink:title=" ">
<polygon fill="none" stroke="black" points="2229.72,-138.5 2229.72,-170.5 2393.72,-170.5 2393.72,-138.5 2229.72,-138.5"/>
<text text-anchor="start" x="2237.72" y="-157.7" font-family="-apple-system, BlinkMacSystemFont, 'Segoe UI', Roboto, Oxygen, Ubuntu, Cantarell, 'Fira Sans', 'Droid Sans', 'Helvetica Neue', sans-serif" font-size="11.00">libmirai/models/libmirai</text>
<text text-anchor="middle" x="2311.72" y="-145.7" font-family="-apple-system, BlinkMacSystemFont, 'Segoe UI', Roboto, Oxygen, Ubuntu, Cantarell, 'Fira Sans', 'Droid Sans', 'Helvetica Neue', sans-serif" font-size="11.00">/Messages/QuoteMessage.cpp</text>
</a>
</g>
</g>
<!-- Node6&#45;&gt;Node21 -->
<g id="edge10" class="edge">
<title>Node6&#45;&gt;Node21</title>
<path fill="none" stroke="midnightblue" d="M1915.92,-209.84C2006.3,-197.43 2142.8,-178.69 2229.56,-166.78"/>
<polygon fill="midnightblue" stroke="midnightblue" points="1915.39,-206.38 1905.95,-211.21 1916.34,-213.32 1915.39,-206.38"/>
</g>
<!-- Node18&#45;&gt;Node2 -->
<g id="edge8" class="edge">
<title>Node18&#45;&gt;Node2</title>
<path fill="none" stroke="midnightblue" d="M2878.05,-138.57C2875.92,-138.37 2873.81,-138.18 2871.72,-138 2454.95,-101.8 1954.84,-90.74 1754.78,-87.63"/>
<polygon fill="midnightblue" stroke="midnightblue" points="2877.79,-142.07 2888.09,-139.57 2878.48,-135.1 2877.79,-142.07"/>
</g>
<!-- Node19 -->
<g id="node7" class="node">
<title>Node19</title>
<g id="a_node7"><a xlink:href="ForwardMessage_8cpp.html" target="_top" xlink:title=" ">
<polygon fill="none" stroke="black" points="2966.72,-69.5 2966.72,-101.5 3142.72,-101.5 3142.72,-69.5 2966.72,-69.5"/>
<text text-anchor="start" x="2974.72" y="-88.7" font-family="-apple-system, BlinkMacSystemFont, 'Segoe UI', Roboto, Oxygen, Ubuntu, Cantarell, 'Fira Sans', 'Droid Sans', 'Helvetica Neue', sans-serif" font-size="11.00">libmirai/models/libmirai</text>
<text text-anchor="middle" x="3054.72" y="-76.7" font-family="-apple-system, BlinkMacSystemFont, 'Segoe UI', Roboto, Oxygen, Ubuntu, Cantarell, 'Fira Sans', 'Droid Sans', 'Helvetica Neue', sans-serif" font-size="11.00">/Messages/ForwardMessage.cpp</text>
</a>
</g>
</g>
<!-- Node18&#45;&gt;Node19 -->
<g id="edge9" class="edge">
<title>Node18&#45;&gt;Node19</title>
<path fill="none" stroke="midnightblue" d="M3011.62,-130.93C3020.98,-121.28 3031.65,-110.28 3040.03,-101.64"/>
<polygon fill="midnightblue" stroke="midnightblue" points="3008.92,-128.68 3004.47,-138.3 3013.95,-133.56 3008.92,-128.68"/>
</g>
<!-- Node22&#45;&gt;Node2 -->
<g id="edge12" class="edge">
<title>Node22&#45;&gt;Node2</title>
<path fill="none" stroke="midnightblue" d="M2894.87,-272.25C2818.72,-238.25 2651.62,-168.29 2502.72,-138 2361.84,-109.34 1940.16,-94.25 1754.8,-88.85"/>
<polygon fill="midnightblue" stroke="midnightblue" points="2893.58,-275.51 2904.13,-276.41 2896.45,-269.12 2893.58,-275.51"/>
</g>
<!-- Node22&#45;&gt;Node6 -->
<g id="edge13" class="edge">
<title>Node22&#45;&gt;Node6</title>
<path fill="none" stroke="midnightblue" d="M2847.66,-275.97C2491.95,-236.48 2078.82,-227.34 1906.05,-225.17"/>
<polygon fill="midnightblue" stroke="midnightblue" points="2847.31,-279.46 2857.64,-277.09 2848.09,-272.5 2847.31,-279.46"/>
</g>
<!-- Node23&#45;&gt;Node2 -->
<g id="edge15" class="edge">
<title>Node23&#45;&gt;Node2</title>
<path fill="none" stroke="midnightblue" d="M239.37,-274.03C308.7,-256.89 417.47,-230.06 511.72,-207 637.9,-176.13 667.26,-157.25 795.72,-138 1078.72,-95.6 1418.41,-87.74 1576.57,-86.53"/>
<polygon fill="midnightblue" stroke="midnightblue" points="238.3,-270.69 229.43,-276.48 239.98,-277.48 238.3,-270.69"/>
</g>
<!-- Node23&#45;&gt;Node6 -->
<g id="edge16" class="edge">
<title>Node23&#45;&gt;Node6</title>
<path fill="none" stroke="midnightblue" d="M252.36,-275.96C564.4,-243.37 1464.31,-229.21 1741.51,-225.52"/>
<polygon fill="midnightblue" stroke="midnightblue" points="251.53,-272.53 241.96,-277.08 252.27,-279.49 251.53,-272.53"/>
</g>
<!-- Node24&#45;&gt;Node2 -->
<g id="edge18" class="edge">
<title>Node24&#45;&gt;Node2</title>
<path fill="none" stroke="midnightblue" d="M399.7,-273.53C508.23,-240.7 749.96,-171.32 958.72,-138 1179.15,-102.82 1442.12,-91.64 1576.71,-88.11"/>
<polygon fill="midnightblue" stroke="midnightblue" points="398.48,-270.25 389.93,-276.5 400.52,-276.94 398.48,-270.25"/>
</g>
<!-- Node24&#45;&gt;Node6 -->
<g id="edge19" class="edge">
<title>Node24&#45;&gt;Node6</title>
<path fill="none" stroke="midnightblue" d="M433.97,-275.96C935.48,-224.89 1527.55,-222.7 1741.54,-223.77"/>
<polygon fill="midnightblue" stroke="midnightblue" points="433.59,-272.48 424,-276.99 434.3,-279.45 433.59,-272.48"/>
</g>
<!-- Node25&#45;&gt;Node2 -->
<g id="edge21" class="edge">
<title>Node25&#45;&gt;Node2</title>
<path fill="none" stroke="midnightblue" d="M578.16,-273.42C683.55,-240.97 915.42,-172.99 1115.72,-138 1276.8,-109.87 1467.29,-96.36 1576.56,-90.48"/>
<polygon fill="midnightblue" stroke="midnightblue" points="576.88,-270.15 568.36,-276.44 578.95,-276.83 576.88,-270.15"/>
</g>
<!-- Node25&#45;&gt;Node6 -->
<g id="edge22" class="edge">
<title>Node25&#45;&gt;Node6</title>
<path fill="none" stroke="midnightblue" d="M609.52,-276.02C1041.21,-229.74 1546.87,-224.46 1741.67,-224.25"/>
<polygon fill="midnightblue" stroke="midnightblue" points="608.9,-272.57 599.33,-277.12 609.65,-279.53 608.9,-272.57"/>
</g>
<!-- Node26&#45;&gt;Node2 -->
<g id="edge24" class="edge">
<title>Node26&#45;&gt;Node2</title>
<path fill="none" stroke="midnightblue" d="M754.45,-273.41C855.98,-241.65 1075.92,-175.68 1265.72,-138 1371.66,-116.97 1495.15,-102.58 1576.59,-94.47"/>
<polygon fill="midnightblue" stroke="midnightblue" points="753.2,-270.13 744.71,-276.47 755.3,-276.81 753.2,-270.13"/>
</g>
<!-- Node26&#45;&gt;Node6 -->
<g id="edge25" class="edge">
<title>Node26&#45;&gt;Node6</title>
<path fill="none" stroke="midnightblue" d="M788.29,-275.91C1148.4,-236.38 1567.27,-227.3 1741.45,-225.16"/>
<polygon fill="midnightblue" stroke="midnightblue" points="787.74,-272.45 778.19,-277.03 788.51,-279.41 787.74,-272.45"/>
</g>
<!-- Node27&#45;&gt;Node2 -->
<g id="edge27" class="edge">
<title>Node27&#45;&gt;Node2</title>
<path fill="none" stroke="midnightblue" d="M927.84,-273.24C1022.24,-242.41 1221.27,-179.37 1392.72,-138 1453.68,-123.29 1523.12,-110.24 1576.72,-100.96"/>
<polygon fill="midnightblue" stroke="midnightblue" points="926.63,-269.95 918.21,-276.39 928.81,-276.6 926.63,-269.95"/>
</g>
<!-- Node27&#45;&gt;Node6 -->
<g id="edge28" class="edge">
<title>Node27&#45;&gt;Node6</title>
<path fill="none" stroke="midnightblue" d="M959.52,-276C1252.63,-241.54 1589.08,-229.9 1741.44,-226.15"/>
<polygon fill="midnightblue" stroke="midnightblue" points="959.07,-272.53 949.55,-277.19 959.89,-279.48 959.07,-272.53"/>
</g>
<!-- Node28&#45;&gt;Node2 -->
<g id="edge30" class="edge">
<title>Node28&#45;&gt;Node2</title>
<path fill="none" stroke="midnightblue" d="M3070.78,-273.07C2975.47,-239.5 2763.05,-168.99 2577.72,-138 2421.21,-111.82 1952.07,-95.1 1754.73,-89.05"/>
<polygon fill="midnightblue" stroke="midnightblue" points="3069.86,-276.45 3080.46,-276.49 3072.2,-269.85 3069.86,-276.45"/>
</g>
<!-- Node28&#45;&gt;Node6 -->
<g id="edge33" class="edge">
<title>Node28&#45;&gt;Node6</title>
<path fill="none" stroke="midnightblue" d="M3023.45,-275.95C2597.68,-233.55 2099.11,-226.06 1905.87,-224.76"/>
<polygon fill="midnightblue" stroke="midnightblue" points="3023.19,-279.44 3033.49,-276.96 3023.89,-272.48 3023.19,-279.44"/>
</g>
<!-- Node28&#45;&gt;Node18 -->
<g id="edge32" class="edge">
<title>Node28&#45;&gt;Node18</title>
<path fill="none" stroke="midnightblue" d="M3100,-269.12C3073,-241.3 3027.65,-194.58 3004.42,-170.64"/>
<polygon fill="midnightblue" stroke="midnightblue" points="3097.62,-271.69 3107.09,-276.43 3102.64,-266.81 3097.62,-271.69"/>
</g>
<!-- Node28&#45;&gt;Node19 -->
<g id="edge31" class="edge">
<title>Node28&#45;&gt;Node19</title>
<path fill="none" stroke="midnightblue" d="M3122.69,-266.2C3122.92,-234.7 3120.09,-179.94 3100.72,-138 3094.29,-124.07 3082.79,-111.19 3072.9,-101.8"/>
<polygon fill="midnightblue" stroke="midnightblue" points="3119.19,-266.24 3122.5,-276.31 3126.19,-266.37 3119.19,-266.24"/>
</g>
<!-- Node29&#45;&gt;Node2 -->
<g id="edge35" class="edge">
<title>Node29&#45;&gt;Node2</title>
<path fill="none" stroke="midnightblue" d="M1101.39,-272.99C1183.13,-243.33 1349.34,-183.82 1491.72,-138 1532.06,-125.02 1578.04,-111.46 1612.6,-101.52"/>
<polygon fill="midnightblue" stroke="midnightblue" points="1100.05,-269.75 1091.85,-276.46 1102.44,-276.33 1100.05,-269.75"/>
</g>
<!-- Node29&#45;&gt;Node6 -->
<g id="edge36" class="edge">
<title>Node29&#45;&gt;Node6</title>
<path fill="none" stroke="midnightblue" d="M1144.12,-275.9C1365.81,-249.31 1615.49,-234.63 1741.72,-228.28"/>
<polygon fill="midnightblue" stroke="midnightblue" points="1143.43,-272.46 1133.92,-277.13 1144.27,-279.41 1143.43,-272.46"/>
</g>
<!-- Node30&#45;&gt;Node2 -->
<g id="edge38" class="edge">
<title>Node30&#45;&gt;Node2</title>
<path fill="none" stroke="midnightblue" d="M1272.83,-272.08C1358.87,-231.44 1556.36,-138.16 1633.76,-101.6"/>
<polygon fill="midnightblue" stroke="midnightblue" points="1271.18,-268.99 1263.64,-276.43 1274.17,-275.32 1271.18,-268.99"/>
</g>
<!-- Node30&#45;&gt;Node6 -->
<g id="edge39" class="edge">
<title>Node30&#45;&gt;Node6</title>
<path fill="none" stroke="midnightblue" d="M1321.42,-275.82C1475.25,-254.74 1643.63,-239.28 1741.44,-231.06"/>
<polygon fill="midnightblue" stroke="midnightblue" points="1320.73,-272.38 1311.31,-277.22 1321.69,-279.31 1320.73,-272.38"/>
</g>
<!-- Node31&#45;&gt;Node2 -->
<g id="edge42" class="edge">
<title>Node31&#45;&gt;Node2</title>
<path fill="none" stroke="midnightblue" d="M1447.39,-269.94C1497.01,-228.25 1604.98,-137.53 1647.76,-101.6"/>
<polygon fill="midnightblue" stroke="midnightblue" points="1445.07,-267.31 1439.67,-276.43 1449.57,-272.67 1445.07,-267.31"/>
</g>
<!-- Node31&#45;&gt;Node6 -->
<g id="edge43" class="edge">
<title>Node31&#45;&gt;Node6</title>
<path fill="none" stroke="midnightblue" d="M1522.2,-274.75C1589.93,-263.47 1678.17,-248.76 1741.67,-238.18"/>
<polygon fill="midnightblue" stroke="midnightblue" points="1521.23,-271.37 1511.94,-276.46 1522.38,-278.27 1521.23,-271.37"/>
</g>
<!-- Node32&#45;&gt;Node2 -->
<g id="edge45" class="edge">
<title>Node32&#45;&gt;Node2</title>
<path fill="none" stroke="midnightblue" d="M1633.24,-266.48C1641.01,-223.42 1656.69,-136.57 1663,-101.6"/>
<polygon fill="midnightblue" stroke="midnightblue" points="1629.78,-265.96 1631.44,-276.43 1636.66,-267.21 1629.78,-265.96"/>
</g>
<!-- Node32&#45;&gt;Node6 -->
<g id="edge46" class="edge">
<title>Node32&#45;&gt;Node6</title>
<path fill="none" stroke="midnightblue" d="M1682.16,-273.14C1712.83,-262.6 1750.85,-249.54 1779.77,-239.6"/>
<polygon fill="midnightblue" stroke="midnightblue" points="1680.81,-269.9 1672.49,-276.46 1683.08,-276.52 1680.81,-269.9"/>
</g>
<!-- Node33&#45;&gt;Node2 -->
<g id="edge48" class="edge">
<title>Node33&#45;&gt;Node2</title>
<path fill="none" stroke="midnightblue" d="M1775.61,-271.69C1760.4,-263.62 1744.5,-253.06 1732.72,-240 1694.95,-198.1 1675.95,-131.55 1668.96,-101.78"/>
<polygon fill="midnightblue" stroke="midnightblue" points="1774.45,-275.02 1784.95,-276.39 1777.59,-268.77 1774.45,-275.02"/>
</g>
<!-- Node33&#45;&gt;Node6 -->
<g id="edge49" class="edge">
<title>Node33&#45;&gt;Node6</title>
<path fill="none" stroke="midnightblue" d="M1823.72,-266.02C1823.72,-257.13 1823.72,-247.43 1823.72,-239.64"/>
<polygon fill="midnightblue" stroke="midnightblue" points="1820.22,-266.3 1823.72,-276.3 1827.22,-266.3 1820.22,-266.3"/>
</g>
<!-- Node34&#45;&gt;Node2 -->
<g id="edge51" class="edge">
<title>Node34&#45;&gt;Node2</title>
<path fill="none" stroke="midnightblue" d="M2011.57,-270.25C1986.5,-252.38 1949.06,-226.69 1914.72,-207 1840.78,-164.59 1749.67,-123.06 1700.74,-101.58"/>
<polygon fill="midnightblue" stroke="midnightblue" points="2009.73,-273.23 2019.9,-276.21 2013.81,-267.54 2009.73,-273.23"/>
</g>
<!-- Node34&#45;&gt;Node6 -->
<g id="edge52" class="edge">
<title>Node34&#45;&gt;Node6</title>
<path fill="none" stroke="midnightblue" d="M1982.14,-273.41C1947.87,-262.83 1905.09,-249.62 1872.63,-239.6"/>
<polygon fill="midnightblue" stroke="midnightblue" points="1981.44,-276.86 1992.02,-276.46 1983.5,-270.17 1981.44,-276.86"/>
</g>
<!-- Node35&#45;&gt;Node2 -->
<g id="edge54" class="edge">
<title>Node35&#45;&gt;Node2</title>
<path fill="none" stroke="midnightblue" d="M2725.5,-271C2670.97,-236.41 2553.67,-167.37 2443.72,-138 2316.05,-103.9 1930.56,-91.86 1754.8,-88.06"/>
<polygon fill="midnightblue" stroke="midnightblue" points="2723.7,-274 2734.01,-276.44 2727.47,-268.1 2723.7,-274"/>
</g>
<!-- Node35&#45;&gt;Node6 -->
<g id="edge55" class="edge">
<title>Node35&#45;&gt;Node6</title>
<path fill="none" stroke="midnightblue" d="M2663.89,-275.86C2380.46,-243.67 2055.01,-231.03 1905.85,-226.59"/>
<polygon fill="midnightblue" stroke="midnightblue" points="2663.62,-279.35 2673.95,-277.01 2664.41,-272.4 2663.62,-279.35"/>
</g>
<!-- Node35&#45;&gt;Node21 -->
<g id="edge56" class="edge">
<title>Node35&#45;&gt;Node21</title>
<path fill="none" stroke="midnightblue" d="M2697.77,-273.48C2609.2,-246.41 2443.4,-195.74 2360.93,-170.54"/>
<polygon fill="midnightblue" stroke="midnightblue" points="2696.81,-276.85 2707.4,-276.43 2698.86,-270.16 2696.81,-276.85"/>
</g>
<!-- Node36&#45;&gt;Node2 -->
<g id="edge58" class="edge">
<title>Node36&#45;&gt;Node2</title>
<path fill="none" stroke="midnightblue" d="M2178.73,-272.57C2105.28,-242.59 1956.71,-182.97 1828.72,-138 1791.34,-124.87 1748.62,-111.42 1716.3,-101.57"/>
<polygon fill="midnightblue" stroke="midnightblue" points="2177.58,-275.88 2188.16,-276.43 2180.23,-269.4 2177.58,-275.88"/>
</g>
<!-- Node36&#45;&gt;Node6 -->
<g id="edge59" class="edge">
<title>Node36&#45;&gt;Node6</title>
<path fill="none" stroke="midnightblue" d="M2129.81,-275.64C2061.72,-264.26 1970.89,-249.09 1905.9,-238.23"/>
<polygon fill="midnightblue" stroke="midnightblue" points="2129.24,-279.1 2139.68,-277.29 2130.4,-272.19 2129.24,-279.1"/>
</g>
<!-- Node37&#45;&gt;Node2 -->
<g id="edge61" class="edge">
<title>Node37&#45;&gt;Node2</title>
<path fill="none" stroke="midnightblue" d="M2348.19,-273.35C2252.62,-243.45 2054.91,-182.74 1885.72,-138 1835.28,-124.66 1777.87,-111.28 1734.35,-101.51"/>
<polygon fill="midnightblue" stroke="midnightblue" points="2347.36,-276.75 2357.95,-276.4 2349.45,-270.07 2347.36,-276.75"/>
</g>
<!-- Node37&#45;&gt;Node6 -->
<g id="edge62" class="edge">
<title>Node37&#45;&gt;Node6</title>
<path fill="none" stroke="midnightblue" d="M2318.03,-275.97C2166.66,-254.91 2002.11,-239.48 1905.84,-231.2"/>
<polygon fill="midnightblue" stroke="midnightblue" points="2317.59,-279.44 2327.98,-277.36 2318.56,-272.51 2317.59,-279.44"/>
</g>
</g>
</svg>
