<?xml version="1.0" encoding="UTF-8" standalone="no"?>
<!DOCTYPE svg PUBLIC "-//W3C//DTD SVG 1.1//EN"
 "http://www.w3.org/Graphics/SVG/1.1/DTD/svg11.dtd">
<!-- Generated by graphviz version 3.0.0 (20220413.0242)
 -->
<!-- Title: 类继承关系图 Pages: 1 -->
<svg width="590pt" height="380pt"
 viewBox="0.00 0.00 590.00 380.00" xmlns="http://www.w3.org/2000/svg" xmlns:xlink="http://www.w3.org/1999/xlink">
<g id="graph0" class="graph" transform="scale(1 1) rotate(0) translate(4 376)">
<title>类继承关系图</title>
<!-- Node0 -->
<g id="node1" class="node">
<title>Node0</title>
<g id="a_node1"><a xlink:title=" ">
<polygon fill="none" stroke="#bfbfbf" points="0,-116.5 0,-136.5 83,-136.5 83,-116.5 0,-116.5"/>
<text text-anchor="middle" x="41.5" y="-123.7" font-family="-apple-system, BlinkMacSystemFont, 'Segoe UI', Roboto, Oxygen, Ubuntu, Cantarell, 'Fira Sans', 'Droid Sans', 'Helvetica Neue', sans-serif" font-size="11.00">std::exception</text>
</a>
</g>
</g>
<!-- Node1 -->
<g id="node2" class="node">
<title>Node1</title>
<g id="a_node2"><a xlink:title=" ">
<polygon fill="none" stroke="#bfbfbf" points="119,-116.5 119,-136.5 221,-136.5 221,-116.5 119,-116.5"/>
<text text-anchor="middle" x="170" y="-123.7" font-family="-apple-system, BlinkMacSystemFont, 'Segoe UI', Roboto, Oxygen, Ubuntu, Cantarell, 'Fira Sans', 'Droid Sans', 'Helvetica Neue', sans-serif" font-size="11.00">std::runtime_error</text>
</a>
</g>
</g>
<!-- Node0&#45;&gt;Node1 -->
<g id="edge1" class="edge">
<title>Node0&#45;&gt;Node1</title>
<path fill="none" stroke="midnightblue" d="M93.23,-126.5C101.59,-126.5 110.25,-126.5 118.6,-126.5"/>
<polygon fill="midnightblue" stroke="midnightblue" points="93.22,-123 83.22,-126.5 93.22,-130 93.22,-123"/>
</g>
<!-- Node2 -->
<g id="node3" class="node">
<title>Node2</title>
<g id="a_node3"><a xlink:href="classMirai_1_1MiraiApiHttpException.html" target="_top" xlink:title="mirai&#45;api&#45;http相关的异常">
<polygon fill="none" stroke="black" points="257,-175.5 257,-195.5 409,-195.5 409,-175.5 257,-175.5"/>
<text text-anchor="middle" x="333" y="-182.7" font-family="-apple-system, BlinkMacSystemFont, 'Segoe UI', Roboto, Oxygen, Ubuntu, Cantarell, 'Fira Sans', 'Droid Sans', 'Helvetica Neue', sans-serif" font-size="11.00">Mirai::MiraiApiHttpException</text>
</a>
</g>
</g>
<!-- Node1&#45;&gt;Node2 -->
<g id="edge2" class="edge">
<title>Node1&#45;&gt;Node2</title>
<path fill="none" stroke="midnightblue" d="M199.15,-141.22C215.68,-149.45 237.16,-159.44 257,-166.5 266.49,-169.88 276.86,-172.9 286.77,-175.5"/>
<polygon fill="midnightblue" stroke="midnightblue" points="200.54,-138 190.03,-136.61 197.38,-144.25 200.54,-138"/>
</g>
<!-- Node13 -->
<g id="node14" class="node">
<title>Node13</title>
<g id="a_node14"><a xlink:href="classMirai_1_1NetworkException.html" target="_top" xlink:title="网络通信错误">
<polygon fill="none" stroke="black" points="266,-136.5 266,-156.5 400,-156.5 400,-136.5 266,-136.5"/>
<text text-anchor="middle" x="333" y="-143.7" font-family="-apple-system, BlinkMacSystemFont, 'Segoe UI', Roboto, Oxygen, Ubuntu, Cantarell, 'Fira Sans', 'Droid Sans', 'Helvetica Neue', sans-serif" font-size="11.00">Mirai::NetworkException</text>
</a>
</g>
</g>
<!-- Node1&#45;&gt;Node13 -->
<g id="edge13" class="edge">
<title>Node1&#45;&gt;Node13</title>
<path fill="none" stroke="midnightblue" d="M231.27,-133.99C242.6,-135.39 254.49,-136.87 265.98,-138.3"/>
<polygon fill="midnightblue" stroke="midnightblue" points="231.41,-130.48 221.06,-132.72 230.55,-137.42 231.41,-130.48"/>
</g>
<!-- Node14 -->
<g id="node15" class="node">
<title>Node14</title>
<g id="a_node15"><a xlink:href="classMirai_1_1ParseError.html" target="_top" xlink:title="消息解析错误">
<polygon fill="none" stroke="black" points="284,-97.5 284,-117.5 382,-117.5 382,-97.5 284,-97.5"/>
<text text-anchor="middle" x="333" y="-104.7" font-family="-apple-system, BlinkMacSystemFont, 'Segoe UI', Roboto, Oxygen, Ubuntu, Cantarell, 'Fira Sans', 'Droid Sans', 'Helvetica Neue', sans-serif" font-size="11.00">Mirai::ParseError</text>
</a>
</g>
</g>
<!-- Node1&#45;&gt;Node14 -->
<g id="edge14" class="edge">
<title>Node1&#45;&gt;Node14</title>
<path fill="none" stroke="midnightblue" d="M231.13,-119.4C248.55,-117.35 267.32,-115.13 283.9,-113.18"/>
<polygon fill="midnightblue" stroke="midnightblue" points="230.58,-115.94 221.06,-120.59 231.4,-122.9 230.58,-115.94"/>
</g>
<!-- Node15 -->
<g id="node16" class="node">
<title>Node15</title>
<g id="a_node16"><a xlink:href="classMirai_1_1TypeDismatch.html" target="_top" xlink:title="类型匹配错误">
<polygon fill="none" stroke="black" points="276,-58.5 276,-78.5 390,-78.5 390,-58.5 276,-58.5"/>
<text text-anchor="middle" x="333" y="-65.7" font-family="-apple-system, BlinkMacSystemFont, 'Segoe UI', Roboto, Oxygen, Ubuntu, Cantarell, 'Fira Sans', 'Droid Sans', 'Helvetica Neue', sans-serif" font-size="11.00">Mirai::TypeDismatch</text>
</a>
</g>
</g>
<!-- Node1&#45;&gt;Node15 -->
<g id="edge15" class="edge">
<title>Node1&#45;&gt;Node15</title>
<path fill="none" stroke="midnightblue" d="M200.57,-112.07C216.95,-104.43 237.82,-95.25 257,-88.5 267.42,-84.83 278.86,-81.46 289.6,-78.58"/>
<polygon fill="midnightblue" stroke="midnightblue" points="199.03,-108.92 191.49,-116.36 202.03,-115.25 199.03,-108.92"/>
</g>
<!-- Node3 -->
<g id="node4" class="node">
<title>Node3</title>
<g id="a_node4"><a xlink:href="classMirai_1_1AuthKeyFail.html" target="_top" xlink:title="MAH异常: 验证密钥错误">
<polygon fill="none" stroke="black" points="461.5,-351.5 461.5,-371.5 565.5,-371.5 565.5,-351.5 461.5,-351.5"/>
<text text-anchor="middle" x="513.5" y="-358.7" font-family="-apple-system, BlinkMacSystemFont, 'Segoe UI', Roboto, Oxygen, Ubuntu, Cantarell, 'Fira Sans', 'Droid Sans', 'Helvetica Neue', sans-serif" font-size="11.00">Mirai::AuthKeyFail</text>
</a>
</g>
</g>
<!-- Node2&#45;&gt;Node3 -->
<g id="edge3" class="edge">
<title>Node2&#45;&gt;Node3</title>
<path fill="none" stroke="midnightblue" d="M342.36,-204.92C357.71,-238.24 393.6,-306.2 445,-342.5 450.17,-346.15 456.03,-349.1 462.07,-351.49"/>
<polygon fill="midnightblue" stroke="midnightblue" points="345.54,-203.46 338.26,-195.76 339.15,-206.32 345.54,-203.46"/>
</g>
<!-- Node4 -->
<g id="node5" class="node">
<title>Node4</title>
<g id="a_node5"><a xlink:href="classMirai_1_1BotMuted.html" target="_top" xlink:title="MAH异常: Bot被禁言">
<polygon fill="none" stroke="black" points="467.5,-312.5 467.5,-332.5 559.5,-332.5 559.5,-312.5 467.5,-312.5"/>
<text text-anchor="middle" x="513.5" y="-319.7" font-family="-apple-system, BlinkMacSystemFont, 'Segoe UI', Roboto, Oxygen, Ubuntu, Cantarell, 'Fira Sans', 'Droid Sans', 'Helvetica Neue', sans-serif" font-size="11.00">Mirai::BotMuted</text>
</a>
</g>
</g>
<!-- Node2&#45;&gt;Node4 -->
<g id="edge4" class="edge">
<title>Node2&#45;&gt;Node4</title>
<path fill="none" stroke="midnightblue" d="M346.43,-204.06C364.87,-230.15 401.98,-277.41 445,-303.5 451.87,-307.67 459.68,-310.95 467.5,-313.52"/>
<polygon fill="midnightblue" stroke="midnightblue" points="349.27,-202.02 340.71,-195.78 343.52,-206 349.27,-202.02"/>
</g>
<!-- Node5 -->
<g id="node6" class="node">
<title>Node5</title>
<g id="a_node6"><a xlink:href="classMirai_1_1IllegalSession.html" target="_top" xlink:title="MAH异常: 无效Session">
<polygon fill="none" stroke="black" points="457.5,-273.5 457.5,-293.5 569.5,-293.5 569.5,-273.5 457.5,-273.5"/>
<text text-anchor="middle" x="513.5" y="-280.7" font-family="-apple-system, BlinkMacSystemFont, 'Segoe UI', Roboto, Oxygen, Ubuntu, Cantarell, 'Fira Sans', 'Droid Sans', 'Helvetica Neue', sans-serif" font-size="11.00">Mirai::IllegalSession</text>
</a>
</g>
</g>
<!-- Node2&#45;&gt;Node5 -->
<g id="edge5" class="edge">
<title>Node2&#45;&gt;Node5</title>
<path fill="none" stroke="midnightblue" d="M353.07,-202.22C374.21,-219.97 409.97,-247.73 445,-264.5 452.36,-268.02 460.49,-271 468.48,-273.48"/>
<polygon fill="midnightblue" stroke="midnightblue" points="355.34,-199.56 345.46,-195.73 350.8,-204.88 355.34,-199.56"/>
</g>
<!-- Node6 -->
<g id="node7" class="node">
<title>Node6</title>
<g id="a_node7"><a xlink:href="classMirai_1_1MessageTooLarge.html" target="_top" xlink:title="MAH异常: 消息过长">
<polygon fill="none" stroke="black" points="445.5,-234.5 445.5,-254.5 581.5,-254.5 581.5,-234.5 445.5,-234.5"/>
<text text-anchor="middle" x="513.5" y="-241.7" font-family="-apple-system, BlinkMacSystemFont, 'Segoe UI', Roboto, Oxygen, Ubuntu, Cantarell, 'Fira Sans', 'Droid Sans', 'Helvetica Neue', sans-serif" font-size="11.00">Mirai::MessageTooLarge</text>
</a>
</g>
</g>
<!-- Node2&#45;&gt;Node6 -->
<g id="edge6" class="edge">
<title>Node2&#45;&gt;Node6</title>
<path fill="none" stroke="midnightblue" d="M369.73,-199.11C391.38,-207.17 419.63,-217.37 445,-225.5 454.62,-228.58 465.1,-231.67 474.87,-234.42"/>
<polygon fill="midnightblue" stroke="midnightblue" points="370.87,-195.8 360.28,-195.57 368.42,-202.36 370.87,-195.8"/>
</g>
<!-- Node7 -->
<g id="node8" class="node">
<title>Node7</title>
<g id="a_node8"><a xlink:href="classMirai_1_1NoBot.html" target="_top" xlink:title="MAH异常: 不存在该Bot账号">
<polygon fill="none" stroke="black" points="475,-195.5 475,-215.5 552,-215.5 552,-195.5 475,-195.5"/>
<text text-anchor="middle" x="513.5" y="-202.7" font-family="-apple-system, BlinkMacSystemFont, 'Segoe UI', Roboto, Oxygen, Ubuntu, Cantarell, 'Fira Sans', 'Droid Sans', 'Helvetica Neue', sans-serif" font-size="11.00">Mirai::NoBot</text>
</a>
</g>
</g>
<!-- Node2&#45;&gt;Node7 -->
<g id="edge7" class="edge">
<title>Node2&#45;&gt;Node7</title>
<path fill="none" stroke="midnightblue" d="M419.34,-195.06C438.85,-197.25 458.61,-199.46 474.88,-201.29"/>
<polygon fill="midnightblue" stroke="midnightblue" points="419.51,-191.56 409.18,-193.92 418.73,-198.52 419.51,-191.56"/>
</g>
<!-- Node8 -->
<g id="node9" class="node">
<title>Node8</title>
<g id="a_node9"><a xlink:href="classMirai_1_1NoElement.html" target="_top" xlink:title="MAH异常: 指定对象不存在">
<polygon fill="none" stroke="black" points="464,-156.5 464,-176.5 563,-176.5 563,-156.5 464,-156.5"/>
<text text-anchor="middle" x="513.5" y="-163.7" font-family="-apple-system, BlinkMacSystemFont, 'Segoe UI', Roboto, Oxygen, Ubuntu, Cantarell, 'Fira Sans', 'Droid Sans', 'Helvetica Neue', sans-serif" font-size="11.00">Mirai::NoElement</text>
</a>
</g>
</g>
<!-- Node2&#45;&gt;Node8 -->
<g id="edge8" class="edge">
<title>Node2&#45;&gt;Node8</title>
<path fill="none" stroke="midnightblue" d="M419.21,-176.43C434.53,-174.8 450.01,-173.15 463.83,-171.68"/>
<polygon fill="midnightblue" stroke="midnightblue" points="418.76,-172.96 409.18,-177.5 419.5,-179.92 418.76,-172.96"/>
</g>
<!-- Node9 -->
<g id="node10" class="node">
<title>Node9</title>
<g id="a_node10"><a xlink:href="classMirai_1_1NoOperateSupport.html" target="_top" xlink:title="MAH异常: 不支持该操作">
<polygon fill="none" stroke="black" points="445,-117.5 445,-137.5 582,-137.5 582,-117.5 445,-117.5"/>
<text text-anchor="middle" x="513.5" y="-124.7" font-family="-apple-system, BlinkMacSystemFont, 'Segoe UI', Roboto, Oxygen, Ubuntu, Cantarell, 'Fira Sans', 'Droid Sans', 'Helvetica Neue', sans-serif" font-size="11.00">Mirai::NoOperateSupport</text>
</a>
</g>
</g>
<!-- Node2&#45;&gt;Node9 -->
<g id="edge9" class="edge">
<title>Node2&#45;&gt;Node9</title>
<path fill="none" stroke="midnightblue" d="M390.72,-172.67C396.96,-170.8 403.16,-168.74 409,-166.5 425.89,-160.01 428.25,-154.33 445,-147.5 454.17,-143.77 464.29,-140.39 473.85,-137.52"/>
<polygon fill="midnightblue" stroke="midnightblue" points="389.61,-169.34 380.95,-175.43 391.52,-176.08 389.61,-169.34"/>
</g>
<!-- Node10 -->
<g id="node11" class="node">
<title>Node10</title>
<g id="a_node11"><a xlink:href="classMirai_1_1NoSuchFile.html" target="_top" xlink:title="MAH异常: 文件不存在">
<polygon fill="none" stroke="black" points="462.5,-78.5 462.5,-98.5 564.5,-98.5 564.5,-78.5 462.5,-78.5"/>
<text text-anchor="middle" x="513.5" y="-85.7" font-family="-apple-system, BlinkMacSystemFont, 'Segoe UI', Roboto, Oxygen, Ubuntu, Cantarell, 'Fira Sans', 'Droid Sans', 'Helvetica Neue', sans-serif" font-size="11.00">Mirai::NoSuchFile</text>
</a>
</g>
</g>
<!-- Node2&#45;&gt;Node10 -->
<g id="edge10" class="edge">
<title>Node2&#45;&gt;Node10</title>
<path fill="none" stroke="midnightblue" d="M401.61,-171.18C404.19,-169.77 406.66,-168.21 409,-166.5 433.48,-148.58 420.88,-126.9 445,-108.5 450.34,-104.42 456.51,-101.17 462.89,-98.59"/>
<polygon fill="midnightblue" stroke="midnightblue" points="400.08,-168.04 392.54,-175.49 403.07,-174.37 400.08,-168.04"/>
</g>
<!-- Node11 -->
<g id="node12" class="node">
<title>Node11</title>
<g id="a_node12"><a xlink:href="classMirai_1_1NotVerifySession.html" target="_top" xlink:title="MAH异常: Session未绑定账号">
<polygon fill="none" stroke="black" points="449.5,-39.5 449.5,-59.5 577.5,-59.5 577.5,-39.5 449.5,-39.5"/>
<text text-anchor="middle" x="513.5" y="-46.7" font-family="-apple-system, BlinkMacSystemFont, 'Segoe UI', Roboto, Oxygen, Ubuntu, Cantarell, 'Fira Sans', 'Droid Sans', 'Helvetica Neue', sans-serif" font-size="11.00">Mirai::NotVerifySession</text>
</a>
</g>
</g>
<!-- Node2&#45;&gt;Node11 -->
<g id="edge11" class="edge">
<title>Node2&#45;&gt;Node11</title>
<path fill="none" stroke="midnightblue" d="M404.27,-170.27C405.92,-169.1 407.5,-167.85 409,-166.5 443.21,-135.77 411.41,-100.9 445,-69.5 449.37,-65.41 454.55,-62.15 460.05,-59.56"/>
<polygon fill="midnightblue" stroke="midnightblue" points="402.38,-167.32 395.54,-175.41 405.93,-173.35 402.38,-167.32"/>
</g>
<!-- Node12 -->
<g id="node13" class="node">
<title>Node12</title>
<g id="a_node13"><a xlink:href="classMirai_1_1PermissionDenied.html" target="_top" xlink:title="MAH异常: 缺少相关权限">
<polygon fill="none" stroke="black" points="447,-0.5 447,-20.5 580,-20.5 580,-0.5 447,-0.5"/>
<text text-anchor="middle" x="513.5" y="-7.7" font-family="-apple-system, BlinkMacSystemFont, 'Segoe UI', Roboto, Oxygen, Ubuntu, Cantarell, 'Fira Sans', 'Droid Sans', 'Helvetica Neue', sans-serif" font-size="11.00">Mirai::PermissionDenied</text>
</a>
</g>
</g>
<!-- Node2&#45;&gt;Node12 -->
<g id="edge12" class="edge">
<title>Node2&#45;&gt;Node12</title>
<path fill="none" stroke="midnightblue" d="M405.06,-169.98C406.44,-168.89 407.75,-167.73 409,-166.5 453.45,-122.52 401.44,-75.36 445,-30.5 448.92,-26.47 453.61,-23.24 458.66,-20.65"/>
<polygon fill="midnightblue" stroke="midnightblue" points="403.12,-167.06 396.64,-175.44 406.93,-172.94 403.12,-167.06"/>
</g>
</g>
</svg>
