<?xml version="1.0" encoding="UTF-8" standalone="no"?>
<!DOCTYPE svg PUBLIC "-//W3C//DTD SVG 1.1//EN"
 "http://www.w3.org/Graphics/SVG/1.1/DTD/svg11.dtd">
<!-- Generated by graphviz version 2.43.0 (0)
 -->
<!-- Title: 类继承关系图 Pages: 1 -->
<svg width="654pt" height="380pt"
 viewBox="0.00 0.00 654.00 380.00" xmlns="http://www.w3.org/2000/svg" xmlns:xlink="http://www.w3.org/1999/xlink">
<g id="graph0" class="graph" transform="scale(1 1) rotate(0) translate(4 376)">
<title>类继承关系图</title>
<!-- Node45 -->
<g id="node1" class="node">
<title>Node45</title>
<g id="a_node1"><a xlink:title="STL class">
<polygon fill="none" stroke="#bfbfbf" points="0,-116.5 0,-136.5 95,-136.5 95,-116.5 0,-116.5"/>
<text text-anchor="middle" x="47.5" y="-123.7" font-family="-apple-system,BlinkMacSystemFont,'SegoeUI',Roboto,Oxygen,Ubuntu,Cantarell,'FiraSans','DroidSans','HelveticaNeue',sans-serif" font-size="11.00">std::exception</text>
</a>
</g>
</g>
<!-- Node46 -->
<g id="node2" class="node">
<title>Node46</title>
<g id="a_node2"><a xlink:title="STL class">
<polygon fill="none" stroke="#bfbfbf" points="131,-116.5 131,-136.5 247,-136.5 247,-116.5 131,-116.5"/>
<text text-anchor="middle" x="189" y="-123.7" font-family="-apple-system,BlinkMacSystemFont,'SegoeUI',Roboto,Oxygen,Ubuntu,Cantarell,'FiraSans','DroidSans','HelveticaNeue',sans-serif" font-size="11.00">std::runtime_error</text>
</a>
</g>
</g>
<!-- Node45&#45;&gt;Node46 -->
<g id="edge1" class="edge">
<title>Node45&#45;&gt;Node46</title>
<path fill="none" stroke="midnightblue" d="M105.42,-126.5C113.82,-126.5 122.47,-126.5 130.87,-126.5"/>
<polygon fill="midnightblue" stroke="midnightblue" points="105.34,-123 95.34,-126.5 105.34,-130 105.34,-123"/>
</g>
<!-- Node0 -->
<g id="node3" class="node">
<title>Node0</title>
<g id="a_node3"><a xlink:href="classMirai_1_1MiraiApiHttpException.html" target="_top" xlink:title="mirai&#45;api&#45;http相关的异常">
<polygon fill="none" stroke="black" points="283,-175.5 283,-195.5 456,-195.5 456,-175.5 283,-175.5"/>
<text text-anchor="middle" x="369.5" y="-182.7" font-family="-apple-system,BlinkMacSystemFont,'SegoeUI',Roboto,Oxygen,Ubuntu,Cantarell,'FiraSans','DroidSans','HelveticaNeue',sans-serif" font-size="11.00">Mirai::MiraiApiHttpException</text>
</a>
</g>
</g>
<!-- Node46&#45;&gt;Node0 -->
<g id="edge2" class="edge">
<title>Node46&#45;&gt;Node0</title>
<path fill="none" stroke="midnightblue" d="M219.63,-140.94C237.64,-149.28 261.27,-159.48 283,-166.5 293.56,-169.91 305.05,-172.92 316.09,-175.48"/>
<polygon fill="midnightblue" stroke="midnightblue" points="220.8,-137.62 210.26,-136.53 217.82,-143.95 220.8,-137.62"/>
</g>
<!-- Node58 -->
<g id="node14" class="node">
<title>Node58</title>
<g id="a_node14"><a xlink:href="classMirai_1_1NetworkException.html" target="_top" xlink:title="网络通信错误">
<polygon fill="none" stroke="black" points="294.5,-136.5 294.5,-156.5 444.5,-156.5 444.5,-136.5 294.5,-136.5"/>
<text text-anchor="middle" x="369.5" y="-143.7" font-family="-apple-system,BlinkMacSystemFont,'SegoeUI',Roboto,Oxygen,Ubuntu,Cantarell,'FiraSans','DroidSans','HelveticaNeue',sans-serif" font-size="11.00">Mirai::NetworkException</text>
</a>
</g>
</g>
<!-- Node46&#45;&gt;Node58 -->
<g id="edge13" class="edge">
<title>Node46&#45;&gt;Node58</title>
<path fill="none" stroke="midnightblue" d="M257.4,-134.05C269.41,-135.4 281.99,-136.81 294.19,-138.17"/>
<polygon fill="midnightblue" stroke="midnightblue" points="257.79,-130.57 247.46,-132.94 257.01,-137.53 257.79,-130.57"/>
</g>
<!-- Node59 -->
<g id="node15" class="node">
<title>Node59</title>
<g id="a_node15"><a xlink:href="classMirai_1_1ParseError.html" target="_top" xlink:title="消息解析错误">
<polygon fill="none" stroke="black" points="315.5,-97.5 315.5,-117.5 423.5,-117.5 423.5,-97.5 315.5,-97.5"/>
<text text-anchor="middle" x="369.5" y="-104.7" font-family="-apple-system,BlinkMacSystemFont,'SegoeUI',Roboto,Oxygen,Ubuntu,Cantarell,'FiraSans','DroidSans','HelveticaNeue',sans-serif" font-size="11.00">Mirai::ParseError</text>
</a>
</g>
</g>
<!-- Node46&#45;&gt;Node59 -->
<g id="edge14" class="edge">
<title>Node46&#45;&gt;Node59</title>
<path fill="none" stroke="midnightblue" d="M257.61,-119.3C276.73,-117.27 297.25,-115.08 315.39,-113.15"/>
<polygon fill="midnightblue" stroke="midnightblue" points="257.03,-115.84 247.46,-120.38 257.78,-122.81 257.03,-115.84"/>
</g>
<!-- Node60 -->
<g id="node16" class="node">
<title>Node60</title>
<g id="a_node16"><a xlink:href="classMirai_1_1TypeDismatch.html" target="_top" xlink:title="类型匹配错误">
<polygon fill="none" stroke="black" points="305.5,-58.5 305.5,-78.5 433.5,-78.5 433.5,-58.5 305.5,-58.5"/>
<text text-anchor="middle" x="369.5" y="-65.7" font-family="-apple-system,BlinkMacSystemFont,'SegoeUI',Roboto,Oxygen,Ubuntu,Cantarell,'FiraSans','DroidSans','HelveticaNeue',sans-serif" font-size="11.00">Mirai::TypeDismatch</text>
</a>
</g>
</g>
<!-- Node46&#45;&gt;Node60 -->
<g id="edge15" class="edge">
<title>Node46&#45;&gt;Node60</title>
<path fill="none" stroke="midnightblue" d="M221.15,-112.33C239,-104.57 261.97,-95.21 283,-88.5 294.62,-84.79 307.33,-81.45 319.31,-78.61"/>
<polygon fill="midnightblue" stroke="midnightblue" points="219.55,-109.21 211.81,-116.44 222.37,-115.61 219.55,-109.21"/>
</g>
<!-- Node1 -->
<g id="node4" class="node">
<title>Node1</title>
<g id="a_node4"><a xlink:href="classMirai_1_1AuthKeyFail.html" target="_top" xlink:title="MAH异常: 验证密钥错误">
<polygon fill="none" stroke="black" points="511.5,-351.5 511.5,-371.5 626.5,-371.5 626.5,-351.5 511.5,-351.5"/>
<text text-anchor="middle" x="569" y="-358.7" font-family="-apple-system,BlinkMacSystemFont,'SegoeUI',Roboto,Oxygen,Ubuntu,Cantarell,'FiraSans','DroidSans','HelveticaNeue',sans-serif" font-size="11.00">Mirai::AuthKeyFail</text>
</a>
</g>
</g>
<!-- Node0&#45;&gt;Node1 -->
<g id="edge3" class="edge">
<title>Node0&#45;&gt;Node1</title>
<path fill="none" stroke="midnightblue" d="M380.04,-205.08C397.44,-238.64 437.61,-306.97 492,-342.5 497.92,-346.37 504.57,-349.45 511.41,-351.9"/>
<polygon fill="midnightblue" stroke="midnightblue" points="383.01,-203.2 375.38,-195.85 376.77,-206.36 383.01,-203.2"/>
</g>
<!-- Node2 -->
<g id="node5" class="node">
<title>Node2</title>
<g id="a_node5"><a xlink:href="classMirai_1_1BotMuted.html" target="_top" xlink:title="MAH异常: Bot被禁言">
<polygon fill="none" stroke="black" points="517,-312.5 517,-332.5 621,-332.5 621,-312.5 517,-312.5"/>
<text text-anchor="middle" x="569" y="-319.7" font-family="-apple-system,BlinkMacSystemFont,'SegoeUI',Roboto,Oxygen,Ubuntu,Cantarell,'FiraSans','DroidSans','HelveticaNeue',sans-serif" font-size="11.00">Mirai::BotMuted</text>
</a>
</g>
</g>
<!-- Node0&#45;&gt;Node2 -->
<g id="edge4" class="edge">
<title>Node0&#45;&gt;Node2</title>
<path fill="none" stroke="midnightblue" d="M383.84,-203.46C404.2,-229.57 445.6,-277.68 492,-303.5 499.61,-307.73 508.16,-311.04 516.71,-313.61"/>
<polygon fill="midnightblue" stroke="midnightblue" points="386.62,-201.34 377.76,-195.52 381.06,-205.59 386.62,-201.34"/>
</g>
<!-- Node3 -->
<g id="node6" class="node">
<title>Node3</title>
<g id="a_node6"><a xlink:href="classMirai_1_1IllegalSession.html" target="_top" xlink:title="MAH异常: 无效Session">
<polygon fill="none" stroke="black" points="506.5,-273.5 506.5,-293.5 631.5,-293.5 631.5,-273.5 506.5,-273.5"/>
<text text-anchor="middle" x="569" y="-280.7" font-family="-apple-system,BlinkMacSystemFont,'SegoeUI',Roboto,Oxygen,Ubuntu,Cantarell,'FiraSans','DroidSans','HelveticaNeue',sans-serif" font-size="11.00">Mirai::IllegalSession</text>
</a>
</g>
</g>
<!-- Node0&#45;&gt;Node3 -->
<g id="edge5" class="edge">
<title>Node0&#45;&gt;Node3</title>
<path fill="none" stroke="midnightblue" d="M390.87,-201.8C414.08,-219.62 453.75,-247.84 492,-264.5 500.11,-268.03 508.99,-270.99 517.75,-273.45"/>
<polygon fill="midnightblue" stroke="midnightblue" points="392.86,-198.92 382.82,-195.53 388.56,-204.44 392.86,-198.92"/>
</g>
<!-- Node4 -->
<g id="node7" class="node">
<title>Node4</title>
<g id="a_node7"><a xlink:href="classMirai_1_1MessageTooLarge.html" target="_top" xlink:title="MAH异常: 消息过长">
<polygon fill="none" stroke="black" points="494.5,-234.5 494.5,-254.5 643.5,-254.5 643.5,-234.5 494.5,-234.5"/>
<text text-anchor="middle" x="569" y="-241.7" font-family="-apple-system,BlinkMacSystemFont,'SegoeUI',Roboto,Oxygen,Ubuntu,Cantarell,'FiraSans','DroidSans','HelveticaNeue',sans-serif" font-size="11.00">Mirai::MessageTooLarge</text>
</a>
</g>
</g>
<!-- Node0&#45;&gt;Node4 -->
<g id="edge6" class="edge">
<title>Node0&#45;&gt;Node4</title>
<path fill="none" stroke="midnightblue" d="M408.99,-198.97C432.77,-207.09 464,-217.4 492,-225.5 502.84,-228.64 514.65,-231.74 525.64,-234.49"/>
<polygon fill="midnightblue" stroke="midnightblue" points="409.88,-195.57 399.28,-195.63 407.6,-202.19 409.88,-195.57"/>
</g>
<!-- Node5 -->
<g id="node8" class="node">
<title>Node5</title>
<g id="a_node8"><a xlink:href="classMirai_1_1NoBot.html" target="_top" xlink:title="MAH异常: 不存在该Bot账号">
<polygon fill="none" stroke="black" points="526.5,-195.5 526.5,-215.5 611.5,-215.5 611.5,-195.5 526.5,-195.5"/>
<text text-anchor="middle" x="569" y="-202.7" font-family="-apple-system,BlinkMacSystemFont,'SegoeUI',Roboto,Oxygen,Ubuntu,Cantarell,'FiraSans','DroidSans','HelveticaNeue',sans-serif" font-size="11.00">Mirai::NoBot</text>
</a>
</g>
</g>
<!-- Node0&#45;&gt;Node5 -->
<g id="edge7" class="edge">
<title>Node0&#45;&gt;Node5</title>
<path fill="none" stroke="midnightblue" d="M466.3,-195.2C487.49,-197.35 508.85,-199.51 526.49,-201.3"/>
<polygon fill="midnightblue" stroke="midnightblue" points="466.57,-191.71 456.26,-194.19 465.86,-198.67 466.57,-191.71"/>
</g>
<!-- Node6 -->
<g id="node9" class="node">
<title>Node6</title>
<g id="a_node9"><a xlink:href="classMirai_1_1NoElement.html" target="_top" xlink:title="MAH异常: 指定对象不存在">
<polygon fill="none" stroke="black" points="513.5,-156.5 513.5,-176.5 624.5,-176.5 624.5,-156.5 513.5,-156.5"/>
<text text-anchor="middle" x="569" y="-163.7" font-family="-apple-system,BlinkMacSystemFont,'SegoeUI',Roboto,Oxygen,Ubuntu,Cantarell,'FiraSans','DroidSans','HelveticaNeue',sans-serif" font-size="11.00">Mirai::NoElement</text>
</a>
</g>
</g>
<!-- Node0&#45;&gt;Node6 -->
<g id="edge8" class="edge">
<title>Node0&#45;&gt;Node6</title>
<path fill="none" stroke="midnightblue" d="M466.29,-176.28C482.45,-174.73 498.71,-173.17 513.34,-171.76"/>
<polygon fill="midnightblue" stroke="midnightblue" points="465.88,-172.81 456.26,-177.25 466.55,-179.78 465.88,-172.81"/>
</g>
<!-- Node7 -->
<g id="node10" class="node">
<title>Node7</title>
<g id="a_node10"><a xlink:href="classMirai_1_1NoOperateSupport.html" target="_top" xlink:title="MAH异常: 不支持该操作">
<polygon fill="none" stroke="black" points="492,-117.5 492,-137.5 646,-137.5 646,-117.5 492,-117.5"/>
<text text-anchor="middle" x="569" y="-124.7" font-family="-apple-system,BlinkMacSystemFont,'SegoeUI',Roboto,Oxygen,Ubuntu,Cantarell,'FiraSans','DroidSans','HelveticaNeue',sans-serif" font-size="11.00">Mirai::NoOperateSupport</text>
</a>
</g>
</g>
<!-- Node0&#45;&gt;Node7 -->
<g id="edge9" class="edge">
<title>Node0&#45;&gt;Node7</title>
<path fill="none" stroke="midnightblue" d="M435.91,-172.87C442.77,-170.98 449.58,-168.86 456,-166.5 472.98,-160.26 475.14,-154.07 492,-147.5 501.79,-143.69 512.57,-140.36 522.85,-137.57"/>
<polygon fill="midnightblue" stroke="midnightblue" points="434.66,-169.57 425.86,-175.47 436.42,-176.35 434.66,-169.57"/>
</g>
<!-- Node8 -->
<g id="node11" class="node">
<title>Node8</title>
<g id="a_node11"><a xlink:href="classMirai_1_1NoSuchFile.html" target="_top" xlink:title="MAH异常: 文件不存在">
<polygon fill="none" stroke="black" points="514,-78.5 514,-98.5 624,-98.5 624,-78.5 514,-78.5"/>
<text text-anchor="middle" x="569" y="-85.7" font-family="-apple-system,BlinkMacSystemFont,'SegoeUI',Roboto,Oxygen,Ubuntu,Cantarell,'FiraSans','DroidSans','HelveticaNeue',sans-serif" font-size="11.00">Mirai::NoSuchFile</text>
</a>
</g>
</g>
<!-- Node0&#45;&gt;Node8 -->
<g id="edge10" class="edge">
<title>Node0&#45;&gt;Node8</title>
<path fill="none" stroke="midnightblue" d="M448.51,-171.14C451.11,-169.73 453.62,-168.19 456,-166.5 480.75,-148.95 467.6,-126.53 492,-108.5 498.47,-103.72 506,-100.08 513.75,-97.3"/>
<polygon fill="midnightblue" stroke="midnightblue" points="446.93,-168.02 439.36,-175.44 449.9,-174.36 446.93,-168.02"/>
</g>
<!-- Node9 -->
<g id="node12" class="node">
<title>Node9</title>
<g id="a_node12"><a xlink:href="classMirai_1_1NotVerifySession.html" target="_top" xlink:title="MAH异常: Session未绑定账号">
<polygon fill="none" stroke="black" points="497,-39.5 497,-59.5 641,-59.5 641,-39.5 497,-39.5"/>
<text text-anchor="middle" x="569" y="-46.7" font-family="-apple-system,BlinkMacSystemFont,'SegoeUI',Roboto,Oxygen,Ubuntu,Cantarell,'FiraSans','DroidSans','HelveticaNeue',sans-serif" font-size="11.00">Mirai::NotVerifySession</text>
</a>
</g>
</g>
<!-- Node0&#45;&gt;Node9 -->
<g id="edge11" class="edge">
<title>Node0&#45;&gt;Node9</title>
<path fill="none" stroke="midnightblue" d="M451.15,-170.28C452.83,-169.11 454.45,-167.85 456,-166.5 490.66,-136.28 457.93,-100.38 492,-69.5 496.45,-65.47 501.61,-62.23 507.11,-59.64"/>
<polygon fill="midnightblue" stroke="midnightblue" points="449.12,-167.42 442.26,-175.49 452.66,-173.45 449.12,-167.42"/>
</g>
<!-- Node10 -->
<g id="node13" class="node">
<title>Node10</title>
<g id="a_node13"><a xlink:href="classMirai_1_1PermissionDenied.html" target="_top" xlink:title="MAH异常: 缺少相关权限">
<polygon fill="none" stroke="black" points="494.5,-0.5 494.5,-20.5 643.5,-20.5 643.5,-0.5 494.5,-0.5"/>
<text text-anchor="middle" x="569" y="-7.7" font-family="-apple-system,BlinkMacSystemFont,'SegoeUI',Roboto,Oxygen,Ubuntu,Cantarell,'FiraSans','DroidSans','HelveticaNeue',sans-serif" font-size="11.00">Mirai::PermissionDenied</text>
</a>
</g>
</g>
<!-- Node0&#45;&gt;Node10 -->
<g id="edge12" class="edge">
<title>Node0&#45;&gt;Node10</title>
<path fill="none" stroke="midnightblue" d="M451.98,-169.98C453.38,-168.89 454.72,-167.73 456,-166.5 501.09,-123.18 447.76,-74.68 492,-30.5 496.05,-26.45 500.82,-23.19 505.97,-20.57"/>
<polygon fill="midnightblue" stroke="midnightblue" points="449.95,-167.12 443.46,-175.5 453.76,-173 449.95,-167.12"/>
</g>
</g>
</svg>
