<?xml version="1.0" encoding="UTF-8" standalone="no"?>
<!DOCTYPE svg PUBLIC "-//W3C//DTD SVG 1.1//EN"
 "http://www.w3.org/Graphics/SVG/1.1/DTD/svg11.dtd">
<!-- Generated by graphviz version 3.0.0 (20221109.1736)
 -->
<!-- Title: 类继承关系图 Pages: 1 -->
<svg width="308pt" height="143pt"
 viewBox="0.00 0.00 308.00 143.00" xmlns="http://www.w3.org/2000/svg" xmlns:xlink="http://www.w3.org/1999/xlink">
<g id="graph0" class="graph" transform="scale(1 1) rotate(0) translate(4 139)">
<title>类继承关系图</title>
<!-- Node0 -->
<g id="node1" class="node">
<title>Node0</title>
<g id="a_node1"><a xlink:href="classMirai_1_1IEvent.html" target="_top" xlink:title="Common interface for all event types">
<polygon fill="none" stroke="black" points="0,-57.5 0,-77.5 122,-77.5 122,-57.5 0,-57.5"/>
<text text-anchor="middle" x="61" y="-64.7" font-family="-apple-system, BlinkMacSystemFont, 'Segoe UI', Roboto, Oxygen, Ubuntu, Cantarell, 'Fira Sans', 'Droid Sans', 'Helvetica Neue', sans-serif" font-size="11.00">Mirai::IEvent&lt; Event &gt;</text>
</a>
</g>
</g>
<!-- Node1 -->
<g id="node2" class="node">
<title>Node1</title>
<g id="a_node2"><a xlink:href="classMirai_1_1BotAccountEvent.html" target="_top" xlink:title="与Bot账号相关的事件">
<polygon fill="none" stroke="black" points="165,-102.5 165,-134.5 293,-134.5 293,-102.5 165,-102.5"/>
<text text-anchor="start" x="173" y="-121.7" font-family="-apple-system, BlinkMacSystemFont, 'Segoe UI', Roboto, Oxygen, Ubuntu, Cantarell, 'Fira Sans', 'Droid Sans', 'Helvetica Neue', sans-serif" font-size="11.00">Mirai::BotAccountEvent</text>
<text text-anchor="middle" x="229" y="-109.7" font-family="-apple-system, BlinkMacSystemFont, 'Segoe UI', Roboto, Oxygen, Ubuntu, Cantarell, 'Fira Sans', 'Droid Sans', 'Helvetica Neue', sans-serif" font-size="11.00">&lt; Event &gt;</text>
</a>
</g>
</g>
<!-- Node0&#45;&gt;Node1 -->
<g id="edge1" class="edge">
<title>Node0&#45;&gt;Node1</title>
<path fill="none" stroke="midnightblue" d="M104.39,-80.52C126.09,-87.19 152.7,-95.37 175.67,-102.42"/>
<polygon fill="midnightblue" stroke="midnightblue" points="105.38,-77.17 94.8,-77.58 103.33,-83.86 105.38,-77.17"/>
</g>
<!-- Node2 -->
<g id="node3" class="node">
<title>Node2</title>
<g id="a_node3"><a xlink:href="classMirai_1_1BotLeaveEvent.html" target="_top" xlink:title="Bot退群相关事件">
<polygon fill="none" stroke="black" points="169.5,-51.5 169.5,-83.5 288.5,-83.5 288.5,-51.5 169.5,-51.5"/>
<text text-anchor="start" x="177.5" y="-70.7" font-family="-apple-system, BlinkMacSystemFont, 'Segoe UI', Roboto, Oxygen, Ubuntu, Cantarell, 'Fira Sans', 'Droid Sans', 'Helvetica Neue', sans-serif" font-size="11.00">Mirai::BotLeaveEvent</text>
<text text-anchor="middle" x="229" y="-58.7" font-family="-apple-system, BlinkMacSystemFont, 'Segoe UI', Roboto, Oxygen, Ubuntu, Cantarell, 'Fira Sans', 'Droid Sans', 'Helvetica Neue', sans-serif" font-size="11.00">&lt; Event &gt;</text>
</a>
</g>
</g>
<!-- Node0&#45;&gt;Node2 -->
<g id="edge2" class="edge">
<title>Node0&#45;&gt;Node2</title>
<path fill="none" stroke="midnightblue" d="M132.57,-67.5C144.81,-67.5 157.43,-67.5 169.31,-67.5"/>
<polygon fill="midnightblue" stroke="midnightblue" points="132.4,-64 122.4,-67.5 132.4,-71 132.4,-64"/>
</g>
<!-- Node3 -->
<g id="node4" class="node">
<title>Node3</title>
<g id="a_node4"><a xlink:href="classMirai_1_1MemberLeaveEvent.html" target="_top" xlink:title="成员退出群聊相关事件">
<polygon fill="none" stroke="black" points="158,-0.5 158,-32.5 300,-32.5 300,-0.5 158,-0.5"/>
<text text-anchor="start" x="166" y="-19.7" font-family="-apple-system, BlinkMacSystemFont, 'Segoe UI', Roboto, Oxygen, Ubuntu, Cantarell, 'Fira Sans', 'Droid Sans', 'Helvetica Neue', sans-serif" font-size="11.00">Mirai::MemberLeaveEvent</text>
<text text-anchor="middle" x="229" y="-7.7" font-family="-apple-system, BlinkMacSystemFont, 'Segoe UI', Roboto, Oxygen, Ubuntu, Cantarell, 'Fira Sans', 'Droid Sans', 'Helvetica Neue', sans-serif" font-size="11.00">&lt; Event &gt;</text>
</a>
</g>
</g>
<!-- Node0&#45;&gt;Node3 -->
<g id="edge3" class="edge">
<title>Node0&#45;&gt;Node3</title>
<path fill="none" stroke="midnightblue" d="M104.39,-54.48C126.09,-47.81 152.7,-39.63 175.67,-32.58"/>
<polygon fill="midnightblue" stroke="midnightblue" points="103.33,-51.14 94.8,-57.42 105.38,-57.83 103.33,-51.14"/>
</g>
</g>
</svg>
