<?xml version="1.0" encoding="UTF-8" standalone="no"?>
<!DOCTYPE svg PUBLIC "-//W3C//DTD SVG 1.1//EN"
 "http://www.w3.org/Graphics/SVG/1.1/DTD/svg11.dtd">
<!-- Generated by graphviz version 3.0.0 (20221109.1736)
 -->
<!-- Title: 类继承关系图 Pages: 1 -->
<svg width="192pt" height="68pt"
 viewBox="0.00 0.00 192.00 68.00" xmlns="http://www.w3.org/2000/svg" xmlns:xlink="http://www.w3.org/1999/xlink">
<g id="graph0" class="graph" transform="scale(1 1) rotate(0) translate(4 64)">
<title>类继承关系图</title>
<!-- Node0 -->
<g id="node1" class="node">
<title>Node0</title>
<g id="a_node1"><a xlink:href="classMirai_1_1UID__t.html" target="_top" xlink:title="Base class for QQ_t and GID_t">
<polygon fill="none" stroke="black" points="0,-19.5 0,-39.5 74,-39.5 74,-19.5 0,-19.5"/>
<text text-anchor="middle" x="37" y="-26.7" font-family="-apple-system, BlinkMacSystemFont, 'Segoe UI', Roboto, Oxygen, Ubuntu, Cantarell, 'Fira Sans', 'Droid Sans', 'Helvetica Neue', sans-serif" font-size="11.00">Mirai::UID_t</text>
</a>
</g>
</g>
<!-- Node1 -->
<g id="node2" class="node">
<title>Node1</title>
<g id="a_node2"><a xlink:href="classMirai_1_1GID__t.html" target="_top" xlink:title="群聊号码类型">
<polygon fill="none" stroke="black" points="110,-39.5 110,-59.5 184,-59.5 184,-39.5 110,-39.5"/>
<text text-anchor="middle" x="147" y="-46.7" font-family="-apple-system, BlinkMacSystemFont, 'Segoe UI', Roboto, Oxygen, Ubuntu, Cantarell, 'Fira Sans', 'Droid Sans', 'Helvetica Neue', sans-serif" font-size="11.00">Mirai::GID_t</text>
</a>
</g>
</g>
<!-- Node0&#45;&gt;Node1 -->
<g id="edge1" class="edge">
<title>Node0&#45;&gt;Node1</title>
<path fill="none" stroke="midnightblue" d="M84.11,-38.04C92.65,-39.62 101.45,-41.25 109.65,-42.77"/>
<polygon fill="midnightblue" stroke="midnightblue" points="84.73,-34.59 74.26,-36.22 83.46,-41.48 84.73,-34.59"/>
</g>
<!-- Node2 -->
<g id="node3" class="node">
<title>Node2</title>
<g id="a_node3"><a xlink:href="classMirai_1_1QQ__t.html" target="_top" xlink:title="QQ号码类型">
<polygon fill="none" stroke="black" points="111.5,-0.5 111.5,-20.5 182.5,-20.5 182.5,-0.5 111.5,-0.5"/>
<text text-anchor="middle" x="147" y="-7.7" font-family="-apple-system, BlinkMacSystemFont, 'Segoe UI', Roboto, Oxygen, Ubuntu, Cantarell, 'Fira Sans', 'Droid Sans', 'Helvetica Neue', sans-serif" font-size="11.00">Mirai::QQ_t</text>
</a>
</g>
</g>
<!-- Node0&#45;&gt;Node2 -->
<g id="edge2" class="edge">
<title>Node0&#45;&gt;Node2</title>
<path fill="none" stroke="midnightblue" d="M84.35,-21.35C93.45,-19.74 102.85,-18.09 111.48,-16.57"/>
<polygon fill="midnightblue" stroke="midnightblue" points="83.51,-17.94 74.26,-23.12 84.72,-24.83 83.51,-17.94"/>
</g>
</g>
</svg>
