<?xml version="1.0" encoding="UTF-8" standalone="no"?>
<!DOCTYPE svg PUBLIC "-//W3C//DTD SVG 1.1//EN"
 "http://www.w3.org/Graphics/SVG/1.1/DTD/svg11.dtd">
<!-- Generated by graphviz version 3.0.0 (20221109.1736)
 -->
<!-- Title: 类继承关系图 Pages: 1 -->
<svg width="471pt" height="41pt"
 viewBox="0.00 0.00 471.00 41.00" xmlns="http://www.w3.org/2000/svg" xmlns:xlink="http://www.w3.org/1999/xlink">
<g id="graph0" class="graph" transform="scale(1 1) rotate(0) translate(4 37)">
<title>类继承关系图</title>
<!-- Node0 -->
<g id="node1" class="node">
<title>Node0</title>
<g id="a_node1"><a xlink:href="classMirai_1_1IEvent.html" target="_top" xlink:title=" ">
<polygon fill="none" stroke="black" points="0,-0.5 0,-32.5 138,-32.5 138,-0.5 0,-0.5"/>
<text text-anchor="start" x="8" y="-19.7" font-family="-apple-system, BlinkMacSystemFont, 'Segoe UI', Roboto, Oxygen, Ubuntu, Cantarell, 'Fira Sans', 'Droid Sans', 'Helvetica Neue', sans-serif" font-size="11.00">Mirai::IEvent&lt; BotRelogin</text>
<text text-anchor="middle" x="69" y="-7.7" font-family="-apple-system, BlinkMacSystemFont, 'Segoe UI', Roboto, Oxygen, Ubuntu, Cantarell, 'Fira Sans', 'Droid Sans', 'Helvetica Neue', sans-serif" font-size="11.00">Event &gt;</text>
</a>
</g>
</g>
<!-- Node1 -->
<g id="node2" class="node">
<title>Node1</title>
<g id="a_node2"><a xlink:href="classMirai_1_1BotAccountEvent.html" target="_top" xlink:title=" ">
<polygon fill="none" stroke="black" points="174,-0.5 174,-32.5 302,-32.5 302,-0.5 174,-0.5"/>
<text text-anchor="start" x="182" y="-19.7" font-family="-apple-system, BlinkMacSystemFont, 'Segoe UI', Roboto, Oxygen, Ubuntu, Cantarell, 'Fira Sans', 'Droid Sans', 'Helvetica Neue', sans-serif" font-size="11.00">Mirai::BotAccountEvent</text>
<text text-anchor="middle" x="238" y="-7.7" font-family="-apple-system, BlinkMacSystemFont, 'Segoe UI', Roboto, Oxygen, Ubuntu, Cantarell, 'Fira Sans', 'Droid Sans', 'Helvetica Neue', sans-serif" font-size="11.00">&lt; BotReloginEvent &gt;</text>
</a>
</g>
</g>
<!-- Node0&#45;&gt;Node1 -->
<g id="edge1" class="edge">
<title>Node0&#45;&gt;Node1</title>
<path fill="none" stroke="midnightblue" d="M148.64,-16.5C157.08,-16.5 165.58,-16.5 173.8,-16.5"/>
<polygon fill="midnightblue" stroke="midnightblue" points="148.41,-13 138.41,-16.5 148.41,-20 148.41,-13"/>
</g>
<!-- Node2 -->
<g id="node3" class="node">
<title>Node2</title>
<g id="a_node3"><a xlink:href="classMirai_1_1BotReloginEvent.html" target="_top" xlink:title="Bot重新登录事件">
<polygon fill="none" stroke="black" points="338,-6.5 338,-26.5 463,-26.5 463,-6.5 338,-6.5"/>
<text text-anchor="middle" x="400.5" y="-13.7" font-family="-apple-system, BlinkMacSystemFont, 'Segoe UI', Roboto, Oxygen, Ubuntu, Cantarell, 'Fira Sans', 'Droid Sans', 'Helvetica Neue', sans-serif" font-size="11.00">Mirai::BotReloginEvent</text>
</a>
</g>
</g>
<!-- Node1&#45;&gt;Node2 -->
<g id="edge2" class="edge">
<title>Node1&#45;&gt;Node2</title>
<path fill="none" stroke="midnightblue" d="M312.64,-16.5C321.07,-16.5 329.59,-16.5 337.84,-16.5"/>
<polygon fill="midnightblue" stroke="midnightblue" points="312.43,-13 302.43,-16.5 312.43,-20 312.43,-13"/>
</g>
</g>
</svg>
