<?xml version="1.0" encoding="UTF-8" standalone="no"?>
<!DOCTYPE svg PUBLIC "-//W3C//DTD SVG 1.1//EN"
 "http://www.w3.org/Graphics/SVG/1.1/DTD/svg11.dtd">
<!-- Generated by graphviz version 2.43.0 (0)
 -->
<!-- Title: 类继承关系图 Pages: 1 -->
<svg width="700pt" height="653pt"
 viewBox="0.00 0.00 700.00 653.00" xmlns="http://www.w3.org/2000/svg" xmlns:xlink="http://www.w3.org/1999/xlink">
<g id="graph0" class="graph" transform="scale(1 1) rotate(0) translate(4 649)">
<title>类继承关系图</title>
<!-- Node0 -->
<g id="node1" class="node">
<title>Node0</title>
<g id="a_node1"><a xlink:href="classMirai_1_1Serializable.html" target="_top" xlink:title="Base class for all json serializable type">
<polygon fill="none" stroke="black" points="0,-312.5 0,-332.5 114,-332.5 114,-312.5 0,-312.5"/>
<text text-anchor="middle" x="57" y="-319.7" font-family="-apple-system,BlinkMacSystemFont,'SegoeUI',Roboto,Oxygen,Ubuntu,Cantarell,'FiraSans','DroidSans','HelveticaNeue',sans-serif" font-size="11.00">Mirai::Serializable</text>
</a>
</g>
</g>
<!-- Node1 -->
<g id="node2" class="node">
<title>Node1</title>
<g id="a_node2"><a xlink:href="structMirai_1_1ClientDevice.html" target="_top" xlink:title="设备类型">
<polygon fill="none" stroke="black" points="162,-480.5 162,-500.5 282,-500.5 282,-480.5 162,-480.5"/>
<text text-anchor="middle" x="222" y="-487.7" font-family="-apple-system,BlinkMacSystemFont,'SegoeUI',Roboto,Oxygen,Ubuntu,Cantarell,'FiraSans','DroidSans','HelveticaNeue',sans-serif" font-size="11.00">Mirai::ClientDevice</text>
</a>
</g>
</g>
<!-- Node0&#45;&gt;Node1 -->
<g id="edge1" class="edge">
<title>Node0&#45;&gt;Node1</title>
<path fill="none" stroke="midnightblue" d="M64.7,-342.27C76.63,-374.4 104.63,-437.75 150,-471.5 154.91,-475.16 160.48,-478.11 166.28,-480.49"/>
<polygon fill="midnightblue" stroke="midnightblue" points="67.93,-340.9 61.27,-332.66 61.34,-343.25 67.93,-340.9"/>
</g>
<!-- Node2 -->
<g id="node3" class="node">
<title>Node2</title>
<g id="a_node3"><a xlink:href="classMirai_1_1ForwardMessage_1_1Node.html" target="_top" xlink:title="转发消息节点，代表一条转发消息">
<polygon fill="none" stroke="black" points="150,-429.5 150,-461.5 294,-461.5 294,-429.5 150,-429.5"/>
<text text-anchor="start" x="158" y="-448.7" font-family="-apple-system,BlinkMacSystemFont,'SegoeUI',Roboto,Oxygen,Ubuntu,Cantarell,'FiraSans','DroidSans','HelveticaNeue',sans-serif" font-size="11.00">Mirai::ForwardMessage</text>
<text text-anchor="middle" x="222" y="-436.7" font-family="-apple-system,BlinkMacSystemFont,'SegoeUI',Roboto,Oxygen,Ubuntu,Cantarell,'FiraSans','DroidSans','HelveticaNeue',sans-serif" font-size="11.00">::Node</text>
</a>
</g>
</g>
<!-- Node0&#45;&gt;Node2 -->
<g id="edge2" class="edge">
<title>Node0&#45;&gt;Node2</title>
<path fill="none" stroke="midnightblue" d="M70.78,-340.72C86.92,-362.51 116.67,-398.77 150,-420.5 155.15,-423.85 160.79,-426.82 166.59,-429.43"/>
<polygon fill="midnightblue" stroke="midnightblue" points="73.6,-338.65 64.9,-332.61 67.93,-342.76 73.6,-338.65"/>
</g>
<!-- Node3 -->
<g id="node4" class="node">
<title>Node3</title>
<g id="a_node4"><a xlink:href="structMirai_1_1Group.html" target="_top" xlink:title="群聊资料">
<polygon fill="none" stroke="black" points="180,-390.5 180,-410.5 264,-410.5 264,-390.5 180,-390.5"/>
<text text-anchor="middle" x="222" y="-397.7" font-family="-apple-system,BlinkMacSystemFont,'SegoeUI',Roboto,Oxygen,Ubuntu,Cantarell,'FiraSans','DroidSans','HelveticaNeue',sans-serif" font-size="11.00">Mirai::Group</text>
</a>
</g>
</g>
<!-- Node0&#45;&gt;Node3 -->
<g id="edge3" class="edge">
<title>Node0&#45;&gt;Node3</title>
<path fill="none" stroke="midnightblue" d="M79.03,-338.68C97.02,-351.84 124.05,-370.04 150,-381.5 159.34,-385.62 169.77,-389.03 179.71,-391.75"/>
<polygon fill="midnightblue" stroke="midnightblue" points="81.09,-335.84 70.97,-332.68 76.9,-341.46 81.09,-335.84"/>
</g>
<!-- Node4 -->
<g id="node5" class="node">
<title>Node4</title>
<g id="a_node5"><a xlink:href="structMirai_1_1GroupMember.html" target="_top" xlink:title="群员资料">
<polygon fill="none" stroke="black" points="157.5,-351.5 157.5,-371.5 286.5,-371.5 286.5,-351.5 157.5,-351.5"/>
<text text-anchor="middle" x="222" y="-358.7" font-family="-apple-system,BlinkMacSystemFont,'SegoeUI',Roboto,Oxygen,Ubuntu,Cantarell,'FiraSans','DroidSans','HelveticaNeue',sans-serif" font-size="11.00">Mirai::GroupMember</text>
</a>
</g>
</g>
<!-- Node0&#45;&gt;Node4 -->
<g id="edge4" class="edge">
<title>Node0&#45;&gt;Node4</title>
<path fill="none" stroke="midnightblue" d="M109.97,-334.94C132.32,-340.28 158.08,-346.45 179.17,-351.49"/>
<polygon fill="midnightblue" stroke="midnightblue" points="110.52,-331.47 99.98,-332.54 108.89,-338.27 110.52,-331.47"/>
</g>
<!-- Node5 -->
<g id="node6" class="node">
<title>Node5</title>
<g id="a_node6"><a xlink:href="classMirai_1_1MessageBase.html" target="_top" xlink:title="Base class for all message types">
<polygon fill="none" stroke="black" points="158.5,-312.5 158.5,-332.5 285.5,-332.5 285.5,-312.5 158.5,-312.5"/>
<text text-anchor="middle" x="222" y="-319.7" font-family="-apple-system,BlinkMacSystemFont,'SegoeUI',Roboto,Oxygen,Ubuntu,Cantarell,'FiraSans','DroidSans','HelveticaNeue',sans-serif" font-size="11.00">Mirai::MessageBase</text>
</a>
</g>
</g>
<!-- Node0&#45;&gt;Node5 -->
<g id="edge5" class="edge">
<title>Node0&#45;&gt;Node5</title>
<path fill="none" stroke="midnightblue" d="M124.3,-322.5C135.55,-322.5 147.21,-322.5 158.38,-322.5"/>
<polygon fill="midnightblue" stroke="midnightblue" points="124.1,-319 114.1,-322.5 124.1,-326 124.1,-319"/>
</g>
<!-- Node25 -->
<g id="node26" class="node">
<title>Node25</title>
<g id="a_node26"><a xlink:href="structMirai_1_1MiraiAudio.html" target="_top" xlink:title="Mirai语音">
<polygon fill="none" stroke="black" points="167.5,-273.5 167.5,-293.5 276.5,-293.5 276.5,-273.5 167.5,-273.5"/>
<text text-anchor="middle" x="222" y="-280.7" font-family="-apple-system,BlinkMacSystemFont,'SegoeUI',Roboto,Oxygen,Ubuntu,Cantarell,'FiraSans','DroidSans','HelveticaNeue',sans-serif" font-size="11.00">Mirai::MiraiAudio</text>
</a>
</g>
</g>
<!-- Node0&#45;&gt;Node25 -->
<g id="edge25" class="edge">
<title>Node0&#45;&gt;Node25</title>
<path fill="none" stroke="midnightblue" d="M109.97,-310.06C132.32,-304.72 158.08,-298.55 179.17,-293.51"/>
<polygon fill="midnightblue" stroke="midnightblue" points="108.89,-306.73 99.98,-312.46 110.52,-313.53 108.89,-306.73"/>
</g>
<!-- Node26 -->
<g id="node27" class="node">
<title>Node26</title>
<g id="a_node27"><a xlink:href="structMirai_1_1MiraiImage.html" target="_top" xlink:title="Mirai图片">
<polygon fill="none" stroke="black" points="166,-234.5 166,-254.5 278,-254.5 278,-234.5 166,-234.5"/>
<text text-anchor="middle" x="222" y="-241.7" font-family="-apple-system,BlinkMacSystemFont,'SegoeUI',Roboto,Oxygen,Ubuntu,Cantarell,'FiraSans','DroidSans','HelveticaNeue',sans-serif" font-size="11.00">Mirai::MiraiImage</text>
</a>
</g>
</g>
<!-- Node0&#45;&gt;Node26 -->
<g id="edge26" class="edge">
<title>Node0&#45;&gt;Node26</title>
<path fill="none" stroke="midnightblue" d="M79.43,-306.48C97.47,-293.63 124.35,-275.91 150,-264.5 158.78,-260.6 168.5,-257.26 177.87,-254.5"/>
<polygon fill="midnightblue" stroke="midnightblue" points="77.37,-303.65 71.33,-312.35 81.48,-309.32 77.37,-303.65"/>
</g>
<!-- Node27 -->
<g id="node28" class="node">
<title>Node27</title>
<g id="a_node28"><a xlink:href="structMirai_1_1User.html" target="_top" xlink:title="QQ用户">
<polygon fill="none" stroke="black" points="183.5,-195.5 183.5,-215.5 260.5,-215.5 260.5,-195.5 183.5,-195.5"/>
<text text-anchor="middle" x="222" y="-202.7" font-family="-apple-system,BlinkMacSystemFont,'SegoeUI',Roboto,Oxygen,Ubuntu,Cantarell,'FiraSans','DroidSans','HelveticaNeue',sans-serif" font-size="11.00">Mirai::User</text>
</a>
</g>
</g>
<!-- Node0&#45;&gt;Node27 -->
<g id="edge27" class="edge">
<title>Node0&#45;&gt;Node27</title>
<path fill="none" stroke="midnightblue" d="M70.59,-304.12C86.56,-282.19 116.12,-245.96 150,-225.5 160.09,-219.41 172.09,-215.11 183.34,-212.11"/>
<polygon fill="midnightblue" stroke="midnightblue" points="67.73,-302.1 64.79,-312.28 73.44,-306.16 67.73,-302.1"/>
</g>
<!-- Node28 -->
<g id="node29" class="node">
<title>Node28</title>
<g id="a_node29"><a xlink:href="structMirai_1_1UserProfile.html" target="_top" xlink:title="QQ用户资料">
<polygon fill="none" stroke="black" points="166.5,-156.5 166.5,-176.5 277.5,-176.5 277.5,-156.5 166.5,-156.5"/>
<text text-anchor="middle" x="222" y="-163.7" font-family="-apple-system,BlinkMacSystemFont,'SegoeUI',Roboto,Oxygen,Ubuntu,Cantarell,'FiraSans','DroidSans','HelveticaNeue',sans-serif" font-size="11.00">Mirai::UserProfile</text>
</a>
</g>
</g>
<!-- Node0&#45;&gt;Node28 -->
<g id="edge28" class="edge">
<title>Node0&#45;&gt;Node28</title>
<path fill="none" stroke="midnightblue" d="M65.97,-302.83C79.03,-273.09 107.82,-216.95 150,-186.5 155.71,-182.38 162.24,-179.1 168.98,-176.5"/>
<polygon fill="midnightblue" stroke="midnightblue" points="62.69,-301.59 62.01,-312.16 69.14,-304.32 62.69,-301.59"/>
</g>
<!-- Node6 -->
<g id="node7" class="node">
<title>Node6</title>
<g id="a_node7"><a xlink:href="classMirai_1_1AppMessage.html" target="_top" xlink:title="小程序消息">
<polygon fill="none" stroke="black" points="351,-624.5 351,-644.5 472,-644.5 472,-624.5 351,-624.5"/>
<text text-anchor="middle" x="411.5" y="-631.7" font-family="-apple-system,BlinkMacSystemFont,'SegoeUI',Roboto,Oxygen,Ubuntu,Cantarell,'FiraSans','DroidSans','HelveticaNeue',sans-serif" font-size="11.00">Mirai::AppMessage</text>
</a>
</g>
</g>
<!-- Node5&#45;&gt;Node6 -->
<g id="edge6" class="edge">
<title>Node5&#45;&gt;Node6</title>
<path fill="none" stroke="midnightblue" d="M289.74,-338.25C291.25,-339.56 292.68,-340.98 294,-342.5 374.11,-435.02 247.93,-524.72 330,-615.5 335.68,-621.78 343.02,-626.18 350.95,-629.23"/>
<polygon fill="midnightblue" stroke="midnightblue" points="291.72,-335.37 281.51,-332.54 287.73,-341.12 291.72,-335.37"/>
</g>
<!-- Node7 -->
<g id="node8" class="node">
<title>Node7</title>
<g id="a_node8"><a xlink:href="classMirai_1_1AtAllMessage.html" target="_top" xlink:title="At全体成员消息">
<polygon fill="none" stroke="black" points="349,-585.5 349,-605.5 474,-605.5 474,-585.5 349,-585.5"/>
<text text-anchor="middle" x="411.5" y="-592.7" font-family="-apple-system,BlinkMacSystemFont,'SegoeUI',Roboto,Oxygen,Ubuntu,Cantarell,'FiraSans','DroidSans','HelveticaNeue',sans-serif" font-size="11.00">Mirai::AtAllMessage</text>
</a>
</g>
</g>
<!-- Node5&#45;&gt;Node7 -->
<g id="edge7" class="edge">
<title>Node5&#45;&gt;Node7</title>
<path fill="none" stroke="midnightblue" d="M289.7,-338.29C291.22,-339.59 292.66,-340.99 294,-342.5 363.73,-421.3 258.6,-499.21 330,-576.5 335.16,-582.09 341.64,-586.18 348.66,-589.15"/>
<polygon fill="midnightblue" stroke="midnightblue" points="291.65,-335.39 281.42,-332.62 287.69,-341.16 291.65,-335.39"/>
</g>
<!-- Node8 -->
<g id="node9" class="node">
<title>Node8</title>
<g id="a_node9"><a xlink:href="classMirai_1_1AtMessage.html" target="_top" xlink:title="At用户消息">
<polygon fill="none" stroke="black" points="355.5,-546.5 355.5,-566.5 467.5,-566.5 467.5,-546.5 355.5,-546.5"/>
<text text-anchor="middle" x="411.5" y="-553.7" font-family="-apple-system,BlinkMacSystemFont,'SegoeUI',Roboto,Oxygen,Ubuntu,Cantarell,'FiraSans','DroidSans','HelveticaNeue',sans-serif" font-size="11.00">Mirai::AtMessage</text>
</a>
</g>
</g>
<!-- Node5&#45;&gt;Node8 -->
<g id="edge8" class="edge">
<title>Node5&#45;&gt;Node8</title>
<path fill="none" stroke="midnightblue" d="M289.53,-338.25C291.11,-339.56 292.61,-340.97 294,-342.5 353.39,-407.62 269.23,-473.67 330,-537.5 336.83,-544.68 345.83,-549.36 355.33,-552.38"/>
<polygon fill="midnightblue" stroke="midnightblue" points="291.22,-335.18 280.96,-332.55 287.34,-341 291.22,-335.18"/>
</g>
<!-- Node9 -->
<g id="node10" class="node">
<title>Node9</title>
<g id="a_node10"><a xlink:href="classMirai_1_1AudioMessage.html" target="_top" xlink:title="语音消息">
<polygon fill="none" stroke="black" points="346,-507.5 346,-527.5 477,-527.5 477,-507.5 346,-507.5"/>
<text text-anchor="middle" x="411.5" y="-514.7" font-family="-apple-system,BlinkMacSystemFont,'SegoeUI',Roboto,Oxygen,Ubuntu,Cantarell,'FiraSans','DroidSans','HelveticaNeue',sans-serif" font-size="11.00">Mirai::AudioMessage</text>
</a>
</g>
</g>
<!-- Node5&#45;&gt;Node9 -->
<g id="edge9" class="edge">
<title>Node5&#45;&gt;Node9</title>
<path fill="none" stroke="midnightblue" d="M288.91,-337.92C290.72,-339.32 292.42,-340.84 294,-342.5 343.1,-394 279.81,-448.06 330,-498.5 334.56,-503.08 340,-506.64 345.88,-509.39"/>
<polygon fill="midnightblue" stroke="midnightblue" points="290.75,-334.94 280.43,-332.54 287,-340.85 290.75,-334.94"/>
</g>
<!-- Node10 -->
<g id="node11" class="node">
<title>Node10</title>
<g id="a_node11"><a xlink:href="classMirai_1_1DiceMessage.html" target="_top" xlink:title="骰子消息">
<polygon fill="none" stroke="black" points="349.5,-468.5 349.5,-488.5 473.5,-488.5 473.5,-468.5 349.5,-468.5"/>
<text text-anchor="middle" x="411.5" y="-475.7" font-family="-apple-system,BlinkMacSystemFont,'SegoeUI',Roboto,Oxygen,Ubuntu,Cantarell,'FiraSans','DroidSans','HelveticaNeue',sans-serif" font-size="11.00">Mirai::DiceMessage</text>
</a>
</g>
</g>
<!-- Node5&#45;&gt;Node10 -->
<g id="edge10" class="edge">
<title>Node5&#45;&gt;Node10</title>
<path fill="none" stroke="midnightblue" d="M288.63,-337.98C290.53,-339.36 292.32,-340.86 294,-342.5 332.93,-380.51 290.27,-422.33 330,-459.5 335.56,-464.7 342.27,-468.56 349.41,-471.41"/>
<polygon fill="midnightblue" stroke="midnightblue" points="290.16,-334.81 279.79,-332.66 286.55,-340.81 290.16,-334.81"/>
</g>
<!-- Node11 -->
<g id="node12" class="node">
<title>Node11</title>
<g id="a_node12"><a xlink:href="classMirai_1_1FaceMessage.html" target="_top" xlink:title="QQ表情消息">
<polygon fill="none" stroke="black" points="349,-429.5 349,-449.5 474,-449.5 474,-429.5 349,-429.5"/>
<text text-anchor="middle" x="411.5" y="-436.7" font-family="-apple-system,BlinkMacSystemFont,'SegoeUI',Roboto,Oxygen,Ubuntu,Cantarell,'FiraSans','DroidSans','HelveticaNeue',sans-serif" font-size="11.00">Mirai::FaceMessage</text>
</a>
</g>
</g>
<!-- Node5&#45;&gt;Node11 -->
<g id="edge11" class="edge">
<title>Node5&#45;&gt;Node11</title>
<path fill="none" stroke="midnightblue" d="M286.83,-337.3C289.36,-338.86 291.76,-340.59 294,-342.5 323.04,-367.29 300.43,-396.34 330,-420.5 335.56,-425.04 342.02,-428.54 348.81,-431.22"/>
<polygon fill="midnightblue" stroke="midnightblue" points="288.31,-334.13 277.83,-332.59 285.07,-340.33 288.31,-334.13"/>
</g>
<!-- Node13 -->
<g id="node14" class="node">
<title>Node13</title>
<g id="a_node14"><a xlink:href="classMirai_1_1FileMessage.html" target="_top" xlink:title="文件消息">
<polygon fill="none" stroke="black" points="352.5,-390.5 352.5,-410.5 470.5,-410.5 470.5,-390.5 352.5,-390.5"/>
<text text-anchor="middle" x="411.5" y="-397.7" font-family="-apple-system,BlinkMacSystemFont,'SegoeUI',Roboto,Oxygen,Ubuntu,Cantarell,'FiraSans','DroidSans','HelveticaNeue',sans-serif" font-size="11.00">Mirai::FileMessage</text>
</a>
</g>
</g>
<!-- Node5&#45;&gt;Node13 -->
<g id="edge13" class="edge">
<title>Node5&#45;&gt;Node13</title>
<path fill="none" stroke="midnightblue" d="M281.74,-336.2C286.01,-338.05 290.15,-340.14 294,-342.5 314.11,-354.83 309.63,-369.6 330,-381.5 336.82,-385.48 344.43,-388.63 352.16,-391.12"/>
<polygon fill="midnightblue" stroke="midnightblue" points="282.82,-332.87 272.24,-332.53 280.3,-339.4 282.82,-332.87"/>
</g>
<!-- Node14 -->
<g id="node15" class="node">
<title>Node14</title>
<g id="a_node15"><a xlink:href="classMirai_1_1ForwardMessage.html" target="_top" xlink:title="合并转发消息">
<polygon fill="none" stroke="black" points="339.5,-351.5 339.5,-371.5 483.5,-371.5 483.5,-351.5 339.5,-351.5"/>
<text text-anchor="middle" x="411.5" y="-358.7" font-family="-apple-system,BlinkMacSystemFont,'SegoeUI',Roboto,Oxygen,Ubuntu,Cantarell,'FiraSans','DroidSans','HelveticaNeue',sans-serif" font-size="11.00">Mirai::ForwardMessage</text>
</a>
</g>
</g>
<!-- Node5&#45;&gt;Node14 -->
<g id="edge14" class="edge">
<title>Node5&#45;&gt;Node14</title>
<path fill="none" stroke="midnightblue" d="M281.4,-334.65C307.42,-340.06 337.69,-346.36 362.38,-351.49"/>
<polygon fill="midnightblue" stroke="midnightblue" points="281.79,-331.15 271.29,-332.54 280.36,-338.01 281.79,-331.15"/>
</g>
<!-- Node15 -->
<g id="node16" class="node">
<title>Node15</title>
<g id="a_node16"><a xlink:href="classMirai_1_1ImageMessage.html" target="_top" xlink:title="图片消息">
<polygon fill="none" stroke="black" points="344.5,-312.5 344.5,-332.5 478.5,-332.5 478.5,-312.5 344.5,-312.5"/>
<text text-anchor="middle" x="411.5" y="-319.7" font-family="-apple-system,BlinkMacSystemFont,'SegoeUI',Roboto,Oxygen,Ubuntu,Cantarell,'FiraSans','DroidSans','HelveticaNeue',sans-serif" font-size="11.00">Mirai::ImageMessage</text>
</a>
</g>
</g>
<!-- Node5&#45;&gt;Node15 -->
<g id="edge15" class="edge">
<title>Node5&#45;&gt;Node15</title>
<path fill="none" stroke="midnightblue" d="M296.02,-322.5C311.94,-322.5 328.69,-322.5 344.33,-322.5"/>
<polygon fill="midnightblue" stroke="midnightblue" points="295.7,-319 285.7,-322.5 295.7,-326 295.7,-319"/>
</g>
<!-- Node17 -->
<g id="node18" class="node">
<title>Node17</title>
<g id="a_node18"><a xlink:href="classMirai_1_1JsonMessage.html" target="_top" xlink:title="JSON消息">
<polygon fill="none" stroke="black" points="350.5,-273.5 350.5,-293.5 472.5,-293.5 472.5,-273.5 350.5,-273.5"/>
<text text-anchor="middle" x="411.5" y="-280.7" font-family="-apple-system,BlinkMacSystemFont,'SegoeUI',Roboto,Oxygen,Ubuntu,Cantarell,'FiraSans','DroidSans','HelveticaNeue',sans-serif" font-size="11.00">Mirai::JsonMessage</text>
</a>
</g>
</g>
<!-- Node5&#45;&gt;Node17 -->
<g id="edge17" class="edge">
<title>Node5&#45;&gt;Node17</title>
<path fill="none" stroke="midnightblue" d="M281.4,-310.35C307.42,-304.94 337.69,-298.64 362.38,-293.51"/>
<polygon fill="midnightblue" stroke="midnightblue" points="280.36,-306.99 271.29,-312.46 281.79,-313.85 280.36,-306.99"/>
</g>
<!-- Node18 -->
<g id="node19" class="node">
<title>Node18</title>
<g id="a_node19"><a xlink:href="classMirai_1_1MiraiCodeMessage.html" target="_top" xlink:title=" ">
<polygon fill="none" stroke="black" points="334,-234.5 334,-254.5 489,-254.5 489,-234.5 334,-234.5"/>
<text text-anchor="middle" x="411.5" y="-241.7" font-family="-apple-system,BlinkMacSystemFont,'SegoeUI',Roboto,Oxygen,Ubuntu,Cantarell,'FiraSans','DroidSans','HelveticaNeue',sans-serif" font-size="11.00">Mirai::MiraiCodeMessage</text>
</a>
</g>
</g>
<!-- Node5&#45;&gt;Node18 -->
<g id="edge18" class="edge">
<title>Node5&#45;&gt;Node18</title>
<path fill="none" stroke="midnightblue" d="M283.92,-308.72C287.42,-307.16 290.81,-305.43 294,-303.5 314.19,-291.3 309.7,-276.52 330,-264.5 336.94,-260.39 344.7,-257.12 352.58,-254.53"/>
<polygon fill="midnightblue" stroke="midnightblue" points="282.48,-305.53 274.47,-312.47 285.05,-312.04 282.48,-305.53"/>
</g>
<!-- Node19 -->
<g id="node20" class="node">
<title>Node19</title>
<g id="a_node20"><a xlink:href="classMirai_1_1MusicShareMessage.html" target="_top" xlink:title="音乐分享卡片消息">
<polygon fill="none" stroke="black" points="330,-195.5 330,-215.5 493,-215.5 493,-195.5 330,-195.5"/>
<text text-anchor="middle" x="411.5" y="-202.7" font-family="-apple-system,BlinkMacSystemFont,'SegoeUI',Roboto,Oxygen,Ubuntu,Cantarell,'FiraSans','DroidSans','HelveticaNeue',sans-serif" font-size="11.00">Mirai::MusicShareMessage</text>
</a>
</g>
</g>
<!-- Node5&#45;&gt;Node19 -->
<g id="edge19" class="edge">
<title>Node5&#45;&gt;Node19</title>
<path fill="none" stroke="midnightblue" d="M288.48,-307.58C290.41,-306.33 292.26,-304.97 294,-303.5 323.2,-278.91 300.58,-249.83 330,-225.5 334.88,-221.46 340.47,-218.22 346.36,-215.62"/>
<polygon fill="midnightblue" stroke="midnightblue" points="286.69,-304.57 279.59,-312.43 290.05,-310.71 286.69,-304.57"/>
</g>
<!-- Node20 -->
<g id="node21" class="node">
<title>Node20</title>
<g id="a_node21"><a xlink:href="classMirai_1_1PlainMessage.html" target="_top" xlink:title="文字消息">
<polygon fill="none" stroke="black" points="348.5,-156.5 348.5,-176.5 474.5,-176.5 474.5,-156.5 348.5,-156.5"/>
<text text-anchor="middle" x="411.5" y="-163.7" font-family="-apple-system,BlinkMacSystemFont,'SegoeUI',Roboto,Oxygen,Ubuntu,Cantarell,'FiraSans','DroidSans','HelveticaNeue',sans-serif" font-size="11.00">Mirai::PlainMessage</text>
</a>
</g>
</g>
<!-- Node5&#45;&gt;Node20 -->
<g id="edge20" class="edge">
<title>Node5&#45;&gt;Node20</title>
<path fill="none" stroke="midnightblue" d="M289.91,-307.01C291.34,-305.92 292.71,-304.75 294,-303.5 333.18,-265.75 290.49,-223.9 330,-186.5 335.23,-181.55 341.49,-177.77 348.17,-174.89"/>
<polygon fill="midnightblue" stroke="midnightblue" points="287.77,-304.22 281.15,-312.49 291.48,-310.15 287.77,-304.22"/>
</g>
<!-- Node21 -->
<g id="node22" class="node">
<title>Node21</title>
<g id="a_node22"><a xlink:href="classMirai_1_1PokeMessage.html" target="_top" xlink:title="戳一戳消息">
<polygon fill="none" stroke="black" points="349,-117.5 349,-137.5 474,-137.5 474,-117.5 349,-117.5"/>
<text text-anchor="middle" x="411.5" y="-124.7" font-family="-apple-system,BlinkMacSystemFont,'SegoeUI',Roboto,Oxygen,Ubuntu,Cantarell,'FiraSans','DroidSans','HelveticaNeue',sans-serif" font-size="11.00">Mirai::PokeMessage</text>
</a>
</g>
</g>
<!-- Node5&#45;&gt;Node21 -->
<g id="edge21" class="edge">
<title>Node5&#45;&gt;Node21</title>
<path fill="none" stroke="midnightblue" d="M290.59,-306.67C291.78,-305.67 292.92,-304.62 294,-303.5 343.43,-252.32 280.11,-198.23 330,-147.5 335.25,-142.16 341.69,-138.17 348.62,-135.19"/>
<polygon fill="midnightblue" stroke="midnightblue" points="288.43,-303.9 282.11,-312.4 292.35,-309.7 288.43,-303.9"/>
</g>
<!-- Node22 -->
<g id="node23" class="node">
<title>Node22</title>
<g id="a_node23"><a xlink:href="classMirai_1_1QuoteMessage.html" target="_top" xlink:title="引用回复消息">
<polygon fill="none" stroke="black" points="344.5,-78.5 344.5,-98.5 478.5,-98.5 478.5,-78.5 344.5,-78.5"/>
<text text-anchor="middle" x="411.5" y="-85.7" font-family="-apple-system,BlinkMacSystemFont,'SegoeUI',Roboto,Oxygen,Ubuntu,Cantarell,'FiraSans','DroidSans','HelveticaNeue',sans-serif" font-size="11.00">Mirai::QuoteMessage</text>
</a>
</g>
</g>
<!-- Node5&#45;&gt;Node22 -->
<g id="edge22" class="edge">
<title>Node5&#45;&gt;Node22</title>
<path fill="none" stroke="midnightblue" d="M291.09,-306.36C292.1,-305.45 293.07,-304.5 294,-303.5 353.81,-238.77 269.61,-172.69 330,-108.5 334.14,-104.09 339.1,-100.6 344.48,-97.83"/>
<polygon fill="midnightblue" stroke="midnightblue" points="288.74,-303.73 282.61,-312.38 292.79,-309.44 288.74,-303.73"/>
</g>
<!-- Node23 -->
<g id="node24" class="node">
<title>Node23</title>
<g id="a_node24"><a xlink:href="classMirai_1_1SourceMessage.html" target="_top" xlink:title="来源消息">
<polygon fill="none" stroke="black" points="343,-39.5 343,-59.5 480,-59.5 480,-39.5 343,-39.5"/>
<text text-anchor="middle" x="411.5" y="-46.7" font-family="-apple-system,BlinkMacSystemFont,'SegoeUI',Roboto,Oxygen,Ubuntu,Cantarell,'FiraSans','DroidSans','HelveticaNeue',sans-serif" font-size="11.00">Mirai::SourceMessage</text>
</a>
</g>
</g>
<!-- Node5&#45;&gt;Node23 -->
<g id="edge23" class="edge">
<title>Node5&#45;&gt;Node23</title>
<path fill="none" stroke="midnightblue" d="M291.13,-306.39C292.13,-305.48 293.09,-304.52 294,-303.5 364.25,-225.16 259.05,-147.21 330,-69.5 333.69,-65.46 338.06,-62.18 342.82,-59.52"/>
<polygon fill="midnightblue" stroke="midnightblue" points="288.77,-303.78 282.73,-312.49 292.88,-309.45 288.77,-303.78"/>
</g>
<!-- Node24 -->
<g id="node25" class="node">
<title>Node24</title>
<g id="a_node25"><a xlink:href="classMirai_1_1XmlMessage.html" target="_top" xlink:title="XML消息">
<polygon fill="none" stroke="black" points="351,-0.5 351,-20.5 472,-20.5 472,-0.5 351,-0.5"/>
<text text-anchor="middle" x="411.5" y="-7.7" font-family="-apple-system,BlinkMacSystemFont,'SegoeUI',Roboto,Oxygen,Ubuntu,Cantarell,'FiraSans','DroidSans','HelveticaNeue',sans-serif" font-size="11.00">Mirai::XmlMessage</text>
</a>
</g>
</g>
<!-- Node5&#45;&gt;Node24 -->
<g id="edge24" class="edge">
<title>Node5&#45;&gt;Node24</title>
<path fill="none" stroke="midnightblue" d="M291.24,-306.35C292.2,-305.45 293.12,-304.5 294,-303.5 374.72,-211.51 248.46,-121.76 330,-30.5 335.66,-24.16 342.99,-19.69 350.91,-16.55"/>
<polygon fill="midnightblue" stroke="midnightblue" points="289.08,-303.59 283.14,-312.37 293.26,-309.21 289.08,-303.59"/>
</g>
<!-- Node12 -->
<g id="node13" class="node">
<title>Node12</title>
<g id="a_node13"><a xlink:href="classMirai_1_1MarketFaceMessage.html" target="_top" xlink:title="QQ商店表情消息">
<polygon fill="none" stroke="black" points="529,-429.5 529,-449.5 692,-449.5 692,-429.5 529,-429.5"/>
<text text-anchor="middle" x="610.5" y="-436.7" font-family="-apple-system,BlinkMacSystemFont,'SegoeUI',Roboto,Oxygen,Ubuntu,Cantarell,'FiraSans','DroidSans','HelveticaNeue',sans-serif" font-size="11.00">Mirai::MarketFaceMessage</text>
</a>
</g>
</g>
<!-- Node11&#45;&gt;Node12 -->
<g id="edge12" class="edge">
<title>Node11&#45;&gt;Node12</title>
<path fill="none" stroke="midnightblue" d="M484.39,-439.5C498.87,-439.5 514.17,-439.5 528.92,-439.5"/>
<polygon fill="midnightblue" stroke="midnightblue" points="484.02,-436 474.02,-439.5 484.02,-443 484.02,-436"/>
</g>
<!-- Node16 -->
<g id="node17" class="node">
<title>Node16</title>
<g id="a_node17"><a xlink:href="classMirai_1_1FlashImageMessage.html" target="_top" xlink:title="闪照消息">
<polygon fill="none" stroke="black" points="529.5,-312.5 529.5,-332.5 691.5,-332.5 691.5,-312.5 529.5,-312.5"/>
<text text-anchor="middle" x="610.5" y="-319.7" font-family="-apple-system,BlinkMacSystemFont,'SegoeUI',Roboto,Oxygen,Ubuntu,Cantarell,'FiraSans','DroidSans','HelveticaNeue',sans-serif" font-size="11.00">Mirai::FlashImageMessage</text>
</a>
</g>
</g>
<!-- Node15&#45;&gt;Node16 -->
<g id="edge16" class="edge">
<title>Node15&#45;&gt;Node16</title>
<path fill="none" stroke="midnightblue" d="M488.67,-322.5C501.94,-322.5 515.79,-322.5 529.17,-322.5"/>
<polygon fill="midnightblue" stroke="midnightblue" points="488.65,-319 478.65,-322.5 488.65,-326 488.65,-319"/>
</g>
</g>
</svg>
