<?xml version="1.0" encoding="UTF-8" standalone="no"?>
<!DOCTYPE svg PUBLIC "-//W3C//DTD SVG 1.1//EN"
 "http://www.w3.org/Graphics/SVG/1.1/DTD/svg11.dtd">
<!-- Generated by graphviz version 2.43.0 (0)
 -->
<!-- Title: libmirai/public/libmirai/Messages/JsonMessage.hpp Pages: 1 -->
<svg width="439pt" height="212pt"
 viewBox="0.00 0.00 439.00 212.00" xmlns="http://www.w3.org/2000/svg" xmlns:xlink="http://www.w3.org/1999/xlink">
<g id="graph0" class="graph" transform="scale(1 1) rotate(0) translate(4 208)">
<title>libmirai/public/libmirai/Messages/JsonMessage.hpp</title>
<!-- Node1 -->
<g id="node1" class="node">
<title>Node1</title>
<g id="a_node1"><a xlink:title=" ">
<polygon fill="#bfbfbf" stroke="black" points="0,-171.5 0,-203.5 174,-203.5 174,-171.5 0,-171.5"/>
<text text-anchor="start" x="8" y="-190.7" font-family="-apple-system,BlinkMacSystemFont,'SegoeUI',Roboto,Oxygen,Ubuntu,Cantarell,'FiraSans','DroidSans','HelveticaNeue',sans-serif" font-size="11.00">libmirai/public/libmirai</text>
<text text-anchor="middle" x="87" y="-178.7" font-family="-apple-system,BlinkMacSystemFont,'SegoeUI',Roboto,Oxygen,Ubuntu,Cantarell,'FiraSans','DroidSans','HelveticaNeue',sans-serif" font-size="11.00">/Messages/JsonMessage.hpp</text>
</a>
</g>
</g>
<!-- Node2 -->
<g id="node2" class="node">
<title>Node2</title>
<g id="a_node2"><a xlink:title=" ">
<polygon fill="none" stroke="#bfbfbf" points="63,-57.5 63,-77.5 111,-77.5 111,-57.5 63,-57.5"/>
<text text-anchor="middle" x="87" y="-64.7" font-family="-apple-system,BlinkMacSystemFont,'SegoeUI',Roboto,Oxygen,Ubuntu,Cantarell,'FiraSans','DroidSans','HelveticaNeue',sans-serif" font-size="11.00">string</text>
</a>
</g>
</g>
<!-- Node1&#45;&gt;Node2 -->
<g id="edge1" class="edge">
<title>Node1&#45;&gt;Node2</title>
<path fill="none" stroke="midnightblue" d="M87,-171.07C87,-149.71 87,-111.11 87,-87.84"/>
<polygon fill="midnightblue" stroke="midnightblue" points="90.5,-87.79 87,-77.79 83.5,-87.79 90.5,-87.79"/>
</g>
<!-- Node3 -->
<g id="node3" class="node">
<title>Node3</title>
<g id="a_node3"><a xlink:title=" ">
<polygon fill="none" stroke="#bfbfbf" points="148,-0.5 148,-20.5 294,-20.5 294,-0.5 148,-0.5"/>
<text text-anchor="middle" x="221" y="-7.7" font-family="-apple-system,BlinkMacSystemFont,'SegoeUI',Roboto,Oxygen,Ubuntu,Cantarell,'FiraSans','DroidSans','HelveticaNeue',sans-serif" font-size="11.00">nlohmann/json_fwd.hpp</text>
</a>
</g>
</g>
<!-- Node1&#45;&gt;Node3 -->
<g id="edge2" class="edge">
<title>Node1&#45;&gt;Node3</title>
<path fill="none" stroke="midnightblue" d="M75.65,-171.28C57.73,-145.25 27.52,-91.66 54,-57 65.9,-41.43 109.03,-29.91 148.48,-22.36"/>
<polygon fill="midnightblue" stroke="midnightblue" points="149.21,-25.78 158.41,-20.53 147.94,-18.9 149.21,-25.78"/>
</g>
<!-- Node4 -->
<g id="node4" class="node">
<title>Node4</title>
<g id="a_node4"><a xlink:href="MessageBase_8hpp.html" target="_top" xlink:title=" ">
<polygon fill="none" stroke="black" points="163,-114.5 163,-134.5 279,-134.5 279,-114.5 163,-114.5"/>
<text text-anchor="middle" x="221" y="-121.7" font-family="-apple-system,BlinkMacSystemFont,'SegoeUI',Roboto,Oxygen,Ubuntu,Cantarell,'FiraSans','DroidSans','HelveticaNeue',sans-serif" font-size="11.00">MessageBase.hpp</text>
</a>
</g>
</g>
<!-- Node1&#45;&gt;Node4 -->
<g id="edge3" class="edge">
<title>Node1&#45;&gt;Node4</title>
<path fill="none" stroke="midnightblue" d="M120.12,-171.42C142.17,-161.39 170.85,-148.33 192,-138.7"/>
<polygon fill="midnightblue" stroke="midnightblue" points="193.48,-141.87 201.13,-134.55 190.58,-135.5 193.48,-141.87"/>
</g>
<!-- Node4&#45;&gt;Node2 -->
<g id="edge5" class="edge">
<title>Node4&#45;&gt;Node2</title>
<path fill="none" stroke="midnightblue" d="M198.87,-114.42C176.95,-105.42 143.18,-91.56 118.47,-81.42"/>
<polygon fill="midnightblue" stroke="midnightblue" points="119.74,-78.15 109.16,-77.6 117.08,-84.63 119.74,-78.15"/>
</g>
<!-- Node4&#45;&gt;Node3 -->
<g id="edge6" class="edge">
<title>Node4&#45;&gt;Node3</title>
<path fill="none" stroke="midnightblue" d="M266.75,-114.42C287,-107.88 308.92,-96.77 321,-78 337.54,-52.31 302.38,-34.24 269.29,-23.49"/>
<polygon fill="midnightblue" stroke="midnightblue" points="270.18,-20.1 259.6,-20.52 268.13,-26.79 270.18,-20.1"/>
</g>
<!-- Node5 -->
<g id="node5" class="node">
<title>Node5</title>
<g id="a_node5"><a xlink:title=" ">
<polygon fill="none" stroke="#bfbfbf" points="369,-57.5 369,-77.5 431,-77.5 431,-57.5 369,-57.5"/>
<text text-anchor="middle" x="400" y="-64.7" font-family="-apple-system,BlinkMacSystemFont,'SegoeUI',Roboto,Oxygen,Ubuntu,Cantarell,'FiraSans','DroidSans','HelveticaNeue',sans-serif" font-size="11.00">memory</text>
</a>
</g>
</g>
<!-- Node4&#45;&gt;Node5 -->
<g id="edge4" class="edge">
<title>Node4&#45;&gt;Node5</title>
<path fill="none" stroke="midnightblue" d="M250.56,-114.42C280.7,-105.15 327.64,-90.73 360.86,-80.53"/>
<polygon fill="midnightblue" stroke="midnightblue" points="362.16,-83.79 370.7,-77.5 360.11,-77.1 362.16,-83.79"/>
</g>
<!-- Node6 -->
<g id="node6" class="node">
<title>Node6</title>
<g id="a_node6"><a xlink:href="Serializable_8hpp.html" target="_top" xlink:title=" ">
<polygon fill="none" stroke="black" points="129.5,-57.5 129.5,-77.5 312.5,-77.5 312.5,-57.5 129.5,-57.5"/>
<text text-anchor="middle" x="221" y="-64.7" font-family="-apple-system,BlinkMacSystemFont,'SegoeUI',Roboto,Oxygen,Ubuntu,Cantarell,'FiraSans','DroidSans','HelveticaNeue',sans-serif" font-size="11.00">libmirai/Types/Serializable.hpp</text>
</a>
</g>
</g>
<!-- Node4&#45;&gt;Node6 -->
<g id="edge7" class="edge">
<title>Node4&#45;&gt;Node6</title>
<path fill="none" stroke="midnightblue" d="M221,-114.42C221,-107.22 221,-96.9 221,-87.86"/>
<polygon fill="midnightblue" stroke="midnightblue" points="224.5,-87.78 221,-77.78 217.5,-87.78 224.5,-87.78"/>
</g>
<!-- Node6&#45;&gt;Node3 -->
<g id="edge8" class="edge">
<title>Node6&#45;&gt;Node3</title>
<path fill="none" stroke="midnightblue" d="M221,-57.42C221,-50.22 221,-39.9 221,-30.86"/>
<polygon fill="midnightblue" stroke="midnightblue" points="224.5,-30.78 221,-20.78 217.5,-30.78 224.5,-30.78"/>
</g>
</g>
</svg>
