<?xml version="1.0" encoding="UTF-8" standalone="no"?>
<!DOCTYPE svg PUBLIC "-//W3C//DTD SVG 1.1//EN"
 "http://www.w3.org/Graphics/SVG/1.1/DTD/svg11.dtd">
<!-- Generated by graphviz version 2.43.0 (0)
 -->
<!-- Title: libmirai/public/libmirai/Messages/MarketFaceMessage.cpp Pages: 1 -->
<svg width="593pt" height="212pt"
 viewBox="0.00 0.00 592.54 212.00" xmlns="http://www.w3.org/2000/svg" xmlns:xlink="http://www.w3.org/1999/xlink">
<g id="graph0" class="graph" transform="scale(1 1) rotate(0) translate(4 208)">
<title>libmirai/public/libmirai/Messages/MarketFaceMessage.cpp</title>
<!-- Node1 -->
<g id="node1" class="node">
<title>Node1</title>
<g id="a_node1"><a xlink:title=" ">
<polygon fill="#bfbfbf" stroke="black" points="236.54,-171.5 236.54,-203.5 450.54,-203.5 450.54,-171.5 236.54,-171.5"/>
<text text-anchor="start" x="244.54" y="-190.7" font-family="-apple-system,BlinkMacSystemFont,'SegoeUI',Roboto,Oxygen,Ubuntu,Cantarell,'FiraSans','DroidSans','HelveticaNeue',sans-serif" font-size="11.00">libmirai/public/libmirai</text>
<text text-anchor="middle" x="343.54" y="-178.7" font-family="-apple-system,BlinkMacSystemFont,'SegoeUI',Roboto,Oxygen,Ubuntu,Cantarell,'FiraSans','DroidSans','HelveticaNeue',sans-serif" font-size="11.00">/Messages/MarketFaceMessage.cpp</text>
</a>
</g>
</g>
<!-- Node2 -->
<g id="node2" class="node">
<title>Node2</title>
<g id="a_node2"><a xlink:href="MarketFaceMessage_8hpp.html" target="_top" xlink:title=" ">
<polygon fill="none" stroke="black" points="112.54,-114.5 112.54,-134.5 264.54,-134.5 264.54,-114.5 112.54,-114.5"/>
<text text-anchor="middle" x="188.54" y="-121.7" font-family="-apple-system,BlinkMacSystemFont,'SegoeUI',Roboto,Oxygen,Ubuntu,Cantarell,'FiraSans','DroidSans','HelveticaNeue',sans-serif" font-size="11.00">MarketFaceMessage.hpp</text>
</a>
</g>
</g>
<!-- Node1&#45;&gt;Node2 -->
<g id="edge1" class="edge">
<title>Node1&#45;&gt;Node2</title>
<path fill="none" stroke="midnightblue" d="M305.23,-171.42C279.39,-161.25 245.65,-147.97 221.11,-138.32"/>
<polygon fill="midnightblue" stroke="midnightblue" points="222.12,-134.95 211.53,-134.55 219.55,-141.46 222.12,-134.95"/>
</g>
<!-- Node12 -->
<g id="node7" class="node">
<title>Node12</title>
<g id="a_node7"><a xlink:title=" ">
<polygon fill="none" stroke="#bfbfbf" points="283.04,-114.5 283.04,-134.5 404.04,-134.5 404.04,-114.5 283.04,-114.5"/>
<text text-anchor="middle" x="343.54" y="-121.7" font-family="-apple-system,BlinkMacSystemFont,'SegoeUI',Roboto,Oxygen,Ubuntu,Cantarell,'FiraSans','DroidSans','HelveticaNeue',sans-serif" font-size="11.00">nlohmann/json.hpp</text>
</a>
</g>
</g>
<!-- Node1&#45;&gt;Node12 -->
<g id="edge10" class="edge">
<title>Node1&#45;&gt;Node12</title>
<path fill="none" stroke="midnightblue" d="M343.54,-171.42C343.54,-163.38 343.54,-153.39 343.54,-144.78"/>
<polygon fill="midnightblue" stroke="midnightblue" points="347.04,-144.55 343.54,-134.55 340.04,-144.55 347.04,-144.55"/>
</g>
<!-- Node13 -->
<g id="node8" class="node">
<title>Node13</title>
<g id="a_node8"><a xlink:title=" ">
<polygon fill="none" stroke="#bfbfbf" points="422.54,-114.5 422.54,-134.5 584.54,-134.5 584.54,-114.5 422.54,-114.5"/>
<text text-anchor="middle" x="503.54" y="-121.7" font-family="-apple-system,BlinkMacSystemFont,'SegoeUI',Roboto,Oxygen,Ubuntu,Cantarell,'FiraSans','DroidSans','HelveticaNeue',sans-serif" font-size="11.00">libmirai/Utils/Common.hpp</text>
</a>
</g>
</g>
<!-- Node1&#45;&gt;Node13 -->
<g id="edge11" class="edge">
<title>Node1&#45;&gt;Node13</title>
<path fill="none" stroke="midnightblue" d="M383.09,-171.42C409.89,-161.21 444.9,-147.86 470.27,-138.19"/>
<polygon fill="midnightblue" stroke="midnightblue" points="471.72,-141.38 479.82,-134.55 469.23,-134.84 471.72,-141.38"/>
</g>
<!-- Node3 -->
<g id="node3" class="node">
<title>Node3</title>
<g id="a_node3"><a xlink:title=" ">
<polygon fill="none" stroke="#bfbfbf" points="81.54,-0.5 81.54,-20.5 129.54,-20.5 129.54,-0.5 81.54,-0.5"/>
<text text-anchor="middle" x="105.54" y="-7.7" font-family="-apple-system,BlinkMacSystemFont,'SegoeUI',Roboto,Oxygen,Ubuntu,Cantarell,'FiraSans','DroidSans','HelveticaNeue',sans-serif" font-size="11.00">string</text>
</a>
</g>
</g>
<!-- Node2&#45;&gt;Node3 -->
<g id="edge2" class="edge">
<title>Node2&#45;&gt;Node3</title>
<path fill="none" stroke="midnightblue" d="M114.65,-114.44C70.05,-107.28 19.26,-95.54 5.54,-78 -16.17,-50.22 34.43,-30.13 71.29,-19.68"/>
<polygon fill="midnightblue" stroke="midnightblue" points="72.51,-22.98 81.25,-17 70.69,-16.22 72.51,-22.98"/>
</g>
<!-- Node4 -->
<g id="node4" class="node">
<title>Node4</title>
<g id="a_node4"><a xlink:title=" ">
<polygon fill="none" stroke="#bfbfbf" points="198.54,-0.5 198.54,-20.5 344.54,-20.5 344.54,-0.5 198.54,-0.5"/>
<text text-anchor="middle" x="271.54" y="-7.7" font-family="-apple-system,BlinkMacSystemFont,'SegoeUI',Roboto,Oxygen,Ubuntu,Cantarell,'FiraSans','DroidSans','HelveticaNeue',sans-serif" font-size="11.00">nlohmann/json_fwd.hpp</text>
</a>
</g>
</g>
<!-- Node2&#45;&gt;Node4 -->
<g id="edge3" class="edge">
<title>Node2&#45;&gt;Node4</title>
<path fill="none" stroke="midnightblue" d="M240.15,-114.47C278.34,-106.61 325.72,-93.98 337.54,-78 352.41,-57.92 325.67,-37.99 301.91,-25.27"/>
<polygon fill="midnightblue" stroke="midnightblue" points="303.2,-22 292.7,-20.6 300.04,-28.24 303.2,-22"/>
</g>
<!-- Node5 -->
<g id="node5" class="node">
<title>Node5</title>
<g id="a_node5"><a xlink:href="BasicTypes_8hpp.html" target="_top" xlink:title=" ">
<polygon fill="none" stroke="red" points="15.04,-57.5 15.04,-77.5 196.04,-77.5 196.04,-57.5 15.04,-57.5"/>
<text text-anchor="middle" x="105.54" y="-64.7" font-family="-apple-system,BlinkMacSystemFont,'SegoeUI',Roboto,Oxygen,Ubuntu,Cantarell,'FiraSans','DroidSans','HelveticaNeue',sans-serif" font-size="11.00">libmirai/Types/BasicTypes.hpp</text>
</a>
</g>
</g>
<!-- Node2&#45;&gt;Node5 -->
<g id="edge4" class="edge">
<title>Node2&#45;&gt;Node5</title>
<path fill="none" stroke="midnightblue" d="M174.84,-114.42C162.1,-105.98 142.9,-93.26 127.94,-83.34"/>
<polygon fill="midnightblue" stroke="midnightblue" points="129.54,-80.2 119.27,-77.6 125.67,-86.04 129.54,-80.2"/>
</g>
<!-- Node9 -->
<g id="node6" class="node">
<title>Node9</title>
<g id="a_node6"><a xlink:href="FaceMessage_8hpp.html" target="_top" xlink:title=" ">
<polygon fill="none" stroke="red" points="214.54,-57.5 214.54,-77.5 328.54,-77.5 328.54,-57.5 214.54,-57.5"/>
<text text-anchor="middle" x="271.54" y="-64.7" font-family="-apple-system,BlinkMacSystemFont,'SegoeUI',Roboto,Oxygen,Ubuntu,Cantarell,'FiraSans','DroidSans','HelveticaNeue',sans-serif" font-size="11.00">FaceMessage.hpp</text>
</a>
</g>
</g>
<!-- Node2&#45;&gt;Node9 -->
<g id="edge7" class="edge">
<title>Node2&#45;&gt;Node9</title>
<path fill="none" stroke="midnightblue" d="M202.25,-114.42C214.98,-105.98 234.18,-93.26 249.14,-83.34"/>
<polygon fill="midnightblue" stroke="midnightblue" points="251.42,-86.04 257.82,-77.6 247.55,-80.2 251.42,-86.04"/>
</g>
<!-- Node5&#45;&gt;Node3 -->
<g id="edge5" class="edge">
<title>Node5&#45;&gt;Node3</title>
<path fill="none" stroke="midnightblue" d="M105.54,-57.42C105.54,-50.22 105.54,-39.9 105.54,-30.86"/>
<polygon fill="midnightblue" stroke="midnightblue" points="109.04,-30.78 105.54,-20.78 102.04,-30.78 109.04,-30.78"/>
</g>
<!-- Node5&#45;&gt;Node4 -->
<g id="edge6" class="edge">
<title>Node5&#45;&gt;Node4</title>
<path fill="none" stroke="midnightblue" d="M132.96,-57.42C160.79,-48.19 204.07,-33.86 234.85,-23.66"/>
<polygon fill="midnightblue" stroke="midnightblue" points="235.98,-26.97 244.37,-20.5 233.77,-20.33 235.98,-26.97"/>
</g>
<!-- Node9&#45;&gt;Node3 -->
<g id="edge8" class="edge">
<title>Node9&#45;&gt;Node3</title>
<path fill="none" stroke="midnightblue" d="M244.13,-57.42C215.38,-47.89 170.16,-32.91 139.25,-22.67"/>
<polygon fill="midnightblue" stroke="midnightblue" points="140.35,-19.34 129.75,-19.52 138.15,-25.99 140.35,-19.34"/>
</g>
<!-- Node9&#45;&gt;Node4 -->
<g id="edge9" class="edge">
<title>Node9&#45;&gt;Node4</title>
<path fill="none" stroke="midnightblue" d="M271.54,-57.42C271.54,-50.22 271.54,-39.9 271.54,-30.86"/>
<polygon fill="midnightblue" stroke="midnightblue" points="275.04,-30.78 271.54,-20.78 268.04,-30.78 275.04,-30.78"/>
</g>
</g>
</svg>
