<?xml version="1.0" encoding="UTF-8" standalone="no"?>
<!DOCTYPE svg PUBLIC "-//W3C//DTD SVG 1.1//EN"
 "http://www.w3.org/Graphics/SVG/1.1/DTD/svg11.dtd">
<!-- Generated by graphviz version 3.0.0 (20220413.0242)
 -->
<!-- Title: libmirai/public/libmirai/Messages/MarketFaceMessage.hpp Pages: 1 -->
<svg width="638pt" height="269pt"
 viewBox="0.00 0.00 638.00 269.00" xmlns="http://www.w3.org/2000/svg" xmlns:xlink="http://www.w3.org/1999/xlink">
<g id="graph0" class="graph" transform="scale(1 1) rotate(0) translate(4 265)">
<title>libmirai/public/libmirai/Messages/MarketFaceMessage.hpp</title>
<!-- Node1 -->
<g id="node1" class="node">
<title>Node1</title>
<g id="a_node1"><a xlink:title=" ">
<polygon fill="#bfbfbf" stroke="black" points="0,-228.5 0,-260.5 194,-260.5 194,-228.5 0,-228.5"/>
<text text-anchor="start" x="8" y="-247.7" font-family="-apple-system, BlinkMacSystemFont, 'Segoe UI', Roboto, Oxygen, Ubuntu, Cantarell, 'Fira Sans', 'Droid Sans', 'Helvetica Neue', sans-serif" font-size="11.00">libmirai/public/libmirai</text>
<text text-anchor="middle" x="97" y="-235.7" font-family="-apple-system, BlinkMacSystemFont, 'Segoe UI', Roboto, Oxygen, Ubuntu, Cantarell, 'Fira Sans', 'Droid Sans', 'Helvetica Neue', sans-serif" font-size="11.00">/Messages/MarketFaceMessage.hpp</text>
</a>
</g>
</g>
<!-- Node2 -->
<g id="node2" class="node">
<title>Node2</title>
<g id="a_node2"><a xlink:title=" ">
<polygon fill="none" stroke="#bfbfbf" points="88.5,-57.5 88.5,-77.5 131.5,-77.5 131.5,-57.5 88.5,-57.5"/>
<text text-anchor="middle" x="110" y="-64.7" font-family="-apple-system, BlinkMacSystemFont, 'Segoe UI', Roboto, Oxygen, Ubuntu, Cantarell, 'Fira Sans', 'Droid Sans', 'Helvetica Neue', sans-serif" font-size="11.00">string</text>
</a>
</g>
</g>
<!-- Node1&#45;&gt;Node2 -->
<g id="edge1" class="edge">
<title>Node1&#45;&gt;Node2</title>
<path fill="none" stroke="midnightblue" d="M96.25,-228.18C95.79,-217.94 95.24,-204.17 95,-192 94.82,-182.67 94.32,-180.31 95,-171 97.14,-141.64 102.67,-107.92 106.39,-87.42"/>
<polygon fill="midnightblue" stroke="midnightblue" points="109.85,-87.97 108.23,-77.5 102.96,-86.69 109.85,-87.97"/>
</g>
<!-- Node3 -->
<g id="node3" class="node">
<title>Node3</title>
<g id="a_node3"><a xlink:title=" ">
<polygon fill="none" stroke="#bfbfbf" points="148.5,-0.5 148.5,-20.5 279.5,-20.5 279.5,-0.5 148.5,-0.5"/>
<text text-anchor="middle" x="214" y="-7.7" font-family="-apple-system, BlinkMacSystemFont, 'Segoe UI', Roboto, Oxygen, Ubuntu, Cantarell, 'Fira Sans', 'Droid Sans', 'Helvetica Neue', sans-serif" font-size="11.00">nlohmann/json_fwd.hpp</text>
</a>
</g>
</g>
<!-- Node1&#45;&gt;Node3 -->
<g id="edge2" class="edge">
<title>Node1&#45;&gt;Node3</title>
<path fill="none" stroke="midnightblue" d="M89.46,-228.47C73.54,-194.37 40.95,-109.97 79,-57 92.95,-37.58 115.62,-26.34 138.43,-19.87"/>
<polygon fill="midnightblue" stroke="midnightblue" points="139.37,-23.24 148.19,-17.37 137.64,-16.46 139.37,-23.24"/>
</g>
<!-- Node4 -->
<g id="node4" class="node">
<title>Node4</title>
<g id="a_node4"><a xlink:href="BasicTypes_8hpp.html" target="_top" xlink:title=" ">
<polygon fill="none" stroke="black" points="351,-114.5 351,-134.5 513,-134.5 513,-114.5 351,-114.5"/>
<text text-anchor="middle" x="432" y="-121.7" font-family="-apple-system, BlinkMacSystemFont, 'Segoe UI', Roboto, Oxygen, Ubuntu, Cantarell, 'Fira Sans', 'Droid Sans', 'Helvetica Neue', sans-serif" font-size="11.00">libmirai/Types/BasicTypes.hpp</text>
</a>
</g>
</g>
<!-- Node1&#45;&gt;Node4 -->
<g id="edge3" class="edge">
<title>Node1&#45;&gt;Node4</title>
<path fill="none" stroke="midnightblue" d="M139.77,-228.44C206.6,-204.89 334.56,-159.82 396.57,-137.98"/>
<polygon fill="midnightblue" stroke="midnightblue" points="398.03,-141.18 406.3,-134.55 395.7,-134.58 398.03,-141.18"/>
</g>
<!-- Node9 -->
<g id="node9" class="node">
<title>Node9</title>
<g id="a_node9"><a xlink:href="FaceMessage_8hpp.html" target="_top" xlink:title=" ">
<polygon fill="none" stroke="black" points="104.5,-171.5 104.5,-191.5 209.5,-191.5 209.5,-171.5 104.5,-171.5"/>
<text text-anchor="middle" x="157" y="-178.7" font-family="-apple-system, BlinkMacSystemFont, 'Segoe UI', Roboto, Oxygen, Ubuntu, Cantarell, 'Fira Sans', 'Droid Sans', 'Helvetica Neue', sans-serif" font-size="11.00">FaceMessage.hpp</text>
</a>
</g>
</g>
<!-- Node1&#45;&gt;Node9 -->
<g id="edge11" class="edge">
<title>Node1&#45;&gt;Node9</title>
<path fill="none" stroke="midnightblue" d="M111.83,-228.42C120.64,-219.47 131.8,-208.12 140.83,-198.94"/>
<polygon fill="midnightblue" stroke="midnightblue" points="143.59,-201.13 148.1,-191.55 138.59,-196.22 143.59,-201.13"/>
</g>
<!-- Node4&#45;&gt;Node2 -->
<g id="edge6" class="edge">
<title>Node4&#45;&gt;Node2</title>
<path fill="none" stroke="midnightblue" d="M379.19,-114.48C311.64,-102.94 196.8,-83.33 141.54,-73.89"/>
<polygon fill="midnightblue" stroke="midnightblue" points="142.08,-70.43 131.63,-72.19 140.9,-77.33 142.08,-70.43"/>
</g>
<!-- Node4&#45;&gt;Node3 -->
<g id="edge8" class="edge">
<title>Node4&#45;&gt;Node3</title>
<path fill="none" stroke="midnightblue" d="M432.14,-114.28C431.83,-99.9 429.03,-72.2 413,-57 395.17,-40.1 338.29,-28.16 289.88,-20.76"/>
<polygon fill="midnightblue" stroke="midnightblue" points="290.1,-17.26 279.7,-19.26 289.08,-24.18 290.1,-17.26"/>
</g>
<!-- Node5 -->
<g id="node5" class="node">
<title>Node5</title>
<g id="a_node5"><a xlink:title=" ">
<polygon fill="none" stroke="#bfbfbf" points="580,-57.5 580,-77.5 630,-77.5 630,-57.5 580,-57.5"/>
<text text-anchor="middle" x="605" y="-64.7" font-family="-apple-system, BlinkMacSystemFont, 'Segoe UI', Roboto, Oxygen, Ubuntu, Cantarell, 'Fira Sans', 'Droid Sans', 'Helvetica Neue', sans-serif" font-size="11.00">chrono</text>
</a>
</g>
</g>
<!-- Node4&#45;&gt;Node5 -->
<g id="edge4" class="edge">
<title>Node4&#45;&gt;Node5</title>
<path fill="none" stroke="midnightblue" d="M460.57,-114.42C490.53,-104.89 537.66,-89.91 569.87,-79.67"/>
<polygon fill="midnightblue" stroke="midnightblue" points="571.3,-82.89 579.77,-76.52 569.18,-76.22 571.3,-82.89"/>
</g>
<!-- Node6 -->
<g id="node6" class="node">
<title>Node6</title>
<g id="a_node6"><a xlink:title=" ">
<polygon fill="none" stroke="#bfbfbf" points="460,-57.5 460,-77.5 502,-77.5 502,-57.5 460,-57.5"/>
<text text-anchor="middle" x="481" y="-64.7" font-family="-apple-system, BlinkMacSystemFont, 'Segoe UI', Roboto, Oxygen, Ubuntu, Cantarell, 'Fira Sans', 'Droid Sans', 'Helvetica Neue', sans-serif" font-size="11.00">ctime</text>
</a>
</g>
</g>
<!-- Node4&#45;&gt;Node6 -->
<g id="edge5" class="edge">
<title>Node4&#45;&gt;Node6</title>
<path fill="none" stroke="midnightblue" d="M440.09,-114.42C447.07,-106.58 457.34,-95.06 465.84,-85.51"/>
<polygon fill="midnightblue" stroke="midnightblue" points="468.69,-87.57 472.73,-77.78 463.47,-82.92 468.69,-87.57"/>
</g>
<!-- Node7 -->
<g id="node7" class="node">
<title>Node7</title>
<g id="a_node7"><a xlink:title=" ">
<polygon fill="none" stroke="#bfbfbf" points="520.5,-57.5 520.5,-77.5 561.5,-77.5 561.5,-57.5 520.5,-57.5"/>
<text text-anchor="middle" x="541" y="-64.7" font-family="-apple-system, BlinkMacSystemFont, 'Segoe UI', Roboto, Oxygen, Ubuntu, Cantarell, 'Fira Sans', 'Droid Sans', 'Helvetica Neue', sans-serif" font-size="11.00">utility</text>
</a>
</g>
</g>
<!-- Node4&#45;&gt;Node7 -->
<g id="edge7" class="edge">
<title>Node4&#45;&gt;Node7</title>
<path fill="none" stroke="midnightblue" d="M450,-114.42C467.36,-105.66 493.85,-92.29 513.78,-82.23"/>
<polygon fill="midnightblue" stroke="midnightblue" points="515.62,-85.23 522.97,-77.6 512.47,-78.98 515.62,-85.23"/>
</g>
<!-- Node8 -->
<g id="node8" class="node">
<title>Node8</title>
<g id="a_node8"><a xlink:href="Serializable_8hpp.html" target="_top" xlink:title=" ">
<polygon fill="none" stroke="black" points="242,-57.5 242,-77.5 404,-77.5 404,-57.5 242,-57.5"/>
<text text-anchor="middle" x="323" y="-64.7" font-family="-apple-system, BlinkMacSystemFont, 'Segoe UI', Roboto, Oxygen, Ubuntu, Cantarell, 'Fira Sans', 'Droid Sans', 'Helvetica Neue', sans-serif" font-size="11.00">libmirai/Types/Serializable.hpp</text>
</a>
</g>
</g>
<!-- Node4&#45;&gt;Node8 -->
<g id="edge9" class="edge">
<title>Node4&#45;&gt;Node8</title>
<path fill="none" stroke="midnightblue" d="M414,-114.42C396.64,-105.66 370.15,-92.29 350.22,-82.23"/>
<polygon fill="midnightblue" stroke="midnightblue" points="351.53,-78.98 341.03,-77.6 348.38,-85.23 351.53,-78.98"/>
</g>
<!-- Node8&#45;&gt;Node3 -->
<g id="edge10" class="edge">
<title>Node8&#45;&gt;Node3</title>
<path fill="none" stroke="midnightblue" d="M305,-57.42C287.64,-48.66 261.15,-35.29 241.22,-25.23"/>
<polygon fill="midnightblue" stroke="midnightblue" points="242.53,-21.98 232.03,-20.6 239.38,-28.23 242.53,-21.98"/>
</g>
<!-- Node9&#45;&gt;Node2 -->
<g id="edge12" class="edge">
<title>Node9&#45;&gt;Node2</title>
<path fill="none" stroke="midnightblue" d="M144.32,-171.25C134.13,-163.01 120.48,-149.96 114,-135 107.54,-120.07 106.97,-101.48 107.77,-87.75"/>
<polygon fill="midnightblue" stroke="midnightblue" points="111.27,-87.82 108.66,-77.55 104.3,-87.21 111.27,-87.82"/>
</g>
<!-- Node9&#45;&gt;Node3 -->
<g id="edge13" class="edge">
<title>Node9&#45;&gt;Node3</title>
<path fill="none" stroke="midnightblue" d="M188.85,-171.43C206.69,-164.55 227.41,-153.1 238,-135 242.71,-126.94 239.07,-123.27 238,-114 234.57,-84.3 225.72,-50.7 219.78,-30.31"/>
<polygon fill="midnightblue" stroke="midnightblue" points="223.13,-29.28 216.91,-20.7 216.42,-31.28 223.13,-29.28"/>
</g>
<!-- Node10 -->
<g id="node10" class="node">
<title>Node10</title>
<g id="a_node10"><a xlink:href="MessageBase_8hpp.html" target="_top" xlink:title=" ">
<polygon fill="none" stroke="red" points="123,-114.5 123,-134.5 229,-134.5 229,-114.5 123,-114.5"/>
<text text-anchor="middle" x="176" y="-121.7" font-family="-apple-system, BlinkMacSystemFont, 'Segoe UI', Roboto, Oxygen, Ubuntu, Cantarell, 'Fira Sans', 'Droid Sans', 'Helvetica Neue', sans-serif" font-size="11.00">MessageBase.hpp</text>
</a>
</g>
</g>
<!-- Node9&#45;&gt;Node10 -->
<g id="edge14" class="edge">
<title>Node9&#45;&gt;Node10</title>
<path fill="none" stroke="midnightblue" d="M160.14,-171.42C162.68,-164.06 166.35,-153.44 169.52,-144.27"/>
<polygon fill="midnightblue" stroke="midnightblue" points="172.84,-145.37 172.79,-134.78 166.22,-143.09 172.84,-145.37"/>
</g>
<!-- Node10&#45;&gt;Node2 -->
<g id="edge15" class="edge">
<title>Node10&#45;&gt;Node2</title>
<path fill="none" stroke="midnightblue" d="M165.1,-114.42C155.32,-106.27 140.74,-94.12 129.04,-84.37"/>
<polygon fill="midnightblue" stroke="midnightblue" points="131.06,-81.49 121.14,-77.78 126.58,-86.87 131.06,-81.49"/>
</g>
<!-- Node10&#45;&gt;Node3 -->
<g id="edge16" class="edge">
<title>Node10&#45;&gt;Node3</title>
<path fill="none" stroke="midnightblue" d="M179.11,-114.33C185.32,-96.04 199.35,-54.67 207.61,-30.34"/>
<polygon fill="midnightblue" stroke="midnightblue" points="210.95,-31.39 210.85,-20.79 204.32,-29.14 210.95,-31.39"/>
</g>
<!-- Node10&#45;&gt;Node8 -->
<g id="edge17" class="edge">
<title>Node10&#45;&gt;Node8</title>
<path fill="none" stroke="midnightblue" d="M200.27,-114.42C224.53,-105.34 262.03,-91.31 289.19,-81.15"/>
<polygon fill="midnightblue" stroke="midnightblue" points="290.55,-84.38 298.69,-77.6 288.1,-77.82 290.55,-84.38"/>
</g>
</g>
</svg>
