<?xml version="1.0" encoding="UTF-8" standalone="no"?>
<!DOCTYPE svg PUBLIC "-//W3C//DTD SVG 1.1//EN"
 "http://www.w3.org/Graphics/SVG/1.1/DTD/svg11.dtd">
<!-- Generated by graphviz version 3.0.0 (20220413.0242)
 -->
<!-- Title: libmirai/public/libmirai/Messages/MarketFaceMessage.hpp Pages: 1 -->
<svg width="515pt" height="269pt"
 viewBox="0.00 0.00 515.00 269.00" xmlns="http://www.w3.org/2000/svg" xmlns:xlink="http://www.w3.org/1999/xlink">
<g id="graph0" class="graph" transform="scale(1 1) rotate(0) translate(4 265)">
<title>libmirai/public/libmirai/Messages/MarketFaceMessage.hpp</title>
<!-- Node1 -->
<g id="node1" class="node">
<title>Node1</title>
<g id="a_node1"><a xlink:title=" ">
<polygon fill="#bfbfbf" stroke="black" points="0,-228.5 0,-260.5 194,-260.5 194,-228.5 0,-228.5"/>
<text text-anchor="start" x="8" y="-247.7" font-family="-apple-system, BlinkMacSystemFont, 'Segoe UI', Roboto, Oxygen, Ubuntu, Cantarell, 'Fira Sans', 'Droid Sans', 'Helvetica Neue', sans-serif" font-size="11.00">libmirai/public/libmirai</text>
<text text-anchor="middle" x="97" y="-235.7" font-family="-apple-system, BlinkMacSystemFont, 'Segoe UI', Roboto, Oxygen, Ubuntu, Cantarell, 'Fira Sans', 'Droid Sans', 'Helvetica Neue', sans-serif" font-size="11.00">/Messages/MarketFaceMessage.hpp</text>
</a>
</g>
</g>
<!-- Node2 -->
<g id="node2" class="node">
<title>Node2</title>
<g id="a_node2"><a xlink:title=" ">
<polygon fill="none" stroke="#bfbfbf" points="41.5,-57.5 41.5,-77.5 84.5,-77.5 84.5,-57.5 41.5,-57.5"/>
<text text-anchor="middle" x="63" y="-64.7" font-family="-apple-system, BlinkMacSystemFont, 'Segoe UI', Roboto, Oxygen, Ubuntu, Cantarell, 'Fira Sans', 'Droid Sans', 'Helvetica Neue', sans-serif" font-size="11.00">string</text>
</a>
</g>
</g>
<!-- Node1&#45;&gt;Node2 -->
<g id="edge1" class="edge">
<title>Node1&#45;&gt;Node2</title>
<path fill="none" stroke="midnightblue" d="M94.04,-228.28C87.83,-196.31 73.45,-122.28 66.67,-87.37"/>
<polygon fill="midnightblue" stroke="midnightblue" points="70.09,-86.66 64.75,-77.51 63.22,-87.99 70.09,-86.66"/>
</g>
<!-- Node3 -->
<g id="node3" class="node">
<title>Node3</title>
<g id="a_node3"><a xlink:title=" ">
<polygon fill="none" stroke="#bfbfbf" points="156.5,-0.5 156.5,-20.5 287.5,-20.5 287.5,-0.5 156.5,-0.5"/>
<text text-anchor="middle" x="222" y="-7.7" font-family="-apple-system, BlinkMacSystemFont, 'Segoe UI', Roboto, Oxygen, Ubuntu, Cantarell, 'Fira Sans', 'Droid Sans', 'Helvetica Neue', sans-serif" font-size="11.00">nlohmann/json_fwd.hpp</text>
</a>
</g>
</g>
<!-- Node1&#45;&gt;Node3 -->
<g id="edge2" class="edge">
<title>Node1&#45;&gt;Node3</title>
<path fill="none" stroke="midnightblue" d="M82.93,-228.36C53.09,-194.39 -10.47,-110.84 32,-57 46.38,-38.76 99.75,-27.02 146.28,-20.04"/>
<polygon fill="midnightblue" stroke="midnightblue" points="147,-23.47 156.39,-18.58 146,-16.54 147,-23.47"/>
</g>
<!-- Node4 -->
<g id="node4" class="node">
<title>Node4</title>
<g id="a_node4"><a xlink:href="BasicTypes_8hpp.html" target="_top" xlink:title=" ">
<polygon fill="none" stroke="black" points="337,-114.5 337,-134.5 499,-134.5 499,-114.5 337,-114.5"/>
<text text-anchor="middle" x="418" y="-121.7" font-family="-apple-system, BlinkMacSystemFont, 'Segoe UI', Roboto, Oxygen, Ubuntu, Cantarell, 'Fira Sans', 'Droid Sans', 'Helvetica Neue', sans-serif" font-size="11.00">libmirai/Types/BasicTypes.hpp</text>
</a>
</g>
</g>
<!-- Node1&#45;&gt;Node4 -->
<g id="edge3" class="edge">
<title>Node1&#45;&gt;Node4</title>
<path fill="none" stroke="midnightblue" d="M137.98,-228.44C201.89,-204.94 324.13,-160.01 383.69,-138.11"/>
<polygon fill="midnightblue" stroke="midnightblue" points="385.19,-141.29 393.37,-134.55 382.78,-134.72 385.19,-141.29"/>
</g>
<!-- Node8 -->
<g id="node8" class="node">
<title>Node8</title>
<g id="a_node8"><a xlink:href="FaceMessage_8hpp.html" target="_top" xlink:title=" ">
<polygon fill="none" stroke="black" points="104.5,-171.5 104.5,-191.5 209.5,-191.5 209.5,-171.5 104.5,-171.5"/>
<text text-anchor="middle" x="157" y="-178.7" font-family="-apple-system, BlinkMacSystemFont, 'Segoe UI', Roboto, Oxygen, Ubuntu, Cantarell, 'Fira Sans', 'Droid Sans', 'Helvetica Neue', sans-serif" font-size="11.00">FaceMessage.hpp</text>
</a>
</g>
</g>
<!-- Node1&#45;&gt;Node8 -->
<g id="edge10" class="edge">
<title>Node1&#45;&gt;Node8</title>
<path fill="none" stroke="midnightblue" d="M111.83,-228.42C120.64,-219.47 131.8,-208.12 140.83,-198.94"/>
<polygon fill="midnightblue" stroke="midnightblue" points="143.59,-201.13 148.1,-191.55 138.59,-196.22 143.59,-201.13"/>
</g>
<!-- Node4&#45;&gt;Node2 -->
<g id="edge6" class="edge">
<title>Node4&#45;&gt;Node2</title>
<path fill="none" stroke="midnightblue" d="M359.78,-114.48C284.07,-102.75 154.47,-82.67 94.79,-73.43"/>
<polygon fill="midnightblue" stroke="midnightblue" points="95.24,-69.95 84.83,-71.88 94.17,-76.87 95.24,-69.95"/>
</g>
<!-- Node4&#45;&gt;Node3 -->
<g id="edge7" class="edge">
<title>Node4&#45;&gt;Node3</title>
<path fill="none" stroke="midnightblue" d="M409.91,-114.11C397.31,-99.99 371.66,-73.22 345,-57 320.72,-42.23 290.88,-31.05 266.67,-23.46"/>
<polygon fill="midnightblue" stroke="midnightblue" points="267.6,-20.09 257.02,-20.54 265.57,-26.79 267.6,-20.09"/>
</g>
<!-- Node5 -->
<g id="node5" class="node">
<title>Node5</title>
<g id="a_node5"><a xlink:title=" ">
<polygon fill="none" stroke="#bfbfbf" points="457,-57.5 457,-77.5 507,-77.5 507,-57.5 457,-57.5"/>
<text text-anchor="middle" x="482" y="-64.7" font-family="-apple-system, BlinkMacSystemFont, 'Segoe UI', Roboto, Oxygen, Ubuntu, Cantarell, 'Fira Sans', 'Droid Sans', 'Helvetica Neue', sans-serif" font-size="11.00">chrono</text>
</a>
</g>
</g>
<!-- Node4&#45;&gt;Node5 -->
<g id="edge4" class="edge">
<title>Node4&#45;&gt;Node5</title>
<path fill="none" stroke="midnightblue" d="M428.57,-114.42C438.05,-106.27 452.19,-94.12 463.54,-84.37"/>
<polygon fill="midnightblue" stroke="midnightblue" points="465.9,-86.95 471.2,-77.78 461.34,-81.64 465.9,-86.95"/>
</g>
<!-- Node6 -->
<g id="node6" class="node">
<title>Node6</title>
<g id="a_node6"><a xlink:title=" ">
<polygon fill="none" stroke="#bfbfbf" points="397,-57.5 397,-77.5 439,-77.5 439,-57.5 397,-57.5"/>
<text text-anchor="middle" x="418" y="-64.7" font-family="-apple-system, BlinkMacSystemFont, 'Segoe UI', Roboto, Oxygen, Ubuntu, Cantarell, 'Fira Sans', 'Droid Sans', 'Helvetica Neue', sans-serif" font-size="11.00">ctime</text>
</a>
</g>
</g>
<!-- Node4&#45;&gt;Node6 -->
<g id="edge5" class="edge">
<title>Node4&#45;&gt;Node6</title>
<path fill="none" stroke="midnightblue" d="M418,-114.42C418,-107.22 418,-96.9 418,-87.86"/>
<polygon fill="midnightblue" stroke="midnightblue" points="421.5,-87.78 418,-77.78 414.5,-87.78 421.5,-87.78"/>
</g>
<!-- Node7 -->
<g id="node7" class="node">
<title>Node7</title>
<g id="a_node7"><a xlink:href="Serializable_8hpp.html" target="_top" xlink:title=" ">
<polygon fill="none" stroke="black" points="141,-57.5 141,-77.5 303,-77.5 303,-57.5 141,-57.5"/>
<text text-anchor="middle" x="222" y="-64.7" font-family="-apple-system, BlinkMacSystemFont, 'Segoe UI', Roboto, Oxygen, Ubuntu, Cantarell, 'Fira Sans', 'Droid Sans', 'Helvetica Neue', sans-serif" font-size="11.00">libmirai/Types/Serializable.hpp</text>
</a>
</g>
</g>
<!-- Node4&#45;&gt;Node7 -->
<g id="edge8" class="edge">
<title>Node4&#45;&gt;Node7</title>
<path fill="none" stroke="midnightblue" d="M385.63,-114.42C352.34,-105.08 300.34,-90.48 263.92,-80.26"/>
<polygon fill="midnightblue" stroke="midnightblue" points="264.66,-76.84 254.09,-77.5 262.77,-83.58 264.66,-76.84"/>
</g>
<!-- Node7&#45;&gt;Node3 -->
<g id="edge9" class="edge">
<title>Node7&#45;&gt;Node3</title>
<path fill="none" stroke="midnightblue" d="M222,-57.42C222,-50.22 222,-39.9 222,-30.86"/>
<polygon fill="midnightblue" stroke="midnightblue" points="225.5,-30.78 222,-20.78 218.5,-30.78 225.5,-30.78"/>
</g>
<!-- Node8&#45;&gt;Node2 -->
<g id="edge11" class="edge">
<title>Node8&#45;&gt;Node2</title>
<path fill="none" stroke="midnightblue" d="M147.82,-171.35C138.91,-162.34 125.14,-148.07 114,-135 100.35,-118.98 85.85,-99.84 75.81,-86.21"/>
<polygon fill="midnightblue" stroke="midnightblue" points="78.37,-83.78 69.64,-77.77 72.71,-87.91 78.37,-83.78"/>
</g>
<!-- Node8&#45;&gt;Node3 -->
<g id="edge12" class="edge">
<title>Node8&#45;&gt;Node3</title>
<path fill="none" stroke="midnightblue" d="M186.25,-171.42C223.8,-157.96 287.08,-128.66 312,-78 324.41,-52.78 294.06,-34.83 265.31,-23.99"/>
<polygon fill="midnightblue" stroke="midnightblue" points="266.28,-20.62 255.69,-20.58 263.95,-27.22 266.28,-20.62"/>
</g>
<!-- Node9 -->
<g id="node9" class="node">
<title>Node9</title>
<g id="a_node9"><a xlink:href="MessageBase_8hpp.html" target="_top" xlink:title=" ">
<polygon fill="none" stroke="red" points="123,-114.5 123,-134.5 229,-134.5 229,-114.5 123,-114.5"/>
<text text-anchor="middle" x="176" y="-121.7" font-family="-apple-system, BlinkMacSystemFont, 'Segoe UI', Roboto, Oxygen, Ubuntu, Cantarell, 'Fira Sans', 'Droid Sans', 'Helvetica Neue', sans-serif" font-size="11.00">MessageBase.hpp</text>
</a>
</g>
</g>
<!-- Node8&#45;&gt;Node9 -->
<g id="edge13" class="edge">
<title>Node8&#45;&gt;Node9</title>
<path fill="none" stroke="midnightblue" d="M160.14,-171.42C162.68,-164.06 166.35,-153.44 169.52,-144.27"/>
<polygon fill="midnightblue" stroke="midnightblue" points="172.84,-145.37 172.79,-134.78 166.22,-143.09 172.84,-145.37"/>
</g>
<!-- Node9&#45;&gt;Node2 -->
<g id="edge14" class="edge">
<title>Node9&#45;&gt;Node2</title>
<path fill="none" stroke="midnightblue" d="M157.34,-114.42C139.27,-105.62 111.63,-92.17 90.93,-82.1"/>
<polygon fill="midnightblue" stroke="midnightblue" points="92.21,-78.83 81.69,-77.6 89.15,-85.12 92.21,-78.83"/>
</g>
<!-- Node9&#45;&gt;Node3 -->
<g id="edge15" class="edge">
<title>Node9&#45;&gt;Node3</title>
<path fill="none" stroke="midnightblue" d="M162.35,-114.37C145.11,-101.67 119.16,-77.87 132,-57 141.51,-41.54 158.07,-31.14 174.42,-24.24"/>
<polygon fill="midnightblue" stroke="midnightblue" points="175.89,-27.42 183.96,-20.57 173.37,-20.89 175.89,-27.42"/>
</g>
<!-- Node9&#45;&gt;Node7 -->
<g id="edge16" class="edge">
<title>Node9&#45;&gt;Node7</title>
<path fill="none" stroke="midnightblue" d="M183.6,-114.42C190.15,-106.58 199.79,-95.06 207.77,-85.51"/>
<polygon fill="midnightblue" stroke="midnightblue" points="210.51,-87.7 214.24,-77.78 205.14,-83.2 210.51,-87.7"/>
</g>
</g>
</svg>
