<?xml version="1.0" encoding="UTF-8" standalone="no"?>
<!DOCTYPE svg PUBLIC "-//W3C//DTD SVG 1.1//EN"
 "http://www.w3.org/Graphics/SVG/1.1/DTD/svg11.dtd">
<!-- Generated by graphviz version 3.0.0 (20220413.0242)
 -->
<!-- Title: libmirai/public/libmirai/Types/MediaTypes.hpp Pages: 1 -->
<svg width="751pt" height="386pt"
 viewBox="0.00 0.00 751.34 386.00" xmlns="http://www.w3.org/2000/svg" xmlns:xlink="http://www.w3.org/1999/xlink">
<g id="graph0" class="graph" transform="scale(1 1) rotate(0) translate(4 382)">
<title>libmirai/public/libmirai/Types/MediaTypes.hpp</title>
<!-- Node1 -->
<g id="node1" class="node">
<title>Node1</title>
<g id="a_node1"><a xlink:title=" ">
<polygon fill="#bfbfbf" stroke="black" points="221.5,-345.5 221.5,-377.5 352.5,-377.5 352.5,-345.5 221.5,-345.5"/>
<text text-anchor="start" x="229.5" y="-364.7" font-family="-apple-system, BlinkMacSystemFont, 'Segoe UI', Roboto, Oxygen, Ubuntu, Cantarell, 'Fira Sans', 'Droid Sans', 'Helvetica Neue', sans-serif" font-size="11.00">libmirai/public/libmirai</text>
<text text-anchor="middle" x="287" y="-352.7" font-family="-apple-system, BlinkMacSystemFont, 'Segoe UI', Roboto, Oxygen, Ubuntu, Cantarell, 'Fira Sans', 'Droid Sans', 'Helvetica Neue', sans-serif" font-size="11.00">/Types/MediaTypes.hpp</text>
</a>
</g>
</g>
<!-- Node2 -->
<g id="node2" class="node">
<title>Node2</title>
<g id="a_node2"><a xlink:href="AudioMessage_8hpp.html" target="_top" xlink:title=" ">
<polygon fill="none" stroke="black" points="123,-207.5 123,-239.5 287,-239.5 287,-207.5 123,-207.5"/>
<text text-anchor="start" x="131" y="-226.7" font-family="-apple-system, BlinkMacSystemFont, 'Segoe UI', Roboto, Oxygen, Ubuntu, Cantarell, 'Fira Sans', 'Droid Sans', 'Helvetica Neue', sans-serif" font-size="11.00">libmirai/public/libmirai</text>
<text text-anchor="middle" x="205" y="-214.7" font-family="-apple-system, BlinkMacSystemFont, 'Segoe UI', Roboto, Oxygen, Ubuntu, Cantarell, 'Fira Sans', 'Droid Sans', 'Helvetica Neue', sans-serif" font-size="11.00">/Messages/AudioMessage.hpp</text>
</a>
</g>
</g>
<!-- Node1&#45;&gt;Node2 -->
<g id="edge1" class="edge">
<title>Node1&#45;&gt;Node2</title>
<path fill="none" stroke="midnightblue" d="M272.63,-336.67C255.77,-308.71 228.32,-263.17 214.13,-239.64"/>
<polygon fill="midnightblue" stroke="midnightblue" points="269.75,-338.67 277.91,-345.43 275.75,-335.05 269.75,-338.67"/>
</g>
<!-- Node36 -->
<g id="node9" class="node">
<title>Node36</title>
<g id="a_node9"><a xlink:href="ImageMessage_8hpp.html" target="_top" xlink:title=" ">
<polygon fill="none" stroke="black" points="315,-276.5 315,-308.5 481,-308.5 481,-276.5 315,-276.5"/>
<text text-anchor="start" x="323" y="-295.7" font-family="-apple-system, BlinkMacSystemFont, 'Segoe UI', Roboto, Oxygen, Ubuntu, Cantarell, 'Fira Sans', 'Droid Sans', 'Helvetica Neue', sans-serif" font-size="11.00">libmirai/public/libmirai</text>
<text text-anchor="middle" x="398" y="-283.7" font-family="-apple-system, BlinkMacSystemFont, 'Segoe UI', Roboto, Oxygen, Ubuntu, Cantarell, 'Fira Sans', 'Droid Sans', 'Helvetica Neue', sans-serif" font-size="11.00">/Messages/ImageMessage.hpp</text>
</a>
</g>
</g>
<!-- Node1&#45;&gt;Node36 -->
<g id="edge11" class="edge">
<title>Node1&#45;&gt;Node36</title>
<path fill="none" stroke="midnightblue" d="M320.84,-340.08C337.57,-329.98 357.41,-318 372.79,-308.72"/>
<polygon fill="midnightblue" stroke="midnightblue" points="318.66,-337.3 311.91,-345.46 322.28,-343.29 318.66,-337.3"/>
</g>
<!-- Node40 -->
<g id="node12" class="node">
<title>Node40</title>
<g id="a_node12"><a xlink:href="MediaTypes_8cpp.html" target="_top" xlink:title=" ">
<polygon fill="none" stroke="black" points="499.5,-276.5 499.5,-308.5 630.5,-308.5 630.5,-276.5 499.5,-276.5"/>
<text text-anchor="start" x="507.5" y="-295.7" font-family="-apple-system, BlinkMacSystemFont, 'Segoe UI', Roboto, Oxygen, Ubuntu, Cantarell, 'Fira Sans', 'Droid Sans', 'Helvetica Neue', sans-serif" font-size="11.00">libmirai/public/libmirai</text>
<text text-anchor="middle" x="565" y="-283.7" font-family="-apple-system, BlinkMacSystemFont, 'Segoe UI', Roboto, Oxygen, Ubuntu, Cantarell, 'Fira Sans', 'Droid Sans', 'Helvetica Neue', sans-serif" font-size="11.00">/Types/MediaTypes.cpp</text>
</a>
</g>
</g>
<!-- Node1&#45;&gt;Node40 -->
<g id="edge18" class="edge">
<title>Node1&#45;&gt;Node40</title>
<path fill="none" stroke="midnightblue" d="M359.24,-343.09C403.6,-332.4 459.86,-318.84 502.34,-308.6"/>
<polygon fill="midnightblue" stroke="midnightblue" points="358.29,-339.72 349.39,-345.46 359.93,-346.52 358.29,-339.72"/>
</g>
<!-- Node41 -->
<g id="node13" class="node">
<title>Node41</title>
<g id="a_node13"><a xlink:href="Types_8hpp.html" target="_top" xlink:title=" ">
<polygon fill="none" stroke="black" points="0,-138.5 0,-170.5 118,-170.5 118,-138.5 0,-138.5"/>
<text text-anchor="start" x="8" y="-157.7" font-family="-apple-system, BlinkMacSystemFont, 'Segoe UI', Roboto, Oxygen, Ubuntu, Cantarell, 'Fira Sans', 'Droid Sans', 'Helvetica Neue', sans-serif" font-size="11.00">libmirai/public/libmirai</text>
<text text-anchor="middle" x="59" y="-145.7" font-family="-apple-system, BlinkMacSystemFont, 'Segoe UI', Roboto, Oxygen, Ubuntu, Cantarell, 'Fira Sans', 'Droid Sans', 'Helvetica Neue', sans-serif" font-size="11.00">/Types/Types.hpp</text>
</a>
</g>
</g>
<!-- Node1&#45;&gt;Node41 -->
<g id="edge19" class="edge">
<title>Node1&#45;&gt;Node41</title>
<path fill="none" stroke="midnightblue" d="M249.74,-340.28C212.44,-318.8 154.86,-282.16 114,-240 93.41,-218.76 76.04,-188.74 66.61,-170.78"/>
<polygon fill="midnightblue" stroke="midnightblue" points="248.34,-343.51 258.76,-345.41 251.8,-337.42 248.34,-343.51"/>
</g>
<!-- Node3 -->
<g id="node3" class="node">
<title>Node3</title>
<g id="a_node3"><a xlink:href="AudioMessage_8cpp.html" target="_top" xlink:title=" ">
<polygon fill="none" stroke="black" points="136.5,-138.5 136.5,-170.5 299.5,-170.5 299.5,-138.5 136.5,-138.5"/>
<text text-anchor="start" x="144.5" y="-157.7" font-family="-apple-system, BlinkMacSystemFont, 'Segoe UI', Roboto, Oxygen, Ubuntu, Cantarell, 'Fira Sans', 'Droid Sans', 'Helvetica Neue', sans-serif" font-size="11.00">libmirai/public/libmirai</text>
<text text-anchor="middle" x="218" y="-145.7" font-family="-apple-system, BlinkMacSystemFont, 'Segoe UI', Roboto, Oxygen, Ubuntu, Cantarell, 'Fira Sans', 'Droid Sans', 'Helvetica Neue', sans-serif" font-size="11.00">/Messages/AudioMessage.cpp</text>
</a>
</g>
</g>
<!-- Node2&#45;&gt;Node3 -->
<g id="edge2" class="edge">
<title>Node2&#45;&gt;Node3</title>
<path fill="none" stroke="midnightblue" d="M209.89,-197.32C211.63,-188.34 213.53,-178.51 215.06,-170.64"/>
<polygon fill="midnightblue" stroke="midnightblue" points="206.42,-196.81 207.95,-207.3 213.29,-198.15 206.42,-196.81"/>
</g>
<!-- Node4 -->
<g id="node4" class="node">
<title>Node4</title>
<g id="a_node4"><a xlink:href="MessageChain_8hpp.html" target="_top" xlink:title=" ">
<polygon fill="none" stroke="red" points="356,-138.5 356,-170.5 520,-170.5 520,-138.5 356,-138.5"/>
<text text-anchor="start" x="364" y="-157.7" font-family="-apple-system, BlinkMacSystemFont, 'Segoe UI', Roboto, Oxygen, Ubuntu, Cantarell, 'Fira Sans', 'Droid Sans', 'Helvetica Neue', sans-serif" font-size="11.00">libmirai/public/libmirai</text>
<text text-anchor="middle" x="438" y="-145.7" font-family="-apple-system, BlinkMacSystemFont, 'Segoe UI', Roboto, Oxygen, Ubuntu, Cantarell, 'Fira Sans', 'Droid Sans', 'Helvetica Neue', sans-serif" font-size="11.00">/Messages/MessageChain.hpp</text>
</a>
</g>
</g>
<!-- Node2&#45;&gt;Node4 -->
<g id="edge3" class="edge">
<title>Node2&#45;&gt;Node4</title>
<path fill="none" stroke="midnightblue" d="M266.96,-204.68C303.91,-194.06 350.33,-180.71 385.48,-170.6"/>
<polygon fill="midnightblue" stroke="midnightblue" points="265.93,-201.34 257.29,-207.46 267.87,-208.06 265.93,-201.34"/>
</g>
<!-- Node33 -->
<g id="node8" class="node">
<title>Node33</title>
<g id="a_node8"><a xlink:href="Messages_8hpp.html" target="_top" xlink:title=" ">
<polygon fill="none" stroke="red" points="367.5,-69.5 367.5,-101.5 508.5,-101.5 508.5,-69.5 367.5,-69.5"/>
<text text-anchor="start" x="375.5" y="-88.7" font-family="-apple-system, BlinkMacSystemFont, 'Segoe UI', Roboto, Oxygen, Ubuntu, Cantarell, 'Fira Sans', 'Droid Sans', 'Helvetica Neue', sans-serif" font-size="11.00">libmirai/public/libmirai</text>
<text text-anchor="middle" x="438" y="-76.7" font-family="-apple-system, BlinkMacSystemFont, 'Segoe UI', Roboto, Oxygen, Ubuntu, Cantarell, 'Fira Sans', 'Droid Sans', 'Helvetica Neue', sans-serif" font-size="11.00">/Messages/Messages.hpp</text>
</a>
</g>
</g>
<!-- Node2&#45;&gt;Node33 -->
<g id="edge10" class="edge">
<title>Node2&#45;&gt;Node33</title>
<path fill="none" stroke="midnightblue" d="M250.15,-203.22C268.95,-194.42 290.64,-183.23 309,-171 327.62,-158.6 328.73,-150.91 347,-138 366.42,-124.28 389.8,-111.11 407.99,-101.53"/>
<polygon fill="midnightblue" stroke="midnightblue" points="248.53,-200.12 240.9,-207.47 251.45,-206.48 248.53,-200.12"/>
</g>
<!-- Node5 -->
<g id="node5" class="node">
<title>Node5</title>
<g id="a_node5"><a xlink:href="Client_8cpp.html" target="_top" xlink:title=" ">
<polygon fill="none" stroke="black" points="110,-0.5 110,-32.5 228,-32.5 228,-0.5 110,-0.5"/>
<text text-anchor="start" x="118" y="-19.7" font-family="-apple-system, BlinkMacSystemFont, 'Segoe UI', Roboto, Oxygen, Ubuntu, Cantarell, 'Fira Sans', 'Droid Sans', 'Helvetica Neue', sans-serif" font-size="11.00">libmirai/public/libmirai</text>
<text text-anchor="middle" x="169" y="-7.7" font-family="-apple-system, BlinkMacSystemFont, 'Segoe UI', Roboto, Oxygen, Ubuntu, Cantarell, 'Fira Sans', 'Droid Sans', 'Helvetica Neue', sans-serif" font-size="11.00">/Api/Client.cpp</text>
</a>
</g>
</g>
<!-- Node4&#45;&gt;Node5 -->
<g id="edge4" class="edge">
<title>Node4&#45;&gt;Node5</title>
<path fill="none" stroke="midnightblue" d="M399.23,-133.9C345.07,-106.52 247.92,-57.4 198.95,-32.64"/>
<polygon fill="midnightblue" stroke="midnightblue" points="397.68,-137.04 408.18,-138.43 400.84,-130.79 397.68,-137.04"/>
</g>
<!-- Node6 -->
<g id="node6" class="node">
<title>Node6</title>
<g id="a_node6"><a xlink:href="Client_8hpp.html" target="_top" xlink:title=" ">
<polygon fill="none" stroke="black" points="126,-69.5 126,-101.5 244,-101.5 244,-69.5 126,-69.5"/>
<text text-anchor="start" x="134" y="-88.7" font-family="-apple-system, BlinkMacSystemFont, 'Segoe UI', Roboto, Oxygen, Ubuntu, Cantarell, 'Fira Sans', 'Droid Sans', 'Helvetica Neue', sans-serif" font-size="11.00">libmirai/public/libmirai</text>
<text text-anchor="middle" x="185" y="-76.7" font-family="-apple-system, BlinkMacSystemFont, 'Segoe UI', Roboto, Oxygen, Ubuntu, Cantarell, 'Fira Sans', 'Droid Sans', 'Helvetica Neue', sans-serif" font-size="11.00">/Api/Client.hpp</text>
</a>
</g>
</g>
<!-- Node4&#45;&gt;Node6 -->
<g id="edge5" class="edge">
<title>Node4&#45;&gt;Node6</title>
<path fill="none" stroke="midnightblue" d="M371.49,-135.89C331.24,-125.23 280.44,-111.77 242.03,-101.6"/>
<polygon fill="midnightblue" stroke="midnightblue" points="370.66,-139.29 381.22,-138.46 372.45,-132.52 370.66,-139.29"/>
</g>
<!-- Node4&#45;&gt;Node33 -->
<g id="edge8" class="edge">
<title>Node4&#45;&gt;Node33</title>
<path fill="none" stroke="midnightblue" d="M438,-128.02C438,-119.13 438,-109.43 438,-101.64"/>
<polygon fill="midnightblue" stroke="midnightblue" points="434.5,-128.3 438,-138.3 441.5,-128.3 434.5,-128.3"/>
</g>
<!-- Node6&#45;&gt;Node5 -->
<g id="edge6" class="edge">
<title>Node6&#45;&gt;Node5</title>
<path fill="none" stroke="midnightblue" d="M178.99,-59.32C176.84,-50.34 174.5,-40.51 172.62,-32.64"/>
<polygon fill="midnightblue" stroke="midnightblue" points="175.64,-60.38 181.37,-69.3 182.45,-58.76 175.64,-60.38"/>
</g>
<!-- Node7 -->
<g id="node7" class="node">
<title>Node7</title>
<g id="a_node7"><a xlink:href="mirai_8hpp.html" target="_top" xlink:title=" ">
<polygon fill="none" stroke="red" points="246,-0.5 246,-32.5 364,-32.5 364,-0.5 246,-0.5"/>
<text text-anchor="start" x="254" y="-19.7" font-family="-apple-system, BlinkMacSystemFont, 'Segoe UI', Roboto, Oxygen, Ubuntu, Cantarell, 'Fira Sans', 'Droid Sans', 'Helvetica Neue', sans-serif" font-size="11.00">libmirai/public/libmirai</text>
<text text-anchor="middle" x="305" y="-7.7" font-family="-apple-system, BlinkMacSystemFont, 'Segoe UI', Roboto, Oxygen, Ubuntu, Cantarell, 'Fira Sans', 'Droid Sans', 'Helvetica Neue', sans-serif" font-size="11.00">/mirai.hpp</text>
</a>
</g>
</g>
<!-- Node6&#45;&gt;Node7 -->
<g id="edge7" class="edge">
<title>Node6&#45;&gt;Node7</title>
<path fill="none" stroke="midnightblue" d="M221.08,-64.36C239.27,-54.2 260.97,-42.08 277.74,-32.72"/>
<polygon fill="midnightblue" stroke="midnightblue" points="218.96,-61.53 211.93,-69.46 222.37,-67.64 218.96,-61.53"/>
</g>
<!-- Node33&#45;&gt;Node7 -->
<g id="edge9" class="edge">
<title>Node33&#45;&gt;Node7</title>
<path fill="none" stroke="midnightblue" d="M399.12,-64.91C378.74,-54.65 354.14,-42.26 335.21,-32.72"/>
<polygon fill="midnightblue" stroke="midnightblue" points="397.65,-68.09 408.15,-69.46 400.8,-61.84 397.65,-68.09"/>
</g>
<!-- Node36&#45;&gt;Node4 -->
<g id="edge16" class="edge">
<title>Node36&#45;&gt;Node4</title>
<path fill="none" stroke="midnightblue" d="M361.31,-270.32C350.84,-262.28 340.73,-252.09 335,-240 328.72,-226.75 327.29,-219.48 335,-207 345.56,-189.91 363.71,-178.3 381.85,-170.5"/>
<polygon fill="midnightblue" stroke="midnightblue" points="359.53,-273.35 369.7,-276.31 363.59,-267.65 359.53,-273.35"/>
</g>
<!-- Node36&#45;&gt;Node33 -->
<g id="edge17" class="edge">
<title>Node36&#45;&gt;Node33</title>
<path fill="none" stroke="midnightblue" d="M491.31,-276.23C558.51,-268.78 695.04,-278.35 728,-240 796.6,-160.19 615.15,-115.63 508.83,-97.01"/>
<polygon fill="midnightblue" stroke="midnightblue" points="490.59,-272.79 481.14,-277.58 491.52,-279.73 490.59,-272.79"/>
</g>
<!-- Node37 -->
<g id="node10" class="node">
<title>Node37</title>
<g id="a_node10"><a xlink:href="FlashImageMessage_8hpp.html" target="_top" xlink:title=" ">
<polygon fill="none" stroke="red" points="527,-207.5 527,-239.5 719,-239.5 719,-207.5 527,-207.5"/>
<text text-anchor="start" x="535" y="-226.7" font-family="-apple-system, BlinkMacSystemFont, 'Segoe UI', Roboto, Oxygen, Ubuntu, Cantarell, 'Fira Sans', 'Droid Sans', 'Helvetica Neue', sans-serif" font-size="11.00">libmirai/public/libmirai</text>
<text text-anchor="middle" x="623" y="-214.7" font-family="-apple-system, BlinkMacSystemFont, 'Segoe UI', Roboto, Oxygen, Ubuntu, Cantarell, 'Fira Sans', 'Droid Sans', 'Helvetica Neue', sans-serif" font-size="11.00">/Messages/FlashImageMessage.hpp</text>
</a>
</g>
</g>
<!-- Node36&#45;&gt;Node37 -->
<g id="edge12" class="edge">
<title>Node36&#45;&gt;Node37</title>
<path fill="none" stroke="midnightblue" d="M458.29,-273.55C493.9,-262.94 538.49,-249.67 572.29,-239.6"/>
<polygon fill="midnightblue" stroke="midnightblue" points="457.08,-270.26 448.49,-276.46 459.08,-276.96 457.08,-270.26"/>
</g>
<!-- Node39 -->
<g id="node11" class="node">
<title>Node39</title>
<g id="a_node11"><a xlink:href="ImageMessage_8cpp.html" target="_top" xlink:title=" ">
<polygon fill="none" stroke="black" points="343.5,-207.5 343.5,-239.5 508.5,-239.5 508.5,-207.5 343.5,-207.5"/>
<text text-anchor="start" x="351.5" y="-226.7" font-family="-apple-system, BlinkMacSystemFont, 'Segoe UI', Roboto, Oxygen, Ubuntu, Cantarell, 'Fira Sans', 'Droid Sans', 'Helvetica Neue', sans-serif" font-size="11.00">libmirai/public/libmirai</text>
<text text-anchor="middle" x="426" y="-214.7" font-family="-apple-system, BlinkMacSystemFont, 'Segoe UI', Roboto, Oxygen, Ubuntu, Cantarell, 'Fira Sans', 'Droid Sans', 'Helvetica Neue', sans-serif" font-size="11.00">/Messages/ImageMessage.cpp</text>
</a>
</g>
</g>
<!-- Node36&#45;&gt;Node39 -->
<g id="edge15" class="edge">
<title>Node36&#45;&gt;Node39</title>
<path fill="none" stroke="midnightblue" d="M408.28,-266.9C412.1,-257.77 416.31,-247.69 419.67,-239.64"/>
<polygon fill="midnightblue" stroke="midnightblue" points="404.98,-265.72 404.35,-276.3 411.44,-268.42 404.98,-265.72"/>
</g>
<!-- Node37&#45;&gt;Node4 -->
<g id="edge13" class="edge">
<title>Node37&#45;&gt;Node4</title>
<path fill="none" stroke="midnightblue" d="M571.92,-204C542.9,-193.49 507.01,-180.49 479.7,-170.6"/>
<polygon fill="midnightblue" stroke="midnightblue" points="570.89,-207.35 581.48,-207.46 573.27,-200.77 570.89,-207.35"/>
</g>
<!-- Node37&#45;&gt;Node33 -->
<g id="edge14" class="edge">
<title>Node37&#45;&gt;Node33</title>
<path fill="none" stroke="midnightblue" d="M600.96,-200.15C582.62,-182.2 555.34,-156.95 529,-138 509.84,-124.22 486.68,-111.15 468.51,-101.63"/>
<polygon fill="midnightblue" stroke="midnightblue" points="598.67,-202.81 608.24,-207.36 603.59,-197.84 598.67,-202.81"/>
</g>
<!-- Node41&#45;&gt;Node5 -->
<g id="edge20" class="edge">
<title>Node41&#45;&gt;Node5</title>
<path fill="none" stroke="midnightblue" d="M73.58,-129.77C84.68,-112.34 100.78,-88.42 117,-69 127.91,-55.93 141.65,-42.43 152.26,-32.54"/>
<polygon fill="midnightblue" stroke="midnightblue" points="70.61,-127.9 68.25,-138.23 76.54,-131.63 70.61,-127.9"/>
</g>
<!-- Node41&#45;&gt;Node6 -->
<g id="edge21" class="edge">
<title>Node41&#45;&gt;Node6</title>
<path fill="none" stroke="midnightblue" d="M96.36,-133.64C115.56,-123.42 138.61,-111.17 156.38,-101.72"/>
<polygon fill="midnightblue" stroke="midnightblue" points="94.46,-130.68 87.28,-138.46 97.75,-136.86 94.46,-130.68"/>
</g>
<!-- Node41&#45;&gt;Node7 -->
<g id="edge22" class="edge">
<title>Node41&#45;&gt;Node7</title>
<path fill="none" stroke="midnightblue" d="M127.87,-136.5C181.5,-123.05 247.73,-105.91 253,-102 276.91,-84.22 292.25,-51.88 299.69,-32.78"/>
<polygon fill="midnightblue" stroke="midnightblue" points="126.88,-133.14 118.02,-138.96 128.57,-139.93 126.88,-133.14"/>
</g>
</g>
</svg>
