<?xml version="1.0" encoding="UTF-8" standalone="no"?>
<!DOCTYPE svg PUBLIC "-//W3C//DTD SVG 1.1//EN"
 "http://www.w3.org/Graphics/SVG/1.1/DTD/svg11.dtd">
<!-- Generated by graphviz version 3.0.0 (20220413.0242)
 -->
<!-- Title: libmirai/public/libmirai/Types/MediaTypes.cpp Pages: 1 -->
<svg width="808pt" height="269pt"
 viewBox="0.00 0.00 807.50 269.00" xmlns="http://www.w3.org/2000/svg" xmlns:xlink="http://www.w3.org/1999/xlink">
<g id="graph0" class="graph" transform="scale(1 1) rotate(0) translate(4 265)">
<title>libmirai/public/libmirai/Types/MediaTypes.cpp</title>
<!-- Node1 -->
<g id="node1" class="node">
<title>Node1</title>
<g id="a_node1"><a xlink:title=" ">
<polygon fill="#bfbfbf" stroke="black" points="438,-228.5 438,-260.5 569,-260.5 569,-228.5 438,-228.5"/>
<text text-anchor="start" x="446" y="-247.7" font-family="-apple-system, BlinkMacSystemFont, 'Segoe UI', Roboto, Oxygen, Ubuntu, Cantarell, 'Fira Sans', 'Droid Sans', 'Helvetica Neue', sans-serif" font-size="11.00">libmirai/public/libmirai</text>
<text text-anchor="middle" x="503.5" y="-235.7" font-family="-apple-system, BlinkMacSystemFont, 'Segoe UI', Roboto, Oxygen, Ubuntu, Cantarell, 'Fira Sans', 'Droid Sans', 'Helvetica Neue', sans-serif" font-size="11.00">/Types/MediaTypes.cpp</text>
</a>
</g>
</g>
<!-- Node2 -->
<g id="node2" class="node">
<title>Node2</title>
<g id="a_node2"><a xlink:href="MediaTypes_8hpp.html" target="_top" xlink:title=" ">
<polygon fill="none" stroke="black" points="323.5,-171.5 323.5,-191.5 419.5,-191.5 419.5,-171.5 323.5,-171.5"/>
<text text-anchor="middle" x="371.5" y="-178.7" font-family="-apple-system, BlinkMacSystemFont, 'Segoe UI', Roboto, Oxygen, Ubuntu, Cantarell, 'Fira Sans', 'Droid Sans', 'Helvetica Neue', sans-serif" font-size="11.00">MediaTypes.hpp</text>
</a>
</g>
</g>
<!-- Node1&#45;&gt;Node2 -->
<g id="edge1" class="edge">
<title>Node1&#45;&gt;Node2</title>
<path fill="none" stroke="midnightblue" d="M470.87,-228.42C449.25,-218.43 421.15,-205.45 400.35,-195.83"/>
<polygon fill="midnightblue" stroke="midnightblue" points="401.62,-192.56 391.07,-191.55 398.68,-198.92 401.62,-192.56"/>
</g>
<!-- Node4 -->
<g id="node4" class="node">
<title>Node4</title>
<g id="a_node4"><a xlink:title=" ">
<polygon fill="none" stroke="#bfbfbf" points="437.5,-114.5 437.5,-134.5 493.5,-134.5 493.5,-114.5 437.5,-114.5"/>
<text text-anchor="middle" x="465.5" y="-121.7" font-family="-apple-system, BlinkMacSystemFont, 'Segoe UI', Roboto, Oxygen, Ubuntu, Cantarell, 'Fira Sans', 'Droid Sans', 'Helvetica Neue', sans-serif" font-size="11.00">memory</text>
</a>
</g>
</g>
<!-- Node1&#45;&gt;Node4 -->
<g id="edge16" class="edge">
<title>Node1&#45;&gt;Node4</title>
<path fill="none" stroke="midnightblue" d="M498.53,-228.07C491.62,-206.61 479.11,-167.76 471.63,-144.53"/>
<polygon fill="midnightblue" stroke="midnightblue" points="474.89,-143.24 468.49,-134.79 468.23,-145.38 474.89,-143.24"/>
</g>
<!-- Node5 -->
<g id="node5" class="node">
<title>Node5</title>
<g id="a_node5"><a xlink:title=" ">
<polygon fill="none" stroke="#bfbfbf" points="511.5,-114.5 511.5,-134.5 565.5,-134.5 565.5,-114.5 511.5,-114.5"/>
<text text-anchor="middle" x="538.5" y="-121.7" font-family="-apple-system, BlinkMacSystemFont, 'Segoe UI', Roboto, Oxygen, Ubuntu, Cantarell, 'Fira Sans', 'Droid Sans', 'Helvetica Neue', sans-serif" font-size="11.00">optional</text>
</a>
</g>
</g>
<!-- Node1&#45;&gt;Node5 -->
<g id="edge17" class="edge">
<title>Node1&#45;&gt;Node5</title>
<path fill="none" stroke="midnightblue" d="M507.07,-228.4C510.65,-213.67 516.48,-190.66 522.5,-171 525.19,-162.2 528.52,-152.58 531.44,-144.45"/>
<polygon fill="midnightblue" stroke="midnightblue" points="534.81,-145.43 534.96,-134.84 528.24,-143.02 534.81,-145.43"/>
</g>
<!-- Node12 -->
<g id="node11" class="node">
<title>Node12</title>
<g id="a_node11"><a xlink:title=" ">
<polygon fill="none" stroke="#bfbfbf" points="531.5,-171.5 531.5,-191.5 639.5,-191.5 639.5,-171.5 531.5,-171.5"/>
<text text-anchor="middle" x="585.5" y="-178.7" font-family="-apple-system, BlinkMacSystemFont, 'Segoe UI', Roboto, Oxygen, Ubuntu, Cantarell, 'Fira Sans', 'Droid Sans', 'Helvetica Neue', sans-serif" font-size="11.00">nlohmann/json.hpp</text>
</a>
</g>
</g>
<!-- Node1&#45;&gt;Node12 -->
<g id="edge18" class="edge">
<title>Node1&#45;&gt;Node12</title>
<path fill="none" stroke="midnightblue" d="M523.77,-228.42C536.41,-219.02 552.62,-206.96 565.25,-197.56"/>
<polygon fill="midnightblue" stroke="midnightblue" points="567.41,-200.32 573.34,-191.55 563.23,-194.71 567.41,-200.32"/>
</g>
<!-- Node13 -->
<g id="node12" class="node">
<title>Node13</title>
<g id="a_node12"><a xlink:title=" ">
<polygon fill="none" stroke="#bfbfbf" points="657.5,-171.5 657.5,-191.5 799.5,-191.5 799.5,-171.5 657.5,-171.5"/>
<text text-anchor="middle" x="728.5" y="-178.7" font-family="-apple-system, BlinkMacSystemFont, 'Segoe UI', Roboto, Oxygen, Ubuntu, Cantarell, 'Fira Sans', 'Droid Sans', 'Helvetica Neue', sans-serif" font-size="11.00">libmirai/Utils/Common.hpp</text>
</a>
</g>
</g>
<!-- Node1&#45;&gt;Node13 -->
<g id="edge19" class="edge">
<title>Node1&#45;&gt;Node13</title>
<path fill="none" stroke="midnightblue" d="M558.83,-228.5C597.84,-217.92 649.34,-203.96 685.33,-194.2"/>
<polygon fill="midnightblue" stroke="midnightblue" points="686.31,-197.56 695.05,-191.57 684.48,-190.81 686.31,-197.56"/>
</g>
<!-- Node3 -->
<g id="node3" class="node">
<title>Node3</title>
<g id="a_node3"><a xlink:title=" ">
<polygon fill="none" stroke="#bfbfbf" points="277.5,-57.5 277.5,-77.5 319.5,-77.5 319.5,-57.5 277.5,-57.5"/>
<text text-anchor="middle" x="298.5" y="-64.7" font-family="-apple-system, BlinkMacSystemFont, 'Segoe UI', Roboto, Oxygen, Ubuntu, Cantarell, 'Fira Sans', 'Droid Sans', 'Helvetica Neue', sans-serif" font-size="11.00">ctime</text>
</a>
</g>
</g>
<!-- Node2&#45;&gt;Node3 -->
<g id="edge2" class="edge">
<title>Node2&#45;&gt;Node3</title>
<path fill="none" stroke="midnightblue" d="M365.53,-171.33C353.44,-152.79 325.91,-110.55 310.15,-86.37"/>
<polygon fill="midnightblue" stroke="midnightblue" points="312.95,-84.26 304.56,-77.79 307.08,-88.08 312.95,-84.26"/>
</g>
<!-- Node2&#45;&gt;Node4 -->
<g id="edge3" class="edge">
<title>Node2&#45;&gt;Node4</title>
<path fill="none" stroke="midnightblue" d="M387.02,-171.42C401.72,-162.82 424.01,-149.78 441.09,-139.78"/>
<polygon fill="midnightblue" stroke="midnightblue" points="443.09,-142.67 449.95,-134.6 439.56,-136.62 443.09,-142.67"/>
</g>
<!-- Node2&#45;&gt;Node5 -->
<g id="edge4" class="edge">
<title>Node2&#45;&gt;Node5</title>
<path fill="none" stroke="midnightblue" d="M399.08,-171.42C427.16,-162.17 470.88,-147.77 501.86,-137.57"/>
<polygon fill="midnightblue" stroke="midnightblue" points="503.03,-140.87 511.44,-134.41 500.84,-134.22 503.03,-140.87"/>
</g>
<!-- Node6 -->
<g id="node6" class="node">
<title>Node6</title>
<g id="a_node6"><a xlink:title=" ">
<polygon fill="none" stroke="#bfbfbf" points="338,-57.5 338,-77.5 381,-77.5 381,-57.5 338,-57.5"/>
<text text-anchor="middle" x="359.5" y="-64.7" font-family="-apple-system, BlinkMacSystemFont, 'Segoe UI', Roboto, Oxygen, Ubuntu, Cantarell, 'Fira Sans', 'Droid Sans', 'Helvetica Neue', sans-serif" font-size="11.00">string</text>
</a>
</g>
</g>
<!-- Node2&#45;&gt;Node6 -->
<g id="edge5" class="edge">
<title>Node2&#45;&gt;Node6</title>
<path fill="none" stroke="midnightblue" d="M370.52,-171.33C368.58,-153.2 364.2,-112.41 361.59,-88"/>
<polygon fill="midnightblue" stroke="midnightblue" points="365.04,-87.36 360.5,-77.79 358.08,-88.11 365.04,-87.36"/>
</g>
<!-- Node7 -->
<g id="node7" class="node">
<title>Node7</title>
<g id="a_node7"><a xlink:title=" ">
<polygon fill="none" stroke="#bfbfbf" points="0,-57.5 0,-77.5 41,-77.5 41,-57.5 0,-57.5"/>
<text text-anchor="middle" x="20.5" y="-64.7" font-family="-apple-system, BlinkMacSystemFont, 'Segoe UI', Roboto, Oxygen, Ubuntu, Cantarell, 'Fira Sans', 'Droid Sans', 'Helvetica Neue', sans-serif" font-size="11.00">utility</text>
</a>
</g>
</g>
<!-- Node2&#45;&gt;Node7 -->
<g id="edge6" class="edge">
<title>Node2&#45;&gt;Node7</title>
<path fill="none" stroke="midnightblue" d="M323.35,-177.26C272.24,-172.55 189.83,-161.29 123.5,-135 91.61,-122.36 59.06,-99.28 39.31,-83.92"/>
<polygon fill="midnightblue" stroke="midnightblue" points="41.43,-81.14 31.43,-77.66 37.08,-86.62 41.43,-81.14"/>
</g>
<!-- Node8 -->
<g id="node8" class="node">
<title>Node8</title>
<g id="a_node8"><a xlink:title=" ">
<polygon fill="none" stroke="#bfbfbf" points="184,-0.5 184,-20.5 315,-20.5 315,-0.5 184,-0.5"/>
<text text-anchor="middle" x="249.5" y="-7.7" font-family="-apple-system, BlinkMacSystemFont, 'Segoe UI', Roboto, Oxygen, Ubuntu, Cantarell, 'Fira Sans', 'Droid Sans', 'Helvetica Neue', sans-serif" font-size="11.00">nlohmann/json_fwd.hpp</text>
</a>
</g>
</g>
<!-- Node2&#45;&gt;Node8 -->
<g id="edge7" class="edge">
<title>Node2&#45;&gt;Node8</title>
<path fill="none" stroke="midnightblue" d="M376.82,-171.39C388.89,-149.39 415.35,-92.59 389.5,-57 374.38,-36.19 349.51,-24.71 324.9,-18.44"/>
<polygon fill="midnightblue" stroke="midnightblue" points="325.66,-15.03 315.13,-16.21 324.1,-21.85 325.66,-15.03"/>
</g>
<!-- Node9 -->
<g id="node9" class="node">
<title>Node9</title>
<g id="a_node9"><a xlink:href="BasicTypes_8hpp.html" target="_top" xlink:title=" ">
<polygon fill="none" stroke="red" points="143.5,-114.5 143.5,-134.5 305.5,-134.5 305.5,-114.5 143.5,-114.5"/>
<text text-anchor="middle" x="224.5" y="-121.7" font-family="-apple-system, BlinkMacSystemFont, 'Segoe UI', Roboto, Oxygen, Ubuntu, Cantarell, 'Fira Sans', 'Droid Sans', 'Helvetica Neue', sans-serif" font-size="11.00">libmirai/Types/BasicTypes.hpp</text>
</a>
</g>
</g>
<!-- Node2&#45;&gt;Node9 -->
<g id="edge8" class="edge">
<title>Node2&#45;&gt;Node9</title>
<path fill="none" stroke="midnightblue" d="M347.23,-171.42C322.97,-162.34 285.47,-148.31 258.31,-138.15"/>
<polygon fill="midnightblue" stroke="midnightblue" points="259.4,-134.82 248.81,-134.6 256.95,-141.38 259.4,-134.82"/>
</g>
<!-- Node11 -->
<g id="node10" class="node">
<title>Node11</title>
<g id="a_node10"><a xlink:href="Serializable_8hpp.html" target="_top" xlink:title=" ">
<polygon fill="none" stroke="black" points="59.5,-57.5 59.5,-77.5 221.5,-77.5 221.5,-57.5 59.5,-57.5"/>
<text text-anchor="middle" x="140.5" y="-64.7" font-family="-apple-system, BlinkMacSystemFont, 'Segoe UI', Roboto, Oxygen, Ubuntu, Cantarell, 'Fira Sans', 'Droid Sans', 'Helvetica Neue', sans-serif" font-size="11.00">libmirai/Types/Serializable.hpp</text>
</a>
</g>
</g>
<!-- Node2&#45;&gt;Node11 -->
<g id="edge15" class="edge">
<title>Node2&#45;&gt;Node11</title>
<path fill="none" stroke="midnightblue" d="M323.41,-178.27C261.2,-174.27 157.98,-163.42 134.5,-135 123.69,-121.91 127.21,-102.04 132.2,-87.42"/>
<polygon fill="midnightblue" stroke="midnightblue" points="135.55,-88.47 135.92,-77.88 129.03,-85.93 135.55,-88.47"/>
</g>
<!-- Node9&#45;&gt;Node3 -->
<g id="edge9" class="edge">
<title>Node9&#45;&gt;Node3</title>
<path fill="none" stroke="midnightblue" d="M236.72,-114.42C247.97,-106.06 264.87,-93.5 278.15,-83.62"/>
<polygon fill="midnightblue" stroke="midnightblue" points="280.32,-86.37 286.26,-77.6 276.15,-80.75 280.32,-86.37"/>
</g>
<!-- Node9&#45;&gt;Node6 -->
<g id="edge10" class="edge">
<title>Node9&#45;&gt;Node6</title>
<path fill="none" stroke="midnightblue" d="M246.79,-114.42C269.01,-105.37 303.31,-91.39 328.24,-81.24"/>
<polygon fill="midnightblue" stroke="midnightblue" points="329.68,-84.43 337.62,-77.41 327.04,-77.94 329.68,-84.43"/>
</g>
<!-- Node9&#45;&gt;Node7 -->
<g id="edge11" class="edge">
<title>Node9&#45;&gt;Node7</title>
<path fill="none" stroke="midnightblue" d="M187.69,-114.45C154.44,-106.15 103.95,-93.23 51.02,-78.04"/>
<polygon fill="midnightblue" stroke="midnightblue" points="51.69,-74.59 41.11,-75.18 49.75,-81.32 51.69,-74.59"/>
</g>
<!-- Node9&#45;&gt;Node8 -->
<g id="edge12" class="edge">
<title>Node9&#45;&gt;Node8</title>
<path fill="none" stroke="midnightblue" d="M226.55,-114.33C230.61,-96.12 239.78,-55.04 245.22,-30.67"/>
<polygon fill="midnightblue" stroke="midnightblue" points="248.66,-31.31 247.43,-20.79 241.83,-29.79 248.66,-31.31"/>
</g>
<!-- Node9&#45;&gt;Node11 -->
<g id="edge13" class="edge">
<title>Node9&#45;&gt;Node11</title>
<path fill="none" stroke="midnightblue" d="M210.63,-114.42C197.74,-105.98 178.31,-93.26 163.17,-83.34"/>
<polygon fill="midnightblue" stroke="midnightblue" points="164.67,-80.15 154.39,-77.6 160.84,-86 164.67,-80.15"/>
</g>
<!-- Node11&#45;&gt;Node8 -->
<g id="edge14" class="edge">
<title>Node11&#45;&gt;Node8</title>
<path fill="none" stroke="midnightblue" d="M158.5,-57.42C175.86,-48.66 202.35,-35.29 222.28,-25.23"/>
<polygon fill="midnightblue" stroke="midnightblue" points="224.12,-28.23 231.47,-20.6 220.97,-21.98 224.12,-28.23"/>
</g>
</g>
</svg>
