<?xml version="1.0" encoding="UTF-8" standalone="no"?>
<!DOCTYPE svg PUBLIC "-//W3C//DTD SVG 1.1//EN"
 "http://www.w3.org/Graphics/SVG/1.1/DTD/svg11.dtd">
<!-- Generated by graphviz version 2.43.0 (0)
 -->
<!-- Title: libmirai/public/libmirai/Types/MediaTypes.cpp Pages: 1 -->
<svg width="727pt" height="269pt"
 viewBox="0.00 0.00 727.39 269.00" xmlns="http://www.w3.org/2000/svg" xmlns:xlink="http://www.w3.org/1999/xlink">
<g id="graph0" class="graph" transform="scale(1 1) rotate(0) translate(4 265)">
<title>libmirai/public/libmirai/Types/MediaTypes.cpp</title>
<!-- Node1 -->
<g id="node1" class="node">
<title>Node1</title>
<g id="a_node1"><a xlink:title=" ">
<polygon fill="#bfbfbf" stroke="black" points="317.89,-228.5 317.89,-260.5 460.89,-260.5 460.89,-228.5 317.89,-228.5"/>
<text text-anchor="start" x="325.89" y="-247.7" font-family="-apple-system,BlinkMacSystemFont,'SegoeUI',Roboto,Oxygen,Ubuntu,Cantarell,'FiraSans','DroidSans','HelveticaNeue',sans-serif" font-size="11.00">libmirai/public/libmirai</text>
<text text-anchor="middle" x="389.39" y="-235.7" font-family="-apple-system,BlinkMacSystemFont,'SegoeUI',Roboto,Oxygen,Ubuntu,Cantarell,'FiraSans','DroidSans','HelveticaNeue',sans-serif" font-size="11.00">/Types/MediaTypes.cpp</text>
</a>
</g>
</g>
<!-- Node2 -->
<g id="node2" class="node">
<title>Node2</title>
<g id="a_node2"><a xlink:href="MediaTypes_8hpp.html" target="_top" xlink:title=" ">
<polygon fill="none" stroke="black" points="209.89,-171.5 209.89,-191.5 314.89,-191.5 314.89,-171.5 209.89,-171.5"/>
<text text-anchor="middle" x="262.39" y="-178.7" font-family="-apple-system,BlinkMacSystemFont,'SegoeUI',Roboto,Oxygen,Ubuntu,Cantarell,'FiraSans','DroidSans','HelveticaNeue',sans-serif" font-size="11.00">MediaTypes.hpp</text>
</a>
</g>
</g>
<!-- Node1&#45;&gt;Node2 -->
<g id="edge1" class="edge">
<title>Node1&#45;&gt;Node2</title>
<path fill="none" stroke="midnightblue" d="M358,-228.42C337.3,-218.48 310.41,-205.56 290.43,-195.96"/>
<polygon fill="midnightblue" stroke="midnightblue" points="291.76,-192.72 281.23,-191.55 288.73,-199.03 291.76,-192.72"/>
</g>
<!-- Node4 -->
<g id="node4" class="node">
<title>Node4</title>
<g id="a_node4"><a xlink:title=" ">
<polygon fill="none" stroke="#bfbfbf" points="320.39,-114.5 320.39,-134.5 382.39,-134.5 382.39,-114.5 320.39,-114.5"/>
<text text-anchor="middle" x="351.39" y="-121.7" font-family="-apple-system,BlinkMacSystemFont,'SegoeUI',Roboto,Oxygen,Ubuntu,Cantarell,'FiraSans','DroidSans','HelveticaNeue',sans-serif" font-size="11.00">memory</text>
</a>
</g>
</g>
<!-- Node1&#45;&gt;Node4 -->
<g id="edge14" class="edge">
<title>Node1&#45;&gt;Node4</title>
<path fill="none" stroke="midnightblue" d="M384.43,-228.07C377.51,-206.61 365,-167.76 357.52,-144.53"/>
<polygon fill="midnightblue" stroke="midnightblue" points="360.78,-143.24 354.39,-134.79 354.12,-145.38 360.78,-143.24"/>
</g>
<!-- Node5 -->
<g id="node5" class="node">
<title>Node5</title>
<g id="a_node5"><a xlink:title=" ">
<polygon fill="none" stroke="#bfbfbf" points="400.89,-114.5 400.89,-134.5 461.89,-134.5 461.89,-114.5 400.89,-114.5"/>
<text text-anchor="middle" x="431.39" y="-121.7" font-family="-apple-system,BlinkMacSystemFont,'SegoeUI',Roboto,Oxygen,Ubuntu,Cantarell,'FiraSans','DroidSans','HelveticaNeue',sans-serif" font-size="11.00">optional</text>
</a>
</g>
</g>
<!-- Node1&#45;&gt;Node5 -->
<g id="edge15" class="edge">
<title>Node1&#45;&gt;Node5</title>
<path fill="none" stroke="midnightblue" d="M392.75,-228.25C396.22,-213.4 402.13,-190.31 409.39,-171 412.86,-161.78 417.53,-151.89 421.66,-143.69"/>
<polygon fill="midnightblue" stroke="midnightblue" points="424.83,-145.18 426.34,-134.69 418.62,-141.95 424.83,-145.18"/>
</g>
<!-- Node11 -->
<g id="node10" class="node">
<title>Node11</title>
<g id="a_node10"><a xlink:title=" ">
<polygon fill="none" stroke="#bfbfbf" points="417.89,-171.5 417.89,-191.5 538.89,-191.5 538.89,-171.5 417.89,-171.5"/>
<text text-anchor="middle" x="478.39" y="-178.7" font-family="-apple-system,BlinkMacSystemFont,'SegoeUI',Roboto,Oxygen,Ubuntu,Cantarell,'FiraSans','DroidSans','HelveticaNeue',sans-serif" font-size="11.00">nlohmann/json.hpp</text>
</a>
</g>
</g>
<!-- Node1&#45;&gt;Node11 -->
<g id="edge16" class="edge">
<title>Node1&#45;&gt;Node11</title>
<path fill="none" stroke="midnightblue" d="M411.39,-228.42C425.25,-218.93 443.04,-206.73 456.81,-197.29"/>
<polygon fill="midnightblue" stroke="midnightblue" points="458.93,-200.09 465.2,-191.55 454.97,-194.31 458.93,-200.09"/>
</g>
<!-- Node12 -->
<g id="node11" class="node">
<title>Node12</title>
<g id="a_node11"><a xlink:title=" ">
<polygon fill="none" stroke="#bfbfbf" points="557.39,-171.5 557.39,-191.5 719.39,-191.5 719.39,-171.5 557.39,-171.5"/>
<text text-anchor="middle" x="638.39" y="-178.7" font-family="-apple-system,BlinkMacSystemFont,'SegoeUI',Roboto,Oxygen,Ubuntu,Cantarell,'FiraSans','DroidSans','HelveticaNeue',sans-serif" font-size="11.00">libmirai/Utils/Common.hpp</text>
</a>
</g>
</g>
<!-- Node1&#45;&gt;Node12 -->
<g id="edge17" class="edge">
<title>Node1&#45;&gt;Node12</title>
<path fill="none" stroke="midnightblue" d="M450.63,-228.5C494.17,-217.83 551.77,-203.72 591.64,-193.95"/>
<polygon fill="midnightblue" stroke="midnightblue" points="592.49,-197.35 601.37,-191.57 590.83,-190.55 592.49,-197.35"/>
</g>
<!-- Node3 -->
<g id="node3" class="node">
<title>Node3</title>
<g id="a_node3"><a xlink:title=" ">
<polygon fill="none" stroke="#bfbfbf" points="123.89,-57.5 123.89,-77.5 170.89,-77.5 170.89,-57.5 123.89,-57.5"/>
<text text-anchor="middle" x="147.39" y="-64.7" font-family="-apple-system,BlinkMacSystemFont,'SegoeUI',Roboto,Oxygen,Ubuntu,Cantarell,'FiraSans','DroidSans','HelveticaNeue',sans-serif" font-size="11.00">ctime</text>
</a>
</g>
</g>
<!-- Node2&#45;&gt;Node3 -->
<g id="edge2" class="edge">
<title>Node2&#45;&gt;Node3</title>
<path fill="none" stroke="midnightblue" d="M260.6,-171.25C257.47,-157.31 249.83,-130.78 234.39,-114 219.89,-98.23 198.65,-86.98 180.79,-79.6"/>
<polygon fill="midnightblue" stroke="midnightblue" points="181.86,-76.27 171.27,-75.91 179.33,-82.79 181.86,-76.27"/>
</g>
<!-- Node2&#45;&gt;Node4 -->
<g id="edge3" class="edge">
<title>Node2&#45;&gt;Node4</title>
<path fill="none" stroke="midnightblue" d="M277.09,-171.42C290.88,-162.9 311.72,-150.02 327.83,-140.06"/>
<polygon fill="midnightblue" stroke="midnightblue" points="330.01,-142.83 336.68,-134.6 326.33,-136.88 330.01,-142.83"/>
</g>
<!-- Node2&#45;&gt;Node5 -->
<g id="edge4" class="edge">
<title>Node2&#45;&gt;Node5</title>
<path fill="none" stroke="midnightblue" d="M290.3,-171.42C318.64,-162.19 362.7,-147.86 394.04,-137.66"/>
<polygon fill="midnightblue" stroke="midnightblue" points="395.3,-140.93 403.73,-134.5 393.14,-134.27 395.3,-140.93"/>
</g>
<!-- Node6 -->
<g id="node6" class="node">
<title>Node6</title>
<g id="a_node6"><a xlink:title=" ">
<polygon fill="none" stroke="#bfbfbf" points="19.39,-57.5 19.39,-77.5 67.39,-77.5 67.39,-57.5 19.39,-57.5"/>
<text text-anchor="middle" x="43.39" y="-64.7" font-family="-apple-system,BlinkMacSystemFont,'SegoeUI',Roboto,Oxygen,Ubuntu,Cantarell,'FiraSans','DroidSans','HelveticaNeue',sans-serif" font-size="11.00">string</text>
</a>
</g>
</g>
<!-- Node2&#45;&gt;Node6 -->
<g id="edge5" class="edge">
<title>Node2&#45;&gt;Node6</title>
<path fill="none" stroke="midnightblue" d="M209.82,-177.47C149.77,-172.79 57.02,-161.39 35.39,-135 24.6,-121.83 28.78,-101.96 34.32,-87.37"/>
<polygon fill="midnightblue" stroke="midnightblue" points="37.68,-88.42 38.41,-77.85 31.25,-85.66 37.68,-88.42"/>
</g>
<!-- Node7 -->
<g id="node7" class="node">
<title>Node7</title>
<g id="a_node7"><a xlink:title=" ">
<polygon fill="none" stroke="#bfbfbf" points="22.39,-0.5 22.39,-20.5 168.39,-20.5 168.39,-0.5 22.39,-0.5"/>
<text text-anchor="middle" x="95.39" y="-7.7" font-family="-apple-system,BlinkMacSystemFont,'SegoeUI',Roboto,Oxygen,Ubuntu,Cantarell,'FiraSans','DroidSans','HelveticaNeue',sans-serif" font-size="11.00">nlohmann/json_fwd.hpp</text>
</a>
</g>
</g>
<!-- Node2&#45;&gt;Node7 -->
<g id="edge6" class="edge">
<title>Node2&#45;&gt;Node7</title>
<path fill="none" stroke="midnightblue" d="M209.75,-176.85C148.24,-171.51 51.53,-159.42 25.39,-135 -0.4,-110.9 -7.74,-87.28 10.39,-57 19.44,-41.9 35.4,-31.53 51.07,-24.54"/>
<polygon fill="midnightblue" stroke="midnightblue" points="52.77,-27.63 60.72,-20.62 50.14,-21.14 52.77,-27.63"/>
</g>
<!-- Node8 -->
<g id="node8" class="node">
<title>Node8</title>
<g id="a_node8"><a xlink:href="BasicTypes_8hpp.html" target="_top" xlink:title=" ">
<polygon fill="none" stroke="red" points="44.89,-114.5 44.89,-134.5 225.89,-134.5 225.89,-114.5 44.89,-114.5"/>
<text text-anchor="middle" x="135.39" y="-121.7" font-family="-apple-system,BlinkMacSystemFont,'SegoeUI',Roboto,Oxygen,Ubuntu,Cantarell,'FiraSans','DroidSans','HelveticaNeue',sans-serif" font-size="11.00">libmirai/Types/BasicTypes.hpp</text>
</a>
</g>
</g>
<!-- Node2&#45;&gt;Node8 -->
<g id="edge7" class="edge">
<title>Node2&#45;&gt;Node8</title>
<path fill="none" stroke="midnightblue" d="M241.42,-171.42C220.83,-162.5 189.2,-148.8 165.85,-138.69"/>
<polygon fill="midnightblue" stroke="midnightblue" points="166.96,-135.36 156.4,-134.6 164.18,-141.78 166.96,-135.36"/>
</g>
<!-- Node10 -->
<g id="node9" class="node">
<title>Node10</title>
<g id="a_node9"><a xlink:href="Serializable_8hpp.html" target="_top" xlink:title=" ">
<polygon fill="none" stroke="black" points="188.89,-57.5 188.89,-77.5 371.89,-77.5 371.89,-57.5 188.89,-57.5"/>
<text text-anchor="middle" x="280.39" y="-64.7" font-family="-apple-system,BlinkMacSystemFont,'SegoeUI',Roboto,Oxygen,Ubuntu,Cantarell,'FiraSans','DroidSans','HelveticaNeue',sans-serif" font-size="11.00">libmirai/Types/Serializable.hpp</text>
</a>
</g>
</g>
<!-- Node2&#45;&gt;Node10 -->
<g id="edge13" class="edge">
<title>Node2&#45;&gt;Node10</title>
<path fill="none" stroke="midnightblue" d="M263.87,-171.33C266.8,-153.12 273.4,-112.04 277.31,-87.67"/>
<polygon fill="midnightblue" stroke="midnightblue" points="280.77,-88.22 278.9,-77.79 273.86,-87.11 280.77,-88.22"/>
</g>
<!-- Node8&#45;&gt;Node3 -->
<g id="edge8" class="edge">
<title>Node8&#45;&gt;Node3</title>
<path fill="none" stroke="midnightblue" d="M137.38,-114.42C138.97,-107.14 141.25,-96.67 143.24,-87.57"/>
<polygon fill="midnightblue" stroke="midnightblue" points="146.66,-88.3 145.37,-77.78 139.82,-86.8 146.66,-88.3"/>
</g>
<!-- Node8&#45;&gt;Node6 -->
<g id="edge9" class="edge">
<title>Node8&#45;&gt;Node6</title>
<path fill="none" stroke="midnightblue" d="M120.2,-114.42C105.82,-105.82 84,-92.78 67.29,-82.78"/>
<polygon fill="midnightblue" stroke="midnightblue" points="68.99,-79.72 58.61,-77.6 65.4,-85.73 68.99,-79.72"/>
</g>
<!-- Node8&#45;&gt;Node7 -->
<g id="edge10" class="edge">
<title>Node8&#45;&gt;Node7</title>
<path fill="none" stroke="midnightblue" d="M130.62,-114.27C126.06,-105.2 119.18,-90.89 114.39,-78 108.59,-62.35 103.48,-44.08 100.03,-30.65"/>
<polygon fill="midnightblue" stroke="midnightblue" points="103.36,-29.53 97.54,-20.68 96.57,-31.23 103.36,-29.53"/>
</g>
<!-- Node8&#45;&gt;Node10 -->
<g id="edge11" class="edge">
<title>Node8&#45;&gt;Node10</title>
<path fill="none" stroke="midnightblue" d="M159.34,-114.42C183.27,-105.34 220.25,-91.31 247.05,-81.15"/>
<polygon fill="midnightblue" stroke="midnightblue" points="248.31,-84.41 256.42,-77.6 245.82,-77.87 248.31,-84.41"/>
</g>
<!-- Node10&#45;&gt;Node7 -->
<g id="edge12" class="edge">
<title>Node10&#45;&gt;Node7</title>
<path fill="none" stroke="midnightblue" d="M249.85,-57.42C218.55,-48.12 169.76,-33.61 135.4,-23.39"/>
<polygon fill="midnightblue" stroke="midnightblue" points="136.26,-20 125.68,-20.5 134.27,-26.71 136.26,-20"/>
</g>
</g>
</svg>
