<?xml version="1.0" encoding="UTF-8" standalone="no"?>
<!DOCTYPE svg PUBLIC "-//W3C//DTD SVG 1.1//EN"
 "http://www.w3.org/Graphics/SVG/1.1/DTD/svg11.dtd">
<!-- Generated by graphviz version 2.43.0 (0)
 -->
<!-- Title: libmirai/public/libmirai/Types/MediaTypes.hpp Pages: 1 -->
<svg width="489pt" height="212pt"
 viewBox="0.00 0.00 488.64 212.00" xmlns="http://www.w3.org/2000/svg" xmlns:xlink="http://www.w3.org/1999/xlink">
<g id="graph0" class="graph" transform="scale(1 1) rotate(0) translate(4 208)">
<title>libmirai/public/libmirai/Types/MediaTypes.hpp</title>
<!-- Node1 -->
<g id="node1" class="node">
<title>Node1</title>
<g id="a_node1"><a xlink:title=" ">
<polygon fill="#bfbfbf" stroke="black" points="120.14,-171.5 120.14,-203.5 264.14,-203.5 264.14,-171.5 120.14,-171.5"/>
<text text-anchor="start" x="128.14" y="-190.7" font-family="-apple-system,BlinkMacSystemFont,'SegoeUI',Roboto,Oxygen,Ubuntu,Cantarell,'FiraSans','DroidSans','HelveticaNeue',sans-serif" font-size="11.00">libmirai/public/libmirai</text>
<text text-anchor="middle" x="192.14" y="-178.7" font-family="-apple-system,BlinkMacSystemFont,'SegoeUI',Roboto,Oxygen,Ubuntu,Cantarell,'FiraSans','DroidSans','HelveticaNeue',sans-serif" font-size="11.00">/Types/MediaTypes.hpp</text>
</a>
</g>
</g>
<!-- Node2 -->
<g id="node2" class="node">
<title>Node2</title>
<g id="a_node2"><a xlink:title=" ">
<polygon fill="none" stroke="#bfbfbf" points="11.64,-57.5 11.64,-77.5 58.64,-77.5 58.64,-57.5 11.64,-57.5"/>
<text text-anchor="middle" x="35.14" y="-64.7" font-family="-apple-system,BlinkMacSystemFont,'SegoeUI',Roboto,Oxygen,Ubuntu,Cantarell,'FiraSans','DroidSans','HelveticaNeue',sans-serif" font-size="11.00">ctime</text>
</a>
</g>
</g>
<!-- Node1&#45;&gt;Node2 -->
<g id="edge1" class="edge">
<title>Node1&#45;&gt;Node2</title>
<path fill="none" stroke="midnightblue" d="M147.55,-171.39C126.56,-162.86 102.05,-150.72 83.14,-135 66.94,-121.54 53.44,-101.44 44.92,-86.87"/>
<polygon fill="midnightblue" stroke="midnightblue" points="47.79,-84.82 39.85,-77.8 41.68,-88.24 47.79,-84.82"/>
</g>
<!-- Node3 -->
<g id="node3" class="node">
<title>Node3</title>
<g id="a_node3"><a xlink:title=" ">
<polygon fill="none" stroke="#bfbfbf" points="339.14,-114.5 339.14,-134.5 401.14,-134.5 401.14,-114.5 339.14,-114.5"/>
<text text-anchor="middle" x="370.14" y="-121.7" font-family="-apple-system,BlinkMacSystemFont,'SegoeUI',Roboto,Oxygen,Ubuntu,Cantarell,'FiraSans','DroidSans','HelveticaNeue',sans-serif" font-size="11.00">memory</text>
</a>
</g>
</g>
<!-- Node1&#45;&gt;Node3 -->
<g id="edge2" class="edge">
<title>Node1&#45;&gt;Node3</title>
<path fill="none" stroke="midnightblue" d="M236.14,-171.42C266.34,-161.07 305.93,-147.5 334.23,-137.8"/>
<polygon fill="midnightblue" stroke="midnightblue" points="335.41,-141.1 343.74,-134.55 333.14,-134.48 335.41,-141.1"/>
</g>
<!-- Node4 -->
<g id="node4" class="node">
<title>Node4</title>
<g id="a_node4"><a xlink:title=" ">
<polygon fill="none" stroke="#bfbfbf" points="419.64,-114.5 419.64,-134.5 480.64,-134.5 480.64,-114.5 419.64,-114.5"/>
<text text-anchor="middle" x="450.14" y="-121.7" font-family="-apple-system,BlinkMacSystemFont,'SegoeUI',Roboto,Oxygen,Ubuntu,Cantarell,'FiraSans','DroidSans','HelveticaNeue',sans-serif" font-size="11.00">optional</text>
</a>
</g>
</g>
<!-- Node1&#45;&gt;Node4 -->
<g id="edge3" class="edge">
<title>Node1&#45;&gt;Node4</title>
<path fill="none" stroke="midnightblue" d="M256.05,-171.42C297.13,-161.73 351.91,-148.79 409.53,-135.14"/>
<polygon fill="midnightblue" stroke="midnightblue" points="410.64,-138.48 419.56,-132.77 409.02,-131.66 410.64,-138.48"/>
</g>
<!-- Node5 -->
<g id="node5" class="node">
<title>Node5</title>
<g id="a_node5"><a xlink:title=" ">
<polygon fill="none" stroke="#bfbfbf" points="77.14,-57.5 77.14,-77.5 125.14,-77.5 125.14,-57.5 77.14,-57.5"/>
<text text-anchor="middle" x="101.14" y="-64.7" font-family="-apple-system,BlinkMacSystemFont,'SegoeUI',Roboto,Oxygen,Ubuntu,Cantarell,'FiraSans','DroidSans','HelveticaNeue',sans-serif" font-size="11.00">string</text>
</a>
</g>
</g>
<!-- Node1&#45;&gt;Node5 -->
<g id="edge4" class="edge">
<title>Node1&#45;&gt;Node5</title>
<path fill="none" stroke="midnightblue" d="M139.15,-171.47C121.36,-163.61 103.44,-151.98 93.14,-135 84.48,-120.74 88.04,-101.58 92.84,-87.49"/>
<polygon fill="midnightblue" stroke="midnightblue" points="96.21,-88.46 96.57,-77.87 89.69,-85.93 96.21,-88.46"/>
</g>
<!-- Node6 -->
<g id="node6" class="node">
<title>Node6</title>
<g id="a_node6"><a xlink:title=" ">
<polygon fill="none" stroke="#bfbfbf" points="80.14,-0.5 80.14,-20.5 226.14,-20.5 226.14,-0.5 80.14,-0.5"/>
<text text-anchor="middle" x="153.14" y="-7.7" font-family="-apple-system,BlinkMacSystemFont,'SegoeUI',Roboto,Oxygen,Ubuntu,Cantarell,'FiraSans','DroidSans','HelveticaNeue',sans-serif" font-size="11.00">nlohmann/json_fwd.hpp</text>
</a>
</g>
</g>
<!-- Node1&#45;&gt;Node6 -->
<g id="edge5" class="edge">
<title>Node1&#45;&gt;Node6</title>
<path fill="none" stroke="midnightblue" d="M127.71,-171.43C81.58,-156.57 24.06,-128.51 3.14,-78 -11.04,-43.77 27.91,-27.15 69.66,-19.09"/>
<polygon fill="midnightblue" stroke="midnightblue" points="70.49,-22.5 79.73,-17.31 69.28,-15.61 70.49,-22.5"/>
</g>
<!-- Node7 -->
<g id="node7" class="node">
<title>Node7</title>
<g id="a_node7"><a xlink:href="BasicTypes_8hpp.html" target="_top" xlink:title=" ">
<polygon fill="none" stroke="black" points="101.64,-114.5 101.64,-134.5 282.64,-134.5 282.64,-114.5 101.64,-114.5"/>
<text text-anchor="middle" x="192.14" y="-121.7" font-family="-apple-system,BlinkMacSystemFont,'SegoeUI',Roboto,Oxygen,Ubuntu,Cantarell,'FiraSans','DroidSans','HelveticaNeue',sans-serif" font-size="11.00">libmirai/Types/BasicTypes.hpp</text>
</a>
</g>
</g>
<!-- Node1&#45;&gt;Node7 -->
<g id="edge6" class="edge">
<title>Node1&#45;&gt;Node7</title>
<path fill="none" stroke="midnightblue" d="M192.14,-171.42C192.14,-163.38 192.14,-153.39 192.14,-144.78"/>
<polygon fill="midnightblue" stroke="midnightblue" points="195.64,-144.55 192.14,-134.55 188.64,-144.55 195.64,-144.55"/>
</g>
<!-- Node9 -->
<g id="node9" class="node">
<title>Node9</title>
<g id="a_node9"><a xlink:href="Serializable_8hpp.html" target="_top" xlink:title=" ">
<polygon fill="none" stroke="black" points="253.64,-57.5 253.64,-77.5 436.64,-77.5 436.64,-57.5 253.64,-57.5"/>
<text text-anchor="middle" x="345.14" y="-64.7" font-family="-apple-system,BlinkMacSystemFont,'SegoeUI',Roboto,Oxygen,Ubuntu,Cantarell,'FiraSans','DroidSans','HelveticaNeue',sans-serif" font-size="11.00">libmirai/Types/Serializable.hpp</text>
</a>
</g>
</g>
<!-- Node1&#45;&gt;Node9 -->
<g id="edge13" class="edge">
<title>Node1&#45;&gt;Node9</title>
<path fill="none" stroke="midnightblue" d="M230.5,-171.36C250.14,-162.51 273.71,-150.1 292.14,-135 309.18,-121.03 324.37,-100.73 334.07,-86.24"/>
<polygon fill="midnightblue" stroke="midnightblue" points="337.12,-87.98 339.62,-77.69 331.24,-84.17 337.12,-87.98"/>
</g>
<!-- Node7&#45;&gt;Node2 -->
<g id="edge8" class="edge">
<title>Node7&#45;&gt;Node2</title>
<path fill="none" stroke="midnightblue" d="M166.21,-114.42C139.49,-105.06 97.72,-90.42 68.54,-80.2"/>
<polygon fill="midnightblue" stroke="midnightblue" points="69.38,-76.79 58.79,-76.79 67.07,-83.39 69.38,-76.79"/>
</g>
<!-- Node7&#45;&gt;Node5 -->
<g id="edge9" class="edge">
<title>Node7&#45;&gt;Node5</title>
<path fill="none" stroke="midnightblue" d="M177.11,-114.42C162.88,-105.82 141.3,-92.78 124.77,-82.78"/>
<polygon fill="midnightblue" stroke="midnightblue" points="126.55,-79.77 116.18,-77.6 122.93,-85.76 126.55,-79.77"/>
</g>
<!-- Node7&#45;&gt;Node6 -->
<g id="edge10" class="edge">
<title>Node7&#45;&gt;Node6</title>
<path fill="none" stroke="midnightblue" d="M187.62,-114.24C183.3,-105.15 176.76,-90.82 172.14,-78 166.47,-62.29 161.35,-44.03 157.86,-30.62"/>
<polygon fill="midnightblue" stroke="midnightblue" points="161.18,-29.49 155.33,-20.66 154.4,-31.21 161.18,-29.49"/>
</g>
<!-- Node8 -->
<g id="node8" class="node">
<title>Node8</title>
<g id="a_node8"><a xlink:title=" ">
<polygon fill="none" stroke="#bfbfbf" points="181.14,-57.5 181.14,-77.5 235.14,-77.5 235.14,-57.5 181.14,-57.5"/>
<text text-anchor="middle" x="208.14" y="-64.7" font-family="-apple-system,BlinkMacSystemFont,'SegoeUI',Roboto,Oxygen,Ubuntu,Cantarell,'FiraSans','DroidSans','HelveticaNeue',sans-serif" font-size="11.00">chrono</text>
</a>
</g>
</g>
<!-- Node7&#45;&gt;Node8 -->
<g id="edge7" class="edge">
<title>Node7&#45;&gt;Node8</title>
<path fill="none" stroke="midnightblue" d="M194.78,-114.42C196.9,-107.14 199.94,-96.67 202.59,-87.57"/>
<polygon fill="midnightblue" stroke="midnightblue" points="206,-88.36 205.44,-77.78 199.28,-86.4 206,-88.36"/>
</g>
<!-- Node7&#45;&gt;Node9 -->
<g id="edge11" class="edge">
<title>Node7&#45;&gt;Node9</title>
<path fill="none" stroke="midnightblue" d="M217.4,-114.42C242.83,-105.27 282.25,-91.1 310.57,-80.92"/>
<polygon fill="midnightblue" stroke="midnightblue" points="311.86,-84.18 320.09,-77.5 309.49,-77.59 311.86,-84.18"/>
</g>
<!-- Node9&#45;&gt;Node6 -->
<g id="edge12" class="edge">
<title>Node9&#45;&gt;Node6</title>
<path fill="none" stroke="midnightblue" d="M313.43,-57.42C280.82,-48.08 229.88,-33.48 194.2,-23.26"/>
<polygon fill="midnightblue" stroke="midnightblue" points="195.15,-19.89 184.57,-20.5 193.22,-26.62 195.15,-19.89"/>
</g>
</g>
</svg>
