<?xml version="1.0" encoding="UTF-8" standalone="no"?>
<!DOCTYPE svg PUBLIC "-//W3C//DTD SVG 1.1//EN"
 "http://www.w3.org/Graphics/SVG/1.1/DTD/svg11.dtd">
<!-- Generated by graphviz version 3.0.0 (20221109.1736)
 -->
<!-- Title: libmirai/models/libmirai/Types/MediaTypes.hpp Pages: 1 -->
<svg width="435pt" height="155pt"
 viewBox="0.00 0.00 435.00 155.00" xmlns="http://www.w3.org/2000/svg" xmlns:xlink="http://www.w3.org/1999/xlink">
<g id="graph0" class="graph" transform="scale(1 1) rotate(0) translate(4 151)">
<title>libmirai/models/libmirai/Types/MediaTypes.hpp</title>
<!-- Node1 -->
<g id="node1" class="node">
<title>Node1</title>
<g id="a_node1"><a xlink:title=" ">
<polygon fill="#bfbfbf" stroke="black" points="150.5,-114.5 150.5,-146.5 281.5,-146.5 281.5,-114.5 150.5,-114.5"/>
<text text-anchor="start" x="158.5" y="-133.7" font-family="-apple-system, BlinkMacSystemFont, 'Segoe UI', Roboto, Oxygen, Ubuntu, Cantarell, 'Fira Sans', 'Droid Sans', 'Helvetica Neue', sans-serif" font-size="11.00">libmirai/models/libmirai</text>
<text text-anchor="middle" x="216" y="-121.7" font-family="-apple-system, BlinkMacSystemFont, 'Segoe UI', Roboto, Oxygen, Ubuntu, Cantarell, 'Fira Sans', 'Droid Sans', 'Helvetica Neue', sans-serif" font-size="11.00">/Types/MediaTypes.hpp</text>
</a>
</g>
</g>
<!-- Node2 -->
<g id="node2" class="node">
<title>Node2</title>
<g id="a_node2"><a xlink:title=" ">
<polygon fill="none" stroke="#bfbfbf" points="0,-0.5 0,-20.5 42,-20.5 42,-0.5 0,-0.5"/>
<text text-anchor="middle" x="21" y="-7.7" font-family="-apple-system, BlinkMacSystemFont, 'Segoe UI', Roboto, Oxygen, Ubuntu, Cantarell, 'Fira Sans', 'Droid Sans', 'Helvetica Neue', sans-serif" font-size="11.00">ctime</text>
</a>
</g>
</g>
<!-- Node1&#45;&gt;Node2 -->
<g id="edge1" class="edge">
<title>Node1&#45;&gt;Node2</title>
<path fill="none" stroke="midnightblue" d="M150.33,-117.46C121.65,-109.76 88.95,-97.43 64,-78 47.78,-65.37 35.84,-44.81 28.71,-29.89"/>
<polygon fill="midnightblue" stroke="midnightblue" points="31.85,-28.32 24.55,-20.63 25.46,-31.19 31.85,-28.32"/>
</g>
<!-- Node3 -->
<g id="node3" class="node">
<title>Node3</title>
<g id="a_node3"><a xlink:title=" ">
<polygon fill="none" stroke="#bfbfbf" points="299,-57.5 299,-77.5 355,-77.5 355,-57.5 299,-57.5"/>
<text text-anchor="middle" x="327" y="-64.7" font-family="-apple-system, BlinkMacSystemFont, 'Segoe UI', Roboto, Oxygen, Ubuntu, Cantarell, 'Fira Sans', 'Droid Sans', 'Helvetica Neue', sans-serif" font-size="11.00">memory</text>
</a>
</g>
</g>
<!-- Node1&#45;&gt;Node3 -->
<g id="edge2" class="edge">
<title>Node1&#45;&gt;Node3</title>
<path fill="none" stroke="midnightblue" d="M243.44,-114.42C261.21,-104.66 284.18,-92.03 301.54,-82.49"/>
<polygon fill="midnightblue" stroke="midnightblue" points="303.46,-85.43 310.54,-77.55 300.09,-79.29 303.46,-85.43"/>
</g>
<!-- Node4 -->
<g id="node4" class="node">
<title>Node4</title>
<g id="a_node4"><a xlink:title=" ">
<polygon fill="none" stroke="#bfbfbf" points="373,-57.5 373,-77.5 427,-77.5 427,-57.5 373,-57.5"/>
<text text-anchor="middle" x="400" y="-64.7" font-family="-apple-system, BlinkMacSystemFont, 'Segoe UI', Roboto, Oxygen, Ubuntu, Cantarell, 'Fira Sans', 'Droid Sans', 'Helvetica Neue', sans-serif" font-size="11.00">optional</text>
</a>
</g>
</g>
<!-- Node1&#45;&gt;Node4 -->
<g id="edge3" class="edge">
<title>Node1&#45;&gt;Node4</title>
<path fill="none" stroke="midnightblue" d="M261.48,-114.42C292.8,-104.04 333.88,-90.42 363.16,-80.71"/>
<polygon fill="midnightblue" stroke="midnightblue" points="364.59,-83.93 372.98,-77.46 362.39,-77.28 364.59,-83.93"/>
</g>
<!-- Node5 -->
<g id="node5" class="node">
<title>Node5</title>
<g id="a_node5"><a xlink:title=" ">
<polygon fill="none" stroke="#bfbfbf" points="70.5,-0.5 70.5,-20.5 113.5,-20.5 113.5,-0.5 70.5,-0.5"/>
<text text-anchor="middle" x="92" y="-7.7" font-family="-apple-system, BlinkMacSystemFont, 'Segoe UI', Roboto, Oxygen, Ubuntu, Cantarell, 'Fira Sans', 'Droid Sans', 'Helvetica Neue', sans-serif" font-size="11.00">string</text>
</a>
</g>
</g>
<!-- Node1&#45;&gt;Node5 -->
<g id="edge4" class="edge">
<title>Node1&#45;&gt;Node5</title>
<path fill="none" stroke="midnightblue" d="M150.19,-122.82C121.23,-116.23 89.81,-103.29 72,-78 61.75,-63.45 69.98,-43.56 78.78,-29.33"/>
<polygon fill="midnightblue" stroke="midnightblue" points="81.77,-31.16 84.45,-20.91 75.96,-27.25 81.77,-31.16"/>
</g>
<!-- Node6 -->
<g id="node6" class="node">
<title>Node6</title>
<g id="a_node6"><a xlink:title=" ">
<polygon fill="none" stroke="#bfbfbf" points="227.5,-0.5 227.5,-20.5 268.5,-20.5 268.5,-0.5 227.5,-0.5"/>
<text text-anchor="middle" x="248" y="-7.7" font-family="-apple-system, BlinkMacSystemFont, 'Segoe UI', Roboto, Oxygen, Ubuntu, Cantarell, 'Fira Sans', 'Droid Sans', 'Helvetica Neue', sans-serif" font-size="11.00">utility</text>
</a>
</g>
</g>
<!-- Node1&#45;&gt;Node6 -->
<g id="edge5" class="edge">
<title>Node1&#45;&gt;Node6</title>
<path fill="none" stroke="midnightblue" d="M230.48,-114.18C238.52,-104.6 247.74,-91.53 252,-78 256.83,-62.66 255.23,-44.36 252.77,-30.85"/>
<polygon fill="midnightblue" stroke="midnightblue" points="256.13,-29.83 250.61,-20.79 249.28,-31.3 256.13,-29.83"/>
</g>
<!-- Node7 -->
<g id="node7" class="node">
<title>Node7</title>
<g id="a_node7"><a xlink:href="BasicTypes_8hpp.html" target="_top" xlink:title=" ">
<polygon fill="none" stroke="black" points="81,-57.5 81,-77.5 243,-77.5 243,-57.5 81,-57.5"/>
<text text-anchor="middle" x="162" y="-64.7" font-family="-apple-system, BlinkMacSystemFont, 'Segoe UI', Roboto, Oxygen, Ubuntu, Cantarell, 'Fira Sans', 'Droid Sans', 'Helvetica Neue', sans-serif" font-size="11.00">libmirai/Types/BasicTypes.hpp</text>
</a>
</g>
</g>
<!-- Node1&#45;&gt;Node7 -->
<g id="edge6" class="edge">
<title>Node1&#45;&gt;Node7</title>
<path fill="none" stroke="midnightblue" d="M202.65,-114.42C194.81,-105.56 184.88,-94.35 176.8,-85.22"/>
<polygon fill="midnightblue" stroke="midnightblue" points="179.26,-82.71 170.01,-77.55 174.02,-87.35 179.26,-82.71"/>
</g>
<!-- Node7&#45;&gt;Node2 -->
<g id="edge8" class="edge">
<title>Node7&#45;&gt;Node2</title>
<path fill="none" stroke="midnightblue" d="M138.72,-57.42C114.86,-48.11 77.65,-33.6 51.46,-23.38"/>
<polygon fill="midnightblue" stroke="midnightblue" points="52.6,-20.07 42.01,-19.7 50.06,-26.59 52.6,-20.07"/>
</g>
<!-- Node7&#45;&gt;Node5 -->
<g id="edge9" class="edge">
<title>Node7&#45;&gt;Node5</title>
<path fill="none" stroke="midnightblue" d="M150.44,-57.42C139.97,-49.19 124.31,-36.88 111.83,-27.08"/>
<polygon fill="midnightblue" stroke="midnightblue" points="113.84,-24.21 103.81,-20.78 109.51,-29.71 113.84,-24.21"/>
</g>
<!-- Node7&#45;&gt;Node6 -->
<g id="edge10" class="edge">
<title>Node7&#45;&gt;Node6</title>
<path fill="none" stroke="midnightblue" d="M176.2,-57.42C189.52,-48.9 209.67,-36.02 225.23,-26.06"/>
<polygon fill="midnightblue" stroke="midnightblue" points="227.24,-28.93 233.78,-20.6 223.47,-23.03 227.24,-28.93"/>
</g>
<!-- Node8 -->
<g id="node8" class="node">
<title>Node8</title>
<g id="a_node8"><a xlink:title=" ">
<polygon fill="none" stroke="#bfbfbf" points="137,-0.5 137,-20.5 187,-20.5 187,-0.5 137,-0.5"/>
<text text-anchor="middle" x="162" y="-7.7" font-family="-apple-system, BlinkMacSystemFont, 'Segoe UI', Roboto, Oxygen, Ubuntu, Cantarell, 'Fira Sans', 'Droid Sans', 'Helvetica Neue', sans-serif" font-size="11.00">chrono</text>
</a>
</g>
</g>
<!-- Node7&#45;&gt;Node8 -->
<g id="edge7" class="edge">
<title>Node7&#45;&gt;Node8</title>
<path fill="none" stroke="midnightblue" d="M162,-57.42C162,-50.22 162,-39.9 162,-30.86"/>
<polygon fill="midnightblue" stroke="midnightblue" points="165.5,-30.78 162,-20.78 158.5,-30.78 165.5,-30.78"/>
</g>
</g>
</svg>
