<?xml version="1.0" encoding="UTF-8" standalone="no"?>
<!DOCTYPE svg PUBLIC "-//W3C//DTD SVG 1.1//EN"
 "http://www.w3.org/Graphics/SVG/1.1/DTD/svg11.dtd">
<!-- Generated by graphviz version 3.0.0 (20220413.0242)
 -->
<!-- Title: libmirai/public/libmirai/Types/MediaTypes.cpp Pages: 1 -->
<svg width="671pt" height="269pt"
 viewBox="0.00 0.00 671.42 269.00" xmlns="http://www.w3.org/2000/svg" xmlns:xlink="http://www.w3.org/1999/xlink">
<g id="graph0" class="graph" transform="scale(1 1) rotate(0) translate(4 265)">
<title>libmirai/public/libmirai/Types/MediaTypes.cpp</title>
<!-- Node1 -->
<g id="node1" class="node">
<title>Node1</title>
<g id="a_node1"><a xlink:title=" ">
<polygon fill="#bfbfbf" stroke="black" points="301.92,-228.5 301.92,-260.5 432.92,-260.5 432.92,-228.5 301.92,-228.5"/>
<text text-anchor="start" x="309.92" y="-247.7" font-family="-apple-system, BlinkMacSystemFont, 'Segoe UI', Roboto, Oxygen, Ubuntu, Cantarell, 'Fira Sans', 'Droid Sans', 'Helvetica Neue', sans-serif" font-size="11.00">libmirai/public/libmirai</text>
<text text-anchor="middle" x="367.42" y="-235.7" font-family="-apple-system, BlinkMacSystemFont, 'Segoe UI', Roboto, Oxygen, Ubuntu, Cantarell, 'Fira Sans', 'Droid Sans', 'Helvetica Neue', sans-serif" font-size="11.00">/Types/MediaTypes.cpp</text>
</a>
</g>
</g>
<!-- Node2 -->
<g id="node2" class="node">
<title>Node2</title>
<g id="a_node2"><a xlink:href="MediaTypes_8hpp.html" target="_top" xlink:title=" ">
<polygon fill="none" stroke="black" points="196.42,-171.5 196.42,-191.5 292.42,-191.5 292.42,-171.5 196.42,-171.5"/>
<text text-anchor="middle" x="244.42" y="-178.7" font-family="-apple-system, BlinkMacSystemFont, 'Segoe UI', Roboto, Oxygen, Ubuntu, Cantarell, 'Fira Sans', 'Droid Sans', 'Helvetica Neue', sans-serif" font-size="11.00">MediaTypes.hpp</text>
</a>
</g>
</g>
<!-- Node1&#45;&gt;Node2 -->
<g id="edge1" class="edge">
<title>Node1&#45;&gt;Node2</title>
<path fill="none" stroke="midnightblue" d="M337.02,-228.42C317.06,-218.52 291.16,-205.68 271.84,-196.1"/>
<polygon fill="midnightblue" stroke="midnightblue" points="273.18,-192.85 262.66,-191.55 270.07,-199.12 273.18,-192.85"/>
</g>
<!-- Node4 -->
<g id="node4" class="node">
<title>Node4</title>
<g id="a_node4"><a xlink:title=" ">
<polygon fill="none" stroke="#bfbfbf" points="301.42,-114.5 301.42,-134.5 357.42,-134.5 357.42,-114.5 301.42,-114.5"/>
<text text-anchor="middle" x="329.42" y="-121.7" font-family="-apple-system, BlinkMacSystemFont, 'Segoe UI', Roboto, Oxygen, Ubuntu, Cantarell, 'Fira Sans', 'Droid Sans', 'Helvetica Neue', sans-serif" font-size="11.00">memory</text>
</a>
</g>
</g>
<!-- Node1&#45;&gt;Node4 -->
<g id="edge14" class="edge">
<title>Node1&#45;&gt;Node4</title>
<path fill="none" stroke="midnightblue" d="M362.46,-228.07C355.54,-206.61 343.03,-167.76 335.55,-144.53"/>
<polygon fill="midnightblue" stroke="midnightblue" points="338.81,-143.24 332.42,-134.79 332.15,-145.38 338.81,-143.24"/>
</g>
<!-- Node5 -->
<g id="node5" class="node">
<title>Node5</title>
<g id="a_node5"><a xlink:title=" ">
<polygon fill="none" stroke="#bfbfbf" points="375.42,-114.5 375.42,-134.5 429.42,-134.5 429.42,-114.5 375.42,-114.5"/>
<text text-anchor="middle" x="402.42" y="-121.7" font-family="-apple-system, BlinkMacSystemFont, 'Segoe UI', Roboto, Oxygen, Ubuntu, Cantarell, 'Fira Sans', 'Droid Sans', 'Helvetica Neue', sans-serif" font-size="11.00">optional</text>
</a>
</g>
</g>
<!-- Node1&#45;&gt;Node5 -->
<g id="edge15" class="edge">
<title>Node1&#45;&gt;Node5</title>
<path fill="none" stroke="midnightblue" d="M371,-228.4C374.58,-213.67 380.4,-190.66 386.42,-171 389.12,-162.2 392.45,-152.58 395.37,-144.45"/>
<polygon fill="midnightblue" stroke="midnightblue" points="398.74,-145.43 398.89,-134.84 392.16,-143.02 398.74,-145.43"/>
</g>
<!-- Node11 -->
<g id="node10" class="node">
<title>Node11</title>
<g id="a_node10"><a xlink:title=" ">
<polygon fill="none" stroke="#bfbfbf" points="395.42,-171.5 395.42,-191.5 503.42,-191.5 503.42,-171.5 395.42,-171.5"/>
<text text-anchor="middle" x="449.42" y="-178.7" font-family="-apple-system, BlinkMacSystemFont, 'Segoe UI', Roboto, Oxygen, Ubuntu, Cantarell, 'Fira Sans', 'Droid Sans', 'Helvetica Neue', sans-serif" font-size="11.00">nlohmann/json.hpp</text>
</a>
</g>
</g>
<!-- Node1&#45;&gt;Node11 -->
<g id="edge16" class="edge">
<title>Node1&#45;&gt;Node11</title>
<path fill="none" stroke="midnightblue" d="M387.69,-228.42C400.33,-219.02 416.54,-206.96 429.17,-197.56"/>
<polygon fill="midnightblue" stroke="midnightblue" points="431.33,-200.32 437.26,-191.55 427.15,-194.71 431.33,-200.32"/>
</g>
<!-- Node12 -->
<g id="node11" class="node">
<title>Node12</title>
<g id="a_node11"><a xlink:title=" ">
<polygon fill="none" stroke="#bfbfbf" points="521.42,-171.5 521.42,-191.5 663.42,-191.5 663.42,-171.5 521.42,-171.5"/>
<text text-anchor="middle" x="592.42" y="-178.7" font-family="-apple-system, BlinkMacSystemFont, 'Segoe UI', Roboto, Oxygen, Ubuntu, Cantarell, 'Fira Sans', 'Droid Sans', 'Helvetica Neue', sans-serif" font-size="11.00">libmirai/Utils/Common.hpp</text>
</a>
</g>
</g>
<!-- Node1&#45;&gt;Node12 -->
<g id="edge17" class="edge">
<title>Node1&#45;&gt;Node12</title>
<path fill="none" stroke="midnightblue" d="M422.75,-228.5C461.76,-217.92 513.27,-203.96 549.25,-194.2"/>
<polygon fill="midnightblue" stroke="midnightblue" points="550.23,-197.56 558.97,-191.57 548.4,-190.81 550.23,-197.56"/>
</g>
<!-- Node3 -->
<g id="node3" class="node">
<title>Node3</title>
<g id="a_node3"><a xlink:title=" ">
<polygon fill="none" stroke="#bfbfbf" points="125.42,-57.5 125.42,-77.5 167.42,-77.5 167.42,-57.5 125.42,-57.5"/>
<text text-anchor="middle" x="146.42" y="-64.7" font-family="-apple-system, BlinkMacSystemFont, 'Segoe UI', Roboto, Oxygen, Ubuntu, Cantarell, 'Fira Sans', 'Droid Sans', 'Helvetica Neue', sans-serif" font-size="11.00">ctime</text>
</a>
</g>
</g>
<!-- Node2&#45;&gt;Node3 -->
<g id="edge2" class="edge">
<title>Node2&#45;&gt;Node3</title>
<path fill="none" stroke="midnightblue" d="M242.42,-171.43C239.03,-157.72 231.05,-131.49 216.42,-114 205.47,-100.9 189.77,-90.22 176.02,-82.51"/>
<polygon fill="midnightblue" stroke="midnightblue" points="177.36,-79.26 166.89,-77.65 174.07,-85.44 177.36,-79.26"/>
</g>
<!-- Node2&#45;&gt;Node4 -->
<g id="edge3" class="edge">
<title>Node2&#45;&gt;Node4</title>
<path fill="none" stroke="midnightblue" d="M258.46,-171.42C271.62,-162.9 291.53,-150.02 306.92,-140.06"/>
<polygon fill="midnightblue" stroke="midnightblue" points="308.87,-142.97 315.37,-134.6 305.07,-137.09 308.87,-142.97"/>
</g>
<!-- Node2&#45;&gt;Node5 -->
<g id="edge4" class="edge">
<title>Node2&#45;&gt;Node5</title>
<path fill="none" stroke="midnightblue" d="M270.51,-171.42C296.78,-162.27 337.49,-148.1 366.73,-137.92"/>
<polygon fill="midnightblue" stroke="midnightblue" points="368.26,-141.1 376.56,-134.5 365.96,-134.49 368.26,-141.1"/>
</g>
<!-- Node6 -->
<g id="node6" class="node">
<title>Node6</title>
<g id="a_node6"><a xlink:title=" ">
<polygon fill="none" stroke="#bfbfbf" points="19.92,-57.5 19.92,-77.5 62.92,-77.5 62.92,-57.5 19.92,-57.5"/>
<text text-anchor="middle" x="41.42" y="-64.7" font-family="-apple-system, BlinkMacSystemFont, 'Segoe UI', Roboto, Oxygen, Ubuntu, Cantarell, 'Fira Sans', 'Droid Sans', 'Helvetica Neue', sans-serif" font-size="11.00">string</text>
</a>
</g>
</g>
<!-- Node2&#45;&gt;Node6 -->
<g id="edge5" class="edge">
<title>Node2&#45;&gt;Node6</title>
<path fill="none" stroke="midnightblue" d="M195.96,-176.79C140.88,-171.44 56.07,-159.4 36.42,-135 25.79,-121.79 28.96,-101.93 33.62,-87.35"/>
<polygon fill="midnightblue" stroke="midnightblue" points="36.95,-88.44 37.1,-77.84 30.38,-86.03 36.95,-88.44"/>
</g>
<!-- Node7 -->
<g id="node7" class="node">
<title>Node7</title>
<g id="a_node7"><a xlink:title=" ">
<polygon fill="none" stroke="#bfbfbf" points="31.92,-0.5 31.92,-20.5 162.92,-20.5 162.92,-0.5 31.92,-0.5"/>
<text text-anchor="middle" x="97.42" y="-7.7" font-family="-apple-system, BlinkMacSystemFont, 'Segoe UI', Roboto, Oxygen, Ubuntu, Cantarell, 'Fira Sans', 'Droid Sans', 'Helvetica Neue', sans-serif" font-size="11.00">nlohmann/json_fwd.hpp</text>
</a>
</g>
</g>
<!-- Node2&#45;&gt;Node7 -->
<g id="edge6" class="edge">
<title>Node2&#45;&gt;Node7</title>
<path fill="none" stroke="midnightblue" d="M195.99,-176.34C139.13,-170.48 49.51,-157.85 25.42,-135 -0.19,-110.7 -7.86,-87.2 10.42,-57 19.72,-41.64 36.1,-31.22 52.15,-24.27"/>
<polygon fill="midnightblue" stroke="midnightblue" points="53.5,-27.5 61.51,-20.57 50.92,-20.99 53.5,-27.5"/>
</g>
<!-- Node8 -->
<g id="node8" class="node">
<title>Node8</title>
<g id="a_node8"><a xlink:href="BasicTypes_8hpp.html" target="_top" xlink:title=" ">
<polygon fill="none" stroke="red" points="45.42,-114.5 45.42,-134.5 207.42,-134.5 207.42,-114.5 45.42,-114.5"/>
<text text-anchor="middle" x="126.42" y="-121.7" font-family="-apple-system, BlinkMacSystemFont, 'Segoe UI', Roboto, Oxygen, Ubuntu, Cantarell, 'Fira Sans', 'Droid Sans', 'Helvetica Neue', sans-serif" font-size="11.00">libmirai/Types/BasicTypes.hpp</text>
</a>
</g>
</g>
<!-- Node2&#45;&gt;Node8 -->
<g id="edge7" class="edge">
<title>Node2&#45;&gt;Node8</title>
<path fill="none" stroke="midnightblue" d="M224.94,-171.42C205.89,-162.54 176.68,-148.93 155.01,-138.82"/>
<polygon fill="midnightblue" stroke="midnightblue" points="156.48,-135.65 145.94,-134.6 153.52,-141.99 156.48,-135.65"/>
</g>
<!-- Node10 -->
<g id="node9" class="node">
<title>Node10</title>
<g id="a_node9"><a xlink:href="Serializable_8hpp.html" target="_top" xlink:title=" ">
<polygon fill="none" stroke="black" points="185.42,-57.5 185.42,-77.5 347.42,-77.5 347.42,-57.5 185.42,-57.5"/>
<text text-anchor="middle" x="266.42" y="-64.7" font-family="-apple-system, BlinkMacSystemFont, 'Segoe UI', Roboto, Oxygen, Ubuntu, Cantarell, 'Fira Sans', 'Droid Sans', 'Helvetica Neue', sans-serif" font-size="11.00">libmirai/Types/Serializable.hpp</text>
</a>
</g>
</g>
<!-- Node2&#45;&gt;Node10 -->
<g id="edge13" class="edge">
<title>Node2&#45;&gt;Node10</title>
<path fill="none" stroke="midnightblue" d="M246.22,-171.33C249.8,-153.12 257.87,-112.04 262.66,-87.67"/>
<polygon fill="midnightblue" stroke="midnightblue" points="266.1,-88.28 264.6,-77.79 259.24,-86.93 266.1,-88.28"/>
</g>
<!-- Node8&#45;&gt;Node3 -->
<g id="edge8" class="edge">
<title>Node8&#45;&gt;Node3</title>
<path fill="none" stroke="midnightblue" d="M129.73,-114.42C132.4,-107.06 136.26,-96.44 139.6,-87.27"/>
<polygon fill="midnightblue" stroke="midnightblue" points="142.92,-88.37 143.05,-77.78 136.34,-85.98 142.92,-88.37"/>
</g>
<!-- Node8&#45;&gt;Node6 -->
<g id="edge9" class="edge">
<title>Node8&#45;&gt;Node6</title>
<path fill="none" stroke="midnightblue" d="M112.39,-114.42C99.22,-105.9 79.31,-93.02 63.93,-83.06"/>
<polygon fill="midnightblue" stroke="midnightblue" points="65.78,-80.09 55.48,-77.6 61.97,-85.97 65.78,-80.09"/>
</g>
<!-- Node8&#45;&gt;Node7 -->
<g id="edge10" class="edge">
<title>Node8&#45;&gt;Node7</title>
<path fill="none" stroke="midnightblue" d="M124.05,-114.33C119.33,-96.12 108.7,-55.04 102.39,-30.67"/>
<polygon fill="midnightblue" stroke="midnightblue" points="105.72,-29.6 99.83,-20.79 98.95,-31.35 105.72,-29.6"/>
</g>
<!-- Node8&#45;&gt;Node10 -->
<g id="edge11" class="edge">
<title>Node8&#45;&gt;Node10</title>
<path fill="none" stroke="midnightblue" d="M149.54,-114.42C172.54,-105.38 208.04,-91.44 233.88,-81.28"/>
<polygon fill="midnightblue" stroke="midnightblue" points="235.24,-84.51 243.27,-77.6 232.68,-77.99 235.24,-84.51"/>
</g>
<!-- Node10&#45;&gt;Node7 -->
<g id="edge12" class="edge">
<title>Node10&#45;&gt;Node7</title>
<path fill="none" stroke="midnightblue" d="M238.52,-57.42C210.18,-48.19 166.12,-33.86 134.78,-23.66"/>
<polygon fill="midnightblue" stroke="midnightblue" points="135.68,-20.27 125.09,-20.5 133.52,-26.93 135.68,-20.27"/>
</g>
</g>
</svg>
