<?xml version="1.0" encoding="UTF-8" standalone="no"?>
<!DOCTYPE svg PUBLIC "-//W3C//DTD SVG 1.1//EN"
 "http://www.w3.org/Graphics/SVG/1.1/DTD/svg11.dtd">
<!-- Generated by graphviz version 2.43.0 (0)
 -->
<!-- Title: libmirai/public/libmirai/Events/MemberSpecialTitleChangeEvent.hpp Pages: 1 -->
<svg width="564pt" height="224pt"
 viewBox="0.00 0.00 564.31 224.00" xmlns="http://www.w3.org/2000/svg" xmlns:xlink="http://www.w3.org/1999/xlink">
<g id="graph0" class="graph" transform="scale(1 1) rotate(0) translate(4 220)">
<title>libmirai/public/libmirai/Events/MemberSpecialTitleChangeEvent.hpp</title>
<!-- Node1 -->
<g id="node1" class="node">
<title>Node1</title>
<g id="a_node1"><a xlink:title=" ">
<polygon fill="#bfbfbf" stroke="black" points="232.81,-171.5 232.81,-215.5 443.81,-215.5 443.81,-171.5 232.81,-171.5"/>
<text text-anchor="start" x="240.81" y="-202.7" font-family="-apple-system,BlinkMacSystemFont,'SegoeUI',Roboto,Oxygen,Ubuntu,Cantarell,'FiraSans','DroidSans','HelveticaNeue',sans-serif" font-size="11.00">libmirai/public/libmirai</text>
<text text-anchor="start" x="240.81" y="-190.7" font-family="-apple-system,BlinkMacSystemFont,'SegoeUI',Roboto,Oxygen,Ubuntu,Cantarell,'FiraSans','DroidSans','HelveticaNeue',sans-serif" font-size="11.00">/Events/MemberSpecialTitleChange</text>
<text text-anchor="middle" x="338.31" y="-178.7" font-family="-apple-system,BlinkMacSystemFont,'SegoeUI',Roboto,Oxygen,Ubuntu,Cantarell,'FiraSans','DroidSans','HelveticaNeue',sans-serif" font-size="11.00">Event.hpp</text>
</a>
</g>
</g>
<!-- Node2 -->
<g id="node2" class="node">
<title>Node2</title>
<g id="a_node2"><a xlink:title=" ">
<polygon fill="none" stroke="#bfbfbf" points="390.31,-57.5 390.31,-77.5 438.31,-77.5 438.31,-57.5 390.31,-57.5"/>
<text text-anchor="middle" x="414.31" y="-64.7" font-family="-apple-system,BlinkMacSystemFont,'SegoeUI',Roboto,Oxygen,Ubuntu,Cantarell,'FiraSans','DroidSans','HelveticaNeue',sans-serif" font-size="11.00">string</text>
</a>
</g>
</g>
<!-- Node1&#45;&gt;Node2 -->
<g id="edge1" class="edge">
<title>Node1&#45;&gt;Node2</title>
<path fill="none" stroke="midnightblue" d="M353.9,-171.31C361.55,-160.61 370.72,-147.32 378.31,-135 388.08,-119.14 398.07,-100.44 405.05,-86.92"/>
<polygon fill="midnightblue" stroke="midnightblue" points="408.31,-88.22 409.74,-77.72 402.08,-85.04 408.31,-88.22"/>
</g>
<!-- Node3 -->
<g id="node3" class="node">
<title>Node3</title>
<g id="a_node3"><a xlink:title=" ">
<polygon fill="none" stroke="#bfbfbf" points="157.31,-0.5 157.31,-20.5 303.31,-20.5 303.31,-0.5 157.31,-0.5"/>
<text text-anchor="middle" x="230.31" y="-7.7" font-family="-apple-system,BlinkMacSystemFont,'SegoeUI',Roboto,Oxygen,Ubuntu,Cantarell,'FiraSans','DroidSans','HelveticaNeue',sans-serif" font-size="11.00">nlohmann/json_fwd.hpp</text>
</a>
</g>
</g>
<!-- Node1&#45;&gt;Node3 -->
<g id="edge2" class="edge">
<title>Node1&#45;&gt;Node3</title>
<path fill="none" stroke="midnightblue" d="M232.73,-187.28C155.58,-177.27 55.8,-150.08 4.31,-78 -1.11,-70.41 -1.6,-64.22 4.31,-57 22.37,-34.94 90.31,-23.35 147.02,-17.4"/>
<polygon fill="midnightblue" stroke="midnightblue" points="147.5,-20.87 157.1,-16.38 146.8,-13.9 147.5,-20.87"/>
</g>
<!-- Node4 -->
<g id="node4" class="node">
<title>Node4</title>
<g id="a_node4"><a xlink:href="BasicTypes_8hpp.html" target="_top" xlink:title=" ">
<polygon fill="none" stroke="black" points="188.81,-114.5 188.81,-134.5 369.81,-134.5 369.81,-114.5 188.81,-114.5"/>
<text text-anchor="middle" x="279.31" y="-121.7" font-family="-apple-system,BlinkMacSystemFont,'SegoeUI',Roboto,Oxygen,Ubuntu,Cantarell,'FiraSans','DroidSans','HelveticaNeue',sans-serif" font-size="11.00">libmirai/Types/BasicTypes.hpp</text>
</a>
</g>
</g>
<!-- Node1&#45;&gt;Node4 -->
<g id="edge3" class="edge">
<title>Node1&#45;&gt;Node4</title>
<path fill="none" stroke="midnightblue" d="M319.64,-171.3C311.46,-162 301.98,-151.24 294.27,-142.48"/>
<polygon fill="midnightblue" stroke="midnightblue" points="296.75,-140.01 287.52,-134.82 291.5,-144.63 296.75,-140.01"/>
</g>
<!-- Node8 -->
<g id="node8" class="node">
<title>Node8</title>
<g id="a_node8"><a xlink:href="EventBase_8hpp.html" target="_top" xlink:title=" ">
<polygon fill="none" stroke="black" points="426.81,-114.5 426.81,-134.5 525.81,-134.5 525.81,-114.5 426.81,-114.5"/>
<text text-anchor="middle" x="476.31" y="-121.7" font-family="-apple-system,BlinkMacSystemFont,'SegoeUI',Roboto,Oxygen,Ubuntu,Cantarell,'FiraSans','DroidSans','HelveticaNeue',sans-serif" font-size="11.00">EventBase.hpp</text>
</a>
</g>
</g>
<!-- Node1&#45;&gt;Node8 -->
<g id="edge10" class="edge">
<title>Node1&#45;&gt;Node8</title>
<path fill="none" stroke="midnightblue" d="M381.6,-171.48C403.51,-160.85 429.45,-148.25 448.64,-138.93"/>
<polygon fill="midnightblue" stroke="midnightblue" points="450.27,-142.03 457.74,-134.52 447.21,-135.74 450.27,-142.03"/>
</g>
<!-- Node4&#45;&gt;Node2 -->
<g id="edge6" class="edge">
<title>Node4&#45;&gt;Node2</title>
<path fill="none" stroke="midnightblue" d="M301.61,-114.42C323.69,-105.42 357.72,-91.56 382.61,-81.42"/>
<polygon fill="midnightblue" stroke="midnightblue" points="384.05,-84.61 391.99,-77.6 381.41,-78.13 384.05,-84.61"/>
</g>
<!-- Node4&#45;&gt;Node3 -->
<g id="edge7" class="edge">
<title>Node4&#45;&gt;Node3</title>
<path fill="none" stroke="midnightblue" d="M279.7,-114.44C279.93,-101.21 279.01,-76.08 270.31,-57 265.34,-46.09 256.86,-35.87 248.99,-27.9"/>
<polygon fill="midnightblue" stroke="midnightblue" points="251.12,-25.09 241.47,-20.72 246.29,-30.16 251.12,-25.09"/>
</g>
<!-- Node5 -->
<g id="node5" class="node">
<title>Node5</title>
<g id="a_node5"><a xlink:title=" ">
<polygon fill="none" stroke="#bfbfbf" points="318.31,-57.5 318.31,-77.5 372.31,-77.5 372.31,-57.5 318.31,-57.5"/>
<text text-anchor="middle" x="345.31" y="-64.7" font-family="-apple-system,BlinkMacSystemFont,'SegoeUI',Roboto,Oxygen,Ubuntu,Cantarell,'FiraSans','DroidSans','HelveticaNeue',sans-serif" font-size="11.00">chrono</text>
</a>
</g>
</g>
<!-- Node4&#45;&gt;Node5 -->
<g id="edge4" class="edge">
<title>Node4&#45;&gt;Node5</title>
<path fill="none" stroke="midnightblue" d="M290.21,-114.42C299.99,-106.27 314.57,-94.12 326.27,-84.37"/>
<polygon fill="midnightblue" stroke="midnightblue" points="328.74,-86.87 334.18,-77.78 324.25,-81.49 328.74,-86.87"/>
</g>
<!-- Node6 -->
<g id="node6" class="node">
<title>Node6</title>
<g id="a_node6"><a xlink:title=" ">
<polygon fill="none" stroke="#bfbfbf" points="13.81,-57.5 13.81,-77.5 60.81,-77.5 60.81,-57.5 13.81,-57.5"/>
<text text-anchor="middle" x="37.31" y="-64.7" font-family="-apple-system,BlinkMacSystemFont,'SegoeUI',Roboto,Oxygen,Ubuntu,Cantarell,'FiraSans','DroidSans','HelveticaNeue',sans-serif" font-size="11.00">ctime</text>
</a>
</g>
</g>
<!-- Node4&#45;&gt;Node6 -->
<g id="edge5" class="edge">
<title>Node4&#45;&gt;Node6</title>
<path fill="none" stroke="midnightblue" d="M232.78,-114.46C192.24,-106.36 131.68,-93.68 70.79,-78.25"/>
<polygon fill="midnightblue" stroke="midnightblue" points="71.58,-74.84 61.02,-75.76 69.84,-81.62 71.58,-74.84"/>
</g>
<!-- Node7 -->
<g id="node7" class="node">
<title>Node7</title>
<g id="a_node7"><a xlink:href="Serializable_8hpp.html" target="_top" xlink:title=" ">
<polygon fill="none" stroke="black" points="78.81,-57.5 78.81,-77.5 261.81,-77.5 261.81,-57.5 78.81,-57.5"/>
<text text-anchor="middle" x="170.31" y="-64.7" font-family="-apple-system,BlinkMacSystemFont,'SegoeUI',Roboto,Oxygen,Ubuntu,Cantarell,'FiraSans','DroidSans','HelveticaNeue',sans-serif" font-size="11.00">libmirai/Types/Serializable.hpp</text>
</a>
</g>
</g>
<!-- Node4&#45;&gt;Node7 -->
<g id="edge8" class="edge">
<title>Node4&#45;&gt;Node7</title>
<path fill="none" stroke="midnightblue" d="M261.31,-114.42C243.96,-105.66 217.46,-92.29 197.53,-82.23"/>
<polygon fill="midnightblue" stroke="midnightblue" points="198.84,-78.98 188.34,-77.6 195.69,-85.23 198.84,-78.98"/>
</g>
<!-- Node7&#45;&gt;Node3 -->
<g id="edge9" class="edge">
<title>Node7&#45;&gt;Node3</title>
<path fill="none" stroke="midnightblue" d="M180.22,-57.42C189.03,-49.35 202.11,-37.36 212.69,-27.65"/>
<polygon fill="midnightblue" stroke="midnightblue" points="215.18,-30.12 220.19,-20.78 210.45,-24.96 215.18,-30.12"/>
</g>
<!-- Node8&#45;&gt;Node2 -->
<g id="edge12" class="edge">
<title>Node8&#45;&gt;Node2</title>
<path fill="none" stroke="midnightblue" d="M466.07,-114.42C456.98,-106.35 443.46,-94.36 432.52,-84.65"/>
<polygon fill="midnightblue" stroke="midnightblue" points="434.58,-81.8 424.77,-77.78 429.93,-87.03 434.58,-81.8"/>
</g>
<!-- Node8&#45;&gt;Node3 -->
<g id="edge13" class="edge">
<title>Node8&#45;&gt;Node3</title>
<path fill="none" stroke="midnightblue" d="M474.99,-114.15C472.4,-99.58 465.29,-71.63 447.31,-57 426.77,-40.28 365.59,-28.39 313.41,-20.96"/>
<polygon fill="midnightblue" stroke="midnightblue" points="313.84,-17.49 303.45,-19.58 312.88,-24.42 313.84,-17.49"/>
</g>
<!-- Node9 -->
<g id="node9" class="node">
<title>Node9</title>
<g id="a_node9"><a xlink:title=" ">
<polygon fill="none" stroke="#bfbfbf" points="494.31,-57.5 494.31,-77.5 556.31,-77.5 556.31,-57.5 494.31,-57.5"/>
<text text-anchor="middle" x="525.31" y="-64.7" font-family="-apple-system,BlinkMacSystemFont,'SegoeUI',Roboto,Oxygen,Ubuntu,Cantarell,'FiraSans','DroidSans','HelveticaNeue',sans-serif" font-size="11.00">memory</text>
</a>
</g>
</g>
<!-- Node8&#45;&gt;Node9 -->
<g id="edge11" class="edge">
<title>Node8&#45;&gt;Node9</title>
<path fill="none" stroke="midnightblue" d="M484.4,-114.42C491.38,-106.58 501.65,-95.06 510.15,-85.51"/>
<polygon fill="midnightblue" stroke="midnightblue" points="513.01,-87.57 517.05,-77.78 507.78,-82.92 513.01,-87.57"/>
</g>
</g>
</svg>
