<?xml version="1.0" encoding="UTF-8" standalone="no"?>
<!DOCTYPE svg PUBLIC "-//W3C//DTD SVG 1.1//EN"
 "http://www.w3.org/Graphics/SVG/1.1/DTD/svg11.dtd">
<!-- Generated by graphviz version 3.0.0 (20220413.0242)
 -->
<!-- Title: libmirai/public/libmirai/Events/MemberJoinRequestEvent.cpp Pages: 1 -->
<svg width="609pt" height="212pt"
 viewBox="0.00 0.00 609.11 212.00" xmlns="http://www.w3.org/2000/svg" xmlns:xlink="http://www.w3.org/1999/xlink">
<g id="graph0" class="graph" transform="scale(1 1) rotate(0) translate(4 208)">
<title>libmirai/public/libmirai/Events/MemberJoinRequestEvent.cpp</title>
<!-- Node1 -->
<g id="node1" class="node">
<title>Node1</title>
<g id="a_node1"><a xlink:title=" ">
<polygon fill="#bfbfbf" stroke="black" points="238.11,-171.5 238.11,-203.5 440.11,-203.5 440.11,-171.5 238.11,-171.5"/>
<text text-anchor="start" x="246.11" y="-190.7" font-family="-apple-system, BlinkMacSystemFont, 'Segoe UI', Roboto, Oxygen, Ubuntu, Cantarell, 'Fira Sans', 'Droid Sans', 'Helvetica Neue', sans-serif" font-size="11.00">libmirai/public/libmirai</text>
<text text-anchor="middle" x="339.11" y="-178.7" font-family="-apple-system, BlinkMacSystemFont, 'Segoe UI', Roboto, Oxygen, Ubuntu, Cantarell, 'Fira Sans', 'Droid Sans', 'Helvetica Neue', sans-serif" font-size="11.00">/Events/MemberJoinRequestEvent.cpp</text>
</a>
</g>
</g>
<!-- Node2 -->
<g id="node2" class="node">
<title>Node2</title>
<g id="a_node2"><a xlink:href="MemberJoinRequestEvent_8hpp.html" target="_top" xlink:title=" ">
<polygon fill="none" stroke="black" points="85.11,-114.5 85.11,-134.5 249.11,-134.5 249.11,-114.5 85.11,-114.5"/>
<text text-anchor="middle" x="167.11" y="-121.7" font-family="-apple-system, BlinkMacSystemFont, 'Segoe UI', Roboto, Oxygen, Ubuntu, Cantarell, 'Fira Sans', 'Droid Sans', 'Helvetica Neue', sans-serif" font-size="11.00">MemberJoinRequestEvent.hpp</text>
</a>
</g>
</g>
<!-- Node1&#45;&gt;Node2 -->
<g id="edge1" class="edge">
<title>Node1&#45;&gt;Node2</title>
<path fill="none" stroke="midnightblue" d="M296.59,-171.42C267.53,-161.11 229.48,-147.62 202.16,-137.93"/>
<polygon fill="midnightblue" stroke="midnightblue" points="203.21,-134.59 192.61,-134.55 200.87,-141.19 203.21,-134.59"/>
</g>
<!-- Node11 -->
<g id="node7" class="node">
<title>Node11</title>
<g id="a_node7"><a xlink:title=" ">
<polygon fill="none" stroke="#bfbfbf" points="267.61,-114.5 267.61,-134.5 314.61,-134.5 314.61,-114.5 267.61,-114.5"/>
<text text-anchor="middle" x="291.11" y="-121.7" font-family="-apple-system, BlinkMacSystemFont, 'Segoe UI', Roboto, Oxygen, Ubuntu, Cantarell, 'Fira Sans', 'Droid Sans', 'Helvetica Neue', sans-serif" font-size="11.00">cstdint</text>
</a>
</g>
</g>
<!-- Node1&#45;&gt;Node11 -->
<g id="edge10" class="edge">
<title>Node1&#45;&gt;Node11</title>
<path fill="none" stroke="midnightblue" d="M327.24,-171.42C320.34,-162.65 311.62,-151.57 304.48,-142.5"/>
<polygon fill="midnightblue" stroke="midnightblue" points="307.16,-140.24 298.22,-134.55 301.66,-144.57 307.16,-140.24"/>
</g>
<!-- Node12 -->
<g id="node8" class="node">
<title>Node12</title>
<g id="a_node8"><a xlink:title=" ">
<polygon fill="none" stroke="#bfbfbf" points="333.11,-114.5 333.11,-134.5 441.11,-134.5 441.11,-114.5 333.11,-114.5"/>
<text text-anchor="middle" x="387.11" y="-121.7" font-family="-apple-system, BlinkMacSystemFont, 'Segoe UI', Roboto, Oxygen, Ubuntu, Cantarell, 'Fira Sans', 'Droid Sans', 'Helvetica Neue', sans-serif" font-size="11.00">nlohmann/json.hpp</text>
</a>
</g>
</g>
<!-- Node1&#45;&gt;Node12 -->
<g id="edge11" class="edge">
<title>Node1&#45;&gt;Node12</title>
<path fill="none" stroke="midnightblue" d="M350.97,-171.42C357.87,-162.65 366.59,-151.57 373.73,-142.5"/>
<polygon fill="midnightblue" stroke="midnightblue" points="376.55,-144.57 379.99,-134.55 371.05,-140.24 376.55,-144.57"/>
</g>
<!-- Node13 -->
<g id="node9" class="node">
<title>Node13</title>
<g id="a_node9"><a xlink:title=" ">
<polygon fill="none" stroke="#bfbfbf" points="459.11,-114.5 459.11,-134.5 601.11,-134.5 601.11,-114.5 459.11,-114.5"/>
<text text-anchor="middle" x="530.11" y="-121.7" font-family="-apple-system, BlinkMacSystemFont, 'Segoe UI', Roboto, Oxygen, Ubuntu, Cantarell, 'Fira Sans', 'Droid Sans', 'Helvetica Neue', sans-serif" font-size="11.00">libmirai/Utils/Common.hpp</text>
</a>
</g>
</g>
<!-- Node1&#45;&gt;Node13 -->
<g id="edge12" class="edge">
<title>Node1&#45;&gt;Node13</title>
<path fill="none" stroke="midnightblue" d="M386.32,-171.42C418.87,-161.02 461.59,-147.38 491.98,-137.68"/>
<polygon fill="midnightblue" stroke="midnightblue" points="493.32,-140.92 501.78,-134.55 491.19,-134.25 493.32,-140.92"/>
</g>
<!-- Node3 -->
<g id="node3" class="node">
<title>Node3</title>
<g id="a_node3"><a xlink:title=" ">
<polygon fill="none" stroke="#bfbfbf" points="73.61,-0.5 73.61,-20.5 116.61,-20.5 116.61,-0.5 73.61,-0.5"/>
<text text-anchor="middle" x="95.11" y="-7.7" font-family="-apple-system, BlinkMacSystemFont, 'Segoe UI', Roboto, Oxygen, Ubuntu, Cantarell, 'Fira Sans', 'Droid Sans', 'Helvetica Neue', sans-serif" font-size="11.00">string</text>
</a>
</g>
</g>
<!-- Node2&#45;&gt;Node3 -->
<g id="edge2" class="edge">
<title>Node2&#45;&gt;Node3</title>
<path fill="none" stroke="midnightblue" d="M107.65,-114.46C66.79,-106.89 17.72,-94.65 5.11,-78 -14.62,-51.97 30.37,-31.45 63.59,-20.43"/>
<polygon fill="midnightblue" stroke="midnightblue" points="64.96,-23.67 73.44,-17.32 62.85,-16.99 64.96,-23.67"/>
</g>
<!-- Node4 -->
<g id="node4" class="node">
<title>Node4</title>
<g id="a_node4"><a xlink:title=" ">
<polygon fill="none" stroke="#bfbfbf" points="173.61,-0.5 173.61,-20.5 304.61,-20.5 304.61,-0.5 173.61,-0.5"/>
<text text-anchor="middle" x="239.11" y="-7.7" font-family="-apple-system, BlinkMacSystemFont, 'Segoe UI', Roboto, Oxygen, Ubuntu, Cantarell, 'Fira Sans', 'Droid Sans', 'Helvetica Neue', sans-serif" font-size="11.00">nlohmann/json_fwd.hpp</text>
</a>
</g>
</g>
<!-- Node2&#45;&gt;Node4 -->
<g id="edge3" class="edge">
<title>Node2&#45;&gt;Node4</title>
<path fill="none" stroke="midnightblue" d="M236.22,-114.41C258.03,-107.92 279.88,-96.84 293.11,-78 306.21,-59.34 284.25,-39.18 264.53,-26.01"/>
<polygon fill="midnightblue" stroke="midnightblue" points="266.36,-23.03 256.04,-20.65 262.62,-28.95 266.36,-23.03"/>
</g>
<!-- Node5 -->
<g id="node5" class="node">
<title>Node5</title>
<g id="a_node5"><a xlink:href="BasicTypes_8hpp.html" target="_top" xlink:title=" ">
<polygon fill="none" stroke="red" points="14.11,-57.5 14.11,-77.5 176.11,-77.5 176.11,-57.5 14.11,-57.5"/>
<text text-anchor="middle" x="95.11" y="-64.7" font-family="-apple-system, BlinkMacSystemFont, 'Segoe UI', Roboto, Oxygen, Ubuntu, Cantarell, 'Fira Sans', 'Droid Sans', 'Helvetica Neue', sans-serif" font-size="11.00">libmirai/Types/BasicTypes.hpp</text>
</a>
</g>
</g>
<!-- Node2&#45;&gt;Node5 -->
<g id="edge4" class="edge">
<title>Node2&#45;&gt;Node5</title>
<path fill="none" stroke="midnightblue" d="M155.22,-114.42C144.44,-106.19 128.34,-93.88 115.51,-84.08"/>
<polygon fill="midnightblue" stroke="midnightblue" points="117.32,-81.07 107.25,-77.78 113.08,-86.63 117.32,-81.07"/>
</g>
<!-- Node9 -->
<g id="node6" class="node">
<title>Node9</title>
<g id="a_node6"><a xlink:href="EventBase_8hpp.html" target="_top" xlink:title=" ">
<polygon fill="none" stroke="red" points="194.61,-57.5 194.61,-77.5 283.61,-77.5 283.61,-57.5 194.61,-57.5"/>
<text text-anchor="middle" x="239.11" y="-64.7" font-family="-apple-system, BlinkMacSystemFont, 'Segoe UI', Roboto, Oxygen, Ubuntu, Cantarell, 'Fira Sans', 'Droid Sans', 'Helvetica Neue', sans-serif" font-size="11.00">EventBase.hpp</text>
</a>
</g>
</g>
<!-- Node2&#45;&gt;Node9 -->
<g id="edge7" class="edge">
<title>Node2&#45;&gt;Node9</title>
<path fill="none" stroke="midnightblue" d="M179,-114.42C189.77,-106.19 205.88,-93.88 218.71,-84.08"/>
<polygon fill="midnightblue" stroke="midnightblue" points="221.14,-86.63 226.96,-77.78 216.89,-81.07 221.14,-86.63"/>
</g>
<!-- Node5&#45;&gt;Node3 -->
<g id="edge5" class="edge">
<title>Node5&#45;&gt;Node3</title>
<path fill="none" stroke="midnightblue" d="M95.11,-57.42C95.11,-50.22 95.11,-39.9 95.11,-30.86"/>
<polygon fill="midnightblue" stroke="midnightblue" points="98.61,-30.78 95.11,-20.78 91.61,-30.78 98.61,-30.78"/>
</g>
<!-- Node5&#45;&gt;Node4 -->
<g id="edge6" class="edge">
<title>Node5&#45;&gt;Node4</title>
<path fill="none" stroke="midnightblue" d="M118.88,-57.42C142.54,-48.38 179.06,-34.44 205.64,-24.28"/>
<polygon fill="midnightblue" stroke="midnightblue" points="207.2,-27.43 215.29,-20.6 204.7,-20.89 207.2,-27.43"/>
</g>
<!-- Node9&#45;&gt;Node3 -->
<g id="edge8" class="edge">
<title>Node9&#45;&gt;Node3</title>
<path fill="none" stroke="midnightblue" d="M215.33,-57.42C191.1,-48.17 153.4,-33.76 126.68,-23.56"/>
<polygon fill="midnightblue" stroke="midnightblue" points="127.62,-20.17 117.03,-19.87 125.12,-26.71 127.62,-20.17"/>
</g>
<!-- Node9&#45;&gt;Node4 -->
<g id="edge9" class="edge">
<title>Node9&#45;&gt;Node4</title>
<path fill="none" stroke="midnightblue" d="M239.11,-57.42C239.11,-50.22 239.11,-39.9 239.11,-30.86"/>
<polygon fill="midnightblue" stroke="midnightblue" points="242.61,-30.78 239.11,-20.78 235.61,-30.78 242.61,-30.78"/>
</g>
</g>
</svg>
