<?xml version="1.0" encoding="UTF-8" standalone="no"?>
<!DOCTYPE svg PUBLIC "-//W3C//DTD SVG 1.1//EN"
 "http://www.w3.org/Graphics/SVG/1.1/DTD/svg11.dtd">
<!-- Generated by graphviz version 3.0.0 (20220413.0242)
 -->
<!-- Title: libmirai/public/libmirai/Events/MemberMuteEvent.hpp Pages: 1 -->
<svg width="582pt" height="212pt"
 viewBox="0.00 0.00 582.26 212.00" xmlns="http://www.w3.org/2000/svg" xmlns:xlink="http://www.w3.org/1999/xlink">
<g id="graph0" class="graph" transform="scale(1 1) rotate(0) translate(4 208)">
<title>libmirai/public/libmirai/Events/MemberMuteEvent.hpp</title>
<!-- Node1 -->
<g id="node1" class="node">
<title>Node1</title>
<g id="a_node1"><a xlink:title=" ">
<polygon fill="#bfbfbf" stroke="black" points="186.5,-171.5 186.5,-203.5 353.5,-203.5 353.5,-171.5 186.5,-171.5"/>
<text text-anchor="start" x="194.5" y="-190.7" font-family="-apple-system, BlinkMacSystemFont, 'Segoe UI', Roboto, Oxygen, Ubuntu, Cantarell, 'Fira Sans', 'Droid Sans', 'Helvetica Neue', sans-serif" font-size="11.00">libmirai/public/libmirai</text>
<text text-anchor="middle" x="270" y="-178.7" font-family="-apple-system, BlinkMacSystemFont, 'Segoe UI', Roboto, Oxygen, Ubuntu, Cantarell, 'Fira Sans', 'Droid Sans', 'Helvetica Neue', sans-serif" font-size="11.00">/Events/MemberMuteEvent.hpp</text>
</a>
</g>
</g>
<!-- Node2 -->
<g id="node2" class="node">
<title>Node2</title>
<g id="a_node2"><a xlink:title=" ">
<polygon fill="none" stroke="#bfbfbf" points="0,-57.5 0,-77.5 50,-77.5 50,-57.5 0,-57.5"/>
<text text-anchor="middle" x="25" y="-64.7" font-family="-apple-system, BlinkMacSystemFont, 'Segoe UI', Roboto, Oxygen, Ubuntu, Cantarell, 'Fira Sans', 'Droid Sans', 'Helvetica Neue', sans-serif" font-size="11.00">chrono</text>
</a>
</g>
</g>
<!-- Node1&#45;&gt;Node2 -->
<g id="edge1" class="edge">
<title>Node1&#45;&gt;Node2</title>
<path fill="none" stroke="midnightblue" d="M186.31,-171.42C155.29,-163.53 120.7,-151.88 92,-135 70.27,-122.22 50.47,-100.79 38.12,-85.72"/>
<polygon fill="midnightblue" stroke="midnightblue" points="40.71,-83.35 31.75,-77.69 35.22,-87.7 40.71,-83.35"/>
</g>
<!-- Node3 -->
<g id="node3" class="node">
<title>Node3</title>
<g id="a_node3"><a xlink:title=" ">
<polygon fill="none" stroke="#bfbfbf" points="68,-57.5 68,-77.5 110,-77.5 110,-57.5 68,-57.5"/>
<text text-anchor="middle" x="89" y="-64.7" font-family="-apple-system, BlinkMacSystemFont, 'Segoe UI', Roboto, Oxygen, Ubuntu, Cantarell, 'Fira Sans', 'Droid Sans', 'Helvetica Neue', sans-serif" font-size="11.00">ctime</text>
</a>
</g>
</g>
<!-- Node1&#45;&gt;Node3 -->
<g id="edge2" class="edge">
<title>Node1&#45;&gt;Node3</title>
<path fill="none" stroke="midnightblue" d="M186.17,-176.13C158.07,-168.79 128.66,-156.28 108,-135 95.74,-122.37 91.29,-102.39 89.73,-87.63"/>
<polygon fill="midnightblue" stroke="midnightblue" points="93.21,-87.29 89.01,-77.56 86.23,-87.78 93.21,-87.29"/>
</g>
<!-- Node4 -->
<g id="node4" class="node">
<title>Node4</title>
<g id="a_node4"><a xlink:title=" ">
<polygon fill="none" stroke="#bfbfbf" points="117,-114.5 117,-134.5 171,-134.5 171,-114.5 117,-114.5"/>
<text text-anchor="middle" x="144" y="-121.7" font-family="-apple-system, BlinkMacSystemFont, 'Segoe UI', Roboto, Oxygen, Ubuntu, Cantarell, 'Fira Sans', 'Droid Sans', 'Helvetica Neue', sans-serif" font-size="11.00">optional</text>
</a>
</g>
</g>
<!-- Node1&#45;&gt;Node4 -->
<g id="edge3" class="edge">
<title>Node1&#45;&gt;Node4</title>
<path fill="none" stroke="midnightblue" d="M238.85,-171.42C218.31,-161.48 191.64,-148.56 171.81,-138.96"/>
<polygon fill="midnightblue" stroke="midnightblue" points="173.21,-135.75 162.68,-134.55 170.16,-142.05 173.21,-135.75"/>
</g>
<!-- Node5 -->
<g id="node5" class="node">
<title>Node5</title>
<g id="a_node5"><a xlink:title=" ">
<polygon fill="none" stroke="#bfbfbf" points="406.5,-57.5 406.5,-77.5 449.5,-77.5 449.5,-57.5 406.5,-57.5"/>
<text text-anchor="middle" x="428" y="-64.7" font-family="-apple-system, BlinkMacSystemFont, 'Segoe UI', Roboto, Oxygen, Ubuntu, Cantarell, 'Fira Sans', 'Droid Sans', 'Helvetica Neue', sans-serif" font-size="11.00">string</text>
</a>
</g>
</g>
<!-- Node1&#45;&gt;Node5 -->
<g id="edge4" class="edge">
<title>Node1&#45;&gt;Node5</title>
<path fill="none" stroke="midnightblue" d="M300.79,-171.39C318.76,-161.97 341.47,-149 360,-135 379.82,-120.02 399.84,-99.68 412.97,-85.45"/>
<polygon fill="midnightblue" stroke="midnightblue" points="415.72,-87.62 419.85,-77.87 410.54,-82.92 415.72,-87.62"/>
</g>
<!-- Node6 -->
<g id="node6" class="node">
<title>Node6</title>
<g id="a_node6"><a xlink:title=" ">
<polygon fill="none" stroke="#bfbfbf" points="326.5,-0.5 326.5,-20.5 457.5,-20.5 457.5,-0.5 326.5,-0.5"/>
<text text-anchor="middle" x="392" y="-7.7" font-family="-apple-system, BlinkMacSystemFont, 'Segoe UI', Roboto, Oxygen, Ubuntu, Cantarell, 'Fira Sans', 'Droid Sans', 'Helvetica Neue', sans-serif" font-size="11.00">nlohmann/json_fwd.hpp</text>
</a>
</g>
</g>
<!-- Node1&#45;&gt;Node6 -->
<g id="edge5" class="edge">
<title>Node1&#45;&gt;Node6</title>
<path fill="none" stroke="midnightblue" d="M353.75,-181.89C404.05,-176.11 467.82,-163.29 518,-135 548.14,-118.01 558.34,-110.19 571,-78 589.22,-31.65 524.41,-16.8 467.75,-12.44"/>
<polygon fill="midnightblue" stroke="midnightblue" points="467.86,-8.94 457.65,-11.76 467.39,-15.92 467.86,-8.94"/>
</g>
<!-- Node7 -->
<g id="node7" class="node">
<title>Node7</title>
<g id="a_node7"><a xlink:href="BasicTypes_8hpp.html" target="_top" xlink:title=" ">
<polygon fill="none" stroke="black" points="189,-114.5 189,-134.5 351,-134.5 351,-114.5 189,-114.5"/>
<text text-anchor="middle" x="270" y="-121.7" font-family="-apple-system, BlinkMacSystemFont, 'Segoe UI', Roboto, Oxygen, Ubuntu, Cantarell, 'Fira Sans', 'Droid Sans', 'Helvetica Neue', sans-serif" font-size="11.00">libmirai/Types/BasicTypes.hpp</text>
</a>
</g>
</g>
<!-- Node1&#45;&gt;Node7 -->
<g id="edge6" class="edge">
<title>Node1&#45;&gt;Node7</title>
<path fill="none" stroke="midnightblue" d="M270,-171.42C270,-163.38 270,-153.39 270,-144.78"/>
<polygon fill="midnightblue" stroke="midnightblue" points="273.5,-144.55 270,-134.55 266.5,-144.55 273.5,-144.55"/>
</g>
<!-- Node10 -->
<g id="node10" class="node">
<title>Node10</title>
<g id="a_node10"><a xlink:href="EventBase_8hpp.html" target="_top" xlink:title=" ">
<polygon fill="none" stroke="black" points="420.5,-114.5 420.5,-134.5 509.5,-134.5 509.5,-114.5 420.5,-114.5"/>
<text text-anchor="middle" x="465" y="-121.7" font-family="-apple-system, BlinkMacSystemFont, 'Segoe UI', Roboto, Oxygen, Ubuntu, Cantarell, 'Fira Sans', 'Droid Sans', 'Helvetica Neue', sans-serif" font-size="11.00">EventBase.hpp</text>
</a>
</g>
</g>
<!-- Node1&#45;&gt;Node10 -->
<g id="edge14" class="edge">
<title>Node1&#45;&gt;Node10</title>
<path fill="none" stroke="midnightblue" d="M318.2,-171.42C351.58,-160.98 395.42,-147.26 426.48,-137.55"/>
<polygon fill="midnightblue" stroke="midnightblue" points="427.58,-140.87 436.08,-134.55 425.49,-134.19 427.58,-140.87"/>
</g>
<!-- Node7&#45;&gt;Node2 -->
<g id="edge7" class="edge">
<title>Node7&#45;&gt;Node2</title>
<path fill="none" stroke="midnightblue" d="M224.13,-114.44C183.44,-106.21 122.18,-93.38 60.16,-78.18"/>
<polygon fill="midnightblue" stroke="midnightblue" points="60.75,-74.72 50.21,-75.72 59.08,-81.52 60.75,-74.72"/>
</g>
<!-- Node7&#45;&gt;Node3 -->
<g id="edge8" class="edge">
<title>Node7&#45;&gt;Node3</title>
<path fill="none" stroke="midnightblue" d="M240.11,-114.42C206.9,-104.33 153.53,-88.11 119.91,-77.89"/>
<polygon fill="midnightblue" stroke="midnightblue" points="120.74,-74.49 110.15,-74.93 118.7,-81.18 120.74,-74.49"/>
</g>
<!-- Node7&#45;&gt;Node5 -->
<g id="edge9" class="edge">
<title>Node7&#45;&gt;Node5</title>
<path fill="none" stroke="midnightblue" d="M296.09,-114.42C323.69,-104.81 367.23,-89.65 396.67,-79.41"/>
<polygon fill="midnightblue" stroke="midnightblue" points="398.15,-82.6 406.44,-76 395.85,-75.99 398.15,-82.6"/>
</g>
<!-- Node7&#45;&gt;Node6 -->
<g id="edge11" class="edge">
<title>Node7&#45;&gt;Node6</title>
<path fill="none" stroke="midnightblue" d="M224.85,-114.41C184.07,-104.17 133.75,-85.18 157,-57 177.01,-32.75 255.48,-21.27 316.3,-15.94"/>
<polygon fill="midnightblue" stroke="midnightblue" points="316.61,-19.42 326.28,-15.1 316.02,-12.45 316.61,-19.42"/>
</g>
<!-- Node8 -->
<g id="node8" class="node">
<title>Node8</title>
<g id="a_node8"><a xlink:title=" ">
<polygon fill="none" stroke="#bfbfbf" points="166.5,-57.5 166.5,-77.5 207.5,-77.5 207.5,-57.5 166.5,-57.5"/>
<text text-anchor="middle" x="187" y="-64.7" font-family="-apple-system, BlinkMacSystemFont, 'Segoe UI', Roboto, Oxygen, Ubuntu, Cantarell, 'Fira Sans', 'Droid Sans', 'Helvetica Neue', sans-serif" font-size="11.00">utility</text>
</a>
</g>
</g>
<!-- Node7&#45;&gt;Node8 -->
<g id="edge10" class="edge">
<title>Node7&#45;&gt;Node8</title>
<path fill="none" stroke="midnightblue" d="M256.29,-114.42C243.56,-105.98 224.36,-93.26 209.4,-83.34"/>
<polygon fill="midnightblue" stroke="midnightblue" points="211,-80.2 200.73,-77.6 207.13,-86.04 211,-80.2"/>
</g>
<!-- Node9 -->
<g id="node9" class="node">
<title>Node9</title>
<g id="a_node9"><a xlink:href="Serializable_8hpp.html" target="_top" xlink:title=" ">
<polygon fill="none" stroke="black" points="226,-57.5 226,-77.5 388,-77.5 388,-57.5 226,-57.5"/>
<text text-anchor="middle" x="307" y="-64.7" font-family="-apple-system, BlinkMacSystemFont, 'Segoe UI', Roboto, Oxygen, Ubuntu, Cantarell, 'Fira Sans', 'Droid Sans', 'Helvetica Neue', sans-serif" font-size="11.00">libmirai/Types/Serializable.hpp</text>
</a>
</g>
</g>
<!-- Node7&#45;&gt;Node9 -->
<g id="edge12" class="edge">
<title>Node7&#45;&gt;Node9</title>
<path fill="none" stroke="midnightblue" d="M276.11,-114.42C281.27,-106.74 288.82,-95.52 295.16,-86.09"/>
<polygon fill="midnightblue" stroke="midnightblue" points="298.08,-88.03 300.76,-77.78 292.27,-84.12 298.08,-88.03"/>
</g>
<!-- Node9&#45;&gt;Node6 -->
<g id="edge13" class="edge">
<title>Node9&#45;&gt;Node6</title>
<path fill="none" stroke="midnightblue" d="M321.04,-57.42C334.2,-48.9 354.11,-36.02 369.49,-26.06"/>
<polygon fill="midnightblue" stroke="midnightblue" points="371.45,-28.97 377.94,-20.6 367.65,-23.09 371.45,-28.97"/>
</g>
<!-- Node10&#45;&gt;Node5 -->
<g id="edge16" class="edge">
<title>Node10&#45;&gt;Node5</title>
<path fill="none" stroke="midnightblue" d="M458.89,-114.42C453.73,-106.74 446.18,-95.52 439.84,-86.09"/>
<polygon fill="midnightblue" stroke="midnightblue" points="442.73,-84.12 434.24,-77.78 436.92,-88.03 442.73,-84.12"/>
</g>
<!-- Node10&#45;&gt;Node6 -->
<g id="edge17" class="edge">
<title>Node10&#45;&gt;Node6</title>
<path fill="none" stroke="midnightblue" d="M466.34,-114.15C467.8,-100.54 468.67,-74.97 458,-57 449.93,-43.42 436.05,-32.94 423.1,-25.48"/>
<polygon fill="midnightblue" stroke="midnightblue" points="424.39,-22.21 413.92,-20.58 421.09,-28.38 424.39,-22.21"/>
</g>
<!-- Node11 -->
<g id="node11" class="node">
<title>Node11</title>
<g id="a_node11"><a xlink:title=" ">
<polygon fill="none" stroke="#bfbfbf" points="506,-57.5 506,-77.5 562,-77.5 562,-57.5 506,-57.5"/>
<text text-anchor="middle" x="534" y="-64.7" font-family="-apple-system, BlinkMacSystemFont, 'Segoe UI', Roboto, Oxygen, Ubuntu, Cantarell, 'Fira Sans', 'Droid Sans', 'Helvetica Neue', sans-serif" font-size="11.00">memory</text>
</a>
</g>
</g>
<!-- Node10&#45;&gt;Node11 -->
<g id="edge15" class="edge">
<title>Node10&#45;&gt;Node11</title>
<path fill="none" stroke="midnightblue" d="M476.39,-114.42C486.72,-106.19 502.15,-93.88 514.45,-84.08"/>
<polygon fill="midnightblue" stroke="midnightblue" points="516.72,-86.75 522.36,-77.78 512.36,-81.28 516.72,-86.75"/>
</g>
</g>
</svg>
