<?xml version="1.0" encoding="UTF-8" standalone="no"?>
<!DOCTYPE svg PUBLIC "-//W3C//DTD SVG 1.1//EN"
 "http://www.w3.org/Graphics/SVG/1.1/DTD/svg11.dtd">
<!-- Generated by graphviz version 3.0.0 (20220413.0242)
 -->
<!-- Title: libmirai/public/libmirai/Events/MemberMuteEvent.hpp Pages: 1 -->
<svg width="610pt" height="212pt"
 viewBox="0.00 0.00 610.00 212.00" xmlns="http://www.w3.org/2000/svg" xmlns:xlink="http://www.w3.org/1999/xlink">
<g id="graph0" class="graph" transform="scale(1 1) rotate(0) translate(4 208)">
<title>libmirai/public/libmirai/Events/MemberMuteEvent.hpp</title>
<!-- Node1 -->
<g id="node1" class="node">
<title>Node1</title>
<g id="a_node1"><a xlink:title=" ">
<polygon fill="#bfbfbf" stroke="black" points="284.5,-171.5 284.5,-203.5 451.5,-203.5 451.5,-171.5 284.5,-171.5"/>
<text text-anchor="start" x="292.5" y="-190.7" font-family="-apple-system, BlinkMacSystemFont, 'Segoe UI', Roboto, Oxygen, Ubuntu, Cantarell, 'Fira Sans', 'Droid Sans', 'Helvetica Neue', sans-serif" font-size="11.00">libmirai/public/libmirai</text>
<text text-anchor="middle" x="368" y="-178.7" font-family="-apple-system, BlinkMacSystemFont, 'Segoe UI', Roboto, Oxygen, Ubuntu, Cantarell, 'Fira Sans', 'Droid Sans', 'Helvetica Neue', sans-serif" font-size="11.00">/Events/MemberMuteEvent.hpp</text>
</a>
</g>
</g>
<!-- Node2 -->
<g id="node2" class="node">
<title>Node2</title>
<g id="a_node2"><a xlink:title=" ">
<polygon fill="none" stroke="#bfbfbf" points="0,-57.5 0,-77.5 50,-77.5 50,-57.5 0,-57.5"/>
<text text-anchor="middle" x="25" y="-64.7" font-family="-apple-system, BlinkMacSystemFont, 'Segoe UI', Roboto, Oxygen, Ubuntu, Cantarell, 'Fira Sans', 'Droid Sans', 'Helvetica Neue', sans-serif" font-size="11.00">chrono</text>
</a>
</g>
</g>
<!-- Node1&#45;&gt;Node2 -->
<g id="edge1" class="edge">
<title>Node1&#45;&gt;Node2</title>
<path fill="none" stroke="midnightblue" d="M284.29,-178.12C234.43,-170.99 170.79,-158.07 118,-135 89.08,-122.36 60.21,-99.78 42.49,-84.47"/>
<polygon fill="midnightblue" stroke="midnightblue" points="44.54,-81.61 34.73,-77.62 39.91,-86.86 44.54,-81.61"/>
</g>
<!-- Node3 -->
<g id="node3" class="node">
<title>Node3</title>
<g id="a_node3"><a xlink:title=" ">
<polygon fill="none" stroke="#bfbfbf" points="68,-57.5 68,-77.5 110,-77.5 110,-57.5 68,-57.5"/>
<text text-anchor="middle" x="89" y="-64.7" font-family="-apple-system, BlinkMacSystemFont, 'Segoe UI', Roboto, Oxygen, Ubuntu, Cantarell, 'Fira Sans', 'Droid Sans', 'Helvetica Neue', sans-serif" font-size="11.00">ctime</text>
</a>
</g>
</g>
<!-- Node1&#45;&gt;Node3 -->
<g id="edge2" class="edge">
<title>Node1&#45;&gt;Node3</title>
<path fill="none" stroke="midnightblue" d="M284.27,-179.97C240.23,-173.49 186.86,-160.6 145,-135 125.38,-123 109.28,-101.73 99.45,-86.47"/>
<polygon fill="midnightblue" stroke="midnightblue" points="102.39,-84.57 94.18,-77.88 96.43,-88.23 102.39,-84.57"/>
</g>
<!-- Node4 -->
<g id="node4" class="node">
<title>Node4</title>
<g id="a_node4"><a xlink:title=" ">
<polygon fill="none" stroke="#bfbfbf" points="548,-114.5 548,-134.5 602,-134.5 602,-114.5 548,-114.5"/>
<text text-anchor="middle" x="575" y="-121.7" font-family="-apple-system, BlinkMacSystemFont, 'Segoe UI', Roboto, Oxygen, Ubuntu, Cantarell, 'Fira Sans', 'Droid Sans', 'Helvetica Neue', sans-serif" font-size="11.00">optional</text>
</a>
</g>
</g>
<!-- Node1&#45;&gt;Node4 -->
<g id="edge3" class="edge">
<title>Node1&#45;&gt;Node4</title>
<path fill="none" stroke="midnightblue" d="M418.9,-171.5C455.79,-160.63 504.81,-146.18 538,-136.4"/>
<polygon fill="midnightblue" stroke="midnightblue" points="539.16,-139.71 547.77,-133.53 537.19,-132.99 539.16,-139.71"/>
</g>
<!-- Node5 -->
<g id="node5" class="node">
<title>Node5</title>
<g id="a_node5"><a xlink:title=" ">
<polygon fill="none" stroke="#bfbfbf" points="346.5,-57.5 346.5,-77.5 389.5,-77.5 389.5,-57.5 346.5,-57.5"/>
<text text-anchor="middle" x="368" y="-64.7" font-family="-apple-system, BlinkMacSystemFont, 'Segoe UI', Roboto, Oxygen, Ubuntu, Cantarell, 'Fira Sans', 'Droid Sans', 'Helvetica Neue', sans-serif" font-size="11.00">string</text>
</a>
</g>
</g>
<!-- Node1&#45;&gt;Node5 -->
<g id="edge4" class="edge">
<title>Node1&#45;&gt;Node5</title>
<path fill="none" stroke="midnightblue" d="M368,-171.07C368,-149.71 368,-111.11 368,-87.84"/>
<polygon fill="midnightblue" stroke="midnightblue" points="371.5,-87.79 368,-77.79 364.5,-87.79 371.5,-87.79"/>
</g>
<!-- Node6 -->
<g id="node6" class="node">
<title>Node6</title>
<g id="a_node6"><a xlink:title=" ">
<polygon fill="none" stroke="#bfbfbf" points="266.5,-0.5 266.5,-20.5 397.5,-20.5 397.5,-0.5 266.5,-0.5"/>
<text text-anchor="middle" x="332" y="-7.7" font-family="-apple-system, BlinkMacSystemFont, 'Segoe UI', Roboto, Oxygen, Ubuntu, Cantarell, 'Fira Sans', 'Droid Sans', 'Helvetica Neue', sans-serif" font-size="11.00">nlohmann/json_fwd.hpp</text>
</a>
</g>
</g>
<!-- Node1&#45;&gt;Node6 -->
<g id="edge5" class="edge">
<title>Node1&#45;&gt;Node6</title>
<path fill="none" stroke="midnightblue" d="M377.98,-171.27C393.08,-146.14 417.96,-95 398,-57 390.76,-43.22 377.25,-32.79 364.33,-25.42"/>
<polygon fill="midnightblue" stroke="midnightblue" points="365.6,-22.14 355.12,-20.59 362.35,-28.34 365.6,-22.14"/>
</g>
<!-- Node7 -->
<g id="node7" class="node">
<title>Node7</title>
<g id="a_node7"><a xlink:href="BasicTypes_8hpp.html" target="_top" xlink:title=" ">
<polygon fill="none" stroke="black" points="154,-114.5 154,-134.5 316,-134.5 316,-114.5 154,-114.5"/>
<text text-anchor="middle" x="235" y="-121.7" font-family="-apple-system, BlinkMacSystemFont, 'Segoe UI', Roboto, Oxygen, Ubuntu, Cantarell, 'Fira Sans', 'Droid Sans', 'Helvetica Neue', sans-serif" font-size="11.00">libmirai/Types/BasicTypes.hpp</text>
</a>
</g>
</g>
<!-- Node1&#45;&gt;Node7 -->
<g id="edge6" class="edge">
<title>Node1&#45;&gt;Node7</title>
<path fill="none" stroke="midnightblue" d="M335.12,-171.42C313.34,-161.43 285.03,-148.45 264.07,-138.83"/>
<polygon fill="midnightblue" stroke="midnightblue" points="265.27,-135.53 254.72,-134.55 262.35,-141.9 265.27,-135.53"/>
</g>
<!-- Node9 -->
<g id="node9" class="node">
<title>Node9</title>
<g id="a_node9"><a xlink:href="EventBase_8hpp.html" target="_top" xlink:title=" ">
<polygon fill="none" stroke="black" points="440.5,-114.5 440.5,-134.5 529.5,-134.5 529.5,-114.5 440.5,-114.5"/>
<text text-anchor="middle" x="485" y="-121.7" font-family="-apple-system, BlinkMacSystemFont, 'Segoe UI', Roboto, Oxygen, Ubuntu, Cantarell, 'Fira Sans', 'Droid Sans', 'Helvetica Neue', sans-serif" font-size="11.00">EventBase.hpp</text>
</a>
</g>
</g>
<!-- Node1&#45;&gt;Node9 -->
<g id="edge13" class="edge">
<title>Node1&#45;&gt;Node9</title>
<path fill="none" stroke="midnightblue" d="M396.92,-171.42C415.82,-161.57 440.31,-148.8 458.67,-139.23"/>
<polygon fill="midnightblue" stroke="midnightblue" points="460.4,-142.27 467.65,-134.55 457.16,-136.07 460.4,-142.27"/>
</g>
<!-- Node7&#45;&gt;Node2 -->
<g id="edge7" class="edge">
<title>Node7&#45;&gt;Node2</title>
<path fill="none" stroke="midnightblue" d="M199.22,-114.47C165.63,-105.94 113.75,-92.65 59.95,-78.22"/>
<polygon fill="midnightblue" stroke="midnightblue" points="60.8,-74.83 50.24,-75.61 58.98,-81.59 60.8,-74.83"/>
</g>
<!-- Node7&#45;&gt;Node3 -->
<g id="edge8" class="edge">
<title>Node7&#45;&gt;Node3</title>
<path fill="none" stroke="midnightblue" d="M210.89,-114.42C185.93,-105.02 146.86,-90.3 119.71,-80.07"/>
<polygon fill="midnightblue" stroke="midnightblue" points="120.89,-76.77 110.29,-76.52 118.42,-83.32 120.89,-76.77"/>
</g>
<!-- Node7&#45;&gt;Node5 -->
<g id="edge9" class="edge">
<title>Node7&#45;&gt;Node5</title>
<path fill="none" stroke="midnightblue" d="M256.96,-114.42C278.85,-105.37 312.64,-91.39 337.2,-81.24"/>
<polygon fill="midnightblue" stroke="midnightblue" points="338.54,-84.47 346.45,-77.41 335.87,-78 338.54,-84.47"/>
</g>
<!-- Node7&#45;&gt;Node6 -->
<g id="edge10" class="edge">
<title>Node7&#45;&gt;Node6</title>
<path fill="none" stroke="midnightblue" d="M209.01,-114.44C179.68,-102.78 138.33,-81.14 157,-57 169.58,-40.73 215.11,-29.2 256.57,-21.82"/>
<polygon fill="midnightblue" stroke="midnightblue" points="257.18,-25.26 266.44,-20.12 256,-18.36 257.18,-25.26"/>
</g>
<!-- Node8 -->
<g id="node8" class="node">
<title>Node8</title>
<g id="a_node8"><a xlink:href="Serializable_8hpp.html" target="_top" xlink:title=" ">
<polygon fill="none" stroke="black" points="166,-57.5 166,-77.5 328,-77.5 328,-57.5 166,-57.5"/>
<text text-anchor="middle" x="247" y="-64.7" font-family="-apple-system, BlinkMacSystemFont, 'Segoe UI', Roboto, Oxygen, Ubuntu, Cantarell, 'Fira Sans', 'Droid Sans', 'Helvetica Neue', sans-serif" font-size="11.00">libmirai/Types/Serializable.hpp</text>
</a>
</g>
</g>
<!-- Node7&#45;&gt;Node8 -->
<g id="edge11" class="edge">
<title>Node7&#45;&gt;Node8</title>
<path fill="none" stroke="midnightblue" d="M236.98,-114.42C238.57,-107.14 240.85,-96.67 242.84,-87.57"/>
<polygon fill="midnightblue" stroke="midnightblue" points="246.26,-88.3 244.98,-77.78 239.42,-86.8 246.26,-88.3"/>
</g>
<!-- Node8&#45;&gt;Node6 -->
<g id="edge12" class="edge">
<title>Node8&#45;&gt;Node6</title>
<path fill="none" stroke="midnightblue" d="M261.04,-57.42C274.2,-48.9 294.11,-36.02 309.49,-26.06"/>
<polygon fill="midnightblue" stroke="midnightblue" points="311.45,-28.97 317.94,-20.6 307.65,-23.09 311.45,-28.97"/>
</g>
<!-- Node9&#45;&gt;Node5 -->
<g id="edge15" class="edge">
<title>Node9&#45;&gt;Node5</title>
<path fill="none" stroke="midnightblue" d="M465.68,-114.42C446.88,-105.58 418.09,-92.05 396.63,-81.96"/>
<polygon fill="midnightblue" stroke="midnightblue" points="397.89,-78.68 387.35,-77.6 394.91,-85.02 397.89,-78.68"/>
</g>
<!-- Node9&#45;&gt;Node6 -->
<g id="edge16" class="edge">
<title>Node9&#45;&gt;Node6</title>
<path fill="none" stroke="midnightblue" d="M479.59,-114.19C471.04,-100.17 453.19,-73.53 432,-57 413.73,-42.75 390.28,-31.78 370.68,-24.18"/>
<polygon fill="midnightblue" stroke="midnightblue" points="371.72,-20.83 361.12,-20.62 369.27,-27.39 371.72,-20.83"/>
</g>
<!-- Node10 -->
<g id="node10" class="node">
<title>Node10</title>
<g id="a_node10"><a xlink:title=" ">
<polygon fill="none" stroke="#bfbfbf" points="484,-57.5 484,-77.5 540,-77.5 540,-57.5 484,-57.5"/>
<text text-anchor="middle" x="512" y="-64.7" font-family="-apple-system, BlinkMacSystemFont, 'Segoe UI', Roboto, Oxygen, Ubuntu, Cantarell, 'Fira Sans', 'Droid Sans', 'Helvetica Neue', sans-serif" font-size="11.00">memory</text>
</a>
</g>
</g>
<!-- Node9&#45;&gt;Node10 -->
<g id="edge14" class="edge">
<title>Node9&#45;&gt;Node10</title>
<path fill="none" stroke="midnightblue" d="M489.46,-114.42C493.11,-106.98 498.4,-96.21 502.93,-86.97"/>
<polygon fill="midnightblue" stroke="midnightblue" points="506.18,-88.3 507.44,-77.78 499.9,-85.21 506.18,-88.3"/>
</g>
</g>
</svg>
