<?xml version="1.0" encoding="UTF-8" standalone="no"?>
<!DOCTYPE svg PUBLIC "-//W3C//DTD SVG 1.1//EN"
 "http://www.w3.org/Graphics/SVG/1.1/DTD/svg11.dtd">
<!-- Generated by graphviz version 3.0.0 (20220413.0242)
 -->
<!-- Title: libmirai/public/libmirai/Events/MemberSpecialTitleChangeEvent.cpp Pages: 1 -->
<svg width="536pt" height="236pt"
 viewBox="0.00 0.00 535.93 236.00" xmlns="http://www.w3.org/2000/svg" xmlns:xlink="http://www.w3.org/1999/xlink">
<g id="graph0" class="graph" transform="scale(1 1) rotate(0) translate(4 232)">
<title>libmirai/public/libmirai/Events/MemberSpecialTitleChangeEvent.cpp</title>
<!-- Node1 -->
<g id="node1" class="node">
<title>Node1</title>
<g id="a_node1"><a xlink:title=" ">
<polygon fill="#bfbfbf" stroke="black" points="219.93,-183.5 219.93,-227.5 407.93,-227.5 407.93,-183.5 219.93,-183.5"/>
<text text-anchor="start" x="227.93" y="-214.7" font-family="-apple-system, BlinkMacSystemFont, 'Segoe UI', Roboto, Oxygen, Ubuntu, Cantarell, 'Fira Sans', 'Droid Sans', 'Helvetica Neue', sans-serif" font-size="11.00">libmirai/public/libmirai</text>
<text text-anchor="start" x="227.93" y="-202.7" font-family="-apple-system, BlinkMacSystemFont, 'Segoe UI', Roboto, Oxygen, Ubuntu, Cantarell, 'Fira Sans', 'Droid Sans', 'Helvetica Neue', sans-serif" font-size="11.00">/Events/MemberSpecialTitleChange</text>
<text text-anchor="middle" x="313.93" y="-190.7" font-family="-apple-system, BlinkMacSystemFont, 'Segoe UI', Roboto, Oxygen, Ubuntu, Cantarell, 'Fira Sans', 'Droid Sans', 'Helvetica Neue', sans-serif" font-size="11.00">Event.cpp</text>
</a>
</g>
</g>
<!-- Node2 -->
<g id="node2" class="node">
<title>Node2</title>
<g id="a_node2"><a xlink:href="MemberSpecialTitleChangeEvent_8hpp.html" target="_top" xlink:title=" ">
<polygon fill="none" stroke="black" points="92.43,-114.5 92.43,-146.5 241.43,-146.5 241.43,-114.5 92.43,-114.5"/>
<text text-anchor="start" x="100.43" y="-133.7" font-family="-apple-system, BlinkMacSystemFont, 'Segoe UI', Roboto, Oxygen, Ubuntu, Cantarell, 'Fira Sans', 'Droid Sans', 'Helvetica Neue', sans-serif" font-size="11.00">MemberSpecialTitleChange</text>
<text text-anchor="middle" x="166.93" y="-121.7" font-family="-apple-system, BlinkMacSystemFont, 'Segoe UI', Roboto, Oxygen, Ubuntu, Cantarell, 'Fira Sans', 'Droid Sans', 'Helvetica Neue', sans-serif" font-size="11.00">Event.hpp</text>
</a>
</g>
</g>
<!-- Node1&#45;&gt;Node2 -->
<g id="edge1" class="edge">
<title>Node1&#45;&gt;Node2</title>
<path fill="none" stroke="midnightblue" d="M271.41,-183.39C250.91,-173.21 226.48,-161.07 206.4,-151.1"/>
<polygon fill="midnightblue" stroke="midnightblue" points="207.73,-147.86 197.22,-146.54 204.62,-154.13 207.73,-147.86"/>
</g>
<!-- Node11 -->
<g id="node7" class="node">
<title>Node11</title>
<g id="a_node7"><a xlink:title=" ">
<polygon fill="none" stroke="#bfbfbf" points="259.93,-120.5 259.93,-140.5 367.93,-140.5 367.93,-120.5 259.93,-120.5"/>
<text text-anchor="middle" x="313.93" y="-127.7" font-family="-apple-system, BlinkMacSystemFont, 'Segoe UI', Roboto, Oxygen, Ubuntu, Cantarell, 'Fira Sans', 'Droid Sans', 'Helvetica Neue', sans-serif" font-size="11.00">nlohmann/json.hpp</text>
</a>
</g>
</g>
<!-- Node1&#45;&gt;Node11 -->
<g id="edge10" class="edge">
<title>Node1&#45;&gt;Node11</title>
<path fill="none" stroke="midnightblue" d="M313.93,-183.39C313.93,-173.11 313.93,-160.83 313.93,-150.8"/>
<polygon fill="midnightblue" stroke="midnightblue" points="317.43,-150.66 313.93,-140.66 310.43,-150.66 317.43,-150.66"/>
</g>
<!-- Node12 -->
<g id="node8" class="node">
<title>Node12</title>
<g id="a_node8"><a xlink:title=" ">
<polygon fill="none" stroke="#bfbfbf" points="385.93,-120.5 385.93,-140.5 527.93,-140.5 527.93,-120.5 385.93,-120.5"/>
<text text-anchor="middle" x="456.93" y="-127.7" font-family="-apple-system, BlinkMacSystemFont, 'Segoe UI', Roboto, Oxygen, Ubuntu, Cantarell, 'Fira Sans', 'Droid Sans', 'Helvetica Neue', sans-serif" font-size="11.00">libmirai/Utils/Common.hpp</text>
</a>
</g>
</g>
<!-- Node1&#45;&gt;Node12 -->
<g id="edge11" class="edge">
<title>Node1&#45;&gt;Node12</title>
<path fill="none" stroke="midnightblue" d="M355.29,-183.39C379.32,-171.12 408.92,-156.01 429.96,-145.26"/>
<polygon fill="midnightblue" stroke="midnightblue" points="431.66,-148.33 438.98,-140.66 428.48,-142.09 431.66,-148.33"/>
</g>
<!-- Node3 -->
<g id="node3" class="node">
<title>Node3</title>
<g id="a_node3"><a xlink:title=" ">
<polygon fill="none" stroke="#bfbfbf" points="73.43,-0.5 73.43,-20.5 116.43,-20.5 116.43,-0.5 73.43,-0.5"/>
<text text-anchor="middle" x="94.93" y="-7.7" font-family="-apple-system, BlinkMacSystemFont, 'Segoe UI', Roboto, Oxygen, Ubuntu, Cantarell, 'Fira Sans', 'Droid Sans', 'Helvetica Neue', sans-serif" font-size="11.00">string</text>
</a>
</g>
</g>
<!-- Node2&#45;&gt;Node3 -->
<g id="edge2" class="edge">
<title>Node2&#45;&gt;Node3</title>
<path fill="none" stroke="midnightblue" d="M92.28,-124.85C59.99,-118.68 25.05,-105.51 4.93,-78 -14.35,-51.64 30.5,-31.22 63.57,-20.31"/>
<polygon fill="midnightblue" stroke="midnightblue" points="64.88,-23.57 73.37,-17.23 62.78,-16.89 64.88,-23.57"/>
</g>
<!-- Node4 -->
<g id="node4" class="node">
<title>Node4</title>
<g id="a_node4"><a xlink:title=" ">
<polygon fill="none" stroke="#bfbfbf" points="173.43,-0.5 173.43,-20.5 304.43,-20.5 304.43,-0.5 173.43,-0.5"/>
<text text-anchor="middle" x="238.93" y="-7.7" font-family="-apple-system, BlinkMacSystemFont, 'Segoe UI', Roboto, Oxygen, Ubuntu, Cantarell, 'Fira Sans', 'Droid Sans', 'Helvetica Neue', sans-serif" font-size="11.00">nlohmann/json_fwd.hpp</text>
</a>
</g>
</g>
<!-- Node2&#45;&gt;Node4 -->
<g id="edge3" class="edge">
<title>Node2&#45;&gt;Node4</title>
<path fill="none" stroke="midnightblue" d="M241.54,-115.14C261.55,-107.52 280.94,-95.85 292.93,-78 305.58,-59.16 283.95,-39.14 264.42,-26.06"/>
<polygon fill="midnightblue" stroke="midnightblue" points="266.05,-22.94 255.73,-20.56 262.31,-28.86 266.05,-22.94"/>
</g>
<!-- Node5 -->
<g id="node5" class="node">
<title>Node5</title>
<g id="a_node5"><a xlink:href="BasicTypes_8hpp.html" target="_top" xlink:title=" ">
<polygon fill="none" stroke="red" points="13.93,-57.5 13.93,-77.5 175.93,-77.5 175.93,-57.5 13.93,-57.5"/>
<text text-anchor="middle" x="94.93" y="-64.7" font-family="-apple-system, BlinkMacSystemFont, 'Segoe UI', Roboto, Oxygen, Ubuntu, Cantarell, 'Fira Sans', 'Droid Sans', 'Helvetica Neue', sans-serif" font-size="11.00">libmirai/Types/BasicTypes.hpp</text>
</a>
</g>
</g>
<!-- Node2&#45;&gt;Node5 -->
<g id="edge4" class="edge">
<title>Node2&#45;&gt;Node5</title>
<path fill="none" stroke="midnightblue" d="M149.13,-114.42C138.24,-105.2 124.35,-93.43 113.35,-84.11"/>
<polygon fill="midnightblue" stroke="midnightblue" points="115.5,-81.34 105.6,-77.55 110.97,-86.68 115.5,-81.34"/>
</g>
<!-- Node9 -->
<g id="node6" class="node">
<title>Node9</title>
<g id="a_node6"><a xlink:href="EventBase_8hpp.html" target="_top" xlink:title=" ">
<polygon fill="none" stroke="red" points="194.43,-57.5 194.43,-77.5 283.43,-77.5 283.43,-57.5 194.43,-57.5"/>
<text text-anchor="middle" x="238.93" y="-64.7" font-family="-apple-system, BlinkMacSystemFont, 'Segoe UI', Roboto, Oxygen, Ubuntu, Cantarell, 'Fira Sans', 'Droid Sans', 'Helvetica Neue', sans-serif" font-size="11.00">EventBase.hpp</text>
</a>
</g>
</g>
<!-- Node2&#45;&gt;Node9 -->
<g id="edge7" class="edge">
<title>Node2&#45;&gt;Node9</title>
<path fill="none" stroke="midnightblue" d="M184.72,-114.42C195.61,-105.2 209.51,-93.43 220.5,-84.11"/>
<polygon fill="midnightblue" stroke="midnightblue" points="222.88,-86.68 228.25,-77.55 218.36,-81.34 222.88,-86.68"/>
</g>
<!-- Node5&#45;&gt;Node3 -->
<g id="edge5" class="edge">
<title>Node5&#45;&gt;Node3</title>
<path fill="none" stroke="midnightblue" d="M94.93,-57.42C94.93,-50.22 94.93,-39.9 94.93,-30.86"/>
<polygon fill="midnightblue" stroke="midnightblue" points="98.43,-30.78 94.93,-20.78 91.43,-30.78 98.43,-30.78"/>
</g>
<!-- Node5&#45;&gt;Node4 -->
<g id="edge6" class="edge">
<title>Node5&#45;&gt;Node4</title>
<path fill="none" stroke="midnightblue" d="M118.71,-57.42C142.36,-48.38 178.88,-34.44 205.46,-24.28"/>
<polygon fill="midnightblue" stroke="midnightblue" points="207.02,-27.43 215.11,-20.6 204.52,-20.89 207.02,-27.43"/>
</g>
<!-- Node9&#45;&gt;Node3 -->
<g id="edge8" class="edge">
<title>Node9&#45;&gt;Node3</title>
<path fill="none" stroke="midnightblue" d="M215.15,-57.42C190.92,-48.17 153.22,-33.76 126.5,-23.56"/>
<polygon fill="midnightblue" stroke="midnightblue" points="127.44,-20.17 116.85,-19.87 124.94,-26.71 127.44,-20.17"/>
</g>
<!-- Node9&#45;&gt;Node4 -->
<g id="edge9" class="edge">
<title>Node9&#45;&gt;Node4</title>
<path fill="none" stroke="midnightblue" d="M238.93,-57.42C238.93,-50.22 238.93,-39.9 238.93,-30.86"/>
<polygon fill="midnightblue" stroke="midnightblue" points="242.43,-30.78 238.93,-20.78 235.43,-30.78 242.43,-30.78"/>
</g>
</g>
</svg>
