<?xml version="1.0" encoding="UTF-8" standalone="no"?>
<!DOCTYPE svg PUBLIC "-//W3C//DTD SVG 1.1//EN"
 "http://www.w3.org/Graphics/SVG/1.1/DTD/svg11.dtd">
<!-- Generated by graphviz version 3.0.0 (20220413.0242)
 -->
<!-- Title: libmirai/public/libmirai/Events/MemberHonorChangeEvent.hpp Pages: 1 -->
<svg width="644pt" height="212pt"
 viewBox="0.00 0.00 643.71 212.00" xmlns="http://www.w3.org/2000/svg" xmlns:xlink="http://www.w3.org/1999/xlink">
<g id="graph0" class="graph" transform="scale(1 1) rotate(0) translate(4 208)">
<title>libmirai/public/libmirai/Events/MemberHonorChangeEvent.hpp</title>
<!-- Node1 -->
<g id="node1" class="node">
<title>Node1</title>
<g id="a_node1"><a xlink:title=" ">
<polygon fill="#bfbfbf" stroke="black" points="204.5,-171.5 204.5,-203.5 414.5,-203.5 414.5,-171.5 204.5,-171.5"/>
<text text-anchor="start" x="212.5" y="-190.7" font-family="-apple-system, BlinkMacSystemFont, 'Segoe UI', Roboto, Oxygen, Ubuntu, Cantarell, 'Fira Sans', 'Droid Sans', 'Helvetica Neue', sans-serif" font-size="11.00">libmirai/public/libmirai</text>
<text text-anchor="middle" x="309.5" y="-178.7" font-family="-apple-system, BlinkMacSystemFont, 'Segoe UI', Roboto, Oxygen, Ubuntu, Cantarell, 'Fira Sans', 'Droid Sans', 'Helvetica Neue', sans-serif" font-size="11.00">/Events/MemberHonorChangeEvent.hpp</text>
</a>
</g>
</g>
<!-- Node2 -->
<g id="node2" class="node">
<title>Node2</title>
<g id="a_node2"><a xlink:title=" ">
<polygon fill="none" stroke="#bfbfbf" points="0,-114.5 0,-134.5 41,-134.5 41,-114.5 0,-114.5"/>
<text text-anchor="middle" x="20.5" y="-121.7" font-family="-apple-system, BlinkMacSystemFont, 'Segoe UI', Roboto, Oxygen, Ubuntu, Cantarell, 'Fira Sans', 'Droid Sans', 'Helvetica Neue', sans-serif" font-size="11.00">array</text>
</a>
</g>
</g>
<!-- Node1&#45;&gt;Node2 -->
<g id="edge1" class="edge">
<title>Node1&#45;&gt;Node2</title>
<path fill="none" stroke="midnightblue" d="M228.56,-171.48C178.52,-161.85 113.08,-148.64 55.5,-135 54.04,-134.66 52.56,-134.29 51.06,-133.92"/>
<polygon fill="midnightblue" stroke="midnightblue" points="51.73,-130.48 41.17,-131.35 49.97,-137.25 51.73,-130.48"/>
</g>
<!-- Node3 -->
<g id="node3" class="node">
<title>Node3</title>
<g id="a_node3"><a xlink:title=" ">
<polygon fill="none" stroke="#bfbfbf" points="504,-57.5 504,-77.5 547,-77.5 547,-57.5 504,-57.5"/>
<text text-anchor="middle" x="525.5" y="-64.7" font-family="-apple-system, BlinkMacSystemFont, 'Segoe UI', Roboto, Oxygen, Ubuntu, Cantarell, 'Fira Sans', 'Droid Sans', 'Helvetica Neue', sans-serif" font-size="11.00">string</text>
</a>
</g>
</g>
<!-- Node1&#45;&gt;Node3 -->
<g id="edge2" class="edge">
<title>Node1&#45;&gt;Node3</title>
<path fill="none" stroke="midnightblue" d="M337.3,-171.32C379.49,-148.26 459.1,-104.77 499.93,-82.47"/>
<polygon fill="midnightblue" stroke="midnightblue" points="501.87,-85.4 508.97,-77.53 498.51,-79.26 501.87,-85.4"/>
</g>
<!-- Node4 -->
<g id="node4" class="node">
<title>Node4</title>
<g id="a_node4"><a xlink:title=" ">
<polygon fill="none" stroke="#bfbfbf" points="287,-0.5 287,-20.5 418,-20.5 418,-0.5 287,-0.5"/>
<text text-anchor="middle" x="352.5" y="-7.7" font-family="-apple-system, BlinkMacSystemFont, 'Segoe UI', Roboto, Oxygen, Ubuntu, Cantarell, 'Fira Sans', 'Droid Sans', 'Helvetica Neue', sans-serif" font-size="11.00">nlohmann/json_fwd.hpp</text>
</a>
</g>
</g>
<!-- Node1&#45;&gt;Node4 -->
<g id="edge3" class="edge">
<title>Node1&#45;&gt;Node4</title>
<path fill="none" stroke="midnightblue" d="M232.41,-171.45C150.91,-152.17 40.3,-114.22 88.5,-57 112.2,-28.86 207.45,-18.12 276.75,-14.03"/>
<polygon fill="midnightblue" stroke="midnightblue" points="276.99,-17.52 286.78,-13.47 276.6,-10.53 276.99,-17.52"/>
</g>
<!-- Node5 -->
<g id="node5" class="node">
<title>Node5</title>
<g id="a_node5"><a xlink:href="BasicTypes_8hpp.html" target="_top" xlink:title=" ">
<polygon fill="none" stroke="black" points="228.5,-114.5 228.5,-134.5 390.5,-134.5 390.5,-114.5 228.5,-114.5"/>
<text text-anchor="middle" x="309.5" y="-121.7" font-family="-apple-system, BlinkMacSystemFont, 'Segoe UI', Roboto, Oxygen, Ubuntu, Cantarell, 'Fira Sans', 'Droid Sans', 'Helvetica Neue', sans-serif" font-size="11.00">libmirai/Types/BasicTypes.hpp</text>
</a>
</g>
</g>
<!-- Node1&#45;&gt;Node5 -->
<g id="edge4" class="edge">
<title>Node1&#45;&gt;Node5</title>
<path fill="none" stroke="midnightblue" d="M309.5,-171.42C309.5,-163.38 309.5,-153.39 309.5,-144.78"/>
<polygon fill="midnightblue" stroke="midnightblue" points="313,-144.55 309.5,-134.55 306,-144.55 313,-144.55"/>
</g>
<!-- Node10 -->
<g id="node10" class="node">
<title>Node10</title>
<g id="a_node10"><a xlink:href="EventBase_8hpp.html" target="_top" xlink:title=" ">
<polygon fill="none" stroke="black" points="515,-114.5 515,-134.5 604,-134.5 604,-114.5 515,-114.5"/>
<text text-anchor="middle" x="559.5" y="-121.7" font-family="-apple-system, BlinkMacSystemFont, 'Segoe UI', Roboto, Oxygen, Ubuntu, Cantarell, 'Fira Sans', 'Droid Sans', 'Helvetica Neue', sans-serif" font-size="11.00">EventBase.hpp</text>
</a>
</g>
</g>
<!-- Node1&#45;&gt;Node10 -->
<g id="edge12" class="edge">
<title>Node1&#45;&gt;Node10</title>
<path fill="none" stroke="midnightblue" d="M370.98,-171.5C414.69,-160.83 472.53,-146.72 512.56,-136.95"/>
<polygon fill="midnightblue" stroke="midnightblue" points="513.44,-140.34 522.33,-134.57 511.79,-133.54 513.44,-140.34"/>
</g>
<!-- Node5&#45;&gt;Node3 -->
<g id="edge7" class="edge">
<title>Node5&#45;&gt;Node3</title>
<path fill="none" stroke="midnightblue" d="M349,-114.46C384.52,-106.19 438.32,-93.28 494.16,-77.98"/>
<polygon fill="midnightblue" stroke="midnightblue" points="495.16,-81.33 503.87,-75.3 493.29,-74.59 495.16,-81.33"/>
</g>
<!-- Node5&#45;&gt;Node4 -->
<g id="edge9" class="edge">
<title>Node5&#45;&gt;Node4</title>
<path fill="none" stroke="midnightblue" d="M340.19,-114.39C357.68,-107.44 378.12,-95.95 388.5,-78 398.28,-61.09 384.53,-41.37 371.29,-27.82"/>
<polygon fill="midnightblue" stroke="midnightblue" points="373.4,-24.99 363.75,-20.62 368.57,-30.06 373.4,-24.99"/>
</g>
<!-- Node6 -->
<g id="node6" class="node">
<title>Node6</title>
<g id="a_node6"><a xlink:title=" ">
<polygon fill="none" stroke="#bfbfbf" points="435.5,-57.5 435.5,-77.5 485.5,-77.5 485.5,-57.5 435.5,-57.5"/>
<text text-anchor="middle" x="460.5" y="-64.7" font-family="-apple-system, BlinkMacSystemFont, 'Segoe UI', Roboto, Oxygen, Ubuntu, Cantarell, 'Fira Sans', 'Droid Sans', 'Helvetica Neue', sans-serif" font-size="11.00">chrono</text>
</a>
</g>
</g>
<!-- Node5&#45;&gt;Node6 -->
<g id="edge5" class="edge">
<title>Node5&#45;&gt;Node6</title>
<path fill="none" stroke="midnightblue" d="M334.43,-114.42C359.43,-105.31 398.1,-91.23 426.02,-81.06"/>
<polygon fill="midnightblue" stroke="midnightblue" points="427.58,-84.22 435.78,-77.5 425.19,-77.64 427.58,-84.22"/>
</g>
<!-- Node7 -->
<g id="node7" class="node">
<title>Node7</title>
<g id="a_node7"><a xlink:title=" ">
<polygon fill="none" stroke="#bfbfbf" points="97.5,-57.5 97.5,-77.5 139.5,-77.5 139.5,-57.5 97.5,-57.5"/>
<text text-anchor="middle" x="118.5" y="-64.7" font-family="-apple-system, BlinkMacSystemFont, 'Segoe UI', Roboto, Oxygen, Ubuntu, Cantarell, 'Fira Sans', 'Droid Sans', 'Helvetica Neue', sans-serif" font-size="11.00">ctime</text>
</a>
</g>
</g>
<!-- Node5&#45;&gt;Node7 -->
<g id="edge6" class="edge">
<title>Node5&#45;&gt;Node7</title>
<path fill="none" stroke="midnightblue" d="M276.42,-114.48C245.85,-106.07 198.93,-92.98 149.66,-78.29"/>
<polygon fill="midnightblue" stroke="midnightblue" points="150.36,-74.84 139.78,-75.33 148.36,-81.55 150.36,-74.84"/>
</g>
<!-- Node8 -->
<g id="node8" class="node">
<title>Node8</title>
<g id="a_node8"><a xlink:title=" ">
<polygon fill="none" stroke="#bfbfbf" points="158,-57.5 158,-77.5 199,-77.5 199,-57.5 158,-57.5"/>
<text text-anchor="middle" x="178.5" y="-64.7" font-family="-apple-system, BlinkMacSystemFont, 'Segoe UI', Roboto, Oxygen, Ubuntu, Cantarell, 'Fira Sans', 'Droid Sans', 'Helvetica Neue', sans-serif" font-size="11.00">utility</text>
</a>
</g>
</g>
<!-- Node5&#45;&gt;Node8 -->
<g id="edge8" class="edge">
<title>Node5&#45;&gt;Node8</title>
<path fill="none" stroke="midnightblue" d="M287.87,-114.42C266.28,-105.35 232.92,-91.35 208.72,-81.19"/>
<polygon fill="midnightblue" stroke="midnightblue" points="209.87,-77.88 199.3,-77.23 207.16,-84.33 209.87,-77.88"/>
</g>
<!-- Node9 -->
<g id="node9" class="node">
<title>Node9</title>
<g id="a_node9"><a xlink:href="Serializable_8hpp.html" target="_top" xlink:title=" ">
<polygon fill="none" stroke="black" points="217.5,-57.5 217.5,-77.5 379.5,-77.5 379.5,-57.5 217.5,-57.5"/>
<text text-anchor="middle" x="298.5" y="-64.7" font-family="-apple-system, BlinkMacSystemFont, 'Segoe UI', Roboto, Oxygen, Ubuntu, Cantarell, 'Fira Sans', 'Droid Sans', 'Helvetica Neue', sans-serif" font-size="11.00">libmirai/Types/Serializable.hpp</text>
</a>
</g>
</g>
<!-- Node5&#45;&gt;Node9 -->
<g id="edge10" class="edge">
<title>Node5&#45;&gt;Node9</title>
<path fill="none" stroke="midnightblue" d="M307.68,-114.42C306.24,-107.22 304.18,-96.9 302.37,-87.86"/>
<polygon fill="midnightblue" stroke="midnightblue" points="305.75,-86.9 300.36,-77.78 298.89,-88.27 305.75,-86.9"/>
</g>
<!-- Node9&#45;&gt;Node4 -->
<g id="edge11" class="edge">
<title>Node9&#45;&gt;Node4</title>
<path fill="none" stroke="midnightblue" d="M307.42,-57.42C315.26,-49.42 326.88,-37.59 336.36,-27.94"/>
<polygon fill="midnightblue" stroke="midnightblue" points="338.88,-30.37 343.39,-20.78 333.89,-25.46 338.88,-30.37"/>
</g>
<!-- Node10&#45;&gt;Node3 -->
<g id="edge14" class="edge">
<title>Node10&#45;&gt;Node3</title>
<path fill="none" stroke="midnightblue" d="M553.89,-114.42C549.19,-106.82 542.35,-95.75 536.56,-86.39"/>
<polygon fill="midnightblue" stroke="midnightblue" points="539.47,-84.45 531.24,-77.78 533.52,-88.13 539.47,-84.45"/>
</g>
<!-- Node10&#45;&gt;Node4 -->
<g id="edge15" class="edge">
<title>Node10&#45;&gt;Node4</title>
<path fill="none" stroke="midnightblue" d="M582.54,-114.3C609.89,-102.07 649.53,-79.39 630.5,-57 604.98,-26.97 501.41,-16.71 428.17,-13.24"/>
<polygon fill="midnightblue" stroke="midnightblue" points="428.2,-9.74 418.05,-12.79 427.89,-16.73 428.2,-9.74"/>
</g>
<!-- Node11 -->
<g id="node11" class="node">
<title>Node11</title>
<g id="a_node11"><a xlink:title=" ">
<polygon fill="none" stroke="#bfbfbf" points="565.5,-57.5 565.5,-77.5 621.5,-77.5 621.5,-57.5 565.5,-57.5"/>
<text text-anchor="middle" x="593.5" y="-64.7" font-family="-apple-system, BlinkMacSystemFont, 'Segoe UI', Roboto, Oxygen, Ubuntu, Cantarell, 'Fira Sans', 'Droid Sans', 'Helvetica Neue', sans-serif" font-size="11.00">memory</text>
</a>
</g>
</g>
<!-- Node10&#45;&gt;Node11 -->
<g id="edge13" class="edge">
<title>Node10&#45;&gt;Node11</title>
<path fill="none" stroke="midnightblue" d="M565.11,-114.42C569.81,-106.82 576.65,-95.75 582.44,-86.39"/>
<polygon fill="midnightblue" stroke="midnightblue" points="585.48,-88.13 587.76,-77.78 579.53,-84.45 585.48,-88.13"/>
</g>
</g>
</svg>
