<?xml version="1.0" encoding="UTF-8" standalone="no"?>
<!DOCTYPE svg PUBLIC "-//W3C//DTD SVG 1.1//EN"
 "http://www.w3.org/Graphics/SVG/1.1/DTD/svg11.dtd">
<!-- Generated by graphviz version 2.43.0 (0)
 -->
<!-- Title: libmirai/public/libmirai/Events/MemberJoinEvent.hpp Pages: 1 -->
<svg width="669pt" height="212pt"
 viewBox="0.00 0.00 668.50 212.00" xmlns="http://www.w3.org/2000/svg" xmlns:xlink="http://www.w3.org/1999/xlink">
<g id="graph0" class="graph" transform="scale(1 1) rotate(0) translate(4 208)">
<title>libmirai/public/libmirai/Events/MemberJoinEvent.hpp</title>
<!-- Node1 -->
<g id="node1" class="node">
<title>Node1</title>
<g id="a_node1"><a xlink:title=" ">
<polygon fill="#bfbfbf" stroke="black" points="282.5,-171.5 282.5,-203.5 464.5,-203.5 464.5,-171.5 282.5,-171.5"/>
<text text-anchor="start" x="290.5" y="-190.7" font-family="-apple-system,BlinkMacSystemFont,'SegoeUI',Roboto,Oxygen,Ubuntu,Cantarell,'FiraSans','DroidSans','HelveticaNeue',sans-serif" font-size="11.00">libmirai/public/libmirai</text>
<text text-anchor="middle" x="373.5" y="-178.7" font-family="-apple-system,BlinkMacSystemFont,'SegoeUI',Roboto,Oxygen,Ubuntu,Cantarell,'FiraSans','DroidSans','HelveticaNeue',sans-serif" font-size="11.00">/Events/MemberJoinEvent.hpp</text>
</a>
</g>
</g>
<!-- Node2 -->
<g id="node2" class="node">
<title>Node2</title>
<g id="a_node2"><a xlink:title=" ">
<polygon fill="none" stroke="#bfbfbf" points="0,-114.5 0,-134.5 61,-134.5 61,-114.5 0,-114.5"/>
<text text-anchor="middle" x="30.5" y="-121.7" font-family="-apple-system,BlinkMacSystemFont,'SegoeUI',Roboto,Oxygen,Ubuntu,Cantarell,'FiraSans','DroidSans','HelveticaNeue',sans-serif" font-size="11.00">optional</text>
</a>
</g>
</g>
<!-- Node1&#45;&gt;Node2 -->
<g id="edge1" class="edge">
<title>Node1&#45;&gt;Node2</title>
<path fill="none" stroke="midnightblue" d="M282.37,-171.65C223.3,-161.8 144.72,-148.28 75.5,-135 74.22,-134.75 72.92,-134.5 71.61,-134.24"/>
<polygon fill="midnightblue" stroke="midnightblue" points="71.95,-130.74 61.45,-132.19 70.56,-137.6 71.95,-130.74"/>
</g>
<!-- Node3 -->
<g id="node3" class="node">
<title>Node3</title>
<g id="a_node3"><a xlink:title=" ">
<polygon fill="none" stroke="#bfbfbf" points="494.5,-57.5 494.5,-77.5 542.5,-77.5 542.5,-57.5 494.5,-57.5"/>
<text text-anchor="middle" x="518.5" y="-64.7" font-family="-apple-system,BlinkMacSystemFont,'SegoeUI',Roboto,Oxygen,Ubuntu,Cantarell,'FiraSans','DroidSans','HelveticaNeue',sans-serif" font-size="11.00">string</text>
</a>
</g>
</g>
<!-- Node1&#45;&gt;Node3 -->
<g id="edge2" class="edge">
<title>Node1&#45;&gt;Node3</title>
<path fill="none" stroke="midnightblue" d="M412.87,-171.36C432.22,-162.65 455.06,-150.38 472.5,-135 488.07,-121.27 501,-101.21 509.15,-86.72"/>
<polygon fill="midnightblue" stroke="midnightblue" points="512.33,-88.19 513.99,-77.72 506.17,-84.86 512.33,-88.19"/>
</g>
<!-- Node4 -->
<g id="node4" class="node">
<title>Node4</title>
<g id="a_node4"><a xlink:title=" ">
<polygon fill="none" stroke="#bfbfbf" points="261.5,-0.5 261.5,-20.5 407.5,-20.5 407.5,-0.5 261.5,-0.5"/>
<text text-anchor="middle" x="334.5" y="-7.7" font-family="-apple-system,BlinkMacSystemFont,'SegoeUI',Roboto,Oxygen,Ubuntu,Cantarell,'FiraSans','DroidSans','HelveticaNeue',sans-serif" font-size="11.00">nlohmann/json_fwd.hpp</text>
</a>
</g>
</g>
<!-- Node1&#45;&gt;Node4 -->
<g id="edge3" class="edge">
<title>Node1&#45;&gt;Node4</title>
<path fill="none" stroke="midnightblue" d="M282.49,-175.25C222.09,-162.53 147.08,-135.48 108.5,-78 103.3,-70.25 102.59,-64.22 108.5,-57 126.56,-34.94 194.49,-23.35 251.21,-17.4"/>
<polygon fill="midnightblue" stroke="midnightblue" points="251.69,-20.87 261.29,-16.38 250.99,-13.9 251.69,-20.87"/>
</g>
<!-- Node5 -->
<g id="node5" class="node">
<title>Node5</title>
<g id="a_node5"><a xlink:href="BasicTypes_8hpp.html" target="_top" xlink:title=" ">
<polygon fill="none" stroke="black" points="283,-114.5 283,-134.5 464,-134.5 464,-114.5 283,-114.5"/>
<text text-anchor="middle" x="373.5" y="-121.7" font-family="-apple-system,BlinkMacSystemFont,'SegoeUI',Roboto,Oxygen,Ubuntu,Cantarell,'FiraSans','DroidSans','HelveticaNeue',sans-serif" font-size="11.00">libmirai/Types/BasicTypes.hpp</text>
</a>
</g>
</g>
<!-- Node1&#45;&gt;Node5 -->
<g id="edge4" class="edge">
<title>Node1&#45;&gt;Node5</title>
<path fill="none" stroke="midnightblue" d="M373.5,-171.42C373.5,-163.38 373.5,-153.39 373.5,-144.78"/>
<polygon fill="midnightblue" stroke="midnightblue" points="377,-144.55 373.5,-134.55 370,-144.55 377,-144.55"/>
</g>
<!-- Node9 -->
<g id="node9" class="node">
<title>Node9</title>
<g id="a_node9"><a xlink:href="EventBase_8hpp.html" target="_top" xlink:title=" ">
<polygon fill="none" stroke="black" points="521,-114.5 521,-134.5 620,-134.5 620,-114.5 521,-114.5"/>
<text text-anchor="middle" x="570.5" y="-121.7" font-family="-apple-system,BlinkMacSystemFont,'SegoeUI',Roboto,Oxygen,Ubuntu,Cantarell,'FiraSans','DroidSans','HelveticaNeue',sans-serif" font-size="11.00">EventBase.hpp</text>
</a>
</g>
</g>
<!-- Node1&#45;&gt;Node9 -->
<g id="edge11" class="edge">
<title>Node1&#45;&gt;Node9</title>
<path fill="none" stroke="midnightblue" d="M421.94,-171.5C455.66,-161.06 500.04,-147.32 531.48,-137.58"/>
<polygon fill="midnightblue" stroke="midnightblue" points="532.69,-140.87 541.21,-134.57 530.62,-134.18 532.69,-140.87"/>
</g>
<!-- Node5&#45;&gt;Node3 -->
<g id="edge7" class="edge">
<title>Node5&#45;&gt;Node3</title>
<path fill="none" stroke="midnightblue" d="M397.44,-114.42C421.37,-105.34 458.36,-91.31 485.15,-81.15"/>
<polygon fill="midnightblue" stroke="midnightblue" points="486.41,-84.41 494.52,-77.6 483.93,-77.87 486.41,-84.41"/>
</g>
<!-- Node5&#45;&gt;Node4 -->
<g id="edge8" class="edge">
<title>Node5&#45;&gt;Node4</title>
<path fill="none" stroke="midnightblue" d="M375.74,-114.1C378.44,-100.87 381.75,-76.23 374.5,-57 370.27,-45.78 361.87,-35.53 353.86,-27.61"/>
<polygon fill="midnightblue" stroke="midnightblue" points="355.88,-24.71 346.15,-20.52 351.14,-29.86 355.88,-24.71"/>
</g>
<!-- Node6 -->
<g id="node6" class="node">
<title>Node6</title>
<g id="a_node6"><a xlink:title=" ">
<polygon fill="none" stroke="#bfbfbf" points="422.5,-57.5 422.5,-77.5 476.5,-77.5 476.5,-57.5 422.5,-57.5"/>
<text text-anchor="middle" x="449.5" y="-64.7" font-family="-apple-system,BlinkMacSystemFont,'SegoeUI',Roboto,Oxygen,Ubuntu,Cantarell,'FiraSans','DroidSans','HelveticaNeue',sans-serif" font-size="11.00">chrono</text>
</a>
</g>
</g>
<!-- Node5&#45;&gt;Node6 -->
<g id="edge5" class="edge">
<title>Node5&#45;&gt;Node6</title>
<path fill="none" stroke="midnightblue" d="M386.05,-114.42C397.6,-106.06 414.96,-93.5 428.6,-83.62"/>
<polygon fill="midnightblue" stroke="midnightblue" points="430.88,-86.29 436.93,-77.6 426.78,-80.62 430.88,-86.29"/>
</g>
<!-- Node7 -->
<g id="node7" class="node">
<title>Node7</title>
<g id="a_node7"><a xlink:title=" ">
<polygon fill="none" stroke="#bfbfbf" points="118,-57.5 118,-77.5 165,-77.5 165,-57.5 118,-57.5"/>
<text text-anchor="middle" x="141.5" y="-64.7" font-family="-apple-system,BlinkMacSystemFont,'SegoeUI',Roboto,Oxygen,Ubuntu,Cantarell,'FiraSans','DroidSans','HelveticaNeue',sans-serif" font-size="11.00">ctime</text>
</a>
</g>
</g>
<!-- Node5&#45;&gt;Node7 -->
<g id="edge6" class="edge">
<title>Node5&#45;&gt;Node7</title>
<path fill="none" stroke="midnightblue" d="M330,-114.45C291.49,-106.26 233.57,-93.47 175,-78.28"/>
<polygon fill="midnightblue" stroke="midnightblue" points="175.78,-74.87 165.22,-75.73 174.01,-81.64 175.78,-74.87"/>
</g>
<!-- Node8 -->
<g id="node8" class="node">
<title>Node8</title>
<g id="a_node8"><a xlink:href="Serializable_8hpp.html" target="_top" xlink:title=" ">
<polygon fill="none" stroke="black" points="183,-57.5 183,-77.5 366,-77.5 366,-57.5 183,-57.5"/>
<text text-anchor="middle" x="274.5" y="-64.7" font-family="-apple-system,BlinkMacSystemFont,'SegoeUI',Roboto,Oxygen,Ubuntu,Cantarell,'FiraSans','DroidSans','HelveticaNeue',sans-serif" font-size="11.00">libmirai/Types/Serializable.hpp</text>
</a>
</g>
</g>
<!-- Node5&#45;&gt;Node8 -->
<g id="edge9" class="edge">
<title>Node5&#45;&gt;Node8</title>
<path fill="none" stroke="midnightblue" d="M357.15,-114.42C341.53,-105.74 317.76,-92.53 299.71,-82.51"/>
<polygon fill="midnightblue" stroke="midnightblue" points="301.31,-79.39 290.87,-77.6 297.91,-85.51 301.31,-79.39"/>
</g>
<!-- Node8&#45;&gt;Node4 -->
<g id="edge10" class="edge">
<title>Node8&#45;&gt;Node4</title>
<path fill="none" stroke="midnightblue" d="M284.41,-57.42C293.21,-49.35 306.29,-37.36 316.88,-27.65"/>
<polygon fill="midnightblue" stroke="midnightblue" points="319.37,-30.12 324.38,-20.78 314.64,-24.96 319.37,-30.12"/>
</g>
<!-- Node9&#45;&gt;Node3 -->
<g id="edge13" class="edge">
<title>Node9&#45;&gt;Node3</title>
<path fill="none" stroke="midnightblue" d="M561.91,-114.42C554.43,-106.5 543.39,-94.82 534.31,-85.23"/>
<polygon fill="midnightblue" stroke="midnightblue" points="536.69,-82.64 527.27,-77.78 531.6,-87.45 536.69,-82.64"/>
</g>
<!-- Node9&#45;&gt;Node4 -->
<g id="edge14" class="edge">
<title>Node9&#45;&gt;Node4</title>
<path fill="none" stroke="midnightblue" d="M570.67,-114.25C570.41,-99.82 567.67,-72.05 551.5,-57 532.04,-38.89 470.43,-27.08 417.81,-20.04"/>
<polygon fill="midnightblue" stroke="midnightblue" points="418.12,-16.55 407.76,-18.74 417.22,-23.49 418.12,-16.55"/>
</g>
<!-- Node10 -->
<g id="node10" class="node">
<title>Node10</title>
<g id="a_node10"><a xlink:title=" ">
<polygon fill="none" stroke="#bfbfbf" points="598.5,-57.5 598.5,-77.5 660.5,-77.5 660.5,-57.5 598.5,-57.5"/>
<text text-anchor="middle" x="629.5" y="-64.7" font-family="-apple-system,BlinkMacSystemFont,'SegoeUI',Roboto,Oxygen,Ubuntu,Cantarell,'FiraSans','DroidSans','HelveticaNeue',sans-serif" font-size="11.00">memory</text>
</a>
</g>
</g>
<!-- Node9&#45;&gt;Node10 -->
<g id="edge12" class="edge">
<title>Node9&#45;&gt;Node10</title>
<path fill="none" stroke="midnightblue" d="M580.24,-114.42C588.9,-106.35 601.76,-94.36 612.17,-84.65"/>
<polygon fill="midnightblue" stroke="midnightblue" points="614.62,-87.16 619.55,-77.78 609.84,-82.04 614.62,-87.16"/>
</g>
</g>
</svg>
