<?xml version="1.0" encoding="UTF-8" standalone="no"?>
<!DOCTYPE svg PUBLIC "-//W3C//DTD SVG 1.1//EN"
 "http://www.w3.org/Graphics/SVG/1.1/DTD/svg11.dtd">
<!-- Generated by graphviz version 3.0.0 (20220413.0242)
 -->
<!-- Title: libmirai/public/libmirai/Events/MemberPermissionChangeEvent.hpp Pages: 1 -->
<svg width="561pt" height="224pt"
 viewBox="0.00 0.00 560.89 224.00" xmlns="http://www.w3.org/2000/svg" xmlns:xlink="http://www.w3.org/1999/xlink">
<g id="graph0" class="graph" transform="scale(1 1) rotate(0) translate(4 220)">
<title>libmirai/public/libmirai/Events/MemberPermissionChangeEvent.hpp</title>
<!-- Node1 -->
<g id="node1" class="node">
<title>Node1</title>
<g id="a_node1"><a xlink:title=" ">
<polygon fill="#bfbfbf" stroke="black" points="284.89,-171.5 284.89,-215.5 469.89,-215.5 469.89,-171.5 284.89,-171.5"/>
<text text-anchor="start" x="292.89" y="-202.7" font-family="-apple-system, BlinkMacSystemFont, 'Segoe UI', Roboto, Oxygen, Ubuntu, Cantarell, 'Fira Sans', 'Droid Sans', 'Helvetica Neue', sans-serif" font-size="11.00">libmirai/public/libmirai</text>
<text text-anchor="start" x="292.89" y="-190.7" font-family="-apple-system, BlinkMacSystemFont, 'Segoe UI', Roboto, Oxygen, Ubuntu, Cantarell, 'Fira Sans', 'Droid Sans', 'Helvetica Neue', sans-serif" font-size="11.00">/Events/MemberPermissionChange</text>
<text text-anchor="middle" x="377.39" y="-178.7" font-family="-apple-system, BlinkMacSystemFont, 'Segoe UI', Roboto, Oxygen, Ubuntu, Cantarell, 'Fira Sans', 'Droid Sans', 'Helvetica Neue', sans-serif" font-size="11.00">Event.hpp</text>
</a>
</g>
</g>
<!-- Node2 -->
<g id="node2" class="node">
<title>Node2</title>
<g id="a_node2"><a xlink:title=" ">
<polygon fill="none" stroke="#bfbfbf" points="419.89,-57.5 419.89,-77.5 462.89,-77.5 462.89,-57.5 419.89,-57.5"/>
<text text-anchor="middle" x="441.39" y="-64.7" font-family="-apple-system, BlinkMacSystemFont, 'Segoe UI', Roboto, Oxygen, Ubuntu, Cantarell, 'Fira Sans', 'Droid Sans', 'Helvetica Neue', sans-serif" font-size="11.00">string</text>
</a>
</g>
</g>
<!-- Node1&#45;&gt;Node2 -->
<g id="edge1" class="edge">
<title>Node1&#45;&gt;Node2</title>
<path fill="none" stroke="midnightblue" d="M391.74,-171.41C398.7,-160.74 406.93,-147.44 413.39,-135 421.5,-119.39 429.14,-100.89 434.39,-87.37"/>
<polygon fill="midnightblue" stroke="midnightblue" points="437.76,-88.34 438.04,-77.75 431.22,-85.85 437.76,-88.34"/>
</g>
<!-- Node3 -->
<g id="node3" class="node">
<title>Node3</title>
<g id="a_node3"><a xlink:title=" ">
<polygon fill="none" stroke="#bfbfbf" points="202.89,-0.5 202.89,-20.5 333.89,-20.5 333.89,-0.5 202.89,-0.5"/>
<text text-anchor="middle" x="268.39" y="-7.7" font-family="-apple-system, BlinkMacSystemFont, 'Segoe UI', Roboto, Oxygen, Ubuntu, Cantarell, 'Fira Sans', 'Droid Sans', 'Helvetica Neue', sans-serif" font-size="11.00">nlohmann/json_fwd.hpp</text>
</a>
</g>
</g>
<!-- Node1&#45;&gt;Node3 -->
<g id="edge2" class="edge">
<title>Node1&#45;&gt;Node3</title>
<path fill="none" stroke="midnightblue" d="M284.79,-176.93C185.61,-158.14 37.91,-123.35 4.39,-78 -1.15,-70.49 -1.62,-64.14 4.39,-57 28.1,-28.86 123.34,-18.12 192.64,-14.03"/>
<polygon fill="midnightblue" stroke="midnightblue" points="192.88,-17.52 202.67,-13.47 192.49,-10.53 192.88,-17.52"/>
</g>
<!-- Node4 -->
<g id="node4" class="node">
<title>Node4</title>
<g id="a_node4"><a xlink:href="BasicTypes_8hpp.html" target="_top" xlink:title=" ">
<polygon fill="none" stroke="black" points="242.39,-114.5 242.39,-134.5 404.39,-134.5 404.39,-114.5 242.39,-114.5"/>
<text text-anchor="middle" x="323.39" y="-121.7" font-family="-apple-system, BlinkMacSystemFont, 'Segoe UI', Roboto, Oxygen, Ubuntu, Cantarell, 'Fira Sans', 'Droid Sans', 'Helvetica Neue', sans-serif" font-size="11.00">libmirai/Types/BasicTypes.hpp</text>
</a>
</g>
</g>
<!-- Node1&#45;&gt;Node4 -->
<g id="edge3" class="edge">
<title>Node1&#45;&gt;Node4</title>
<path fill="none" stroke="midnightblue" d="M360.31,-171.3C352.89,-162.1 344.32,-151.46 337.3,-142.75"/>
<polygon fill="midnightblue" stroke="midnightblue" points="339.9,-140.41 330.9,-134.82 334.45,-144.8 339.9,-140.41"/>
</g>
<!-- Node9 -->
<g id="node9" class="node">
<title>Node9</title>
<g id="a_node9"><a xlink:href="EventBase_8hpp.html" target="_top" xlink:title=" ">
<polygon fill="none" stroke="black" points="463.89,-114.5 463.89,-134.5 552.89,-134.5 552.89,-114.5 463.89,-114.5"/>
<text text-anchor="middle" x="508.39" y="-121.7" font-family="-apple-system, BlinkMacSystemFont, 'Segoe UI', Roboto, Oxygen, Ubuntu, Cantarell, 'Fira Sans', 'Droid Sans', 'Helvetica Neue', sans-serif" font-size="11.00">EventBase.hpp</text>
</a>
</g>
</g>
<!-- Node1&#45;&gt;Node9 -->
<g id="edge11" class="edge">
<title>Node1&#45;&gt;Node9</title>
<path fill="none" stroke="midnightblue" d="M418.48,-171.48C439,-160.99 463.24,-148.6 481.38,-139.32"/>
<polygon fill="midnightblue" stroke="midnightblue" points="483.45,-142.19 490.76,-134.52 480.27,-135.95 483.45,-142.19"/>
</g>
<!-- Node4&#45;&gt;Node2 -->
<g id="edge6" class="edge">
<title>Node4&#45;&gt;Node2</title>
<path fill="none" stroke="midnightblue" d="M342.88,-114.42C361.92,-105.54 391.14,-91.93 412.81,-81.82"/>
<polygon fill="midnightblue" stroke="midnightblue" points="414.29,-84.99 421.88,-77.6 411.34,-78.65 414.29,-84.99"/>
</g>
<!-- Node4&#45;&gt;Node3 -->
<g id="edge8" class="edge">
<title>Node4&#45;&gt;Node3</title>
<path fill="none" stroke="midnightblue" d="M321.97,-114.48C319.64,-101.3 314.26,-76.23 304.39,-57 299.07,-46.62 291.2,-36.32 284.17,-28.16"/>
<polygon fill="midnightblue" stroke="midnightblue" points="286.59,-25.6 277.3,-20.5 281.38,-30.28 286.59,-25.6"/>
</g>
<!-- Node5 -->
<g id="node5" class="node">
<title>Node5</title>
<g id="a_node5"><a xlink:title=" ">
<polygon fill="none" stroke="#bfbfbf" points="351.39,-57.5 351.39,-77.5 401.39,-77.5 401.39,-57.5 351.39,-57.5"/>
<text text-anchor="middle" x="376.39" y="-64.7" font-family="-apple-system, BlinkMacSystemFont, 'Segoe UI', Roboto, Oxygen, Ubuntu, Cantarell, 'Fira Sans', 'Droid Sans', 'Helvetica Neue', sans-serif" font-size="11.00">chrono</text>
</a>
</g>
</g>
<!-- Node4&#45;&gt;Node5 -->
<g id="edge4" class="edge">
<title>Node4&#45;&gt;Node5</title>
<path fill="none" stroke="midnightblue" d="M332.15,-114.42C339.77,-106.5 351.03,-94.82 360.28,-85.23"/>
<polygon fill="midnightblue" stroke="midnightblue" points="363.03,-87.41 367.45,-77.78 357.99,-82.55 363.03,-87.41"/>
</g>
<!-- Node6 -->
<g id="node6" class="node">
<title>Node6</title>
<g id="a_node6"><a xlink:title=" ">
<polygon fill="none" stroke="#bfbfbf" points="13.39,-57.5 13.39,-77.5 55.39,-77.5 55.39,-57.5 13.39,-57.5"/>
<text text-anchor="middle" x="34.39" y="-64.7" font-family="-apple-system, BlinkMacSystemFont, 'Segoe UI', Roboto, Oxygen, Ubuntu, Cantarell, 'Fira Sans', 'Droid Sans', 'Helvetica Neue', sans-serif" font-size="11.00">ctime</text>
</a>
</g>
</g>
<!-- Node4&#45;&gt;Node6 -->
<g id="edge5" class="edge">
<title>Node4&#45;&gt;Node6</title>
<path fill="none" stroke="midnightblue" d="M257.97,-114.46C207.67,-106.96 136.33,-95.1 65.58,-78.04"/>
<polygon fill="midnightblue" stroke="midnightblue" points="66.15,-74.58 55.6,-75.6 64.48,-81.38 66.15,-74.58"/>
</g>
<!-- Node7 -->
<g id="node7" class="node">
<title>Node7</title>
<g id="a_node7"><a xlink:title=" ">
<polygon fill="none" stroke="#bfbfbf" points="73.89,-57.5 73.89,-77.5 114.89,-77.5 114.89,-57.5 73.89,-57.5"/>
<text text-anchor="middle" x="94.39" y="-64.7" font-family="-apple-system, BlinkMacSystemFont, 'Segoe UI', Roboto, Oxygen, Ubuntu, Cantarell, 'Fira Sans', 'Droid Sans', 'Helvetica Neue', sans-serif" font-size="11.00">utility</text>
</a>
</g>
</g>
<!-- Node4&#45;&gt;Node7 -->
<g id="edge7" class="edge">
<title>Node4&#45;&gt;Node7</title>
<path fill="none" stroke="midnightblue" d="M279.27,-114.5C240.91,-106.42 183.66,-93.8 124.82,-77.94"/>
<polygon fill="midnightblue" stroke="midnightblue" points="125.55,-74.51 114.98,-75.26 123.71,-81.27 125.55,-74.51"/>
</g>
<!-- Node8 -->
<g id="node8" class="node">
<title>Node8</title>
<g id="a_node8"><a xlink:href="Serializable_8hpp.html" target="_top" xlink:title=" ">
<polygon fill="none" stroke="black" points="133.39,-57.5 133.39,-77.5 295.39,-77.5 295.39,-57.5 133.39,-57.5"/>
<text text-anchor="middle" x="214.39" y="-64.7" font-family="-apple-system, BlinkMacSystemFont, 'Segoe UI', Roboto, Oxygen, Ubuntu, Cantarell, 'Fira Sans', 'Droid Sans', 'Helvetica Neue', sans-serif" font-size="11.00">libmirai/Types/Serializable.hpp</text>
</a>
</g>
</g>
<!-- Node4&#45;&gt;Node8 -->
<g id="edge9" class="edge">
<title>Node4&#45;&gt;Node8</title>
<path fill="none" stroke="midnightblue" d="M305.39,-114.42C288.04,-105.66 261.54,-92.29 241.61,-82.23"/>
<polygon fill="midnightblue" stroke="midnightblue" points="242.92,-78.98 232.42,-77.6 239.77,-85.23 242.92,-78.98"/>
</g>
<!-- Node8&#45;&gt;Node3 -->
<g id="edge10" class="edge">
<title>Node8&#45;&gt;Node3</title>
<path fill="none" stroke="midnightblue" d="M223.31,-57.42C231.16,-49.42 242.78,-37.59 252.25,-27.94"/>
<polygon fill="midnightblue" stroke="midnightblue" points="254.77,-30.37 259.28,-20.78 249.78,-25.46 254.77,-30.37"/>
</g>
<!-- Node9&#45;&gt;Node2 -->
<g id="edge13" class="edge">
<title>Node9&#45;&gt;Node2</title>
<path fill="none" stroke="midnightblue" d="M497.33,-114.42C487.4,-106.27 472.6,-94.12 460.72,-84.37"/>
<polygon fill="midnightblue" stroke="midnightblue" points="462.65,-81.42 452.7,-77.78 458.21,-86.83 462.65,-81.42"/>
</g>
<!-- Node9&#45;&gt;Node3 -->
<g id="edge14" class="edge">
<title>Node9&#45;&gt;Node3</title>
<path fill="none" stroke="midnightblue" d="M520.28,-114.44C536.53,-100.99 561.98,-75.34 546.39,-57 520.88,-26.97 417.3,-16.71 344.07,-13.24"/>
<polygon fill="midnightblue" stroke="midnightblue" points="344.09,-9.74 333.95,-12.79 343.78,-16.73 344.09,-9.74"/>
</g>
<!-- Node10 -->
<g id="node10" class="node">
<title>Node10</title>
<g id="a_node10"><a xlink:title=" ">
<polygon fill="none" stroke="#bfbfbf" points="481.39,-57.5 481.39,-77.5 537.39,-77.5 537.39,-57.5 481.39,-57.5"/>
<text text-anchor="middle" x="509.39" y="-64.7" font-family="-apple-system, BlinkMacSystemFont, 'Segoe UI', Roboto, Oxygen, Ubuntu, Cantarell, 'Fira Sans', 'Droid Sans', 'Helvetica Neue', sans-serif" font-size="11.00">memory</text>
</a>
</g>
</g>
<!-- Node9&#45;&gt;Node10 -->
<g id="edge12" class="edge">
<title>Node9&#45;&gt;Node10</title>
<path fill="none" stroke="midnightblue" d="M508.56,-114.42C508.69,-107.22 508.88,-96.9 509.04,-87.86"/>
<polygon fill="midnightblue" stroke="midnightblue" points="512.54,-87.84 509.22,-77.78 505.54,-87.71 512.54,-87.84"/>
</g>
</g>
</svg>
