<?xml version="1.0" encoding="UTF-8" standalone="no"?>
<!DOCTYPE svg PUBLIC "-//W3C//DTD SVG 1.1//EN"
 "http://www.w3.org/Graphics/SVG/1.1/DTD/svg11.dtd">
<!-- Generated by graphviz version 3.0.0 (20220413.0242)
 -->
<!-- Title: libmirai/public/libmirai/Events/MemberJoinEvent.cpp Pages: 1 -->
<svg width="512pt" height="212pt"
 viewBox="0.00 0.00 512.00 212.00" xmlns="http://www.w3.org/2000/svg" xmlns:xlink="http://www.w3.org/1999/xlink">
<g id="graph0" class="graph" transform="scale(1 1) rotate(0) translate(4 208)">
<title>libmirai/public/libmirai/Events/MemberJoinEvent.cpp</title>
<!-- Node1 -->
<g id="node1" class="node">
<title>Node1</title>
<g id="a_node1"><a xlink:title=" ">
<polygon fill="#bfbfbf" stroke="black" points="209,-171.5 209,-203.5 371,-203.5 371,-171.5 209,-171.5"/>
<text text-anchor="start" x="217" y="-190.7" font-family="-apple-system, BlinkMacSystemFont, 'Segoe UI', Roboto, Oxygen, Ubuntu, Cantarell, 'Fira Sans', 'Droid Sans', 'Helvetica Neue', sans-serif" font-size="11.00">libmirai/public/libmirai</text>
<text text-anchor="middle" x="290" y="-178.7" font-family="-apple-system, BlinkMacSystemFont, 'Segoe UI', Roboto, Oxygen, Ubuntu, Cantarell, 'Fira Sans', 'Droid Sans', 'Helvetica Neue', sans-serif" font-size="11.00">/Events/MemberJoinEvent.cpp</text>
</a>
</g>
</g>
<!-- Node2 -->
<g id="node2" class="node">
<title>Node2</title>
<g id="a_node2"><a xlink:href="MemberJoinEvent_8hpp.html" target="_top" xlink:title=" ">
<polygon fill="none" stroke="black" points="92.5,-114.5 92.5,-134.5 217.5,-134.5 217.5,-114.5 92.5,-114.5"/>
<text text-anchor="middle" x="155" y="-121.7" font-family="-apple-system, BlinkMacSystemFont, 'Segoe UI', Roboto, Oxygen, Ubuntu, Cantarell, 'Fira Sans', 'Droid Sans', 'Helvetica Neue', sans-serif" font-size="11.00">MemberJoinEvent.hpp</text>
</a>
</g>
</g>
<!-- Node1&#45;&gt;Node2 -->
<g id="edge1" class="edge">
<title>Node1&#45;&gt;Node2</title>
<path fill="none" stroke="midnightblue" d="M256.63,-171.42C234.42,-161.39 205.52,-148.33 184.22,-138.7"/>
<polygon fill="midnightblue" stroke="midnightblue" points="185.57,-135.47 175.02,-134.55 182.69,-141.85 185.57,-135.47"/>
</g>
<!-- Node12 -->
<g id="node8" class="node">
<title>Node12</title>
<g id="a_node8"><a xlink:title=" ">
<polygon fill="none" stroke="#bfbfbf" points="236,-114.5 236,-134.5 344,-134.5 344,-114.5 236,-114.5"/>
<text text-anchor="middle" x="290" y="-121.7" font-family="-apple-system, BlinkMacSystemFont, 'Segoe UI', Roboto, Oxygen, Ubuntu, Cantarell, 'Fira Sans', 'Droid Sans', 'Helvetica Neue', sans-serif" font-size="11.00">nlohmann/json.hpp</text>
</a>
</g>
</g>
<!-- Node1&#45;&gt;Node12 -->
<g id="edge11" class="edge">
<title>Node1&#45;&gt;Node12</title>
<path fill="none" stroke="midnightblue" d="M290,-171.42C290,-163.38 290,-153.39 290,-144.78"/>
<polygon fill="midnightblue" stroke="midnightblue" points="293.5,-144.55 290,-134.55 286.5,-144.55 293.5,-144.55"/>
</g>
<!-- Node13 -->
<g id="node9" class="node">
<title>Node13</title>
<g id="a_node9"><a xlink:title=" ">
<polygon fill="none" stroke="#bfbfbf" points="362,-114.5 362,-134.5 504,-134.5 504,-114.5 362,-114.5"/>
<text text-anchor="middle" x="433" y="-121.7" font-family="-apple-system, BlinkMacSystemFont, 'Segoe UI', Roboto, Oxygen, Ubuntu, Cantarell, 'Fira Sans', 'Droid Sans', 'Helvetica Neue', sans-serif" font-size="11.00">libmirai/Utils/Common.hpp</text>
</a>
</g>
</g>
<!-- Node1&#45;&gt;Node13 -->
<g id="edge12" class="edge">
<title>Node1&#45;&gt;Node13</title>
<path fill="none" stroke="midnightblue" d="M325.35,-171.42C348.98,-161.34 379.76,-148.21 402.35,-138.57"/>
<polygon fill="midnightblue" stroke="midnightblue" points="403.97,-141.69 411.79,-134.55 401.22,-135.25 403.97,-141.69"/>
</g>
<!-- Node3 -->
<g id="node3" class="node">
<title>Node3</title>
<g id="a_node3"><a xlink:title=" ">
<polygon fill="none" stroke="#bfbfbf" points="0,-57.5 0,-77.5 54,-77.5 54,-57.5 0,-57.5"/>
<text text-anchor="middle" x="27" y="-64.7" font-family="-apple-system, BlinkMacSystemFont, 'Segoe UI', Roboto, Oxygen, Ubuntu, Cantarell, 'Fira Sans', 'Droid Sans', 'Helvetica Neue', sans-serif" font-size="11.00">optional</text>
</a>
</g>
</g>
<!-- Node2&#45;&gt;Node3 -->
<g id="edge2" class="edge">
<title>Node2&#45;&gt;Node3</title>
<path fill="none" stroke="midnightblue" d="M133.86,-114.42C113.02,-105.46 80.95,-91.68 57.38,-81.55"/>
<polygon fill="midnightblue" stroke="midnightblue" points="58.74,-78.33 48.17,-77.6 55.97,-84.76 58.74,-78.33"/>
</g>
<!-- Node4 -->
<g id="node4" class="node">
<title>Node4</title>
<g id="a_node4"><a xlink:title=" ">
<polygon fill="none" stroke="#bfbfbf" points="133.5,-0.5 133.5,-20.5 176.5,-20.5 176.5,-0.5 133.5,-0.5"/>
<text text-anchor="middle" x="155" y="-7.7" font-family="-apple-system, BlinkMacSystemFont, 'Segoe UI', Roboto, Oxygen, Ubuntu, Cantarell, 'Fira Sans', 'Droid Sans', 'Helvetica Neue', sans-serif" font-size="11.00">string</text>
</a>
</g>
</g>
<!-- Node2&#45;&gt;Node4 -->
<g id="edge3" class="edge">
<title>Node2&#45;&gt;Node4</title>
<path fill="none" stroke="midnightblue" d="M138.15,-114.43C125.59,-106.63 109.39,-94.09 102,-78 92.84,-58.06 112.19,-38.85 130.03,-26.25"/>
<polygon fill="midnightblue" stroke="midnightblue" points="132.13,-29.06 138.54,-20.62 128.27,-23.22 132.13,-29.06"/>
</g>
<!-- Node5 -->
<g id="node5" class="node">
<title>Node5</title>
<g id="a_node5"><a xlink:title=" ">
<polygon fill="none" stroke="#bfbfbf" points="233.5,-0.5 233.5,-20.5 364.5,-20.5 364.5,-0.5 233.5,-0.5"/>
<text text-anchor="middle" x="299" y="-7.7" font-family="-apple-system, BlinkMacSystemFont, 'Segoe UI', Roboto, Oxygen, Ubuntu, Cantarell, 'Fira Sans', 'Droid Sans', 'Helvetica Neue', sans-serif" font-size="11.00">nlohmann/json_fwd.hpp</text>
</a>
</g>
</g>
<!-- Node2&#45;&gt;Node5 -->
<g id="edge4" class="edge">
<title>Node2&#45;&gt;Node5</title>
<path fill="none" stroke="midnightblue" d="M210.76,-114.48C278.14,-103.31 383.3,-84.92 389,-78 407.93,-55.04 371.99,-35.75 340.07,-23.96"/>
<polygon fill="midnightblue" stroke="midnightblue" points="340.95,-20.56 330.35,-20.54 338.63,-27.16 340.95,-20.56"/>
</g>
<!-- Node6 -->
<g id="node6" class="node">
<title>Node6</title>
<g id="a_node6"><a xlink:href="BasicTypes_8hpp.html" target="_top" xlink:title=" ">
<polygon fill="none" stroke="red" points="218,-57.5 218,-77.5 380,-77.5 380,-57.5 218,-57.5"/>
<text text-anchor="middle" x="299" y="-64.7" font-family="-apple-system, BlinkMacSystemFont, 'Segoe UI', Roboto, Oxygen, Ubuntu, Cantarell, 'Fira Sans', 'Droid Sans', 'Helvetica Neue', sans-serif" font-size="11.00">libmirai/Types/BasicTypes.hpp</text>
</a>
</g>
</g>
<!-- Node2&#45;&gt;Node6 -->
<g id="edge5" class="edge">
<title>Node2&#45;&gt;Node6</title>
<path fill="none" stroke="midnightblue" d="M178.78,-114.42C202.44,-105.38 238.95,-91.44 265.53,-81.28"/>
<polygon fill="midnightblue" stroke="midnightblue" points="267.09,-84.43 275.19,-77.6 264.6,-77.89 267.09,-84.43"/>
</g>
<!-- Node10 -->
<g id="node7" class="node">
<title>Node10</title>
<g id="a_node7"><a xlink:href="EventBase_8hpp.html" target="_top" xlink:title=" ">
<polygon fill="none" stroke="red" points="110.5,-57.5 110.5,-77.5 199.5,-77.5 199.5,-57.5 110.5,-57.5"/>
<text text-anchor="middle" x="155" y="-64.7" font-family="-apple-system, BlinkMacSystemFont, 'Segoe UI', Roboto, Oxygen, Ubuntu, Cantarell, 'Fira Sans', 'Droid Sans', 'Helvetica Neue', sans-serif" font-size="11.00">EventBase.hpp</text>
</a>
</g>
</g>
<!-- Node2&#45;&gt;Node10 -->
<g id="edge8" class="edge">
<title>Node2&#45;&gt;Node10</title>
<path fill="none" stroke="midnightblue" d="M155,-114.42C155,-107.22 155,-96.9 155,-87.86"/>
<polygon fill="midnightblue" stroke="midnightblue" points="158.5,-87.78 155,-77.78 151.5,-87.78 158.5,-87.78"/>
</g>
<!-- Node6&#45;&gt;Node4 -->
<g id="edge6" class="edge">
<title>Node6&#45;&gt;Node4</title>
<path fill="none" stroke="midnightblue" d="M275.22,-57.42C251,-48.17 213.29,-33.76 186.57,-23.56"/>
<polygon fill="midnightblue" stroke="midnightblue" points="187.51,-20.17 176.92,-19.87 185.02,-26.71 187.51,-20.17"/>
</g>
<!-- Node6&#45;&gt;Node5 -->
<g id="edge7" class="edge">
<title>Node6&#45;&gt;Node5</title>
<path fill="none" stroke="midnightblue" d="M299,-57.42C299,-50.22 299,-39.9 299,-30.86"/>
<polygon fill="midnightblue" stroke="midnightblue" points="302.5,-30.78 299,-20.78 295.5,-30.78 302.5,-30.78"/>
</g>
<!-- Node10&#45;&gt;Node4 -->
<g id="edge9" class="edge">
<title>Node10&#45;&gt;Node4</title>
<path fill="none" stroke="midnightblue" d="M155,-57.42C155,-50.22 155,-39.9 155,-30.86"/>
<polygon fill="midnightblue" stroke="midnightblue" points="158.5,-30.78 155,-20.78 151.5,-30.78 158.5,-30.78"/>
</g>
<!-- Node10&#45;&gt;Node5 -->
<g id="edge10" class="edge">
<title>Node10&#45;&gt;Node5</title>
<path fill="none" stroke="midnightblue" d="M178.78,-57.42C202.44,-48.38 238.95,-34.44 265.53,-24.28"/>
<polygon fill="midnightblue" stroke="midnightblue" points="267.09,-27.43 275.19,-20.6 264.6,-20.89 267.09,-27.43"/>
</g>
</g>
</svg>
