<?xml version="1.0" encoding="UTF-8" standalone="no"?>
<!DOCTYPE svg PUBLIC "-//W3C//DTD SVG 1.1//EN"
 "http://www.w3.org/Graphics/SVG/1.1/DTD/svg11.dtd">
<!-- Generated by graphviz version 2.43.0 (0)
 -->
<!-- Title: libmirai/public/libmirai/Events/MemberJoinRequestEvent.cpp Pages: 1 -->
<svg width="676pt" height="212pt"
 viewBox="0.00 0.00 675.51 212.00" xmlns="http://www.w3.org/2000/svg" xmlns:xlink="http://www.w3.org/1999/xlink">
<g id="graph0" class="graph" transform="scale(1 1) rotate(0) translate(4 208)">
<title>libmirai/public/libmirai/Events/MemberJoinRequestEvent.cpp</title>
<!-- Node1 -->
<g id="node1" class="node">
<title>Node1</title>
<g id="a_node1"><a xlink:title=" ">
<polygon fill="#bfbfbf" stroke="black" points="260.51,-171.5 260.51,-203.5 486.51,-203.5 486.51,-171.5 260.51,-171.5"/>
<text text-anchor="start" x="268.51" y="-190.7" font-family="-apple-system,BlinkMacSystemFont,'SegoeUI',Roboto,Oxygen,Ubuntu,Cantarell,'FiraSans','DroidSans','HelveticaNeue',sans-serif" font-size="11.00">libmirai/public/libmirai</text>
<text text-anchor="middle" x="373.51" y="-178.7" font-family="-apple-system,BlinkMacSystemFont,'SegoeUI',Roboto,Oxygen,Ubuntu,Cantarell,'FiraSans','DroidSans','HelveticaNeue',sans-serif" font-size="11.00">/Events/MemberJoinRequestEvent.cpp</text>
</a>
</g>
</g>
<!-- Node2 -->
<g id="node2" class="node">
<title>Node2</title>
<g id="a_node2"><a xlink:href="MemberJoinRequestEvent_8hpp.html" target="_top" xlink:title=" ">
<polygon fill="none" stroke="black" points="93.51,-114.5 93.51,-134.5 275.51,-134.5 275.51,-114.5 93.51,-114.5"/>
<text text-anchor="middle" x="184.51" y="-121.7" font-family="-apple-system,BlinkMacSystemFont,'SegoeUI',Roboto,Oxygen,Ubuntu,Cantarell,'FiraSans','DroidSans','HelveticaNeue',sans-serif" font-size="11.00">MemberJoinRequestEvent.hpp</text>
</a>
</g>
</g>
<!-- Node1&#45;&gt;Node2 -->
<g id="edge1" class="edge">
<title>Node1&#45;&gt;Node2</title>
<path fill="none" stroke="midnightblue" d="M326.8,-171.42C294.58,-161.02 252.32,-147.38 222.24,-137.68"/>
<polygon fill="midnightblue" stroke="midnightblue" points="223.13,-134.29 212.54,-134.55 220.98,-140.95 223.13,-134.29"/>
</g>
<!-- Node11 -->
<g id="node7" class="node">
<title>Node11</title>
<g id="a_node7"><a xlink:title=" ">
<polygon fill="none" stroke="#bfbfbf" points="293.51,-114.5 293.51,-134.5 347.51,-134.5 347.51,-114.5 293.51,-114.5"/>
<text text-anchor="middle" x="320.51" y="-121.7" font-family="-apple-system,BlinkMacSystemFont,'SegoeUI',Roboto,Oxygen,Ubuntu,Cantarell,'FiraSans','DroidSans','HelveticaNeue',sans-serif" font-size="11.00">cstdint</text>
</a>
</g>
</g>
<!-- Node1&#45;&gt;Node11 -->
<g id="edge10" class="edge">
<title>Node1&#45;&gt;Node11</title>
<path fill="none" stroke="midnightblue" d="M360.41,-171.42C352.72,-162.56 342.97,-151.35 335.04,-142.22"/>
<polygon fill="midnightblue" stroke="midnightblue" points="337.57,-139.8 328.37,-134.55 332.29,-144.39 337.57,-139.8"/>
</g>
<!-- Node12 -->
<g id="node8" class="node">
<title>Node12</title>
<g id="a_node8"><a xlink:title=" ">
<polygon fill="none" stroke="#bfbfbf" points="366.01,-114.5 366.01,-134.5 487.01,-134.5 487.01,-114.5 366.01,-114.5"/>
<text text-anchor="middle" x="426.51" y="-121.7" font-family="-apple-system,BlinkMacSystemFont,'SegoeUI',Roboto,Oxygen,Ubuntu,Cantarell,'FiraSans','DroidSans','HelveticaNeue',sans-serif" font-size="11.00">nlohmann/json.hpp</text>
</a>
</g>
</g>
<!-- Node1&#45;&gt;Node12 -->
<g id="edge11" class="edge">
<title>Node1&#45;&gt;Node12</title>
<path fill="none" stroke="midnightblue" d="M386.62,-171.42C394.31,-162.56 404.06,-151.35 411.99,-142.22"/>
<polygon fill="midnightblue" stroke="midnightblue" points="414.74,-144.39 418.65,-134.55 409.45,-139.8 414.74,-144.39"/>
</g>
<!-- Node13 -->
<g id="node9" class="node">
<title>Node13</title>
<g id="a_node9"><a xlink:title=" ">
<polygon fill="none" stroke="#bfbfbf" points="505.51,-114.5 505.51,-134.5 667.51,-134.5 667.51,-114.5 505.51,-114.5"/>
<text text-anchor="middle" x="586.51" y="-121.7" font-family="-apple-system,BlinkMacSystemFont,'SegoeUI',Roboto,Oxygen,Ubuntu,Cantarell,'FiraSans','DroidSans','HelveticaNeue',sans-serif" font-size="11.00">libmirai/Utils/Common.hpp</text>
</a>
</g>
</g>
<!-- Node1&#45;&gt;Node13 -->
<g id="edge12" class="edge">
<title>Node1&#45;&gt;Node13</title>
<path fill="none" stroke="midnightblue" d="M425.89,-171.5C462.67,-160.97 511.16,-147.08 545.21,-137.33"/>
<polygon fill="midnightblue" stroke="midnightblue" points="546.2,-140.69 554.85,-134.57 544.27,-133.96 546.2,-140.69"/>
</g>
<!-- Node3 -->
<g id="node3" class="node">
<title>Node3</title>
<g id="a_node3"><a xlink:title=" ">
<polygon fill="none" stroke="#bfbfbf" points="81.51,-0.5 81.51,-20.5 129.51,-20.5 129.51,-0.5 81.51,-0.5"/>
<text text-anchor="middle" x="105.51" y="-7.7" font-family="-apple-system,BlinkMacSystemFont,'SegoeUI',Roboto,Oxygen,Ubuntu,Cantarell,'FiraSans','DroidSans','HelveticaNeue',sans-serif" font-size="11.00">string</text>
</a>
</g>
</g>
<!-- Node2&#45;&gt;Node3 -->
<g id="edge2" class="edge">
<title>Node2&#45;&gt;Node3</title>
<path fill="none" stroke="midnightblue" d="M113.66,-114.46C69.68,-107.24 19.05,-95.4 5.51,-78 -16.13,-50.17 34.45,-30.09 71.29,-19.66"/>
<polygon fill="midnightblue" stroke="midnightblue" points="72.5,-22.96 81.24,-16.98 70.68,-16.2 72.5,-22.96"/>
</g>
<!-- Node4 -->
<g id="node4" class="node">
<title>Node4</title>
<g id="a_node4"><a xlink:title=" ">
<polygon fill="none" stroke="#bfbfbf" points="190.51,-0.5 190.51,-20.5 336.51,-20.5 336.51,-0.5 190.51,-0.5"/>
<text text-anchor="middle" x="263.51" y="-7.7" font-family="-apple-system,BlinkMacSystemFont,'SegoeUI',Roboto,Oxygen,Ubuntu,Cantarell,'FiraSans','DroidSans','HelveticaNeue',sans-serif" font-size="11.00">nlohmann/json_fwd.hpp</text>
</a>
</g>
</g>
<!-- Node2&#45;&gt;Node4 -->
<g id="edge3" class="edge">
<title>Node2&#45;&gt;Node4</title>
<path fill="none" stroke="midnightblue" d="M265.47,-114.45C287.5,-107.85 308.99,-96.7 322.51,-78 336.36,-58.85 312.54,-38.82 291.15,-25.81"/>
<polygon fill="midnightblue" stroke="midnightblue" points="292.66,-22.64 282.25,-20.69 289.17,-28.71 292.66,-22.64"/>
</g>
<!-- Node5 -->
<g id="node5" class="node">
<title>Node5</title>
<g id="a_node5"><a xlink:href="BasicTypes_8hpp.html" target="_top" xlink:title=" ">
<polygon fill="none" stroke="red" points="15.01,-57.5 15.01,-77.5 196.01,-77.5 196.01,-57.5 15.01,-57.5"/>
<text text-anchor="middle" x="105.51" y="-64.7" font-family="-apple-system,BlinkMacSystemFont,'SegoeUI',Roboto,Oxygen,Ubuntu,Cantarell,'FiraSans','DroidSans','HelveticaNeue',sans-serif" font-size="11.00">libmirai/Types/BasicTypes.hpp</text>
</a>
</g>
</g>
<!-- Node2&#45;&gt;Node5 -->
<g id="edge4" class="edge">
<title>Node2&#45;&gt;Node5</title>
<path fill="none" stroke="midnightblue" d="M171.47,-114.42C159.35,-105.98 141.07,-93.26 126.83,-83.34"/>
<polygon fill="midnightblue" stroke="midnightblue" points="128.79,-80.44 118.58,-77.6 124.79,-86.18 128.79,-80.44"/>
</g>
<!-- Node9 -->
<g id="node6" class="node">
<title>Node9</title>
<g id="a_node6"><a xlink:href="EventBase_8hpp.html" target="_top" xlink:title=" ">
<polygon fill="none" stroke="red" points="214.01,-57.5 214.01,-77.5 313.01,-77.5 313.01,-57.5 214.01,-57.5"/>
<text text-anchor="middle" x="263.51" y="-64.7" font-family="-apple-system,BlinkMacSystemFont,'SegoeUI',Roboto,Oxygen,Ubuntu,Cantarell,'FiraSans','DroidSans','HelveticaNeue',sans-serif" font-size="11.00">EventBase.hpp</text>
</a>
</g>
</g>
<!-- Node2&#45;&gt;Node9 -->
<g id="edge7" class="edge">
<title>Node2&#45;&gt;Node9</title>
<path fill="none" stroke="midnightblue" d="M197.56,-114.42C209.68,-105.98 227.95,-93.26 242.2,-83.34"/>
<polygon fill="midnightblue" stroke="midnightblue" points="244.24,-86.18 250.45,-77.6 240.24,-80.44 244.24,-86.18"/>
</g>
<!-- Node5&#45;&gt;Node3 -->
<g id="edge5" class="edge">
<title>Node5&#45;&gt;Node3</title>
<path fill="none" stroke="midnightblue" d="M105.51,-57.42C105.51,-50.22 105.51,-39.9 105.51,-30.86"/>
<polygon fill="midnightblue" stroke="midnightblue" points="109.01,-30.78 105.51,-20.78 102.01,-30.78 109.01,-30.78"/>
</g>
<!-- Node5&#45;&gt;Node4 -->
<g id="edge6" class="edge">
<title>Node5&#45;&gt;Node4</title>
<path fill="none" stroke="midnightblue" d="M131.61,-57.42C157.87,-48.27 198.58,-34.1 227.82,-23.92"/>
<polygon fill="midnightblue" stroke="midnightblue" points="229.35,-27.1 237.65,-20.5 227.05,-20.49 229.35,-27.1"/>
</g>
<!-- Node9&#45;&gt;Node3 -->
<g id="edge8" class="edge">
<title>Node9&#45;&gt;Node3</title>
<path fill="none" stroke="midnightblue" d="M237.42,-57.42C210.61,-48.08 168.74,-33.51 139.39,-23.29"/>
<polygon fill="midnightblue" stroke="midnightblue" points="140.17,-19.86 129.57,-19.87 137.86,-26.47 140.17,-19.86"/>
</g>
<!-- Node9&#45;&gt;Node4 -->
<g id="edge9" class="edge">
<title>Node9&#45;&gt;Node4</title>
<path fill="none" stroke="midnightblue" d="M263.51,-57.42C263.51,-50.22 263.51,-39.9 263.51,-30.86"/>
<polygon fill="midnightblue" stroke="midnightblue" points="267.01,-30.78 263.51,-20.78 260.01,-30.78 267.01,-30.78"/>
</g>
</g>
</svg>
