<?xml version="1.0" encoding="UTF-8" standalone="no"?>
<!DOCTYPE svg PUBLIC "-//W3C//DTD SVG 1.1//EN"
 "http://www.w3.org/Graphics/SVG/1.1/DTD/svg11.dtd">
<!-- Generated by graphviz version 2.43.0 (0)
 -->
<!-- Title: libmirai/public/libmirai/Events/MemberHonorChangeEvent.cpp Pages: 1 -->
<svg width="575pt" height="212pt"
 viewBox="0.00 0.00 575.00 212.00" xmlns="http://www.w3.org/2000/svg" xmlns:xlink="http://www.w3.org/1999/xlink">
<g id="graph0" class="graph" transform="scale(1 1) rotate(0) translate(4 208)">
<title>libmirai/public/libmirai/Events/MemberHonorChangeEvent.cpp</title>
<!-- Node1 -->
<g id="node1" class="node">
<title>Node1</title>
<g id="a_node1"><a xlink:title=" ">
<polygon fill="#bfbfbf" stroke="black" points="208,-171.5 208,-203.5 444,-203.5 444,-171.5 208,-171.5"/>
<text text-anchor="start" x="216" y="-190.7" font-family="-apple-system,BlinkMacSystemFont,'SegoeUI',Roboto,Oxygen,Ubuntu,Cantarell,'FiraSans','DroidSans','HelveticaNeue',sans-serif" font-size="11.00">libmirai/public/libmirai</text>
<text text-anchor="middle" x="326" y="-178.7" font-family="-apple-system,BlinkMacSystemFont,'SegoeUI',Roboto,Oxygen,Ubuntu,Cantarell,'FiraSans','DroidSans','HelveticaNeue',sans-serif" font-size="11.00">/Events/MemberHonorChangeEvent.cpp</text>
</a>
</g>
</g>
<!-- Node2 -->
<g id="node2" class="node">
<title>Node2</title>
<g id="a_node2"><a xlink:href="MemberHonorChangeEvent_8hpp.html" target="_top" xlink:title=" ">
<polygon fill="none" stroke="black" points="56.5,-114.5 56.5,-134.5 247.5,-134.5 247.5,-114.5 56.5,-114.5"/>
<text text-anchor="middle" x="152" y="-121.7" font-family="-apple-system,BlinkMacSystemFont,'SegoeUI',Roboto,Oxygen,Ubuntu,Cantarell,'FiraSans','DroidSans','HelveticaNeue',sans-serif" font-size="11.00">MemberHonorChangeEvent.hpp</text>
</a>
</g>
</g>
<!-- Node1&#45;&gt;Node2 -->
<g id="edge1" class="edge">
<title>Node1&#45;&gt;Node2</title>
<path fill="none" stroke="midnightblue" d="M282.99,-171.42C253.59,-161.11 215.1,-147.62 187.46,-137.93"/>
<polygon fill="midnightblue" stroke="midnightblue" points="188.4,-134.55 177.8,-134.55 186.08,-141.16 188.4,-134.55"/>
</g>
<!-- Node12 -->
<g id="node8" class="node">
<title>Node12</title>
<g id="a_node8"><a xlink:title=" ">
<polygon fill="none" stroke="#bfbfbf" points="265.5,-114.5 265.5,-134.5 386.5,-134.5 386.5,-114.5 265.5,-114.5"/>
<text text-anchor="middle" x="326" y="-121.7" font-family="-apple-system,BlinkMacSystemFont,'SegoeUI',Roboto,Oxygen,Ubuntu,Cantarell,'FiraSans','DroidSans','HelveticaNeue',sans-serif" font-size="11.00">nlohmann/json.hpp</text>
</a>
</g>
</g>
<!-- Node1&#45;&gt;Node12 -->
<g id="edge11" class="edge">
<title>Node1&#45;&gt;Node12</title>
<path fill="none" stroke="midnightblue" d="M326,-171.42C326,-163.38 326,-153.39 326,-144.78"/>
<polygon fill="midnightblue" stroke="midnightblue" points="329.5,-144.55 326,-134.55 322.5,-144.55 329.5,-144.55"/>
</g>
<!-- Node13 -->
<g id="node9" class="node">
<title>Node13</title>
<g id="a_node9"><a xlink:title=" ">
<polygon fill="none" stroke="#bfbfbf" points="405,-114.5 405,-134.5 567,-134.5 567,-114.5 405,-114.5"/>
<text text-anchor="middle" x="486" y="-121.7" font-family="-apple-system,BlinkMacSystemFont,'SegoeUI',Roboto,Oxygen,Ubuntu,Cantarell,'FiraSans','DroidSans','HelveticaNeue',sans-serif" font-size="11.00">libmirai/Utils/Common.hpp</text>
</a>
</g>
</g>
<!-- Node1&#45;&gt;Node13 -->
<g id="edge12" class="edge">
<title>Node1&#45;&gt;Node13</title>
<path fill="none" stroke="midnightblue" d="M365.55,-171.42C392.35,-161.21 427.36,-147.86 452.72,-138.19"/>
<polygon fill="midnightblue" stroke="midnightblue" points="454.18,-141.38 462.27,-134.55 451.68,-134.84 454.18,-141.38"/>
</g>
<!-- Node3 -->
<g id="node3" class="node">
<title>Node3</title>
<g id="a_node3"><a xlink:title=" ">
<polygon fill="none" stroke="#bfbfbf" points="0,-57.5 0,-77.5 46,-77.5 46,-57.5 0,-57.5"/>
<text text-anchor="middle" x="23" y="-64.7" font-family="-apple-system,BlinkMacSystemFont,'SegoeUI',Roboto,Oxygen,Ubuntu,Cantarell,'FiraSans','DroidSans','HelveticaNeue',sans-serif" font-size="11.00">array</text>
</a>
</g>
</g>
<!-- Node2&#45;&gt;Node3 -->
<g id="edge2" class="edge">
<title>Node2&#45;&gt;Node3</title>
<path fill="none" stroke="midnightblue" d="M130.7,-114.42C109.69,-105.46 77.37,-91.68 53.61,-81.55"/>
<polygon fill="midnightblue" stroke="midnightblue" points="54.9,-78.3 44.33,-77.6 52.16,-84.74 54.9,-78.3"/>
</g>
<!-- Node4 -->
<g id="node4" class="node">
<title>Node4</title>
<g id="a_node4"><a xlink:title=" ">
<polygon fill="none" stroke="#bfbfbf" points="128,-0.5 128,-20.5 176,-20.5 176,-0.5 128,-0.5"/>
<text text-anchor="middle" x="152" y="-7.7" font-family="-apple-system,BlinkMacSystemFont,'SegoeUI',Roboto,Oxygen,Ubuntu,Cantarell,'FiraSans','DroidSans','HelveticaNeue',sans-serif" font-size="11.00">string</text>
</a>
</g>
</g>
<!-- Node2&#45;&gt;Node4 -->
<g id="edge3" class="edge">
<title>Node2&#45;&gt;Node4</title>
<path fill="none" stroke="midnightblue" d="M132.75,-114.35C119.17,-106.73 102.01,-94.46 94,-78 84,-57.45 105.35,-38.27 124.9,-25.84"/>
<polygon fill="midnightblue" stroke="midnightblue" points="126.85,-28.76 133.64,-20.63 123.26,-22.75 126.85,-28.76"/>
</g>
<!-- Node5 -->
<g id="node5" class="node">
<title>Node5</title>
<g id="a_node5"><a xlink:title=" ">
<polygon fill="none" stroke="#bfbfbf" points="237,-0.5 237,-20.5 383,-20.5 383,-0.5 237,-0.5"/>
<text text-anchor="middle" x="310" y="-7.7" font-family="-apple-system,BlinkMacSystemFont,'SegoeUI',Roboto,Oxygen,Ubuntu,Cantarell,'FiraSans','DroidSans','HelveticaNeue',sans-serif" font-size="11.00">nlohmann/json_fwd.hpp</text>
</a>
</g>
</g>
<!-- Node2&#45;&gt;Node5 -->
<g id="edge4" class="edge">
<title>Node2&#45;&gt;Node5</title>
<path fill="none" stroke="midnightblue" d="M232.76,-114.48C304.09,-105.69 398.53,-91.68 410,-78 430.33,-53.77 391.43,-34.9 356.37,-23.55"/>
<polygon fill="midnightblue" stroke="midnightblue" points="357.22,-20.15 346.64,-20.55 355.16,-26.84 357.22,-20.15"/>
</g>
<!-- Node6 -->
<g id="node6" class="node">
<title>Node6</title>
<g id="a_node6"><a xlink:href="BasicTypes_8hpp.html" target="_top" xlink:title=" ">
<polygon fill="none" stroke="red" points="219.5,-57.5 219.5,-77.5 400.5,-77.5 400.5,-57.5 219.5,-57.5"/>
<text text-anchor="middle" x="310" y="-64.7" font-family="-apple-system,BlinkMacSystemFont,'SegoeUI',Roboto,Oxygen,Ubuntu,Cantarell,'FiraSans','DroidSans','HelveticaNeue',sans-serif" font-size="11.00">libmirai/Types/BasicTypes.hpp</text>
</a>
</g>
</g>
<!-- Node2&#45;&gt;Node6 -->
<g id="edge5" class="edge">
<title>Node2&#45;&gt;Node6</title>
<path fill="none" stroke="midnightblue" d="M178.09,-114.42C204.36,-105.27 245.06,-91.1 274.31,-80.92"/>
<polygon fill="midnightblue" stroke="midnightblue" points="275.84,-84.1 284.13,-77.5 273.54,-77.49 275.84,-84.1"/>
</g>
<!-- Node10 -->
<g id="node7" class="node">
<title>Node10</title>
<g id="a_node7"><a xlink:href="EventBase_8hpp.html" target="_top" xlink:title=" ">
<polygon fill="none" stroke="red" points="102.5,-57.5 102.5,-77.5 201.5,-77.5 201.5,-57.5 102.5,-57.5"/>
<text text-anchor="middle" x="152" y="-64.7" font-family="-apple-system,BlinkMacSystemFont,'SegoeUI',Roboto,Oxygen,Ubuntu,Cantarell,'FiraSans','DroidSans','HelveticaNeue',sans-serif" font-size="11.00">EventBase.hpp</text>
</a>
</g>
</g>
<!-- Node2&#45;&gt;Node10 -->
<g id="edge8" class="edge">
<title>Node2&#45;&gt;Node10</title>
<path fill="none" stroke="midnightblue" d="M152,-114.42C152,-107.22 152,-96.9 152,-87.86"/>
<polygon fill="midnightblue" stroke="midnightblue" points="155.5,-87.78 152,-77.78 148.5,-87.78 155.5,-87.78"/>
</g>
<!-- Node6&#45;&gt;Node4 -->
<g id="edge6" class="edge">
<title>Node6&#45;&gt;Node4</title>
<path fill="none" stroke="midnightblue" d="M283.91,-57.42C257.09,-48.08 215.23,-33.51 185.87,-23.29"/>
<polygon fill="midnightblue" stroke="midnightblue" points="186.65,-19.86 176.06,-19.87 184.35,-26.47 186.65,-19.86"/>
</g>
<!-- Node6&#45;&gt;Node5 -->
<g id="edge7" class="edge">
<title>Node6&#45;&gt;Node5</title>
<path fill="none" stroke="midnightblue" d="M310,-57.42C310,-50.22 310,-39.9 310,-30.86"/>
<polygon fill="midnightblue" stroke="midnightblue" points="313.5,-30.78 310,-20.78 306.5,-30.78 313.5,-30.78"/>
</g>
<!-- Node10&#45;&gt;Node4 -->
<g id="edge9" class="edge">
<title>Node10&#45;&gt;Node4</title>
<path fill="none" stroke="midnightblue" d="M152,-57.42C152,-50.22 152,-39.9 152,-30.86"/>
<polygon fill="midnightblue" stroke="midnightblue" points="155.5,-30.78 152,-20.78 148.5,-30.78 155.5,-30.78"/>
</g>
<!-- Node10&#45;&gt;Node5 -->
<g id="edge10" class="edge">
<title>Node10&#45;&gt;Node5</title>
<path fill="none" stroke="midnightblue" d="M178.09,-57.42C204.36,-48.27 245.06,-34.1 274.31,-23.92"/>
<polygon fill="midnightblue" stroke="midnightblue" points="275.84,-27.1 284.13,-20.5 273.54,-20.49 275.84,-27.1"/>
</g>
</g>
</svg>
