<?xml version="1.0" encoding="UTF-8" standalone="no"?>
<!DOCTYPE svg PUBLIC "-//W3C//DTD SVG 1.1//EN"
 "http://www.w3.org/Graphics/SVG/1.1/DTD/svg11.dtd">
<!-- Generated by graphviz version 3.0.0 (20220413.0242)
 -->
<!-- Title: libmirai/public/libmirai/Events/MemberHonorChangeEvent.hpp Pages: 1 -->
<svg width="608pt" height="212pt"
 viewBox="0.00 0.00 607.50 212.00" xmlns="http://www.w3.org/2000/svg" xmlns:xlink="http://www.w3.org/1999/xlink">
<g id="graph0" class="graph" transform="scale(1 1) rotate(0) translate(4 208)">
<title>libmirai/public/libmirai/Events/MemberHonorChangeEvent.hpp</title>
<!-- Node1 -->
<g id="node1" class="node">
<title>Node1</title>
<g id="a_node1"><a xlink:title=" ">
<polygon fill="#bfbfbf" stroke="black" points="228.5,-171.5 228.5,-203.5 438.5,-203.5 438.5,-171.5 228.5,-171.5"/>
<text text-anchor="start" x="236.5" y="-190.7" font-family="-apple-system, BlinkMacSystemFont, 'Segoe UI', Roboto, Oxygen, Ubuntu, Cantarell, 'Fira Sans', 'Droid Sans', 'Helvetica Neue', sans-serif" font-size="11.00">libmirai/public/libmirai</text>
<text text-anchor="middle" x="333.5" y="-178.7" font-family="-apple-system, BlinkMacSystemFont, 'Segoe UI', Roboto, Oxygen, Ubuntu, Cantarell, 'Fira Sans', 'Droid Sans', 'Helvetica Neue', sans-serif" font-size="11.00">/Events/MemberHonorChangeEvent.hpp</text>
</a>
</g>
</g>
<!-- Node2 -->
<g id="node2" class="node">
<title>Node2</title>
<g id="a_node2"><a xlink:title=" ">
<polygon fill="none" stroke="#bfbfbf" points="0,-114.5 0,-134.5 41,-134.5 41,-114.5 0,-114.5"/>
<text text-anchor="middle" x="20.5" y="-121.7" font-family="-apple-system, BlinkMacSystemFont, 'Segoe UI', Roboto, Oxygen, Ubuntu, Cantarell, 'Fira Sans', 'Droid Sans', 'Helvetica Neue', sans-serif" font-size="11.00">array</text>
</a>
</g>
</g>
<!-- Node1&#45;&gt;Node2 -->
<g id="edge1" class="edge">
<title>Node1&#45;&gt;Node2</title>
<path fill="none" stroke="midnightblue" d="M242.03,-171.5C187.62,-162.09 117.36,-149.1 55.5,-135 54.04,-134.67 52.55,-134.32 51.05,-133.95"/>
<polygon fill="midnightblue" stroke="midnightblue" points="51.71,-130.51 41.16,-131.41 49.97,-137.29 51.71,-130.51"/>
</g>
<!-- Node3 -->
<g id="node3" class="node">
<title>Node3</title>
<g id="a_node3"><a xlink:title=" ">
<polygon fill="none" stroke="#bfbfbf" points="444,-57.5 444,-77.5 487,-77.5 487,-57.5 444,-57.5"/>
<text text-anchor="middle" x="465.5" y="-64.7" font-family="-apple-system, BlinkMacSystemFont, 'Segoe UI', Roboto, Oxygen, Ubuntu, Cantarell, 'Fira Sans', 'Droid Sans', 'Helvetica Neue', sans-serif" font-size="11.00">string</text>
</a>
</g>
</g>
<!-- Node1&#45;&gt;Node3 -->
<g id="edge2" class="edge">
<title>Node1&#45;&gt;Node3</title>
<path fill="none" stroke="midnightblue" d="M368.62,-171.42C386.45,-162.6 407.64,-150.19 423.5,-135 437.95,-121.17 449.61,-101.4 456.95,-87.01"/>
<polygon fill="midnightblue" stroke="midnightblue" points="460.27,-88.17 461.5,-77.65 453.98,-85.11 460.27,-88.17"/>
</g>
<!-- Node4 -->
<g id="node4" class="node">
<title>Node4</title>
<g id="a_node4"><a xlink:title=" ">
<polygon fill="none" stroke="#bfbfbf" points="227,-0.5 227,-20.5 358,-20.5 358,-0.5 227,-0.5"/>
<text text-anchor="middle" x="292.5" y="-7.7" font-family="-apple-system, BlinkMacSystemFont, 'Segoe UI', Roboto, Oxygen, Ubuntu, Cantarell, 'Fira Sans', 'Droid Sans', 'Helvetica Neue', sans-serif" font-size="11.00">nlohmann/json_fwd.hpp</text>
</a>
</g>
</g>
<!-- Node1&#45;&gt;Node4 -->
<g id="edge3" class="edge">
<title>Node1&#45;&gt;Node4</title>
<path fill="none" stroke="midnightblue" d="M242.16,-171.5C187.55,-157.32 122.38,-130.05 88.5,-78 55.62,-27.49 145.79,-14.26 216.6,-11.37"/>
<polygon fill="midnightblue" stroke="midnightblue" points="217.02,-14.85 226.89,-11.01 216.77,-7.86 217.02,-14.85"/>
</g>
<!-- Node5 -->
<g id="node5" class="node">
<title>Node5</title>
<g id="a_node5"><a xlink:href="BasicTypes_8hpp.html" target="_top" xlink:title=" ">
<polygon fill="none" stroke="black" points="252.5,-114.5 252.5,-134.5 414.5,-134.5 414.5,-114.5 252.5,-114.5"/>
<text text-anchor="middle" x="333.5" y="-121.7" font-family="-apple-system, BlinkMacSystemFont, 'Segoe UI', Roboto, Oxygen, Ubuntu, Cantarell, 'Fira Sans', 'Droid Sans', 'Helvetica Neue', sans-serif" font-size="11.00">libmirai/Types/BasicTypes.hpp</text>
</a>
</g>
</g>
<!-- Node1&#45;&gt;Node5 -->
<g id="edge4" class="edge">
<title>Node1&#45;&gt;Node5</title>
<path fill="none" stroke="midnightblue" d="M333.5,-171.42C333.5,-163.38 333.5,-153.39 333.5,-144.78"/>
<polygon fill="midnightblue" stroke="midnightblue" points="337,-144.55 333.5,-134.55 330,-144.55 337,-144.55"/>
</g>
<!-- Node9 -->
<g id="node9" class="node">
<title>Node9</title>
<g id="a_node9"><a xlink:href="EventBase_8hpp.html" target="_top" xlink:title=" ">
<polygon fill="none" stroke="black" points="471,-114.5 471,-134.5 560,-134.5 560,-114.5 471,-114.5"/>
<text text-anchor="middle" x="515.5" y="-121.7" font-family="-apple-system, BlinkMacSystemFont, 'Segoe UI', Roboto, Oxygen, Ubuntu, Cantarell, 'Fira Sans', 'Droid Sans', 'Helvetica Neue', sans-serif" font-size="11.00">EventBase.hpp</text>
</a>
</g>
</g>
<!-- Node1&#45;&gt;Node9 -->
<g id="edge11" class="edge">
<title>Node1&#45;&gt;Node9</title>
<path fill="none" stroke="midnightblue" d="M378.49,-171.42C409.37,-161.07 449.86,-147.5 478.79,-137.8"/>
<polygon fill="midnightblue" stroke="midnightblue" points="480.14,-141.04 488.51,-134.55 477.92,-134.41 480.14,-141.04"/>
</g>
<!-- Node5&#45;&gt;Node3 -->
<g id="edge7" class="edge">
<title>Node5&#45;&gt;Node3</title>
<path fill="none" stroke="midnightblue" d="M355.3,-114.42C376.79,-105.46 409.87,-91.68 434.18,-81.55"/>
<polygon fill="midnightblue" stroke="midnightblue" points="435.79,-84.67 443.67,-77.6 433.09,-78.21 435.79,-84.67"/>
</g>
<!-- Node5&#45;&gt;Node4 -->
<g id="edge8" class="edge">
<title>Node5&#45;&gt;Node4</title>
<path fill="none" stroke="midnightblue" d="M334.48,-114.09C335.48,-100.85 335.99,-76.2 328.5,-57 324.27,-46.16 316.53,-35.84 309.31,-27.78"/>
<polygon fill="midnightblue" stroke="midnightblue" points="311.84,-25.36 302.4,-20.53 306.77,-30.19 311.84,-25.36"/>
</g>
<!-- Node6 -->
<g id="node6" class="node">
<title>Node6</title>
<g id="a_node6"><a xlink:title=" ">
<polygon fill="none" stroke="#bfbfbf" points="375.5,-57.5 375.5,-77.5 425.5,-77.5 425.5,-57.5 375.5,-57.5"/>
<text text-anchor="middle" x="400.5" y="-64.7" font-family="-apple-system, BlinkMacSystemFont, 'Segoe UI', Roboto, Oxygen, Ubuntu, Cantarell, 'Fira Sans', 'Droid Sans', 'Helvetica Neue', sans-serif" font-size="11.00">chrono</text>
</a>
</g>
</g>
<!-- Node5&#45;&gt;Node6 -->
<g id="edge5" class="edge">
<title>Node5&#45;&gt;Node6</title>
<path fill="none" stroke="midnightblue" d="M344.56,-114.42C354.49,-106.27 369.29,-94.12 381.17,-84.37"/>
<polygon fill="midnightblue" stroke="midnightblue" points="383.69,-86.83 389.2,-77.78 379.25,-81.42 383.69,-86.83"/>
</g>
<!-- Node7 -->
<g id="node7" class="node">
<title>Node7</title>
<g id="a_node7"><a xlink:title=" ">
<polygon fill="none" stroke="#bfbfbf" points="97.5,-57.5 97.5,-77.5 139.5,-77.5 139.5,-57.5 97.5,-57.5"/>
<text text-anchor="middle" x="118.5" y="-64.7" font-family="-apple-system, BlinkMacSystemFont, 'Segoe UI', Roboto, Oxygen, Ubuntu, Cantarell, 'Fira Sans', 'Droid Sans', 'Helvetica Neue', sans-serif" font-size="11.00">ctime</text>
</a>
</g>
</g>
<!-- Node5&#45;&gt;Node7 -->
<g id="edge6" class="edge">
<title>Node5&#45;&gt;Node7</title>
<path fill="none" stroke="midnightblue" d="M293.61,-114.48C258.13,-106.29 204.66,-93.51 149.67,-78.2"/>
<polygon fill="midnightblue" stroke="midnightblue" points="150.33,-74.75 139.75,-75.42 148.44,-81.49 150.33,-74.75"/>
</g>
<!-- Node8 -->
<g id="node8" class="node">
<title>Node8</title>
<g id="a_node8"><a xlink:href="Serializable_8hpp.html" target="_top" xlink:title=" ">
<polygon fill="none" stroke="black" points="157.5,-57.5 157.5,-77.5 319.5,-77.5 319.5,-57.5 157.5,-57.5"/>
<text text-anchor="middle" x="238.5" y="-64.7" font-family="-apple-system, BlinkMacSystemFont, 'Segoe UI', Roboto, Oxygen, Ubuntu, Cantarell, 'Fira Sans', 'Droid Sans', 'Helvetica Neue', sans-serif" font-size="11.00">libmirai/Types/Serializable.hpp</text>
</a>
</g>
</g>
<!-- Node5&#45;&gt;Node8 -->
<g id="edge9" class="edge">
<title>Node5&#45;&gt;Node8</title>
<path fill="none" stroke="midnightblue" d="M317.81,-114.42C302.96,-105.82 280.43,-92.78 263.17,-82.78"/>
<polygon fill="midnightblue" stroke="midnightblue" points="264.62,-79.58 254.21,-77.6 261.11,-85.64 264.62,-79.58"/>
</g>
<!-- Node8&#45;&gt;Node4 -->
<g id="edge10" class="edge">
<title>Node8&#45;&gt;Node4</title>
<path fill="none" stroke="midnightblue" d="M247.42,-57.42C255.26,-49.42 266.88,-37.59 276.36,-27.94"/>
<polygon fill="midnightblue" stroke="midnightblue" points="278.88,-30.37 283.39,-20.78 273.89,-25.46 278.88,-30.37"/>
</g>
<!-- Node9&#45;&gt;Node3 -->
<g id="edge13" class="edge">
<title>Node9&#45;&gt;Node3</title>
<path fill="none" stroke="midnightblue" d="M507.24,-114.42C500.05,-106.5 489.43,-94.82 480.7,-85.23"/>
<polygon fill="midnightblue" stroke="midnightblue" points="483.25,-82.82 473.94,-77.78 478.07,-87.53 483.25,-82.82"/>
</g>
<!-- Node9&#45;&gt;Node4 -->
<g id="edge14" class="edge">
<title>Node9&#45;&gt;Node4</title>
<path fill="none" stroke="midnightblue" d="M515.5,-114.26C514.97,-99.86 511.74,-72.11 495.5,-57 476.98,-39.76 417.93,-27.76 368.26,-20.43"/>
<polygon fill="midnightblue" stroke="midnightblue" points="368.54,-16.94 358.15,-18.99 367.55,-23.87 368.54,-16.94"/>
</g>
<!-- Node10 -->
<g id="node10" class="node">
<title>Node10</title>
<g id="a_node10"><a xlink:title=" ">
<polygon fill="none" stroke="#bfbfbf" points="543.5,-57.5 543.5,-77.5 599.5,-77.5 599.5,-57.5 543.5,-57.5"/>
<text text-anchor="middle" x="571.5" y="-64.7" font-family="-apple-system, BlinkMacSystemFont, 'Segoe UI', Roboto, Oxygen, Ubuntu, Cantarell, 'Fira Sans', 'Droid Sans', 'Helvetica Neue', sans-serif" font-size="11.00">memory</text>
</a>
</g>
</g>
<!-- Node9&#45;&gt;Node10 -->
<g id="edge12" class="edge">
<title>Node9&#45;&gt;Node10</title>
<path fill="none" stroke="midnightblue" d="M524.75,-114.42C532.89,-106.42 544.94,-94.59 554.76,-84.94"/>
<polygon fill="midnightblue" stroke="midnightblue" points="557.37,-87.28 562.05,-77.78 552.46,-82.29 557.37,-87.28"/>
</g>
</g>
</svg>
