<?xml version="1.0" encoding="UTF-8" standalone="no"?>
<!DOCTYPE svg PUBLIC "-//W3C//DTD SVG 1.1//EN"
 "http://www.w3.org/Graphics/SVG/1.1/DTD/svg11.dtd">
<!-- Generated by graphviz version 2.43.0 (0)
 -->
<!-- Title: libmirai/public/libmirai/Events/MemberMuteEvent.cpp Pages: 1 -->
<svg width="681pt" height="212pt"
 viewBox="0.00 0.00 681.00 212.00" xmlns="http://www.w3.org/2000/svg" xmlns:xlink="http://www.w3.org/1999/xlink">
<g id="graph0" class="graph" transform="scale(1 1) rotate(0) translate(4 208)">
<title>libmirai/public/libmirai/Events/MemberMuteEvent.cpp</title>
<!-- Node1 -->
<g id="node1" class="node">
<title>Node1</title>
<g id="a_node1"><a xlink:title=" ">
<polygon fill="#bfbfbf" stroke="black" points="337.5,-171.5 337.5,-203.5 526.5,-203.5 526.5,-171.5 337.5,-171.5"/>
<text text-anchor="start" x="345.5" y="-190.7" font-family="-apple-system,BlinkMacSystemFont,'SegoeUI',Roboto,Oxygen,Ubuntu,Cantarell,'FiraSans','DroidSans','HelveticaNeue',sans-serif" font-size="11.00">libmirai/public/libmirai</text>
<text text-anchor="middle" x="432" y="-178.7" font-family="-apple-system,BlinkMacSystemFont,'SegoeUI',Roboto,Oxygen,Ubuntu,Cantarell,'FiraSans','DroidSans','HelveticaNeue',sans-serif" font-size="11.00">/Events/MemberMuteEvent.cpp</text>
</a>
</g>
</g>
<!-- Node2 -->
<g id="node2" class="node">
<title>Node2</title>
<g id="a_node2"><a xlink:href="MemberMuteEvent_8hpp.html" target="_top" xlink:title=" ">
<polygon fill="none" stroke="black" points="208.5,-114.5 208.5,-134.5 353.5,-134.5 353.5,-114.5 208.5,-114.5"/>
<text text-anchor="middle" x="281" y="-121.7" font-family="-apple-system,BlinkMacSystemFont,'SegoeUI',Roboto,Oxygen,Ubuntu,Cantarell,'FiraSans','DroidSans','HelveticaNeue',sans-serif" font-size="11.00">MemberMuteEvent.hpp</text>
</a>
</g>
</g>
<!-- Node1&#45;&gt;Node2 -->
<g id="edge1" class="edge">
<title>Node1&#45;&gt;Node2</title>
<path fill="none" stroke="midnightblue" d="M394.67,-171.42C369.5,-161.25 336.63,-147.97 312.72,-138.32"/>
<polygon fill="midnightblue" stroke="midnightblue" points="313.98,-135.05 303.39,-134.55 311.35,-141.54 313.98,-135.05"/>
</g>
<!-- Node12 -->
<g id="node10" class="node">
<title>Node12</title>
<g id="a_node10"><a xlink:title=" ">
<polygon fill="none" stroke="#bfbfbf" points="371.5,-114.5 371.5,-134.5 492.5,-134.5 492.5,-114.5 371.5,-114.5"/>
<text text-anchor="middle" x="432" y="-121.7" font-family="-apple-system,BlinkMacSystemFont,'SegoeUI',Roboto,Oxygen,Ubuntu,Cantarell,'FiraSans','DroidSans','HelveticaNeue',sans-serif" font-size="11.00">nlohmann/json.hpp</text>
</a>
</g>
</g>
<!-- Node1&#45;&gt;Node12 -->
<g id="edge15" class="edge">
<title>Node1&#45;&gt;Node12</title>
<path fill="none" stroke="midnightblue" d="M432,-171.42C432,-163.38 432,-153.39 432,-144.78"/>
<polygon fill="midnightblue" stroke="midnightblue" points="435.5,-144.55 432,-134.55 428.5,-144.55 435.5,-144.55"/>
</g>
<!-- Node13 -->
<g id="node11" class="node">
<title>Node13</title>
<g id="a_node11"><a xlink:title=" ">
<polygon fill="none" stroke="#bfbfbf" points="511,-114.5 511,-134.5 673,-134.5 673,-114.5 511,-114.5"/>
<text text-anchor="middle" x="592" y="-121.7" font-family="-apple-system,BlinkMacSystemFont,'SegoeUI',Roboto,Oxygen,Ubuntu,Cantarell,'FiraSans','DroidSans','HelveticaNeue',sans-serif" font-size="11.00">libmirai/Utils/Common.hpp</text>
</a>
</g>
</g>
<!-- Node1&#45;&gt;Node13 -->
<g id="edge16" class="edge">
<title>Node1&#45;&gt;Node13</title>
<path fill="none" stroke="midnightblue" d="M471.55,-171.42C498.35,-161.21 533.36,-147.86 558.72,-138.19"/>
<polygon fill="midnightblue" stroke="midnightblue" points="560.18,-141.38 568.27,-134.55 557.68,-134.84 560.18,-141.38"/>
</g>
<!-- Node3 -->
<g id="node3" class="node">
<title>Node3</title>
<g id="a_node3"><a xlink:title=" ">
<polygon fill="none" stroke="#bfbfbf" points="0,-0.5 0,-20.5 54,-20.5 54,-0.5 0,-0.5"/>
<text text-anchor="middle" x="27" y="-7.7" font-family="-apple-system,BlinkMacSystemFont,'SegoeUI',Roboto,Oxygen,Ubuntu,Cantarell,'FiraSans','DroidSans','HelveticaNeue',sans-serif" font-size="11.00">chrono</text>
</a>
</g>
</g>
<!-- Node2&#45;&gt;Node3 -->
<g id="edge2" class="edge">
<title>Node2&#45;&gt;Node3</title>
<path fill="none" stroke="midnightblue" d="M208.42,-116.44C151.16,-109.54 77.22,-97.22 54,-78 39.79,-66.24 32.98,-45.83 29.77,-30.72"/>
<polygon fill="midnightblue" stroke="midnightblue" points="33.21,-30.08 28.01,-20.85 26.32,-31.31 33.21,-30.08"/>
</g>
<!-- Node4 -->
<g id="node4" class="node">
<title>Node4</title>
<g id="a_node4"><a xlink:title=" ">
<polygon fill="none" stroke="#bfbfbf" points="116.5,-0.5 116.5,-20.5 163.5,-20.5 163.5,-0.5 116.5,-0.5"/>
<text text-anchor="middle" x="140" y="-7.7" font-family="-apple-system,BlinkMacSystemFont,'SegoeUI',Roboto,Oxygen,Ubuntu,Cantarell,'FiraSans','DroidSans','HelveticaNeue',sans-serif" font-size="11.00">ctime</text>
</a>
</g>
</g>
<!-- Node2&#45;&gt;Node4 -->
<g id="edge3" class="edge">
<title>Node2&#45;&gt;Node4</title>
<path fill="none" stroke="midnightblue" d="M208.34,-118.12C151.93,-112.25 80.32,-100.52 62,-78 44.19,-56.11 78.37,-35.82 106.97,-23.55"/>
<polygon fill="midnightblue" stroke="midnightblue" points="108.44,-26.73 116.37,-19.71 105.79,-20.25 108.44,-26.73"/>
</g>
<!-- Node5 -->
<g id="node5" class="node">
<title>Node5</title>
<g id="a_node5"><a xlink:title=" ">
<polygon fill="none" stroke="#bfbfbf" points="465.5,-57.5 465.5,-77.5 526.5,-77.5 526.5,-57.5 465.5,-57.5"/>
<text text-anchor="middle" x="496" y="-64.7" font-family="-apple-system,BlinkMacSystemFont,'SegoeUI',Roboto,Oxygen,Ubuntu,Cantarell,'FiraSans','DroidSans','HelveticaNeue',sans-serif" font-size="11.00">optional</text>
</a>
</g>
</g>
<!-- Node2&#45;&gt;Node5 -->
<g id="edge4" class="edge">
<title>Node2&#45;&gt;Node5</title>
<path fill="none" stroke="midnightblue" d="M316.5,-114.42C354.77,-104.63 415.55,-89.08 455.61,-78.83"/>
<polygon fill="midnightblue" stroke="midnightblue" points="456.5,-82.22 465.32,-76.35 454.77,-75.43 456.5,-82.22"/>
</g>
<!-- Node6 -->
<g id="node6" class="node">
<title>Node6</title>
<g id="a_node6"><a xlink:title=" ">
<polygon fill="none" stroke="#bfbfbf" points="238,-0.5 238,-20.5 286,-20.5 286,-0.5 238,-0.5"/>
<text text-anchor="middle" x="262" y="-7.7" font-family="-apple-system,BlinkMacSystemFont,'SegoeUI',Roboto,Oxygen,Ubuntu,Cantarell,'FiraSans','DroidSans','HelveticaNeue',sans-serif" font-size="11.00">string</text>
</a>
</g>
</g>
<!-- Node2&#45;&gt;Node6 -->
<g id="edge5" class="edge">
<title>Node2&#45;&gt;Node6</title>
<path fill="none" stroke="midnightblue" d="M279.45,-114.33C276.36,-96.12 269.39,-55.04 265.25,-30.67"/>
<polygon fill="midnightblue" stroke="midnightblue" points="268.7,-30.07 263.58,-20.79 261.8,-31.24 268.7,-30.07"/>
</g>
<!-- Node7 -->
<g id="node7" class="node">
<title>Node7</title>
<g id="a_node7"><a xlink:title=" ">
<polygon fill="none" stroke="#bfbfbf" points="304,-0.5 304,-20.5 450,-20.5 450,-0.5 304,-0.5"/>
<text text-anchor="middle" x="377" y="-7.7" font-family="-apple-system,BlinkMacSystemFont,'SegoeUI',Roboto,Oxygen,Ubuntu,Cantarell,'FiraSans','DroidSans','HelveticaNeue',sans-serif" font-size="11.00">nlohmann/json_fwd.hpp</text>
</a>
</g>
</g>
<!-- Node2&#45;&gt;Node7 -->
<g id="edge6" class="edge">
<title>Node2&#45;&gt;Node7</title>
<path fill="none" stroke="midnightblue" d="M353.84,-116.42C378.25,-110.16 403.04,-98.73 418,-78 430.1,-61.23 413.25,-40.86 397.64,-27.11"/>
<polygon fill="midnightblue" stroke="midnightblue" points="399.69,-24.26 389.75,-20.59 395.23,-29.66 399.69,-24.26"/>
</g>
<!-- Node8 -->
<g id="node8" class="node">
<title>Node8</title>
<g id="a_node8"><a xlink:href="BasicTypes_8hpp.html" target="_top" xlink:title=" ">
<polygon fill="none" stroke="red" points="71.5,-57.5 71.5,-77.5 252.5,-77.5 252.5,-57.5 71.5,-57.5"/>
<text text-anchor="middle" x="162" y="-64.7" font-family="-apple-system,BlinkMacSystemFont,'SegoeUI',Roboto,Oxygen,Ubuntu,Cantarell,'FiraSans','DroidSans','HelveticaNeue',sans-serif" font-size="11.00">libmirai/Types/BasicTypes.hpp</text>
</a>
</g>
</g>
<!-- Node2&#45;&gt;Node8 -->
<g id="edge7" class="edge">
<title>Node2&#45;&gt;Node8</title>
<path fill="none" stroke="midnightblue" d="M261.35,-114.42C242.14,-105.54 212.68,-91.93 190.83,-81.82"/>
<polygon fill="midnightblue" stroke="midnightblue" points="192.23,-78.61 181.68,-77.6 189.29,-84.97 192.23,-78.61"/>
</g>
<!-- Node10 -->
<g id="node9" class="node">
<title>Node10</title>
<g id="a_node9"><a xlink:href="EventBase_8hpp.html" target="_top" xlink:title=" ">
<polygon fill="none" stroke="red" points="309.5,-57.5 309.5,-77.5 408.5,-77.5 408.5,-57.5 309.5,-57.5"/>
<text text-anchor="middle" x="359" y="-64.7" font-family="-apple-system,BlinkMacSystemFont,'SegoeUI',Roboto,Oxygen,Ubuntu,Cantarell,'FiraSans','DroidSans','HelveticaNeue',sans-serif" font-size="11.00">EventBase.hpp</text>
</a>
</g>
</g>
<!-- Node2&#45;&gt;Node10 -->
<g id="edge12" class="edge">
<title>Node2&#45;&gt;Node10</title>
<path fill="none" stroke="midnightblue" d="M293.88,-114.42C305.74,-106.06 323.55,-93.5 337.55,-83.62"/>
<polygon fill="midnightblue" stroke="midnightblue" points="339.95,-86.22 346.1,-77.6 335.91,-80.5 339.95,-86.22"/>
</g>
<!-- Node8&#45;&gt;Node3 -->
<g id="edge8" class="edge">
<title>Node8&#45;&gt;Node3</title>
<path fill="none" stroke="midnightblue" d="M139.71,-57.42C117.63,-48.42 83.6,-34.56 58.71,-24.42"/>
<polygon fill="midnightblue" stroke="midnightblue" points="59.91,-21.13 49.33,-20.6 57.27,-27.61 59.91,-21.13"/>
</g>
<!-- Node8&#45;&gt;Node4 -->
<g id="edge9" class="edge">
<title>Node8&#45;&gt;Node4</title>
<path fill="none" stroke="midnightblue" d="M158.37,-57.42C155.42,-50.06 151.18,-39.44 147.51,-30.27"/>
<polygon fill="midnightblue" stroke="midnightblue" points="150.68,-28.76 143.71,-20.78 144.18,-31.36 150.68,-28.76"/>
</g>
<!-- Node8&#45;&gt;Node6 -->
<g id="edge10" class="edge">
<title>Node8&#45;&gt;Node6</title>
<path fill="none" stroke="midnightblue" d="M178.51,-57.42C194.29,-48.74 218.3,-35.53 236.53,-25.51"/>
<polygon fill="midnightblue" stroke="midnightblue" points="238.39,-28.48 245.46,-20.6 235.01,-22.35 238.39,-28.48"/>
</g>
<!-- Node8&#45;&gt;Node7 -->
<g id="edge11" class="edge">
<title>Node8&#45;&gt;Node7</title>
<path fill="none" stroke="midnightblue" d="M197.5,-57.42C234.34,-48 292.04,-33.23 332.04,-23"/>
<polygon fill="midnightblue" stroke="midnightblue" points="332.98,-26.37 341.8,-20.5 331.25,-19.59 332.98,-26.37"/>
</g>
<!-- Node10&#45;&gt;Node6 -->
<g id="edge13" class="edge">
<title>Node10&#45;&gt;Node6</title>
<path fill="none" stroke="midnightblue" d="M342.98,-57.42C327.82,-48.82 304.81,-35.78 287.19,-25.78"/>
<polygon fill="midnightblue" stroke="midnightblue" points="288.47,-22.48 278.04,-20.6 285.01,-28.57 288.47,-22.48"/>
</g>
<!-- Node10&#45;&gt;Node7 -->
<g id="edge14" class="edge">
<title>Node10&#45;&gt;Node7</title>
<path fill="none" stroke="midnightblue" d="M361.97,-57.42C364.36,-50.14 367.78,-39.67 370.76,-30.57"/>
<polygon fill="midnightblue" stroke="midnightblue" points="374.18,-31.37 373.96,-20.78 367.53,-29.19 374.18,-31.37"/>
</g>
</g>
</svg>
