<?xml version="1.0" encoding="UTF-8" standalone="no"?>
<!DOCTYPE svg PUBLIC "-//W3C//DTD SVG 1.1//EN"
 "http://www.w3.org/Graphics/SVG/1.1/DTD/svg11.dtd">
<!-- Generated by graphviz version 3.0.0 (20220413.0242)
 -->
<!-- Title: libmirai/public/libmirai/Messages/MessageChain.hpp Pages: 1 -->
<svg width="3093pt" height="248pt"
 viewBox="0.00 0.00 3092.62 248.00" xmlns="http://www.w3.org/2000/svg" xmlns:xlink="http://www.w3.org/1999/xlink">
<g id="graph0" class="graph" transform="scale(1 1) rotate(0) translate(4 244)">
<title>libmirai/public/libmirai/Messages/MessageChain.hpp</title>
<!-- Node1 -->
<g id="node1" class="node">
<title>Node1</title>
<g id="a_node1"><a xlink:title=" ">
<polygon fill="#bfbfbf" stroke="black" points="1404.99,-207.5 1404.99,-239.5 1568.99,-239.5 1568.99,-207.5 1404.99,-207.5"/>
<text text-anchor="start" x="1412.99" y="-226.7" font-family="-apple-system, BlinkMacSystemFont, 'Segoe UI', Roboto, Oxygen, Ubuntu, Cantarell, 'Fira Sans', 'Droid Sans', 'Helvetica Neue', sans-serif" font-size="11.00">libmirai/public/libmirai</text>
<text text-anchor="middle" x="1486.99" y="-214.7" font-family="-apple-system, BlinkMacSystemFont, 'Segoe UI', Roboto, Oxygen, Ubuntu, Cantarell, 'Fira Sans', 'Droid Sans', 'Helvetica Neue', sans-serif" font-size="11.00">/Messages/MessageChain.hpp</text>
</a>
</g>
</g>
<!-- Node2 -->
<g id="node2" class="node">
<title>Node2</title>
<g id="a_node2"><a xlink:href="Client_8cpp.html" target="_top" xlink:title=" ">
<polygon fill="none" stroke="black" points="421.99,-0.5 421.99,-32.5 539.99,-32.5 539.99,-0.5 421.99,-0.5"/>
<text text-anchor="start" x="429.99" y="-19.7" font-family="-apple-system, BlinkMacSystemFont, 'Segoe UI', Roboto, Oxygen, Ubuntu, Cantarell, 'Fira Sans', 'Droid Sans', 'Helvetica Neue', sans-serif" font-size="11.00">libmirai/public/libmirai</text>
<text text-anchor="middle" x="480.99" y="-7.7" font-family="-apple-system, BlinkMacSystemFont, 'Segoe UI', Roboto, Oxygen, Ubuntu, Cantarell, 'Fira Sans', 'Droid Sans', 'Helvetica Neue', sans-serif" font-size="11.00">/Api/Client.cpp</text>
</a>
</g>
</g>
<!-- Node1&#45;&gt;Node2 -->
<g id="edge1" class="edge">
<title>Node1&#45;&gt;Node2</title>
<path fill="none" stroke="midnightblue" d="M1394.4,-221.96C1142.26,-219.99 447.19,-210.96 221.99,-171 123.17,-153.47 66.12,-183.08 6.99,-102 -1.66,-90.15 -2.81,-79.92 6.99,-69 34.25,-38.62 300.9,-24.48 421.86,-19.59"/>
<polygon fill="midnightblue" stroke="midnightblue" points="1394.6,-225.46 1404.63,-222.04 1394.66,-218.46 1394.6,-225.46"/>
</g>
<!-- Node3 -->
<g id="node3" class="node">
<title>Node3</title>
<g id="a_node3"><a xlink:href="Client_8hpp.html" target="_top" xlink:title=" ">
<polygon fill="none" stroke="black" points="464.99,-69.5 464.99,-101.5 582.99,-101.5 582.99,-69.5 464.99,-69.5"/>
<text text-anchor="start" x="472.99" y="-88.7" font-family="-apple-system, BlinkMacSystemFont, 'Segoe UI', Roboto, Oxygen, Ubuntu, Cantarell, 'Fira Sans', 'Droid Sans', 'Helvetica Neue', sans-serif" font-size="11.00">libmirai/public/libmirai</text>
<text text-anchor="middle" x="523.99" y="-76.7" font-family="-apple-system, BlinkMacSystemFont, 'Segoe UI', Roboto, Oxygen, Ubuntu, Cantarell, 'Fira Sans', 'Droid Sans', 'Helvetica Neue', sans-serif" font-size="11.00">/Api/Client.hpp</text>
</a>
</g>
</g>
<!-- Node1&#45;&gt;Node3 -->
<g id="edge2" class="edge">
<title>Node1&#45;&gt;Node3</title>
<path fill="none" stroke="midnightblue" d="M1394.71,-223.31C1209.32,-223.85 798.18,-219.35 666.99,-171 644.05,-162.55 643.68,-151.02 622.99,-138 601.5,-124.48 576.08,-111.32 556.38,-101.68"/>
<polygon fill="midnightblue" stroke="midnightblue" points="1394.99,-226.8 1404.98,-223.27 1394.96,-219.8 1394.99,-226.8"/>
</g>
<!-- Node6 -->
<g id="node5" class="node">
<title>Node6</title>
<g id="a_node5"><a xlink:href="CommandExecutedEvent_8hpp.html" target="_top" xlink:title=" ">
<polygon fill="none" stroke="black" points="1062.49,-138.5 1062.49,-170.5 1259.49,-170.5 1259.49,-138.5 1062.49,-138.5"/>
<text text-anchor="start" x="1070.49" y="-157.7" font-family="-apple-system, BlinkMacSystemFont, 'Segoe UI', Roboto, Oxygen, Ubuntu, Cantarell, 'Fira Sans', 'Droid Sans', 'Helvetica Neue', sans-serif" font-size="11.00">libmirai/public/libmirai</text>
<text text-anchor="middle" x="1160.99" y="-145.7" font-family="-apple-system, BlinkMacSystemFont, 'Segoe UI', Roboto, Oxygen, Ubuntu, Cantarell, 'Fira Sans', 'Droid Sans', 'Helvetica Neue', sans-serif" font-size="11.00">/Events/CommandExecutedEvent.hpp</text>
</a>
</g>
</g>
<!-- Node1&#45;&gt;Node6 -->
<g id="edge5" class="edge">
<title>Node1&#45;&gt;Node6</title>
<path fill="none" stroke="midnightblue" d="M1403.89,-205.42C1351.53,-194.66 1284.54,-180.89 1234.18,-170.54"/>
<polygon fill="midnightblue" stroke="midnightblue" points="1403.33,-208.88 1413.83,-207.46 1404.73,-202.02 1403.33,-208.88"/>
</g>
<!-- Node9 -->
<g id="node8" class="node">
<title>Node9</title>
<g id="a_node8"><a xlink:href="FriendMessageEvent_8hpp.html" target="_top" xlink:title=" ">
<polygon fill="none" stroke="black" points="437.49,-138.5 437.49,-170.5 614.49,-170.5 614.49,-138.5 437.49,-138.5"/>
<text text-anchor="start" x="445.49" y="-157.7" font-family="-apple-system, BlinkMacSystemFont, 'Segoe UI', Roboto, Oxygen, Ubuntu, Cantarell, 'Fira Sans', 'Droid Sans', 'Helvetica Neue', sans-serif" font-size="11.00">libmirai/public/libmirai</text>
<text text-anchor="middle" x="525.99" y="-145.7" font-family="-apple-system, BlinkMacSystemFont, 'Segoe UI', Roboto, Oxygen, Ubuntu, Cantarell, 'Fira Sans', 'Droid Sans', 'Helvetica Neue', sans-serif" font-size="11.00">/Events/FriendMessageEvent.hpp</text>
</a>
</g>
</g>
<!-- Node1&#45;&gt;Node9 -->
<g id="edge9" class="edge">
<title>Node1&#45;&gt;Node9</title>
<path fill="none" stroke="midnightblue" d="M1394.85,-219.62C1237.64,-214.12 907.6,-199.97 629.99,-171 624.99,-170.48 619.87,-169.89 614.71,-169.26"/>
<polygon fill="midnightblue" stroke="midnightblue" points="1394.84,-223.12 1404.96,-219.97 1395.09,-216.13 1394.84,-223.12"/>
</g>
<!-- Node11 -->
<g id="node10" class="node">
<title>Node11</title>
<g id="a_node10"><a xlink:href="FriendSyncMessageEvent_8hpp.html" target="_top" xlink:title=" ">
<polygon fill="none" stroke="black" points="1277.49,-138.5 1277.49,-170.5 1478.49,-170.5 1478.49,-138.5 1277.49,-138.5"/>
<text text-anchor="start" x="1285.49" y="-157.7" font-family="-apple-system, BlinkMacSystemFont, 'Segoe UI', Roboto, Oxygen, Ubuntu, Cantarell, 'Fira Sans', 'Droid Sans', 'Helvetica Neue', sans-serif" font-size="11.00">libmirai/public/libmirai</text>
<text text-anchor="middle" x="1377.99" y="-145.7" font-family="-apple-system, BlinkMacSystemFont, 'Segoe UI', Roboto, Oxygen, Ubuntu, Cantarell, 'Fira Sans', 'Droid Sans', 'Helvetica Neue', sans-serif" font-size="11.00">/Events/FriendSyncMessageEvent.hpp</text>
</a>
</g>
</g>
<!-- Node1&#45;&gt;Node11 -->
<g id="edge14" class="edge">
<title>Node1&#45;&gt;Node11</title>
<path fill="none" stroke="midnightblue" d="M1453.76,-202.08C1437.33,-191.98 1417.84,-180 1402.74,-170.72"/>
<polygon fill="midnightblue" stroke="midnightblue" points="1452.17,-205.21 1462.52,-207.46 1455.84,-199.25 1452.17,-205.21"/>
</g>
<!-- Node13 -->
<g id="node12" class="node">
<title>Node13</title>
<g id="a_node12"><a xlink:href="GroupMessageEvent_8hpp.html" target="_top" xlink:title=" ">
<polygon fill="none" stroke="black" points="675.99,-138.5 675.99,-170.5 851.99,-170.5 851.99,-138.5 675.99,-138.5"/>
<text text-anchor="start" x="683.99" y="-157.7" font-family="-apple-system, BlinkMacSystemFont, 'Segoe UI', Roboto, Oxygen, Ubuntu, Cantarell, 'Fira Sans', 'Droid Sans', 'Helvetica Neue', sans-serif" font-size="11.00">libmirai/public/libmirai</text>
<text text-anchor="middle" x="763.99" y="-145.7" font-family="-apple-system, BlinkMacSystemFont, 'Segoe UI', Roboto, Oxygen, Ubuntu, Cantarell, 'Fira Sans', 'Droid Sans', 'Helvetica Neue', sans-serif" font-size="11.00">/Events/GroupMessageEvent.hpp</text>
</a>
</g>
</g>
<!-- Node1&#45;&gt;Node13 -->
<g id="edge17" class="edge">
<title>Node1&#45;&gt;Node13</title>
<path fill="none" stroke="midnightblue" d="M1394.68,-217.12C1272.37,-209.48 1050,-193.84 860.99,-171 858.11,-170.65 855.18,-170.28 852.23,-169.89"/>
<polygon fill="midnightblue" stroke="midnightblue" points="1394.55,-220.62 1404.75,-217.74 1394.99,-213.63 1394.55,-220.62"/>
</g>
<!-- Node15 -->
<g id="node14" class="node">
<title>Node15</title>
<g id="a_node14"><a xlink:href="GroupSyncMessageEvent_8hpp.html" target="_top" xlink:title=" ">
<polygon fill="none" stroke="black" points="1496.99,-138.5 1496.99,-170.5 1696.99,-170.5 1696.99,-138.5 1496.99,-138.5"/>
<text text-anchor="start" x="1504.99" y="-157.7" font-family="-apple-system, BlinkMacSystemFont, 'Segoe UI', Roboto, Oxygen, Ubuntu, Cantarell, 'Fira Sans', 'Droid Sans', 'Helvetica Neue', sans-serif" font-size="11.00">libmirai/public/libmirai</text>
<text text-anchor="middle" x="1596.99" y="-145.7" font-family="-apple-system, BlinkMacSystemFont, 'Segoe UI', Roboto, Oxygen, Ubuntu, Cantarell, 'Fira Sans', 'Droid Sans', 'Helvetica Neue', sans-serif" font-size="11.00">/Events/GroupSyncMessageEvent.hpp</text>
</a>
</g>
</g>
<!-- Node1&#45;&gt;Node15 -->
<g id="edge22" class="edge">
<title>Node1&#45;&gt;Node15</title>
<path fill="none" stroke="midnightblue" d="M1520.52,-202.08C1537.1,-191.98 1556.76,-180 1572,-170.72"/>
<polygon fill="midnightblue" stroke="midnightblue" points="1518.39,-199.27 1511.67,-207.46 1522.03,-205.25 1518.39,-199.27"/>
</g>
<!-- Node17 -->
<g id="node16" class="node">
<title>Node17</title>
<g id="a_node16"><a xlink:href="OtherClientMessageEvent_8hpp.html" target="_top" xlink:title=" ">
<polygon fill="none" stroke="black" points="1714.99,-138.5 1714.99,-170.5 1914.99,-170.5 1914.99,-138.5 1714.99,-138.5"/>
<text text-anchor="start" x="1722.99" y="-157.7" font-family="-apple-system, BlinkMacSystemFont, 'Segoe UI', Roboto, Oxygen, Ubuntu, Cantarell, 'Fira Sans', 'Droid Sans', 'Helvetica Neue', sans-serif" font-size="11.00">libmirai/public/libmirai</text>
<text text-anchor="middle" x="1814.99" y="-145.7" font-family="-apple-system, BlinkMacSystemFont, 'Segoe UI', Roboto, Oxygen, Ubuntu, Cantarell, 'Fira Sans', 'Droid Sans', 'Helvetica Neue', sans-serif" font-size="11.00">/Events/OtherClientMessageEvent.hpp</text>
</a>
</g>
</g>
<!-- Node1&#45;&gt;Node17 -->
<g id="edge25" class="edge">
<title>Node1&#45;&gt;Node17</title>
<path fill="none" stroke="midnightblue" d="M1570.59,-205.42C1623.28,-194.66 1690.67,-180.89 1741.34,-170.54"/>
<polygon fill="midnightblue" stroke="midnightblue" points="1569.69,-202.03 1560.6,-207.46 1571.09,-208.89 1569.69,-202.03"/>
</g>
<!-- Node19 -->
<g id="node18" class="node">
<title>Node19</title>
<g id="a_node18"><a xlink:href="StrangerMessageEvent_8hpp.html" target="_top" xlink:title=" ">
<polygon fill="none" stroke="black" points="230.99,-138.5 230.99,-170.5 418.99,-170.5 418.99,-138.5 230.99,-138.5"/>
<text text-anchor="start" x="238.99" y="-157.7" font-family="-apple-system, BlinkMacSystemFont, 'Segoe UI', Roboto, Oxygen, Ubuntu, Cantarell, 'Fira Sans', 'Droid Sans', 'Helvetica Neue', sans-serif" font-size="11.00">libmirai/public/libmirai</text>
<text text-anchor="middle" x="324.99" y="-145.7" font-family="-apple-system, BlinkMacSystemFont, 'Segoe UI', Roboto, Oxygen, Ubuntu, Cantarell, 'Fira Sans', 'Droid Sans', 'Helvetica Neue', sans-serif" font-size="11.00">/Events/StrangerMessageEvent.hpp</text>
</a>
</g>
</g>
<!-- Node1&#45;&gt;Node19 -->
<g id="edge28" class="edge">
<title>Node1&#45;&gt;Node19</title>
<path fill="none" stroke="midnightblue" d="M1394.54,-221.13C1210.24,-217.72 784.16,-206.37 427.99,-171 425.11,-170.71 422.19,-170.4 419.24,-170.07"/>
<polygon fill="midnightblue" stroke="midnightblue" points="1394.67,-224.64 1404.73,-221.32 1394.79,-217.64 1394.67,-224.64"/>
</g>
<!-- Node21 -->
<g id="node20" class="node">
<title>Node21</title>
<g id="a_node20"><a xlink:href="StrangerSyncMessageEvent_8hpp.html" target="_top" xlink:title=" ">
<polygon fill="none" stroke="black" points="1932.99,-138.5 1932.99,-170.5 2144.99,-170.5 2144.99,-138.5 1932.99,-138.5"/>
<text text-anchor="start" x="1940.99" y="-157.7" font-family="-apple-system, BlinkMacSystemFont, 'Segoe UI', Roboto, Oxygen, Ubuntu, Cantarell, 'Fira Sans', 'Droid Sans', 'Helvetica Neue', sans-serif" font-size="11.00">libmirai/public/libmirai</text>
<text text-anchor="middle" x="2038.99" y="-145.7" font-family="-apple-system, BlinkMacSystemFont, 'Segoe UI', Roboto, Oxygen, Ubuntu, Cantarell, 'Fira Sans', 'Droid Sans', 'Helvetica Neue', sans-serif" font-size="11.00">/Events/StrangerSyncMessageEvent.hpp</text>
</a>
</g>
</g>
<!-- Node1&#45;&gt;Node21 -->
<g id="edge33" class="edge">
<title>Node1&#45;&gt;Node21</title>
<path fill="none" stroke="midnightblue" d="M1579.2,-212.08C1667.68,-201.98 1805.03,-186.02 1923.99,-171 1926.88,-170.63 1929.82,-170.26 1932.79,-169.88"/>
<polygon fill="midnightblue" stroke="midnightblue" points="1578.73,-208.62 1569.19,-213.23 1579.52,-215.57 1578.73,-208.62"/>
</g>
<!-- Node23 -->
<g id="node22" class="node">
<title>Node23</title>
<g id="a_node22"><a xlink:href="TempMessageEvent_8hpp.html" target="_top" xlink:title=" ">
<polygon fill="none" stroke="black" points="869.99,-138.5 869.99,-170.5 1043.99,-170.5 1043.99,-138.5 869.99,-138.5"/>
<text text-anchor="start" x="877.99" y="-157.7" font-family="-apple-system, BlinkMacSystemFont, 'Segoe UI', Roboto, Oxygen, Ubuntu, Cantarell, 'Fira Sans', 'Droid Sans', 'Helvetica Neue', sans-serif" font-size="11.00">libmirai/public/libmirai</text>
<text text-anchor="middle" x="956.99" y="-145.7" font-family="-apple-system, BlinkMacSystemFont, 'Segoe UI', Roboto, Oxygen, Ubuntu, Cantarell, 'Fira Sans', 'Droid Sans', 'Helvetica Neue', sans-serif" font-size="11.00">/Events/TempMessageEvent.hpp</text>
</a>
</g>
</g>
<!-- Node1&#45;&gt;Node23 -->
<g id="edge36" class="edge">
<title>Node1&#45;&gt;Node23</title>
<path fill="none" stroke="midnightblue" d="M1394.91,-212.71C1306.96,-203.09 1170.74,-187.49 1052.99,-171 1050.06,-170.59 1047.09,-170.16 1044.08,-169.73"/>
<polygon fill="midnightblue" stroke="midnightblue" points="1394.54,-216.19 1404.86,-213.79 1395.3,-209.23 1394.54,-216.19"/>
</g>
<!-- Node25 -->
<g id="node24" class="node">
<title>Node25</title>
<g id="a_node24"><a xlink:href="TempSyncMessageEvent_8hpp.html" target="_top" xlink:title=" ">
<polygon fill="none" stroke="black" points="2162.99,-138.5 2162.99,-170.5 2360.99,-170.5 2360.99,-138.5 2162.99,-138.5"/>
<text text-anchor="start" x="2170.99" y="-157.7" font-family="-apple-system, BlinkMacSystemFont, 'Segoe UI', Roboto, Oxygen, Ubuntu, Cantarell, 'Fira Sans', 'Droid Sans', 'Helvetica Neue', sans-serif" font-size="11.00">libmirai/public/libmirai</text>
<text text-anchor="middle" x="2261.99" y="-145.7" font-family="-apple-system, BlinkMacSystemFont, 'Segoe UI', Roboto, Oxygen, Ubuntu, Cantarell, 'Fira Sans', 'Droid Sans', 'Helvetica Neue', sans-serif" font-size="11.00">/Events/TempSyncMessageEvent.hpp</text>
</a>
</g>
</g>
<!-- Node1&#45;&gt;Node25 -->
<g id="edge41" class="edge">
<title>Node1&#45;&gt;Node25</title>
<path fill="none" stroke="midnightblue" d="M1579.26,-217.29C1708.14,-209.58 1949.28,-193.57 2153.99,-171 2156.9,-170.68 2159.87,-170.34 2162.85,-169.98"/>
<polygon fill="midnightblue" stroke="midnightblue" points="1578.81,-213.81 1569.04,-217.9 1579.23,-220.8 1578.81,-213.81"/>
</g>
<!-- Node27 -->
<g id="node26" class="node">
<title>Node27</title>
<g id="a_node26"><a xlink:href="ForwardMessage_8hpp.html" target="_top" xlink:title=" ">
<polygon fill="none" stroke="black" points="2450.99,-138.5 2450.99,-170.5 2626.99,-170.5 2626.99,-138.5 2450.99,-138.5"/>
<text text-anchor="start" x="2458.99" y="-157.7" font-family="-apple-system, BlinkMacSystemFont, 'Segoe UI', Roboto, Oxygen, Ubuntu, Cantarell, 'Fira Sans', 'Droid Sans', 'Helvetica Neue', sans-serif" font-size="11.00">libmirai/public/libmirai</text>
<text text-anchor="middle" x="2538.99" y="-145.7" font-family="-apple-system, BlinkMacSystemFont, 'Segoe UI', Roboto, Oxygen, Ubuntu, Cantarell, 'Fira Sans', 'Droid Sans', 'Helvetica Neue', sans-serif" font-size="11.00">/Messages/ForwardMessage.hpp</text>
</a>
</g>
</g>
<!-- Node1&#45;&gt;Node27 -->
<g id="edge44" class="edge">
<title>Node1&#45;&gt;Node27</title>
<path fill="none" stroke="midnightblue" d="M1579.55,-218.11C1740.41,-210.27 2081.92,-192.6 2369.99,-171 2396.28,-169.03 2424.85,-166.54 2450.88,-164.14"/>
<polygon fill="midnightblue" stroke="midnightblue" points="1579.04,-214.64 1569.22,-218.62 1579.38,-221.63 1579.04,-214.64"/>
</g>
<!-- Node29 -->
<g id="node28" class="node">
<title>Node29</title>
<g id="a_node28"><a xlink:href="MessageChain_8cpp.html" target="_top" xlink:title=" ">
<polygon fill="none" stroke="black" points="2734.49,-0.5 2734.49,-32.5 2897.49,-32.5 2897.49,-0.5 2734.49,-0.5"/>
<text text-anchor="start" x="2742.49" y="-19.7" font-family="-apple-system, BlinkMacSystemFont, 'Segoe UI', Roboto, Oxygen, Ubuntu, Cantarell, 'Fira Sans', 'Droid Sans', 'Helvetica Neue', sans-serif" font-size="11.00">libmirai/public/libmirai</text>
<text text-anchor="middle" x="2815.99" y="-7.7" font-family="-apple-system, BlinkMacSystemFont, 'Segoe UI', Roboto, Oxygen, Ubuntu, Cantarell, 'Fira Sans', 'Droid Sans', 'Helvetica Neue', sans-serif" font-size="11.00">/Messages/MessageChain.cpp</text>
</a>
</g>
</g>
<!-- Node1&#45;&gt;Node29 -->
<g id="edge50" class="edge">
<title>Node1&#45;&gt;Node29</title>
<path fill="none" stroke="midnightblue" d="M1579.42,-221.02C1873.99,-216.03 2778.94,-198.63 2907.99,-171 2987.72,-153.93 3032.44,-169.64 3077.99,-102 3086.18,-89.83 3087.3,-80.33 3077.99,-69 3055.38,-41.52 2965.69,-28.48 2897.49,-22.44"/>
<polygon fill="midnightblue" stroke="midnightblue" points="1579.14,-217.52 1569.2,-221.19 1579.25,-224.52 1579.14,-217.52"/>
</g>
<!-- Node30 -->
<g id="node29" class="node">
<title>Node30</title>
<g id="a_node29"><a xlink:href="Messages_8hpp.html" target="_top" xlink:title=" ">
<polygon fill="none" stroke="black" points="2745.49,-69.5 2745.49,-101.5 2886.49,-101.5 2886.49,-69.5 2745.49,-69.5"/>
<text text-anchor="start" x="2753.49" y="-88.7" font-family="-apple-system, BlinkMacSystemFont, 'Segoe UI', Roboto, Oxygen, Ubuntu, Cantarell, 'Fira Sans', 'Droid Sans', 'Helvetica Neue', sans-serif" font-size="11.00">libmirai/public/libmirai</text>
<text text-anchor="middle" x="2815.99" y="-76.7" font-family="-apple-system, BlinkMacSystemFont, 'Segoe UI', Roboto, Oxygen, Ubuntu, Cantarell, 'Fira Sans', 'Droid Sans', 'Helvetica Neue', sans-serif" font-size="11.00">/Messages/Messages.hpp</text>
</a>
</g>
</g>
<!-- Node1&#45;&gt;Node30 -->
<g id="edge51" class="edge">
<title>Node1&#45;&gt;Node30</title>
<path fill="none" stroke="midnightblue" d="M1579.56,-223.01C1815.84,-223.58 2436.6,-220.18 2635.99,-171 2695.14,-156.41 2758.29,-121.77 2791.81,-101.66"/>
<polygon fill="midnightblue" stroke="midnightblue" points="1579.29,-219.51 1569.28,-222.99 1579.27,-226.51 1579.29,-219.51"/>
</g>
<!-- Node31 -->
<g id="node30" class="node">
<title>Node31</title>
<g id="a_node30"><a xlink:href="QuoteMessage_8hpp.html" target="_top" xlink:title=" ">
<polygon fill="none" stroke="black" points="2733.49,-138.5 2733.49,-170.5 2898.49,-170.5 2898.49,-138.5 2733.49,-138.5"/>
<text text-anchor="start" x="2741.49" y="-157.7" font-family="-apple-system, BlinkMacSystemFont, 'Segoe UI', Roboto, Oxygen, Ubuntu, Cantarell, 'Fira Sans', 'Droid Sans', 'Helvetica Neue', sans-serif" font-size="11.00">libmirai/public/libmirai</text>
<text text-anchor="middle" x="2815.99" y="-145.7" font-family="-apple-system, BlinkMacSystemFont, 'Segoe UI', Roboto, Oxygen, Ubuntu, Cantarell, 'Fira Sans', 'Droid Sans', 'Helvetica Neue', sans-serif" font-size="11.00">/Messages/QuoteMessage.hpp</text>
</a>
</g>
</g>
<!-- Node1&#45;&gt;Node31 -->
<g id="edge52" class="edge">
<title>Node1&#45;&gt;Node31</title>
<path fill="none" stroke="midnightblue" d="M1579.49,-220.91C1780.91,-216.93 2274.17,-204.35 2685.99,-171 2701.28,-169.76 2717.54,-168.1 2733.21,-166.32"/>
<polygon fill="midnightblue" stroke="midnightblue" points="1579.18,-217.42 1569.25,-221.11 1579.32,-224.42 1579.18,-217.42"/>
</g>
<!-- Node3&#45;&gt;Node2 -->
<g id="edge3" class="edge">
<title>Node3&#45;&gt;Node2</title>
<path fill="none" stroke="midnightblue" d="M508.76,-60.77C502.75,-51.42 496.03,-40.94 490.7,-32.64"/>
<polygon fill="midnightblue" stroke="midnightblue" points="505.88,-62.77 514.23,-69.3 511.77,-58.99 505.88,-62.77"/>
</g>
<!-- Node4 -->
<g id="node4" class="node">
<title>Node4</title>
<g id="a_node4"><a xlink:href="mirai_8hpp.html" target="_top" xlink:title=" ">
<polygon fill="none" stroke="red" points="1276.99,-0.5 1276.99,-32.5 1394.99,-32.5 1394.99,-0.5 1276.99,-0.5"/>
<text text-anchor="start" x="1284.99" y="-19.7" font-family="-apple-system, BlinkMacSystemFont, 'Segoe UI', Roboto, Oxygen, Ubuntu, Cantarell, 'Fira Sans', 'Droid Sans', 'Helvetica Neue', sans-serif" font-size="11.00">libmirai/public/libmirai</text>
<text text-anchor="middle" x="1335.99" y="-7.7" font-family="-apple-system, BlinkMacSystemFont, 'Segoe UI', Roboto, Oxygen, Ubuntu, Cantarell, 'Fira Sans', 'Droid Sans', 'Helvetica Neue', sans-serif" font-size="11.00">/mirai.hpp</text>
</a>
</g>
</g>
<!-- Node3&#45;&gt;Node4 -->
<g id="edge4" class="edge">
<title>Node3&#45;&gt;Node4</title>
<path fill="none" stroke="midnightblue" d="M593.21,-68.97C852.68,-31.38 1152.03,-21.24 1276.82,-18.49"/>
<polygon fill="midnightblue" stroke="midnightblue" points="592.61,-65.52 583.22,-70.43 593.62,-72.44 592.61,-65.52"/>
</g>
<!-- Node7 -->
<g id="node6" class="node">
<title>Node7</title>
<g id="a_node6"><a xlink:href="CommandExecutedEvent_8cpp.html" target="_top" xlink:title=" ">
<polygon fill="none" stroke="black" points="1062.99,-69.5 1062.99,-101.5 1258.99,-101.5 1258.99,-69.5 1062.99,-69.5"/>
<text text-anchor="start" x="1070.99" y="-88.7" font-family="-apple-system, BlinkMacSystemFont, 'Segoe UI', Roboto, Oxygen, Ubuntu, Cantarell, 'Fira Sans', 'Droid Sans', 'Helvetica Neue', sans-serif" font-size="11.00">libmirai/public/libmirai</text>
<text text-anchor="middle" x="1160.99" y="-76.7" font-family="-apple-system, BlinkMacSystemFont, 'Segoe UI', Roboto, Oxygen, Ubuntu, Cantarell, 'Fira Sans', 'Droid Sans', 'Helvetica Neue', sans-serif" font-size="11.00">/Events/CommandExecutedEvent.cpp</text>
</a>
</g>
</g>
<!-- Node6&#45;&gt;Node7 -->
<g id="edge6" class="edge">
<title>Node6&#45;&gt;Node7</title>
<path fill="none" stroke="midnightblue" d="M1160.99,-128.02C1160.99,-119.13 1160.99,-109.43 1160.99,-101.64"/>
<polygon fill="midnightblue" stroke="midnightblue" points="1157.49,-128.3 1160.99,-138.3 1164.49,-128.3 1157.49,-128.3"/>
</g>
<!-- Node8 -->
<g id="node7" class="node">
<title>Node8</title>
<g id="a_node7"><a xlink:href="Events_8hpp.html" target="_top" xlink:title=" ">
<polygon fill="none" stroke="black" points="1276.99,-69.5 1276.99,-101.5 1394.99,-101.5 1394.99,-69.5 1276.99,-69.5"/>
<text text-anchor="start" x="1284.99" y="-88.7" font-family="-apple-system, BlinkMacSystemFont, 'Segoe UI', Roboto, Oxygen, Ubuntu, Cantarell, 'Fira Sans', 'Droid Sans', 'Helvetica Neue', sans-serif" font-size="11.00">libmirai/public/libmirai</text>
<text text-anchor="middle" x="1335.99" y="-76.7" font-family="-apple-system, BlinkMacSystemFont, 'Segoe UI', Roboto, Oxygen, Ubuntu, Cantarell, 'Fira Sans', 'Droid Sans', 'Helvetica Neue', sans-serif" font-size="11.00">/Events/Events.hpp</text>
</a>
</g>
</g>
<!-- Node6&#45;&gt;Node8 -->
<g id="edge7" class="edge">
<title>Node6&#45;&gt;Node8</title>
<path fill="none" stroke="midnightblue" d="M1209.66,-134.86C1237.05,-124.38 1270.81,-111.45 1296.54,-101.6"/>
<polygon fill="midnightblue" stroke="midnightblue" points="1208.35,-131.62 1200.26,-138.46 1210.85,-138.16 1208.35,-131.62"/>
</g>
<!-- Node8&#45;&gt;Node4 -->
<g id="edge8" class="edge">
<title>Node8&#45;&gt;Node4</title>
<path fill="none" stroke="midnightblue" d="M1335.99,-59.02C1335.99,-50.13 1335.99,-40.43 1335.99,-32.64"/>
<polygon fill="midnightblue" stroke="midnightblue" points="1332.49,-59.3 1335.99,-69.3 1339.49,-59.3 1332.49,-59.3"/>
</g>
<!-- Node9&#45;&gt;Node2 -->
<g id="edge10" class="edge">
<title>Node9&#45;&gt;Node2</title>
<path fill="none" stroke="midnightblue" d="M485.11,-132.97C473.56,-124.99 462.4,-114.68 455.99,-102 444.46,-79.2 458.61,-50.19 469.84,-32.77"/>
<polygon fill="midnightblue" stroke="midnightblue" points="483.22,-135.92 493.53,-138.37 487,-130.03 483.22,-135.92"/>
</g>
<!-- Node9&#45;&gt;Node3 -->
<g id="edge11" class="edge">
<title>Node9&#45;&gt;Node3</title>
<path fill="none" stroke="midnightblue" d="M525.23,-128.02C524.96,-119.13 524.67,-109.43 524.44,-101.64"/>
<polygon fill="midnightblue" stroke="midnightblue" points="521.74,-128.41 525.53,-138.3 528.73,-128.2 521.74,-128.41"/>
</g>
<!-- Node9&#45;&gt;Node8 -->
<g id="edge12" class="edge">
<title>Node9&#45;&gt;Node8</title>
<path fill="none" stroke="midnightblue" d="M624.9,-142C639.01,-140.54 653.36,-139.16 666.99,-138 933.62,-115.37 1003.09,-139.86 1267.99,-102 1270.86,-101.59 1273.8,-101.12 1276.75,-100.6"/>
<polygon fill="midnightblue" stroke="midnightblue" points="624.25,-138.55 614.67,-143.07 624.99,-145.51 624.25,-138.55"/>
</g>
<!-- Node10 -->
<g id="node9" class="node">
<title>Node10</title>
<g id="a_node9"><a xlink:href="FriendMessageEvent_8cpp.html" target="_top" xlink:title=" ">
<polygon fill="none" stroke="black" points="232.99,-69.5 232.99,-101.5 408.99,-101.5 408.99,-69.5 232.99,-69.5"/>
<text text-anchor="start" x="240.99" y="-88.7" font-family="-apple-system, BlinkMacSystemFont, 'Segoe UI', Roboto, Oxygen, Ubuntu, Cantarell, 'Fira Sans', 'Droid Sans', 'Helvetica Neue', sans-serif" font-size="11.00">libmirai/public/libmirai</text>
<text text-anchor="middle" x="320.99" y="-76.7" font-family="-apple-system, BlinkMacSystemFont, 'Segoe UI', Roboto, Oxygen, Ubuntu, Cantarell, 'Fira Sans', 'Droid Sans', 'Helvetica Neue', sans-serif" font-size="11.00">/Events/FriendMessageEvent.cpp</text>
</a>
</g>
</g>
<!-- Node9&#45;&gt;Node10 -->
<g id="edge13" class="edge">
<title>Node9&#45;&gt;Node10</title>
<path fill="none" stroke="midnightblue" d="M470.23,-135.28C437.92,-124.72 397.72,-111.58 367.19,-101.6"/>
<polygon fill="midnightblue" stroke="midnightblue" points="469.39,-138.68 479.98,-138.46 471.56,-132.03 469.39,-138.68"/>
</g>
<!-- Node11&#45;&gt;Node8 -->
<g id="edge15" class="edge">
<title>Node11&#45;&gt;Node8</title>
<path fill="none" stroke="midnightblue" d="M1363.11,-129.77C1357.25,-120.42 1350.68,-109.94 1345.48,-101.64"/>
<polygon fill="midnightblue" stroke="midnightblue" points="1360.18,-131.68 1368.46,-138.3 1366.11,-127.96 1360.18,-131.68"/>
</g>
<!-- Node12 -->
<g id="node11" class="node">
<title>Node12</title>
<g id="a_node11"><a xlink:href="FriendSyncMessageEvent_8cpp.html" target="_top" xlink:title=" ">
<polygon fill="none" stroke="black" points="1412.99,-69.5 1412.99,-101.5 1612.99,-101.5 1612.99,-69.5 1412.99,-69.5"/>
<text text-anchor="start" x="1420.99" y="-88.7" font-family="-apple-system, BlinkMacSystemFont, 'Segoe UI', Roboto, Oxygen, Ubuntu, Cantarell, 'Fira Sans', 'Droid Sans', 'Helvetica Neue', sans-serif" font-size="11.00">libmirai/public/libmirai</text>
<text text-anchor="middle" x="1512.99" y="-76.7" font-family="-apple-system, BlinkMacSystemFont, 'Segoe UI', Roboto, Oxygen, Ubuntu, Cantarell, 'Fira Sans', 'Droid Sans', 'Helvetica Neue', sans-serif" font-size="11.00">/Events/FriendSyncMessageEvent.cpp</text>
</a>
</g>
</g>
<!-- Node11&#45;&gt;Node12 -->
<g id="edge16" class="edge">
<title>Node11&#45;&gt;Node12</title>
<path fill="none" stroke="midnightblue" d="M1417.45,-133.91C1438.14,-123.65 1463.1,-111.26 1482.32,-101.72"/>
<polygon fill="midnightblue" stroke="midnightblue" points="1415.68,-130.88 1408.28,-138.46 1418.8,-137.15 1415.68,-130.88"/>
</g>
<!-- Node13&#45;&gt;Node2 -->
<g id="edge18" class="edge">
<title>Node13&#45;&gt;Node2</title>
<path fill="none" stroke="midnightblue" d="M780.53,-129.57C791.07,-111.11 800.3,-85.94 785.99,-69 755.13,-32.5 619.73,-21.86 540.08,-18.76"/>
<polygon fill="midnightblue" stroke="midnightblue" points="777.43,-127.93 775.19,-138.29 783.4,-131.59 777.43,-127.93"/>
</g>
<!-- Node13&#45;&gt;Node3 -->
<g id="edge19" class="edge">
<title>Node13&#45;&gt;Node3</title>
<path fill="none" stroke="midnightblue" d="M700.17,-135.68C662.1,-125.06 614.29,-111.71 578.08,-101.6"/>
<polygon fill="midnightblue" stroke="midnightblue" points="699.55,-139.15 710.13,-138.46 701.43,-132.4 699.55,-139.15"/>
</g>
<!-- Node13&#45;&gt;Node8 -->
<g id="edge20" class="edge">
<title>Node13&#45;&gt;Node8</title>
<path fill="none" stroke="midnightblue" d="M862.34,-137.89C1042.96,-116.17 1091.84,-129.73 1267.99,-102 1270.86,-101.55 1273.79,-101.04 1276.74,-100.5"/>
<polygon fill="midnightblue" stroke="midnightblue" points="861.74,-134.44 852.24,-139.13 862.59,-141.39 861.74,-134.44"/>
</g>
<!-- Node14 -->
<g id="node13" class="node">
<title>Node14</title>
<g id="a_node13"><a xlink:href="GroupMessageEvent_8cpp.html" target="_top" xlink:title=" ">
<polygon fill="none" stroke="black" points="600.99,-69.5 600.99,-101.5 776.99,-101.5 776.99,-69.5 600.99,-69.5"/>
<text text-anchor="start" x="608.99" y="-88.7" font-family="-apple-system, BlinkMacSystemFont, 'Segoe UI', Roboto, Oxygen, Ubuntu, Cantarell, 'Fira Sans', 'Droid Sans', 'Helvetica Neue', sans-serif" font-size="11.00">libmirai/public/libmirai</text>
<text text-anchor="middle" x="688.99" y="-76.7" font-family="-apple-system, BlinkMacSystemFont, 'Segoe UI', Roboto, Oxygen, Ubuntu, Cantarell, 'Fira Sans', 'Droid Sans', 'Helvetica Neue', sans-serif" font-size="11.00">/Events/GroupMessageEvent.cpp</text>
</a>
</g>
</g>
<!-- Node13&#45;&gt;Node14 -->
<g id="edge21" class="edge">
<title>Node13&#45;&gt;Node14</title>
<path fill="none" stroke="midnightblue" d="M739.36,-131.5C728.41,-121.72 715.8,-110.46 705.94,-101.64"/>
<polygon fill="midnightblue" stroke="midnightblue" points="737.18,-134.24 746.97,-138.3 741.84,-129.02 737.18,-134.24"/>
</g>
<!-- Node15&#45;&gt;Node8 -->
<g id="edge23" class="edge">
<title>Node15&#45;&gt;Node8</title>
<path fill="none" stroke="midnightblue" d="M1528.64,-135.95C1487.07,-125.28 1434.53,-111.8 1394.81,-101.6"/>
<polygon fill="midnightblue" stroke="midnightblue" points="1527.86,-139.37 1538.41,-138.46 1529.6,-132.59 1527.86,-139.37"/>
</g>
<!-- Node16 -->
<g id="node15" class="node">
<title>Node16</title>
<g id="a_node15"><a xlink:href="GroupSyncMessageEvent_8cpp.html" target="_top" xlink:title=" ">
<polygon fill="none" stroke="black" points="1630.99,-69.5 1630.99,-101.5 1830.99,-101.5 1830.99,-69.5 1630.99,-69.5"/>
<text text-anchor="start" x="1638.99" y="-88.7" font-family="-apple-system, BlinkMacSystemFont, 'Segoe UI', Roboto, Oxygen, Ubuntu, Cantarell, 'Fira Sans', 'Droid Sans', 'Helvetica Neue', sans-serif" font-size="11.00">libmirai/public/libmirai</text>
<text text-anchor="middle" x="1730.99" y="-76.7" font-family="-apple-system, BlinkMacSystemFont, 'Segoe UI', Roboto, Oxygen, Ubuntu, Cantarell, 'Fira Sans', 'Droid Sans', 'Helvetica Neue', sans-serif" font-size="11.00">/Events/GroupSyncMessageEvent.cpp</text>
</a>
</g>
</g>
<!-- Node15&#45;&gt;Node16 -->
<g id="edge24" class="edge">
<title>Node15&#45;&gt;Node16</title>
<path fill="none" stroke="midnightblue" d="M1636.16,-133.91C1656.7,-123.65 1681.47,-111.26 1700.55,-101.72"/>
<polygon fill="midnightblue" stroke="midnightblue" points="1634.44,-130.86 1627.06,-138.46 1637.57,-137.12 1634.44,-130.86"/>
</g>
<!-- Node17&#45;&gt;Node8 -->
<g id="edge26" class="edge">
<title>Node17&#45;&gt;Node8</title>
<path fill="none" stroke="midnightblue" d="M1704.63,-137.85C1570.2,-120.69 1533.93,-124.49 1403.99,-102 1401.12,-101.5 1398.2,-100.97 1395.25,-100.4"/>
<polygon fill="midnightblue" stroke="midnightblue" points="1704.55,-141.37 1714.91,-139.18 1705.45,-134.43 1704.55,-141.37"/>
</g>
<!-- Node18 -->
<g id="node17" class="node">
<title>Node18</title>
<g id="a_node17"><a xlink:href="OtherClientMessageEvent_8cpp.html" target="_top" xlink:title=" ">
<polygon fill="none" stroke="black" points="1848.99,-69.5 1848.99,-101.5 2048.99,-101.5 2048.99,-69.5 1848.99,-69.5"/>
<text text-anchor="start" x="1856.99" y="-88.7" font-family="-apple-system, BlinkMacSystemFont, 'Segoe UI', Roboto, Oxygen, Ubuntu, Cantarell, 'Fira Sans', 'Droid Sans', 'Helvetica Neue', sans-serif" font-size="11.00">libmirai/public/libmirai</text>
<text text-anchor="middle" x="1948.99" y="-76.7" font-family="-apple-system, BlinkMacSystemFont, 'Segoe UI', Roboto, Oxygen, Ubuntu, Cantarell, 'Fira Sans', 'Droid Sans', 'Helvetica Neue', sans-serif" font-size="11.00">/Events/OtherClientMessageEvent.cpp</text>
</a>
</g>
</g>
<!-- Node17&#45;&gt;Node18 -->
<g id="edge27" class="edge">
<title>Node17&#45;&gt;Node18</title>
<path fill="none" stroke="midnightblue" d="M1854.16,-133.91C1874.7,-123.65 1899.47,-111.26 1918.55,-101.72"/>
<polygon fill="midnightblue" stroke="midnightblue" points="1852.44,-130.86 1845.06,-138.46 1855.57,-137.12 1852.44,-130.86"/>
</g>
<!-- Node19&#45;&gt;Node2 -->
<g id="edge29" class="edge">
<title>Node19&#45;&gt;Node2</title>
<path fill="none" stroke="midnightblue" d="M220.36,-150C141.89,-144.91 43.75,-132.45 17.99,-102 8.51,-90.8 8.21,-79.93 17.99,-69 44.48,-39.39 303.09,-24.9 421.87,-19.75"/>
<polygon fill="midnightblue" stroke="midnightblue" points="220.61,-153.52 230.8,-150.64 221.04,-146.53 220.61,-153.52"/>
</g>
<!-- Node19&#45;&gt;Node3 -->
<g id="edge30" class="edge">
<title>Node19&#45;&gt;Node3</title>
<path fill="none" stroke="midnightblue" d="M379.52,-135.14C410.81,-124.6 449.62,-111.54 479.13,-101.6"/>
<polygon fill="midnightblue" stroke="midnightblue" points="378.01,-131.96 369.65,-138.46 380.24,-138.59 378.01,-131.96"/>
</g>
<!-- Node19&#45;&gt;Node8 -->
<g id="edge31" class="edge">
<title>Node19&#45;&gt;Node8</title>
<path fill="none" stroke="midnightblue" d="M429.21,-137.96C801.68,-103.01 900.89,-151.29 1267.99,-102 1270.87,-101.61 1273.8,-101.16 1276.76,-100.66"/>
<polygon fill="midnightblue" stroke="midnightblue" points="428.86,-134.47 419.24,-138.91 429.52,-141.44 428.86,-134.47"/>
</g>
<!-- Node20 -->
<g id="node19" class="node">
<title>Node20</title>
<g id="a_node19"><a xlink:href="StrangerMessageEvent_8cpp.html" target="_top" xlink:title=" ">
<polygon fill="none" stroke="black" points="26.99,-69.5 26.99,-101.5 214.99,-101.5 214.99,-69.5 26.99,-69.5"/>
<text text-anchor="start" x="34.99" y="-88.7" font-family="-apple-system, BlinkMacSystemFont, 'Segoe UI', Roboto, Oxygen, Ubuntu, Cantarell, 'Fira Sans', 'Droid Sans', 'Helvetica Neue', sans-serif" font-size="11.00">libmirai/public/libmirai</text>
<text text-anchor="middle" x="120.99" y="-76.7" font-family="-apple-system, BlinkMacSystemFont, 'Segoe UI', Roboto, Oxygen, Ubuntu, Cantarell, 'Fira Sans', 'Droid Sans', 'Helvetica Neue', sans-serif" font-size="11.00">/Events/StrangerMessageEvent.cpp</text>
</a>
</g>
</g>
<!-- Node19&#45;&gt;Node20 -->
<g id="edge32" class="edge">
<title>Node19&#45;&gt;Node20</title>
<path fill="none" stroke="midnightblue" d="M269.5,-135.28C237.35,-124.72 197.35,-111.58 166.97,-101.6"/>
<polygon fill="midnightblue" stroke="midnightblue" points="268.61,-138.67 279.2,-138.46 270.8,-132.02 268.61,-138.67"/>
</g>
<!-- Node21&#45;&gt;Node8 -->
<g id="edge34" class="edge">
<title>Node21&#45;&gt;Node8</title>
<path fill="none" stroke="midnightblue" d="M1922.75,-137.92C1691.77,-115.11 1629.92,-135.36 1403.99,-102 1401.11,-101.58 1398.18,-101.09 1395.22,-100.57"/>
<polygon fill="midnightblue" stroke="midnightblue" points="1922.51,-141.42 1932.81,-138.93 1923.21,-134.45 1922.51,-141.42"/>
</g>
<!-- Node22 -->
<g id="node21" class="node">
<title>Node22</title>
<g id="a_node21"><a xlink:href="StrangerSyncMessageEvent_8cpp.html" target="_top" xlink:title=" ">
<polygon fill="none" stroke="black" points="2066.99,-69.5 2066.99,-101.5 2278.99,-101.5 2278.99,-69.5 2066.99,-69.5"/>
<text text-anchor="start" x="2074.99" y="-88.7" font-family="-apple-system, BlinkMacSystemFont, 'Segoe UI', Roboto, Oxygen, Ubuntu, Cantarell, 'Fira Sans', 'Droid Sans', 'Helvetica Neue', sans-serif" font-size="11.00">libmirai/public/libmirai</text>
<text text-anchor="middle" x="2172.99" y="-76.7" font-family="-apple-system, BlinkMacSystemFont, 'Segoe UI', Roboto, Oxygen, Ubuntu, Cantarell, 'Fira Sans', 'Droid Sans', 'Helvetica Neue', sans-serif" font-size="11.00">/Events/StrangerSyncMessageEvent.cpp</text>
</a>
</g>
</g>
<!-- Node21&#45;&gt;Node22 -->
<g id="edge35" class="edge">
<title>Node21&#45;&gt;Node22</title>
<path fill="none" stroke="midnightblue" d="M2078.16,-133.91C2098.7,-123.65 2123.47,-111.26 2142.55,-101.72"/>
<polygon fill="midnightblue" stroke="midnightblue" points="2076.44,-130.86 2069.06,-138.46 2079.57,-137.12 2076.44,-130.86"/>
</g>
<!-- Node23&#45;&gt;Node2 -->
<g id="edge37" class="edge">
<title>Node23&#45;&gt;Node2</title>
<path fill="none" stroke="midnightblue" d="M919.81,-133.57C902.23,-124.09 880.98,-112.55 861.99,-102 836.06,-87.6 831.97,-78.83 803.99,-69 715.18,-37.82 605.97,-25.42 540,-20.56"/>
<polygon fill="midnightblue" stroke="midnightblue" points="918.17,-136.67 928.64,-138.33 921.49,-130.5 918.17,-136.67"/>
</g>
<!-- Node23&#45;&gt;Node3 -->
<g id="edge38" class="edge">
<title>Node23&#45;&gt;Node3</title>
<path fill="none" stroke="midnightblue" d="M859.94,-137.88C739.96,-120.53 707.56,-122.86 591.99,-102 589.13,-101.48 586.2,-100.93 583.26,-100.35"/>
<polygon fill="midnightblue" stroke="midnightblue" points="859.48,-141.35 869.88,-139.33 860.49,-134.42 859.48,-141.35"/>
</g>
<!-- Node23&#45;&gt;Node8 -->
<g id="edge39" class="edge">
<title>Node23&#45;&gt;Node8</title>
<path fill="none" stroke="midnightblue" d="M1054.38,-137.67C1137.63,-124.1 1247.18,-106.09 1267.99,-102 1270.84,-101.44 1273.75,-100.85 1276.69,-100.24"/>
<polygon fill="midnightblue" stroke="midnightblue" points="1053.67,-134.24 1044.36,-139.31 1054.79,-141.15 1053.67,-134.24"/>
</g>
<!-- Node24 -->
<g id="node23" class="node">
<title>Node24</title>
<g id="a_node23"><a xlink:href="TempMessageEvent_8cpp.html" target="_top" xlink:title=" ">
<polygon fill="none" stroke="black" points="871.49,-69.5 871.49,-101.5 1044.49,-101.5 1044.49,-69.5 871.49,-69.5"/>
<text text-anchor="start" x="879.49" y="-88.7" font-family="-apple-system, BlinkMacSystemFont, 'Segoe UI', Roboto, Oxygen, Ubuntu, Cantarell, 'Fira Sans', 'Droid Sans', 'Helvetica Neue', sans-serif" font-size="11.00">libmirai/public/libmirai</text>
<text text-anchor="middle" x="957.99" y="-76.7" font-family="-apple-system, BlinkMacSystemFont, 'Segoe UI', Roboto, Oxygen, Ubuntu, Cantarell, 'Fira Sans', 'Droid Sans', 'Helvetica Neue', sans-serif" font-size="11.00">/Events/TempMessageEvent.cpp</text>
</a>
</g>
</g>
<!-- Node23&#45;&gt;Node24 -->
<g id="edge40" class="edge">
<title>Node23&#45;&gt;Node24</title>
<path fill="none" stroke="midnightblue" d="M957.37,-128.02C957.5,-119.13 957.64,-109.43 957.76,-101.64"/>
<polygon fill="midnightblue" stroke="midnightblue" points="953.86,-128.25 957.21,-138.3 960.86,-128.35 953.86,-128.25"/>
</g>
<!-- Node25&#45;&gt;Node8 -->
<g id="edge42" class="edge">
<title>Node25&#45;&gt;Node8</title>
<path fill="none" stroke="midnightblue" d="M2152.45,-137.92C1819.97,-107.09 1731.23,-146.79 1403.99,-102 1401.11,-101.61 1398.17,-101.15 1395.21,-100.65"/>
<polygon fill="midnightblue" stroke="midnightblue" points="2152.58,-141.45 2162.86,-138.9 2153.24,-134.48 2152.58,-141.45"/>
</g>
<!-- Node26 -->
<g id="node25" class="node">
<title>Node26</title>
<g id="a_node25"><a xlink:href="TempSyncMessageEvent_8cpp.html" target="_top" xlink:title=" ">
<polygon fill="none" stroke="black" points="2297.49,-69.5 2297.49,-101.5 2494.49,-101.5 2494.49,-69.5 2297.49,-69.5"/>
<text text-anchor="start" x="2305.49" y="-88.7" font-family="-apple-system, BlinkMacSystemFont, 'Segoe UI', Roboto, Oxygen, Ubuntu, Cantarell, 'Fira Sans', 'Droid Sans', 'Helvetica Neue', sans-serif" font-size="11.00">libmirai/public/libmirai</text>
<text text-anchor="middle" x="2395.99" y="-76.7" font-family="-apple-system, BlinkMacSystemFont, 'Segoe UI', Roboto, Oxygen, Ubuntu, Cantarell, 'Fira Sans', 'Droid Sans', 'Helvetica Neue', sans-serif" font-size="11.00">/Events/TempSyncMessageEvent.cpp</text>
</a>
</g>
</g>
<!-- Node25&#45;&gt;Node26 -->
<g id="edge43" class="edge">
<title>Node25&#45;&gt;Node26</title>
<path fill="none" stroke="midnightblue" d="M2301.16,-133.91C2321.7,-123.65 2346.47,-111.26 2365.55,-101.72"/>
<polygon fill="midnightblue" stroke="midnightblue" points="2299.44,-130.86 2292.06,-138.46 2302.57,-137.12 2299.44,-130.86"/>
</g>
<!-- Node28 -->
<g id="node27" class="node">
<title>Node28</title>
<g id="a_node27"><a xlink:href="ForwardMessage_8cpp.html" target="_top" xlink:title=" ">
<polygon fill="none" stroke="black" points="2550.99,-69.5 2550.99,-101.5 2726.99,-101.5 2726.99,-69.5 2550.99,-69.5"/>
<text text-anchor="start" x="2558.99" y="-88.7" font-family="-apple-system, BlinkMacSystemFont, 'Segoe UI', Roboto, Oxygen, Ubuntu, Cantarell, 'Fira Sans', 'Droid Sans', 'Helvetica Neue', sans-serif" font-size="11.00">libmirai/public/libmirai</text>
<text text-anchor="middle" x="2638.99" y="-76.7" font-family="-apple-system, BlinkMacSystemFont, 'Segoe UI', Roboto, Oxygen, Ubuntu, Cantarell, 'Fira Sans', 'Droid Sans', 'Helvetica Neue', sans-serif" font-size="11.00">/Messages/ForwardMessage.cpp</text>
</a>
</g>
</g>
<!-- Node27&#45;&gt;Node28 -->
<g id="edge45" class="edge">
<title>Node27&#45;&gt;Node28</title>
<path fill="none" stroke="midnightblue" d="M2570.14,-132.63C2585.11,-122.6 2602.72,-110.8 2616.38,-101.64"/>
<polygon fill="midnightblue" stroke="midnightblue" points="2568.04,-129.82 2561.68,-138.3 2571.93,-135.64 2568.04,-129.82"/>
</g>
<!-- Node27&#45;&gt;Node29 -->
<g id="edge46" class="edge">
<title>Node27&#45;&gt;Node29</title>
<path fill="none" stroke="midnightblue" d="M2532.32,-128.51C2528.98,-109.92 2528.16,-85.08 2541.99,-69 2566.56,-40.42 2662.66,-27.55 2734.15,-21.86"/>
<polygon fill="midnightblue" stroke="midnightblue" points="2528.92,-129.31 2534.43,-138.36 2535.76,-127.85 2528.92,-129.31"/>
</g>
<!-- Node27&#45;&gt;Node30 -->
<g id="edge47" class="edge">
<title>Node27&#45;&gt;Node30</title>
<path fill="none" stroke="midnightblue" d="M2610.96,-136.09C2655.17,-125.4 2711.23,-111.84 2753.55,-101.6"/>
<polygon fill="midnightblue" stroke="midnightblue" points="2610.05,-132.71 2601.15,-138.46 2611.69,-139.51 2610.05,-132.71"/>
</g>
<!-- Node30&#45;&gt;Node4 -->
<g id="edge49" class="edge">
<title>Node30&#45;&gt;Node4</title>
<path fill="none" stroke="midnightblue" d="M2735.07,-69.06C2449.53,-38.14 1623.51,-22.33 1395.09,-18.46"/>
<polygon fill="midnightblue" stroke="midnightblue" points="2735.08,-72.58 2745.41,-70.21 2735.86,-65.62 2735.08,-72.58"/>
</g>
<!-- Node30&#45;&gt;Node29 -->
<g id="edge48" class="edge">
<title>Node30&#45;&gt;Node29</title>
<path fill="none" stroke="midnightblue" d="M2815.99,-59.02C2815.99,-50.13 2815.99,-40.43 2815.99,-32.64"/>
<polygon fill="midnightblue" stroke="midnightblue" points="2812.49,-59.3 2815.99,-69.3 2819.49,-59.3 2812.49,-59.3"/>
</g>
<!-- Node31&#45;&gt;Node30 -->
<g id="edge53" class="edge">
<title>Node31&#45;&gt;Node30</title>
<path fill="none" stroke="midnightblue" d="M2815.99,-128.02C2815.99,-119.13 2815.99,-109.43 2815.99,-101.64"/>
<polygon fill="midnightblue" stroke="midnightblue" points="2812.49,-128.3 2815.99,-138.3 2819.49,-128.3 2812.49,-128.3"/>
</g>
<!-- Node32 -->
<g id="node31" class="node">
<title>Node32</title>
<g id="a_node31"><a xlink:href="QuoteMessage_8cpp.html" target="_top" xlink:title=" ">
<polygon fill="none" stroke="black" points="2904.99,-69.5 2904.99,-101.5 3068.99,-101.5 3068.99,-69.5 2904.99,-69.5"/>
<text text-anchor="start" x="2912.99" y="-88.7" font-family="-apple-system, BlinkMacSystemFont, 'Segoe UI', Roboto, Oxygen, Ubuntu, Cantarell, 'Fira Sans', 'Droid Sans', 'Helvetica Neue', sans-serif" font-size="11.00">libmirai/public/libmirai</text>
<text text-anchor="middle" x="2986.99" y="-76.7" font-family="-apple-system, BlinkMacSystemFont, 'Segoe UI', Roboto, Oxygen, Ubuntu, Cantarell, 'Fira Sans', 'Droid Sans', 'Helvetica Neue', sans-serif" font-size="11.00">/Messages/QuoteMessage.cpp</text>
</a>
</g>
</g>
<!-- Node31&#45;&gt;Node32 -->
<g id="edge54" class="edge">
<title>Node31&#45;&gt;Node32</title>
<path fill="none" stroke="midnightblue" d="M2863.9,-134.73C2890.6,-124.26 2923.41,-111.41 2948.44,-101.6"/>
<polygon fill="midnightblue" stroke="midnightblue" points="2862.4,-131.56 2854.36,-138.46 2864.95,-138.07 2862.4,-131.56"/>
</g>
</g>
</svg>
