<?xml version="1.0" encoding="UTF-8" standalone="no"?>
<!DOCTYPE svg PUBLIC "-//W3C//DTD SVG 1.1//EN"
 "http://www.w3.org/Graphics/SVG/1.1/DTD/svg11.dtd">
<!-- Generated by graphviz version 2.43.0 (0)
 -->
<!-- Title: libmirai/public/libmirai/Messages/MessageBase.hpp Pages: 1 -->
<svg width="376pt" height="155pt"
 viewBox="0.00 0.00 375.50 155.00" xmlns="http://www.w3.org/2000/svg" xmlns:xlink="http://www.w3.org/1999/xlink">
<g id="graph0" class="graph" transform="scale(1 1) rotate(0) translate(4 151)">
<title>libmirai/public/libmirai/Messages/MessageBase.hpp</title>
<!-- Node1 -->
<g id="node1" class="node">
<title>Node1</title>
<g id="a_node1"><a xlink:title=" ">
<polygon fill="#bfbfbf" stroke="black" points="40.5,-114.5 40.5,-146.5 219.5,-146.5 219.5,-114.5 40.5,-114.5"/>
<text text-anchor="start" x="48.5" y="-133.7" font-family="-apple-system,BlinkMacSystemFont,'SegoeUI',Roboto,Oxygen,Ubuntu,Cantarell,'FiraSans','DroidSans','HelveticaNeue',sans-serif" font-size="11.00">libmirai/public/libmirai</text>
<text text-anchor="middle" x="130" y="-121.7" font-family="-apple-system,BlinkMacSystemFont,'SegoeUI',Roboto,Oxygen,Ubuntu,Cantarell,'FiraSans','DroidSans','HelveticaNeue',sans-serif" font-size="11.00">/Messages/MessageBase.hpp</text>
</a>
</g>
</g>
<!-- Node2 -->
<g id="node2" class="node">
<title>Node2</title>
<g id="a_node2"><a xlink:title=" ">
<polygon fill="none" stroke="#bfbfbf" points="0,-57.5 0,-77.5 62,-77.5 62,-57.5 0,-57.5"/>
<text text-anchor="middle" x="31" y="-64.7" font-family="-apple-system,BlinkMacSystemFont,'SegoeUI',Roboto,Oxygen,Ubuntu,Cantarell,'FiraSans','DroidSans','HelveticaNeue',sans-serif" font-size="11.00">memory</text>
</a>
</g>
</g>
<!-- Node1&#45;&gt;Node2 -->
<g id="edge1" class="edge">
<title>Node1&#45;&gt;Node2</title>
<path fill="none" stroke="midnightblue" d="M105.53,-114.42C89.98,-104.84 69.95,-92.5 54.57,-83.02"/>
<polygon fill="midnightblue" stroke="midnightblue" points="56.03,-79.81 45.68,-77.55 52.36,-85.77 56.03,-79.81"/>
</g>
<!-- Node3 -->
<g id="node3" class="node">
<title>Node3</title>
<g id="a_node3"><a xlink:title=" ">
<polygon fill="none" stroke="#bfbfbf" points="80,-57.5 80,-77.5 128,-77.5 128,-57.5 80,-57.5"/>
<text text-anchor="middle" x="104" y="-64.7" font-family="-apple-system,BlinkMacSystemFont,'SegoeUI',Roboto,Oxygen,Ubuntu,Cantarell,'FiraSans','DroidSans','HelveticaNeue',sans-serif" font-size="11.00">string</text>
</a>
</g>
</g>
<!-- Node1&#45;&gt;Node3 -->
<g id="edge2" class="edge">
<title>Node1&#45;&gt;Node3</title>
<path fill="none" stroke="midnightblue" d="M123.57,-114.42C120.03,-106.1 115.6,-95.71 111.85,-86.92"/>
<polygon fill="midnightblue" stroke="midnightblue" points="115,-85.37 107.86,-77.55 108.56,-88.12 115,-85.37"/>
</g>
<!-- Node4 -->
<g id="node4" class="node">
<title>Node4</title>
<g id="a_node4"><a xlink:title=" ">
<polygon fill="none" stroke="#bfbfbf" points="143,-0.5 143,-20.5 289,-20.5 289,-0.5 143,-0.5"/>
<text text-anchor="middle" x="216" y="-7.7" font-family="-apple-system,BlinkMacSystemFont,'SegoeUI',Roboto,Oxygen,Ubuntu,Cantarell,'FiraSans','DroidSans','HelveticaNeue',sans-serif" font-size="11.00">nlohmann/json_fwd.hpp</text>
</a>
</g>
</g>
<!-- Node1&#45;&gt;Node4 -->
<g id="edge3" class="edge">
<title>Node1&#45;&gt;Node4</title>
<path fill="none" stroke="midnightblue" d="M138.68,-114.33C147.48,-99.34 161.78,-75.96 176,-57 183.48,-47.03 192.6,-36.54 200.25,-28.15"/>
<polygon fill="midnightblue" stroke="midnightblue" points="203.06,-30.27 207.28,-20.55 197.92,-25.51 203.06,-30.27"/>
</g>
<!-- Node5 -->
<g id="node5" class="node">
<title>Node5</title>
<g id="a_node5"><a xlink:href="Serializable_8hpp.html" target="_top" xlink:title=" ">
<polygon fill="none" stroke="black" points="184.5,-57.5 184.5,-77.5 367.5,-77.5 367.5,-57.5 184.5,-57.5"/>
<text text-anchor="middle" x="276" y="-64.7" font-family="-apple-system,BlinkMacSystemFont,'SegoeUI',Roboto,Oxygen,Ubuntu,Cantarell,'FiraSans','DroidSans','HelveticaNeue',sans-serif" font-size="11.00">libmirai/Types/Serializable.hpp</text>
</a>
</g>
</g>
<!-- Node1&#45;&gt;Node5 -->
<g id="edge4" class="edge">
<title>Node1&#45;&gt;Node5</title>
<path fill="none" stroke="midnightblue" d="M166.09,-114.42C190.33,-104.3 221.93,-91.09 245.02,-81.44"/>
<polygon fill="midnightblue" stroke="midnightblue" points="246.47,-84.63 254.35,-77.55 243.77,-78.17 246.47,-84.63"/>
</g>
<!-- Node5&#45;&gt;Node4 -->
<g id="edge5" class="edge">
<title>Node5&#45;&gt;Node4</title>
<path fill="none" stroke="midnightblue" d="M266.09,-57.42C257.29,-49.35 244.21,-37.36 233.62,-27.65"/>
<polygon fill="midnightblue" stroke="midnightblue" points="235.86,-24.96 226.12,-20.78 231.13,-30.12 235.86,-24.96"/>
</g>
</g>
</svg>
