<?xml version="1.0" encoding="UTF-8" standalone="no"?>
<!DOCTYPE svg PUBLIC "-//W3C//DTD SVG 1.1//EN"
 "http://www.w3.org/Graphics/SVG/1.1/DTD/svg11.dtd">
<!-- Generated by graphviz version 3.0.0 (20221109.1736)
 -->
<!-- Title: libmirai/models/libmirai/Messages/MessageChain.cpp Pages: 1 -->
<svg width="2973pt" height="338pt"
 viewBox="0.00 0.00 2972.50 338.00" xmlns="http://www.w3.org/2000/svg" xmlns:xlink="http://www.w3.org/1999/xlink">
<g id="graph0" class="graph" transform="scale(1 1) rotate(0) translate(4 334)">
<title>libmirai/models/libmirai/Messages/MessageChain.cpp</title>
<!-- Node1 -->
<g id="node1" class="node">
<title>Node1</title>
<g id="a_node1"><a xlink:title=" ">
<polygon fill="#bfbfbf" stroke="black" points="2086.5,-297.5 2086.5,-329.5 2249.5,-329.5 2249.5,-297.5 2086.5,-297.5"/>
<text text-anchor="start" x="2094.5" y="-316.7" font-family="-apple-system, BlinkMacSystemFont, 'Segoe UI', Roboto, Oxygen, Ubuntu, Cantarell, 'Fira Sans', 'Droid Sans', 'Helvetica Neue', sans-serif" font-size="11.00">libmirai/models/libmirai</text>
<text text-anchor="middle" x="2168" y="-304.7" font-family="-apple-system, BlinkMacSystemFont, 'Segoe UI', Roboto, Oxygen, Ubuntu, Cantarell, 'Fira Sans', 'Droid Sans', 'Helvetica Neue', sans-serif" font-size="11.00">/Messages/MessageChain.cpp</text>
</a>
</g>
</g>
<!-- Node2 -->
<g id="node2" class="node">
<title>Node2</title>
<g id="a_node2"><a xlink:href="MessageChain_8hpp.html" target="_top" xlink:title=" ">
<polygon fill="none" stroke="black" points="1406.5,-240.5 1406.5,-260.5 1515.5,-260.5 1515.5,-240.5 1406.5,-240.5"/>
<text text-anchor="middle" x="1461" y="-247.7" font-family="-apple-system, BlinkMacSystemFont, 'Segoe UI', Roboto, Oxygen, Ubuntu, Cantarell, 'Fira Sans', 'Droid Sans', 'Helvetica Neue', sans-serif" font-size="11.00">MessageChain.hpp</text>
</a>
</g>
</g>
<!-- Node1&#45;&gt;Node2 -->
<g id="edge1" class="edge">
<title>Node1&#45;&gt;Node2</title>
<path fill="none" stroke="midnightblue" d="M2086.21,-305.44C1944.29,-293.2 1655.26,-268.26 1526.01,-257.11"/>
<polygon fill="midnightblue" stroke="midnightblue" points="1526.13,-253.61 1515.86,-256.23 1525.52,-260.58 1526.13,-253.61"/>
</g>
<!-- Node8 -->
<g id="node8" class="node">
<title>Node8</title>
<g id="a_node8"><a xlink:title=" ">
<polygon fill="none" stroke="#bfbfbf" points="0,-114.5 0,-134.5 54,-134.5 54,-114.5 0,-114.5"/>
<text text-anchor="middle" x="27" y="-121.7" font-family="-apple-system, BlinkMacSystemFont, 'Segoe UI', Roboto, Oxygen, Ubuntu, Cantarell, 'Fira Sans', 'Droid Sans', 'Helvetica Neue', sans-serif" font-size="11.00">optional</text>
</a>
</g>
</g>
<!-- Node1&#45;&gt;Node8 -->
<g id="edge85" class="edge">
<title>Node1&#45;&gt;Node8</title>
<path fill="none" stroke="midnightblue" d="M2086.4,-310.88C1707.58,-303.01 135.27,-266.69 53,-204 34.84,-190.17 29.21,-163.23 27.55,-144.81"/>
<polygon fill="midnightblue" stroke="midnightblue" points="31.03,-144.41 26.95,-134.63 24.04,-144.82 31.03,-144.41"/>
</g>
<!-- Node15 -->
<g id="node14" class="node">
<title>Node15</title>
<g id="a_node14"><a xlink:title=" ">
<polygon fill="none" stroke="#bfbfbf" points="1464.5,-0.5 1464.5,-20.5 1507.5,-20.5 1507.5,-0.5 1464.5,-0.5"/>
<text text-anchor="middle" x="1486" y="-7.7" font-family="-apple-system, BlinkMacSystemFont, 'Segoe UI', Roboto, Oxygen, Ubuntu, Cantarell, 'Fira Sans', 'Droid Sans', 'Helvetica Neue', sans-serif" font-size="11.00">string</text>
</a>
</g>
</g>
<!-- Node1&#45;&gt;Node15 -->
<g id="edge86" class="edge">
<title>Node1&#45;&gt;Node15</title>
<path fill="none" stroke="midnightblue" d="M2249.79,-306.62C2435.9,-292.15 2875,-251.35 2875,-188.5 2875,-188.5 2875,-188.5 2875,-123.5 2875,-111.29 3154.48,-141.07 2659,-57 2430.67,-18.26 1683.21,-12.44 1518.36,-11.63"/>
<polygon fill="midnightblue" stroke="midnightblue" points="1517.95,-8.12 1507.93,-11.58 1517.92,-15.12 1517.95,-8.12"/>
</g>
<!-- Node39 -->
<g id="node34" class="node">
<title>Node39</title>
<g id="a_node34"><a xlink:title=" ">
<polygon fill="none" stroke="#bfbfbf" points="2903.5,-240.5 2903.5,-260.5 2964.5,-260.5 2964.5,-240.5 2903.5,-240.5"/>
<text text-anchor="middle" x="2934" y="-247.7" font-family="-apple-system, BlinkMacSystemFont, 'Segoe UI', Roboto, Oxygen, Ubuntu, Cantarell, 'Fira Sans', 'Droid Sans', 'Helvetica Neue', sans-serif" font-size="11.00">algorithm</text>
</a>
</g>
</g>
<!-- Node1&#45;&gt;Node39 -->
<g id="edge84" class="edge">
<title>Node1&#45;&gt;Node39</title>
<path fill="none" stroke="midnightblue" d="M2249.75,-310.3C2383.84,-305.87 2658.63,-293.39 2889,-261 2890.29,-260.82 2891.6,-260.62 2892.92,-260.41"/>
<polygon fill="midnightblue" stroke="midnightblue" points="2893.88,-263.8 2903.11,-258.6 2892.66,-256.9 2893.88,-263.8"/>
</g>
<!-- Node3 -->
<g id="node3" class="node">
<title>Node3</title>
<g id="a_node3"><a xlink:title=" ">
<polygon fill="none" stroke="#bfbfbf" points="2398.5,-177.5 2398.5,-197.5 2449.5,-197.5 2449.5,-177.5 2398.5,-177.5"/>
<text text-anchor="middle" x="2424" y="-184.7" font-family="-apple-system, BlinkMacSystemFont, 'Segoe UI', Roboto, Oxygen, Ubuntu, Cantarell, 'Fira Sans', 'Droid Sans', 'Helvetica Neue', sans-serif" font-size="11.00">cassert</text>
</a>
</g>
</g>
<!-- Node2&#45;&gt;Node3 -->
<g id="edge2" class="edge">
<title>Node2&#45;&gt;Node3</title>
<path fill="none" stroke="midnightblue" d="M1515.69,-249.44C1688.54,-248.84 2221.56,-243.73 2389,-204 2391.85,-203.32 2394.75,-202.42 2397.61,-201.39"/>
<polygon fill="midnightblue" stroke="midnightblue" points="2399.08,-204.57 2406.99,-197.53 2396.41,-198.1 2399.08,-204.57"/>
</g>
<!-- Node4 -->
<g id="node4" class="node">
<title>Node4</title>
<g id="a_node4"><a xlink:title=" ">
<polygon fill="none" stroke="#bfbfbf" points="2467.5,-177.5 2467.5,-197.5 2518.5,-197.5 2518.5,-177.5 2467.5,-177.5"/>
<text text-anchor="middle" x="2493" y="-184.7" font-family="-apple-system, BlinkMacSystemFont, 'Segoe UI', Roboto, Oxygen, Ubuntu, Cantarell, 'Fira Sans', 'Droid Sans', 'Helvetica Neue', sans-serif" font-size="11.00">cstddef</text>
</a>
</g>
</g>
<!-- Node2&#45;&gt;Node4 -->
<g id="edge3" class="edge">
<title>Node2&#45;&gt;Node4</title>
<path fill="none" stroke="midnightblue" d="M1515.65,-249.74C1697.01,-250.09 2277.74,-247.71 2459,-204 2461.69,-203.35 2464.42,-202.49 2467.11,-201.51"/>
<polygon fill="midnightblue" stroke="midnightblue" points="2468.65,-204.65 2476.51,-197.55 2465.93,-198.2 2468.65,-204.65"/>
</g>
<!-- Node5 -->
<g id="node5" class="node">
<title>Node5</title>
<g id="a_node5"><a xlink:title=" ">
<polygon fill="none" stroke="#bfbfbf" points="171,-114.5 171,-134.5 213,-134.5 213,-114.5 171,-114.5"/>
<text text-anchor="middle" x="192" y="-121.7" font-family="-apple-system, BlinkMacSystemFont, 'Segoe UI', Roboto, Oxygen, Ubuntu, Cantarell, 'Fira Sans', 'Droid Sans', 'Helvetica Neue', sans-serif" font-size="11.00">ctime</text>
</a>
</g>
</g>
<!-- Node2&#45;&gt;Node5 -->
<g id="edge4" class="edge">
<title>Node2&#45;&gt;Node5</title>
<path fill="none" stroke="midnightblue" d="M1406.41,-249.74C1160.7,-250.54 167.31,-250.88 122,-204 111.81,-193.45 115,-183.89 122,-171 130.45,-155.43 146.79,-144.35 161.56,-137.03"/>
<polygon fill="midnightblue" stroke="midnightblue" points="163.29,-140.09 170.93,-132.75 160.38,-133.72 163.29,-140.09"/>
</g>
<!-- Node6 -->
<g id="node6" class="node">
<title>Node6</title>
<g id="a_node6"><a xlink:title=" ">
<polygon fill="none" stroke="#bfbfbf" points="2318,-177.5 2318,-197.5 2380,-197.5 2380,-177.5 2318,-177.5"/>
<text text-anchor="middle" x="2349" y="-184.7" font-family="-apple-system, BlinkMacSystemFont, 'Segoe UI', Roboto, Oxygen, Ubuntu, Cantarell, 'Fira Sans', 'Droid Sans', 'Helvetica Neue', sans-serif" font-size="11.00">functional</text>
</a>
</g>
</g>
<!-- Node2&#45;&gt;Node6 -->
<g id="edge5" class="edge">
<title>Node2&#45;&gt;Node6</title>
<path fill="none" stroke="midnightblue" d="M1515.51,-248.88C1678.07,-246.67 2157.62,-237.42 2310,-204 2313.45,-203.24 2316.99,-202.22 2320.47,-201.05"/>
<polygon fill="midnightblue" stroke="midnightblue" points="2321.81,-204.29 2329.95,-197.5 2319.36,-197.73 2321.81,-204.29"/>
</g>
<!-- Node7 -->
<g id="node7" class="node">
<title>Node7</title>
<g id="a_node7"><a xlink:title=" ">
<polygon fill="none" stroke="#bfbfbf" points="2564,-57.5 2564,-77.5 2620,-77.5 2620,-57.5 2564,-57.5"/>
<text text-anchor="middle" x="2592" y="-64.7" font-family="-apple-system, BlinkMacSystemFont, 'Segoe UI', Roboto, Oxygen, Ubuntu, Cantarell, 'Fira Sans', 'Droid Sans', 'Helvetica Neue', sans-serif" font-size="11.00">memory</text>
</a>
</g>
</g>
<!-- Node2&#45;&gt;Node7 -->
<g id="edge6" class="edge">
<title>Node2&#45;&gt;Node7</title>
<path fill="none" stroke="midnightblue" d="M1515.75,-249.5C1744.77,-249.25 2616,-245.55 2656,-204 2689.97,-168.71 2639.35,-112.03 2610.19,-84.51"/>
<polygon fill="midnightblue" stroke="midnightblue" points="2612.36,-81.75 2602.62,-77.57 2607.62,-86.91 2612.36,-81.75"/>
</g>
<!-- Node2&#45;&gt;Node8 -->
<g id="edge7" class="edge">
<title>Node2&#45;&gt;Node8</title>
<path fill="none" stroke="midnightblue" d="M1406.41,-248.89C1159.44,-245.97 156.12,-232.42 96,-204 69.04,-191.26 48.26,-162.52 36.83,-143.58"/>
<polygon fill="midnightblue" stroke="midnightblue" points="39.75,-141.63 31.73,-134.7 33.68,-145.12 39.75,-141.63"/>
</g>
<!-- Node9 -->
<g id="node9" class="node">
<title>Node9</title>
<g id="a_node9"><a xlink:title=" ">
<polygon fill="none" stroke="#bfbfbf" points="2774,-114.5 2774,-134.5 2836,-134.5 2836,-114.5 2774,-114.5"/>
<text text-anchor="middle" x="2805" y="-121.7" font-family="-apple-system, BlinkMacSystemFont, 'Segoe UI', Roboto, Oxygen, Ubuntu, Cantarell, 'Fira Sans', 'Droid Sans', 'Helvetica Neue', sans-serif" font-size="11.00">stdexcept</text>
</a>
</g>
</g>
<!-- Node2&#45;&gt;Node9 -->
<g id="edge8" class="edge">
<title>Node2&#45;&gt;Node9</title>
<path fill="none" stroke="midnightblue" d="M1515.91,-249.76C1764.21,-250.69 2772.04,-251.53 2818,-204 2833.39,-188.08 2824.41,-161.32 2815.54,-143.53"/>
<polygon fill="midnightblue" stroke="midnightblue" points="2818.61,-141.84 2810.78,-134.7 2812.45,-145.16 2818.61,-141.84"/>
</g>
<!-- Node10 -->
<g id="node10" class="node">
<title>Node10</title>
<g id="a_node10"><a xlink:title=" ">
<polygon fill="none" stroke="#bfbfbf" points="1533,-57.5 1533,-77.5 1599,-77.5 1599,-57.5 1533,-57.5"/>
<text text-anchor="middle" x="1566" y="-64.7" font-family="-apple-system, BlinkMacSystemFont, 'Segoe UI', Roboto, Oxygen, Ubuntu, Cantarell, 'Fira Sans', 'Droid Sans', 'Helvetica Neue', sans-serif" font-size="11.00">type_traits</text>
</a>
</g>
</g>
<!-- Node2&#45;&gt;Node10 -->
<g id="edge9" class="edge">
<title>Node2&#45;&gt;Node10</title>
<path fill="none" stroke="midnightblue" d="M1515.54,-250.05C1670.21,-251.04 2103.27,-249.66 2146,-204 2222.42,-122.34 1755.6,-81.94 1609.01,-71.37"/>
<polygon fill="midnightblue" stroke="midnightblue" points="1609.25,-67.88 1599.03,-70.66 1608.75,-74.86 1609.25,-67.88"/>
</g>
<!-- Node11 -->
<g id="node11" class="node">
<title>Node11</title>
<g id="a_node11"><a xlink:title=" ">
<polygon fill="none" stroke="#bfbfbf" points="734.5,-114.5 734.5,-134.5 775.5,-134.5 775.5,-114.5 734.5,-114.5"/>
<text text-anchor="middle" x="755" y="-121.7" font-family="-apple-system, BlinkMacSystemFont, 'Segoe UI', Roboto, Oxygen, Ubuntu, Cantarell, 'Fira Sans', 'Droid Sans', 'Helvetica Neue', sans-serif" font-size="11.00">utility</text>
</a>
</g>
</g>
<!-- Node2&#45;&gt;Node11 -->
<g id="edge10" class="edge">
<title>Node2&#45;&gt;Node11</title>
<path fill="none" stroke="midnightblue" d="M1406.39,-249.15C1198.67,-247.54 467.85,-239.38 434,-204 423.86,-193.4 424.38,-182.07 434,-171 471.38,-127.95 650.64,-124.54 723.8,-124.99"/>
<polygon fill="midnightblue" stroke="midnightblue" points="724.17,-128.5 734.2,-125.09 724.23,-121.5 724.17,-128.5"/>
</g>
<!-- Node12 -->
<g id="node12" class="node">
<title>Node12</title>
<g id="a_node12"><a xlink:title=" ">
<polygon fill="none" stroke="#bfbfbf" points="89,-114.5 89,-134.5 135,-134.5 135,-114.5 89,-114.5"/>
<text text-anchor="middle" x="112" y="-121.7" font-family="-apple-system, BlinkMacSystemFont, 'Segoe UI', Roboto, Oxygen, Ubuntu, Cantarell, 'Fira Sans', 'Droid Sans', 'Helvetica Neue', sans-serif" font-size="11.00">vector</text>
</a>
</g>
</g>
<!-- Node2&#45;&gt;Node12 -->
<g id="edge11" class="edge">
<title>Node2&#45;&gt;Node12</title>
<path fill="none" stroke="midnightblue" d="M1406.38,-249.75C1159.35,-250.64 156.72,-251.28 111,-204 96.02,-188.51 99.92,-162.22 105.1,-144.37"/>
<polygon fill="midnightblue" stroke="midnightblue" points="108.46,-145.34 108.25,-134.75 101.81,-143.17 108.46,-145.34"/>
</g>
<!-- Node13 -->
<g id="node13" class="node">
<title>Node13</title>
<g id="a_node13"><a xlink:href="Exceptions_8hpp.html" target="_top" xlink:title=" ">
<polygon fill="none" stroke="red" points="2703.5,-171.5 2703.5,-203.5 2808.5,-203.5 2808.5,-171.5 2703.5,-171.5"/>
<text text-anchor="start" x="2711.5" y="-190.7" font-family="-apple-system, BlinkMacSystemFont, 'Segoe UI', Roboto, Oxygen, Ubuntu, Cantarell, 'Fira Sans', 'Droid Sans', 'Helvetica Neue', sans-serif" font-size="11.00">libmirai/Exceptions</text>
<text text-anchor="middle" x="2756" y="-178.7" font-family="-apple-system, BlinkMacSystemFont, 'Segoe UI', Roboto, Oxygen, Ubuntu, Cantarell, 'Fira Sans', 'Droid Sans', 'Helvetica Neue', sans-serif" font-size="11.00">/Exceptions.hpp</text>
</a>
</g>
</g>
<!-- Node2&#45;&gt;Node13 -->
<g id="edge12" class="edge">
<title>Node2&#45;&gt;Node13</title>
<path fill="none" stroke="midnightblue" d="M1515.67,-248.86C1722.54,-246.21 2457.3,-234.81 2689,-204 2690.3,-203.83 2691.61,-203.64 2692.93,-203.44"/>
<polygon fill="midnightblue" stroke="midnightblue" points="2693.87,-206.83 2703.14,-201.71 2692.7,-199.93 2693.87,-206.83"/>
</g>
<!-- Node16 -->
<g id="node15" class="node">
<title>Node16</title>
<g id="a_node15"><a xlink:href="MessageTypes_8hpp.html" target="_top" xlink:title=" ">
<polygon fill="none" stroke="red" points="1259.5,-57.5 1259.5,-77.5 1438.5,-77.5 1438.5,-57.5 1259.5,-57.5"/>
<text text-anchor="middle" x="1349" y="-64.7" font-family="-apple-system, BlinkMacSystemFont, 'Segoe UI', Roboto, Oxygen, Ubuntu, Cantarell, 'Fira Sans', 'Droid Sans', 'Helvetica Neue', sans-serif" font-size="11.00">libmirai/Types/MessageTypes.hpp</text>
</a>
</g>
</g>
<!-- Node2&#45;&gt;Node16 -->
<g id="edge15" class="edge">
<title>Node2&#45;&gt;Node16</title>
<path fill="none" stroke="midnightblue" d="M1442.96,-240.39C1428.94,-232.49 1409.94,-219.83 1398,-204 1370.86,-168.01 1357.65,-115.56 1352.21,-87.65"/>
<polygon fill="midnightblue" stroke="midnightblue" points="1355.62,-86.83 1350.38,-77.62 1348.73,-88.08 1355.62,-86.83"/>
</g>
<!-- Node18 -->
<g id="node16" class="node">
<title>Node18</title>
<g id="a_node16"><a xlink:href="AppMessage_8hpp.html" target="_top" xlink:title=" ">
<polygon fill="none" stroke="black" points="841.5,-177.5 841.5,-197.5 942.5,-197.5 942.5,-177.5 841.5,-177.5"/>
<text text-anchor="middle" x="892" y="-184.7" font-family="-apple-system, BlinkMacSystemFont, 'Segoe UI', Roboto, Oxygen, Ubuntu, Cantarell, 'Fira Sans', 'Droid Sans', 'Helvetica Neue', sans-serif" font-size="11.00">AppMessage.hpp</text>
</a>
</g>
</g>
<!-- Node2&#45;&gt;Node18 -->
<g id="edge17" class="edge">
<title>Node2&#45;&gt;Node18</title>
<path fill="none" stroke="midnightblue" d="M1406.38,-247.55C1312.77,-243.56 1115.93,-232.3 952,-204 945.74,-202.92 939.17,-201.51 932.78,-199.99"/>
<polygon fill="midnightblue" stroke="midnightblue" points="933.48,-196.55 922.93,-197.52 931.78,-203.35 933.48,-196.55"/>
</g>
<!-- Node19 -->
<g id="node17" class="node">
<title>Node19</title>
<g id="a_node17"><a xlink:href="IMessage_8hpp.html" target="_top" xlink:title=" ">
<polygon fill="none" stroke="black" points="1385,-114.5 1385,-134.5 1469,-134.5 1469,-114.5 1385,-114.5"/>
<text text-anchor="middle" x="1427" y="-121.7" font-family="-apple-system, BlinkMacSystemFont, 'Segoe UI', Roboto, Oxygen, Ubuntu, Cantarell, 'Fira Sans', 'Droid Sans', 'Helvetica Neue', sans-serif" font-size="11.00">IMessage.hpp</text>
</a>
</g>
</g>
<!-- Node2&#45;&gt;Node19 -->
<g id="edge50" class="edge">
<title>Node2&#45;&gt;Node19</title>
<path fill="none" stroke="midnightblue" d="M1443.26,-240.43C1430.28,-232.7 1413.65,-220.26 1406,-204 1396.75,-184.34 1406.23,-159.92 1415.26,-143.58"/>
<polygon fill="midnightblue" stroke="midnightblue" points="1418.51,-144.95 1420.64,-134.57 1412.51,-141.36 1418.51,-144.95"/>
</g>
<!-- Node20 -->
<g id="node18" class="node">
<title>Node20</title>
<g id="a_node18"><a xlink:href="AtAllMessage_8hpp.html" target="_top" xlink:title=" ">
<polygon fill="none" stroke="black" points="1217,-177.5 1217,-197.5 1321,-197.5 1321,-177.5 1217,-177.5"/>
<text text-anchor="middle" x="1269" y="-184.7" font-family="-apple-system, BlinkMacSystemFont, 'Segoe UI', Roboto, Oxygen, Ubuntu, Cantarell, 'Fira Sans', 'Droid Sans', 'Helvetica Neue', sans-serif" font-size="11.00">AtAllMessage.hpp</text>
</a>
</g>
</g>
<!-- Node2&#45;&gt;Node20 -->
<g id="edge25" class="edge">
<title>Node2&#45;&gt;Node20</title>
<path fill="none" stroke="midnightblue" d="M1432.67,-240.5C1399.49,-229.96 1344.36,-212.44 1307.37,-200.69"/>
<polygon fill="midnightblue" stroke="midnightblue" points="1308.04,-197.23 1297.45,-197.54 1305.92,-203.9 1308.04,-197.23"/>
</g>
<!-- Node21 -->
<g id="node19" class="node">
<title>Node21</title>
<g id="a_node19"><a xlink:href="AtMessage_8hpp.html" target="_top" xlink:title=" ">
<polygon fill="none" stroke="red" points="1415,-177.5 1415,-197.5 1507,-197.5 1507,-177.5 1415,-177.5"/>
<text text-anchor="middle" x="1461" y="-184.7" font-family="-apple-system, BlinkMacSystemFont, 'Segoe UI', Roboto, Oxygen, Ubuntu, Cantarell, 'Fira Sans', 'Droid Sans', 'Helvetica Neue', sans-serif" font-size="11.00">AtMessage.hpp</text>
</a>
</g>
</g>
<!-- Node2&#45;&gt;Node21 -->
<g id="edge28" class="edge">
<title>Node2&#45;&gt;Node21</title>
<path fill="none" stroke="midnightblue" d="M1461,-240.5C1461,-231.94 1461,-218.78 1461,-207.85"/>
<polygon fill="midnightblue" stroke="midnightblue" points="1464.5,-207.54 1461,-197.54 1457.5,-207.54 1464.5,-207.54"/>
</g>
<!-- Node24 -->
<g id="node20" class="node">
<title>Node24</title>
<g id="a_node20"><a xlink:href="AudioMessage_8hpp.html" target="_top" xlink:title=" ">
<polygon fill="none" stroke="red" points="960.5,-177.5 960.5,-197.5 1069.5,-197.5 1069.5,-177.5 960.5,-177.5"/>
<text text-anchor="middle" x="1015" y="-184.7" font-family="-apple-system, BlinkMacSystemFont, 'Segoe UI', Roboto, Oxygen, Ubuntu, Cantarell, 'Fira Sans', 'Droid Sans', 'Helvetica Neue', sans-serif" font-size="11.00">AudioMessage.hpp</text>
</a>
</g>
</g>
<!-- Node2&#45;&gt;Node24 -->
<g id="edge31" class="edge">
<title>Node2&#45;&gt;Node24</title>
<path fill="none" stroke="midnightblue" d="M1406.29,-245.05C1331.86,-238.52 1194.69,-224.82 1079,-204 1072.58,-202.84 1065.83,-201.43 1059.24,-199.94"/>
<polygon fill="midnightblue" stroke="midnightblue" points="1059.59,-196.42 1049.05,-197.54 1057.98,-203.24 1059.59,-196.42"/>
</g>
<!-- Node26 -->
<g id="node21" class="node">
<title>Node26</title>
<g id="a_node21"><a xlink:href="DiceMessage_8hpp.html" target="_top" xlink:title=" ">
<polygon fill="none" stroke="black" points="1525,-177.5 1525,-197.5 1627,-197.5 1627,-177.5 1525,-177.5"/>
<text text-anchor="middle" x="1576" y="-184.7" font-family="-apple-system, BlinkMacSystemFont, 'Segoe UI', Roboto, Oxygen, Ubuntu, Cantarell, 'Fira Sans', 'Droid Sans', 'Helvetica Neue', sans-serif" font-size="11.00">DiceMessage.hpp</text>
</a>
</g>
</g>
<!-- Node2&#45;&gt;Node26 -->
<g id="edge35" class="edge">
<title>Node2&#45;&gt;Node26</title>
<path fill="none" stroke="midnightblue" d="M1477.97,-240.5C1496.99,-230.41 1528.06,-213.93 1550.12,-202.23"/>
<polygon fill="midnightblue" stroke="midnightblue" points="1551.77,-205.32 1558.96,-197.54 1548.49,-199.13 1551.77,-205.32"/>
</g>
<!-- Node27 -->
<g id="node22" class="node">
<title>Node27</title>
<g id="a_node22"><a xlink:href="FaceMessage_8hpp.html" target="_top" xlink:title=" ">
<polygon fill="none" stroke="black" points="1645.5,-177.5 1645.5,-197.5 1750.5,-197.5 1750.5,-177.5 1645.5,-177.5"/>
<text text-anchor="middle" x="1698" y="-184.7" font-family="-apple-system, BlinkMacSystemFont, 'Segoe UI', Roboto, Oxygen, Ubuntu, Cantarell, 'Fira Sans', 'Droid Sans', 'Helvetica Neue', sans-serif" font-size="11.00">FaceMessage.hpp</text>
</a>
</g>
</g>
<!-- Node2&#45;&gt;Node27 -->
<g id="edge38" class="edge">
<title>Node2&#45;&gt;Node27</title>
<path fill="none" stroke="midnightblue" d="M1495.97,-240.5C1537.63,-229.78 1607.31,-211.84 1652.96,-200.09"/>
<polygon fill="midnightblue" stroke="midnightblue" points="1654.07,-203.42 1662.89,-197.54 1652.33,-196.64 1654.07,-203.42"/>
</g>
<!-- Node28 -->
<g id="node23" class="node">
<title>Node28</title>
<g id="a_node23"><a xlink:href="FileMessage_8hpp.html" target="_top" xlink:title=" ">
<polygon fill="none" stroke="black" points="1769,-177.5 1769,-197.5 1867,-197.5 1867,-177.5 1769,-177.5"/>
<text text-anchor="middle" x="1818" y="-184.7" font-family="-apple-system, BlinkMacSystemFont, 'Segoe UI', Roboto, Oxygen, Ubuntu, Cantarell, 'Fira Sans', 'Droid Sans', 'Helvetica Neue', sans-serif" font-size="11.00">FileMessage.hpp</text>
</a>
</g>
</g>
<!-- Node2&#45;&gt;Node28 -->
<g id="edge41" class="edge">
<title>Node2&#45;&gt;Node28</title>
<path fill="none" stroke="midnightblue" d="M1515.61,-243.03C1575.8,-235.46 1675.32,-221.7 1760,-204 1765.48,-202.85 1771.22,-201.51 1776.87,-200.09"/>
<polygon fill="midnightblue" stroke="midnightblue" points="1778.05,-203.4 1786.85,-197.5 1776.29,-196.62 1778.05,-203.4"/>
</g>
<!-- Node29 -->
<g id="node24" class="node">
<title>Node29</title>
<g id="a_node24"><a xlink:href="ForwardMessage_8hpp.html" target="_top" xlink:title=" ">
<polygon fill="none" stroke="red" points="131,-177.5 131,-197.5 253,-197.5 253,-177.5 131,-177.5"/>
<text text-anchor="middle" x="192" y="-184.7" font-family="-apple-system, BlinkMacSystemFont, 'Segoe UI', Roboto, Oxygen, Ubuntu, Cantarell, 'Fira Sans', 'Droid Sans', 'Helvetica Neue', sans-serif" font-size="11.00">ForwardMessage.hpp</text>
</a>
</g>
</g>
<!-- Node2&#45;&gt;Node29 -->
<g id="edge44" class="edge">
<title>Node2&#45;&gt;Node29</title>
<path fill="none" stroke="midnightblue" d="M1406.23,-248.73C1202.4,-245.67 487.85,-233.05 262,-204 253.84,-202.95 245.22,-201.41 236.93,-199.7"/>
<polygon fill="midnightblue" stroke="midnightblue" points="237.55,-196.25 227.03,-197.55 236.07,-203.09 237.55,-196.25"/>
</g>
<!-- Node30 -->
<g id="node25" class="node">
<title>Node30</title>
<g id="a_node25"><a xlink:href="ImageMessage_8hpp.html" target="_top" xlink:title=" ">
<polygon fill="none" stroke="red" points="1087.5,-177.5 1087.5,-197.5 1198.5,-197.5 1198.5,-177.5 1087.5,-177.5"/>
<text text-anchor="middle" x="1143" y="-184.7" font-family="-apple-system, BlinkMacSystemFont, 'Segoe UI', Roboto, Oxygen, Ubuntu, Cantarell, 'Fira Sans', 'Droid Sans', 'Helvetica Neue', sans-serif" font-size="11.00">ImageMessage.hpp</text>
</a>
</g>
</g>
<!-- Node2&#45;&gt;Node30 -->
<g id="edge51" class="edge">
<title>Node2&#45;&gt;Node30</title>
<path fill="none" stroke="midnightblue" d="M1406.05,-240.53C1354.68,-231.93 1275.93,-218.2 1208,-204 1201.89,-202.72 1195.48,-201.3 1189.16,-199.84"/>
<polygon fill="midnightblue" stroke="midnightblue" points="1189.89,-196.42 1179.36,-197.55 1188.3,-203.24 1189.89,-196.42"/>
</g>
<!-- Node31 -->
<g id="node26" class="node">
<title>Node31</title>
<g id="a_node26"><a xlink:href="JsonMessage_8hpp.html" target="_top" xlink:title=" ">
<polygon fill="none" stroke="black" points="1885,-177.5 1885,-197.5 1989,-197.5 1989,-177.5 1885,-177.5"/>
<text text-anchor="middle" x="1937" y="-184.7" font-family="-apple-system, BlinkMacSystemFont, 'Segoe UI', Roboto, Oxygen, Ubuntu, Cantarell, 'Fira Sans', 'Droid Sans', 'Helvetica Neue', sans-serif" font-size="11.00">JsonMessage.hpp</text>
</a>
</g>
</g>
<!-- Node2&#45;&gt;Node31 -->
<g id="edge55" class="edge">
<title>Node2&#45;&gt;Node31</title>
<path fill="none" stroke="midnightblue" d="M1515.73,-245.95C1595.45,-240.22 1747.98,-227.17 1876,-204 1882.21,-202.88 1888.72,-201.47 1895.08,-199.97"/>
<polygon fill="midnightblue" stroke="midnightblue" points="1896.02,-203.34 1904.89,-197.55 1894.35,-196.55 1896.02,-203.34"/>
</g>
<!-- Node32 -->
<g id="node27" class="node">
<title>Node32</title>
<g id="a_node27"><a xlink:href="MiraiCodeMessage_8hpp.html" target="_top" xlink:title=" ">
<polygon fill="none" stroke="black" points="2007,-177.5 2007,-197.5 2137,-197.5 2137,-177.5 2007,-177.5"/>
<text text-anchor="middle" x="2072" y="-184.7" font-family="-apple-system, BlinkMacSystemFont, 'Segoe UI', Roboto, Oxygen, Ubuntu, Cantarell, 'Fira Sans', 'Droid Sans', 'Helvetica Neue', sans-serif" font-size="11.00">MiraiCodeMessage.hpp</text>
</a>
</g>
</g>
<!-- Node2&#45;&gt;Node32 -->
<g id="edge58" class="edge">
<title>Node2&#45;&gt;Node32</title>
<path fill="none" stroke="midnightblue" d="M1515.75,-247.07C1613.17,-242.25 1822.8,-229.67 1998,-204 2006.22,-202.8 2014.89,-201.24 2023.3,-199.58"/>
<polygon fill="midnightblue" stroke="midnightblue" points="2024.27,-202.95 2033.37,-197.52 2022.87,-196.1 2024.27,-202.95"/>
</g>
<!-- Node33 -->
<g id="node28" class="node">
<title>Node33</title>
<g id="a_node28"><a xlink:href="MusicShareMessage_8hpp.html" target="_top" xlink:title=" ">
<polygon fill="none" stroke="red" points="443,-177.5 443,-197.5 581,-197.5 581,-177.5 443,-177.5"/>
<text text-anchor="middle" x="512" y="-184.7" font-family="-apple-system, BlinkMacSystemFont, 'Segoe UI', Roboto, Oxygen, Ubuntu, Cantarell, 'Fira Sans', 'Droid Sans', 'Helvetica Neue', sans-serif" font-size="11.00">MusicShareMessage.hpp</text>
</a>
</g>
</g>
<!-- Node2&#45;&gt;Node33 -->
<g id="edge61" class="edge">
<title>Node2&#45;&gt;Node33</title>
<path fill="none" stroke="midnightblue" d="M1406.3,-249.32C1268.77,-248.29 897.59,-241.9 591,-204 581.73,-202.85 571.92,-201.25 562.47,-199.51"/>
<polygon fill="midnightblue" stroke="midnightblue" points="562.9,-196.02 552.42,-197.57 561.58,-202.9 562.9,-196.02"/>
</g>
<!-- Node34 -->
<g id="node29" class="node">
<title>Node34</title>
<g id="a_node29"><a xlink:href="PlainMessage_8hpp.html" target="_top" xlink:title=" ">
<polygon fill="none" stroke="black" points="599.5,-177.5 599.5,-197.5 704.5,-197.5 704.5,-177.5 599.5,-177.5"/>
<text text-anchor="middle" x="652" y="-184.7" font-family="-apple-system, BlinkMacSystemFont, 'Segoe UI', Roboto, Oxygen, Ubuntu, Cantarell, 'Fira Sans', 'Droid Sans', 'Helvetica Neue', sans-serif" font-size="11.00">PlainMessage.hpp</text>
</a>
</g>
</g>
<!-- Node2&#45;&gt;Node34 -->
<g id="edge65" class="edge">
<title>Node2&#45;&gt;Node34</title>
<path fill="none" stroke="midnightblue" d="M1406.27,-249.6C1282.29,-249.09 970.82,-243.58 714,-204 707.22,-202.96 700.1,-201.51 693.2,-199.92"/>
<polygon fill="midnightblue" stroke="midnightblue" points="693.86,-196.48 683.31,-197.52 692.2,-203.28 693.86,-196.48"/>
</g>
<!-- Node35 -->
<g id="node30" class="node">
<title>Node35</title>
<g id="a_node30"><a xlink:href="PokeMessage_8hpp.html" target="_top" xlink:title=" ">
<polygon fill="none" stroke="red" points="2193.5,-177.5 2193.5,-197.5 2300.5,-197.5 2300.5,-177.5 2193.5,-177.5"/>
<text text-anchor="middle" x="2247" y="-184.7" font-family="-apple-system, BlinkMacSystemFont, 'Segoe UI', Roboto, Oxygen, Ubuntu, Cantarell, 'Fira Sans', 'Droid Sans', 'Helvetica Neue', sans-serif" font-size="11.00">PokeMessage.hpp</text>
</a>
</g>
</g>
<!-- Node2&#45;&gt;Node35 -->
<g id="edge69" class="edge">
<title>Node2&#45;&gt;Node35</title>
<path fill="none" stroke="midnightblue" d="M1515.8,-249.02C1636.34,-247.33 1933.31,-239.55 2179,-204 2186.58,-202.9 2194.57,-201.4 2202.3,-199.76"/>
<polygon fill="midnightblue" stroke="midnightblue" points="2203.26,-203.14 2212.26,-197.55 2201.74,-196.3 2203.26,-203.14"/>
</g>
<!-- Node36 -->
<g id="node31" class="node">
<title>Node36</title>
<g id="a_node31"><a xlink:href="QuoteMessage_8hpp.html" target="_top" xlink:title=" ">
<polygon fill="none" stroke="red" points="2537,-177.5 2537,-197.5 2647,-197.5 2647,-177.5 2537,-177.5"/>
<text text-anchor="middle" x="2592" y="-184.7" font-family="-apple-system, BlinkMacSystemFont, 'Segoe UI', Roboto, Oxygen, Ubuntu, Cantarell, 'Fira Sans', 'Droid Sans', 'Helvetica Neue', sans-serif" font-size="11.00">QuoteMessage.hpp</text>
</a>
</g>
</g>
<!-- Node2&#45;&gt;Node36 -->
<g id="edge72" class="edge">
<title>Node2&#45;&gt;Node36</title>
<path fill="none" stroke="midnightblue" d="M1515.5,-248.58C1704.26,-245.18 2329.37,-232.01 2528,-204 2535.24,-202.98 2542.85,-201.5 2550.2,-199.86"/>
<polygon fill="midnightblue" stroke="midnightblue" points="2551.08,-203.25 2560.01,-197.54 2549.47,-196.44 2551.08,-203.25"/>
</g>
<!-- Node37 -->
<g id="node32" class="node">
<title>Node37</title>
<g id="a_node32"><a xlink:href="SourceMessage_8hpp.html" target="_top" xlink:title=" ">
<polygon fill="none" stroke="red" points="271,-177.5 271,-197.5 387,-197.5 387,-177.5 271,-177.5"/>
<text text-anchor="middle" x="329" y="-184.7" font-family="-apple-system, BlinkMacSystemFont, 'Segoe UI', Roboto, Oxygen, Ubuntu, Cantarell, 'Fira Sans', 'Droid Sans', 'Helvetica Neue', sans-serif" font-size="11.00">SourceMessage.hpp</text>
</a>
</g>
</g>
<!-- Node2&#45;&gt;Node37 -->
<g id="edge76" class="edge">
<title>Node2&#45;&gt;Node37</title>
<path fill="none" stroke="midnightblue" d="M1406.23,-248.37C1218.01,-244.31 598.43,-229.3 401,-204 392.52,-202.91 383.56,-201.34 374.95,-199.6"/>
<polygon fill="midnightblue" stroke="midnightblue" points="375.56,-196.15 365.05,-197.51 374.11,-203 375.56,-196.15"/>
</g>
<!-- Node38 -->
<g id="node33" class="node">
<title>Node38</title>
<g id="a_node33"><a xlink:href="XmlMessage_8hpp.html" target="_top" xlink:title=" ">
<polygon fill="none" stroke="black" points="723,-177.5 723,-197.5 823,-197.5 823,-177.5 723,-177.5"/>
<text text-anchor="middle" x="773" y="-184.7" font-family="-apple-system, BlinkMacSystemFont, 'Segoe UI', Roboto, Oxygen, Ubuntu, Cantarell, 'Fira Sans', 'Droid Sans', 'Helvetica Neue', sans-serif" font-size="11.00">XmlMessage.hpp</text>
</a>
</g>
</g>
<!-- Node2&#45;&gt;Node38 -->
<g id="edge80" class="edge">
<title>Node2&#45;&gt;Node38</title>
<path fill="none" stroke="midnightblue" d="M1406.43,-248.85C1296.97,-246.82 1043.08,-238.46 833,-204 826.66,-202.96 820.01,-201.56 813.55,-200.03"/>
<polygon fill="midnightblue" stroke="midnightblue" points="814.16,-196.57 803.61,-197.54 812.46,-203.36 814.16,-196.57"/>
</g>
<!-- Node13&#45;&gt;Node9 -->
<g id="edge13" class="edge">
<title>Node13&#45;&gt;Node9</title>
<path fill="none" stroke="midnightblue" d="M2768.11,-171.42C2775.16,-162.65 2784.06,-151.57 2791.35,-142.5"/>
<polygon fill="midnightblue" stroke="midnightblue" points="2794.2,-144.53 2797.73,-134.55 2788.74,-140.15 2794.2,-144.53"/>
</g>
<!-- Node13&#45;&gt;Node15 -->
<g id="edge14" class="edge">
<title>Node13&#45;&gt;Node15</title>
<path fill="none" stroke="midnightblue" d="M2746.81,-171.31C2728.53,-142.73 2684.56,-81.64 2629,-57 2524.98,-10.86 1691,-10.87 1517.53,-11.37"/>
<polygon fill="midnightblue" stroke="midnightblue" points="1517.51,-7.87 1507.52,-11.41 1517.53,-14.87 1517.51,-7.87"/>
</g>
<!-- Node16&#45;&gt;Node15 -->
<g id="edge16" class="edge">
<title>Node16&#45;&gt;Node15</title>
<path fill="none" stroke="midnightblue" d="M1371.62,-57.42C1394.3,-48.31 1429.39,-34.23 1454.73,-24.05"/>
<polygon fill="midnightblue" stroke="midnightblue" points="1456.27,-27.21 1464.25,-20.23 1453.67,-20.71 1456.27,-27.21"/>
</g>
<!-- Node18&#45;&gt;Node11 -->
<g id="edge19" class="edge">
<title>Node18&#45;&gt;Node11</title>
<path fill="none" stroke="midnightblue" d="M871.79,-177.5C848.82,-167.27 811.11,-150.48 784.78,-138.76"/>
<polygon fill="midnightblue" stroke="midnightblue" points="785.86,-135.41 775.3,-134.54 783.01,-141.8 785.86,-135.41"/>
</g>
<!-- Node18&#45;&gt;Node15 -->
<g id="edge18" class="edge">
<title>Node18&#45;&gt;Node15</title>
<path fill="none" stroke="midnightblue" d="M906.85,-177.33C946.58,-153.27 1059.23,-88.04 1162,-57 1265.91,-25.61 1395.24,-15.73 1454.13,-12.74"/>
<polygon fill="midnightblue" stroke="midnightblue" points="1454.46,-16.23 1464.28,-12.26 1454.13,-9.23 1454.46,-16.23"/>
</g>
<!-- Node18&#45;&gt;Node19 -->
<g id="edge20" class="edge">
<title>Node18&#45;&gt;Node19</title>
<path fill="none" stroke="midnightblue" d="M923.25,-177.44C932.44,-175.04 942.57,-172.66 952,-171 1104.1,-144.24 1286.57,-132.33 1374.52,-127.83"/>
<polygon fill="midnightblue" stroke="midnightblue" points="1374.95,-131.31 1384.76,-127.31 1374.6,-124.32 1374.95,-131.31"/>
</g>
<!-- Node19&#45;&gt;Node7 -->
<g id="edge21" class="edge">
<title>Node19&#45;&gt;Node7</title>
<path fill="none" stroke="midnightblue" d="M1469.15,-121.51C1652.44,-112.86 2378.79,-78.57 2553.88,-70.3"/>
<polygon fill="midnightblue" stroke="midnightblue" points="2554.09,-73.79 2563.91,-69.83 2553.75,-66.8 2554.09,-73.79"/>
</g>
<!-- Node19&#45;&gt;Node10 -->
<g id="edge23" class="edge">
<title>Node19&#45;&gt;Node10</title>
<path fill="none" stroke="midnightblue" d="M1449.95,-114.42C1472.79,-105.38 1508.04,-91.44 1533.69,-81.28"/>
<polygon fill="midnightblue" stroke="midnightblue" points="1535,-84.53 1543.01,-77.6 1532.43,-78.02 1535,-84.53"/>
</g>
<!-- Node19&#45;&gt;Node15 -->
<g id="edge22" class="edge">
<title>Node19&#45;&gt;Node15</title>
<path fill="none" stroke="midnightblue" d="M1431.83,-114.33C1441.55,-95.88 1463.65,-53.92 1476.42,-29.69"/>
<polygon fill="midnightblue" stroke="midnightblue" points="1479.54,-31.27 1481.11,-20.79 1473.35,-28.01 1479.54,-31.27"/>
</g>
<!-- Node19&#45;&gt;Node16 -->
<g id="edge24" class="edge">
<title>Node19&#45;&gt;Node16</title>
<path fill="none" stroke="midnightblue" d="M1414.12,-114.42C1402.26,-106.06 1384.45,-93.5 1370.45,-83.62"/>
<polygon fill="midnightblue" stroke="midnightblue" points="1372.09,-80.5 1361.9,-77.6 1368.05,-86.22 1372.09,-80.5"/>
</g>
<!-- Node20&#45;&gt;Node15 -->
<g id="edge26" class="edge">
<title>Node20&#45;&gt;Node15</title>
<path fill="none" stroke="midnightblue" d="M1263.62,-177.4C1250.74,-154.34 1221.39,-92.89 1251,-57 1276.39,-26.22 1395.94,-16.01 1454.08,-12.84"/>
<polygon fill="midnightblue" stroke="midnightblue" points="1454.38,-16.33 1464.19,-12.32 1454.02,-9.34 1454.38,-16.33"/>
</g>
<!-- Node20&#45;&gt;Node19 -->
<g id="edge27" class="edge">
<title>Node20&#45;&gt;Node19</title>
<path fill="none" stroke="midnightblue" d="M1292.31,-177.5C1319.27,-167.09 1363.82,-149.89 1394.25,-138.14"/>
<polygon fill="midnightblue" stroke="midnightblue" points="1395.52,-141.4 1403.59,-134.54 1393,-134.87 1395.52,-141.4"/>
</g>
<!-- Node21&#45;&gt;Node15 -->
<g id="edge29" class="edge">
<title>Node21&#45;&gt;Node15</title>
<path fill="none" stroke="midnightblue" d="M1464.87,-177.2C1468.91,-167.03 1475.06,-150.16 1478,-135 1485.07,-98.58 1486.24,-55.11 1486.26,-30.67"/>
<polygon fill="midnightblue" stroke="midnightblue" points="1489.76,-30.57 1486.19,-20.59 1482.76,-30.61 1489.76,-30.57"/>
</g>
<!-- Node21&#45;&gt;Node19 -->
<g id="edge30" class="edge">
<title>Node21&#45;&gt;Node19</title>
<path fill="none" stroke="midnightblue" d="M1455.98,-177.5C1451.01,-168.58 1443.26,-154.67 1437.02,-143.48"/>
<polygon fill="midnightblue" stroke="midnightblue" points="1439.96,-141.57 1432.04,-134.54 1433.85,-144.98 1439.96,-141.57"/>
</g>
<!-- Node24&#45;&gt;Node11 -->
<g id="edge33" class="edge">
<title>Node24&#45;&gt;Node11</title>
<path fill="none" stroke="midnightblue" d="M978.71,-177.48C969.97,-175.33 960.66,-173.06 952,-171 893.33,-157.01 824.66,-141.3 785.85,-132.48"/>
<polygon fill="midnightblue" stroke="midnightblue" points="786.25,-128.98 775.73,-130.19 784.7,-135.81 786.25,-128.98"/>
</g>
<!-- Node24&#45;&gt;Node15 -->
<g id="edge32" class="edge">
<title>Node24&#45;&gt;Node15</title>
<path fill="none" stroke="midnightblue" d="M1024.91,-177.45C1051.85,-153.41 1129.63,-87.68 1207,-57 1291.94,-23.32 1400.89,-14.56 1454.01,-12.29"/>
<polygon fill="midnightblue" stroke="midnightblue" points="1454.31,-15.78 1464.17,-11.91 1454.04,-8.79 1454.31,-15.78"/>
</g>
<!-- Node24&#45;&gt;Node19 -->
<g id="edge34" class="edge">
<title>Node24&#45;&gt;Node19</title>
<path fill="none" stroke="midnightblue" d="M1049.4,-177.45C1058.94,-175.14 1069.33,-172.8 1079,-171 1183.27,-151.61 1306.63,-137.56 1374.92,-130.54"/>
<polygon fill="midnightblue" stroke="midnightblue" points="1375.39,-134.01 1384.99,-129.52 1374.69,-127.05 1375.39,-134.01"/>
</g>
<!-- Node26&#45;&gt;Node15 -->
<g id="edge36" class="edge">
<title>Node26&#45;&gt;Node15</title>
<path fill="none" stroke="midnightblue" d="M1582.76,-177.44C1598.63,-155 1634.94,-95.81 1608,-57 1587.79,-27.89 1546.59,-17.37 1517.68,-13.59"/>
<polygon fill="midnightblue" stroke="midnightblue" points="1517.97,-10.1 1507.65,-12.48 1517.2,-17.06 1517.97,-10.1"/>
</g>
<!-- Node26&#45;&gt;Node19 -->
<g id="edge37" class="edge">
<title>Node26&#45;&gt;Node19</title>
<path fill="none" stroke="midnightblue" d="M1554.01,-177.5C1528.81,-167.18 1487.31,-150.19 1458.63,-138.45"/>
<polygon fill="midnightblue" stroke="midnightblue" points="1459.66,-135.09 1449.08,-134.54 1457,-141.57 1459.66,-135.09"/>
</g>
<!-- Node27&#45;&gt;Node15 -->
<g id="edge39" class="edge">
<title>Node27&#45;&gt;Node15</title>
<path fill="none" stroke="midnightblue" d="M1695.51,-177.46C1688.6,-154.01 1666.91,-90.68 1626,-57 1594.67,-31.21 1548.35,-19.91 1517.68,-15.04"/>
<polygon fill="midnightblue" stroke="midnightblue" points="1517.94,-11.54 1507.54,-13.58 1516.94,-18.47 1517.94,-11.54"/>
</g>
<!-- Node27&#45;&gt;Node19 -->
<g id="edge40" class="edge">
<title>Node27&#45;&gt;Node19</title>
<path fill="none" stroke="midnightblue" d="M1662.64,-177.46C1653.94,-175.29 1644.64,-173.02 1636,-171 1582.61,-158.52 1521.27,-145.3 1478.92,-136.34"/>
<polygon fill="midnightblue" stroke="midnightblue" points="1479.63,-132.91 1469.12,-134.27 1478.18,-139.76 1479.63,-132.91"/>
</g>
<!-- Node28&#45;&gt;Node15 -->
<g id="edge42" class="edge">
<title>Node28&#45;&gt;Node15</title>
<path fill="none" stroke="midnightblue" d="M1808.62,-177.16C1784.38,-153.53 1716.8,-90.85 1649,-57 1606.07,-35.57 1551.57,-22.96 1517.74,-16.64"/>
<polygon fill="midnightblue" stroke="midnightblue" points="1517.98,-13.13 1507.52,-14.81 1516.75,-20.02 1517.98,-13.13"/>
</g>
<!-- Node28&#45;&gt;Node19 -->
<g id="edge43" class="edge">
<title>Node28&#45;&gt;Node19</title>
<path fill="none" stroke="midnightblue" d="M1787.17,-177.49C1778.44,-175.15 1768.89,-172.79 1760,-171 1661.58,-151.21 1545.05,-137.47 1479.2,-130.58"/>
<polygon fill="midnightblue" stroke="midnightblue" points="1479.38,-127.09 1469.07,-129.54 1478.66,-134.05 1479.38,-127.09"/>
</g>
<!-- Node29&#45;&gt;Node5 -->
<g id="edge45" class="edge">
<title>Node29&#45;&gt;Node5</title>
<path fill="none" stroke="midnightblue" d="M192,-177.5C192,-168.94 192,-155.78 192,-144.85"/>
<polygon fill="midnightblue" stroke="midnightblue" points="195.5,-144.54 192,-134.54 188.5,-144.54 195.5,-144.54"/>
</g>
<!-- Node29&#45;&gt;Node8 -->
<g id="edge46" class="edge">
<title>Node29&#45;&gt;Node8</title>
<path fill="none" stroke="midnightblue" d="M167.65,-177.5C139.5,-167.09 92.98,-149.89 61.2,-138.14"/>
<polygon fill="midnightblue" stroke="midnightblue" points="62.04,-134.72 51.45,-134.54 59.61,-141.29 62.04,-134.72"/>
</g>
<!-- Node29&#45;&gt;Node11 -->
<g id="edge47" class="edge">
<title>Node29&#45;&gt;Node11</title>
<path fill="none" stroke="midnightblue" d="M228.89,-177.42C239.52,-175.05 251.18,-172.69 262,-171 435.57,-143.88 646.24,-131.06 724.13,-127"/>
<polygon fill="midnightblue" stroke="midnightblue" points="724.41,-130.49 734.22,-126.48 724.05,-123.5 724.41,-130.49"/>
</g>
<!-- Node29&#45;&gt;Node12 -->
<g id="edge48" class="edge">
<title>Node29&#45;&gt;Node12</title>
<path fill="none" stroke="midnightblue" d="M180.2,-177.5C167.55,-167.86 147.26,-152.39 132.09,-140.82"/>
<polygon fill="midnightblue" stroke="midnightblue" points="133.93,-137.82 123.85,-134.54 129.68,-143.38 133.93,-137.82"/>
</g>
<!-- Node29&#45;&gt;Node19 -->
<g id="edge49" class="edge">
<title>Node29&#45;&gt;Node19</title>
<path fill="none" stroke="midnightblue" d="M227.03,-177.45C238.14,-174.93 250.52,-172.48 262,-171 481.77,-142.61 1177.85,-129.5 1374.69,-126.3"/>
<polygon fill="midnightblue" stroke="midnightblue" points="1374.83,-129.8 1384.77,-126.14 1374.71,-122.8 1374.83,-129.8"/>
</g>
<!-- Node30&#45;&gt;Node11 -->
<g id="edge53" class="edge">
<title>Node30&#45;&gt;Node11</title>
<path fill="none" stroke="midnightblue" d="M1108.26,-177.43C1098.81,-175.14 1088.55,-172.82 1079,-171 972.07,-150.59 843.66,-135.24 785.86,-128.81"/>
<polygon fill="midnightblue" stroke="midnightblue" points="785.91,-125.3 775.58,-127.68 785.14,-132.25 785.91,-125.3"/>
</g>
<!-- Node30&#45;&gt;Node15 -->
<g id="edge52" class="edge">
<title>Node30&#45;&gt;Node15</title>
<path fill="none" stroke="midnightblue" d="M1146.6,-177.45C1156.66,-153.4 1187.58,-87.63 1236,-57 1271.89,-34.3 1395.18,-20.01 1454.13,-14.32"/>
<polygon fill="midnightblue" stroke="midnightblue" points="1454.72,-17.78 1464.35,-13.36 1454.06,-10.81 1454.72,-17.78"/>
</g>
<!-- Node30&#45;&gt;Node19 -->
<g id="edge54" class="edge">
<title>Node30&#45;&gt;Node19</title>
<path fill="none" stroke="midnightblue" d="M1180.08,-177.46C1189.2,-175.29 1198.94,-173.02 1208,-171 1264.96,-158.29 1330.52,-144.82 1374.95,-135.87"/>
<polygon fill="midnightblue" stroke="midnightblue" points="1375.82,-139.26 1384.94,-133.86 1374.44,-132.4 1375.82,-139.26"/>
</g>
<!-- Node31&#45;&gt;Node15 -->
<g id="edge56" class="edge">
<title>Node31&#45;&gt;Node15</title>
<path fill="none" stroke="midnightblue" d="M1922.27,-177.45C1883.91,-154.25 1777.19,-91.98 1681,-57 1625.04,-36.65 1556.66,-23.16 1517.54,-16.46"/>
<polygon fill="midnightblue" stroke="midnightblue" points="1517.99,-12.99 1507.55,-14.79 1516.83,-19.89 1517.99,-12.99"/>
</g>
<!-- Node31&#45;&gt;Node19 -->
<g id="edge57" class="edge">
<title>Node31&#45;&gt;Node19</title>
<path fill="none" stroke="midnightblue" d="M1905.22,-177.48C1895.87,-175.08 1885.58,-172.69 1876,-171 1733.61,-145.84 1563.17,-133.31 1479.13,-128.27"/>
<polygon fill="midnightblue" stroke="midnightblue" points="1479.26,-124.78 1469.07,-127.68 1478.85,-131.76 1479.26,-124.78"/>
</g>
<!-- Node32&#45;&gt;Node15 -->
<g id="edge59" class="edge">
<title>Node32&#45;&gt;Node15</title>
<path fill="none" stroke="midnightblue" d="M2050.96,-177.4C1996.95,-154.35 1848.57,-92.9 1720,-57 1648.78,-37.11 1562.98,-22.82 1517.66,-16"/>
<polygon fill="midnightblue" stroke="midnightblue" points="1517.97,-12.51 1507.56,-14.51 1516.94,-19.44 1517.97,-12.51"/>
</g>
<!-- Node32&#45;&gt;Node19 -->
<g id="edge60" class="edge">
<title>Node32&#45;&gt;Node19</title>
<path fill="none" stroke="midnightblue" d="M2033.38,-177.44C2022.03,-175.05 2009.56,-172.66 1998,-171 1808.1,-143.66 1580.14,-131.69 1479.33,-127.45"/>
<polygon fill="midnightblue" stroke="midnightblue" points="1479.25,-123.94 1469.11,-127.02 1478.96,-130.93 1479.25,-123.94"/>
</g>
<!-- Node33&#45;&gt;Node11 -->
<g id="edge63" class="edge">
<title>Node33&#45;&gt;Node11</title>
<path fill="none" stroke="midnightblue" d="M547.86,-177.5C595.75,-165.48 679.75,-144.39 724.66,-133.12"/>
<polygon fill="midnightblue" stroke="midnightblue" points="725.56,-136.5 734.41,-130.67 723.86,-129.71 725.56,-136.5"/>
</g>
<!-- Node33&#45;&gt;Node15 -->
<g id="edge62" class="edge">
<title>Node33&#45;&gt;Node15</title>
<path fill="none" stroke="midnightblue" d="M533.81,-177.48C567.59,-163.57 634.65,-136.16 692,-114 760.08,-87.7 774.66,-72.41 846,-57 964.14,-31.48 1341.85,-16.53 1454.19,-12.57"/>
<polygon fill="midnightblue" stroke="midnightblue" points="1454.34,-16.07 1464.22,-12.22 1454.1,-9.07 1454.34,-16.07"/>
</g>
<!-- Node33&#45;&gt;Node19 -->
<g id="edge64" class="edge">
<title>Node33&#45;&gt;Node19</title>
<path fill="none" stroke="midnightblue" d="M552.42,-177.44C564.75,-174.99 578.38,-172.57 591,-171 885.56,-134.27 1242.17,-127.19 1374.38,-125.82"/>
<polygon fill="midnightblue" stroke="midnightblue" points="1374.66,-129.32 1384.62,-125.72 1374.59,-122.32 1374.66,-129.32"/>
</g>
<!-- Node34&#45;&gt;Node11 -->
<g id="edge67" class="edge">
<title>Node34&#45;&gt;Node11</title>
<path fill="none" stroke="midnightblue" d="M667.2,-177.5C684.01,-167.54 711.32,-151.37 731.02,-139.7"/>
<polygon fill="midnightblue" stroke="midnightblue" points="732.92,-142.64 739.74,-134.54 729.35,-136.62 732.92,-142.64"/>
</g>
<!-- Node34&#45;&gt;Node15 -->
<g id="edge66" class="edge">
<title>Node34&#45;&gt;Node15</title>
<path fill="none" stroke="midnightblue" d="M658.54,-177.18C670.16,-161.39 696.01,-129.61 726,-114 856.39,-46.13 1327.28,-19.08 1454.26,-12.93"/>
<polygon fill="midnightblue" stroke="midnightblue" points="1454.65,-16.42 1464.47,-12.44 1454.32,-9.42 1454.65,-16.42"/>
</g>
<!-- Node34&#45;&gt;Node19 -->
<g id="edge68" class="edge">
<title>Node34&#45;&gt;Node19</title>
<path fill="none" stroke="midnightblue" d="M683.32,-177.5C693.07,-175.01 703.91,-172.57 714,-171 959.08,-132.87 1256.32,-126.55 1374.7,-125.6"/>
<polygon fill="midnightblue" stroke="midnightblue" points="1374.95,-129.1 1384.92,-125.53 1374.9,-122.1 1374.95,-129.1"/>
</g>
<!-- Node35&#45;&gt;Node15 -->
<g id="edge70" class="edge">
<title>Node35&#45;&gt;Node15</title>
<path fill="none" stroke="midnightblue" d="M2217.63,-177.5C2142.77,-154.79 1938.44,-94.34 1765,-57 1676.13,-37.87 1569.79,-22.6 1517.79,-15.62"/>
<polygon fill="midnightblue" stroke="midnightblue" points="1518.22,-12.15 1507.85,-14.3 1517.3,-19.09 1518.22,-12.15"/>
</g>
<!-- Node35&#45;&gt;Node19 -->
<g id="edge71" class="edge">
<title>Node35&#45;&gt;Node19</title>
<path fill="none" stroke="midnightblue" d="M2194.17,-177.49C2178.69,-175.09 2161.7,-172.7 2146,-171 1897.34,-144.11 1598.46,-131.47 1479.52,-127.22"/>
<polygon fill="midnightblue" stroke="midnightblue" points="1479.37,-123.71 1469.25,-126.86 1479.12,-130.71 1479.37,-123.71"/>
</g>
<!-- Node36&#45;&gt;Node7 -->
<g id="edge73" class="edge">
<title>Node36&#45;&gt;Node7</title>
<path fill="none" stroke="midnightblue" d="M2592,-177.24C2592,-158.03 2592,-113.47 2592,-87.75"/>
<polygon fill="midnightblue" stroke="midnightblue" points="2595.5,-87.72 2592,-77.72 2588.5,-87.72 2595.5,-87.72"/>
</g>
<!-- Node36&#45;&gt;Node15 -->
<g id="edge74" class="edge">
<title>Node36&#45;&gt;Node15</title>
<path fill="none" stroke="midnightblue" d="M2556.9,-177.48C2547.54,-175.22 2537.41,-172.9 2528,-171 2215.98,-108.16 2135.83,-103.75 1821,-57 1709.78,-40.48 1577.41,-23.21 1517.84,-15.56"/>
<polygon fill="midnightblue" stroke="midnightblue" points="1517.95,-12.04 1507.58,-14.24 1517.06,-18.98 1517.95,-12.04"/>
</g>
<!-- Node36&#45;&gt;Node19 -->
<g id="edge75" class="edge">
<title>Node36&#45;&gt;Node19</title>
<path fill="none" stroke="midnightblue" d="M2560.01,-177.45C2549.85,-174.93 2538.53,-172.48 2528,-171 2321.62,-142.03 1669.09,-129.42 1479.27,-126.3"/>
<polygon fill="midnightblue" stroke="midnightblue" points="1479.33,-122.8 1469.27,-126.14 1479.21,-129.8 1479.33,-122.8"/>
</g>
<!-- Node37&#45;&gt;Node5 -->
<g id="edge77" class="edge">
<title>Node37&#45;&gt;Node5</title>
<path fill="none" stroke="midnightblue" d="M308.79,-177.5C285.82,-167.27 248.11,-150.48 221.78,-138.76"/>
<polygon fill="midnightblue" stroke="midnightblue" points="222.86,-135.41 212.3,-134.54 220.01,-141.8 222.86,-135.41"/>
</g>
<!-- Node37&#45;&gt;Node15 -->
<g id="edge78" class="edge">
<title>Node37&#45;&gt;Node15</title>
<path fill="none" stroke="midnightblue" d="M353.04,-177.42C418.91,-152.99 608.24,-85.79 772,-57 1032.56,-11.19 1353.79,-10.11 1454.37,-11.04"/>
<polygon fill="midnightblue" stroke="midnightblue" points="1454.44,-14.54 1464.48,-11.15 1454.51,-7.54 1454.44,-14.54"/>
</g>
<!-- Node37&#45;&gt;Node19 -->
<g id="edge79" class="edge">
<title>Node37&#45;&gt;Node19</title>
<path fill="none" stroke="midnightblue" d="M382.83,-177.49C399.22,-175.03 417.31,-172.61 434,-171 792.57,-136.41 1226.6,-127.98 1374.63,-126.04"/>
<polygon fill="midnightblue" stroke="midnightblue" points="1374.83,-129.54 1384.79,-125.91 1374.75,-122.54 1374.83,-129.54"/>
</g>
<!-- Node38&#45;&gt;Node11 -->
<g id="edge82" class="edge">
<title>Node38&#45;&gt;Node11</title>
<path fill="none" stroke="midnightblue" d="M770.34,-177.5C767.77,-168.76 763.77,-155.23 760.51,-144.16"/>
<polygon fill="midnightblue" stroke="midnightblue" points="763.85,-143.14 757.67,-134.54 757.14,-145.12 763.85,-143.14"/>
</g>
<!-- Node38&#45;&gt;Node15 -->
<g id="edge81" class="edge">
<title>Node38&#45;&gt;Node15</title>
<path fill="none" stroke="midnightblue" d="M791,-177.49C839.72,-153.54 978.78,-88 1102,-57 1229.97,-24.81 1387.8,-15.23 1454.2,-12.51"/>
<polygon fill="midnightblue" stroke="midnightblue" points="1454.56,-16 1464.42,-12.12 1454.29,-9.01 1454.56,-16"/>
</g>
<!-- Node38&#45;&gt;Node19 -->
<g id="edge83" class="edge">
<title>Node38&#45;&gt;Node19</title>
<path fill="none" stroke="midnightblue" d="M803.61,-177.48C812.97,-175.03 823.34,-172.6 833,-171 1031.27,-138.06 1270.8,-128.91 1374.71,-126.41"/>
<polygon fill="midnightblue" stroke="midnightblue" points="1375.01,-129.91 1384.93,-126.18 1374.85,-122.91 1375.01,-129.91"/>
</g>
</g>
</svg>
