<?xml version="1.0" encoding="UTF-8" standalone="no"?>
<!DOCTYPE svg PUBLIC "-//W3C//DTD SVG 1.1//EN"
 "http://www.w3.org/Graphics/SVG/1.1/DTD/svg11.dtd">
<!-- Generated by graphviz version 3.0.0 (20221109.1736)
 -->
<!-- Title: libmirai/models/libmirai/Messages/MessageChain.hpp Pages: 1 -->
<svg width="1765pt" height="317pt"
 viewBox="0.00 0.00 1764.89 317.00" xmlns="http://www.w3.org/2000/svg" xmlns:xlink="http://www.w3.org/1999/xlink">
<g id="graph0" class="graph" transform="scale(1 1) rotate(0) translate(4 313)">
<title>libmirai/models/libmirai/Messages/MessageChain.hpp</title>
<!-- Node1 -->
<g id="node1" class="node">
<title>Node1</title>
<g id="a_node1"><a xlink:title=" ">
<polygon fill="#bfbfbf" stroke="black" points="756.89,-276.5 756.89,-308.5 920.89,-308.5 920.89,-276.5 756.89,-276.5"/>
<text text-anchor="start" x="764.89" y="-295.7" font-family="-apple-system, BlinkMacSystemFont, 'Segoe UI', Roboto, Oxygen, Ubuntu, Cantarell, 'Fira Sans', 'Droid Sans', 'Helvetica Neue', sans-serif" font-size="11.00">libmirai/models/libmirai</text>
<text text-anchor="middle" x="838.89" y="-283.7" font-family="-apple-system, BlinkMacSystemFont, 'Segoe UI', Roboto, Oxygen, Ubuntu, Cantarell, 'Fira Sans', 'Droid Sans', 'Helvetica Neue', sans-serif" font-size="11.00">/Messages/MessageChain.hpp</text>
</a>
</g>
</g>
<!-- Node2 -->
<g id="node2" class="node">
<title>Node2</title>
<g id="a_node2"><a xlink:href="Messages_8hpp.html" target="_top" xlink:title=" ">
<polygon fill="none" stroke="black" points="1039.89,-138.5 1039.89,-170.5 1217.89,-170.5 1217.89,-138.5 1039.89,-138.5"/>
<text text-anchor="start" x="1047.89" y="-157.7" font-family="-apple-system, BlinkMacSystemFont, 'Segoe UI', Roboto, Oxygen, Ubuntu, Cantarell, 'Fira Sans', 'Droid Sans', 'Helvetica Neue', sans-serif" font-size="11.00">libmirai/aggregates</text>
<text text-anchor="middle" x="1128.89" y="-145.7" font-family="-apple-system, BlinkMacSystemFont, 'Segoe UI', Roboto, Oxygen, Ubuntu, Cantarell, 'Fira Sans', 'Droid Sans', 'Helvetica Neue', sans-serif" font-size="11.00">/libmirai/Messages/Messages.hpp</text>
</a>
</g>
</g>
<!-- Node1&#45;&gt;Node2 -->
<g id="edge1" class="edge">
<title>Node1&#45;&gt;Node2</title>
<path fill="none" stroke="midnightblue" d="M931.2,-288.56C1010.49,-283.87 1116.14,-271.66 1142.89,-240 1159.4,-220.46 1147.41,-189.03 1137.76,-170.51"/>
<polygon fill="midnightblue" stroke="midnightblue" points="930.97,-285.07 921.18,-289.13 931.36,-292.06 930.97,-285.07"/>
</g>
<!-- Node5 -->
<g id="node5" class="node">
<title>Node5</title>
<g id="a_node5"><a xlink:href="Client_8hpp.html" target="_top" xlink:title=" ">
<polygon fill="none" stroke="black" points="443.89,-69.5 443.89,-101.5 547.89,-101.5 547.89,-69.5 443.89,-69.5"/>
<text text-anchor="start" x="451.89" y="-88.7" font-family="-apple-system, BlinkMacSystemFont, 'Segoe UI', Roboto, Oxygen, Ubuntu, Cantarell, 'Fira Sans', 'Droid Sans', 'Helvetica Neue', sans-serif" font-size="11.00">libmirai/api/libmirai</text>
<text text-anchor="middle" x="495.89" y="-76.7" font-family="-apple-system, BlinkMacSystemFont, 'Segoe UI', Roboto, Oxygen, Ubuntu, Cantarell, 'Fira Sans', 'Droid Sans', 'Helvetica Neue', sans-serif" font-size="11.00">/Client/Client.hpp</text>
</a>
</g>
</g>
<!-- Node1&#45;&gt;Node5 -->
<g id="edge4" class="edge">
<title>Node1&#45;&gt;Node5</title>
<path fill="none" stroke="midnightblue" d="M746.6,-289.02C538.39,-282.96 48.31,-266.01 23.89,-240 -99.96,-108.07 297,-89.3 443.66,-86.81"/>
<polygon fill="midnightblue" stroke="midnightblue" points="746.5,-292.51 756.6,-289.3 746.7,-285.52 746.5,-292.51"/>
</g>
<!-- Node7 -->
<g id="node7" class="node">
<title>Node7</title>
<g id="a_node7"><a xlink:href="CommandExecutedEvent_8hpp.html" target="_top" xlink:title=" ">
<polygon fill="none" stroke="black" points="33.39,-207.5 33.39,-239.5 230.39,-239.5 230.39,-207.5 33.39,-207.5"/>
<text text-anchor="start" x="41.39" y="-226.7" font-family="-apple-system, BlinkMacSystemFont, 'Segoe UI', Roboto, Oxygen, Ubuntu, Cantarell, 'Fira Sans', 'Droid Sans', 'Helvetica Neue', sans-serif" font-size="11.00">libmirai/models/libmirai</text>
<text text-anchor="middle" x="131.89" y="-214.7" font-family="-apple-system, BlinkMacSystemFont, 'Segoe UI', Roboto, Oxygen, Ubuntu, Cantarell, 'Fira Sans', 'Droid Sans', 'Helvetica Neue', sans-serif" font-size="11.00">/Events/CommandExecutedEvent.hpp</text>
</a>
</g>
</g>
<!-- Node1&#45;&gt;Node7 -->
<g id="edge7" class="edge">
<title>Node1&#45;&gt;Node7</title>
<path fill="none" stroke="midnightblue" d="M746.66,-285.26C628.72,-276.89 418.28,-260.67 238.89,-240 236.1,-239.68 233.26,-239.34 230.4,-238.99"/>
<polygon fill="midnightblue" stroke="midnightblue" points="746.51,-288.76 756.74,-285.97 747.01,-281.77 746.51,-288.76"/>
</g>
<!-- Node11 -->
<g id="node9" class="node">
<title>Node11</title>
<g id="a_node9"><a xlink:href="FriendEvents_8hpp.html" target="_top" xlink:title=" ">
<polygon fill="none" stroke="black" points="248.39,-207.5 248.39,-239.5 387.39,-239.5 387.39,-207.5 248.39,-207.5"/>
<text text-anchor="start" x="256.39" y="-226.7" font-family="-apple-system, BlinkMacSystemFont, 'Segoe UI', Roboto, Oxygen, Ubuntu, Cantarell, 'Fira Sans', 'Droid Sans', 'Helvetica Neue', sans-serif" font-size="11.00">libmirai/models/libmirai</text>
<text text-anchor="middle" x="317.89" y="-214.7" font-family="-apple-system, BlinkMacSystemFont, 'Segoe UI', Roboto, Oxygen, Ubuntu, Cantarell, 'Fira Sans', 'Droid Sans', 'Helvetica Neue', sans-serif" font-size="11.00">/Events/FriendEvents.hpp</text>
</a>
</g>
</g>
<!-- Node1&#45;&gt;Node11 -->
<g id="edge11" class="edge">
<title>Node1&#45;&gt;Node11</title>
<path fill="none" stroke="midnightblue" d="M746.63,-282.86C657.02,-273.97 517.25,-258.79 396.89,-240 393.86,-239.53 390.76,-239.02 387.63,-238.49"/>
<polygon fill="midnightblue" stroke="midnightblue" points="746.47,-286.36 756.77,-283.86 747.16,-279.39 746.47,-286.36"/>
</g>
<!-- Node12 -->
<g id="node10" class="node">
<title>Node12</title>
<g id="a_node10"><a xlink:href="GroupEvents_8hpp.html" target="_top" xlink:title=" ">
<polygon fill="none" stroke="black" points="405.89,-207.5 405.89,-239.5 543.89,-239.5 543.89,-207.5 405.89,-207.5"/>
<text text-anchor="start" x="413.89" y="-226.7" font-family="-apple-system, BlinkMacSystemFont, 'Segoe UI', Roboto, Oxygen, Ubuntu, Cantarell, 'Fira Sans', 'Droid Sans', 'Helvetica Neue', sans-serif" font-size="11.00">libmirai/models/libmirai</text>
<text text-anchor="middle" x="474.89" y="-214.7" font-family="-apple-system, BlinkMacSystemFont, 'Segoe UI', Roboto, Oxygen, Ubuntu, Cantarell, 'Fira Sans', 'Droid Sans', 'Helvetica Neue', sans-serif" font-size="11.00">/Events/GroupEvents.hpp</text>
</a>
</g>
</g>
<!-- Node1&#45;&gt;Node12 -->
<g id="edge13" class="edge">
<title>Node1&#45;&gt;Node12</title>
<path fill="none" stroke="midnightblue" d="M746.92,-275.37C690.81,-265.43 617.66,-252.27 552.89,-240 550.05,-239.46 547.14,-238.91 544.2,-238.34"/>
<polygon fill="midnightblue" stroke="midnightblue" points="746.38,-278.83 756.84,-277.13 747.6,-271.94 746.38,-278.83"/>
</g>
<!-- Node13 -->
<g id="node11" class="node">
<title>Node13</title>
<g id="a_node11"><a xlink:href="OtherClientEvents_8hpp.html" target="_top" xlink:title=" ">
<polygon fill="none" stroke="black" points="561.89,-207.5 561.89,-239.5 723.89,-239.5 723.89,-207.5 561.89,-207.5"/>
<text text-anchor="start" x="569.89" y="-226.7" font-family="-apple-system, BlinkMacSystemFont, 'Segoe UI', Roboto, Oxygen, Ubuntu, Cantarell, 'Fira Sans', 'Droid Sans', 'Helvetica Neue', sans-serif" font-size="11.00">libmirai/models/libmirai</text>
<text text-anchor="middle" x="642.89" y="-214.7" font-family="-apple-system, BlinkMacSystemFont, 'Segoe UI', Roboto, Oxygen, Ubuntu, Cantarell, 'Fira Sans', 'Droid Sans', 'Helvetica Neue', sans-serif" font-size="11.00">/Events/OtherClientEvents.hpp</text>
</a>
</g>
</g>
<!-- Node1&#45;&gt;Node13 -->
<g id="edge15" class="edge">
<title>Node1&#45;&gt;Node13</title>
<path fill="none" stroke="midnightblue" d="M785.18,-273.14C754.36,-262.6 716.14,-249.54 687.07,-239.6"/>
<polygon fill="midnightblue" stroke="midnightblue" points="784.31,-276.54 794.91,-276.46 786.58,-269.92 784.31,-276.54"/>
</g>
<!-- Node14 -->
<g id="node12" class="node">
<title>Node14</title>
<g id="a_node12"><a xlink:href="StrangerMessageEvents_8hpp.html" target="_top" xlink:title=" ">
<polygon fill="none" stroke="black" points="741.89,-207.5 741.89,-239.5 935.89,-239.5 935.89,-207.5 741.89,-207.5"/>
<text text-anchor="start" x="749.89" y="-226.7" font-family="-apple-system, BlinkMacSystemFont, 'Segoe UI', Roboto, Oxygen, Ubuntu, Cantarell, 'Fira Sans', 'Droid Sans', 'Helvetica Neue', sans-serif" font-size="11.00">libmirai/models/libmirai</text>
<text text-anchor="middle" x="838.89" y="-214.7" font-family="-apple-system, BlinkMacSystemFont, 'Segoe UI', Roboto, Oxygen, Ubuntu, Cantarell, 'Fira Sans', 'Droid Sans', 'Helvetica Neue', sans-serif" font-size="11.00">/Events/StrangerMessageEvents.hpp</text>
</a>
</g>
</g>
<!-- Node1&#45;&gt;Node14 -->
<g id="edge17" class="edge">
<title>Node1&#45;&gt;Node14</title>
<path fill="none" stroke="midnightblue" d="M838.89,-266.02C838.89,-257.13 838.89,-247.43 838.89,-239.64"/>
<polygon fill="midnightblue" stroke="midnightblue" points="835.39,-266.3 838.89,-276.3 842.39,-266.3 835.39,-266.3"/>
</g>
<!-- Node15 -->
<g id="node13" class="node">
<title>Node15</title>
<g id="a_node13"><a xlink:href="TempMessageEvents_8hpp.html" target="_top" xlink:title=" ">
<polygon fill="none" stroke="black" points="954.39,-207.5 954.39,-239.5 1133.39,-239.5 1133.39,-207.5 954.39,-207.5"/>
<text text-anchor="start" x="962.39" y="-226.7" font-family="-apple-system, BlinkMacSystemFont, 'Segoe UI', Roboto, Oxygen, Ubuntu, Cantarell, 'Fira Sans', 'Droid Sans', 'Helvetica Neue', sans-serif" font-size="11.00">libmirai/models/libmirai</text>
<text text-anchor="middle" x="1043.89" y="-214.7" font-family="-apple-system, BlinkMacSystemFont, 'Segoe UI', Roboto, Oxygen, Ubuntu, Cantarell, 'Fira Sans', 'Droid Sans', 'Helvetica Neue', sans-serif" font-size="11.00">/Events/TempMessageEvents.hpp</text>
</a>
</g>
</g>
<!-- Node1&#45;&gt;Node15 -->
<g id="edge19" class="edge">
<title>Node1&#45;&gt;Node15</title>
<path fill="none" stroke="midnightblue" d="M894.65,-273.28C926.96,-262.72 967.16,-249.58 997.69,-239.6"/>
<polygon fill="midnightblue" stroke="midnightblue" points="893.32,-270.03 884.9,-276.46 895.49,-276.68 893.32,-270.03"/>
</g>
<!-- Node16 -->
<g id="node14" class="node">
<title>Node16</title>
<g id="a_node14"><a xlink:href="ForwardMessageNode_8hpp.html" target="_top" xlink:title=" ">
<polygon fill="none" stroke="black" points="1190.39,-207.5 1190.39,-239.5 1393.39,-239.5 1393.39,-207.5 1190.39,-207.5"/>
<text text-anchor="start" x="1198.39" y="-226.7" font-family="-apple-system, BlinkMacSystemFont, 'Segoe UI', Roboto, Oxygen, Ubuntu, Cantarell, 'Fira Sans', 'Droid Sans', 'Helvetica Neue', sans-serif" font-size="11.00">libmirai/models/libmirai</text>
<text text-anchor="middle" x="1291.89" y="-214.7" font-family="-apple-system, BlinkMacSystemFont, 'Segoe UI', Roboto, Oxygen, Ubuntu, Cantarell, 'Fira Sans', 'Droid Sans', 'Helvetica Neue', sans-serif" font-size="11.00">/Messages/ForwardMessageNode.hpp</text>
</a>
</g>
</g>
<!-- Node1&#45;&gt;Node16 -->
<g id="edge21" class="edge">
<title>Node1&#45;&gt;Node16</title>
<path fill="none" stroke="midnightblue" d="M930.87,-277.9C1006.13,-266.77 1112.46,-251.04 1190.24,-239.54"/>
<polygon fill="midnightblue" stroke="midnightblue" points="930.31,-274.44 920.93,-279.37 931.33,-281.37 930.31,-274.44"/>
</g>
<!-- Node18 -->
<g id="node16" class="node">
<title>Node18</title>
<g id="a_node16"><a xlink:href="MessageChain_8cpp.html" target="_top" xlink:title=" ">
<polygon fill="none" stroke="black" points="1411.39,-207.5 1411.39,-239.5 1574.39,-239.5 1574.39,-207.5 1411.39,-207.5"/>
<text text-anchor="start" x="1419.39" y="-226.7" font-family="-apple-system, BlinkMacSystemFont, 'Segoe UI', Roboto, Oxygen, Ubuntu, Cantarell, 'Fira Sans', 'Droid Sans', 'Helvetica Neue', sans-serif" font-size="11.00">libmirai/models/libmirai</text>
<text text-anchor="middle" x="1492.89" y="-214.7" font-family="-apple-system, BlinkMacSystemFont, 'Segoe UI', Roboto, Oxygen, Ubuntu, Cantarell, 'Fira Sans', 'Droid Sans', 'Helvetica Neue', sans-serif" font-size="11.00">/Messages/MessageChain.cpp</text>
</a>
</g>
</g>
<!-- Node1&#45;&gt;Node18 -->
<g id="edge24" class="edge">
<title>Node1&#45;&gt;Node18</title>
<path fill="none" stroke="midnightblue" d="M931.56,-285.31C1043.52,-277.3 1237.46,-261.76 1402.89,-240 1405.57,-239.65 1408.28,-239.28 1411.02,-238.88"/>
<polygon fill="midnightblue" stroke="midnightblue" points="931.04,-281.84 921.32,-286.04 931.54,-288.82 931.04,-281.84"/>
</g>
<!-- Node19 -->
<g id="node17" class="node">
<title>Node19</title>
<g id="a_node17"><a xlink:href="QuoteMessage_8cpp.html" target="_top" xlink:title=" ">
<polygon fill="none" stroke="black" points="1592.89,-207.5 1592.89,-239.5 1756.89,-239.5 1756.89,-207.5 1592.89,-207.5"/>
<text text-anchor="start" x="1600.89" y="-226.7" font-family="-apple-system, BlinkMacSystemFont, 'Segoe UI', Roboto, Oxygen, Ubuntu, Cantarell, 'Fira Sans', 'Droid Sans', 'Helvetica Neue', sans-serif" font-size="11.00">libmirai/models/libmirai</text>
<text text-anchor="middle" x="1674.89" y="-214.7" font-family="-apple-system, BlinkMacSystemFont, 'Segoe UI', Roboto, Oxygen, Ubuntu, Cantarell, 'Fira Sans', 'Droid Sans', 'Helvetica Neue', sans-serif" font-size="11.00">/Messages/QuoteMessage.cpp</text>
</a>
</g>
</g>
<!-- Node1&#45;&gt;Node19 -->
<g id="edge25" class="edge">
<title>Node1&#45;&gt;Node19</title>
<path fill="none" stroke="midnightblue" d="M931.33,-288.08C1072.43,-282.18 1349.82,-267.95 1583.89,-240 1586.76,-239.66 1589.67,-239.29 1592.61,-238.89"/>
<polygon fill="midnightblue" stroke="midnightblue" points="930.85,-284.59 921,-288.5 931.13,-291.59 930.85,-284.59"/>
</g>
<!-- Node3 -->
<g id="node3" class="node">
<title>Node3</title>
<g id="a_node3"><a xlink:href="models_8hpp.html" target="_top" xlink:title=" ">
<polygon fill="none" stroke="black" points="565.89,-69.5 565.89,-101.5 677.89,-101.5 677.89,-69.5 565.89,-69.5"/>
<text text-anchor="start" x="573.89" y="-88.7" font-family="-apple-system, BlinkMacSystemFont, 'Segoe UI', Roboto, Oxygen, Ubuntu, Cantarell, 'Fira Sans', 'Droid Sans', 'Helvetica Neue', sans-serif" font-size="11.00">libmirai/aggregates</text>
<text text-anchor="middle" x="621.89" y="-76.7" font-family="-apple-system, BlinkMacSystemFont, 'Segoe UI', Roboto, Oxygen, Ubuntu, Cantarell, 'Fira Sans', 'Droid Sans', 'Helvetica Neue', sans-serif" font-size="11.00">/libmirai/models.hpp</text>
</a>
</g>
</g>
<!-- Node2&#45;&gt;Node3 -->
<g id="edge2" class="edge">
<title>Node2&#45;&gt;Node3</title>
<path fill="none" stroke="midnightblue" d="M1029.73,-140.4C924.76,-126.52 762.78,-105.12 678,-93.91"/>
<polygon fill="midnightblue" stroke="midnightblue" points="1029.34,-143.87 1039.71,-141.71 1030.26,-136.93 1029.34,-143.87"/>
</g>
<!-- Node4 -->
<g id="node4" class="node">
<title>Node4</title>
<g id="a_node4"><a xlink:href="mirai_8hpp.html" target="_top" xlink:title=" ">
<polygon fill="none" stroke="black" points="567.39,-0.5 567.39,-32.5 674.39,-32.5 674.39,-0.5 567.39,-0.5"/>
<text text-anchor="start" x="575.39" y="-19.7" font-family="-apple-system, BlinkMacSystemFont, 'Segoe UI', Roboto, Oxygen, Ubuntu, Cantarell, 'Fira Sans', 'Droid Sans', 'Helvetica Neue', sans-serif" font-size="11.00">libmirai/aggregates</text>
<text text-anchor="middle" x="620.89" y="-7.7" font-family="-apple-system, BlinkMacSystemFont, 'Segoe UI', Roboto, Oxygen, Ubuntu, Cantarell, 'Fira Sans', 'Droid Sans', 'Helvetica Neue', sans-serif" font-size="11.00">/libmirai/mirai.hpp</text>
</a>
</g>
</g>
<!-- Node3&#45;&gt;Node4 -->
<g id="edge3" class="edge">
<title>Node3&#45;&gt;Node4</title>
<path fill="none" stroke="midnightblue" d="M621.51,-59.02C621.38,-50.13 621.24,-40.43 621.12,-32.64"/>
<polygon fill="midnightblue" stroke="midnightblue" points="618.02,-59.35 621.67,-69.3 625.02,-59.25 618.02,-59.35"/>
</g>
<!-- Node5&#45;&gt;Node4 -->
<g id="edge5" class="edge">
<title>Node5&#45;&gt;Node4</title>
<path fill="none" stroke="midnightblue" d="M532.96,-64.64C552.01,-54.42 574.87,-42.17 592.5,-32.72"/>
<polygon fill="midnightblue" stroke="midnightblue" points="531.11,-61.65 523.95,-69.46 534.41,-67.82 531.11,-61.65"/>
</g>
<!-- Node6 -->
<g id="node6" class="node">
<title>Node6</title>
<g id="a_node6"><a xlink:href="Client_8cpp.html" target="_top" xlink:title=" ">
<polygon fill="none" stroke="black" points="443.89,-0.5 443.89,-32.5 547.89,-32.5 547.89,-0.5 443.89,-0.5"/>
<text text-anchor="start" x="451.89" y="-19.7" font-family="-apple-system, BlinkMacSystemFont, 'Segoe UI', Roboto, Oxygen, Ubuntu, Cantarell, 'Fira Sans', 'Droid Sans', 'Helvetica Neue', sans-serif" font-size="11.00">libmirai/api/libmirai</text>
<text text-anchor="middle" x="495.89" y="-7.7" font-family="-apple-system, BlinkMacSystemFont, 'Segoe UI', Roboto, Oxygen, Ubuntu, Cantarell, 'Fira Sans', 'Droid Sans', 'Helvetica Neue', sans-serif" font-size="11.00">/Client/Client.cpp</text>
</a>
</g>
</g>
<!-- Node5&#45;&gt;Node6 -->
<g id="edge6" class="edge">
<title>Node5&#45;&gt;Node6</title>
<path fill="none" stroke="midnightblue" d="M495.89,-59.02C495.89,-50.13 495.89,-40.43 495.89,-32.64"/>
<polygon fill="midnightblue" stroke="midnightblue" points="492.39,-59.3 495.89,-69.3 499.39,-59.3 492.39,-59.3"/>
</g>
<!-- Node8 -->
<g id="node8" class="node">
<title>Node8</title>
<g id="a_node8"><a xlink:href="Events_8hpp.html" target="_top" xlink:title=" ">
<polygon fill="none" stroke="red" points="486.39,-138.5 486.39,-170.5 631.39,-170.5 631.39,-138.5 486.39,-138.5"/>
<text text-anchor="start" x="494.39" y="-157.7" font-family="-apple-system, BlinkMacSystemFont, 'Segoe UI', Roboto, Oxygen, Ubuntu, Cantarell, 'Fira Sans', 'Droid Sans', 'Helvetica Neue', sans-serif" font-size="11.00">libmirai/aggregates</text>
<text text-anchor="middle" x="558.89" y="-145.7" font-family="-apple-system, BlinkMacSystemFont, 'Segoe UI', Roboto, Oxygen, Ubuntu, Cantarell, 'Fira Sans', 'Droid Sans', 'Helvetica Neue', sans-serif" font-size="11.00">/libmirai/Events/Events.hpp</text>
</a>
</g>
</g>
<!-- Node7&#45;&gt;Node8 -->
<g id="edge8" class="edge">
<title>Node7&#45;&gt;Node8</title>
<path fill="none" stroke="midnightblue" d="M237.98,-205.85C315.34,-193.72 418.13,-177.59 486.3,-166.89"/>
<polygon fill="midnightblue" stroke="midnightblue" points="237.06,-202.46 227.72,-207.46 238.14,-209.37 237.06,-202.46"/>
</g>
<!-- Node8&#45;&gt;Node3 -->
<g id="edge9" class="edge">
<title>Node8&#45;&gt;Node3</title>
<path fill="none" stroke="midnightblue" d="M580.12,-130.93C589.19,-121.28 599.53,-110.28 607.66,-101.64"/>
<polygon fill="midnightblue" stroke="midnightblue" points="577.49,-128.61 573.19,-138.3 582.59,-133.41 577.49,-128.61"/>
</g>
<!-- Node8&#45;&gt;Node5 -->
<g id="edge10" class="edge">
<title>Node8&#45;&gt;Node5</title>
<path fill="none" stroke="midnightblue" d="M537.67,-130.93C528.6,-121.28 518.26,-110.28 510.13,-101.64"/>
<polygon fill="midnightblue" stroke="midnightblue" points="535.2,-133.41 544.6,-138.3 540.3,-128.61 535.2,-133.41"/>
</g>
<!-- Node11&#45;&gt;Node8 -->
<g id="edge12" class="edge">
<title>Node11&#45;&gt;Node8</title>
<path fill="none" stroke="midnightblue" d="M381.98,-204.68C420.21,-194.06 468.22,-180.71 504.57,-170.6"/>
<polygon fill="midnightblue" stroke="midnightblue" points="380.68,-201.41 371.98,-207.46 382.55,-208.16 380.68,-201.41"/>
</g>
<!-- Node12&#45;&gt;Node8 -->
<g id="edge14" class="edge">
<title>Node12&#45;&gt;Node8</title>
<path fill="none" stroke="midnightblue" d="M502.12,-200.78C514.46,-190.94 528.75,-179.54 539.91,-170.64"/>
<polygon fill="midnightblue" stroke="midnightblue" points="499.59,-198.32 493.96,-207.3 503.96,-203.8 499.59,-198.32"/>
</g>
<!-- Node13&#45;&gt;Node8 -->
<g id="edge16" class="edge">
<title>Node13&#45;&gt;Node8</title>
<path fill="none" stroke="midnightblue" d="M615.66,-200.78C603.32,-190.94 589.04,-179.54 577.88,-170.64"/>
<polygon fill="midnightblue" stroke="midnightblue" points="613.83,-203.8 623.83,-207.3 618.2,-198.32 613.83,-203.8"/>
</g>
<!-- Node14&#45;&gt;Node8 -->
<g id="edge18" class="edge">
<title>Node14&#45;&gt;Node8</title>
<path fill="none" stroke="midnightblue" d="M766.14,-205.09C721.45,-194.4 664.79,-180.84 622.01,-170.6"/>
<polygon fill="midnightblue" stroke="midnightblue" points="765.52,-208.54 776.06,-207.46 767.15,-201.73 765.52,-208.54"/>
</g>
<!-- Node15&#45;&gt;Node8 -->
<g id="edge20" class="edge">
<title>Node15&#45;&gt;Node8</title>
<path fill="none" stroke="midnightblue" d="M944.24,-206.92C828.7,-190.26 706.97,-174.35 631.53,-164.69"/>
<polygon fill="midnightblue" stroke="midnightblue" points="943.93,-210.42 954.33,-208.38 944.93,-203.49 943.93,-210.42"/>
</g>
<!-- Node16&#45;&gt;Node2 -->
<g id="edge22" class="edge">
<title>Node16&#45;&gt;Node2</title>
<path fill="none" stroke="midnightblue" d="M1245.89,-203.59C1220.5,-193.15 1189.39,-180.37 1165.63,-170.6"/>
<polygon fill="midnightblue" stroke="midnightblue" points="1244.73,-206.9 1255.31,-207.46 1247.4,-200.42 1244.73,-206.9"/>
</g>
<!-- Node17 -->
<g id="node15" class="node">
<title>Node17</title>
<g id="a_node15"><a xlink:href="ForwardMessage_8cpp.html" target="_top" xlink:title=" ">
<polygon fill="none" stroke="black" points="1235.89,-138.5 1235.89,-170.5 1411.89,-170.5 1411.89,-138.5 1235.89,-138.5"/>
<text text-anchor="start" x="1243.89" y="-157.7" font-family="-apple-system, BlinkMacSystemFont, 'Segoe UI', Roboto, Oxygen, Ubuntu, Cantarell, 'Fira Sans', 'Droid Sans', 'Helvetica Neue', sans-serif" font-size="11.00">libmirai/models/libmirai</text>
<text text-anchor="middle" x="1323.89" y="-145.7" font-family="-apple-system, BlinkMacSystemFont, 'Segoe UI', Roboto, Oxygen, Ubuntu, Cantarell, 'Fira Sans', 'Droid Sans', 'Helvetica Neue', sans-serif" font-size="11.00">/Messages/ForwardMessage.cpp</text>
</a>
</g>
</g>
<!-- Node16&#45;&gt;Node17 -->
<g id="edge23" class="edge">
<title>Node16&#45;&gt;Node17</title>
<path fill="none" stroke="midnightblue" d="M1303.5,-198.19C1307.9,-188.98 1312.78,-178.77 1316.66,-170.64"/>
<polygon fill="midnightblue" stroke="midnightblue" points="1300.31,-196.76 1299.16,-207.3 1306.62,-199.78 1300.31,-196.76"/>
</g>
</g>
</svg>
