<?xml version="1.0" encoding="UTF-8" standalone="no"?>
<!DOCTYPE svg PUBLIC "-//W3C//DTD SVG 1.1//EN"
 "http://www.w3.org/Graphics/SVG/1.1/DTD/svg11.dtd">
<!-- Generated by graphviz version 2.43.0 (0)
 -->
<!-- Title: libmirai/public/libmirai/Messages/MessageChain.hpp Pages: 1 -->
<svg width="2426pt" height="338pt"
 viewBox="0.00 0.00 2425.50 338.00" xmlns="http://www.w3.org/2000/svg" xmlns:xlink="http://www.w3.org/1999/xlink">
<g id="graph0" class="graph" transform="scale(1 1) rotate(0) translate(4 334)">
<title>libmirai/public/libmirai/Messages/MessageChain.hpp</title>
<!-- Node1 -->
<g id="node1" class="node">
<title>Node1</title>
<g id="a_node1"><a xlink:title=" ">
<polygon fill="#bfbfbf" stroke="black" points="1291.5,-297.5 1291.5,-329.5 1473.5,-329.5 1473.5,-297.5 1291.5,-297.5"/>
<text text-anchor="start" x="1299.5" y="-316.7" font-family="-apple-system,BlinkMacSystemFont,'SegoeUI',Roboto,Oxygen,Ubuntu,Cantarell,'FiraSans','DroidSans','HelveticaNeue',sans-serif" font-size="11.00">libmirai/public/libmirai</text>
<text text-anchor="middle" x="1382.5" y="-304.7" font-family="-apple-system,BlinkMacSystemFont,'SegoeUI',Roboto,Oxygen,Ubuntu,Cantarell,'FiraSans','DroidSans','HelveticaNeue',sans-serif" font-size="11.00">/Messages/MessageChain.hpp</text>
</a>
</g>
</g>
<!-- Node2 -->
<g id="node2" class="node">
<title>Node2</title>
<g id="a_node2"><a xlink:title=" ">
<polygon fill="none" stroke="#bfbfbf" points="0,-234.5 0,-254.5 57,-254.5 57,-234.5 0,-234.5"/>
<text text-anchor="middle" x="28.5" y="-241.7" font-family="-apple-system,BlinkMacSystemFont,'SegoeUI',Roboto,Oxygen,Ubuntu,Cantarell,'FiraSans','DroidSans','HelveticaNeue',sans-serif" font-size="11.00">cstddef</text>
</a>
</g>
</g>
<!-- Node1&#45;&gt;Node2 -->
<g id="edge1" class="edge">
<title>Node1&#45;&gt;Node2</title>
<path fill="none" stroke="midnightblue" d="M1291.17,-312.54C1033.7,-312.08 305.55,-306.65 71.5,-261 67.5,-260.22 63.37,-259.13 59.32,-257.88"/>
<polygon fill="midnightblue" stroke="midnightblue" points="60.16,-254.47 49.57,-254.55 57.9,-261.09 60.16,-254.47"/>
</g>
<!-- Node3 -->
<g id="node3" class="node">
<title>Node3</title>
<g id="a_node3"><a xlink:title=" ">
<polygon fill="none" stroke="#bfbfbf" points="333,-0.5 333,-20.5 380,-20.5 380,-0.5 333,-0.5"/>
<text text-anchor="middle" x="356.5" y="-7.7" font-family="-apple-system,BlinkMacSystemFont,'SegoeUI',Roboto,Oxygen,Ubuntu,Cantarell,'FiraSans','DroidSans','HelveticaNeue',sans-serif" font-size="11.00">ctime</text>
</a>
</g>
</g>
<!-- Node1&#45;&gt;Node3 -->
<g id="edge2" class="edge">
<title>Node1&#45;&gt;Node3</title>
<path fill="none" stroke="midnightblue" d="M1291.04,-311.03C1011.67,-306.25 185.38,-289.72 135.5,-261 99.65,-240.36 85.5,-223.86 85.5,-182.5 85.5,-182.5 85.5,-182.5 85.5,-123.5 85.5,-21.85 250.38,-10.63 322.92,-10.62"/>
<polygon fill="midnightblue" stroke="midnightblue" points="322.9,-14.12 332.92,-10.69 322.95,-7.12 322.9,-14.12"/>
</g>
<!-- Node4 -->
<g id="node4" class="node">
<title>Node4</title>
<g id="a_node4"><a xlink:title=" ">
<polygon fill="none" stroke="#bfbfbf" points="1315.5,-0.5 1315.5,-20.5 1377.5,-20.5 1377.5,-0.5 1315.5,-0.5"/>
<text text-anchor="middle" x="1346.5" y="-7.7" font-family="-apple-system,BlinkMacSystemFont,'SegoeUI',Roboto,Oxygen,Ubuntu,Cantarell,'FiraSans','DroidSans','HelveticaNeue',sans-serif" font-size="11.00">memory</text>
</a>
</g>
</g>
<!-- Node1&#45;&gt;Node4 -->
<g id="edge3" class="edge">
<title>Node1&#45;&gt;Node4</title>
<path fill="none" stroke="midnightblue" d="M1473.82,-310.87C1660.88,-306.86 2074.73,-294.31 2129.5,-261 2167.21,-238.06 2179.91,-214.33 2171.5,-171 2160.96,-116.69 2167.36,-87.94 2121.5,-57 2060.53,-15.87 1540.18,-11.8 1388.09,-11.49"/>
<polygon fill="midnightblue" stroke="midnightblue" points="1387.79,-7.99 1377.78,-11.48 1387.78,-14.99 1387.79,-7.99"/>
</g>
<!-- Node5 -->
<g id="node5" class="node">
<title>Node5</title>
<g id="a_node5"><a xlink:title=" ">
<polygon fill="none" stroke="#bfbfbf" points="732,-57.5 732,-77.5 793,-77.5 793,-57.5 732,-57.5"/>
<text text-anchor="middle" x="762.5" y="-64.7" font-family="-apple-system,BlinkMacSystemFont,'SegoeUI',Roboto,Oxygen,Ubuntu,Cantarell,'FiraSans','DroidSans','HelveticaNeue',sans-serif" font-size="11.00">optional</text>
</a>
</g>
</g>
<!-- Node1&#45;&gt;Node5 -->
<g id="edge4" class="edge">
<title>Node1&#45;&gt;Node5</title>
<path fill="none" stroke="midnightblue" d="M1291.4,-310.2C1168.7,-305.88 957.7,-293.8 888.5,-261 816.65,-226.94 792.07,-208.4 761.5,-135 755.26,-120.01 756.17,-101.42 758.27,-87.71"/>
<polygon fill="midnightblue" stroke="midnightblue" points="761.78,-88 760.17,-77.53 754.9,-86.72 761.78,-88"/>
</g>
<!-- Node6 -->
<g id="node6" class="node">
<title>Node6</title>
<g id="a_node6"><a xlink:title=" ">
<polygon fill="none" stroke="#bfbfbf" points="2091,-171.5 2091,-191.5 2162,-191.5 2162,-171.5 2091,-171.5"/>
<text text-anchor="middle" x="2126.5" y="-178.7" font-family="-apple-system,BlinkMacSystemFont,'SegoeUI',Roboto,Oxygen,Ubuntu,Cantarell,'FiraSans','DroidSans','HelveticaNeue',sans-serif" font-size="11.00">stdexcept</text>
</a>
</g>
</g>
<!-- Node1&#45;&gt;Node6 -->
<g id="edge5" class="edge">
<title>Node1&#45;&gt;Node6</title>
<path fill="none" stroke="midnightblue" d="M1473.77,-311.94C1657.84,-309.96 2060.14,-301.06 2107.5,-261 2124.52,-246.6 2127.73,-219.81 2127.72,-201.57"/>
<polygon fill="midnightblue" stroke="midnightblue" points="2131.21,-201.39 2127.39,-191.51 2124.21,-201.61 2131.21,-201.39"/>
</g>
<!-- Node7 -->
<g id="node7" class="node">
<title>Node7</title>
<g id="a_node7"><a xlink:title=" ">
<polygon fill="none" stroke="#bfbfbf" points="2205.5,-234.5 2205.5,-254.5 2281.5,-254.5 2281.5,-234.5 2205.5,-234.5"/>
<text text-anchor="middle" x="2243.5" y="-241.7" font-family="-apple-system,BlinkMacSystemFont,'SegoeUI',Roboto,Oxygen,Ubuntu,Cantarell,'FiraSans','DroidSans','HelveticaNeue',sans-serif" font-size="11.00">type_traits</text>
</a>
</g>
</g>
<!-- Node1&#45;&gt;Node7 -->
<g id="edge6" class="edge">
<title>Node1&#45;&gt;Node7</title>
<path fill="none" stroke="midnightblue" d="M1473.69,-313.37C1624.34,-313.32 1934.15,-306.93 2191.5,-261 2196.7,-260.07 2202.11,-258.81 2207.4,-257.4"/>
<polygon fill="midnightblue" stroke="midnightblue" points="2208.67,-260.67 2217.32,-254.56 2206.75,-253.94 2208.67,-260.67"/>
</g>
<!-- Node8 -->
<g id="node8" class="node">
<title>Node8</title>
<g id="a_node8"><a xlink:title=" ">
<polygon fill="none" stroke="#bfbfbf" points="2299.5,-234.5 2299.5,-254.5 2347.5,-254.5 2347.5,-234.5 2299.5,-234.5"/>
<text text-anchor="middle" x="2323.5" y="-241.7" font-family="-apple-system,BlinkMacSystemFont,'SegoeUI',Roboto,Oxygen,Ubuntu,Cantarell,'FiraSans','DroidSans','HelveticaNeue',sans-serif" font-size="11.00">utility</text>
</a>
</g>
</g>
<!-- Node1&#45;&gt;Node8 -->
<g id="edge7" class="edge">
<title>Node1&#45;&gt;Node8</title>
<path fill="none" stroke="midnightblue" d="M1473.72,-311.72C1672.26,-309.32 2137.91,-299.62 2290.5,-261 2293.02,-260.36 2295.59,-259.53 2298.11,-258.58"/>
<polygon fill="midnightblue" stroke="midnightblue" points="2299.72,-261.7 2307.51,-254.51 2296.94,-255.27 2299.72,-261.7"/>
</g>
<!-- Node9 -->
<g id="node9" class="node">
<title>Node9</title>
<g id="a_node9"><a xlink:title=" ">
<polygon fill="none" stroke="#bfbfbf" points="2365.5,-234.5 2365.5,-254.5 2417.5,-254.5 2417.5,-234.5 2365.5,-234.5"/>
<text text-anchor="middle" x="2391.5" y="-241.7" font-family="-apple-system,BlinkMacSystemFont,'SegoeUI',Roboto,Oxygen,Ubuntu,Cantarell,'FiraSans','DroidSans','HelveticaNeue',sans-serif" font-size="11.00">vector</text>
</a>
</g>
</g>
<!-- Node1&#45;&gt;Node9 -->
<g id="edge8" class="edge">
<title>Node1&#45;&gt;Node9</title>
<path fill="none" stroke="midnightblue" d="M1473.58,-311.89C1682.42,-309.81 2190.58,-300.7 2356.5,-261 2359.35,-260.32 2362.25,-259.41 2365.11,-258.38"/>
<polygon fill="midnightblue" stroke="midnightblue" points="2366.57,-261.56 2374.49,-254.52 2363.91,-255.09 2366.57,-261.56"/>
</g>
<!-- Node10 -->
<g id="node10" class="node">
<title>Node10</title>
<g id="a_node10"><a xlink:title=" ">
<polygon fill="none" stroke="#bfbfbf" points="824.5,-0.5 824.5,-20.5 970.5,-20.5 970.5,-0.5 824.5,-0.5"/>
<text text-anchor="middle" x="897.5" y="-7.7" font-family="-apple-system,BlinkMacSystemFont,'SegoeUI',Roboto,Oxygen,Ubuntu,Cantarell,'FiraSans','DroidSans','HelveticaNeue',sans-serif" font-size="11.00">nlohmann/json_fwd.hpp</text>
</a>
</g>
</g>
<!-- Node1&#45;&gt;Node10 -->
<g id="edge9" class="edge">
<title>Node1&#45;&gt;Node10</title>
<path fill="none" stroke="midnightblue" d="M1291.27,-312.73C1029.5,-312.79 288.36,-308.72 190.5,-261 149.27,-240.89 123.5,-228.37 123.5,-182.5 123.5,-182.5 123.5,-182.5 123.5,-123.5 123.5,-76.23 162.44,-74.12 206.5,-57 315.06,-14.82 655.09,-10.42 814.04,-10.78"/>
<polygon fill="midnightblue" stroke="midnightblue" points="814.24,-14.28 824.25,-10.81 814.26,-7.28 814.24,-14.28"/>
</g>
<!-- Node11 -->
<g id="node11" class="node">
<title>Node11</title>
<g id="a_node11"><a xlink:href="Exceptions_8hpp.html" target="_top" xlink:title=" ">
<polygon fill="none" stroke="black" points="1978.5,-228.5 1978.5,-260.5 2098.5,-260.5 2098.5,-228.5 1978.5,-228.5"/>
<text text-anchor="start" x="1986.5" y="-247.7" font-family="-apple-system,BlinkMacSystemFont,'SegoeUI',Roboto,Oxygen,Ubuntu,Cantarell,'FiraSans','DroidSans','HelveticaNeue',sans-serif" font-size="11.00">libmirai/Exceptions</text>
<text text-anchor="middle" x="2038.5" y="-235.7" font-family="-apple-system,BlinkMacSystemFont,'SegoeUI',Roboto,Oxygen,Ubuntu,Cantarell,'FiraSans','DroidSans','HelveticaNeue',sans-serif" font-size="11.00">/Exceptions.hpp</text>
</a>
</g>
</g>
<!-- Node1&#45;&gt;Node11 -->
<g id="edge10" class="edge">
<title>Node1&#45;&gt;Node11</title>
<path fill="none" stroke="midnightblue" d="M1473.68,-304.81C1580.95,-295.52 1764.36,-278.91 1921.5,-261 1936.7,-259.27 1952.98,-257.23 1968.42,-255.21"/>
<polygon fill="midnightblue" stroke="midnightblue" points="1968.97,-258.66 1978.43,-253.89 1968.06,-251.73 1968.97,-258.66"/>
</g>
<!-- Node13 -->
<g id="node13" class="node">
<title>Node13</title>
<g id="a_node13"><a xlink:href="AppMessage_8hpp.html" target="_top" xlink:title=" ">
<polygon fill="none" stroke="black" points="777.5,-114.5 777.5,-134.5 887.5,-134.5 887.5,-114.5 777.5,-114.5"/>
<text text-anchor="middle" x="832.5" y="-121.7" font-family="-apple-system,BlinkMacSystemFont,'SegoeUI',Roboto,Oxygen,Ubuntu,Cantarell,'FiraSans','DroidSans','HelveticaNeue',sans-serif" font-size="11.00">AppMessage.hpp</text>
</a>
</g>
</g>
<!-- Node1&#45;&gt;Node13 -->
<g id="edge13" class="edge">
<title>Node1&#45;&gt;Node13</title>
<path fill="none" stroke="midnightblue" d="M1291.13,-307.99C1212.5,-302.28 1096.72,-289.48 999.5,-261 929.85,-240.6 898.61,-247.21 851.5,-192 840.31,-178.88 835.69,-159.56 833.8,-145.11"/>
<polygon fill="midnightblue" stroke="midnightblue" points="837.25,-144.4 832.79,-134.79 830.28,-145.08 837.25,-144.4"/>
</g>
<!-- Node14 -->
<g id="node14" class="node">
<title>Node14</title>
<g id="a_node14"><a xlink:href="MessageBase_8hpp.html" target="_top" xlink:title=" ">
<polygon fill="none" stroke="red" points="1288.5,-57.5 1288.5,-77.5 1404.5,-77.5 1404.5,-57.5 1288.5,-57.5"/>
<text text-anchor="middle" x="1346.5" y="-64.7" font-family="-apple-system,BlinkMacSystemFont,'SegoeUI',Roboto,Oxygen,Ubuntu,Cantarell,'FiraSans','DroidSans','HelveticaNeue',sans-serif" font-size="11.00">MessageBase.hpp</text>
</a>
</g>
</g>
<!-- Node1&#45;&gt;Node14 -->
<g id="edge66" class="edge">
<title>Node1&#45;&gt;Node14</title>
<path fill="none" stroke="midnightblue" d="M1384.96,-297.33C1389.84,-263.44 1398.59,-179.46 1377.5,-114 1374.19,-103.71 1367.75,-93.63 1361.6,-85.59"/>
<polygon fill="midnightblue" stroke="midnightblue" points="1364.23,-83.27 1355.19,-77.74 1358.8,-87.7 1364.23,-83.27"/>
</g>
<!-- Node16 -->
<g id="node15" class="node">
<title>Node16</title>
<g id="a_node15"><a xlink:href="AtAllMessage_8hpp.html" target="_top" xlink:title=" ">
<polygon fill="none" stroke="black" points="944,-114.5 944,-134.5 1059,-134.5 1059,-114.5 944,-114.5"/>
<text text-anchor="middle" x="1001.5" y="-121.7" font-family="-apple-system,BlinkMacSystemFont,'SegoeUI',Roboto,Oxygen,Ubuntu,Cantarell,'FiraSans','DroidSans','HelveticaNeue',sans-serif" font-size="11.00">AtAllMessage.hpp</text>
</a>
</g>
</g>
<!-- Node1&#45;&gt;Node16 -->
<g id="edge20" class="edge">
<title>Node1&#45;&gt;Node16</title>
<path fill="none" stroke="midnightblue" d="M1348.46,-297.42C1325.95,-287.34 1295.83,-273.65 1269.5,-261 1180.25,-218.12 1075.93,-164.29 1028.01,-139.35"/>
<polygon fill="midnightblue" stroke="midnightblue" points="1029.42,-136.14 1018.94,-134.63 1026.19,-142.35 1029.42,-136.14"/>
</g>
<!-- Node17 -->
<g id="node16" class="node">
<title>Node17</title>
<g id="a_node16"><a xlink:href="AtMessage_8hpp.html" target="_top" xlink:title=" ">
<polygon fill="none" stroke="black" points="380,-114.5 380,-134.5 481,-134.5 481,-114.5 380,-114.5"/>
<text text-anchor="middle" x="430.5" y="-121.7" font-family="-apple-system,BlinkMacSystemFont,'SegoeUI',Roboto,Oxygen,Ubuntu,Cantarell,'FiraSans','DroidSans','HelveticaNeue',sans-serif" font-size="11.00">AtMessage.hpp</text>
</a>
</g>
</g>
<!-- Node1&#45;&gt;Node17 -->
<g id="edge24" class="edge">
<title>Node1&#45;&gt;Node17</title>
<path fill="none" stroke="midnightblue" d="M1291.46,-310.08C1131.52,-305.1 806.69,-291.49 697.5,-261 599.81,-233.72 495.93,-169.31 452.04,-140.22"/>
<polygon fill="midnightblue" stroke="midnightblue" points="453.87,-137.23 443.61,-134.57 449.97,-143.04 453.87,-137.23"/>
</g>
<!-- Node20 -->
<g id="node18" class="node">
<title>Node20</title>
<g id="a_node18"><a xlink:href="AudioMessage_8hpp.html" target="_top" xlink:title=" ">
<polygon fill="none" stroke="black" points="860.5,-171.5 860.5,-191.5 980.5,-191.5 980.5,-171.5 860.5,-171.5"/>
<text text-anchor="middle" x="920.5" y="-178.7" font-family="-apple-system,BlinkMacSystemFont,'SegoeUI',Roboto,Oxygen,Ubuntu,Cantarell,'FiraSans','DroidSans','HelveticaNeue',sans-serif" font-size="11.00">AudioMessage.hpp</text>
</a>
</g>
</g>
<!-- Node1&#45;&gt;Node20 -->
<g id="edge32" class="edge">
<title>Node1&#45;&gt;Node20</title>
<path fill="none" stroke="midnightblue" d="M1291.36,-303.99C1230.33,-296.61 1148.78,-283.46 1079.5,-261 1029.03,-244.64 974.45,-214.73 944.17,-196.93"/>
<polygon fill="midnightblue" stroke="midnightblue" points="945.61,-193.71 935.23,-191.61 942.03,-199.73 945.61,-193.71"/>
</g>
<!-- Node22 -->
<g id="node20" class="node">
<title>Node22</title>
<g id="a_node20"><a xlink:href="DiceMessage_8hpp.html" target="_top" xlink:title=" ">
<polygon fill="none" stroke="black" points="1077,-114.5 1077,-134.5 1190,-134.5 1190,-114.5 1077,-114.5"/>
<text text-anchor="middle" x="1133.5" y="-121.7" font-family="-apple-system,BlinkMacSystemFont,'SegoeUI',Roboto,Oxygen,Ubuntu,Cantarell,'FiraSans','DroidSans','HelveticaNeue',sans-serif" font-size="11.00">DiceMessage.hpp</text>
</a>
</g>
</g>
<!-- Node1&#45;&gt;Node22 -->
<g id="edge43" class="edge">
<title>Node1&#45;&gt;Node22</title>
<path fill="none" stroke="midnightblue" d="M1362.12,-297.2C1315.31,-262.04 1200.54,-175.85 1153.8,-140.75"/>
<polygon fill="midnightblue" stroke="midnightblue" points="1155.75,-137.83 1145.65,-134.62 1151.54,-143.43 1155.75,-137.83"/>
</g>
<!-- Node23 -->
<g id="node21" class="node">
<title>Node23</title>
<g id="a_node21"><a xlink:href="FaceMessage_8hpp.html" target="_top" xlink:title=" ">
<polygon fill="none" stroke="black" points="1450.5,-114.5 1450.5,-134.5 1564.5,-134.5 1564.5,-114.5 1450.5,-114.5"/>
<text text-anchor="middle" x="1507.5" y="-121.7" font-family="-apple-system,BlinkMacSystemFont,'SegoeUI',Roboto,Oxygen,Ubuntu,Cantarell,'FiraSans','DroidSans','HelveticaNeue',sans-serif" font-size="11.00">FaceMessage.hpp</text>
</a>
</g>
</g>
<!-- Node1&#45;&gt;Node23 -->
<g id="edge47" class="edge">
<title>Node1&#45;&gt;Node23</title>
<path fill="none" stroke="midnightblue" d="M1401.24,-297.35C1412.38,-287.72 1426.29,-274.55 1436.5,-261 1465.29,-222.8 1488.71,-171.29 1500.07,-144.1"/>
<polygon fill="midnightblue" stroke="midnightblue" points="1503.39,-145.23 1503.94,-134.65 1496.91,-142.57 1503.39,-145.23"/>
</g>
<!-- Node24 -->
<g id="node22" class="node">
<title>Node24</title>
<g id="a_node22"><a xlink:href="FlashImageMessage_8hpp.html" target="_top" xlink:title=" ">
<polygon fill="none" stroke="black" points="199.5,-234.5 199.5,-254.5 351.5,-254.5 351.5,-234.5 199.5,-234.5"/>
<text text-anchor="middle" x="275.5" y="-241.7" font-family="-apple-system,BlinkMacSystemFont,'SegoeUI',Roboto,Oxygen,Ubuntu,Cantarell,'FiraSans','DroidSans','HelveticaNeue',sans-serif" font-size="11.00">FlashImageMessage.hpp</text>
</a>
</g>
</g>
<!-- Node1&#45;&gt;Node24 -->
<g id="edge51" class="edge">
<title>Node1&#45;&gt;Node24</title>
<path fill="none" stroke="midnightblue" d="M1291.39,-308.73C1123.01,-301.49 751.8,-284.28 439.5,-261 414.31,-259.12 386.98,-256.7 361.98,-254.32"/>
<polygon fill="midnightblue" stroke="midnightblue" points="362.08,-250.81 351.79,-253.34 361.41,-257.78 362.08,-250.81"/>
</g>
<!-- Node25 -->
<g id="node23" class="node">
<title>Node25</title>
<g id="a_node23"><a xlink:href="ImageMessage_8hpp.html" target="_top" xlink:title=" ">
<polygon fill="none" stroke="black" points="304,-171.5 304,-191.5 427,-191.5 427,-171.5 304,-171.5"/>
<text text-anchor="middle" x="365.5" y="-178.7" font-family="-apple-system,BlinkMacSystemFont,'SegoeUI',Roboto,Oxygen,Ubuntu,Cantarell,'FiraSans','DroidSans','HelveticaNeue',sans-serif" font-size="11.00">ImageMessage.hpp</text>
</a>
</g>
</g>
<!-- Node1&#45;&gt;Node25 -->
<g id="edge61" class="edge">
<title>Node1&#45;&gt;Node25</title>
<path fill="none" stroke="midnightblue" d="M1291.34,-310.74C1105.56,-306.53 688.98,-293.65 550.5,-261 490.59,-246.87 425.4,-214.94 390.65,-196.45"/>
<polygon fill="midnightblue" stroke="midnightblue" points="392.15,-193.28 381.69,-191.61 388.83,-199.44 392.15,-193.28"/>
</g>
<!-- Node26 -->
<g id="node24" class="node">
<title>Node26</title>
<g id="a_node24"><a xlink:href="JsonMessage_8hpp.html" target="_top" xlink:title=" ">
<polygon fill="none" stroke="black" points="1582.5,-114.5 1582.5,-134.5 1694.5,-134.5 1694.5,-114.5 1582.5,-114.5"/>
<text text-anchor="middle" x="1638.5" y="-121.7" font-family="-apple-system,BlinkMacSystemFont,'SegoeUI',Roboto,Oxygen,Ubuntu,Cantarell,'FiraSans','DroidSans','HelveticaNeue',sans-serif" font-size="11.00">JsonMessage.hpp</text>
</a>
</g>
</g>
<!-- Node1&#45;&gt;Node26 -->
<g id="edge62" class="edge">
<title>Node1&#45;&gt;Node26</title>
<path fill="none" stroke="midnightblue" d="M1406.33,-297.36C1421.92,-287.31 1442.63,-273.68 1460.5,-261 1519.27,-219.3 1586.36,-166.86 1618.83,-141.16"/>
<polygon fill="midnightblue" stroke="midnightblue" points="1621.38,-143.61 1627.04,-134.65 1617.03,-138.12 1621.38,-143.61"/>
</g>
<!-- Node27 -->
<g id="node25" class="node">
<title>Node27</title>
<g id="a_node25"><a xlink:href="MiraiCodeMessage_8hpp.html" target="_top" xlink:title=" ">
<polygon fill="none" stroke="black" points="1712.5,-114.5 1712.5,-134.5 1856.5,-134.5 1856.5,-114.5 1712.5,-114.5"/>
<text text-anchor="middle" x="1784.5" y="-121.7" font-family="-apple-system,BlinkMacSystemFont,'SegoeUI',Roboto,Oxygen,Ubuntu,Cantarell,'FiraSans','DroidSans','HelveticaNeue',sans-serif" font-size="11.00">MiraiCodeMessage.hpp</text>
</a>
</g>
</g>
<!-- Node1&#45;&gt;Node27 -->
<g id="edge67" class="edge">
<title>Node1&#45;&gt;Node27</title>
<path fill="none" stroke="midnightblue" d="M1415.67,-297.5C1438.21,-287.27 1468.69,-273.39 1495.5,-261 1591.19,-216.76 1704.26,-163.45 1756.03,-138.97"/>
<polygon fill="midnightblue" stroke="midnightblue" points="1757.71,-142.05 1765.26,-134.61 1754.72,-135.72 1757.71,-142.05"/>
</g>
<!-- Node28 -->
<g id="node26" class="node">
<title>Node28</title>
<g id="a_node26"><a xlink:href="PlainMessage_8hpp.html" target="_top" xlink:title=" ">
<polygon fill="none" stroke="black" points="1874.5,-114.5 1874.5,-134.5 1990.5,-134.5 1990.5,-114.5 1874.5,-114.5"/>
<text text-anchor="middle" x="1932.5" y="-121.7" font-family="-apple-system,BlinkMacSystemFont,'SegoeUI',Roboto,Oxygen,Ubuntu,Cantarell,'FiraSans','DroidSans','HelveticaNeue',sans-serif" font-size="11.00">PlainMessage.hpp</text>
</a>
</g>
</g>
<!-- Node1&#45;&gt;Node28 -->
<g id="edge71" class="edge">
<title>Node1&#45;&gt;Node28</title>
<path fill="none" stroke="midnightblue" d="M1430.51,-297.5C1462.57,-287.39 1505.64,-273.65 1543.5,-261 1674.47,-217.25 1829.17,-162.41 1897.3,-138.1"/>
<polygon fill="midnightblue" stroke="midnightblue" points="1898.85,-141.26 1907.09,-134.6 1896.49,-134.67 1898.85,-141.26"/>
</g>
<!-- Node29 -->
<g id="node27" class="node">
<title>Node29</title>
<g id="a_node27"><a xlink:href="PokeMessage_8hpp.html" target="_top" xlink:title=" ">
<polygon fill="none" stroke="black" points="2009,-114.5 2009,-134.5 2124,-134.5 2124,-114.5 2009,-114.5"/>
<text text-anchor="middle" x="2066.5" y="-121.7" font-family="-apple-system,BlinkMacSystemFont,'SegoeUI',Roboto,Oxygen,Ubuntu,Cantarell,'FiraSans','DroidSans','HelveticaNeue',sans-serif" font-size="11.00">PokeMessage.hpp</text>
</a>
</g>
</g>
<!-- Node1&#45;&gt;Node29 -->
<g id="edge75" class="edge">
<title>Node1&#45;&gt;Node29</title>
<path fill="none" stroke="midnightblue" d="M1451.11,-297.44C1494.63,-287.65 1552.04,-274.26 1602.5,-261 1761.48,-219.21 1948.81,-162.05 2028.04,-137.5"/>
<polygon fill="midnightblue" stroke="midnightblue" points="2029.09,-140.84 2037.61,-134.53 2027.02,-134.15 2029.09,-140.84"/>
</g>
<!-- Node31 -->
<g id="node29" class="node">
<title>Node31</title>
<g id="a_node29"><a xlink:href="XmlMessage_8hpp.html" target="_top" xlink:title=" ">
<polygon fill="none" stroke="black" points="1208.5,-114.5 1208.5,-134.5 1318.5,-134.5 1318.5,-114.5 1208.5,-114.5"/>
<text text-anchor="middle" x="1263.5" y="-121.7" font-family="-apple-system,BlinkMacSystemFont,'SegoeUI',Roboto,Oxygen,Ubuntu,Cantarell,'FiraSans','DroidSans','HelveticaNeue',sans-serif" font-size="11.00">XmlMessage.hpp</text>
</a>
</g>
</g>
<!-- Node1&#45;&gt;Node31 -->
<g id="edge80" class="edge">
<title>Node1&#45;&gt;Node31</title>
<path fill="none" stroke="midnightblue" d="M1372.76,-297.2C1350.95,-262.93 1298.28,-180.15 1274.95,-143.49"/>
<polygon fill="midnightblue" stroke="midnightblue" points="1277.76,-141.39 1269.44,-134.83 1271.86,-145.15 1277.76,-141.39"/>
</g>
<!-- Node11&#45;&gt;Node6 -->
<g id="edge11" class="edge">
<title>Node11&#45;&gt;Node6</title>
<path fill="none" stroke="midnightblue" d="M2060.25,-228.42C2073.95,-218.93 2091.54,-206.73 2105.16,-197.29"/>
<polygon fill="midnightblue" stroke="midnightblue" points="2107.23,-200.12 2113.45,-191.55 2103.24,-194.37 2107.23,-200.12"/>
</g>
<!-- Node12 -->
<g id="node12" class="node">
<title>Node12</title>
<g id="a_node12"><a xlink:title=" ">
<polygon fill="none" stroke="#bfbfbf" points="1109.5,-0.5 1109.5,-20.5 1157.5,-20.5 1157.5,-0.5 1109.5,-0.5"/>
<text text-anchor="middle" x="1133.5" y="-7.7" font-family="-apple-system,BlinkMacSystemFont,'SegoeUI',Roboto,Oxygen,Ubuntu,Cantarell,'FiraSans','DroidSans','HelveticaNeue',sans-serif" font-size="11.00">string</text>
</a>
</g>
</g>
<!-- Node11&#45;&gt;Node12 -->
<g id="edge12" class="edge">
<title>Node11&#45;&gt;Node12</title>
<path fill="none" stroke="midnightblue" d="M2045.36,-228.41C2052.93,-212.84 2066.23,-188.44 2082.5,-171 2101.43,-150.71 2120.74,-159.63 2133.5,-135 2149.74,-103.66 2098.67,-57.1 2098.5,-57 2022.62,-12.26 1394.48,-25.42 1306.5,-21 1258.31,-18.58 1202.59,-15.46 1167.69,-13.47"/>
<polygon fill="midnightblue" stroke="midnightblue" points="1167.75,-9.97 1157.56,-12.89 1167.35,-16.96 1167.75,-9.97"/>
</g>
<!-- Node13&#45;&gt;Node10 -->
<g id="edge15" class="edge">
<title>Node13&#45;&gt;Node10</title>
<path fill="none" stroke="midnightblue" d="M837.82,-114.33C848.53,-95.88 872.88,-53.92 886.94,-29.69"/>
<polygon fill="midnightblue" stroke="midnightblue" points="890.11,-31.2 892.11,-20.79 884.06,-27.68 890.11,-31.2"/>
</g>
<!-- Node13&#45;&gt;Node12 -->
<g id="edge14" class="edge">
<title>Node13&#45;&gt;Node12</title>
<path fill="none" stroke="midnightblue" d="M853.7,-114.48C884.95,-101.29 945.33,-76.22 997.5,-57 1032.04,-44.28 1072.04,-31.07 1099.68,-22.19"/>
<polygon fill="midnightblue" stroke="midnightblue" points="1100.81,-25.5 1109.27,-19.12 1098.68,-18.83 1100.81,-25.5"/>
</g>
<!-- Node13&#45;&gt;Node14 -->
<g id="edge16" class="edge">
<title>Node13&#45;&gt;Node14</title>
<path fill="none" stroke="midnightblue" d="M887.51,-117.61C982.12,-107.49 1175.41,-86.81 1278.38,-75.79"/>
<polygon fill="midnightblue" stroke="midnightblue" points="1278.79,-79.27 1288.36,-74.72 1278.04,-72.31 1278.79,-79.27"/>
</g>
<!-- Node14&#45;&gt;Node4 -->
<g id="edge17" class="edge">
<title>Node14&#45;&gt;Node4</title>
<path fill="none" stroke="midnightblue" d="M1346.5,-57.42C1346.5,-50.22 1346.5,-39.9 1346.5,-30.86"/>
<polygon fill="midnightblue" stroke="midnightblue" points="1350,-30.78 1346.5,-20.78 1343,-30.78 1350,-30.78"/>
</g>
<!-- Node14&#45;&gt;Node10 -->
<g id="edge19" class="edge">
<title>Node14&#45;&gt;Node10</title>
<path fill="none" stroke="midnightblue" d="M1288.26,-59.37C1209.89,-49.77 1070.03,-32.63 980.62,-21.68"/>
<polygon fill="midnightblue" stroke="midnightblue" points="980.87,-18.19 970.51,-20.44 980.01,-25.13 980.87,-18.19"/>
</g>
<!-- Node14&#45;&gt;Node12 -->
<g id="edge18" class="edge">
<title>Node14&#45;&gt;Node12</title>
<path fill="none" stroke="midnightblue" d="M1311.33,-57.42C1271.52,-47.14 1207.11,-30.51 1167.7,-20.33"/>
<polygon fill="midnightblue" stroke="midnightblue" points="1168.33,-16.88 1157.77,-17.77 1166.58,-23.66 1168.33,-16.88"/>
</g>
<!-- Node16&#45;&gt;Node10 -->
<g id="edge22" class="edge">
<title>Node16&#45;&gt;Node10</title>
<path fill="none" stroke="midnightblue" d="M992.99,-114.33C975.54,-95.55 935.5,-52.42 913.21,-28.42"/>
<polygon fill="midnightblue" stroke="midnightblue" points="915.5,-25.74 906.13,-20.79 910.37,-30.5 915.5,-25.74"/>
</g>
<!-- Node16&#45;&gt;Node12 -->
<g id="edge21" class="edge">
<title>Node16&#45;&gt;Node12</title>
<path fill="none" stroke="midnightblue" d="M1012.3,-114.33C1034.73,-95.3 1086.61,-51.29 1114.66,-27.48"/>
<polygon fill="midnightblue" stroke="midnightblue" points="1117.19,-29.93 1122.55,-20.79 1112.66,-24.59 1117.19,-29.93"/>
</g>
<!-- Node16&#45;&gt;Node14 -->
<g id="edge23" class="edge">
<title>Node16&#45;&gt;Node14</title>
<path fill="none" stroke="midnightblue" d="M1058.08,-114.48C1118.87,-104.79 1215.4,-89.4 1279.83,-79.13"/>
<polygon fill="midnightblue" stroke="midnightblue" points="1280.56,-82.56 1289.89,-77.53 1279.46,-75.64 1280.56,-82.56"/>
</g>
<!-- Node17&#45;&gt;Node10 -->
<g id="edge26" class="edge">
<title>Node17&#45;&gt;Node10</title>
<path fill="none" stroke="midnightblue" d="M446.43,-114.32C472.5,-99.72 526.33,-71.41 575.5,-57 654.57,-33.82 748.13,-22.28 813.97,-16.64"/>
<polygon fill="midnightblue" stroke="midnightblue" points="814.62,-20.1 824.29,-15.79 814.04,-13.13 814.62,-20.1"/>
</g>
<!-- Node17&#45;&gt;Node12 -->
<g id="edge25" class="edge">
<title>Node17&#45;&gt;Node12</title>
<path fill="none" stroke="midnightblue" d="M454.95,-114.39C495.29,-99.78 578.56,-71.27 651.5,-57 737.58,-40.16 1003.67,-20.54 1099.04,-13.86"/>
<polygon fill="midnightblue" stroke="midnightblue" points="1099.55,-17.33 1109.29,-13.15 1099.07,-10.35 1099.55,-17.33"/>
</g>
<!-- Node17&#45;&gt;Node14 -->
<g id="edge31" class="edge">
<title>Node17&#45;&gt;Node14</title>
<path fill="none" stroke="midnightblue" d="M481.3,-114.97C484.07,-114.61 486.82,-114.29 489.5,-114 781.93,-82.78 1132.9,-72.66 1278.29,-69.65"/>
<polygon fill="midnightblue" stroke="midnightblue" points="1278.47,-73.15 1288.4,-69.45 1278.33,-66.15 1278.47,-73.15"/>
</g>
<!-- Node18 -->
<g id="node17" class="node">
<title>Node18</title>
<g id="a_node17"><a xlink:href="BasicTypes_8hpp.html" target="_top" xlink:title=" ">
<polygon fill="none" stroke="red" points="266,-57.5 266,-77.5 447,-77.5 447,-57.5 266,-57.5"/>
<text text-anchor="middle" x="356.5" y="-64.7" font-family="-apple-system,BlinkMacSystemFont,'SegoeUI',Roboto,Oxygen,Ubuntu,Cantarell,'FiraSans','DroidSans','HelveticaNeue',sans-serif" font-size="11.00">libmirai/Types/BasicTypes.hpp</text>
</a>
</g>
</g>
<!-- Node17&#45;&gt;Node18 -->
<g id="edge27" class="edge">
<title>Node17&#45;&gt;Node18</title>
<path fill="none" stroke="midnightblue" d="M418.28,-114.42C407.03,-106.06 390.13,-93.5 376.85,-83.62"/>
<polygon fill="midnightblue" stroke="midnightblue" points="378.85,-80.75 368.74,-77.6 374.68,-86.37 378.85,-80.75"/>
</g>
<!-- Node18&#45;&gt;Node3 -->
<g id="edge28" class="edge">
<title>Node18&#45;&gt;Node3</title>
<path fill="none" stroke="midnightblue" d="M356.5,-57.42C356.5,-50.22 356.5,-39.9 356.5,-30.86"/>
<polygon fill="midnightblue" stroke="midnightblue" points="360,-30.78 356.5,-20.78 353,-30.78 360,-30.78"/>
</g>
<!-- Node18&#45;&gt;Node10 -->
<g id="edge30" class="edge">
<title>Node18&#45;&gt;Node10</title>
<path fill="none" stroke="midnightblue" d="M445.23,-57.48C547.53,-47.08 714.4,-30.11 814.3,-19.96"/>
<polygon fill="midnightblue" stroke="midnightblue" points="814.76,-23.43 824.35,-18.94 814.05,-16.47 814.76,-23.43"/>
</g>
<!-- Node18&#45;&gt;Node12 -->
<g id="edge29" class="edge">
<title>Node18&#45;&gt;Node12</title>
<path fill="none" stroke="midnightblue" d="M447.15,-60.08C619.15,-47.91 985.78,-21.96 1099.29,-13.92"/>
<polygon fill="midnightblue" stroke="midnightblue" points="1099.74,-17.4 1109.47,-13.2 1099.24,-10.42 1099.74,-17.4"/>
</g>
<!-- Node20&#45;&gt;Node10 -->
<g id="edge34" class="edge">
<title>Node20&#45;&gt;Node10</title>
<path fill="none" stroke="midnightblue" d="M860.29,-178.96C827.56,-174.66 789.56,-163.28 768.5,-135 762.93,-127.51 764.44,-122.41 768.5,-114 779.86,-90.47 840.69,-48.33 874.61,-26.12"/>
<polygon fill="midnightblue" stroke="midnightblue" points="876.52,-29.05 883,-20.67 872.71,-23.18 876.52,-29.05"/>
</g>
<!-- Node20&#45;&gt;Node12 -->
<g id="edge33" class="edge">
<title>Node20&#45;&gt;Node12</title>
<path fill="none" stroke="midnightblue" d="M920.24,-171.32C920.31,-157.47 922.34,-131.05 935.5,-114 946.86,-99.29 1052.6,-48.97 1104.73,-24.74"/>
<polygon fill="midnightblue" stroke="midnightblue" points="1106.2,-27.92 1113.8,-20.54 1103.26,-21.56 1106.2,-27.92"/>
</g>
<!-- Node20&#45;&gt;Node14 -->
<g id="edge42" class="edge">
<title>Node20&#45;&gt;Node14</title>
<path fill="none" stroke="midnightblue" d="M980.59,-178.67C1095.12,-174.56 1335.52,-162.69 1360.5,-135 1372.3,-121.92 1365.57,-101.48 1357.92,-86.71"/>
<polygon fill="midnightblue" stroke="midnightblue" points="1360.93,-84.92 1352.94,-77.96 1354.84,-88.38 1360.93,-84.92"/>
</g>
<!-- Node21 -->
<g id="node19" class="node">
<title>Node21</title>
<g id="a_node19"><a xlink:href="MediaTypes_8hpp.html" target="_top" xlink:title=" ">
<polygon fill="none" stroke="red" points="499,-114.5 499,-134.5 684,-134.5 684,-114.5 499,-114.5"/>
<text text-anchor="middle" x="591.5" y="-121.7" font-family="-apple-system,BlinkMacSystemFont,'SegoeUI',Roboto,Oxygen,Ubuntu,Cantarell,'FiraSans','DroidSans','HelveticaNeue',sans-serif" font-size="11.00">libmirai/Types/MediaTypes.hpp</text>
</a>
</g>
</g>
<!-- Node20&#45;&gt;Node21 -->
<g id="edge35" class="edge">
<title>Node20&#45;&gt;Node21</title>
<path fill="none" stroke="midnightblue" d="M866.54,-171.48C808.69,-161.81 716.9,-146.46 655.46,-136.19"/>
<polygon fill="midnightblue" stroke="midnightblue" points="655.93,-132.72 645.49,-134.53 654.77,-139.63 655.93,-132.72"/>
</g>
<!-- Node21&#45;&gt;Node3 -->
<g id="edge36" class="edge">
<title>Node21&#45;&gt;Node3</title>
<path fill="none" stroke="midnightblue" d="M573.09,-114.32C547.01,-101.36 497.77,-77.04 455.5,-57 432.25,-45.98 405.76,-33.82 386.03,-24.85"/>
<polygon fill="midnightblue" stroke="midnightblue" points="387.22,-21.54 376.66,-20.6 384.32,-27.92 387.22,-21.54"/>
</g>
<!-- Node21&#45;&gt;Node4 -->
<g id="edge37" class="edge">
<title>Node21&#45;&gt;Node4</title>
<path fill="none" stroke="midnightblue" d="M611.75,-114.38C631.15,-105.51 661.13,-91.45 686.5,-78 702.87,-69.33 704.81,-62.48 722.5,-57 750.34,-48.37 1170.33,-22.22 1305.17,-14"/>
<polygon fill="midnightblue" stroke="midnightblue" points="1305.71,-17.47 1315.48,-13.37 1305.29,-10.48 1305.71,-17.47"/>
</g>
<!-- Node21&#45;&gt;Node5 -->
<g id="edge38" class="edge">
<title>Node21&#45;&gt;Node5</title>
<path fill="none" stroke="midnightblue" d="M619.74,-114.42C648.41,-105.19 692.99,-90.86 724.7,-80.66"/>
<polygon fill="midnightblue" stroke="midnightblue" points="726.06,-83.9 734.51,-77.5 723.91,-77.23 726.06,-83.9"/>
</g>
<!-- Node21&#45;&gt;Node10 -->
<g id="edge40" class="edge">
<title>Node21&#45;&gt;Node10</title>
<path fill="none" stroke="midnightblue" d="M596.84,-114.47C606.02,-99.82 626.26,-71.11 651.5,-57 701.15,-29.24 764.39,-17.97 814.32,-13.59"/>
<polygon fill="midnightblue" stroke="midnightblue" points="814.75,-17.07 824.44,-12.78 814.19,-10.09 814.75,-17.07"/>
</g>
<!-- Node21&#45;&gt;Node12 -->
<g id="edge39" class="edge">
<title>Node21&#45;&gt;Node12</title>
<path fill="none" stroke="midnightblue" d="M603.33,-114.38C625.1,-97.78 670.95,-63.75 689.5,-57 727.7,-43.09 1001.7,-21.41 1099.18,-14.04"/>
<polygon fill="midnightblue" stroke="midnightblue" points="1099.67,-17.52 1109.38,-13.28 1099.15,-10.54 1099.67,-17.52"/>
</g>
<!-- Node21&#45;&gt;Node18 -->
<g id="edge41" class="edge">
<title>Node21&#45;&gt;Node18</title>
<path fill="none" stroke="midnightblue" d="M552.96,-114.48C512.49,-105.01 448.76,-90.09 404.93,-79.83"/>
<polygon fill="midnightblue" stroke="midnightblue" points="405.6,-76.4 395.06,-77.53 404,-83.21 405.6,-76.4"/>
</g>
<!-- Node22&#45;&gt;Node10 -->
<g id="edge45" class="edge">
<title>Node22&#45;&gt;Node10</title>
<path fill="none" stroke="midnightblue" d="M1114.19,-114.33C1072.68,-94.64 974.8,-48.19 926.08,-25.07"/>
<polygon fill="midnightblue" stroke="midnightblue" points="927.28,-21.76 916.75,-20.63 924.28,-28.08 927.28,-21.76"/>
</g>
<!-- Node22&#45;&gt;Node12 -->
<g id="edge44" class="edge">
<title>Node22&#45;&gt;Node12</title>
<path fill="none" stroke="midnightblue" d="M1133.5,-114.33C1133.5,-96.2 1133.5,-55.41 1133.5,-31"/>
<polygon fill="midnightblue" stroke="midnightblue" points="1137,-30.79 1133.5,-20.79 1130,-30.79 1137,-30.79"/>
</g>
<!-- Node22&#45;&gt;Node14 -->
<g id="edge46" class="edge">
<title>Node22&#45;&gt;Node14</title>
<path fill="none" stroke="midnightblue" d="M1168.67,-114.42C1205.09,-105.02 1262.09,-90.3 1301.7,-80.07"/>
<polygon fill="midnightblue" stroke="midnightblue" points="1302.82,-83.39 1311.63,-77.5 1301.07,-76.62 1302.82,-83.39"/>
</g>
<!-- Node23&#45;&gt;Node10 -->
<g id="edge49" class="edge">
<title>Node23&#45;&gt;Node10</title>
<path fill="none" stroke="midnightblue" d="M1498.34,-114.42C1482.57,-99.43 1448.59,-69.88 1413.5,-57 1374.01,-42.5 1116.55,-24.89 980.88,-16.46"/>
<polygon fill="midnightblue" stroke="midnightblue" points="980.72,-12.94 970.53,-15.82 980.29,-19.93 980.72,-12.94"/>
</g>
<!-- Node23&#45;&gt;Node12 -->
<g id="edge48" class="edge">
<title>Node23&#45;&gt;Node12</title>
<path fill="none" stroke="midnightblue" d="M1504.45,-114.38C1499,-99.61 1486.07,-70.73 1464.5,-57 1415.76,-25.98 1242.45,-15.69 1167.95,-12.64"/>
<polygon fill="midnightblue" stroke="midnightblue" points="1167.83,-9.14 1157.7,-12.25 1167.56,-16.13 1167.83,-9.14"/>
</g>
<!-- Node23&#45;&gt;Node14 -->
<g id="edge50" class="edge">
<title>Node23&#45;&gt;Node14</title>
<path fill="none" stroke="midnightblue" d="M1480.91,-114.42C1454.03,-105.23 1412.31,-90.98 1382.48,-80.79"/>
<polygon fill="midnightblue" stroke="midnightblue" points="1383.45,-77.42 1372.86,-77.5 1381.19,-84.05 1383.45,-77.42"/>
</g>
<!-- Node24&#45;&gt;Node10 -->
<g id="edge53" class="edge">
<title>Node24&#45;&gt;Node10</title>
<path fill="none" stroke="midnightblue" d="M243.71,-234.46C223.14,-226.78 197.96,-213.49 185.5,-192 152.74,-135.51 183.95,-83.81 243.5,-57 294.29,-34.13 649.89,-19.63 814.38,-14.07"/>
<polygon fill="midnightblue" stroke="midnightblue" points="814.58,-17.57 824.46,-13.73 814.35,-10.57 814.58,-17.57"/>
</g>
<!-- Node24&#45;&gt;Node12 -->
<g id="edge52" class="edge">
<title>Node24&#45;&gt;Node12</title>
<path fill="none" stroke="midnightblue" d="M270.26,-234.16C254.02,-203.88 208.49,-107.46 256.5,-57 284.22,-27.86 939.35,-23.24 979.5,-21 1020.65,-18.71 1067.96,-15.74 1099.17,-13.73"/>
<polygon fill="midnightblue" stroke="midnightblue" points="1099.74,-17.21 1109.5,-13.07 1099.29,-10.22 1099.74,-17.21"/>
</g>
<!-- Node24&#45;&gt;Node18 -->
<g id="edge54" class="edge">
<title>Node24&#45;&gt;Node18</title>
<path fill="none" stroke="midnightblue" d="M277.03,-234.3C279.56,-220.25 285.27,-192.81 294.5,-171 307.93,-139.25 329.96,-105.65 343.82,-85.9"/>
<polygon fill="midnightblue" stroke="midnightblue" points="346.77,-87.79 349.73,-77.62 341.07,-83.73 346.77,-87.79"/>
</g>
<!-- Node24&#45;&gt;Node25 -->
<g id="edge55" class="edge">
<title>Node24&#45;&gt;Node25</title>
<path fill="none" stroke="midnightblue" d="M288.78,-234.5C303.27,-224.68 326.69,-208.81 343.84,-197.18"/>
<polygon fill="midnightblue" stroke="midnightblue" points="345.85,-200.05 352.17,-191.54 341.92,-194.25 345.85,-200.05"/>
</g>
<!-- Node25&#45;&gt;Node10 -->
<g id="edge57" class="edge">
<title>Node25&#45;&gt;Node10</title>
<path fill="none" stroke="midnightblue" d="M346.54,-171.36C305.97,-150.69 217.52,-98.85 256.5,-57 293.74,-17.02 649.34,-11.58 814.26,-11.24"/>
<polygon fill="midnightblue" stroke="midnightblue" points="814.36,-14.74 824.36,-11.22 814.35,-7.74 814.36,-14.74"/>
</g>
<!-- Node25&#45;&gt;Node12 -->
<g id="edge56" class="edge">
<title>Node25&#45;&gt;Node12</title>
<path fill="none" stroke="midnightblue" d="M363.18,-171.14C360.29,-157.07 357.22,-130.36 370.5,-114 384.87,-96.31 545.09,-61.1 567.5,-57 619.7,-47.45 984.45,-21.78 1099.1,-13.86"/>
<polygon fill="midnightblue" stroke="midnightblue" points="1099.66,-17.33 1109.39,-13.15 1099.17,-10.35 1099.66,-17.33"/>
</g>
<!-- Node25&#45;&gt;Node14 -->
<g id="edge60" class="edge">
<title>Node25&#45;&gt;Node14</title>
<path fill="none" stroke="midnightblue" d="M427.1,-179.55C633.87,-176.11 1292.17,-162.98 1327.5,-135 1341.59,-123.84 1345.7,-103 1346.68,-87.61"/>
<polygon fill="midnightblue" stroke="midnightblue" points="1350.18,-87.67 1346.94,-77.59 1343.18,-87.49 1350.18,-87.67"/>
</g>
<!-- Node25&#45;&gt;Node18 -->
<g id="edge58" class="edge">
<title>Node25&#45;&gt;Node18</title>
<path fill="none" stroke="midnightblue" d="M357.82,-171.47C350.98,-162.77 341.44,-148.92 337.5,-135 332.86,-118.61 339.2,-99.97 345.77,-86.6"/>
<polygon fill="midnightblue" stroke="midnightblue" points="348.99,-87.99 350.66,-77.53 342.83,-84.67 348.99,-87.99"/>
</g>
<!-- Node25&#45;&gt;Node21 -->
<g id="edge59" class="edge">
<title>Node25&#45;&gt;Node21</title>
<path fill="none" stroke="midnightblue" d="M402.57,-171.48C441.4,-162.03 502.51,-147.16 544.66,-136.9"/>
<polygon fill="midnightblue" stroke="midnightblue" points="545.52,-140.29 554.41,-134.53 543.87,-133.49 545.52,-140.29"/>
</g>
<!-- Node26&#45;&gt;Node10 -->
<g id="edge64" class="edge">
<title>Node26&#45;&gt;Node10</title>
<path fill="none" stroke="midnightblue" d="M1617.96,-114.46C1583.35,-99.67 1510.87,-70.59 1446.5,-57 1359.92,-38.72 1111.64,-23.09 980.67,-15.84"/>
<polygon fill="midnightblue" stroke="midnightblue" points="980.86,-12.34 970.68,-15.28 980.47,-19.33 980.86,-12.34"/>
</g>
<!-- Node26&#45;&gt;Node12 -->
<g id="edge63" class="edge">
<title>Node26&#45;&gt;Node12</title>
<path fill="none" stroke="midnightblue" d="M1633.67,-114.24C1625.3,-99.27 1606.56,-70.1 1581.5,-57 1545.07,-37.96 1266.07,-19.49 1167.7,-13.51"/>
<polygon fill="midnightblue" stroke="midnightblue" points="1167.88,-10.01 1157.69,-12.91 1167.46,-17 1167.88,-10.01"/>
</g>
<!-- Node26&#45;&gt;Node14 -->
<g id="edge65" class="edge">
<title>Node26&#45;&gt;Node14</title>
<path fill="none" stroke="midnightblue" d="M1590.61,-114.48C1539.58,-104.87 1458.8,-89.65 1404.28,-79.38"/>
<polygon fill="midnightblue" stroke="midnightblue" points="1404.89,-75.94 1394.42,-77.53 1403.6,-82.82 1404.89,-75.94"/>
</g>
<!-- Node27&#45;&gt;Node10 -->
<g id="edge69" class="edge">
<title>Node27&#45;&gt;Node10</title>
<path fill="none" stroke="midnightblue" d="M1752.53,-114.41C1699.85,-99.81 1591.29,-71.34 1497.5,-57 1400.28,-42.14 1121.49,-24.52 980.82,-16.25"/>
<polygon fill="midnightblue" stroke="midnightblue" points="980.71,-12.73 970.52,-15.64 980.3,-19.72 980.71,-12.73"/>
</g>
<!-- Node27&#45;&gt;Node12 -->
<g id="edge68" class="edge">
<title>Node27&#45;&gt;Node12</title>
<path fill="none" stroke="midnightblue" d="M1778.3,-114.15C1767.69,-99.05 1744.47,-69.69 1716.5,-57 1691.4,-45.61 1289.24,-20.8 1167.9,-13.53"/>
<polygon fill="midnightblue" stroke="midnightblue" points="1167.89,-10.03 1157.69,-12.93 1167.47,-17.02 1167.89,-10.03"/>
</g>
<!-- Node27&#45;&gt;Node14 -->
<g id="edge70" class="edge">
<title>Node27&#45;&gt;Node14</title>
<path fill="none" stroke="midnightblue" d="M1712.66,-114.48C1630.16,-104.12 1495.78,-87.25 1414.8,-77.08"/>
<polygon fill="midnightblue" stroke="midnightblue" points="1415.06,-73.58 1404.71,-75.81 1414.19,-80.53 1415.06,-73.58"/>
</g>
<!-- Node28&#45;&gt;Node10 -->
<g id="edge73" class="edge">
<title>Node28&#45;&gt;Node10</title>
<path fill="none" stroke="midnightblue" d="M1890.83,-114.47C1822.57,-100.03 1682.49,-71.84 1562.5,-57 1452.27,-43.36 1133.43,-24.59 980.82,-16.06"/>
<polygon fill="midnightblue" stroke="midnightblue" points="980.75,-12.55 970.57,-15.48 980.36,-19.54 980.75,-12.55"/>
</g>
<!-- Node28&#45;&gt;Node12 -->
<g id="edge72" class="edge">
<title>Node28&#45;&gt;Node12</title>
<path fill="none" stroke="midnightblue" d="M1925.95,-114.1C1914.75,-98.91 1890.34,-69.45 1861.5,-57 1853.44,-53.52 1312.05,-21.87 1168.25,-13.51"/>
<polygon fill="midnightblue" stroke="midnightblue" points="1168.02,-10 1157.84,-12.91 1167.62,-16.98 1168.02,-10"/>
</g>
<!-- Node28&#45;&gt;Node14 -->
<g id="edge74" class="edge">
<title>Node28&#45;&gt;Node14</title>
<path fill="none" stroke="midnightblue" d="M1874.42,-115.07C1871.4,-114.69 1868.42,-114.33 1865.5,-114 1704.29,-95.52 1514.15,-80.59 1414.79,-73.32"/>
<polygon fill="midnightblue" stroke="midnightblue" points="1414.82,-69.81 1404.59,-72.58 1414.31,-76.79 1414.82,-69.81"/>
</g>
<!-- Node29&#45;&gt;Node10 -->
<g id="edge78" class="edge">
<title>Node29&#45;&gt;Node10</title>
<path fill="none" stroke="midnightblue" d="M2018.69,-114.49C1940.37,-100.07 1779.72,-71.92 1642.5,-57 1516.4,-43.29 1147.46,-23.94 980.86,-15.59"/>
<polygon fill="midnightblue" stroke="midnightblue" points="980.82,-12.09 970.66,-15.08 980.47,-19.08 980.82,-12.09"/>
</g>
<!-- Node29&#45;&gt;Node12 -->
<g id="edge77" class="edge">
<title>Node29&#45;&gt;Node12</title>
<path fill="none" stroke="midnightblue" d="M2057.5,-114.04C2042.29,-98.79 2009.78,-69.22 1975.5,-57 1835.26,-7.01 1455.16,-29.08 1306.5,-21 1258.32,-18.38 1202.6,-15.31 1167.7,-13.39"/>
<polygon fill="midnightblue" stroke="midnightblue" points="1167.75,-9.89 1157.57,-12.83 1167.36,-16.88 1167.75,-9.89"/>
</g>
<!-- Node29&#45;&gt;Node14 -->
<g id="edge79" class="edge">
<title>Node29&#45;&gt;Node14</title>
<path fill="none" stroke="midnightblue" d="M2008.79,-115.05C2005.65,-114.67 2002.54,-114.32 1999.5,-114 1786.74,-91.53 1533.75,-77.5 1414.77,-71.65"/>
<polygon fill="midnightblue" stroke="midnightblue" points="1414.87,-68.15 1404.71,-71.16 1414.53,-75.14 1414.87,-68.15"/>
</g>
<!-- Node30 -->
<g id="node28" class="node">
<title>Node30</title>
<g id="a_node28"><a xlink:title=" ">
<polygon fill="none" stroke="#bfbfbf" points="2043.5,-57.5 2043.5,-77.5 2089.5,-77.5 2089.5,-57.5 2043.5,-57.5"/>
<text text-anchor="middle" x="2066.5" y="-64.7" font-family="-apple-system,BlinkMacSystemFont,'SegoeUI',Roboto,Oxygen,Ubuntu,Cantarell,'FiraSans','DroidSans','HelveticaNeue',sans-serif" font-size="11.00">array</text>
</a>
</g>
</g>
<!-- Node29&#45;&gt;Node30 -->
<g id="edge76" class="edge">
<title>Node29&#45;&gt;Node30</title>
<path fill="none" stroke="midnightblue" d="M2066.5,-114.42C2066.5,-107.22 2066.5,-96.9 2066.5,-87.86"/>
<polygon fill="midnightblue" stroke="midnightblue" points="2070,-87.78 2066.5,-77.78 2063,-87.78 2070,-87.78"/>
</g>
<!-- Node31&#45;&gt;Node10 -->
<g id="edge82" class="edge">
<title>Node31&#45;&gt;Node10</title>
<path fill="none" stroke="midnightblue" d="M1233.86,-114.43C1168.28,-94.36 1010.86,-46.19 937.01,-23.59"/>
<polygon fill="midnightblue" stroke="midnightblue" points="937.75,-20.16 927.16,-20.58 935.7,-26.85 937.75,-20.16"/>
</g>
<!-- Node31&#45;&gt;Node12 -->
<g id="edge81" class="edge">
<title>Node31&#45;&gt;Node12</title>
<path fill="none" stroke="midnightblue" d="M1252.86,-114.33C1230.77,-95.3 1179.68,-51.29 1152.05,-27.48"/>
<polygon fill="midnightblue" stroke="midnightblue" points="1154.15,-24.67 1144.29,-20.79 1149.58,-29.97 1154.15,-24.67"/>
</g>
<!-- Node31&#45;&gt;Node14 -->
<g id="edge83" class="edge">
<title>Node31&#45;&gt;Node14</title>
<path fill="none" stroke="midnightblue" d="M1277.21,-114.42C1289.94,-105.98 1309.14,-93.26 1324.1,-83.34"/>
<polygon fill="midnightblue" stroke="midnightblue" points="1326.37,-86.04 1332.77,-77.6 1322.5,-80.2 1326.37,-86.04"/>
</g>
</g>
</svg>
