<?xml version="1.0" encoding="UTF-8" standalone="no"?>
<!DOCTYPE svg PUBLIC "-//W3C//DTD SVG 1.1//EN"
 "http://www.w3.org/Graphics/SVG/1.1/DTD/svg11.dtd">
<!-- Generated by graphviz version 3.0.0 (20220413.0242)
 -->
<!-- Title: libmirai/public/libmirai/Events/MiraiClientEvents.hpp Pages: 1 -->
<svg width="626pt" height="224pt"
 viewBox="0.00 0.00 626.00 224.00" xmlns="http://www.w3.org/2000/svg" xmlns:xlink="http://www.w3.org/1999/xlink">
<g id="graph0" class="graph" transform="scale(1 1) rotate(0) translate(4 220)">
<title>libmirai/public/libmirai/Events/MiraiClientEvents.hpp</title>
<!-- Node1 -->
<g id="node1" class="node">
<title>Node1</title>
<g id="a_node1"><a xlink:title=" ">
<polygon fill="#bfbfbf" stroke="black" points="110,-183.5 110,-215.5 268,-215.5 268,-183.5 110,-183.5"/>
<text text-anchor="start" x="118" y="-202.7" font-family="-apple-system, BlinkMacSystemFont, 'Segoe UI', Roboto, Oxygen, Ubuntu, Cantarell, 'Fira Sans', 'Droid Sans', 'Helvetica Neue', sans-serif" font-size="11.00">libmirai/public/libmirai</text>
<text text-anchor="middle" x="189" y="-190.7" font-family="-apple-system, BlinkMacSystemFont, 'Segoe UI', Roboto, Oxygen, Ubuntu, Cantarell, 'Fira Sans', 'Droid Sans', 'Helvetica Neue', sans-serif" font-size="11.00">/Events/MiraiClientEvents.hpp</text>
</a>
</g>
</g>
<!-- Node2 -->
<g id="node2" class="node">
<title>Node2</title>
<g id="a_node2"><a xlink:title=" ">
<polygon fill="none" stroke="#bfbfbf" points="0,-120.5 0,-140.5 62,-140.5 62,-120.5 0,-120.5"/>
<text text-anchor="middle" x="31" y="-127.7" font-family="-apple-system, BlinkMacSystemFont, 'Segoe UI', Roboto, Oxygen, Ubuntu, Cantarell, 'Fira Sans', 'Droid Sans', 'Helvetica Neue', sans-serif" font-size="11.00">exception</text>
</a>
</g>
</g>
<!-- Node1&#45;&gt;Node2 -->
<g id="edge1" class="edge">
<title>Node1&#45;&gt;Node2</title>
<path fill="none" stroke="midnightblue" d="M153.54,-183.46C125.95,-171.76 88.05,-155.69 61.74,-144.53"/>
<polygon fill="midnightblue" stroke="midnightblue" points="62.84,-141.2 52.27,-140.52 60.11,-147.64 62.84,-141.2"/>
</g>
<!-- Node3 -->
<g id="node3" class="node">
<title>Node3</title>
<g id="a_node3"><a xlink:title=" ">
<polygon fill="none" stroke="#bfbfbf" points="80,-120.5 80,-140.5 118,-140.5 118,-120.5 80,-120.5"/>
<text text-anchor="middle" x="99" y="-127.7" font-family="-apple-system, BlinkMacSystemFont, 'Segoe UI', Roboto, Oxygen, Ubuntu, Cantarell, 'Fira Sans', 'Droid Sans', 'Helvetica Neue', sans-serif" font-size="11.00">map</text>
</a>
</g>
</g>
<!-- Node1&#45;&gt;Node3 -->
<g id="edge2" class="edge">
<title>Node1&#45;&gt;Node3</title>
<path fill="none" stroke="midnightblue" d="M168.58,-183.3C153.97,-172.43 134.39,-157.85 119.72,-146.93"/>
<polygon fill="midnightblue" stroke="midnightblue" points="121.42,-143.83 111.31,-140.66 117.24,-149.44 121.42,-143.83"/>
</g>
<!-- Node4 -->
<g id="node4" class="node">
<title>Node4</title>
<g id="a_node4"><a xlink:title=" ">
<polygon fill="none" stroke="#bfbfbf" points="228.5,-57.5 228.5,-77.5 271.5,-77.5 271.5,-57.5 228.5,-57.5"/>
<text text-anchor="middle" x="250" y="-64.7" font-family="-apple-system, BlinkMacSystemFont, 'Segoe UI', Roboto, Oxygen, Ubuntu, Cantarell, 'Fira Sans', 'Droid Sans', 'Helvetica Neue', sans-serif" font-size="11.00">string</text>
</a>
</g>
</g>
<!-- Node1&#45;&gt;Node4 -->
<g id="edge3" class="edge">
<title>Node1&#45;&gt;Node4</title>
<path fill="none" stroke="midnightblue" d="M216.11,-183.33C228.92,-174.55 242.94,-162.21 250,-147 258.68,-128.32 257.11,-104.34 254.37,-87.82"/>
<polygon fill="midnightblue" stroke="midnightblue" points="257.75,-86.88 252.4,-77.74 250.88,-88.23 257.75,-86.88"/>
</g>
<!-- Node5 -->
<g id="node5" class="node">
<title>Node5</title>
<g id="a_node5"><a xlink:href="Exceptions_8hpp.html" target="_top" xlink:title=" ">
<polygon fill="none" stroke="black" points="136.5,-114.5 136.5,-146.5 241.5,-146.5 241.5,-114.5 136.5,-114.5"/>
<text text-anchor="start" x="144.5" y="-133.7" font-family="-apple-system, BlinkMacSystemFont, 'Segoe UI', Roboto, Oxygen, Ubuntu, Cantarell, 'Fira Sans', 'Droid Sans', 'Helvetica Neue', sans-serif" font-size="11.00">libmirai/Exceptions</text>
<text text-anchor="middle" x="189" y="-121.7" font-family="-apple-system, BlinkMacSystemFont, 'Segoe UI', Roboto, Oxygen, Ubuntu, Cantarell, 'Fira Sans', 'Droid Sans', 'Helvetica Neue', sans-serif" font-size="11.00">/Exceptions.hpp</text>
</a>
</g>
</g>
<!-- Node1&#45;&gt;Node5 -->
<g id="edge4" class="edge">
<title>Node1&#45;&gt;Node5</title>
<path fill="none" stroke="midnightblue" d="M189,-183.3C189,-175.5 189,-165.8 189,-156.91"/>
<polygon fill="midnightblue" stroke="midnightblue" points="192.5,-156.64 189,-146.64 185.5,-156.64 192.5,-156.64"/>
</g>
<!-- Node7 -->
<g id="node7" class="node">
<title>Node7</title>
<g id="a_node7"><a xlink:href="BasicTypes_8hpp.html" target="_top" xlink:title=" ">
<polygon fill="none" stroke="black" points="318,-120.5 318,-140.5 480,-140.5 480,-120.5 318,-120.5"/>
<text text-anchor="middle" x="399" y="-127.7" font-family="-apple-system, BlinkMacSystemFont, 'Segoe UI', Roboto, Oxygen, Ubuntu, Cantarell, 'Fira Sans', 'Droid Sans', 'Helvetica Neue', sans-serif" font-size="11.00">libmirai/Types/BasicTypes.hpp</text>
</a>
</g>
</g>
<!-- Node1&#45;&gt;Node7 -->
<g id="edge7" class="edge">
<title>Node1&#45;&gt;Node7</title>
<path fill="none" stroke="midnightblue" d="M236.13,-183.46C273.77,-171.45 325.84,-154.84 360.89,-143.66"/>
<polygon fill="midnightblue" stroke="midnightblue" points="362.27,-146.89 370.73,-140.52 360.14,-140.22 362.27,-146.89"/>
</g>
<!-- Node5&#45;&gt;Node4 -->
<g id="edge6" class="edge">
<title>Node5&#45;&gt;Node4</title>
<path fill="none" stroke="midnightblue" d="M204.08,-114.42C213.12,-105.38 224.61,-93.89 233.84,-84.66"/>
<polygon fill="midnightblue" stroke="midnightblue" points="236.36,-87.09 240.95,-77.55 231.41,-82.14 236.36,-87.09"/>
</g>
<!-- Node6 -->
<g id="node6" class="node">
<title>Node6</title>
<g id="a_node6"><a xlink:title=" ">
<polygon fill="none" stroke="#bfbfbf" points="148,-57.5 148,-77.5 210,-77.5 210,-57.5 148,-57.5"/>
<text text-anchor="middle" x="179" y="-64.7" font-family="-apple-system, BlinkMacSystemFont, 'Segoe UI', Roboto, Oxygen, Ubuntu, Cantarell, 'Fira Sans', 'Droid Sans', 'Helvetica Neue', sans-serif" font-size="11.00">stdexcept</text>
</a>
</g>
</g>
<!-- Node5&#45;&gt;Node6 -->
<g id="edge5" class="edge">
<title>Node5&#45;&gt;Node6</title>
<path fill="none" stroke="midnightblue" d="M186.53,-114.42C185.19,-106.28 183.53,-96.16 182.11,-87.49"/>
<polygon fill="midnightblue" stroke="midnightblue" points="185.55,-86.85 180.48,-77.55 178.65,-87.98 185.55,-86.85"/>
</g>
<!-- Node7&#45;&gt;Node4 -->
<g id="edge10" class="edge">
<title>Node7&#45;&gt;Node4</title>
<path fill="none" stroke="midnightblue" d="M377.01,-120.5C351.67,-110.12 309.83,-92.99 281.14,-81.25"/>
<polygon fill="midnightblue" stroke="midnightblue" points="282.17,-77.89 271.59,-77.34 279.52,-84.37 282.17,-77.89"/>
</g>
<!-- Node8 -->
<g id="node8" class="node">
<title>Node8</title>
<g id="a_node8"><a xlink:title=" ">
<polygon fill="none" stroke="#bfbfbf" points="508,-57.5 508,-77.5 558,-77.5 558,-57.5 508,-57.5"/>
<text text-anchor="middle" x="533" y="-64.7" font-family="-apple-system, BlinkMacSystemFont, 'Segoe UI', Roboto, Oxygen, Ubuntu, Cantarell, 'Fira Sans', 'Droid Sans', 'Helvetica Neue', sans-serif" font-size="11.00">chrono</text>
</a>
</g>
</g>
<!-- Node7&#45;&gt;Node8 -->
<g id="edge8" class="edge">
<title>Node7&#45;&gt;Node8</title>
<path fill="none" stroke="midnightblue" d="M418.77,-120.5C441.24,-110.27 478.11,-93.48 503.87,-81.76"/>
<polygon fill="midnightblue" stroke="midnightblue" points="505.5,-84.87 513.15,-77.54 502.6,-78.5 505.5,-84.87"/>
</g>
<!-- Node9 -->
<g id="node9" class="node">
<title>Node9</title>
<g id="a_node9"><a xlink:title=" ">
<polygon fill="none" stroke="#bfbfbf" points="576,-57.5 576,-77.5 618,-77.5 618,-57.5 576,-57.5"/>
<text text-anchor="middle" x="597" y="-64.7" font-family="-apple-system, BlinkMacSystemFont, 'Segoe UI', Roboto, Oxygen, Ubuntu, Cantarell, 'Fira Sans', 'Droid Sans', 'Helvetica Neue', sans-serif" font-size="11.00">ctime</text>
</a>
</g>
</g>
<!-- Node7&#45;&gt;Node9 -->
<g id="edge9" class="edge">
<title>Node7&#45;&gt;Node9</title>
<path fill="none" stroke="midnightblue" d="M428.77,-120.47C460.46,-110.83 512.35,-94.99 566.02,-78.29"/>
<polygon fill="midnightblue" stroke="midnightblue" points="567.2,-81.59 575.7,-75.27 565.11,-74.9 567.2,-81.59"/>
</g>
<!-- Node10 -->
<g id="node10" class="node">
<title>Node10</title>
<g id="a_node10"><a xlink:title=" ">
<polygon fill="none" stroke="#bfbfbf" points="288.5,-0.5 288.5,-20.5 419.5,-20.5 419.5,-0.5 288.5,-0.5"/>
<text text-anchor="middle" x="354" y="-7.7" font-family="-apple-system, BlinkMacSystemFont, 'Segoe UI', Roboto, Oxygen, Ubuntu, Cantarell, 'Fira Sans', 'Droid Sans', 'Helvetica Neue', sans-serif" font-size="11.00">nlohmann/json_fwd.hpp</text>
</a>
</g>
</g>
<!-- Node7&#45;&gt;Node10 -->
<g id="edge11" class="edge">
<title>Node7&#45;&gt;Node10</title>
<path fill="none" stroke="midnightblue" d="M372.61,-120.38C353.95,-112.38 330.31,-98.74 319,-78 309.7,-60.96 323.04,-41.26 335.84,-27.75"/>
<polygon fill="midnightblue" stroke="midnightblue" points="338.46,-30.09 343.13,-20.58 333.55,-25.09 338.46,-30.09"/>
</g>
<!-- Node11 -->
<g id="node11" class="node">
<title>Node11</title>
<g id="a_node11"><a xlink:href="Serializable_8hpp.html" target="_top" xlink:title=" ">
<polygon fill="none" stroke="black" points="328,-57.5 328,-77.5 490,-77.5 490,-57.5 328,-57.5"/>
<text text-anchor="middle" x="409" y="-64.7" font-family="-apple-system, BlinkMacSystemFont, 'Segoe UI', Roboto, Oxygen, Ubuntu, Cantarell, 'Fira Sans', 'Droid Sans', 'Helvetica Neue', sans-serif" font-size="11.00">libmirai/Types/Serializable.hpp</text>
</a>
</g>
</g>
<!-- Node7&#45;&gt;Node11 -->
<g id="edge12" class="edge">
<title>Node7&#45;&gt;Node11</title>
<path fill="none" stroke="midnightblue" d="M400.48,-120.5C401.89,-111.85 404.08,-98.51 405.88,-87.5"/>
<polygon fill="midnightblue" stroke="midnightblue" points="409.35,-87.97 407.52,-77.54 402.45,-86.84 409.35,-87.97"/>
</g>
<!-- Node11&#45;&gt;Node10 -->
<g id="edge13" class="edge">
<title>Node11&#45;&gt;Node10</title>
<path fill="none" stroke="midnightblue" d="M399.92,-57.42C391.92,-49.42 380.09,-37.59 370.44,-27.94"/>
<polygon fill="midnightblue" stroke="midnightblue" points="372.83,-25.38 363.28,-20.78 367.88,-30.33 372.83,-25.38"/>
</g>
</g>
</svg>
