<?xml version="1.0" encoding="UTF-8" standalone="no"?>
<!DOCTYPE svg PUBLIC "-//W3C//DTD SVG 1.1//EN"
 "http://www.w3.org/Graphics/SVG/1.1/DTD/svg11.dtd">
<!-- Generated by graphviz version 3.0.0 (20220413.0242)
 -->
<!-- Title: libmirai/public/libmirai/Events/MiraiClientEvents.hpp Pages: 1 -->
<svg width="700pt" height="224pt"
 viewBox="0.00 0.00 700.00 224.00" xmlns="http://www.w3.org/2000/svg" xmlns:xlink="http://www.w3.org/1999/xlink">
<g id="graph0" class="graph" transform="scale(1 1) rotate(0) translate(4 220)">
<title>libmirai/public/libmirai/Events/MiraiClientEvents.hpp</title>
<!-- Node1 -->
<g id="node1" class="node">
<title>Node1</title>
<g id="a_node1"><a xlink:title=" ">
<polygon fill="#bfbfbf" stroke="black" points="110,-183.5 110,-215.5 268,-215.5 268,-183.5 110,-183.5"/>
<text text-anchor="start" x="118" y="-202.7" font-family="-apple-system, BlinkMacSystemFont, 'Segoe UI', Roboto, Oxygen, Ubuntu, Cantarell, 'Fira Sans', 'Droid Sans', 'Helvetica Neue', sans-serif" font-size="11.00">libmirai/public/libmirai</text>
<text text-anchor="middle" x="189" y="-190.7" font-family="-apple-system, BlinkMacSystemFont, 'Segoe UI', Roboto, Oxygen, Ubuntu, Cantarell, 'Fira Sans', 'Droid Sans', 'Helvetica Neue', sans-serif" font-size="11.00">/Events/MiraiClientEvents.hpp</text>
</a>
</g>
</g>
<!-- Node2 -->
<g id="node2" class="node">
<title>Node2</title>
<g id="a_node2"><a xlink:title=" ">
<polygon fill="none" stroke="#bfbfbf" points="0,-120.5 0,-140.5 62,-140.5 62,-120.5 0,-120.5"/>
<text text-anchor="middle" x="31" y="-127.7" font-family="-apple-system, BlinkMacSystemFont, 'Segoe UI', Roboto, Oxygen, Ubuntu, Cantarell, 'Fira Sans', 'Droid Sans', 'Helvetica Neue', sans-serif" font-size="11.00">exception</text>
</a>
</g>
</g>
<!-- Node1&#45;&gt;Node2 -->
<g id="edge1" class="edge">
<title>Node1&#45;&gt;Node2</title>
<path fill="none" stroke="midnightblue" d="M153.54,-183.46C125.95,-171.76 88.05,-155.69 61.74,-144.53"/>
<polygon fill="midnightblue" stroke="midnightblue" points="62.84,-141.2 52.27,-140.52 60.11,-147.64 62.84,-141.2"/>
</g>
<!-- Node3 -->
<g id="node3" class="node">
<title>Node3</title>
<g id="a_node3"><a xlink:title=" ">
<polygon fill="none" stroke="#bfbfbf" points="80,-120.5 80,-140.5 118,-140.5 118,-120.5 80,-120.5"/>
<text text-anchor="middle" x="99" y="-127.7" font-family="-apple-system, BlinkMacSystemFont, 'Segoe UI', Roboto, Oxygen, Ubuntu, Cantarell, 'Fira Sans', 'Droid Sans', 'Helvetica Neue', sans-serif" font-size="11.00">map</text>
</a>
</g>
</g>
<!-- Node1&#45;&gt;Node3 -->
<g id="edge2" class="edge">
<title>Node1&#45;&gt;Node3</title>
<path fill="none" stroke="midnightblue" d="M168.58,-183.3C153.97,-172.43 134.39,-157.85 119.72,-146.93"/>
<polygon fill="midnightblue" stroke="midnightblue" points="121.42,-143.83 111.31,-140.66 117.24,-149.44 121.42,-143.83"/>
</g>
<!-- Node4 -->
<g id="node4" class="node">
<title>Node4</title>
<g id="a_node4"><a xlink:title=" ">
<polygon fill="none" stroke="#bfbfbf" points="243.5,-57.5 243.5,-77.5 286.5,-77.5 286.5,-57.5 243.5,-57.5"/>
<text text-anchor="middle" x="265" y="-64.7" font-family="-apple-system, BlinkMacSystemFont, 'Segoe UI', Roboto, Oxygen, Ubuntu, Cantarell, 'Fira Sans', 'Droid Sans', 'Helvetica Neue', sans-serif" font-size="11.00">string</text>
</a>
</g>
</g>
<!-- Node1&#45;&gt;Node4 -->
<g id="edge3" class="edge">
<title>Node1&#45;&gt;Node4</title>
<path fill="none" stroke="midnightblue" d="M214.01,-183.38C226.74,-174.38 241.32,-161.84 250,-147 260.59,-128.9 263.9,-104.81 264.84,-88.12"/>
<polygon fill="midnightblue" stroke="midnightblue" points="268.35,-88.01 265.17,-77.9 261.35,-87.78 268.35,-88.01"/>
</g>
<!-- Node5 -->
<g id="node5" class="node">
<title>Node5</title>
<g id="a_node5"><a xlink:href="Exceptions_8hpp.html" target="_top" xlink:title=" ">
<polygon fill="none" stroke="black" points="136.5,-114.5 136.5,-146.5 241.5,-146.5 241.5,-114.5 136.5,-114.5"/>
<text text-anchor="start" x="144.5" y="-133.7" font-family="-apple-system, BlinkMacSystemFont, 'Segoe UI', Roboto, Oxygen, Ubuntu, Cantarell, 'Fira Sans', 'Droid Sans', 'Helvetica Neue', sans-serif" font-size="11.00">libmirai/Exceptions</text>
<text text-anchor="middle" x="189" y="-121.7" font-family="-apple-system, BlinkMacSystemFont, 'Segoe UI', Roboto, Oxygen, Ubuntu, Cantarell, 'Fira Sans', 'Droid Sans', 'Helvetica Neue', sans-serif" font-size="11.00">/Exceptions.hpp</text>
</a>
</g>
</g>
<!-- Node1&#45;&gt;Node5 -->
<g id="edge4" class="edge">
<title>Node1&#45;&gt;Node5</title>
<path fill="none" stroke="midnightblue" d="M189,-183.3C189,-175.5 189,-165.8 189,-156.91"/>
<polygon fill="midnightblue" stroke="midnightblue" points="192.5,-156.64 189,-146.64 185.5,-156.64 192.5,-156.64"/>
</g>
<!-- Node7 -->
<g id="node7" class="node">
<title>Node7</title>
<g id="a_node7"><a xlink:href="BasicTypes_8hpp.html" target="_top" xlink:title=" ">
<polygon fill="none" stroke="black" points="298,-120.5 298,-140.5 460,-140.5 460,-120.5 298,-120.5"/>
<text text-anchor="middle" x="379" y="-127.7" font-family="-apple-system, BlinkMacSystemFont, 'Segoe UI', Roboto, Oxygen, Ubuntu, Cantarell, 'Fira Sans', 'Droid Sans', 'Helvetica Neue', sans-serif" font-size="11.00">libmirai/Types/BasicTypes.hpp</text>
</a>
</g>
</g>
<!-- Node1&#45;&gt;Node7 -->
<g id="edge7" class="edge">
<title>Node1&#45;&gt;Node7</title>
<path fill="none" stroke="midnightblue" d="M231.64,-183.46C265.4,-171.56 312,-155.13 343.7,-143.95"/>
<polygon fill="midnightblue" stroke="midnightblue" points="345.16,-147.14 353.43,-140.52 342.83,-140.54 345.16,-147.14"/>
</g>
<!-- Node5&#45;&gt;Node4 -->
<g id="edge6" class="edge">
<title>Node5&#45;&gt;Node4</title>
<path fill="none" stroke="midnightblue" d="M207.79,-114.42C219.39,-105.11 234.23,-93.19 245.89,-83.84"/>
<polygon fill="midnightblue" stroke="midnightblue" points="248.12,-86.53 253.73,-77.55 243.74,-81.08 248.12,-86.53"/>
</g>
<!-- Node6 -->
<g id="node6" class="node">
<title>Node6</title>
<g id="a_node6"><a xlink:title=" ">
<polygon fill="none" stroke="#bfbfbf" points="158,-57.5 158,-77.5 220,-77.5 220,-57.5 158,-57.5"/>
<text text-anchor="middle" x="189" y="-64.7" font-family="-apple-system, BlinkMacSystemFont, 'Segoe UI', Roboto, Oxygen, Ubuntu, Cantarell, 'Fira Sans', 'Droid Sans', 'Helvetica Neue', sans-serif" font-size="11.00">stdexcept</text>
</a>
</g>
</g>
<!-- Node5&#45;&gt;Node6 -->
<g id="edge5" class="edge">
<title>Node5&#45;&gt;Node6</title>
<path fill="none" stroke="midnightblue" d="M189,-114.42C189,-106.38 189,-96.39 189,-87.78"/>
<polygon fill="midnightblue" stroke="midnightblue" points="192.5,-87.55 189,-77.55 185.5,-87.55 192.5,-87.55"/>
</g>
<!-- Node7&#45;&gt;Node4 -->
<g id="edge10" class="edge">
<title>Node7&#45;&gt;Node4</title>
<path fill="none" stroke="midnightblue" d="M362.18,-120.5C343.4,-110.45 312.8,-94.07 290.95,-82.38"/>
<polygon fill="midnightblue" stroke="midnightblue" points="292.36,-79.17 281.89,-77.54 289.06,-85.34 292.36,-79.17"/>
</g>
<!-- Node8 -->
<g id="node8" class="node">
<title>Node8</title>
<g id="a_node8"><a xlink:title=" ">
<polygon fill="none" stroke="#bfbfbf" points="582,-57.5 582,-77.5 632,-77.5 632,-57.5 582,-57.5"/>
<text text-anchor="middle" x="607" y="-64.7" font-family="-apple-system, BlinkMacSystemFont, 'Segoe UI', Roboto, Oxygen, Ubuntu, Cantarell, 'Fira Sans', 'Droid Sans', 'Helvetica Neue', sans-serif" font-size="11.00">chrono</text>
</a>
</g>
</g>
<!-- Node7&#45;&gt;Node8 -->
<g id="edge8" class="edge">
<title>Node7&#45;&gt;Node8</title>
<path fill="none" stroke="midnightblue" d="M413.73,-120.43C450.6,-110.76 510.84,-94.88 571.95,-78.26"/>
<polygon fill="midnightblue" stroke="midnightblue" points="573.03,-81.6 581.76,-75.59 571.19,-74.84 573.03,-81.6"/>
</g>
<!-- Node9 -->
<g id="node9" class="node">
<title>Node9</title>
<g id="a_node9"><a xlink:title=" ">
<polygon fill="none" stroke="#bfbfbf" points="650,-57.5 650,-77.5 692,-77.5 692,-57.5 650,-57.5"/>
<text text-anchor="middle" x="671" y="-64.7" font-family="-apple-system, BlinkMacSystemFont, 'Segoe UI', Roboto, Oxygen, Ubuntu, Cantarell, 'Fira Sans', 'Droid Sans', 'Helvetica Neue', sans-serif" font-size="11.00">ctime</text>
</a>
</g>
</g>
<!-- Node7&#45;&gt;Node9 -->
<g id="edge9" class="edge">
<title>Node7&#45;&gt;Node9</title>
<path fill="none" stroke="midnightblue" d="M434.35,-120.49C485.47,-111.74 563.64,-97.31 640,-78.04"/>
<polygon fill="midnightblue" stroke="midnightblue" points="640.96,-81.41 649.78,-75.54 639.22,-74.63 640.96,-81.41"/>
</g>
<!-- Node10 -->
<g id="node10" class="node">
<title>Node10</title>
<g id="a_node10"><a xlink:title=" ">
<polygon fill="none" stroke="#bfbfbf" points="304.5,-57.5 304.5,-77.5 345.5,-77.5 345.5,-57.5 304.5,-57.5"/>
<text text-anchor="middle" x="325" y="-64.7" font-family="-apple-system, BlinkMacSystemFont, 'Segoe UI', Roboto, Oxygen, Ubuntu, Cantarell, 'Fira Sans', 'Droid Sans', 'Helvetica Neue', sans-serif" font-size="11.00">utility</text>
</a>
</g>
</g>
<!-- Node7&#45;&gt;Node10 -->
<g id="edge11" class="edge">
<title>Node7&#45;&gt;Node10</title>
<path fill="none" stroke="midnightblue" d="M371.03,-120.5C362.82,-111.22 349.82,-96.53 339.73,-85.13"/>
<polygon fill="midnightblue" stroke="midnightblue" points="342.25,-82.71 333,-77.54 337.01,-87.35 342.25,-82.71"/>
</g>
<!-- Node11 -->
<g id="node11" class="node">
<title>Node11</title>
<g id="a_node11"><a xlink:title=" ">
<polygon fill="none" stroke="#bfbfbf" points="362.5,-0.5 362.5,-20.5 493.5,-20.5 493.5,-0.5 362.5,-0.5"/>
<text text-anchor="middle" x="428" y="-7.7" font-family="-apple-system, BlinkMacSystemFont, 'Segoe UI', Roboto, Oxygen, Ubuntu, Cantarell, 'Fira Sans', 'Droid Sans', 'Helvetica Neue', sans-serif" font-size="11.00">nlohmann/json_fwd.hpp</text>
</a>
</g>
</g>
<!-- Node7&#45;&gt;Node11 -->
<g id="edge12" class="edge">
<title>Node7&#45;&gt;Node11</title>
<path fill="none" stroke="midnightblue" d="M379.43,-120.16C380.38,-105.94 383.42,-78.27 393,-57 397.68,-46.61 405.16,-36.43 412,-28.34"/>
<polygon fill="midnightblue" stroke="midnightblue" points="414.73,-30.55 418.76,-20.75 409.5,-25.89 414.73,-30.55"/>
</g>
<!-- Node12 -->
<g id="node12" class="node">
<title>Node12</title>
<g id="a_node12"><a xlink:href="Serializable_8hpp.html" target="_top" xlink:title=" ">
<polygon fill="none" stroke="black" points="402,-57.5 402,-77.5 564,-77.5 564,-57.5 402,-57.5"/>
<text text-anchor="middle" x="483" y="-64.7" font-family="-apple-system, BlinkMacSystemFont, 'Segoe UI', Roboto, Oxygen, Ubuntu, Cantarell, 'Fira Sans', 'Droid Sans', 'Helvetica Neue', sans-serif" font-size="11.00">libmirai/Types/Serializable.hpp</text>
</a>
</g>
</g>
<!-- Node7&#45;&gt;Node12 -->
<g id="edge13" class="edge">
<title>Node7&#45;&gt;Node12</title>
<path fill="none" stroke="midnightblue" d="M394.35,-120.5C411.32,-110.54 438.9,-94.37 458.79,-82.7"/>
<polygon fill="midnightblue" stroke="midnightblue" points="460.74,-85.62 467.59,-77.54 457.19,-79.58 460.74,-85.62"/>
</g>
<!-- Node12&#45;&gt;Node11 -->
<g id="edge14" class="edge">
<title>Node12&#45;&gt;Node11</title>
<path fill="none" stroke="midnightblue" d="M473.92,-57.42C465.92,-49.42 454.09,-37.59 444.44,-27.94"/>
<polygon fill="midnightblue" stroke="midnightblue" points="446.83,-25.38 437.28,-20.78 441.88,-30.33 446.83,-25.38"/>
</g>
</g>
</svg>
