<?xml version="1.0" encoding="UTF-8" standalone="no"?>
<!DOCTYPE svg PUBLIC "-//W3C//DTD SVG 1.1//EN"
 "http://www.w3.org/Graphics/SVG/1.1/DTD/svg11.dtd">
<!-- Generated by graphviz version 2.43.0 (0)
 -->
<!-- Title: libmirai/public/libmirai/Events/MiraiClientEvents.hpp Pages: 1 -->
<svg width="685pt" height="224pt"
 viewBox="0.00 0.00 684.50 224.00" xmlns="http://www.w3.org/2000/svg" xmlns:xlink="http://www.w3.org/1999/xlink">
<g id="graph0" class="graph" transform="scale(1 1) rotate(0) translate(4 220)">
<title>libmirai/public/libmirai/Events/MiraiClientEvents.hpp</title>
<!-- Node1 -->
<g id="node1" class="node">
<title>Node1</title>
<g id="a_node1"><a xlink:title=" ">
<polygon fill="#bfbfbf" stroke="black" points="117,-183.5 117,-215.5 299,-215.5 299,-183.5 117,-183.5"/>
<text text-anchor="start" x="125" y="-202.7" font-family="-apple-system,BlinkMacSystemFont,'SegoeUI',Roboto,Oxygen,Ubuntu,Cantarell,'FiraSans','DroidSans','HelveticaNeue',sans-serif" font-size="11.00">libmirai/public/libmirai</text>
<text text-anchor="middle" x="208" y="-190.7" font-family="-apple-system,BlinkMacSystemFont,'SegoeUI',Roboto,Oxygen,Ubuntu,Cantarell,'FiraSans','DroidSans','HelveticaNeue',sans-serif" font-size="11.00">/Events/MiraiClientEvents.hpp</text>
</a>
</g>
</g>
<!-- Node2 -->
<g id="node2" class="node">
<title>Node2</title>
<g id="a_node2"><a xlink:title=" ">
<polygon fill="none" stroke="#bfbfbf" points="0,-120.5 0,-140.5 70,-140.5 70,-120.5 0,-120.5"/>
<text text-anchor="middle" x="35" y="-127.7" font-family="-apple-system,BlinkMacSystemFont,'SegoeUI',Roboto,Oxygen,Ubuntu,Cantarell,'FiraSans','DroidSans','HelveticaNeue',sans-serif" font-size="11.00">exception</text>
</a>
</g>
</g>
<!-- Node1&#45;&gt;Node2 -->
<g id="edge1" class="edge">
<title>Node1&#45;&gt;Node2</title>
<path fill="none" stroke="midnightblue" d="M169.18,-183.46C138.7,-171.66 96.74,-155.41 67.9,-144.24"/>
<polygon fill="midnightblue" stroke="midnightblue" points="68.87,-140.87 58.29,-140.52 66.35,-147.39 68.87,-140.87"/>
</g>
<!-- Node3 -->
<g id="node3" class="node">
<title>Node3</title>
<g id="a_node3"><a xlink:title=" ">
<polygon fill="none" stroke="#bfbfbf" points="88.5,-120.5 88.5,-140.5 129.5,-140.5 129.5,-120.5 88.5,-120.5"/>
<text text-anchor="middle" x="109" y="-127.7" font-family="-apple-system,BlinkMacSystemFont,'SegoeUI',Roboto,Oxygen,Ubuntu,Cantarell,'FiraSans','DroidSans','HelveticaNeue',sans-serif" font-size="11.00">map</text>
</a>
</g>
</g>
<!-- Node1&#45;&gt;Node3 -->
<g id="edge2" class="edge">
<title>Node1&#45;&gt;Node3</title>
<path fill="none" stroke="midnightblue" d="M185.54,-183.3C169.17,-172.22 147.12,-157.3 130.89,-146.31"/>
<polygon fill="midnightblue" stroke="midnightblue" points="132.79,-143.37 122.54,-140.66 128.86,-149.17 132.79,-143.37"/>
</g>
<!-- Node4 -->
<g id="node4" class="node">
<title>Node4</title>
<g id="a_node4"><a xlink:title=" ">
<polygon fill="none" stroke="#bfbfbf" points="251,-57.5 251,-77.5 299,-77.5 299,-57.5 251,-57.5"/>
<text text-anchor="middle" x="275" y="-64.7" font-family="-apple-system,BlinkMacSystemFont,'SegoeUI',Roboto,Oxygen,Ubuntu,Cantarell,'FiraSans','DroidSans','HelveticaNeue',sans-serif" font-size="11.00">string</text>
</a>
</g>
</g>
<!-- Node1&#45;&gt;Node4 -->
<g id="edge3" class="edge">
<title>Node1&#45;&gt;Node4</title>
<path fill="none" stroke="midnightblue" d="M239.64,-183.48C253.82,-174.94 269.09,-162.77 277,-147 286.24,-128.58 283.87,-104.55 280.38,-87.96"/>
<polygon fill="midnightblue" stroke="midnightblue" points="283.68,-86.7 277.92,-77.81 276.88,-88.36 283.68,-86.7"/>
</g>
<!-- Node5 -->
<g id="node5" class="node">
<title>Node5</title>
<g id="a_node5"><a xlink:href="Exceptions_8hpp.html" target="_top" xlink:title=" ">
<polygon fill="none" stroke="black" points="148,-114.5 148,-146.5 268,-146.5 268,-114.5 148,-114.5"/>
<text text-anchor="start" x="156" y="-133.7" font-family="-apple-system,BlinkMacSystemFont,'SegoeUI',Roboto,Oxygen,Ubuntu,Cantarell,'FiraSans','DroidSans','HelveticaNeue',sans-serif" font-size="11.00">libmirai/Exceptions</text>
<text text-anchor="middle" x="208" y="-121.7" font-family="-apple-system,BlinkMacSystemFont,'SegoeUI',Roboto,Oxygen,Ubuntu,Cantarell,'FiraSans','DroidSans','HelveticaNeue',sans-serif" font-size="11.00">/Exceptions.hpp</text>
</a>
</g>
</g>
<!-- Node1&#45;&gt;Node5 -->
<g id="edge4" class="edge">
<title>Node1&#45;&gt;Node5</title>
<path fill="none" stroke="midnightblue" d="M208,-183.3C208,-175.5 208,-165.8 208,-156.91"/>
<polygon fill="midnightblue" stroke="midnightblue" points="211.5,-156.64 208,-146.64 204.5,-156.64 211.5,-156.64"/>
</g>
<!-- Node7 -->
<g id="node7" class="node">
<title>Node7</title>
<g id="a_node7"><a xlink:href="BasicTypes_8hpp.html" target="_top" xlink:title=" ">
<polygon fill="none" stroke="black" points="345.5,-120.5 345.5,-140.5 526.5,-140.5 526.5,-120.5 345.5,-120.5"/>
<text text-anchor="middle" x="436" y="-127.7" font-family="-apple-system,BlinkMacSystemFont,'SegoeUI',Roboto,Oxygen,Ubuntu,Cantarell,'FiraSans','DroidSans','HelveticaNeue',sans-serif" font-size="11.00">libmirai/Types/BasicTypes.hpp</text>
</a>
</g>
</g>
<!-- Node1&#45;&gt;Node7 -->
<g id="edge7" class="edge">
<title>Node1&#45;&gt;Node7</title>
<path fill="none" stroke="midnightblue" d="M259.17,-183.46C300.39,-171.35 357.54,-154.56 395.59,-143.37"/>
<polygon fill="midnightblue" stroke="midnightblue" points="396.7,-146.7 405.31,-140.52 394.73,-139.98 396.7,-146.7"/>
</g>
<!-- Node5&#45;&gt;Node4 -->
<g id="edge6" class="edge">
<title>Node5&#45;&gt;Node4</title>
<path fill="none" stroke="midnightblue" d="M224.56,-114.42C234.59,-105.29 247.37,-93.66 257.55,-84.38"/>
<polygon fill="midnightblue" stroke="midnightblue" points="260.03,-86.87 265.06,-77.55 255.31,-81.69 260.03,-86.87"/>
</g>
<!-- Node6 -->
<g id="node6" class="node">
<title>Node6</title>
<g id="a_node6"><a xlink:title=" ">
<polygon fill="none" stroke="#bfbfbf" points="161.5,-57.5 161.5,-77.5 232.5,-77.5 232.5,-57.5 161.5,-57.5"/>
<text text-anchor="middle" x="197" y="-64.7" font-family="-apple-system,BlinkMacSystemFont,'SegoeUI',Roboto,Oxygen,Ubuntu,Cantarell,'FiraSans','DroidSans','HelveticaNeue',sans-serif" font-size="11.00">stdexcept</text>
</a>
</g>
</g>
<!-- Node5&#45;&gt;Node6 -->
<g id="edge5" class="edge">
<title>Node5&#45;&gt;Node6</title>
<path fill="none" stroke="midnightblue" d="M205.28,-114.42C203.81,-106.28 201.99,-96.16 200.42,-87.49"/>
<polygon fill="midnightblue" stroke="midnightblue" points="203.85,-86.77 198.63,-77.55 196.96,-88.01 203.85,-86.77"/>
</g>
<!-- Node7&#45;&gt;Node4 -->
<g id="edge10" class="edge">
<title>Node7&#45;&gt;Node4</title>
<path fill="none" stroke="midnightblue" d="M412.24,-120.5C384.78,-110.09 339.38,-92.89 308.37,-81.14"/>
<polygon fill="midnightblue" stroke="midnightblue" points="309.44,-77.81 298.85,-77.54 306.96,-84.35 309.44,-77.81"/>
</g>
<!-- Node8 -->
<g id="node8" class="node">
<title>Node8</title>
<g id="a_node8"><a xlink:title=" ">
<polygon fill="none" stroke="#bfbfbf" points="557,-57.5 557,-77.5 611,-77.5 611,-57.5 557,-57.5"/>
<text text-anchor="middle" x="584" y="-64.7" font-family="-apple-system,BlinkMacSystemFont,'SegoeUI',Roboto,Oxygen,Ubuntu,Cantarell,'FiraSans','DroidSans','HelveticaNeue',sans-serif" font-size="11.00">chrono</text>
</a>
</g>
</g>
<!-- Node7&#45;&gt;Node8 -->
<g id="edge8" class="edge">
<title>Node7&#45;&gt;Node8</title>
<path fill="none" stroke="midnightblue" d="M457.84,-120.5C482.87,-110.18 524.1,-93.19 552.58,-81.45"/>
<polygon fill="midnightblue" stroke="midnightblue" points="554.16,-84.58 562.07,-77.54 551.49,-78.11 554.16,-84.58"/>
</g>
<!-- Node9 -->
<g id="node9" class="node">
<title>Node9</title>
<g id="a_node9"><a xlink:title=" ">
<polygon fill="none" stroke="#bfbfbf" points="629.5,-57.5 629.5,-77.5 676.5,-77.5 676.5,-57.5 629.5,-57.5"/>
<text text-anchor="middle" x="653" y="-64.7" font-family="-apple-system,BlinkMacSystemFont,'SegoeUI',Roboto,Oxygen,Ubuntu,Cantarell,'FiraSans','DroidSans','HelveticaNeue',sans-serif" font-size="11.00">ctime</text>
</a>
</g>
</g>
<!-- Node7&#45;&gt;Node9 -->
<g id="edge9" class="edge">
<title>Node7&#45;&gt;Node9</title>
<path fill="none" stroke="midnightblue" d="M468.59,-120.46C503.45,-110.77 560.6,-94.83 619.38,-78.16"/>
<polygon fill="midnightblue" stroke="midnightblue" points="620.55,-81.47 629.21,-75.37 618.64,-74.73 620.55,-81.47"/>
</g>
<!-- Node10 -->
<g id="node10" class="node">
<title>Node10</title>
<g id="a_node10"><a xlink:title=" ">
<polygon fill="none" stroke="#bfbfbf" points="314,-0.5 314,-20.5 460,-20.5 460,-0.5 314,-0.5"/>
<text text-anchor="middle" x="387" y="-7.7" font-family="-apple-system,BlinkMacSystemFont,'SegoeUI',Roboto,Oxygen,Ubuntu,Cantarell,'FiraSans','DroidSans','HelveticaNeue',sans-serif" font-size="11.00">nlohmann/json_fwd.hpp</text>
</a>
</g>
</g>
<!-- Node7&#45;&gt;Node10 -->
<g id="edge11" class="edge">
<title>Node7&#45;&gt;Node10</title>
<path fill="none" stroke="midnightblue" d="M404.21,-120.46C383.64,-112.78 358.46,-99.49 346,-78 335.84,-60.48 351.49,-40.77 366.29,-27.39"/>
<polygon fill="midnightblue" stroke="midnightblue" points="368.87,-29.78 374.26,-20.66 364.36,-24.44 368.87,-29.78"/>
</g>
<!-- Node11 -->
<g id="node11" class="node">
<title>Node11</title>
<g id="a_node11"><a xlink:href="Serializable_8hpp.html" target="_top" xlink:title=" ">
<polygon fill="none" stroke="black" points="355.5,-57.5 355.5,-77.5 538.5,-77.5 538.5,-57.5 355.5,-57.5"/>
<text text-anchor="middle" x="447" y="-64.7" font-family="-apple-system,BlinkMacSystemFont,'SegoeUI',Roboto,Oxygen,Ubuntu,Cantarell,'FiraSans','DroidSans','HelveticaNeue',sans-serif" font-size="11.00">libmirai/Types/Serializable.hpp</text>
</a>
</g>
</g>
<!-- Node7&#45;&gt;Node11 -->
<g id="edge12" class="edge">
<title>Node7&#45;&gt;Node11</title>
<path fill="none" stroke="midnightblue" d="M437.62,-120.5C439.18,-111.85 441.59,-98.51 443.57,-87.5"/>
<polygon fill="midnightblue" stroke="midnightblue" points="447.04,-88 445.37,-77.54 440.15,-86.76 447.04,-88"/>
</g>
<!-- Node11&#45;&gt;Node10 -->
<g id="edge13" class="edge">
<title>Node11&#45;&gt;Node10</title>
<path fill="none" stroke="midnightblue" d="M437.09,-57.42C428.29,-49.35 415.21,-37.36 404.62,-27.65"/>
<polygon fill="midnightblue" stroke="midnightblue" points="406.86,-24.96 397.12,-20.78 402.13,-30.12 406.86,-24.96"/>
</g>
</g>
</svg>
