<?xml version="1.0" encoding="UTF-8" standalone="no"?>
<!DOCTYPE svg PUBLIC "-//W3C//DTD SVG 1.1//EN"
 "http://www.w3.org/Graphics/SVG/1.1/DTD/svg11.dtd">
<!-- Generated by graphviz version 3.0.0 (20221109.1736)
 -->
<!-- Title: libmirai/models/libmirai/Messages/MiraiCodeMessage.hpp Pages: 1 -->
<svg width="457pt" height="212pt"
 viewBox="0.00 0.00 457.00 212.00" xmlns="http://www.w3.org/2000/svg" xmlns:xlink="http://www.w3.org/1999/xlink">
<g id="graph0" class="graph" transform="scale(1 1) rotate(0) translate(4 208)">
<title>libmirai/models/libmirai/Messages/MiraiCodeMessage.hpp</title>
<!-- Node1 -->
<g id="node1" class="node">
<title>Node1</title>
<g id="a_node1"><a xlink:title=" ">
<polygon fill="#bfbfbf" stroke="black" points="0,-171.5 0,-203.5 185,-203.5 185,-171.5 0,-171.5"/>
<text text-anchor="start" x="8" y="-190.7" font-family="-apple-system, BlinkMacSystemFont, 'Segoe UI', Roboto, Oxygen, Ubuntu, Cantarell, 'Fira Sans', 'Droid Sans', 'Helvetica Neue', sans-serif" font-size="11.00">libmirai/models/libmirai</text>
<text text-anchor="middle" x="92.5" y="-178.7" font-family="-apple-system, BlinkMacSystemFont, 'Segoe UI', Roboto, Oxygen, Ubuntu, Cantarell, 'Fira Sans', 'Droid Sans', 'Helvetica Neue', sans-serif" font-size="11.00">/Messages/MiraiCodeMessage.hpp</text>
</a>
</g>
</g>
<!-- Node2 -->
<g id="node2" class="node">
<title>Node2</title>
<g id="a_node2"><a xlink:title=" ">
<polygon fill="none" stroke="#bfbfbf" points="62,-0.5 62,-20.5 105,-20.5 105,-0.5 62,-0.5"/>
<text text-anchor="middle" x="83.5" y="-7.7" font-family="-apple-system, BlinkMacSystemFont, 'Segoe UI', Roboto, Oxygen, Ubuntu, Cantarell, 'Fira Sans', 'Droid Sans', 'Helvetica Neue', sans-serif" font-size="11.00">string</text>
</a>
</g>
</g>
<!-- Node1&#45;&gt;Node2 -->
<g id="edge1" class="edge">
<title>Node1&#45;&gt;Node2</title>
<path fill="none" stroke="midnightblue" d="M91.16,-171.19C90.3,-160.95 89.22,-147.18 88.5,-135 86.33,-98.2 84.82,-55.17 84.06,-30.85"/>
<polygon fill="midnightblue" stroke="midnightblue" points="87.56,-30.69 83.76,-20.8 80.56,-30.9 87.56,-30.69"/>
</g>
<!-- Node3 -->
<g id="node3" class="node">
<title>Node3</title>
<g id="a_node3"><a xlink:href="IMessage_8hpp.html" target="_top" xlink:title=" ">
<polygon fill="none" stroke="black" points="97.5,-114.5 97.5,-134.5 181.5,-134.5 181.5,-114.5 97.5,-114.5"/>
<text text-anchor="middle" x="139.5" y="-121.7" font-family="-apple-system, BlinkMacSystemFont, 'Segoe UI', Roboto, Oxygen, Ubuntu, Cantarell, 'Fira Sans', 'Droid Sans', 'Helvetica Neue', sans-serif" font-size="11.00">IMessage.hpp</text>
</a>
</g>
</g>
<!-- Node1&#45;&gt;Node3 -->
<g id="edge2" class="edge">
<title>Node1&#45;&gt;Node3</title>
<path fill="none" stroke="midnightblue" d="M104.12,-171.42C110.87,-162.65 119.41,-151.57 126.4,-142.5"/>
<polygon fill="midnightblue" stroke="midnightblue" points="129.2,-144.6 132.53,-134.55 123.65,-140.33 129.2,-144.6"/>
</g>
<!-- Node3&#45;&gt;Node2 -->
<g id="edge4" class="edge">
<title>Node3&#45;&gt;Node2</title>
<path fill="none" stroke="midnightblue" d="M130.01,-114.21C121.66,-105.55 109.75,-91.9 102.5,-78 94.7,-63.03 89.73,-44.44 86.84,-30.72"/>
<polygon fill="midnightblue" stroke="midnightblue" points="90.21,-29.7 84.89,-20.54 83.34,-31.02 90.21,-29.7"/>
</g>
<!-- Node4 -->
<g id="node4" class="node">
<title>Node4</title>
<g id="a_node4"><a xlink:title=" ">
<polygon fill="none" stroke="#bfbfbf" points="111.5,-57.5 111.5,-77.5 167.5,-77.5 167.5,-57.5 111.5,-57.5"/>
<text text-anchor="middle" x="139.5" y="-64.7" font-family="-apple-system, BlinkMacSystemFont, 'Segoe UI', Roboto, Oxygen, Ubuntu, Cantarell, 'Fira Sans', 'Droid Sans', 'Helvetica Neue', sans-serif" font-size="11.00">memory</text>
</a>
</g>
</g>
<!-- Node3&#45;&gt;Node4 -->
<g id="edge3" class="edge">
<title>Node3&#45;&gt;Node4</title>
<path fill="none" stroke="midnightblue" d="M139.5,-114.42C139.5,-107.22 139.5,-96.9 139.5,-87.86"/>
<polygon fill="midnightblue" stroke="midnightblue" points="143,-87.78 139.5,-77.78 136,-87.78 143,-87.78"/>
</g>
<!-- Node5 -->
<g id="node5" class="node">
<title>Node5</title>
<g id="a_node5"><a xlink:title=" ">
<polygon fill="none" stroke="#bfbfbf" points="185.5,-57.5 185.5,-77.5 251.5,-77.5 251.5,-57.5 185.5,-57.5"/>
<text text-anchor="middle" x="218.5" y="-64.7" font-family="-apple-system, BlinkMacSystemFont, 'Segoe UI', Roboto, Oxygen, Ubuntu, Cantarell, 'Fira Sans', 'Droid Sans', 'Helvetica Neue', sans-serif" font-size="11.00">type_traits</text>
</a>
</g>
</g>
<!-- Node3&#45;&gt;Node5 -->
<g id="edge5" class="edge">
<title>Node3&#45;&gt;Node5</title>
<path fill="none" stroke="midnightblue" d="M152.55,-114.42C164.67,-105.98 182.94,-93.26 197.18,-83.34"/>
<polygon fill="midnightblue" stroke="midnightblue" points="199.23,-86.18 205.44,-77.6 195.23,-80.44 199.23,-86.18"/>
</g>
<!-- Node6 -->
<g id="node6" class="node">
<title>Node6</title>
<g id="a_node6"><a xlink:href="MessageTypes_8hpp.html" target="_top" xlink:title=" ">
<polygon fill="none" stroke="red" points="270,-57.5 270,-77.5 449,-77.5 449,-57.5 270,-57.5"/>
<text text-anchor="middle" x="359.5" y="-64.7" font-family="-apple-system, BlinkMacSystemFont, 'Segoe UI', Roboto, Oxygen, Ubuntu, Cantarell, 'Fira Sans', 'Droid Sans', 'Helvetica Neue', sans-serif" font-size="11.00">libmirai/Types/MessageTypes.hpp</text>
</a>
</g>
</g>
<!-- Node3&#45;&gt;Node6 -->
<g id="edge6" class="edge">
<title>Node3&#45;&gt;Node6</title>
<path fill="none" stroke="midnightblue" d="M175.83,-114.42C213.6,-104.98 272.82,-90.17 313.75,-79.94"/>
<polygon fill="midnightblue" stroke="midnightblue" points="314.63,-83.33 323.48,-77.5 312.93,-76.53 314.63,-83.33"/>
</g>
<!-- Node6&#45;&gt;Node2 -->
<g id="edge7" class="edge">
<title>Node6&#45;&gt;Node2</title>
<path fill="none" stroke="midnightblue" d="M314.23,-57.48C258.1,-46.29 163.86,-27.51 115,-17.78"/>
<polygon fill="midnightblue" stroke="midnightblue" points="115.51,-14.31 105.02,-15.79 114.14,-21.17 115.51,-14.31"/>
</g>
</g>
</svg>
