<?xml version="1.0" encoding="UTF-8" standalone="no"?>
<!DOCTYPE svg PUBLIC "-//W3C//DTD SVG 1.1//EN"
 "http://www.w3.org/Graphics/SVG/1.1/DTD/svg11.dtd">
<!-- Generated by graphviz version 3.0.0 (20221109.1736)
 -->
<!-- Title: libmirai/aggregates/libmirai/mirai.hpp Pages: 1 -->
<svg width="1398pt" height="362pt"
 viewBox="0.00 0.00 1397.69 362.00" xmlns="http://www.w3.org/2000/svg" xmlns:xlink="http://www.w3.org/1999/xlink">
<g id="graph0" class="graph" transform="scale(1 1) rotate(0) translate(4 358)">
<title>libmirai/aggregates/libmirai/mirai.hpp</title>
<!-- Node1 -->
<g id="node1" class="node">
<title>Node1</title>
<g id="a_node1"><a xlink:title=" ">
<polygon fill="#bfbfbf" stroke="black" points="736.67,-321.5 736.67,-353.5 843.67,-353.5 843.67,-321.5 736.67,-321.5"/>
<text text-anchor="start" x="744.67" y="-340.7" font-family="-apple-system, BlinkMacSystemFont, 'Segoe UI', Roboto, Oxygen, Ubuntu, Cantarell, 'Fira Sans', 'Droid Sans', 'Helvetica Neue', sans-serif" font-size="11.00">libmirai/aggregates</text>
<text text-anchor="middle" x="790.17" y="-328.7" font-family="-apple-system, BlinkMacSystemFont, 'Segoe UI', Roboto, Oxygen, Ubuntu, Cantarell, 'Fira Sans', 'Droid Sans', 'Helvetica Neue', sans-serif" font-size="11.00">/libmirai/mirai.hpp</text>
</a>
</g>
</g>
<!-- Node2 -->
<g id="node2" class="node">
<title>Node2</title>
<g id="a_node2"><a xlink:href="Client_8hpp.html" target="_top" xlink:title=" ">
<polygon fill="none" stroke="black" points="470.67,-201.5 470.67,-221.5 601.67,-221.5 601.67,-201.5 470.67,-201.5"/>
<text text-anchor="middle" x="536.17" y="-208.7" font-family="-apple-system, BlinkMacSystemFont, 'Segoe UI', Roboto, Oxygen, Ubuntu, Cantarell, 'Fira Sans', 'Droid Sans', 'Helvetica Neue', sans-serif" font-size="11.00">libmirai/Client/Client.hpp</text>
</a>
</g>
</g>
<!-- Node1&#45;&gt;Node2 -->
<g id="edge1" class="edge">
<title>Node1&#45;&gt;Node2</title>
<path fill="none" stroke="midnightblue" d="M736.53,-325.89C702.41,-317.75 658.06,-304.56 622.17,-285 594.76,-270.06 568.05,-245.51 551.85,-229.18"/>
<polygon fill="midnightblue" stroke="midnightblue" points="554.26,-226.64 544.79,-221.9 549.24,-231.51 554.26,-226.64"/>
</g>
<!-- Node69 -->
<g id="node22" class="node">
<title>Node69</title>
<g id="a_node22"><a xlink:href="GMockAdaptor_8hpp.html" target="_top" xlink:title=" ">
<polygon fill="none" stroke="black" points="631.17,-264.5 631.17,-284.5 825.17,-284.5 825.17,-264.5 631.17,-264.5"/>
<text text-anchor="middle" x="728.17" y="-271.7" font-family="-apple-system, BlinkMacSystemFont, 'Segoe UI', Roboto, Oxygen, Ubuntu, Cantarell, 'Fira Sans', 'Droid Sans', 'Helvetica Neue', sans-serif" font-size="11.00">libmirai/Adaptors/GMockAdaptor.hpp</text>
</a>
</g>
</g>
<!-- Node1&#45;&gt;Node69 -->
<g id="edge34" class="edge">
<title>Node1&#45;&gt;Node69</title>
<path fill="none" stroke="midnightblue" d="M774.84,-321.42C765.65,-312.38 753.97,-300.89 744.59,-291.66"/>
<polygon fill="midnightblue" stroke="midnightblue" points="746.95,-289.06 737.36,-284.55 742.04,-294.05 746.95,-289.06"/>
</g>
<!-- Node70 -->
<g id="node23" class="node">
<title>Node70</title>
<g id="a_node23"><a xlink:href="HttpWsAdaptor_8hpp.html" target="_top" xlink:title=" ">
<polygon fill="none" stroke="black" points="785.17,-195.5 785.17,-227.5 921.17,-227.5 921.17,-195.5 785.17,-195.5"/>
<text text-anchor="start" x="793.17" y="-214.7" font-family="-apple-system, BlinkMacSystemFont, 'Segoe UI', Roboto, Oxygen, Ubuntu, Cantarell, 'Fira Sans', 'Droid Sans', 'Helvetica Neue', sans-serif" font-size="11.00">libmirai/Adaptors/HttpWs</text>
<text text-anchor="middle" x="853.17" y="-202.7" font-family="-apple-system, BlinkMacSystemFont, 'Segoe UI', Roboto, Oxygen, Ubuntu, Cantarell, 'Fira Sans', 'Droid Sans', 'Helvetica Neue', sans-serif" font-size="11.00">Adaptor.hpp</text>
</a>
</g>
</g>
<!-- Node1&#45;&gt;Node70 -->
<g id="edge35" class="edge">
<title>Node1&#45;&gt;Node70</title>
<path fill="none" stroke="midnightblue" d="M806.51,-321.2C815.85,-311.62 827.09,-298.55 834.17,-285 841.85,-270.3 846.6,-252.26 849.42,-237.85"/>
<polygon fill="midnightblue" stroke="midnightblue" points="852.93,-238.11 851.22,-227.66 846.04,-236.89 852.93,-238.11"/>
</g>
<!-- Node71 -->
<g id="node24" class="node">
<title>Node71</title>
<g id="a_node24"><a xlink:href="models_8hpp.html" target="_top" xlink:title=" ">
<polygon fill="none" stroke="black" points="975.67,-264.5 975.67,-284.5 1084.67,-284.5 1084.67,-264.5 975.67,-264.5"/>
<text text-anchor="middle" x="1030.17" y="-271.7" font-family="-apple-system, BlinkMacSystemFont, 'Segoe UI', Roboto, Oxygen, Ubuntu, Cantarell, 'Fira Sans', 'Droid Sans', 'Helvetica Neue', sans-serif" font-size="11.00">libmirai/models.hpp</text>
</a>
</g>
</g>
<!-- Node1&#45;&gt;Node71 -->
<g id="edge38" class="edge">
<title>Node1&#45;&gt;Node71</title>
<path fill="none" stroke="midnightblue" d="M843.73,-322.89C886.14,-312.11 944.72,-297.22 984.83,-287.02"/>
<polygon fill="midnightblue" stroke="midnightblue" points="985.78,-290.39 994.61,-284.54 984.05,-283.61 985.78,-290.39"/>
</g>
<!-- Node3 -->
<g id="node3" class="node">
<title>Node3</title>
<g id="a_node3"><a xlink:title=" ">
<polygon fill="none" stroke="#bfbfbf" points="274.17,-132.5 274.17,-152.5 338.17,-152.5 338.17,-132.5 274.17,-132.5"/>
<text text-anchor="middle" x="306.17" y="-139.7" font-family="-apple-system, BlinkMacSystemFont, 'Segoe UI', Roboto, Oxygen, Ubuntu, Cantarell, 'Fira Sans', 'Droid Sans', 'Helvetica Neue', sans-serif" font-size="11.00">filesystem</text>
</a>
</g>
</g>
<!-- Node2&#45;&gt;Node3 -->
<g id="edge2" class="edge">
<title>Node2&#45;&gt;Node3</title>
<path fill="none" stroke="midnightblue" d="M499.5,-201.45C461.41,-191.82 400.21,-175.7 348.17,-159 345.23,-158.06 342.19,-157.03 339.15,-155.98"/>
<polygon fill="midnightblue" stroke="midnightblue" points="340.18,-152.63 329.59,-152.55 337.82,-159.22 340.18,-152.63"/>
</g>
<!-- Node4 -->
<g id="node4" class="node">
<title>Node4</title>
<g id="a_node4"><a xlink:title=" ">
<polygon fill="none" stroke="#bfbfbf" points="356.67,-132.5 356.67,-152.5 409.67,-152.5 409.67,-132.5 356.67,-132.5"/>
<text text-anchor="middle" x="383.17" y="-139.7" font-family="-apple-system, BlinkMacSystemFont, 'Segoe UI', Roboto, Oxygen, Ubuntu, Cantarell, 'Fira Sans', 'Droid Sans', 'Helvetica Neue', sans-serif" font-size="11.00">fstream</text>
</a>
</g>
</g>
<!-- Node2&#45;&gt;Node4 -->
<g id="edge3" class="edge">
<title>Node2&#45;&gt;Node4</title>
<path fill="none" stroke="midnightblue" d="M515.53,-201.46C489.18,-189.93 443.39,-169.87 413.18,-156.64"/>
<polygon fill="midnightblue" stroke="midnightblue" points="414.53,-153.41 403.96,-152.61 411.72,-159.82 414.53,-153.41"/>
</g>
<!-- Node5 -->
<g id="node5" class="node">
<title>Node5</title>
<g id="a_node5"><a xlink:title=" ">
<polygon fill="none" stroke="#bfbfbf" points="672.17,-63.5 672.17,-83.5 734.17,-83.5 734.17,-63.5 672.17,-63.5"/>
<text text-anchor="middle" x="703.17" y="-70.7" font-family="-apple-system, BlinkMacSystemFont, 'Segoe UI', Roboto, Oxygen, Ubuntu, Cantarell, 'Fira Sans', 'Droid Sans', 'Helvetica Neue', sans-serif" font-size="11.00">functional</text>
</a>
</g>
</g>
<!-- Node2&#45;&gt;Node5 -->
<g id="edge4" class="edge">
<title>Node2&#45;&gt;Node5</title>
<path fill="none" stroke="midnightblue" d="M535.66,-201.33C535.23,-184.29 536.8,-147.51 556.17,-126 583.11,-96.08 628.44,-83.54 661.65,-78.29"/>
<polygon fill="midnightblue" stroke="midnightblue" points="662.56,-81.7 671.97,-76.83 661.58,-74.77 662.56,-81.7"/>
</g>
<!-- Node6 -->
<g id="node6" class="node">
<title>Node6</title>
<g id="a_node6"><a xlink:title=" ">
<polygon fill="none" stroke="#bfbfbf" points="466.67,-132.5 466.67,-152.5 507.67,-152.5 507.67,-132.5 466.67,-132.5"/>
<text text-anchor="middle" x="487.17" y="-139.7" font-family="-apple-system, BlinkMacSystemFont, 'Segoe UI', Roboto, Oxygen, Ubuntu, Cantarell, 'Fira Sans', 'Droid Sans', 'Helvetica Neue', sans-serif" font-size="11.00">limits</text>
</a>
</g>
</g>
<!-- Node2&#45;&gt;Node6 -->
<g id="edge5" class="edge">
<title>Node2&#45;&gt;Node6</title>
<path fill="none" stroke="midnightblue" d="M529.56,-201.46C522,-191.13 509.46,-173.97 499.97,-161"/>
<polygon fill="midnightblue" stroke="midnightblue" points="502.71,-158.83 493.99,-152.82 497.06,-162.96 502.71,-158.83"/>
</g>
<!-- Node7 -->
<g id="node7" class="node">
<title>Node7</title>
<g id="a_node7"><a xlink:title=" ">
<polygon fill="none" stroke="#bfbfbf" points="1016.17,-63.5 1016.17,-83.5 1072.17,-83.5 1072.17,-63.5 1016.17,-63.5"/>
<text text-anchor="middle" x="1044.17" y="-70.7" font-family="-apple-system, BlinkMacSystemFont, 'Segoe UI', Roboto, Oxygen, Ubuntu, Cantarell, 'Fira Sans', 'Droid Sans', 'Helvetica Neue', sans-serif" font-size="11.00">memory</text>
</a>
</g>
</g>
<!-- Node2&#45;&gt;Node7 -->
<g id="edge6" class="edge">
<title>Node2&#45;&gt;Node7</title>
<path fill="none" stroke="midnightblue" d="M601.74,-208.85C676.03,-205.26 799.83,-194 900.17,-159 947.87,-142.36 997.37,-109.21 1024.1,-89.74"/>
<polygon fill="midnightblue" stroke="midnightblue" points="1026.3,-92.47 1032.26,-83.71 1022.14,-86.84 1026.3,-92.47"/>
</g>
<!-- Node8 -->
<g id="node8" class="node">
<title>Node8</title>
<g id="a_node8"><a xlink:title=" ">
<polygon fill="none" stroke="#bfbfbf" points="944.17,-63.5 944.17,-83.5 998.17,-83.5 998.17,-63.5 944.17,-63.5"/>
<text text-anchor="middle" x="971.17" y="-70.7" font-family="-apple-system, BlinkMacSystemFont, 'Segoe UI', Roboto, Oxygen, Ubuntu, Cantarell, 'Fira Sans', 'Droid Sans', 'Helvetica Neue', sans-serif" font-size="11.00">optional</text>
</a>
</g>
</g>
<!-- Node2&#45;&gt;Node8 -->
<g id="edge7" class="edge">
<title>Node2&#45;&gt;Node8</title>
<path fill="none" stroke="midnightblue" d="M601.68,-209.53C669.25,-206.4 776.41,-195.45 861.17,-159 898.89,-142.78 935.16,-110.68 955.18,-91.05"/>
<polygon fill="midnightblue" stroke="midnightblue" points="957.91,-93.27 962.49,-83.72 952.95,-88.33 957.91,-93.27"/>
</g>
<!-- Node9 -->
<g id="node9" class="node">
<title>Node9</title>
<g id="a_node9"><a xlink:title=" ">
<polygon fill="none" stroke="#bfbfbf" points="564.67,-132.5 564.67,-152.5 649.67,-152.5 649.67,-132.5 564.67,-132.5"/>
<text text-anchor="middle" x="607.17" y="-139.7" font-family="-apple-system, BlinkMacSystemFont, 'Segoe UI', Roboto, Oxygen, Ubuntu, Cantarell, 'Fira Sans', 'Droid Sans', 'Helvetica Neue', sans-serif" font-size="11.00">shared_mutex</text>
</a>
</g>
</g>
<!-- Node2&#45;&gt;Node9 -->
<g id="edge8" class="edge">
<title>Node2&#45;&gt;Node9</title>
<path fill="none" stroke="midnightblue" d="M545.74,-201.46C557.01,-190.83 575.93,-172.98 589.8,-159.89"/>
<polygon fill="midnightblue" stroke="midnightblue" points="592.42,-162.23 597.29,-152.82 587.61,-157.14 592.42,-162.23"/>
</g>
<!-- Node10 -->
<g id="node10" class="node">
<title>Node10</title>
<g id="a_node10"><a xlink:title=" ">
<polygon fill="none" stroke="#bfbfbf" points="972.67,-0.5 972.67,-20.5 1015.67,-20.5 1015.67,-0.5 972.67,-0.5"/>
<text text-anchor="middle" x="994.17" y="-7.7" font-family="-apple-system, BlinkMacSystemFont, 'Segoe UI', Roboto, Oxygen, Ubuntu, Cantarell, 'Fira Sans', 'Droid Sans', 'Helvetica Neue', sans-serif" font-size="11.00">string</text>
</a>
</g>
</g>
<!-- Node2&#45;&gt;Node10 -->
<g id="edge9" class="edge">
<title>Node2&#45;&gt;Node10</title>
<path fill="none" stroke="midnightblue" d="M470.45,-208.89C336.4,-204.92 41.48,-192.44 11.17,-159 1.32,-148.13 3.18,-138.3 11.17,-126 52.24,-62.76 92.87,-74.69 166.17,-57 321.35,-19.54 829.02,-12.84 962.03,-11.71"/>
<polygon fill="midnightblue" stroke="midnightblue" points="962.37,-15.21 972.34,-11.63 962.32,-8.21 962.37,-15.21"/>
</g>
<!-- Node11 -->
<g id="node11" class="node">
<title>Node11</title>
<g id="a_node11"><a xlink:title=" ">
<polygon fill="none" stroke="#bfbfbf" points="20.67,-132.5 20.67,-152.5 67.67,-152.5 67.67,-132.5 20.67,-132.5"/>
<text text-anchor="middle" x="44.17" y="-139.7" font-family="-apple-system, BlinkMacSystemFont, 'Segoe UI', Roboto, Oxygen, Ubuntu, Cantarell, 'Fira Sans', 'Droid Sans', 'Helvetica Neue', sans-serif" font-size="11.00">thread</text>
</a>
</g>
</g>
<!-- Node2&#45;&gt;Node11 -->
<g id="edge10" class="edge">
<title>Node2&#45;&gt;Node11</title>
<path fill="none" stroke="midnightblue" d="M470.5,-208.68C381.3,-204.94 217.44,-193.56 82.17,-159 79.16,-158.23 76.07,-157.27 73.02,-156.22"/>
<polygon fill="midnightblue" stroke="midnightblue" points="74.13,-152.89 63.54,-152.6 71.64,-159.43 74.13,-152.89"/>
</g>
<!-- Node12 -->
<g id="node12" class="node">
<title>Node12</title>
<g id="a_node12"><a xlink:title=" ">
<polygon fill="none" stroke="#bfbfbf" points="1090.17,-63.5 1090.17,-83.5 1156.17,-83.5 1156.17,-63.5 1090.17,-63.5"/>
<text text-anchor="middle" x="1123.17" y="-70.7" font-family="-apple-system, BlinkMacSystemFont, 'Segoe UI', Roboto, Oxygen, Ubuntu, Cantarell, 'Fira Sans', 'Droid Sans', 'Helvetica Neue', sans-serif" font-size="11.00">type_traits</text>
</a>
</g>
</g>
<!-- Node2&#45;&gt;Node12 -->
<g id="edge11" class="edge">
<title>Node2&#45;&gt;Node12</title>
<path fill="none" stroke="midnightblue" d="M601.86,-206.23C759.87,-195.8 1148.82,-169.16 1158.17,-159 1176.06,-139.56 1155.91,-109.7 1139.61,-91.17"/>
<polygon fill="midnightblue" stroke="midnightblue" points="1142.12,-88.73 1132.76,-83.76 1136.98,-93.48 1142.12,-88.73"/>
</g>
<!-- Node13 -->
<g id="node13" class="node">
<title>Node13</title>
<g id="a_node13"><a xlink:title=" ">
<polygon fill="none" stroke="#bfbfbf" points="124.67,-132.5 124.67,-152.5 217.67,-152.5 217.67,-132.5 124.67,-132.5"/>
<text text-anchor="middle" x="171.17" y="-139.7" font-family="-apple-system, BlinkMacSystemFont, 'Segoe UI', Roboto, Oxygen, Ubuntu, Cantarell, 'Fira Sans', 'Droid Sans', 'Helvetica Neue', sans-serif" font-size="11.00">unordered_map</text>
</a>
</g>
</g>
<!-- Node2&#45;&gt;Node13 -->
<g id="edge12" class="edge">
<title>Node2&#45;&gt;Node13</title>
<path fill="none" stroke="midnightblue" d="M473.88,-201.46C412.24,-192.16 315.31,-176.58 232.17,-159 226.41,-157.78 220.39,-156.39 214.45,-154.96"/>
<polygon fill="midnightblue" stroke="midnightblue" points="215.16,-151.53 204.61,-152.52 213.48,-158.32 215.16,-151.53"/>
</g>
<!-- Node14 -->
<g id="node14" class="node">
<title>Node14</title>
<g id="a_node14"><a xlink:title=" ">
<polygon fill="none" stroke="#bfbfbf" points="437.67,-63.5 437.67,-83.5 486.67,-83.5 486.67,-63.5 437.67,-63.5"/>
<text text-anchor="middle" x="462.17" y="-70.7" font-family="-apple-system, BlinkMacSystemFont, 'Segoe UI', Roboto, Oxygen, Ubuntu, Cantarell, 'Fira Sans', 'Droid Sans', 'Helvetica Neue', sans-serif" font-size="11.00">variant</text>
</a>
</g>
</g>
<!-- Node2&#45;&gt;Node14 -->
<g id="edge13" class="edge">
<title>Node2&#45;&gt;Node14</title>
<path fill="none" stroke="midnightblue" d="M470.38,-207.17C357.87,-200.79 138.29,-185.12 115.17,-159 105.45,-148.02 105.59,-137.11 115.17,-126 125.36,-114.19 341.64,-88.28 427.49,-78.42"/>
<polygon fill="midnightblue" stroke="midnightblue" points="427.99,-81.88 437.53,-77.27 427.2,-74.93 427.99,-81.88"/>
</g>
<!-- Node15 -->
<g id="node15" class="node">
<title>Node15</title>
<g id="a_node15"><a xlink:title=" ">
<polygon fill="none" stroke="#bfbfbf" points="511.17,-63.5 511.17,-83.5 557.17,-83.5 557.17,-63.5 511.17,-63.5"/>
<text text-anchor="middle" x="534.17" y="-70.7" font-family="-apple-system, BlinkMacSystemFont, 'Segoe UI', Roboto, Oxygen, Ubuntu, Cantarell, 'Fira Sans', 'Droid Sans', 'Helvetica Neue', sans-serif" font-size="11.00">vector</text>
</a>
</g>
</g>
<!-- Node2&#45;&gt;Node15 -->
<g id="edge14" class="edge">
<title>Node2&#45;&gt;Node15</title>
<path fill="none" stroke="midnightblue" d="M510.8,-201.37C492.54,-193.3 469.24,-179.58 458.17,-159 451.22,-146.08 451.3,-138.96 458.17,-126 467.41,-108.58 485.47,-95.97 501.66,-87.59"/>
<polygon fill="midnightblue" stroke="midnightblue" points="503.41,-90.63 510.9,-83.14 500.37,-84.32 503.41,-90.63"/>
</g>
<!-- Node16 -->
<g id="node16" class="node">
<title>Node16</title>
<g id="a_node16"><a xlink:href="IAdaptor_8hpp.html" target="_top" xlink:title=" ">
<polygon fill="none" stroke="black" points="668.17,-132.5 668.17,-152.5 830.17,-152.5 830.17,-132.5 668.17,-132.5"/>
<text text-anchor="middle" x="749.17" y="-139.7" font-family="-apple-system, BlinkMacSystemFont, 'Segoe UI', Roboto, Oxygen, Ubuntu, Cantarell, 'Fira Sans', 'Droid Sans', 'Helvetica Neue', sans-serif" font-size="11.00">libmirai/Adaptors/IAdaptor.hpp</text>
</a>
</g>
</g>
<!-- Node2&#45;&gt;Node16 -->
<g id="edge15" class="edge">
<title>Node2&#45;&gt;Node16</title>
<path fill="none" stroke="midnightblue" d="M564.89,-201.46C602.53,-189.63 668.66,-168.83 710.62,-155.63"/>
<polygon fill="midnightblue" stroke="midnightblue" points="711.73,-158.95 720.22,-152.61 709.63,-152.27 711.73,-158.95"/>
</g>
<!-- Node17 -->
<g id="node17" class="node">
<title>Node17</title>
<g id="a_node17"><a xlink:href="Events_8hpp.html" target="_top" xlink:title=" ">
<polygon fill="none" stroke="red" points="175.17,-63.5 175.17,-83.5 317.17,-83.5 317.17,-63.5 175.17,-63.5"/>
<text text-anchor="middle" x="246.17" y="-70.7" font-family="-apple-system, BlinkMacSystemFont, 'Segoe UI', Roboto, Oxygen, Ubuntu, Cantarell, 'Fira Sans', 'Droid Sans', 'Helvetica Neue', sans-serif" font-size="11.00">libmirai/Events/Events.hpp</text>
</a>
</g>
</g>
<!-- Node2&#45;&gt;Node17 -->
<g id="edge21" class="edge">
<title>Node2&#45;&gt;Node17</title>
<path fill="none" stroke="midnightblue" d="M470.47,-206.18C399.84,-200.17 293.83,-186.72 265.17,-159 247.73,-142.13 244.73,-112.97 244.89,-93.7"/>
<polygon fill="midnightblue" stroke="midnightblue" points="248.39,-93.79 245.26,-83.67 241.39,-93.53 248.39,-93.79"/>
</g>
<!-- Node64 -->
<g id="node18" class="node">
<title>Node64</title>
<g id="a_node18"><a xlink:href="Types_8hpp.html" target="_top" xlink:title=" ">
<polygon fill="none" stroke="red" points="790.17,-63.5 790.17,-83.5 926.17,-83.5 926.17,-63.5 790.17,-63.5"/>
<text text-anchor="middle" x="858.17" y="-70.7" font-family="-apple-system, BlinkMacSystemFont, 'Segoe UI', Roboto, Oxygen, Ubuntu, Cantarell, 'Fira Sans', 'Droid Sans', 'Helvetica Neue', sans-serif" font-size="11.00">libmirai/Types/Types.hpp</text>
</a>
</g>
</g>
<!-- Node2&#45;&gt;Node64 -->
<g id="edge30" class="edge">
<title>Node2&#45;&gt;Node64</title>
<path fill="none" stroke="midnightblue" d="M601.87,-207.7C680.54,-202.97 805.87,-190.58 839.17,-159 856.77,-142.31 859.73,-113.09 859.52,-93.77"/>
<polygon fill="midnightblue" stroke="midnightblue" points="863.01,-93.56 859.11,-83.71 856.02,-93.84 863.01,-93.56"/>
</g>
<!-- Node27 -->
<g id="node19" class="node">
<title>Node27</title>
<g id="a_node19"><a xlink:href="MessageChain_8hpp.html" target="_top" xlink:title=" ">
<polygon fill="none" stroke="red" points="999.67,-126.5 999.67,-158.5 1148.67,-158.5 1148.67,-126.5 999.67,-126.5"/>
<text text-anchor="start" x="1007.67" y="-145.7" font-family="-apple-system, BlinkMacSystemFont, 'Segoe UI', Roboto, Oxygen, Ubuntu, Cantarell, 'Fira Sans', 'Droid Sans', 'Helvetica Neue', sans-serif" font-size="11.00">libmirai/Messages/Message</text>
<text text-anchor="middle" x="1074.17" y="-133.7" font-family="-apple-system, BlinkMacSystemFont, 'Segoe UI', Roboto, Oxygen, Ubuntu, Cantarell, 'Fira Sans', 'Droid Sans', 'Helvetica Neue', sans-serif" font-size="11.00">Chain.hpp</text>
</a>
</g>
</g>
<!-- Node2&#45;&gt;Node27 -->
<g id="edge22" class="edge">
<title>Node2&#45;&gt;Node27</title>
<path fill="none" stroke="midnightblue" d="M601.87,-202.32C699.22,-190.19 881.81,-167.46 989.21,-154.08"/>
<polygon fill="midnightblue" stroke="midnightblue" points="989.87,-157.52 999.36,-152.82 989.01,-150.58 989.87,-157.52"/>
</g>
<!-- Node66 -->
<g id="node21" class="node">
<title>Node66</title>
<g id="a_node21"><a xlink:href="Logger_8hpp.html" target="_top" xlink:title=" ">
<polygon fill="none" stroke="red" points="1242.17,-132.5 1242.17,-152.5 1374.17,-152.5 1374.17,-132.5 1242.17,-132.5"/>
<text text-anchor="middle" x="1308.17" y="-139.7" font-family="-apple-system, BlinkMacSystemFont, 'Segoe UI', Roboto, Oxygen, Ubuntu, Cantarell, 'Fira Sans', 'Droid Sans', 'Helvetica Neue', sans-serif" font-size="11.00">libmirai/Utils/Logger.hpp</text>
</a>
</g>
</g>
<!-- Node2&#45;&gt;Node66 -->
<g id="edge31" class="edge">
<title>Node2&#45;&gt;Node66</title>
<path fill="none" stroke="midnightblue" d="M601.8,-206.06C762.52,-195.11 1167.16,-167.15 1228.17,-159 1237.33,-157.78 1247.03,-156.17 1256.4,-154.45"/>
<polygon fill="midnightblue" stroke="midnightblue" points="1257.21,-157.86 1266.39,-152.55 1255.91,-150.98 1257.21,-157.86"/>
</g>
<!-- Node16&#45;&gt;Node5 -->
<g id="edge16" class="edge">
<title>Node16&#45;&gt;Node5</title>
<path fill="none" stroke="midnightblue" d="M742.96,-132.46C735.94,-122.23 724.32,-105.3 715.44,-92.38"/>
<polygon fill="midnightblue" stroke="midnightblue" points="718.11,-90.09 709.57,-83.82 712.34,-94.05 718.11,-90.09"/>
</g>
<!-- Node16&#45;&gt;Node10 -->
<g id="edge17" class="edge">
<title>Node16&#45;&gt;Node10</title>
<path fill="none" stroke="midnightblue" d="M749.86,-132.25C751.68,-114.74 758.2,-76.73 781.17,-57 808.07,-33.89 909.91,-20.22 962.42,-14.56"/>
<polygon fill="midnightblue" stroke="midnightblue" points="962.95,-18.03 972.53,-13.51 962.22,-11.06 962.95,-18.03"/>
</g>
<!-- Node16&#45;&gt;Node14 -->
<g id="edge18" class="edge">
<title>Node16&#45;&gt;Node14</title>
<path fill="none" stroke="midnightblue" d="M701.15,-132.46C640.27,-120.83 538.82,-100.84 502.17,-90 499.19,-89.12 496.13,-88.12 493.08,-87.05"/>
<polygon fill="midnightblue" stroke="midnightblue" points="494.13,-83.71 483.53,-83.52 491.7,-90.27 494.13,-83.71"/>
</g>
<!-- Node16&#45;&gt;Node17 -->
<g id="edge19" class="edge">
<title>Node16&#45;&gt;Node17</title>
<path fill="none" stroke="midnightblue" d="M699.25,-132.48C686.22,-130.24 672.18,-127.93 659.17,-126 544.24,-108.95 410.75,-93 327.36,-83.5"/>
<polygon fill="midnightblue" stroke="midnightblue" points="327.52,-79.99 317.19,-82.34 326.73,-86.95 327.52,-79.99"/>
</g>
<!-- Node16&#45;&gt;Node64 -->
<g id="edge20" class="edge">
<title>Node16&#45;&gt;Node64</title>
<path fill="none" stroke="midnightblue" d="M763.87,-132.46C782.07,-121.28 813.3,-102.08 834.8,-88.86"/>
<polygon fill="midnightblue" stroke="midnightblue" points="836.67,-91.83 843.35,-83.61 833,-85.86 836.67,-91.83"/>
</g>
<!-- Node27&#45;&gt;Node5 -->
<g id="edge23" class="edge">
<title>Node27&#45;&gt;Node5</title>
<path fill="none" stroke="midnightblue" d="M999.42,-128.83C940.16,-118.68 855.29,-103.88 781.17,-90 769.2,-87.76 756.23,-85.22 744.36,-82.86"/>
<polygon fill="midnightblue" stroke="midnightblue" points="744.75,-79.37 734.26,-80.84 743.38,-86.24 744.75,-79.37"/>
</g>
<!-- Node27&#45;&gt;Node7 -->
<g id="edge24" class="edge">
<title>Node27&#45;&gt;Node7</title>
<path fill="none" stroke="midnightblue" d="M1067.36,-126.3C1062.95,-116.45 1057.18,-103.56 1052.5,-93.11"/>
<polygon fill="midnightblue" stroke="midnightblue" points="1055.55,-91.36 1048.27,-83.66 1049.16,-94.22 1055.55,-91.36"/>
</g>
<!-- Node27&#45;&gt;Node8 -->
<g id="edge25" class="edge">
<title>Node27&#45;&gt;Node8</title>
<path fill="none" stroke="midnightblue" d="M1051.05,-126.46C1033.94,-115.33 1010.74,-100.24 993.75,-89.19"/>
<polygon fill="midnightblue" stroke="midnightblue" points="995.32,-86.04 985.03,-83.52 991.51,-91.9 995.32,-86.04"/>
</g>
<!-- Node27&#45;&gt;Node12 -->
<g id="edge26" class="edge">
<title>Node27&#45;&gt;Node12</title>
<path fill="none" stroke="midnightblue" d="M1085.29,-126.3C1092.79,-116.04 1102.7,-102.49 1110.51,-91.81"/>
<polygon fill="midnightblue" stroke="midnightblue" points="1113.39,-93.8 1116.47,-83.66 1107.74,-89.67 1113.39,-93.8"/>
</g>
<!-- Node27&#45;&gt;Node15 -->
<g id="edge27" class="edge">
<title>Node27&#45;&gt;Node15</title>
<path fill="none" stroke="midnightblue" d="M999.65,-132.25C880.76,-117.5 652.87,-89.23 567.53,-78.64"/>
<polygon fill="midnightblue" stroke="midnightblue" points="567.73,-75.14 557.38,-77.38 566.87,-82.08 567.73,-75.14"/>
</g>
<!-- Node31 -->
<g id="node20" class="node">
<title>Node31</title>
<g id="a_node20"><a xlink:href="Exceptions_8hpp.html" target="_top" xlink:title=" ">
<polygon fill="none" stroke="red" points="1174.67,-57.5 1174.67,-89.5 1279.67,-89.5 1279.67,-57.5 1174.67,-57.5"/>
<text text-anchor="start" x="1182.67" y="-76.7" font-family="-apple-system, BlinkMacSystemFont, 'Segoe UI', Roboto, Oxygen, Ubuntu, Cantarell, 'Fira Sans', 'Droid Sans', 'Helvetica Neue', sans-serif" font-size="11.00">libmirai/Exceptions</text>
<text text-anchor="middle" x="1227.17" y="-64.7" font-family="-apple-system, BlinkMacSystemFont, 'Segoe UI', Roboto, Oxygen, Ubuntu, Cantarell, 'Fira Sans', 'Droid Sans', 'Helvetica Neue', sans-serif" font-size="11.00">/Exceptions.hpp</text>
</a>
</g>
</g>
<!-- Node27&#45;&gt;Node31 -->
<g id="edge28" class="edge">
<title>Node27&#45;&gt;Node31</title>
<path fill="none" stroke="midnightblue" d="M1108.5,-126.46C1130.67,-116.76 1159.71,-104.04 1183.51,-93.62"/>
<polygon fill="midnightblue" stroke="midnightblue" points="1184.93,-96.82 1192.68,-89.6 1182.12,-90.41 1184.93,-96.82"/>
</g>
<!-- Node31&#45;&gt;Node10 -->
<g id="edge29" class="edge">
<title>Node31&#45;&gt;Node10</title>
<path fill="none" stroke="midnightblue" d="M1174.59,-58.73C1128.83,-46.75 1064.01,-29.78 1025.8,-19.78"/>
<polygon fill="midnightblue" stroke="midnightblue" points="1026.33,-16.3 1015.77,-17.16 1024.56,-23.07 1026.33,-16.3"/>
</g>
<!-- Node66&#45;&gt;Node10 -->
<g id="edge32" class="edge">
<title>Node66&#45;&gt;Node10</title>
<path fill="none" stroke="midnightblue" d="M1309.14,-132.27C1310.41,-114.78 1310.38,-76.81 1289.17,-57 1251.51,-21.83 1094.35,-13.84 1026.07,-12.03"/>
<polygon fill="midnightblue" stroke="midnightblue" points="1025.98,-8.53 1015.9,-11.79 1025.82,-15.53 1025.98,-8.53"/>
</g>
<!-- Node66&#45;&gt;Node12 -->
<g id="edge33" class="edge">
<title>Node66&#45;&gt;Node12</title>
<path fill="none" stroke="midnightblue" d="M1283.22,-132.46C1250.94,-120.78 1194.55,-100.35 1158.04,-87.13"/>
<polygon fill="midnightblue" stroke="midnightblue" points="1158.91,-83.72 1148.31,-83.61 1156.52,-90.3 1158.91,-83.72"/>
</g>
<!-- Node70&#45;&gt;Node7 -->
<g id="edge36" class="edge">
<title>Node70&#45;&gt;Node7</title>
<path fill="none" stroke="midnightblue" d="M921.3,-201.25C1008.84,-189.04 1150.53,-168.04 1158.17,-159 1167.64,-147.8 1166.12,-138.32 1158.17,-126 1155.71,-122.19 1107.94,-101.43 1075.02,-87.46"/>
<polygon fill="midnightblue" stroke="midnightblue" points="1076.34,-84.22 1065.77,-83.54 1073.61,-90.67 1076.34,-84.22"/>
</g>
<!-- Node70&#45;&gt;Node16 -->
<g id="edge37" class="edge">
<title>Node70&#45;&gt;Node16</title>
<path fill="none" stroke="midnightblue" d="M829.83,-195.46C812.55,-184.33 789.12,-169.24 771.97,-158.19"/>
<polygon fill="midnightblue" stroke="midnightblue" points="773.47,-154.99 763.17,-152.52 769.68,-160.88 773.47,-154.99"/>
</g>
<!-- Node71&#45;&gt;Node17 -->
<g id="edge39" class="edge">
<title>Node71&#45;&gt;Node17</title>
<path fill="none" stroke="midnightblue" d="M975.61,-270.44C874.24,-264.46 650.1,-249.87 462.17,-228 260.75,-204.56 143.27,-312.85 11.17,-159 -36.24,-103.79 79.55,-84.65 164.91,-78.02"/>
<polygon fill="midnightblue" stroke="midnightblue" points="165.18,-81.51 174.89,-77.29 164.66,-74.53 165.18,-81.51"/>
</g>
<!-- Node71&#45;&gt;Node64 -->
<g id="edge43" class="edge">
<title>Node71&#45;&gt;Node64</title>
<path fill="none" stroke="midnightblue" d="M1022.33,-264.43C995.58,-233.48 907.6,-131.7 872.66,-91.27"/>
<polygon fill="midnightblue" stroke="midnightblue" points="875.24,-88.9 866.05,-83.62 869.94,-93.48 875.24,-88.9"/>
</g>
<!-- Node71&#45;&gt;Node31 -->
<g id="edge40" class="edge">
<title>Node71&#45;&gt;Node31</title>
<path fill="none" stroke="midnightblue" d="M1083.56,-264.48C1173.78,-247.97 1349.87,-209.88 1383.17,-159 1409.85,-118.24 1344.02,-95.59 1289.8,-84.23"/>
<polygon fill="midnightblue" stroke="midnightblue" points="1290.33,-80.77 1279.84,-82.24 1288.96,-87.63 1290.33,-80.77"/>
</g>
<!-- Node71&#45;&gt;Node66 -->
<g id="edge44" class="edge">
<title>Node71&#45;&gt;Node66</title>
<path fill="none" stroke="midnightblue" d="M1074.28,-264.48C1106.06,-257.06 1149.45,-244.98 1185.17,-228 1225,-209.06 1266.26,-177.94 1289.42,-159.22"/>
<polygon fill="midnightblue" stroke="midnightblue" points="1291.86,-161.75 1297.37,-152.7 1287.42,-156.33 1291.86,-161.75"/>
</g>
<!-- Node72 -->
<g id="node25" class="node">
<title>Node72</title>
<g id="a_node25"><a xlink:href="Messages_8hpp.html" target="_top" xlink:title=" ">
<polygon fill="none" stroke="red" points="1000.67,-201.5 1000.67,-221.5 1175.67,-221.5 1175.67,-201.5 1000.67,-201.5"/>
<text text-anchor="middle" x="1088.17" y="-208.7" font-family="-apple-system, BlinkMacSystemFont, 'Segoe UI', Roboto, Oxygen, Ubuntu, Cantarell, 'Fira Sans', 'Droid Sans', 'Helvetica Neue', sans-serif" font-size="11.00">libmirai/Messages/Messages.hpp</text>
</a>
</g>
</g>
<!-- Node71&#45;&gt;Node72 -->
<g id="edge41" class="edge">
<title>Node71&#45;&gt;Node72</title>
<path fill="none" stroke="midnightblue" d="M1038.73,-264.5C1047.64,-255.13 1061.78,-240.25 1072.67,-228.8"/>
<polygon fill="midnightblue" stroke="midnightblue" points="1075.22,-231.2 1079.57,-221.54 1070.15,-226.37 1075.22,-231.2"/>
</g>
<!-- Node72&#45;&gt;Node27 -->
<g id="edge42" class="edge">
<title>Node72&#45;&gt;Node27</title>
<path fill="none" stroke="midnightblue" d="M1086.28,-201.46C1084.52,-193.04 1081.81,-180.08 1079.4,-168.55"/>
<polygon fill="midnightblue" stroke="midnightblue" points="1082.78,-167.61 1077.31,-158.53 1075.93,-169.04 1082.78,-167.61"/>
</g>
</g>
</svg>
