<?xml version="1.0" encoding="UTF-8" standalone="no"?>
<!DOCTYPE svg PUBLIC "-//W3C//DTD SVG 1.1//EN"
 "http://www.w3.org/Graphics/SVG/1.1/DTD/svg11.dtd">
<!-- Generated by graphviz version 3.0.0 (20221109.1736)
 -->
<!-- Title: libmirai/models/libmirai/Events/MiraiClientEvents.hpp Pages: 1 -->
<svg width="726pt" height="224pt"
 viewBox="0.00 0.00 725.81 224.00" xmlns="http://www.w3.org/2000/svg" xmlns:xlink="http://www.w3.org/1999/xlink">
<g id="graph0" class="graph" transform="scale(1 1) rotate(0) translate(4 220)">
<title>libmirai/models/libmirai/Events/MiraiClientEvents.hpp</title>
<!-- Node1 -->
<g id="node1" class="node">
<title>Node1</title>
<g id="a_node1"><a xlink:title=" ">
<polygon fill="#bfbfbf" stroke="black" points="156,-183.5 156,-215.5 314,-215.5 314,-183.5 156,-183.5"/>
<text text-anchor="start" x="164" y="-202.7" font-family="-apple-system, BlinkMacSystemFont, 'Segoe UI', Roboto, Oxygen, Ubuntu, Cantarell, 'Fira Sans', 'Droid Sans', 'Helvetica Neue', sans-serif" font-size="11.00">libmirai/models/libmirai</text>
<text text-anchor="middle" x="235" y="-190.7" font-family="-apple-system, BlinkMacSystemFont, 'Segoe UI', Roboto, Oxygen, Ubuntu, Cantarell, 'Fira Sans', 'Droid Sans', 'Helvetica Neue', sans-serif" font-size="11.00">/Events/MiraiClientEvents.hpp</text>
</a>
</g>
</g>
<!-- Node2 -->
<g id="node2" class="node">
<title>Node2</title>
<g id="a_node2"><a xlink:title=" ">
<polygon fill="none" stroke="#bfbfbf" points="0,-57.5 0,-77.5 62,-77.5 62,-57.5 0,-57.5"/>
<text text-anchor="middle" x="31" y="-64.7" font-family="-apple-system, BlinkMacSystemFont, 'Segoe UI', Roboto, Oxygen, Ubuntu, Cantarell, 'Fira Sans', 'Droid Sans', 'Helvetica Neue', sans-serif" font-size="11.00">exception</text>
</a>
</g>
</g>
<!-- Node1&#45;&gt;Node2 -->
<g id="edge1" class="edge">
<title>Node1&#45;&gt;Node2</title>
<path fill="none" stroke="midnightblue" d="M155.81,-186.63C109.2,-177.95 56.44,-164.63 41,-147 26.9,-130.89 26.26,-105.3 27.92,-87.74"/>
<polygon fill="midnightblue" stroke="midnightblue" points="31.43,-87.91 29.22,-77.55 24.48,-87.02 31.43,-87.91"/>
</g>
<!-- Node3 -->
<g id="node3" class="node">
<title>Node3</title>
<g id="a_node3"><a xlink:title=" ">
<polygon fill="none" stroke="#bfbfbf" points="50,-120.5 50,-140.5 88,-140.5 88,-120.5 50,-120.5"/>
<text text-anchor="middle" x="69" y="-127.7" font-family="-apple-system, BlinkMacSystemFont, 'Segoe UI', Roboto, Oxygen, Ubuntu, Cantarell, 'Fira Sans', 'Droid Sans', 'Helvetica Neue', sans-serif" font-size="11.00">map</text>
</a>
</g>
</g>
<!-- Node1&#45;&gt;Node3 -->
<g id="edge2" class="edge">
<title>Node1&#45;&gt;Node3</title>
<path fill="none" stroke="midnightblue" d="M189.56,-183.46C162.31,-173.96 127.2,-160.9 97,-147 95.84,-146.46 94.65,-145.9 93.47,-145.31"/>
<polygon fill="midnightblue" stroke="midnightblue" points="94.97,-142.15 84.49,-140.61 91.72,-148.35 94.97,-142.15"/>
</g>
<!-- Node4 -->
<g id="node4" class="node">
<title>Node4</title>
<g id="a_node4"><a xlink:title=" ">
<polygon fill="none" stroke="#bfbfbf" points="489.5,-0.5 489.5,-20.5 532.5,-20.5 532.5,-0.5 489.5,-0.5"/>
<text text-anchor="middle" x="511" y="-7.7" font-family="-apple-system, BlinkMacSystemFont, 'Segoe UI', Roboto, Oxygen, Ubuntu, Cantarell, 'Fira Sans', 'Droid Sans', 'Helvetica Neue', sans-serif" font-size="11.00">string</text>
</a>
</g>
</g>
<!-- Node1&#45;&gt;Node4 -->
<g id="edge3" class="edge">
<title>Node1&#45;&gt;Node4</title>
<path fill="none" stroke="midnightblue" d="M314.35,-194.64C416.75,-188.61 588.46,-174.67 645,-147 683.95,-127.93 697.4,-118.07 714,-78 717.57,-69.38 719.83,-64.29 714,-57 692.93,-30.68 594.6,-18.55 542.93,-13.91"/>
<polygon fill="midnightblue" stroke="midnightblue" points="542.91,-10.4 532.65,-13.03 542.32,-17.37 542.91,-10.4"/>
</g>
<!-- Node5 -->
<g id="node5" class="node">
<title>Node5</title>
<g id="a_node5"><a xlink:href="Exceptions_8hpp.html" target="_top" xlink:title=" ">
<polygon fill="none" stroke="black" points="106.5,-114.5 106.5,-146.5 211.5,-146.5 211.5,-114.5 106.5,-114.5"/>
<text text-anchor="start" x="114.5" y="-133.7" font-family="-apple-system, BlinkMacSystemFont, 'Segoe UI', Roboto, Oxygen, Ubuntu, Cantarell, 'Fira Sans', 'Droid Sans', 'Helvetica Neue', sans-serif" font-size="11.00">libmirai/Exceptions</text>
<text text-anchor="middle" x="159" y="-121.7" font-family="-apple-system, BlinkMacSystemFont, 'Segoe UI', Roboto, Oxygen, Ubuntu, Cantarell, 'Fira Sans', 'Droid Sans', 'Helvetica Neue', sans-serif" font-size="11.00">/Exceptions.hpp</text>
</a>
</g>
</g>
<!-- Node1&#45;&gt;Node5 -->
<g id="edge4" class="edge">
<title>Node1&#45;&gt;Node5</title>
<path fill="none" stroke="midnightblue" d="M217.75,-183.3C207.75,-174.47 194.97,-163.21 183.88,-153.44"/>
<polygon fill="midnightblue" stroke="midnightblue" points="185.99,-150.63 176.18,-146.64 181.36,-155.88 185.99,-150.63"/>
</g>
<!-- Node7 -->
<g id="node7" class="node">
<title>Node7</title>
<g id="a_node7"><a xlink:href="BasicTypes_8hpp.html" target="_top" xlink:title=" ">
<polygon fill="none" stroke="black" points="230,-120.5 230,-140.5 392,-140.5 392,-120.5 230,-120.5"/>
<text text-anchor="middle" x="311" y="-127.7" font-family="-apple-system, BlinkMacSystemFont, 'Segoe UI', Roboto, Oxygen, Ubuntu, Cantarell, 'Fira Sans', 'Droid Sans', 'Helvetica Neue', sans-serif" font-size="11.00">libmirai/Types/BasicTypes.hpp</text>
</a>
</g>
</g>
<!-- Node1&#45;&gt;Node7 -->
<g id="edge8" class="edge">
<title>Node1&#45;&gt;Node7</title>
<path fill="none" stroke="midnightblue" d="M252.25,-183.3C264.34,-172.63 280.49,-158.4 292.8,-147.55"/>
<polygon fill="midnightblue" stroke="midnightblue" points="295.42,-149.9 300.6,-140.66 290.79,-144.65 295.42,-149.9"/>
</g>
<!-- Node11 -->
<g id="node11" class="node">
<title>Node11</title>
<g id="a_node11"><a xlink:href="IEvent_8hpp.html" target="_top" xlink:title=" ">
<polygon fill="none" stroke="black" points="496,-120.5 496,-140.5 636,-140.5 636,-120.5 496,-120.5"/>
<text text-anchor="middle" x="566" y="-127.7" font-family="-apple-system, BlinkMacSystemFont, 'Segoe UI', Roboto, Oxygen, Ubuntu, Cantarell, 'Fira Sans', 'Droid Sans', 'Helvetica Neue', sans-serif" font-size="11.00">libmirai/Events/IEvent.hpp</text>
</a>
</g>
</g>
<!-- Node1&#45;&gt;Node11 -->
<g id="edge13" class="edge">
<title>Node1&#45;&gt;Node11</title>
<path fill="none" stroke="midnightblue" d="M309.28,-183.46C370.65,-171.04 456.35,-153.69 511.52,-142.53"/>
<polygon fill="midnightblue" stroke="midnightblue" points="512.34,-145.93 521.45,-140.52 510.95,-139.07 512.34,-145.93"/>
</g>
<!-- Node5&#45;&gt;Node2 -->
<g id="edge5" class="edge">
<title>Node5&#45;&gt;Node2</title>
<path fill="none" stroke="midnightblue" d="M127.36,-114.42C106.49,-104.48 79.4,-91.56 59.25,-81.96"/>
<polygon fill="midnightblue" stroke="midnightblue" points="60.51,-78.69 49.98,-77.55 57.5,-85.01 60.51,-78.69"/>
</g>
<!-- Node5&#45;&gt;Node4 -->
<g id="edge7" class="edge">
<title>Node5&#45;&gt;Node4</title>
<path fill="none" stroke="midnightblue" d="M138.45,-114.31C120.02,-98.89 98.12,-74.8 114,-57 138.21,-29.85 389.2,-16.65 479.15,-12.76"/>
<polygon fill="midnightblue" stroke="midnightblue" points="479.45,-16.25 489.29,-12.33 479.15,-9.26 479.45,-16.25"/>
</g>
<!-- Node6 -->
<g id="node6" class="node">
<title>Node6</title>
<g id="a_node6"><a xlink:title=" ">
<polygon fill="none" stroke="#bfbfbf" points="123,-57.5 123,-77.5 185,-77.5 185,-57.5 123,-57.5"/>
<text text-anchor="middle" x="154" y="-64.7" font-family="-apple-system, BlinkMacSystemFont, 'Segoe UI', Roboto, Oxygen, Ubuntu, Cantarell, 'Fira Sans', 'Droid Sans', 'Helvetica Neue', sans-serif" font-size="11.00">stdexcept</text>
</a>
</g>
</g>
<!-- Node5&#45;&gt;Node6 -->
<g id="edge6" class="edge">
<title>Node5&#45;&gt;Node6</title>
<path fill="none" stroke="midnightblue" d="M157.76,-114.42C157.1,-106.38 156.29,-96.39 155.58,-87.78"/>
<polygon fill="midnightblue" stroke="midnightblue" points="159.05,-87.23 154.74,-77.55 152.07,-87.8 159.05,-87.23"/>
</g>
<!-- Node7&#45;&gt;Node4 -->
<g id="edge11" class="edge">
<title>Node7&#45;&gt;Node4</title>
<path fill="none" stroke="midnightblue" d="M287.49,-120.44C257.11,-107.43 210.54,-82.25 232,-57 263.39,-20.07 412.41,-13.04 478.87,-11.76"/>
<polygon fill="midnightblue" stroke="midnightblue" points="479.23,-15.25 489.17,-11.59 479.12,-8.25 479.23,-15.25"/>
</g>
<!-- Node8 -->
<g id="node8" class="node">
<title>Node8</title>
<g id="a_node8"><a xlink:title=" ">
<polygon fill="none" stroke="#bfbfbf" points="301,-57.5 301,-77.5 351,-77.5 351,-57.5 301,-57.5"/>
<text text-anchor="middle" x="326" y="-64.7" font-family="-apple-system, BlinkMacSystemFont, 'Segoe UI', Roboto, Oxygen, Ubuntu, Cantarell, 'Fira Sans', 'Droid Sans', 'Helvetica Neue', sans-serif" font-size="11.00">chrono</text>
</a>
</g>
</g>
<!-- Node7&#45;&gt;Node8 -->
<g id="edge9" class="edge">
<title>Node7&#45;&gt;Node8</title>
<path fill="none" stroke="midnightblue" d="M313.21,-120.5C315.34,-111.85 318.62,-98.51 321.33,-87.5"/>
<polygon fill="midnightblue" stroke="midnightblue" points="324.79,-88.08 323.78,-77.54 317.99,-86.41 324.79,-88.08"/>
</g>
<!-- Node9 -->
<g id="node9" class="node">
<title>Node9</title>
<g id="a_node9"><a xlink:title=" ">
<polygon fill="none" stroke="#bfbfbf" points="369,-57.5 369,-77.5 411,-77.5 411,-57.5 369,-57.5"/>
<text text-anchor="middle" x="390" y="-64.7" font-family="-apple-system, BlinkMacSystemFont, 'Segoe UI', Roboto, Oxygen, Ubuntu, Cantarell, 'Fira Sans', 'Droid Sans', 'Helvetica Neue', sans-serif" font-size="11.00">ctime</text>
</a>
</g>
</g>
<!-- Node7&#45;&gt;Node9 -->
<g id="edge10" class="edge">
<title>Node7&#45;&gt;Node9</title>
<path fill="none" stroke="midnightblue" d="M322.66,-120.5C335.14,-110.86 355.18,-95.39 370.16,-83.82"/>
<polygon fill="midnightblue" stroke="midnightblue" points="372.52,-86.42 378.3,-77.54 368.24,-80.88 372.52,-86.42"/>
</g>
<!-- Node10 -->
<g id="node10" class="node">
<title>Node10</title>
<g id="a_node10"><a xlink:title=" ">
<polygon fill="none" stroke="#bfbfbf" points="241.5,-57.5 241.5,-77.5 282.5,-77.5 282.5,-57.5 241.5,-57.5"/>
<text text-anchor="middle" x="262" y="-64.7" font-family="-apple-system, BlinkMacSystemFont, 'Segoe UI', Roboto, Oxygen, Ubuntu, Cantarell, 'Fira Sans', 'Droid Sans', 'Helvetica Neue', sans-serif" font-size="11.00">utility</text>
</a>
</g>
</g>
<!-- Node7&#45;&gt;Node10 -->
<g id="edge12" class="edge">
<title>Node7&#45;&gt;Node10</title>
<path fill="none" stroke="midnightblue" d="M303.77,-120.5C296.39,-111.31 284.75,-96.82 275.63,-85.47"/>
<polygon fill="midnightblue" stroke="midnightblue" points="278.25,-83.14 269.26,-77.54 272.79,-87.53 278.25,-83.14"/>
</g>
<!-- Node11&#45;&gt;Node4 -->
<g id="edge15" class="edge">
<title>Node11&#45;&gt;Node4</title>
<path fill="none" stroke="midnightblue" d="M576.42,-120.26C591.01,-106.17 614.33,-78.67 601,-57 588.37,-36.46 563.28,-24.85 542.79,-18.51"/>
<polygon fill="midnightblue" stroke="midnightblue" points="543.46,-15.06 532.88,-15.73 541.56,-21.8 543.46,-15.06"/>
</g>
<!-- Node12 -->
<g id="node12" class="node">
<title>Node12</title>
<g id="a_node12"><a xlink:title=" ">
<polygon fill="none" stroke="#bfbfbf" points="649,-57.5 649,-77.5 705,-77.5 705,-57.5 649,-57.5"/>
<text text-anchor="middle" x="677" y="-64.7" font-family="-apple-system, BlinkMacSystemFont, 'Segoe UI', Roboto, Oxygen, Ubuntu, Cantarell, 'Fira Sans', 'Droid Sans', 'Helvetica Neue', sans-serif" font-size="11.00">memory</text>
</a>
</g>
</g>
<!-- Node11&#45;&gt;Node12 -->
<g id="edge14" class="edge">
<title>Node11&#45;&gt;Node12</title>
<path fill="none" stroke="midnightblue" d="M582.38,-120.5C600.66,-110.45 630.46,-94.07 651.74,-82.38"/>
<polygon fill="midnightblue" stroke="midnightblue" points="653.48,-85.42 660.55,-77.54 650.1,-79.29 653.48,-85.42"/>
</g>
<!-- Node13 -->
<g id="node13" class="node">
<title>Node13</title>
<g id="a_node13"><a xlink:href="EventTypes_8hpp.html" target="_top" xlink:title=" ">
<polygon fill="none" stroke="red" points="429.5,-57.5 429.5,-77.5 592.5,-77.5 592.5,-57.5 429.5,-57.5"/>
<text text-anchor="middle" x="511" y="-64.7" font-family="-apple-system, BlinkMacSystemFont, 'Segoe UI', Roboto, Oxygen, Ubuntu, Cantarell, 'Fira Sans', 'Droid Sans', 'Helvetica Neue', sans-serif" font-size="11.00">libmirai/Types/EventTypes.hpp</text>
</a>
</g>
</g>
<!-- Node11&#45;&gt;Node13 -->
<g id="edge16" class="edge">
<title>Node11&#45;&gt;Node13</title>
<path fill="none" stroke="midnightblue" d="M557.88,-120.5C549.52,-111.22 536.28,-96.53 526,-85.13"/>
<polygon fill="midnightblue" stroke="midnightblue" points="528.44,-82.62 519.15,-77.54 523.25,-87.31 528.44,-82.62"/>
</g>
<!-- Node13&#45;&gt;Node4 -->
<g id="edge17" class="edge">
<title>Node13&#45;&gt;Node4</title>
<path fill="none" stroke="midnightblue" d="M511,-57.42C511,-50.22 511,-39.9 511,-30.86"/>
<polygon fill="midnightblue" stroke="midnightblue" points="514.5,-30.78 511,-20.78 507.5,-30.78 514.5,-30.78"/>
</g>
</g>
</svg>
