<?xml version="1.0" encoding="UTF-8" standalone="no"?>
<!DOCTYPE svg PUBLIC "-//W3C//DTD SVG 1.1//EN"
 "http://www.w3.org/Graphics/SVG/1.1/DTD/svg11.dtd">
<!-- Generated by graphviz version 3.0.0 (20220413.0242)
 -->
<!-- Title: libmirai/public/libmirai/Messages/MiraiCodeMessage.hpp Pages: 1 -->
<svg width="415pt" height="212pt"
 viewBox="0.00 0.00 414.50 212.00" xmlns="http://www.w3.org/2000/svg" xmlns:xlink="http://www.w3.org/1999/xlink">
<g id="graph0" class="graph" transform="scale(1 1) rotate(0) translate(4 208)">
<title>libmirai/public/libmirai/Messages/MiraiCodeMessage.hpp</title>
<!-- Node1 -->
<g id="node1" class="node">
<title>Node1</title>
<g id="a_node1"><a xlink:title=" ">
<polygon fill="#bfbfbf" stroke="black" points="0,-171.5 0,-203.5 185,-203.5 185,-171.5 0,-171.5"/>
<text text-anchor="start" x="8" y="-190.7" font-family="-apple-system, BlinkMacSystemFont, 'Segoe UI', Roboto, Oxygen, Ubuntu, Cantarell, 'Fira Sans', 'Droid Sans', 'Helvetica Neue', sans-serif" font-size="11.00">libmirai/public/libmirai</text>
<text text-anchor="middle" x="92.5" y="-178.7" font-family="-apple-system, BlinkMacSystemFont, 'Segoe UI', Roboto, Oxygen, Ubuntu, Cantarell, 'Fira Sans', 'Droid Sans', 'Helvetica Neue', sans-serif" font-size="11.00">/Messages/MiraiCodeMessage.hpp</text>
</a>
</g>
</g>
<!-- Node2 -->
<g id="node2" class="node">
<title>Node2</title>
<g id="a_node2"><a xlink:title=" ">
<polygon fill="none" stroke="#bfbfbf" points="71,-57.5 71,-77.5 114,-77.5 114,-57.5 71,-57.5"/>
<text text-anchor="middle" x="92.5" y="-64.7" font-family="-apple-system, BlinkMacSystemFont, 'Segoe UI', Roboto, Oxygen, Ubuntu, Cantarell, 'Fira Sans', 'Droid Sans', 'Helvetica Neue', sans-serif" font-size="11.00">string</text>
</a>
</g>
</g>
<!-- Node1&#45;&gt;Node2 -->
<g id="edge1" class="edge">
<title>Node1&#45;&gt;Node2</title>
<path fill="none" stroke="midnightblue" d="M92.5,-171.07C92.5,-149.71 92.5,-111.11 92.5,-87.84"/>
<polygon fill="midnightblue" stroke="midnightblue" points="96,-87.79 92.5,-77.79 89,-87.79 96,-87.79"/>
</g>
<!-- Node3 -->
<g id="node3" class="node">
<title>Node3</title>
<g id="a_node3"><a xlink:title=" ">
<polygon fill="none" stroke="#bfbfbf" points="148,-0.5 148,-20.5 279,-20.5 279,-0.5 148,-0.5"/>
<text text-anchor="middle" x="213.5" y="-7.7" font-family="-apple-system, BlinkMacSystemFont, 'Segoe UI', Roboto, Oxygen, Ubuntu, Cantarell, 'Fira Sans', 'Droid Sans', 'Helvetica Neue', sans-serif" font-size="11.00">nlohmann/json_fwd.hpp</text>
</a>
</g>
</g>
<!-- Node1&#45;&gt;Node3 -->
<g id="edge2" class="edge">
<title>Node1&#45;&gt;Node3</title>
<path fill="none" stroke="midnightblue" d="M81.61,-171.32C64.43,-145.36 35.55,-91.86 61.5,-57 79.3,-33.08 109.23,-21.26 137.83,-15.57"/>
<polygon fill="midnightblue" stroke="midnightblue" points="138.63,-18.99 147.88,-13.81 137.42,-12.09 138.63,-18.99"/>
</g>
<!-- Node4 -->
<g id="node4" class="node">
<title>Node4</title>
<g id="a_node4"><a xlink:href="MessageBase_8hpp.html" target="_top" xlink:title=" ">
<polygon fill="none" stroke="black" points="160.5,-114.5 160.5,-134.5 266.5,-134.5 266.5,-114.5 160.5,-114.5"/>
<text text-anchor="middle" x="213.5" y="-121.7" font-family="-apple-system, BlinkMacSystemFont, 'Segoe UI', Roboto, Oxygen, Ubuntu, Cantarell, 'Fira Sans', 'Droid Sans', 'Helvetica Neue', sans-serif" font-size="11.00">MessageBase.hpp</text>
</a>
</g>
</g>
<!-- Node1&#45;&gt;Node4 -->
<g id="edge3" class="edge">
<title>Node1&#45;&gt;Node4</title>
<path fill="none" stroke="midnightblue" d="M122.41,-171.42C142.05,-161.52 167.52,-148.68 186.53,-139.1"/>
<polygon fill="midnightblue" stroke="midnightblue" points="188.2,-142.17 195.56,-134.55 185.05,-135.92 188.2,-142.17"/>
</g>
<!-- Node4&#45;&gt;Node2 -->
<g id="edge5" class="edge">
<title>Node4&#45;&gt;Node2</title>
<path fill="none" stroke="midnightblue" d="M193.52,-114.42C173.99,-105.54 144.04,-91.93 121.81,-81.82"/>
<polygon fill="midnightblue" stroke="midnightblue" points="123.06,-78.55 112.51,-77.6 120.17,-84.92 123.06,-78.55"/>
</g>
<!-- Node4&#45;&gt;Node3 -->
<g id="edge6" class="edge">
<title>Node4&#45;&gt;Node3</title>
<path fill="none" stroke="midnightblue" d="M246.48,-114.42C278.56,-103.8 320.19,-84.14 303.5,-57 293.99,-41.54 277.43,-31.14 261.08,-24.24"/>
<polygon fill="midnightblue" stroke="midnightblue" points="262.13,-20.89 251.54,-20.57 259.61,-27.42 262.13,-20.89"/>
</g>
<!-- Node5 -->
<g id="node5" class="node">
<title>Node5</title>
<g id="a_node5"><a xlink:title=" ">
<polygon fill="none" stroke="#bfbfbf" points="350.5,-57.5 350.5,-77.5 406.5,-77.5 406.5,-57.5 350.5,-57.5"/>
<text text-anchor="middle" x="378.5" y="-64.7" font-family="-apple-system, BlinkMacSystemFont, 'Segoe UI', Roboto, Oxygen, Ubuntu, Cantarell, 'Fira Sans', 'Droid Sans', 'Helvetica Neue', sans-serif" font-size="11.00">memory</text>
</a>
</g>
</g>
<!-- Node4&#45;&gt;Node5 -->
<g id="edge4" class="edge">
<title>Node4&#45;&gt;Node5</title>
<path fill="none" stroke="midnightblue" d="M240.75,-114.42C268.3,-105.23 311.06,-90.98 341.63,-80.79"/>
<polygon fill="midnightblue" stroke="midnightblue" points="343.11,-83.99 351.49,-77.5 340.89,-77.35 343.11,-83.99"/>
</g>
<!-- Node6 -->
<g id="node6" class="node">
<title>Node6</title>
<g id="a_node6"><a xlink:href="Serializable_8hpp.html" target="_top" xlink:title=" ">
<polygon fill="none" stroke="black" points="132.5,-57.5 132.5,-77.5 294.5,-77.5 294.5,-57.5 132.5,-57.5"/>
<text text-anchor="middle" x="213.5" y="-64.7" font-family="-apple-system, BlinkMacSystemFont, 'Segoe UI', Roboto, Oxygen, Ubuntu, Cantarell, 'Fira Sans', 'Droid Sans', 'Helvetica Neue', sans-serif" font-size="11.00">libmirai/Types/Serializable.hpp</text>
</a>
</g>
</g>
<!-- Node4&#45;&gt;Node6 -->
<g id="edge7" class="edge">
<title>Node4&#45;&gt;Node6</title>
<path fill="none" stroke="midnightblue" d="M213.5,-114.42C213.5,-107.22 213.5,-96.9 213.5,-87.86"/>
<polygon fill="midnightblue" stroke="midnightblue" points="217,-87.78 213.5,-77.78 210,-87.78 217,-87.78"/>
</g>
<!-- Node6&#45;&gt;Node3 -->
<g id="edge8" class="edge">
<title>Node6&#45;&gt;Node3</title>
<path fill="none" stroke="midnightblue" d="M213.5,-57.42C213.5,-50.22 213.5,-39.9 213.5,-30.86"/>
<polygon fill="midnightblue" stroke="midnightblue" points="217,-30.78 213.5,-20.78 210,-30.78 217,-30.78"/>
</g>
</g>
</svg>
