<?xml version="1.0" encoding="UTF-8" standalone="no"?>
<!DOCTYPE svg PUBLIC "-//W3C//DTD SVG 1.1//EN"
 "http://www.w3.org/Graphics/SVG/1.1/DTD/svg11.dtd">
<!-- Generated by graphviz version 3.0.0 (20220413.0242)
 -->
<!-- Title: libmirai/public/libmirai/Messages/MusicShareMessage.cpp Pages: 1 -->
<svg width="482pt" height="212pt"
 viewBox="0.00 0.00 481.50 212.00" xmlns="http://www.w3.org/2000/svg" xmlns:xlink="http://www.w3.org/1999/xlink">
<g id="graph0" class="graph" transform="scale(1 1) rotate(0) translate(4 208)">
<title>libmirai/public/libmirai/Messages/MusicShareMessage.cpp</title>
<!-- Node1 -->
<g id="node1" class="node">
<title>Node1</title>
<g id="a_node1"><a xlink:title=" ">
<polygon fill="#bfbfbf" stroke="black" points="163.5,-171.5 163.5,-203.5 355.5,-203.5 355.5,-171.5 163.5,-171.5"/>
<text text-anchor="start" x="171.5" y="-190.7" font-family="-apple-system, BlinkMacSystemFont, 'Segoe UI', Roboto, Oxygen, Ubuntu, Cantarell, 'Fira Sans', 'Droid Sans', 'Helvetica Neue', sans-serif" font-size="11.00">libmirai/public/libmirai</text>
<text text-anchor="middle" x="259.5" y="-178.7" font-family="-apple-system, BlinkMacSystemFont, 'Segoe UI', Roboto, Oxygen, Ubuntu, Cantarell, 'Fira Sans', 'Droid Sans', 'Helvetica Neue', sans-serif" font-size="11.00">/Messages/MusicShareMessage.cpp</text>
</a>
</g>
</g>
<!-- Node2 -->
<g id="node2" class="node">
<title>Node2</title>
<g id="a_node2"><a xlink:href="MusicShareMessage_8hpp.html" target="_top" xlink:title=" ">
<polygon fill="none" stroke="black" points="49.5,-114.5 49.5,-134.5 187.5,-134.5 187.5,-114.5 49.5,-114.5"/>
<text text-anchor="middle" x="118.5" y="-121.7" font-family="-apple-system, BlinkMacSystemFont, 'Segoe UI', Roboto, Oxygen, Ubuntu, Cantarell, 'Fira Sans', 'Droid Sans', 'Helvetica Neue', sans-serif" font-size="11.00">MusicShareMessage.hpp</text>
</a>
</g>
</g>
<!-- Node1&#45;&gt;Node2 -->
<g id="edge1" class="edge">
<title>Node1&#45;&gt;Node2</title>
<path fill="none" stroke="midnightblue" d="M224.65,-171.42C201.35,-161.34 171,-148.21 148.72,-138.57"/>
<polygon fill="midnightblue" stroke="midnightblue" points="149.98,-135.3 139.41,-134.55 147.2,-141.73 149.98,-135.3"/>
</g>
<!-- Node10 -->
<g id="node8" class="node">
<title>Node10</title>
<g id="a_node8"><a xlink:title=" ">
<polygon fill="none" stroke="#bfbfbf" points="205.5,-114.5 205.5,-134.5 313.5,-134.5 313.5,-114.5 205.5,-114.5"/>
<text text-anchor="middle" x="259.5" y="-121.7" font-family="-apple-system, BlinkMacSystemFont, 'Segoe UI', Roboto, Oxygen, Ubuntu, Cantarell, 'Fira Sans', 'Droid Sans', 'Helvetica Neue', sans-serif" font-size="11.00">nlohmann/json.hpp</text>
</a>
</g>
</g>
<!-- Node1&#45;&gt;Node10 -->
<g id="edge9" class="edge">
<title>Node1&#45;&gt;Node10</title>
<path fill="none" stroke="midnightblue" d="M259.5,-171.42C259.5,-163.38 259.5,-153.39 259.5,-144.78"/>
<polygon fill="midnightblue" stroke="midnightblue" points="263,-144.55 259.5,-134.55 256,-144.55 263,-144.55"/>
</g>
<!-- Node11 -->
<g id="node9" class="node">
<title>Node11</title>
<g id="a_node9"><a xlink:title=" ">
<polygon fill="none" stroke="#bfbfbf" points="331.5,-114.5 331.5,-134.5 473.5,-134.5 473.5,-114.5 331.5,-114.5"/>
<text text-anchor="middle" x="402.5" y="-121.7" font-family="-apple-system, BlinkMacSystemFont, 'Segoe UI', Roboto, Oxygen, Ubuntu, Cantarell, 'Fira Sans', 'Droid Sans', 'Helvetica Neue', sans-serif" font-size="11.00">libmirai/Utils/Common.hpp</text>
</a>
</g>
</g>
<!-- Node1&#45;&gt;Node11 -->
<g id="edge10" class="edge">
<title>Node1&#45;&gt;Node11</title>
<path fill="none" stroke="midnightblue" d="M294.85,-171.42C318.48,-161.34 349.26,-148.21 371.85,-138.57"/>
<polygon fill="midnightblue" stroke="midnightblue" points="373.47,-141.69 381.29,-134.55 370.72,-135.25 373.47,-141.69"/>
</g>
<!-- Node3 -->
<g id="node3" class="node">
<title>Node3</title>
<g id="a_node3"><a xlink:title=" ">
<polygon fill="none" stroke="#bfbfbf" points="0,-57.5 0,-77.5 41,-77.5 41,-57.5 0,-57.5"/>
<text text-anchor="middle" x="20.5" y="-64.7" font-family="-apple-system, BlinkMacSystemFont, 'Segoe UI', Roboto, Oxygen, Ubuntu, Cantarell, 'Fira Sans', 'Droid Sans', 'Helvetica Neue', sans-serif" font-size="11.00">array</text>
</a>
</g>
</g>
<!-- Node2&#45;&gt;Node3 -->
<g id="edge2" class="edge">
<title>Node2&#45;&gt;Node3</title>
<path fill="none" stroke="midnightblue" d="M102.32,-114.42C86.85,-105.74 63.32,-92.53 45.46,-82.51"/>
<polygon fill="midnightblue" stroke="midnightblue" points="47.14,-79.44 36.71,-77.6 43.71,-85.54 47.14,-79.44"/>
</g>
<!-- Node4 -->
<g id="node4" class="node">
<title>Node4</title>
<g id="a_node4"><a xlink:title=" ">
<polygon fill="none" stroke="#bfbfbf" points="106,-0.5 106,-20.5 149,-20.5 149,-0.5 106,-0.5"/>
<text text-anchor="middle" x="127.5" y="-7.7" font-family="-apple-system, BlinkMacSystemFont, 'Segoe UI', Roboto, Oxygen, Ubuntu, Cantarell, 'Fira Sans', 'Droid Sans', 'Helvetica Neue', sans-serif" font-size="11.00">string</text>
</a>
</g>
</g>
<!-- Node2&#45;&gt;Node4 -->
<g id="edge3" class="edge">
<title>Node2&#45;&gt;Node4</title>
<path fill="none" stroke="midnightblue" d="M109.28,-114.2C97.85,-101.5 80.77,-77.91 88.5,-57 92.61,-45.88 100.8,-35.64 108.61,-27.7"/>
<polygon fill="midnightblue" stroke="midnightblue" points="111.28,-30 116.14,-20.58 106.47,-24.91 111.28,-30"/>
</g>
<!-- Node5 -->
<g id="node5" class="node">
<title>Node5</title>
<g id="a_node5"><a xlink:title=" ">
<polygon fill="none" stroke="#bfbfbf" points="98,-57.5 98,-77.5 139,-77.5 139,-57.5 98,-57.5"/>
<text text-anchor="middle" x="118.5" y="-64.7" font-family="-apple-system, BlinkMacSystemFont, 'Segoe UI', Roboto, Oxygen, Ubuntu, Cantarell, 'Fira Sans', 'Droid Sans', 'Helvetica Neue', sans-serif" font-size="11.00">utility</text>
</a>
</g>
</g>
<!-- Node2&#45;&gt;Node5 -->
<g id="edge4" class="edge">
<title>Node2&#45;&gt;Node5</title>
<path fill="none" stroke="midnightblue" d="M118.5,-114.42C118.5,-107.22 118.5,-96.9 118.5,-87.86"/>
<polygon fill="midnightblue" stroke="midnightblue" points="122,-87.78 118.5,-77.78 115,-87.78 122,-87.78"/>
</g>
<!-- Node6 -->
<g id="node6" class="node">
<title>Node6</title>
<g id="a_node6"><a xlink:title=" ">
<polygon fill="none" stroke="#bfbfbf" points="185,-0.5 185,-20.5 316,-20.5 316,-0.5 185,-0.5"/>
<text text-anchor="middle" x="250.5" y="-7.7" font-family="-apple-system, BlinkMacSystemFont, 'Segoe UI', Roboto, Oxygen, Ubuntu, Cantarell, 'Fira Sans', 'Droid Sans', 'Helvetica Neue', sans-serif" font-size="11.00">nlohmann/json_fwd.hpp</text>
</a>
</g>
</g>
<!-- Node2&#45;&gt;Node6 -->
<g id="edge5" class="edge">
<title>Node2&#45;&gt;Node6</title>
<path fill="none" stroke="midnightblue" d="M173.02,-114.47C212.27,-106.72 260.36,-94.25 272.5,-78 283.37,-63.46 274.08,-43.26 264.44,-28.95"/>
<polygon fill="midnightblue" stroke="midnightblue" points="267,-26.52 258.27,-20.51 261.35,-30.65 267,-26.52"/>
</g>
<!-- Node7 -->
<g id="node7" class="node">
<title>Node7</title>
<g id="a_node7"><a xlink:href="MessageBase_8hpp.html" target="_top" xlink:title=" ">
<polygon fill="none" stroke="red" points="157.5,-57.5 157.5,-77.5 263.5,-77.5 263.5,-57.5 157.5,-57.5"/>
<text text-anchor="middle" x="210.5" y="-64.7" font-family="-apple-system, BlinkMacSystemFont, 'Segoe UI', Roboto, Oxygen, Ubuntu, Cantarell, 'Fira Sans', 'Droid Sans', 'Helvetica Neue', sans-serif" font-size="11.00">MessageBase.hpp</text>
</a>
</g>
</g>
<!-- Node2&#45;&gt;Node7 -->
<g id="edge6" class="edge">
<title>Node2&#45;&gt;Node7</title>
<path fill="none" stroke="midnightblue" d="M133.69,-114.42C148.07,-105.82 169.89,-92.78 186.61,-82.78"/>
<polygon fill="midnightblue" stroke="midnightblue" points="188.5,-85.73 195.29,-77.6 184.91,-79.72 188.5,-85.73"/>
</g>
<!-- Node7&#45;&gt;Node4 -->
<g id="edge7" class="edge">
<title>Node7&#45;&gt;Node4</title>
<path fill="none" stroke="midnightblue" d="M196.79,-57.42C184.06,-48.98 164.86,-36.26 149.9,-26.34"/>
<polygon fill="midnightblue" stroke="midnightblue" points="151.5,-23.2 141.23,-20.6 147.63,-29.04 151.5,-23.2"/>
</g>
<!-- Node7&#45;&gt;Node6 -->
<g id="edge8" class="edge">
<title>Node7&#45;&gt;Node6</title>
<path fill="none" stroke="midnightblue" d="M217.11,-57.42C222.69,-49.74 230.85,-38.52 237.7,-29.09"/>
<polygon fill="midnightblue" stroke="midnightblue" points="240.7,-30.93 243.75,-20.78 235.04,-26.81 240.7,-30.93"/>
</g>
</g>
</svg>
