<?xml version="1.0" encoding="UTF-8" standalone="no"?>
<!DOCTYPE svg PUBLIC "-//W3C//DTD SVG 1.1//EN"
 "http://www.w3.org/Graphics/SVG/1.1/DTD/svg11.dtd">
<!-- Generated by graphviz version 3.0.0 (20220413.0242)
 -->
<!-- Title: libmirai/public/libmirai/Messages/MusicShareMessage.hpp Pages: 1 -->
<svg width="447pt" height="212pt"
 viewBox="0.00 0.00 446.50 212.00" xmlns="http://www.w3.org/2000/svg" xmlns:xlink="http://www.w3.org/1999/xlink">
<g id="graph0" class="graph" transform="scale(1 1) rotate(0) translate(4 208)">
<title>libmirai/public/libmirai/Messages/MusicShareMessage.hpp</title>
<!-- Node1 -->
<g id="node1" class="node">
<title>Node1</title>
<g id="a_node1"><a xlink:title=" ">
<polygon fill="#bfbfbf" stroke="black" points="0,-171.5 0,-203.5 193,-203.5 193,-171.5 0,-171.5"/>
<text text-anchor="start" x="8" y="-190.7" font-family="-apple-system, BlinkMacSystemFont, 'Segoe UI', Roboto, Oxygen, Ubuntu, Cantarell, 'Fira Sans', 'Droid Sans', 'Helvetica Neue', sans-serif" font-size="11.00">libmirai/public/libmirai</text>
<text text-anchor="middle" x="96.5" y="-178.7" font-family="-apple-system, BlinkMacSystemFont, 'Segoe UI', Roboto, Oxygen, Ubuntu, Cantarell, 'Fira Sans', 'Droid Sans', 'Helvetica Neue', sans-serif" font-size="11.00">/Messages/MusicShareMessage.hpp</text>
</a>
</g>
</g>
<!-- Node2 -->
<g id="node2" class="node">
<title>Node2</title>
<g id="a_node2"><a xlink:title=" ">
<polygon fill="none" stroke="#bfbfbf" points="5,-114.5 5,-134.5 46,-134.5 46,-114.5 5,-114.5"/>
<text text-anchor="middle" x="25.5" y="-121.7" font-family="-apple-system, BlinkMacSystemFont, 'Segoe UI', Roboto, Oxygen, Ubuntu, Cantarell, 'Fira Sans', 'Droid Sans', 'Helvetica Neue', sans-serif" font-size="11.00">array</text>
</a>
</g>
</g>
<!-- Node1&#45;&gt;Node2 -->
<g id="edge1" class="edge">
<title>Node1&#45;&gt;Node2</title>
<path fill="none" stroke="midnightblue" d="M78.95,-171.42C68.22,-162.2 54.51,-150.43 43.67,-141.11"/>
<polygon fill="midnightblue" stroke="midnightblue" points="45.89,-138.41 36.03,-134.55 41.33,-143.72 45.89,-138.41"/>
</g>
<!-- Node3 -->
<g id="node3" class="node">
<title>Node3</title>
<g id="a_node3"><a xlink:title=" ">
<polygon fill="none" stroke="#bfbfbf" points="103,-57.5 103,-77.5 146,-77.5 146,-57.5 103,-57.5"/>
<text text-anchor="middle" x="124.5" y="-64.7" font-family="-apple-system, BlinkMacSystemFont, 'Segoe UI', Roboto, Oxygen, Ubuntu, Cantarell, 'Fira Sans', 'Droid Sans', 'Helvetica Neue', sans-serif" font-size="11.00">string</text>
</a>
</g>
</g>
<!-- Node1&#45;&gt;Node3 -->
<g id="edge2" class="edge">
<title>Node1&#45;&gt;Node3</title>
<path fill="none" stroke="midnightblue" d="M100.16,-171.07C105.25,-149.61 114.47,-110.76 119.99,-87.53"/>
<polygon fill="midnightblue" stroke="midnightblue" points="123.39,-88.33 122.29,-77.79 116.58,-86.71 123.39,-88.33"/>
</g>
<!-- Node4 -->
<g id="node4" class="node">
<title>Node4</title>
<g id="a_node4"><a xlink:title=" ">
<polygon fill="none" stroke="#bfbfbf" points="180,-0.5 180,-20.5 311,-20.5 311,-0.5 180,-0.5"/>
<text text-anchor="middle" x="245.5" y="-7.7" font-family="-apple-system, BlinkMacSystemFont, 'Segoe UI', Roboto, Oxygen, Ubuntu, Cantarell, 'Fira Sans', 'Droid Sans', 'Helvetica Neue', sans-serif" font-size="11.00">nlohmann/json_fwd.hpp</text>
</a>
</g>
</g>
<!-- Node1&#45;&gt;Node4 -->
<g id="edge3" class="edge">
<title>Node1&#45;&gt;Node4</title>
<path fill="none" stroke="midnightblue" d="M90.63,-171.12C81.71,-144.86 68.25,-90.91 93.5,-57 111.3,-33.08 141.23,-21.26 169.83,-15.57"/>
<polygon fill="midnightblue" stroke="midnightblue" points="170.63,-18.99 179.88,-13.81 169.42,-12.09 170.63,-18.99"/>
</g>
<!-- Node5 -->
<g id="node5" class="node">
<title>Node5</title>
<g id="a_node5"><a xlink:href="MessageBase_8hpp.html" target="_top" xlink:title=" ">
<polygon fill="none" stroke="black" points="192.5,-114.5 192.5,-134.5 298.5,-134.5 298.5,-114.5 192.5,-114.5"/>
<text text-anchor="middle" x="245.5" y="-121.7" font-family="-apple-system, BlinkMacSystemFont, 'Segoe UI', Roboto, Oxygen, Ubuntu, Cantarell, 'Fira Sans', 'Droid Sans', 'Helvetica Neue', sans-serif" font-size="11.00">MessageBase.hpp</text>
</a>
</g>
</g>
<!-- Node1&#45;&gt;Node5 -->
<g id="edge4" class="edge">
<title>Node1&#45;&gt;Node5</title>
<path fill="none" stroke="midnightblue" d="M133.33,-171.42C158.06,-161.3 190.31,-148.09 213.88,-138.44"/>
<polygon fill="midnightblue" stroke="midnightblue" points="215.48,-141.57 223.4,-134.55 212.82,-135.1 215.48,-141.57"/>
</g>
<!-- Node5&#45;&gt;Node3 -->
<g id="edge6" class="edge">
<title>Node5&#45;&gt;Node3</title>
<path fill="none" stroke="midnightblue" d="M225.52,-114.42C205.99,-105.54 176.04,-91.93 153.81,-81.82"/>
<polygon fill="midnightblue" stroke="midnightblue" points="155.06,-78.55 144.51,-77.6 152.17,-84.92 155.06,-78.55"/>
</g>
<!-- Node5&#45;&gt;Node4 -->
<g id="edge7" class="edge">
<title>Node5&#45;&gt;Node4</title>
<path fill="none" stroke="midnightblue" d="M278.48,-114.42C310.56,-103.8 352.19,-84.14 335.5,-57 325.99,-41.54 309.43,-31.14 293.08,-24.24"/>
<polygon fill="midnightblue" stroke="midnightblue" points="294.13,-20.89 283.54,-20.57 291.61,-27.42 294.13,-20.89"/>
</g>
<!-- Node6 -->
<g id="node6" class="node">
<title>Node6</title>
<g id="a_node6"><a xlink:title=" ">
<polygon fill="none" stroke="#bfbfbf" points="382.5,-57.5 382.5,-77.5 438.5,-77.5 438.5,-57.5 382.5,-57.5"/>
<text text-anchor="middle" x="410.5" y="-64.7" font-family="-apple-system, BlinkMacSystemFont, 'Segoe UI', Roboto, Oxygen, Ubuntu, Cantarell, 'Fira Sans', 'Droid Sans', 'Helvetica Neue', sans-serif" font-size="11.00">memory</text>
</a>
</g>
</g>
<!-- Node5&#45;&gt;Node6 -->
<g id="edge5" class="edge">
<title>Node5&#45;&gt;Node6</title>
<path fill="none" stroke="midnightblue" d="M272.75,-114.42C300.3,-105.23 343.06,-90.98 373.63,-80.79"/>
<polygon fill="midnightblue" stroke="midnightblue" points="375.11,-83.99 383.49,-77.5 372.89,-77.35 375.11,-83.99"/>
</g>
<!-- Node7 -->
<g id="node7" class="node">
<title>Node7</title>
<g id="a_node7"><a xlink:href="Serializable_8hpp.html" target="_top" xlink:title=" ">
<polygon fill="none" stroke="black" points="164.5,-57.5 164.5,-77.5 326.5,-77.5 326.5,-57.5 164.5,-57.5"/>
<text text-anchor="middle" x="245.5" y="-64.7" font-family="-apple-system, BlinkMacSystemFont, 'Segoe UI', Roboto, Oxygen, Ubuntu, Cantarell, 'Fira Sans', 'Droid Sans', 'Helvetica Neue', sans-serif" font-size="11.00">libmirai/Types/Serializable.hpp</text>
</a>
</g>
</g>
<!-- Node5&#45;&gt;Node7 -->
<g id="edge8" class="edge">
<title>Node5&#45;&gt;Node7</title>
<path fill="none" stroke="midnightblue" d="M245.5,-114.42C245.5,-107.22 245.5,-96.9 245.5,-87.86"/>
<polygon fill="midnightblue" stroke="midnightblue" points="249,-87.78 245.5,-77.78 242,-87.78 249,-87.78"/>
</g>
<!-- Node7&#45;&gt;Node4 -->
<g id="edge9" class="edge">
<title>Node7&#45;&gt;Node4</title>
<path fill="none" stroke="midnightblue" d="M245.5,-57.42C245.5,-50.22 245.5,-39.9 245.5,-30.86"/>
<polygon fill="midnightblue" stroke="midnightblue" points="249,-30.78 245.5,-20.78 242,-30.78 249,-30.78"/>
</g>
</g>
</svg>
