<?xml version="1.0" encoding="UTF-8" standalone="no"?>
<!DOCTYPE svg PUBLIC "-//W3C//DTD SVG 1.1//EN"
 "http://www.w3.org/Graphics/SVG/1.1/DTD/svg11.dtd">
<!-- Generated by graphviz version 3.0.0 (20220413.0242)
 -->
<!-- Title: libmirai/public/libmirai/Messages/MusicShareMessage.hpp Pages: 1 -->
<svg width="397pt" height="212pt"
 viewBox="0.00 0.00 397.27 212.00" xmlns="http://www.w3.org/2000/svg" xmlns:xlink="http://www.w3.org/1999/xlink">
<g id="graph0" class="graph" transform="scale(1 1) rotate(0) translate(4 208)">
<title>libmirai/public/libmirai/Messages/MusicShareMessage.hpp</title>
<!-- Node1 -->
<g id="node1" class="node">
<title>Node1</title>
<g id="a_node1"><a xlink:title=" ">
<polygon fill="#bfbfbf" stroke="black" points="22,-171.5 22,-203.5 215,-203.5 215,-171.5 22,-171.5"/>
<text text-anchor="start" x="30" y="-190.7" font-family="-apple-system, BlinkMacSystemFont, 'Segoe UI', Roboto, Oxygen, Ubuntu, Cantarell, 'Fira Sans', 'Droid Sans', 'Helvetica Neue', sans-serif" font-size="11.00">libmirai/public/libmirai</text>
<text text-anchor="middle" x="118.5" y="-178.7" font-family="-apple-system, BlinkMacSystemFont, 'Segoe UI', Roboto, Oxygen, Ubuntu, Cantarell, 'Fira Sans', 'Droid Sans', 'Helvetica Neue', sans-serif" font-size="11.00">/Messages/MusicShareMessage.hpp</text>
</a>
</g>
</g>
<!-- Node2 -->
<g id="node2" class="node">
<title>Node2</title>
<g id="a_node2"><a xlink:title=" ">
<polygon fill="none" stroke="#bfbfbf" points="0,-114.5 0,-134.5 41,-134.5 41,-114.5 0,-114.5"/>
<text text-anchor="middle" x="20.5" y="-121.7" font-family="-apple-system, BlinkMacSystemFont, 'Segoe UI', Roboto, Oxygen, Ubuntu, Cantarell, 'Fira Sans', 'Droid Sans', 'Helvetica Neue', sans-serif" font-size="11.00">array</text>
</a>
</g>
</g>
<!-- Node1&#45;&gt;Node2 -->
<g id="edge1" class="edge">
<title>Node1&#45;&gt;Node2</title>
<path fill="none" stroke="midnightblue" d="M94.28,-171.42C78.88,-161.84 59.06,-149.5 43.83,-140.02"/>
<polygon fill="midnightblue" stroke="midnightblue" points="45.37,-136.86 35.03,-134.55 41.67,-142.8 45.37,-136.86"/>
</g>
<!-- Node3 -->
<g id="node3" class="node">
<title>Node3</title>
<g id="a_node3"><a xlink:title=" ">
<polygon fill="none" stroke="#bfbfbf" points="39,-57.5 39,-77.5 82,-77.5 82,-57.5 39,-57.5"/>
<text text-anchor="middle" x="60.5" y="-64.7" font-family="-apple-system, BlinkMacSystemFont, 'Segoe UI', Roboto, Oxygen, Ubuntu, Cantarell, 'Fira Sans', 'Droid Sans', 'Helvetica Neue', sans-serif" font-size="11.00">string</text>
</a>
</g>
</g>
<!-- Node1&#45;&gt;Node3 -->
<g id="edge2" class="edge">
<title>Node1&#45;&gt;Node3</title>
<path fill="none" stroke="midnightblue" d="M109.05,-171.46C102.86,-161.34 94.79,-147.59 88.5,-135 80.64,-119.26 72.98,-100.77 67.66,-87.29"/>
<polygon fill="midnightblue" stroke="midnightblue" points="70.82,-85.76 63.94,-77.7 64.29,-88.29 70.82,-85.76"/>
</g>
<!-- Node4 -->
<g id="node4" class="node">
<title>Node4</title>
<g id="a_node4"><a xlink:title=" ">
<polygon fill="none" stroke="#bfbfbf" points="98,-114.5 98,-134.5 139,-134.5 139,-114.5 98,-114.5"/>
<text text-anchor="middle" x="118.5" y="-121.7" font-family="-apple-system, BlinkMacSystemFont, 'Segoe UI', Roboto, Oxygen, Ubuntu, Cantarell, 'Fira Sans', 'Droid Sans', 'Helvetica Neue', sans-serif" font-size="11.00">utility</text>
</a>
</g>
</g>
<!-- Node1&#45;&gt;Node4 -->
<g id="edge3" class="edge">
<title>Node1&#45;&gt;Node4</title>
<path fill="none" stroke="midnightblue" d="M118.5,-171.42C118.5,-163.38 118.5,-153.39 118.5,-144.78"/>
<polygon fill="midnightblue" stroke="midnightblue" points="122,-144.55 118.5,-134.55 115,-144.55 122,-144.55"/>
</g>
<!-- Node5 -->
<g id="node5" class="node">
<title>Node5</title>
<g id="a_node5"><a xlink:title=" ">
<polygon fill="none" stroke="#bfbfbf" points="154,-0.5 154,-20.5 285,-20.5 285,-0.5 154,-0.5"/>
<text text-anchor="middle" x="219.5" y="-7.7" font-family="-apple-system, BlinkMacSystemFont, 'Segoe UI', Roboto, Oxygen, Ubuntu, Cantarell, 'Fira Sans', 'Droid Sans', 'Helvetica Neue', sans-serif" font-size="11.00">nlohmann/json_fwd.hpp</text>
</a>
</g>
</g>
<!-- Node1&#45;&gt;Node5 -->
<g id="edge4" class="edge">
<title>Node1&#45;&gt;Node5</title>
<path fill="none" stroke="midnightblue" d="M215.04,-175.44C275.41,-162.82 348.2,-135.81 383.5,-78 407.15,-39.26 348.9,-23.09 295.38,-16.34"/>
<polygon fill="midnightblue" stroke="midnightblue" points="295.46,-12.82 285.12,-15.14 294.65,-19.77 295.46,-12.82"/>
</g>
<!-- Node6 -->
<g id="node6" class="node">
<title>Node6</title>
<g id="a_node6"><a xlink:href="MessageBase_8hpp.html" target="_top" xlink:title=" ">
<polygon fill="none" stroke="black" points="157.5,-114.5 157.5,-134.5 263.5,-134.5 263.5,-114.5 157.5,-114.5"/>
<text text-anchor="middle" x="210.5" y="-121.7" font-family="-apple-system, BlinkMacSystemFont, 'Segoe UI', Roboto, Oxygen, Ubuntu, Cantarell, 'Fira Sans', 'Droid Sans', 'Helvetica Neue', sans-serif" font-size="11.00">MessageBase.hpp</text>
</a>
</g>
</g>
<!-- Node1&#45;&gt;Node6 -->
<g id="edge5" class="edge">
<title>Node1&#45;&gt;Node6</title>
<path fill="none" stroke="midnightblue" d="M141.24,-171.42C155.56,-161.93 173.95,-149.73 188.19,-140.29"/>
<polygon fill="midnightblue" stroke="midnightblue" points="190.46,-142.99 196.86,-134.55 186.59,-137.15 190.46,-142.99"/>
</g>
<!-- Node6&#45;&gt;Node3 -->
<g id="edge7" class="edge">
<title>Node6&#45;&gt;Node3</title>
<path fill="none" stroke="midnightblue" d="M185.73,-114.42C160.09,-105.02 119.95,-90.3 92.05,-80.07"/>
<polygon fill="midnightblue" stroke="midnightblue" points="92.97,-76.68 82.38,-76.52 90.56,-83.25 92.97,-76.68"/>
</g>
<!-- Node6&#45;&gt;Node5 -->
<g id="edge8" class="edge">
<title>Node6&#45;&gt;Node5</title>
<path fill="none" stroke="midnightblue" d="M182.43,-114.46C153.14,-103.42 113.54,-82.96 129.5,-57 139.01,-41.54 155.57,-31.14 171.92,-24.24"/>
<polygon fill="midnightblue" stroke="midnightblue" points="173.39,-27.42 181.46,-20.57 170.87,-20.89 173.39,-27.42"/>
</g>
<!-- Node7 -->
<g id="node7" class="node">
<title>Node7</title>
<g id="a_node7"><a xlink:title=" ">
<polygon fill="none" stroke="#bfbfbf" points="318.5,-57.5 318.5,-77.5 374.5,-77.5 374.5,-57.5 318.5,-57.5"/>
<text text-anchor="middle" x="346.5" y="-64.7" font-family="-apple-system, BlinkMacSystemFont, 'Segoe UI', Roboto, Oxygen, Ubuntu, Cantarell, 'Fira Sans', 'Droid Sans', 'Helvetica Neue', sans-serif" font-size="11.00">memory</text>
</a>
</g>
</g>
<!-- Node6&#45;&gt;Node7 -->
<g id="edge6" class="edge">
<title>Node6&#45;&gt;Node7</title>
<path fill="none" stroke="midnightblue" d="M232.96,-114.42C255.2,-105.42 289.48,-91.56 314.56,-81.42"/>
<polygon fill="midnightblue" stroke="midnightblue" points="316.05,-84.59 324.01,-77.6 313.43,-78.1 316.05,-84.59"/>
</g>
<!-- Node8 -->
<g id="node8" class="node">
<title>Node8</title>
<g id="a_node8"><a xlink:href="Serializable_8hpp.html" target="_top" xlink:title=" ">
<polygon fill="none" stroke="black" points="138.5,-57.5 138.5,-77.5 300.5,-77.5 300.5,-57.5 138.5,-57.5"/>
<text text-anchor="middle" x="219.5" y="-64.7" font-family="-apple-system, BlinkMacSystemFont, 'Segoe UI', Roboto, Oxygen, Ubuntu, Cantarell, 'Fira Sans', 'Droid Sans', 'Helvetica Neue', sans-serif" font-size="11.00">libmirai/Types/Serializable.hpp</text>
</a>
</g>
</g>
<!-- Node6&#45;&gt;Node8 -->
<g id="edge9" class="edge">
<title>Node6&#45;&gt;Node8</title>
<path fill="none" stroke="midnightblue" d="M211.99,-114.42C213.16,-107.22 214.85,-96.9 216.33,-87.86"/>
<polygon fill="midnightblue" stroke="midnightblue" points="219.82,-88.21 217.98,-77.78 212.91,-87.08 219.82,-88.21"/>
</g>
<!-- Node8&#45;&gt;Node5 -->
<g id="edge10" class="edge">
<title>Node8&#45;&gt;Node5</title>
<path fill="none" stroke="midnightblue" d="M219.5,-57.42C219.5,-50.22 219.5,-39.9 219.5,-30.86"/>
<polygon fill="midnightblue" stroke="midnightblue" points="223,-30.78 219.5,-20.78 216,-30.78 223,-30.78"/>
</g>
</g>
</svg>
