<?xml version="1.0" encoding="UTF-8" standalone="no"?>
<!DOCTYPE svg PUBLIC "-//W3C//DTD SVG 1.1//EN"
 "http://www.w3.org/Graphics/SVG/1.1/DTD/svg11.dtd">
<!-- Generated by graphviz version 3.0.0 (20221109.1736)
 -->
<!-- Title: libmirai/models/libmirai/Messages/MusicShareMessage.hpp Pages: 1 -->
<svg width="621pt" height="212pt"
 viewBox="0.00 0.00 621.28 212.00" xmlns="http://www.w3.org/2000/svg" xmlns:xlink="http://www.w3.org/1999/xlink">
<g id="graph0" class="graph" transform="scale(1 1) rotate(0) translate(4 208)">
<title>libmirai/models/libmirai/Messages/MusicShareMessage.hpp</title>
<!-- Node1 -->
<g id="node1" class="node">
<title>Node1</title>
<g id="a_node1"><a xlink:title=" ">
<polygon fill="#bfbfbf" stroke="black" points="66.69,-171.5 66.69,-203.5 259.69,-203.5 259.69,-171.5 66.69,-171.5"/>
<text text-anchor="start" x="74.69" y="-190.7" font-family="-apple-system, BlinkMacSystemFont, 'Segoe UI', Roboto, Oxygen, Ubuntu, Cantarell, 'Fira Sans', 'Droid Sans', 'Helvetica Neue', sans-serif" font-size="11.00">libmirai/models/libmirai</text>
<text text-anchor="middle" x="163.19" y="-178.7" font-family="-apple-system, BlinkMacSystemFont, 'Segoe UI', Roboto, Oxygen, Ubuntu, Cantarell, 'Fira Sans', 'Droid Sans', 'Helvetica Neue', sans-serif" font-size="11.00">/Messages/MusicShareMessage.hpp</text>
</a>
</g>
</g>
<!-- Node2 -->
<g id="node2" class="node">
<title>Node2</title>
<g id="a_node2"><a xlink:title=" ">
<polygon fill="none" stroke="#bfbfbf" points="213.69,-0.5 213.69,-20.5 254.69,-20.5 254.69,-0.5 213.69,-0.5"/>
<text text-anchor="middle" x="234.19" y="-7.7" font-family="-apple-system, BlinkMacSystemFont, 'Segoe UI', Roboto, Oxygen, Ubuntu, Cantarell, 'Fira Sans', 'Droid Sans', 'Helvetica Neue', sans-serif" font-size="11.00">array</text>
</a>
</g>
</g>
<!-- Node1&#45;&gt;Node2 -->
<g id="edge1" class="edge">
<title>Node1&#45;&gt;Node2</title>
<path fill="none" stroke="midnightblue" d="M119.3,-171.49C61.28,-149.33 -29.23,-105.23 10.19,-57 34.26,-27.56 147.83,-16.7 203.41,-13.1"/>
<polygon fill="midnightblue" stroke="midnightblue" points="203.62,-16.59 213.39,-12.49 203.2,-9.6 203.62,-16.59"/>
</g>
<!-- Node3 -->
<g id="node3" class="node">
<title>Node3</title>
<g id="a_node3"><a xlink:title=" ">
<polygon fill="none" stroke="#bfbfbf" points="414.69,-0.5 414.69,-20.5 457.69,-20.5 457.69,-0.5 414.69,-0.5"/>
<text text-anchor="middle" x="436.19" y="-7.7" font-family="-apple-system, BlinkMacSystemFont, 'Segoe UI', Roboto, Oxygen, Ubuntu, Cantarell, 'Fira Sans', 'Droid Sans', 'Helvetica Neue', sans-serif" font-size="11.00">string</text>
</a>
</g>
</g>
<!-- Node1&#45;&gt;Node3 -->
<g id="edge2" class="edge">
<title>Node1&#45;&gt;Node3</title>
<path fill="none" stroke="midnightblue" d="M259.79,-184.13C333.75,-179.62 437.17,-167.38 522.19,-135 565.05,-118.68 586.5,-118.4 608.19,-78 637.35,-23.7 525.38,-13.46 468.06,-11.72"/>
<polygon fill="midnightblue" stroke="midnightblue" points="468.11,-8.22 458.04,-11.49 467.95,-15.22 468.11,-8.22"/>
</g>
<!-- Node4 -->
<g id="node4" class="node">
<title>Node4</title>
<g id="a_node4"><a xlink:title=" ">
<polygon fill="none" stroke="#bfbfbf" points="19.69,-57.5 19.69,-77.5 60.69,-77.5 60.69,-57.5 19.69,-57.5"/>
<text text-anchor="middle" x="40.19" y="-64.7" font-family="-apple-system, BlinkMacSystemFont, 'Segoe UI', Roboto, Oxygen, Ubuntu, Cantarell, 'Fira Sans', 'Droid Sans', 'Helvetica Neue', sans-serif" font-size="11.00">utility</text>
</a>
</g>
</g>
<!-- Node1&#45;&gt;Node4 -->
<g id="edge3" class="edge">
<title>Node1&#45;&gt;Node4</title>
<path fill="none" stroke="midnightblue" d="M126.08,-171.43C108.37,-162.81 87.89,-150.59 73.19,-135 60.37,-121.4 51.49,-101.86 46.19,-87.49"/>
<polygon fill="midnightblue" stroke="midnightblue" points="49.39,-86.01 42.84,-77.68 42.76,-88.27 49.39,-86.01"/>
</g>
<!-- Node5 -->
<g id="node5" class="node">
<title>Node5</title>
<g id="a_node5"><a xlink:href="BasicTypes_8hpp.html" target="_top" xlink:title=" ">
<polygon fill="none" stroke="black" points="82.19,-114.5 82.19,-134.5 244.19,-134.5 244.19,-114.5 82.19,-114.5"/>
<text text-anchor="middle" x="163.19" y="-121.7" font-family="-apple-system, BlinkMacSystemFont, 'Segoe UI', Roboto, Oxygen, Ubuntu, Cantarell, 'Fira Sans', 'Droid Sans', 'Helvetica Neue', sans-serif" font-size="11.00">libmirai/Types/BasicTypes.hpp</text>
</a>
</g>
</g>
<!-- Node1&#45;&gt;Node5 -->
<g id="edge4" class="edge">
<title>Node1&#45;&gt;Node5</title>
<path fill="none" stroke="midnightblue" d="M163.19,-171.42C163.19,-163.38 163.19,-153.39 163.19,-144.78"/>
<polygon fill="midnightblue" stroke="midnightblue" points="166.69,-144.55 163.19,-134.55 159.69,-144.55 166.69,-144.55"/>
</g>
<!-- Node8 -->
<g id="node8" class="node">
<title>Node8</title>
<g id="a_node8"><a xlink:href="IMessage_8hpp.html" target="_top" xlink:title=" ">
<polygon fill="none" stroke="black" points="429.19,-114.5 429.19,-134.5 513.19,-134.5 513.19,-114.5 429.19,-114.5"/>
<text text-anchor="middle" x="471.19" y="-121.7" font-family="-apple-system, BlinkMacSystemFont, 'Segoe UI', Roboto, Oxygen, Ubuntu, Cantarell, 'Fira Sans', 'Droid Sans', 'Helvetica Neue', sans-serif" font-size="11.00">IMessage.hpp</text>
</a>
</g>
</g>
<!-- Node1&#45;&gt;Node8 -->
<g id="edge9" class="edge">
<title>Node1&#45;&gt;Node8</title>
<path fill="none" stroke="midnightblue" d="M238.93,-171.5C294.92,-160.41 369.71,-145.6 419.11,-135.82"/>
<polygon fill="midnightblue" stroke="midnightblue" points="419.81,-139.24 428.94,-133.87 418.45,-132.38 419.81,-139.24"/>
</g>
<!-- Node5&#45;&gt;Node3 -->
<g id="edge7" class="edge">
<title>Node5&#45;&gt;Node3</title>
<path fill="none" stroke="midnightblue" d="M170.63,-114.14C182.75,-99.57 208.23,-71.6 236.19,-57 290.96,-28.4 363.35,-17.67 404.33,-13.72"/>
<polygon fill="midnightblue" stroke="midnightblue" points="404.87,-17.19 414.53,-12.82 404.26,-10.21 404.87,-17.19"/>
</g>
<!-- Node5&#45;&gt;Node4 -->
<g id="edge8" class="edge">
<title>Node5&#45;&gt;Node4</title>
<path fill="none" stroke="midnightblue" d="M142.88,-114.42C122.94,-105.5 92.31,-91.8 69.69,-81.69"/>
<polygon fill="midnightblue" stroke="midnightblue" points="71.09,-78.48 60.53,-77.6 68.24,-84.87 71.09,-78.48"/>
</g>
<!-- Node6 -->
<g id="node6" class="node">
<title>Node6</title>
<g id="a_node6"><a xlink:title=" ">
<polygon fill="none" stroke="#bfbfbf" points="79.19,-57.5 79.19,-77.5 129.19,-77.5 129.19,-57.5 79.19,-57.5"/>
<text text-anchor="middle" x="104.19" y="-64.7" font-family="-apple-system, BlinkMacSystemFont, 'Segoe UI', Roboto, Oxygen, Ubuntu, Cantarell, 'Fira Sans', 'Droid Sans', 'Helvetica Neue', sans-serif" font-size="11.00">chrono</text>
</a>
</g>
</g>
<!-- Node5&#45;&gt;Node6 -->
<g id="edge5" class="edge">
<title>Node5&#45;&gt;Node6</title>
<path fill="none" stroke="midnightblue" d="M153.45,-114.42C144.79,-106.35 131.93,-94.36 121.52,-84.65"/>
<polygon fill="midnightblue" stroke="midnightblue" points="123.85,-82.04 114.15,-77.78 119.08,-87.16 123.85,-82.04"/>
</g>
<!-- Node7 -->
<g id="node7" class="node">
<title>Node7</title>
<g id="a_node7"><a xlink:title=" ">
<polygon fill="none" stroke="#bfbfbf" points="147.19,-57.5 147.19,-77.5 189.19,-77.5 189.19,-57.5 147.19,-57.5"/>
<text text-anchor="middle" x="168.19" y="-64.7" font-family="-apple-system, BlinkMacSystemFont, 'Segoe UI', Roboto, Oxygen, Ubuntu, Cantarell, 'Fira Sans', 'Droid Sans', 'Helvetica Neue', sans-serif" font-size="11.00">ctime</text>
</a>
</g>
</g>
<!-- Node5&#45;&gt;Node7 -->
<g id="edge6" class="edge">
<title>Node5&#45;&gt;Node7</title>
<path fill="none" stroke="midnightblue" d="M164.02,-114.42C164.67,-107.22 165.61,-96.9 166.43,-87.86"/>
<polygon fill="midnightblue" stroke="midnightblue" points="169.93,-88.06 167.35,-77.78 162.96,-87.42 169.93,-88.06"/>
</g>
<!-- Node8&#45;&gt;Node3 -->
<g id="edge11" class="edge">
<title>Node8&#45;&gt;Node3</title>
<path fill="none" stroke="midnightblue" d="M513.21,-116.67C557.05,-107.68 616.28,-89.12 592.19,-57 577.28,-37.12 509.02,-23.05 467.9,-16.22"/>
<polygon fill="midnightblue" stroke="midnightblue" points="468.25,-12.73 457.83,-14.59 467.14,-19.64 468.25,-12.73"/>
</g>
<!-- Node9 -->
<g id="node9" class="node">
<title>Node9</title>
<g id="a_node9"><a xlink:title=" ">
<polygon fill="none" stroke="#bfbfbf" points="443.19,-57.5 443.19,-77.5 499.19,-77.5 499.19,-57.5 443.19,-57.5"/>
<text text-anchor="middle" x="471.19" y="-64.7" font-family="-apple-system, BlinkMacSystemFont, 'Segoe UI', Roboto, Oxygen, Ubuntu, Cantarell, 'Fira Sans', 'Droid Sans', 'Helvetica Neue', sans-serif" font-size="11.00">memory</text>
</a>
</g>
</g>
<!-- Node8&#45;&gt;Node9 -->
<g id="edge10" class="edge">
<title>Node8&#45;&gt;Node9</title>
<path fill="none" stroke="midnightblue" d="M471.19,-114.42C471.19,-107.22 471.19,-96.9 471.19,-87.86"/>
<polygon fill="midnightblue" stroke="midnightblue" points="474.69,-87.78 471.19,-77.78 467.69,-87.78 474.69,-87.78"/>
</g>
<!-- Node10 -->
<g id="node10" class="node">
<title>Node10</title>
<g id="a_node10"><a xlink:title=" ">
<polygon fill="none" stroke="#bfbfbf" points="517.19,-57.5 517.19,-77.5 583.19,-77.5 583.19,-57.5 517.19,-57.5"/>
<text text-anchor="middle" x="550.19" y="-64.7" font-family="-apple-system, BlinkMacSystemFont, 'Segoe UI', Roboto, Oxygen, Ubuntu, Cantarell, 'Fira Sans', 'Droid Sans', 'Helvetica Neue', sans-serif" font-size="11.00">type_traits</text>
</a>
</g>
</g>
<!-- Node8&#45;&gt;Node10 -->
<g id="edge12" class="edge">
<title>Node8&#45;&gt;Node10</title>
<path fill="none" stroke="midnightblue" d="M484.24,-114.42C496.36,-105.98 514.63,-93.26 528.87,-83.34"/>
<polygon fill="midnightblue" stroke="midnightblue" points="530.92,-86.18 537.13,-77.6 526.92,-80.44 530.92,-86.18"/>
</g>
<!-- Node11 -->
<g id="node11" class="node">
<title>Node11</title>
<g id="a_node11"><a xlink:href="MessageTypes_8hpp.html" target="_top" xlink:title=" ">
<polygon fill="none" stroke="black" points="245.69,-57.5 245.69,-77.5 424.69,-77.5 424.69,-57.5 245.69,-57.5"/>
<text text-anchor="middle" x="335.19" y="-64.7" font-family="-apple-system, BlinkMacSystemFont, 'Segoe UI', Roboto, Oxygen, Ubuntu, Cantarell, 'Fira Sans', 'Droid Sans', 'Helvetica Neue', sans-serif" font-size="11.00">libmirai/Types/MessageTypes.hpp</text>
</a>
</g>
</g>
<!-- Node8&#45;&gt;Node11 -->
<g id="edge13" class="edge">
<title>Node8&#45;&gt;Node11</title>
<path fill="none" stroke="midnightblue" d="M448.74,-114.42C426.49,-105.42 392.21,-91.56 367.13,-81.42"/>
<polygon fill="midnightblue" stroke="midnightblue" points="368.27,-78.1 357.68,-77.6 365.64,-84.59 368.27,-78.1"/>
</g>
<!-- Node11&#45;&gt;Node2 -->
<g id="edge14" class="edge">
<title>Node11&#45;&gt;Node2</title>
<path fill="none" stroke="midnightblue" d="M318.52,-57.42C302.58,-48.74 278.33,-35.53 259.92,-25.51"/>
<polygon fill="midnightblue" stroke="midnightblue" points="261.35,-22.3 250.9,-20.6 258.01,-28.45 261.35,-22.3"/>
</g>
<!-- Node11&#45;&gt;Node3 -->
<g id="edge15" class="edge">
<title>Node11&#45;&gt;Node3</title>
<path fill="none" stroke="midnightblue" d="M351.87,-57.42C367.81,-48.74 392.06,-35.53 410.47,-25.51"/>
<polygon fill="midnightblue" stroke="midnightblue" points="412.38,-28.45 419.49,-20.6 409.03,-22.3 412.38,-28.45"/>
</g>
</g>
</svg>
