<?xml version="1.0" encoding="UTF-8" standalone="no"?>
<!DOCTYPE svg PUBLIC "-//W3C//DTD SVG 1.1//EN"
 "http://www.w3.org/Graphics/SVG/1.1/DTD/svg11.dtd">
<!-- Generated by graphviz version 3.0.0 (20221109.1736)
 -->
<!-- Title: libmirai/models/libmirai/Events/NewFriendRequestEvent.hpp Pages: 1 -->
<svg width="516pt" height="212pt"
 viewBox="0.00 0.00 515.50 212.00" xmlns="http://www.w3.org/2000/svg" xmlns:xlink="http://www.w3.org/1999/xlink">
<g id="graph0" class="graph" transform="scale(1 1) rotate(0) translate(4 208)">
<title>libmirai/models/libmirai/Events/NewFriendRequestEvent.hpp</title>
<!-- Node1 -->
<g id="node1" class="node">
<title>Node1</title>
<g id="a_node1"><a xlink:title=" ">
<polygon fill="#bfbfbf" stroke="black" points="0,-171.5 0,-203.5 196,-203.5 196,-171.5 0,-171.5"/>
<text text-anchor="start" x="8" y="-190.7" font-family="-apple-system, BlinkMacSystemFont, 'Segoe UI', Roboto, Oxygen, Ubuntu, Cantarell, 'Fira Sans', 'Droid Sans', 'Helvetica Neue', sans-serif" font-size="11.00">libmirai/models/libmirai</text>
<text text-anchor="middle" x="98" y="-178.7" font-family="-apple-system, BlinkMacSystemFont, 'Segoe UI', Roboto, Oxygen, Ubuntu, Cantarell, 'Fira Sans', 'Droid Sans', 'Helvetica Neue', sans-serif" font-size="11.00">/Events/NewFriendRequestEvent.hpp</text>
</a>
</g>
</g>
<!-- Node2 -->
<g id="node2" class="node">
<title>Node2</title>
<g id="a_node2"><a xlink:title=" ">
<polygon fill="none" stroke="#bfbfbf" points="107.5,-0.5 107.5,-20.5 150.5,-20.5 150.5,-0.5 107.5,-0.5"/>
<text text-anchor="middle" x="129" y="-7.7" font-family="-apple-system, BlinkMacSystemFont, 'Segoe UI', Roboto, Oxygen, Ubuntu, Cantarell, 'Fira Sans', 'Droid Sans', 'Helvetica Neue', sans-serif" font-size="11.00">string</text>
</a>
</g>
</g>
<!-- Node1&#45;&gt;Node2 -->
<g id="edge1" class="edge">
<title>Node1&#45;&gt;Node2</title>
<path fill="none" stroke="midnightblue" d="M51.85,-171.4C34.97,-163.39 17.66,-151.66 8,-135 3.32,-126.93 6.43,-123.2 8,-114 12.51,-87.53 9.85,-76.78 28,-57 46.38,-36.97 75.26,-25.19 97.43,-18.65"/>
<polygon fill="midnightblue" stroke="midnightblue" points="98.37,-22.02 107.09,-16.01 96.52,-15.27 98.37,-22.02"/>
</g>
<!-- Node3 -->
<g id="node3" class="node">
<title>Node3</title>
<g id="a_node3"><a xlink:href="BasicTypes_8hpp.html" target="_top" xlink:title=" ">
<polygon fill="none" stroke="black" points="17,-114.5 17,-134.5 179,-134.5 179,-114.5 17,-114.5"/>
<text text-anchor="middle" x="98" y="-121.7" font-family="-apple-system, BlinkMacSystemFont, 'Segoe UI', Roboto, Oxygen, Ubuntu, Cantarell, 'Fira Sans', 'Droid Sans', 'Helvetica Neue', sans-serif" font-size="11.00">libmirai/Types/BasicTypes.hpp</text>
</a>
</g>
</g>
<!-- Node1&#45;&gt;Node3 -->
<g id="edge2" class="edge">
<title>Node1&#45;&gt;Node3</title>
<path fill="none" stroke="midnightblue" d="M98,-171.42C98,-163.38 98,-153.39 98,-144.78"/>
<polygon fill="midnightblue" stroke="midnightblue" points="101.5,-144.55 98,-134.55 94.5,-144.55 101.5,-144.55"/>
</g>
<!-- Node7 -->
<g id="node7" class="node">
<title>Node7</title>
<g id="a_node7"><a xlink:href="IEvent_8hpp.html" target="_top" xlink:title=" ">
<polygon fill="none" stroke="black" points="236,-114.5 236,-134.5 304,-134.5 304,-114.5 236,-114.5"/>
<text text-anchor="middle" x="270" y="-121.7" font-family="-apple-system, BlinkMacSystemFont, 'Segoe UI', Roboto, Oxygen, Ubuntu, Cantarell, 'Fira Sans', 'Droid Sans', 'Helvetica Neue', sans-serif" font-size="11.00">IEvent.hpp</text>
</a>
</g>
</g>
<!-- Node1&#45;&gt;Node7 -->
<g id="edge7" class="edge">
<title>Node1&#45;&gt;Node7</title>
<path fill="none" stroke="midnightblue" d="M140.52,-171.42C169.58,-161.11 207.63,-147.62 234.95,-137.93"/>
<polygon fill="midnightblue" stroke="midnightblue" points="236.24,-141.19 244.49,-134.55 233.9,-134.59 236.24,-141.19"/>
</g>
<!-- Node3&#45;&gt;Node2 -->
<g id="edge5" class="edge">
<title>Node3&#45;&gt;Node2</title>
<path fill="none" stroke="midnightblue" d="M77.82,-114.41C54.29,-102.48 20.39,-80.31 35,-57 48.64,-35.25 75.94,-23.64 97.62,-17.61"/>
<polygon fill="midnightblue" stroke="midnightblue" points="98.58,-20.98 107.42,-15.14 96.87,-14.19 98.58,-20.98"/>
</g>
<!-- Node4 -->
<g id="node4" class="node">
<title>Node4</title>
<g id="a_node4"><a xlink:title=" ">
<polygon fill="none" stroke="#bfbfbf" points="44,-57.5 44,-77.5 94,-77.5 94,-57.5 44,-57.5"/>
<text text-anchor="middle" x="69" y="-64.7" font-family="-apple-system, BlinkMacSystemFont, 'Segoe UI', Roboto, Oxygen, Ubuntu, Cantarell, 'Fira Sans', 'Droid Sans', 'Helvetica Neue', sans-serif" font-size="11.00">chrono</text>
</a>
</g>
</g>
<!-- Node3&#45;&gt;Node4 -->
<g id="edge3" class="edge">
<title>Node3&#45;&gt;Node4</title>
<path fill="none" stroke="midnightblue" d="M93.21,-114.42C89.25,-106.9 83.49,-95.98 78.59,-86.68"/>
<polygon fill="midnightblue" stroke="midnightblue" points="81.65,-84.99 73.89,-77.78 75.46,-88.26 81.65,-84.99"/>
</g>
<!-- Node5 -->
<g id="node5" class="node">
<title>Node5</title>
<g id="a_node5"><a xlink:title=" ">
<polygon fill="none" stroke="#bfbfbf" points="112,-57.5 112,-77.5 154,-77.5 154,-57.5 112,-57.5"/>
<text text-anchor="middle" x="133" y="-64.7" font-family="-apple-system, BlinkMacSystemFont, 'Segoe UI', Roboto, Oxygen, Ubuntu, Cantarell, 'Fira Sans', 'Droid Sans', 'Helvetica Neue', sans-serif" font-size="11.00">ctime</text>
</a>
</g>
</g>
<!-- Node3&#45;&gt;Node5 -->
<g id="edge4" class="edge">
<title>Node3&#45;&gt;Node5</title>
<path fill="none" stroke="midnightblue" d="M103.78,-114.42C108.61,-106.82 115.66,-95.75 121.62,-86.39"/>
<polygon fill="midnightblue" stroke="midnightblue" points="124.68,-88.1 127.09,-77.78 118.77,-84.34 124.68,-88.1"/>
</g>
<!-- Node6 -->
<g id="node6" class="node">
<title>Node6</title>
<g id="a_node6"><a xlink:title=" ">
<polygon fill="none" stroke="#bfbfbf" points="172.5,-57.5 172.5,-77.5 213.5,-77.5 213.5,-57.5 172.5,-57.5"/>
<text text-anchor="middle" x="193" y="-64.7" font-family="-apple-system, BlinkMacSystemFont, 'Segoe UI', Roboto, Oxygen, Ubuntu, Cantarell, 'Fira Sans', 'Droid Sans', 'Helvetica Neue', sans-serif" font-size="11.00">utility</text>
</a>
</g>
</g>
<!-- Node3&#45;&gt;Node6 -->
<g id="edge6" class="edge">
<title>Node3&#45;&gt;Node6</title>
<path fill="none" stroke="midnightblue" d="M113.69,-114.42C128.54,-105.82 151.07,-92.78 168.33,-82.78"/>
<polygon fill="midnightblue" stroke="midnightblue" points="170.39,-85.64 177.29,-77.6 166.88,-79.58 170.39,-85.64"/>
</g>
<!-- Node7&#45;&gt;Node2 -->
<g id="edge9" class="edge">
<title>Node7&#45;&gt;Node2</title>
<path fill="none" stroke="midnightblue" d="M265.25,-114.23C257.72,-100.27 241.82,-73.7 222,-57 203.74,-41.61 179.39,-29.94 160.18,-22.28"/>
<polygon fill="midnightblue" stroke="midnightblue" points="161.26,-18.94 150.67,-18.63 158.76,-25.48 161.26,-18.94"/>
</g>
<!-- Node8 -->
<g id="node8" class="node">
<title>Node8</title>
<g id="a_node8"><a xlink:title=" ">
<polygon fill="none" stroke="#bfbfbf" points="270,-57.5 270,-77.5 326,-77.5 326,-57.5 270,-57.5"/>
<text text-anchor="middle" x="298" y="-64.7" font-family="-apple-system, BlinkMacSystemFont, 'Segoe UI', Roboto, Oxygen, Ubuntu, Cantarell, 'Fira Sans', 'Droid Sans', 'Helvetica Neue', sans-serif" font-size="11.00">memory</text>
</a>
</g>
</g>
<!-- Node7&#45;&gt;Node8 -->
<g id="edge8" class="edge">
<title>Node7&#45;&gt;Node8</title>
<path fill="none" stroke="midnightblue" d="M274.62,-114.42C278.41,-106.98 283.89,-96.21 288.59,-86.97"/>
<polygon fill="midnightblue" stroke="midnightblue" points="291.86,-88.28 293.28,-77.78 285.62,-85.1 291.86,-88.28"/>
</g>
<!-- Node9 -->
<g id="node9" class="node">
<title>Node9</title>
<g id="a_node9"><a xlink:href="EventTypes_8hpp.html" target="_top" xlink:title=" ">
<polygon fill="none" stroke="red" points="344.5,-57.5 344.5,-77.5 507.5,-77.5 507.5,-57.5 344.5,-57.5"/>
<text text-anchor="middle" x="426" y="-64.7" font-family="-apple-system, BlinkMacSystemFont, 'Segoe UI', Roboto, Oxygen, Ubuntu, Cantarell, 'Fira Sans', 'Droid Sans', 'Helvetica Neue', sans-serif" font-size="11.00">libmirai/Types/EventTypes.hpp</text>
</a>
</g>
</g>
<!-- Node7&#45;&gt;Node9 -->
<g id="edge10" class="edge">
<title>Node7&#45;&gt;Node9</title>
<path fill="none" stroke="midnightblue" d="M295.76,-114.42C321.69,-105.27 361.89,-91.1 390.76,-80.92"/>
<polygon fill="midnightblue" stroke="midnightblue" points="392.19,-84.13 400.46,-77.5 389.87,-77.53 392.19,-84.13"/>
</g>
<!-- Node9&#45;&gt;Node2 -->
<g id="edge11" class="edge">
<title>Node9&#45;&gt;Node2</title>
<path fill="none" stroke="midnightblue" d="M377.29,-57.48C316.01,-46.13 212.55,-26.97 160.66,-17.36"/>
<polygon fill="midnightblue" stroke="midnightblue" points="161.17,-13.9 150.7,-15.52 159.9,-20.78 161.17,-13.9"/>
</g>
</g>
</svg>
