<?xml version="1.0" encoding="UTF-8" standalone="no"?>
<!DOCTYPE svg PUBLIC "-//W3C//DTD SVG 1.1//EN"
 "http://www.w3.org/Graphics/SVG/1.1/DTD/svg11.dtd">
<!-- Generated by graphviz version 3.0.0 (20220413.0242)
 -->
<!-- Title: libmirai/public/libmirai/Events/NudgeEvent.cpp Pages: 1 -->
<svg width="467pt" height="269pt"
 viewBox="0.00 0.00 466.50 269.00" xmlns="http://www.w3.org/2000/svg" xmlns:xlink="http://www.w3.org/1999/xlink">
<g id="graph0" class="graph" transform="scale(1 1) rotate(0) translate(4 265)">
<title>libmirai/public/libmirai/Events/NudgeEvent.cpp</title>
<!-- Node1 -->
<g id="node1" class="node">
<title>Node1</title>
<g id="a_node1"><a xlink:title=" ">
<polygon fill="#bfbfbf" stroke="black" points="177.5,-228.5 177.5,-260.5 311.5,-260.5 311.5,-228.5 177.5,-228.5"/>
<text text-anchor="start" x="185.5" y="-247.7" font-family="-apple-system, BlinkMacSystemFont, 'Segoe UI', Roboto, Oxygen, Ubuntu, Cantarell, 'Fira Sans', 'Droid Sans', 'Helvetica Neue', sans-serif" font-size="11.00">libmirai/public/libmirai</text>
<text text-anchor="middle" x="244.5" y="-235.7" font-family="-apple-system, BlinkMacSystemFont, 'Segoe UI', Roboto, Oxygen, Ubuntu, Cantarell, 'Fira Sans', 'Droid Sans', 'Helvetica Neue', sans-serif" font-size="11.00">/Events/NudgeEvent.cpp</text>
</a>
</g>
</g>
<!-- Node2 -->
<g id="node2" class="node">
<title>Node2</title>
<g id="a_node2"><a xlink:href="NudgeEvent_8hpp.html" target="_top" xlink:title=" ">
<polygon fill="none" stroke="black" points="75,-171.5 75,-191.5 172,-191.5 172,-171.5 75,-171.5"/>
<text text-anchor="middle" x="123.5" y="-178.7" font-family="-apple-system, BlinkMacSystemFont, 'Segoe UI', Roboto, Oxygen, Ubuntu, Cantarell, 'Fira Sans', 'Droid Sans', 'Helvetica Neue', sans-serif" font-size="11.00">NudgeEvent.hpp</text>
</a>
</g>
</g>
<!-- Node1&#45;&gt;Node2 -->
<g id="edge1" class="edge">
<title>Node1&#45;&gt;Node2</title>
<path fill="none" stroke="midnightblue" d="M214.59,-228.42C194.95,-218.52 169.48,-205.68 150.47,-196.1"/>
<polygon fill="midnightblue" stroke="midnightblue" points="151.95,-192.92 141.44,-191.55 148.8,-199.17 151.95,-192.92"/>
</g>
<!-- Node14 -->
<g id="node8" class="node">
<title>Node14</title>
<g id="a_node8"><a xlink:title=" ">
<polygon fill="none" stroke="#bfbfbf" points="190.5,-171.5 190.5,-191.5 298.5,-191.5 298.5,-171.5 190.5,-171.5"/>
<text text-anchor="middle" x="244.5" y="-178.7" font-family="-apple-system, BlinkMacSystemFont, 'Segoe UI', Roboto, Oxygen, Ubuntu, Cantarell, 'Fira Sans', 'Droid Sans', 'Helvetica Neue', sans-serif" font-size="11.00">nlohmann/json.hpp</text>
</a>
</g>
</g>
<!-- Node1&#45;&gt;Node14 -->
<g id="edge13" class="edge">
<title>Node1&#45;&gt;Node14</title>
<path fill="none" stroke="midnightblue" d="M244.5,-228.42C244.5,-220.38 244.5,-210.39 244.5,-201.78"/>
<polygon fill="midnightblue" stroke="midnightblue" points="248,-201.55 244.5,-191.55 241,-201.55 248,-201.55"/>
</g>
<!-- Node15 -->
<g id="node9" class="node">
<title>Node15</title>
<g id="a_node9"><a xlink:title=" ">
<polygon fill="none" stroke="#bfbfbf" points="316.5,-171.5 316.5,-191.5 458.5,-191.5 458.5,-171.5 316.5,-171.5"/>
<text text-anchor="middle" x="387.5" y="-178.7" font-family="-apple-system, BlinkMacSystemFont, 'Segoe UI', Roboto, Oxygen, Ubuntu, Cantarell, 'Fira Sans', 'Droid Sans', 'Helvetica Neue', sans-serif" font-size="11.00">libmirai/Utils/Common.hpp</text>
</a>
</g>
</g>
<!-- Node1&#45;&gt;Node15 -->
<g id="edge14" class="edge">
<title>Node1&#45;&gt;Node15</title>
<path fill="none" stroke="midnightblue" d="M279.85,-228.42C303.48,-218.34 334.26,-205.21 356.85,-195.57"/>
<polygon fill="midnightblue" stroke="midnightblue" points="358.47,-198.69 366.29,-191.55 355.72,-192.25 358.47,-198.69"/>
</g>
<!-- Node3 -->
<g id="node3" class="node">
<title>Node3</title>
<g id="a_node3"><a xlink:title=" ">
<polygon fill="none" stroke="#bfbfbf" points="242,-0.5 242,-20.5 285,-20.5 285,-0.5 242,-0.5"/>
<text text-anchor="middle" x="263.5" y="-7.7" font-family="-apple-system, BlinkMacSystemFont, 'Segoe UI', Roboto, Oxygen, Ubuntu, Cantarell, 'Fira Sans', 'Droid Sans', 'Helvetica Neue', sans-serif" font-size="11.00">string</text>
</a>
</g>
</g>
<!-- Node2&#45;&gt;Node3 -->
<g id="edge2" class="edge">
<title>Node2&#45;&gt;Node3</title>
<path fill="none" stroke="midnightblue" d="M171.81,-171.45C231.39,-160.07 325.48,-141.25 330.5,-135 343.37,-119 329.24,-79.17 315.5,-57 308.1,-45.05 296.57,-34.51 286.26,-26.58"/>
<polygon fill="midnightblue" stroke="midnightblue" points="288.14,-23.62 277.99,-20.57 284.02,-29.29 288.14,-23.62"/>
</g>
<!-- Node4 -->
<g id="node4" class="node">
<title>Node4</title>
<g id="a_node4"><a xlink:title=" ">
<polygon fill="none" stroke="#bfbfbf" points="0,-0.5 0,-20.5 131,-20.5 131,-0.5 0,-0.5"/>
<text text-anchor="middle" x="65.5" y="-7.7" font-family="-apple-system, BlinkMacSystemFont, 'Segoe UI', Roboto, Oxygen, Ubuntu, Cantarell, 'Fira Sans', 'Droid Sans', 'Helvetica Neue', sans-serif" font-size="11.00">nlohmann/json_fwd.hpp</text>
</a>
</g>
</g>
<!-- Node2&#45;&gt;Node4 -->
<g id="edge3" class="edge">
<title>Node2&#45;&gt;Node4</title>
<path fill="none" stroke="midnightblue" d="M106.54,-171.27C80.35,-155.92 31.05,-122.39 11.5,-78 2.59,-57.76 22.24,-38.6 40.28,-26.09"/>
<polygon fill="midnightblue" stroke="midnightblue" points="42.4,-28.89 48.88,-20.51 38.59,-23.02 42.4,-28.89"/>
</g>
<!-- Node5 -->
<g id="node5" class="node">
<title>Node5</title>
<g id="a_node5"><a xlink:href="BasicTypes_8hpp.html" target="_top" xlink:title=" ">
<polygon fill="none" stroke="red" points="128.5,-57.5 128.5,-77.5 290.5,-77.5 290.5,-57.5 128.5,-57.5"/>
<text text-anchor="middle" x="209.5" y="-64.7" font-family="-apple-system, BlinkMacSystemFont, 'Segoe UI', Roboto, Oxygen, Ubuntu, Cantarell, 'Fira Sans', 'Droid Sans', 'Helvetica Neue', sans-serif" font-size="11.00">libmirai/Types/BasicTypes.hpp</text>
</a>
</g>
</g>
<!-- Node2&#45;&gt;Node5 -->
<g id="edge4" class="edge">
<title>Node2&#45;&gt;Node5</title>
<path fill="none" stroke="midnightblue" d="M124.13,-171.48C125.49,-157.85 129.69,-131.71 142.5,-114 152.14,-100.67 166.97,-90.02 180.22,-82.39"/>
<polygon fill="midnightblue" stroke="midnightblue" points="181.94,-85.43 189.06,-77.59 178.6,-79.28 181.94,-85.43"/>
</g>
<!-- Node10 -->
<g id="node6" class="node">
<title>Node10</title>
<g id="a_node6"><a xlink:href="NudgeTarget_8hpp.html" target="_top" xlink:title=" ">
<polygon fill="none" stroke="red" points="151.5,-114.5 151.5,-134.5 321.5,-134.5 321.5,-114.5 151.5,-114.5"/>
<text text-anchor="middle" x="236.5" y="-121.7" font-family="-apple-system, BlinkMacSystemFont, 'Segoe UI', Roboto, Oxygen, Ubuntu, Cantarell, 'Fira Sans', 'Droid Sans', 'Helvetica Neue', sans-serif" font-size="11.00">libmirai/Types/NudgeTarget.hpp</text>
</a>
</g>
</g>
<!-- Node2&#45;&gt;Node10 -->
<g id="edge7" class="edge">
<title>Node2&#45;&gt;Node10</title>
<path fill="none" stroke="midnightblue" d="M142.16,-171.42C160.23,-162.62 187.87,-149.17 208.57,-139.1"/>
<polygon fill="midnightblue" stroke="midnightblue" points="210.35,-142.12 217.81,-134.6 207.29,-135.83 210.35,-142.12"/>
</g>
<!-- Node12 -->
<g id="node7" class="node">
<title>Node12</title>
<g id="a_node7"><a xlink:href="EventBase_8hpp.html" target="_top" xlink:title=" ">
<polygon fill="none" stroke="red" points="21,-57.5 21,-77.5 110,-77.5 110,-57.5 21,-57.5"/>
<text text-anchor="middle" x="65.5" y="-64.7" font-family="-apple-system, BlinkMacSystemFont, 'Segoe UI', Roboto, Oxygen, Ubuntu, Cantarell, 'Fira Sans', 'Droid Sans', 'Helvetica Neue', sans-serif" font-size="11.00">EventBase.hpp</text>
</a>
</g>
</g>
<!-- Node2&#45;&gt;Node12 -->
<g id="edge10" class="edge">
<title>Node2&#45;&gt;Node12</title>
<path fill="none" stroke="midnightblue" d="M118.75,-171.33C109.19,-152.88 87.47,-110.92 74.92,-86.69"/>
<polygon fill="midnightblue" stroke="midnightblue" points="78.02,-85.06 70.31,-77.79 71.8,-88.28 78.02,-85.06"/>
</g>
<!-- Node5&#45;&gt;Node3 -->
<g id="edge5" class="edge">
<title>Node5&#45;&gt;Node3</title>
<path fill="none" stroke="midnightblue" d="M218.42,-57.42C226.26,-49.42 237.88,-37.59 247.36,-27.94"/>
<polygon fill="midnightblue" stroke="midnightblue" points="249.88,-30.37 254.39,-20.78 244.89,-25.46 249.88,-30.37"/>
</g>
<!-- Node5&#45;&gt;Node4 -->
<g id="edge6" class="edge">
<title>Node5&#45;&gt;Node4</title>
<path fill="none" stroke="midnightblue" d="M185.72,-57.42C162.06,-48.38 125.55,-34.44 98.97,-24.28"/>
<polygon fill="midnightblue" stroke="midnightblue" points="99.9,-20.89 89.31,-20.6 97.41,-27.43 99.9,-20.89"/>
</g>
<!-- Node10&#45;&gt;Node3 -->
<g id="edge8" class="edge">
<title>Node10&#45;&gt;Node3</title>
<path fill="none" stroke="midnightblue" d="M257.97,-114.46C272.61,-107.02 290.84,-94.94 299.5,-78 308.29,-60.8 295.09,-41.41 282.27,-28.02"/>
<polygon fill="midnightblue" stroke="midnightblue" points="284.54,-25.35 274.93,-20.9 279.67,-30.37 284.54,-25.35"/>
</g>
<!-- Node10&#45;&gt;Node5 -->
<g id="edge9" class="edge">
<title>Node10&#45;&gt;Node5</title>
<path fill="none" stroke="midnightblue" d="M232.04,-114.42C228.39,-106.98 223.1,-96.21 218.57,-86.97"/>
<polygon fill="midnightblue" stroke="midnightblue" points="221.6,-85.21 214.06,-77.78 215.32,-88.3 221.6,-85.21"/>
</g>
<!-- Node12&#45;&gt;Node3 -->
<g id="edge11" class="edge">
<title>Node12&#45;&gt;Node3</title>
<path fill="none" stroke="midnightblue" d="M98.2,-57.42C135.34,-47.1 195.54,-30.38 232.13,-20.21"/>
<polygon fill="midnightblue" stroke="midnightblue" points="233.09,-23.58 241.79,-17.53 231.21,-16.84 233.09,-23.58"/>
</g>
<!-- Node12&#45;&gt;Node4 -->
<g id="edge12" class="edge">
<title>Node12&#45;&gt;Node4</title>
<path fill="none" stroke="midnightblue" d="M65.5,-57.42C65.5,-50.22 65.5,-39.9 65.5,-30.86"/>
<polygon fill="midnightblue" stroke="midnightblue" points="69,-30.78 65.5,-20.78 62,-30.78 69,-30.78"/>
</g>
</g>
</svg>
