<?xml version="1.0" encoding="UTF-8" standalone="no"?>
<!DOCTYPE svg PUBLIC "-//W3C//DTD SVG 1.1//EN"
 "http://www.w3.org/Graphics/SVG/1.1/DTD/svg11.dtd">
<!-- Generated by graphviz version 2.43.0 (0)
 -->
<!-- Title: libmirai/public/libmirai/Types/NudgeTarget.hpp Pages: 1 -->
<svg width="479pt" height="212pt"
 viewBox="0.00 0.00 479.00 212.00" xmlns="http://www.w3.org/2000/svg" xmlns:xlink="http://www.w3.org/1999/xlink">
<g id="graph0" class="graph" transform="scale(1 1) rotate(0) translate(4 208)">
<title>libmirai/public/libmirai/Types/NudgeTarget.hpp</title>
<!-- Node1 -->
<g id="node1" class="node">
<title>Node1</title>
<g id="a_node1"><a xlink:title=" ">
<polygon fill="#bfbfbf" stroke="black" points="0,-171.5 0,-203.5 149,-203.5 149,-171.5 0,-171.5"/>
<text text-anchor="start" x="8" y="-190.7" font-family="-apple-system,BlinkMacSystemFont,'SegoeUI',Roboto,Oxygen,Ubuntu,Cantarell,'FiraSans','DroidSans','HelveticaNeue',sans-serif" font-size="11.00">libmirai/public/libmirai</text>
<text text-anchor="middle" x="74.5" y="-178.7" font-family="-apple-system,BlinkMacSystemFont,'SegoeUI',Roboto,Oxygen,Ubuntu,Cantarell,'FiraSans','DroidSans','HelveticaNeue',sans-serif" font-size="11.00">/Types/NudgeTarget.hpp</text>
</a>
</g>
</g>
<!-- Node2 -->
<g id="node2" class="node">
<title>Node2</title>
<g id="a_node2"><a xlink:title=" ">
<polygon fill="none" stroke="#bfbfbf" points="0.5,-114.5 0.5,-134.5 46.5,-134.5 46.5,-114.5 0.5,-114.5"/>
<text text-anchor="middle" x="23.5" y="-121.7" font-family="-apple-system,BlinkMacSystemFont,'SegoeUI',Roboto,Oxygen,Ubuntu,Cantarell,'FiraSans','DroidSans','HelveticaNeue',sans-serif" font-size="11.00">array</text>
</a>
</g>
</g>
<!-- Node1&#45;&gt;Node2 -->
<g id="edge1" class="edge">
<title>Node1&#45;&gt;Node2</title>
<path fill="none" stroke="midnightblue" d="M61.89,-171.42C54.56,-162.65 45.3,-151.57 37.71,-142.5"/>
<polygon fill="midnightblue" stroke="midnightblue" points="40.16,-139.97 31.06,-134.55 34.79,-144.46 40.16,-139.97"/>
</g>
<!-- Node3 -->
<g id="node3" class="node">
<title>Node3</title>
<g id="a_node3"><a xlink:title=" ">
<polygon fill="none" stroke="#bfbfbf" points="45.5,-57.5 45.5,-77.5 93.5,-77.5 93.5,-57.5 45.5,-57.5"/>
<text text-anchor="middle" x="69.5" y="-64.7" font-family="-apple-system,BlinkMacSystemFont,'SegoeUI',Roboto,Oxygen,Ubuntu,Cantarell,'FiraSans','DroidSans','HelveticaNeue',sans-serif" font-size="11.00">string</text>
</a>
</g>
</g>
<!-- Node1&#45;&gt;Node3 -->
<g id="edge2" class="edge">
<title>Node1&#45;&gt;Node3</title>
<path fill="none" stroke="midnightblue" d="M73.85,-171.07C72.94,-149.71 71.31,-111.11 70.32,-87.84"/>
<polygon fill="midnightblue" stroke="midnightblue" points="73.81,-87.64 69.89,-77.79 66.82,-87.93 73.81,-87.64"/>
</g>
<!-- Node4 -->
<g id="node4" class="node">
<title>Node4</title>
<g id="a_node4"><a xlink:href="BasicTypes_8hpp.html" target="_top" xlink:title=" ">
<polygon fill="none" stroke="black" points="112,-114.5 112,-134.5 293,-134.5 293,-114.5 112,-114.5"/>
<text text-anchor="middle" x="202.5" y="-121.7" font-family="-apple-system,BlinkMacSystemFont,'SegoeUI',Roboto,Oxygen,Ubuntu,Cantarell,'FiraSans','DroidSans','HelveticaNeue',sans-serif" font-size="11.00">libmirai/Types/BasicTypes.hpp</text>
</a>
</g>
</g>
<!-- Node1&#45;&gt;Node4 -->
<g id="edge3" class="edge">
<title>Node1&#45;&gt;Node4</title>
<path fill="none" stroke="midnightblue" d="M106.14,-171.42C127.01,-161.48 154.1,-148.56 174.25,-138.96"/>
<polygon fill="midnightblue" stroke="midnightblue" points="176,-142.01 183.52,-134.55 172.99,-135.69 176,-142.01"/>
</g>
<!-- Node4&#45;&gt;Node3 -->
<g id="edge6" class="edge">
<title>Node4&#45;&gt;Node3</title>
<path fill="none" stroke="midnightblue" d="M180.54,-114.42C158.78,-105.42 125.26,-91.56 100.74,-81.42"/>
<polygon fill="midnightblue" stroke="midnightblue" points="102.07,-78.18 91.49,-77.6 99.4,-84.65 102.07,-78.18"/>
</g>
<!-- Node5 -->
<g id="node5" class="node">
<title>Node5</title>
<g id="a_node5"><a xlink:title=" ">
<polygon fill="none" stroke="#bfbfbf" points="111.5,-57.5 111.5,-77.5 165.5,-77.5 165.5,-57.5 111.5,-57.5"/>
<text text-anchor="middle" x="138.5" y="-64.7" font-family="-apple-system,BlinkMacSystemFont,'SegoeUI',Roboto,Oxygen,Ubuntu,Cantarell,'FiraSans','DroidSans','HelveticaNeue',sans-serif" font-size="11.00">chrono</text>
</a>
</g>
</g>
<!-- Node4&#45;&gt;Node5 -->
<g id="edge4" class="edge">
<title>Node4&#45;&gt;Node5</title>
<path fill="none" stroke="midnightblue" d="M191.93,-114.42C182.45,-106.27 168.31,-94.12 156.96,-84.37"/>
<polygon fill="midnightblue" stroke="midnightblue" points="159.16,-81.64 149.3,-77.78 154.6,-86.95 159.16,-81.64"/>
</g>
<!-- Node6 -->
<g id="node6" class="node">
<title>Node6</title>
<g id="a_node6"><a xlink:title=" ">
<polygon fill="none" stroke="#bfbfbf" points="184,-57.5 184,-77.5 231,-77.5 231,-57.5 184,-57.5"/>
<text text-anchor="middle" x="207.5" y="-64.7" font-family="-apple-system,BlinkMacSystemFont,'SegoeUI',Roboto,Oxygen,Ubuntu,Cantarell,'FiraSans','DroidSans','HelveticaNeue',sans-serif" font-size="11.00">ctime</text>
</a>
</g>
</g>
<!-- Node4&#45;&gt;Node6 -->
<g id="edge5" class="edge">
<title>Node4&#45;&gt;Node6</title>
<path fill="none" stroke="midnightblue" d="M203.33,-114.42C203.98,-107.22 204.92,-96.9 205.74,-87.86"/>
<polygon fill="midnightblue" stroke="midnightblue" points="209.24,-88.06 206.66,-77.78 202.27,-87.42 209.24,-88.06"/>
</g>
<!-- Node7 -->
<g id="node7" class="node">
<title>Node7</title>
<g id="a_node7"><a xlink:title=" ">
<polygon fill="none" stroke="#bfbfbf" points="246.5,-0.5 246.5,-20.5 392.5,-20.5 392.5,-0.5 246.5,-0.5"/>
<text text-anchor="middle" x="319.5" y="-7.7" font-family="-apple-system,BlinkMacSystemFont,'SegoeUI',Roboto,Oxygen,Ubuntu,Cantarell,'FiraSans','DroidSans','HelveticaNeue',sans-serif" font-size="11.00">nlohmann/json_fwd.hpp</text>
</a>
</g>
</g>
<!-- Node4&#45;&gt;Node7 -->
<g id="edge7" class="edge">
<title>Node4&#45;&gt;Node7</title>
<path fill="none" stroke="midnightblue" d="M212.07,-114.33C231.87,-95.38 277.54,-51.67 302.48,-27.79"/>
<polygon fill="midnightblue" stroke="midnightblue" points="304.99,-30.24 309.79,-20.79 300.15,-25.18 304.99,-30.24"/>
</g>
<!-- Node8 -->
<g id="node8" class="node">
<title>Node8</title>
<g id="a_node8"><a xlink:href="Serializable_8hpp.html" target="_top" xlink:title=" ">
<polygon fill="none" stroke="black" points="288,-57.5 288,-77.5 471,-77.5 471,-57.5 288,-57.5"/>
<text text-anchor="middle" x="379.5" y="-64.7" font-family="-apple-system,BlinkMacSystemFont,'SegoeUI',Roboto,Oxygen,Ubuntu,Cantarell,'FiraSans','DroidSans','HelveticaNeue',sans-serif" font-size="11.00">libmirai/Types/Serializable.hpp</text>
</a>
</g>
</g>
<!-- Node4&#45;&gt;Node8 -->
<g id="edge8" class="edge">
<title>Node4&#45;&gt;Node8</title>
<path fill="none" stroke="midnightblue" d="M231.73,-114.42C261.54,-105.15 307.95,-90.73 340.8,-80.53"/>
<polygon fill="midnightblue" stroke="midnightblue" points="342.01,-83.81 350.52,-77.5 339.93,-77.13 342.01,-83.81"/>
</g>
<!-- Node8&#45;&gt;Node7 -->
<g id="edge9" class="edge">
<title>Node8&#45;&gt;Node7</title>
<path fill="none" stroke="midnightblue" d="M369.59,-57.42C360.79,-49.35 347.71,-37.36 337.12,-27.65"/>
<polygon fill="midnightblue" stroke="midnightblue" points="339.36,-24.96 329.62,-20.78 334.63,-30.12 339.36,-24.96"/>
</g>
</g>
</svg>
