<?xml version="1.0" encoding="UTF-8" standalone="no"?>
<!DOCTYPE svg PUBLIC "-//W3C//DTD SVG 1.1//EN"
 "http://www.w3.org/Graphics/SVG/1.1/DTD/svg11.dtd">
<!-- Generated by graphviz version 2.43.0 (0)
 -->
<!-- Title: libmirai/public/libmirai/Events/NudgeEvent.cpp Pages: 1 -->
<svg width="515pt" height="269pt"
 viewBox="0.00 0.00 515.00 269.00" xmlns="http://www.w3.org/2000/svg" xmlns:xlink="http://www.w3.org/1999/xlink">
<g id="graph0" class="graph" transform="scale(1 1) rotate(0) translate(4 265)">
<title>libmirai/public/libmirai/Events/NudgeEvent.cpp</title>
<!-- Node1 -->
<g id="node1" class="node">
<title>Node1</title>
<g id="a_node1"><a xlink:title=" ">
<polygon fill="#bfbfbf" stroke="black" points="190,-228.5 190,-260.5 342,-260.5 342,-228.5 190,-228.5"/>
<text text-anchor="start" x="198" y="-247.7" font-family="-apple-system,BlinkMacSystemFont,'SegoeUI',Roboto,Oxygen,Ubuntu,Cantarell,'FiraSans','DroidSans','HelveticaNeue',sans-serif" font-size="11.00">libmirai/public/libmirai</text>
<text text-anchor="middle" x="266" y="-235.7" font-family="-apple-system,BlinkMacSystemFont,'SegoeUI',Roboto,Oxygen,Ubuntu,Cantarell,'FiraSans','DroidSans','HelveticaNeue',sans-serif" font-size="11.00">/Events/NudgeEvent.cpp</text>
</a>
</g>
</g>
<!-- Node2 -->
<g id="node2" class="node">
<title>Node2</title>
<g id="a_node2"><a xlink:href="NudgeEvent_8hpp.html" target="_top" xlink:title=" ">
<polygon fill="none" stroke="black" points="80.5,-171.5 80.5,-191.5 187.5,-191.5 187.5,-171.5 80.5,-171.5"/>
<text text-anchor="middle" x="134" y="-178.7" font-family="-apple-system,BlinkMacSystemFont,'SegoeUI',Roboto,Oxygen,Ubuntu,Cantarell,'FiraSans','DroidSans','HelveticaNeue',sans-serif" font-size="11.00">NudgeEvent.hpp</text>
</a>
</g>
</g>
<!-- Node1&#45;&gt;Node2 -->
<g id="edge1" class="edge">
<title>Node1&#45;&gt;Node2</title>
<path fill="none" stroke="midnightblue" d="M233.37,-228.42C211.75,-218.43 183.65,-205.45 162.85,-195.83"/>
<polygon fill="midnightblue" stroke="midnightblue" points="164.12,-192.56 153.57,-191.55 161.18,-198.92 164.12,-192.56"/>
</g>
<!-- Node13 -->
<g id="node8" class="node">
<title>Node13</title>
<g id="a_node8"><a xlink:title=" ">
<polygon fill="none" stroke="#bfbfbf" points="205.5,-171.5 205.5,-191.5 326.5,-191.5 326.5,-171.5 205.5,-171.5"/>
<text text-anchor="middle" x="266" y="-178.7" font-family="-apple-system,BlinkMacSystemFont,'SegoeUI',Roboto,Oxygen,Ubuntu,Cantarell,'FiraSans','DroidSans','HelveticaNeue',sans-serif" font-size="11.00">nlohmann/json.hpp</text>
</a>
</g>
</g>
<!-- Node1&#45;&gt;Node13 -->
<g id="edge13" class="edge">
<title>Node1&#45;&gt;Node13</title>
<path fill="none" stroke="midnightblue" d="M266,-228.42C266,-220.38 266,-210.39 266,-201.78"/>
<polygon fill="midnightblue" stroke="midnightblue" points="269.5,-201.55 266,-191.55 262.5,-201.55 269.5,-201.55"/>
</g>
<!-- Node14 -->
<g id="node9" class="node">
<title>Node14</title>
<g id="a_node9"><a xlink:title=" ">
<polygon fill="none" stroke="#bfbfbf" points="345,-171.5 345,-191.5 507,-191.5 507,-171.5 345,-171.5"/>
<text text-anchor="middle" x="426" y="-178.7" font-family="-apple-system,BlinkMacSystemFont,'SegoeUI',Roboto,Oxygen,Ubuntu,Cantarell,'FiraSans','DroidSans','HelveticaNeue',sans-serif" font-size="11.00">libmirai/Utils/Common.hpp</text>
</a>
</g>
</g>
<!-- Node1&#45;&gt;Node14 -->
<g id="edge14" class="edge">
<title>Node1&#45;&gt;Node14</title>
<path fill="none" stroke="midnightblue" d="M305.55,-228.42C332.35,-218.21 367.36,-204.86 392.72,-195.19"/>
<polygon fill="midnightblue" stroke="midnightblue" points="394.18,-198.38 402.27,-191.55 391.68,-191.84 394.18,-198.38"/>
</g>
<!-- Node3 -->
<g id="node3" class="node">
<title>Node3</title>
<g id="a_node3"><a xlink:title=" ">
<polygon fill="none" stroke="#bfbfbf" points="266,-0.5 266,-20.5 314,-20.5 314,-0.5 266,-0.5"/>
<text text-anchor="middle" x="290" y="-7.7" font-family="-apple-system,BlinkMacSystemFont,'SegoeUI',Roboto,Oxygen,Ubuntu,Cantarell,'FiraSans','DroidSans','HelveticaNeue',sans-serif" font-size="11.00">string</text>
</a>
</g>
</g>
<!-- Node2&#45;&gt;Node3 -->
<g id="edge2" class="edge">
<title>Node2&#45;&gt;Node3</title>
<path fill="none" stroke="midnightblue" d="M187.53,-171.52C252.88,-160.3 355.47,-141.75 361,-135 374.09,-119.03 360.36,-79.26 346,-57 338.07,-44.71 325.72,-34.16 314.64,-26.33"/>
<polygon fill="midnightblue" stroke="midnightblue" points="316.38,-23.29 306.12,-20.64 312.5,-29.11 316.38,-23.29"/>
</g>
<!-- Node4 -->
<g id="node4" class="node">
<title>Node4</title>
<g id="a_node4"><a xlink:title=" ">
<polygon fill="none" stroke="#bfbfbf" points="0,-0.5 0,-20.5 146,-20.5 146,-0.5 0,-0.5"/>
<text text-anchor="middle" x="73" y="-7.7" font-family="-apple-system,BlinkMacSystemFont,'SegoeUI',Roboto,Oxygen,Ubuntu,Cantarell,'FiraSans','DroidSans','HelveticaNeue',sans-serif" font-size="11.00">nlohmann/json_fwd.hpp</text>
</a>
</g>
</g>
<!-- Node2&#45;&gt;Node4 -->
<g id="edge3" class="edge">
<title>Node2&#45;&gt;Node4</title>
<path fill="none" stroke="midnightblue" d="M115.41,-171.36C87.29,-156.35 34.99,-123.53 14,-78 4.42,-57.22 25.73,-38.2 45.37,-25.87"/>
<polygon fill="midnightblue" stroke="midnightblue" points="47.31,-28.79 54.15,-20.7 43.76,-22.76 47.31,-28.79"/>
</g>
<!-- Node5 -->
<g id="node5" class="node">
<title>Node5</title>
<g id="a_node5"><a xlink:href="BasicTypes_8hpp.html" target="_top" xlink:title=" ">
<polygon fill="none" stroke="red" points="140.5,-57.5 140.5,-77.5 321.5,-77.5 321.5,-57.5 140.5,-57.5"/>
<text text-anchor="middle" x="231" y="-64.7" font-family="-apple-system,BlinkMacSystemFont,'SegoeUI',Roboto,Oxygen,Ubuntu,Cantarell,'FiraSans','DroidSans','HelveticaNeue',sans-serif" font-size="11.00">libmirai/Types/BasicTypes.hpp</text>
</a>
</g>
</g>
<!-- Node2&#45;&gt;Node5 -->
<g id="edge4" class="edge">
<title>Node2&#45;&gt;Node5</title>
<path fill="none" stroke="midnightblue" d="M134.48,-171.37C135.65,-157.59 139.59,-131.26 153,-114 164.07,-99.75 180.96,-89.12 196.19,-81.73"/>
<polygon fill="midnightblue" stroke="midnightblue" points="197.74,-84.87 205.39,-77.54 194.84,-78.49 197.74,-84.87"/>
</g>
<!-- Node9 -->
<g id="node6" class="node">
<title>Node9</title>
<g id="a_node6"><a xlink:href="NudgeTarget_8hpp.html" target="_top" xlink:title=" ">
<polygon fill="none" stroke="red" points="162,-114.5 162,-134.5 352,-134.5 352,-114.5 162,-114.5"/>
<text text-anchor="middle" x="257" y="-121.7" font-family="-apple-system,BlinkMacSystemFont,'SegoeUI',Roboto,Oxygen,Ubuntu,Cantarell,'FiraSans','DroidSans','HelveticaNeue',sans-serif" font-size="11.00">libmirai/Types/NudgeTarget.hpp</text>
</a>
</g>
</g>
<!-- Node2&#45;&gt;Node9 -->
<g id="edge7" class="edge">
<title>Node2&#45;&gt;Node9</title>
<path fill="none" stroke="midnightblue" d="M154.31,-171.42C174.25,-162.5 204.89,-148.8 227.51,-138.69"/>
<polygon fill="midnightblue" stroke="midnightblue" points="228.96,-141.87 236.66,-134.6 226.1,-135.48 228.96,-141.87"/>
</g>
<!-- Node11 -->
<g id="node7" class="node">
<title>Node11</title>
<g id="a_node7"><a xlink:href="EventBase_8hpp.html" target="_top" xlink:title=" ">
<polygon fill="none" stroke="red" points="23.5,-57.5 23.5,-77.5 122.5,-77.5 122.5,-57.5 23.5,-57.5"/>
<text text-anchor="middle" x="73" y="-64.7" font-family="-apple-system,BlinkMacSystemFont,'SegoeUI',Roboto,Oxygen,Ubuntu,Cantarell,'FiraSans','DroidSans','HelveticaNeue',sans-serif" font-size="11.00">EventBase.hpp</text>
</a>
</g>
</g>
<!-- Node2&#45;&gt;Node11 -->
<g id="edge10" class="edge">
<title>Node2&#45;&gt;Node11</title>
<path fill="none" stroke="midnightblue" d="M129.01,-171.33C118.95,-152.88 96.1,-110.92 82.91,-86.69"/>
<polygon fill="midnightblue" stroke="midnightblue" points="85.92,-84.9 78.06,-77.79 79.77,-88.25 85.92,-84.9"/>
</g>
<!-- Node5&#45;&gt;Node3 -->
<g id="edge5" class="edge">
<title>Node5&#45;&gt;Node3</title>
<path fill="none" stroke="midnightblue" d="M240.74,-57.42C249.4,-49.35 262.26,-37.36 272.67,-27.65"/>
<polygon fill="midnightblue" stroke="midnightblue" points="275.12,-30.16 280.05,-20.78 270.34,-25.04 275.12,-30.16"/>
</g>
<!-- Node5&#45;&gt;Node4 -->
<g id="edge6" class="edge">
<title>Node5&#45;&gt;Node4</title>
<path fill="none" stroke="midnightblue" d="M204.91,-57.42C178.64,-48.27 137.94,-34.1 108.69,-23.92"/>
<polygon fill="midnightblue" stroke="midnightblue" points="109.46,-20.49 98.87,-20.5 107.16,-27.1 109.46,-20.49"/>
</g>
<!-- Node9&#45;&gt;Node3 -->
<g id="edge8" class="edge">
<title>Node9&#45;&gt;Node3</title>
<path fill="none" stroke="midnightblue" d="M283.95,-114.43C300.45,-107.32 320.22,-95.63 330,-78 339.76,-60.41 324.52,-40.71 310.13,-27.35"/>
<polygon fill="midnightblue" stroke="midnightblue" points="312.23,-24.54 302.38,-20.63 307.65,-29.83 312.23,-24.54"/>
</g>
<!-- Node9&#45;&gt;Node5 -->
<g id="edge9" class="edge">
<title>Node9&#45;&gt;Node5</title>
<path fill="none" stroke="midnightblue" d="M252.71,-114.42C249.19,-106.98 244.1,-96.21 239.73,-86.97"/>
<polygon fill="midnightblue" stroke="midnightblue" points="242.82,-85.32 235.39,-77.78 236.5,-88.32 242.82,-85.32"/>
</g>
<!-- Node11&#45;&gt;Node3 -->
<g id="edge11" class="edge">
<title>Node11&#45;&gt;Node3</title>
<path fill="none" stroke="midnightblue" d="M108.83,-57.42C149.7,-47.06 216.01,-30.25 256.06,-20.1"/>
<polygon fill="midnightblue" stroke="midnightblue" points="257.06,-23.46 265.89,-17.61 255.34,-16.67 257.06,-23.46"/>
</g>
<!-- Node11&#45;&gt;Node4 -->
<g id="edge12" class="edge">
<title>Node11&#45;&gt;Node4</title>
<path fill="none" stroke="midnightblue" d="M73,-57.42C73,-50.22 73,-39.9 73,-30.86"/>
<polygon fill="midnightblue" stroke="midnightblue" points="76.5,-30.78 73,-20.78 69.5,-30.78 76.5,-30.78"/>
</g>
</g>
</svg>
