<?xml version="1.0" encoding="UTF-8" standalone="no"?>
<!DOCTYPE svg PUBLIC "-//W3C//DTD SVG 1.1//EN"
 "http://www.w3.org/Graphics/SVG/1.1/DTD/svg11.dtd">
<!-- Generated by graphviz version 3.0.0 (20220413.0242)
 -->
<!-- Title: libmirai/public/libmirai/Events/NudgeEvent.hpp Pages: 1 -->
<svg width="555pt" height="269pt"
 viewBox="0.00 0.00 554.58 269.00" xmlns="http://www.w3.org/2000/svg" xmlns:xlink="http://www.w3.org/1999/xlink">
<g id="graph0" class="graph" transform="scale(1 1) rotate(0) translate(4 265)">
<title>libmirai/public/libmirai/Events/NudgeEvent.hpp</title>
<!-- Node1 -->
<g id="node1" class="node">
<title>Node1</title>
<g id="a_node1"><a xlink:title=" ">
<polygon fill="#bfbfbf" stroke="black" points="331.5,-228.5 331.5,-260.5 466.5,-260.5 466.5,-228.5 331.5,-228.5"/>
<text text-anchor="start" x="339.5" y="-247.7" font-family="-apple-system, BlinkMacSystemFont, 'Segoe UI', Roboto, Oxygen, Ubuntu, Cantarell, 'Fira Sans', 'Droid Sans', 'Helvetica Neue', sans-serif" font-size="11.00">libmirai/public/libmirai</text>
<text text-anchor="middle" x="399" y="-235.7" font-family="-apple-system, BlinkMacSystemFont, 'Segoe UI', Roboto, Oxygen, Ubuntu, Cantarell, 'Fira Sans', 'Droid Sans', 'Helvetica Neue', sans-serif" font-size="11.00">/Events/NudgeEvent.hpp</text>
</a>
</g>
</g>
<!-- Node2 -->
<g id="node2" class="node">
<title>Node2</title>
<g id="a_node2"><a xlink:title=" ">
<polygon fill="none" stroke="#bfbfbf" points="346.5,-57.5 346.5,-77.5 389.5,-77.5 389.5,-57.5 346.5,-57.5"/>
<text text-anchor="middle" x="368" y="-64.7" font-family="-apple-system, BlinkMacSystemFont, 'Segoe UI', Roboto, Oxygen, Ubuntu, Cantarell, 'Fira Sans', 'Droid Sans', 'Helvetica Neue', sans-serif" font-size="11.00">string</text>
</a>
</g>
</g>
<!-- Node1&#45;&gt;Node2 -->
<g id="edge1" class="edge">
<title>Node1&#45;&gt;Node2</title>
<path fill="none" stroke="midnightblue" d="M349.86,-228.43C332.56,-220.49 314.96,-208.81 305,-192 282.86,-154.63 323.24,-108.57 349,-84.65"/>
<polygon fill="midnightblue" stroke="midnightblue" points="351.64,-86.98 356.75,-77.7 346.97,-81.77 351.64,-86.98"/>
</g>
<!-- Node3 -->
<g id="node3" class="node">
<title>Node3</title>
<g id="a_node3"><a xlink:title=" ">
<polygon fill="none" stroke="#bfbfbf" points="235.5,-0.5 235.5,-20.5 366.5,-20.5 366.5,-0.5 235.5,-0.5"/>
<text text-anchor="middle" x="301" y="-7.7" font-family="-apple-system, BlinkMacSystemFont, 'Segoe UI', Roboto, Oxygen, Ubuntu, Cantarell, 'Fira Sans', 'Droid Sans', 'Helvetica Neue', sans-serif" font-size="11.00">nlohmann/json_fwd.hpp</text>
</a>
</g>
</g>
<!-- Node1&#45;&gt;Node3 -->
<g id="edge2" class="edge">
<title>Node1&#45;&gt;Node3</title>
<path fill="none" stroke="midnightblue" d="M449.6,-228.44C470.08,-220.31 492.68,-208.48 509,-192 551.31,-149.27 562.25,-97.72 518,-57 497.47,-38.11 430.6,-26.02 376.46,-19.09"/>
<polygon fill="midnightblue" stroke="midnightblue" points="376.86,-15.61 366.51,-17.86 376,-22.56 376.86,-15.61"/>
</g>
<!-- Node4 -->
<g id="node4" class="node">
<title>Node4</title>
<g id="a_node4"><a xlink:href="BasicTypes_8hpp.html" target="_top" xlink:title=" ">
<polygon fill="none" stroke="black" points="97,-114.5 97,-134.5 259,-134.5 259,-114.5 97,-114.5"/>
<text text-anchor="middle" x="178" y="-121.7" font-family="-apple-system, BlinkMacSystemFont, 'Segoe UI', Roboto, Oxygen, Ubuntu, Cantarell, 'Fira Sans', 'Droid Sans', 'Helvetica Neue', sans-serif" font-size="11.00">libmirai/Types/BasicTypes.hpp</text>
</a>
</g>
</g>
<!-- Node1&#45;&gt;Node4 -->
<g id="edge3" class="edge">
<title>Node1&#45;&gt;Node4</title>
<path fill="none" stroke="midnightblue" d="M354.95,-228.49C329.97,-219.29 298.51,-206.5 272,-192 244.57,-177 215.57,-155.5 197.16,-141.05"/>
<polygon fill="midnightblue" stroke="midnightblue" points="199.03,-138.07 189.02,-134.58 194.67,-143.55 199.03,-138.07"/>
</g>
<!-- Node8 -->
<g id="node8" class="node">
<title>Node8</title>
<g id="a_node8"><a xlink:href="NudgeTarget_8hpp.html" target="_top" xlink:title=" ">
<polygon fill="none" stroke="black" points="314,-171.5 314,-191.5 484,-191.5 484,-171.5 314,-171.5"/>
<text text-anchor="middle" x="399" y="-178.7" font-family="-apple-system, BlinkMacSystemFont, 'Segoe UI', Roboto, Oxygen, Ubuntu, Cantarell, 'Fira Sans', 'Droid Sans', 'Helvetica Neue', sans-serif" font-size="11.00">libmirai/Types/NudgeTarget.hpp</text>
</a>
</g>
</g>
<!-- Node1&#45;&gt;Node8 -->
<g id="edge10" class="edge">
<title>Node1&#45;&gt;Node8</title>
<path fill="none" stroke="midnightblue" d="M399,-228.42C399,-220.38 399,-210.39 399,-201.78"/>
<polygon fill="midnightblue" stroke="midnightblue" points="402.5,-201.55 399,-191.55 395.5,-201.55 402.5,-201.55"/>
</g>
<!-- Node10 -->
<g id="node10" class="node">
<title>Node10</title>
<g id="a_node10"><a xlink:href="EventBase_8hpp.html" target="_top" xlink:title=" ">
<polygon fill="none" stroke="black" points="436.5,-114.5 436.5,-134.5 525.5,-134.5 525.5,-114.5 436.5,-114.5"/>
<text text-anchor="middle" x="481" y="-121.7" font-family="-apple-system, BlinkMacSystemFont, 'Segoe UI', Roboto, Oxygen, Ubuntu, Cantarell, 'Fira Sans', 'Droid Sans', 'Helvetica Neue', sans-serif" font-size="11.00">EventBase.hpp</text>
</a>
</g>
</g>
<!-- Node1&#45;&gt;Node10 -->
<g id="edge14" class="edge">
<title>Node1&#45;&gt;Node10</title>
<path fill="none" stroke="midnightblue" d="M448.14,-228.43C465.44,-220.49 483.04,-208.81 493,-192 501.66,-177.38 496.68,-158.02 490.72,-143.96"/>
<polygon fill="midnightblue" stroke="midnightblue" points="493.83,-142.34 486.39,-134.8 487.5,-145.34 493.83,-142.34"/>
</g>
<!-- Node4&#45;&gt;Node2 -->
<g id="edge6" class="edge">
<title>Node4&#45;&gt;Node2</title>
<path fill="none" stroke="midnightblue" d="M210.33,-114.44C240.55,-105.93 287.15,-92.69 336.72,-78.04"/>
<polygon fill="midnightblue" stroke="midnightblue" points="337.74,-81.39 346.34,-75.2 335.75,-74.68 337.74,-81.39"/>
</g>
<!-- Node4&#45;&gt;Node3 -->
<g id="edge7" class="edge">
<title>Node4&#45;&gt;Node3</title>
<path fill="none" stroke="midnightblue" d="M147.05,-114.46C113.86,-103.21 68.51,-82.35 89,-57 106.09,-35.86 171.38,-24.09 225.05,-17.84"/>
<polygon fill="midnightblue" stroke="midnightblue" points="225.71,-21.29 235.26,-16.71 224.93,-14.34 225.71,-21.29"/>
</g>
<!-- Node5 -->
<g id="node5" class="node">
<title>Node5</title>
<g id="a_node5"><a xlink:title=" ">
<polygon fill="none" stroke="#bfbfbf" points="278,-57.5 278,-77.5 328,-77.5 328,-57.5 278,-57.5"/>
<text text-anchor="middle" x="303" y="-64.7" font-family="-apple-system, BlinkMacSystemFont, 'Segoe UI', Roboto, Oxygen, Ubuntu, Cantarell, 'Fira Sans', 'Droid Sans', 'Helvetica Neue', sans-serif" font-size="11.00">chrono</text>
</a>
</g>
</g>
<!-- Node4&#45;&gt;Node5 -->
<g id="edge4" class="edge">
<title>Node4&#45;&gt;Node5</title>
<path fill="none" stroke="midnightblue" d="M198.64,-114.42C218.91,-105.5 250.04,-91.8 273.03,-81.69"/>
<polygon fill="midnightblue" stroke="midnightblue" points="274.58,-84.83 282.33,-77.6 271.77,-78.42 274.58,-84.83"/>
</g>
<!-- Node6 -->
<g id="node6" class="node">
<title>Node6</title>
<g id="a_node6"><a xlink:title=" ">
<polygon fill="none" stroke="#bfbfbf" points="0,-57.5 0,-77.5 42,-77.5 42,-57.5 0,-57.5"/>
<text text-anchor="middle" x="21" y="-64.7" font-family="-apple-system, BlinkMacSystemFont, 'Segoe UI', Roboto, Oxygen, Ubuntu, Cantarell, 'Fira Sans', 'Droid Sans', 'Helvetica Neue', sans-serif" font-size="11.00">ctime</text>
</a>
</g>
</g>
<!-- Node4&#45;&gt;Node6 -->
<g id="edge5" class="edge">
<title>Node4&#45;&gt;Node6</title>
<path fill="none" stroke="midnightblue" d="M152.07,-114.42C124.65,-104.81 81.38,-89.65 52.13,-79.41"/>
<polygon fill="midnightblue" stroke="midnightblue" points="53.01,-76.01 42.42,-76 50.7,-82.61 53.01,-76.01"/>
</g>
<!-- Node7 -->
<g id="node7" class="node">
<title>Node7</title>
<g id="a_node7"><a xlink:href="Serializable_8hpp.html" target="_top" xlink:title=" ">
<polygon fill="none" stroke="black" points="98,-57.5 98,-77.5 260,-77.5 260,-57.5 98,-57.5"/>
<text text-anchor="middle" x="179" y="-64.7" font-family="-apple-system, BlinkMacSystemFont, 'Segoe UI', Roboto, Oxygen, Ubuntu, Cantarell, 'Fira Sans', 'Droid Sans', 'Helvetica Neue', sans-serif" font-size="11.00">libmirai/Types/Serializable.hpp</text>
</a>
</g>
</g>
<!-- Node4&#45;&gt;Node7 -->
<g id="edge8" class="edge">
<title>Node4&#45;&gt;Node7</title>
<path fill="none" stroke="midnightblue" d="M178.17,-114.42C178.3,-107.22 178.48,-96.9 178.65,-87.86"/>
<polygon fill="midnightblue" stroke="midnightblue" points="182.15,-87.84 178.83,-77.78 175.15,-87.71 182.15,-87.84"/>
</g>
<!-- Node7&#45;&gt;Node3 -->
<g id="edge9" class="edge">
<title>Node7&#45;&gt;Node3</title>
<path fill="none" stroke="midnightblue" d="M199.15,-57.42C218.84,-48.54 249.04,-34.93 271.45,-24.82"/>
<polygon fill="midnightblue" stroke="midnightblue" points="273.15,-27.9 280.82,-20.6 270.27,-21.51 273.15,-27.9"/>
</g>
<!-- Node8&#45;&gt;Node2 -->
<g id="edge12" class="edge">
<title>Node8&#45;&gt;Node2</title>
<path fill="none" stroke="midnightblue" d="M390.55,-171.22C383.28,-162.56 373.29,-148.92 369,-135 364.27,-119.66 364.38,-101.36 365.47,-87.85"/>
<polygon fill="midnightblue" stroke="midnightblue" points="368.97,-88.1 366.54,-77.79 362.01,-87.37 368.97,-88.1"/>
</g>
<!-- Node8&#45;&gt;Node4 -->
<g id="edge13" class="edge">
<title>Node8&#45;&gt;Node4</title>
<path fill="none" stroke="midnightblue" d="M362.51,-171.42C324.56,-161.98 265.08,-147.17 223.96,-136.94"/>
<polygon fill="midnightblue" stroke="midnightblue" points="224.73,-133.52 214.18,-134.5 223.04,-140.32 224.73,-133.52"/>
</g>
<!-- Node9 -->
<g id="node9" class="node">
<title>Node9</title>
<g id="a_node9"><a xlink:title=" ">
<polygon fill="none" stroke="#bfbfbf" points="377.5,-114.5 377.5,-134.5 418.5,-134.5 418.5,-114.5 377.5,-114.5"/>
<text text-anchor="middle" x="398" y="-121.7" font-family="-apple-system, BlinkMacSystemFont, 'Segoe UI', Roboto, Oxygen, Ubuntu, Cantarell, 'Fira Sans', 'Droid Sans', 'Helvetica Neue', sans-serif" font-size="11.00">array</text>
</a>
</g>
</g>
<!-- Node8&#45;&gt;Node9 -->
<g id="edge11" class="edge">
<title>Node8&#45;&gt;Node9</title>
<path fill="none" stroke="midnightblue" d="M398.83,-171.42C398.7,-164.22 398.52,-153.9 398.35,-144.86"/>
<polygon fill="midnightblue" stroke="midnightblue" points="401.85,-144.71 398.17,-134.78 394.85,-144.84 401.85,-144.71"/>
</g>
<!-- Node10&#45;&gt;Node2 -->
<g id="edge16" class="edge">
<title>Node10&#45;&gt;Node2</title>
<path fill="none" stroke="midnightblue" d="M462.34,-114.42C444.27,-105.62 416.63,-92.17 395.93,-82.1"/>
<polygon fill="midnightblue" stroke="midnightblue" points="397.21,-78.83 386.69,-77.6 394.15,-85.12 397.21,-78.83"/>
</g>
<!-- Node10&#45;&gt;Node3 -->
<g id="edge17" class="edge">
<title>Node10&#45;&gt;Node3</title>
<path fill="none" stroke="midnightblue" d="M471.5,-114.47C456.81,-100.82 427.3,-74.66 399,-57 378.44,-44.17 353.68,-32.7 334.19,-24.49"/>
<polygon fill="midnightblue" stroke="midnightblue" points="335.39,-21.2 324.81,-20.61 332.72,-27.67 335.39,-21.2"/>
</g>
<!-- Node11 -->
<g id="node11" class="node">
<title>Node11</title>
<g id="a_node11"><a xlink:title=" ">
<polygon fill="none" stroke="#bfbfbf" points="453,-57.5 453,-77.5 509,-77.5 509,-57.5 453,-57.5"/>
<text text-anchor="middle" x="481" y="-64.7" font-family="-apple-system, BlinkMacSystemFont, 'Segoe UI', Roboto, Oxygen, Ubuntu, Cantarell, 'Fira Sans', 'Droid Sans', 'Helvetica Neue', sans-serif" font-size="11.00">memory</text>
</a>
</g>
</g>
<!-- Node10&#45;&gt;Node11 -->
<g id="edge15" class="edge">
<title>Node10&#45;&gt;Node11</title>
<path fill="none" stroke="midnightblue" d="M481,-114.42C481,-107.22 481,-96.9 481,-87.86"/>
<polygon fill="midnightblue" stroke="midnightblue" points="484.5,-87.78 481,-77.78 477.5,-87.78 484.5,-87.78"/>
</g>
</g>
</svg>
