<?xml version="1.0" encoding="UTF-8" standalone="no"?>
<!DOCTYPE svg PUBLIC "-//W3C//DTD SVG 1.1//EN"
 "http://www.w3.org/Graphics/SVG/1.1/DTD/svg11.dtd">
<!-- Generated by graphviz version 3.0.0 (20221109.1736)
 -->
<!-- Title: libmirai/models/libmirai/Types/NudgeTarget.hpp Pages: 1 -->
<svg width="310pt" height="317pt"
 viewBox="0.00 0.00 310.00 317.00" xmlns="http://www.w3.org/2000/svg" xmlns:xlink="http://www.w3.org/1999/xlink">
<g id="graph0" class="graph" transform="scale(1 1) rotate(0) translate(4 313)">
<title>libmirai/models/libmirai/Types/NudgeTarget.hpp</title>
<!-- Node1 -->
<g id="node1" class="node">
<title>Node1</title>
<g id="a_node1"><a xlink:title=" ">
<polygon fill="#bfbfbf" stroke="black" points="81,-276.5 81,-308.5 218,-308.5 218,-276.5 81,-276.5"/>
<text text-anchor="start" x="89" y="-295.7" font-family="-apple-system, BlinkMacSystemFont, 'Segoe UI', Roboto, Oxygen, Ubuntu, Cantarell, 'Fira Sans', 'Droid Sans', 'Helvetica Neue', sans-serif" font-size="11.00">libmirai/models/libmirai</text>
<text text-anchor="middle" x="149.5" y="-283.7" font-family="-apple-system, BlinkMacSystemFont, 'Segoe UI', Roboto, Oxygen, Ubuntu, Cantarell, 'Fira Sans', 'Droid Sans', 'Helvetica Neue', sans-serif" font-size="11.00">/Types/NudgeTarget.hpp</text>
</a>
</g>
</g>
<!-- Node2 -->
<g id="node2" class="node">
<title>Node2</title>
<g id="a_node2"><a xlink:href="Types_8hpp.html" target="_top" xlink:title=" ">
<polygon fill="none" stroke="black" points="0,-138.5 0,-170.5 139,-170.5 139,-138.5 0,-138.5"/>
<text text-anchor="start" x="8" y="-157.7" font-family="-apple-system, BlinkMacSystemFont, 'Segoe UI', Roboto, Oxygen, Ubuntu, Cantarell, 'Fira Sans', 'Droid Sans', 'Helvetica Neue', sans-serif" font-size="11.00">libmirai/aggregates</text>
<text text-anchor="middle" x="69.5" y="-145.7" font-family="-apple-system, BlinkMacSystemFont, 'Segoe UI', Roboto, Oxygen, Ubuntu, Cantarell, 'Fira Sans', 'Droid Sans', 'Helvetica Neue', sans-serif" font-size="11.00">/libmirai/Types/Types.hpp</text>
</a>
</g>
</g>
<!-- Node1&#45;&gt;Node2 -->
<g id="edge1" class="edge">
<title>Node1&#45;&gt;Node2</title>
<path fill="none" stroke="midnightblue" d="M135.48,-267.67C119.03,-239.71 92.25,-194.17 78.41,-170.64"/>
<polygon fill="midnightblue" stroke="midnightblue" points="132.55,-269.58 140.63,-276.43 138.58,-266.03 132.55,-269.58"/>
</g>
<!-- Node9 -->
<g id="node6" class="node">
<title>Node9</title>
<g id="a_node6"><a xlink:href="NudgeEvent_8hpp.html" target="_top" xlink:title=" ">
<polygon fill="none" stroke="black" points="146,-207.5 146,-239.5 281,-239.5 281,-207.5 146,-207.5"/>
<text text-anchor="start" x="154" y="-226.7" font-family="-apple-system, BlinkMacSystemFont, 'Segoe UI', Roboto, Oxygen, Ubuntu, Cantarell, 'Fira Sans', 'Droid Sans', 'Helvetica Neue', sans-serif" font-size="11.00">libmirai/models/libmirai</text>
<text text-anchor="middle" x="213.5" y="-214.7" font-family="-apple-system, BlinkMacSystemFont, 'Segoe UI', Roboto, Oxygen, Ubuntu, Cantarell, 'Fira Sans', 'Droid Sans', 'Helvetica Neue', sans-serif" font-size="11.00">/Events/NudgeEvent.hpp</text>
</a>
</g>
</g>
<!-- Node1&#45;&gt;Node9 -->
<g id="edge6" class="edge">
<title>Node1&#45;&gt;Node9</title>
<path fill="none" stroke="midnightblue" d="M171.06,-268.93C180.27,-259.28 190.78,-248.28 199.03,-239.64"/>
<polygon fill="midnightblue" stroke="midnightblue" points="168.4,-266.65 164.02,-276.3 173.46,-271.48 168.4,-266.65"/>
</g>
<!-- Node3 -->
<g id="node3" class="node">
<title>Node3</title>
<g id="a_node3"><a xlink:href="models_8hpp.html" target="_top" xlink:title=" ">
<polygon fill="none" stroke="red" points="162.5,-69.5 162.5,-101.5 274.5,-101.5 274.5,-69.5 162.5,-69.5"/>
<text text-anchor="start" x="170.5" y="-88.7" font-family="-apple-system, BlinkMacSystemFont, 'Segoe UI', Roboto, Oxygen, Ubuntu, Cantarell, 'Fira Sans', 'Droid Sans', 'Helvetica Neue', sans-serif" font-size="11.00">libmirai/aggregates</text>
<text text-anchor="middle" x="218.5" y="-76.7" font-family="-apple-system, BlinkMacSystemFont, 'Segoe UI', Roboto, Oxygen, Ubuntu, Cantarell, 'Fira Sans', 'Droid Sans', 'Helvetica Neue', sans-serif" font-size="11.00">/libmirai/models.hpp</text>
</a>
</g>
</g>
<!-- Node2&#45;&gt;Node3 -->
<g id="edge2" class="edge">
<title>Node2&#45;&gt;Node3</title>
<path fill="none" stroke="midnightblue" d="M112.17,-134.31C135.27,-123.93 163.39,-111.28 184.92,-101.6"/>
<polygon fill="midnightblue" stroke="midnightblue" points="110.62,-131.17 102.94,-138.46 113.49,-137.55 110.62,-131.17"/>
</g>
<!-- Node5 -->
<g id="node4" class="node">
<title>Node5</title>
<g id="a_node4"><a xlink:href="IAdaptor_8hpp.html" target="_top" xlink:title=" ">
<polygon fill="none" stroke="red" points="16.5,-69.5 16.5,-101.5 144.5,-101.5 144.5,-69.5 16.5,-69.5"/>
<text text-anchor="start" x="24.5" y="-88.7" font-family="-apple-system, BlinkMacSystemFont, 'Segoe UI', Roboto, Oxygen, Ubuntu, Cantarell, 'Fira Sans', 'Droid Sans', 'Helvetica Neue', sans-serif" font-size="11.00">libmirai/api/libmirai</text>
<text text-anchor="middle" x="80.5" y="-76.7" font-family="-apple-system, BlinkMacSystemFont, 'Segoe UI', Roboto, Oxygen, Ubuntu, Cantarell, 'Fira Sans', 'Droid Sans', 'Helvetica Neue', sans-serif" font-size="11.00">/Adaptors/IAdaptor.hpp</text>
</a>
</g>
</g>
<!-- Node2&#45;&gt;Node5 -->
<g id="edge3" class="edge">
<title>Node2&#45;&gt;Node5</title>
<path fill="none" stroke="midnightblue" d="M73.63,-128.32C75.11,-119.34 76.72,-109.51 78.01,-101.64"/>
<polygon fill="midnightblue" stroke="midnightblue" points="70.16,-127.86 72,-138.3 77.07,-129 70.16,-127.86"/>
</g>
<!-- Node7 -->
<g id="node5" class="node">
<title>Node7</title>
<g id="a_node5"><a xlink:href="Client_8hpp.html" target="_top" xlink:title=" ">
<polygon fill="none" stroke="red" points="28.5,-0.5 28.5,-32.5 132.5,-32.5 132.5,-0.5 28.5,-0.5"/>
<text text-anchor="start" x="36.5" y="-19.7" font-family="-apple-system, BlinkMacSystemFont, 'Segoe UI', Roboto, Oxygen, Ubuntu, Cantarell, 'Fira Sans', 'Droid Sans', 'Helvetica Neue', sans-serif" font-size="11.00">libmirai/api/libmirai</text>
<text text-anchor="middle" x="80.5" y="-7.7" font-family="-apple-system, BlinkMacSystemFont, 'Segoe UI', Roboto, Oxygen, Ubuntu, Cantarell, 'Fira Sans', 'Droid Sans', 'Helvetica Neue', sans-serif" font-size="11.00">/Client/Client.hpp</text>
</a>
</g>
</g>
<!-- Node2&#45;&gt;Node7 -->
<g id="edge5" class="edge">
<title>Node2&#45;&gt;Node7</title>
<path fill="none" stroke="midnightblue" d="M33.63,-132.41C23.24,-124.33 13.18,-114.09 7.5,-102 1.27,-88.72 0.75,-82.02 7.5,-69 15.78,-53.03 31.54,-40.95 46.31,-32.53"/>
<polygon fill="midnightblue" stroke="midnightblue" points="31.81,-135.41 41.96,-138.43 35.9,-129.73 31.81,-135.41"/>
</g>
<!-- Node5&#45;&gt;Node7 -->
<g id="edge4" class="edge">
<title>Node5&#45;&gt;Node7</title>
<path fill="none" stroke="midnightblue" d="M80.5,-59.02C80.5,-50.13 80.5,-40.43 80.5,-32.64"/>
<polygon fill="midnightblue" stroke="midnightblue" points="77,-59.3 80.5,-69.3 84,-59.3 77,-59.3"/>
</g>
<!-- Node10 -->
<g id="node7" class="node">
<title>Node10</title>
<g id="a_node7"><a xlink:href="Events_8hpp.html" target="_top" xlink:title=" ">
<polygon fill="none" stroke="black" points="157,-138.5 157,-170.5 302,-170.5 302,-138.5 157,-138.5"/>
<text text-anchor="start" x="165" y="-157.7" font-family="-apple-system, BlinkMacSystemFont, 'Segoe UI', Roboto, Oxygen, Ubuntu, Cantarell, 'Fira Sans', 'Droid Sans', 'Helvetica Neue', sans-serif" font-size="11.00">libmirai/aggregates</text>
<text text-anchor="middle" x="229.5" y="-145.7" font-family="-apple-system, BlinkMacSystemFont, 'Segoe UI', Roboto, Oxygen, Ubuntu, Cantarell, 'Fira Sans', 'Droid Sans', 'Helvetica Neue', sans-serif" font-size="11.00">/libmirai/Events/Events.hpp</text>
</a>
</g>
</g>
<!-- Node9&#45;&gt;Node10 -->
<g id="edge7" class="edge">
<title>Node9&#45;&gt;Node10</title>
<path fill="none" stroke="midnightblue" d="M219.51,-197.32C221.66,-188.34 224,-178.51 225.88,-170.64"/>
<polygon fill="midnightblue" stroke="midnightblue" points="216.05,-196.76 217.13,-207.3 222.86,-198.38 216.05,-196.76"/>
</g>
<!-- Node10&#45;&gt;Node3 -->
<g id="edge8" class="edge">
<title>Node10&#45;&gt;Node3</title>
<path fill="none" stroke="midnightblue" d="M225.37,-128.32C223.89,-119.34 222.28,-109.51 220.99,-101.64"/>
<polygon fill="midnightblue" stroke="midnightblue" points="221.93,-129 227,-138.3 228.84,-127.86 221.93,-129"/>
</g>
<!-- Node10&#45;&gt;Node5 -->
<g id="edge9" class="edge">
<title>Node10&#45;&gt;Node5</title>
<path fill="none" stroke="midnightblue" d="M186.83,-134.31C163.73,-123.93 135.61,-111.28 114.08,-101.6"/>
<polygon fill="midnightblue" stroke="midnightblue" points="185.51,-137.55 196.06,-138.46 188.38,-131.17 185.51,-137.55"/>
</g>
<!-- Node10&#45;&gt;Node7 -->
<g id="edge10" class="edge">
<title>Node10&#45;&gt;Node7</title>
<path fill="none" stroke="midnightblue" d="M258.9,-131.73C278.96,-114.21 299.26,-89.26 283.5,-69 265.14,-45.4 186.55,-30.86 132.72,-23.49"/>
<polygon fill="midnightblue" stroke="midnightblue" points="256.47,-129.2 251.02,-138.28 260.94,-134.58 256.47,-129.2"/>
</g>
</g>
</svg>
