<?xml version="1.0" encoding="UTF-8" standalone="no"?>
<!DOCTYPE svg PUBLIC "-//W3C//DTD SVG 1.1//EN"
 "http://www.w3.org/Graphics/SVG/1.1/DTD/svg11.dtd">
<!-- Generated by graphviz version 3.0.0 (20220413.0242)
 -->
<!-- Title: libmirai/public/libmirai/Events/OtherClientMessageEvent.cpp Pages: 1 -->
<svg width="578pt" height="224pt"
 viewBox="0.00 0.00 577.91 224.00" xmlns="http://www.w3.org/2000/svg" xmlns:xlink="http://www.w3.org/1999/xlink">
<g id="graph0" class="graph" transform="scale(1 1) rotate(0) translate(4 220)">
<title>libmirai/public/libmirai/Events/OtherClientMessageEvent.cpp</title>
<!-- Node1 -->
<g id="node1" class="node">
<title>Node1</title>
<g id="a_node1"><a xlink:title=" ">
<polygon fill="#bfbfbf" stroke="black" points="255.91,-183.5 255.91,-215.5 455.91,-215.5 455.91,-183.5 255.91,-183.5"/>
<text text-anchor="start" x="263.91" y="-202.7" font-family="-apple-system, BlinkMacSystemFont, 'Segoe UI', Roboto, Oxygen, Ubuntu, Cantarell, 'Fira Sans', 'Droid Sans', 'Helvetica Neue', sans-serif" font-size="11.00">libmirai/public/libmirai</text>
<text text-anchor="middle" x="355.91" y="-190.7" font-family="-apple-system, BlinkMacSystemFont, 'Segoe UI', Roboto, Oxygen, Ubuntu, Cantarell, 'Fira Sans', 'Droid Sans', 'Helvetica Neue', sans-serif" font-size="11.00">/Events/OtherClientMessageEvent.cpp</text>
</a>
</g>
</g>
<!-- Node2 -->
<g id="node2" class="node">
<title>Node2</title>
<g id="a_node2"><a xlink:href="OtherClientMessageEvent_8hpp.html" target="_top" xlink:title=" ">
<polygon fill="none" stroke="black" points="121.91,-126.5 121.91,-146.5 283.91,-146.5 283.91,-126.5 121.91,-126.5"/>
<text text-anchor="middle" x="202.91" y="-133.7" font-family="-apple-system, BlinkMacSystemFont, 'Segoe UI', Roboto, Oxygen, Ubuntu, Cantarell, 'Fira Sans', 'Droid Sans', 'Helvetica Neue', sans-serif" font-size="11.00">OtherClientMessageEvent.hpp</text>
</a>
</g>
</g>
<!-- Node1&#45;&gt;Node2 -->
<g id="edge1" class="edge">
<title>Node1&#45;&gt;Node2</title>
<path fill="none" stroke="midnightblue" d="M318.09,-183.42C292.58,-173.25 259.28,-159.97 235.05,-150.32"/>
<polygon fill="midnightblue" stroke="midnightblue" points="236.18,-147 225.6,-146.55 233.59,-153.5 236.18,-147"/>
</g>
<!-- Node35 -->
<g id="node8" class="node">
<title>Node35</title>
<g id="a_node8"><a xlink:title=" ">
<polygon fill="none" stroke="#bfbfbf" points="301.91,-126.5 301.91,-146.5 409.91,-146.5 409.91,-126.5 301.91,-126.5"/>
<text text-anchor="middle" x="355.91" y="-133.7" font-family="-apple-system, BlinkMacSystemFont, 'Segoe UI', Roboto, Oxygen, Ubuntu, Cantarell, 'Fira Sans', 'Droid Sans', 'Helvetica Neue', sans-serif" font-size="11.00">nlohmann/json.hpp</text>
</a>
</g>
</g>
<!-- Node1&#45;&gt;Node35 -->
<g id="edge12" class="edge">
<title>Node1&#45;&gt;Node35</title>
<path fill="none" stroke="midnightblue" d="M355.91,-183.42C355.91,-175.38 355.91,-165.39 355.91,-156.78"/>
<polygon fill="midnightblue" stroke="midnightblue" points="359.41,-156.55 355.91,-146.55 352.41,-156.55 359.41,-156.55"/>
</g>
<!-- Node36 -->
<g id="node9" class="node">
<title>Node36</title>
<g id="a_node9"><a xlink:title=" ">
<polygon fill="none" stroke="#bfbfbf" points="427.91,-126.5 427.91,-146.5 569.91,-146.5 569.91,-126.5 427.91,-126.5"/>
<text text-anchor="middle" x="498.91" y="-133.7" font-family="-apple-system, BlinkMacSystemFont, 'Segoe UI', Roboto, Oxygen, Ubuntu, Cantarell, 'Fira Sans', 'Droid Sans', 'Helvetica Neue', sans-serif" font-size="11.00">libmirai/Utils/Common.hpp</text>
</a>
</g>
</g>
<!-- Node1&#45;&gt;Node36 -->
<g id="edge13" class="edge">
<title>Node1&#45;&gt;Node36</title>
<path fill="none" stroke="midnightblue" d="M391.26,-183.42C414.89,-173.34 445.67,-160.21 468.26,-150.57"/>
<polygon fill="midnightblue" stroke="midnightblue" points="469.88,-153.69 477.7,-146.55 467.13,-147.25 469.88,-153.69"/>
</g>
<!-- Node3 -->
<g id="node3" class="node">
<title>Node3</title>
<g id="a_node3"><a xlink:title=" ">
<polygon fill="none" stroke="#bfbfbf" points="37.41,-0.5 37.41,-20.5 80.41,-20.5 80.41,-0.5 37.41,-0.5"/>
<text text-anchor="middle" x="58.91" y="-7.7" font-family="-apple-system, BlinkMacSystemFont, 'Segoe UI', Roboto, Oxygen, Ubuntu, Cantarell, 'Fira Sans', 'Droid Sans', 'Helvetica Neue', sans-serif" font-size="11.00">string</text>
</a>
</g>
</g>
<!-- Node2&#45;&gt;Node3 -->
<g id="edge2" class="edge">
<title>Node2&#45;&gt;Node3</title>
<path fill="none" stroke="midnightblue" d="M121.83,-126.97C74.23,-120.1 20.6,-108.47 5.91,-90 -3.22,-78.52 -0.22,-70.33 5.91,-57 11.74,-44.31 23.06,-33.82 33.74,-26.13"/>
<polygon fill="midnightblue" stroke="midnightblue" points="35.69,-29.04 42.06,-20.57 31.8,-23.22 35.69,-29.04"/>
</g>
<!-- Node4 -->
<g id="node4" class="node">
<title>Node4</title>
<g id="a_node4"><a xlink:title=" ">
<polygon fill="none" stroke="#bfbfbf" points="224.41,-0.5 224.41,-20.5 355.41,-20.5 355.41,-0.5 224.41,-0.5"/>
<text text-anchor="middle" x="289.91" y="-7.7" font-family="-apple-system, BlinkMacSystemFont, 'Segoe UI', Roboto, Oxygen, Ubuntu, Cantarell, 'Fira Sans', 'Droid Sans', 'Helvetica Neue', sans-serif" font-size="11.00">nlohmann/json_fwd.hpp</text>
</a>
</g>
</g>
<!-- Node2&#45;&gt;Node4 -->
<g id="edge3" class="edge">
<title>Node2&#45;&gt;Node4</title>
<path fill="none" stroke="midnightblue" d="M283.67,-126.48C355,-117.69 449.43,-103.68 460.91,-90 493.11,-51.62 425.35,-31.05 365.84,-20.73"/>
<polygon fill="midnightblue" stroke="midnightblue" points="366.05,-17.22 355.62,-19.04 364.91,-24.12 366.05,-17.22"/>
</g>
<!-- Node5 -->
<g id="node5" class="node">
<title>Node5</title>
<g id="a_node5"><a xlink:href="MessageChain_8hpp.html" target="_top" xlink:title=" ">
<polygon fill="none" stroke="red" points="302.41,-57.5 302.41,-89.5 451.41,-89.5 451.41,-57.5 302.41,-57.5"/>
<text text-anchor="start" x="310.41" y="-76.7" font-family="-apple-system, BlinkMacSystemFont, 'Segoe UI', Roboto, Oxygen, Ubuntu, Cantarell, 'Fira Sans', 'Droid Sans', 'Helvetica Neue', sans-serif" font-size="11.00">libmirai/Messages/Message</text>
<text text-anchor="middle" x="376.91" y="-64.7" font-family="-apple-system, BlinkMacSystemFont, 'Segoe UI', Roboto, Oxygen, Ubuntu, Cantarell, 'Fira Sans', 'Droid Sans', 'Helvetica Neue', sans-serif" font-size="11.00">Chain.hpp</text>
</a>
</g>
</g>
<!-- Node2&#45;&gt;Node5 -->
<g id="edge4" class="edge">
<title>Node2&#45;&gt;Node5</title>
<path fill="none" stroke="midnightblue" d="M228.58,-126.5C253.68,-117.7 292.64,-104.04 324.34,-92.93"/>
<polygon fill="midnightblue" stroke="midnightblue" points="325.64,-96.18 333.91,-89.57 323.32,-89.58 325.64,-96.18"/>
</g>
<!-- Node20 -->
<g id="node6" class="node">
<title>Node20</title>
<g id="a_node6"><a xlink:href="BasicTypes_8hpp.html" target="_top" xlink:title=" ">
<polygon fill="none" stroke="red" points="121.91,-63.5 121.91,-83.5 283.91,-83.5 283.91,-63.5 121.91,-63.5"/>
<text text-anchor="middle" x="202.91" y="-70.7" font-family="-apple-system, BlinkMacSystemFont, 'Segoe UI', Roboto, Oxygen, Ubuntu, Cantarell, 'Fira Sans', 'Droid Sans', 'Helvetica Neue', sans-serif" font-size="11.00">libmirai/Types/BasicTypes.hpp</text>
</a>
</g>
</g>
<!-- Node2&#45;&gt;Node20 -->
<g id="edge6" class="edge">
<title>Node2&#45;&gt;Node20</title>
<path fill="none" stroke="midnightblue" d="M202.91,-126.5C202.91,-117.94 202.91,-104.78 202.91,-93.85"/>
<polygon fill="midnightblue" stroke="midnightblue" points="206.41,-93.54 202.91,-83.54 199.41,-93.54 206.41,-93.54"/>
</g>
<!-- Node34 -->
<g id="node7" class="node">
<title>Node34</title>
<g id="a_node7"><a xlink:href="EventBase_8hpp.html" target="_top" xlink:title=" ">
<polygon fill="none" stroke="red" points="14.41,-63.5 14.41,-83.5 103.41,-83.5 103.41,-63.5 14.41,-63.5"/>
<text text-anchor="middle" x="58.91" y="-70.7" font-family="-apple-system, BlinkMacSystemFont, 'Segoe UI', Roboto, Oxygen, Ubuntu, Cantarell, 'Fira Sans', 'Droid Sans', 'Helvetica Neue', sans-serif" font-size="11.00">EventBase.hpp</text>
</a>
</g>
</g>
<!-- Node2&#45;&gt;Node34 -->
<g id="edge9" class="edge">
<title>Node2&#45;&gt;Node34</title>
<path fill="none" stroke="midnightblue" d="M181.66,-126.5C157.31,-116.18 117.19,-99.19 89.48,-87.45"/>
<polygon fill="midnightblue" stroke="midnightblue" points="90.82,-84.22 80.24,-83.54 88.09,-90.66 90.82,-84.22"/>
</g>
<!-- Node5&#45;&gt;Node4 -->
<g id="edge5" class="edge">
<title>Node5&#45;&gt;Node4</title>
<path fill="none" stroke="midnightblue" d="M355.4,-57.42C341.86,-47.93 324.47,-35.73 311.01,-26.29"/>
<polygon fill="midnightblue" stroke="midnightblue" points="313.01,-23.42 302.81,-20.55 308.99,-29.15 313.01,-23.42"/>
</g>
<!-- Node20&#45;&gt;Node3 -->
<g id="edge7" class="edge">
<title>Node20&#45;&gt;Node3</title>
<path fill="none" stroke="midnightblue" d="M181.66,-63.5C157.31,-53.18 117.19,-36.19 89.48,-24.45"/>
<polygon fill="midnightblue" stroke="midnightblue" points="90.82,-21.22 80.24,-20.54 88.09,-27.66 90.82,-21.22"/>
</g>
<!-- Node20&#45;&gt;Node4 -->
<g id="edge8" class="edge">
<title>Node20&#45;&gt;Node4</title>
<path fill="none" stroke="midnightblue" d="M215.74,-63.5C229.62,-53.77 251.97,-38.1 268.52,-26.5"/>
<polygon fill="midnightblue" stroke="midnightblue" points="270.84,-29.14 277.02,-20.54 266.82,-23.41 270.84,-29.14"/>
</g>
<!-- Node34&#45;&gt;Node3 -->
<g id="edge10" class="edge">
<title>Node34&#45;&gt;Node3</title>
<path fill="none" stroke="midnightblue" d="M58.91,-63.5C58.91,-54.94 58.91,-41.78 58.91,-30.85"/>
<polygon fill="midnightblue" stroke="midnightblue" points="62.41,-30.54 58.91,-20.54 55.41,-30.54 62.41,-30.54"/>
</g>
<!-- Node34&#45;&gt;Node4 -->
<g id="edge11" class="edge">
<title>Node34&#45;&gt;Node4</title>
<path fill="none" stroke="midnightblue" d="M89.71,-63.5C97.28,-61.33 105.38,-59.05 112.91,-57 157.07,-44.99 207.67,-32.06 243.42,-23.07"/>
<polygon fill="midnightblue" stroke="midnightblue" points="244.71,-26.36 253.56,-20.53 243.01,-19.57 244.71,-26.36"/>
</g>
</g>
</svg>
