<?xml version="1.0" encoding="UTF-8" standalone="no"?>
<!DOCTYPE svg PUBLIC "-//W3C//DTD SVG 1.1//EN"
 "http://www.w3.org/Graphics/SVG/1.1/DTD/svg11.dtd">
<!-- Generated by graphviz version 2.43.0 (0)
 -->
<!-- Title: libmirai/public/libmirai/Messages/PlainMessage.cpp Pages: 1 -->
<svg width="543pt" height="212pt"
 viewBox="0.00 0.00 543.00 212.00" xmlns="http://www.w3.org/2000/svg" xmlns:xlink="http://www.w3.org/1999/xlink">
<g id="graph0" class="graph" transform="scale(1 1) rotate(0) translate(4 208)">
<title>libmirai/public/libmirai/Messages/PlainMessage.cpp</title>
<!-- Node1 -->
<g id="node1" class="node">
<title>Node1</title>
<g id="a_node1"><a xlink:title=" ">
<polygon fill="#bfbfbf" stroke="black" points="151.5,-171.5 151.5,-203.5 328.5,-203.5 328.5,-171.5 151.5,-171.5"/>
<text text-anchor="start" x="159.5" y="-190.7" font-family="-apple-system,BlinkMacSystemFont,'SegoeUI',Roboto,Oxygen,Ubuntu,Cantarell,'FiraSans','DroidSans','HelveticaNeue',sans-serif" font-size="11.00">libmirai/public/libmirai</text>
<text text-anchor="middle" x="240" y="-178.7" font-family="-apple-system,BlinkMacSystemFont,'SegoeUI',Roboto,Oxygen,Ubuntu,Cantarell,'FiraSans','DroidSans','HelveticaNeue',sans-serif" font-size="11.00">/Messages/PlainMessage.cpp</text>
</a>
</g>
</g>
<!-- Node2 -->
<g id="node2" class="node">
<title>Node2</title>
<g id="a_node2"><a xlink:href="PlainMessage_8hpp.html" target="_top" xlink:title=" ">
<polygon fill="none" stroke="black" points="24,-114.5 24,-134.5 140,-134.5 140,-114.5 24,-114.5"/>
<text text-anchor="middle" x="82" y="-121.7" font-family="-apple-system,BlinkMacSystemFont,'SegoeUI',Roboto,Oxygen,Ubuntu,Cantarell,'FiraSans','DroidSans','HelveticaNeue',sans-serif" font-size="11.00">PlainMessage.hpp</text>
</a>
</g>
</g>
<!-- Node1&#45;&gt;Node2 -->
<g id="edge1" class="edge">
<title>Node1&#45;&gt;Node2</title>
<path fill="none" stroke="midnightblue" d="M200.94,-171.42C174.48,-161.21 139.91,-147.86 114.86,-138.19"/>
<polygon fill="midnightblue" stroke="midnightblue" points="116.02,-134.88 105.43,-134.55 113.5,-141.41 116.02,-134.88"/>
</g>
<!-- Node8 -->
<g id="node6" class="node">
<title>Node8</title>
<g id="a_node6"><a xlink:title=" ">
<polygon fill="none" stroke="#bfbfbf" points="158.5,-114.5 158.5,-134.5 215.5,-134.5 215.5,-114.5 158.5,-114.5"/>
<text text-anchor="middle" x="187" y="-121.7" font-family="-apple-system,BlinkMacSystemFont,'SegoeUI',Roboto,Oxygen,Ubuntu,Cantarell,'FiraSans','DroidSans','HelveticaNeue',sans-serif" font-size="11.00">cassert</text>
</a>
</g>
</g>
<!-- Node1&#45;&gt;Node8 -->
<g id="edge7" class="edge">
<title>Node1&#45;&gt;Node8</title>
<path fill="none" stroke="midnightblue" d="M226.9,-171.42C219.2,-162.56 209.46,-151.35 201.52,-142.22"/>
<polygon fill="midnightblue" stroke="midnightblue" points="204.06,-139.8 194.86,-134.55 198.78,-144.39 204.06,-139.8"/>
</g>
<!-- Node9 -->
<g id="node7" class="node">
<title>Node9</title>
<g id="a_node7"><a xlink:title=" ">
<polygon fill="none" stroke="#bfbfbf" points="233.5,-114.5 233.5,-134.5 354.5,-134.5 354.5,-114.5 233.5,-114.5"/>
<text text-anchor="middle" x="294" y="-121.7" font-family="-apple-system,BlinkMacSystemFont,'SegoeUI',Roboto,Oxygen,Ubuntu,Cantarell,'FiraSans','DroidSans','HelveticaNeue',sans-serif" font-size="11.00">nlohmann/json.hpp</text>
</a>
</g>
</g>
<!-- Node1&#45;&gt;Node9 -->
<g id="edge8" class="edge">
<title>Node1&#45;&gt;Node9</title>
<path fill="none" stroke="midnightblue" d="M253.35,-171.42C261.19,-162.56 271.12,-151.35 279.2,-142.22"/>
<polygon fill="midnightblue" stroke="midnightblue" points="281.98,-144.35 285.99,-134.55 276.74,-139.71 281.98,-144.35"/>
</g>
<!-- Node10 -->
<g id="node8" class="node">
<title>Node10</title>
<g id="a_node8"><a xlink:title=" ">
<polygon fill="none" stroke="#bfbfbf" points="373,-114.5 373,-134.5 535,-134.5 535,-114.5 373,-114.5"/>
<text text-anchor="middle" x="454" y="-121.7" font-family="-apple-system,BlinkMacSystemFont,'SegoeUI',Roboto,Oxygen,Ubuntu,Cantarell,'FiraSans','DroidSans','HelveticaNeue',sans-serif" font-size="11.00">libmirai/Utils/Common.hpp</text>
</a>
</g>
</g>
<!-- Node1&#45;&gt;Node10 -->
<g id="edge9" class="edge">
<title>Node1&#45;&gt;Node10</title>
<path fill="none" stroke="midnightblue" d="M292.62,-171.5C329.57,-160.97 378.29,-147.08 412.5,-137.33"/>
<polygon fill="midnightblue" stroke="midnightblue" points="413.52,-140.68 422.18,-134.57 411.61,-133.94 413.52,-140.68"/>
</g>
<!-- Node3 -->
<g id="node3" class="node">
<title>Node3</title>
<g id="a_node3"><a xlink:title=" ">
<polygon fill="none" stroke="#bfbfbf" points="0,-0.5 0,-20.5 48,-20.5 48,-0.5 0,-0.5"/>
<text text-anchor="middle" x="24" y="-7.7" font-family="-apple-system,BlinkMacSystemFont,'SegoeUI',Roboto,Oxygen,Ubuntu,Cantarell,'FiraSans','DroidSans','HelveticaNeue',sans-serif" font-size="11.00">string</text>
</a>
</g>
</g>
<!-- Node2&#45;&gt;Node3 -->
<g id="edge2" class="edge">
<title>Node2&#45;&gt;Node3</title>
<path fill="none" stroke="midnightblue" d="M58.54,-114.5C43.11,-107.2 24.15,-95.27 15,-78 7.18,-63.23 10.95,-44.14 15.77,-30.2"/>
<polygon fill="midnightblue" stroke="midnightblue" points="19.1,-31.29 19.5,-20.7 12.59,-28.74 19.1,-31.29"/>
</g>
<!-- Node4 -->
<g id="node4" class="node">
<title>Node4</title>
<g id="a_node4"><a xlink:title=" ">
<polygon fill="none" stroke="#bfbfbf" points="80,-0.5 80,-20.5 226,-20.5 226,-0.5 80,-0.5"/>
<text text-anchor="middle" x="153" y="-7.7" font-family="-apple-system,BlinkMacSystemFont,'SegoeUI',Roboto,Oxygen,Ubuntu,Cantarell,'FiraSans','DroidSans','HelveticaNeue',sans-serif" font-size="11.00">nlohmann/json_fwd.hpp</text>
</a>
</g>
</g>
<!-- Node2&#45;&gt;Node4 -->
<g id="edge3" class="edge">
<title>Node2&#45;&gt;Node4</title>
<path fill="none" stroke="midnightblue" d="M104.81,-114.48C120.14,-107.11 139.27,-95.11 149,-78 157.12,-63.72 157.46,-44.82 156.16,-30.81"/>
<polygon fill="midnightblue" stroke="midnightblue" points="159.62,-30.29 154.87,-20.82 152.68,-31.18 159.62,-30.29"/>
</g>
<!-- Node5 -->
<g id="node5" class="node">
<title>Node5</title>
<g id="a_node5"><a xlink:href="MessageBase_8hpp.html" target="_top" xlink:title=" ">
<polygon fill="none" stroke="red" points="24,-57.5 24,-77.5 140,-77.5 140,-57.5 24,-57.5"/>
<text text-anchor="middle" x="82" y="-64.7" font-family="-apple-system,BlinkMacSystemFont,'SegoeUI',Roboto,Oxygen,Ubuntu,Cantarell,'FiraSans','DroidSans','HelveticaNeue',sans-serif" font-size="11.00">MessageBase.hpp</text>
</a>
</g>
</g>
<!-- Node2&#45;&gt;Node5 -->
<g id="edge4" class="edge">
<title>Node2&#45;&gt;Node5</title>
<path fill="none" stroke="midnightblue" d="M82,-114.42C82,-107.22 82,-96.9 82,-87.86"/>
<polygon fill="midnightblue" stroke="midnightblue" points="85.5,-87.78 82,-77.78 78.5,-87.78 85.5,-87.78"/>
</g>
<!-- Node5&#45;&gt;Node3 -->
<g id="edge5" class="edge">
<title>Node5&#45;&gt;Node3</title>
<path fill="none" stroke="midnightblue" d="M72.42,-57.42C63.99,-49.42 51.51,-37.59 41.33,-27.94"/>
<polygon fill="midnightblue" stroke="midnightblue" points="43.45,-25.12 33.79,-20.78 38.63,-30.2 43.45,-25.12"/>
</g>
<!-- Node5&#45;&gt;Node4 -->
<g id="edge6" class="edge">
<title>Node5&#45;&gt;Node4</title>
<path fill="none" stroke="midnightblue" d="M93.72,-57.42C104.35,-49.19 120.23,-36.88 132.88,-27.08"/>
<polygon fill="midnightblue" stroke="midnightblue" points="135.26,-29.67 141.02,-20.78 130.97,-24.14 135.26,-29.67"/>
</g>
</g>
</svg>
