<?xml version="1.0" encoding="UTF-8" standalone="no"?>
<!DOCTYPE svg PUBLIC "-//W3C//DTD SVG 1.1//EN"
 "http://www.w3.org/Graphics/SVG/1.1/DTD/svg11.dtd">
<!-- Generated by graphviz version 2.43.0 (0)
 -->
<!-- Title: libmirai/public/libmirai/Messages/PlainMessage.hpp Pages: 1 -->
<svg width="441pt" height="212pt"
 viewBox="0.00 0.00 441.00 212.00" xmlns="http://www.w3.org/2000/svg" xmlns:xlink="http://www.w3.org/1999/xlink">
<g id="graph0" class="graph" transform="scale(1 1) rotate(0) translate(4 208)">
<title>libmirai/public/libmirai/Messages/PlainMessage.hpp</title>
<!-- Node1 -->
<g id="node1" class="node">
<title>Node1</title>
<g id="a_node1"><a xlink:title=" ">
<polygon fill="#bfbfbf" stroke="black" points="0,-171.5 0,-203.5 178,-203.5 178,-171.5 0,-171.5"/>
<text text-anchor="start" x="8" y="-190.7" font-family="-apple-system,BlinkMacSystemFont,'SegoeUI',Roboto,Oxygen,Ubuntu,Cantarell,'FiraSans','DroidSans','HelveticaNeue',sans-serif" font-size="11.00">libmirai/public/libmirai</text>
<text text-anchor="middle" x="89" y="-178.7" font-family="-apple-system,BlinkMacSystemFont,'SegoeUI',Roboto,Oxygen,Ubuntu,Cantarell,'FiraSans','DroidSans','HelveticaNeue',sans-serif" font-size="11.00">/Messages/PlainMessage.hpp</text>
</a>
</g>
</g>
<!-- Node2 -->
<g id="node2" class="node">
<title>Node2</title>
<g id="a_node2"><a xlink:title=" ">
<polygon fill="none" stroke="#bfbfbf" points="65,-57.5 65,-77.5 113,-77.5 113,-57.5 65,-57.5"/>
<text text-anchor="middle" x="89" y="-64.7" font-family="-apple-system,BlinkMacSystemFont,'SegoeUI',Roboto,Oxygen,Ubuntu,Cantarell,'FiraSans','DroidSans','HelveticaNeue',sans-serif" font-size="11.00">string</text>
</a>
</g>
</g>
<!-- Node1&#45;&gt;Node2 -->
<g id="edge1" class="edge">
<title>Node1&#45;&gt;Node2</title>
<path fill="none" stroke="midnightblue" d="M89,-171.07C89,-149.71 89,-111.11 89,-87.84"/>
<polygon fill="midnightblue" stroke="midnightblue" points="92.5,-87.79 89,-77.79 85.5,-87.79 92.5,-87.79"/>
</g>
<!-- Node3 -->
<g id="node3" class="node">
<title>Node3</title>
<g id="a_node3"><a xlink:title=" ">
<polygon fill="none" stroke="#bfbfbf" points="150,-0.5 150,-20.5 296,-20.5 296,-0.5 150,-0.5"/>
<text text-anchor="middle" x="223" y="-7.7" font-family="-apple-system,BlinkMacSystemFont,'SegoeUI',Roboto,Oxygen,Ubuntu,Cantarell,'FiraSans','DroidSans','HelveticaNeue',sans-serif" font-size="11.00">nlohmann/json_fwd.hpp</text>
</a>
</g>
</g>
<!-- Node1&#45;&gt;Node3 -->
<g id="edge2" class="edge">
<title>Node1&#45;&gt;Node3</title>
<path fill="none" stroke="midnightblue" d="M77.65,-171.28C59.73,-145.25 29.52,-91.66 56,-57 67.9,-41.43 111.03,-29.91 150.48,-22.36"/>
<polygon fill="midnightblue" stroke="midnightblue" points="151.21,-25.78 160.41,-20.53 149.94,-18.9 151.21,-25.78"/>
</g>
<!-- Node4 -->
<g id="node4" class="node">
<title>Node4</title>
<g id="a_node4"><a xlink:href="MessageBase_8hpp.html" target="_top" xlink:title=" ">
<polygon fill="none" stroke="black" points="165,-114.5 165,-134.5 281,-134.5 281,-114.5 165,-114.5"/>
<text text-anchor="middle" x="223" y="-121.7" font-family="-apple-system,BlinkMacSystemFont,'SegoeUI',Roboto,Oxygen,Ubuntu,Cantarell,'FiraSans','DroidSans','HelveticaNeue',sans-serif" font-size="11.00">MessageBase.hpp</text>
</a>
</g>
</g>
<!-- Node1&#45;&gt;Node4 -->
<g id="edge3" class="edge">
<title>Node1&#45;&gt;Node4</title>
<path fill="none" stroke="midnightblue" d="M122.12,-171.42C144.17,-161.39 172.85,-148.33 194,-138.7"/>
<polygon fill="midnightblue" stroke="midnightblue" points="195.48,-141.87 203.13,-134.55 192.58,-135.5 195.48,-141.87"/>
</g>
<!-- Node4&#45;&gt;Node2 -->
<g id="edge5" class="edge">
<title>Node4&#45;&gt;Node2</title>
<path fill="none" stroke="midnightblue" d="M200.87,-114.42C178.95,-105.42 145.18,-91.56 120.47,-81.42"/>
<polygon fill="midnightblue" stroke="midnightblue" points="121.74,-78.15 111.16,-77.6 119.08,-84.63 121.74,-78.15"/>
</g>
<!-- Node4&#45;&gt;Node3 -->
<g id="edge6" class="edge">
<title>Node4&#45;&gt;Node3</title>
<path fill="none" stroke="midnightblue" d="M268.75,-114.42C289,-107.88 310.92,-96.77 323,-78 339.54,-52.31 304.38,-34.24 271.29,-23.49"/>
<polygon fill="midnightblue" stroke="midnightblue" points="272.18,-20.1 261.6,-20.52 270.13,-26.79 272.18,-20.1"/>
</g>
<!-- Node5 -->
<g id="node5" class="node">
<title>Node5</title>
<g id="a_node5"><a xlink:title=" ">
<polygon fill="none" stroke="#bfbfbf" points="371,-57.5 371,-77.5 433,-77.5 433,-57.5 371,-57.5"/>
<text text-anchor="middle" x="402" y="-64.7" font-family="-apple-system,BlinkMacSystemFont,'SegoeUI',Roboto,Oxygen,Ubuntu,Cantarell,'FiraSans','DroidSans','HelveticaNeue',sans-serif" font-size="11.00">memory</text>
</a>
</g>
</g>
<!-- Node4&#45;&gt;Node5 -->
<g id="edge4" class="edge">
<title>Node4&#45;&gt;Node5</title>
<path fill="none" stroke="midnightblue" d="M252.56,-114.42C282.7,-105.15 329.64,-90.73 362.86,-80.53"/>
<polygon fill="midnightblue" stroke="midnightblue" points="364.16,-83.79 372.7,-77.5 362.11,-77.1 364.16,-83.79"/>
</g>
<!-- Node6 -->
<g id="node6" class="node">
<title>Node6</title>
<g id="a_node6"><a xlink:href="Serializable_8hpp.html" target="_top" xlink:title=" ">
<polygon fill="none" stroke="black" points="131.5,-57.5 131.5,-77.5 314.5,-77.5 314.5,-57.5 131.5,-57.5"/>
<text text-anchor="middle" x="223" y="-64.7" font-family="-apple-system,BlinkMacSystemFont,'SegoeUI',Roboto,Oxygen,Ubuntu,Cantarell,'FiraSans','DroidSans','HelveticaNeue',sans-serif" font-size="11.00">libmirai/Types/Serializable.hpp</text>
</a>
</g>
</g>
<!-- Node4&#45;&gt;Node6 -->
<g id="edge7" class="edge">
<title>Node4&#45;&gt;Node6</title>
<path fill="none" stroke="midnightblue" d="M223,-114.42C223,-107.22 223,-96.9 223,-87.86"/>
<polygon fill="midnightblue" stroke="midnightblue" points="226.5,-87.78 223,-77.78 219.5,-87.78 226.5,-87.78"/>
</g>
<!-- Node6&#45;&gt;Node3 -->
<g id="edge8" class="edge">
<title>Node6&#45;&gt;Node3</title>
<path fill="none" stroke="midnightblue" d="M223,-57.42C223,-50.22 223,-39.9 223,-30.86"/>
<polygon fill="midnightblue" stroke="midnightblue" points="226.5,-30.78 223,-20.78 219.5,-30.78 226.5,-30.78"/>
</g>
</g>
</svg>
