<?xml version="1.0" encoding="UTF-8" standalone="no"?>
<!DOCTYPE svg PUBLIC "-//W3C//DTD SVG 1.1//EN"
 "http://www.w3.org/Graphics/SVG/1.1/DTD/svg11.dtd">
<!-- Generated by graphviz version 3.0.0 (20220413.0242)
 -->
<!-- Title: libmirai/public/libmirai/Messages/PlainMessage.hpp Pages: 1 -->
<svg width="2839pt" height="317pt"
 viewBox="0.00 0.00 2839.00 317.00" xmlns="http://www.w3.org/2000/svg" xmlns:xlink="http://www.w3.org/1999/xlink">
<g id="graph0" class="graph" transform="scale(1 1) rotate(0) translate(4 313)">
<title>libmirai/public/libmirai/Messages/PlainMessage.hpp</title>
<!-- Node1 -->
<g id="node1" class="node">
<title>Node1</title>
<g id="a_node1"><a xlink:title=" ">
<polygon fill="#bfbfbf" stroke="black" points="2564.5,-276.5 2564.5,-308.5 2724.5,-308.5 2724.5,-276.5 2564.5,-276.5"/>
<text text-anchor="start" x="2572.5" y="-295.7" font-family="-apple-system, BlinkMacSystemFont, 'Segoe UI', Roboto, Oxygen, Ubuntu, Cantarell, 'Fira Sans', 'Droid Sans', 'Helvetica Neue', sans-serif" font-size="11.00">libmirai/public/libmirai</text>
<text text-anchor="middle" x="2644.5" y="-283.7" font-family="-apple-system, BlinkMacSystemFont, 'Segoe UI', Roboto, Oxygen, Ubuntu, Cantarell, 'Fira Sans', 'Droid Sans', 'Helvetica Neue', sans-serif" font-size="11.00">/Messages/PlainMessage.hpp</text>
</a>
</g>
</g>
<!-- Node2 -->
<g id="node2" class="node">
<title>Node2</title>
<g id="a_node2"><a xlink:href="MessageChain_8hpp.html" target="_top" xlink:title=" ">
<polygon fill="none" stroke="black" points="1557.5,-207.5 1557.5,-239.5 1721.5,-239.5 1721.5,-207.5 1557.5,-207.5"/>
<text text-anchor="start" x="1565.5" y="-226.7" font-family="-apple-system, BlinkMacSystemFont, 'Segoe UI', Roboto, Oxygen, Ubuntu, Cantarell, 'Fira Sans', 'Droid Sans', 'Helvetica Neue', sans-serif" font-size="11.00">libmirai/public/libmirai</text>
<text text-anchor="middle" x="1639.5" y="-214.7" font-family="-apple-system, BlinkMacSystemFont, 'Segoe UI', Roboto, Oxygen, Ubuntu, Cantarell, 'Fira Sans', 'Droid Sans', 'Helvetica Neue', sans-serif" font-size="11.00">/Messages/MessageChain.hpp</text>
</a>
</g>
</g>
<!-- Node1&#45;&gt;Node2 -->
<g id="edge1" class="edge">
<title>Node1&#45;&gt;Node2</title>
<path fill="none" stroke="midnightblue" d="M2554.23,-285.48C2360.56,-272.57 1907.68,-242.38 1721.57,-229.97"/>
<polygon fill="midnightblue" stroke="midnightblue" points="2554.17,-288.99 2564.38,-286.16 2554.63,-282 2554.17,-288.99"/>
</g>
<!-- Node31 -->
<g id="node17" class="node">
<title>Node31</title>
<g id="a_node17"><a xlink:href="Messages_8hpp.html" target="_top" xlink:title=" ">
<polygon fill="none" stroke="red" points="2352,-69.5 2352,-101.5 2493,-101.5 2493,-69.5 2352,-69.5"/>
<text text-anchor="start" x="2360" y="-88.7" font-family="-apple-system, BlinkMacSystemFont, 'Segoe UI', Roboto, Oxygen, Ubuntu, Cantarell, 'Fira Sans', 'Droid Sans', 'Helvetica Neue', sans-serif" font-size="11.00">libmirai/public/libmirai</text>
<text text-anchor="middle" x="2422.5" y="-76.7" font-family="-apple-system, BlinkMacSystemFont, 'Segoe UI', Roboto, Oxygen, Ubuntu, Cantarell, 'Fira Sans', 'Droid Sans', 'Helvetica Neue', sans-serif" font-size="11.00">/Messages/Messages.hpp</text>
</a>
</g>
</g>
<!-- Node1&#45;&gt;Node31 -->
<g id="edge31" class="edge">
<title>Node1&#45;&gt;Node31</title>
<path fill="none" stroke="midnightblue" d="M2649.26,-266.26C2654.02,-232.68 2656.75,-173.44 2625.5,-138 2607.94,-118.09 2544.39,-104.14 2493.01,-95.83"/>
<polygon fill="midnightblue" stroke="midnightblue" points="2645.79,-265.77 2647.68,-276.2 2652.7,-266.87 2645.79,-265.77"/>
</g>
<!-- Node34 -->
<g id="node19" class="node">
<title>Node34</title>
<g id="a_node19"><a xlink:href="PlainMessage_8cpp.html" target="_top" xlink:title=" ">
<polygon fill="none" stroke="black" points="2672,-207.5 2672,-239.5 2831,-239.5 2831,-207.5 2672,-207.5"/>
<text text-anchor="start" x="2680" y="-226.7" font-family="-apple-system, BlinkMacSystemFont, 'Segoe UI', Roboto, Oxygen, Ubuntu, Cantarell, 'Fira Sans', 'Droid Sans', 'Helvetica Neue', sans-serif" font-size="11.00">libmirai/public/libmirai</text>
<text text-anchor="middle" x="2751.5" y="-214.7" font-family="-apple-system, BlinkMacSystemFont, 'Segoe UI', Roboto, Oxygen, Ubuntu, Cantarell, 'Fira Sans', 'Droid Sans', 'Helvetica Neue', sans-serif" font-size="11.00">/Messages/PlainMessage.cpp</text>
</a>
</g>
</g>
<!-- Node1&#45;&gt;Node34 -->
<g id="edge32" class="edge">
<title>Node1&#45;&gt;Node34</title>
<path fill="none" stroke="midnightblue" d="M2677.12,-271.08C2693.24,-260.98 2712.38,-249 2727.2,-239.72"/>
<polygon fill="midnightblue" stroke="midnightblue" points="2675.13,-268.19 2668.51,-276.46 2678.85,-274.12 2675.13,-268.19"/>
</g>
<!-- Node3 -->
<g id="node3" class="node">
<title>Node3</title>
<g id="a_node3"><a xlink:href="Client_8cpp.html" target="_top" xlink:title=" ">
<polygon fill="none" stroke="black" points="1646.5,-0.5 1646.5,-32.5 1764.5,-32.5 1764.5,-0.5 1646.5,-0.5"/>
<text text-anchor="start" x="1654.5" y="-19.7" font-family="-apple-system, BlinkMacSystemFont, 'Segoe UI', Roboto, Oxygen, Ubuntu, Cantarell, 'Fira Sans', 'Droid Sans', 'Helvetica Neue', sans-serif" font-size="11.00">libmirai/public/libmirai</text>
<text text-anchor="middle" x="1705.5" y="-7.7" font-family="-apple-system, BlinkMacSystemFont, 'Segoe UI', Roboto, Oxygen, Ubuntu, Cantarell, 'Fira Sans', 'Droid Sans', 'Helvetica Neue', sans-serif" font-size="11.00">/Api/Client.cpp</text>
</a>
</g>
</g>
<!-- Node2&#45;&gt;Node3 -->
<g id="edge2" class="edge">
<title>Node2&#45;&gt;Node3</title>
<path fill="none" stroke="midnightblue" d="M1732.05,-219.42C1867.65,-213.94 2107.18,-200.21 2133.5,-171 2241.31,-51.37 1905.51,-24.93 1764.65,-19.12"/>
<polygon fill="midnightblue" stroke="midnightblue" points="1731.52,-215.94 1721.67,-219.83 1731.8,-222.93 1731.52,-215.94"/>
</g>
<!-- Node4 -->
<g id="node4" class="node">
<title>Node4</title>
<g id="a_node4"><a xlink:href="Client_8hpp.html" target="_top" xlink:title=" ">
<polygon fill="none" stroke="red" points="1409.5,-69.5 1409.5,-101.5 1527.5,-101.5 1527.5,-69.5 1409.5,-69.5"/>
<text text-anchor="start" x="1417.5" y="-88.7" font-family="-apple-system, BlinkMacSystemFont, 'Segoe UI', Roboto, Oxygen, Ubuntu, Cantarell, 'Fira Sans', 'Droid Sans', 'Helvetica Neue', sans-serif" font-size="11.00">libmirai/public/libmirai</text>
<text text-anchor="middle" x="1468.5" y="-76.7" font-family="-apple-system, BlinkMacSystemFont, 'Segoe UI', Roboto, Oxygen, Ubuntu, Cantarell, 'Fira Sans', 'Droid Sans', 'Helvetica Neue', sans-serif" font-size="11.00">/Api/Client.hpp</text>
</a>
</g>
</g>
<!-- Node2&#45;&gt;Node4 -->
<g id="edge3" class="edge">
<title>Node2&#45;&gt;Node4</title>
<path fill="none" stroke="midnightblue" d="M1546.69,-222.01C1270.24,-220.11 468.96,-211.13 430.5,-171 420.35,-160.41 420.39,-148.62 430.5,-138 447.49,-120.15 1191.65,-95.25 1409.3,-88.34"/>
<polygon fill="midnightblue" stroke="midnightblue" points="1547.07,-225.51 1557.09,-222.08 1547.12,-218.51 1547.07,-225.51"/>
</g>
<!-- Node7 -->
<g id="node5" class="node">
<title>Node7</title>
<g id="a_node5"><a xlink:href="CommandExecutedEvent_8hpp.html" target="_top" xlink:title=" ">
<polygon fill="none" stroke="red" points="440,-138.5 440,-170.5 637,-170.5 637,-138.5 440,-138.5"/>
<text text-anchor="start" x="448" y="-157.7" font-family="-apple-system, BlinkMacSystemFont, 'Segoe UI', Roboto, Oxygen, Ubuntu, Cantarell, 'Fira Sans', 'Droid Sans', 'Helvetica Neue', sans-serif" font-size="11.00">libmirai/public/libmirai</text>
<text text-anchor="middle" x="538.5" y="-145.7" font-family="-apple-system, BlinkMacSystemFont, 'Segoe UI', Roboto, Oxygen, Ubuntu, Cantarell, 'Fira Sans', 'Droid Sans', 'Helvetica Neue', sans-serif" font-size="11.00">/Events/CommandExecutedEvent.hpp</text>
</a>
</g>
</g>
<!-- Node2&#45;&gt;Node7 -->
<g id="edge5" class="edge">
<title>Node2&#45;&gt;Node7</title>
<path fill="none" stroke="midnightblue" d="M1547.24,-220.56C1371.43,-216.22 976.41,-203.47 645.5,-171 642.79,-170.73 640.05,-170.45 637.28,-170.15"/>
<polygon fill="midnightblue" stroke="midnightblue" points="1547.41,-224.06 1557.49,-220.81 1547.58,-217.06 1547.41,-224.06"/>
</g>
<!-- Node10 -->
<g id="node6" class="node">
<title>Node10</title>
<g id="a_node6"><a xlink:href="FriendMessageEvent_8hpp.html" target="_top" xlink:title=" ">
<polygon fill="none" stroke="red" points="0,-138.5 0,-170.5 177,-170.5 177,-138.5 0,-138.5"/>
<text text-anchor="start" x="8" y="-157.7" font-family="-apple-system, BlinkMacSystemFont, 'Segoe UI', Roboto, Oxygen, Ubuntu, Cantarell, 'Fira Sans', 'Droid Sans', 'Helvetica Neue', sans-serif" font-size="11.00">libmirai/public/libmirai</text>
<text text-anchor="middle" x="88.5" y="-145.7" font-family="-apple-system, BlinkMacSystemFont, 'Segoe UI', Roboto, Oxygen, Ubuntu, Cantarell, 'Fira Sans', 'Droid Sans', 'Helvetica Neue', sans-serif" font-size="11.00">/Events/FriendMessageEvent.hpp</text>
</a>
</g>
</g>
<!-- Node2&#45;&gt;Node10 -->
<g id="edge6" class="edge">
<title>Node2&#45;&gt;Node10</title>
<path fill="none" stroke="midnightblue" d="M1547.34,-223.11C1317.2,-223.78 698.97,-220.42 186.5,-171 183.41,-170.7 180.28,-170.37 177.11,-170.01"/>
<polygon fill="midnightblue" stroke="midnightblue" points="1547.35,-226.61 1557.34,-223.07 1547.33,-219.61 1547.35,-226.61"/>
</g>
<!-- Node12 -->
<g id="node7" class="node">
<title>Node12</title>
<g id="a_node7"><a xlink:href="FriendSyncMessageEvent_8hpp.html" target="_top" xlink:title=" ">
<polygon fill="none" stroke="red" points="655,-138.5 655,-170.5 856,-170.5 856,-138.5 655,-138.5"/>
<text text-anchor="start" x="663" y="-157.7" font-family="-apple-system, BlinkMacSystemFont, 'Segoe UI', Roboto, Oxygen, Ubuntu, Cantarell, 'Fira Sans', 'Droid Sans', 'Helvetica Neue', sans-serif" font-size="11.00">libmirai/public/libmirai</text>
<text text-anchor="middle" x="755.5" y="-145.7" font-family="-apple-system, BlinkMacSystemFont, 'Segoe UI', Roboto, Oxygen, Ubuntu, Cantarell, 'Fira Sans', 'Droid Sans', 'Helvetica Neue', sans-serif" font-size="11.00">/Events/FriendSyncMessageEvent.hpp</text>
</a>
</g>
</g>
<!-- Node2&#45;&gt;Node12 -->
<g id="edge9" class="edge">
<title>Node2&#45;&gt;Node12</title>
<path fill="none" stroke="midnightblue" d="M1547.21,-218.56C1401.93,-211.86 1111.11,-196.44 865.5,-171 862.43,-170.68 859.32,-170.34 856.17,-169.99"/>
<polygon fill="midnightblue" stroke="midnightblue" points="1547.27,-222.06 1557.42,-219.03 1547.59,-215.07 1547.27,-222.06"/>
</g>
<!-- Node14 -->
<g id="node8" class="node">
<title>Node14</title>
<g id="a_node8"><a xlink:href="GroupMessageEvent_8hpp.html" target="_top" xlink:title=" ">
<polygon fill="none" stroke="red" points="1756.5,-138.5 1756.5,-170.5 1932.5,-170.5 1932.5,-138.5 1756.5,-138.5"/>
<text text-anchor="start" x="1764.5" y="-157.7" font-family="-apple-system, BlinkMacSystemFont, 'Segoe UI', Roboto, Oxygen, Ubuntu, Cantarell, 'Fira Sans', 'Droid Sans', 'Helvetica Neue', sans-serif" font-size="11.00">libmirai/public/libmirai</text>
<text text-anchor="middle" x="1844.5" y="-145.7" font-family="-apple-system, BlinkMacSystemFont, 'Segoe UI', Roboto, Oxygen, Ubuntu, Cantarell, 'Fira Sans', 'Droid Sans', 'Helvetica Neue', sans-serif" font-size="11.00">/Events/GroupMessageEvent.hpp</text>
</a>
</g>
</g>
<!-- Node2&#45;&gt;Node14 -->
<g id="edge10" class="edge">
<title>Node2&#45;&gt;Node14</title>
<path fill="none" stroke="midnightblue" d="M1695.26,-204.28C1727.57,-193.72 1767.76,-180.58 1798.29,-170.6"/>
<polygon fill="midnightblue" stroke="midnightblue" points="1693.92,-201.03 1685.51,-207.46 1696.1,-207.68 1693.92,-201.03"/>
</g>
<!-- Node16 -->
<g id="node9" class="node">
<title>Node16</title>
<g id="a_node9"><a xlink:href="GroupSyncMessageEvent_8hpp.html" target="_top" xlink:title=" ">
<polygon fill="none" stroke="red" points="874.5,-138.5 874.5,-170.5 1074.5,-170.5 1074.5,-138.5 874.5,-138.5"/>
<text text-anchor="start" x="882.5" y="-157.7" font-family="-apple-system, BlinkMacSystemFont, 'Segoe UI', Roboto, Oxygen, Ubuntu, Cantarell, 'Fira Sans', 'Droid Sans', 'Helvetica Neue', sans-serif" font-size="11.00">libmirai/public/libmirai</text>
<text text-anchor="middle" x="974.5" y="-145.7" font-family="-apple-system, BlinkMacSystemFont, 'Segoe UI', Roboto, Oxygen, Ubuntu, Cantarell, 'Fira Sans', 'Droid Sans', 'Helvetica Neue', sans-serif" font-size="11.00">/Events/GroupSyncMessageEvent.hpp</text>
</a>
</g>
</g>
<!-- Node2&#45;&gt;Node16 -->
<g id="edge13" class="edge">
<title>Node2&#45;&gt;Node16</title>
<path fill="none" stroke="midnightblue" d="M1547.31,-215.35C1436.89,-206.46 1246.42,-190.12 1083.5,-171 1080.56,-170.65 1077.57,-170.29 1074.56,-169.92"/>
<polygon fill="midnightblue" stroke="midnightblue" points="1547.16,-218.85 1557.41,-216.16 1547.72,-211.87 1547.16,-218.85"/>
</g>
<!-- Node18 -->
<g id="node10" class="node">
<title>Node18</title>
<g id="a_node10"><a xlink:href="OtherClientMessageEvent_8hpp.html" target="_top" xlink:title=" ">
<polygon fill="none" stroke="red" points="1092.5,-138.5 1092.5,-170.5 1292.5,-170.5 1292.5,-138.5 1092.5,-138.5"/>
<text text-anchor="start" x="1100.5" y="-157.7" font-family="-apple-system, BlinkMacSystemFont, 'Segoe UI', Roboto, Oxygen, Ubuntu, Cantarell, 'Fira Sans', 'Droid Sans', 'Helvetica Neue', sans-serif" font-size="11.00">libmirai/public/libmirai</text>
<text text-anchor="middle" x="1192.5" y="-145.7" font-family="-apple-system, BlinkMacSystemFont, 'Segoe UI', Roboto, Oxygen, Ubuntu, Cantarell, 'Fira Sans', 'Droid Sans', 'Helvetica Neue', sans-serif" font-size="11.00">/Events/OtherClientMessageEvent.hpp</text>
</a>
</g>
</g>
<!-- Node2&#45;&gt;Node18 -->
<g id="edge14" class="edge">
<title>Node2&#45;&gt;Node18</title>
<path fill="none" stroke="midnightblue" d="M1546.98,-208.63C1472.77,-197.51 1368.79,-181.92 1292.63,-170.51"/>
<polygon fill="midnightblue" stroke="midnightblue" points="1546.84,-212.15 1557.25,-210.17 1547.88,-205.23 1546.84,-212.15"/>
</g>
<!-- Node20 -->
<g id="node11" class="node">
<title>Node20</title>
<g id="a_node11"><a xlink:href="StrangerMessageEvent_8hpp.html" target="_top" xlink:title=" ">
<polygon fill="none" stroke="red" points="195.5,-138.5 195.5,-170.5 383.5,-170.5 383.5,-138.5 195.5,-138.5"/>
<text text-anchor="start" x="203.5" y="-157.7" font-family="-apple-system, BlinkMacSystemFont, 'Segoe UI', Roboto, Oxygen, Ubuntu, Cantarell, 'Fira Sans', 'Droid Sans', 'Helvetica Neue', sans-serif" font-size="11.00">libmirai/public/libmirai</text>
<text text-anchor="middle" x="289.5" y="-145.7" font-family="-apple-system, BlinkMacSystemFont, 'Segoe UI', Roboto, Oxygen, Ubuntu, Cantarell, 'Fira Sans', 'Droid Sans', 'Helvetica Neue', sans-serif" font-size="11.00">/Events/StrangerMessageEvent.hpp</text>
</a>
</g>
</g>
<!-- Node2&#45;&gt;Node20 -->
<g id="edge15" class="edge">
<title>Node2&#45;&gt;Node20</title>
<path fill="none" stroke="midnightblue" d="M1547,-221.86C1340.41,-219.72 825.97,-210.53 397.5,-171 392.97,-170.58 388.35,-170.11 383.68,-169.59"/>
<polygon fill="midnightblue" stroke="midnightblue" points="1547.16,-225.36 1557.2,-221.96 1547.23,-218.36 1547.16,-225.36"/>
</g>
<!-- Node22 -->
<g id="node12" class="node">
<title>Node22</title>
<g id="a_node12"><a xlink:href="StrangerSyncMessageEvent_8hpp.html" target="_top" xlink:title=" ">
<polygon fill="none" stroke="red" points="1310.5,-138.5 1310.5,-170.5 1522.5,-170.5 1522.5,-138.5 1310.5,-138.5"/>
<text text-anchor="start" x="1318.5" y="-157.7" font-family="-apple-system, BlinkMacSystemFont, 'Segoe UI', Roboto, Oxygen, Ubuntu, Cantarell, 'Fira Sans', 'Droid Sans', 'Helvetica Neue', sans-serif" font-size="11.00">libmirai/public/libmirai</text>
<text text-anchor="middle" x="1416.5" y="-145.7" font-family="-apple-system, BlinkMacSystemFont, 'Segoe UI', Roboto, Oxygen, Ubuntu, Cantarell, 'Fira Sans', 'Droid Sans', 'Helvetica Neue', sans-serif" font-size="11.00">/Events/StrangerSyncMessageEvent.hpp</text>
</a>
</g>
</g>
<!-- Node2&#45;&gt;Node22 -->
<g id="edge18" class="edge">
<title>Node2&#45;&gt;Node22</title>
<path fill="none" stroke="midnightblue" d="M1579.75,-204.55C1544.45,-193.94 1500.26,-180.67 1466.76,-170.6"/>
<polygon fill="midnightblue" stroke="midnightblue" points="1578.87,-207.94 1589.45,-207.46 1580.88,-201.23 1578.87,-207.94"/>
</g>
<!-- Node24 -->
<g id="node13" class="node">
<title>Node24</title>
<g id="a_node13"><a xlink:href="TempMessageEvent_8hpp.html" target="_top" xlink:title=" ">
<polygon fill="none" stroke="red" points="1950.5,-138.5 1950.5,-170.5 2124.5,-170.5 2124.5,-138.5 1950.5,-138.5"/>
<text text-anchor="start" x="1958.5" y="-157.7" font-family="-apple-system, BlinkMacSystemFont, 'Segoe UI', Roboto, Oxygen, Ubuntu, Cantarell, 'Fira Sans', 'Droid Sans', 'Helvetica Neue', sans-serif" font-size="11.00">libmirai/public/libmirai</text>
<text text-anchor="middle" x="2037.5" y="-145.7" font-family="-apple-system, BlinkMacSystemFont, 'Segoe UI', Roboto, Oxygen, Ubuntu, Cantarell, 'Fira Sans', 'Droid Sans', 'Helvetica Neue', sans-serif" font-size="11.00">/Events/TempMessageEvent.hpp</text>
</a>
</g>
</g>
<!-- Node2&#45;&gt;Node24 -->
<g id="edge19" class="edge">
<title>Node2&#45;&gt;Node24</title>
<path fill="none" stroke="midnightblue" d="M1731.93,-206.94C1797.77,-195.86 1885.69,-181.06 1950.31,-170.18"/>
<polygon fill="midnightblue" stroke="midnightblue" points="1731.25,-203.51 1721.97,-208.62 1732.41,-210.41 1731.25,-203.51"/>
</g>
<!-- Node26 -->
<g id="node14" class="node">
<title>Node26</title>
<g id="a_node14"><a xlink:href="TempSyncMessageEvent_8hpp.html" target="_top" xlink:title=" ">
<polygon fill="none" stroke="red" points="1540.5,-138.5 1540.5,-170.5 1738.5,-170.5 1738.5,-138.5 1540.5,-138.5"/>
<text text-anchor="start" x="1548.5" y="-157.7" font-family="-apple-system, BlinkMacSystemFont, 'Segoe UI', Roboto, Oxygen, Ubuntu, Cantarell, 'Fira Sans', 'Droid Sans', 'Helvetica Neue', sans-serif" font-size="11.00">libmirai/public/libmirai</text>
<text text-anchor="middle" x="1639.5" y="-145.7" font-family="-apple-system, BlinkMacSystemFont, 'Segoe UI', Roboto, Oxygen, Ubuntu, Cantarell, 'Fira Sans', 'Droid Sans', 'Helvetica Neue', sans-serif" font-size="11.00">/Events/TempSyncMessageEvent.hpp</text>
</a>
</g>
</g>
<!-- Node2&#45;&gt;Node26 -->
<g id="edge22" class="edge">
<title>Node2&#45;&gt;Node26</title>
<path fill="none" stroke="midnightblue" d="M1639.5,-197.02C1639.5,-188.13 1639.5,-178.43 1639.5,-170.64"/>
<polygon fill="midnightblue" stroke="midnightblue" points="1636,-197.3 1639.5,-207.3 1643,-197.3 1636,-197.3"/>
</g>
<!-- Node28 -->
<g id="node15" class="node">
<title>Node28</title>
<g id="a_node15"><a xlink:href="ForwardMessage_8hpp.html" target="_top" xlink:title=" ">
<polygon fill="none" stroke="red" points="2218.5,-138.5 2218.5,-170.5 2394.5,-170.5 2394.5,-138.5 2218.5,-138.5"/>
<text text-anchor="start" x="2226.5" y="-157.7" font-family="-apple-system, BlinkMacSystemFont, 'Segoe UI', Roboto, Oxygen, Ubuntu, Cantarell, 'Fira Sans', 'Droid Sans', 'Helvetica Neue', sans-serif" font-size="11.00">libmirai/public/libmirai</text>
<text text-anchor="middle" x="2306.5" y="-145.7" font-family="-apple-system, BlinkMacSystemFont, 'Segoe UI', Roboto, Oxygen, Ubuntu, Cantarell, 'Fira Sans', 'Droid Sans', 'Helvetica Neue', sans-serif" font-size="11.00">/Messages/ForwardMessage.hpp</text>
</a>
</g>
</g>
<!-- Node2&#45;&gt;Node28 -->
<g id="edge23" class="edge">
<title>Node2&#45;&gt;Node28</title>
<path fill="none" stroke="midnightblue" d="M1731.78,-215.8C1843.79,-207.26 2038.33,-191.18 2204.5,-171 2209.03,-170.45 2213.68,-169.85 2218.36,-169.23"/>
<polygon fill="midnightblue" stroke="midnightblue" points="1731.24,-212.33 1721.53,-216.57 1731.77,-219.31 1731.24,-212.33"/>
</g>
<!-- Node30 -->
<g id="node16" class="node">
<title>Node30</title>
<g id="a_node16"><a xlink:href="MessageChain_8cpp.html" target="_top" xlink:title=" ">
<polygon fill="none" stroke="black" points="2225,-0.5 2225,-32.5 2388,-32.5 2388,-0.5 2225,-0.5"/>
<text text-anchor="start" x="2233" y="-19.7" font-family="-apple-system, BlinkMacSystemFont, 'Segoe UI', Roboto, Oxygen, Ubuntu, Cantarell, 'Fira Sans', 'Droid Sans', 'Helvetica Neue', sans-serif" font-size="11.00">libmirai/public/libmirai</text>
<text text-anchor="middle" x="2306.5" y="-7.7" font-family="-apple-system, BlinkMacSystemFont, 'Segoe UI', Roboto, Oxygen, Ubuntu, Cantarell, 'Fira Sans', 'Droid Sans', 'Helvetica Neue', sans-serif" font-size="11.00">/Messages/MessageChain.cpp</text>
</a>
</g>
</g>
<!-- Node2&#45;&gt;Node30 -->
<g id="edge27" class="edge">
<title>Node2&#45;&gt;Node30</title>
<path fill="none" stroke="midnightblue" d="M1731.81,-220.88C1860.05,-217.35 2084.6,-206.19 2157.5,-171 2223.73,-139.04 2276.64,-64.69 2297.22,-32.65"/>
<polygon fill="midnightblue" stroke="midnightblue" points="1731.51,-217.38 1721.61,-221.15 1731.7,-224.38 1731.51,-217.38"/>
</g>
<!-- Node2&#45;&gt;Node31 -->
<g id="edge28" class="edge">
<title>Node2&#45;&gt;Node31</title>
<path fill="none" stroke="midnightblue" d="M1731.81,-222.36C1924.01,-221.21 2353.54,-213.81 2403.5,-171 2423.37,-153.98 2425.01,-121.06 2424.02,-101.72"/>
<polygon fill="midnightblue" stroke="midnightblue" points="1731.7,-218.86 1721.72,-222.42 1731.74,-225.86 1731.7,-218.86"/>
</g>
<!-- Node32 -->
<g id="node18" class="node">
<title>Node32</title>
<g id="a_node18"><a xlink:href="QuoteMessage_8hpp.html" target="_top" xlink:title=" ">
<polygon fill="none" stroke="red" points="2451,-138.5 2451,-170.5 2616,-170.5 2616,-138.5 2451,-138.5"/>
<text text-anchor="start" x="2459" y="-157.7" font-family="-apple-system, BlinkMacSystemFont, 'Segoe UI', Roboto, Oxygen, Ubuntu, Cantarell, 'Fira Sans', 'Droid Sans', 'Helvetica Neue', sans-serif" font-size="11.00">libmirai/public/libmirai</text>
<text text-anchor="middle" x="2533.5" y="-145.7" font-family="-apple-system, BlinkMacSystemFont, 'Segoe UI', Roboto, Oxygen, Ubuntu, Cantarell, 'Fira Sans', 'Droid Sans', 'Helvetica Neue', sans-serif" font-size="11.00">/Messages/QuoteMessage.hpp</text>
</a>
</g>
</g>
<!-- Node2&#45;&gt;Node32 -->
<g id="edge29" class="edge">
<title>Node2&#45;&gt;Node32</title>
<path fill="none" stroke="midnightblue" d="M1731.76,-219.35C1880.48,-213.65 2182.25,-199.46 2436.5,-171 2441.16,-170.48 2445.94,-169.89 2450.76,-169.25"/>
<polygon fill="midnightblue" stroke="midnightblue" points="1731.62,-215.86 1721.76,-219.73 1731.88,-222.85 1731.62,-215.86"/>
</g>
<!-- Node4&#45;&gt;Node3 -->
<g id="edge4" class="edge">
<title>Node4&#45;&gt;Node3</title>
<path fill="none" stroke="midnightblue" d="M1531.52,-66.68C1569.11,-56.06 1616.33,-42.71 1652.08,-32.6"/>
<polygon fill="midnightblue" stroke="midnightblue" points="1530.36,-63.38 1521.69,-69.46 1532.26,-70.11 1530.36,-63.38"/>
</g>
<!-- Node10&#45;&gt;Node3 -->
<g id="edge7" class="edge">
<title>Node10&#45;&gt;Node3</title>
<path fill="none" stroke="midnightblue" d="M187.42,-137.91C462.1,-100.85 532.47,-91.94 804.5,-69 1121.43,-42.27 1502.28,-25.55 1646.39,-19.77"/>
<polygon fill="midnightblue" stroke="midnightblue" points="186.59,-134.49 177.15,-139.29 187.53,-141.42 186.59,-134.49"/>
</g>
<!-- Node10&#45;&gt;Node4 -->
<g id="edge8" class="edge">
<title>Node10&#45;&gt;Node4</title>
<path fill="none" stroke="midnightblue" d="M187.3,-138.01C664.22,-91.52 1227.85,-86.72 1409.23,-86.43"/>
<polygon fill="midnightblue" stroke="midnightblue" points="186.72,-134.55 177.11,-139.01 187.41,-141.52 186.72,-134.55"/>
</g>
<!-- Node14&#45;&gt;Node3 -->
<g id="edge11" class="edge">
<title>Node14&#45;&gt;Node3</title>
<path fill="none" stroke="midnightblue" d="M1821.62,-131.12C1793.19,-103.3 1745.44,-56.58 1720.98,-32.64"/>
<polygon fill="midnightblue" stroke="midnightblue" points="1819.5,-133.93 1829.09,-138.43 1824.39,-128.93 1819.5,-133.93"/>
</g>
<!-- Node14&#45;&gt;Node4 -->
<g id="edge12" class="edge">
<title>Node14&#45;&gt;Node4</title>
<path fill="none" stroke="midnightblue" d="M1750,-136.66C1680.21,-124.23 1587.37,-107.68 1527.76,-97.06"/>
<polygon fill="midnightblue" stroke="midnightblue" points="1749.66,-140.16 1760.12,-138.46 1750.89,-133.26 1749.66,-140.16"/>
</g>
<!-- Node20&#45;&gt;Node3 -->
<g id="edge16" class="edge">
<title>Node20&#45;&gt;Node3</title>
<path fill="none" stroke="midnightblue" d="M393.77,-140.83C402.47,-139.85 411.13,-138.89 419.5,-138 892.22,-87.68 1463.93,-38.06 1646.48,-22.5"/>
<polygon fill="midnightblue" stroke="midnightblue" points="393.09,-137.39 383.55,-142 393.88,-144.34 393.09,-137.39"/>
</g>
<!-- Node20&#45;&gt;Node4 -->
<g id="edge17" class="edge">
<title>Node20&#45;&gt;Node4</title>
<path fill="none" stroke="midnightblue" d="M393.66,-138.38C394.95,-138.25 396.23,-138.12 397.5,-138 596.36,-118.99 1214.56,-95.66 1409.2,-88.61"/>
<polygon fill="midnightblue" stroke="midnightblue" points="393.25,-134.9 383.68,-139.45 394,-141.86 393.25,-134.9"/>
</g>
<!-- Node24&#45;&gt;Node3 -->
<g id="edge20" class="edge">
<title>Node24&#45;&gt;Node3</title>
<path fill="none" stroke="midnightblue" d="M1991.29,-134.57C1924.69,-107.29 1803.06,-57.46 1742.21,-32.54"/>
<polygon fill="midnightblue" stroke="midnightblue" points="1990.12,-137.87 2000.7,-138.43 1992.77,-131.4 1990.12,-137.87"/>
</g>
<!-- Node24&#45;&gt;Node4 -->
<g id="edge21" class="edge">
<title>Node24&#45;&gt;Node4</title>
<path fill="none" stroke="midnightblue" d="M1940.23,-137.87C1785.42,-117.18 1615.34,-100.25 1527.61,-91.95"/>
<polygon fill="midnightblue" stroke="midnightblue" points="1940.03,-141.37 1950.41,-139.24 1940.96,-134.44 1940.03,-141.37"/>
</g>
<!-- Node28&#45;&gt;Node30 -->
<g id="edge24" class="edge">
<title>Node28&#45;&gt;Node30</title>
<path fill="none" stroke="midnightblue" d="M2306.5,-128.2C2306.5,-100.13 2306.5,-55.76 2306.5,-32.64"/>
<polygon fill="midnightblue" stroke="midnightblue" points="2303,-128.43 2306.5,-138.43 2310,-128.43 2303,-128.43"/>
</g>
<!-- Node28&#45;&gt;Node31 -->
<g id="edge25" class="edge">
<title>Node28&#45;&gt;Node31</title>
<path fill="none" stroke="midnightblue" d="M2341.38,-133.36C2358.96,-123.2 2379.94,-111.08 2396.15,-101.72"/>
<polygon fill="midnightblue" stroke="midnightblue" points="2339.44,-130.43 2332.53,-138.46 2342.94,-136.49 2339.44,-130.43"/>
</g>
<!-- Node31&#45;&gt;Node30 -->
<g id="edge26" class="edge">
<title>Node31&#45;&gt;Node30</title>
<path fill="none" stroke="midnightblue" d="M2387.62,-64.36C2370.04,-54.2 2349.06,-42.08 2332.85,-32.72"/>
<polygon fill="midnightblue" stroke="midnightblue" points="2386.06,-67.49 2396.47,-69.46 2389.56,-61.43 2386.06,-67.49"/>
</g>
<!-- Node32&#45;&gt;Node31 -->
<g id="edge30" class="edge">
<title>Node32&#45;&gt;Node31</title>
<path fill="none" stroke="midnightblue" d="M2499.66,-133.08C2482.93,-122.98 2463.09,-111 2447.71,-101.72"/>
<polygon fill="midnightblue" stroke="midnightblue" points="2498.22,-136.29 2508.59,-138.46 2501.84,-130.3 2498.22,-136.29"/>
</g>
</g>
</svg>
