<?xml version="1.0" encoding="UTF-8" standalone="no"?>
<!DOCTYPE svg PUBLIC "-//W3C//DTD SVG 1.1//EN"
 "http://www.w3.org/Graphics/SVG/1.1/DTD/svg11.dtd">
<!-- Generated by graphviz version 3.0.0 (20221109.1736)
 -->
<!-- Title: libmirai/models/libmirai/Messages/PlainMessage.hpp Pages: 1 -->
<svg width="443pt" height="212pt"
 viewBox="0.00 0.00 442.50 212.00" xmlns="http://www.w3.org/2000/svg" xmlns:xlink="http://www.w3.org/1999/xlink">
<g id="graph0" class="graph" transform="scale(1 1) rotate(0) translate(4 208)">
<title>libmirai/models/libmirai/Messages/PlainMessage.hpp</title>
<!-- Node1 -->
<g id="node1" class="node">
<title>Node1</title>
<g id="a_node1"><a xlink:title=" ">
<polygon fill="#bfbfbf" stroke="black" points="0,-171.5 0,-203.5 160,-203.5 160,-171.5 0,-171.5"/>
<text text-anchor="start" x="8" y="-190.7" font-family="-apple-system, BlinkMacSystemFont, 'Segoe UI', Roboto, Oxygen, Ubuntu, Cantarell, 'Fira Sans', 'Droid Sans', 'Helvetica Neue', sans-serif" font-size="11.00">libmirai/models/libmirai</text>
<text text-anchor="middle" x="80" y="-178.7" font-family="-apple-system, BlinkMacSystemFont, 'Segoe UI', Roboto, Oxygen, Ubuntu, Cantarell, 'Fira Sans', 'Droid Sans', 'Helvetica Neue', sans-serif" font-size="11.00">/Messages/PlainMessage.hpp</text>
</a>
</g>
</g>
<!-- Node2 -->
<g id="node2" class="node">
<title>Node2</title>
<g id="a_node2"><a xlink:title=" ">
<polygon fill="none" stroke="#bfbfbf" points="47.5,-0.5 47.5,-20.5 90.5,-20.5 90.5,-0.5 47.5,-0.5"/>
<text text-anchor="middle" x="69" y="-7.7" font-family="-apple-system, BlinkMacSystemFont, 'Segoe UI', Roboto, Oxygen, Ubuntu, Cantarell, 'Fira Sans', 'Droid Sans', 'Helvetica Neue', sans-serif" font-size="11.00">string</text>
</a>
</g>
</g>
<!-- Node1&#45;&gt;Node2 -->
<g id="edge1" class="edge">
<title>Node1&#45;&gt;Node2</title>
<path fill="none" stroke="midnightblue" d="M68.21,-171.24C61.43,-161.47 53.56,-148.19 50,-135 40.15,-98.51 52.5,-54.49 61.41,-30.09"/>
<polygon fill="midnightblue" stroke="midnightblue" points="64.72,-31.22 65.05,-20.63 58.19,-28.71 64.72,-31.22"/>
</g>
<!-- Node3 -->
<g id="node3" class="node">
<title>Node3</title>
<g id="a_node3"><a xlink:title=" ">
<polygon fill="none" stroke="#bfbfbf" points="59.5,-114.5 59.5,-134.5 100.5,-134.5 100.5,-114.5 59.5,-114.5"/>
<text text-anchor="middle" x="80" y="-121.7" font-family="-apple-system, BlinkMacSystemFont, 'Segoe UI', Roboto, Oxygen, Ubuntu, Cantarell, 'Fira Sans', 'Droid Sans', 'Helvetica Neue', sans-serif" font-size="11.00">utility</text>
</a>
</g>
</g>
<!-- Node1&#45;&gt;Node3 -->
<g id="edge2" class="edge">
<title>Node1&#45;&gt;Node3</title>
<path fill="none" stroke="midnightblue" d="M80,-171.42C80,-163.38 80,-153.39 80,-144.78"/>
<polygon fill="midnightblue" stroke="midnightblue" points="83.5,-144.55 80,-134.55 76.5,-144.55 83.5,-144.55"/>
</g>
<!-- Node4 -->
<g id="node4" class="node">
<title>Node4</title>
<g id="a_node4"><a xlink:href="IMessage_8hpp.html" target="_top" xlink:title=" ">
<polygon fill="none" stroke="black" points="119,-114.5 119,-134.5 203,-134.5 203,-114.5 119,-114.5"/>
<text text-anchor="middle" x="161" y="-121.7" font-family="-apple-system, BlinkMacSystemFont, 'Segoe UI', Roboto, Oxygen, Ubuntu, Cantarell, 'Fira Sans', 'Droid Sans', 'Helvetica Neue', sans-serif" font-size="11.00">IMessage.hpp</text>
</a>
</g>
</g>
<!-- Node1&#45;&gt;Node4 -->
<g id="edge3" class="edge">
<title>Node1&#45;&gt;Node4</title>
<path fill="none" stroke="midnightblue" d="M100.02,-171.42C112.51,-162.02 128.52,-149.96 141,-140.56"/>
<polygon fill="midnightblue" stroke="midnightblue" points="143.11,-143.36 148.99,-134.55 138.89,-137.77 143.11,-143.36"/>
</g>
<!-- Node4&#45;&gt;Node2 -->
<g id="edge5" class="edge">
<title>Node4&#45;&gt;Node2</title>
<path fill="none" stroke="midnightblue" d="M137.71,-114.38C121.53,-106.91 100.67,-94.82 88,-78 77.62,-64.23 72.91,-44.98 70.77,-30.74"/>
<polygon fill="midnightblue" stroke="midnightblue" points="74.22,-30.09 69.55,-20.58 67.27,-30.93 74.22,-30.09"/>
</g>
<!-- Node5 -->
<g id="node5" class="node">
<title>Node5</title>
<g id="a_node5"><a xlink:title=" ">
<polygon fill="none" stroke="#bfbfbf" points="97,-57.5 97,-77.5 153,-77.5 153,-57.5 97,-57.5"/>
<text text-anchor="middle" x="125" y="-64.7" font-family="-apple-system, BlinkMacSystemFont, 'Segoe UI', Roboto, Oxygen, Ubuntu, Cantarell, 'Fira Sans', 'Droid Sans', 'Helvetica Neue', sans-serif" font-size="11.00">memory</text>
</a>
</g>
</g>
<!-- Node4&#45;&gt;Node5 -->
<g id="edge4" class="edge">
<title>Node4&#45;&gt;Node5</title>
<path fill="none" stroke="midnightblue" d="M155.06,-114.42C150.08,-106.82 142.84,-95.75 136.71,-86.39"/>
<polygon fill="midnightblue" stroke="midnightblue" points="139.48,-84.23 131.07,-77.78 133.62,-88.06 139.48,-84.23"/>
</g>
<!-- Node6 -->
<g id="node6" class="node">
<title>Node6</title>
<g id="a_node6"><a xlink:title=" ">
<polygon fill="none" stroke="#bfbfbf" points="171,-57.5 171,-77.5 237,-77.5 237,-57.5 171,-57.5"/>
<text text-anchor="middle" x="204" y="-64.7" font-family="-apple-system, BlinkMacSystemFont, 'Segoe UI', Roboto, Oxygen, Ubuntu, Cantarell, 'Fira Sans', 'Droid Sans', 'Helvetica Neue', sans-serif" font-size="11.00">type_traits</text>
</a>
</g>
</g>
<!-- Node4&#45;&gt;Node6 -->
<g id="edge6" class="edge">
<title>Node4&#45;&gt;Node6</title>
<path fill="none" stroke="midnightblue" d="M168.1,-114.42C174.16,-106.66 183.06,-95.29 190.47,-85.8"/>
<polygon fill="midnightblue" stroke="midnightblue" points="193.34,-87.81 196.75,-77.78 187.83,-83.5 193.34,-87.81"/>
</g>
<!-- Node7 -->
<g id="node7" class="node">
<title>Node7</title>
<g id="a_node7"><a xlink:href="MessageTypes_8hpp.html" target="_top" xlink:title=" ">
<polygon fill="none" stroke="red" points="255.5,-57.5 255.5,-77.5 434.5,-77.5 434.5,-57.5 255.5,-57.5"/>
<text text-anchor="middle" x="345" y="-64.7" font-family="-apple-system, BlinkMacSystemFont, 'Segoe UI', Roboto, Oxygen, Ubuntu, Cantarell, 'Fira Sans', 'Droid Sans', 'Helvetica Neue', sans-serif" font-size="11.00">libmirai/Types/MessageTypes.hpp</text>
</a>
</g>
</g>
<!-- Node4&#45;&gt;Node7 -->
<g id="edge7" class="edge">
<title>Node4&#45;&gt;Node7</title>
<path fill="none" stroke="midnightblue" d="M191.38,-114.42C222.51,-105.12 271.04,-90.61 305.21,-80.39"/>
<polygon fill="midnightblue" stroke="midnightblue" points="306.3,-83.72 314.88,-77.5 304.29,-77.01 306.3,-83.72"/>
</g>
<!-- Node7&#45;&gt;Node2 -->
<g id="edge8" class="edge">
<title>Node7&#45;&gt;Node2</title>
<path fill="none" stroke="midnightblue" d="M299.73,-57.48C243.6,-46.29 149.36,-27.51 100.5,-17.78"/>
<polygon fill="midnightblue" stroke="midnightblue" points="101.01,-14.31 90.52,-15.79 99.64,-21.17 101.01,-14.31"/>
</g>
</g>
</svg>
