<?xml version="1.0" encoding="UTF-8" standalone="no"?>
<!DOCTYPE svg PUBLIC "-//W3C//DTD SVG 1.1//EN"
 "http://www.w3.org/Graphics/SVG/1.1/DTD/svg11.dtd">
<!-- Generated by graphviz version 3.0.0 (20220413.0242)
 -->
<!-- Title: libmirai/public/libmirai/Messages/PokeMessage.hpp Pages: 1 -->
<svg width="442pt" height="212pt"
 viewBox="0.00 0.00 441.50 212.00" xmlns="http://www.w3.org/2000/svg" xmlns:xlink="http://www.w3.org/1999/xlink">
<g id="graph0" class="graph" transform="scale(1 1) rotate(0) translate(4 208)">
<title>libmirai/public/libmirai/Messages/PokeMessage.hpp</title>
<!-- Node1 -->
<g id="node1" class="node">
<title>Node1</title>
<g id="a_node1"><a xlink:title=" ">
<polygon fill="#bfbfbf" stroke="black" points="11,-171.5 11,-203.5 172,-203.5 172,-171.5 11,-171.5"/>
<text text-anchor="start" x="19" y="-190.7" font-family="-apple-system, BlinkMacSystemFont, 'Segoe UI', Roboto, Oxygen, Ubuntu, Cantarell, 'Fira Sans', 'Droid Sans', 'Helvetica Neue', sans-serif" font-size="11.00">libmirai/public/libmirai</text>
<text text-anchor="middle" x="91.5" y="-178.7" font-family="-apple-system, BlinkMacSystemFont, 'Segoe UI', Roboto, Oxygen, Ubuntu, Cantarell, 'Fira Sans', 'Droid Sans', 'Helvetica Neue', sans-serif" font-size="11.00">/Messages/PokeMessage.hpp</text>
</a>
</g>
</g>
<!-- Node2 -->
<g id="node2" class="node">
<title>Node2</title>
<g id="a_node2"><a xlink:title=" ">
<polygon fill="none" stroke="#bfbfbf" points="0,-114.5 0,-134.5 41,-134.5 41,-114.5 0,-114.5"/>
<text text-anchor="middle" x="20.5" y="-121.7" font-family="-apple-system, BlinkMacSystemFont, 'Segoe UI', Roboto, Oxygen, Ubuntu, Cantarell, 'Fira Sans', 'Droid Sans', 'Helvetica Neue', sans-serif" font-size="11.00">array</text>
</a>
</g>
</g>
<!-- Node1&#45;&gt;Node2 -->
<g id="edge1" class="edge">
<title>Node1&#45;&gt;Node2</title>
<path fill="none" stroke="midnightblue" d="M73.95,-171.42C63.22,-162.2 49.51,-150.43 38.67,-141.11"/>
<polygon fill="midnightblue" stroke="midnightblue" points="40.89,-138.41 31.03,-134.55 36.33,-143.72 40.89,-138.41"/>
</g>
<!-- Node3 -->
<g id="node3" class="node">
<title>Node3</title>
<g id="a_node3"><a xlink:title=" ">
<polygon fill="none" stroke="#bfbfbf" points="98,-57.5 98,-77.5 141,-77.5 141,-57.5 98,-57.5"/>
<text text-anchor="middle" x="119.5" y="-64.7" font-family="-apple-system, BlinkMacSystemFont, 'Segoe UI', Roboto, Oxygen, Ubuntu, Cantarell, 'Fira Sans', 'Droid Sans', 'Helvetica Neue', sans-serif" font-size="11.00">string</text>
</a>
</g>
</g>
<!-- Node1&#45;&gt;Node3 -->
<g id="edge2" class="edge">
<title>Node1&#45;&gt;Node3</title>
<path fill="none" stroke="midnightblue" d="M95.16,-171.07C100.25,-149.61 109.47,-110.76 114.99,-87.53"/>
<polygon fill="midnightblue" stroke="midnightblue" points="118.39,-88.33 117.29,-77.79 111.58,-86.71 118.39,-88.33"/>
</g>
<!-- Node4 -->
<g id="node4" class="node">
<title>Node4</title>
<g id="a_node4"><a xlink:title=" ">
<polygon fill="none" stroke="#bfbfbf" points="175,-0.5 175,-20.5 306,-20.5 306,-0.5 175,-0.5"/>
<text text-anchor="middle" x="240.5" y="-7.7" font-family="-apple-system, BlinkMacSystemFont, 'Segoe UI', Roboto, Oxygen, Ubuntu, Cantarell, 'Fira Sans', 'Droid Sans', 'Helvetica Neue', sans-serif" font-size="11.00">nlohmann/json_fwd.hpp</text>
</a>
</g>
</g>
<!-- Node1&#45;&gt;Node4 -->
<g id="edge3" class="edge">
<title>Node1&#45;&gt;Node4</title>
<path fill="none" stroke="midnightblue" d="M85.63,-171.12C76.71,-144.86 63.25,-90.91 88.5,-57 106.3,-33.08 136.23,-21.26 164.83,-15.57"/>
<polygon fill="midnightblue" stroke="midnightblue" points="165.63,-18.99 174.88,-13.81 164.42,-12.09 165.63,-18.99"/>
</g>
<!-- Node5 -->
<g id="node5" class="node">
<title>Node5</title>
<g id="a_node5"><a xlink:href="MessageBase_8hpp.html" target="_top" xlink:title=" ">
<polygon fill="none" stroke="black" points="187.5,-114.5 187.5,-134.5 293.5,-134.5 293.5,-114.5 187.5,-114.5"/>
<text text-anchor="middle" x="240.5" y="-121.7" font-family="-apple-system, BlinkMacSystemFont, 'Segoe UI', Roboto, Oxygen, Ubuntu, Cantarell, 'Fira Sans', 'Droid Sans', 'Helvetica Neue', sans-serif" font-size="11.00">MessageBase.hpp</text>
</a>
</g>
</g>
<!-- Node1&#45;&gt;Node5 -->
<g id="edge4" class="edge">
<title>Node1&#45;&gt;Node5</title>
<path fill="none" stroke="midnightblue" d="M128.33,-171.42C153.06,-161.3 185.31,-148.09 208.88,-138.44"/>
<polygon fill="midnightblue" stroke="midnightblue" points="210.48,-141.57 218.4,-134.55 207.82,-135.1 210.48,-141.57"/>
</g>
<!-- Node5&#45;&gt;Node3 -->
<g id="edge6" class="edge">
<title>Node5&#45;&gt;Node3</title>
<path fill="none" stroke="midnightblue" d="M220.52,-114.42C200.99,-105.54 171.04,-91.93 148.81,-81.82"/>
<polygon fill="midnightblue" stroke="midnightblue" points="150.06,-78.55 139.51,-77.6 147.17,-84.92 150.06,-78.55"/>
</g>
<!-- Node5&#45;&gt;Node4 -->
<g id="edge7" class="edge">
<title>Node5&#45;&gt;Node4</title>
<path fill="none" stroke="midnightblue" d="M273.48,-114.42C305.56,-103.8 347.19,-84.14 330.5,-57 320.99,-41.54 304.43,-31.14 288.08,-24.24"/>
<polygon fill="midnightblue" stroke="midnightblue" points="289.13,-20.89 278.54,-20.57 286.61,-27.42 289.13,-20.89"/>
</g>
<!-- Node6 -->
<g id="node6" class="node">
<title>Node6</title>
<g id="a_node6"><a xlink:title=" ">
<polygon fill="none" stroke="#bfbfbf" points="377.5,-57.5 377.5,-77.5 433.5,-77.5 433.5,-57.5 377.5,-57.5"/>
<text text-anchor="middle" x="405.5" y="-64.7" font-family="-apple-system, BlinkMacSystemFont, 'Segoe UI', Roboto, Oxygen, Ubuntu, Cantarell, 'Fira Sans', 'Droid Sans', 'Helvetica Neue', sans-serif" font-size="11.00">memory</text>
</a>
</g>
</g>
<!-- Node5&#45;&gt;Node6 -->
<g id="edge5" class="edge">
<title>Node5&#45;&gt;Node6</title>
<path fill="none" stroke="midnightblue" d="M267.75,-114.42C295.3,-105.23 338.06,-90.98 368.63,-80.79"/>
<polygon fill="midnightblue" stroke="midnightblue" points="370.11,-83.99 378.49,-77.5 367.89,-77.35 370.11,-83.99"/>
</g>
<!-- Node7 -->
<g id="node7" class="node">
<title>Node7</title>
<g id="a_node7"><a xlink:href="Serializable_8hpp.html" target="_top" xlink:title=" ">
<polygon fill="none" stroke="black" points="159.5,-57.5 159.5,-77.5 321.5,-77.5 321.5,-57.5 159.5,-57.5"/>
<text text-anchor="middle" x="240.5" y="-64.7" font-family="-apple-system, BlinkMacSystemFont, 'Segoe UI', Roboto, Oxygen, Ubuntu, Cantarell, 'Fira Sans', 'Droid Sans', 'Helvetica Neue', sans-serif" font-size="11.00">libmirai/Types/Serializable.hpp</text>
</a>
</g>
</g>
<!-- Node5&#45;&gt;Node7 -->
<g id="edge8" class="edge">
<title>Node5&#45;&gt;Node7</title>
<path fill="none" stroke="midnightblue" d="M240.5,-114.42C240.5,-107.22 240.5,-96.9 240.5,-87.86"/>
<polygon fill="midnightblue" stroke="midnightblue" points="244,-87.78 240.5,-77.78 237,-87.78 244,-87.78"/>
</g>
<!-- Node7&#45;&gt;Node4 -->
<g id="edge9" class="edge">
<title>Node7&#45;&gt;Node4</title>
<path fill="none" stroke="midnightblue" d="M240.5,-57.42C240.5,-50.22 240.5,-39.9 240.5,-30.86"/>
<polygon fill="midnightblue" stroke="midnightblue" points="244,-30.78 240.5,-20.78 237,-30.78 244,-30.78"/>
</g>
</g>
</svg>
