<?xml version="1.0" encoding="UTF-8" standalone="no"?>
<!DOCTYPE svg PUBLIC "-//W3C//DTD SVG 1.1//EN"
 "http://www.w3.org/Graphics/SVG/1.1/DTD/svg11.dtd">
<!-- Generated by graphviz version 2.43.0 (0)
 -->
<!-- Title: libmirai/public/libmirai/Messages/PokeMessage.hpp Pages: 1 -->
<svg width="478pt" height="212pt"
 viewBox="0.00 0.00 478.00 212.00" xmlns="http://www.w3.org/2000/svg" xmlns:xlink="http://www.w3.org/1999/xlink">
<g id="graph0" class="graph" transform="scale(1 1) rotate(0) translate(4 208)">
<title>libmirai/public/libmirai/Messages/PokeMessage.hpp</title>
<!-- Node1 -->
<g id="node1" class="node">
<title>Node1</title>
<g id="a_node1"><a xlink:title=" ">
<polygon fill="#bfbfbf" stroke="black" points="7.5,-171.5 7.5,-203.5 184.5,-203.5 184.5,-171.5 7.5,-171.5"/>
<text text-anchor="start" x="15.5" y="-190.7" font-family="-apple-system,BlinkMacSystemFont,'SegoeUI',Roboto,Oxygen,Ubuntu,Cantarell,'FiraSans','DroidSans','HelveticaNeue',sans-serif" font-size="11.00">libmirai/public/libmirai</text>
<text text-anchor="middle" x="96" y="-178.7" font-family="-apple-system,BlinkMacSystemFont,'SegoeUI',Roboto,Oxygen,Ubuntu,Cantarell,'FiraSans','DroidSans','HelveticaNeue',sans-serif" font-size="11.00">/Messages/PokeMessage.hpp</text>
</a>
</g>
</g>
<!-- Node2 -->
<g id="node2" class="node">
<title>Node2</title>
<g id="a_node2"><a xlink:title=" ">
<polygon fill="none" stroke="#bfbfbf" points="0,-114.5 0,-134.5 46,-134.5 46,-114.5 0,-114.5"/>
<text text-anchor="middle" x="23" y="-121.7" font-family="-apple-system,BlinkMacSystemFont,'SegoeUI',Roboto,Oxygen,Ubuntu,Cantarell,'FiraSans','DroidSans','HelveticaNeue',sans-serif" font-size="11.00">array</text>
</a>
</g>
</g>
<!-- Node1&#45;&gt;Node2 -->
<g id="edge1" class="edge">
<title>Node1&#45;&gt;Node2</title>
<path fill="none" stroke="midnightblue" d="M77.96,-171.42C66.92,-162.2 52.83,-150.43 41.68,-141.11"/>
<polygon fill="midnightblue" stroke="midnightblue" points="43.74,-138.27 33.83,-134.55 39.25,-143.64 43.74,-138.27"/>
</g>
<!-- Node3 -->
<g id="node3" class="node">
<title>Node3</title>
<g id="a_node3"><a xlink:title=" ">
<polygon fill="none" stroke="#bfbfbf" points="102,-57.5 102,-77.5 150,-77.5 150,-57.5 102,-57.5"/>
<text text-anchor="middle" x="126" y="-64.7" font-family="-apple-system,BlinkMacSystemFont,'SegoeUI',Roboto,Oxygen,Ubuntu,Cantarell,'FiraSans','DroidSans','HelveticaNeue',sans-serif" font-size="11.00">string</text>
</a>
</g>
</g>
<!-- Node1&#45;&gt;Node3 -->
<g id="edge2" class="edge">
<title>Node1&#45;&gt;Node3</title>
<path fill="none" stroke="midnightblue" d="M99.92,-171.07C105.38,-149.61 115.26,-110.76 121.16,-87.53"/>
<polygon fill="midnightblue" stroke="midnightblue" points="124.57,-88.35 123.64,-77.79 117.78,-86.62 124.57,-88.35"/>
</g>
<!-- Node4 -->
<g id="node4" class="node">
<title>Node4</title>
<g id="a_node4"><a xlink:title=" ">
<polygon fill="none" stroke="#bfbfbf" points="187,-0.5 187,-20.5 333,-20.5 333,-0.5 187,-0.5"/>
<text text-anchor="middle" x="260" y="-7.7" font-family="-apple-system,BlinkMacSystemFont,'SegoeUI',Roboto,Oxygen,Ubuntu,Cantarell,'FiraSans','DroidSans','HelveticaNeue',sans-serif" font-size="11.00">nlohmann/json_fwd.hpp</text>
</a>
</g>
</g>
<!-- Node1&#45;&gt;Node4 -->
<g id="edge3" class="edge">
<title>Node1&#45;&gt;Node4</title>
<path fill="none" stroke="midnightblue" d="M90.19,-171.47C81.13,-145.26 67.2,-90.77 93,-57 104.9,-41.43 148.03,-29.91 187.48,-22.36"/>
<polygon fill="midnightblue" stroke="midnightblue" points="188.21,-25.78 197.41,-20.53 186.94,-18.9 188.21,-25.78"/>
</g>
<!-- Node5 -->
<g id="node5" class="node">
<title>Node5</title>
<g id="a_node5"><a xlink:href="MessageBase_8hpp.html" target="_top" xlink:title=" ">
<polygon fill="none" stroke="black" points="202,-114.5 202,-134.5 318,-134.5 318,-114.5 202,-114.5"/>
<text text-anchor="middle" x="260" y="-121.7" font-family="-apple-system,BlinkMacSystemFont,'SegoeUI',Roboto,Oxygen,Ubuntu,Cantarell,'FiraSans','DroidSans','HelveticaNeue',sans-serif" font-size="11.00">MessageBase.hpp</text>
</a>
</g>
</g>
<!-- Node1&#45;&gt;Node5 -->
<g id="edge4" class="edge">
<title>Node1&#45;&gt;Node5</title>
<path fill="none" stroke="midnightblue" d="M136.54,-171.42C164.13,-161.16 200.21,-147.74 226.24,-138.06"/>
<polygon fill="midnightblue" stroke="midnightblue" points="227.53,-141.31 235.68,-134.55 225.09,-134.75 227.53,-141.31"/>
</g>
<!-- Node5&#45;&gt;Node3 -->
<g id="edge6" class="edge">
<title>Node5&#45;&gt;Node3</title>
<path fill="none" stroke="midnightblue" d="M237.87,-114.42C215.95,-105.42 182.18,-91.56 157.47,-81.42"/>
<polygon fill="midnightblue" stroke="midnightblue" points="158.74,-78.15 148.16,-77.6 156.08,-84.63 158.74,-78.15"/>
</g>
<!-- Node5&#45;&gt;Node4 -->
<g id="edge7" class="edge">
<title>Node5&#45;&gt;Node4</title>
<path fill="none" stroke="midnightblue" d="M305.75,-114.42C326,-107.88 347.92,-96.77 360,-78 376.54,-52.31 341.38,-34.24 308.29,-23.49"/>
<polygon fill="midnightblue" stroke="midnightblue" points="309.18,-20.1 298.6,-20.52 307.13,-26.79 309.18,-20.1"/>
</g>
<!-- Node6 -->
<g id="node6" class="node">
<title>Node6</title>
<g id="a_node6"><a xlink:title=" ">
<polygon fill="none" stroke="#bfbfbf" points="408,-57.5 408,-77.5 470,-77.5 470,-57.5 408,-57.5"/>
<text text-anchor="middle" x="439" y="-64.7" font-family="-apple-system,BlinkMacSystemFont,'SegoeUI',Roboto,Oxygen,Ubuntu,Cantarell,'FiraSans','DroidSans','HelveticaNeue',sans-serif" font-size="11.00">memory</text>
</a>
</g>
</g>
<!-- Node5&#45;&gt;Node6 -->
<g id="edge5" class="edge">
<title>Node5&#45;&gt;Node6</title>
<path fill="none" stroke="midnightblue" d="M289.56,-114.42C319.7,-105.15 366.64,-90.73 399.86,-80.53"/>
<polygon fill="midnightblue" stroke="midnightblue" points="401.16,-83.79 409.7,-77.5 399.11,-77.1 401.16,-83.79"/>
</g>
<!-- Node7 -->
<g id="node7" class="node">
<title>Node7</title>
<g id="a_node7"><a xlink:href="Serializable_8hpp.html" target="_top" xlink:title=" ">
<polygon fill="none" stroke="black" points="168.5,-57.5 168.5,-77.5 351.5,-77.5 351.5,-57.5 168.5,-57.5"/>
<text text-anchor="middle" x="260" y="-64.7" font-family="-apple-system,BlinkMacSystemFont,'SegoeUI',Roboto,Oxygen,Ubuntu,Cantarell,'FiraSans','DroidSans','HelveticaNeue',sans-serif" font-size="11.00">libmirai/Types/Serializable.hpp</text>
</a>
</g>
</g>
<!-- Node5&#45;&gt;Node7 -->
<g id="edge8" class="edge">
<title>Node5&#45;&gt;Node7</title>
<path fill="none" stroke="midnightblue" d="M260,-114.42C260,-107.22 260,-96.9 260,-87.86"/>
<polygon fill="midnightblue" stroke="midnightblue" points="263.5,-87.78 260,-77.78 256.5,-87.78 263.5,-87.78"/>
</g>
<!-- Node7&#45;&gt;Node4 -->
<g id="edge9" class="edge">
<title>Node7&#45;&gt;Node4</title>
<path fill="none" stroke="midnightblue" d="M260,-57.42C260,-50.22 260,-39.9 260,-30.86"/>
<polygon fill="midnightblue" stroke="midnightblue" points="263.5,-30.78 260,-20.78 256.5,-30.78 263.5,-30.78"/>
</g>
</g>
</svg>
