<?xml version="1.0" encoding="UTF-8" standalone="no"?>
<!DOCTYPE svg PUBLIC "-//W3C//DTD SVG 1.1//EN"
 "http://www.w3.org/Graphics/SVG/1.1/DTD/svg11.dtd">
<!-- Generated by graphviz version 3.0.0 (20220413.0242)
 -->
<!-- Title: libmirai/public/libmirai/Messages/QuoteMessage.hpp Pages: 1 -->
<svg width="2118pt" height="395pt"
 viewBox="0.00 0.00 2118.00 395.00" xmlns="http://www.w3.org/2000/svg" xmlns:xlink="http://www.w3.org/1999/xlink">
<g id="graph0" class="graph" transform="scale(1 1) rotate(0) translate(4 391)">
<title>libmirai/public/libmirai/Messages/QuoteMessage.hpp</title>
<!-- Node1 -->
<g id="node1" class="node">
<title>Node1</title>
<g id="a_node1"><a xlink:title=" ">
<polygon fill="#bfbfbf" stroke="black" points="1214.5,-354.5 1214.5,-386.5 1379.5,-386.5 1379.5,-354.5 1214.5,-354.5"/>
<text text-anchor="start" x="1222.5" y="-373.7" font-family="-apple-system, BlinkMacSystemFont, 'Segoe UI', Roboto, Oxygen, Ubuntu, Cantarell, 'Fira Sans', 'Droid Sans', 'Helvetica Neue', sans-serif" font-size="11.00">libmirai/public/libmirai</text>
<text text-anchor="middle" x="1297" y="-361.7" font-family="-apple-system, BlinkMacSystemFont, 'Segoe UI', Roboto, Oxygen, Ubuntu, Cantarell, 'Fira Sans', 'Droid Sans', 'Helvetica Neue', sans-serif" font-size="11.00">/Messages/QuoteMessage.hpp</text>
</a>
</g>
</g>
<!-- Node2 -->
<g id="node2" class="node">
<title>Node2</title>
<g id="a_node2"><a xlink:title=" ">
<polygon fill="none" stroke="#bfbfbf" points="863.5,-57.5 863.5,-77.5 906.5,-77.5 906.5,-57.5 863.5,-57.5"/>
<text text-anchor="middle" x="885" y="-64.7" font-family="-apple-system, BlinkMacSystemFont, 'Segoe UI', Roboto, Oxygen, Ubuntu, Cantarell, 'Fira Sans', 'Droid Sans', 'Helvetica Neue', sans-serif" font-size="11.00">string</text>
</a>
</g>
</g>
<!-- Node1&#45;&gt;Node2 -->
<g id="edge1" class="edge">
<title>Node1&#45;&gt;Node2</title>
<path fill="none" stroke="midnightblue" d="M1214.39,-365.95C928.7,-353.13 0,-306.75 0,-245.5 0,-245.5 0,-245.5 0,-180.5 0,-92.69 694.56,-72.56 853.06,-69.11"/>
<polygon fill="midnightblue" stroke="midnightblue" points="853.2,-72.61 863.12,-68.9 853.05,-65.61 853.2,-72.61"/>
</g>
<!-- Node3 -->
<g id="node3" class="node">
<title>Node3</title>
<g id="a_node3"><a xlink:title=" ">
<polygon fill="none" stroke="#bfbfbf" points="1073.5,-0.5 1073.5,-20.5 1204.5,-20.5 1204.5,-0.5 1073.5,-0.5"/>
<text text-anchor="middle" x="1139" y="-7.7" font-family="-apple-system, BlinkMacSystemFont, 'Segoe UI', Roboto, Oxygen, Ubuntu, Cantarell, 'Fira Sans', 'Droid Sans', 'Helvetica Neue', sans-serif" font-size="11.00">nlohmann/json_fwd.hpp</text>
</a>
</g>
</g>
<!-- Node1&#45;&gt;Node3 -->
<g id="edge2" class="edge">
<title>Node1&#45;&gt;Node3</title>
<path fill="none" stroke="midnightblue" d="M1379.56,-366.41C1529.56,-360.21 1841.01,-344.55 1946,-318 2023.26,-298.46 2110,-325.19 2110,-245.5 2110,-245.5 2110,-245.5 2110,-123.5 2110,-83.99 2086.62,-74.1 2051,-57 1976.6,-21.29 1419.81,-13.57 1214.63,-11.93"/>
<polygon fill="midnightblue" stroke="midnightblue" points="1214.57,-8.43 1204.54,-11.85 1214.52,-15.43 1214.57,-8.43"/>
</g>
<!-- Node4 -->
<g id="node4" class="node">
<title>Node4</title>
<g id="a_node4"><a xlink:href="BasicTypes_8hpp.html" target="_top" xlink:title=" ">
<polygon fill="none" stroke="black" points="1768,-114.5 1768,-134.5 1930,-134.5 1930,-114.5 1768,-114.5"/>
<text text-anchor="middle" x="1849" y="-121.7" font-family="-apple-system, BlinkMacSystemFont, 'Segoe UI', Roboto, Oxygen, Ubuntu, Cantarell, 'Fira Sans', 'Droid Sans', 'Helvetica Neue', sans-serif" font-size="11.00">libmirai/Types/BasicTypes.hpp</text>
</a>
</g>
</g>
<!-- Node1&#45;&gt;Node4 -->
<g id="edge3" class="edge">
<title>Node1&#45;&gt;Node4</title>
<path fill="none" stroke="midnightblue" d="M1379.51,-369.86C1550.2,-368.66 1932.93,-355.26 2014,-261 2059.43,-208.18 1949.22,-159.88 1887.41,-137.94"/>
<polygon fill="midnightblue" stroke="midnightblue" points="1888.54,-134.62 1877.94,-134.65 1886.24,-141.23 1888.54,-134.62"/>
</g>
<!-- Node8 -->
<g id="node8" class="node">
<title>Node8</title>
<g id="a_node8"><a xlink:href="MessageBase_8hpp.html" target="_top" xlink:title=" ">
<polygon fill="none" stroke="black" points="785,-114.5 785,-134.5 891,-134.5 891,-114.5 785,-114.5"/>
<text text-anchor="middle" x="838" y="-121.7" font-family="-apple-system, BlinkMacSystemFont, 'Segoe UI', Roboto, Oxygen, Ubuntu, Cantarell, 'Fira Sans', 'Droid Sans', 'Helvetica Neue', sans-serif" font-size="11.00">MessageBase.hpp</text>
</a>
</g>
</g>
<!-- Node1&#45;&gt;Node8 -->
<g id="edge10" class="edge">
<title>Node1&#45;&gt;Node8</title>
<path fill="none" stroke="midnightblue" d="M1215.35,-354.48C1138.72,-338.31 1022.39,-308.34 930,-261 885.46,-238.18 864.03,-236.44 841,-192 833.45,-177.43 833.35,-158.55 834.76,-144.64"/>
<polygon fill="midnightblue" stroke="midnightblue" points="838.23,-145.1 836.11,-134.72 831.3,-144.16 838.23,-145.1"/>
</g>
<!-- Node10 -->
<g id="node10" class="node">
<title>Node10</title>
<g id="a_node10"><a xlink:href="MessageChain_8hpp.html" target="_top" xlink:title=" ">
<polygon fill="none" stroke="black" points="1242.5,-297.5 1242.5,-317.5 1351.5,-317.5 1351.5,-297.5 1242.5,-297.5"/>
<text text-anchor="middle" x="1297" y="-304.7" font-family="-apple-system, BlinkMacSystemFont, 'Segoe UI', Roboto, Oxygen, Ubuntu, Cantarell, 'Fira Sans', 'Droid Sans', 'Helvetica Neue', sans-serif" font-size="11.00">MessageChain.hpp</text>
</a>
</g>
</g>
<!-- Node1&#45;&gt;Node10 -->
<g id="edge15" class="edge">
<title>Node1&#45;&gt;Node10</title>
<path fill="none" stroke="midnightblue" d="M1297,-354.42C1297,-346.38 1297,-336.39 1297,-327.78"/>
<polygon fill="midnightblue" stroke="midnightblue" points="1300.5,-327.55 1297,-317.55 1293.5,-327.55 1300.5,-327.55"/>
</g>
<!-- Node4&#45;&gt;Node2 -->
<g id="edge6" class="edge">
<title>Node4&#45;&gt;Node2</title>
<path fill="none" stroke="midnightblue" d="M1767.86,-120.7C1562.93,-113.46 1033.09,-93.72 916.48,-77.41"/>
<polygon fill="midnightblue" stroke="midnightblue" points="916.94,-73.94 906.51,-75.84 915.85,-80.85 916.94,-73.94"/>
</g>
<!-- Node4&#45;&gt;Node3 -->
<g id="edge7" class="edge">
<title>Node4&#45;&gt;Node3</title>
<path fill="none" stroke="midnightblue" d="M1849.41,-114.45C1849.53,-99.78 1847.38,-71.03 1830,-57 1783.02,-19.07 1384.23,-12.65 1214.73,-11.65"/>
<polygon fill="midnightblue" stroke="midnightblue" points="1214.66,-8.14 1204.64,-11.59 1214.62,-15.14 1214.66,-8.14"/>
</g>
<!-- Node5 -->
<g id="node5" class="node">
<title>Node5</title>
<g id="a_node5"><a xlink:title=" ">
<polygon fill="none" stroke="#bfbfbf" points="1877,-57.5 1877,-77.5 1927,-77.5 1927,-57.5 1877,-57.5"/>
<text text-anchor="middle" x="1902" y="-64.7" font-family="-apple-system, BlinkMacSystemFont, 'Segoe UI', Roboto, Oxygen, Ubuntu, Cantarell, 'Fira Sans', 'Droid Sans', 'Helvetica Neue', sans-serif" font-size="11.00">chrono</text>
</a>
</g>
</g>
<!-- Node4&#45;&gt;Node5 -->
<g id="edge4" class="edge">
<title>Node4&#45;&gt;Node5</title>
<path fill="none" stroke="midnightblue" d="M1857.75,-114.42C1865.38,-106.5 1876.63,-94.82 1885.88,-85.23"/>
<polygon fill="midnightblue" stroke="midnightblue" points="1888.64,-87.41 1893.06,-77.78 1883.6,-82.55 1888.64,-87.41"/>
</g>
<!-- Node6 -->
<g id="node6" class="node">
<title>Node6</title>
<g id="a_node6"><a xlink:title=" ">
<polygon fill="none" stroke="#bfbfbf" points="2000,-57.5 2000,-77.5 2042,-77.5 2042,-57.5 2000,-57.5"/>
<text text-anchor="middle" x="2021" y="-64.7" font-family="-apple-system, BlinkMacSystemFont, 'Segoe UI', Roboto, Oxygen, Ubuntu, Cantarell, 'Fira Sans', 'Droid Sans', 'Helvetica Neue', sans-serif" font-size="11.00">ctime</text>
</a>
</g>
</g>
<!-- Node4&#45;&gt;Node6 -->
<g id="edge5" class="edge">
<title>Node4&#45;&gt;Node6</title>
<path fill="none" stroke="midnightblue" d="M1877.4,-114.42C1908.48,-104.48 1958.14,-88.6 1990.16,-78.36"/>
<polygon fill="midnightblue" stroke="midnightblue" points="1991.43,-81.63 1999.89,-75.25 1989.29,-74.96 1991.43,-81.63"/>
</g>
<!-- Node7 -->
<g id="node7" class="node">
<title>Node7</title>
<g id="a_node7"><a xlink:href="Serializable_8hpp.html" target="_top" xlink:title=" ">
<polygon fill="none" stroke="black" points="1659,-57.5 1659,-77.5 1821,-77.5 1821,-57.5 1659,-57.5"/>
<text text-anchor="middle" x="1740" y="-64.7" font-family="-apple-system, BlinkMacSystemFont, 'Segoe UI', Roboto, Oxygen, Ubuntu, Cantarell, 'Fira Sans', 'Droid Sans', 'Helvetica Neue', sans-serif" font-size="11.00">libmirai/Types/Serializable.hpp</text>
</a>
</g>
</g>
<!-- Node4&#45;&gt;Node7 -->
<g id="edge8" class="edge">
<title>Node4&#45;&gt;Node7</title>
<path fill="none" stroke="midnightblue" d="M1831,-114.42C1813.64,-105.66 1787.15,-92.29 1767.22,-82.23"/>
<polygon fill="midnightblue" stroke="midnightblue" points="1768.53,-78.98 1758.03,-77.6 1765.38,-85.23 1768.53,-78.98"/>
</g>
<!-- Node7&#45;&gt;Node3 -->
<g id="edge9" class="edge">
<title>Node7&#45;&gt;Node3</title>
<path fill="none" stroke="midnightblue" d="M1658.9,-58.34C1654.2,-57.88 1649.54,-57.43 1645,-57 1492.35,-42.5 1313.68,-26.71 1214.72,-18.07"/>
<polygon fill="midnightblue" stroke="midnightblue" points="1214.79,-14.56 1204.52,-17.18 1214.18,-21.54 1214.79,-14.56"/>
</g>
<!-- Node8&#45;&gt;Node2 -->
<g id="edge12" class="edge">
<title>Node8&#45;&gt;Node2</title>
<path fill="none" stroke="midnightblue" d="M845.76,-114.42C852.46,-106.58 862.31,-95.06 870.46,-85.51"/>
<polygon fill="midnightblue" stroke="midnightblue" points="873.23,-87.66 877.07,-77.78 867.91,-83.11 873.23,-87.66"/>
</g>
<!-- Node8&#45;&gt;Node3 -->
<g id="edge13" class="edge">
<title>Node8&#45;&gt;Node3</title>
<path fill="none" stroke="midnightblue" d="M837.28,-114.2C836.71,-99.7 837.96,-71.84 854,-57 883.68,-29.54 989.23,-18.62 1063.18,-14.3"/>
<polygon fill="midnightblue" stroke="midnightblue" points="1063.6,-17.78 1073.39,-13.73 1063.22,-10.79 1063.6,-17.78"/>
</g>
<!-- Node8&#45;&gt;Node7 -->
<g id="edge14" class="edge">
<title>Node8&#45;&gt;Node7</title>
<path fill="none" stroke="midnightblue" d="M891.06,-120.26C1039.75,-111.2 1461.84,-85.46 1648.87,-74.06"/>
<polygon fill="midnightblue" stroke="midnightblue" points="1649.18,-77.54 1658.95,-73.44 1648.76,-70.56 1649.18,-77.54"/>
</g>
<!-- Node9 -->
<g id="node9" class="node">
<title>Node9</title>
<g id="a_node9"><a xlink:title=" ">
<polygon fill="none" stroke="#bfbfbf" points="925,-57.5 925,-77.5 981,-77.5 981,-57.5 925,-57.5"/>
<text text-anchor="middle" x="953" y="-64.7" font-family="-apple-system, BlinkMacSystemFont, 'Segoe UI', Roboto, Oxygen, Ubuntu, Cantarell, 'Fira Sans', 'Droid Sans', 'Helvetica Neue', sans-serif" font-size="11.00">memory</text>
</a>
</g>
</g>
<!-- Node8&#45;&gt;Node9 -->
<g id="edge11" class="edge">
<title>Node8&#45;&gt;Node9</title>
<path fill="none" stroke="midnightblue" d="M856.99,-114.42C875.47,-105.58 903.76,-92.05 924.86,-81.96"/>
<polygon fill="midnightblue" stroke="midnightblue" points="926.47,-85.07 933.98,-77.6 923.45,-78.75 926.47,-85.07"/>
</g>
<!-- Node10&#45;&gt;Node3 -->
<g id="edge24" class="edge">
<title>Node10&#45;&gt;Node3</title>
<path fill="none" stroke="midnightblue" d="M1322.88,-297.37C1343.44,-289.46 1372.4,-276.8 1395,-261 1412,-249.12 1409.93,-238.19 1428,-228 1488.67,-193.78 1613.49,-228.39 1574,-171 1493.33,-53.76 1316.39,-22.39 1214.78,-14.2"/>
<polygon fill="midnightblue" stroke="midnightblue" points="1214.82,-10.69 1204.59,-13.43 1214.3,-17.67 1214.82,-10.69"/>
</g>
<!-- Node10&#45;&gt;Node6 -->
<g id="edge17" class="edge">
<title>Node10&#45;&gt;Node6</title>
<path fill="none" stroke="midnightblue" d="M1351.7,-307.15C1511.32,-308.49 1968.14,-308.12 2014,-261 2059.64,-214.11 2039.6,-126.43 2027.62,-87.71"/>
<polygon fill="midnightblue" stroke="midnightblue" points="2030.8,-86.19 2024.38,-77.77 2024.15,-88.36 2030.8,-86.19"/>
</g>
<!-- Node10&#45;&gt;Node8 -->
<g id="edge67" class="edge">
<title>Node10&#45;&gt;Node8</title>
<path fill="none" stroke="midnightblue" d="M1242.49,-301.3C1186.22,-295.06 1096.26,-282.62 1021,-261 1001.9,-255.51 869.1,-206.95 856,-192 844.68,-179.08 840.4,-159.73 838.82,-145.23"/>
<polygon fill="midnightblue" stroke="midnightblue" points="842.28,-144.57 838.05,-134.85 835.3,-145.08 842.28,-144.57"/>
</g>
<!-- Node10&#45;&gt;Node9 -->
<g id="edge18" class="edge">
<title>Node10&#45;&gt;Node9</title>
<path fill="none" stroke="midnightblue" d="M1351.7,-302.36C1429.46,-295.86 1567.57,-281.78 1613,-261 1633.34,-251.69 1631.9,-239.65 1651,-228 1691.42,-203.34 1770.66,-207.9 1741,-171 1693.36,-111.74 1143.38,-78.53 991.59,-70.45"/>
<polygon fill="midnightblue" stroke="midnightblue" points="991.53,-66.94 981.36,-69.91 991.17,-73.93 991.53,-66.94"/>
</g>
<!-- Node11 -->
<g id="node11" class="node">
<title>Node11</title>
<g id="a_node11"><a xlink:title=" ">
<polygon fill="none" stroke="#bfbfbf" points="1480.5,-234.5 1480.5,-254.5 1531.5,-254.5 1531.5,-234.5 1480.5,-234.5"/>
<text text-anchor="middle" x="1506" y="-241.7" font-family="-apple-system, BlinkMacSystemFont, 'Segoe UI', Roboto, Oxygen, Ubuntu, Cantarell, 'Fira Sans', 'Droid Sans', 'Helvetica Neue', sans-serif" font-size="11.00">cstddef</text>
</a>
</g>
</g>
<!-- Node10&#45;&gt;Node11 -->
<g id="edge16" class="edge">
<title>Node10&#45;&gt;Node11</title>
<path fill="none" stroke="midnightblue" d="M1335.26,-297.44C1369.74,-288.98 1421.67,-275.51 1466,-261 1468.72,-260.11 1471.53,-259.14 1474.33,-258.13"/>
<polygon fill="midnightblue" stroke="midnightblue" points="1475.58,-261.39 1483.73,-254.61 1473.13,-254.84 1475.58,-261.39"/>
</g>
<!-- Node12 -->
<g id="node12" class="node">
<title>Node12</title>
<g id="a_node12"><a xlink:title=" ">
<polygon fill="none" stroke="#bfbfbf" points="1550,-234.5 1550,-254.5 1604,-254.5 1604,-234.5 1550,-234.5"/>
<text text-anchor="middle" x="1577" y="-241.7" font-family="-apple-system, BlinkMacSystemFont, 'Segoe UI', Roboto, Oxygen, Ubuntu, Cantarell, 'Fira Sans', 'Droid Sans', 'Helvetica Neue', sans-serif" font-size="11.00">optional</text>
</a>
</g>
</g>
<!-- Node10&#45;&gt;Node12 -->
<g id="edge19" class="edge">
<title>Node10&#45;&gt;Node12</title>
<path fill="none" stroke="midnightblue" d="M1351.83,-299.62C1401.61,-292.57 1476.68,-279.96 1540,-261 1542.6,-260.22 1545.27,-259.32 1547.92,-258.35"/>
<polygon fill="midnightblue" stroke="midnightblue" points="1549.29,-261.57 1557.31,-254.65 1546.73,-255.06 1549.29,-261.57"/>
</g>
<!-- Node13 -->
<g id="node13" class="node">
<title>Node13</title>
<g id="a_node13"><a xlink:title=" ">
<polygon fill="none" stroke="#bfbfbf" points="1393,-171.5 1393,-191.5 1455,-191.5 1455,-171.5 1393,-171.5"/>
<text text-anchor="middle" x="1424" y="-178.7" font-family="-apple-system, BlinkMacSystemFont, 'Segoe UI', Roboto, Oxygen, Ubuntu, Cantarell, 'Fira Sans', 'Droid Sans', 'Helvetica Neue', sans-serif" font-size="11.00">stdexcept</text>
</a>
</g>
</g>
<!-- Node10&#45;&gt;Node13 -->
<g id="edge20" class="edge">
<title>Node10&#45;&gt;Node13</title>
<path fill="none" stroke="midnightblue" d="M1303.55,-297.17C1314.59,-281.79 1338.06,-250.58 1362,-228 1374.11,-216.57 1389.14,-205.48 1401.37,-197.11"/>
<polygon fill="midnightblue" stroke="midnightblue" points="1403.34,-200 1409.69,-191.53 1399.44,-194.19 1403.34,-200"/>
</g>
<!-- Node14 -->
<g id="node14" class="node">
<title>Node14</title>
<g id="a_node14"><a xlink:title=" ">
<polygon fill="none" stroke="#bfbfbf" points="1660,-234.5 1660,-254.5 1726,-254.5 1726,-234.5 1660,-234.5"/>
<text text-anchor="middle" x="1693" y="-241.7" font-family="-apple-system, BlinkMacSystemFont, 'Segoe UI', Roboto, Oxygen, Ubuntu, Cantarell, 'Fira Sans', 'Droid Sans', 'Helvetica Neue', sans-serif" font-size="11.00">type_traits</text>
</a>
</g>
</g>
<!-- Node10&#45;&gt;Node14 -->
<g id="edge21" class="edge">
<title>Node10&#45;&gt;Node14</title>
<path fill="none" stroke="midnightblue" d="M1351.67,-302.59C1420.85,-296.9 1543.38,-284.39 1646,-261 1650.15,-260.05 1654.45,-258.9 1658.69,-257.64"/>
<polygon fill="midnightblue" stroke="midnightblue" points="1659.88,-260.93 1668.37,-254.59 1657.78,-254.26 1659.88,-260.93"/>
</g>
<!-- Node15 -->
<g id="node15" class="node">
<title>Node15</title>
<g id="a_node15"><a xlink:title=" ">
<polygon fill="none" stroke="#bfbfbf" points="1744.5,-234.5 1744.5,-254.5 1785.5,-254.5 1785.5,-234.5 1744.5,-234.5"/>
<text text-anchor="middle" x="1765" y="-241.7" font-family="-apple-system, BlinkMacSystemFont, 'Segoe UI', Roboto, Oxygen, Ubuntu, Cantarell, 'Fira Sans', 'Droid Sans', 'Helvetica Neue', sans-serif" font-size="11.00">utility</text>
</a>
</g>
</g>
<!-- Node10&#45;&gt;Node15 -->
<g id="edge22" class="edge">
<title>Node10&#45;&gt;Node15</title>
<path fill="none" stroke="midnightblue" d="M1351.52,-307.27C1435.64,-307.05 1601.31,-300.92 1735,-261 1736.94,-260.42 1738.9,-259.72 1740.84,-258.93"/>
<polygon fill="midnightblue" stroke="midnightblue" points="1742.64,-261.95 1750.2,-254.53 1739.66,-255.62 1742.64,-261.95"/>
</g>
<!-- Node16 -->
<g id="node16" class="node">
<title>Node16</title>
<g id="a_node16"><a xlink:title=" ">
<polygon fill="none" stroke="#bfbfbf" points="1804,-234.5 1804,-254.5 1850,-254.5 1850,-234.5 1804,-234.5"/>
<text text-anchor="middle" x="1827" y="-241.7" font-family="-apple-system, BlinkMacSystemFont, 'Segoe UI', Roboto, Oxygen, Ubuntu, Cantarell, 'Fira Sans', 'Droid Sans', 'Helvetica Neue', sans-serif" font-size="11.00">vector</text>
</a>
</g>
</g>
<!-- Node10&#45;&gt;Node16 -->
<g id="edge23" class="edge">
<title>Node10&#45;&gt;Node16</title>
<path fill="none" stroke="midnightblue" d="M1351.75,-303.88C1462.99,-298.18 1711.85,-283.31 1794,-261 1796.46,-260.33 1798.96,-259.49 1801.43,-258.55"/>
<polygon fill="midnightblue" stroke="midnightblue" points="1802.86,-261.74 1810.64,-254.55 1800.07,-255.32 1802.86,-261.74"/>
</g>
<!-- Node17 -->
<g id="node17" class="node">
<title>Node17</title>
<g id="a_node17"><a xlink:href="Exceptions_8hpp.html" target="_top" xlink:title=" ">
<polygon fill="none" stroke="black" points="1204.5,-228.5 1204.5,-260.5 1309.5,-260.5 1309.5,-228.5 1204.5,-228.5"/>
<text text-anchor="start" x="1212.5" y="-247.7" font-family="-apple-system, BlinkMacSystemFont, 'Segoe UI', Roboto, Oxygen, Ubuntu, Cantarell, 'Fira Sans', 'Droid Sans', 'Helvetica Neue', sans-serif" font-size="11.00">libmirai/Exceptions</text>
<text text-anchor="middle" x="1257" y="-235.7" font-family="-apple-system, BlinkMacSystemFont, 'Segoe UI', Roboto, Oxygen, Ubuntu, Cantarell, 'Fira Sans', 'Droid Sans', 'Helvetica Neue', sans-serif" font-size="11.00">/Exceptions.hpp</text>
</a>
</g>
</g>
<!-- Node10&#45;&gt;Node17 -->
<g id="edge25" class="edge">
<title>Node10&#45;&gt;Node17</title>
<path fill="none" stroke="midnightblue" d="M1291.1,-297.5C1286.19,-290.01 1278.98,-279.02 1272.45,-269.06"/>
<polygon fill="midnightblue" stroke="midnightblue" points="1275.37,-267.13 1266.96,-260.69 1269.52,-270.97 1275.37,-267.13"/>
</g>
<!-- Node18 -->
<g id="node18" class="node">
<title>Node18</title>
<g id="a_node18"><a xlink:href="AppMessage_8hpp.html" target="_top" xlink:title=" ">
<polygon fill="none" stroke="black" points="1235.5,-171.5 1235.5,-191.5 1336.5,-191.5 1336.5,-171.5 1235.5,-171.5"/>
<text text-anchor="middle" x="1286" y="-178.7" font-family="-apple-system, BlinkMacSystemFont, 'Segoe UI', Roboto, Oxygen, Ubuntu, Cantarell, 'Fira Sans', 'Droid Sans', 'Helvetica Neue', sans-serif" font-size="11.00">AppMessage.hpp</text>
</a>
</g>
</g>
<!-- Node10&#45;&gt;Node18 -->
<g id="edge28" class="edge">
<title>Node10&#45;&gt;Node18</title>
<path fill="none" stroke="midnightblue" d="M1249.83,-297.49C1229.33,-290.98 1207.24,-279.87 1195,-261 1187.02,-248.7 1187.29,-240.48 1195,-228 1204.55,-212.55 1221.11,-202.17 1237.5,-195.28"/>
<polygon fill="midnightblue" stroke="midnightblue" points="1238.99,-198.46 1247.08,-191.62 1236.49,-191.92 1238.99,-198.46"/>
</g>
<!-- Node19 -->
<g id="node19" class="node">
<title>Node19</title>
<g id="a_node19"><a xlink:href="AtAllMessage_8hpp.html" target="_top" xlink:title=" ">
<polygon fill="none" stroke="black" points="1113,-171.5 1113,-191.5 1217,-191.5 1217,-171.5 1113,-171.5"/>
<text text-anchor="middle" x="1165" y="-178.7" font-family="-apple-system, BlinkMacSystemFont, 'Segoe UI', Roboto, Oxygen, Ubuntu, Cantarell, 'Fira Sans', 'Droid Sans', 'Helvetica Neue', sans-serif" font-size="11.00">AtAllMessage.hpp</text>
</a>
</g>
</g>
<!-- Node10&#45;&gt;Node19 -->
<g id="edge32" class="edge">
<title>Node10&#45;&gt;Node19</title>
<path fill="none" stroke="midnightblue" d="M1250,-297.42C1227.72,-290.84 1202.44,-279.69 1186,-261 1171.55,-244.58 1166.9,-219.26 1165.48,-201.84"/>
<polygon fill="midnightblue" stroke="midnightblue" points="1168.97,-201.5 1164.94,-191.7 1161.98,-201.87 1168.97,-201.5"/>
</g>
<!-- Node20 -->
<g id="node20" class="node">
<title>Node20</title>
<g id="a_node20"><a xlink:href="AtMessage_8hpp.html" target="_top" xlink:title=" ">
<polygon fill="none" stroke="black" points="1473,-171.5 1473,-191.5 1565,-191.5 1565,-171.5 1473,-171.5"/>
<text text-anchor="middle" x="1519" y="-178.7" font-family="-apple-system, BlinkMacSystemFont, 'Segoe UI', Roboto, Oxygen, Ubuntu, Cantarell, 'Fira Sans', 'Droid Sans', 'Helvetica Neue', sans-serif" font-size="11.00">AtMessage.hpp</text>
</a>
</g>
</g>
<!-- Node10&#45;&gt;Node20 -->
<g id="edge36" class="edge">
<title>Node10&#45;&gt;Node20</title>
<path fill="none" stroke="midnightblue" d="M1310.48,-297.41C1323.59,-288.44 1343.99,-274.21 1361,-261 1378.94,-247.08 1380.45,-239.55 1400,-228 1424.16,-213.72 1453.6,-202.42 1477.16,-194.65"/>
<polygon fill="midnightblue" stroke="midnightblue" points="1478.4,-197.93 1486.86,-191.54 1476.27,-191.26 1478.4,-197.93"/>
</g>
<!-- Node21 -->
<g id="node21" class="node">
<title>Node21</title>
<g id="a_node21"><a xlink:href="AudioMessage_8hpp.html" target="_top" xlink:title=" ">
<polygon fill="none" stroke="red" points="865.5,-171.5 865.5,-191.5 974.5,-191.5 974.5,-171.5 865.5,-171.5"/>
<text text-anchor="middle" x="920" y="-178.7" font-family="-apple-system, BlinkMacSystemFont, 'Segoe UI', Roboto, Oxygen, Ubuntu, Cantarell, 'Fira Sans', 'Droid Sans', 'Helvetica Neue', sans-serif" font-size="11.00">AudioMessage.hpp</text>
</a>
</g>
</g>
<!-- Node10&#45;&gt;Node21 -->
<g id="edge41" class="edge">
<title>Node10&#45;&gt;Node21</title>
<path fill="none" stroke="midnightblue" d="M1250.6,-297.49C1211.98,-289.47 1155.8,-276.62 1108,-261 1049.92,-242.02 984.61,-212.91 948.28,-195.98"/>
<polygon fill="midnightblue" stroke="midnightblue" points="949.37,-192.63 938.83,-191.55 946.4,-198.96 949.37,-192.63"/>
</g>
<!-- Node23 -->
<g id="node22" class="node">
<title>Node23</title>
<g id="a_node22"><a xlink:href="DiceMessage_8hpp.html" target="_top" xlink:title=" ">
<polygon fill="none" stroke="black" points="993,-171.5 993,-191.5 1095,-191.5 1095,-171.5 993,-171.5"/>
<text text-anchor="middle" x="1044" y="-178.7" font-family="-apple-system, BlinkMacSystemFont, 'Segoe UI', Roboto, Oxygen, Ubuntu, Cantarell, 'Fira Sans', 'Droid Sans', 'Helvetica Neue', sans-serif" font-size="11.00">DiceMessage.hpp</text>
</a>
</g>
</g>
<!-- Node10&#45;&gt;Node23 -->
<g id="edge45" class="edge">
<title>Node10&#45;&gt;Node23</title>
<path fill="none" stroke="midnightblue" d="M1264.65,-297.46C1237.83,-289.43 1199.05,-276.57 1167,-261 1128.82,-242.44 1087.91,-214.54 1064.21,-197.48"/>
<polygon fill="midnightblue" stroke="midnightblue" points="1066.16,-194.57 1056.02,-191.52 1062.04,-200.23 1066.16,-194.57"/>
</g>
<!-- Node24 -->
<g id="node23" class="node">
<title>Node24</title>
<g id="a_node23"><a xlink:href="FaceMessage_8hpp.html" target="_top" xlink:title=" ">
<polygon fill="none" stroke="black" points="28.5,-171.5 28.5,-191.5 133.5,-191.5 133.5,-171.5 28.5,-171.5"/>
<text text-anchor="middle" x="81" y="-178.7" font-family="-apple-system, BlinkMacSystemFont, 'Segoe UI', Roboto, Oxygen, Ubuntu, Cantarell, 'Fira Sans', 'Droid Sans', 'Helvetica Neue', sans-serif" font-size="11.00">FaceMessage.hpp</text>
</a>
</g>
</g>
<!-- Node10&#45;&gt;Node24 -->
<g id="edge49" class="edge">
<title>Node10&#45;&gt;Node24</title>
<path fill="none" stroke="midnightblue" d="M1242.31,-305.57C1067.48,-302.31 523.5,-290.06 350,-261 263.18,-246.46 164.71,-213.26 114.43,-195.04"/>
<polygon fill="midnightblue" stroke="midnightblue" points="115.62,-191.75 105.03,-191.6 113.22,-198.32 115.62,-191.75"/>
</g>
<!-- Node25 -->
<g id="node24" class="node">
<title>Node25</title>
<g id="a_node24"><a xlink:href="FlashImageMessage_8hpp.html" target="_top" xlink:title=" ">
<polygon fill="none" stroke="black" points="1868.5,-234.5 1868.5,-254.5 2005.5,-254.5 2005.5,-234.5 1868.5,-234.5"/>
<text text-anchor="middle" x="1937" y="-241.7" font-family="-apple-system, BlinkMacSystemFont, 'Segoe UI', Roboto, Oxygen, Ubuntu, Cantarell, 'Fira Sans', 'Droid Sans', 'Helvetica Neue', sans-serif" font-size="11.00">FlashImageMessage.hpp</text>
</a>
</g>
</g>
<!-- Node10&#45;&gt;Node25 -->
<g id="edge53" class="edge">
<title>Node10&#45;&gt;Node25</title>
<path fill="none" stroke="midnightblue" d="M1351.88,-304.16C1452.7,-299.4 1674.06,-286.77 1859,-261 1867.84,-259.77 1877.19,-258.17 1886.23,-256.47"/>
<polygon fill="midnightblue" stroke="midnightblue" points="1887.12,-259.86 1896.26,-254.52 1885.78,-252.99 1887.12,-259.86"/>
</g>
<!-- Node26 -->
<g id="node25" class="node">
<title>Node26</title>
<g id="a_node25"><a xlink:href="ImageMessage_8hpp.html" target="_top" xlink:title=" ">
<polygon fill="none" stroke="red" points="1621.5,-171.5 1621.5,-191.5 1732.5,-191.5 1732.5,-171.5 1621.5,-171.5"/>
<text text-anchor="middle" x="1677" y="-178.7" font-family="-apple-system, BlinkMacSystemFont, 'Segoe UI', Roboto, Oxygen, Ubuntu, Cantarell, 'Fira Sans', 'Droid Sans', 'Helvetica Neue', sans-serif" font-size="11.00">ImageMessage.hpp</text>
</a>
</g>
</g>
<!-- Node10&#45;&gt;Node26 -->
<g id="edge62" class="edge">
<title>Node10&#45;&gt;Node26</title>
<path fill="none" stroke="midnightblue" d="M1332.76,-297.44C1359.85,-289.79 1397.48,-277.45 1428,-261 1449.21,-249.57 1449.16,-238.17 1471,-228 1496.06,-216.33 1563.18,-202.6 1614.05,-193.3"/>
<polygon fill="midnightblue" stroke="midnightblue" points="1614.77,-196.73 1623.99,-191.5 1613.53,-189.84 1614.77,-196.73"/>
</g>
<!-- Node27 -->
<g id="node26" class="node">
<title>Node27</title>
<g id="a_node26"><a xlink:href="JsonMessage_8hpp.html" target="_top" xlink:title=" ">
<polygon fill="none" stroke="black" points="152,-171.5 152,-191.5 256,-191.5 256,-171.5 152,-171.5"/>
<text text-anchor="middle" x="204" y="-178.7" font-family="-apple-system, BlinkMacSystemFont, 'Segoe UI', Roboto, Oxygen, Ubuntu, Cantarell, 'Fira Sans', 'Droid Sans', 'Helvetica Neue', sans-serif" font-size="11.00">JsonMessage.hpp</text>
</a>
</g>
</g>
<!-- Node10&#45;&gt;Node27 -->
<g id="edge63" class="edge">
<title>Node10&#45;&gt;Node27</title>
<path fill="none" stroke="midnightblue" d="M1242.07,-307.15C1112.27,-307.85 776.79,-304.87 501,-261 405.55,-245.82 296.41,-212.79 240.79,-194.79"/>
<polygon fill="midnightblue" stroke="midnightblue" points="241.63,-191.39 231.04,-191.62 239.46,-198.04 241.63,-191.39"/>
</g>
<!-- Node28 -->
<g id="node27" class="node">
<title>Node28</title>
<g id="a_node27"><a xlink:href="MiraiCodeMessage_8hpp.html" target="_top" xlink:title=" ">
<polygon fill="none" stroke="black" points="641,-171.5 641,-191.5 771,-191.5 771,-171.5 641,-171.5"/>
<text text-anchor="middle" x="706" y="-178.7" font-family="-apple-system, BlinkMacSystemFont, 'Segoe UI', Roboto, Oxygen, Ubuntu, Cantarell, 'Fira Sans', 'Droid Sans', 'Helvetica Neue', sans-serif" font-size="11.00">MiraiCodeMessage.hpp</text>
</a>
</g>
</g>
<!-- Node10&#45;&gt;Node28 -->
<g id="edge68" class="edge">
<title>Node10&#45;&gt;Node28</title>
<path fill="none" stroke="midnightblue" d="M1242.2,-302.76C1155.65,-296.31 991.53,-281.77 937,-261 912.81,-251.78 912.61,-238.63 889,-228 852.86,-211.73 809.98,-200.68 774.82,-193.54"/>
<polygon fill="midnightblue" stroke="midnightblue" points="775.13,-190.03 764.64,-191.54 773.78,-196.9 775.13,-190.03"/>
</g>
<!-- Node29 -->
<g id="node28" class="node">
<title>Node29</title>
<g id="a_node28"><a xlink:href="PlainMessage_8hpp.html" target="_top" xlink:title=" ">
<polygon fill="none" stroke="black" points="274.5,-171.5 274.5,-191.5 379.5,-191.5 379.5,-171.5 274.5,-171.5"/>
<text text-anchor="middle" x="327" y="-178.7" font-family="-apple-system, BlinkMacSystemFont, 'Segoe UI', Roboto, Oxygen, Ubuntu, Cantarell, 'Fira Sans', 'Droid Sans', 'Helvetica Neue', sans-serif" font-size="11.00">PlainMessage.hpp</text>
</a>
</g>
</g>
<!-- Node10&#45;&gt;Node29 -->
<g id="edge72" class="edge">
<title>Node10&#45;&gt;Node29</title>
<path fill="none" stroke="midnightblue" d="M1242.23,-305.52C1131.72,-302.89 874.4,-293.5 661,-261 553.9,-244.69 430.4,-211.93 367.85,-194.33"/>
<polygon fill="midnightblue" stroke="midnightblue" points="368.56,-190.89 357.99,-191.54 366.66,-197.63 368.56,-190.89"/>
</g>
<!-- Node30 -->
<g id="node29" class="node">
<title>Node30</title>
<g id="a_node29"><a xlink:href="PokeMessage_8hpp.html" target="_top" xlink:title=" ">
<polygon fill="none" stroke="red" points="397.5,-171.5 397.5,-191.5 504.5,-191.5 504.5,-171.5 397.5,-171.5"/>
<text text-anchor="middle" x="451" y="-178.7" font-family="-apple-system, BlinkMacSystemFont, 'Segoe UI', Roboto, Oxygen, Ubuntu, Cantarell, 'Fira Sans', 'Droid Sans', 'Helvetica Neue', sans-serif" font-size="11.00">PokeMessage.hpp</text>
</a>
</g>
</g>
<!-- Node10&#45;&gt;Node30 -->
<g id="edge76" class="edge">
<title>Node10&#45;&gt;Node30</title>
<path fill="none" stroke="midnightblue" d="M1242.21,-302.55C1157.88,-296.09 991.3,-281.88 851,-261 723.98,-242.1 576.05,-210.55 500.68,-193.78"/>
<polygon fill="midnightblue" stroke="midnightblue" points="501.05,-190.28 490.53,-191.52 499.53,-197.11 501.05,-190.28"/>
</g>
<!-- Node32 -->
<g id="node30" class="node">
<title>Node32</title>
<g id="a_node30"><a xlink:href="XmlMessage_8hpp.html" target="_top" xlink:title=" ">
<polygon fill="none" stroke="black" points="523,-171.5 523,-191.5 623,-191.5 623,-171.5 523,-171.5"/>
<text text-anchor="middle" x="573" y="-178.7" font-family="-apple-system, BlinkMacSystemFont, 'Segoe UI', Roboto, Oxygen, Ubuntu, Cantarell, 'Fira Sans', 'Droid Sans', 'Helvetica Neue', sans-serif" font-size="11.00">XmlMessage.hpp</text>
</a>
</g>
</g>
<!-- Node10&#45;&gt;Node32 -->
<g id="edge80" class="edge">
<title>Node10&#45;&gt;Node32</title>
<path fill="none" stroke="midnightblue" d="M1242.37,-304.42C1146.23,-300.11 951.1,-288.22 889,-261 868.51,-252.02 871.25,-237.5 851,-228 849.76,-227.42 714.56,-205.44 633.19,-192.25"/>
<polygon fill="midnightblue" stroke="midnightblue" points="633.49,-188.75 623.06,-190.61 632.37,-195.66 633.49,-188.75"/>
</g>
<!-- Node17&#45;&gt;Node2 -->
<g id="edge27" class="edge">
<title>Node17&#45;&gt;Node2</title>
<path fill="none" stroke="midnightblue" d="M1299.28,-228.45C1330.1,-215.13 1363.5,-194.23 1345,-171 1225.49,-20.91 1109.11,-122.18 916.43,-77.8"/>
<polygon fill="midnightblue" stroke="midnightblue" points="917.14,-74.37 906.6,-75.42 915.5,-81.18 917.14,-74.37"/>
</g>
<!-- Node17&#45;&gt;Node13 -->
<g id="edge26" class="edge">
<title>Node17&#45;&gt;Node13</title>
<path fill="none" stroke="midnightblue" d="M1298.28,-228.42C1326.37,-218.16 1363.12,-204.74 1389.62,-195.06"/>
<polygon fill="midnightblue" stroke="midnightblue" points="1391.04,-198.26 1399.23,-191.55 1388.64,-191.69 1391.04,-198.26"/>
</g>
<!-- Node18&#45;&gt;Node2 -->
<g id="edge29" class="edge">
<title>Node18&#45;&gt;Node2</title>
<path fill="none" stroke="midnightblue" d="M1252.24,-171.48C1188.67,-154.42 1046.66,-115.96 916.41,-78.06"/>
<polygon fill="midnightblue" stroke="midnightblue" points="917.24,-74.66 906.66,-75.22 915.28,-81.38 917.24,-74.66"/>
</g>
<!-- Node18&#45;&gt;Node3 -->
<g id="edge30" class="edge">
<title>Node18&#45;&gt;Node3</title>
<path fill="none" stroke="midnightblue" d="M1278.1,-171.41C1254.57,-144.36 1184.7,-64.04 1153.88,-28.61"/>
<polygon fill="midnightblue" stroke="midnightblue" points="1156.15,-25.88 1146.94,-20.63 1150.86,-30.47 1156.15,-25.88"/>
</g>
<!-- Node18&#45;&gt;Node8 -->
<g id="edge31" class="edge">
<title>Node18&#45;&gt;Node8</title>
<path fill="none" stroke="midnightblue" d="M1235.28,-172.32C1232.14,-171.86 1229.03,-171.42 1226,-171 1111.7,-155.26 977.98,-140.35 901.12,-132.11"/>
<polygon fill="midnightblue" stroke="midnightblue" points="901.43,-128.63 891.12,-131.04 900.69,-135.59 901.43,-128.63"/>
</g>
<!-- Node19&#45;&gt;Node2 -->
<g id="edge33" class="edge">
<title>Node19&#45;&gt;Node2</title>
<path fill="none" stroke="midnightblue" d="M1142.09,-171.33C1092.06,-151.32 973.02,-103.71 916.21,-80.98"/>
<polygon fill="midnightblue" stroke="midnightblue" points="917.26,-77.63 906.68,-77.17 914.66,-84.13 917.26,-77.63"/>
</g>
<!-- Node19&#45;&gt;Node3 -->
<g id="edge34" class="edge">
<title>Node19&#45;&gt;Node3</title>
<path fill="none" stroke="midnightblue" d="M1163.6,-171.41C1159.53,-144.94 1147.6,-67.42 1141.99,-30.92"/>
<polygon fill="midnightblue" stroke="midnightblue" points="1145.38,-29.98 1140.4,-20.63 1138.47,-31.05 1145.38,-29.98"/>
</g>
<!-- Node19&#45;&gt;Node8 -->
<g id="edge35" class="edge">
<title>Node19&#45;&gt;Node8</title>
<path fill="none" stroke="midnightblue" d="M1112.82,-171.72C1055.26,-162.04 962.64,-146.46 901.06,-136.11"/>
<polygon fill="midnightblue" stroke="midnightblue" points="901.52,-132.63 891.07,-134.43 900.36,-139.54 901.52,-132.63"/>
</g>
<!-- Node20&#45;&gt;Node2 -->
<g id="edge37" class="edge">
<title>Node20&#45;&gt;Node2</title>
<path fill="none" stroke="midnightblue" d="M1504.57,-171.44C1479.91,-156.47 1427.62,-126.96 1379,-114 1182.68,-61.67 1120.72,-114.76 916.37,-77.6"/>
<polygon fill="midnightblue" stroke="midnightblue" points="917,-74.16 906.53,-75.76 915.72,-81.04 917,-74.16"/>
</g>
<!-- Node20&#45;&gt;Node3 -->
<g id="edge38" class="edge">
<title>Node20&#45;&gt;Node3</title>
<path fill="none" stroke="midnightblue" d="M1498.57,-171.41C1435.42,-143.33 1243.18,-57.83 1168.81,-24.76"/>
<polygon fill="midnightblue" stroke="midnightblue" points="1170.09,-21.5 1159.53,-20.63 1167.25,-27.89 1170.09,-21.5"/>
</g>
<!-- Node20&#45;&gt;Node4 -->
<g id="edge39" class="edge">
<title>Node20&#45;&gt;Node4</title>
<path fill="none" stroke="midnightblue" d="M1565.23,-172.79C1622.48,-163.25 1720.31,-146.95 1784.81,-136.2"/>
<polygon fill="midnightblue" stroke="midnightblue" points="1785.57,-139.62 1794.86,-134.52 1784.42,-132.71 1785.57,-139.62"/>
</g>
<!-- Node20&#45;&gt;Node8 -->
<g id="edge40" class="edge">
<title>Node20&#45;&gt;Node8</title>
<path fill="none" stroke="midnightblue" d="M1472.84,-172.19C1469.85,-171.75 1466.89,-171.35 1464,-171 1259.21,-145.93 1014.92,-133.06 901.58,-128.05"/>
<polygon fill="midnightblue" stroke="midnightblue" points="901.49,-124.54 891.35,-127.6 901.19,-131.54 901.49,-124.54"/>
</g>
<!-- Node21&#45;&gt;Node2 -->
<g id="edge42" class="edge">
<title>Node21&#45;&gt;Node2</title>
<path fill="none" stroke="midnightblue" d="M917.36,-171.44C913.6,-158.62 906.45,-134.47 900,-114 897.22,-105.17 894.02,-95.43 891.3,-87.23"/>
<polygon fill="midnightblue" stroke="midnightblue" points="894.55,-85.92 888.06,-77.54 887.91,-88.14 894.55,-85.92"/>
</g>
<!-- Node21&#45;&gt;Node3 -->
<g id="edge43" class="edge">
<title>Node21&#45;&gt;Node3</title>
<path fill="none" stroke="midnightblue" d="M931.77,-171.41C967.42,-143.9 1074.47,-61.3 1119.11,-26.85"/>
<polygon fill="midnightblue" stroke="midnightblue" points="1121.39,-29.51 1127.17,-20.63 1117.11,-23.97 1121.39,-29.51"/>
</g>
<!-- Node21&#45;&gt;Node8 -->
<g id="edge44" class="edge">
<title>Node21&#45;&gt;Node8</title>
<path fill="none" stroke="midnightblue" d="M906.46,-171.42C893.88,-162.98 874.91,-150.26 860.13,-140.34"/>
<polygon fill="midnightblue" stroke="midnightblue" points="861.82,-137.26 851.56,-134.6 857.92,-143.07 861.82,-137.26"/>
</g>
<!-- Node23&#45;&gt;Node2 -->
<g id="edge46" class="edge">
<title>Node23&#45;&gt;Node2</title>
<path fill="none" stroke="midnightblue" d="M1030.99,-171.33C1003.62,-152.06 939.86,-107.15 906.39,-83.57"/>
<polygon fill="midnightblue" stroke="midnightblue" points="908.38,-80.69 898.19,-77.79 904.35,-86.41 908.38,-80.69"/>
</g>
<!-- Node23&#45;&gt;Node3 -->
<g id="edge47" class="edge">
<title>Node23&#45;&gt;Node3</title>
<path fill="none" stroke="midnightblue" d="M1049.11,-171.41C1064.19,-144.59 1108.7,-65.39 1128.87,-29.52"/>
<polygon fill="midnightblue" stroke="midnightblue" points="1132.02,-31.06 1133.87,-20.63 1125.92,-27.63 1132.02,-31.06"/>
</g>
<!-- Node23&#45;&gt;Node8 -->
<g id="edge48" class="edge">
<title>Node23&#45;&gt;Node8</title>
<path fill="none" stroke="midnightblue" d="M1009.98,-171.42C974.84,-162.04 919.87,-147.36 881.57,-137.13"/>
<polygon fill="midnightblue" stroke="midnightblue" points="882.29,-133.7 871.72,-134.5 880.48,-140.47 882.29,-133.7"/>
</g>
<!-- Node24&#45;&gt;Node2 -->
<g id="edge50" class="edge">
<title>Node24&#45;&gt;Node2</title>
<path fill="none" stroke="midnightblue" d="M119.15,-171.41C180.07,-157.2 303.25,-129.73 409,-114 575.26,-89.27 776.29,-75.2 853.08,-70.39"/>
<polygon fill="midnightblue" stroke="midnightblue" points="853.31,-73.88 863.08,-69.78 852.88,-66.9 853.31,-73.88"/>
</g>
<!-- Node24&#45;&gt;Node3 -->
<g id="edge51" class="edge">
<title>Node24&#45;&gt;Node3</title>
<path fill="none" stroke="midnightblue" d="M107.65,-171.41C146.92,-158.13 222.75,-132.96 288,-114 384.58,-85.94 407.76,-73.35 507,-57 706.07,-24.21 944.29,-15.05 1063.38,-12.49"/>
<polygon fill="midnightblue" stroke="midnightblue" points="1063.56,-15.99 1073.49,-12.28 1063.42,-8.99 1063.56,-15.99"/>
</g>
<!-- Node24&#45;&gt;Node8 -->
<g id="edge52" class="edge">
<title>Node24&#45;&gt;Node8</title>
<path fill="none" stroke="midnightblue" d="M133.72,-172.1C136.86,-171.7 139.97,-171.33 143,-171 374.85,-145.7 651.86,-132.69 774.36,-127.82"/>
<polygon fill="midnightblue" stroke="midnightblue" points="774.82,-131.3 784.68,-127.41 774.55,-124.31 774.82,-131.3"/>
</g>
<!-- Node25&#45;&gt;Node2 -->
<g id="edge54" class="edge">
<title>Node25&#45;&gt;Node2</title>
<path fill="none" stroke="midnightblue" d="M1915.57,-234.46C1879.88,-219.66 1805.75,-190 1741,-171 1627.9,-137.81 1598.71,-130.46 1482,-114 1235.7,-79.27 1165.81,-122.08 916.61,-77.63"/>
<polygon fill="midnightblue" stroke="midnightblue" points="916.98,-74.14 906.52,-75.8 915.74,-81.03 916.98,-74.14"/>
</g>
<!-- Node25&#45;&gt;Node3 -->
<g id="edge55" class="edge">
<title>Node25&#45;&gt;Node3</title>
<path fill="none" stroke="midnightblue" d="M1940.71,-234.48C1952.44,-204.35 1985.12,-106.33 1936,-57 1910.8,-31.69 1409.19,-17.63 1214.93,-13.12"/>
<polygon fill="midnightblue" stroke="midnightblue" points="1214.88,-9.62 1204.8,-12.89 1214.71,-16.62 1214.88,-9.62"/>
</g>
<!-- Node25&#45;&gt;Node4 -->
<g id="edge56" class="edge">
<title>Node25&#45;&gt;Node4</title>
<path fill="none" stroke="midnightblue" d="M1930.09,-234.24C1915.44,-214.6 1881.04,-168.46 1862.09,-143.05"/>
<polygon fill="midnightblue" stroke="midnightblue" points="1864.66,-140.64 1855.87,-134.72 1859.05,-144.82 1864.66,-140.64"/>
</g>
<!-- Node25&#45;&gt;Node26 -->
<g id="edge57" class="edge">
<title>Node25&#45;&gt;Node26</title>
<path fill="none" stroke="midnightblue" d="M1898.64,-234.5C1852.65,-223.71 1775.53,-205.62 1725.46,-193.87"/>
<polygon fill="midnightblue" stroke="midnightblue" points="1726.06,-190.41 1715.52,-191.54 1724.46,-197.23 1726.06,-190.41"/>
</g>
<!-- Node26&#45;&gt;Node2 -->
<g id="edge58" class="edge">
<title>Node26&#45;&gt;Node2</title>
<path fill="none" stroke="midnightblue" d="M1648.95,-171.41C1602.23,-156.67 1505.28,-127.83 1421,-114 1202.21,-78.09 1139.05,-118.02 916.55,-77.63"/>
<polygon fill="midnightblue" stroke="midnightblue" points="916.99,-74.15 906.52,-75.78 915.72,-81.04 916.99,-74.15"/>
</g>
<!-- Node26&#45;&gt;Node3 -->
<g id="edge59" class="edge">
<title>Node26&#45;&gt;Node3</title>
<path fill="none" stroke="midnightblue" d="M1674.9,-171.37C1668.96,-147.77 1649.58,-84.65 1607,-57 1544.12,-16.16 1330.49,-10.5 1214.84,-10.56"/>
<polygon fill="midnightblue" stroke="midnightblue" points="1214.64,-7.07 1204.65,-10.59 1214.66,-14.07 1214.64,-7.07"/>
</g>
<!-- Node26&#45;&gt;Node4 -->
<g id="edge60" class="edge">
<title>Node26&#45;&gt;Node4</title>
<path fill="none" stroke="midnightblue" d="M1705.4,-171.42C1734.25,-162.19 1779.08,-147.86 1810.98,-137.66"/>
<polygon fill="midnightblue" stroke="midnightblue" points="1812.38,-140.88 1820.84,-134.5 1810.25,-134.22 1812.38,-140.88"/>
</g>
<!-- Node26&#45;&gt;Node8 -->
<g id="edge61" class="edge">
<title>Node26&#45;&gt;Node8</title>
<path fill="none" stroke="midnightblue" d="M1621.43,-175.06C1606.07,-173.65 1589.4,-172.19 1574,-171 1325.38,-151.85 1029.03,-135.5 901.5,-128.78"/>
<polygon fill="midnightblue" stroke="midnightblue" points="901.32,-125.26 891.15,-128.23 900.95,-132.25 901.32,-125.26"/>
</g>
<!-- Node27&#45;&gt;Node2 -->
<g id="edge64" class="edge">
<title>Node27&#45;&gt;Node2</title>
<path fill="none" stroke="midnightblue" d="M241.26,-171.46C299.56,-157.55 416.05,-130.78 516,-114 639.96,-93.19 788.85,-77.71 853.01,-71.49"/>
<polygon fill="midnightblue" stroke="midnightblue" points="853.66,-74.95 863.28,-70.51 852.99,-67.98 853.66,-74.95"/>
</g>
<!-- Node27&#45;&gt;Node3 -->
<g id="edge65" class="edge">
<title>Node27&#45;&gt;Node3</title>
<path fill="none" stroke="midnightblue" d="M231.84,-171.42C271.25,-158.57 345.59,-134.38 409,-114 488.49,-88.45 506.1,-73.21 588,-57 755.61,-23.84 956.54,-14.79 1063.41,-12.36"/>
<polygon fill="midnightblue" stroke="midnightblue" points="1063.53,-15.86 1073.45,-12.15 1063.38,-8.86 1063.53,-15.86"/>
</g>
<!-- Node27&#45;&gt;Node8 -->
<g id="edge66" class="edge">
<title>Node27&#45;&gt;Node8</title>
<path fill="none" stroke="midnightblue" d="M256.21,-172.1C259.18,-171.71 262.13,-171.34 265,-171 449.64,-149.32 669,-135.1 774.76,-128.96"/>
<polygon fill="midnightblue" stroke="midnightblue" points="775.16,-132.44 784.94,-128.38 774.76,-125.46 775.16,-132.44"/>
</g>
<!-- Node28&#45;&gt;Node2 -->
<g id="edge69" class="edge">
<title>Node28&#45;&gt;Node2</title>
<path fill="none" stroke="midnightblue" d="M713.76,-171.22C725.84,-157.24 750.44,-130.66 776,-114 800.28,-98.17 830.98,-85.95 853.61,-78.18"/>
<polygon fill="midnightblue" stroke="midnightblue" points="855,-81.41 863.38,-74.93 852.79,-74.76 855,-81.41"/>
</g>
<!-- Node28&#45;&gt;Node3 -->
<g id="edge70" class="edge">
<title>Node28&#45;&gt;Node3</title>
<path fill="none" stroke="midnightblue" d="M709.94,-171.43C716.22,-157.74 729.61,-131.52 747,-114 780.63,-80.13 793.25,-73.58 838,-57 911.59,-29.74 1001.07,-18.79 1063.26,-14.41"/>
<polygon fill="midnightblue" stroke="midnightblue" points="1063.64,-17.89 1073.38,-13.74 1063.17,-10.91 1063.64,-17.89"/>
</g>
<!-- Node28&#45;&gt;Node8 -->
<g id="edge71" class="edge">
<title>Node28&#45;&gt;Node8</title>
<path fill="none" stroke="midnightblue" d="M727.8,-171.42C749.29,-162.46 782.37,-148.68 806.68,-138.55"/>
<polygon fill="midnightblue" stroke="midnightblue" points="808.29,-141.67 816.17,-134.6 805.59,-135.21 808.29,-141.67"/>
</g>
<!-- Node29&#45;&gt;Node2 -->
<g id="edge73" class="edge">
<title>Node29&#45;&gt;Node2</title>
<path fill="none" stroke="midnightblue" d="M363.22,-171.4C417.66,-157.89 523.91,-132.17 615,-114 700.74,-96.89 802.64,-80.88 853.23,-73.22"/>
<polygon fill="midnightblue" stroke="midnightblue" points="853.85,-76.67 863.22,-71.72 852.81,-69.75 853.85,-76.67"/>
</g>
<!-- Node29&#45;&gt;Node3 -->
<g id="edge74" class="edge">
<title>Node29&#45;&gt;Node3</title>
<path fill="none" stroke="midnightblue" d="M346.4,-171.47C397.55,-148.11 540.81,-85.52 667,-57 804.38,-25.95 968.95,-16.08 1063,-12.95"/>
<polygon fill="midnightblue" stroke="midnightblue" points="1063.4,-16.44 1073.28,-12.62 1063.17,-9.44 1063.4,-16.44"/>
</g>
<!-- Node29&#45;&gt;Node8 -->
<g id="edge75" class="edge">
<title>Node29&#45;&gt;Node8</title>
<path fill="none" stroke="midnightblue" d="M379.55,-172.13C382.4,-171.74 385.24,-171.35 388,-171 525.66,-153.33 687.75,-138.37 774.91,-130.8"/>
<polygon fill="midnightblue" stroke="midnightblue" points="775.24,-134.29 784.9,-129.94 774.64,-127.31 775.24,-134.29"/>
</g>
<!-- Node30&#45;&gt;Node2 -->
<g id="edge77" class="edge">
<title>Node30&#45;&gt;Node2</title>
<path fill="none" stroke="midnightblue" d="M481.96,-171.49C527.58,-158.32 615.6,-133.28 691,-114 747.98,-99.43 814.84,-84.14 853.33,-75.52"/>
<polygon fill="midnightblue" stroke="midnightblue" points="854.4,-78.87 863.4,-73.27 852.88,-72.03 854.4,-78.87"/>
</g>
<!-- Node30&#45;&gt;Node3 -->
<g id="edge78" class="edge">
<title>Node30&#45;&gt;Node3</title>
<path fill="none" stroke="midnightblue" d="M466.96,-171.48C509.08,-148.13 627.33,-85.57 734,-57 846.19,-26.95 981.03,-16.73 1063.34,-13.26"/>
<polygon fill="midnightblue" stroke="midnightblue" points="1063.5,-16.76 1073.36,-12.87 1063.22,-9.77 1063.5,-16.76"/>
</g>
<!-- Node30&#45;&gt;Node8 -->
<g id="edge79" class="edge">
<title>Node30&#45;&gt;Node8</title>
<path fill="none" stroke="midnightblue" d="M504.61,-172.38C507.79,-171.91 510.94,-171.45 514,-171 604.57,-157.81 709.48,-143.2 774.81,-134.18"/>
<polygon fill="midnightblue" stroke="midnightblue" points="775.51,-137.62 784.94,-132.78 774.56,-130.68 775.51,-137.62"/>
</g>
<!-- Node32&#45;&gt;Node2 -->
<g id="edge81" class="edge">
<title>Node32&#45;&gt;Node2</title>
<path fill="none" stroke="midnightblue" d="M595.68,-171.45C628.77,-158.32 692.31,-133.46 747,-114 783.41,-101.05 825.66,-87.3 853.72,-78.35"/>
<polygon fill="midnightblue" stroke="midnightblue" points="854.91,-81.65 863.38,-75.28 852.79,-74.98 854.91,-81.65"/>
</g>
<!-- Node32&#45;&gt;Node3 -->
<g id="edge82" class="edge">
<title>Node32&#45;&gt;Node3</title>
<path fill="none" stroke="midnightblue" d="M584.72,-171.45C615.73,-148.02 703.29,-85.3 787,-57 878.66,-26.01 990.31,-15.92 1062.95,-12.75"/>
<polygon fill="midnightblue" stroke="midnightblue" points="1063.52,-16.23 1073.37,-12.33 1063.24,-9.24 1063.52,-16.23"/>
</g>
<!-- Node32&#45;&gt;Node8 -->
<g id="edge83" class="edge">
<title>Node32&#45;&gt;Node8</title>
<path fill="none" stroke="midnightblue" d="M616.46,-171.48C662.48,-161.93 735.17,-146.84 784.64,-136.58"/>
<polygon fill="midnightblue" stroke="midnightblue" points="785.43,-139.98 794.51,-134.53 784.01,-133.13 785.43,-139.98"/>
</g>
</g>
</svg>
