<?xml version="1.0" encoding="UTF-8" standalone="no"?>
<!DOCTYPE svg PUBLIC "-//W3C//DTD SVG 1.1//EN"
 "http://www.w3.org/Graphics/SVG/1.1/DTD/svg11.dtd">
<!-- Generated by graphviz version 3.0.0 (20220413.0242)
 -->
<!-- Title: libmirai/public/libmirai/Messages/QuoteMessage.hpp Pages: 1 -->
<svg width="2035pt" height="395pt"
 viewBox="0.00 0.00 2035.00 395.00" xmlns="http://www.w3.org/2000/svg" xmlns:xlink="http://www.w3.org/1999/xlink">
<g id="graph0" class="graph" transform="scale(1 1) rotate(0) translate(4 391)">
<title>libmirai/public/libmirai/Messages/QuoteMessage.hpp</title>
<!-- Node1 -->
<g id="node1" class="node">
<title>Node1</title>
<g id="a_node1"><a xlink:title=" ">
<polygon fill="#bfbfbf" stroke="black" points="1054.5,-354.5 1054.5,-386.5 1219.5,-386.5 1219.5,-354.5 1054.5,-354.5"/>
<text text-anchor="start" x="1062.5" y="-373.7" font-family="-apple-system, BlinkMacSystemFont, 'Segoe UI', Roboto, Oxygen, Ubuntu, Cantarell, 'Fira Sans', 'Droid Sans', 'Helvetica Neue', sans-serif" font-size="11.00">libmirai/public/libmirai</text>
<text text-anchor="middle" x="1137" y="-361.7" font-family="-apple-system, BlinkMacSystemFont, 'Segoe UI', Roboto, Oxygen, Ubuntu, Cantarell, 'Fira Sans', 'Droid Sans', 'Helvetica Neue', sans-serif" font-size="11.00">/Messages/QuoteMessage.hpp</text>
</a>
</g>
</g>
<!-- Node2 -->
<g id="node2" class="node">
<title>Node2</title>
<g id="a_node2"><a xlink:title=" ">
<polygon fill="none" stroke="#bfbfbf" points="856.5,-57.5 856.5,-77.5 899.5,-77.5 899.5,-57.5 856.5,-57.5"/>
<text text-anchor="middle" x="878" y="-64.7" font-family="-apple-system, BlinkMacSystemFont, 'Segoe UI', Roboto, Oxygen, Ubuntu, Cantarell, 'Fira Sans', 'Droid Sans', 'Helvetica Neue', sans-serif" font-size="11.00">string</text>
</a>
</g>
</g>
<!-- Node1&#45;&gt;Node2 -->
<g id="edge1" class="edge">
<title>Node1&#45;&gt;Node2</title>
<path fill="none" stroke="midnightblue" d="M1054.19,-365.92C859.5,-355.47 382.81,-317.31 299,-192 233.02,-93.35 143.15,-230.86 490,-135 516.02,-127.81 520.81,-120.54 547,-114 654.81,-87.07 786.63,-74.96 846.15,-70.58"/>
<polygon fill="midnightblue" stroke="midnightblue" points="846.67,-74.05 856.4,-69.85 846.17,-67.07 846.67,-74.05"/>
</g>
<!-- Node3 -->
<g id="node3" class="node">
<title>Node3</title>
<g id="a_node3"><a xlink:title=" ">
<polygon fill="none" stroke="#bfbfbf" points="962.5,-0.5 962.5,-20.5 1093.5,-20.5 1093.5,-0.5 962.5,-0.5"/>
<text text-anchor="middle" x="1028" y="-7.7" font-family="-apple-system, BlinkMacSystemFont, 'Segoe UI', Roboto, Oxygen, Ubuntu, Cantarell, 'Fira Sans', 'Droid Sans', 'Helvetica Neue', sans-serif" font-size="11.00">nlohmann/json_fwd.hpp</text>
</a>
</g>
</g>
<!-- Node1&#45;&gt;Node3 -->
<g id="edge2" class="edge">
<title>Node1&#45;&gt;Node3</title>
<path fill="none" stroke="midnightblue" d="M1219.53,-366.6C1440.17,-357.74 2027,-326.57 2027,-245.5 2027,-245.5 2027,-245.5 2027,-123.5 2027,-54.62 1953.77,-73.92 1887,-57 1739.93,-19.73 1285.21,-12.96 1103.83,-11.75"/>
<polygon fill="midnightblue" stroke="midnightblue" points="1103.6,-8.25 1093.58,-11.69 1103.56,-15.25 1103.6,-8.25"/>
</g>
<!-- Node4 -->
<g id="node4" class="node">
<title>Node4</title>
<g id="a_node4"><a xlink:href="BasicTypes_8hpp.html" target="_top" xlink:title=" ">
<polygon fill="none" stroke="black" points="1410,-114.5 1410,-134.5 1572,-134.5 1572,-114.5 1410,-114.5"/>
<text text-anchor="middle" x="1491" y="-121.7" font-family="-apple-system, BlinkMacSystemFont, 'Segoe UI', Roboto, Oxygen, Ubuntu, Cantarell, 'Fira Sans', 'Droid Sans', 'Helvetica Neue', sans-serif" font-size="11.00">libmirai/Types/BasicTypes.hpp</text>
</a>
</g>
</g>
<!-- Node1&#45;&gt;Node4 -->
<g id="edge3" class="edge">
<title>Node1&#45;&gt;Node4</title>
<path fill="none" stroke="midnightblue" d="M1219.77,-363.37C1392.5,-348.42 1779.93,-302.86 1835,-192 1839.15,-183.64 1841.15,-178.02 1835,-171 1818.51,-152.18 1678.57,-138.63 1582.34,-131.43"/>
<polygon fill="midnightblue" stroke="midnightblue" points="1582.52,-127.93 1572.29,-130.69 1582.01,-134.91 1582.52,-127.93"/>
</g>
<!-- Node9 -->
<g id="node9" class="node">
<title>Node9</title>
<g id="a_node9"><a xlink:href="MessageBase_8hpp.html" target="_top" xlink:title=" ">
<polygon fill="none" stroke="black" points="944,-114.5 944,-134.5 1050,-134.5 1050,-114.5 944,-114.5"/>
<text text-anchor="middle" x="997" y="-121.7" font-family="-apple-system, BlinkMacSystemFont, 'Segoe UI', Roboto, Oxygen, Ubuntu, Cantarell, 'Fira Sans', 'Droid Sans', 'Helvetica Neue', sans-serif" font-size="11.00">MessageBase.hpp</text>
</a>
</g>
</g>
<!-- Node1&#45;&gt;Node9 -->
<g id="edge11" class="edge">
<title>Node1&#45;&gt;Node9</title>
<path fill="none" stroke="midnightblue" d="M1054.13,-357.79C952.76,-341.57 790.1,-308.75 754,-261 745.15,-249.3 745.89,-240.22 754,-228 766.16,-209.67 897.06,-161.08 961.53,-138"/>
<polygon fill="midnightblue" stroke="midnightblue" points="963.03,-141.18 971.28,-134.53 960.68,-134.59 963.03,-141.18"/>
</g>
<!-- Node11 -->
<g id="node11" class="node">
<title>Node11</title>
<g id="a_node11"><a xlink:href="MessageChain_8hpp.html" target="_top" xlink:title=" ">
<polygon fill="none" stroke="black" points="1082.5,-297.5 1082.5,-317.5 1191.5,-317.5 1191.5,-297.5 1082.5,-297.5"/>
<text text-anchor="middle" x="1137" y="-304.7" font-family="-apple-system, BlinkMacSystemFont, 'Segoe UI', Roboto, Oxygen, Ubuntu, Cantarell, 'Fira Sans', 'Droid Sans', 'Helvetica Neue', sans-serif" font-size="11.00">MessageChain.hpp</text>
</a>
</g>
</g>
<!-- Node1&#45;&gt;Node11 -->
<g id="edge16" class="edge">
<title>Node1&#45;&gt;Node11</title>
<path fill="none" stroke="midnightblue" d="M1137,-354.42C1137,-346.38 1137,-336.39 1137,-327.78"/>
<polygon fill="midnightblue" stroke="midnightblue" points="1140.5,-327.55 1137,-317.55 1133.5,-327.55 1140.5,-327.55"/>
</g>
<!-- Node4&#45;&gt;Node2 -->
<g id="edge6" class="edge">
<title>Node4&#45;&gt;Node2</title>
<path fill="none" stroke="midnightblue" d="M1409.91,-116.22C1273.13,-103.95 1002.41,-79.66 909.88,-71.36"/>
<polygon fill="midnightblue" stroke="midnightblue" points="910.02,-67.86 899.74,-70.45 909.39,-74.83 910.02,-67.86"/>
</g>
<!-- Node4&#45;&gt;Node3 -->
<g id="edge8" class="edge">
<title>Node4&#45;&gt;Node3</title>
<path fill="none" stroke="midnightblue" d="M1471.47,-114.42C1439.89,-100.11 1375.35,-72.34 1318,-57 1246.44,-37.86 1162.66,-25.79 1103.6,-18.93"/>
<polygon fill="midnightblue" stroke="midnightblue" points="1103.94,-15.44 1093.61,-17.79 1103.15,-22.4 1103.94,-15.44"/>
</g>
<!-- Node5 -->
<g id="node5" class="node">
<title>Node5</title>
<g id="a_node5"><a xlink:title=" ">
<polygon fill="none" stroke="#bfbfbf" points="1466,-57.5 1466,-77.5 1516,-77.5 1516,-57.5 1466,-57.5"/>
<text text-anchor="middle" x="1491" y="-64.7" font-family="-apple-system, BlinkMacSystemFont, 'Segoe UI', Roboto, Oxygen, Ubuntu, Cantarell, 'Fira Sans', 'Droid Sans', 'Helvetica Neue', sans-serif" font-size="11.00">chrono</text>
</a>
</g>
</g>
<!-- Node4&#45;&gt;Node5 -->
<g id="edge4" class="edge">
<title>Node4&#45;&gt;Node5</title>
<path fill="none" stroke="midnightblue" d="M1491,-114.42C1491,-107.22 1491,-96.9 1491,-87.86"/>
<polygon fill="midnightblue" stroke="midnightblue" points="1494.5,-87.78 1491,-77.78 1487.5,-87.78 1494.5,-87.78"/>
</g>
<!-- Node6 -->
<g id="node6" class="node">
<title>Node6</title>
<g id="a_node6"><a xlink:title=" ">
<polygon fill="none" stroke="#bfbfbf" points="1796,-57.5 1796,-77.5 1838,-77.5 1838,-57.5 1796,-57.5"/>
<text text-anchor="middle" x="1817" y="-64.7" font-family="-apple-system, BlinkMacSystemFont, 'Segoe UI', Roboto, Oxygen, Ubuntu, Cantarell, 'Fira Sans', 'Droid Sans', 'Helvetica Neue', sans-serif" font-size="11.00">ctime</text>
</a>
</g>
</g>
<!-- Node4&#45;&gt;Node6 -->
<g id="edge5" class="edge">
<title>Node4&#45;&gt;Node6</title>
<path fill="none" stroke="midnightblue" d="M1544.47,-114.48C1613.2,-102.88 1730.28,-83.13 1785.89,-73.75"/>
<polygon fill="midnightblue" stroke="midnightblue" points="1786.57,-77.18 1795.85,-72.07 1785.41,-70.28 1786.57,-77.18"/>
</g>
<!-- Node7 -->
<g id="node7" class="node">
<title>Node7</title>
<g id="a_node7"><a xlink:title=" ">
<polygon fill="none" stroke="#bfbfbf" points="1674.5,-57.5 1674.5,-77.5 1715.5,-77.5 1715.5,-57.5 1674.5,-57.5"/>
<text text-anchor="middle" x="1695" y="-64.7" font-family="-apple-system, BlinkMacSystemFont, 'Segoe UI', Roboto, Oxygen, Ubuntu, Cantarell, 'Fira Sans', 'Droid Sans', 'Helvetica Neue', sans-serif" font-size="11.00">utility</text>
</a>
</g>
</g>
<!-- Node4&#45;&gt;Node7 -->
<g id="edge7" class="edge">
<title>Node4&#45;&gt;Node7</title>
<path fill="none" stroke="midnightblue" d="M1524.69,-114.42C1563.58,-103.93 1627,-86.83 1664.49,-76.72"/>
<polygon fill="midnightblue" stroke="midnightblue" points="1665.6,-80.05 1674.34,-74.07 1663.77,-73.29 1665.6,-80.05"/>
</g>
<!-- Node8 -->
<g id="node8" class="node">
<title>Node8</title>
<g id="a_node8"><a xlink:href="Serializable_8hpp.html" target="_top" xlink:title=" ">
<polygon fill="none" stroke="black" points="1002,-57.5 1002,-77.5 1164,-77.5 1164,-57.5 1002,-57.5"/>
<text text-anchor="middle" x="1083" y="-64.7" font-family="-apple-system, BlinkMacSystemFont, 'Segoe UI', Roboto, Oxygen, Ubuntu, Cantarell, 'Fira Sans', 'Droid Sans', 'Helvetica Neue', sans-serif" font-size="11.00">libmirai/Types/Serializable.hpp</text>
</a>
</g>
</g>
<!-- Node4&#45;&gt;Node8 -->
<g id="edge9" class="edge">
<title>Node4&#45;&gt;Node8</title>
<path fill="none" stroke="midnightblue" d="M1424.08,-114.48C1351.6,-104.71 1236.16,-89.15 1159.97,-78.88"/>
<polygon fill="midnightblue" stroke="midnightblue" points="1160.33,-75.39 1149.95,-77.53 1159.4,-82.33 1160.33,-75.39"/>
</g>
<!-- Node8&#45;&gt;Node3 -->
<g id="edge10" class="edge">
<title>Node8&#45;&gt;Node3</title>
<path fill="none" stroke="midnightblue" d="M1073.92,-57.42C1065.92,-49.42 1054.09,-37.59 1044.44,-27.94"/>
<polygon fill="midnightblue" stroke="midnightblue" points="1046.83,-25.38 1037.28,-20.78 1041.88,-30.33 1046.83,-25.38"/>
</g>
<!-- Node9&#45;&gt;Node2 -->
<g id="edge13" class="edge">
<title>Node9&#45;&gt;Node2</title>
<path fill="none" stroke="midnightblue" d="M977.35,-114.42C958.14,-105.54 928.68,-91.93 906.83,-81.82"/>
<polygon fill="midnightblue" stroke="midnightblue" points="908.23,-78.61 897.68,-77.6 905.29,-84.97 908.23,-78.61"/>
</g>
<!-- Node9&#45;&gt;Node3 -->
<g id="edge14" class="edge">
<title>Node9&#45;&gt;Node3</title>
<path fill="none" stroke="midnightblue" d="M985.21,-114.09C970.64,-101.25 949.05,-77.51 960,-57 967.5,-42.95 981.48,-32.48 994.82,-25.15"/>
<polygon fill="midnightblue" stroke="midnightblue" points="996.52,-28.21 1003.86,-20.57 993.36,-21.96 996.52,-28.21"/>
</g>
<!-- Node9&#45;&gt;Node8 -->
<g id="edge15" class="edge">
<title>Node9&#45;&gt;Node8</title>
<path fill="none" stroke="midnightblue" d="M1011.2,-114.42C1024.52,-105.9 1044.67,-93.02 1060.23,-83.06"/>
<polygon fill="midnightblue" stroke="midnightblue" points="1062.24,-85.93 1068.78,-77.6 1058.47,-80.03 1062.24,-85.93"/>
</g>
<!-- Node10 -->
<g id="node10" class="node">
<title>Node10</title>
<g id="a_node10"><a xlink:title=" ">
<polygon fill="none" stroke="#bfbfbf" points="1220,-57.5 1220,-77.5 1276,-77.5 1276,-57.5 1220,-57.5"/>
<text text-anchor="middle" x="1248" y="-64.7" font-family="-apple-system, BlinkMacSystemFont, 'Segoe UI', Roboto, Oxygen, Ubuntu, Cantarell, 'Fira Sans', 'Droid Sans', 'Helvetica Neue', sans-serif" font-size="11.00">memory</text>
</a>
</g>
</g>
<!-- Node9&#45;&gt;Node10 -->
<g id="edge12" class="edge">
<title>Node9&#45;&gt;Node10</title>
<path fill="none" stroke="midnightblue" d="M1038.17,-114.48C1085.75,-104.05 1163.43,-87.03 1209.74,-76.88"/>
<polygon fill="midnightblue" stroke="midnightblue" points="1210.67,-80.26 1219.69,-74.7 1209.17,-73.43 1210.67,-80.26"/>
</g>
<!-- Node11&#45;&gt;Node3 -->
<g id="edge25" class="edge">
<title>Node11&#45;&gt;Node3</title>
<path fill="none" stroke="midnightblue" d="M1082.29,-306.07C908.72,-304.35 371.87,-296.25 202,-261 107.69,-241.43 0,-278.82 0,-182.5 0,-182.5 0,-182.5 0,-123.5 0,-27.75 713.86,-13.81 951.84,-11.82"/>
<polygon fill="midnightblue" stroke="midnightblue" points="952.16,-15.32 962.13,-11.74 952.1,-8.32 952.16,-15.32"/>
</g>
<!-- Node11&#45;&gt;Node6 -->
<g id="edge18" class="edge">
<title>Node11&#45;&gt;Node6</title>
<path fill="none" stroke="midnightblue" d="M1191.6,-305.19C1339.79,-301.27 1741.98,-288.25 1795,-261 1830.38,-242.82 1838.54,-229.43 1852,-192 1865.32,-154.97 1843.61,-110.27 1828.87,-86.1"/>
<polygon fill="midnightblue" stroke="midnightblue" points="1831.79,-84.17 1823.46,-77.62 1825.89,-87.94 1831.79,-84.17"/>
</g>
<!-- Node11&#45;&gt;Node7 -->
<g id="edge23" class="edge">
<title>Node11&#45;&gt;Node7</title>
<path fill="none" stroke="midnightblue" d="M1191.86,-306.33C1321.58,-305.31 1643.8,-298.92 1744,-261 1797.2,-240.87 1860.73,-221.73 1835,-171 1812.06,-125.76 1758.73,-95.69 1724.91,-80.41"/>
<polygon fill="midnightblue" stroke="midnightblue" points="1726.08,-77.1 1715.52,-76.31 1723.28,-83.51 1726.08,-77.1"/>
</g>
<!-- Node11&#45;&gt;Node9 -->
<g id="edge70" class="edge">
<title>Node11&#45;&gt;Node9</title>
<path fill="none" stroke="midnightblue" d="M1161.83,-297.37C1177.57,-290.12 1196.68,-278.31 1206,-261 1212.95,-248.09 1215.15,-239.46 1206,-228 1160.78,-171.39 1107.83,-231.37 1047,-192 1028.7,-180.15 1014.6,-159.16 1006.1,-143.92"/>
<polygon fill="midnightblue" stroke="midnightblue" points="1009.1,-142.11 1001.35,-134.9 1002.91,-145.37 1009.1,-142.11"/>
</g>
<!-- Node11&#45;&gt;Node10 -->
<g id="edge19" class="edge">
<title>Node11&#45;&gt;Node10</title>
<path fill="none" stroke="midnightblue" d="M1191.54,-306.74C1340.31,-306.04 1746.76,-294.6 1818,-192 1871.34,-115.17 1491.67,-157.96 1401,-135 1376.26,-128.73 1313.06,-99.57 1276.09,-82.02"/>
<polygon fill="midnightblue" stroke="midnightblue" points="1277.39,-78.76 1266.85,-77.61 1274.37,-85.07 1277.39,-78.76"/>
</g>
<!-- Node12 -->
<g id="node12" class="node">
<title>Node12</title>
<g id="a_node12"><a xlink:title=" ">
<polygon fill="none" stroke="#bfbfbf" points="925.5,-234.5 925.5,-254.5 976.5,-254.5 976.5,-234.5 925.5,-234.5"/>
<text text-anchor="middle" x="951" y="-241.7" font-family="-apple-system, BlinkMacSystemFont, 'Segoe UI', Roboto, Oxygen, Ubuntu, Cantarell, 'Fira Sans', 'Droid Sans', 'Helvetica Neue', sans-serif" font-size="11.00">cstddef</text>
</a>
</g>
</g>
<!-- Node11&#45;&gt;Node12 -->
<g id="edge17" class="edge">
<title>Node11&#45;&gt;Node12</title>
<path fill="none" stroke="midnightblue" d="M1102.72,-297.48C1071.85,-289.05 1025.41,-275.6 986,-261 983.92,-260.23 981.8,-259.4 979.66,-258.54"/>
<polygon fill="midnightblue" stroke="midnightblue" points="981.02,-255.31 970.45,-254.62 978.28,-261.75 981.02,-255.31"/>
</g>
<!-- Node13 -->
<g id="node13" class="node">
<title>Node13</title>
<g id="a_node13"><a xlink:title=" ">
<polygon fill="none" stroke="#bfbfbf" points="995,-234.5 995,-254.5 1049,-254.5 1049,-234.5 995,-234.5"/>
<text text-anchor="middle" x="1022" y="-241.7" font-family="-apple-system, BlinkMacSystemFont, 'Segoe UI', Roboto, Oxygen, Ubuntu, Cantarell, 'Fira Sans', 'Droid Sans', 'Helvetica Neue', sans-serif" font-size="11.00">optional</text>
</a>
</g>
</g>
<!-- Node11&#45;&gt;Node13 -->
<g id="edge20" class="edge">
<title>Node11&#45;&gt;Node13</title>
<path fill="none" stroke="midnightblue" d="M1120.03,-297.5C1101.01,-287.41 1069.94,-270.93 1047.88,-259.23"/>
<polygon fill="midnightblue" stroke="midnightblue" points="1049.51,-256.13 1039.04,-254.54 1046.23,-262.32 1049.51,-256.13"/>
</g>
<!-- Node14 -->
<g id="node14" class="node">
<title>Node14</title>
<g id="a_node14"><a xlink:title=" ">
<polygon fill="none" stroke="#bfbfbf" points="900,-171.5 900,-191.5 962,-191.5 962,-171.5 900,-171.5"/>
<text text-anchor="middle" x="931" y="-178.7" font-family="-apple-system, BlinkMacSystemFont, 'Segoe UI', Roboto, Oxygen, Ubuntu, Cantarell, 'Fira Sans', 'Droid Sans', 'Helvetica Neue', sans-serif" font-size="11.00">stdexcept</text>
</a>
</g>
</g>
<!-- Node11&#45;&gt;Node14 -->
<g id="edge21" class="edge">
<title>Node11&#45;&gt;Node14</title>
<path fill="none" stroke="midnightblue" d="M1082.41,-302.97C1023.89,-297.92 936.6,-286.28 916,-261 902.15,-244.01 911.11,-218.09 920,-200.74"/>
<polygon fill="midnightblue" stroke="midnightblue" points="923.25,-202.08 925.05,-191.64 917.14,-198.68 923.25,-202.08"/>
</g>
<!-- Node15 -->
<g id="node15" class="node">
<title>Node15</title>
<g id="a_node15"><a xlink:title=" ">
<polygon fill="none" stroke="#bfbfbf" points="1067,-234.5 1067,-254.5 1133,-254.5 1133,-234.5 1067,-234.5"/>
<text text-anchor="middle" x="1100" y="-241.7" font-family="-apple-system, BlinkMacSystemFont, 'Segoe UI', Roboto, Oxygen, Ubuntu, Cantarell, 'Fira Sans', 'Droid Sans', 'Helvetica Neue', sans-serif" font-size="11.00">type_traits</text>
</a>
</g>
</g>
<!-- Node11&#45;&gt;Node15 -->
<g id="edge22" class="edge">
<title>Node11&#45;&gt;Node15</title>
<path fill="none" stroke="midnightblue" d="M1131.54,-297.5C1126.08,-288.49 1117.52,-274.39 1110.7,-263.14"/>
<polygon fill="midnightblue" stroke="midnightblue" points="1113.66,-261.27 1105.48,-254.54 1107.68,-264.9 1113.66,-261.27"/>
</g>
<!-- Node16 -->
<g id="node16" class="node">
<title>Node16</title>
<g id="a_node16"><a xlink:title=" ">
<polygon fill="none" stroke="#bfbfbf" points="1151,-234.5 1151,-254.5 1197,-254.5 1197,-234.5 1151,-234.5"/>
<text text-anchor="middle" x="1174" y="-241.7" font-family="-apple-system, BlinkMacSystemFont, 'Segoe UI', Roboto, Oxygen, Ubuntu, Cantarell, 'Fira Sans', 'Droid Sans', 'Helvetica Neue', sans-serif" font-size="11.00">vector</text>
</a>
</g>
</g>
<!-- Node11&#45;&gt;Node16 -->
<g id="edge24" class="edge">
<title>Node11&#45;&gt;Node16</title>
<path fill="none" stroke="midnightblue" d="M1142.46,-297.5C1147.92,-288.49 1156.48,-274.39 1163.3,-263.14"/>
<polygon fill="midnightblue" stroke="midnightblue" points="1166.32,-264.9 1168.52,-254.54 1160.34,-261.27 1166.32,-264.9"/>
</g>
<!-- Node17 -->
<g id="node17" class="node">
<title>Node17</title>
<g id="a_node17"><a xlink:href="Exceptions_8hpp.html" target="_top" xlink:title=" ">
<polygon fill="none" stroke="black" points="763.5,-228.5 763.5,-260.5 868.5,-260.5 868.5,-228.5 763.5,-228.5"/>
<text text-anchor="start" x="771.5" y="-247.7" font-family="-apple-system, BlinkMacSystemFont, 'Segoe UI', Roboto, Oxygen, Ubuntu, Cantarell, 'Fira Sans', 'Droid Sans', 'Helvetica Neue', sans-serif" font-size="11.00">libmirai/Exceptions</text>
<text text-anchor="middle" x="816" y="-235.7" font-family="-apple-system, BlinkMacSystemFont, 'Segoe UI', Roboto, Oxygen, Ubuntu, Cantarell, 'Fira Sans', 'Droid Sans', 'Helvetica Neue', sans-serif" font-size="11.00">/Exceptions.hpp</text>
</a>
</g>
</g>
<!-- Node11&#45;&gt;Node17 -->
<g id="edge26" class="edge">
<title>Node11&#45;&gt;Node17</title>
<path fill="none" stroke="midnightblue" d="M1082.35,-297.52C1030.81,-288.87 951.46,-275.04 883,-261 881.54,-260.7 880.06,-260.39 878.57,-260.08"/>
<polygon fill="midnightblue" stroke="midnightblue" points="879.13,-256.62 868.61,-257.93 877.65,-263.46 879.13,-256.62"/>
</g>
<!-- Node18 -->
<g id="node18" class="node">
<title>Node18</title>
<g id="a_node18"><a xlink:href="AppMessage_8hpp.html" target="_top" xlink:title=" ">
<polygon fill="none" stroke="black" points="704.5,-171.5 704.5,-191.5 805.5,-191.5 805.5,-171.5 704.5,-171.5"/>
<text text-anchor="middle" x="755" y="-178.7" font-family="-apple-system, BlinkMacSystemFont, 'Segoe UI', Roboto, Oxygen, Ubuntu, Cantarell, 'Fira Sans', 'Droid Sans', 'Helvetica Neue', sans-serif" font-size="11.00">AppMessage.hpp</text>
</a>
</g>
</g>
<!-- Node11&#45;&gt;Node18 -->
<g id="edge29" class="edge">
<title>Node11&#45;&gt;Node18</title>
<path fill="none" stroke="midnightblue" d="M1082.34,-303.96C981.71,-298.71 775.43,-285.12 754,-261 739.76,-244.97 743.4,-218.99 748.32,-201.35"/>
<polygon fill="midnightblue" stroke="midnightblue" points="751.73,-202.19 751.41,-191.6 745.05,-200.08 751.73,-202.19"/>
</g>
<!-- Node19 -->
<g id="node19" class="node">
<title>Node19</title>
<g id="a_node19"><a xlink:href="AtAllMessage_8hpp.html" target="_top" xlink:title=" ">
<polygon fill="none" stroke="black" points="28,-171.5 28,-191.5 132,-191.5 132,-171.5 28,-171.5"/>
<text text-anchor="middle" x="80" y="-178.7" font-family="-apple-system, BlinkMacSystemFont, 'Segoe UI', Roboto, Oxygen, Ubuntu, Cantarell, 'Fira Sans', 'Droid Sans', 'Helvetica Neue', sans-serif" font-size="11.00">AtAllMessage.hpp</text>
</a>
</g>
</g>
<!-- Node11&#45;&gt;Node19 -->
<g id="edge33" class="edge">
<title>Node11&#45;&gt;Node19</title>
<path fill="none" stroke="midnightblue" d="M1082.31,-305.17C925.4,-301.07 475.79,-287.31 331,-261 250.06,-246.29 158.71,-213.4 111.71,-195.21"/>
<polygon fill="midnightblue" stroke="midnightblue" points="112.96,-191.94 102.37,-191.56 110.41,-198.46 112.96,-191.94"/>
</g>
<!-- Node20 -->
<g id="node20" class="node">
<title>Node20</title>
<g id="a_node20"><a xlink:href="AtMessage_8hpp.html" target="_top" xlink:title=" ">
<polygon fill="none" stroke="black" points="1180,-171.5 1180,-191.5 1272,-191.5 1272,-171.5 1180,-171.5"/>
<text text-anchor="middle" x="1226" y="-178.7" font-family="-apple-system, BlinkMacSystemFont, 'Segoe UI', Roboto, Oxygen, Ubuntu, Cantarell, 'Fira Sans', 'Droid Sans', 'Helvetica Neue', sans-serif" font-size="11.00">AtMessage.hpp</text>
</a>
</g>
</g>
<!-- Node11&#45;&gt;Node20 -->
<g id="edge37" class="edge">
<title>Node11&#45;&gt;Node20</title>
<path fill="none" stroke="midnightblue" d="M1191.62,-299.8C1215.85,-293.8 1242.19,-282.45 1257,-261 1270.18,-241.9 1255.19,-216.38 1241.83,-199.7"/>
<polygon fill="midnightblue" stroke="midnightblue" points="1244.31,-197.21 1235.16,-191.87 1238.98,-201.75 1244.31,-197.21"/>
</g>
<!-- Node21 -->
<g id="node21" class="node">
<title>Node21</title>
<g id="a_node21"><a xlink:href="AudioMessage_8hpp.html" target="_top" xlink:title=" ">
<polygon fill="none" stroke="red" points="1581.5,-171.5 1581.5,-191.5 1690.5,-191.5 1690.5,-171.5 1581.5,-171.5"/>
<text text-anchor="middle" x="1636" y="-178.7" font-family="-apple-system, BlinkMacSystemFont, 'Segoe UI', Roboto, Oxygen, Ubuntu, Cantarell, 'Fira Sans', 'Droid Sans', 'Helvetica Neue', sans-serif" font-size="11.00">AudioMessage.hpp</text>
</a>
</g>
</g>
<!-- Node11&#45;&gt;Node21 -->
<g id="edge42" class="edge">
<title>Node11&#45;&gt;Node21</title>
<path fill="none" stroke="midnightblue" d="M1191.56,-303.76C1285,-298.49 1471.44,-285.23 1532,-261 1567.28,-246.88 1601.05,-217.49 1620.09,-198.95"/>
<polygon fill="midnightblue" stroke="midnightblue" points="1622.7,-201.28 1627.31,-191.74 1617.76,-196.33 1622.7,-201.28"/>
</g>
<!-- Node23 -->
<g id="node22" class="node">
<title>Node23</title>
<g id="a_node22"><a xlink:href="DiceMessage_8hpp.html" target="_top" xlink:title=" ">
<polygon fill="none" stroke="black" points="150,-171.5 150,-191.5 252,-191.5 252,-171.5 150,-171.5"/>
<text text-anchor="middle" x="201" y="-178.7" font-family="-apple-system, BlinkMacSystemFont, 'Segoe UI', Roboto, Oxygen, Ubuntu, Cantarell, 'Fira Sans', 'Droid Sans', 'Helvetica Neue', sans-serif" font-size="11.00">DiceMessage.hpp</text>
</a>
</g>
</g>
<!-- Node11&#45;&gt;Node23 -->
<g id="edge47" class="edge">
<title>Node11&#45;&gt;Node23</title>
<path fill="none" stroke="midnightblue" d="M1082.14,-306.85C967,-306.69 692.1,-301.64 466,-261 380.95,-245.71 284.42,-213.08 234.65,-195.08"/>
<polygon fill="midnightblue" stroke="midnightblue" points="235.64,-191.72 225.05,-191.58 233.24,-198.29 235.64,-191.72"/>
</g>
<!-- Node24 -->
<g id="node23" class="node">
<title>Node24</title>
<g id="a_node23"><a xlink:href="FaceMessage_8hpp.html" target="_top" xlink:title=" ">
<polygon fill="none" stroke="black" points="1056.5,-171.5 1056.5,-191.5 1161.5,-191.5 1161.5,-171.5 1056.5,-171.5"/>
<text text-anchor="middle" x="1109" y="-178.7" font-family="-apple-system, BlinkMacSystemFont, 'Segoe UI', Roboto, Oxygen, Ubuntu, Cantarell, 'Fira Sans', 'Droid Sans', 'Helvetica Neue', sans-serif" font-size="11.00">FaceMessage.hpp</text>
</a>
</g>
</g>
<!-- Node11&#45;&gt;Node24 -->
<g id="edge51" class="edge">
<title>Node11&#45;&gt;Node24</title>
<path fill="none" stroke="midnightblue" d="M1184.17,-297.49C1204.67,-290.98 1226.76,-279.87 1239,-261 1246.98,-248.7 1247.49,-239.96 1239,-228 1229.44,-214.52 1192.31,-202.34 1160.17,-193.98"/>
<polygon fill="midnightblue" stroke="midnightblue" points="1160.94,-190.56 1150.39,-191.51 1159.23,-197.35 1160.94,-190.56"/>
</g>
<!-- Node25 -->
<g id="node24" class="node">
<title>Node25</title>
<g id="a_node24"><a xlink:href="FlashImageMessage_8hpp.html" target="_top" xlink:title=" ">
<polygon fill="none" stroke="black" points="1367.5,-234.5 1367.5,-254.5 1504.5,-254.5 1504.5,-234.5 1367.5,-234.5"/>
<text text-anchor="middle" x="1436" y="-241.7" font-family="-apple-system, BlinkMacSystemFont, 'Segoe UI', Roboto, Oxygen, Ubuntu, Cantarell, 'Fira Sans', 'Droid Sans', 'Helvetica Neue', sans-serif" font-size="11.00">FlashImageMessage.hpp</text>
</a>
</g>
</g>
<!-- Node11&#45;&gt;Node25 -->
<g id="edge55" class="edge">
<title>Node11&#45;&gt;Node25</title>
<path fill="none" stroke="midnightblue" d="M1181.12,-297.5C1234.45,-286.62 1324.18,-268.31 1381.7,-256.58"/>
<polygon fill="midnightblue" stroke="midnightblue" points="1382.6,-259.97 1391.7,-254.54 1381.2,-253.11 1382.6,-259.97"/>
</g>
<!-- Node26 -->
<g id="node25" class="node">
<title>Node26</title>
<g id="a_node25"><a xlink:href="ImageMessage_8hpp.html" target="_top" xlink:title=" ">
<polygon fill="none" stroke="red" points="1290.5,-171.5 1290.5,-191.5 1401.5,-191.5 1401.5,-171.5 1290.5,-171.5"/>
<text text-anchor="middle" x="1346" y="-178.7" font-family="-apple-system, BlinkMacSystemFont, 'Segoe UI', Roboto, Oxygen, Ubuntu, Cantarell, 'Fira Sans', 'Droid Sans', 'Helvetica Neue', sans-serif" font-size="11.00">ImageMessage.hpp</text>
</a>
</g>
</g>
<!-- Node11&#45;&gt;Node26 -->
<g id="edge65" class="edge">
<title>Node11&#45;&gt;Node26</title>
<path fill="none" stroke="midnightblue" d="M1182.74,-297.47C1210.67,-290.52 1246.23,-278.98 1274,-261 1299.12,-244.74 1321.24,-217.68 1334.13,-199.96"/>
<polygon fill="midnightblue" stroke="midnightblue" points="1337.08,-201.84 1339.99,-191.65 1331.37,-197.81 1337.08,-201.84"/>
</g>
<!-- Node27 -->
<g id="node26" class="node">
<title>Node27</title>
<g id="a_node26"><a xlink:href="JsonMessage_8hpp.html" target="_top" xlink:title=" ">
<polygon fill="none" stroke="black" points="434,-171.5 434,-191.5 538,-191.5 538,-171.5 434,-171.5"/>
<text text-anchor="middle" x="486" y="-178.7" font-family="-apple-system, BlinkMacSystemFont, 'Segoe UI', Roboto, Oxygen, Ubuntu, Cantarell, 'Fira Sans', 'Droid Sans', 'Helvetica Neue', sans-serif" font-size="11.00">JsonMessage.hpp</text>
</a>
</g>
</g>
<!-- Node11&#45;&gt;Node27 -->
<g id="edge66" class="edge">
<title>Node11&#45;&gt;Node27</title>
<path fill="none" stroke="midnightblue" d="M1082.41,-306.3C995.06,-304.83 819.03,-297.15 675,-261 614.52,-245.82 548.14,-214.56 512.37,-196.4"/>
<polygon fill="midnightblue" stroke="midnightblue" points="513.62,-193.11 503.13,-191.65 510.42,-199.33 513.62,-193.11"/>
</g>
<!-- Node28 -->
<g id="node27" class="node">
<title>Node28</title>
<g id="a_node27"><a xlink:href="MiraiCodeMessage_8hpp.html" target="_top" xlink:title=" ">
<polygon fill="none" stroke="black" points="556,-171.5 556,-191.5 686,-191.5 686,-171.5 556,-171.5"/>
<text text-anchor="middle" x="621" y="-178.7" font-family="-apple-system, BlinkMacSystemFont, 'Segoe UI', Roboto, Oxygen, Ubuntu, Cantarell, 'Fira Sans', 'Droid Sans', 'Helvetica Neue', sans-serif" font-size="11.00">MiraiCodeMessage.hpp</text>
</a>
</g>
</g>
<!-- Node11&#45;&gt;Node28 -->
<g id="edge71" class="edge">
<title>Node11&#45;&gt;Node28</title>
<path fill="none" stroke="midnightblue" d="M1082.32,-303.38C988.64,-297.52 801.62,-283.4 740,-261 700.57,-246.67 661.19,-216.9 639.07,-198.42"/>
<polygon fill="midnightblue" stroke="midnightblue" points="641.1,-195.55 631.22,-191.72 636.56,-200.88 641.1,-195.55"/>
</g>
<!-- Node29 -->
<g id="node28" class="node">
<title>Node29</title>
<g id="a_node28"><a xlink:href="PlainMessage_8hpp.html" target="_top" xlink:title=" ">
<polygon fill="none" stroke="black" points="1458.5,-171.5 1458.5,-191.5 1563.5,-191.5 1563.5,-171.5 1458.5,-171.5"/>
<text text-anchor="middle" x="1511" y="-178.7" font-family="-apple-system, BlinkMacSystemFont, 'Segoe UI', Roboto, Oxygen, Ubuntu, Cantarell, 'Fira Sans', 'Droid Sans', 'Helvetica Neue', sans-serif" font-size="11.00">PlainMessage.hpp</text>
</a>
</g>
</g>
<!-- Node11&#45;&gt;Node29 -->
<g id="edge75" class="edge">
<title>Node11&#45;&gt;Node29</title>
<path fill="none" stroke="midnightblue" d="M1191.82,-303.82C1291.03,-298.4 1492.07,-284.62 1513,-261 1527.23,-244.95 1523.21,-218.97 1518,-201.34"/>
<polygon fill="midnightblue" stroke="midnightblue" points="1521.24,-199.98 1514.76,-191.6 1514.6,-202.19 1521.24,-199.98"/>
</g>
<!-- Node30 -->
<g id="node29" class="node">
<title>Node30</title>
<g id="a_node29"><a xlink:href="PokeMessage_8hpp.html" target="_top" xlink:title=" ">
<polygon fill="none" stroke="red" points="308.5,-171.5 308.5,-191.5 415.5,-191.5 415.5,-171.5 308.5,-171.5"/>
<text text-anchor="middle" x="362" y="-178.7" font-family="-apple-system, BlinkMacSystemFont, 'Segoe UI', Roboto, Oxygen, Ubuntu, Cantarell, 'Fira Sans', 'Droid Sans', 'Helvetica Neue', sans-serif" font-size="11.00">PokeMessage.hpp</text>
</a>
</g>
</g>
<!-- Node11&#45;&gt;Node30 -->
<g id="edge80" class="edge">
<title>Node11&#45;&gt;Node30</title>
<path fill="none" stroke="midnightblue" d="M1082.22,-306.9C981.15,-306.57 758.99,-300.85 577,-261 507.97,-245.88 431.09,-213.89 390.58,-195.76"/>
<polygon fill="midnightblue" stroke="midnightblue" points="391.88,-192.5 381.33,-191.57 389,-198.88 391.88,-192.5"/>
</g>
<!-- Node32 -->
<g id="node30" class="node">
<title>Node32</title>
<g id="a_node30"><a xlink:href="XmlMessage_8hpp.html" target="_top" xlink:title=" ">
<polygon fill="none" stroke="black" points="1709,-171.5 1709,-191.5 1809,-191.5 1809,-171.5 1709,-171.5"/>
<text text-anchor="middle" x="1759" y="-178.7" font-family="-apple-system, BlinkMacSystemFont, 'Segoe UI', Roboto, Oxygen, Ubuntu, Cantarell, 'Fira Sans', 'Droid Sans', 'Helvetica Neue', sans-serif" font-size="11.00">XmlMessage.hpp</text>
</a>
</g>
</g>
<!-- Node11&#45;&gt;Node32 -->
<g id="edge84" class="edge">
<title>Node11&#45;&gt;Node32</title>
<path fill="none" stroke="midnightblue" d="M1191.74,-305.99C1275.41,-304.05 1439.58,-295.69 1574,-261 1633.29,-245.7 1698.23,-214.49 1733.21,-196.37"/>
<polygon fill="midnightblue" stroke="midnightblue" points="1735.02,-199.37 1742.26,-191.63 1731.77,-193.17 1735.02,-199.37"/>
</g>
<!-- Node17&#45;&gt;Node2 -->
<g id="edge28" class="edge">
<title>Node17&#45;&gt;Node2</title>
<path fill="none" stroke="midnightblue" d="M821.39,-228.28C832.72,-196.31 858.95,-122.28 871.31,-87.37"/>
<polygon fill="midnightblue" stroke="midnightblue" points="874.77,-88.11 874.81,-77.51 868.17,-85.77 874.77,-88.11"/>
</g>
<!-- Node17&#45;&gt;Node14 -->
<g id="edge27" class="edge">
<title>Node17&#45;&gt;Node14</title>
<path fill="none" stroke="midnightblue" d="M844.43,-228.42C862.83,-218.66 886.64,-206.03 904.62,-196.49"/>
<polygon fill="midnightblue" stroke="midnightblue" points="906.75,-199.32 913.95,-191.55 903.47,-193.14 906.75,-199.32"/>
</g>
<!-- Node18&#45;&gt;Node2 -->
<g id="edge30" class="edge">
<title>Node18&#45;&gt;Node2</title>
<path fill="none" stroke="midnightblue" d="M764.55,-171.36C778.09,-158.44 803.71,-134.18 826,-114 836.98,-104.06 849.46,-93.13 859.44,-84.47"/>
<polygon fill="midnightblue" stroke="midnightblue" points="861.87,-86.99 867.15,-77.81 857.3,-81.7 861.87,-86.99"/>
</g>
<!-- Node18&#45;&gt;Node3 -->
<g id="edge31" class="edge">
<title>Node18&#45;&gt;Node3</title>
<path fill="none" stroke="midnightblue" d="M759,-171.26C769.61,-147.96 800.83,-86.53 847,-57 878.43,-36.9 918.2,-25.68 952.45,-19.41"/>
<polygon fill="midnightblue" stroke="midnightblue" points="953.15,-22.84 962.42,-17.7 951.97,-15.94 953.15,-22.84"/>
</g>
<!-- Node18&#45;&gt;Node9 -->
<g id="edge32" class="edge">
<title>Node18&#45;&gt;Node9</title>
<path fill="none" stroke="midnightblue" d="M794.69,-171.48C836.45,-161.99 902.27,-147.03 947.42,-136.77"/>
<polygon fill="midnightblue" stroke="midnightblue" points="948.31,-140.15 957.29,-134.53 946.76,-133.33 948.31,-140.15"/>
</g>
<!-- Node19&#45;&gt;Node2 -->
<g id="edge34" class="edge">
<title>Node19&#45;&gt;Node2</title>
<path fill="none" stroke="midnightblue" d="M124.5,-171.5C194.12,-157.65 333.14,-130.95 452,-114 598.73,-93.08 775.15,-77.16 846.13,-71.13"/>
<polygon fill="midnightblue" stroke="midnightblue" points="846.54,-74.61 856.21,-70.28 845.95,-67.63 846.54,-74.61"/>
</g>
<!-- Node19&#45;&gt;Node3 -->
<g id="edge35" class="edge">
<title>Node19&#45;&gt;Node3</title>
<path fill="none" stroke="midnightblue" d="M107.93,-171.43C180.06,-148.39 378.85,-87.28 549,-57 690.24,-31.87 857.56,-19.98 952.39,-14.87"/>
<polygon fill="midnightblue" stroke="midnightblue" points="952.66,-18.37 962.46,-14.34 952.29,-11.37 952.66,-18.37"/>
</g>
<!-- Node19&#45;&gt;Node9 -->
<g id="edge36" class="edge">
<title>Node19&#45;&gt;Node9</title>
<path fill="none" stroke="midnightblue" d="M132.2,-172.01C135.17,-171.64 138.12,-171.3 141,-171 436.31,-140.24 791.23,-129.79 933.49,-126.67"/>
<polygon fill="midnightblue" stroke="midnightblue" points="933.84,-130.17 943.76,-126.45 933.69,-123.17 933.84,-130.17"/>
</g>
<!-- Node20&#45;&gt;Node2 -->
<g id="edge38" class="edge">
<title>Node20&#45;&gt;Node2</title>
<path fill="none" stroke="midnightblue" d="M1205.75,-171.42C1174.65,-157.71 1113.04,-131.47 1059,-114 1007.51,-97.36 946.17,-83.06 909.74,-75.14"/>
<polygon fill="midnightblue" stroke="midnightblue" points="910.23,-71.66 899.72,-72.98 908.76,-78.51 910.23,-71.66"/>
</g>
<!-- Node20&#45;&gt;Node3 -->
<g id="edge39" class="edge">
<title>Node20&#45;&gt;Node3</title>
<path fill="none" stroke="midnightblue" d="M1224.7,-171.23C1221,-148.39 1208.32,-88.91 1173,-57 1153.81,-39.67 1128.07,-28.94 1103.6,-22.29"/>
<polygon fill="midnightblue" stroke="midnightblue" points="1104.13,-18.82 1093.58,-19.77 1102.42,-25.61 1104.13,-18.82"/>
</g>
<!-- Node20&#45;&gt;Node4 -->
<g id="edge40" class="edge">
<title>Node20&#45;&gt;Node4</title>
<path fill="none" stroke="midnightblue" d="M1269.46,-171.48C1315.48,-161.93 1388.17,-146.84 1437.64,-136.58"/>
<polygon fill="midnightblue" stroke="midnightblue" points="1438.43,-139.98 1447.51,-134.53 1437.01,-133.13 1438.43,-139.98"/>
</g>
<!-- Node20&#45;&gt;Node9 -->
<g id="edge41" class="edge">
<title>Node20&#45;&gt;Node9</title>
<path fill="none" stroke="midnightblue" d="M1188.44,-171.48C1149.09,-162.03 1087.17,-147.16 1044.46,-136.9"/>
<polygon fill="midnightblue" stroke="midnightblue" points="1045.12,-133.46 1034.58,-134.53 1043.48,-140.26 1045.12,-133.46"/>
</g>
<!-- Node21&#45;&gt;Node2 -->
<g id="edge43" class="edge">
<title>Node21&#45;&gt;Node2</title>
<path fill="none" stroke="midnightblue" d="M1581.27,-172.38C1494.08,-159.44 1333.08,-135.53 1330,-135 1282.68,-126.8 1271.39,-121.8 1224,-114 1108.67,-95.01 970.67,-78.8 909.67,-71.97"/>
<polygon fill="midnightblue" stroke="midnightblue" points="909.86,-68.47 899.53,-70.84 909.08,-75.42 909.86,-68.47"/>
</g>
<!-- Node21&#45;&gt;Node3 -->
<g id="edge44" class="edge">
<title>Node21&#45;&gt;Node3</title>
<path fill="none" stroke="midnightblue" d="M1658.65,-171.48C1674.67,-163.99 1695.45,-151.84 1708,-135 1729.15,-106.62 1748.19,-82.83 1724,-57 1682.32,-12.51 1275.5,-9.86 1103.82,-10.75"/>
<polygon fill="midnightblue" stroke="midnightblue" points="1103.58,-7.26 1093.6,-10.81 1103.62,-14.26 1103.58,-7.26"/>
</g>
<!-- Node21&#45;&gt;Node7 -->
<g id="edge45" class="edge">
<title>Node21&#45;&gt;Node7</title>
<path fill="none" stroke="midnightblue" d="M1652.83,-171.34C1665.43,-163.49 1681.85,-150.93 1690,-135 1697.41,-120.51 1698.19,-101.87 1697.39,-88.01"/>
<polygon fill="midnightblue" stroke="midnightblue" points="1700.84,-87.34 1696.45,-77.7 1693.87,-87.97 1700.84,-87.34"/>
</g>
<!-- Node21&#45;&gt;Node9 -->
<g id="edge46" class="edge">
<title>Node21&#45;&gt;Node9</title>
<path fill="none" stroke="midnightblue" d="M1581.22,-172.12C1578.1,-171.72 1575.01,-171.34 1572,-171 1386.64,-149.93 1166.55,-135.43 1060.45,-129.1"/>
<polygon fill="midnightblue" stroke="midnightblue" points="1060.42,-125.59 1050.23,-128.49 1060.01,-132.58 1060.42,-125.59"/>
</g>
<!-- Node23&#45;&gt;Node2 -->
<g id="edge48" class="edge">
<title>Node23&#45;&gt;Node2</title>
<path fill="none" stroke="midnightblue" d="M252.03,-172.69C314.2,-162.92 415.46,-146.14 452,-135 474.27,-128.21 477.53,-120.12 500,-114 625.05,-79.92 780.3,-71.35 846.12,-69.21"/>
<polygon fill="midnightblue" stroke="midnightblue" points="846.37,-72.7 856.26,-68.91 846.17,-65.71 846.37,-72.7"/>
</g>
<!-- Node23&#45;&gt;Node3 -->
<g id="edge49" class="edge">
<title>Node23&#45;&gt;Node3</title>
<path fill="none" stroke="midnightblue" d="M227.31,-171.5C294.83,-148.74 480.13,-88.48 639,-57 746.72,-35.65 873.34,-23.13 952.15,-16.8"/>
<polygon fill="midnightblue" stroke="midnightblue" points="952.77,-20.26 962.47,-15.98 952.22,-13.28 952.77,-20.26"/>
</g>
<!-- Node23&#45;&gt;Node9 -->
<g id="edge50" class="edge">
<title>Node23&#45;&gt;Node9</title>
<path fill="none" stroke="midnightblue" d="M252.09,-175.24C267.19,-173.77 283.75,-172.24 299,-171 532.76,-152.06 811.05,-135.8 933.66,-128.96"/>
<polygon fill="midnightblue" stroke="midnightblue" points="934.19,-132.43 943.98,-128.38 933.8,-125.44 934.19,-132.43"/>
</g>
<!-- Node24&#45;&gt;Node2 -->
<g id="edge52" class="edge">
<title>Node24&#45;&gt;Node2</title>
<path fill="none" stroke="midnightblue" d="M1061.64,-171.44C1017.68,-162.44 955.98,-148.12 935,-135 915.36,-122.71 898.9,-101.49 888.8,-86.33"/>
<polygon fill="midnightblue" stroke="midnightblue" points="891.69,-84.35 883.36,-77.8 885.79,-88.11 891.69,-84.35"/>
</g>
<!-- Node24&#45;&gt;Node3 -->
<g id="edge53" class="edge">
<title>Node24&#45;&gt;Node3</title>
<path fill="none" stroke="midnightblue" d="M1103.87,-171.35C1095.77,-157.55 1078.89,-131.19 1059,-114 1033.72,-92.15 1010.06,-106.73 993,-78 983.09,-61.31 996.52,-41.55 1009.51,-27.94"/>
<polygon fill="midnightblue" stroke="midnightblue" points="1012.22,-30.19 1016.93,-20.7 1007.33,-25.18 1012.22,-30.19"/>
</g>
<!-- Node24&#45;&gt;Node9 -->
<g id="edge54" class="edge">
<title>Node24&#45;&gt;Node9</title>
<path fill="none" stroke="midnightblue" d="M1090.51,-171.42C1072.59,-162.62 1045.2,-149.17 1024.69,-139.1"/>
<polygon fill="midnightblue" stroke="midnightblue" points="1026.04,-135.86 1015.52,-134.6 1022.96,-142.15 1026.04,-135.86"/>
</g>
<!-- Node25&#45;&gt;Node2 -->
<g id="edge56" class="edge">
<title>Node25&#45;&gt;Node2</title>
<path fill="none" stroke="midnightblue" d="M1367.15,-239.75C1288.58,-234.24 1156.77,-221.25 1047,-192 1014.74,-183.4 932.01,-158.19 908,-135 894.79,-122.24 886.92,-102.59 882.58,-87.96"/>
<polygon fill="midnightblue" stroke="midnightblue" points="885.87,-86.71 879.91,-77.94 879.1,-88.51 885.87,-86.71"/>
</g>
<!-- Node25&#45;&gt;Node3 -->
<g id="edge57" class="edge">
<title>Node25&#45;&gt;Node3</title>
<path fill="none" stroke="midnightblue" d="M1504.83,-241.76C1600.92,-238.09 1769.02,-226.75 1818,-192 1869.94,-155.15 1909.79,-103.23 1866,-57 1840.01,-29.56 1305.51,-16.71 1103.99,-12.83"/>
<polygon fill="midnightblue" stroke="midnightblue" points="1103.85,-9.32 1093.78,-12.63 1103.72,-16.32 1103.85,-9.32"/>
</g>
<!-- Node25&#45;&gt;Node4 -->
<g id="edge58" class="edge">
<title>Node25&#45;&gt;Node4</title>
<path fill="none" stroke="midnightblue" d="M1436.03,-234.05C1436.44,-219.69 1438.64,-191.84 1449,-171 1454.51,-159.91 1463.57,-149.59 1471.86,-141.59"/>
<polygon fill="midnightblue" stroke="midnightblue" points="1474.41,-144.01 1479.44,-134.68 1469.69,-138.83 1474.41,-144.01"/>
</g>
<!-- Node25&#45;&gt;Node26 -->
<g id="edge59" class="edge">
<title>Node25&#45;&gt;Node26</title>
<path fill="none" stroke="midnightblue" d="M1422.72,-234.5C1408.23,-224.68 1384.81,-208.81 1367.66,-197.18"/>
<polygon fill="midnightblue" stroke="midnightblue" points="1369.58,-194.25 1359.33,-191.54 1365.65,-200.05 1369.58,-194.25"/>
</g>
<!-- Node26&#45;&gt;Node2 -->
<g id="edge60" class="edge">
<title>Node26&#45;&gt;Node2</title>
<path fill="none" stroke="midnightblue" d="M1315.22,-171.47C1268.95,-158.04 1178.61,-132.43 1101,-114 1033.17,-97.89 952.9,-82.37 909.57,-74.28"/>
<polygon fill="midnightblue" stroke="midnightblue" points="910.1,-70.82 899.63,-72.44 908.82,-77.7 910.1,-70.82"/>
</g>
<!-- Node26&#45;&gt;Node3 -->
<g id="edge61" class="edge">
<title>Node26&#45;&gt;Node3</title>
<path fill="none" stroke="midnightblue" d="M1344.37,-171.25C1339.74,-147.92 1324.22,-86.42 1285,-57 1257,-36 1169.21,-23.77 1103.98,-17.38"/>
<polygon fill="midnightblue" stroke="midnightblue" points="1104,-13.87 1093.72,-16.41 1103.34,-20.84 1104,-13.87"/>
</g>
<!-- Node26&#45;&gt;Node4 -->
<g id="edge62" class="edge">
<title>Node26&#45;&gt;Node4</title>
<path fill="none" stroke="midnightblue" d="M1369.94,-171.42C1393.87,-162.34 1430.86,-148.31 1457.65,-138.15"/>
<polygon fill="midnightblue" stroke="midnightblue" points="1458.91,-141.41 1467.02,-134.6 1456.43,-134.87 1458.91,-141.41"/>
</g>
<!-- Node26&#45;&gt;Node7 -->
<g id="edge63" class="edge">
<title>Node26&#45;&gt;Node7</title>
<path fill="none" stroke="midnightblue" d="M1401.57,-175.08C1450.12,-169.1 1521.88,-157.23 1581,-135 1615.87,-121.89 1652.44,-98.6 1674.47,-83.36"/>
<polygon fill="midnightblue" stroke="midnightblue" points="1676.55,-86.18 1682.71,-77.57 1672.52,-80.46 1676.55,-86.18"/>
</g>
<!-- Node26&#45;&gt;Node9 -->
<g id="edge64" class="edge">
<title>Node26&#45;&gt;Node9</title>
<path fill="none" stroke="midnightblue" d="M1290.31,-171.72C1227.66,-161.85 1126.08,-145.84 1060.42,-135.49"/>
<polygon fill="midnightblue" stroke="midnightblue" points="1060.62,-131.98 1050.2,-133.88 1059.53,-138.9 1060.62,-131.98"/>
</g>
<!-- Node27&#45;&gt;Node2 -->
<g id="edge67" class="edge">
<title>Node27&#45;&gt;Node2</title>
<path fill="none" stroke="midnightblue" d="M517.75,-171.43C591.23,-150.43 772.37,-98.68 846.05,-77.63"/>
<polygon fill="midnightblue" stroke="midnightblue" points="847.46,-80.86 856.12,-74.75 845.54,-74.13 847.46,-80.86"/>
</g>
<!-- Node27&#45;&gt;Node3 -->
<g id="edge68" class="edge">
<title>Node27&#45;&gt;Node3</title>
<path fill="none" stroke="midnightblue" d="M503.27,-171.39C547.11,-148.63 666.75,-88.88 773,-57 832.06,-39.28 901,-27.49 952.3,-20.36"/>
<polygon fill="midnightblue" stroke="midnightblue" points="952.88,-23.81 962.32,-19 951.94,-16.88 952.88,-23.81"/>
</g>
<!-- Node27&#45;&gt;Node9 -->
<g id="edge69" class="edge">
<title>Node27&#45;&gt;Node9</title>
<path fill="none" stroke="midnightblue" d="M538.22,-172.18C541.19,-171.76 544.13,-171.37 547,-171 684.66,-153.33 846.75,-138.37 933.91,-130.8"/>
<polygon fill="midnightblue" stroke="midnightblue" points="934.24,-134.29 943.9,-129.94 933.64,-127.31 934.24,-134.29"/>
</g>
<!-- Node28&#45;&gt;Node2 -->
<g id="edge72" class="edge">
<title>Node28&#45;&gt;Node2</title>
<path fill="none" stroke="midnightblue" d="M642.03,-171.33C687.51,-151.51 795.15,-104.6 847.86,-81.63"/>
<polygon fill="midnightblue" stroke="midnightblue" points="849.27,-84.84 857.04,-77.63 846.47,-78.42 849.27,-84.84"/>
</g>
<!-- Node28&#45;&gt;Node3 -->
<g id="edge73" class="edge">
<title>Node28&#45;&gt;Node3</title>
<path fill="none" stroke="midnightblue" d="M632.22,-171.46C661.14,-148.63 741.36,-88.21 818,-57 860.93,-39.52 911.66,-28.29 952.5,-21.36"/>
<polygon fill="midnightblue" stroke="midnightblue" points="953.09,-24.81 962.39,-19.73 951.96,-17.9 953.09,-24.81"/>
</g>
<!-- Node28&#45;&gt;Node9 -->
<g id="edge74" class="edge">
<title>Node28&#45;&gt;Node9</title>
<path fill="none" stroke="midnightblue" d="M682.67,-171.48C751.97,-161.34 863.9,-144.97 933.82,-134.74"/>
<polygon fill="midnightblue" stroke="midnightblue" points="934.43,-138.19 943.82,-133.28 933.42,-131.26 934.43,-138.19"/>
</g>
<!-- Node29&#45;&gt;Node2 -->
<g id="edge76" class="edge">
<title>Node29&#45;&gt;Node2</title>
<path fill="none" stroke="midnightblue" d="M1464.54,-171.45C1396.79,-158.32 1266.86,-133.45 1156,-114 1066.96,-98.38 961.56,-81.59 909.85,-73.47"/>
<polygon fill="midnightblue" stroke="midnightblue" points="910.08,-69.96 899.66,-71.87 908.99,-76.88 910.08,-69.96"/>
</g>
<!-- Node29&#45;&gt;Node3 -->
<g id="edge77" class="edge">
<title>Node29&#45;&gt;Node3</title>
<path fill="none" stroke="midnightblue" d="M1536.17,-171.46C1552.15,-164.26 1571.53,-152.45 1581,-135 1603.41,-93.71 1529.05,-58.92 1525,-57 1452.45,-22.6 1224.43,-14.16 1104.09,-12.12"/>
<polygon fill="midnightblue" stroke="midnightblue" points="1103.91,-8.62 1093.85,-11.96 1103.79,-15.62 1103.91,-8.62"/>
</g>
<!-- Node29&#45;&gt;Node7 -->
<g id="edge78" class="edge">
<title>Node29&#45;&gt;Node7</title>
<path fill="none" stroke="midnightblue" d="M1563.6,-172.4C1592,-165.97 1626.39,-154.65 1652,-135 1668.31,-122.49 1680.23,-101.91 1687.33,-86.95"/>
<polygon fill="midnightblue" stroke="midnightblue" points="1690.6,-88.23 1691.47,-77.67 1684.2,-85.38 1690.6,-88.23"/>
</g>
<!-- Node29&#45;&gt;Node9 -->
<g id="edge79" class="edge">
<title>Node29&#45;&gt;Node9</title>
<path fill="none" stroke="midnightblue" d="M1458.41,-174.87C1363.3,-164.7 1163.07,-143.27 1060.5,-132.29"/>
<polygon fill="midnightblue" stroke="midnightblue" points="1060.6,-128.79 1050.29,-131.2 1059.86,-135.75 1060.6,-128.79"/>
</g>
<!-- Node30&#45;&gt;Node2 -->
<g id="edge81" class="edge">
<title>Node30&#45;&gt;Node2</title>
<path fill="none" stroke="midnightblue" d="M398.27,-171.41C451.7,-158.14 554.78,-132.97 643,-114 715.4,-98.43 800.89,-82.49 846.15,-74.24"/>
<polygon fill="midnightblue" stroke="midnightblue" points="847.02,-77.64 856.23,-72.41 845.77,-70.75 847.02,-77.64"/>
</g>
<!-- Node30&#45;&gt;Node3 -->
<g id="edge82" class="edge">
<title>Node30&#45;&gt;Node3</title>
<path fill="none" stroke="midnightblue" d="M383.26,-171.34C437.17,-148.47 584.04,-88.46 712,-57 792.85,-37.12 887.62,-24.9 952.13,-18.2"/>
<polygon fill="midnightblue" stroke="midnightblue" points="952.63,-21.67 962.22,-17.17 951.92,-14.71 952.63,-21.67"/>
</g>
<!-- Node30&#45;&gt;Node9 -->
<g id="edge83" class="edge">
<title>Node30&#45;&gt;Node9</title>
<path fill="none" stroke="midnightblue" d="M415.58,-172.16C418.77,-171.74 421.92,-171.35 425,-171 609.13,-149.82 827.75,-135.39 933.47,-129.09"/>
<polygon fill="midnightblue" stroke="midnightblue" points="933.87,-132.57 943.65,-128.49 933.46,-125.59 933.87,-132.57"/>
</g>
<!-- Node32&#45;&gt;Node2 -->
<g id="edge85" class="edge">
<title>Node32&#45;&gt;Node2</title>
<path fill="none" stroke="midnightblue" d="M1708.94,-172.39C1705.58,-171.9 1702.24,-171.43 1699,-171 1552.32,-151.42 1513.39,-162.55 1368,-135 1333.15,-128.4 1325.85,-120.63 1291,-114 1217.77,-100.07 993.57,-78.97 909.91,-71.36"/>
<polygon fill="midnightblue" stroke="midnightblue" points="910.02,-67.86 899.75,-70.44 909.39,-74.83 910.02,-67.86"/>
</g>
<!-- Node32&#45;&gt;Node3 -->
<g id="edge86" class="edge">
<title>Node32&#45;&gt;Node3</title>
<path fill="none" stroke="midnightblue" d="M1773.97,-171.49C1807.63,-150.19 1883.55,-95.63 1847,-57 1821.67,-30.23 1301.7,-17 1103.67,-12.92"/>
<polygon fill="midnightblue" stroke="midnightblue" points="1103.71,-9.42 1093.64,-12.71 1103.57,-16.42 1103.71,-9.42"/>
</g>
<!-- Node32&#45;&gt;Node7 -->
<g id="edge87" class="edge">
<title>Node32&#45;&gt;Node7</title>
<path fill="none" stroke="midnightblue" d="M1753.76,-171.33C1743.21,-152.88 1719.24,-110.92 1705.39,-86.69"/>
<polygon fill="midnightblue" stroke="midnightblue" points="1708.31,-84.74 1700.31,-77.79 1702.23,-88.21 1708.31,-84.74"/>
</g>
<!-- Node32&#45;&gt;Node9 -->
<g id="edge88" class="edge">
<title>Node32&#45;&gt;Node9</title>
<path fill="none" stroke="midnightblue" d="M1708.96,-172.22C1705.59,-171.78 1702.25,-171.36 1699,-171 1464.35,-144.88 1183.78,-132.26 1060.45,-127.65"/>
<polygon fill="midnightblue" stroke="midnightblue" points="1060.55,-124.15 1050.43,-127.28 1060.29,-131.15 1060.55,-124.15"/>
</g>
</g>
</svg>
