<?xml version="1.0" encoding="UTF-8" standalone="no"?>
<!DOCTYPE svg PUBLIC "-//W3C//DTD SVG 1.1//EN"
 "http://www.w3.org/Graphics/SVG/1.1/DTD/svg11.dtd">
<!-- Generated by graphviz version 2.43.0 (0)
 -->
<!-- Title: libmirai/public/libmirai/Messages/QuoteMessage.cpp Pages: 1 -->
<svg width="590pt" height="269pt"
 viewBox="0.00 0.00 590.17 269.00" xmlns="http://www.w3.org/2000/svg" xmlns:xlink="http://www.w3.org/1999/xlink">
<g id="graph0" class="graph" transform="scale(1 1) rotate(0) translate(4 265)">
<title>libmirai/public/libmirai/Messages/QuoteMessage.cpp</title>
<!-- Node1 -->
<g id="node1" class="node">
<title>Node1</title>
<g id="a_node1"><a xlink:title=" ">
<polygon fill="#bfbfbf" stroke="black" points="248.67,-228.5 248.67,-260.5 433.67,-260.5 433.67,-228.5 248.67,-228.5"/>
<text text-anchor="start" x="256.67" y="-247.7" font-family="-apple-system,BlinkMacSystemFont,'SegoeUI',Roboto,Oxygen,Ubuntu,Cantarell,'FiraSans','DroidSans','HelveticaNeue',sans-serif" font-size="11.00">libmirai/public/libmirai</text>
<text text-anchor="middle" x="341.17" y="-235.7" font-family="-apple-system,BlinkMacSystemFont,'SegoeUI',Roboto,Oxygen,Ubuntu,Cantarell,'FiraSans','DroidSans','HelveticaNeue',sans-serif" font-size="11.00">/Messages/QuoteMessage.cpp</text>
</a>
</g>
</g>
<!-- Node2 -->
<g id="node2" class="node">
<title>Node2</title>
<g id="a_node2"><a xlink:href="QuoteMessage_8hpp.html" target="_top" xlink:title=" ">
<polygon fill="none" stroke="black" points="139.67,-171.5 139.67,-191.5 262.67,-191.5 262.67,-171.5 139.67,-171.5"/>
<text text-anchor="middle" x="201.17" y="-178.7" font-family="-apple-system,BlinkMacSystemFont,'SegoeUI',Roboto,Oxygen,Ubuntu,Cantarell,'FiraSans','DroidSans','HelveticaNeue',sans-serif" font-size="11.00">QuoteMessage.hpp</text>
</a>
</g>
</g>
<!-- Node1&#45;&gt;Node2 -->
<g id="edge1" class="edge">
<title>Node1&#45;&gt;Node2</title>
<path fill="none" stroke="midnightblue" d="M306.57,-228.42C283.43,-218.34 253.3,-205.21 231.18,-195.57"/>
<polygon fill="midnightblue" stroke="midnightblue" points="232.5,-192.33 221.93,-191.55 229.7,-198.75 232.5,-192.33"/>
</g>
<!-- Node34 -->
<g id="node8" class="node">
<title>Node34</title>
<g id="a_node8"><a xlink:title=" ">
<polygon fill="none" stroke="#bfbfbf" points="280.67,-171.5 280.67,-191.5 401.67,-191.5 401.67,-171.5 280.67,-171.5"/>
<text text-anchor="middle" x="341.17" y="-178.7" font-family="-apple-system,BlinkMacSystemFont,'SegoeUI',Roboto,Oxygen,Ubuntu,Cantarell,'FiraSans','DroidSans','HelveticaNeue',sans-serif" font-size="11.00">nlohmann/json.hpp</text>
</a>
</g>
</g>
<!-- Node1&#45;&gt;Node34 -->
<g id="edge13" class="edge">
<title>Node1&#45;&gt;Node34</title>
<path fill="none" stroke="midnightblue" d="M341.17,-228.42C341.17,-220.38 341.17,-210.39 341.17,-201.78"/>
<polygon fill="midnightblue" stroke="midnightblue" points="344.67,-201.55 341.17,-191.55 337.67,-201.55 344.67,-201.55"/>
</g>
<!-- Node35 -->
<g id="node9" class="node">
<title>Node35</title>
<g id="a_node9"><a xlink:title=" ">
<polygon fill="none" stroke="#bfbfbf" points="420.17,-171.5 420.17,-191.5 582.17,-191.5 582.17,-171.5 420.17,-171.5"/>
<text text-anchor="middle" x="501.17" y="-178.7" font-family="-apple-system,BlinkMacSystemFont,'SegoeUI',Roboto,Oxygen,Ubuntu,Cantarell,'FiraSans','DroidSans','HelveticaNeue',sans-serif" font-size="11.00">libmirai/Utils/Common.hpp</text>
</a>
</g>
</g>
<!-- Node1&#45;&gt;Node35 -->
<g id="edge14" class="edge">
<title>Node1&#45;&gt;Node35</title>
<path fill="none" stroke="midnightblue" d="M380.72,-228.42C407.52,-218.21 442.53,-204.86 467.9,-195.19"/>
<polygon fill="midnightblue" stroke="midnightblue" points="469.35,-198.38 477.45,-191.55 466.86,-191.84 469.35,-198.38"/>
</g>
<!-- Node3 -->
<g id="node3" class="node">
<title>Node3</title>
<g id="a_node3"><a xlink:title=" ">
<polygon fill="none" stroke="#bfbfbf" points="80.17,-0.5 80.17,-20.5 128.17,-20.5 128.17,-0.5 80.17,-0.5"/>
<text text-anchor="middle" x="104.17" y="-7.7" font-family="-apple-system,BlinkMacSystemFont,'SegoeUI',Roboto,Oxygen,Ubuntu,Cantarell,'FiraSans','DroidSans','HelveticaNeue',sans-serif" font-size="11.00">string</text>
</a>
</g>
</g>
<!-- Node2&#45;&gt;Node3 -->
<g id="edge2" class="edge">
<title>Node2&#45;&gt;Node3</title>
<path fill="none" stroke="midnightblue" d="M156.7,-171.47C109.48,-159.24 37.18,-132.38 4.17,-78 -13.94,-48.15 34.44,-28.9 70.07,-19.15"/>
<polygon fill="midnightblue" stroke="midnightblue" points="71.36,-22.43 80.17,-16.54 69.61,-15.65 71.36,-22.43"/>
</g>
<!-- Node4 -->
<g id="node4" class="node">
<title>Node4</title>
<g id="a_node4"><a xlink:title=" ">
<polygon fill="none" stroke="#bfbfbf" points="241.17,-0.5 241.17,-20.5 387.17,-20.5 387.17,-0.5 241.17,-0.5"/>
<text text-anchor="middle" x="314.17" y="-7.7" font-family="-apple-system,BlinkMacSystemFont,'SegoeUI',Roboto,Oxygen,Ubuntu,Cantarell,'FiraSans','DroidSans','HelveticaNeue',sans-serif" font-size="11.00">nlohmann/json_fwd.hpp</text>
</a>
</g>
</g>
<!-- Node2&#45;&gt;Node4 -->
<g id="edge3" class="edge">
<title>Node2&#45;&gt;Node4</title>
<path fill="none" stroke="midnightblue" d="M257.57,-171.45C297.42,-163.78 345.86,-151.39 358.17,-135 365.9,-124.72 366.74,-89.27 353.17,-57 348.58,-46.07 340.34,-35.85 332.62,-27.88"/>
<polygon fill="midnightblue" stroke="midnightblue" points="334.84,-25.15 325.22,-20.71 329.96,-30.18 334.84,-25.15"/>
</g>
<!-- Node5 -->
<g id="node5" class="node">
<title>Node5</title>
<g id="a_node5"><a xlink:href="BasicTypes_8hpp.html" target="_top" xlink:title=" ">
<polygon fill="none" stroke="red" points="13.67,-57.5 13.67,-77.5 194.67,-77.5 194.67,-57.5 13.67,-57.5"/>
<text text-anchor="middle" x="104.17" y="-64.7" font-family="-apple-system,BlinkMacSystemFont,'SegoeUI',Roboto,Oxygen,Ubuntu,Cantarell,'FiraSans','DroidSans','HelveticaNeue',sans-serif" font-size="11.00">libmirai/Types/BasicTypes.hpp</text>
</a>
</g>
</g>
<!-- Node2&#45;&gt;Node5 -->
<g id="edge4" class="edge">
<title>Node2&#45;&gt;Node5</title>
<path fill="none" stroke="midnightblue" d="M193.23,-171.33C176.96,-152.55 139.62,-109.42 118.82,-85.42"/>
<polygon fill="midnightblue" stroke="midnightblue" points="121.41,-83.06 112.22,-77.79 116.12,-87.64 121.41,-83.06"/>
</g>
<!-- Node9 -->
<g id="node6" class="node">
<title>Node9</title>
<g id="a_node6"><a xlink:href="MessageBase_8hpp.html" target="_top" xlink:title=" ">
<polygon fill="none" stroke="red" points="213.17,-57.5 213.17,-77.5 329.17,-77.5 329.17,-57.5 213.17,-57.5"/>
<text text-anchor="middle" x="271.17" y="-64.7" font-family="-apple-system,BlinkMacSystemFont,'SegoeUI',Roboto,Oxygen,Ubuntu,Cantarell,'FiraSans','DroidSans','HelveticaNeue',sans-serif" font-size="11.00">MessageBase.hpp</text>
</a>
</g>
</g>
<!-- Node2&#45;&gt;Node9 -->
<g id="edge7" class="edge">
<title>Node2&#45;&gt;Node9</title>
<path fill="none" stroke="midnightblue" d="M202.17,-171.24C203.96,-157.75 208.69,-132.31 220.17,-114 227.56,-102.22 238.87,-91.69 248.97,-83.74"/>
<polygon fill="midnightblue" stroke="midnightblue" points="251.14,-86.48 257.05,-77.69 246.94,-80.88 251.14,-86.48"/>
</g>
<!-- Node11 -->
<g id="node7" class="node">
<title>Node11</title>
<g id="a_node7"><a xlink:href="MessageChain_8hpp.html" target="_top" xlink:title=" ">
<polygon fill="none" stroke="red" points="229.17,-114.5 229.17,-134.5 349.17,-134.5 349.17,-114.5 229.17,-114.5"/>
<text text-anchor="middle" x="289.17" y="-121.7" font-family="-apple-system,BlinkMacSystemFont,'SegoeUI',Roboto,Oxygen,Ubuntu,Cantarell,'FiraSans','DroidSans','HelveticaNeue',sans-serif" font-size="11.00">MessageChain.hpp</text>
</a>
</g>
</g>
<!-- Node2&#45;&gt;Node11 -->
<g id="edge10" class="edge">
<title>Node2&#45;&gt;Node11</title>
<path fill="none" stroke="midnightblue" d="M215.7,-171.42C229.33,-162.9 249.95,-150.02 265.87,-140.06"/>
<polygon fill="midnightblue" stroke="midnightblue" points="267.99,-142.86 274.62,-134.6 264.28,-136.93 267.99,-142.86"/>
</g>
<!-- Node5&#45;&gt;Node3 -->
<g id="edge5" class="edge">
<title>Node5&#45;&gt;Node3</title>
<path fill="none" stroke="midnightblue" d="M104.17,-57.42C104.17,-50.22 104.17,-39.9 104.17,-30.86"/>
<polygon fill="midnightblue" stroke="midnightblue" points="107.67,-30.78 104.17,-20.78 100.67,-30.78 107.67,-30.78"/>
</g>
<!-- Node5&#45;&gt;Node4 -->
<g id="edge6" class="edge">
<title>Node5&#45;&gt;Node4</title>
<path fill="none" stroke="midnightblue" d="M138.85,-57.42C174.67,-48.04 230.71,-33.36 269.76,-23.13"/>
<polygon fill="midnightblue" stroke="midnightblue" points="271.01,-26.42 279.79,-20.5 269.23,-19.65 271.01,-26.42"/>
</g>
<!-- Node9&#45;&gt;Node3 -->
<g id="edge8" class="edge">
<title>Node9&#45;&gt;Node3</title>
<path fill="none" stroke="midnightblue" d="M243.6,-57.42C214.59,-47.86 168.92,-32.82 137.81,-22.58"/>
<polygon fill="midnightblue" stroke="midnightblue" points="138.86,-19.24 128.26,-19.43 136.67,-25.89 138.86,-19.24"/>
</g>
<!-- Node9&#45;&gt;Node4 -->
<g id="edge9" class="edge">
<title>Node9&#45;&gt;Node4</title>
<path fill="none" stroke="midnightblue" d="M278.27,-57.42C284.34,-49.66 293.23,-38.29 300.64,-28.8"/>
<polygon fill="midnightblue" stroke="midnightblue" points="303.52,-30.81 306.92,-20.78 298,-26.5 303.52,-30.81"/>
</g>
<!-- Node11&#45;&gt;Node4 -->
<g id="edge11" class="edge">
<title>Node11&#45;&gt;Node4</title>
<path fill="none" stroke="midnightblue" d="M304.31,-114.45C316,-106.5 331.31,-93.75 338.17,-78 345.27,-61.73 336.69,-42.62 327.88,-29.07"/>
<polygon fill="midnightblue" stroke="midnightblue" points="330.57,-26.82 321.93,-20.68 324.86,-30.86 330.57,-26.82"/>
</g>
<!-- Node11&#45;&gt;Node9 -->
<g id="edge12" class="edge">
<title>Node11&#45;&gt;Node9</title>
<path fill="none" stroke="midnightblue" d="M286.2,-114.42C283.82,-107.14 280.39,-96.67 277.41,-87.57"/>
<polygon fill="midnightblue" stroke="midnightblue" points="280.65,-86.19 274.21,-77.78 273.99,-88.37 280.65,-86.19"/>
</g>
</g>
</svg>
