<?xml version="1.0" encoding="UTF-8" standalone="no"?>
<!DOCTYPE svg PUBLIC "-//W3C//DTD SVG 1.1//EN"
 "http://www.w3.org/Graphics/SVG/1.1/DTD/svg11.dtd">
<!-- Generated by graphviz version 3.0.0 (20221109.1736)
 -->
<!-- Title: libmirai/models/libmirai/Messages/QuoteMessage.hpp Pages: 1 -->
<svg width="1932pt" height="317pt"
 viewBox="0.00 0.00 1932.00 317.00" xmlns="http://www.w3.org/2000/svg" xmlns:xlink="http://www.w3.org/1999/xlink">
<g id="graph0" class="graph" transform="scale(1 1) rotate(0) translate(4 313)">
<title>libmirai/models/libmirai/Messages/QuoteMessage.hpp</title>
<!-- Node1 -->
<g id="node1" class="node">
<title>Node1</title>
<g id="a_node1"><a xlink:title=" ">
<polygon fill="#bfbfbf" stroke="black" points="766.5,-276.5 766.5,-308.5 931.5,-308.5 931.5,-276.5 766.5,-276.5"/>
<text text-anchor="start" x="774.5" y="-295.7" font-family="-apple-system, BlinkMacSystemFont, 'Segoe UI', Roboto, Oxygen, Ubuntu, Cantarell, 'Fira Sans', 'Droid Sans', 'Helvetica Neue', sans-serif" font-size="11.00">libmirai/models/libmirai</text>
<text text-anchor="middle" x="849" y="-283.7" font-family="-apple-system, BlinkMacSystemFont, 'Segoe UI', Roboto, Oxygen, Ubuntu, Cantarell, 'Fira Sans', 'Droid Sans', 'Helvetica Neue', sans-serif" font-size="11.00">/Messages/QuoteMessage.hpp</text>
</a>
</g>
</g>
<!-- Node2 -->
<g id="node2" class="node">
<title>Node2</title>
<g id="a_node2"><a xlink:href="Messages_8hpp.html" target="_top" xlink:title=" ">
<polygon fill="none" stroke="black" points="0,-69.5 0,-101.5 178,-101.5 178,-69.5 0,-69.5"/>
<text text-anchor="start" x="8" y="-88.7" font-family="-apple-system, BlinkMacSystemFont, 'Segoe UI', Roboto, Oxygen, Ubuntu, Cantarell, 'Fira Sans', 'Droid Sans', 'Helvetica Neue', sans-serif" font-size="11.00">libmirai/aggregates</text>
<text text-anchor="middle" x="89" y="-76.7" font-family="-apple-system, BlinkMacSystemFont, 'Segoe UI', Roboto, Oxygen, Ubuntu, Cantarell, 'Fira Sans', 'Droid Sans', 'Helvetica Neue', sans-serif" font-size="11.00">/libmirai/Messages/Messages.hpp</text>
</a>
</g>
</g>
<!-- Node1&#45;&gt;Node2 -->
<g id="edge1" class="edge">
<title>Node1&#45;&gt;Node2</title>
<path fill="none" stroke="midnightblue" d="M756.18,-291.18C572.31,-288.36 172.12,-270.63 87,-171 70.61,-151.81 77.14,-120.26 83.2,-101.62"/>
<polygon fill="midnightblue" stroke="midnightblue" points="756.33,-294.68 766.38,-291.32 756.43,-287.68 756.33,-294.68"/>
</g>
<!-- Node5 -->
<g id="node4" class="node">
<title>Node5</title>
<g id="a_node4"><a xlink:href="MessageChain_8hpp.html" target="_top" xlink:title=" ">
<polygon fill="none" stroke="black" points="767,-207.5 767,-239.5 931,-239.5 931,-207.5 767,-207.5"/>
<text text-anchor="start" x="775" y="-226.7" font-family="-apple-system, BlinkMacSystemFont, 'Segoe UI', Roboto, Oxygen, Ubuntu, Cantarell, 'Fira Sans', 'Droid Sans', 'Helvetica Neue', sans-serif" font-size="11.00">libmirai/models/libmirai</text>
<text text-anchor="middle" x="849" y="-214.7" font-family="-apple-system, BlinkMacSystemFont, 'Segoe UI', Roboto, Oxygen, Ubuntu, Cantarell, 'Fira Sans', 'Droid Sans', 'Helvetica Neue', sans-serif" font-size="11.00">/Messages/MessageChain.hpp</text>
</a>
</g>
</g>
<!-- Node1&#45;&gt;Node5 -->
<g id="edge3" class="edge">
<title>Node1&#45;&gt;Node5</title>
<path fill="none" stroke="midnightblue" d="M849,-266.02C849,-257.13 849,-247.43 849,-239.64"/>
<polygon fill="midnightblue" stroke="midnightblue" points="845.5,-266.3 849,-276.3 852.5,-266.3 845.5,-266.3"/>
</g>
<!-- Node20 -->
<g id="node14" class="node">
<title>Node20</title>
<g id="a_node14"><a xlink:href="QuoteMessage_8cpp.html" target="_top" xlink:title=" ">
<polygon fill="none" stroke="black" points="1760,-138.5 1760,-170.5 1924,-170.5 1924,-138.5 1760,-138.5"/>
<text text-anchor="start" x="1768" y="-157.7" font-family="-apple-system, BlinkMacSystemFont, 'Segoe UI', Roboto, Oxygen, Ubuntu, Cantarell, 'Fira Sans', 'Droid Sans', 'Helvetica Neue', sans-serif" font-size="11.00">libmirai/models/libmirai</text>
<text text-anchor="middle" x="1842" y="-145.7" font-family="-apple-system, BlinkMacSystemFont, 'Segoe UI', Roboto, Oxygen, Ubuntu, Cantarell, 'Fira Sans', 'Droid Sans', 'Helvetica Neue', sans-serif" font-size="11.00">/Messages/QuoteMessage.cpp</text>
</a>
</g>
</g>
<!-- Node1&#45;&gt;Node20 -->
<g id="edge16" class="edge">
<title>Node1&#45;&gt;Node20</title>
<path fill="none" stroke="midnightblue" d="M941.56,-280.25C1105.13,-260.12 1455.91,-215.83 1751,-171 1753.85,-170.57 1756.75,-170.12 1759.68,-169.66"/>
<polygon fill="midnightblue" stroke="midnightblue" points="941.03,-276.79 931.53,-281.48 941.88,-283.73 941.03,-276.79"/>
</g>
<!-- Node3 -->
<g id="node3" class="node">
<title>Node3</title>
<g id="a_node3"><a xlink:href="models_8hpp.html" target="_top" xlink:title=" ">
<polygon fill="none" stroke="red" points="33,-0.5 33,-32.5 145,-32.5 145,-0.5 33,-0.5"/>
<text text-anchor="start" x="41" y="-19.7" font-family="-apple-system, BlinkMacSystemFont, 'Segoe UI', Roboto, Oxygen, Ubuntu, Cantarell, 'Fira Sans', 'Droid Sans', 'Helvetica Neue', sans-serif" font-size="11.00">libmirai/aggregates</text>
<text text-anchor="middle" x="89" y="-7.7" font-family="-apple-system, BlinkMacSystemFont, 'Segoe UI', Roboto, Oxygen, Ubuntu, Cantarell, 'Fira Sans', 'Droid Sans', 'Helvetica Neue', sans-serif" font-size="11.00">/libmirai/models.hpp</text>
</a>
</g>
</g>
<!-- Node2&#45;&gt;Node3 -->
<g id="edge2" class="edge">
<title>Node2&#45;&gt;Node3</title>
<path fill="none" stroke="midnightblue" d="M89,-59.02C89,-50.13 89,-40.43 89,-32.64"/>
<polygon fill="midnightblue" stroke="midnightblue" points="85.5,-59.3 89,-69.3 92.5,-59.3 85.5,-59.3"/>
</g>
<!-- Node5&#45;&gt;Node2 -->
<g id="edge4" class="edge">
<title>Node5&#45;&gt;Node2</title>
<path fill="none" stroke="midnightblue" d="M756.74,-222.15C569.02,-220.57 156.18,-212.37 108,-171 88.15,-153.96 86.51,-121.04 87.49,-101.71"/>
<polygon fill="midnightblue" stroke="midnightblue" points="756.85,-225.65 766.87,-222.23 756.9,-218.65 756.85,-225.65"/>
</g>
<!-- Node6 -->
<g id="node5" class="node">
<title>Node6</title>
<g id="a_node5"><a xlink:href="Client_8hpp.html" target="_top" xlink:title=" ">
<polygon fill="none" stroke="red" points="117,-138.5 117,-170.5 221,-170.5 221,-138.5 117,-138.5"/>
<text text-anchor="start" x="125" y="-157.7" font-family="-apple-system, BlinkMacSystemFont, 'Segoe UI', Roboto, Oxygen, Ubuntu, Cantarell, 'Fira Sans', 'Droid Sans', 'Helvetica Neue', sans-serif" font-size="11.00">libmirai/api/libmirai</text>
<text text-anchor="middle" x="169" y="-145.7" font-family="-apple-system, BlinkMacSystemFont, 'Segoe UI', Roboto, Oxygen, Ubuntu, Cantarell, 'Fira Sans', 'Droid Sans', 'Helvetica Neue', sans-serif" font-size="11.00">/Client/Client.hpp</text>
</a>
</g>
</g>
<!-- Node5&#45;&gt;Node6 -->
<g id="edge5" class="edge">
<title>Node5&#45;&gt;Node6</title>
<path fill="none" stroke="midnightblue" d="M756.85,-219.6C635.4,-214.7 415.43,-202.05 230,-171 227.09,-170.51 224.12,-169.96 221.12,-169.35"/>
<polygon fill="midnightblue" stroke="midnightblue" points="756.72,-223.1 766.85,-220 757,-216.1 756.72,-223.1"/>
</g>
<!-- Node8 -->
<g id="node6" class="node">
<title>Node8</title>
<g id="a_node6"><a xlink:href="CommandExecutedEvent_8hpp.html" target="_top" xlink:title=" ">
<polygon fill="none" stroke="red" points="239.5,-138.5 239.5,-170.5 436.5,-170.5 436.5,-138.5 239.5,-138.5"/>
<text text-anchor="start" x="247.5" y="-157.7" font-family="-apple-system, BlinkMacSystemFont, 'Segoe UI', Roboto, Oxygen, Ubuntu, Cantarell, 'Fira Sans', 'Droid Sans', 'Helvetica Neue', sans-serif" font-size="11.00">libmirai/models/libmirai</text>
<text text-anchor="middle" x="338" y="-145.7" font-family="-apple-system, BlinkMacSystemFont, 'Segoe UI', Roboto, Oxygen, Ubuntu, Cantarell, 'Fira Sans', 'Droid Sans', 'Helvetica Neue', sans-serif" font-size="11.00">/Events/CommandExecutedEvent.hpp</text>
</a>
</g>
</g>
<!-- Node5&#45;&gt;Node8 -->
<g id="edge6" class="edge">
<title>Node5&#45;&gt;Node8</title>
<path fill="none" stroke="midnightblue" d="M756.9,-211.21C674.97,-201.07 551.94,-185.56 445,-171 442.21,-170.62 439.38,-170.23 436.52,-169.84"/>
<polygon fill="midnightblue" stroke="midnightblue" points="756.57,-214.7 766.93,-212.45 757.43,-207.75 756.57,-214.7"/>
</g>
<!-- Node12 -->
<g id="node7" class="node">
<title>Node12</title>
<g id="a_node7"><a xlink:href="FriendEvents_8hpp.html" target="_top" xlink:title=" ">
<polygon fill="none" stroke="red" points="454.5,-138.5 454.5,-170.5 593.5,-170.5 593.5,-138.5 454.5,-138.5"/>
<text text-anchor="start" x="462.5" y="-157.7" font-family="-apple-system, BlinkMacSystemFont, 'Segoe UI', Roboto, Oxygen, Ubuntu, Cantarell, 'Fira Sans', 'Droid Sans', 'Helvetica Neue', sans-serif" font-size="11.00">libmirai/models/libmirai</text>
<text text-anchor="middle" x="524" y="-145.7" font-family="-apple-system, BlinkMacSystemFont, 'Segoe UI', Roboto, Oxygen, Ubuntu, Cantarell, 'Fira Sans', 'Droid Sans', 'Helvetica Neue', sans-serif" font-size="11.00">/Events/FriendEvents.hpp</text>
</a>
</g>
</g>
<!-- Node5&#45;&gt;Node12 -->
<g id="edge7" class="edge">
<title>Node5&#45;&gt;Node12</title>
<path fill="none" stroke="midnightblue" d="M765.95,-205.38C712.61,-194.38 644.12,-180.26 593.63,-169.85"/>
<polygon fill="midnightblue" stroke="midnightblue" points="765.56,-208.87 776.06,-207.46 766.98,-202.02 765.56,-208.87"/>
</g>
<!-- Node13 -->
<g id="node8" class="node">
<title>Node13</title>
<g id="a_node8"><a xlink:href="GroupEvents_8hpp.html" target="_top" xlink:title=" ">
<polygon fill="none" stroke="red" points="612,-138.5 612,-170.5 750,-170.5 750,-138.5 612,-138.5"/>
<text text-anchor="start" x="620" y="-157.7" font-family="-apple-system, BlinkMacSystemFont, 'Segoe UI', Roboto, Oxygen, Ubuntu, Cantarell, 'Fira Sans', 'Droid Sans', 'Helvetica Neue', sans-serif" font-size="11.00">libmirai/models/libmirai</text>
<text text-anchor="middle" x="681" y="-145.7" font-family="-apple-system, BlinkMacSystemFont, 'Segoe UI', Roboto, Oxygen, Ubuntu, Cantarell, 'Fira Sans', 'Droid Sans', 'Helvetica Neue', sans-serif" font-size="11.00">/Events/GroupEvents.hpp</text>
</a>
</g>
</g>
<!-- Node5&#45;&gt;Node13 -->
<g id="edge8" class="edge">
<title>Node5&#45;&gt;Node13</title>
<path fill="none" stroke="midnightblue" d="M801.93,-203.73C775.69,-193.26 743.46,-180.41 718.87,-170.6"/>
<polygon fill="midnightblue" stroke="midnightblue" points="800.71,-207.01 811.3,-207.46 803.31,-200.51 800.71,-207.01"/>
</g>
<!-- Node14 -->
<g id="node9" class="node">
<title>Node14</title>
<g id="a_node9"><a xlink:href="OtherClientEvents_8hpp.html" target="_top" xlink:title=" ">
<polygon fill="none" stroke="red" points="768,-138.5 768,-170.5 930,-170.5 930,-138.5 768,-138.5"/>
<text text-anchor="start" x="776" y="-157.7" font-family="-apple-system, BlinkMacSystemFont, 'Segoe UI', Roboto, Oxygen, Ubuntu, Cantarell, 'Fira Sans', 'Droid Sans', 'Helvetica Neue', sans-serif" font-size="11.00">libmirai/models/libmirai</text>
<text text-anchor="middle" x="849" y="-145.7" font-family="-apple-system, BlinkMacSystemFont, 'Segoe UI', Roboto, Oxygen, Ubuntu, Cantarell, 'Fira Sans', 'Droid Sans', 'Helvetica Neue', sans-serif" font-size="11.00">/Events/OtherClientEvents.hpp</text>
</a>
</g>
</g>
<!-- Node5&#45;&gt;Node14 -->
<g id="edge9" class="edge">
<title>Node5&#45;&gt;Node14</title>
<path fill="none" stroke="midnightblue" d="M849,-197.02C849,-188.13 849,-178.43 849,-170.64"/>
<polygon fill="midnightblue" stroke="midnightblue" points="845.5,-197.3 849,-207.3 852.5,-197.3 845.5,-197.3"/>
</g>
<!-- Node15 -->
<g id="node10" class="node">
<title>Node15</title>
<g id="a_node10"><a xlink:href="StrangerMessageEvents_8hpp.html" target="_top" xlink:title=" ">
<polygon fill="none" stroke="red" points="948,-138.5 948,-170.5 1142,-170.5 1142,-138.5 948,-138.5"/>
<text text-anchor="start" x="956" y="-157.7" font-family="-apple-system, BlinkMacSystemFont, 'Segoe UI', Roboto, Oxygen, Ubuntu, Cantarell, 'Fira Sans', 'Droid Sans', 'Helvetica Neue', sans-serif" font-size="11.00">libmirai/models/libmirai</text>
<text text-anchor="middle" x="1045" y="-145.7" font-family="-apple-system, BlinkMacSystemFont, 'Segoe UI', Roboto, Oxygen, Ubuntu, Cantarell, 'Fira Sans', 'Droid Sans', 'Helvetica Neue', sans-serif" font-size="11.00">/Events/StrangerMessageEvents.hpp</text>
</a>
</g>
</g>
<!-- Node5&#45;&gt;Node15 -->
<g id="edge10" class="edge">
<title>Node5&#45;&gt;Node15</title>
<path fill="none" stroke="midnightblue" d="M902.71,-204.14C933.53,-193.6 971.76,-180.54 1000.82,-170.6"/>
<polygon fill="midnightblue" stroke="midnightblue" points="901.32,-200.92 892.99,-207.46 903.58,-207.54 901.32,-200.92"/>
</g>
<!-- Node16 -->
<g id="node11" class="node">
<title>Node16</title>
<g id="a_node11"><a xlink:href="TempMessageEvents_8hpp.html" target="_top" xlink:title=" ">
<polygon fill="none" stroke="red" points="1160.5,-138.5 1160.5,-170.5 1339.5,-170.5 1339.5,-138.5 1160.5,-138.5"/>
<text text-anchor="start" x="1168.5" y="-157.7" font-family="-apple-system, BlinkMacSystemFont, 'Segoe UI', Roboto, Oxygen, Ubuntu, Cantarell, 'Fira Sans', 'Droid Sans', 'Helvetica Neue', sans-serif" font-size="11.00">libmirai/models/libmirai</text>
<text text-anchor="middle" x="1250" y="-145.7" font-family="-apple-system, BlinkMacSystemFont, 'Segoe UI', Roboto, Oxygen, Ubuntu, Cantarell, 'Fira Sans', 'Droid Sans', 'Helvetica Neue', sans-serif" font-size="11.00">/Events/TempMessageEvents.hpp</text>
</a>
</g>
</g>
<!-- Node5&#45;&gt;Node16 -->
<g id="edge11" class="edge">
<title>Node5&#45;&gt;Node16</title>
<path fill="none" stroke="midnightblue" d="M941.07,-207.12C1006.9,-196.12 1095.04,-181.39 1160.32,-170.48"/>
<polygon fill="midnightblue" stroke="midnightblue" points="940.4,-203.68 931.12,-208.78 941.56,-210.58 940.4,-203.68"/>
</g>
<!-- Node17 -->
<g id="node12" class="node">
<title>Node17</title>
<g id="a_node12"><a xlink:href="ForwardMessageNode_8hpp.html" target="_top" xlink:title=" ">
<polygon fill="none" stroke="red" points="1357.5,-138.5 1357.5,-170.5 1560.5,-170.5 1560.5,-138.5 1357.5,-138.5"/>
<text text-anchor="start" x="1365.5" y="-157.7" font-family="-apple-system, BlinkMacSystemFont, 'Segoe UI', Roboto, Oxygen, Ubuntu, Cantarell, 'Fira Sans', 'Droid Sans', 'Helvetica Neue', sans-serif" font-size="11.00">libmirai/models/libmirai</text>
<text text-anchor="middle" x="1459" y="-145.7" font-family="-apple-system, BlinkMacSystemFont, 'Segoe UI', Roboto, Oxygen, Ubuntu, Cantarell, 'Fira Sans', 'Droid Sans', 'Helvetica Neue', sans-serif" font-size="11.00">/Messages/ForwardMessageNode.hpp</text>
</a>
</g>
</g>
<!-- Node5&#45;&gt;Node17 -->
<g id="edge12" class="edge">
<title>Node5&#45;&gt;Node17</title>
<path fill="none" stroke="midnightblue" d="M941.51,-214.01C1041.95,-204.56 1207.05,-188.31 1349,-171 1351.78,-170.66 1354.59,-170.31 1357.43,-169.95"/>
<polygon fill="midnightblue" stroke="midnightblue" points="941.02,-210.55 931.39,-214.97 941.67,-217.51 941.02,-210.55"/>
</g>
<!-- Node19 -->
<g id="node13" class="node">
<title>Node19</title>
<g id="a_node13"><a xlink:href="MessageChain_8cpp.html" target="_top" xlink:title=" ">
<polygon fill="none" stroke="black" points="1578.5,-138.5 1578.5,-170.5 1741.5,-170.5 1741.5,-138.5 1578.5,-138.5"/>
<text text-anchor="start" x="1586.5" y="-157.7" font-family="-apple-system, BlinkMacSystemFont, 'Segoe UI', Roboto, Oxygen, Ubuntu, Cantarell, 'Fira Sans', 'Droid Sans', 'Helvetica Neue', sans-serif" font-size="11.00">libmirai/models/libmirai</text>
<text text-anchor="middle" x="1660" y="-145.7" font-family="-apple-system, BlinkMacSystemFont, 'Segoe UI', Roboto, Oxygen, Ubuntu, Cantarell, 'Fira Sans', 'Droid Sans', 'Helvetica Neue', sans-serif" font-size="11.00">/Messages/MessageChain.cpp</text>
</a>
</g>
</g>
<!-- Node5&#45;&gt;Node19 -->
<g id="edge14" class="edge">
<title>Node5&#45;&gt;Node19</title>
<path fill="none" stroke="midnightblue" d="M941.23,-218.84C1078.62,-212.74 1345.01,-198.34 1570,-171 1572.68,-170.67 1575.39,-170.32 1578.13,-169.95"/>
<polygon fill="midnightblue" stroke="midnightblue" points="941,-215.35 931.16,-219.29 941.3,-222.34 941,-215.35"/>
</g>
<!-- Node5&#45;&gt;Node20 -->
<g id="edge15" class="edge">
<title>Node5&#45;&gt;Node20</title>
<path fill="none" stroke="midnightblue" d="M941.06,-220.64C1104.56,-216.57 1456.18,-204.42 1751,-171 1753.87,-170.68 1756.78,-170.32 1759.72,-169.94"/>
<polygon fill="midnightblue" stroke="midnightblue" points="940.95,-217.14 931.03,-220.88 941.12,-224.14 940.95,-217.14"/>
</g>
<!-- Node17&#45;&gt;Node2 -->
<g id="edge13" class="edge">
<title>Node17&#45;&gt;Node2</title>
<path fill="none" stroke="midnightblue" d="M1347.3,-137.9C903.07,-98.15 383.03,-89.17 178.18,-87.11"/>
<polygon fill="midnightblue" stroke="midnightblue" points="1347.18,-141.41 1357.45,-138.82 1347.81,-134.43 1347.18,-141.41"/>
</g>
</g>
</svg>
