<?xml version="1.0" encoding="UTF-8" standalone="no"?>
<!DOCTYPE svg PUBLIC "-//W3C//DTD SVG 1.1//EN"
 "http://www.w3.org/Graphics/SVG/1.1/DTD/svg11.dtd">
<!-- Generated by graphviz version 2.43.0 (0)
 -->
<!-- Title: libmirai/public/libmirai/Messages/QuoteMessage.hpp Pages: 1 -->
<svg width="2269pt" height="395pt"
 viewBox="0.00 0.00 2269.00 395.00" xmlns="http://www.w3.org/2000/svg" xmlns:xlink="http://www.w3.org/1999/xlink">
<g id="graph0" class="graph" transform="scale(1 1) rotate(0) translate(4 391)">
<title>libmirai/public/libmirai/Messages/QuoteMessage.hpp</title>
<!-- Node1 -->
<g id="node1" class="node">
<title>Node1</title>
<g id="a_node1"><a xlink:title=" ">
<polygon fill="#bfbfbf" stroke="black" points="1303.5,-354.5 1303.5,-386.5 1488.5,-386.5 1488.5,-354.5 1303.5,-354.5"/>
<text text-anchor="start" x="1311.5" y="-373.7" font-family="-apple-system,BlinkMacSystemFont,'SegoeUI',Roboto,Oxygen,Ubuntu,Cantarell,'FiraSans','DroidSans','HelveticaNeue',sans-serif" font-size="11.00">libmirai/public/libmirai</text>
<text text-anchor="middle" x="1396" y="-361.7" font-family="-apple-system,BlinkMacSystemFont,'SegoeUI',Roboto,Oxygen,Ubuntu,Cantarell,'FiraSans','DroidSans','HelveticaNeue',sans-serif" font-size="11.00">/Messages/QuoteMessage.hpp</text>
</a>
</g>
</g>
<!-- Node2 -->
<g id="node2" class="node">
<title>Node2</title>
<g id="a_node2"><a xlink:title=" ">
<polygon fill="none" stroke="#bfbfbf" points="925,-57.5 925,-77.5 973,-77.5 973,-57.5 925,-57.5"/>
<text text-anchor="middle" x="949" y="-64.7" font-family="-apple-system,BlinkMacSystemFont,'SegoeUI',Roboto,Oxygen,Ubuntu,Cantarell,'FiraSans','DroidSans','HelveticaNeue',sans-serif" font-size="11.00">string</text>
</a>
</g>
</g>
<!-- Node1&#45;&gt;Node2 -->
<g id="edge1" class="edge">
<title>Node1&#45;&gt;Node2</title>
<path fill="none" stroke="midnightblue" d="M1303.32,-366.13C991.53,-354.21 0,-311.12 0,-245.5 0,-245.5 0,-245.5 0,-180.5 0,-86.5 743.8,-71.16 914.41,-68.87"/>
<polygon fill="midnightblue" stroke="midnightblue" points="914.63,-72.37 924.59,-68.74 914.54,-65.37 914.63,-72.37"/>
</g>
<!-- Node3 -->
<g id="node3" class="node">
<title>Node3</title>
<g id="a_node3"><a xlink:title=" ">
<polygon fill="none" stroke="#bfbfbf" points="1141,-0.5 1141,-20.5 1287,-20.5 1287,-0.5 1141,-0.5"/>
<text text-anchor="middle" x="1214" y="-7.7" font-family="-apple-system,BlinkMacSystemFont,'SegoeUI',Roboto,Oxygen,Ubuntu,Cantarell,'FiraSans','DroidSans','HelveticaNeue',sans-serif" font-size="11.00">nlohmann/json_fwd.hpp</text>
</a>
</g>
</g>
<!-- Node1&#45;&gt;Node3 -->
<g id="edge2" class="edge">
<title>Node1&#45;&gt;Node3</title>
<path fill="none" stroke="midnightblue" d="M1488.57,-365.81C1711.72,-355.67 2261,-322.87 2261,-245.5 2261,-245.5 2261,-245.5 2261,-123.5 2261,-84.86 2239.65,-74.1 2205,-57 2124.71,-17.38 1521.08,-12.1 1297.21,-11.52"/>
<polygon fill="midnightblue" stroke="midnightblue" points="1297.17,-8.02 1287.16,-11.5 1297.15,-15.02 1297.17,-8.02"/>
</g>
<!-- Node4 -->
<g id="node4" class="node">
<title>Node4</title>
<g id="a_node4"><a xlink:href="BasicTypes_8hpp.html" target="_top" xlink:title=" ">
<polygon fill="none" stroke="black" points="1899.5,-114.5 1899.5,-134.5 2080.5,-134.5 2080.5,-114.5 1899.5,-114.5"/>
<text text-anchor="middle" x="1990" y="-121.7" font-family="-apple-system,BlinkMacSystemFont,'SegoeUI',Roboto,Oxygen,Ubuntu,Cantarell,'FiraSans','DroidSans','HelveticaNeue',sans-serif" font-size="11.00">libmirai/Types/BasicTypes.hpp</text>
</a>
</g>
</g>
<!-- Node1&#45;&gt;Node4 -->
<g id="edge3" class="edge">
<title>Node1&#45;&gt;Node4</title>
<path fill="none" stroke="midnightblue" d="M1488.81,-363.16C1683.86,-348.9 2122.08,-311.54 2166,-261 2213.4,-206.46 2097.11,-159.17 2031.37,-137.73"/>
<polygon fill="midnightblue" stroke="midnightblue" points="2032.27,-134.34 2021.68,-134.64 2030.14,-141.01 2032.27,-134.34"/>
</g>
<!-- Node8 -->
<g id="node8" class="node">
<title>Node8</title>
<g id="a_node8"><a xlink:href="MessageBase_8hpp.html" target="_top" xlink:title=" ">
<polygon fill="none" stroke="black" points="839,-114.5 839,-134.5 955,-134.5 955,-114.5 839,-114.5"/>
<text text-anchor="middle" x="897" y="-121.7" font-family="-apple-system,BlinkMacSystemFont,'SegoeUI',Roboto,Oxygen,Ubuntu,Cantarell,'FiraSans','DroidSans','HelveticaNeue',sans-serif" font-size="11.00">MessageBase.hpp</text>
</a>
</g>
</g>
<!-- Node1&#45;&gt;Node8 -->
<g id="edge10" class="edge">
<title>Node1&#45;&gt;Node8</title>
<path fill="none" stroke="midnightblue" d="M1303.87,-354.46C1220.36,-338.55 1095.36,-309.01 995,-261 947.93,-238.48 924.74,-237.95 900,-192 892.22,-177.55 892.15,-158.66 893.63,-144.71"/>
<polygon fill="midnightblue" stroke="midnightblue" points="897.1,-145.15 895.03,-134.76 890.17,-144.17 897.1,-145.15"/>
</g>
<!-- Node10 -->
<g id="node10" class="node">
<title>Node10</title>
<g id="a_node10"><a xlink:href="MessageChain_8hpp.html" target="_top" xlink:title=" ">
<polygon fill="none" stroke="black" points="1336,-297.5 1336,-317.5 1456,-317.5 1456,-297.5 1336,-297.5"/>
<text text-anchor="middle" x="1396" y="-304.7" font-family="-apple-system,BlinkMacSystemFont,'SegoeUI',Roboto,Oxygen,Ubuntu,Cantarell,'FiraSans','DroidSans','HelveticaNeue',sans-serif" font-size="11.00">MessageChain.hpp</text>
</a>
</g>
</g>
<!-- Node1&#45;&gt;Node10 -->
<g id="edge15" class="edge">
<title>Node1&#45;&gt;Node10</title>
<path fill="none" stroke="midnightblue" d="M1396,-354.42C1396,-346.38 1396,-336.39 1396,-327.78"/>
<polygon fill="midnightblue" stroke="midnightblue" points="1399.5,-327.55 1396,-317.55 1392.5,-327.55 1399.5,-327.55"/>
</g>
<!-- Node4&#45;&gt;Node2 -->
<g id="edge6" class="edge">
<title>Node4&#45;&gt;Node2</title>
<path fill="none" stroke="midnightblue" d="M1899.43,-120.63C1675.74,-113.37 1106.83,-93.84 983.25,-77.62"/>
<polygon fill="midnightblue" stroke="midnightblue" points="983.4,-74.11 973,-76.12 982.38,-81.04 983.4,-74.11"/>
</g>
<!-- Node4&#45;&gt;Node3 -->
<g id="edge7" class="edge">
<title>Node4&#45;&gt;Node3</title>
<path fill="none" stroke="midnightblue" d="M1990.28,-114.42C1990.17,-99.71 1987.59,-70.91 1970,-57 1918.26,-16.06 1482.96,-11.35 1297.33,-11.22"/>
<polygon fill="midnightblue" stroke="midnightblue" points="1297.08,-7.72 1287.08,-11.22 1297.08,-14.72 1297.08,-7.72"/>
</g>
<!-- Node5 -->
<g id="node5" class="node">
<title>Node5</title>
<g id="a_node5"><a xlink:title=" ">
<polygon fill="none" stroke="#bfbfbf" points="2018,-57.5 2018,-77.5 2072,-77.5 2072,-57.5 2018,-57.5"/>
<text text-anchor="middle" x="2045" y="-64.7" font-family="-apple-system,BlinkMacSystemFont,'SegoeUI',Roboto,Oxygen,Ubuntu,Cantarell,'FiraSans','DroidSans','HelveticaNeue',sans-serif" font-size="11.00">chrono</text>
</a>
</g>
</g>
<!-- Node4&#45;&gt;Node5 -->
<g id="edge4" class="edge">
<title>Node4&#45;&gt;Node5</title>
<path fill="none" stroke="midnightblue" d="M1999.08,-114.42C2007.08,-106.42 2018.91,-94.59 2028.56,-84.94"/>
<polygon fill="midnightblue" stroke="midnightblue" points="2031.12,-87.33 2035.72,-77.78 2026.17,-82.38 2031.12,-87.33"/>
</g>
<!-- Node6 -->
<g id="node6" class="node">
<title>Node6</title>
<g id="a_node6"><a xlink:title=" ">
<polygon fill="none" stroke="#bfbfbf" points="2149.5,-57.5 2149.5,-77.5 2196.5,-77.5 2196.5,-57.5 2149.5,-57.5"/>
<text text-anchor="middle" x="2173" y="-64.7" font-family="-apple-system,BlinkMacSystemFont,'SegoeUI',Roboto,Oxygen,Ubuntu,Cantarell,'FiraSans','DroidSans','HelveticaNeue',sans-serif" font-size="11.00">ctime</text>
</a>
</g>
</g>
<!-- Node4&#45;&gt;Node6 -->
<g id="edge5" class="edge">
<title>Node4&#45;&gt;Node6</title>
<path fill="none" stroke="midnightblue" d="M2020.22,-114.42C2053.06,-104.55 2105.4,-88.82 2139.49,-78.57"/>
<polygon fill="midnightblue" stroke="midnightblue" points="2140.87,-81.81 2149.44,-75.58 2138.85,-75.11 2140.87,-81.81"/>
</g>
<!-- Node7 -->
<g id="node7" class="node">
<title>Node7</title>
<g id="a_node7"><a xlink:href="Serializable_8hpp.html" target="_top" xlink:title=" ">
<polygon fill="none" stroke="black" points="1778.5,-57.5 1778.5,-77.5 1961.5,-77.5 1961.5,-57.5 1778.5,-57.5"/>
<text text-anchor="middle" x="1870" y="-64.7" font-family="-apple-system,BlinkMacSystemFont,'SegoeUI',Roboto,Oxygen,Ubuntu,Cantarell,'FiraSans','DroidSans','HelveticaNeue',sans-serif" font-size="11.00">libmirai/Types/Serializable.hpp</text>
</a>
</g>
</g>
<!-- Node4&#45;&gt;Node7 -->
<g id="edge8" class="edge">
<title>Node4&#45;&gt;Node7</title>
<path fill="none" stroke="midnightblue" d="M1970.18,-114.42C1950.82,-105.54 1921.11,-91.93 1899.07,-81.82"/>
<polygon fill="midnightblue" stroke="midnightblue" points="1900.39,-78.58 1889.84,-77.6 1897.48,-84.94 1900.39,-78.58"/>
</g>
<!-- Node7&#45;&gt;Node3 -->
<g id="edge9" class="edge">
<title>Node7&#45;&gt;Node3</title>
<path fill="none" stroke="midnightblue" d="M1778.36,-58.25C1773.5,-57.82 1768.69,-57.4 1764,-57 1598.7,-42.76 1405.37,-26.96 1297.57,-18.23"/>
<polygon fill="midnightblue" stroke="midnightblue" points="1297.66,-14.73 1287.41,-17.41 1297.09,-21.71 1297.66,-14.73"/>
</g>
<!-- Node8&#45;&gt;Node2 -->
<g id="edge12" class="edge">
<title>Node8&#45;&gt;Node2</title>
<path fill="none" stroke="midnightblue" d="M905.59,-114.42C913.07,-106.5 924.11,-94.82 933.19,-85.23"/>
<polygon fill="midnightblue" stroke="midnightblue" points="935.9,-87.45 940.23,-77.78 930.81,-82.64 935.9,-87.45"/>
</g>
<!-- Node8&#45;&gt;Node3 -->
<g id="edge13" class="edge">
<title>Node8&#45;&gt;Node3</title>
<path fill="none" stroke="midnightblue" d="M896.73,-114.14C896.86,-99.57 899.42,-71.6 916,-57 947.11,-29.61 1053.79,-18.69 1130.63,-14.35"/>
<polygon fill="midnightblue" stroke="midnightblue" points="1130.99,-17.84 1140.79,-13.81 1130.62,-10.85 1130.99,-17.84"/>
</g>
<!-- Node8&#45;&gt;Node7 -->
<g id="edge14" class="edge">
<title>Node8&#45;&gt;Node7</title>
<path fill="none" stroke="midnightblue" d="M955.31,-120.2C1115.78,-111.13 1565.43,-85.72 1768.36,-74.25"/>
<polygon fill="midnightblue" stroke="midnightblue" points="1768.64,-77.74 1778.42,-73.68 1768.24,-70.75 1768.64,-77.74"/>
</g>
<!-- Node9 -->
<g id="node9" class="node">
<title>Node9</title>
<g id="a_node9"><a xlink:title=" ">
<polygon fill="none" stroke="#bfbfbf" points="991,-57.5 991,-77.5 1053,-77.5 1053,-57.5 991,-57.5"/>
<text text-anchor="middle" x="1022" y="-64.7" font-family="-apple-system,BlinkMacSystemFont,'SegoeUI',Roboto,Oxygen,Ubuntu,Cantarell,'FiraSans','DroidSans','HelveticaNeue',sans-serif" font-size="11.00">memory</text>
</a>
</g>
</g>
<!-- Node8&#45;&gt;Node9 -->
<g id="edge11" class="edge">
<title>Node8&#45;&gt;Node9</title>
<path fill="none" stroke="midnightblue" d="M917.64,-114.42C937.91,-105.5 969.04,-91.8 992.03,-81.69"/>
<polygon fill="midnightblue" stroke="midnightblue" points="993.58,-84.83 1001.33,-77.6 990.77,-78.42 993.58,-84.83"/>
</g>
<!-- Node10&#45;&gt;Node3 -->
<g id="edge24" class="edge">
<title>Node10&#45;&gt;Node3</title>
<path fill="none" stroke="midnightblue" d="M1423.12,-297.35C1444.29,-289.51 1473.89,-276.95 1497,-261 1514.07,-249.21 1511.82,-237.98 1530,-228 1596.91,-191.27 1736.23,-233.2 1692,-171 1602.4,-45 1408.7,-16.95 1297.33,-11.66"/>
<polygon fill="midnightblue" stroke="midnightblue" points="1297.29,-8.16 1287.15,-11.23 1296.99,-15.15 1297.29,-8.16"/>
</g>
<!-- Node10&#45;&gt;Node6 -->
<g id="edge17" class="edge">
<title>Node10&#45;&gt;Node6</title>
<path fill="none" stroke="midnightblue" d="M1456.09,-305.13C1633.03,-300.82 2141.28,-286.29 2166,-261 2211.75,-214.2 2191.65,-126.47 2179.64,-87.73"/>
<polygon fill="midnightblue" stroke="midnightblue" points="2182.82,-86.2 2176.39,-77.77 2176.16,-88.37 2182.82,-86.2"/>
</g>
<!-- Node10&#45;&gt;Node8 -->
<g id="edge67" class="edge">
<title>Node10&#45;&gt;Node8</title>
<path fill="none" stroke="midnightblue" d="M1335.91,-301.35C1274.39,-295.17 1176.4,-282.81 1094,-261 1073.39,-255.55 929.27,-207.83 915,-192 903.39,-179.12 899.15,-159.49 897.67,-144.89"/>
<polygon fill="midnightblue" stroke="midnightblue" points="901.16,-144.64 896.99,-134.9 894.17,-145.12 901.16,-144.64"/>
</g>
<!-- Node10&#45;&gt;Node9 -->
<g id="edge18" class="edge">
<title>Node10&#45;&gt;Node9</title>
<path fill="none" stroke="midnightblue" d="M1456.33,-302.26C1538.24,-295.81 1679.85,-282.02 1727,-261 1747.74,-251.75 1746.24,-239.18 1766,-228 1812.56,-201.66 1905.88,-212.39 1872,-171 1820.06,-107.55 1226.17,-77.33 1063.16,-70.19"/>
<polygon fill="midnightblue" stroke="midnightblue" points="1063.2,-66.69 1053.06,-69.76 1062.9,-73.69 1063.2,-66.69"/>
</g>
<!-- Node11 -->
<g id="node11" class="node">
<title>Node11</title>
<g id="a_node11"><a xlink:title=" ">
<polygon fill="none" stroke="#bfbfbf" points="1582.5,-234.5 1582.5,-254.5 1639.5,-254.5 1639.5,-234.5 1582.5,-234.5"/>
<text text-anchor="middle" x="1611" y="-241.7" font-family="-apple-system,BlinkMacSystemFont,'SegoeUI',Roboto,Oxygen,Ubuntu,Cantarell,'FiraSans','DroidSans','HelveticaNeue',sans-serif" font-size="11.00">cstddef</text>
</a>
</g>
</g>
<!-- Node10&#45;&gt;Node11 -->
<g id="edge16" class="edge">
<title>Node10&#45;&gt;Node11</title>
<path fill="none" stroke="midnightblue" d="M1433.85,-297.5C1468.88,-288.93 1522.29,-275.25 1568,-261 1571.11,-260.03 1574.32,-258.98 1577.53,-257.89"/>
<polygon fill="midnightblue" stroke="midnightblue" points="1578.74,-261.17 1587.02,-254.56 1576.42,-254.56 1578.74,-261.17"/>
</g>
<!-- Node12 -->
<g id="node12" class="node">
<title>Node12</title>
<g id="a_node12"><a xlink:title=" ">
<polygon fill="none" stroke="#bfbfbf" points="1657.5,-234.5 1657.5,-254.5 1718.5,-254.5 1718.5,-234.5 1657.5,-234.5"/>
<text text-anchor="middle" x="1688" y="-241.7" font-family="-apple-system,BlinkMacSystemFont,'SegoeUI',Roboto,Oxygen,Ubuntu,Cantarell,'FiraSans','DroidSans','HelveticaNeue',sans-serif" font-size="11.00">optional</text>
</a>
</g>
</g>
<!-- Node10&#45;&gt;Node12 -->
<g id="edge19" class="edge">
<title>Node10&#45;&gt;Node12</title>
<path fill="none" stroke="midnightblue" d="M1456.05,-298.95C1507.57,-291.7 1583.48,-279.14 1648,-261 1650.99,-260.16 1654.06,-259.18 1657.11,-258.14"/>
<polygon fill="midnightblue" stroke="midnightblue" points="1658.48,-261.36 1666.67,-254.63 1656.07,-254.79 1658.48,-261.36"/>
</g>
<!-- Node13 -->
<g id="node13" class="node">
<title>Node13</title>
<g id="a_node13"><a xlink:title=" ">
<polygon fill="none" stroke="#bfbfbf" points="1493.5,-171.5 1493.5,-191.5 1564.5,-191.5 1564.5,-171.5 1493.5,-171.5"/>
<text text-anchor="middle" x="1529" y="-178.7" font-family="-apple-system,BlinkMacSystemFont,'SegoeUI',Roboto,Oxygen,Ubuntu,Cantarell,'FiraSans','DroidSans','HelveticaNeue',sans-serif" font-size="11.00">stdexcept</text>
</a>
</g>
</g>
<!-- Node10&#45;&gt;Node13 -->
<g id="edge20" class="edge">
<title>Node10&#45;&gt;Node13</title>
<path fill="none" stroke="midnightblue" d="M1402.89,-297.14C1414.48,-281.72 1439.09,-250.46 1464,-228 1476.68,-216.57 1492.31,-205.54 1505.07,-197.21"/>
<polygon fill="midnightblue" stroke="midnightblue" points="1507.23,-199.98 1513.77,-191.65 1503.46,-194.08 1507.23,-199.98"/>
</g>
<!-- Node14 -->
<g id="node14" class="node">
<title>Node14</title>
<g id="a_node14"><a xlink:title=" ">
<polygon fill="none" stroke="#bfbfbf" points="1775,-234.5 1775,-254.5 1851,-254.5 1851,-234.5 1775,-234.5"/>
<text text-anchor="middle" x="1813" y="-241.7" font-family="-apple-system,BlinkMacSystemFont,'SegoeUI',Roboto,Oxygen,Ubuntu,Cantarell,'FiraSans','DroidSans','HelveticaNeue',sans-serif" font-size="11.00">type_traits</text>
</a>
</g>
</g>
<!-- Node10&#45;&gt;Node14 -->
<g id="edge21" class="edge">
<title>Node10&#45;&gt;Node14</title>
<path fill="none" stroke="midnightblue" d="M1456.25,-302.07C1529.03,-296.01 1654.91,-283.26 1761,-261 1765.82,-259.99 1770.83,-258.75 1775.77,-257.41"/>
<polygon fill="midnightblue" stroke="midnightblue" points="1777.04,-260.68 1785.69,-254.56 1775.11,-253.95 1777.04,-260.68"/>
</g>
<!-- Node15 -->
<g id="node15" class="node">
<title>Node15</title>
<g id="a_node15"><a xlink:title=" ">
<polygon fill="none" stroke="#bfbfbf" points="1869,-234.5 1869,-254.5 1917,-254.5 1917,-234.5 1869,-234.5"/>
<text text-anchor="middle" x="1893" y="-241.7" font-family="-apple-system,BlinkMacSystemFont,'SegoeUI',Roboto,Oxygen,Ubuntu,Cantarell,'FiraSans','DroidSans','HelveticaNeue',sans-serif" font-size="11.00">utility</text>
</a>
</g>
</g>
<!-- Node10&#45;&gt;Node15 -->
<g id="edge22" class="edge">
<title>Node10&#45;&gt;Node15</title>
<path fill="none" stroke="midnightblue" d="M1456.14,-307.08C1545.76,-306.49 1718.94,-299.8 1860,-261 1862.46,-260.32 1864.96,-259.48 1867.42,-258.53"/>
<polygon fill="midnightblue" stroke="midnightblue" points="1868.86,-261.73 1876.64,-254.53 1866.07,-255.3 1868.86,-261.73"/>
</g>
<!-- Node16 -->
<g id="node16" class="node">
<title>Node16</title>
<g id="a_node16"><a xlink:title=" ">
<polygon fill="none" stroke="#bfbfbf" points="1935,-234.5 1935,-254.5 1987,-254.5 1987,-234.5 1935,-234.5"/>
<text text-anchor="middle" x="1961" y="-241.7" font-family="-apple-system,BlinkMacSystemFont,'SegoeUI',Roboto,Oxygen,Ubuntu,Cantarell,'FiraSans','DroidSans','HelveticaNeue',sans-serif" font-size="11.00">vector</text>
</a>
</g>
</g>
<!-- Node10&#45;&gt;Node16 -->
<g id="edge23" class="edge">
<title>Node10&#45;&gt;Node16</title>
<path fill="none" stroke="midnightblue" d="M1456.16,-303.84C1575.58,-298.14 1838.56,-283.45 1926,-261 1928.68,-260.31 1931.42,-259.44 1934.12,-258.45"/>
<polygon fill="midnightblue" stroke="midnightblue" points="1935.68,-261.6 1943.6,-254.56 1933.02,-255.12 1935.68,-261.6"/>
</g>
<!-- Node17 -->
<g id="node17" class="node">
<title>Node17</title>
<g id="a_node17"><a xlink:href="Exceptions_8hpp.html" target="_top" xlink:title=" ">
<polygon fill="none" stroke="black" points="1292,-228.5 1292,-260.5 1412,-260.5 1412,-228.5 1292,-228.5"/>
<text text-anchor="start" x="1300" y="-247.7" font-family="-apple-system,BlinkMacSystemFont,'SegoeUI',Roboto,Oxygen,Ubuntu,Cantarell,'FiraSans','DroidSans','HelveticaNeue',sans-serif" font-size="11.00">libmirai/Exceptions</text>
<text text-anchor="middle" x="1352" y="-235.7" font-family="-apple-system,BlinkMacSystemFont,'SegoeUI',Roboto,Oxygen,Ubuntu,Cantarell,'FiraSans','DroidSans','HelveticaNeue',sans-serif" font-size="11.00">/Exceptions.hpp</text>
</a>
</g>
</g>
<!-- Node10&#45;&gt;Node17 -->
<g id="edge25" class="edge">
<title>Node10&#45;&gt;Node17</title>
<path fill="none" stroke="midnightblue" d="M1389.51,-297.5C1384.11,-290.01 1376.18,-279.02 1368.99,-269.06"/>
<polygon fill="midnightblue" stroke="midnightblue" points="1371.65,-266.75 1362.96,-260.69 1365.97,-270.85 1371.65,-266.75"/>
</g>
<!-- Node18 -->
<g id="node18" class="node">
<title>Node18</title>
<g id="a_node18"><a xlink:href="AppMessage_8hpp.html" target="_top" xlink:title=" ">
<polygon fill="none" stroke="black" points="1327,-171.5 1327,-191.5 1437,-191.5 1437,-171.5 1327,-171.5"/>
<text text-anchor="middle" x="1382" y="-178.7" font-family="-apple-system,BlinkMacSystemFont,'SegoeUI',Roboto,Oxygen,Ubuntu,Cantarell,'FiraSans','DroidSans','HelveticaNeue',sans-serif" font-size="11.00">AppMessage.hpp</text>
</a>
</g>
</g>
<!-- Node10&#45;&gt;Node18 -->
<g id="edge28" class="edge">
<title>Node10&#45;&gt;Node18</title>
<path fill="none" stroke="midnightblue" d="M1339.18,-297.44C1317.89,-290.98 1295.78,-279.93 1283,-261 1274.79,-248.85 1275.09,-240.35 1283,-228 1293.16,-212.14 1310.4,-201.74 1327.66,-194.94"/>
<polygon fill="midnightblue" stroke="midnightblue" points="1328.97,-198.19 1337.21,-191.53 1326.62,-191.6 1328.97,-198.19"/>
</g>
<!-- Node19 -->
<g id="node19" class="node">
<title>Node19</title>
<g id="a_node19"><a xlink:href="AtAllMessage_8hpp.html" target="_top" xlink:title=" ">
<polygon fill="none" stroke="black" points="1193.5,-171.5 1193.5,-191.5 1308.5,-191.5 1308.5,-171.5 1193.5,-171.5"/>
<text text-anchor="middle" x="1251" y="-178.7" font-family="-apple-system,BlinkMacSystemFont,'SegoeUI',Roboto,Oxygen,Ubuntu,Cantarell,'FiraSans','DroidSans','HelveticaNeue',sans-serif" font-size="11.00">AtAllMessage.hpp</text>
</a>
</g>
</g>
<!-- Node10&#45;&gt;Node19 -->
<g id="edge32" class="edge">
<title>Node10&#45;&gt;Node19</title>
<path fill="none" stroke="midnightblue" d="M1340.06,-297.48C1316.45,-291 1290.44,-279.91 1273,-261 1258.05,-244.78 1253.15,-219.21 1251.6,-201.69"/>
<polygon fill="midnightblue" stroke="midnightblue" points="1255.08,-201.3 1251,-191.52 1248.1,-201.71 1255.08,-201.3"/>
</g>
<!-- Node20 -->
<g id="node20" class="node">
<title>Node20</title>
<g id="a_node20"><a xlink:href="AtMessage_8hpp.html" target="_top" xlink:title=" ">
<polygon fill="none" stroke="black" points="1582.5,-171.5 1582.5,-191.5 1683.5,-191.5 1683.5,-171.5 1582.5,-171.5"/>
<text text-anchor="middle" x="1633" y="-178.7" font-family="-apple-system,BlinkMacSystemFont,'SegoeUI',Roboto,Oxygen,Ubuntu,Cantarell,'FiraSans','DroidSans','HelveticaNeue',sans-serif" font-size="11.00">AtMessage.hpp</text>
</a>
</g>
</g>
<!-- Node10&#45;&gt;Node20 -->
<g id="edge36" class="edge">
<title>Node10&#45;&gt;Node20</title>
<path fill="none" stroke="midnightblue" d="M1410.42,-297.34C1424.2,-288.44 1445.42,-274.35 1463,-261 1481.08,-247.27 1482.28,-239.25 1502,-228 1528.13,-213.1 1559.95,-201.91 1585.68,-194.35"/>
<polygon fill="midnightblue" stroke="midnightblue" points="1586.92,-197.64 1595.58,-191.54 1585.01,-190.91 1586.92,-197.64"/>
</g>
<!-- Node21 -->
<g id="node21" class="node">
<title>Node21</title>
<g id="a_node21"><a xlink:href="AudioMessage_8hpp.html" target="_top" xlink:title=" ">
<polygon fill="none" stroke="red" points="924,-171.5 924,-191.5 1044,-191.5 1044,-171.5 924,-171.5"/>
<text text-anchor="middle" x="984" y="-178.7" font-family="-apple-system,BlinkMacSystemFont,'SegoeUI',Roboto,Oxygen,Ubuntu,Cantarell,'FiraSans','DroidSans','HelveticaNeue',sans-serif" font-size="11.00">AudioMessage.hpp</text>
</a>
</g>
</g>
<!-- Node10&#45;&gt;Node21 -->
<g id="edge41" class="edge">
<title>Node10&#45;&gt;Node21</title>
<path fill="none" stroke="midnightblue" d="M1344.84,-297.46C1302.61,-289.48 1241.34,-276.68 1189,-261 1125.39,-241.95 1053.41,-212.47 1013.91,-195.58"/>
<polygon fill="midnightblue" stroke="midnightblue" points="1015.17,-192.31 1004.6,-191.57 1012.4,-198.74 1015.17,-192.31"/>
</g>
<!-- Node23 -->
<g id="node22" class="node">
<title>Node23</title>
<g id="a_node22"><a xlink:href="DiceMessage_8hpp.html" target="_top" xlink:title=" ">
<polygon fill="none" stroke="black" points="1062.5,-171.5 1062.5,-191.5 1175.5,-191.5 1175.5,-171.5 1062.5,-171.5"/>
<text text-anchor="middle" x="1119" y="-178.7" font-family="-apple-system,BlinkMacSystemFont,'SegoeUI',Roboto,Oxygen,Ubuntu,Cantarell,'FiraSans','DroidSans','HelveticaNeue',sans-serif" font-size="11.00">DiceMessage.hpp</text>
</a>
</g>
</g>
<!-- Node10&#45;&gt;Node23 -->
<g id="edge45" class="edge">
<title>Node10&#45;&gt;Node23</title>
<path fill="none" stroke="midnightblue" d="M1360.23,-297.5C1330.8,-289.53 1288.34,-276.74 1253,-261 1211.54,-242.54 1166.67,-214.41 1140.8,-197.32"/>
<polygon fill="midnightblue" stroke="midnightblue" points="1142.43,-194.2 1132.17,-191.56 1138.54,-200.02 1142.43,-194.2"/>
</g>
<!-- Node24 -->
<g id="node23" class="node">
<title>Node24</title>
<g id="a_node23"><a xlink:href="FaceMessage_8hpp.html" target="_top" xlink:title=" ">
<polygon fill="none" stroke="black" points="28,-171.5 28,-191.5 142,-191.5 142,-171.5 28,-171.5"/>
<text text-anchor="middle" x="85" y="-178.7" font-family="-apple-system,BlinkMacSystemFont,'SegoeUI',Roboto,Oxygen,Ubuntu,Cantarell,'FiraSans','DroidSans','HelveticaNeue',sans-serif" font-size="11.00">FaceMessage.hpp</text>
</a>
</g>
</g>
<!-- Node10&#45;&gt;Node24 -->
<g id="edge49" class="edge">
<title>Node10&#45;&gt;Node24</title>
<path fill="none" stroke="midnightblue" d="M1335.95,-305.58C1146.1,-302.38 560.39,-290.33 373,-261 280.17,-246.47 174.36,-213.14 120.53,-194.94"/>
<polygon fill="midnightblue" stroke="midnightblue" points="121.38,-191.53 110.79,-191.61 119.12,-198.15 121.38,-191.53"/>
</g>
<!-- Node25 -->
<g id="node24" class="node">
<title>Node25</title>
<g id="a_node24"><a xlink:href="FlashImageMessage_8hpp.html" target="_top" xlink:title=" ">
<polygon fill="none" stroke="black" points="2005,-234.5 2005,-254.5 2157,-254.5 2157,-234.5 2005,-234.5"/>
<text text-anchor="middle" x="2081" y="-241.7" font-family="-apple-system,BlinkMacSystemFont,'SegoeUI',Roboto,Oxygen,Ubuntu,Cantarell,'FiraSans','DroidSans','HelveticaNeue',sans-serif" font-size="11.00">FlashImageMessage.hpp</text>
</a>
</g>
</g>
<!-- Node10&#45;&gt;Node25 -->
<g id="edge53" class="edge">
<title>Node10&#45;&gt;Node25</title>
<path fill="none" stroke="midnightblue" d="M1456.25,-304.02C1564.61,-299.1 1799.4,-286.31 1996,-261 2005.93,-259.72 2016.46,-258.06 2026.6,-256.29"/>
<polygon fill="midnightblue" stroke="midnightblue" points="2027.35,-259.71 2036.58,-254.51 2026.12,-252.82 2027.35,-259.71"/>
</g>
<!-- Node26 -->
<g id="node25" class="node">
<title>Node26</title>
<g id="a_node25"><a xlink:href="ImageMessage_8hpp.html" target="_top" xlink:title=" ">
<polygon fill="none" stroke="red" points="1740.5,-171.5 1740.5,-191.5 1863.5,-191.5 1863.5,-171.5 1740.5,-171.5"/>
<text text-anchor="middle" x="1802" y="-178.7" font-family="-apple-system,BlinkMacSystemFont,'SegoeUI',Roboto,Oxygen,Ubuntu,Cantarell,'FiraSans','DroidSans','HelveticaNeue',sans-serif" font-size="11.00">ImageMessage.hpp</text>
</a>
</g>
</g>
<!-- Node10&#45;&gt;Node26 -->
<g id="edge62" class="edge">
<title>Node10&#45;&gt;Node26</title>
<path fill="none" stroke="midnightblue" d="M1432.88,-297.49C1460.57,-289.91 1498.91,-277.62 1530,-261 1551.24,-249.64 1551.06,-237.94 1573,-228 1600.6,-215.5 1674.08,-202.08 1730.43,-193.08"/>
<polygon fill="midnightblue" stroke="midnightblue" points="1731.05,-196.52 1740.38,-191.5 1729.96,-189.61 1731.05,-196.52"/>
</g>
<!-- Node27 -->
<g id="node26" class="node">
<title>Node27</title>
<g id="a_node26"><a xlink:href="JsonMessage_8hpp.html" target="_top" xlink:title=" ">
<polygon fill="none" stroke="black" points="160,-171.5 160,-191.5 272,-191.5 272,-171.5 160,-171.5"/>
<text text-anchor="middle" x="216" y="-178.7" font-family="-apple-system,BlinkMacSystemFont,'SegoeUI',Roboto,Oxygen,Ubuntu,Cantarell,'FiraSans','DroidSans','HelveticaNeue',sans-serif" font-size="11.00">JsonMessage.hpp</text>
</a>
</g>
</g>
<!-- Node10&#45;&gt;Node27 -->
<g id="edge63" class="edge">
<title>Node10&#45;&gt;Node27</title>
<path fill="none" stroke="midnightblue" d="M1335.85,-307.2C1195.01,-308 833.18,-305.16 535,-261 432.33,-245.79 314.44,-212.54 254.84,-194.58"/>
<polygon fill="midnightblue" stroke="midnightblue" points="255.68,-191.18 245.1,-191.62 253.65,-197.88 255.68,-191.18"/>
</g>
<!-- Node28 -->
<g id="node27" class="node">
<title>Node28</title>
<g id="a_node27"><a xlink:href="MiraiCodeMessage_8hpp.html" target="_top" xlink:title=" ">
<polygon fill="none" stroke="black" points="686,-171.5 686,-191.5 830,-191.5 830,-171.5 686,-171.5"/>
<text text-anchor="middle" x="758" y="-178.7" font-family="-apple-system,BlinkMacSystemFont,'SegoeUI',Roboto,Oxygen,Ubuntu,Cantarell,'FiraSans','DroidSans','HelveticaNeue',sans-serif" font-size="11.00">MiraiCodeMessage.hpp</text>
</a>
</g>
</g>
<!-- Node10&#45;&gt;Node28 -->
<g id="edge68" class="edge">
<title>Node10&#45;&gt;Node28</title>
<path fill="none" stroke="midnightblue" d="M1335.9,-303.24C1239.96,-297.43 1056.8,-283.73 996,-261 971.75,-251.93 971.65,-238.52 948,-228 910.89,-211.49 866.93,-200.47 830.64,-193.42"/>
<polygon fill="midnightblue" stroke="midnightblue" points="831.1,-189.94 820.62,-191.53 829.8,-196.82 831.1,-189.94"/>
</g>
<!-- Node29 -->
<g id="node28" class="node">
<title>Node29</title>
<g id="a_node28"><a xlink:href="PlainMessage_8hpp.html" target="_top" xlink:title=" ">
<polygon fill="none" stroke="black" points="290,-171.5 290,-191.5 406,-191.5 406,-171.5 290,-171.5"/>
<text text-anchor="middle" x="348" y="-178.7" font-family="-apple-system,BlinkMacSystemFont,'SegoeUI',Roboto,Oxygen,Ubuntu,Cantarell,'FiraSans','DroidSans','HelveticaNeue',sans-serif" font-size="11.00">PlainMessage.hpp</text>
</a>
</g>
</g>
<!-- Node10&#45;&gt;Node29 -->
<g id="edge72" class="edge">
<title>Node10&#45;&gt;Node29</title>
<path fill="none" stroke="midnightblue" d="M1335.78,-305.54C1215.64,-302.96 937.86,-293.68 707,-261 591.64,-244.67 458.17,-211.69 391.14,-194.13"/>
<polygon fill="midnightblue" stroke="midnightblue" points="391.91,-190.71 381.35,-191.55 390.13,-197.48 391.91,-190.71"/>
</g>
<!-- Node30 -->
<g id="node29" class="node">
<title>Node30</title>
<g id="a_node29"><a xlink:href="PokeMessage_8hpp.html" target="_top" xlink:title=" ">
<polygon fill="none" stroke="red" points="424.5,-171.5 424.5,-191.5 539.5,-191.5 539.5,-171.5 424.5,-171.5"/>
<text text-anchor="middle" x="482" y="-178.7" font-family="-apple-system,BlinkMacSystemFont,'SegoeUI',Roboto,Oxygen,Ubuntu,Cantarell,'FiraSans','DroidSans','HelveticaNeue',sans-serif" font-size="11.00">PokeMessage.hpp</text>
</a>
</g>
</g>
<!-- Node10&#45;&gt;Node30 -->
<g id="edge76" class="edge">
<title>Node10&#45;&gt;Node30</title>
<path fill="none" stroke="midnightblue" d="M1335.95,-302.59C1243.97,-296.21 1062.78,-282.12 910,-261 773.65,-242.15 614.57,-210.37 534.2,-193.61"/>
<polygon fill="midnightblue" stroke="midnightblue" points="534.83,-190.17 524.32,-191.54 533.4,-197.02 534.83,-190.17"/>
</g>
<!-- Node32 -->
<g id="node30" class="node">
<title>Node32</title>
<g id="a_node30"><a xlink:href="XmlMessage_8hpp.html" target="_top" xlink:title=" ">
<polygon fill="none" stroke="black" points="558,-171.5 558,-191.5 668,-191.5 668,-171.5 558,-171.5"/>
<text text-anchor="middle" x="613" y="-178.7" font-family="-apple-system,BlinkMacSystemFont,'SegoeUI',Roboto,Oxygen,Ubuntu,Cantarell,'FiraSans','DroidSans','HelveticaNeue',sans-serif" font-size="11.00">XmlMessage.hpp</text>
</a>
</g>
</g>
<!-- Node10&#45;&gt;Node32 -->
<g id="edge80" class="edge">
<title>Node10&#45;&gt;Node32</title>
<path fill="none" stroke="midnightblue" d="M1335.61,-304.86C1229.93,-301.26 1016.17,-290.48 948,-261 927.47,-252.12 930.3,-237.4 910,-228 907.37,-226.78 764.88,-205.27 678.25,-192.27"/>
<polygon fill="midnightblue" stroke="midnightblue" points="678.64,-188.79 668.23,-190.77 677.6,-195.71 678.64,-188.79"/>
</g>
<!-- Node17&#45;&gt;Node2 -->
<g id="edge27" class="edge">
<title>Node17&#45;&gt;Node2</title>
<path fill="none" stroke="midnightblue" d="M1398,-228.46C1430.55,-215.37 1465.27,-194.78 1446,-171 1315.66,-10.14 1190.68,-122.6 983.03,-77.97"/>
<polygon fill="midnightblue" stroke="midnightblue" points="983.6,-74.51 973.08,-75.73 982.06,-81.34 983.6,-74.51"/>
</g>
<!-- Node17&#45;&gt;Node13 -->
<g id="edge26" class="edge">
<title>Node17&#45;&gt;Node13</title>
<path fill="none" stroke="midnightblue" d="M1395.75,-228.42C1425.66,-218.11 1464.81,-204.62 1492.93,-194.93"/>
<polygon fill="midnightblue" stroke="midnightblue" points="1494.44,-198.11 1502.75,-191.55 1492.16,-191.5 1494.44,-198.11"/>
</g>
<!-- Node18&#45;&gt;Node2 -->
<g id="edge29" class="edge">
<title>Node18&#45;&gt;Node2</title>
<path fill="none" stroke="midnightblue" d="M1345.23,-171.46C1276.3,-154.44 1122.75,-116.12 983.15,-78.26"/>
<polygon fill="midnightblue" stroke="midnightblue" points="983.7,-74.78 973.13,-75.53 981.86,-81.53 983.7,-74.78"/>
</g>
<!-- Node18&#45;&gt;Node3 -->
<g id="edge30" class="edge">
<title>Node18&#45;&gt;Node3</title>
<path fill="none" stroke="midnightblue" d="M1372.97,-171.41C1345.96,-144.25 1265.55,-63.35 1230.56,-28.16"/>
<polygon fill="midnightblue" stroke="midnightblue" points="1232.61,-25.26 1223.08,-20.63 1227.64,-30.19 1232.61,-25.26"/>
</g>
<!-- Node18&#45;&gt;Node8 -->
<g id="edge31" class="edge">
<title>Node18&#45;&gt;Node8</title>
<path fill="none" stroke="midnightblue" d="M1326.7,-172.27C1323.42,-171.83 1320.17,-171.4 1317,-171 1193.2,-155.25 1048.43,-140.34 965.25,-132.11"/>
<polygon fill="midnightblue" stroke="midnightblue" points="965.46,-128.61 955.17,-131.11 964.78,-135.58 965.46,-128.61"/>
</g>
<!-- Node19&#45;&gt;Node2 -->
<g id="edge33" class="edge">
<title>Node19&#45;&gt;Node2</title>
<path fill="none" stroke="midnightblue" d="M1226.54,-171.43C1172.8,-151.5 1044.34,-103.86 982.88,-81.07"/>
<polygon fill="midnightblue" stroke="midnightblue" points="983.86,-77.69 973.27,-77.5 981.42,-84.26 983.86,-77.69"/>
</g>
<!-- Node19&#45;&gt;Node3 -->
<g id="edge34" class="edge">
<title>Node19&#45;&gt;Node3</title>
<path fill="none" stroke="midnightblue" d="M1249.01,-171.41C1243.19,-144.82 1226.09,-66.74 1218.15,-30.45"/>
<polygon fill="midnightblue" stroke="midnightblue" points="1221.56,-29.65 1216,-20.63 1214.72,-31.15 1221.56,-29.65"/>
</g>
<!-- Node19&#45;&gt;Node8 -->
<g id="edge35" class="edge">
<title>Node19&#45;&gt;Node8</title>
<path fill="none" stroke="midnightblue" d="M1193.34,-171.54C1130.81,-161.83 1031.11,-146.34 964.86,-136.04"/>
<polygon fill="midnightblue" stroke="midnightblue" points="965.35,-132.58 954.93,-134.5 964.28,-139.49 965.35,-132.58"/>
</g>
<!-- Node20&#45;&gt;Node2 -->
<g id="edge37" class="edge">
<title>Node20&#45;&gt;Node2</title>
<path fill="none" stroke="midnightblue" d="M1617,-171.43C1589.69,-156.46 1531.9,-126.94 1479,-114 1267.03,-62.13 1201.94,-115.24 982.89,-77.77"/>
<polygon fill="midnightblue" stroke="midnightblue" points="983.47,-74.32 973.01,-76.04 982.26,-81.21 983.47,-74.32"/>
</g>
<!-- Node20&#45;&gt;Node3 -->
<g id="edge38" class="edge">
<title>Node20&#45;&gt;Node3</title>
<path fill="none" stroke="midnightblue" d="M1610.47,-171.41C1540.62,-143.24 1327.51,-57.28 1246.09,-24.44"/>
<polygon fill="midnightblue" stroke="midnightblue" points="1246.97,-21.02 1236.38,-20.53 1244.35,-27.51 1246.97,-21.02"/>
</g>
<!-- Node20&#45;&gt;Node4 -->
<g id="edge39" class="edge">
<title>Node20&#45;&gt;Node4</title>
<path fill="none" stroke="midnightblue" d="M1683.77,-172.68C1746.06,-163.08 1851.93,-146.77 1921.42,-136.07"/>
<polygon fill="midnightblue" stroke="midnightblue" points="1922.05,-139.51 1931.4,-134.53 1920.98,-132.59 1922.05,-139.51"/>
</g>
<!-- Node20&#45;&gt;Node8 -->
<g id="edge40" class="edge">
<title>Node20&#45;&gt;Node8</title>
<path fill="none" stroke="midnightblue" d="M1582.3,-172.15C1579.16,-171.73 1576.04,-171.34 1573,-171 1351.52,-146.06 1087.57,-133.11 965.35,-128.07"/>
<polygon fill="midnightblue" stroke="midnightblue" points="965.16,-124.56 955.03,-127.65 964.88,-131.55 965.16,-124.56"/>
</g>
<!-- Node21&#45;&gt;Node2 -->
<g id="edge42" class="edge">
<title>Node21&#45;&gt;Node2</title>
<path fill="none" stroke="midnightblue" d="M981.36,-171.44C977.6,-158.62 970.45,-134.47 964,-114 961.22,-105.17 958.02,-95.43 955.3,-87.23"/>
<polygon fill="midnightblue" stroke="midnightblue" points="958.55,-85.92 952.06,-77.54 951.91,-88.14 958.55,-85.92"/>
</g>
<!-- Node21&#45;&gt;Node3 -->
<g id="edge43" class="edge">
<title>Node21&#45;&gt;Node3</title>
<path fill="none" stroke="midnightblue" d="M996.37,-171.41C1033.88,-143.85 1146.7,-60.95 1193.4,-26.63"/>
<polygon fill="midnightblue" stroke="midnightblue" points="1195.59,-29.37 1201.57,-20.63 1191.44,-23.73 1195.59,-29.37"/>
</g>
<!-- Node21&#45;&gt;Node8 -->
<g id="edge44" class="edge">
<title>Node21&#45;&gt;Node8</title>
<path fill="none" stroke="midnightblue" d="M969.63,-171.42C956.16,-162.9 935.78,-150.02 920.04,-140.06"/>
<polygon fill="midnightblue" stroke="midnightblue" points="921.71,-136.98 911.39,-134.6 917.97,-142.9 921.71,-136.98"/>
</g>
<!-- Node23&#45;&gt;Node2 -->
<g id="edge46" class="edge">
<title>Node23&#45;&gt;Node2</title>
<path fill="none" stroke="midnightblue" d="M1105.09,-171.33C1075.83,-152.06 1007.66,-107.15 971.87,-83.57"/>
<polygon fill="midnightblue" stroke="midnightblue" points="973.38,-80.37 963.1,-77.79 969.53,-86.22 973.38,-80.37"/>
</g>
<!-- Node23&#45;&gt;Node3 -->
<g id="edge47" class="edge">
<title>Node23&#45;&gt;Node3</title>
<path fill="none" stroke="midnightblue" d="M1124.11,-171.41C1139.19,-144.59 1183.7,-65.39 1203.87,-29.52"/>
<polygon fill="midnightblue" stroke="midnightblue" points="1207.02,-31.06 1208.87,-20.63 1200.92,-27.63 1207.02,-31.06"/>
</g>
<!-- Node23&#45;&gt;Node8 -->
<g id="edge48" class="edge">
<title>Node23&#45;&gt;Node8</title>
<path fill="none" stroke="midnightblue" d="M1082.34,-171.42C1044.23,-161.98 984.47,-147.17 943.16,-136.94"/>
<polygon fill="midnightblue" stroke="midnightblue" points="943.89,-133.51 933.34,-134.5 942.21,-140.31 943.89,-133.51"/>
</g>
<!-- Node24&#45;&gt;Node2 -->
<g id="edge50" class="edge">
<title>Node24&#45;&gt;Node2</title>
<path fill="none" stroke="midnightblue" d="M124.97,-171.5C189.46,-157.29 320.6,-129.65 433,-114 613.69,-88.83 832.02,-74.98 914.88,-70.31"/>
<polygon fill="midnightblue" stroke="midnightblue" points="915.19,-73.8 924.98,-69.75 914.81,-66.81 915.19,-73.8"/>
</g>
<!-- Node24&#45;&gt;Node3 -->
<g id="edge51" class="edge">
<title>Node24&#45;&gt;Node3</title>
<path fill="none" stroke="midnightblue" d="M112.98,-171.48C154.63,-158.18 235.49,-132.85 305,-114 409.56,-85.65 434.91,-73.38 542,-57 752.45,-24.8 1003.46,-15.39 1130.89,-12.64"/>
<polygon fill="midnightblue" stroke="midnightblue" points="1131.04,-16.13 1140.97,-12.43 1130.9,-9.14 1131.04,-16.13"/>
</g>
<!-- Node24&#45;&gt;Node8 -->
<g id="edge52" class="edge">
<title>Node24&#45;&gt;Node8</title>
<path fill="none" stroke="midnightblue" d="M142.2,-171.97C145.17,-171.62 148.12,-171.29 151,-171 399.84,-145.55 696.94,-132.63 828.51,-127.8"/>
<polygon fill="midnightblue" stroke="midnightblue" points="828.96,-131.28 838.83,-127.42 828.71,-124.29 828.96,-131.28"/>
</g>
<!-- Node25&#45;&gt;Node2 -->
<g id="edge54" class="edge">
<title>Node25&#45;&gt;Node2</title>
<path fill="none" stroke="midnightblue" d="M2058.12,-234.42C2020.02,-219.55 1940.92,-189.8 1872,-171 1748.22,-137.23 1716.24,-130.5 1589,-114 1324.27,-79.66 1250.17,-122.59 983,-77.78"/>
<polygon fill="midnightblue" stroke="midnightblue" points="983.45,-74.3 973.01,-76.08 982.28,-81.21 983.45,-74.3"/>
</g>
<!-- Node25&#45;&gt;Node3 -->
<g id="edge55" class="edge">
<title>Node25&#45;&gt;Node3</title>
<path fill="none" stroke="midnightblue" d="M2084.95,-234.3C2097.44,-203.61 2132.32,-104.04 2081,-57 2052.4,-30.79 1509.06,-17.31 1297.4,-13.04"/>
<polygon fill="midnightblue" stroke="midnightblue" points="1297.34,-9.53 1287.27,-12.83 1297.2,-16.53 1297.34,-9.53"/>
</g>
<!-- Node25&#45;&gt;Node4 -->
<g id="edge56" class="edge">
<title>Node25&#45;&gt;Node4</title>
<path fill="none" stroke="midnightblue" d="M2073.86,-234.24C2058.64,-214.51 2022.82,-168.06 2003.28,-142.72"/>
<polygon fill="midnightblue" stroke="midnightblue" points="2005.99,-140.5 1997.11,-134.72 2000.44,-144.77 2005.99,-140.5"/>
</g>
<!-- Node25&#45;&gt;Node26 -->
<g id="edge57" class="edge">
<title>Node25&#45;&gt;Node26</title>
<path fill="none" stroke="midnightblue" d="M2039.83,-234.5C1990.28,-223.66 1907.04,-205.46 1853.33,-193.72"/>
<polygon fill="midnightblue" stroke="midnightblue" points="1853.85,-190.25 1843.34,-191.54 1852.36,-197.09 1853.85,-190.25"/>
</g>
<!-- Node26&#45;&gt;Node2 -->
<g id="edge58" class="edge">
<title>Node26&#45;&gt;Node2</title>
<path fill="none" stroke="midnightblue" d="M1771.48,-171.41C1720.66,-156.68 1615.26,-127.84 1524,-114 1288.57,-78.28 1221.63,-118.5 983.03,-77.8"/>
<polygon fill="midnightblue" stroke="midnightblue" points="983.46,-74.32 973.01,-76.06 982.27,-81.21 983.46,-74.32"/>
</g>
<!-- Node26&#45;&gt;Node3 -->
<g id="edge59" class="edge">
<title>Node26&#45;&gt;Node3</title>
<path fill="none" stroke="midnightblue" d="M1799.48,-171.33C1792.44,-147.62 1770.11,-84.28 1726,-57 1690.49,-35.04 1433.33,-20.87 1297.53,-14.84"/>
<polygon fill="midnightblue" stroke="midnightblue" points="1297.31,-11.33 1287.17,-14.38 1297.01,-18.32 1297.31,-11.33"/>
</g>
<!-- Node26&#45;&gt;Node4 -->
<g id="edge60" class="edge">
<title>Node26&#45;&gt;Node4</title>
<path fill="none" stroke="midnightblue" d="M1833.04,-171.42C1864.84,-162.12 1914.43,-147.61 1949.34,-137.39"/>
<polygon fill="midnightblue" stroke="midnightblue" points="1950.61,-140.67 1959.22,-134.5 1948.64,-133.95 1950.61,-140.67"/>
</g>
<!-- Node26&#45;&gt;Node8 -->
<g id="edge61" class="edge">
<title>Node26&#45;&gt;Node8</title>
<path fill="none" stroke="midnightblue" d="M1740.36,-174.86C1724.6,-173.5 1707.68,-172.13 1692,-171 1423.55,-151.73 1103.64,-135.46 965.79,-128.76"/>
<polygon fill="midnightblue" stroke="midnightblue" points="965.54,-125.25 955.39,-128.26 965.2,-132.24 965.54,-125.25"/>
</g>
<!-- Node27&#45;&gt;Node2 -->
<g id="edge64" class="edge">
<title>Node27&#45;&gt;Node2</title>
<path fill="none" stroke="midnightblue" d="M255.17,-171.46C316.77,-157.51 440.2,-130.6 546,-114 681.96,-92.67 845.25,-77.38 914.86,-71.35"/>
<polygon fill="midnightblue" stroke="midnightblue" points="915.16,-74.84 924.83,-70.49 914.56,-67.86 915.16,-74.84"/>
</g>
<!-- Node27&#45;&gt;Node3 -->
<g id="edge65" class="edge">
<title>Node27&#45;&gt;Node3</title>
<path fill="none" stroke="midnightblue" d="M245.08,-171.41C286.68,-158.46 365.58,-134.03 433,-114 520.78,-87.92 540.89,-73.31 631,-57 807.01,-25.14 1016.88,-15.58 1130.65,-12.72"/>
<polygon fill="midnightblue" stroke="midnightblue" points="1130.77,-16.22 1140.68,-12.48 1130.6,-9.22 1130.77,-16.22"/>
</g>
<!-- Node27&#45;&gt;Node8 -->
<g id="edge66" class="edge">
<title>Node27&#45;&gt;Node8</title>
<path fill="none" stroke="midnightblue" d="M272.34,-172.01C275.27,-171.65 278.17,-171.31 281,-171 479.21,-149.22 714.47,-135.08 828.39,-128.96"/>
<polygon fill="midnightblue" stroke="midnightblue" points="828.9,-132.44 838.7,-128.42 828.52,-125.45 828.9,-132.44"/>
</g>
<!-- Node28&#45;&gt;Node2 -->
<g id="edge69" class="edge">
<title>Node28&#45;&gt;Node2</title>
<path fill="none" stroke="midnightblue" d="M765.97,-171.14C778.4,-157.05 803.69,-130.33 830,-114 856.76,-97.39 890.56,-85.18 915.3,-77.62"/>
<polygon fill="midnightblue" stroke="midnightblue" points="916.37,-80.95 924.96,-74.76 914.38,-74.24 916.37,-80.95"/>
</g>
<!-- Node28&#45;&gt;Node3 -->
<g id="edge70" class="edge">
<title>Node28&#45;&gt;Node3</title>
<path fill="none" stroke="midnightblue" d="M761.85,-171.34C768.01,-157.53 781.25,-131.15 799,-114 835.79,-78.45 850.62,-73.61 899,-57 974.9,-30.94 1066.06,-19.8 1130.74,-15.05"/>
<polygon fill="midnightblue" stroke="midnightblue" points="1131.16,-18.53 1140.89,-14.34 1130.67,-11.54 1131.16,-18.53"/>
</g>
<!-- Node28&#45;&gt;Node8 -->
<g id="edge71" class="edge">
<title>Node28&#45;&gt;Node8</title>
<path fill="none" stroke="midnightblue" d="M780.95,-171.42C803.79,-162.38 839.04,-148.44 864.69,-138.28"/>
<polygon fill="midnightblue" stroke="midnightblue" points="866,-141.53 874.01,-134.6 863.43,-135.02 866,-141.53"/>
</g>
<!-- Node29&#45;&gt;Node2 -->
<g id="edge73" class="edge">
<title>Node29&#45;&gt;Node2</title>
<path fill="none" stroke="midnightblue" d="M385.5,-171.41C442.44,-157.8 554.2,-131.82 650,-114 745.54,-96.23 859.21,-80.37 914.86,-72.95"/>
<polygon fill="midnightblue" stroke="midnightblue" points="915.43,-76.41 924.88,-71.62 914.51,-69.47 915.43,-76.41"/>
</g>
<!-- Node29&#45;&gt;Node3 -->
<g id="edge74" class="edge">
<title>Node29&#45;&gt;Node3</title>
<path fill="none" stroke="midnightblue" d="M369.02,-171.48C424.43,-148.13 579.49,-85.57 715,-57 859.22,-26.6 1031.12,-16.51 1130.88,-13.16"/>
<polygon fill="midnightblue" stroke="midnightblue" points="1131.02,-16.66 1140.9,-12.84 1130.8,-9.66 1131.02,-16.66"/>
</g>
<!-- Node29&#45;&gt;Node8 -->
<g id="edge75" class="edge">
<title>Node29&#45;&gt;Node8</title>
<path fill="none" stroke="midnightblue" d="M406.08,-172.1C409.1,-171.71 412.08,-171.34 415,-171 562.04,-153.65 734.93,-138.63 828.48,-130.95"/>
<polygon fill="midnightblue" stroke="midnightblue" points="828.98,-134.42 838.66,-130.12 828.41,-127.45 828.98,-134.42"/>
</g>
<!-- Node30&#45;&gt;Node2 -->
<g id="edge77" class="edge">
<title>Node30&#45;&gt;Node2</title>
<path fill="none" stroke="midnightblue" d="M515.16,-171.47C564.02,-158.26 658.29,-133.18 739,-114 800.9,-99.29 873.53,-83.99 915.12,-75.41"/>
<polygon fill="midnightblue" stroke="midnightblue" points="915.9,-78.82 924.99,-73.38 914.49,-71.96 915.9,-78.82"/>
</g>
<!-- Node30&#45;&gt;Node3 -->
<g id="edge78" class="edge">
<title>Node30&#45;&gt;Node3</title>
<path fill="none" stroke="midnightblue" d="M499.23,-171.48C544.69,-148.13 672.18,-85.57 786,-57 903.47,-27.52 1043.76,-17.13 1130.88,-13.47"/>
<polygon fill="midnightblue" stroke="midnightblue" points="1131.13,-16.97 1140.98,-13.07 1130.85,-9.97 1131.13,-16.97"/>
</g>
<!-- Node30&#45;&gt;Node8 -->
<g id="edge79" class="edge">
<title>Node30&#45;&gt;Node8</title>
<path fill="none" stroke="midnightblue" d="M539.74,-172.27C542.87,-171.84 545.97,-171.41 549,-171 646.1,-157.77 758.56,-143.2 828.75,-134.2"/>
<polygon fill="midnightblue" stroke="midnightblue" points="829.31,-137.66 838.79,-132.92 828.42,-130.71 829.31,-137.66"/>
</g>
<!-- Node32&#45;&gt;Node2 -->
<g id="edge81" class="edge">
<title>Node32&#45;&gt;Node2</title>
<path fill="none" stroke="midnightblue" d="M637.24,-171.4C672.62,-158.23 740.55,-133.3 799,-114 838.7,-100.89 884.77,-87.13 915.27,-78.22"/>
<polygon fill="midnightblue" stroke="midnightblue" points="916.36,-81.55 924.99,-75.39 914.41,-74.83 916.36,-81.55"/>
</g>
<!-- Node32&#45;&gt;Node3 -->
<g id="edge82" class="edge">
<title>Node32&#45;&gt;Node3</title>
<path fill="none" stroke="midnightblue" d="M625.65,-171.44C659.08,-147.99 753.33,-85.22 842,-57 938.12,-26.4 1054.26,-16.18 1130.91,-12.87"/>
<polygon fill="midnightblue" stroke="midnightblue" points="1131.14,-16.37 1140.99,-12.47 1130.86,-9.37 1131.14,-16.37"/>
</g>
<!-- Node32&#45;&gt;Node8 -->
<g id="edge83" class="edge">
<title>Node32&#45;&gt;Node8</title>
<path fill="none" stroke="midnightblue" d="M659.58,-171.48C709.1,-161.89 787.45,-146.72 840.47,-136.45"/>
<polygon fill="midnightblue" stroke="midnightblue" points="841.24,-139.86 850.4,-134.53 839.91,-132.99 841.24,-139.86"/>
</g>
</g>
</svg>
