<?xml version="1.0" encoding="UTF-8" standalone="no"?>
<!DOCTYPE svg PUBLIC "-//W3C//DTD SVG 1.1//EN"
 "http://www.w3.org/Graphics/SVG/1.1/DTD/svg11.dtd">
<!-- Generated by graphviz version 3.0.0 (20221109.1736)
 -->
<!-- Title: libmirai/models/libmirai/Messages/QuoteMessage.hpp Pages: 1 -->
<svg width="606pt" height="212pt"
 viewBox="0.00 0.00 606.48 212.00" xmlns="http://www.w3.org/2000/svg" xmlns:xlink="http://www.w3.org/1999/xlink">
<g id="graph0" class="graph" transform="scale(1 1) rotate(0) translate(4 208)">
<title>libmirai/models/libmirai/Messages/QuoteMessage.hpp</title>
<!-- Node1 -->
<g id="node1" class="node">
<title>Node1</title>
<g id="a_node1"><a xlink:title=" ">
<polygon fill="#bfbfbf" stroke="black" points="0,-171.5 0,-203.5 165,-203.5 165,-171.5 0,-171.5"/>
<text text-anchor="start" x="8" y="-190.7" font-family="-apple-system, BlinkMacSystemFont, 'Segoe UI', Roboto, Oxygen, Ubuntu, Cantarell, 'Fira Sans', 'Droid Sans', 'Helvetica Neue', sans-serif" font-size="11.00">libmirai/models/libmirai</text>
<text text-anchor="middle" x="82.5" y="-178.7" font-family="-apple-system, BlinkMacSystemFont, 'Segoe UI', Roboto, Oxygen, Ubuntu, Cantarell, 'Fira Sans', 'Droid Sans', 'Helvetica Neue', sans-serif" font-size="11.00">/Messages/QuoteMessage.hpp</text>
</a>
</g>
</g>
<!-- Node2 -->
<g id="node2" class="node">
<title>Node2</title>
<g id="a_node2"><a xlink:title=" ">
<polygon fill="none" stroke="#bfbfbf" points="19.5,-57.5 19.5,-77.5 75.5,-77.5 75.5,-57.5 19.5,-57.5"/>
<text text-anchor="middle" x="47.5" y="-64.7" font-family="-apple-system, BlinkMacSystemFont, 'Segoe UI', Roboto, Oxygen, Ubuntu, Cantarell, 'Fira Sans', 'Droid Sans', 'Helvetica Neue', sans-serif" font-size="11.00">memory</text>
</a>
</g>
</g>
<!-- Node1&#45;&gt;Node2 -->
<g id="edge1" class="edge">
<title>Node1&#45;&gt;Node2</title>
<path fill="none" stroke="midnightblue" d="M77.65,-171.2C74.43,-160.97 70.14,-147.2 66.5,-135 61.73,-119 56.53,-100.76 52.79,-87.43"/>
<polygon fill="midnightblue" stroke="midnightblue" points="56.09,-86.24 50.02,-77.55 49.34,-88.13 56.09,-86.24"/>
</g>
<!-- Node3 -->
<g id="node3" class="node">
<title>Node3</title>
<g id="a_node3"><a xlink:title=" ">
<polygon fill="none" stroke="#bfbfbf" points="141,-0.5 141,-20.5 184,-20.5 184,-0.5 141,-0.5"/>
<text text-anchor="middle" x="162.5" y="-7.7" font-family="-apple-system, BlinkMacSystemFont, 'Segoe UI', Roboto, Oxygen, Ubuntu, Cantarell, 'Fira Sans', 'Droid Sans', 'Helvetica Neue', sans-serif" font-size="11.00">string</text>
</a>
</g>
</g>
<!-- Node1&#45;&gt;Node3 -->
<g id="edge2" class="edge">
<title>Node1&#45;&gt;Node3</title>
<path fill="none" stroke="midnightblue" d="M62.89,-171.36C32.88,-146.35 -18.07,-95.38 10.5,-57 38.08,-19.96 94.73,-11.92 130.54,-10.78"/>
<polygon fill="midnightblue" stroke="midnightblue" points="130.99,-14.28 140.93,-10.63 130.88,-7.28 130.99,-14.28"/>
</g>
<!-- Node4 -->
<g id="node4" class="node">
<title>Node4</title>
<g id="a_node4"><a xlink:href="BasicTypes_8hpp.html" target="_top" xlink:title=" ">
<polygon fill="none" stroke="black" points="421.5,-114.5 421.5,-134.5 583.5,-134.5 583.5,-114.5 421.5,-114.5"/>
<text text-anchor="middle" x="502.5" y="-121.7" font-family="-apple-system, BlinkMacSystemFont, 'Segoe UI', Roboto, Oxygen, Ubuntu, Cantarell, 'Fira Sans', 'Droid Sans', 'Helvetica Neue', sans-serif" font-size="11.00">libmirai/Types/BasicTypes.hpp</text>
</a>
</g>
</g>
<!-- Node1&#45;&gt;Node4 -->
<g id="edge3" class="edge">
<title>Node1&#45;&gt;Node4</title>
<path fill="none" stroke="midnightblue" d="M165.23,-174.48C242.49,-163.26 356.65,-146.68 430.31,-135.98"/>
<polygon fill="midnightblue" stroke="midnightblue" points="431.03,-139.42 440.43,-134.52 430.03,-132.49 431.03,-139.42"/>
</g>
<!-- Node8 -->
<g id="node8" class="node">
<title>Node8</title>
<g id="a_node8"><a xlink:href="IMessage_8hpp.html" target="_top" xlink:title=" ">
<polygon fill="none" stroke="black" points="75.5,-114.5 75.5,-134.5 159.5,-134.5 159.5,-114.5 75.5,-114.5"/>
<text text-anchor="middle" x="117.5" y="-121.7" font-family="-apple-system, BlinkMacSystemFont, 'Segoe UI', Roboto, Oxygen, Ubuntu, Cantarell, 'Fira Sans', 'Droid Sans', 'Helvetica Neue', sans-serif" font-size="11.00">IMessage.hpp</text>
</a>
</g>
</g>
<!-- Node1&#45;&gt;Node8 -->
<g id="edge8" class="edge">
<title>Node1&#45;&gt;Node8</title>
<path fill="none" stroke="midnightblue" d="M91.15,-171.42C96.03,-162.92 102.15,-152.26 107.26,-143.34"/>
<polygon fill="midnightblue" stroke="midnightblue" points="110.37,-144.96 112.31,-134.55 104.3,-141.48 110.37,-144.96"/>
</g>
<!-- Node4&#45;&gt;Node3 -->
<g id="edge6" class="edge">
<title>Node4&#45;&gt;Node3</title>
<path fill="none" stroke="midnightblue" d="M533.33,-114.44C567.38,-102.95 614.66,-81.62 592.5,-57 565.94,-27.48 289.52,-15.67 194.43,-12.47"/>
<polygon fill="midnightblue" stroke="midnightblue" points="194.37,-8.96 184.26,-12.13 194.14,-15.96 194.37,-8.96"/>
</g>
<!-- Node5 -->
<g id="node5" class="node">
<title>Node5</title>
<g id="a_node5"><a xlink:title=" ">
<polygon fill="none" stroke="#bfbfbf" points="413.5,-57.5 413.5,-77.5 463.5,-77.5 463.5,-57.5 413.5,-57.5"/>
<text text-anchor="middle" x="438.5" y="-64.7" font-family="-apple-system, BlinkMacSystemFont, 'Segoe UI', Roboto, Oxygen, Ubuntu, Cantarell, 'Fira Sans', 'Droid Sans', 'Helvetica Neue', sans-serif" font-size="11.00">chrono</text>
</a>
</g>
</g>
<!-- Node4&#45;&gt;Node5 -->
<g id="edge4" class="edge">
<title>Node4&#45;&gt;Node5</title>
<path fill="none" stroke="midnightblue" d="M491.93,-114.42C482.45,-106.27 468.31,-94.12 456.96,-84.37"/>
<polygon fill="midnightblue" stroke="midnightblue" points="459.16,-81.64 449.3,-77.78 454.6,-86.95 459.16,-81.64"/>
</g>
<!-- Node6 -->
<g id="node6" class="node">
<title>Node6</title>
<g id="a_node6"><a xlink:title=" ">
<polygon fill="none" stroke="#bfbfbf" points="481.5,-57.5 481.5,-77.5 523.5,-77.5 523.5,-57.5 481.5,-57.5"/>
<text text-anchor="middle" x="502.5" y="-64.7" font-family="-apple-system, BlinkMacSystemFont, 'Segoe UI', Roboto, Oxygen, Ubuntu, Cantarell, 'Fira Sans', 'Droid Sans', 'Helvetica Neue', sans-serif" font-size="11.00">ctime</text>
</a>
</g>
</g>
<!-- Node4&#45;&gt;Node6 -->
<g id="edge5" class="edge">
<title>Node4&#45;&gt;Node6</title>
<path fill="none" stroke="midnightblue" d="M502.5,-114.42C502.5,-107.22 502.5,-96.9 502.5,-87.86"/>
<polygon fill="midnightblue" stroke="midnightblue" points="506,-87.78 502.5,-77.78 499,-87.78 506,-87.78"/>
</g>
<!-- Node7 -->
<g id="node7" class="node">
<title>Node7</title>
<g id="a_node7"><a xlink:title=" ">
<polygon fill="none" stroke="#bfbfbf" points="542,-57.5 542,-77.5 583,-77.5 583,-57.5 542,-57.5"/>
<text text-anchor="middle" x="562.5" y="-64.7" font-family="-apple-system, BlinkMacSystemFont, 'Segoe UI', Roboto, Oxygen, Ubuntu, Cantarell, 'Fira Sans', 'Droid Sans', 'Helvetica Neue', sans-serif" font-size="11.00">utility</text>
</a>
</g>
</g>
<!-- Node4&#45;&gt;Node7 -->
<g id="edge7" class="edge">
<title>Node4&#45;&gt;Node7</title>
<path fill="none" stroke="midnightblue" d="M512.41,-114.42C521.21,-106.35 534.29,-94.36 544.88,-84.65"/>
<polygon fill="midnightblue" stroke="midnightblue" points="547.37,-87.12 552.38,-77.78 542.64,-81.96 547.37,-87.12"/>
</g>
<!-- Node8&#45;&gt;Node2 -->
<g id="edge9" class="edge">
<title>Node8&#45;&gt;Node2</title>
<path fill="none" stroke="midnightblue" d="M105.94,-114.42C95.47,-106.19 79.81,-93.88 67.33,-84.08"/>
<polygon fill="midnightblue" stroke="midnightblue" points="69.34,-81.21 59.31,-77.78 65.01,-86.71 69.34,-81.21"/>
</g>
<!-- Node8&#45;&gt;Node3 -->
<g id="edge10" class="edge">
<title>Node8&#45;&gt;Node3</title>
<path fill="none" stroke="midnightblue" d="M116.42,-114.48C115.23,-101.28 114.42,-76.21 122.5,-57 127.15,-45.95 135.59,-35.72 143.52,-27.77"/>
<polygon fill="midnightblue" stroke="midnightblue" points="146.23,-30.02 151.13,-20.63 141.44,-24.92 146.23,-30.02"/>
</g>
<!-- Node9 -->
<g id="node9" class="node">
<title>Node9</title>
<g id="a_node9"><a xlink:title=" ">
<polygon fill="none" stroke="#bfbfbf" points="329.5,-57.5 329.5,-77.5 395.5,-77.5 395.5,-57.5 329.5,-57.5"/>
<text text-anchor="middle" x="362.5" y="-64.7" font-family="-apple-system, BlinkMacSystemFont, 'Segoe UI', Roboto, Oxygen, Ubuntu, Cantarell, 'Fira Sans', 'Droid Sans', 'Helvetica Neue', sans-serif" font-size="11.00">type_traits</text>
</a>
</g>
</g>
<!-- Node8&#45;&gt;Node9 -->
<g id="edge11" class="edge">
<title>Node8&#45;&gt;Node9</title>
<path fill="none" stroke="midnightblue" d="M157.68,-114.48C202.23,-104.48 273.82,-88.41 319.48,-78.16"/>
<polygon fill="midnightblue" stroke="midnightblue" points="320.38,-81.54 329.38,-75.94 318.85,-74.71 320.38,-81.54"/>
</g>
<!-- Node10 -->
<g id="node10" class="node">
<title>Node10</title>
<g id="a_node10"><a xlink:href="MessageTypes_8hpp.html" target="_top" xlink:title=" ">
<polygon fill="none" stroke="red" points="132,-57.5 132,-77.5 311,-77.5 311,-57.5 132,-57.5"/>
<text text-anchor="middle" x="221.5" y="-64.7" font-family="-apple-system, BlinkMacSystemFont, 'Segoe UI', Roboto, Oxygen, Ubuntu, Cantarell, 'Fira Sans', 'Droid Sans', 'Helvetica Neue', sans-serif" font-size="11.00">libmirai/Types/MessageTypes.hpp</text>
</a>
</g>
</g>
<!-- Node8&#45;&gt;Node10 -->
<g id="edge12" class="edge">
<title>Node8&#45;&gt;Node10</title>
<path fill="none" stroke="midnightblue" d="M134.67,-114.42C151.16,-105.7 176.28,-92.41 195.27,-82.37"/>
<polygon fill="midnightblue" stroke="midnightblue" points="197.1,-85.36 204.3,-77.6 193.82,-79.18 197.1,-85.36"/>
</g>
<!-- Node10&#45;&gt;Node3 -->
<g id="edge13" class="edge">
<title>Node10&#45;&gt;Node3</title>
<path fill="none" stroke="midnightblue" d="M211.76,-57.42C203.1,-49.35 190.24,-37.36 179.83,-27.65"/>
<polygon fill="midnightblue" stroke="midnightblue" points="182.16,-25.04 172.45,-20.78 177.38,-30.16 182.16,-25.04"/>
</g>
</g>
</svg>
