<?xml version="1.0" encoding="UTF-8" standalone="no"?>
<!DOCTYPE svg PUBLIC "-//W3C//DTD SVG 1.1//EN"
 "http://www.w3.org/Graphics/SVG/1.1/DTD/svg11.dtd">
<!-- Generated by graphviz version 2.43.0 (0)
 -->
<!-- Title: libmirai/public/libmirai/Api/SessionConfig.hpp Pages: 1 -->
<svg width="448pt" height="212pt"
 viewBox="0.00 0.00 448.16 212.00" xmlns="http://www.w3.org/2000/svg" xmlns:xlink="http://www.w3.org/1999/xlink">
<g id="graph0" class="graph" transform="scale(1 1) rotate(0) translate(4 208)">
<title>libmirai/public/libmirai/Api/SessionConfig.hpp</title>
<!-- Node1 -->
<g id="node1" class="node">
<title>Node1</title>
<g id="a_node1"><a xlink:title=" ">
<polygon fill="#bfbfbf" stroke="black" points="144,-171.5 144,-203.5 286,-203.5 286,-171.5 144,-171.5"/>
<text text-anchor="start" x="152" y="-190.7" font-family="-apple-system,BlinkMacSystemFont,'SegoeUI',Roboto,Oxygen,Ubuntu,Cantarell,'FiraSans','DroidSans','HelveticaNeue',sans-serif" font-size="11.00">libmirai/public/libmirai</text>
<text text-anchor="middle" x="215" y="-178.7" font-family="-apple-system,BlinkMacSystemFont,'SegoeUI',Roboto,Oxygen,Ubuntu,Cantarell,'FiraSans','DroidSans','HelveticaNeue',sans-serif" font-size="11.00">/Api/SessionConfig.hpp</text>
</a>
</g>
</g>
<!-- Node2 -->
<g id="node2" class="node">
<title>Node2</title>
<g id="a_node2"><a xlink:title=" ">
<polygon fill="none" stroke="#bfbfbf" points="0,-57.5 0,-77.5 54,-77.5 54,-57.5 0,-57.5"/>
<text text-anchor="middle" x="27" y="-64.7" font-family="-apple-system,BlinkMacSystemFont,'SegoeUI',Roboto,Oxygen,Ubuntu,Cantarell,'FiraSans','DroidSans','HelveticaNeue',sans-serif" font-size="11.00">chrono</text>
</a>
</g>
</g>
<!-- Node1&#45;&gt;Node2 -->
<g id="edge1" class="edge">
<title>Node1&#45;&gt;Node2</title>
<path fill="none" stroke="midnightblue" d="M173.86,-171.5C151.45,-162.46 123.73,-149.84 101,-135 78.79,-120.5 56.6,-99.47 42.39,-84.96"/>
<polygon fill="midnightblue" stroke="midnightblue" points="44.83,-82.44 35.38,-77.65 39.78,-87.29 44.83,-82.44"/>
</g>
<!-- Node3 -->
<g id="node3" class="node">
<title>Node3</title>
<g id="a_node3"><a xlink:title=" ">
<polygon fill="none" stroke="#bfbfbf" points="72.5,-57.5 72.5,-77.5 119.5,-77.5 119.5,-57.5 72.5,-57.5"/>
<text text-anchor="middle" x="96" y="-64.7" font-family="-apple-system,BlinkMacSystemFont,'SegoeUI',Roboto,Oxygen,Ubuntu,Cantarell,'FiraSans','DroidSans','HelveticaNeue',sans-serif" font-size="11.00">ctime</text>
</a>
</g>
</g>
<!-- Node1&#45;&gt;Node3 -->
<g id="edge2" class="edge">
<title>Node1&#45;&gt;Node3</title>
<path fill="none" stroke="midnightblue" d="M167.56,-171.45C148.81,-163.35 128.56,-151.54 115,-135 104.07,-121.67 99.42,-102.36 97.45,-87.99"/>
<polygon fill="midnightblue" stroke="midnightblue" points="100.9,-87.3 96.37,-77.72 93.93,-88.03 100.9,-87.3"/>
</g>
<!-- Node4 -->
<g id="node4" class="node">
<title>Node4</title>
<g id="a_node4"><a xlink:title=" ">
<polygon fill="none" stroke="#bfbfbf" points="378,-57.5 378,-77.5 426,-77.5 426,-57.5 378,-57.5"/>
<text text-anchor="middle" x="402" y="-64.7" font-family="-apple-system,BlinkMacSystemFont,'SegoeUI',Roboto,Oxygen,Ubuntu,Cantarell,'FiraSans','DroidSans','HelveticaNeue',sans-serif" font-size="11.00">string</text>
</a>
</g>
</g>
<!-- Node1&#45;&gt;Node4 -->
<g id="edge3" class="edge">
<title>Node1&#45;&gt;Node4</title>
<path fill="none" stroke="midnightblue" d="M247.41,-171.35C267.12,-161.72 292.54,-148.55 314,-135 338.95,-119.24 365.76,-98.35 383.14,-84.22"/>
<polygon fill="midnightblue" stroke="midnightblue" points="385.8,-86.56 391.31,-77.51 381.36,-81.15 385.8,-86.56"/>
</g>
<!-- Node5 -->
<g id="node5" class="node">
<title>Node5</title>
<g id="a_node5"><a xlink:title=" ">
<polygon fill="none" stroke="#bfbfbf" points="195,-0.5 195,-20.5 341,-20.5 341,-0.5 195,-0.5"/>
<text text-anchor="middle" x="268" y="-7.7" font-family="-apple-system,BlinkMacSystemFont,'SegoeUI',Roboto,Oxygen,Ubuntu,Cantarell,'FiraSans','DroidSans','HelveticaNeue',sans-serif" font-size="11.00">nlohmann/json_fwd.hpp</text>
</a>
</g>
</g>
<!-- Node1&#45;&gt;Node5 -->
<g id="edge4" class="edge">
<title>Node1&#45;&gt;Node5</title>
<path fill="none" stroke="midnightblue" d="M286.08,-173.54C338.25,-159.75 405.04,-132.12 435,-78 456.41,-39.33 403.02,-23.1 351.04,-16.31"/>
<polygon fill="midnightblue" stroke="midnightblue" points="351.37,-12.82 341.03,-15.11 350.54,-19.77 351.37,-12.82"/>
</g>
<!-- Node6 -->
<g id="node6" class="node">
<title>Node6</title>
<g id="a_node6"><a xlink:href="BasicTypes_8hpp.html" target="_top" xlink:title=" ">
<polygon fill="none" stroke="black" points="124.5,-114.5 124.5,-134.5 305.5,-134.5 305.5,-114.5 124.5,-114.5"/>
<text text-anchor="middle" x="215" y="-121.7" font-family="-apple-system,BlinkMacSystemFont,'SegoeUI',Roboto,Oxygen,Ubuntu,Cantarell,'FiraSans','DroidSans','HelveticaNeue',sans-serif" font-size="11.00">libmirai/Types/BasicTypes.hpp</text>
</a>
</g>
</g>
<!-- Node1&#45;&gt;Node6 -->
<g id="edge5" class="edge">
<title>Node1&#45;&gt;Node6</title>
<path fill="none" stroke="midnightblue" d="M215,-171.42C215,-163.38 215,-153.39 215,-144.78"/>
<polygon fill="midnightblue" stroke="midnightblue" points="218.5,-144.55 215,-134.55 211.5,-144.55 218.5,-144.55"/>
</g>
<!-- Node6&#45;&gt;Node2 -->
<g id="edge6" class="edge">
<title>Node6&#45;&gt;Node2</title>
<path fill="none" stroke="midnightblue" d="M183.96,-114.42C151.02,-104.78 98.99,-89.56 63.96,-79.31"/>
<polygon fill="midnightblue" stroke="midnightblue" points="64.7,-75.88 54.12,-76.43 62.74,-82.6 64.7,-75.88"/>
</g>
<!-- Node6&#45;&gt;Node3 -->
<g id="edge7" class="edge">
<title>Node6&#45;&gt;Node3</title>
<path fill="none" stroke="midnightblue" d="M195.35,-114.42C176.14,-105.54 146.68,-91.93 124.83,-81.82"/>
<polygon fill="midnightblue" stroke="midnightblue" points="126.23,-78.61 115.68,-77.6 123.29,-84.97 126.23,-78.61"/>
</g>
<!-- Node6&#45;&gt;Node4 -->
<g id="edge8" class="edge">
<title>Node6&#45;&gt;Node4</title>
<path fill="none" stroke="midnightblue" d="M245.88,-114.42C279.59,-104.5 333.39,-88.68 368.2,-78.44"/>
<polygon fill="midnightblue" stroke="midnightblue" points="369.31,-81.76 377.92,-75.58 367.34,-75.05 369.31,-81.76"/>
</g>
<!-- Node6&#45;&gt;Node5 -->
<g id="edge9" class="edge">
<title>Node6&#45;&gt;Node5</title>
<path fill="none" stroke="midnightblue" d="M200.2,-114.46C181.5,-101.85 153.32,-78.17 167,-57 177.26,-41.12 194.53,-30.73 211.92,-23.95"/>
<polygon fill="midnightblue" stroke="midnightblue" points="213.29,-27.18 221.55,-20.54 210.95,-20.58 213.29,-27.18"/>
</g>
<!-- Node7 -->
<g id="node7" class="node">
<title>Node7</title>
<g id="a_node7"><a xlink:href="Serializable_8hpp.html" target="_top" xlink:title=" ">
<polygon fill="none" stroke="black" points="176.5,-57.5 176.5,-77.5 359.5,-77.5 359.5,-57.5 176.5,-57.5"/>
<text text-anchor="middle" x="268" y="-64.7" font-family="-apple-system,BlinkMacSystemFont,'SegoeUI',Roboto,Oxygen,Ubuntu,Cantarell,'FiraSans','DroidSans','HelveticaNeue',sans-serif" font-size="11.00">libmirai/Types/Serializable.hpp</text>
</a>
</g>
</g>
<!-- Node6&#45;&gt;Node7 -->
<g id="edge10" class="edge">
<title>Node6&#45;&gt;Node7</title>
<path fill="none" stroke="midnightblue" d="M223.75,-114.42C231.38,-106.5 242.63,-94.82 251.88,-85.23"/>
<polygon fill="midnightblue" stroke="midnightblue" points="254.64,-87.41 259.06,-77.78 249.6,-82.55 254.64,-87.41"/>
</g>
<!-- Node7&#45;&gt;Node5 -->
<g id="edge11" class="edge">
<title>Node7&#45;&gt;Node5</title>
<path fill="none" stroke="midnightblue" d="M268,-57.42C268,-50.22 268,-39.9 268,-30.86"/>
<polygon fill="midnightblue" stroke="midnightblue" points="271.5,-30.78 268,-20.78 264.5,-30.78 271.5,-30.78"/>
</g>
</g>
</svg>
