<?xml version="1.0" encoding="UTF-8" standalone="no"?>
<!DOCTYPE svg PUBLIC "-//W3C//DTD SVG 1.1//EN"
 "http://www.w3.org/Graphics/SVG/1.1/DTD/svg11.dtd">
<!-- Generated by graphviz version 2.43.0 (0)
 -->
<!-- Title: libmirai/public/libmirai/Api/SessionConfig.cpp Pages: 1 -->
<svg width="631pt" height="212pt"
 viewBox="0.00 0.00 631.00 212.00" xmlns="http://www.w3.org/2000/svg" xmlns:xlink="http://www.w3.org/1999/xlink">
<g id="graph0" class="graph" transform="scale(1 1) rotate(0) translate(4 208)">
<title>libmirai/public/libmirai/Api/SessionConfig.cpp</title>
<!-- Node1 -->
<g id="node1" class="node">
<title>Node1</title>
<g id="a_node1"><a xlink:title=" ">
<polygon fill="#bfbfbf" stroke="black" points="257.5,-171.5 257.5,-203.5 398.5,-203.5 398.5,-171.5 257.5,-171.5"/>
<text text-anchor="start" x="265.5" y="-190.7" font-family="-apple-system,BlinkMacSystemFont,'SegoeUI',Roboto,Oxygen,Ubuntu,Cantarell,'FiraSans','DroidSans','HelveticaNeue',sans-serif" font-size="11.00">libmirai/public/libmirai</text>
<text text-anchor="middle" x="328" y="-178.7" font-family="-apple-system,BlinkMacSystemFont,'SegoeUI',Roboto,Oxygen,Ubuntu,Cantarell,'FiraSans','DroidSans','HelveticaNeue',sans-serif" font-size="11.00">/Api/SessionConfig.cpp</text>
</a>
</g>
</g>
<!-- Node2 -->
<g id="node2" class="node">
<title>Node2</title>
<g id="a_node2"><a xlink:href="SessionConfig_8hpp.html" target="_top" xlink:title=" ">
<polygon fill="none" stroke="black" points="109.5,-114.5 109.5,-134.5 226.5,-134.5 226.5,-114.5 109.5,-114.5"/>
<text text-anchor="middle" x="168" y="-121.7" font-family="-apple-system,BlinkMacSystemFont,'SegoeUI',Roboto,Oxygen,Ubuntu,Cantarell,'FiraSans','DroidSans','HelveticaNeue',sans-serif" font-size="11.00">SessionConfig.hpp</text>
</a>
</g>
</g>
<!-- Node1&#45;&gt;Node2 -->
<g id="edge1" class="edge">
<title>Node1&#45;&gt;Node2</title>
<path fill="none" stroke="midnightblue" d="M288.45,-171.42C261.65,-161.21 226.64,-147.86 201.28,-138.19"/>
<polygon fill="midnightblue" stroke="midnightblue" points="202.32,-134.84 191.73,-134.55 199.82,-141.38 202.32,-134.84"/>
</g>
<!-- Node9 -->
<g id="node8" class="node">
<title>Node9</title>
<g id="a_node8"><a xlink:title=" ">
<polygon fill="none" stroke="#bfbfbf" points="244.5,-114.5 244.5,-134.5 303.5,-134.5 303.5,-114.5 244.5,-114.5"/>
<text text-anchor="middle" x="274" y="-121.7" font-family="-apple-system,BlinkMacSystemFont,'SegoeUI',Roboto,Oxygen,Ubuntu,Cantarell,'FiraSans','DroidSans','HelveticaNeue',sans-serif" font-size="11.00">fstream</text>
</a>
</g>
</g>
<!-- Node1&#45;&gt;Node9 -->
<g id="edge11" class="edge">
<title>Node1&#45;&gt;Node9</title>
<path fill="none" stroke="midnightblue" d="M314.65,-171.42C306.81,-162.56 296.88,-151.35 288.8,-142.22"/>
<polygon fill="midnightblue" stroke="midnightblue" points="291.26,-139.71 282.01,-134.55 286.02,-144.35 291.26,-139.71"/>
</g>
<!-- Node10 -->
<g id="node9" class="node">
<title>Node10</title>
<g id="a_node9"><a xlink:title=" ">
<polygon fill="none" stroke="#bfbfbf" points="321.5,-114.5 321.5,-134.5 442.5,-134.5 442.5,-114.5 321.5,-114.5"/>
<text text-anchor="middle" x="382" y="-121.7" font-family="-apple-system,BlinkMacSystemFont,'SegoeUI',Roboto,Oxygen,Ubuntu,Cantarell,'FiraSans','DroidSans','HelveticaNeue',sans-serif" font-size="11.00">nlohmann/json.hpp</text>
</a>
</g>
</g>
<!-- Node1&#45;&gt;Node10 -->
<g id="edge12" class="edge">
<title>Node1&#45;&gt;Node10</title>
<path fill="none" stroke="midnightblue" d="M341.35,-171.42C349.19,-162.56 359.12,-151.35 367.2,-142.22"/>
<polygon fill="midnightblue" stroke="midnightblue" points="369.98,-144.35 373.99,-134.55 364.74,-139.71 369.98,-144.35"/>
</g>
<!-- Node11 -->
<g id="node10" class="node">
<title>Node11</title>
<g id="a_node10"><a xlink:title=" ">
<polygon fill="none" stroke="#bfbfbf" points="461,-114.5 461,-134.5 623,-134.5 623,-114.5 461,-114.5"/>
<text text-anchor="middle" x="542" y="-121.7" font-family="-apple-system,BlinkMacSystemFont,'SegoeUI',Roboto,Oxygen,Ubuntu,Cantarell,'FiraSans','DroidSans','HelveticaNeue',sans-serif" font-size="11.00">libmirai/Utils/Common.hpp</text>
</a>
</g>
</g>
<!-- Node1&#45;&gt;Node11 -->
<g id="edge13" class="edge">
<title>Node1&#45;&gt;Node11</title>
<path fill="none" stroke="midnightblue" d="M380.62,-171.5C417.57,-160.97 466.29,-147.08 500.5,-137.33"/>
<polygon fill="midnightblue" stroke="midnightblue" points="501.52,-140.68 510.18,-134.57 499.61,-133.94 501.52,-140.68"/>
</g>
<!-- Node3 -->
<g id="node3" class="node">
<title>Node3</title>
<g id="a_node3"><a xlink:title=" ">
<polygon fill="none" stroke="#bfbfbf" points="0,-0.5 0,-20.5 54,-20.5 54,-0.5 0,-0.5"/>
<text text-anchor="middle" x="27" y="-7.7" font-family="-apple-system,BlinkMacSystemFont,'SegoeUI',Roboto,Oxygen,Ubuntu,Cantarell,'FiraSans','DroidSans','HelveticaNeue',sans-serif" font-size="11.00">chrono</text>
</a>
</g>
</g>
<!-- Node2&#45;&gt;Node3 -->
<g id="edge2" class="edge">
<title>Node2&#45;&gt;Node3</title>
<path fill="none" stroke="midnightblue" d="M130.22,-114.44C107.91,-107.52 80.35,-96.03 61,-78 47.11,-65.05 37.98,-45.16 32.72,-30.5"/>
<polygon fill="midnightblue" stroke="midnightblue" points="36.01,-29.32 29.55,-20.92 29.37,-31.52 36.01,-29.32"/>
</g>
<!-- Node4 -->
<g id="node4" class="node">
<title>Node4</title>
<g id="a_node4"><a xlink:title=" ">
<polygon fill="none" stroke="#bfbfbf" points="83.5,-0.5 83.5,-20.5 130.5,-20.5 130.5,-0.5 83.5,-0.5"/>
<text text-anchor="middle" x="107" y="-7.7" font-family="-apple-system,BlinkMacSystemFont,'SegoeUI',Roboto,Oxygen,Ubuntu,Cantarell,'FiraSans','DroidSans','HelveticaNeue',sans-serif" font-size="11.00">ctime</text>
</a>
</g>
</g>
<!-- Node2&#45;&gt;Node4 -->
<g id="edge3" class="edge">
<title>Node2&#45;&gt;Node4</title>
<path fill="none" stroke="midnightblue" d="M122.25,-114.42C102,-107.88 80.08,-96.77 68,-78 57.12,-61.1 72.43,-41.14 86.94,-27.53"/>
<polygon fill="midnightblue" stroke="midnightblue" points="89.54,-29.9 94.75,-20.68 84.93,-24.64 89.54,-29.9"/>
</g>
<!-- Node5 -->
<g id="node5" class="node">
<title>Node5</title>
<g id="a_node5"><a xlink:title=" ">
<polygon fill="none" stroke="#bfbfbf" points="154,-0.5 154,-20.5 202,-20.5 202,-0.5 154,-0.5"/>
<text text-anchor="middle" x="178" y="-7.7" font-family="-apple-system,BlinkMacSystemFont,'SegoeUI',Roboto,Oxygen,Ubuntu,Cantarell,'FiraSans','DroidSans','HelveticaNeue',sans-serif" font-size="11.00">string</text>
</a>
</g>
</g>
<!-- Node2&#45;&gt;Node5 -->
<g id="edge4" class="edge">
<title>Node2&#45;&gt;Node5</title>
<path fill="none" stroke="midnightblue" d="M213.75,-114.42C234,-107.88 255.92,-96.77 268,-78 285.15,-51.35 243.9,-31.66 211.71,-20.88"/>
<polygon fill="midnightblue" stroke="midnightblue" points="212.68,-17.52 202.09,-17.83 210.56,-24.19 212.68,-17.52"/>
</g>
<!-- Node6 -->
<g id="node6" class="node">
<title>Node6</title>
<g id="a_node6"><a xlink:title=" ">
<polygon fill="none" stroke="#bfbfbf" points="241,-0.5 241,-20.5 387,-20.5 387,-0.5 241,-0.5"/>
<text text-anchor="middle" x="314" y="-7.7" font-family="-apple-system,BlinkMacSystemFont,'SegoeUI',Roboto,Oxygen,Ubuntu,Cantarell,'FiraSans','DroidSans','HelveticaNeue',sans-serif" font-size="11.00">nlohmann/json_fwd.hpp</text>
</a>
</g>
</g>
<!-- Node2&#45;&gt;Node6 -->
<g id="edge5" class="edge">
<title>Node2&#45;&gt;Node6</title>
<path fill="none" stroke="midnightblue" d="M213.22,-114.43C236.74,-107.74 264.56,-96.49 284,-78 297.46,-65.2 305.34,-45.25 309.62,-30.53"/>
<polygon fill="midnightblue" stroke="midnightblue" points="313.1,-31.07 312.22,-20.51 306.32,-29.31 313.1,-31.07"/>
</g>
<!-- Node7 -->
<g id="node7" class="node">
<title>Node7</title>
<g id="a_node7"><a xlink:href="BasicTypes_8hpp.html" target="_top" xlink:title=" ">
<polygon fill="none" stroke="red" points="77.5,-57.5 77.5,-77.5 258.5,-77.5 258.5,-57.5 77.5,-57.5"/>
<text text-anchor="middle" x="168" y="-64.7" font-family="-apple-system,BlinkMacSystemFont,'SegoeUI',Roboto,Oxygen,Ubuntu,Cantarell,'FiraSans','DroidSans','HelveticaNeue',sans-serif" font-size="11.00">libmirai/Types/BasicTypes.hpp</text>
</a>
</g>
</g>
<!-- Node2&#45;&gt;Node7 -->
<g id="edge6" class="edge">
<title>Node2&#45;&gt;Node7</title>
<path fill="none" stroke="midnightblue" d="M168,-114.42C168,-107.22 168,-96.9 168,-87.86"/>
<polygon fill="midnightblue" stroke="midnightblue" points="171.5,-87.78 168,-77.78 164.5,-87.78 171.5,-87.78"/>
</g>
<!-- Node7&#45;&gt;Node3 -->
<g id="edge7" class="edge">
<title>Node7&#45;&gt;Node3</title>
<path fill="none" stroke="midnightblue" d="M144.72,-57.42C121.55,-48.38 85.8,-34.44 59.77,-24.28"/>
<polygon fill="midnightblue" stroke="midnightblue" points="60.91,-20.97 50.32,-20.6 58.36,-27.49 60.91,-20.97"/>
</g>
<!-- Node7&#45;&gt;Node4 -->
<g id="edge8" class="edge">
<title>Node7&#45;&gt;Node4</title>
<path fill="none" stroke="midnightblue" d="M157.93,-57.42C148.97,-49.35 135.68,-37.36 124.91,-27.65"/>
<polygon fill="midnightblue" stroke="midnightblue" points="127.06,-24.88 117.29,-20.78 122.37,-30.08 127.06,-24.88"/>
</g>
<!-- Node7&#45;&gt;Node5 -->
<g id="edge9" class="edge">
<title>Node7&#45;&gt;Node5</title>
<path fill="none" stroke="midnightblue" d="M169.65,-57.42C170.96,-50.22 172.84,-39.9 174.48,-30.86"/>
<polygon fill="midnightblue" stroke="midnightblue" points="177.97,-31.24 176.31,-20.78 171.08,-29.99 177.97,-31.24"/>
</g>
<!-- Node7&#45;&gt;Node6 -->
<g id="edge10" class="edge">
<title>Node7&#45;&gt;Node6</title>
<path fill="none" stroke="midnightblue" d="M192.11,-57.42C216.2,-48.34 253.44,-34.31 280.42,-24.15"/>
<polygon fill="midnightblue" stroke="midnightblue" points="281.73,-27.4 289.86,-20.6 279.26,-20.85 281.73,-27.4"/>
</g>
</g>
</svg>
