<?xml version="1.0" encoding="UTF-8" standalone="no"?>
<!DOCTYPE svg PUBLIC "-//W3C//DTD SVG 1.1//EN"
 "http://www.w3.org/Graphics/SVG/1.1/DTD/svg11.dtd">
<!-- Generated by graphviz version 3.0.0 (20220413.0242)
 -->
<!-- Title: libmirai/public/libmirai/Utils/SessionConfig.hpp Pages: 1 -->
<svg width="472pt" height="212pt"
 viewBox="0.00 0.00 471.85 212.00" xmlns="http://www.w3.org/2000/svg" xmlns:xlink="http://www.w3.org/1999/xlink">
<g id="graph0" class="graph" transform="scale(1 1) rotate(0) translate(4 208)">
<title>libmirai/public/libmirai/Utils/SessionConfig.hpp</title>
<!-- Node1 -->
<g id="node1" class="node">
<title>Node1</title>
<g id="a_node1"><a xlink:title=" ">
<polygon fill="#bfbfbf" stroke="black" points="125,-171.5 125,-203.5 259,-203.5 259,-171.5 125,-171.5"/>
<text text-anchor="start" x="133" y="-190.7" font-family="-apple-system, BlinkMacSystemFont, 'Segoe UI', Roboto, Oxygen, Ubuntu, Cantarell, 'Fira Sans', 'Droid Sans', 'Helvetica Neue', sans-serif" font-size="11.00">libmirai/public/libmirai</text>
<text text-anchor="middle" x="192" y="-178.7" font-family="-apple-system, BlinkMacSystemFont, 'Segoe UI', Roboto, Oxygen, Ubuntu, Cantarell, 'Fira Sans', 'Droid Sans', 'Helvetica Neue', sans-serif" font-size="11.00">/Utils/SessionConfig.hpp</text>
</a>
</g>
</g>
<!-- Node2 -->
<g id="node2" class="node">
<title>Node2</title>
<g id="a_node2"><a xlink:title=" ">
<polygon fill="none" stroke="#bfbfbf" points="0,-57.5 0,-77.5 50,-77.5 50,-57.5 0,-57.5"/>
<text text-anchor="middle" x="25" y="-64.7" font-family="-apple-system, BlinkMacSystemFont, 'Segoe UI', Roboto, Oxygen, Ubuntu, Cantarell, 'Fira Sans', 'Droid Sans', 'Helvetica Neue', sans-serif" font-size="11.00">chrono</text>
</a>
</g>
</g>
<!-- Node1&#45;&gt;Node2 -->
<g id="edge1" class="edge">
<title>Node1&#45;&gt;Node2</title>
<path fill="none" stroke="midnightblue" d="M154.51,-171.48C134.16,-162.43 109.13,-149.81 89,-135 69.54,-120.69 50.81,-100.18 38.7,-85.73"/>
<polygon fill="midnightblue" stroke="midnightblue" points="41.11,-83.15 32.06,-77.63 35.69,-87.58 41.11,-83.15"/>
</g>
<!-- Node3 -->
<g id="node3" class="node">
<title>Node3</title>
<g id="a_node3"><a xlink:title=" ">
<polygon fill="none" stroke="#bfbfbf" points="68,-57.5 68,-77.5 110,-77.5 110,-57.5 68,-57.5"/>
<text text-anchor="middle" x="89" y="-64.7" font-family="-apple-system, BlinkMacSystemFont, 'Segoe UI', Roboto, Oxygen, Ubuntu, Cantarell, 'Fira Sans', 'Droid Sans', 'Helvetica Neue', sans-serif" font-size="11.00">ctime</text>
</a>
</g>
</g>
<!-- Node1&#45;&gt;Node3 -->
<g id="edge2" class="edge">
<title>Node1&#45;&gt;Node3</title>
<path fill="none" stroke="midnightblue" d="M149.29,-171.28C132.11,-163.08 113.64,-151.24 102,-135 92.16,-121.27 89.27,-102.02 88.62,-87.76"/>
<polygon fill="midnightblue" stroke="midnightblue" points="92.12,-87.55 88.5,-77.6 85.12,-87.64 92.12,-87.55"/>
</g>
<!-- Node4 -->
<g id="node4" class="node">
<title>Node4</title>
<g id="a_node4"><a xlink:title=" ">
<polygon fill="none" stroke="#bfbfbf" points="406.5,-57.5 406.5,-77.5 449.5,-77.5 449.5,-57.5 406.5,-57.5"/>
<text text-anchor="middle" x="428" y="-64.7" font-family="-apple-system, BlinkMacSystemFont, 'Segoe UI', Roboto, Oxygen, Ubuntu, Cantarell, 'Fira Sans', 'Droid Sans', 'Helvetica Neue', sans-serif" font-size="11.00">string</text>
</a>
</g>
</g>
<!-- Node1&#45;&gt;Node4 -->
<g id="edge3" class="edge">
<title>Node1&#45;&gt;Node4</title>
<path fill="none" stroke="midnightblue" d="M222.37,-171.32C268.76,-148.12 356.56,-104.22 400.91,-82.05"/>
<polygon fill="midnightblue" stroke="midnightblue" points="402.56,-85.14 409.93,-77.53 399.42,-78.87 402.56,-85.14"/>
</g>
<!-- Node5 -->
<g id="node5" class="node">
<title>Node5</title>
<g id="a_node5"><a xlink:title=" ">
<polygon fill="none" stroke="#bfbfbf" points="241.5,-0.5 241.5,-20.5 372.5,-20.5 372.5,-0.5 241.5,-0.5"/>
<text text-anchor="middle" x="307" y="-7.7" font-family="-apple-system, BlinkMacSystemFont, 'Segoe UI', Roboto, Oxygen, Ubuntu, Cantarell, 'Fira Sans', 'Droid Sans', 'Helvetica Neue', sans-serif" font-size="11.00">nlohmann/json_fwd.hpp</text>
</a>
</g>
</g>
<!-- Node1&#45;&gt;Node5 -->
<g id="edge4" class="edge">
<title>Node1&#45;&gt;Node5</title>
<path fill="none" stroke="midnightblue" d="M259.24,-180.12C322.81,-170.08 414.69,-144.28 458,-78 480.39,-43.73 430.73,-27 382.48,-18.9"/>
<polygon fill="midnightblue" stroke="midnightblue" points="382.98,-15.44 372.56,-17.35 381.89,-22.36 382.98,-15.44"/>
</g>
<!-- Node6 -->
<g id="node6" class="node">
<title>Node6</title>
<g id="a_node6"><a xlink:href="BasicTypes_8hpp.html" target="_top" xlink:title=" ">
<polygon fill="none" stroke="black" points="111,-114.5 111,-134.5 273,-134.5 273,-114.5 111,-114.5"/>
<text text-anchor="middle" x="192" y="-121.7" font-family="-apple-system, BlinkMacSystemFont, 'Segoe UI', Roboto, Oxygen, Ubuntu, Cantarell, 'Fira Sans', 'Droid Sans', 'Helvetica Neue', sans-serif" font-size="11.00">libmirai/Types/BasicTypes.hpp</text>
</a>
</g>
</g>
<!-- Node1&#45;&gt;Node6 -->
<g id="edge5" class="edge">
<title>Node1&#45;&gt;Node6</title>
<path fill="none" stroke="midnightblue" d="M192,-171.42C192,-163.38 192,-153.39 192,-144.78"/>
<polygon fill="midnightblue" stroke="midnightblue" points="195.5,-144.55 192,-134.55 188.5,-144.55 195.5,-144.55"/>
</g>
<!-- Node6&#45;&gt;Node2 -->
<g id="edge6" class="edge">
<title>Node6&#45;&gt;Node2</title>
<path fill="none" stroke="midnightblue" d="M164.42,-114.42C135.75,-104.97 90.79,-90.17 59.72,-79.93"/>
<polygon fill="midnightblue" stroke="midnightblue" points="60.75,-76.59 50.16,-76.79 58.56,-83.24 60.75,-76.59"/>
</g>
<!-- Node6&#45;&gt;Node3 -->
<g id="edge7" class="edge">
<title>Node6&#45;&gt;Node3</title>
<path fill="none" stroke="midnightblue" d="M174.99,-114.42C158.67,-105.7 133.78,-92.41 114.97,-82.37"/>
<polygon fill="midnightblue" stroke="midnightblue" points="116.5,-79.22 106.03,-77.6 113.21,-85.39 116.5,-79.22"/>
</g>
<!-- Node6&#45;&gt;Node4 -->
<g id="edge8" class="edge">
<title>Node6&#45;&gt;Node4</title>
<path fill="none" stroke="midnightblue" d="M237.44,-114.49C277.03,-106.4 336.16,-93.73 396.66,-77.93"/>
<polygon fill="midnightblue" stroke="midnightblue" points="397.61,-81.3 406.38,-75.36 395.82,-74.53 397.61,-81.3"/>
</g>
<!-- Node6&#45;&gt;Node5 -->
<g id="edge10" class="edge">
<title>Node6&#45;&gt;Node5</title>
<path fill="none" stroke="midnightblue" d="M180.88,-114.38C166,-101.08 143.01,-75.86 157,-57 174.4,-33.54 203.58,-21.75 231.61,-15.97"/>
<polygon fill="midnightblue" stroke="midnightblue" points="232.24,-19.42 241.45,-14.17 230.98,-12.53 232.24,-19.42"/>
</g>
<!-- Node7 -->
<g id="node7" class="node">
<title>Node7</title>
<g id="a_node7"><a xlink:title=" ">
<polygon fill="none" stroke="#bfbfbf" points="166.5,-57.5 166.5,-77.5 207.5,-77.5 207.5,-57.5 166.5,-57.5"/>
<text text-anchor="middle" x="187" y="-64.7" font-family="-apple-system, BlinkMacSystemFont, 'Segoe UI', Roboto, Oxygen, Ubuntu, Cantarell, 'Fira Sans', 'Droid Sans', 'Helvetica Neue', sans-serif" font-size="11.00">utility</text>
</a>
</g>
</g>
<!-- Node6&#45;&gt;Node7 -->
<g id="edge9" class="edge">
<title>Node6&#45;&gt;Node7</title>
<path fill="none" stroke="midnightblue" d="M191.17,-114.42C190.52,-107.22 189.58,-96.9 188.76,-87.86"/>
<polygon fill="midnightblue" stroke="midnightblue" points="192.23,-87.42 187.84,-77.78 185.26,-88.06 192.23,-87.42"/>
</g>
<!-- Node8 -->
<g id="node8" class="node">
<title>Node8</title>
<g id="a_node8"><a xlink:href="Serializable_8hpp.html" target="_top" xlink:title=" ">
<polygon fill="none" stroke="black" points="226,-57.5 226,-77.5 388,-77.5 388,-57.5 226,-57.5"/>
<text text-anchor="middle" x="307" y="-64.7" font-family="-apple-system, BlinkMacSystemFont, 'Segoe UI', Roboto, Oxygen, Ubuntu, Cantarell, 'Fira Sans', 'Droid Sans', 'Helvetica Neue', sans-serif" font-size="11.00">libmirai/Types/Serializable.hpp</text>
</a>
</g>
</g>
<!-- Node6&#45;&gt;Node8 -->
<g id="edge11" class="edge">
<title>Node6&#45;&gt;Node8</title>
<path fill="none" stroke="midnightblue" d="M210.99,-114.42C229.47,-105.58 257.76,-92.05 278.86,-81.96"/>
<polygon fill="midnightblue" stroke="midnightblue" points="280.47,-85.07 287.98,-77.6 277.45,-78.75 280.47,-85.07"/>
</g>
<!-- Node8&#45;&gt;Node5 -->
<g id="edge12" class="edge">
<title>Node8&#45;&gt;Node5</title>
<path fill="none" stroke="midnightblue" d="M307,-57.42C307,-50.22 307,-39.9 307,-30.86"/>
<polygon fill="midnightblue" stroke="midnightblue" points="310.5,-30.78 307,-20.78 303.5,-30.78 310.5,-30.78"/>
</g>
</g>
</svg>
