<?xml version="1.0" encoding="UTF-8" standalone="no"?>
<!DOCTYPE svg PUBLIC "-//W3C//DTD SVG 1.1//EN"
 "http://www.w3.org/Graphics/SVG/1.1/DTD/svg11.dtd">
<!-- Generated by graphviz version 3.0.0 (20220413.0242)
 -->
<!-- Title: libmirai/public/libmirai/Api/SessionConfig.hpp Pages: 1 -->
<svg width="410pt" height="212pt"
 viewBox="0.00 0.00 410.43 212.00" xmlns="http://www.w3.org/2000/svg" xmlns:xlink="http://www.w3.org/1999/xlink">
<g id="graph0" class="graph" transform="scale(1 1) rotate(0) translate(4 208)">
<title>libmirai/public/libmirai/Api/SessionConfig.hpp</title>
<!-- Node1 -->
<g id="node1" class="node">
<title>Node1</title>
<g id="a_node1"><a xlink:title=" ">
<polygon fill="#bfbfbf" stroke="black" points="134,-171.5 134,-203.5 262,-203.5 262,-171.5 134,-171.5"/>
<text text-anchor="start" x="142" y="-190.7" font-family="-apple-system, BlinkMacSystemFont, 'Segoe UI', Roboto, Oxygen, Ubuntu, Cantarell, 'Fira Sans', 'Droid Sans', 'Helvetica Neue', sans-serif" font-size="11.00">libmirai/public/libmirai</text>
<text text-anchor="middle" x="198" y="-178.7" font-family="-apple-system, BlinkMacSystemFont, 'Segoe UI', Roboto, Oxygen, Ubuntu, Cantarell, 'Fira Sans', 'Droid Sans', 'Helvetica Neue', sans-serif" font-size="11.00">/Api/SessionConfig.hpp</text>
</a>
</g>
</g>
<!-- Node2 -->
<g id="node2" class="node">
<title>Node2</title>
<g id="a_node2"><a xlink:title=" ">
<polygon fill="none" stroke="#bfbfbf" points="0,-57.5 0,-77.5 50,-77.5 50,-57.5 0,-57.5"/>
<text text-anchor="middle" x="25" y="-64.7" font-family="-apple-system, BlinkMacSystemFont, 'Segoe UI', Roboto, Oxygen, Ubuntu, Cantarell, 'Fira Sans', 'Droid Sans', 'Helvetica Neue', sans-serif" font-size="11.00">chrono</text>
</a>
</g>
</g>
<!-- Node1&#45;&gt;Node2 -->
<g id="edge1" class="edge">
<title>Node1&#45;&gt;Node2</title>
<path fill="none" stroke="midnightblue" d="M160.84,-171.45C140.28,-162.32 114.76,-149.61 94,-135 73.3,-120.43 52.84,-99.69 39.64,-85.26"/>
<polygon fill="midnightblue" stroke="midnightblue" points="42.04,-82.7 32.76,-77.59 36.83,-87.37 42.04,-82.7"/>
</g>
<!-- Node3 -->
<g id="node3" class="node">
<title>Node3</title>
<g id="a_node3"><a xlink:title=" ">
<polygon fill="none" stroke="#bfbfbf" points="68,-57.5 68,-77.5 110,-77.5 110,-57.5 68,-57.5"/>
<text text-anchor="middle" x="89" y="-64.7" font-family="-apple-system, BlinkMacSystemFont, 'Segoe UI', Roboto, Oxygen, Ubuntu, Cantarell, 'Fira Sans', 'Droid Sans', 'Helvetica Neue', sans-serif" font-size="11.00">ctime</text>
</a>
</g>
</g>
<!-- Node1&#45;&gt;Node3 -->
<g id="edge2" class="edge">
<title>Node1&#45;&gt;Node3</title>
<path fill="none" stroke="midnightblue" d="M157.33,-171.45C139.89,-163.13 120.66,-151.15 108,-135 97.36,-121.43 92.68,-102.16 90.62,-87.85"/>
<polygon fill="midnightblue" stroke="midnightblue" points="94.07,-87.19 89.47,-77.65 87.11,-87.98 94.07,-87.19"/>
</g>
<!-- Node4 -->
<g id="node4" class="node">
<title>Node4</title>
<g id="a_node4"><a xlink:title=" ">
<polygon fill="none" stroke="#bfbfbf" points="346.5,-57.5 346.5,-77.5 389.5,-77.5 389.5,-57.5 346.5,-57.5"/>
<text text-anchor="middle" x="368" y="-64.7" font-family="-apple-system, BlinkMacSystemFont, 'Segoe UI', Roboto, Oxygen, Ubuntu, Cantarell, 'Fira Sans', 'Droid Sans', 'Helvetica Neue', sans-serif" font-size="11.00">string</text>
</a>
</g>
</g>
<!-- Node1&#45;&gt;Node4 -->
<g id="edge3" class="edge">
<title>Node1&#45;&gt;Node4</title>
<path fill="none" stroke="midnightblue" d="M227.15,-171.49C245.16,-161.82 268.48,-148.55 288,-135 310.54,-119.36 334.49,-98.87 350.25,-84.79"/>
<polygon fill="midnightblue" stroke="midnightblue" points="353.02,-87 358.1,-77.7 348.33,-81.81 353.02,-87"/>
</g>
<!-- Node5 -->
<g id="node5" class="node">
<title>Node5</title>
<g id="a_node5"><a xlink:title=" ">
<polygon fill="none" stroke="#bfbfbf" points="181.5,-0.5 181.5,-20.5 312.5,-20.5 312.5,-0.5 181.5,-0.5"/>
<text text-anchor="middle" x="247" y="-7.7" font-family="-apple-system, BlinkMacSystemFont, 'Segoe UI', Roboto, Oxygen, Ubuntu, Cantarell, 'Fira Sans', 'Droid Sans', 'Helvetica Neue', sans-serif" font-size="11.00">nlohmann/json_fwd.hpp</text>
</a>
</g>
</g>
<!-- Node1&#45;&gt;Node5 -->
<g id="edge4" class="edge">
<title>Node1&#45;&gt;Node5</title>
<path fill="none" stroke="midnightblue" d="M262.25,-171.93C309.99,-157.21 371.28,-129.11 398,-78 416.61,-42.41 369.53,-25.85 323.15,-18.16"/>
<polygon fill="midnightblue" stroke="midnightblue" points="323.39,-14.66 312.97,-16.61 322.33,-21.58 323.39,-14.66"/>
</g>
<!-- Node6 -->
<g id="node6" class="node">
<title>Node6</title>
<g id="a_node6"><a xlink:href="BasicTypes_8hpp.html" target="_top" xlink:title=" ">
<polygon fill="none" stroke="black" points="117,-114.5 117,-134.5 279,-134.5 279,-114.5 117,-114.5"/>
<text text-anchor="middle" x="198" y="-121.7" font-family="-apple-system, BlinkMacSystemFont, 'Segoe UI', Roboto, Oxygen, Ubuntu, Cantarell, 'Fira Sans', 'Droid Sans', 'Helvetica Neue', sans-serif" font-size="11.00">libmirai/Types/BasicTypes.hpp</text>
</a>
</g>
</g>
<!-- Node1&#45;&gt;Node6 -->
<g id="edge5" class="edge">
<title>Node1&#45;&gt;Node6</title>
<path fill="none" stroke="midnightblue" d="M198,-171.42C198,-163.38 198,-153.39 198,-144.78"/>
<polygon fill="midnightblue" stroke="midnightblue" points="201.5,-144.55 198,-134.55 194.5,-144.55 201.5,-144.55"/>
</g>
<!-- Node6&#45;&gt;Node2 -->
<g id="edge6" class="edge">
<title>Node6&#45;&gt;Node2</title>
<path fill="none" stroke="midnightblue" d="M169.43,-114.42C139.47,-104.89 92.34,-89.91 60.13,-79.67"/>
<polygon fill="midnightblue" stroke="midnightblue" points="60.82,-76.22 50.23,-76.52 58.7,-82.89 60.82,-76.22"/>
</g>
<!-- Node6&#45;&gt;Node3 -->
<g id="edge7" class="edge">
<title>Node6&#45;&gt;Node3</title>
<path fill="none" stroke="midnightblue" d="M180,-114.42C162.64,-105.66 136.15,-92.29 116.22,-82.23"/>
<polygon fill="midnightblue" stroke="midnightblue" points="117.53,-78.98 107.03,-77.6 114.38,-85.23 117.53,-78.98"/>
</g>
<!-- Node6&#45;&gt;Node4 -->
<g id="edge8" class="edge">
<title>Node6&#45;&gt;Node4</title>
<path fill="none" stroke="midnightblue" d="M226.07,-114.42C256.54,-104.56 305.06,-88.86 336.72,-78.62"/>
<polygon fill="midnightblue" stroke="midnightblue" points="337.93,-81.91 346.37,-75.5 335.78,-75.25 337.93,-81.91"/>
</g>
<!-- Node6&#45;&gt;Node5 -->
<g id="edge9" class="edge">
<title>Node6&#45;&gt;Node5</title>
<path fill="none" stroke="midnightblue" d="M185.38,-114.47C169.12,-101.68 144.35,-77.56 157,-57 166.51,-41.54 183.07,-31.14 199.42,-24.24"/>
<polygon fill="midnightblue" stroke="midnightblue" points="200.89,-27.42 208.96,-20.57 198.37,-20.89 200.89,-27.42"/>
</g>
<!-- Node7 -->
<g id="node7" class="node">
<title>Node7</title>
<g id="a_node7"><a xlink:href="Serializable_8hpp.html" target="_top" xlink:title=" ">
<polygon fill="none" stroke="black" points="166,-57.5 166,-77.5 328,-77.5 328,-57.5 166,-57.5"/>
<text text-anchor="middle" x="247" y="-64.7" font-family="-apple-system, BlinkMacSystemFont, 'Segoe UI', Roboto, Oxygen, Ubuntu, Cantarell, 'Fira Sans', 'Droid Sans', 'Helvetica Neue', sans-serif" font-size="11.00">libmirai/Types/Serializable.hpp</text>
</a>
</g>
</g>
<!-- Node6&#45;&gt;Node7 -->
<g id="edge10" class="edge">
<title>Node6&#45;&gt;Node7</title>
<path fill="none" stroke="midnightblue" d="M206.09,-114.42C213.07,-106.58 223.34,-95.06 231.84,-85.51"/>
<polygon fill="midnightblue" stroke="midnightblue" points="234.69,-87.57 238.73,-77.78 229.47,-82.92 234.69,-87.57"/>
</g>
<!-- Node7&#45;&gt;Node5 -->
<g id="edge11" class="edge">
<title>Node7&#45;&gt;Node5</title>
<path fill="none" stroke="midnightblue" d="M247,-57.42C247,-50.22 247,-39.9 247,-30.86"/>
<polygon fill="midnightblue" stroke="midnightblue" points="250.5,-30.78 247,-20.78 243.5,-30.78 250.5,-30.78"/>
</g>
</g>
</svg>
