<?xml version="1.0" encoding="UTF-8" standalone="no"?>
<!DOCTYPE svg PUBLIC "-//W3C//DTD SVG 1.1//EN"
 "http://www.w3.org/Graphics/SVG/1.1/DTD/svg11.dtd">
<!-- Generated by graphviz version 3.0.0 (20220413.0242)
 -->
<!-- Title: libmirai/public/libmirai/Messages/SourceMessage.hpp Pages: 1 -->
<svg width="522pt" height="212pt"
 viewBox="0.00 0.00 522.41 212.00" xmlns="http://www.w3.org/2000/svg" xmlns:xlink="http://www.w3.org/1999/xlink">
<g id="graph0" class="graph" transform="scale(1 1) rotate(0) translate(4 208)">
<title>libmirai/public/libmirai/Messages/SourceMessage.hpp</title>
<!-- Node1 -->
<g id="node1" class="node">
<title>Node1</title>
<g id="a_node1"><a xlink:title=" ">
<polygon fill="#bfbfbf" stroke="black" points="227,-171.5 227,-203.5 397,-203.5 397,-171.5 227,-171.5"/>
<text text-anchor="start" x="235" y="-190.7" font-family="-apple-system, BlinkMacSystemFont, 'Segoe UI', Roboto, Oxygen, Ubuntu, Cantarell, 'Fira Sans', 'Droid Sans', 'Helvetica Neue', sans-serif" font-size="11.00">libmirai/public/libmirai</text>
<text text-anchor="middle" x="312" y="-178.7" font-family="-apple-system, BlinkMacSystemFont, 'Segoe UI', Roboto, Oxygen, Ubuntu, Cantarell, 'Fira Sans', 'Droid Sans', 'Helvetica Neue', sans-serif" font-size="11.00">/Messages/SourceMessage.hpp</text>
</a>
</g>
</g>
<!-- Node2 -->
<g id="node2" class="node">
<title>Node2</title>
<g id="a_node2"><a xlink:title=" ">
<polygon fill="none" stroke="#bfbfbf" points="0,-57.5 0,-77.5 42,-77.5 42,-57.5 0,-57.5"/>
<text text-anchor="middle" x="21" y="-64.7" font-family="-apple-system, BlinkMacSystemFont, 'Segoe UI', Roboto, Oxygen, Ubuntu, Cantarell, 'Fira Sans', 'Droid Sans', 'Helvetica Neue', sans-serif" font-size="11.00">ctime</text>
</a>
</g>
</g>
<!-- Node1&#45;&gt;Node2 -->
<g id="edge1" class="edge">
<title>Node1&#45;&gt;Node2</title>
<path fill="none" stroke="midnightblue" d="M226.76,-174.79C187.05,-167.09 140.07,-154.67 101,-135 75.72,-122.27 51.42,-100.21 36.37,-85.01"/>
<polygon fill="midnightblue" stroke="midnightblue" points="38.84,-82.54 29.38,-77.78 33.81,-87.4 38.84,-82.54"/>
</g>
<!-- Node3 -->
<g id="node3" class="node">
<title>Node3</title>
<g id="a_node3"><a xlink:title=" ">
<polygon fill="none" stroke="#bfbfbf" points="346.5,-57.5 346.5,-77.5 389.5,-77.5 389.5,-57.5 346.5,-57.5"/>
<text text-anchor="middle" x="368" y="-64.7" font-family="-apple-system, BlinkMacSystemFont, 'Segoe UI', Roboto, Oxygen, Ubuntu, Cantarell, 'Fira Sans', 'Droid Sans', 'Helvetica Neue', sans-serif" font-size="11.00">string</text>
</a>
</g>
</g>
<!-- Node1&#45;&gt;Node3 -->
<g id="edge2" class="edge">
<title>Node1&#45;&gt;Node3</title>
<path fill="none" stroke="midnightblue" d="M314.04,-171.39C316.51,-156.24 321.58,-132.57 331,-114 336.32,-103.51 344.37,-93.23 351.61,-85.1"/>
<polygon fill="midnightblue" stroke="midnightblue" points="354.19,-87.46 358.44,-77.75 349.06,-82.69 354.19,-87.46"/>
</g>
<!-- Node4 -->
<g id="node4" class="node">
<title>Node4</title>
<g id="a_node4"><a xlink:title=" ">
<polygon fill="none" stroke="#bfbfbf" points="266.5,-0.5 266.5,-20.5 397.5,-20.5 397.5,-0.5 266.5,-0.5"/>
<text text-anchor="middle" x="332" y="-7.7" font-family="-apple-system, BlinkMacSystemFont, 'Segoe UI', Roboto, Oxygen, Ubuntu, Cantarell, 'Fira Sans', 'Droid Sans', 'Helvetica Neue', sans-serif" font-size="11.00">nlohmann/json_fwd.hpp</text>
</a>
</g>
</g>
<!-- Node1&#45;&gt;Node4 -->
<g id="edge3" class="edge">
<title>Node1&#45;&gt;Node4</title>
<path fill="none" stroke="midnightblue" d="M383.93,-171.5C431.97,-156.95 490.03,-129.26 511,-78 529.88,-31.83 464.73,-16.96 407.81,-12.55"/>
<polygon fill="midnightblue" stroke="midnightblue" points="407.88,-9.04 397.66,-11.86 407.4,-16.03 407.88,-9.04"/>
</g>
<!-- Node5 -->
<g id="node5" class="node">
<title>Node5</title>
<g id="a_node5"><a xlink:href="BasicTypes_8hpp.html" target="_top" xlink:title=" ">
<polygon fill="none" stroke="black" points="110,-114.5 110,-134.5 272,-134.5 272,-114.5 110,-114.5"/>
<text text-anchor="middle" x="191" y="-121.7" font-family="-apple-system, BlinkMacSystemFont, 'Segoe UI', Roboto, Oxygen, Ubuntu, Cantarell, 'Fira Sans', 'Droid Sans', 'Helvetica Neue', sans-serif" font-size="11.00">libmirai/Types/BasicTypes.hpp</text>
</a>
</g>
</g>
<!-- Node1&#45;&gt;Node5 -->
<g id="edge4" class="edge">
<title>Node1&#45;&gt;Node5</title>
<path fill="none" stroke="midnightblue" d="M282.09,-171.42C262.45,-161.52 236.98,-148.68 217.97,-139.1"/>
<polygon fill="midnightblue" stroke="midnightblue" points="219.45,-135.92 208.94,-134.55 216.3,-142.17 219.45,-135.92"/>
</g>
<!-- Node8 -->
<g id="node8" class="node">
<title>Node8</title>
<g id="a_node8"><a xlink:href="MessageBase_8hpp.html" target="_top" xlink:title=" ">
<polygon fill="none" stroke="black" points="340,-114.5 340,-134.5 446,-134.5 446,-114.5 340,-114.5"/>
<text text-anchor="middle" x="393" y="-121.7" font-family="-apple-system, BlinkMacSystemFont, 'Segoe UI', Roboto, Oxygen, Ubuntu, Cantarell, 'Fira Sans', 'Droid Sans', 'Helvetica Neue', sans-serif" font-size="11.00">MessageBase.hpp</text>
</a>
</g>
</g>
<!-- Node1&#45;&gt;Node8 -->
<g id="edge11" class="edge">
<title>Node1&#45;&gt;Node8</title>
<path fill="none" stroke="midnightblue" d="M332.02,-171.42C344.51,-162.02 360.52,-149.96 373,-140.56"/>
<polygon fill="midnightblue" stroke="midnightblue" points="375.11,-143.36 380.99,-134.55 370.89,-137.77 375.11,-143.36"/>
</g>
<!-- Node5&#45;&gt;Node2 -->
<g id="edge6" class="edge">
<title>Node5&#45;&gt;Node2</title>
<path fill="none" stroke="midnightblue" d="M162.93,-114.42C132.29,-104.51 83.4,-88.69 51.75,-78.45"/>
<polygon fill="midnightblue" stroke="midnightblue" points="52.71,-75.08 42.12,-75.33 50.56,-81.74 52.71,-75.08"/>
</g>
<!-- Node5&#45;&gt;Node3 -->
<g id="edge7" class="edge">
<title>Node5&#45;&gt;Node3</title>
<path fill="none" stroke="midnightblue" d="M220.23,-114.42C252.35,-104.44 303.76,-88.46 336.69,-78.23"/>
<polygon fill="midnightblue" stroke="midnightblue" points="337.76,-81.56 346.27,-75.25 335.68,-74.88 337.76,-81.56"/>
</g>
<!-- Node5&#45;&gt;Node4 -->
<g id="edge8" class="edge">
<title>Node5&#45;&gt;Node4</title>
<path fill="none" stroke="midnightblue" d="M180.01,-114.28C165.33,-100.84 142.72,-75.46 157,-57 169.58,-40.73 215.11,-29.2 256.57,-21.82"/>
<polygon fill="midnightblue" stroke="midnightblue" points="257.18,-25.26 266.44,-20.12 256,-18.36 257.18,-25.26"/>
</g>
<!-- Node6 -->
<g id="node6" class="node">
<title>Node6</title>
<g id="a_node6"><a xlink:title=" ">
<polygon fill="none" stroke="#bfbfbf" points="60,-57.5 60,-77.5 110,-77.5 110,-57.5 60,-57.5"/>
<text text-anchor="middle" x="85" y="-64.7" font-family="-apple-system, BlinkMacSystemFont, 'Segoe UI', Roboto, Oxygen, Ubuntu, Cantarell, 'Fira Sans', 'Droid Sans', 'Helvetica Neue', sans-serif" font-size="11.00">chrono</text>
</a>
</g>
</g>
<!-- Node5&#45;&gt;Node6 -->
<g id="edge5" class="edge">
<title>Node5&#45;&gt;Node6</title>
<path fill="none" stroke="midnightblue" d="M173.5,-114.42C156.62,-105.66 130.85,-92.29 111.47,-82.23"/>
<polygon fill="midnightblue" stroke="midnightblue" points="113.02,-79.09 102.53,-77.6 109.79,-85.31 113.02,-79.09"/>
</g>
<!-- Node7 -->
<g id="node7" class="node">
<title>Node7</title>
<g id="a_node7"><a xlink:href="Serializable_8hpp.html" target="_top" xlink:title=" ">
<polygon fill="none" stroke="black" points="166,-57.5 166,-77.5 328,-77.5 328,-57.5 166,-57.5"/>
<text text-anchor="middle" x="247" y="-64.7" font-family="-apple-system, BlinkMacSystemFont, 'Segoe UI', Roboto, Oxygen, Ubuntu, Cantarell, 'Fira Sans', 'Droid Sans', 'Helvetica Neue', sans-serif" font-size="11.00">libmirai/Types/Serializable.hpp</text>
</a>
</g>
</g>
<!-- Node5&#45;&gt;Node7 -->
<g id="edge9" class="edge">
<title>Node5&#45;&gt;Node7</title>
<path fill="none" stroke="midnightblue" d="M200.25,-114.42C208.39,-106.42 220.44,-94.59 230.26,-84.94"/>
<polygon fill="midnightblue" stroke="midnightblue" points="232.87,-87.28 237.55,-77.78 227.96,-82.29 232.87,-87.28"/>
</g>
<!-- Node7&#45;&gt;Node4 -->
<g id="edge10" class="edge">
<title>Node7&#45;&gt;Node4</title>
<path fill="none" stroke="midnightblue" d="M261.04,-57.42C274.2,-48.9 294.11,-36.02 309.49,-26.06"/>
<polygon fill="midnightblue" stroke="midnightblue" points="311.45,-28.97 317.94,-20.6 307.65,-23.09 311.45,-28.97"/>
</g>
<!-- Node8&#45;&gt;Node3 -->
<g id="edge13" class="edge">
<title>Node8&#45;&gt;Node3</title>
<path fill="none" stroke="midnightblue" d="M388.87,-114.42C385.49,-106.98 380.6,-96.21 376.4,-86.97"/>
<polygon fill="midnightblue" stroke="midnightblue" points="379.54,-85.43 372.22,-77.78 373.17,-88.33 379.54,-85.43"/>
</g>
<!-- Node8&#45;&gt;Node4 -->
<g id="edge14" class="edge">
<title>Node8&#45;&gt;Node4</title>
<path fill="none" stroke="midnightblue" d="M396.62,-114.28C401.28,-100.83 407.69,-75.45 398,-57 390.76,-43.22 377.25,-32.79 364.33,-25.42"/>
<polygon fill="midnightblue" stroke="midnightblue" points="365.6,-22.14 355.12,-20.59 362.35,-28.34 365.6,-22.14"/>
</g>
<!-- Node8&#45;&gt;Node7 -->
<g id="edge15" class="edge">
<title>Node8&#45;&gt;Node7</title>
<path fill="none" stroke="midnightblue" d="M368.89,-114.42C344.8,-105.34 307.56,-91.31 280.58,-81.15"/>
<polygon fill="midnightblue" stroke="midnightblue" points="281.74,-77.85 271.14,-77.6 279.27,-84.4 281.74,-77.85"/>
</g>
<!-- Node9 -->
<g id="node9" class="node">
<title>Node9</title>
<g id="a_node9"><a xlink:title=" ">
<polygon fill="none" stroke="#bfbfbf" points="446,-57.5 446,-77.5 502,-77.5 502,-57.5 446,-57.5"/>
<text text-anchor="middle" x="474" y="-64.7" font-family="-apple-system, BlinkMacSystemFont, 'Segoe UI', Roboto, Oxygen, Ubuntu, Cantarell, 'Fira Sans', 'Droid Sans', 'Helvetica Neue', sans-serif" font-size="11.00">memory</text>
</a>
</g>
</g>
<!-- Node8&#45;&gt;Node9 -->
<g id="edge12" class="edge">
<title>Node8&#45;&gt;Node9</title>
<path fill="none" stroke="midnightblue" d="M406.38,-114.42C418.8,-105.98 437.54,-93.26 452.14,-83.34"/>
<polygon fill="midnightblue" stroke="midnightblue" points="454.3,-86.11 460.6,-77.6 450.37,-80.32 454.3,-86.11"/>
</g>
</g>
</svg>
