<?xml version="1.0" encoding="UTF-8" standalone="no"?>
<!DOCTYPE svg PUBLIC "-//W3C//DTD SVG 1.1//EN"
 "http://www.w3.org/Graphics/SVG/1.1/DTD/svg11.dtd">
<!-- Generated by graphviz version 2.43.0 (0)
 -->
<!-- Title: libmirai/public/libmirai/Messages/SourceMessage.hpp Pages: 1 -->
<svg width="564pt" height="212pt"
 viewBox="0.00 0.00 564.30 212.00" xmlns="http://www.w3.org/2000/svg" xmlns:xlink="http://www.w3.org/1999/xlink">
<g id="graph0" class="graph" transform="scale(1 1) rotate(0) translate(4 208)">
<title>libmirai/public/libmirai/Messages/SourceMessage.hpp</title>
<!-- Node1 -->
<g id="node1" class="node">
<title>Node1</title>
<g id="a_node1"><a xlink:title=" ">
<polygon fill="#bfbfbf" stroke="black" points="247,-171.5 247,-203.5 436,-203.5 436,-171.5 247,-171.5"/>
<text text-anchor="start" x="255" y="-190.7" font-family="-apple-system,BlinkMacSystemFont,'SegoeUI',Roboto,Oxygen,Ubuntu,Cantarell,'FiraSans','DroidSans','HelveticaNeue',sans-serif" font-size="11.00">libmirai/public/libmirai</text>
<text text-anchor="middle" x="341.5" y="-178.7" font-family="-apple-system,BlinkMacSystemFont,'SegoeUI',Roboto,Oxygen,Ubuntu,Cantarell,'FiraSans','DroidSans','HelveticaNeue',sans-serif" font-size="11.00">/Messages/SourceMessage.hpp</text>
</a>
</g>
</g>
<!-- Node2 -->
<g id="node2" class="node">
<title>Node2</title>
<g id="a_node2"><a xlink:title=" ">
<polygon fill="none" stroke="#bfbfbf" points="0,-57.5 0,-77.5 47,-77.5 47,-57.5 0,-57.5"/>
<text text-anchor="middle" x="23.5" y="-64.7" font-family="-apple-system,BlinkMacSystemFont,'SegoeUI',Roboto,Oxygen,Ubuntu,Cantarell,'FiraSans','DroidSans','HelveticaNeue',sans-serif" font-size="11.00">ctime</text>
</a>
</g>
</g>
<!-- Node1&#45;&gt;Node2 -->
<g id="edge1" class="edge">
<title>Node1&#45;&gt;Node2</title>
<path fill="none" stroke="midnightblue" d="M246.99,-175.17C203.64,-167.58 152.46,-155.14 109.5,-135 82.72,-122.45 56.51,-100.35 40.2,-85.09"/>
<polygon fill="midnightblue" stroke="midnightblue" points="42.26,-82.22 32.62,-77.82 37.41,-87.27 42.26,-82.22"/>
</g>
<!-- Node3 -->
<g id="node3" class="node">
<title>Node3</title>
<g id="a_node3"><a xlink:title=" ">
<polygon fill="none" stroke="#bfbfbf" points="377.5,-57.5 377.5,-77.5 425.5,-77.5 425.5,-57.5 377.5,-57.5"/>
<text text-anchor="middle" x="401.5" y="-64.7" font-family="-apple-system,BlinkMacSystemFont,'SegoeUI',Roboto,Oxygen,Ubuntu,Cantarell,'FiraSans','DroidSans','HelveticaNeue',sans-serif" font-size="11.00">string</text>
</a>
</g>
</g>
<!-- Node1&#45;&gt;Node3 -->
<g id="edge2" class="edge">
<title>Node1&#45;&gt;Node3</title>
<path fill="none" stroke="midnightblue" d="M343.34,-171.29C345.66,-156.06 350.61,-132.32 360.5,-114 366.33,-103.19 375.25,-92.87 383.28,-84.81"/>
<polygon fill="midnightblue" stroke="midnightblue" points="386.06,-86.99 390.86,-77.55 381.22,-81.93 386.06,-86.99"/>
</g>
<!-- Node4 -->
<g id="node4" class="node">
<title>Node4</title>
<g id="a_node4"><a xlink:title=" ">
<polygon fill="none" stroke="#bfbfbf" points="287.5,-0.5 287.5,-20.5 433.5,-20.5 433.5,-0.5 287.5,-0.5"/>
<text text-anchor="middle" x="360.5" y="-7.7" font-family="-apple-system,BlinkMacSystemFont,'SegoeUI',Roboto,Oxygen,Ubuntu,Cantarell,'FiraSans','DroidSans','HelveticaNeue',sans-serif" font-size="11.00">nlohmann/json_fwd.hpp</text>
</a>
</g>
</g>
<!-- Node1&#45;&gt;Node4 -->
<g id="edge3" class="edge">
<title>Node1&#45;&gt;Node4</title>
<path fill="none" stroke="midnightblue" d="M422.57,-171.46C472.43,-157.16 530.8,-129.76 552.5,-78 556.11,-69.39 558.29,-64.32 552.5,-57 538.62,-39.44 488.89,-27.96 443.52,-20.92"/>
<polygon fill="midnightblue" stroke="midnightblue" points="444.03,-17.45 433.62,-19.44 443,-24.38 444.03,-17.45"/>
</g>
<!-- Node5 -->
<g id="node5" class="node">
<title>Node5</title>
<g id="a_node5"><a xlink:href="BasicTypes_8hpp.html" target="_top" xlink:title=" ">
<polygon fill="none" stroke="black" points="119,-114.5 119,-134.5 300,-134.5 300,-114.5 119,-114.5"/>
<text text-anchor="middle" x="209.5" y="-121.7" font-family="-apple-system,BlinkMacSystemFont,'SegoeUI',Roboto,Oxygen,Ubuntu,Cantarell,'FiraSans','DroidSans','HelveticaNeue',sans-serif" font-size="11.00">libmirai/Types/BasicTypes.hpp</text>
</a>
</g>
</g>
<!-- Node1&#45;&gt;Node5 -->
<g id="edge4" class="edge">
<title>Node1&#45;&gt;Node5</title>
<path fill="none" stroke="midnightblue" d="M308.87,-171.42C287.25,-161.43 259.15,-148.45 238.35,-138.83"/>
<polygon fill="midnightblue" stroke="midnightblue" points="239.62,-135.56 229.07,-134.55 236.68,-141.92 239.62,-135.56"/>
</g>
<!-- Node8 -->
<g id="node8" class="node">
<title>Node8</title>
<g id="a_node8"><a xlink:href="MessageBase_8hpp.html" target="_top" xlink:title=" ">
<polygon fill="none" stroke="black" points="369.5,-114.5 369.5,-134.5 485.5,-134.5 485.5,-114.5 369.5,-114.5"/>
<text text-anchor="middle" x="427.5" y="-121.7" font-family="-apple-system,BlinkMacSystemFont,'SegoeUI',Roboto,Oxygen,Ubuntu,Cantarell,'FiraSans','DroidSans','HelveticaNeue',sans-serif" font-size="11.00">MessageBase.hpp</text>
</a>
</g>
</g>
<!-- Node1&#45;&gt;Node8 -->
<g id="edge11" class="edge">
<title>Node1&#45;&gt;Node8</title>
<path fill="none" stroke="midnightblue" d="M362.76,-171.42C376.01,-162.02 393.01,-149.96 406.26,-140.56"/>
<polygon fill="midnightblue" stroke="midnightblue" points="408.62,-143.19 414.75,-134.55 404.57,-137.48 408.62,-143.19"/>
</g>
<!-- Node5&#45;&gt;Node2 -->
<g id="edge6" class="edge">
<title>Node5&#45;&gt;Node2</title>
<path fill="none" stroke="midnightblue" d="M178.79,-114.42C145.17,-104.48 91.45,-88.59 56.83,-78.35"/>
<polygon fill="midnightblue" stroke="midnightblue" points="57.75,-74.98 47.17,-75.5 55.77,-81.69 57.75,-74.98"/>
</g>
<!-- Node5&#45;&gt;Node3 -->
<g id="edge7" class="edge">
<title>Node5&#45;&gt;Node3</title>
<path fill="none" stroke="midnightblue" d="M241.2,-114.42C276.01,-104.45 331.67,-88.5 367.4,-78.27"/>
<polygon fill="midnightblue" stroke="midnightblue" points="368.71,-81.53 377.36,-75.42 366.78,-74.81 368.71,-81.53"/>
</g>
<!-- Node5&#45;&gt;Node4 -->
<g id="edge8" class="edge">
<title>Node5&#45;&gt;Node4</title>
<path fill="none" stroke="midnightblue" d="M196.02,-114.3C178.33,-101.11 151.21,-76.29 166.5,-57 180.61,-39.19 231.32,-27.68 277.36,-20.69"/>
<polygon fill="midnightblue" stroke="midnightblue" points="278.01,-24.13 287.4,-19.22 277,-17.21 278.01,-24.13"/>
</g>
<!-- Node6 -->
<g id="node6" class="node">
<title>Node6</title>
<g id="a_node6"><a xlink:title=" ">
<polygon fill="none" stroke="#bfbfbf" points="65.5,-57.5 65.5,-77.5 119.5,-77.5 119.5,-57.5 65.5,-57.5"/>
<text text-anchor="middle" x="92.5" y="-64.7" font-family="-apple-system,BlinkMacSystemFont,'SegoeUI',Roboto,Oxygen,Ubuntu,Cantarell,'FiraSans','DroidSans','HelveticaNeue',sans-serif" font-size="11.00">chrono</text>
</a>
</g>
</g>
<!-- Node5&#45;&gt;Node6 -->
<g id="edge5" class="edge">
<title>Node5&#45;&gt;Node6</title>
<path fill="none" stroke="midnightblue" d="M190.18,-114.42C171.38,-105.58 142.59,-92.05 121.13,-81.96"/>
<polygon fill="midnightblue" stroke="midnightblue" points="122.39,-78.68 111.85,-77.6 119.41,-85.02 122.39,-78.68"/>
</g>
<!-- Node7 -->
<g id="node7" class="node">
<title>Node7</title>
<g id="a_node7"><a xlink:href="Serializable_8hpp.html" target="_top" xlink:title=" ">
<polygon fill="none" stroke="black" points="176,-57.5 176,-77.5 359,-77.5 359,-57.5 176,-57.5"/>
<text text-anchor="middle" x="267.5" y="-64.7" font-family="-apple-system,BlinkMacSystemFont,'SegoeUI',Roboto,Oxygen,Ubuntu,Cantarell,'FiraSans','DroidSans','HelveticaNeue',sans-serif" font-size="11.00">libmirai/Types/Serializable.hpp</text>
</a>
</g>
</g>
<!-- Node5&#45;&gt;Node7 -->
<g id="edge9" class="edge">
<title>Node5&#45;&gt;Node7</title>
<path fill="none" stroke="midnightblue" d="M219.08,-114.42C227.51,-106.42 239.99,-94.59 250.17,-84.94"/>
<polygon fill="midnightblue" stroke="midnightblue" points="252.87,-87.2 257.71,-77.78 248.05,-82.12 252.87,-87.2"/>
</g>
<!-- Node7&#45;&gt;Node4 -->
<g id="edge10" class="edge">
<title>Node7&#45;&gt;Node4</title>
<path fill="none" stroke="midnightblue" d="M282.86,-57.42C297.4,-48.82 319.45,-35.78 336.35,-25.78"/>
<polygon fill="midnightblue" stroke="midnightblue" points="338.29,-28.7 345.12,-20.6 334.73,-22.67 338.29,-28.7"/>
</g>
<!-- Node8&#45;&gt;Node3 -->
<g id="edge13" class="edge">
<title>Node8&#45;&gt;Node3</title>
<path fill="none" stroke="midnightblue" d="M423.21,-114.42C419.69,-106.98 414.6,-96.21 410.23,-86.97"/>
<polygon fill="midnightblue" stroke="midnightblue" points="413.32,-85.32 405.89,-77.78 407,-88.32 413.32,-85.32"/>
</g>
<!-- Node8&#45;&gt;Node4 -->
<g id="edge14" class="edge">
<title>Node8&#45;&gt;Node4</title>
<path fill="none" stroke="midnightblue" d="M431.68,-114.22C437.09,-100.71 444.7,-75.24 434.5,-57 426.41,-42.53 411.62,-32.1 397.38,-24.9"/>
<polygon fill="midnightblue" stroke="midnightblue" points="398.73,-21.67 388.18,-20.63 395.78,-28.02 398.73,-21.67"/>
</g>
<!-- Node8&#45;&gt;Node7 -->
<g id="edge15" class="edge">
<title>Node8&#45;&gt;Node7</title>
<path fill="none" stroke="midnightblue" d="M401.08,-114.42C374.36,-105.23 332.9,-90.98 303.26,-80.79"/>
<polygon fill="midnightblue" stroke="midnightblue" points="304.29,-77.45 293.69,-77.5 302.01,-84.06 304.29,-77.45"/>
</g>
<!-- Node9 -->
<g id="node9" class="node">
<title>Node9</title>
<g id="a_node9"><a xlink:title=" ">
<polygon fill="none" stroke="#bfbfbf" points="481.5,-57.5 481.5,-77.5 543.5,-77.5 543.5,-57.5 481.5,-57.5"/>
<text text-anchor="middle" x="512.5" y="-64.7" font-family="-apple-system,BlinkMacSystemFont,'SegoeUI',Roboto,Oxygen,Ubuntu,Cantarell,'FiraSans','DroidSans','HelveticaNeue',sans-serif" font-size="11.00">memory</text>
</a>
</g>
</g>
<!-- Node8&#45;&gt;Node9 -->
<g id="edge12" class="edge">
<title>Node8&#45;&gt;Node9</title>
<path fill="none" stroke="midnightblue" d="M441.54,-114.42C454.7,-105.9 474.61,-93.02 489.99,-83.06"/>
<polygon fill="midnightblue" stroke="midnightblue" points="491.95,-85.97 498.44,-77.6 488.15,-80.09 491.95,-85.97"/>
</g>
</g>
</svg>
