<?xml version="1.0" encoding="UTF-8" standalone="no"?>
<!DOCTYPE svg PUBLIC "-//W3C//DTD SVG 1.1//EN"
 "http://www.w3.org/Graphics/SVG/1.1/DTD/svg11.dtd">
<!-- Generated by graphviz version 3.0.0 (20220413.0242)
 -->
<!-- Title: libmirai/public/libmirai/Messages/SourceMessage.cpp Pages: 1 -->
<svg width="477pt" height="212pt"
 viewBox="0.00 0.00 477.00 212.00" xmlns="http://www.w3.org/2000/svg" xmlns:xlink="http://www.w3.org/1999/xlink">
<g id="graph0" class="graph" transform="scale(1 1) rotate(0) translate(4 208)">
<title>libmirai/public/libmirai/Messages/SourceMessage.cpp</title>
<!-- Node1 -->
<g id="node1" class="node">
<title>Node1</title>
<g id="a_node1"><a xlink:title=" ">
<polygon fill="#bfbfbf" stroke="black" points="170,-171.5 170,-203.5 340,-203.5 340,-171.5 170,-171.5"/>
<text text-anchor="start" x="178" y="-190.7" font-family="-apple-system, BlinkMacSystemFont, 'Segoe UI', Roboto, Oxygen, Ubuntu, Cantarell, 'Fira Sans', 'Droid Sans', 'Helvetica Neue', sans-serif" font-size="11.00">libmirai/public/libmirai</text>
<text text-anchor="middle" x="255" y="-178.7" font-family="-apple-system, BlinkMacSystemFont, 'Segoe UI', Roboto, Oxygen, Ubuntu, Cantarell, 'Fira Sans', 'Droid Sans', 'Helvetica Neue', sans-serif" font-size="11.00">/Messages/SourceMessage.cpp</text>
</a>
</g>
</g>
<!-- Node2 -->
<g id="node2" class="node">
<title>Node2</title>
<g id="a_node2"><a xlink:href="SourceMessage_8hpp.html" target="_top" xlink:title=" ">
<polygon fill="none" stroke="black" points="67,-114.5 67,-134.5 183,-134.5 183,-114.5 67,-114.5"/>
<text text-anchor="middle" x="125" y="-121.7" font-family="-apple-system, BlinkMacSystemFont, 'Segoe UI', Roboto, Oxygen, Ubuntu, Cantarell, 'Fira Sans', 'Droid Sans', 'Helvetica Neue', sans-serif" font-size="11.00">SourceMessage.hpp</text>
</a>
</g>
</g>
<!-- Node1&#45;&gt;Node2 -->
<g id="edge1" class="edge">
<title>Node1&#45;&gt;Node2</title>
<path fill="none" stroke="midnightblue" d="M222.87,-171.42C201.57,-161.43 173.9,-148.45 153.42,-138.83"/>
<polygon fill="midnightblue" stroke="midnightblue" points="154.82,-135.63 144.28,-134.55 151.84,-141.96 154.82,-135.63"/>
</g>
<!-- Node12 -->
<g id="node8" class="node">
<title>Node12</title>
<g id="a_node8"><a xlink:title=" ">
<polygon fill="none" stroke="#bfbfbf" points="201,-114.5 201,-134.5 309,-134.5 309,-114.5 201,-114.5"/>
<text text-anchor="middle" x="255" y="-121.7" font-family="-apple-system, BlinkMacSystemFont, 'Segoe UI', Roboto, Oxygen, Ubuntu, Cantarell, 'Fira Sans', 'Droid Sans', 'Helvetica Neue', sans-serif" font-size="11.00">nlohmann/json.hpp</text>
</a>
</g>
</g>
<!-- Node1&#45;&gt;Node12 -->
<g id="edge12" class="edge">
<title>Node1&#45;&gt;Node12</title>
<path fill="none" stroke="midnightblue" d="M255,-171.42C255,-163.38 255,-153.39 255,-144.78"/>
<polygon fill="midnightblue" stroke="midnightblue" points="258.5,-144.55 255,-134.55 251.5,-144.55 258.5,-144.55"/>
</g>
<!-- Node13 -->
<g id="node9" class="node">
<title>Node13</title>
<g id="a_node9"><a xlink:title=" ">
<polygon fill="none" stroke="#bfbfbf" points="327,-114.5 327,-134.5 469,-134.5 469,-114.5 327,-114.5"/>
<text text-anchor="middle" x="398" y="-121.7" font-family="-apple-system, BlinkMacSystemFont, 'Segoe UI', Roboto, Oxygen, Ubuntu, Cantarell, 'Fira Sans', 'Droid Sans', 'Helvetica Neue', sans-serif" font-size="11.00">libmirai/Utils/Common.hpp</text>
</a>
</g>
</g>
<!-- Node1&#45;&gt;Node13 -->
<g id="edge13" class="edge">
<title>Node1&#45;&gt;Node13</title>
<path fill="none" stroke="midnightblue" d="M290.35,-171.42C313.98,-161.34 344.76,-148.21 367.35,-138.57"/>
<polygon fill="midnightblue" stroke="midnightblue" points="368.97,-141.69 376.79,-134.55 366.22,-135.25 368.97,-141.69"/>
</g>
<!-- Node3 -->
<g id="node3" class="node">
<title>Node3</title>
<g id="a_node3"><a xlink:title=" ">
<polygon fill="none" stroke="#bfbfbf" points="0,-0.5 0,-20.5 42,-20.5 42,-0.5 0,-0.5"/>
<text text-anchor="middle" x="21" y="-7.7" font-family="-apple-system, BlinkMacSystemFont, 'Segoe UI', Roboto, Oxygen, Ubuntu, Cantarell, 'Fira Sans', 'Droid Sans', 'Helvetica Neue', sans-serif" font-size="11.00">ctime</text>
</a>
</g>
</g>
<!-- Node2&#45;&gt;Node3 -->
<g id="edge2" class="edge">
<title>Node2&#45;&gt;Node3</title>
<path fill="none" stroke="midnightblue" d="M83.91,-114.35C63.81,-107.69 41.16,-96.49 28,-78 18.33,-64.42 17.31,-45.15 18.27,-30.84"/>
<polygon fill="midnightblue" stroke="midnightblue" points="21.78,-30.95 19.35,-20.64 14.82,-30.22 21.78,-30.95"/>
</g>
<!-- Node4 -->
<g id="node4" class="node">
<title>Node4</title>
<g id="a_node4"><a xlink:title=" ">
<polygon fill="none" stroke="#bfbfbf" points="103.5,-0.5 103.5,-20.5 146.5,-20.5 146.5,-0.5 103.5,-0.5"/>
<text text-anchor="middle" x="125" y="-7.7" font-family="-apple-system, BlinkMacSystemFont, 'Segoe UI', Roboto, Oxygen, Ubuntu, Cantarell, 'Fira Sans', 'Droid Sans', 'Helvetica Neue', sans-serif" font-size="11.00">string</text>
</a>
</g>
</g>
<!-- Node2&#45;&gt;Node4 -->
<g id="edge3" class="edge">
<title>Node2&#45;&gt;Node4</title>
<path fill="none" stroke="midnightblue" d="M86.96,-114.43C67.84,-107.75 46.37,-96.49 35,-78 17.98,-50.33 61.59,-30.44 93.89,-19.96"/>
<polygon fill="midnightblue" stroke="midnightblue" points="94.94,-23.3 103.47,-17.02 92.88,-16.61 94.94,-23.3"/>
</g>
<!-- Node5 -->
<g id="node5" class="node">
<title>Node5</title>
<g id="a_node5"><a xlink:title=" ">
<polygon fill="none" stroke="#bfbfbf" points="211.5,-0.5 211.5,-20.5 342.5,-20.5 342.5,-0.5 211.5,-0.5"/>
<text text-anchor="middle" x="277" y="-7.7" font-family="-apple-system, BlinkMacSystemFont, 'Segoe UI', Roboto, Oxygen, Ubuntu, Cantarell, 'Fira Sans', 'Droid Sans', 'Helvetica Neue', sans-serif" font-size="11.00">nlohmann/json_fwd.hpp</text>
</a>
</g>
</g>
<!-- Node2&#45;&gt;Node5 -->
<g id="edge4" class="edge">
<title>Node2&#45;&gt;Node5</title>
<path fill="none" stroke="midnightblue" d="M183.16,-114.96C243.09,-105.56 329.14,-90.18 339,-78 354.43,-58.94 328.29,-38.52 305.36,-25.41"/>
<polygon fill="midnightblue" stroke="midnightblue" points="306.96,-22.3 296.5,-20.6 303.62,-28.45 306.96,-22.3"/>
</g>
<!-- Node6 -->
<g id="node6" class="node">
<title>Node6</title>
<g id="a_node6"><a xlink:href="BasicTypes_8hpp.html" target="_top" xlink:title=" ">
<polygon fill="none" stroke="red" points="44,-57.5 44,-77.5 206,-77.5 206,-57.5 44,-57.5"/>
<text text-anchor="middle" x="125" y="-64.7" font-family="-apple-system, BlinkMacSystemFont, 'Segoe UI', Roboto, Oxygen, Ubuntu, Cantarell, 'Fira Sans', 'Droid Sans', 'Helvetica Neue', sans-serif" font-size="11.00">libmirai/Types/BasicTypes.hpp</text>
</a>
</g>
</g>
<!-- Node2&#45;&gt;Node6 -->
<g id="edge5" class="edge">
<title>Node2&#45;&gt;Node6</title>
<path fill="none" stroke="midnightblue" d="M125,-114.42C125,-107.22 125,-96.9 125,-87.86"/>
<polygon fill="midnightblue" stroke="midnightblue" points="128.5,-87.78 125,-77.78 121.5,-87.78 128.5,-87.78"/>
</g>
<!-- Node10 -->
<g id="node7" class="node">
<title>Node10</title>
<g id="a_node7"><a xlink:href="MessageBase_8hpp.html" target="_top" xlink:title=" ">
<polygon fill="none" stroke="red" points="224,-57.5 224,-77.5 330,-77.5 330,-57.5 224,-57.5"/>
<text text-anchor="middle" x="277" y="-64.7" font-family="-apple-system, BlinkMacSystemFont, 'Segoe UI', Roboto, Oxygen, Ubuntu, Cantarell, 'Fira Sans', 'Droid Sans', 'Helvetica Neue', sans-serif" font-size="11.00">MessageBase.hpp</text>
</a>
</g>
</g>
<!-- Node2&#45;&gt;Node10 -->
<g id="edge9" class="edge">
<title>Node2&#45;&gt;Node10</title>
<path fill="none" stroke="midnightblue" d="M150.1,-114.42C175.37,-105.27 214.53,-91.1 242.66,-80.92"/>
<polygon fill="midnightblue" stroke="midnightblue" points="243.9,-84.2 252.12,-77.5 241.52,-77.62 243.9,-84.2"/>
</g>
<!-- Node6&#45;&gt;Node3 -->
<g id="edge6" class="edge">
<title>Node6&#45;&gt;Node3</title>
<path fill="none" stroke="midnightblue" d="M107.83,-57.42C91.34,-48.7 66.22,-35.41 47.23,-25.37"/>
<polygon fill="midnightblue" stroke="midnightblue" points="48.68,-22.18 38.2,-20.6 45.4,-28.36 48.68,-22.18"/>
</g>
<!-- Node6&#45;&gt;Node4 -->
<g id="edge7" class="edge">
<title>Node6&#45;&gt;Node4</title>
<path fill="none" stroke="midnightblue" d="M125,-57.42C125,-50.22 125,-39.9 125,-30.86"/>
<polygon fill="midnightblue" stroke="midnightblue" points="128.5,-30.78 125,-20.78 121.5,-30.78 128.5,-30.78"/>
</g>
<!-- Node6&#45;&gt;Node5 -->
<g id="edge8" class="edge">
<title>Node6&#45;&gt;Node5</title>
<path fill="none" stroke="midnightblue" d="M150.1,-57.42C175.37,-48.27 214.53,-34.1 242.66,-23.92"/>
<polygon fill="midnightblue" stroke="midnightblue" points="243.9,-27.2 252.12,-20.5 241.52,-20.62 243.9,-27.2"/>
</g>
<!-- Node10&#45;&gt;Node4 -->
<g id="edge10" class="edge">
<title>Node10&#45;&gt;Node4</title>
<path fill="none" stroke="midnightblue" d="M251.9,-57.42C225.65,-47.92 184.41,-33 156.11,-22.76"/>
<polygon fill="midnightblue" stroke="midnightblue" points="157.28,-19.46 146.69,-19.35 154.9,-26.04 157.28,-19.46"/>
</g>
<!-- Node10&#45;&gt;Node5 -->
<g id="edge11" class="edge">
<title>Node10&#45;&gt;Node5</title>
<path fill="none" stroke="midnightblue" d="M277,-57.42C277,-50.22 277,-39.9 277,-30.86"/>
<polygon fill="midnightblue" stroke="midnightblue" points="280.5,-30.78 277,-20.78 273.5,-30.78 280.5,-30.78"/>
</g>
</g>
</svg>
