<?xml version="1.0" encoding="UTF-8" standalone="no"?>
<!DOCTYPE svg PUBLIC "-//W3C//DTD SVG 1.1//EN"
 "http://www.w3.org/Graphics/SVG/1.1/DTD/svg11.dtd">
<!-- Generated by graphviz version 3.0.0 (20221109.1736)
 -->
<!-- Title: libmirai/models/libmirai/Messages/SourceMessage.hpp Pages: 1 -->
<svg width="604pt" height="212pt"
 viewBox="0.00 0.00 604.29 212.00" xmlns="http://www.w3.org/2000/svg" xmlns:xlink="http://www.w3.org/1999/xlink">
<g id="graph0" class="graph" transform="scale(1 1) rotate(0) translate(4 208)">
<title>libmirai/models/libmirai/Messages/SourceMessage.hpp</title>
<!-- Node1 -->
<g id="node1" class="node">
<title>Node1</title>
<g id="a_node1"><a xlink:title=" ">
<polygon fill="#bfbfbf" stroke="black" points="1.75,-171.5 1.75,-203.5 171.75,-203.5 171.75,-171.5 1.75,-171.5"/>
<text text-anchor="start" x="9.75" y="-190.7" font-family="-apple-system, BlinkMacSystemFont, 'Segoe UI', Roboto, Oxygen, Ubuntu, Cantarell, 'Fira Sans', 'Droid Sans', 'Helvetica Neue', sans-serif" font-size="11.00">libmirai/models/libmirai</text>
<text text-anchor="middle" x="86.75" y="-178.7" font-family="-apple-system, BlinkMacSystemFont, 'Segoe UI', Roboto, Oxygen, Ubuntu, Cantarell, 'Fira Sans', 'Droid Sans', 'Helvetica Neue', sans-serif" font-size="11.00">/Messages/SourceMessage.hpp</text>
</a>
</g>
</g>
<!-- Node2 -->
<g id="node2" class="node">
<title>Node2</title>
<g id="a_node2"><a xlink:title=" ">
<polygon fill="none" stroke="#bfbfbf" points="18.75,-57.5 18.75,-77.5 60.75,-77.5 60.75,-57.5 18.75,-57.5"/>
<text text-anchor="middle" x="39.75" y="-64.7" font-family="-apple-system, BlinkMacSystemFont, 'Segoe UI', Roboto, Oxygen, Ubuntu, Cantarell, 'Fira Sans', 'Droid Sans', 'Helvetica Neue', sans-serif" font-size="11.00">ctime</text>
</a>
</g>
</g>
<!-- Node1&#45;&gt;Node2 -->
<g id="edge1" class="edge">
<title>Node1&#45;&gt;Node2</title>
<path fill="none" stroke="midnightblue" d="M73.87,-171.25C66.29,-161.49 57.15,-148.21 51.75,-135 45.59,-119.9 42.58,-101.58 41.12,-88"/>
<polygon fill="midnightblue" stroke="midnightblue" points="44.59,-87.53 40.22,-77.87 37.62,-88.14 44.59,-87.53"/>
</g>
<!-- Node3 -->
<g id="node3" class="node">
<title>Node3</title>
<g id="a_node3"><a xlink:title=" ">
<polygon fill="none" stroke="#bfbfbf" points="269.25,-0.5 269.25,-20.5 312.25,-20.5 312.25,-0.5 269.25,-0.5"/>
<text text-anchor="middle" x="290.75" y="-7.7" font-family="-apple-system, BlinkMacSystemFont, 'Segoe UI', Roboto, Oxygen, Ubuntu, Cantarell, 'Fira Sans', 'Droid Sans', 'Helvetica Neue', sans-serif" font-size="11.00">string</text>
</a>
</g>
</g>
<!-- Node1&#45;&gt;Node3 -->
<g id="edge2" class="edge">
<title>Node1&#45;&gt;Node3</title>
<path fill="none" stroke="midnightblue" d="M66.08,-171.47C33.75,-146.18 -21.95,-94.25 9.75,-57 41.46,-19.75 192.19,-12.9 258.88,-11.71"/>
<polygon fill="midnightblue" stroke="midnightblue" points="259.25,-15.21 269.2,-11.56 259.15,-8.21 259.25,-15.21"/>
</g>
<!-- Node4 -->
<g id="node4" class="node">
<title>Node4</title>
<g id="a_node4"><a xlink:href="BasicTypes_8hpp.html" target="_top" xlink:title=" ">
<polygon fill="none" stroke="black" points="60.75,-114.5 60.75,-134.5 222.75,-134.5 222.75,-114.5 60.75,-114.5"/>
<text text-anchor="middle" x="141.75" y="-121.7" font-family="-apple-system, BlinkMacSystemFont, 'Segoe UI', Roboto, Oxygen, Ubuntu, Cantarell, 'Fira Sans', 'Droid Sans', 'Helvetica Neue', sans-serif" font-size="11.00">libmirai/Types/BasicTypes.hpp</text>
</a>
</g>
</g>
<!-- Node1&#45;&gt;Node4 -->
<g id="edge3" class="edge">
<title>Node1&#45;&gt;Node4</title>
<path fill="none" stroke="midnightblue" d="M100.35,-171.42C108.34,-162.56 118.45,-151.35 126.68,-142.22"/>
<polygon fill="midnightblue" stroke="midnightblue" points="129.5,-144.32 133.6,-134.55 124.3,-139.63 129.5,-144.32"/>
</g>
<!-- Node7 -->
<g id="node7" class="node">
<title>Node7</title>
<g id="a_node7"><a xlink:href="IMessage_8hpp.html" target="_top" xlink:title=" ">
<polygon fill="none" stroke="black" points="309.75,-114.5 309.75,-134.5 393.75,-134.5 393.75,-114.5 309.75,-114.5"/>
<text text-anchor="middle" x="351.75" y="-121.7" font-family="-apple-system, BlinkMacSystemFont, 'Segoe UI', Roboto, Oxygen, Ubuntu, Cantarell, 'Fira Sans', 'Droid Sans', 'Helvetica Neue', sans-serif" font-size="11.00">IMessage.hpp</text>
</a>
</g>
</g>
<!-- Node1&#45;&gt;Node7 -->
<g id="edge8" class="edge">
<title>Node1&#45;&gt;Node7</title>
<path fill="none" stroke="midnightblue" d="M151.92,-171.5C198.46,-160.79 260.08,-146.6 302.53,-136.83"/>
<polygon fill="midnightblue" stroke="midnightblue" points="303.39,-140.22 312.35,-134.57 301.82,-133.4 303.39,-140.22"/>
</g>
<!-- Node4&#45;&gt;Node2 -->
<g id="edge5" class="edge">
<title>Node4&#45;&gt;Node2</title>
<path fill="none" stroke="midnightblue" d="M124.91,-114.42C108.74,-105.7 84.1,-92.41 65.48,-82.37"/>
<polygon fill="midnightblue" stroke="midnightblue" points="67.09,-79.26 56.62,-77.6 63.76,-85.42 67.09,-79.26"/>
</g>
<!-- Node4&#45;&gt;Node3 -->
<g id="edge6" class="edge">
<title>Node4&#45;&gt;Node3</title>
<path fill="none" stroke="midnightblue" d="M130.74,-114.26C116.03,-100.79 93.38,-75.39 107.75,-57 126.22,-33.38 211.93,-20.27 259.22,-14.72"/>
<polygon fill="midnightblue" stroke="midnightblue" points="259.69,-18.19 269.24,-13.59 258.91,-11.23 259.69,-18.19"/>
</g>
<!-- Node5 -->
<g id="node5" class="node">
<title>Node5</title>
<g id="a_node5"><a xlink:title=" ">
<polygon fill="none" stroke="#bfbfbf" points="116.75,-57.5 116.75,-77.5 166.75,-77.5 166.75,-57.5 116.75,-57.5"/>
<text text-anchor="middle" x="141.75" y="-64.7" font-family="-apple-system, BlinkMacSystemFont, 'Segoe UI', Roboto, Oxygen, Ubuntu, Cantarell, 'Fira Sans', 'Droid Sans', 'Helvetica Neue', sans-serif" font-size="11.00">chrono</text>
</a>
</g>
</g>
<!-- Node4&#45;&gt;Node5 -->
<g id="edge4" class="edge">
<title>Node4&#45;&gt;Node5</title>
<path fill="none" stroke="midnightblue" d="M141.75,-114.42C141.75,-107.22 141.75,-96.9 141.75,-87.86"/>
<polygon fill="midnightblue" stroke="midnightblue" points="145.25,-87.78 141.75,-77.78 138.25,-87.78 145.25,-87.78"/>
</g>
<!-- Node6 -->
<g id="node6" class="node">
<title>Node6</title>
<g id="a_node6"><a xlink:title=" ">
<polygon fill="none" stroke="#bfbfbf" points="185.25,-57.5 185.25,-77.5 226.25,-77.5 226.25,-57.5 185.25,-57.5"/>
<text text-anchor="middle" x="205.75" y="-64.7" font-family="-apple-system, BlinkMacSystemFont, 'Segoe UI', Roboto, Oxygen, Ubuntu, Cantarell, 'Fira Sans', 'Droid Sans', 'Helvetica Neue', sans-serif" font-size="11.00">utility</text>
</a>
</g>
</g>
<!-- Node4&#45;&gt;Node6 -->
<g id="edge7" class="edge">
<title>Node4&#45;&gt;Node6</title>
<path fill="none" stroke="midnightblue" d="M152.32,-114.42C161.81,-106.27 175.94,-94.12 187.29,-84.37"/>
<polygon fill="midnightblue" stroke="midnightblue" points="189.65,-86.95 194.96,-77.78 185.09,-81.64 189.65,-86.95"/>
</g>
<!-- Node7&#45;&gt;Node3 -->
<g id="edge10" class="edge">
<title>Node7&#45;&gt;Node3</title>
<path fill="none" stroke="midnightblue" d="M393.9,-121.76C455.91,-118.21 567.1,-107.76 591.75,-78 597.71,-70.81 597.84,-64.08 591.75,-57 557.25,-16.89 392.6,-11.69 322.48,-11.33"/>
<polygon fill="midnightblue" stroke="midnightblue" points="322.47,-7.83 312.46,-11.3 322.45,-14.83 322.47,-7.83"/>
</g>
<!-- Node8 -->
<g id="node8" class="node">
<title>Node8</title>
<g id="a_node8"><a xlink:title=" ">
<polygon fill="none" stroke="#bfbfbf" points="244.75,-57.5 244.75,-77.5 300.75,-77.5 300.75,-57.5 244.75,-57.5"/>
<text text-anchor="middle" x="272.75" y="-64.7" font-family="-apple-system, BlinkMacSystemFont, 'Segoe UI', Roboto, Oxygen, Ubuntu, Cantarell, 'Fira Sans', 'Droid Sans', 'Helvetica Neue', sans-serif" font-size="11.00">memory</text>
</a>
</g>
</g>
<!-- Node7&#45;&gt;Node8 -->
<g id="edge9" class="edge">
<title>Node7&#45;&gt;Node8</title>
<path fill="none" stroke="midnightblue" d="M338.71,-114.42C326.59,-105.98 308.31,-93.26 294.07,-83.34"/>
<polygon fill="midnightblue" stroke="midnightblue" points="296.03,-80.44 285.82,-77.6 292.03,-86.18 296.03,-80.44"/>
</g>
<!-- Node9 -->
<g id="node9" class="node">
<title>Node9</title>
<g id="a_node9"><a xlink:title=" ">
<polygon fill="none" stroke="#bfbfbf" points="318.75,-57.5 318.75,-77.5 384.75,-77.5 384.75,-57.5 318.75,-57.5"/>
<text text-anchor="middle" x="351.75" y="-64.7" font-family="-apple-system, BlinkMacSystemFont, 'Segoe UI', Roboto, Oxygen, Ubuntu, Cantarell, 'Fira Sans', 'Droid Sans', 'Helvetica Neue', sans-serif" font-size="11.00">type_traits</text>
</a>
</g>
</g>
<!-- Node7&#45;&gt;Node9 -->
<g id="edge11" class="edge">
<title>Node7&#45;&gt;Node9</title>
<path fill="none" stroke="midnightblue" d="M351.75,-114.42C351.75,-107.22 351.75,-96.9 351.75,-87.86"/>
<polygon fill="midnightblue" stroke="midnightblue" points="355.25,-87.78 351.75,-77.78 348.25,-87.78 355.25,-87.78"/>
</g>
<!-- Node10 -->
<g id="node10" class="node">
<title>Node10</title>
<g id="a_node10"><a xlink:href="MessageTypes_8hpp.html" target="_top" xlink:title=" ">
<polygon fill="none" stroke="red" points="403.25,-57.5 403.25,-77.5 582.25,-77.5 582.25,-57.5 403.25,-57.5"/>
<text text-anchor="middle" x="492.75" y="-64.7" font-family="-apple-system, BlinkMacSystemFont, 'Segoe UI', Roboto, Oxygen, Ubuntu, Cantarell, 'Fira Sans', 'Droid Sans', 'Helvetica Neue', sans-serif" font-size="11.00">libmirai/Types/MessageTypes.hpp</text>
</a>
</g>
</g>
<!-- Node7&#45;&gt;Node10 -->
<g id="edge12" class="edge">
<title>Node7&#45;&gt;Node10</title>
<path fill="none" stroke="midnightblue" d="M375.04,-114.42C398.2,-105.38 433.96,-91.44 459.98,-81.28"/>
<polygon fill="midnightblue" stroke="midnightblue" points="461.39,-84.49 469.44,-77.6 458.85,-77.97 461.39,-84.49"/>
</g>
<!-- Node10&#45;&gt;Node3 -->
<g id="edge13" class="edge">
<title>Node10&#45;&gt;Node3</title>
<path fill="none" stroke="midnightblue" d="M459.4,-57.42C421.29,-47.04 359.42,-30.2 322.15,-20.05"/>
<polygon fill="midnightblue" stroke="midnightblue" points="322.9,-16.63 312.34,-17.38 321.07,-23.38 322.9,-16.63"/>
</g>
</g>
</svg>
