<?xml version="1.0" encoding="UTF-8" standalone="no"?>
<!DOCTYPE svg PUBLIC "-//W3C//DTD SVG 1.1//EN"
 "http://www.w3.org/Graphics/SVG/1.1/DTD/svg11.dtd">
<!-- Generated by graphviz version 2.43.0 (0)
 -->
<!-- Title: libmirai/public/libmirai/Messages/SourceMessage.cpp Pages: 1 -->
<svg width="526pt" height="212pt"
 viewBox="0.00 0.00 525.50 212.00" xmlns="http://www.w3.org/2000/svg" xmlns:xlink="http://www.w3.org/1999/xlink">
<g id="graph0" class="graph" transform="scale(1 1) rotate(0) translate(4 208)">
<title>libmirai/public/libmirai/Messages/SourceMessage.cpp</title>
<!-- Node1 -->
<g id="node1" class="node">
<title>Node1</title>
<g id="a_node1"><a xlink:title=" ">
<polygon fill="#bfbfbf" stroke="black" points="182.5,-171.5 182.5,-203.5 370.5,-203.5 370.5,-171.5 182.5,-171.5"/>
<text text-anchor="start" x="190.5" y="-190.7" font-family="-apple-system,BlinkMacSystemFont,'SegoeUI',Roboto,Oxygen,Ubuntu,Cantarell,'FiraSans','DroidSans','HelveticaNeue',sans-serif" font-size="11.00">libmirai/public/libmirai</text>
<text text-anchor="middle" x="276.5" y="-178.7" font-family="-apple-system,BlinkMacSystemFont,'SegoeUI',Roboto,Oxygen,Ubuntu,Cantarell,'FiraSans','DroidSans','HelveticaNeue',sans-serif" font-size="11.00">/Messages/SourceMessage.cpp</text>
</a>
</g>
</g>
<!-- Node2 -->
<g id="node2" class="node">
<title>Node2</title>
<g id="a_node2"><a xlink:href="SourceMessage_8hpp.html" target="_top" xlink:title=" ">
<polygon fill="none" stroke="black" points="71,-114.5 71,-134.5 198,-134.5 198,-114.5 71,-114.5"/>
<text text-anchor="middle" x="134.5" y="-121.7" font-family="-apple-system,BlinkMacSystemFont,'SegoeUI',Roboto,Oxygen,Ubuntu,Cantarell,'FiraSans','DroidSans','HelveticaNeue',sans-serif" font-size="11.00">SourceMessage.hpp</text>
</a>
</g>
</g>
<!-- Node1&#45;&gt;Node2 -->
<g id="edge1" class="edge">
<title>Node1&#45;&gt;Node2</title>
<path fill="none" stroke="midnightblue" d="M241.4,-171.42C217.93,-161.34 187.37,-148.21 164.93,-138.57"/>
<polygon fill="midnightblue" stroke="midnightblue" points="166.13,-135.28 155.56,-134.55 163.36,-141.71 166.13,-135.28"/>
</g>
<!-- Node11 -->
<g id="node8" class="node">
<title>Node11</title>
<g id="a_node8"><a xlink:title=" ">
<polygon fill="none" stroke="#bfbfbf" points="216,-114.5 216,-134.5 337,-134.5 337,-114.5 216,-114.5"/>
<text text-anchor="middle" x="276.5" y="-121.7" font-family="-apple-system,BlinkMacSystemFont,'SegoeUI',Roboto,Oxygen,Ubuntu,Cantarell,'FiraSans','DroidSans','HelveticaNeue',sans-serif" font-size="11.00">nlohmann/json.hpp</text>
</a>
</g>
</g>
<!-- Node1&#45;&gt;Node11 -->
<g id="edge12" class="edge">
<title>Node1&#45;&gt;Node11</title>
<path fill="none" stroke="midnightblue" d="M276.5,-171.42C276.5,-163.38 276.5,-153.39 276.5,-144.78"/>
<polygon fill="midnightblue" stroke="midnightblue" points="280,-144.55 276.5,-134.55 273,-144.55 280,-144.55"/>
</g>
<!-- Node12 -->
<g id="node9" class="node">
<title>Node12</title>
<g id="a_node9"><a xlink:title=" ">
<polygon fill="none" stroke="#bfbfbf" points="355.5,-114.5 355.5,-134.5 517.5,-134.5 517.5,-114.5 355.5,-114.5"/>
<text text-anchor="middle" x="436.5" y="-121.7" font-family="-apple-system,BlinkMacSystemFont,'SegoeUI',Roboto,Oxygen,Ubuntu,Cantarell,'FiraSans','DroidSans','HelveticaNeue',sans-serif" font-size="11.00">libmirai/Utils/Common.hpp</text>
</a>
</g>
</g>
<!-- Node1&#45;&gt;Node12 -->
<g id="edge13" class="edge">
<title>Node1&#45;&gt;Node12</title>
<path fill="none" stroke="midnightblue" d="M316.05,-171.42C342.85,-161.21 377.86,-147.86 403.22,-138.19"/>
<polygon fill="midnightblue" stroke="midnightblue" points="404.68,-141.38 412.77,-134.55 402.18,-134.84 404.68,-141.38"/>
</g>
<!-- Node3 -->
<g id="node3" class="node">
<title>Node3</title>
<g id="a_node3"><a xlink:title=" ">
<polygon fill="none" stroke="#bfbfbf" points="0,-0.5 0,-20.5 47,-20.5 47,-0.5 0,-0.5"/>
<text text-anchor="middle" x="23.5" y="-7.7" font-family="-apple-system,BlinkMacSystemFont,'SegoeUI',Roboto,Oxygen,Ubuntu,Cantarell,'FiraSans','DroidSans','HelveticaNeue',sans-serif" font-size="11.00">ctime</text>
</a>
</g>
</g>
<!-- Node2&#45;&gt;Node3 -->
<g id="edge2" class="edge">
<title>Node2&#45;&gt;Node3</title>
<path fill="none" stroke="midnightblue" d="M83.36,-114.43C62.23,-107.94 39.64,-96.86 26.5,-78 17.01,-64.38 17.22,-45.12 19.24,-30.82"/>
<polygon fill="midnightblue" stroke="midnightblue" points="22.75,-31.1 21.09,-20.63 15.86,-29.84 22.75,-31.1"/>
</g>
<!-- Node4 -->
<g id="node4" class="node">
<title>Node4</title>
<g id="a_node4"><a xlink:title=" ">
<polygon fill="none" stroke="#bfbfbf" points="110.5,-0.5 110.5,-20.5 158.5,-20.5 158.5,-0.5 110.5,-0.5"/>
<text text-anchor="middle" x="134.5" y="-7.7" font-family="-apple-system,BlinkMacSystemFont,'SegoeUI',Roboto,Oxygen,Ubuntu,Cantarell,'FiraSans','DroidSans','HelveticaNeue',sans-serif" font-size="11.00">string</text>
</a>
</g>
</g>
<!-- Node2&#45;&gt;Node4 -->
<g id="edge3" class="edge">
<title>Node2&#45;&gt;Node4</title>
<path fill="none" stroke="midnightblue" d="M88.75,-114.42C68.5,-107.88 46.58,-96.77 34.5,-78 15.52,-48.51 64.64,-29.07 100.57,-19.2"/>
<polygon fill="midnightblue" stroke="midnightblue" points="101.5,-22.57 110.29,-16.67 99.73,-15.8 101.5,-22.57"/>
</g>
<!-- Node5 -->
<g id="node5" class="node">
<title>Node5</title>
<g id="a_node5"><a xlink:title=" ">
<polygon fill="none" stroke="#bfbfbf" points="228.5,-0.5 228.5,-20.5 374.5,-20.5 374.5,-0.5 228.5,-0.5"/>
<text text-anchor="middle" x="301.5" y="-7.7" font-family="-apple-system,BlinkMacSystemFont,'SegoeUI',Roboto,Oxygen,Ubuntu,Cantarell,'FiraSans','DroidSans','HelveticaNeue',sans-serif" font-size="11.00">nlohmann/json_fwd.hpp</text>
</a>
</g>
</g>
<!-- Node2&#45;&gt;Node5 -->
<g id="edge4" class="edge">
<title>Node2&#45;&gt;Node5</title>
<path fill="none" stroke="midnightblue" d="M190.26,-114.48C257.64,-103.31 362.8,-84.92 368.5,-78 384.68,-58.38 356.62,-38.11 332.02,-25.19"/>
<polygon fill="midnightblue" stroke="midnightblue" points="333.37,-21.95 322.86,-20.61 330.24,-28.21 333.37,-21.95"/>
</g>
<!-- Node6 -->
<g id="node6" class="node">
<title>Node6</title>
<g id="a_node6"><a xlink:href="BasicTypes_8hpp.html" target="_top" xlink:title=" ">
<polygon fill="none" stroke="red" points="44,-57.5 44,-77.5 225,-77.5 225,-57.5 44,-57.5"/>
<text text-anchor="middle" x="134.5" y="-64.7" font-family="-apple-system,BlinkMacSystemFont,'SegoeUI',Roboto,Oxygen,Ubuntu,Cantarell,'FiraSans','DroidSans','HelveticaNeue',sans-serif" font-size="11.00">libmirai/Types/BasicTypes.hpp</text>
</a>
</g>
</g>
<!-- Node2&#45;&gt;Node6 -->
<g id="edge5" class="edge">
<title>Node2&#45;&gt;Node6</title>
<path fill="none" stroke="midnightblue" d="M134.5,-114.42C134.5,-107.22 134.5,-96.9 134.5,-87.86"/>
<polygon fill="midnightblue" stroke="midnightblue" points="138,-87.78 134.5,-77.78 131,-87.78 138,-87.78"/>
</g>
<!-- Node9 -->
<g id="node7" class="node">
<title>Node9</title>
<g id="a_node7"><a xlink:href="MessageBase_8hpp.html" target="_top" xlink:title=" ">
<polygon fill="none" stroke="red" points="243.5,-57.5 243.5,-77.5 359.5,-77.5 359.5,-57.5 243.5,-57.5"/>
<text text-anchor="middle" x="301.5" y="-64.7" font-family="-apple-system,BlinkMacSystemFont,'SegoeUI',Roboto,Oxygen,Ubuntu,Cantarell,'FiraSans','DroidSans','HelveticaNeue',sans-serif" font-size="11.00">MessageBase.hpp</text>
</a>
</g>
</g>
<!-- Node2&#45;&gt;Node9 -->
<g id="edge9" class="edge">
<title>Node2&#45;&gt;Node9</title>
<path fill="none" stroke="midnightblue" d="M162.08,-114.42C190.08,-105.19 233.62,-90.86 264.58,-80.66"/>
<polygon fill="midnightblue" stroke="midnightblue" points="265.76,-83.96 274.16,-77.5 263.57,-77.31 265.76,-83.96"/>
</g>
<!-- Node6&#45;&gt;Node3 -->
<g id="edge6" class="edge">
<title>Node6&#45;&gt;Node3</title>
<path fill="none" stroke="midnightblue" d="M116.17,-57.42C98.42,-48.62 71.27,-35.17 50.94,-25.1"/>
<polygon fill="midnightblue" stroke="midnightblue" points="52.37,-21.9 41.86,-20.6 49.26,-28.17 52.37,-21.9"/>
</g>
<!-- Node6&#45;&gt;Node4 -->
<g id="edge7" class="edge">
<title>Node6&#45;&gt;Node4</title>
<path fill="none" stroke="midnightblue" d="M134.5,-57.42C134.5,-50.22 134.5,-39.9 134.5,-30.86"/>
<polygon fill="midnightblue" stroke="midnightblue" points="138,-30.78 134.5,-20.78 131,-30.78 138,-30.78"/>
</g>
<!-- Node6&#45;&gt;Node5 -->
<g id="edge8" class="edge">
<title>Node6&#45;&gt;Node5</title>
<path fill="none" stroke="midnightblue" d="M162.08,-57.42C190.08,-48.19 233.62,-33.86 264.58,-23.66"/>
<polygon fill="midnightblue" stroke="midnightblue" points="265.76,-26.96 274.16,-20.5 263.57,-20.31 265.76,-26.96"/>
</g>
<!-- Node9&#45;&gt;Node4 -->
<g id="edge10" class="edge">
<title>Node9&#45;&gt;Node4</title>
<path fill="none" stroke="midnightblue" d="M273.92,-57.42C244.92,-47.86 199.24,-32.82 168.14,-22.58"/>
<polygon fill="midnightblue" stroke="midnightblue" points="169.18,-19.24 158.59,-19.43 166.99,-25.89 169.18,-19.24"/>
</g>
<!-- Node9&#45;&gt;Node5 -->
<g id="edge11" class="edge">
<title>Node9&#45;&gt;Node5</title>
<path fill="none" stroke="midnightblue" d="M301.5,-57.42C301.5,-50.22 301.5,-39.9 301.5,-30.86"/>
<polygon fill="midnightblue" stroke="midnightblue" points="305,-30.78 301.5,-20.78 298,-30.78 305,-30.78"/>
</g>
</g>
</svg>
