<?xml version="1.0" encoding="UTF-8" standalone="no"?>
<!DOCTYPE svg PUBLIC "-//W3C//DTD SVG 1.1//EN"
 "http://www.w3.org/Graphics/SVG/1.1/DTD/svg11.dtd">
<!-- Generated by graphviz version 3.0.0 (20221109.1736)
 -->
<!-- Title: Mirai::ClientConnectionEstablishedEvent Pages: 1 -->
<svg width="739pt" height="204pt"
 viewBox="0.00 0.00 739.00 204.00" xmlns="http://www.w3.org/2000/svg" xmlns:xlink="http://www.w3.org/1999/xlink">
<g id="graph0" class="graph" transform="scale(1 1) rotate(0) translate(4 200)">
<title>Mirai::ClientConnectionEstablishedEvent</title>
<!-- Node1 -->
<g id="node1" class="node">
<title>Node1</title>
<g id="a_node1"><a xlink:title="连接建立事件">
<polygon fill="#bfbfbf" stroke="black" points="549,-85.5 549,-117.5 731,-117.5 731,-85.5 549,-85.5"/>
<text text-anchor="start" x="557" y="-104.7" font-family="-apple-system, BlinkMacSystemFont, 'Segoe UI', Roboto, Oxygen, Ubuntu, Cantarell, 'Fira Sans', 'Droid Sans', 'Helvetica Neue', sans-serif" font-size="11.00">Mirai::ClientConnectionEstablished</text>
<text text-anchor="middle" x="640" y="-92.7" font-family="-apple-system, BlinkMacSystemFont, 'Segoe UI', Roboto, Oxygen, Ubuntu, Cantarell, 'Fira Sans', 'Droid Sans', 'Helvetica Neue', sans-serif" font-size="11.00">Event</text>
</a>
</g>
</g>
<!-- Node2 -->
<g id="node2" class="node">
<title>Node2</title>
<g id="a_node2"><a xlink:href="classMirai_1_1IEvent.html" target="_top" xlink:title=" ">
<polygon fill="none" stroke="black" points="295,-163.5 295,-195.5 462,-195.5 462,-163.5 295,-163.5"/>
<text text-anchor="start" x="303" y="-182.7" font-family="-apple-system, BlinkMacSystemFont, 'Segoe UI', Roboto, Oxygen, Ubuntu, Cantarell, 'Fira Sans', 'Droid Sans', 'Helvetica Neue', sans-serif" font-size="11.00">Mirai::IEvent&lt; ClientConnection</text>
<text text-anchor="middle" x="378.5" y="-170.7" font-family="-apple-system, BlinkMacSystemFont, 'Segoe UI', Roboto, Oxygen, Ubuntu, Cantarell, 'Fira Sans', 'Droid Sans', 'Helvetica Neue', sans-serif" font-size="11.00">EstablishedEvent &gt;</text>
</a>
</g>
</g>
<!-- Node2&#45;&gt;Node1 -->
<g id="edge1" class="edge">
<title>Node2&#45;&gt;Node1</title>
<path fill="none" stroke="midnightblue" d="M447.72,-160.71C473.84,-153.37 503.86,-144.75 531,-136.5 550.61,-130.54 572.11,-123.65 590.73,-117.56"/>
<polygon fill="midnightblue" stroke="midnightblue" points="446.6,-157.39 437.92,-163.46 448.49,-164.13 446.6,-157.39"/>
</g>
<!-- Node3 -->
<g id="node3" class="node">
<title>Node3</title>
<g id="a_node3"><a xlink:title=" ">
<polygon fill="none" stroke="black" points="142,-59.5 142,-79.5 205,-79.5 205,-59.5 142,-59.5"/>
<text text-anchor="middle" x="173.5" y="-66.7" font-family="-apple-system, BlinkMacSystemFont, 'Segoe UI', Roboto, Oxygen, Ubuntu, Cantarell, 'Fira Sans', 'Droid Sans', 'Helvetica Neue', sans-serif" font-size="11.00">std::string</text>
</a>
</g>
</g>
<!-- Node3&#45;&gt;Node1 -->
<g id="edge2" class="edge">
<title>Node3&#45;&gt;Node1</title>
<path fill="none" stroke="#9a32cd" stroke-dasharray="5,2" d="M215.37,-69.78C271.17,-70.42 374.3,-72.54 462,-79.5 490.24,-81.74 520.91,-85.19 548.66,-88.7"/>
<polygon fill="#9a32cd" stroke="#9a32cd" points="215.22,-66.28 205.19,-69.67 215.15,-73.28 215.22,-66.28"/>
<text text-anchor="middle" x="378.5" y="-106.7" font-family="-apple-system, BlinkMacSystemFont, 'Segoe UI', Roboto, Oxygen, Ubuntu, Cantarell, 'Fira Sans', 'Droid Sans', 'Helvetica Neue', sans-serif" font-size="11.00"> SessionKey</text>
<text text-anchor="middle" x="378.5" y="-94.7" font-family="-apple-system, BlinkMacSystemFont, 'Segoe UI', Roboto, Oxygen, Ubuntu, Cantarell, 'Fira Sans', 'Droid Sans', 'Helvetica Neue', sans-serif" font-size="11.00">protocol</text>
<text text-anchor="middle" x="378.5" y="-82.7" font-family="-apple-system, BlinkMacSystemFont, 'Segoe UI', Roboto, Oxygen, Ubuntu, Cantarell, 'Fira Sans', 'Droid Sans', 'Helvetica Neue', sans-serif" font-size="11.00">uri</text>
</g>
<!-- Node5 -->
<g id="node5" class="node">
<title>Node5</title>
<g id="a_node5"><a xlink:title=" ">
<polygon fill="none" stroke="black" points="320,-0.5 320,-32.5 437,-32.5 437,-0.5 320,-0.5"/>
<text text-anchor="start" x="328" y="-19.7" font-family="-apple-system, BlinkMacSystemFont, 'Segoe UI', Roboto, Oxygen, Ubuntu, Cantarell, 'Fira Sans', 'Droid Sans', 'Helvetica Neue', sans-serif" font-size="11.00">std::map&lt; std::string,</text>
<text text-anchor="middle" x="378.5" y="-7.7" font-family="-apple-system, BlinkMacSystemFont, 'Segoe UI', Roboto, Oxygen, Ubuntu, Cantarell, 'Fira Sans', 'Droid Sans', 'Helvetica Neue', sans-serif" font-size="11.00"> std::string &gt;</text>
</a>
</g>
</g>
<!-- Node3&#45;&gt;Node5 -->
<g id="edge5" class="edge">
<title>Node3&#45;&gt;Node5</title>
<path fill="none" stroke="#9a32cd" stroke-dasharray="5,2" d="M192.36,-52.91C201.92,-45.04 214.31,-36.32 227,-31.5 256.33,-20.36 291.08,-16.35 319.79,-15.24"/>
<polygon fill="#9a32cd" stroke="#9a32cd" points="190.03,-50.3 184.76,-59.49 194.61,-55.59 190.03,-50.3"/>
<text text-anchor="middle" x="252" y="-46.7" font-family="-apple-system, BlinkMacSystemFont, 'Segoe UI', Roboto, Oxygen, Ubuntu, Cantarell, 'Fira Sans', 'Droid Sans', 'Helvetica Neue', sans-serif" font-size="11.00"> elements</text>
<text text-anchor="middle" x="252" y="-34.7" font-family="-apple-system, BlinkMacSystemFont, 'Segoe UI', Roboto, Oxygen, Ubuntu, Cantarell, 'Fira Sans', 'Droid Sans', 'Helvetica Neue', sans-serif" font-size="11.00">keys</text>
</g>
<!-- Node6 -->
<g id="node6" class="node">
<title>Node6</title>
<g id="a_node6"><a xlink:href="structMirai_1_1User.html" target="_top" xlink:title="QQ用户">
<polygon fill="none" stroke="black" points="344,-124.5 344,-144.5 413,-144.5 413,-124.5 344,-124.5"/>
<text text-anchor="middle" x="378.5" y="-131.7" font-family="-apple-system, BlinkMacSystemFont, 'Segoe UI', Roboto, Oxygen, Ubuntu, Cantarell, 'Fira Sans', 'Droid Sans', 'Helvetica Neue', sans-serif" font-size="11.00">Mirai::User</text>
</a>
</g>
</g>
<!-- Node3&#45;&gt;Node6 -->
<g id="edge8" class="edge">
<title>Node3&#45;&gt;Node6</title>
<path fill="none" stroke="#9a32cd" stroke-dasharray="5,2" d="M213.76,-82.82C237.28,-90.73 267.79,-100.86 295,-109.5 310.98,-114.57 328.76,-119.99 343.72,-124.48"/>
<polygon fill="#9a32cd" stroke="#9a32cd" points="214.74,-79.46 204.14,-79.58 212.5,-86.09 214.74,-79.46"/>
<text text-anchor="middle" x="252" y="-118.7" font-family="-apple-system, BlinkMacSystemFont, 'Segoe UI', Roboto, Oxygen, Ubuntu, Cantarell, 'Fira Sans', 'Droid Sans', 'Helvetica Neue', sans-serif" font-size="11.00"> nickname</text>
<text text-anchor="middle" x="252" y="-106.7" font-family="-apple-system, BlinkMacSystemFont, 'Segoe UI', Roboto, Oxygen, Ubuntu, Cantarell, 'Fira Sans', 'Droid Sans', 'Helvetica Neue', sans-serif" font-size="11.00">remark</text>
</g>
<!-- Node4 -->
<g id="node4" class="node">
<title>Node4</title>
<g id="a_node4"><a xlink:title=" ">
<polygon fill="none" stroke="black" points="0,-53.5 0,-85.5 101,-85.5 101,-53.5 0,-53.5"/>
<text text-anchor="start" x="8" y="-72.7" font-family="-apple-system, BlinkMacSystemFont, 'Segoe UI', Roboto, Oxygen, Ubuntu, Cantarell, 'Fira Sans', 'Droid Sans', 'Helvetica Neue', sans-serif" font-size="11.00">std::basic_string&lt;</text>
<text text-anchor="middle" x="50.5" y="-60.7" font-family="-apple-system, BlinkMacSystemFont, 'Segoe UI', Roboto, Oxygen, Ubuntu, Cantarell, 'Fira Sans', 'Droid Sans', 'Helvetica Neue', sans-serif" font-size="11.00"> Char &gt;</text>
</a>
</g>
</g>
<!-- Node4&#45;&gt;Node3 -->
<g id="edge3" class="edge">
<title>Node4&#45;&gt;Node3</title>
<path fill="none" stroke="midnightblue" d="M111.21,-69.5C121.85,-69.5 132.53,-69.5 141.92,-69.5"/>
<polygon fill="midnightblue" stroke="midnightblue" points="111.06,-66 101.06,-69.5 111.06,-73 111.06,-66"/>
</g>
<!-- Node5&#45;&gt;Node1 -->
<g id="edge4" class="edge">
<title>Node5&#45;&gt;Node1</title>
<path fill="none" stroke="#9a32cd" stroke-dasharray="5,2" d="M447.06,-23.87C473.7,-27.98 504.26,-34.2 531,-43.5 561.15,-53.98 593.05,-72.09 614.29,-85.3"/>
<polygon fill="#9a32cd" stroke="#9a32cd" points="447.47,-20.39 437.06,-22.4 446.45,-27.32 447.47,-20.39"/>
<text text-anchor="middle" x="505.5" y="-46.7" font-family="-apple-system, BlinkMacSystemFont, 'Segoe UI', Roboto, Oxygen, Ubuntu, Cantarell, 'Fira Sans', 'Droid Sans', 'Helvetica Neue', sans-serif" font-size="11.00"> headers</text>
</g>
<!-- Node6&#45;&gt;Node1 -->
<g id="edge6" class="edge">
<title>Node6&#45;&gt;Node1</title>
<path fill="none" stroke="#9a32cd" stroke-dasharray="5,2" d="M423.29,-128.93C457.53,-124.58 506.27,-118.38 548.76,-112.98"/>
<polygon fill="#9a32cd" stroke="#9a32cd" points="422.64,-125.49 413.16,-130.22 423.52,-132.43 422.64,-125.49"/>
<text text-anchor="middle" x="505.5" y="-123.7" font-family="-apple-system, BlinkMacSystemFont, 'Segoe UI', Roboto, Oxygen, Ubuntu, Cantarell, 'Fira Sans', 'Droid Sans', 'Helvetica Neue', sans-serif" font-size="11.00"> BotProfile</text>
</g>
<!-- Node7 -->
<g id="node7" class="node">
<title>Node7</title>
<g id="a_node7"><a xlink:href="classMirai_1_1QQ__t.html" target="_top" xlink:title="QQ号码类型">
<polygon fill="none" stroke="red" points="138,-139.5 138,-159.5 209,-159.5 209,-139.5 138,-139.5"/>
<text text-anchor="middle" x="173.5" y="-146.7" font-family="-apple-system, BlinkMacSystemFont, 'Segoe UI', Roboto, Oxygen, Ubuntu, Cantarell, 'Fira Sans', 'Droid Sans', 'Helvetica Neue', sans-serif" font-size="11.00">Mirai::QQ_t</text>
</a>
</g>
</g>
<!-- Node7&#45;&gt;Node6 -->
<g id="edge7" class="edge">
<title>Node7&#45;&gt;Node6</title>
<path fill="none" stroke="#9a32cd" stroke-dasharray="5,2" d="M219.56,-146.17C257.1,-143.4 309.74,-139.51 343.73,-137"/>
<polygon fill="#9a32cd" stroke="#9a32cd" points="219.11,-142.69 209.4,-146.92 219.63,-149.67 219.11,-142.69"/>
<text text-anchor="middle" x="252" y="-147.7" font-family="-apple-system, BlinkMacSystemFont, 'Segoe UI', Roboto, Oxygen, Ubuntu, Cantarell, 'Fira Sans', 'Droid Sans', 'Helvetica Neue', sans-serif" font-size="11.00"> id</text>
</g>
</g>
</svg>
