<?xml version="1.0" encoding="UTF-8" standalone="no"?>
<!DOCTYPE svg PUBLIC "-//W3C//DTD SVG 1.1//EN"
 "http://www.w3.org/Graphics/SVG/1.1/DTD/svg11.dtd">
<!-- Generated by graphviz version 2.43.0 (0)
 -->
<!-- Title: Mirai::UserProfile Pages: 1 -->
<svg width="235pt" height="192pt"
 viewBox="0.00 0.00 235.00 192.00" xmlns="http://www.w3.org/2000/svg" xmlns:xlink="http://www.w3.org/1999/xlink">
<g id="graph0" class="graph" transform="scale(1 1) rotate(0) translate(4 188)">
<title>Mirai::UserProfile</title>
<!-- Node1 -->
<g id="node1" class="node">
<title>Node1</title>
<g id="a_node1"><a xlink:title="QQ用户资料">
<polygon fill="#bfbfbf" stroke="black" points="17.5,-0.5 17.5,-20.5 128.5,-20.5 128.5,-0.5 17.5,-0.5"/>
<text text-anchor="middle" x="73" y="-7.7" font-family="-apple-system,BlinkMacSystemFont,'SegoeUI',Roboto,Oxygen,Ubuntu,Cantarell,'FiraSans','DroidSans','HelveticaNeue',sans-serif" font-size="11.00">Mirai::UserProfile</text>
</a>
</g>
</g>
<!-- Node2 -->
<g id="node2" class="node">
<title>Node2</title>
<g id="a_node2"><a xlink:href="classMirai_1_1Serializable.html" target="_top" xlink:title="Base class for all json serializable type">
<polygon fill="none" stroke="black" points="0,-93.5 0,-113.5 114,-113.5 114,-93.5 0,-93.5"/>
<text text-anchor="middle" x="57" y="-100.7" font-family="-apple-system,BlinkMacSystemFont,'SegoeUI',Roboto,Oxygen,Ubuntu,Cantarell,'FiraSans','DroidSans','HelveticaNeue',sans-serif" font-size="11.00">Mirai::Serializable</text>
</a>
</g>
</g>
<!-- Node2&#45;&gt;Node1 -->
<g id="edge1" class="edge">
<title>Node2&#45;&gt;Node1</title>
<path fill="none" stroke="midnightblue" d="M60.36,-83.37C63.76,-64.07 68.85,-35.08 71.41,-20.52"/>
<polygon fill="midnightblue" stroke="midnightblue" points="56.88,-82.99 58.59,-93.44 63.77,-84.2 56.88,-82.99"/>
</g>
<!-- Node3 -->
<g id="node3" class="node">
<title>Node3</title>
<g id="a_node3"><a xlink:title="STL class">
<polygon fill="none" stroke="#bfbfbf" points="132.5,-93.5 132.5,-113.5 205.5,-113.5 205.5,-93.5 132.5,-93.5"/>
<text text-anchor="middle" x="169" y="-100.7" font-family="-apple-system,BlinkMacSystemFont,'SegoeUI',Roboto,Oxygen,Ubuntu,Cantarell,'FiraSans','DroidSans','HelveticaNeue',sans-serif" font-size="11.00">std::string</text>
</a>
</g>
</g>
<!-- Node3&#45;&gt;Node1 -->
<g id="edge2" class="edge">
<title>Node3&#45;&gt;Node1</title>
<path fill="none" stroke="#9a32cd" stroke-dasharray="5,2" d="M152.15,-86.53C131.93,-67.36 98.74,-35.89 82.52,-20.52"/>
<polygon fill="#9a32cd" stroke="#9a32cd" points="149.78,-89.1 159.44,-93.44 154.59,-84.02 149.78,-89.1"/>
<text text-anchor="middle" x="165.5" y="-66.2" font-family="-apple-system,BlinkMacSystemFont,'SegoeUI',Roboto,Oxygen,Ubuntu,Cantarell,'FiraSans','DroidSans','HelveticaNeue',sans-serif" font-size="11.00"> nickname</text>
<text text-anchor="middle" x="165.5" y="-54.2" font-family="-apple-system,BlinkMacSystemFont,'SegoeUI',Roboto,Oxygen,Ubuntu,Cantarell,'FiraSans','DroidSans','HelveticaNeue',sans-serif" font-size="11.00">email</text>
<text text-anchor="middle" x="165.5" y="-42.2" font-family="-apple-system,BlinkMacSystemFont,'SegoeUI',Roboto,Oxygen,Ubuntu,Cantarell,'FiraSans','DroidSans','HelveticaNeue',sans-serif" font-size="11.00">sign</text>
</g>
<!-- Node4 -->
<g id="node4" class="node">
<title>Node4</title>
<g id="a_node4"><a xlink:title="STL class">
<polygon fill="none" stroke="#bfbfbf" points="111,-151.5 111,-183.5 227,-183.5 227,-151.5 111,-151.5"/>
<text text-anchor="start" x="119" y="-170.7" font-family="-apple-system,BlinkMacSystemFont,'SegoeUI',Roboto,Oxygen,Ubuntu,Cantarell,'FiraSans','DroidSans','HelveticaNeue',sans-serif" font-size="11.00">std::basic_string&lt;</text>
<text text-anchor="middle" x="169" y="-158.7" font-family="-apple-system,BlinkMacSystemFont,'SegoeUI',Roboto,Oxygen,Ubuntu,Cantarell,'FiraSans','DroidSans','HelveticaNeue',sans-serif" font-size="11.00"> char &gt;</text>
</a>
</g>
</g>
<!-- Node4&#45;&gt;Node3 -->
<g id="edge3" class="edge">
<title>Node4&#45;&gt;Node3</title>
<path fill="none" stroke="midnightblue" d="M169,-141.42C169,-131.67 169,-121.11 169,-113.79"/>
<polygon fill="midnightblue" stroke="midnightblue" points="165.5,-141.49 169,-151.49 172.5,-141.49 165.5,-141.49"/>
</g>
</g>
</svg>
