<?xml version="1.0" encoding="UTF-8" standalone="no"?>
<!DOCTYPE svg PUBLIC "-//W3C//DTD SVG 1.1//EN"
 "http://www.w3.org/Graphics/SVG/1.1/DTD/svg11.dtd">
<!-- Generated by graphviz version 3.0.0 (20220413.0242)
 -->
<!-- Title: Mirai::Group Pages: 1 -->
<svg width="316pt" height="168pt"
 viewBox="0.00 0.00 316.00 168.00" xmlns="http://www.w3.org/2000/svg" xmlns:xlink="http://www.w3.org/1999/xlink">
<g id="graph0" class="graph" transform="scale(1 1) rotate(0) translate(4 164)">
<title>Mirai::Group</title>
<!-- Node1 -->
<g id="node1" class="node">
<title>Node1</title>
<g id="a_node1"><a xlink:title="群聊资料">
<polygon fill="#bfbfbf" stroke="black" points="118.5,-0.5 118.5,-20.5 194.5,-20.5 194.5,-0.5 118.5,-0.5"/>
<text text-anchor="middle" x="156.5" y="-7.7" font-family="-apple-system, BlinkMacSystemFont, 'Segoe UI', Roboto, Oxygen, Ubuntu, Cantarell, 'Fira Sans', 'Droid Sans', 'Helvetica Neue', sans-serif" font-size="11.00">Mirai::Group</text>
</a>
</g>
</g>
<!-- Node2 -->
<g id="node2" class="node">
<title>Node2</title>
<g id="a_node2"><a xlink:href="classMirai_1_1Serializable.html" target="_top" xlink:title="Base class for all json serializable type">
<polygon fill="none" stroke="black" points="0,-69.5 0,-89.5 101,-89.5 101,-69.5 0,-69.5"/>
<text text-anchor="middle" x="50.5" y="-76.7" font-family="-apple-system, BlinkMacSystemFont, 'Segoe UI', Roboto, Oxygen, Ubuntu, Cantarell, 'Fira Sans', 'Droid Sans', 'Helvetica Neue', sans-serif" font-size="11.00">Mirai::Serializable</text>
</a>
</g>
</g>
<!-- Node2&#45;&gt;Node1 -->
<g id="edge1" class="edge">
<title>Node2&#45;&gt;Node1</title>
<path fill="none" stroke="midnightblue" d="M73.37,-64.04C94.23,-50.86 124.42,-31.78 142.09,-20.61"/>
<polygon fill="midnightblue" stroke="midnightblue" points="71.38,-61.16 64.8,-69.46 75.12,-67.08 71.38,-61.16"/>
</g>
<!-- Node3 -->
<g id="node3" class="node">
<title>Node3</title>
<g id="a_node3"><a xlink:href="classMirai_1_1GID__t.html" target="_top" xlink:title="群聊号码类型">
<polygon fill="none" stroke="black" points="119.5,-69.5 119.5,-89.5 193.5,-89.5 193.5,-69.5 119.5,-69.5"/>
<text text-anchor="middle" x="156.5" y="-76.7" font-family="-apple-system, BlinkMacSystemFont, 'Segoe UI', Roboto, Oxygen, Ubuntu, Cantarell, 'Fira Sans', 'Droid Sans', 'Helvetica Neue', sans-serif" font-size="11.00">Mirai::GID_t</text>
</a>
</g>
</g>
<!-- Node3&#45;&gt;Node1 -->
<g id="edge2" class="edge">
<title>Node3&#45;&gt;Node1</title>
<path fill="none" stroke="#9a32cd" stroke-dasharray="5,2" d="M156.5,-59.08C156.5,-46.5 156.5,-30.68 156.5,-20.82"/>
<polygon fill="#9a32cd" stroke="#9a32cd" points="153,-59.46 156.5,-69.46 160,-59.46 153,-59.46"/>
<text text-anchor="middle" x="162.5" y="-42.2" font-family="-apple-system, BlinkMacSystemFont, 'Segoe UI', Roboto, Oxygen, Ubuntu, Cantarell, 'Fira Sans', 'Droid Sans', 'Helvetica Neue', sans-serif" font-size="11.00"> id</text>
</g>
<!-- Node4 -->
<g id="node4" class="node">
<title>Node4</title>
<g id="a_node4"><a xlink:href="classMirai_1_1UID__t.html" target="_top" xlink:title="Base class for QQ_t and GID_t">
<polygon fill="none" stroke="black" points="114.5,-133.5 114.5,-153.5 188.5,-153.5 188.5,-133.5 114.5,-133.5"/>
<text text-anchor="middle" x="151.5" y="-140.7" font-family="-apple-system, BlinkMacSystemFont, 'Segoe UI', Roboto, Oxygen, Ubuntu, Cantarell, 'Fira Sans', 'Droid Sans', 'Helvetica Neue', sans-serif" font-size="11.00">Mirai::UID_t</text>
</a>
</g>
</g>
<!-- Node4&#45;&gt;Node3 -->
<g id="edge3" class="edge">
<title>Node4&#45;&gt;Node3</title>
<path fill="none" stroke="midnightblue" d="M153.05,-123.23C153.96,-112.06 155.05,-98.49 155.76,-89.69"/>
<polygon fill="midnightblue" stroke="midnightblue" points="149.55,-123.1 152.24,-133.35 156.53,-123.67 149.55,-123.1"/>
</g>
<!-- Node5 -->
<g id="node5" class="node">
<title>Node5</title>
<g id="a_node5"><a xlink:title=" ">
<polygon fill="none" stroke="black" points="217,-69.5 217,-89.5 280,-89.5 280,-69.5 217,-69.5"/>
<text text-anchor="middle" x="248.5" y="-76.7" font-family="-apple-system, BlinkMacSystemFont, 'Segoe UI', Roboto, Oxygen, Ubuntu, Cantarell, 'Fira Sans', 'Droid Sans', 'Helvetica Neue', sans-serif" font-size="11.00">std::string</text>
</a>
</g>
</g>
<!-- Node5&#45;&gt;Node1 -->
<g id="edge4" class="edge">
<title>Node5&#45;&gt;Node1</title>
<path fill="none" stroke="#9a32cd" stroke-dasharray="5,2" d="M227.91,-63.51C209.84,-50.35 184.14,-31.63 169,-20.61"/>
<polygon fill="#9a32cd" stroke="#9a32cd" points="225.95,-66.41 236.09,-69.46 230.07,-60.75 225.95,-66.41"/>
<text text-anchor="middle" x="224" y="-42.2" font-family="-apple-system, BlinkMacSystemFont, 'Segoe UI', Roboto, Oxygen, Ubuntu, Cantarell, 'Fira Sans', 'Droid Sans', 'Helvetica Neue', sans-serif" font-size="11.00"> name</text>
</g>
<!-- Node6 -->
<g id="node6" class="node">
<title>Node6</title>
<g id="a_node6"><a xlink:title=" ">
<polygon fill="none" stroke="black" points="207,-127.5 207,-159.5 308,-159.5 308,-127.5 207,-127.5"/>
<text text-anchor="start" x="215" y="-146.7" font-family="-apple-system, BlinkMacSystemFont, 'Segoe UI', Roboto, Oxygen, Ubuntu, Cantarell, 'Fira Sans', 'Droid Sans', 'Helvetica Neue', sans-serif" font-size="11.00">std::basic_string&lt;</text>
<text text-anchor="middle" x="257.5" y="-134.7" font-family="-apple-system, BlinkMacSystemFont, 'Segoe UI', Roboto, Oxygen, Ubuntu, Cantarell, 'Fira Sans', 'Droid Sans', 'Helvetica Neue', sans-serif" font-size="11.00"> Char &gt;</text>
</a>
</g>
</g>
<!-- Node6&#45;&gt;Node5 -->
<g id="edge5" class="edge">
<title>Node6&#45;&gt;Node5</title>
<path fill="none" stroke="midnightblue" d="M253.86,-117.42C252.44,-107.67 250.91,-97.11 249.85,-89.79"/>
<polygon fill="midnightblue" stroke="midnightblue" points="250.42,-118.1 255.32,-127.49 257.35,-117.09 250.42,-118.1"/>
</g>
</g>
</svg>
