<?xml version="1.0" encoding="UTF-8" standalone="no"?>
<!DOCTYPE svg PUBLIC "-//W3C//DTD SVG 1.1//EN"
 "http://www.w3.org/Graphics/SVG/1.1/DTD/svg11.dtd">
<!-- Generated by graphviz version 2.43.0 (0)
 -->
<!-- Title: Mirai::FileInfo Pages: 1 -->
<svg width="222pt" height="180pt"
 viewBox="0.00 0.00 222.00 180.00" xmlns="http://www.w3.org/2000/svg" xmlns:xlink="http://www.w3.org/1999/xlink">
<g id="graph0" class="graph" transform="scale(1 1) rotate(0) translate(4 176)">
<title>Mirai::FileInfo</title>
<!-- Node1 -->
<g id="node1" class="node">
<title>Node1</title>
<g id="a_node1"><a xlink:title="文件基础信息">
<polygon fill="#bfbfbf" stroke="black" points="47.5,-0.5 47.5,-20.5 136.5,-20.5 136.5,-0.5 47.5,-0.5"/>
<text text-anchor="middle" x="92" y="-7.7" font-family="-apple-system,BlinkMacSystemFont,'SegoeUI',Roboto,Oxygen,Ubuntu,Cantarell,'FiraSans','DroidSans','HelveticaNeue',sans-serif" font-size="11.00">Mirai::FileInfo</text>
</a>
</g>
</g>
<!-- Node2 -->
<g id="node2" class="node">
<title>Node2</title>
<g id="a_node2"><a xlink:href="classMirai_1_1QQ__t.html" target="_top" xlink:title="QQ号码类型">
<polygon fill="none" stroke="black" points="6.5,-81.5 6.5,-101.5 85.5,-101.5 85.5,-81.5 6.5,-81.5"/>
<text text-anchor="middle" x="46" y="-88.7" font-family="-apple-system,BlinkMacSystemFont,'SegoeUI',Roboto,Oxygen,Ubuntu,Cantarell,'FiraSans','DroidSans','HelveticaNeue',sans-serif" font-size="11.00">Mirai::QQ_t</text>
</a>
</g>
</g>
<!-- Node2&#45;&gt;Node1 -->
<g id="edge1" class="edge">
<title>Node2&#45;&gt;Node1</title>
<path fill="none" stroke="#9a32cd" stroke-dasharray="5,2" d="M44.54,-71.38C44.63,-61.11 46.2,-48.63 52,-39 56.7,-31.2 64.55,-25.09 72.06,-20.63"/>
<polygon fill="#9a32cd" stroke="#9a32cd" points="41.05,-71.54 44.9,-81.41 48.04,-71.29 41.05,-71.54"/>
<text text-anchor="middle" x="84" y="-48.2" font-family="-apple-system,BlinkMacSystemFont,'SegoeUI',Roboto,Oxygen,Ubuntu,Cantarell,'FiraSans','DroidSans','HelveticaNeue',sans-serif" font-size="11.00"> UploaderId</text>
</g>
<!-- Node3 -->
<g id="node3" class="node">
<title>Node3</title>
<g id="a_node3"><a xlink:href="classMirai_1_1UID__t.html" target="_top" xlink:title="Base class for QQ_t and GID_t">
<polygon fill="none" stroke="black" points="0,-145.5 0,-165.5 80,-165.5 80,-145.5 0,-145.5"/>
<text text-anchor="middle" x="40" y="-152.7" font-family="-apple-system,BlinkMacSystemFont,'SegoeUI',Roboto,Oxygen,Ubuntu,Cantarell,'FiraSans','DroidSans','HelveticaNeue',sans-serif" font-size="11.00">Mirai::UID_t</text>
</a>
</g>
</g>
<!-- Node3&#45;&gt;Node2 -->
<g id="edge2" class="edge">
<title>Node3&#45;&gt;Node2</title>
<path fill="none" stroke="midnightblue" d="M41.86,-135.23C42.95,-124.06 44.26,-110.49 45.11,-101.69"/>
<polygon fill="midnightblue" stroke="midnightblue" points="38.36,-135.06 40.89,-145.35 45.33,-135.74 38.36,-135.06"/>
</g>
<!-- Node4 -->
<g id="node4" class="node">
<title>Node4</title>
<g id="a_node4"><a xlink:title="STL class">
<polygon fill="none" stroke="#bfbfbf" points="114.5,-81.5 114.5,-101.5 187.5,-101.5 187.5,-81.5 114.5,-81.5"/>
<text text-anchor="middle" x="151" y="-88.7" font-family="-apple-system,BlinkMacSystemFont,'SegoeUI',Roboto,Oxygen,Ubuntu,Cantarell,'FiraSans','DroidSans','HelveticaNeue',sans-serif" font-size="11.00">std::string</text>
</a>
</g>
</g>
<!-- Node4&#45;&gt;Node1 -->
<g id="edge3" class="edge">
<title>Node4&#45;&gt;Node1</title>
<path fill="none" stroke="#9a32cd" stroke-dasharray="5,2" d="M139.7,-72.75C133.08,-62.65 124.39,-49.88 116,-39 111.12,-32.68 105.23,-25.92 100.51,-20.68"/>
<polygon fill="#9a32cd" stroke="#9a32cd" points="136.76,-74.65 145.13,-81.15 142.64,-70.85 136.76,-74.65"/>
<text text-anchor="middle" x="147.5" y="-54.2" font-family="-apple-system,BlinkMacSystemFont,'SegoeUI',Roboto,Oxygen,Ubuntu,Cantarell,'FiraSans','DroidSans','HelveticaNeue',sans-serif" font-size="11.00"> sha1</text>
<text text-anchor="middle" x="147.5" y="-42.2" font-family="-apple-system,BlinkMacSystemFont,'SegoeUI',Roboto,Oxygen,Ubuntu,Cantarell,'FiraSans','DroidSans','HelveticaNeue',sans-serif" font-size="11.00">md5</text>
</g>
<!-- Node5 -->
<g id="node5" class="node">
<title>Node5</title>
<g id="a_node5"><a xlink:title="STL class">
<polygon fill="none" stroke="#bfbfbf" points="98,-139.5 98,-171.5 214,-171.5 214,-139.5 98,-139.5"/>
<text text-anchor="start" x="106" y="-158.7" font-family="-apple-system,BlinkMacSystemFont,'SegoeUI',Roboto,Oxygen,Ubuntu,Cantarell,'FiraSans','DroidSans','HelveticaNeue',sans-serif" font-size="11.00">std::basic_string&lt;</text>
<text text-anchor="middle" x="156" y="-146.7" font-family="-apple-system,BlinkMacSystemFont,'SegoeUI',Roboto,Oxygen,Ubuntu,Cantarell,'FiraSans','DroidSans','HelveticaNeue',sans-serif" font-size="11.00"> char &gt;</text>
</a>
</g>
</g>
<!-- Node5&#45;&gt;Node4 -->
<g id="edge4" class="edge">
<title>Node5&#45;&gt;Node4</title>
<path fill="none" stroke="midnightblue" d="M153.98,-129.42C153.19,-119.67 152.34,-109.11 151.75,-101.79"/>
<polygon fill="midnightblue" stroke="midnightblue" points="150.5,-129.81 154.79,-139.49 157.47,-129.24 150.5,-129.81"/>
</g>
</g>
</svg>
