<?xml version="1.0" encoding="UTF-8" standalone="no"?>
<!DOCTYPE svg PUBLIC "-//W3C//DTD SVG 1.1//EN"
 "http://www.w3.org/Graphics/SVG/1.1/DTD/svg11.dtd">
<!-- Generated by graphviz version 3.0.0 (20220413.0242)
 -->
<!-- Title: Mirai::GroupFileInfo Pages: 1 -->
<svg width="302pt" height="333pt"
 viewBox="0.00 0.00 302.00 333.00" xmlns="http://www.w3.org/2000/svg" xmlns:xlink="http://www.w3.org/1999/xlink">
<g id="graph0" class="graph" transform="scale(1 1) rotate(0) translate(4 329)">
<title>Mirai::GroupFileInfo</title>
<!-- Node1 -->
<g id="node1" class="node">
<title>Node1</title>
<g id="a_node1"><a xlink:title="群文件信息">
<polygon fill="#bfbfbf" stroke="black" points="149,-81.5 149,-101.5 260,-101.5 260,-81.5 149,-81.5"/>
<text text-anchor="middle" x="204.5" y="-88.7" font-family="-apple-system, BlinkMacSystemFont, 'Segoe UI', Roboto, Oxygen, Ubuntu, Cantarell, 'Fira Sans', 'Droid Sans', 'Helvetica Neue', sans-serif" font-size="11.00">Mirai::GroupFileInfo</text>
</a>
</g>
</g>
<!-- Node4 -->
<g id="node4" class="node">
<title>Node4</title>
<g id="a_node4"><a xlink:title=" ">
<polygon fill="none" stroke="black" points="144,-0.5 144,-32.5 265,-32.5 265,-0.5 144,-0.5"/>
<text text-anchor="start" x="152" y="-19.7" font-family="-apple-system, BlinkMacSystemFont, 'Segoe UI', Roboto, Oxygen, Ubuntu, Cantarell, 'Fira Sans', 'Droid Sans', 'Helvetica Neue', sans-serif" font-size="11.00">std::unique_ptr&lt; Mirai</text>
<text text-anchor="middle" x="204.5" y="-7.7" font-family="-apple-system, BlinkMacSystemFont, 'Segoe UI', Roboto, Oxygen, Ubuntu, Cantarell, 'Fira Sans', 'Droid Sans', 'Helvetica Neue', sans-serif" font-size="11.00">::GroupFileInfo &gt;</text>
</a>
</g>
</g>
<!-- Node1&#45;&gt;Node4 -->
<g id="edge4" class="edge">
<title>Node1&#45;&gt;Node4</title>
<path fill="none" stroke="#9a32cd" stroke-dasharray="5,2" d="M189.39,-73.04C187.38,-69.87 185.63,-66.47 184.5,-63 181.14,-52.66 185.93,-41.48 191.66,-32.78"/>
<polygon fill="#9a32cd" stroke="#9a32cd" points="186.65,-75.22 195.42,-81.17 192.27,-71.05 186.65,-75.22"/>
<text text-anchor="middle" x="192.5" y="-54.2" font-family="-apple-system, BlinkMacSystemFont, 'Segoe UI', Roboto, Oxygen, Ubuntu, Cantarell, 'Fira Sans', 'Droid Sans', 'Helvetica Neue', sans-serif" font-size="11.00"> ptr</text>
</g>
<!-- Node2 -->
<g id="node2" class="node">
<title>Node2</title>
<g id="a_node2"><a xlink:title=" ">
<polygon fill="none" stroke="black" points="212,-234.5 212,-254.5 275,-254.5 275,-234.5 212,-234.5"/>
<text text-anchor="middle" x="243.5" y="-241.7" font-family="-apple-system, BlinkMacSystemFont, 'Segoe UI', Roboto, Oxygen, Ubuntu, Cantarell, 'Fira Sans', 'Droid Sans', 'Helvetica Neue', sans-serif" font-size="11.00">std::string</text>
</a>
</g>
</g>
<!-- Node2&#45;&gt;Node1 -->
<g id="edge1" class="edge">
<title>Node2&#45;&gt;Node1</title>
<path fill="none" stroke="#9a32cd" stroke-dasharray="5,2" d="M244.27,-224.34C244.56,-199.29 242.61,-154.52 227.5,-120 224.5,-113.16 219.26,-106.69 214.54,-101.74"/>
<polygon fill="#9a32cd" stroke="#9a32cd" points="240.77,-224.27 244.02,-234.36 247.77,-224.45 240.77,-224.27"/>
<text text-anchor="middle" x="256.5" y="-177.2" font-family="-apple-system, BlinkMacSystemFont, 'Segoe UI', Roboto, Oxygen, Ubuntu, Cantarell, 'Fira Sans', 'Droid Sans', 'Helvetica Neue', sans-serif" font-size="11.00"> id</text>
<text text-anchor="middle" x="256.5" y="-165.2" font-family="-apple-system, BlinkMacSystemFont, 'Segoe UI', Roboto, Oxygen, Ubuntu, Cantarell, 'Fira Sans', 'Droid Sans', 'Helvetica Neue', sans-serif" font-size="11.00">name</text>
<text text-anchor="middle" x="256.5" y="-153.2" font-family="-apple-system, BlinkMacSystemFont, 'Segoe UI', Roboto, Oxygen, Ubuntu, Cantarell, 'Fira Sans', 'Droid Sans', 'Helvetica Neue', sans-serif" font-size="11.00">path</text>
</g>
<!-- Node5 -->
<g id="node5" class="node">
<title>Node5</title>
<g id="a_node5"><a xlink:href="structMirai_1_1Group.html" target="_top" xlink:title="群聊资料">
<polygon fill="none" stroke="black" points="124.5,-158 124.5,-178 200.5,-178 200.5,-158 124.5,-158"/>
<text text-anchor="middle" x="162.5" y="-165.2" font-family="-apple-system, BlinkMacSystemFont, 'Segoe UI', Roboto, Oxygen, Ubuntu, Cantarell, 'Fira Sans', 'Droid Sans', 'Helvetica Neue', sans-serif" font-size="11.00">Mirai::Group</text>
</a>
</g>
</g>
<!-- Node2&#45;&gt;Node5 -->
<g id="edge8" class="edge">
<title>Node2&#45;&gt;Node5</title>
<path fill="none" stroke="#9a32cd" stroke-dasharray="5,2" d="M214.84,-229.28C208.45,-225.44 201.96,-220.95 196.5,-216 184.12,-204.76 173.5,-188.34 167.56,-178.18"/>
<polygon fill="#9a32cd" stroke="#9a32cd" points="213.56,-232.58 223.99,-234.43 216.99,-226.48 213.56,-232.58"/>
<text text-anchor="middle" x="212" y="-207.2" font-family="-apple-system, BlinkMacSystemFont, 'Segoe UI', Roboto, Oxygen, Ubuntu, Cantarell, 'Fira Sans', 'Droid Sans', 'Helvetica Neue', sans-serif" font-size="11.00"> name</text>
</g>
<!-- Node3 -->
<g id="node3" class="node">
<title>Node3</title>
<g id="a_node3"><a xlink:title=" ">
<polygon fill="none" stroke="black" points="193,-292.5 193,-324.5 294,-324.5 294,-292.5 193,-292.5"/>
<text text-anchor="start" x="201" y="-311.7" font-family="-apple-system, BlinkMacSystemFont, 'Segoe UI', Roboto, Oxygen, Ubuntu, Cantarell, 'Fira Sans', 'Droid Sans', 'Helvetica Neue', sans-serif" font-size="11.00">std::basic_string&lt;</text>
<text text-anchor="middle" x="243.5" y="-299.7" font-family="-apple-system, BlinkMacSystemFont, 'Segoe UI', Roboto, Oxygen, Ubuntu, Cantarell, 'Fira Sans', 'Droid Sans', 'Helvetica Neue', sans-serif" font-size="11.00"> Char &gt;</text>
</a>
</g>
</g>
<!-- Node3&#45;&gt;Node2 -->
<g id="edge2" class="edge">
<title>Node3&#45;&gt;Node2</title>
<path fill="none" stroke="midnightblue" d="M243.5,-282.42C243.5,-272.67 243.5,-262.11 243.5,-254.79"/>
<polygon fill="midnightblue" stroke="midnightblue" points="240,-282.49 243.5,-292.49 247,-282.49 240,-282.49"/>
</g>
<!-- Node4&#45;&gt;Node1 -->
<g id="edge3" class="edge">
<title>Node4&#45;&gt;Node1</title>
<path fill="none" stroke="#9a32cd" stroke-dasharray="5,2" d="M204.5,-42.82C204.5,-56.12 204.5,-71.63 204.5,-81.25"/>
<polygon fill="#9a32cd" stroke="#9a32cd" points="208,-42.77 204.5,-32.77 201,-42.77 208,-42.77"/>
<text text-anchor="middle" x="221.5" y="-54.2" font-family="-apple-system, BlinkMacSystemFont, 'Segoe UI', Roboto, Oxygen, Ubuntu, Cantarell, 'Fira Sans', 'Droid Sans', 'Helvetica Neue', sans-serif" font-size="11.00"> parent</text>
</g>
<!-- Node5&#45;&gt;Node1 -->
<g id="edge5" class="edge">
<title>Node5&#45;&gt;Node1</title>
<path fill="none" stroke="#9a32cd" stroke-dasharray="5,2" d="M172.63,-149.03C181.05,-134.1 192.67,-113.48 199.31,-101.71"/>
<polygon fill="#9a32cd" stroke="#9a32cd" points="169.51,-147.43 167.65,-157.86 175.61,-150.87 169.51,-147.43"/>
<text text-anchor="middle" x="206.5" y="-123.2" font-family="-apple-system, BlinkMacSystemFont, 'Segoe UI', Roboto, Oxygen, Ubuntu, Cantarell, 'Fira Sans', 'Droid Sans', 'Helvetica Neue', sans-serif" font-size="11.00"> contact</text>
</g>
<!-- Node6 -->
<g id="node6" class="node">
<title>Node6</title>
<g id="a_node6"><a xlink:href="classMirai_1_1Serializable.html" target="_top" xlink:title="Base class for all json serializable type">
<polygon fill="none" stroke="black" points="0,-234.5 0,-254.5 101,-254.5 101,-234.5 0,-234.5"/>
<text text-anchor="middle" x="50.5" y="-241.7" font-family="-apple-system, BlinkMacSystemFont, 'Segoe UI', Roboto, Oxygen, Ubuntu, Cantarell, 'Fira Sans', 'Droid Sans', 'Helvetica Neue', sans-serif" font-size="11.00">Mirai::Serializable</text>
</a>
</g>
</g>
<!-- Node6&#45;&gt;Node5 -->
<g id="edge6" class="edge">
<title>Node6&#45;&gt;Node5</title>
<path fill="none" stroke="midnightblue" d="M72.85,-228.64C95.46,-213.6 129.7,-190.82 148.65,-178.21"/>
<polygon fill="midnightblue" stroke="midnightblue" points="70.62,-225.91 64.23,-234.36 74.5,-231.74 70.62,-225.91"/>
</g>
<!-- Node7 -->
<g id="node7" class="node">
<title>Node7</title>
<g id="a_node7"><a xlink:href="classMirai_1_1GID__t.html" target="_top" xlink:title="群聊号码类型">
<polygon fill="none" stroke="red" points="119.5,-234.5 119.5,-254.5 193.5,-254.5 193.5,-234.5 119.5,-234.5"/>
<text text-anchor="middle" x="156.5" y="-241.7" font-family="-apple-system, BlinkMacSystemFont, 'Segoe UI', Roboto, Oxygen, Ubuntu, Cantarell, 'Fira Sans', 'Droid Sans', 'Helvetica Neue', sans-serif" font-size="11.00">Mirai::GID_t</text>
</a>
</g>
</g>
<!-- Node7&#45;&gt;Node5 -->
<g id="edge7" class="edge">
<title>Node7&#45;&gt;Node5</title>
<path fill="none" stroke="#9a32cd" stroke-dasharray="5,2" d="M158.05,-224.24C159.24,-209.43 160.84,-189.64 161.76,-178.21"/>
<polygon fill="#9a32cd" stroke="#9a32cd" points="154.55,-224.12 157.24,-234.36 161.53,-224.68 154.55,-224.12"/>
<text text-anchor="middle" x="165.5" y="-207.2" font-family="-apple-system, BlinkMacSystemFont, 'Segoe UI', Roboto, Oxygen, Ubuntu, Cantarell, 'Fira Sans', 'Droid Sans', 'Helvetica Neue', sans-serif" font-size="11.00"> id</text>
</g>
</g>
</svg>
