<?xml version="1.0" encoding="UTF-8" standalone="no"?>
<!DOCTYPE svg PUBLIC "-//W3C//DTD SVG 1.1//EN"
 "http://www.w3.org/Graphics/SVG/1.1/DTD/svg11.dtd">
<!-- Generated by graphviz version 3.0.0 (20221109.1736)
 -->
<!-- Title: Mirai::GroupMember Pages: 1 -->
<svg width="253pt" height="249pt"
 viewBox="0.00 0.00 252.50 249.00" xmlns="http://www.w3.org/2000/svg" xmlns:xlink="http://www.w3.org/1999/xlink">
<g id="graph0" class="graph" transform="scale(1 1) rotate(0) translate(4 245)">
<title>Mirai::GroupMember</title>
<!-- Node1 -->
<g id="node1" class="node">
<title>Node1</title>
<g id="a_node1"><a xlink:title="群员资料">
<polygon fill="#bfbfbf" stroke="black" points="51.5,-0.5 51.5,-20.5 167.5,-20.5 167.5,-0.5 51.5,-0.5"/>
<text text-anchor="middle" x="109.5" y="-7.7" font-family="-apple-system, BlinkMacSystemFont, 'Segoe UI', Roboto, Oxygen, Ubuntu, Cantarell, 'Fira Sans', 'Droid Sans', 'Helvetica Neue', sans-serif" font-size="11.00">Mirai::GroupMember</text>
</a>
</g>
</g>
<!-- Node2 -->
<g id="node2" class="node">
<title>Node2</title>
<g id="a_node2"><a xlink:href="classMirai_1_1QQ__t.html" target="_top" xlink:title="QQ号码类型">
<polygon fill="none" stroke="black" points="0,-111.5 0,-131.5 71,-131.5 71,-111.5 0,-111.5"/>
<text text-anchor="middle" x="35.5" y="-118.7" font-family="-apple-system, BlinkMacSystemFont, 'Segoe UI', Roboto, Oxygen, Ubuntu, Cantarell, 'Fira Sans', 'Droid Sans', 'Helvetica Neue', sans-serif" font-size="11.00">Mirai::QQ_t</text>
</a>
</g>
</g>
<!-- Node2&#45;&gt;Node1 -->
<g id="edge1" class="edge">
<title>Node2&#45;&gt;Node1</title>
<path fill="none" stroke="#9a32cd" stroke-dasharray="5,2" d="M38.64,-101.29C40.89,-91.17 44.58,-78.85 50.5,-69 62.58,-48.89 83.39,-30.95 96.8,-20.65"/>
<polygon fill="#9a32cd" stroke="#9a32cd" points="35.19,-100.7 36.74,-111.18 42.07,-102.02 35.19,-100.7"/>
<text text-anchor="middle" x="56.5" y="-78.2" font-family="-apple-system, BlinkMacSystemFont, 'Segoe UI', Roboto, Oxygen, Ubuntu, Cantarell, 'Fira Sans', 'Droid Sans', 'Helvetica Neue', sans-serif" font-size="11.00"> id</text>
</g>
<!-- Node3 -->
<g id="node3" class="node">
<title>Node3</title>
<g id="a_node3"><a xlink:href="classMirai_1_1UID__t.html" target="_top" xlink:title="Base class for QQ_t and GID_t">
<polygon fill="none" stroke="black" points="19.5,-214.5 19.5,-234.5 93.5,-234.5 93.5,-214.5 19.5,-214.5"/>
<text text-anchor="middle" x="56.5" y="-221.7" font-family="-apple-system, BlinkMacSystemFont, 'Segoe UI', Roboto, Oxygen, Ubuntu, Cantarell, 'Fira Sans', 'Droid Sans', 'Helvetica Neue', sans-serif" font-size="11.00">Mirai::UID_t</text>
</a>
</g>
</g>
<!-- Node3&#45;&gt;Node2 -->
<g id="edge2" class="edge">
<title>Node3&#45;&gt;Node2</title>
<path fill="none" stroke="midnightblue" d="M52.53,-204.38C47.99,-182.57 40.76,-147.82 37.37,-131.51"/>
<polygon fill="midnightblue" stroke="midnightblue" points="49.1,-205.1 54.56,-214.18 55.95,-203.68 49.1,-205.1"/>
</g>
<!-- Node7 -->
<g id="node7" class="node">
<title>Node7</title>
<g id="a_node7"><a xlink:href="classMirai_1_1GID__t.html" target="_top" xlink:title="群聊号码类型">
<polygon fill="none" stroke="black" points="61.5,-150.5 61.5,-170.5 135.5,-170.5 135.5,-150.5 61.5,-150.5"/>
<text text-anchor="middle" x="98.5" y="-157.7" font-family="-apple-system, BlinkMacSystemFont, 'Segoe UI', Roboto, Oxygen, Ubuntu, Cantarell, 'Fira Sans', 'Droid Sans', 'Helvetica Neue', sans-serif" font-size="11.00">Mirai::GID_t</text>
</a>
</g>
</g>
<!-- Node3&#45;&gt;Node7 -->
<g id="edge7" class="edge">
<title>Node3&#45;&gt;Node7</title>
<path fill="none" stroke="midnightblue" d="M68.38,-205.96C76.16,-194.48 86,-179.95 92.28,-170.69"/>
<polygon fill="midnightblue" stroke="midnightblue" points="65.41,-204.11 62.7,-214.35 71.2,-208.04 65.41,-204.11"/>
</g>
<!-- Node4 -->
<g id="node4" class="node">
<title>Node4</title>
<g id="a_node4"><a xlink:title=" ">
<polygon fill="none" stroke="black" points="154,-150.5 154,-170.5 217,-170.5 217,-150.5 154,-150.5"/>
<text text-anchor="middle" x="185.5" y="-157.7" font-family="-apple-system, BlinkMacSystemFont, 'Segoe UI', Roboto, Oxygen, Ubuntu, Cantarell, 'Fira Sans', 'Droid Sans', 'Helvetica Neue', sans-serif" font-size="11.00">std::string</text>
</a>
</g>
</g>
<!-- Node4&#45;&gt;Node1 -->
<g id="edge3" class="edge">
<title>Node4&#45;&gt;Node1</title>
<path fill="none" stroke="#9a32cd" stroke-dasharray="5,2" d="M182.76,-140.32C178.35,-114.99 167.7,-69.99 144.5,-39 139.13,-31.82 131.44,-25.51 124.63,-20.74"/>
<polygon fill="#9a32cd" stroke="#9a32cd" points="179.34,-141.12 184.37,-150.45 186.25,-140.02 179.34,-141.12"/>
<text text-anchor="middle" x="208" y="-84.2" font-family="-apple-system, BlinkMacSystemFont, 'Segoe UI', Roboto, Oxygen, Ubuntu, Cantarell, 'Fira Sans', 'Droid Sans', 'Helvetica Neue', sans-serif" font-size="11.00"> MemberName</text>
<text text-anchor="middle" x="208" y="-72.2" font-family="-apple-system, BlinkMacSystemFont, 'Segoe UI', Roboto, Oxygen, Ubuntu, Cantarell, 'Fira Sans', 'Droid Sans', 'Helvetica Neue', sans-serif" font-size="11.00">SpecialTitle</text>
</g>
<!-- Node6 -->
<g id="node6" class="node">
<title>Node6</title>
<g id="a_node6"><a xlink:href="structMirai_1_1Group.html" target="_top" xlink:title="群聊资料">
<polygon fill="none" stroke="black" points="71.5,-71 71.5,-91 147.5,-91 147.5,-71 71.5,-71"/>
<text text-anchor="middle" x="109.5" y="-78.2" font-family="-apple-system, BlinkMacSystemFont, 'Segoe UI', Roboto, Oxygen, Ubuntu, Cantarell, 'Fira Sans', 'Droid Sans', 'Helvetica Neue', sans-serif" font-size="11.00">Mirai::Group</text>
</a>
</g>
</g>
<!-- Node4&#45;&gt;Node6 -->
<g id="edge8" class="edge">
<title>Node4&#45;&gt;Node6</title>
<path fill="none" stroke="#9a32cd" stroke-dasharray="5,2" d="M156.82,-145.33C150.69,-141.52 144.54,-137.04 139.5,-132 127.32,-119.84 118.09,-101.78 113.26,-91.02"/>
<polygon fill="#9a32cd" stroke="#9a32cd" points="155.26,-148.47 165.67,-150.42 158.75,-142.4 155.26,-148.47"/>
<text text-anchor="middle" x="155" y="-118.7" font-family="-apple-system, BlinkMacSystemFont, 'Segoe UI', Roboto, Oxygen, Ubuntu, Cantarell, 'Fira Sans', 'Droid Sans', 'Helvetica Neue', sans-serif" font-size="11.00"> name</text>
</g>
<!-- Node5 -->
<g id="node5" class="node">
<title>Node5</title>
<g id="a_node5"><a xlink:title=" ">
<polygon fill="none" stroke="black" points="135,-208.5 135,-240.5 236,-240.5 236,-208.5 135,-208.5"/>
<text text-anchor="start" x="143" y="-227.7" font-family="-apple-system, BlinkMacSystemFont, 'Segoe UI', Roboto, Oxygen, Ubuntu, Cantarell, 'Fira Sans', 'Droid Sans', 'Helvetica Neue', sans-serif" font-size="11.00">std::basic_string&lt;</text>
<text text-anchor="middle" x="185.5" y="-215.7" font-family="-apple-system, BlinkMacSystemFont, 'Segoe UI', Roboto, Oxygen, Ubuntu, Cantarell, 'Fira Sans', 'Droid Sans', 'Helvetica Neue', sans-serif" font-size="11.00"> Char &gt;</text>
</a>
</g>
</g>
<!-- Node5&#45;&gt;Node4 -->
<g id="edge4" class="edge">
<title>Node5&#45;&gt;Node4</title>
<path fill="none" stroke="midnightblue" d="M185.5,-198.42C185.5,-188.67 185.5,-178.11 185.5,-170.79"/>
<polygon fill="midnightblue" stroke="midnightblue" points="182,-198.49 185.5,-208.49 189,-198.49 182,-198.49"/>
</g>
<!-- Node6&#45;&gt;Node1 -->
<g id="edge5" class="edge">
<title>Node6&#45;&gt;Node1</title>
<path fill="none" stroke="#9a32cd" stroke-dasharray="5,2" d="M109.5,-60.41C109.5,-47.32 109.5,-30.7 109.5,-20.59"/>
<polygon fill="#9a32cd" stroke="#9a32cd" points="106,-60.76 109.5,-70.76 113,-60.76 106,-60.76"/>
<text text-anchor="middle" x="125" y="-42.2" font-family="-apple-system, BlinkMacSystemFont, 'Segoe UI', Roboto, Oxygen, Ubuntu, Cantarell, 'Fira Sans', 'Droid Sans', 'Helvetica Neue', sans-serif" font-size="11.00"> group</text>
</g>
<!-- Node7&#45;&gt;Node6 -->
<g id="edge6" class="edge">
<title>Node7&#45;&gt;Node6</title>
<path fill="none" stroke="#9a32cd" stroke-dasharray="5,2" d="M100.05,-140.07C100.87,-131.18 102.03,-120.53 103.5,-111 104.54,-104.29 106.1,-96.79 107.37,-91.1"/>
<polygon fill="#9a32cd" stroke="#9a32cd" points="96.55,-139.9 99.18,-150.17 103.53,-140.5 96.55,-139.9"/>
<text text-anchor="middle" x="109.5" y="-118.7" font-family="-apple-system, BlinkMacSystemFont, 'Segoe UI', Roboto, Oxygen, Ubuntu, Cantarell, 'Fira Sans', 'Droid Sans', 'Helvetica Neue', sans-serif" font-size="11.00"> id</text>
</g>
</g>
</svg>
