<?xml version="1.0" encoding="UTF-8" standalone="no"?>
<!DOCTYPE svg PUBLIC "-//W3C//DTD SVG 1.1//EN"
 "http://www.w3.org/Graphics/SVG/1.1/DTD/svg11.dtd">
<!-- Generated by graphviz version 2.43.0 (0)
 -->
<!-- Title: Mirai::SessionConfigs Pages: 1 -->
<svg width="222pt" height="192pt"
 viewBox="0.00 0.00 222.00 192.00" xmlns="http://www.w3.org/2000/svg" xmlns:xlink="http://www.w3.org/1999/xlink">
<g id="graph0" class="graph" transform="scale(1 1) rotate(0) translate(4 188)">
<title>Mirai::SessionConfigs</title>
<!-- Node1 -->
<g id="node1" class="node">
<title>Node1</title>
<g id="a_node1"><a xlink:title="连接mirai&#45;api&#45;http的配置">
<polygon fill="#bfbfbf" stroke="black" points="26,-0.5 26,-20.5 160,-20.5 160,-0.5 26,-0.5"/>
<text text-anchor="middle" x="93" y="-7.7" font-family="-apple-system,BlinkMacSystemFont,'SegoeUI',Roboto,Oxygen,Ubuntu,Cantarell,'FiraSans','DroidSans','HelveticaNeue',sans-serif" font-size="11.00">Mirai::SessionConfigs</text>
</a>
</g>
</g>
<!-- Node2 -->
<g id="node2" class="node">
<title>Node2</title>
<g id="a_node2"><a xlink:href="classMirai_1_1QQ__t.html" target="_top" xlink:title="QQ号码类型">
<polygon fill="none" stroke="black" points="6.5,-93.5 6.5,-113.5 85.5,-113.5 85.5,-93.5 6.5,-93.5"/>
<text text-anchor="middle" x="46" y="-100.7" font-family="-apple-system,BlinkMacSystemFont,'SegoeUI',Roboto,Oxygen,Ubuntu,Cantarell,'FiraSans','DroidSans','HelveticaNeue',sans-serif" font-size="11.00">Mirai::QQ_t</text>
</a>
</g>
</g>
<!-- Node2&#45;&gt;Node1 -->
<g id="edge1" class="edge">
<title>Node2&#45;&gt;Node1</title>
<path fill="none" stroke="#9a32cd" stroke-dasharray="5,2" d="M50.83,-83.65C54.65,-70.57 60.72,-53.05 69,-39 72.86,-32.45 78.38,-26 83.15,-20.99"/>
<polygon fill="#9a32cd" stroke="#9a32cd" points="47.42,-82.85 48.15,-93.42 54.17,-84.7 47.42,-82.85"/>
<text text-anchor="middle" x="89.5" y="-54.2" font-family="-apple-system,BlinkMacSystemFont,'SegoeUI',Roboto,Oxygen,Ubuntu,Cantarell,'FiraSans','DroidSans','HelveticaNeue',sans-serif" font-size="11.00"> BotQQ</text>
</g>
<!-- Node3 -->
<g id="node3" class="node">
<title>Node3</title>
<g id="a_node3"><a xlink:href="classMirai_1_1UID__t.html" target="_top" xlink:title="Base class for QQ_t and GID_t">
<polygon fill="none" stroke="black" points="0,-157.5 0,-177.5 80,-177.5 80,-157.5 0,-157.5"/>
<text text-anchor="middle" x="40" y="-164.7" font-family="-apple-system,BlinkMacSystemFont,'SegoeUI',Roboto,Oxygen,Ubuntu,Cantarell,'FiraSans','DroidSans','HelveticaNeue',sans-serif" font-size="11.00">Mirai::UID_t</text>
</a>
</g>
</g>
<!-- Node3&#45;&gt;Node2 -->
<g id="edge2" class="edge">
<title>Node3&#45;&gt;Node2</title>
<path fill="none" stroke="midnightblue" d="M41.86,-147.23C42.95,-136.06 44.26,-122.49 45.11,-113.69"/>
<polygon fill="midnightblue" stroke="midnightblue" points="38.36,-147.06 40.89,-157.35 45.33,-147.74 38.36,-147.06"/>
</g>
<!-- Node4 -->
<g id="node4" class="node">
<title>Node4</title>
<g id="a_node4"><a xlink:title="STL class">
<polygon fill="none" stroke="#bfbfbf" points="114.5,-93.5 114.5,-113.5 187.5,-113.5 187.5,-93.5 114.5,-93.5"/>
<text text-anchor="middle" x="151" y="-100.7" font-family="-apple-system,BlinkMacSystemFont,'SegoeUI',Roboto,Oxygen,Ubuntu,Cantarell,'FiraSans','DroidSans','HelveticaNeue',sans-serif" font-size="11.00">std::string</text>
</a>
</g>
</g>
<!-- Node4&#45;&gt;Node1 -->
<g id="edge3" class="edge">
<title>Node4&#45;&gt;Node1</title>
<path fill="none" stroke="#9a32cd" stroke-dasharray="5,2" d="M139.83,-84.97C127.55,-65.7 108.29,-35.49 98.75,-20.52"/>
<polygon fill="#9a32cd" stroke="#9a32cd" points="136.9,-86.89 145.23,-93.44 142.8,-83.13 136.9,-86.89"/>
<text text-anchor="middle" x="170" y="-66.2" font-family="-apple-system,BlinkMacSystemFont,'SegoeUI',Roboto,Oxygen,Ubuntu,Cantarell,'FiraSans','DroidSans','HelveticaNeue',sans-serif" font-size="11.00"> VerifyKey</text>
<text text-anchor="middle" x="170" y="-54.2" font-family="-apple-system,BlinkMacSystemFont,'SegoeUI',Roboto,Oxygen,Ubuntu,Cantarell,'FiraSans','DroidSans','HelveticaNeue',sans-serif" font-size="11.00">HttpUrl</text>
<text text-anchor="middle" x="170" y="-42.2" font-family="-apple-system,BlinkMacSystemFont,'SegoeUI',Roboto,Oxygen,Ubuntu,Cantarell,'FiraSans','DroidSans','HelveticaNeue',sans-serif" font-size="11.00">WebsocketUrl</text>
</g>
<!-- Node5 -->
<g id="node5" class="node">
<title>Node5</title>
<g id="a_node5"><a xlink:title="STL class">
<polygon fill="none" stroke="#bfbfbf" points="98,-151.5 98,-183.5 214,-183.5 214,-151.5 98,-151.5"/>
<text text-anchor="start" x="106" y="-170.7" font-family="-apple-system,BlinkMacSystemFont,'SegoeUI',Roboto,Oxygen,Ubuntu,Cantarell,'FiraSans','DroidSans','HelveticaNeue',sans-serif" font-size="11.00">std::basic_string&lt;</text>
<text text-anchor="middle" x="156" y="-158.7" font-family="-apple-system,BlinkMacSystemFont,'SegoeUI',Roboto,Oxygen,Ubuntu,Cantarell,'FiraSans','DroidSans','HelveticaNeue',sans-serif" font-size="11.00"> char &gt;</text>
</a>
</g>
</g>
<!-- Node5&#45;&gt;Node4 -->
<g id="edge4" class="edge">
<title>Node5&#45;&gt;Node4</title>
<path fill="none" stroke="midnightblue" d="M153.98,-141.42C153.19,-131.67 152.34,-121.11 151.75,-113.79"/>
<polygon fill="midnightblue" stroke="midnightblue" points="150.5,-141.81 154.79,-151.49 157.47,-141.24 150.5,-141.81"/>
</g>
</g>
</svg>
