<?xml version="1.0" encoding="UTF-8" standalone="no"?>
<!DOCTYPE svg PUBLIC "-//W3C//DTD SVG 1.1//EN"
 "http://www.w3.org/Graphics/SVG/1.1/DTD/svg11.dtd">
<!-- Generated by graphviz version 3.0.0 (20221109.1736)
 -->
<!-- Title: Mirai::GroupFileInfo Pages: 1 -->
<svg width="183pt" height="333pt"
 viewBox="0.00 0.00 182.50 333.00" xmlns="http://www.w3.org/2000/svg" xmlns:xlink="http://www.w3.org/1999/xlink">
<g id="graph0" class="graph" transform="scale(1 1) rotate(0) translate(4 329)">
<title>Mirai::GroupFileInfo</title>
<!-- Node1 -->
<g id="node1" class="node">
<title>Node1</title>
<g id="a_node1"><a xlink:title="群文件信息">
<polygon fill="#bfbfbf" stroke="black" points="31.5,-81.5 31.5,-101.5 142.5,-101.5 142.5,-81.5 31.5,-81.5"/>
<text text-anchor="middle" x="87" y="-88.7" font-family="-apple-system, BlinkMacSystemFont, 'Segoe UI', Roboto, Oxygen, Ubuntu, Cantarell, 'Fira Sans', 'Droid Sans', 'Helvetica Neue', sans-serif" font-size="11.00">Mirai::GroupFileInfo</text>
</a>
</g>
</g>
<!-- Node4 -->
<g id="node4" class="node">
<title>Node4</title>
<g id="a_node4"><a xlink:title=" ">
<polygon fill="none" stroke="black" points="26.5,-0.5 26.5,-32.5 147.5,-32.5 147.5,-0.5 26.5,-0.5"/>
<text text-anchor="start" x="34.5" y="-19.7" font-family="-apple-system, BlinkMacSystemFont, 'Segoe UI', Roboto, Oxygen, Ubuntu, Cantarell, 'Fira Sans', 'Droid Sans', 'Helvetica Neue', sans-serif" font-size="11.00">std::unique_ptr&lt; Mirai</text>
<text text-anchor="middle" x="87" y="-7.7" font-family="-apple-system, BlinkMacSystemFont, 'Segoe UI', Roboto, Oxygen, Ubuntu, Cantarell, 'Fira Sans', 'Droid Sans', 'Helvetica Neue', sans-serif" font-size="11.00">::GroupFileInfo &gt;</text>
</a>
</g>
</g>
<!-- Node1&#45;&gt;Node4 -->
<g id="edge4" class="edge">
<title>Node1&#45;&gt;Node4</title>
<path fill="none" stroke="#9a32cd" stroke-dasharray="5,2" d="M71.89,-73.04C69.88,-69.87 68.13,-66.47 67,-63 63.64,-52.66 68.43,-41.48 74.16,-32.78"/>
<polygon fill="#9a32cd" stroke="#9a32cd" points="69.15,-75.22 77.92,-81.17 74.77,-71.05 69.15,-75.22"/>
<text text-anchor="middle" x="75" y="-54.2" font-family="-apple-system, BlinkMacSystemFont, 'Segoe UI', Roboto, Oxygen, Ubuntu, Cantarell, 'Fira Sans', 'Droid Sans', 'Helvetica Neue', sans-serif" font-size="11.00"> ptr</text>
</g>
<!-- Node2 -->
<g id="node2" class="node">
<title>Node2</title>
<g id="a_node2"><a xlink:title=" ">
<polygon fill="none" stroke="black" points="92.5,-234.5 92.5,-254.5 155.5,-254.5 155.5,-234.5 92.5,-234.5"/>
<text text-anchor="middle" x="124" y="-241.7" font-family="-apple-system, BlinkMacSystemFont, 'Segoe UI', Roboto, Oxygen, Ubuntu, Cantarell, 'Fira Sans', 'Droid Sans', 'Helvetica Neue', sans-serif" font-size="11.00">std::string</text>
</a>
</g>
</g>
<!-- Node2&#45;&gt;Node1 -->
<g id="edge1" class="edge">
<title>Node2&#45;&gt;Node1</title>
<path fill="none" stroke="#9a32cd" stroke-dasharray="5,2" d="M125.16,-224.36C125.94,-199.32 124.81,-154.57 110,-120 107.06,-113.13 101.82,-106.66 97.09,-101.72"/>
<polygon fill="#9a32cd" stroke="#9a32cd" points="121.66,-224.22 124.7,-234.37 128.65,-224.54 121.66,-224.22"/>
<text text-anchor="middle" x="138" y="-177.2" font-family="-apple-system, BlinkMacSystemFont, 'Segoe UI', Roboto, Oxygen, Ubuntu, Cantarell, 'Fira Sans', 'Droid Sans', 'Helvetica Neue', sans-serif" font-size="11.00"> id</text>
<text text-anchor="middle" x="138" y="-165.2" font-family="-apple-system, BlinkMacSystemFont, 'Segoe UI', Roboto, Oxygen, Ubuntu, Cantarell, 'Fira Sans', 'Droid Sans', 'Helvetica Neue', sans-serif" font-size="11.00">name</text>
<text text-anchor="middle" x="138" y="-153.2" font-family="-apple-system, BlinkMacSystemFont, 'Segoe UI', Roboto, Oxygen, Ubuntu, Cantarell, 'Fira Sans', 'Droid Sans', 'Helvetica Neue', sans-serif" font-size="11.00">path</text>
</g>
<!-- Node5 -->
<g id="node5" class="node">
<title>Node5</title>
<g id="a_node5"><a xlink:href="structMirai_1_1Group.html" target="_top" xlink:title="群聊资料">
<polygon fill="none" stroke="black" points="12,-158 12,-178 88,-178 88,-158 12,-158"/>
<text text-anchor="middle" x="50" y="-165.2" font-family="-apple-system, BlinkMacSystemFont, 'Segoe UI', Roboto, Oxygen, Ubuntu, Cantarell, 'Fira Sans', 'Droid Sans', 'Helvetica Neue', sans-serif" font-size="11.00">Mirai::Group</text>
</a>
</g>
</g>
<!-- Node2&#45;&gt;Node5 -->
<g id="edge7" class="edge">
<title>Node2&#45;&gt;Node5</title>
<path fill="none" stroke="#9a32cd" stroke-dasharray="5,2" d="M96,-229.2C89.99,-225.4 83.97,-220.95 79,-216 67.72,-204.77 58.88,-188.34 54.05,-178.18"/>
<polygon fill="#9a32cd" stroke="#9a32cd" points="94.26,-232.24 104.65,-234.3 97.81,-226.21 94.26,-232.24"/>
<text text-anchor="middle" x="94.5" y="-207.2" font-family="-apple-system, BlinkMacSystemFont, 'Segoe UI', Roboto, Oxygen, Ubuntu, Cantarell, 'Fira Sans', 'Droid Sans', 'Helvetica Neue', sans-serif" font-size="11.00"> name</text>
</g>
<!-- Node3 -->
<g id="node3" class="node">
<title>Node3</title>
<g id="a_node3"><a xlink:title=" ">
<polygon fill="none" stroke="black" points="73.5,-292.5 73.5,-324.5 174.5,-324.5 174.5,-292.5 73.5,-292.5"/>
<text text-anchor="start" x="81.5" y="-311.7" font-family="-apple-system, BlinkMacSystemFont, 'Segoe UI', Roboto, Oxygen, Ubuntu, Cantarell, 'Fira Sans', 'Droid Sans', 'Helvetica Neue', sans-serif" font-size="11.00">std::basic_string&lt;</text>
<text text-anchor="middle" x="124" y="-299.7" font-family="-apple-system, BlinkMacSystemFont, 'Segoe UI', Roboto, Oxygen, Ubuntu, Cantarell, 'Fira Sans', 'Droid Sans', 'Helvetica Neue', sans-serif" font-size="11.00"> Char &gt;</text>
</a>
</g>
</g>
<!-- Node3&#45;&gt;Node2 -->
<g id="edge2" class="edge">
<title>Node3&#45;&gt;Node2</title>
<path fill="none" stroke="midnightblue" d="M124,-282.42C124,-272.67 124,-262.11 124,-254.79"/>
<polygon fill="midnightblue" stroke="midnightblue" points="120.5,-282.49 124,-292.49 127.5,-282.49 120.5,-282.49"/>
</g>
<!-- Node4&#45;&gt;Node1 -->
<g id="edge3" class="edge">
<title>Node4&#45;&gt;Node1</title>
<path fill="none" stroke="#9a32cd" stroke-dasharray="5,2" d="M87,-42.82C87,-56.12 87,-71.63 87,-81.25"/>
<polygon fill="#9a32cd" stroke="#9a32cd" points="90.5,-42.77 87,-32.77 83.5,-42.77 90.5,-42.77"/>
<text text-anchor="middle" x="104" y="-54.2" font-family="-apple-system, BlinkMacSystemFont, 'Segoe UI', Roboto, Oxygen, Ubuntu, Cantarell, 'Fira Sans', 'Droid Sans', 'Helvetica Neue', sans-serif" font-size="11.00"> parent</text>
</g>
<!-- Node5&#45;&gt;Node1 -->
<g id="edge5" class="edge">
<title>Node5&#45;&gt;Node1</title>
<path fill="none" stroke="#9a32cd" stroke-dasharray="5,2" d="M58.26,-148.67C62.28,-139.93 67.26,-129.36 72,-120 75.14,-113.79 78.89,-106.91 81.86,-101.59"/>
<polygon fill="#9a32cd" stroke="#9a32cd" points="55.01,-147.36 54.05,-157.91 61.38,-150.26 55.01,-147.36"/>
<text text-anchor="middle" x="91" y="-123.2" font-family="-apple-system, BlinkMacSystemFont, 'Segoe UI', Roboto, Oxygen, Ubuntu, Cantarell, 'Fira Sans', 'Droid Sans', 'Helvetica Neue', sans-serif" font-size="11.00"> contact</text>
</g>
<!-- Node6 -->
<g id="node6" class="node">
<title>Node6</title>
<g id="a_node6"><a xlink:href="classMirai_1_1GID__t.html" target="_top" xlink:title="群聊号码类型">
<polygon fill="none" stroke="red" points="0,-234.5 0,-254.5 74,-254.5 74,-234.5 0,-234.5"/>
<text text-anchor="middle" x="37" y="-241.7" font-family="-apple-system, BlinkMacSystemFont, 'Segoe UI', Roboto, Oxygen, Ubuntu, Cantarell, 'Fira Sans', 'Droid Sans', 'Helvetica Neue', sans-serif" font-size="11.00">Mirai::GID_t</text>
</a>
</g>
</g>
<!-- Node6&#45;&gt;Node5 -->
<g id="edge6" class="edge">
<title>Node6&#45;&gt;Node5</title>
<path fill="none" stroke="#9a32cd" stroke-dasharray="5,2" d="M38.39,-223.93C39,-217.55 39.85,-210.45 41,-204 42.58,-195.11 45.23,-185.14 47.25,-178.13"/>
<polygon fill="#9a32cd" stroke="#9a32cd" points="34.87,-224.09 37.53,-234.35 41.84,-224.67 34.87,-224.09"/>
<text text-anchor="middle" x="47" y="-207.2" font-family="-apple-system, BlinkMacSystemFont, 'Segoe UI', Roboto, Oxygen, Ubuntu, Cantarell, 'Fira Sans', 'Droid Sans', 'Helvetica Neue', sans-serif" font-size="11.00"> id</text>
</g>
</g>
</svg>
