<?xml version="1.0" encoding="UTF-8" standalone="no"?>
<!DOCTYPE svg PUBLIC "-//W3C//DTD SVG 1.1//EN"
 "http://www.w3.org/Graphics/SVG/1.1/DTD/svg11.dtd">
<!-- Generated by graphviz version 3.0.0 (20220413.0242)
 -->
<!-- Title: Mirai::SessionConfigs Pages: 1 -->
<svg width="202pt" height="192pt"
 viewBox="0.00 0.00 201.50 192.00" xmlns="http://www.w3.org/2000/svg" xmlns:xlink="http://www.w3.org/1999/xlink">
<g id="graph0" class="graph" transform="scale(1 1) rotate(0) translate(4 188)">
<title>Mirai::SessionConfigs</title>
<!-- Node1 -->
<g id="node1" class="node">
<title>Node1</title>
<g id="a_node1"><a xlink:title="连接mirai&#45;api&#45;http的配置">
<polygon fill="#bfbfbf" stroke="black" points="44.5,-0.5 44.5,-20.5 164.5,-20.5 164.5,-0.5 44.5,-0.5"/>
<text text-anchor="middle" x="104.5" y="-7.7" font-family="-apple-system, BlinkMacSystemFont, 'Segoe UI', Roboto, Oxygen, Ubuntu, Cantarell, 'Fira Sans', 'Droid Sans', 'Helvetica Neue', sans-serif" font-size="11.00">Mirai::SessionConfigs</text>
</a>
</g>
</g>
<!-- Node2 -->
<g id="node2" class="node">
<title>Node2</title>
<g id="a_node2"><a xlink:title=" ">
<polygon fill="none" stroke="black" points="26,-93.5 26,-113.5 89,-113.5 89,-93.5 26,-93.5"/>
<text text-anchor="middle" x="57.5" y="-100.7" font-family="-apple-system, BlinkMacSystemFont, 'Segoe UI', Roboto, Oxygen, Ubuntu, Cantarell, 'Fira Sans', 'Droid Sans', 'Helvetica Neue', sans-serif" font-size="11.00">std::string</text>
</a>
</g>
</g>
<!-- Node2&#45;&gt;Node1 -->
<g id="edge1" class="edge">
<title>Node2&#45;&gt;Node1</title>
<path fill="none" stroke="#9a32cd" stroke-dasharray="5,2" d="M54.77,-83.14C53.86,-69.82 54.66,-52.23 62.5,-39 67.21,-31.05 75.22,-24.97 82.99,-20.57"/>
<polygon fill="#9a32cd" stroke="#9a32cd" points="51.29,-83.54 55.82,-93.12 58.26,-82.81 51.29,-83.54"/>
<text text-anchor="middle" x="97" y="-66.2" font-family="-apple-system, BlinkMacSystemFont, 'Segoe UI', Roboto, Oxygen, Ubuntu, Cantarell, 'Fira Sans', 'Droid Sans', 'Helvetica Neue', sans-serif" font-size="11.00"> HttpUrl</text>
<text text-anchor="middle" x="97" y="-54.2" font-family="-apple-system, BlinkMacSystemFont, 'Segoe UI', Roboto, Oxygen, Ubuntu, Cantarell, 'Fira Sans', 'Droid Sans', 'Helvetica Neue', sans-serif" font-size="11.00">VerifyKey</text>
<text text-anchor="middle" x="97" y="-42.2" font-family="-apple-system, BlinkMacSystemFont, 'Segoe UI', Roboto, Oxygen, Ubuntu, Cantarell, 'Fira Sans', 'Droid Sans', 'Helvetica Neue', sans-serif" font-size="11.00">WebsocketUrl</text>
</g>
<!-- Node3 -->
<g id="node3" class="node">
<title>Node3</title>
<g id="a_node3"><a xlink:title=" ">
<polygon fill="none" stroke="black" points="0,-151.5 0,-183.5 101,-183.5 101,-151.5 0,-151.5"/>
<text text-anchor="start" x="8" y="-170.7" font-family="-apple-system, BlinkMacSystemFont, 'Segoe UI', Roboto, Oxygen, Ubuntu, Cantarell, 'Fira Sans', 'Droid Sans', 'Helvetica Neue', sans-serif" font-size="11.00">std::basic_string&lt;</text>
<text text-anchor="middle" x="50.5" y="-158.7" font-family="-apple-system, BlinkMacSystemFont, 'Segoe UI', Roboto, Oxygen, Ubuntu, Cantarell, 'Fira Sans', 'Droid Sans', 'Helvetica Neue', sans-serif" font-size="11.00"> Char &gt;</text>
</a>
</g>
</g>
<!-- Node3&#45;&gt;Node2 -->
<g id="edge2" class="edge">
<title>Node3&#45;&gt;Node2</title>
<path fill="none" stroke="midnightblue" d="M53.33,-141.42C54.43,-131.67 55.62,-121.11 56.45,-113.79"/>
<polygon fill="midnightblue" stroke="midnightblue" points="49.84,-141.16 52.19,-151.49 56.79,-141.95 49.84,-141.16"/>
</g>
<!-- Node4 -->
<g id="node4" class="node">
<title>Node4</title>
<g id="a_node4"><a xlink:href="classMirai_1_1QQ__t.html" target="_top" xlink:title="QQ号码类型">
<polygon fill="none" stroke="black" points="119,-93.5 119,-113.5 190,-113.5 190,-93.5 119,-93.5"/>
<text text-anchor="middle" x="154.5" y="-100.7" font-family="-apple-system, BlinkMacSystemFont, 'Segoe UI', Roboto, Oxygen, Ubuntu, Cantarell, 'Fira Sans', 'Droid Sans', 'Helvetica Neue', sans-serif" font-size="11.00">Mirai::QQ_t</text>
</a>
</g>
</g>
<!-- Node4&#45;&gt;Node1 -->
<g id="edge3" class="edge">
<title>Node4&#45;&gt;Node1</title>
<path fill="none" stroke="#9a32cd" stroke-dasharray="5,2" d="M149.92,-83.49C146.22,-70.34 140.19,-52.8 131.5,-39 127.15,-32.09 120.82,-25.52 115.37,-20.54"/>
<polygon fill="#9a32cd" stroke="#9a32cd" points="146.58,-84.53 152.49,-93.33 153.35,-82.77 146.58,-84.53"/>
<text text-anchor="middle" x="166" y="-54.2" font-family="-apple-system, BlinkMacSystemFont, 'Segoe UI', Roboto, Oxygen, Ubuntu, Cantarell, 'Fira Sans', 'Droid Sans', 'Helvetica Neue', sans-serif" font-size="11.00"> BotQQ</text>
</g>
<!-- Node5 -->
<g id="node5" class="node">
<title>Node5</title>
<g id="a_node5"><a xlink:href="classMirai_1_1UID__t.html" target="_top" xlink:title="Base class for QQ_t and GID_t">
<polygon fill="none" stroke="black" points="119.5,-157.5 119.5,-177.5 193.5,-177.5 193.5,-157.5 119.5,-157.5"/>
<text text-anchor="middle" x="156.5" y="-164.7" font-family="-apple-system, BlinkMacSystemFont, 'Segoe UI', Roboto, Oxygen, Ubuntu, Cantarell, 'Fira Sans', 'Droid Sans', 'Helvetica Neue', sans-serif" font-size="11.00">Mirai::UID_t</text>
</a>
</g>
</g>
<!-- Node5&#45;&gt;Node4 -->
<g id="edge4" class="edge">
<title>Node5&#45;&gt;Node4</title>
<path fill="none" stroke="midnightblue" d="M155.88,-147.23C155.52,-136.06 155.08,-122.49 154.8,-113.69"/>
<polygon fill="midnightblue" stroke="midnightblue" points="152.38,-147.47 156.2,-157.35 159.38,-147.24 152.38,-147.47"/>
</g>
</g>
</svg>
