<?xml version="1.0" encoding="UTF-8" standalone="no"?>
<!DOCTYPE svg PUBLIC "-//W3C//DTD SVG 1.1//EN"
 "http://www.w3.org/Graphics/SVG/1.1/DTD/svg11.dtd">
<!-- Generated by graphviz version 3.0.0 (20221109.1736)
 -->
<!-- Title: Mirai::ClientParseErrorEvent Pages: 1 -->
<svg width="336pt" height="191pt"
 viewBox="0.00 0.00 335.50 191.00" xmlns="http://www.w3.org/2000/svg" xmlns:xlink="http://www.w3.org/1999/xlink">
<g id="graph0" class="graph" transform="scale(1 1) rotate(0) translate(4 187)">
<title>Mirai::ClientParseErrorEvent</title>
<!-- Node1 -->
<g id="node1" class="node">
<title>Node1</title>
<g id="a_node1"><a xlink:title="消息解析错误事件">
<polygon fill="#bfbfbf" stroke="black" points="132.5,-0.5 132.5,-20.5 284.5,-20.5 284.5,-0.5 132.5,-0.5"/>
<text text-anchor="middle" x="208.5" y="-7.7" font-family="-apple-system, BlinkMacSystemFont, 'Segoe UI', Roboto, Oxygen, Ubuntu, Cantarell, 'Fira Sans', 'Droid Sans', 'Helvetica Neue', sans-serif" font-size="11.00">Mirai::ClientParseErrorEvent</text>
</a>
</g>
</g>
<!-- Node2 -->
<g id="node2" class="node">
<title>Node2</title>
<g id="a_node2"><a xlink:href="classMirai_1_1IEvent.html" target="_top" xlink:title=" ">
<polygon fill="none" stroke="black" points="0,-69.5 0,-101.5 141,-101.5 141,-69.5 0,-69.5"/>
<text text-anchor="start" x="8" y="-88.7" font-family="-apple-system, BlinkMacSystemFont, 'Segoe UI', Roboto, Oxygen, Ubuntu, Cantarell, 'Fira Sans', 'Droid Sans', 'Helvetica Neue', sans-serif" font-size="11.00">Mirai::IEvent&lt; ClientParse</text>
<text text-anchor="middle" x="70.5" y="-76.7" font-family="-apple-system, BlinkMacSystemFont, 'Segoe UI', Roboto, Oxygen, Ubuntu, Cantarell, 'Fira Sans', 'Droid Sans', 'Helvetica Neue', sans-serif" font-size="11.00">ErrorEvent &gt;</text>
</a>
</g>
</g>
<!-- Node2&#45;&gt;Node1 -->
<g id="edge1" class="edge">
<title>Node2&#45;&gt;Node1</title>
<path fill="none" stroke="midnightblue" d="M107.95,-64.69C135.08,-50.34 170.52,-31.59 191.27,-20.62"/>
<polygon fill="midnightblue" stroke="midnightblue" points="106.3,-61.6 99.09,-69.37 109.57,-67.79 106.3,-61.6"/>
</g>
<!-- Node3 -->
<g id="node3" class="node">
<title>Node3</title>
<g id="a_node3"><a xlink:href="classMirai_1_1ParseError.html" target="_top" xlink:title="消息解析错误">
<polygon fill="none" stroke="black" points="159.5,-75.5 159.5,-95.5 257.5,-95.5 257.5,-75.5 159.5,-75.5"/>
<text text-anchor="middle" x="208.5" y="-82.7" font-family="-apple-system, BlinkMacSystemFont, 'Segoe UI', Roboto, Oxygen, Ubuntu, Cantarell, 'Fira Sans', 'Droid Sans', 'Helvetica Neue', sans-serif" font-size="11.00">Mirai::ParseError</text>
</a>
</g>
</g>
<!-- Node3&#45;&gt;Node1 -->
<g id="edge2" class="edge">
<title>Node3&#45;&gt;Node1</title>
<path fill="none" stroke="#9a32cd" stroke-dasharray="5,2" d="M208.5,-65C208.5,-50.73 208.5,-31.99 208.5,-20.9"/>
<polygon fill="#9a32cd" stroke="#9a32cd" points="205,-65.25 208.5,-75.25 212,-65.25 205,-65.25"/>
<text text-anchor="middle" x="222" y="-42.2" font-family="-apple-system, BlinkMacSystemFont, 'Segoe UI', Roboto, Oxygen, Ubuntu, Cantarell, 'Fira Sans', 'Droid Sans', 'Helvetica Neue', sans-serif" font-size="11.00"> error</text>
</g>
<!-- Node4 -->
<g id="node4" class="node">
<title>Node4</title>
<g id="a_node4"><a xlink:title=" ">
<polygon fill="none" stroke="red" points="141.5,-162.5 141.5,-182.5 243.5,-182.5 243.5,-162.5 141.5,-162.5"/>
<text text-anchor="middle" x="192.5" y="-169.7" font-family="-apple-system, BlinkMacSystemFont, 'Segoe UI', Roboto, Oxygen, Ubuntu, Cantarell, 'Fira Sans', 'Droid Sans', 'Helvetica Neue', sans-serif" font-size="11.00">std::runtime_error</text>
</a>
</g>
</g>
<!-- Node4&#45;&gt;Node3 -->
<g id="edge3" class="edge">
<title>Node4&#45;&gt;Node3</title>
<path fill="none" stroke="midnightblue" d="M196.06,-152.57C199.41,-134.82 204.26,-109.04 206.8,-95.53"/>
<polygon fill="midnightblue" stroke="midnightblue" points="192.62,-151.93 194.21,-162.4 199.5,-153.22 192.62,-151.93"/>
</g>
<!-- Node6 -->
<g id="node5" class="node">
<title>Node6</title>
<g id="a_node5"><a xlink:title=" ">
<polygon fill="none" stroke="red" points="262,-162.5 262,-182.5 325,-182.5 325,-162.5 262,-162.5"/>
<text text-anchor="middle" x="293.5" y="-169.7" font-family="-apple-system, BlinkMacSystemFont, 'Segoe UI', Roboto, Oxygen, Ubuntu, Cantarell, 'Fira Sans', 'Droid Sans', 'Helvetica Neue', sans-serif" font-size="11.00">std::string</text>
</a>
</g>
</g>
<!-- Node6&#45;&gt;Node1 -->
<g id="edge5" class="edge">
<title>Node6&#45;&gt;Node1</title>
<path fill="none" stroke="#9a32cd" stroke-dasharray="5,2" d="M291.23,-152.42C288.07,-131.06 281.03,-95.9 266.5,-69 255.45,-48.54 234.75,-30.7 221.31,-20.51"/>
<polygon fill="#9a32cd" stroke="#9a32cd" points="287.78,-153.03 292.57,-162.48 294.71,-152.1 287.78,-153.03"/>
<text text-anchor="middle" x="304" y="-82.7" font-family="-apple-system, BlinkMacSystemFont, 'Segoe UI', Roboto, Oxygen, Ubuntu, Cantarell, 'Fira Sans', 'Droid Sans', 'Helvetica Neue', sans-serif" font-size="11.00"> message</text>
</g>
<!-- Node6&#45;&gt;Node3 -->
<g id="edge4" class="edge">
<title>Node6&#45;&gt;Node3</title>
<path fill="none" stroke="#9a32cd" stroke-dasharray="5,2" d="M255.59,-158.18C248.31,-154.4 241.2,-149.72 235.5,-144 221.8,-130.25 214.18,-108.23 210.75,-95.81"/>
<polygon fill="#9a32cd" stroke="#9a32cd" points="254.25,-161.42 264.79,-162.49 257.22,-155.08 254.25,-161.42"/>
<text text-anchor="middle" x="257.5" y="-135.2" font-family="-apple-system, BlinkMacSystemFont, 'Segoe UI', Roboto, Oxygen, Ubuntu, Cantarell, 'Fira Sans', 'Droid Sans', 'Helvetica Neue', sans-serif" font-size="11.00"> error</text>
<text text-anchor="middle" x="257.5" y="-123.2" font-family="-apple-system, BlinkMacSystemFont, 'Segoe UI', Roboto, Oxygen, Ubuntu, Cantarell, 'Fira Sans', 'Droid Sans', 'Helvetica Neue', sans-serif" font-size="11.00">message</text>
</g>
</g>
</svg>
