<?xml version="1.0" encoding="UTF-8" standalone="no"?>
<!DOCTYPE svg PUBLIC "-//W3C//DTD SVG 1.1//EN"
 "http://www.w3.org/Graphics/SVG/1.1/DTD/svg11.dtd">
<!-- Generated by graphviz version 2.43.0 (0)
 -->
<!-- Title: Mirai::GroupMember Pages: 1 -->
<svg width="391pt" height="249pt"
 viewBox="0.00 0.00 390.50 249.00" xmlns="http://www.w3.org/2000/svg" xmlns:xlink="http://www.w3.org/1999/xlink">
<g id="graph0" class="graph" transform="scale(1 1) rotate(0) translate(4 245)">
<title>Mirai::GroupMember</title>
<!-- Node1 -->
<g id="node1" class="node">
<title>Node1</title>
<g id="a_node1"><a xlink:title="群员资料">
<polygon fill="#bfbfbf" stroke="black" points="138.5,-0.5 138.5,-20.5 267.5,-20.5 267.5,-0.5 138.5,-0.5"/>
<text text-anchor="middle" x="203" y="-7.7" font-family="-apple-system,BlinkMacSystemFont,'SegoeUI',Roboto,Oxygen,Ubuntu,Cantarell,'FiraSans','DroidSans','HelveticaNeue',sans-serif" font-size="11.00">Mirai::GroupMember</text>
</a>
</g>
</g>
<!-- Node2 -->
<g id="node2" class="node">
<title>Node2</title>
<g id="a_node2"><a xlink:href="classMirai_1_1Serializable.html" target="_top" xlink:title="Base class for all json serializable type">
<polygon fill="none" stroke="black" points="113,-150.5 113,-170.5 227,-170.5 227,-150.5 113,-150.5"/>
<text text-anchor="middle" x="170" y="-157.7" font-family="-apple-system,BlinkMacSystemFont,'SegoeUI',Roboto,Oxygen,Ubuntu,Cantarell,'FiraSans','DroidSans','HelveticaNeue',sans-serif" font-size="11.00">Mirai::Serializable</text>
</a>
</g>
</g>
<!-- Node2&#45;&gt;Node1 -->
<g id="edge1" class="edge">
<title>Node2&#45;&gt;Node1</title>
<path fill="none" stroke="midnightblue" d="M173.09,-140.45C176.19,-122.07 181.3,-93.5 187,-69 190.99,-51.84 196.74,-32.12 200.15,-20.8"/>
<polygon fill="midnightblue" stroke="midnightblue" points="169.61,-140.02 171.44,-150.46 176.52,-141.16 169.61,-140.02"/>
</g>
<!-- Node7 -->
<g id="node7" class="node">
<title>Node7</title>
<g id="a_node7"><a xlink:href="structMirai_1_1Group.html" target="_top" xlink:title="群聊资料">
<polygon fill="none" stroke="black" points="196,-71 196,-91 280,-91 280,-71 196,-71"/>
<text text-anchor="middle" x="238" y="-78.2" font-family="-apple-system,BlinkMacSystemFont,'SegoeUI',Roboto,Oxygen,Ubuntu,Cantarell,'FiraSans','DroidSans','HelveticaNeue',sans-serif" font-size="11.00">Mirai::Group</text>
</a>
</g>
</g>
<!-- Node2&#45;&gt;Node7 -->
<g id="edge7" class="edge">
<title>Node2&#45;&gt;Node7</title>
<path fill="none" stroke="midnightblue" d="M185.03,-142.37C198.88,-126.59 218.91,-103.76 229.94,-91.18"/>
<polygon fill="midnightblue" stroke="midnightblue" points="182.03,-140.48 178.07,-150.31 187.29,-145.1 182.03,-140.48"/>
</g>
<!-- Node3 -->
<g id="node3" class="node">
<title>Node3</title>
<g id="a_node3"><a xlink:title="STL class">
<polygon fill="none" stroke="#bfbfbf" points="21.5,-150.5 21.5,-170.5 94.5,-170.5 94.5,-150.5 21.5,-150.5"/>
<text text-anchor="middle" x="58" y="-157.7" font-family="-apple-system,BlinkMacSystemFont,'SegoeUI',Roboto,Oxygen,Ubuntu,Cantarell,'FiraSans','DroidSans','HelveticaNeue',sans-serif" font-size="11.00">std::string</text>
</a>
</g>
</g>
<!-- Node3&#45;&gt;Node1 -->
<g id="edge2" class="edge">
<title>Node3&#45;&gt;Node1</title>
<path fill="none" stroke="#9a32cd" stroke-dasharray="5,2" d="M62.92,-140.79C68.92,-120.99 80.71,-89.78 100,-69 121.45,-45.88 154.37,-29.77 177.19,-20.6"/>
<polygon fill="#9a32cd" stroke="#9a32cd" points="59.53,-139.91 60.18,-150.48 66.27,-141.81 59.53,-139.91"/>
<text text-anchor="middle" x="139" y="-84.2" font-family="-apple-system,BlinkMacSystemFont,'SegoeUI',Roboto,Oxygen,Ubuntu,Cantarell,'FiraSans','DroidSans','HelveticaNeue',sans-serif" font-size="11.00"> SpecialTitle</text>
<text text-anchor="middle" x="139" y="-72.2" font-family="-apple-system,BlinkMacSystemFont,'SegoeUI',Roboto,Oxygen,Ubuntu,Cantarell,'FiraSans','DroidSans','HelveticaNeue',sans-serif" font-size="11.00">MemberName</text>
</g>
<!-- Node3&#45;&gt;Node7 -->
<g id="edge8" class="edge">
<title>Node3&#45;&gt;Node7</title>
<path fill="none" stroke="#9a32cd" stroke-dasharray="5,2" d="M83.89,-145.83C103.65,-135.64 131.7,-121.69 157,-111 174.47,-103.62 194.55,-96.42 210.34,-91.05"/>
<polygon fill="#9a32cd" stroke="#9a32cd" points="82.16,-142.78 74.9,-150.5 85.39,-148.99 82.16,-142.78"/>
<text text-anchor="middle" x="174.5" y="-118.7" font-family="-apple-system,BlinkMacSystemFont,'SegoeUI',Roboto,Oxygen,Ubuntu,Cantarell,'FiraSans','DroidSans','HelveticaNeue',sans-serif" font-size="11.00"> name</text>
</g>
<!-- Node4 -->
<g id="node4" class="node">
<title>Node4</title>
<g id="a_node4"><a xlink:title="STL class">
<polygon fill="none" stroke="#bfbfbf" points="0,-208.5 0,-240.5 116,-240.5 116,-208.5 0,-208.5"/>
<text text-anchor="start" x="8" y="-227.7" font-family="-apple-system,BlinkMacSystemFont,'SegoeUI',Roboto,Oxygen,Ubuntu,Cantarell,'FiraSans','DroidSans','HelveticaNeue',sans-serif" font-size="11.00">std::basic_string&lt;</text>
<text text-anchor="middle" x="58" y="-215.7" font-family="-apple-system,BlinkMacSystemFont,'SegoeUI',Roboto,Oxygen,Ubuntu,Cantarell,'FiraSans','DroidSans','HelveticaNeue',sans-serif" font-size="11.00"> char &gt;</text>
</a>
</g>
</g>
<!-- Node4&#45;&gt;Node3 -->
<g id="edge3" class="edge">
<title>Node4&#45;&gt;Node3</title>
<path fill="none" stroke="midnightblue" d="M58,-198.42C58,-188.67 58,-178.11 58,-170.79"/>
<polygon fill="midnightblue" stroke="midnightblue" points="54.5,-198.49 58,-208.49 61.5,-198.49 54.5,-198.49"/>
</g>
<!-- Node5 -->
<g id="node5" class="node">
<title>Node5</title>
<g id="a_node5"><a xlink:href="classMirai_1_1QQ__t.html" target="_top" xlink:title="QQ号码类型">
<polygon fill="none" stroke="black" points="303.5,-111.5 303.5,-131.5 382.5,-131.5 382.5,-111.5 303.5,-111.5"/>
<text text-anchor="middle" x="343" y="-118.7" font-family="-apple-system,BlinkMacSystemFont,'SegoeUI',Roboto,Oxygen,Ubuntu,Cantarell,'FiraSans','DroidSans','HelveticaNeue',sans-serif" font-size="11.00">Mirai::QQ_t</text>
</a>
</g>
</g>
<!-- Node5&#45;&gt;Node1 -->
<g id="edge4" class="edge">
<title>Node5&#45;&gt;Node1</title>
<path fill="none" stroke="#9a32cd" stroke-dasharray="5,2" d="M329.55,-103.49C314.74,-85.63 289.49,-57.6 263,-39 252.31,-31.49 239.24,-25.22 228.03,-20.57"/>
<polygon fill="#9a32cd" stroke="#9a32cd" points="326.91,-105.81 335.94,-111.36 332.35,-101.39 326.91,-105.81"/>
<text text-anchor="middle" x="326" y="-78.2" font-family="-apple-system,BlinkMacSystemFont,'SegoeUI',Roboto,Oxygen,Ubuntu,Cantarell,'FiraSans','DroidSans','HelveticaNeue',sans-serif" font-size="11.00"> id</text>
</g>
<!-- Node6 -->
<g id="node6" class="node">
<title>Node6</title>
<g id="a_node6"><a xlink:href="classMirai_1_1UID__t.html" target="_top" xlink:title="Base class for QQ_t and GID_t">
<polygon fill="none" stroke="black" points="290,-214.5 290,-234.5 370,-234.5 370,-214.5 290,-214.5"/>
<text text-anchor="middle" x="330" y="-221.7" font-family="-apple-system,BlinkMacSystemFont,'SegoeUI',Roboto,Oxygen,Ubuntu,Cantarell,'FiraSans','DroidSans','HelveticaNeue',sans-serif" font-size="11.00">Mirai::UID_t</text>
</a>
</g>
</g>
<!-- Node6&#45;&gt;Node5 -->
<g id="edge5" class="edge">
<title>Node6&#45;&gt;Node5</title>
<path fill="none" stroke="midnightblue" d="M332.5,-204.08C335.31,-182.25 339.75,-147.74 341.84,-131.51"/>
<polygon fill="midnightblue" stroke="midnightblue" points="329.01,-203.81 331.2,-214.18 335.95,-204.71 329.01,-203.81"/>
</g>
<!-- Node8 -->
<g id="node8" class="node">
<title>Node8</title>
<g id="a_node8"><a xlink:href="classMirai_1_1GID__t.html" target="_top" xlink:title="群聊号码类型">
<polygon fill="none" stroke="black" points="245,-150.5 245,-170.5 325,-170.5 325,-150.5 245,-150.5"/>
<text text-anchor="middle" x="285" y="-157.7" font-family="-apple-system,BlinkMacSystemFont,'SegoeUI',Roboto,Oxygen,Ubuntu,Cantarell,'FiraSans','DroidSans','HelveticaNeue',sans-serif" font-size="11.00">Mirai::GID_t</text>
</a>
</g>
</g>
<!-- Node6&#45;&gt;Node8 -->
<g id="edge10" class="edge">
<title>Node6&#45;&gt;Node8</title>
<path fill="none" stroke="midnightblue" d="M317.27,-205.96C308.94,-194.48 298.39,-179.95 291.67,-170.69"/>
<polygon fill="midnightblue" stroke="midnightblue" points="314.65,-208.31 323.36,-214.35 320.32,-204.2 314.65,-208.31"/>
</g>
<!-- Node7&#45;&gt;Node1 -->
<g id="edge6" class="edge">
<title>Node7&#45;&gt;Node1</title>
<path fill="none" stroke="#9a32cd" stroke-dasharray="5,2" d="M228.6,-61.59C221.82,-48.33 212.97,-31 207.65,-20.59"/>
<polygon fill="#9a32cd" stroke="#9a32cd" points="225.61,-63.45 233.28,-70.76 231.85,-60.26 225.61,-63.45"/>
<text text-anchor="middle" x="241" y="-42.2" font-family="-apple-system,BlinkMacSystemFont,'SegoeUI',Roboto,Oxygen,Ubuntu,Cantarell,'FiraSans','DroidSans','HelveticaNeue',sans-serif" font-size="11.00"> group</text>
</g>
<!-- Node8&#45;&gt;Node7 -->
<g id="edge9" class="edge">
<title>Node8&#45;&gt;Node7</title>
<path fill="none" stroke="#9a32cd" stroke-dasharray="5,2" d="M274.08,-141.49C264.53,-125.74 251.06,-103.53 243.57,-91.18"/>
<polygon fill="#9a32cd" stroke="#9a32cd" points="271.25,-143.57 279.42,-150.31 277.23,-139.94 271.25,-143.57"/>
<text text-anchor="middle" x="275" y="-118.7" font-family="-apple-system,BlinkMacSystemFont,'SegoeUI',Roboto,Oxygen,Ubuntu,Cantarell,'FiraSans','DroidSans','HelveticaNeue',sans-serif" font-size="11.00"> id</text>
</g>
</g>
</svg>
