<?xml version="1.0" encoding="UTF-8" standalone="no"?>
<!DOCTYPE svg PUBLIC "-//W3C//DTD SVG 1.1//EN"
 "http://www.w3.org/Graphics/SVG/1.1/DTD/svg11.dtd">
<!-- Generated by graphviz version 2.43.0 (0)
 -->
<!-- Title: libmirai/public/libmirai/Types/Types.hpp Pages: 1 -->
<svg width="618pt" height="269pt"
 viewBox="0.00 0.00 617.65 269.00" xmlns="http://www.w3.org/2000/svg" xmlns:xlink="http://www.w3.org/1999/xlink">
<g id="graph0" class="graph" transform="scale(1 1) rotate(0) translate(4 265)">
<title>libmirai/public/libmirai/Types/Types.hpp</title>
<!-- Node1 -->
<g id="node1" class="node">
<title>Node1</title>
<g id="a_node1"><a xlink:title=" ">
<polygon fill="#bfbfbf" stroke="black" points="201.15,-228.5 201.15,-260.5 338.15,-260.5 338.15,-228.5 201.15,-228.5"/>
<text text-anchor="start" x="209.15" y="-247.7" font-family="-apple-system,BlinkMacSystemFont,'SegoeUI',Roboto,Oxygen,Ubuntu,Cantarell,'FiraSans','DroidSans','HelveticaNeue',sans-serif" font-size="11.00">libmirai/public/libmirai</text>
<text text-anchor="middle" x="269.65" y="-235.7" font-family="-apple-system,BlinkMacSystemFont,'SegoeUI',Roboto,Oxygen,Ubuntu,Cantarell,'FiraSans','DroidSans','HelveticaNeue',sans-serif" font-size="11.00">/Types/Types.hpp</text>
</a>
</g>
</g>
<!-- Node2 -->
<g id="node2" class="node">
<title>Node2</title>
<g id="a_node2"><a xlink:href="BasicTypes_8hpp.html" target="_top" xlink:title=" ">
<polygon fill="none" stroke="black" points="292.15,-114.5 292.15,-134.5 393.15,-134.5 393.15,-114.5 292.15,-114.5"/>
<text text-anchor="middle" x="342.65" y="-121.7" font-family="-apple-system,BlinkMacSystemFont,'SegoeUI',Roboto,Oxygen,Ubuntu,Cantarell,'FiraSans','DroidSans','HelveticaNeue',sans-serif" font-size="11.00">BasicTypes.hpp</text>
</a>
</g>
</g>
<!-- Node1&#45;&gt;Node2 -->
<g id="edge1" class="edge">
<title>Node1&#45;&gt;Node2</title>
<path fill="none" stroke="midnightblue" d="M270.93,-228.27C272.83,-212.82 277.46,-188.71 288.65,-171 296.29,-158.9 308.2,-148.37 318.89,-140.49"/>
<polygon fill="midnightblue" stroke="midnightblue" points="320.9,-143.36 327.1,-134.77 316.89,-137.62 320.9,-143.36"/>
</g>
<!-- Node7 -->
<g id="node7" class="node">
<title>Node7</title>
<g id="a_node7"><a xlink:href="Serializable_8hpp.html" target="_top" xlink:title=" ">
<polygon fill="none" stroke="black" points="19.15,-57.5 19.15,-77.5 202.15,-77.5 202.15,-57.5 19.15,-57.5"/>
<text text-anchor="middle" x="110.65" y="-64.7" font-family="-apple-system,BlinkMacSystemFont,'SegoeUI',Roboto,Oxygen,Ubuntu,Cantarell,'FiraSans','DroidSans','HelveticaNeue',sans-serif" font-size="11.00">libmirai/Types/Serializable.hpp</text>
</a>
</g>
</g>
<!-- Node1&#45;&gt;Node7 -->
<g id="edge25" class="edge">
<title>Node1&#45;&gt;Node7</title>
<path fill="none" stroke="midnightblue" d="M201.11,-233.57C145.09,-221.26 70.19,-194.13 38.65,-135 26.7,-112.6 53.13,-93.72 77.27,-81.87"/>
<polygon fill="midnightblue" stroke="midnightblue" points="79.05,-84.9 86.66,-77.53 76.12,-78.55 79.05,-84.9"/>
</g>
<!-- Node8 -->
<g id="node8" class="node">
<title>Node8</title>
<g id="a_node8"><a xlink:href="GroupSettings_8hpp.html" target="_top" xlink:title=" ">
<polygon fill="none" stroke="black" points="298.15,-171.5 298.15,-191.5 417.15,-191.5 417.15,-171.5 298.15,-171.5"/>
<text text-anchor="middle" x="357.65" y="-178.7" font-family="-apple-system,BlinkMacSystemFont,'SegoeUI',Roboto,Oxygen,Ubuntu,Cantarell,'FiraSans','DroidSans','HelveticaNeue',sans-serif" font-size="11.00">GroupSettings.hpp</text>
</a>
</g>
</g>
<!-- Node1&#45;&gt;Node8 -->
<g id="edge8" class="edge">
<title>Node1&#45;&gt;Node8</title>
<path fill="none" stroke="midnightblue" d="M291.4,-228.42C305.09,-218.93 322.69,-206.73 336.31,-197.29"/>
<polygon fill="midnightblue" stroke="midnightblue" points="338.37,-200.12 344.6,-191.55 334.38,-194.37 338.37,-200.12"/>
</g>
<!-- Node9 -->
<g id="node9" class="node">
<title>Node9</title>
<g id="a_node9"><a xlink:href="MediaTypes_8hpp.html" target="_top" xlink:title=" ">
<polygon fill="none" stroke="black" points="133.15,-171.5 133.15,-191.5 238.15,-191.5 238.15,-171.5 133.15,-171.5"/>
<text text-anchor="middle" x="185.65" y="-178.7" font-family="-apple-system,BlinkMacSystemFont,'SegoeUI',Roboto,Oxygen,Ubuntu,Cantarell,'FiraSans','DroidSans','HelveticaNeue',sans-serif" font-size="11.00">MediaTypes.hpp</text>
</a>
</g>
</g>
<!-- Node1&#45;&gt;Node9 -->
<g id="edge13" class="edge">
<title>Node1&#45;&gt;Node9</title>
<path fill="none" stroke="midnightblue" d="M248.88,-228.42C235.94,-219.02 219.33,-206.96 206.39,-197.56"/>
<polygon fill="midnightblue" stroke="midnightblue" points="208.25,-194.59 198.1,-191.55 204.14,-200.25 208.25,-194.59"/>
</g>
<!-- Node12 -->
<g id="node12" class="node">
<title>Node12</title>
<g id="a_node12"><a xlink:href="NudgeTarget_8hpp.html" target="_top" xlink:title=" ">
<polygon fill="none" stroke="black" points="465.65,-171.5 465.65,-191.5 575.65,-191.5 575.65,-171.5 465.65,-171.5"/>
<text text-anchor="middle" x="520.65" y="-178.7" font-family="-apple-system,BlinkMacSystemFont,'SegoeUI',Roboto,Oxygen,Ubuntu,Cantarell,'FiraSans','DroidSans','HelveticaNeue',sans-serif" font-size="11.00">NudgeTarget.hpp</text>
</a>
</g>
</g>
<!-- Node1&#45;&gt;Node12 -->
<g id="edge21" class="edge">
<title>Node1&#45;&gt;Node12</title>
<path fill="none" stroke="midnightblue" d="M331.37,-228.5C375.26,-217.83 433.33,-203.72 473.51,-193.95"/>
<polygon fill="midnightblue" stroke="midnightblue" points="474.44,-197.33 483.33,-191.57 472.78,-190.53 474.44,-197.33"/>
</g>
<!-- Node3 -->
<g id="node3" class="node">
<title>Node3</title>
<g id="a_node3"><a xlink:title=" ">
<polygon fill="none" stroke="#bfbfbf" points="295.65,-57.5 295.65,-77.5 349.65,-77.5 349.65,-57.5 295.65,-57.5"/>
<text text-anchor="middle" x="322.65" y="-64.7" font-family="-apple-system,BlinkMacSystemFont,'SegoeUI',Roboto,Oxygen,Ubuntu,Cantarell,'FiraSans','DroidSans','HelveticaNeue',sans-serif" font-size="11.00">chrono</text>
</a>
</g>
</g>
<!-- Node2&#45;&gt;Node3 -->
<g id="edge2" class="edge">
<title>Node2&#45;&gt;Node3</title>
<path fill="none" stroke="midnightblue" d="M339.34,-114.42C336.67,-107.06 332.81,-96.44 329.47,-87.27"/>
<polygon fill="midnightblue" stroke="midnightblue" points="332.73,-85.98 326.02,-77.78 326.15,-88.37 332.73,-85.98"/>
</g>
<!-- Node4 -->
<g id="node4" class="node">
<title>Node4</title>
<g id="a_node4"><a xlink:title=" ">
<polygon fill="none" stroke="#bfbfbf" points="230.15,-57.5 230.15,-77.5 277.15,-77.5 277.15,-57.5 230.15,-57.5"/>
<text text-anchor="middle" x="253.65" y="-64.7" font-family="-apple-system,BlinkMacSystemFont,'SegoeUI',Roboto,Oxygen,Ubuntu,Cantarell,'FiraSans','DroidSans','HelveticaNeue',sans-serif" font-size="11.00">ctime</text>
</a>
</g>
</g>
<!-- Node2&#45;&gt;Node4 -->
<g id="edge3" class="edge">
<title>Node2&#45;&gt;Node4</title>
<path fill="none" stroke="midnightblue" d="M327.95,-114.42C314.17,-105.9 293.32,-93.02 277.21,-83.06"/>
<polygon fill="midnightblue" stroke="midnightblue" points="278.71,-79.88 268.37,-77.6 275.03,-85.83 278.71,-79.88"/>
</g>
<!-- Node5 -->
<g id="node5" class="node">
<title>Node5</title>
<g id="a_node5"><a xlink:title=" ">
<polygon fill="none" stroke="#bfbfbf" points="406.65,-57.5 406.65,-77.5 454.65,-77.5 454.65,-57.5 406.65,-57.5"/>
<text text-anchor="middle" x="430.65" y="-64.7" font-family="-apple-system,BlinkMacSystemFont,'SegoeUI',Roboto,Oxygen,Ubuntu,Cantarell,'FiraSans','DroidSans','HelveticaNeue',sans-serif" font-size="11.00">string</text>
</a>
</g>
</g>
<!-- Node2&#45;&gt;Node5 -->
<g id="edge4" class="edge">
<title>Node2&#45;&gt;Node5</title>
<path fill="none" stroke="midnightblue" d="M357.18,-114.42C370.81,-105.9 391.42,-93.02 407.35,-83.06"/>
<polygon fill="midnightblue" stroke="midnightblue" points="409.47,-85.86 416.09,-77.6 405.76,-79.93 409.47,-85.86"/>
</g>
<!-- Node6 -->
<g id="node6" class="node">
<title>Node6</title>
<g id="a_node6"><a xlink:title=" ">
<polygon fill="none" stroke="#bfbfbf" points="166.65,-0.5 166.65,-20.5 312.65,-20.5 312.65,-0.5 166.65,-0.5"/>
<text text-anchor="middle" x="239.65" y="-7.7" font-family="-apple-system,BlinkMacSystemFont,'SegoeUI',Roboto,Oxygen,Ubuntu,Cantarell,'FiraSans','DroidSans','HelveticaNeue',sans-serif" font-size="11.00">nlohmann/json_fwd.hpp</text>
</a>
</g>
</g>
<!-- Node2&#45;&gt;Node6 -->
<g id="edge5" class="edge">
<title>Node2&#45;&gt;Node6</title>
<path fill="none" stroke="midnightblue" d="M349.24,-114.05C357.93,-100.33 370.76,-74.61 358.65,-57 347.54,-40.86 329.88,-30.45 311.52,-23.72"/>
<polygon fill="midnightblue" stroke="midnightblue" points="312.49,-20.35 301.89,-20.53 310.28,-27 312.49,-20.35"/>
</g>
<!-- Node2&#45;&gt;Node7 -->
<g id="edge6" class="edge">
<title>Node2&#45;&gt;Node7</title>
<path fill="none" stroke="midnightblue" d="M304.6,-114.48C264.64,-105.01 201.73,-90.09 158.45,-79.83"/>
<polygon fill="midnightblue" stroke="midnightblue" points="159.26,-76.43 148.72,-77.53 157.64,-83.24 159.26,-76.43"/>
</g>
<!-- Node7&#45;&gt;Node6 -->
<g id="edge7" class="edge">
<title>Node7&#45;&gt;Node6</title>
<path fill="none" stroke="midnightblue" d="M131.95,-57.42C152.96,-48.46 185.28,-34.68 209.03,-24.55"/>
<polygon fill="midnightblue" stroke="midnightblue" points="210.49,-27.74 218.31,-20.6 207.74,-21.3 210.49,-27.74"/>
</g>
<!-- Node8&#45;&gt;Node2 -->
<g id="edge12" class="edge">
<title>Node8&#45;&gt;Node2</title>
<path fill="none" stroke="midnightblue" d="M355.17,-171.42C353.18,-164.14 350.33,-153.67 347.85,-144.57"/>
<polygon fill="midnightblue" stroke="midnightblue" points="351.19,-143.51 345.18,-134.78 344.43,-145.35 351.19,-143.51"/>
</g>
<!-- Node8&#45;&gt;Node4 -->
<g id="edge9" class="edge">
<title>Node8&#45;&gt;Node4</title>
<path fill="none" stroke="midnightblue" d="M335.43,-171.47C319.01,-163.84 297.08,-151.51 282.65,-135 270.62,-121.25 262.92,-101.73 258.49,-87.4"/>
<polygon fill="midnightblue" stroke="midnightblue" points="261.82,-86.3 255.73,-77.63 255.08,-88.21 261.82,-86.3"/>
</g>
<!-- Node8&#45;&gt;Node5 -->
<g id="edge10" class="edge">
<title>Node8&#45;&gt;Node5</title>
<path fill="none" stroke="midnightblue" d="M387.56,-171.45C404.92,-164.48 425.34,-152.94 435.65,-135 443.92,-120.6 441.35,-101.46 437.49,-87.41"/>
<polygon fill="midnightblue" stroke="midnightblue" points="440.81,-86.3 434.45,-77.82 434.14,-88.42 440.81,-86.3"/>
</g>
<!-- Node8&#45;&gt;Node6 -->
<g id="edge11" class="edge">
<title>Node8&#45;&gt;Node6</title>
<path fill="none" stroke="midnightblue" d="M394.89,-171.49C414.96,-164.73 438.46,-153.38 452.65,-135 474.04,-107.29 485.8,-84.11 463.65,-57 445.82,-35.19 378.87,-23.58 322.77,-17.56"/>
<polygon fill="midnightblue" stroke="midnightblue" points="323.1,-14.07 312.79,-16.53 322.38,-21.04 323.1,-14.07"/>
</g>
<!-- Node9&#45;&gt;Node2 -->
<g id="edge19" class="edge">
<title>Node9&#45;&gt;Node2</title>
<path fill="none" stroke="midnightblue" d="M211.57,-171.42C237.67,-162.27 278.12,-148.1 307.18,-137.92"/>
<polygon fill="midnightblue" stroke="midnightblue" points="308.66,-141.11 316.94,-134.5 306.35,-134.51 308.66,-141.11"/>
</g>
<!-- Node9&#45;&gt;Node4 -->
<g id="edge14" class="edge">
<title>Node9&#45;&gt;Node4</title>
<path fill="none" stroke="midnightblue" d="M191.21,-171.33C202.47,-152.79 228.12,-110.55 242.8,-86.37"/>
<polygon fill="midnightblue" stroke="midnightblue" points="245.81,-88.16 248.01,-77.79 239.82,-84.52 245.81,-88.16"/>
</g>
<!-- Node9&#45;&gt;Node5 -->
<g id="edge17" class="edge">
<title>Node9&#45;&gt;Node5</title>
<path fill="none" stroke="midnightblue" d="M238.33,-174.97C293.99,-168.18 377.06,-155.03 401.65,-135 416.11,-123.22 423.54,-102.82 427.24,-87.72"/>
<polygon fill="midnightblue" stroke="midnightblue" points="430.68,-88.36 429.32,-77.85 423.83,-86.91 430.68,-88.36"/>
</g>
<!-- Node9&#45;&gt;Node6 -->
<g id="edge18" class="edge">
<title>Node9&#45;&gt;Node6</title>
<path fill="none" stroke="midnightblue" d="M132.82,-174.48C102.41,-168.67 65.1,-157.29 38.65,-135 10.36,-111.17 -13.83,-85.58 9.65,-57 28.2,-34.41 98.33,-22.85 156.33,-17.05"/>
<polygon fill="midnightblue" stroke="midnightblue" points="157.01,-20.5 166.63,-16.06 156.34,-13.53 157.01,-20.5"/>
</g>
<!-- Node9&#45;&gt;Node7 -->
<g id="edge20" class="edge">
<title>Node9&#45;&gt;Node7</title>
<path fill="none" stroke="midnightblue" d="M132.9,-177.87C102.38,-173.3 66.24,-162.03 46.65,-135 32.2,-115.07 58.13,-95.12 81.19,-82.34"/>
<polygon fill="midnightblue" stroke="midnightblue" points="82.89,-85.4 90.12,-77.65 79.64,-79.2 82.89,-85.4"/>
</g>
<!-- Node10 -->
<g id="node10" class="node">
<title>Node10</title>
<g id="a_node10"><a xlink:title=" ">
<polygon fill="none" stroke="#bfbfbf" points="135.65,-114.5 135.65,-134.5 197.65,-134.5 197.65,-114.5 135.65,-114.5"/>
<text text-anchor="middle" x="166.65" y="-121.7" font-family="-apple-system,BlinkMacSystemFont,'SegoeUI',Roboto,Oxygen,Ubuntu,Cantarell,'FiraSans','DroidSans','HelveticaNeue',sans-serif" font-size="11.00">memory</text>
</a>
</g>
</g>
<!-- Node9&#45;&gt;Node10 -->
<g id="edge15" class="edge">
<title>Node9&#45;&gt;Node10</title>
<path fill="none" stroke="midnightblue" d="M182.51,-171.42C179.97,-164.06 176.3,-153.44 173.13,-144.27"/>
<polygon fill="midnightblue" stroke="midnightblue" points="176.43,-143.09 169.85,-134.78 169.81,-145.37 176.43,-143.09"/>
</g>
<!-- Node11 -->
<g id="node11" class="node">
<title>Node11</title>
<g id="a_node11"><a xlink:title=" ">
<polygon fill="none" stroke="#bfbfbf" points="56.15,-114.5 56.15,-134.5 117.15,-134.5 117.15,-114.5 56.15,-114.5"/>
<text text-anchor="middle" x="86.65" y="-121.7" font-family="-apple-system,BlinkMacSystemFont,'SegoeUI',Roboto,Oxygen,Ubuntu,Cantarell,'FiraSans','DroidSans','HelveticaNeue',sans-serif" font-size="11.00">optional</text>
</a>
</g>
</g>
<!-- Node9&#45;&gt;Node11 -->
<g id="edge16" class="edge">
<title>Node9&#45;&gt;Node11</title>
<path fill="none" stroke="midnightblue" d="M169.3,-171.42C153.68,-162.74 129.91,-149.53 111.86,-139.51"/>
<polygon fill="midnightblue" stroke="midnightblue" points="113.46,-136.39 103.02,-134.6 110.06,-142.51 113.46,-136.39"/>
</g>
<!-- Node12&#45;&gt;Node2 -->
<g id="edge24" class="edge">
<title>Node12&#45;&gt;Node2</title>
<path fill="none" stroke="midnightblue" d="M491.25,-171.42C461.28,-162.15 414.6,-147.73 381.57,-137.53"/>
<polygon fill="midnightblue" stroke="midnightblue" points="382.38,-134.11 371.79,-134.5 380.31,-140.8 382.38,-134.11"/>
</g>
<!-- Node12&#45;&gt;Node5 -->
<g id="edge23" class="edge">
<title>Node12&#45;&gt;Node5</title>
<path fill="none" stroke="midnightblue" d="M513.28,-171.33C498.25,-152.63 463.83,-109.8 444.49,-85.73"/>
<polygon fill="midnightblue" stroke="midnightblue" points="447.11,-83.39 438.11,-77.79 441.65,-87.78 447.11,-83.39"/>
</g>
<!-- Node13 -->
<g id="node13" class="node">
<title>Node13</title>
<g id="a_node13"><a xlink:title=" ">
<polygon fill="none" stroke="#bfbfbf" points="563.65,-114.5 563.65,-134.5 609.65,-134.5 609.65,-114.5 563.65,-114.5"/>
<text text-anchor="middle" x="586.65" y="-121.7" font-family="-apple-system,BlinkMacSystemFont,'SegoeUI',Roboto,Oxygen,Ubuntu,Cantarell,'FiraSans','DroidSans','HelveticaNeue',sans-serif" font-size="11.00">array</text>
</a>
</g>
</g>
<!-- Node12&#45;&gt;Node13 -->
<g id="edge22" class="edge">
<title>Node12&#45;&gt;Node13</title>
<path fill="none" stroke="midnightblue" d="M531.55,-171.42C541.33,-163.27 555.9,-151.12 567.61,-141.37"/>
<polygon fill="midnightblue" stroke="midnightblue" points="570.07,-143.87 575.51,-134.78 565.59,-138.49 570.07,-143.87"/>
</g>
</g>
</svg>
