<?xml version="1.0" encoding="UTF-8" standalone="no"?>
<!DOCTYPE svg PUBLIC "-//W3C//DTD SVG 1.1//EN"
 "http://www.w3.org/Graphics/SVG/1.1/DTD/svg11.dtd">
<!-- Generated by graphviz version 3.0.0 (20220413.0242)
 -->
<!-- Title: libmirai/public/libmirai/Types/Types.hpp Pages: 1 -->
<svg width="674pt" height="269pt"
 viewBox="0.00 0.00 674.29 269.00" xmlns="http://www.w3.org/2000/svg" xmlns:xlink="http://www.w3.org/1999/xlink">
<g id="graph0" class="graph" transform="scale(1 1) rotate(0) translate(4 265)">
<title>libmirai/public/libmirai/Types/Types.hpp</title>
<!-- Node1 -->
<g id="node1" class="node">
<title>Node1</title>
<g id="a_node1"><a xlink:title=" ">
<polygon fill="#bfbfbf" stroke="black" points="181.29,-228.5 181.29,-260.5 299.29,-260.5 299.29,-228.5 181.29,-228.5"/>
<text text-anchor="start" x="189.29" y="-247.7" font-family="-apple-system, BlinkMacSystemFont, 'Segoe UI', Roboto, Oxygen, Ubuntu, Cantarell, 'Fira Sans', 'Droid Sans', 'Helvetica Neue', sans-serif" font-size="11.00">libmirai/public/libmirai</text>
<text text-anchor="middle" x="240.29" y="-235.7" font-family="-apple-system, BlinkMacSystemFont, 'Segoe UI', Roboto, Oxygen, Ubuntu, Cantarell, 'Fira Sans', 'Droid Sans', 'Helvetica Neue', sans-serif" font-size="11.00">/Types/Types.hpp</text>
</a>
</g>
</g>
<!-- Node2 -->
<g id="node2" class="node">
<title>Node2</title>
<g id="a_node2"><a xlink:href="BasicTypes_8hpp.html" target="_top" xlink:title=" ">
<polygon fill="none" stroke="black" points="108.79,-114.5 108.79,-134.5 201.79,-134.5 201.79,-114.5 108.79,-114.5"/>
<text text-anchor="middle" x="155.29" y="-121.7" font-family="-apple-system, BlinkMacSystemFont, 'Segoe UI', Roboto, Oxygen, Ubuntu, Cantarell, 'Fira Sans', 'Droid Sans', 'Helvetica Neue', sans-serif" font-size="11.00">BasicTypes.hpp</text>
</a>
</g>
</g>
<!-- Node1&#45;&gt;Node2 -->
<g id="edge1" class="edge">
<title>Node1&#45;&gt;Node2</title>
<path fill="none" stroke="midnightblue" d="M217.55,-228.33C205.13,-219.07 190.28,-206.28 180.29,-192 170.25,-177.65 163.65,-158.75 159.77,-144.77"/>
<polygon fill="midnightblue" stroke="midnightblue" points="163.09,-143.62 157.23,-134.79 156.31,-145.35 163.09,-143.62"/>
</g>
<!-- Node8 -->
<g id="node8" class="node">
<title>Node8</title>
<g id="a_node8"><a xlink:href="Serializable_8hpp.html" target="_top" xlink:title=" ">
<polygon fill="none" stroke="black" points="504.29,-57.5 504.29,-77.5 666.29,-77.5 666.29,-57.5 504.29,-57.5"/>
<text text-anchor="middle" x="585.29" y="-64.7" font-family="-apple-system, BlinkMacSystemFont, 'Segoe UI', Roboto, Oxygen, Ubuntu, Cantarell, 'Fira Sans', 'Droid Sans', 'Helvetica Neue', sans-serif" font-size="11.00">libmirai/Types/Serializable.hpp</text>
</a>
</g>
</g>
<!-- Node1&#45;&gt;Node8 -->
<g id="edge27" class="edge">
<title>Node1&#45;&gt;Node8</title>
<path fill="none" stroke="midnightblue" d="M299.56,-233.96C389.95,-218.03 555.28,-182.96 588.29,-135 597.79,-121.19 595.56,-101.69 591.85,-87.37"/>
<polygon fill="midnightblue" stroke="midnightblue" points="595.14,-86.17 588.89,-77.61 588.44,-88.2 595.14,-86.17"/>
</g>
<!-- Node9 -->
<g id="node9" class="node">
<title>Node9</title>
<g id="a_node9"><a xlink:href="GroupSettings_8hpp.html" target="_top" xlink:title=" ">
<polygon fill="none" stroke="black" points="25.79,-171.5 25.79,-191.5 132.79,-191.5 132.79,-171.5 25.79,-171.5"/>
<text text-anchor="middle" x="79.29" y="-178.7" font-family="-apple-system, BlinkMacSystemFont, 'Segoe UI', Roboto, Oxygen, Ubuntu, Cantarell, 'Fira Sans', 'Droid Sans', 'Helvetica Neue', sans-serif" font-size="11.00">GroupSettings.hpp</text>
</a>
</g>
</g>
<!-- Node1&#45;&gt;Node9 -->
<g id="edge9" class="edge">
<title>Node1&#45;&gt;Node9</title>
<path fill="none" stroke="midnightblue" d="M200.49,-228.42C173.53,-218.21 138.3,-204.86 112.77,-195.19"/>
<polygon fill="midnightblue" stroke="midnightblue" points="113.76,-191.82 103.16,-191.55 111.28,-198.36 113.76,-191.82"/>
</g>
<!-- Node10 -->
<g id="node10" class="node">
<title>Node10</title>
<g id="a_node10"><a xlink:href="MediaTypes_8hpp.html" target="_top" xlink:title=" ">
<polygon fill="none" stroke="black" points="334.29,-171.5 334.29,-191.5 430.29,-191.5 430.29,-171.5 334.29,-171.5"/>
<text text-anchor="middle" x="382.29" y="-178.7" font-family="-apple-system, BlinkMacSystemFont, 'Segoe UI', Roboto, Oxygen, Ubuntu, Cantarell, 'Fira Sans', 'Droid Sans', 'Helvetica Neue', sans-serif" font-size="11.00">MediaTypes.hpp</text>
</a>
</g>
</g>
<!-- Node1&#45;&gt;Node10 -->
<g id="edge14" class="edge">
<title>Node1&#45;&gt;Node10</title>
<path fill="none" stroke="midnightblue" d="M275.39,-228.42C298.86,-218.34 329.42,-205.21 351.86,-195.57"/>
<polygon fill="midnightblue" stroke="midnightblue" points="353.43,-198.71 361.23,-191.55 350.66,-192.28 353.43,-198.71"/>
</g>
<!-- Node13 -->
<g id="node13" class="node">
<title>Node13</title>
<g id="a_node13"><a xlink:href="NudgeTarget_8hpp.html" target="_top" xlink:title=" ">
<polygon fill="none" stroke="black" points="189.79,-171.5 189.79,-191.5 290.79,-191.5 290.79,-171.5 189.79,-171.5"/>
<text text-anchor="middle" x="240.29" y="-178.7" font-family="-apple-system, BlinkMacSystemFont, 'Segoe UI', Roboto, Oxygen, Ubuntu, Cantarell, 'Fira Sans', 'Droid Sans', 'Helvetica Neue', sans-serif" font-size="11.00">NudgeTarget.hpp</text>
</a>
</g>
</g>
<!-- Node1&#45;&gt;Node13 -->
<g id="edge23" class="edge">
<title>Node1&#45;&gt;Node13</title>
<path fill="none" stroke="midnightblue" d="M240.29,-228.42C240.29,-220.38 240.29,-210.39 240.29,-201.78"/>
<polygon fill="midnightblue" stroke="midnightblue" points="243.79,-201.55 240.29,-191.55 236.79,-201.55 243.79,-201.55"/>
</g>
<!-- Node3 -->
<g id="node3" class="node">
<title>Node3</title>
<g id="a_node3"><a xlink:title=" ">
<polygon fill="none" stroke="#bfbfbf" points="183.29,-57.5 183.29,-77.5 233.29,-77.5 233.29,-57.5 183.29,-57.5"/>
<text text-anchor="middle" x="208.29" y="-64.7" font-family="-apple-system, BlinkMacSystemFont, 'Segoe UI', Roboto, Oxygen, Ubuntu, Cantarell, 'Fira Sans', 'Droid Sans', 'Helvetica Neue', sans-serif" font-size="11.00">chrono</text>
</a>
</g>
</g>
<!-- Node2&#45;&gt;Node3 -->
<g id="edge2" class="edge">
<title>Node2&#45;&gt;Node3</title>
<path fill="none" stroke="midnightblue" d="M164.04,-114.42C171.67,-106.5 182.92,-94.82 192.17,-85.23"/>
<polygon fill="midnightblue" stroke="midnightblue" points="194.93,-87.41 199.35,-77.78 189.89,-82.55 194.93,-87.41"/>
</g>
<!-- Node4 -->
<g id="node4" class="node">
<title>Node4</title>
<g id="a_node4"><a xlink:title=" ">
<polygon fill="none" stroke="#bfbfbf" points="21.29,-57.5 21.29,-77.5 63.29,-77.5 63.29,-57.5 21.29,-57.5"/>
<text text-anchor="middle" x="42.29" y="-64.7" font-family="-apple-system, BlinkMacSystemFont, 'Segoe UI', Roboto, Oxygen, Ubuntu, Cantarell, 'Fira Sans', 'Droid Sans', 'Helvetica Neue', sans-serif" font-size="11.00">ctime</text>
</a>
</g>
</g>
<!-- Node2&#45;&gt;Node4 -->
<g id="edge3" class="edge">
<title>Node2&#45;&gt;Node4</title>
<path fill="none" stroke="midnightblue" d="M136.63,-114.42C118.56,-105.62 90.92,-92.17 70.22,-82.1"/>
<polygon fill="midnightblue" stroke="midnightblue" points="71.5,-78.83 60.98,-77.6 68.44,-85.12 71.5,-78.83"/>
</g>
<!-- Node5 -->
<g id="node5" class="node">
<title>Node5</title>
<g id="a_node5"><a xlink:title=" ">
<polygon fill="none" stroke="#bfbfbf" points="259.79,-57.5 259.79,-77.5 302.79,-77.5 302.79,-57.5 259.79,-57.5"/>
<text text-anchor="middle" x="281.29" y="-64.7" font-family="-apple-system, BlinkMacSystemFont, 'Segoe UI', Roboto, Oxygen, Ubuntu, Cantarell, 'Fira Sans', 'Droid Sans', 'Helvetica Neue', sans-serif" font-size="11.00">string</text>
</a>
</g>
</g>
<!-- Node2&#45;&gt;Node5 -->
<g id="edge4" class="edge">
<title>Node2&#45;&gt;Node5</title>
<path fill="none" stroke="midnightblue" d="M176.1,-114.42C196.52,-105.5 227.9,-91.8 251.08,-81.69"/>
<polygon fill="midnightblue" stroke="midnightblue" points="252.69,-84.8 260.45,-77.6 249.89,-78.39 252.69,-84.8"/>
</g>
<!-- Node6 -->
<g id="node6" class="node">
<title>Node6</title>
<g id="a_node6"><a xlink:title=" ">
<polygon fill="none" stroke="#bfbfbf" points="363.79,-57.5 363.79,-77.5 404.79,-77.5 404.79,-57.5 363.79,-57.5"/>
<text text-anchor="middle" x="384.29" y="-64.7" font-family="-apple-system, BlinkMacSystemFont, 'Segoe UI', Roboto, Oxygen, Ubuntu, Cantarell, 'Fira Sans', 'Droid Sans', 'Helvetica Neue', sans-serif" font-size="11.00">utility</text>
</a>
</g>
</g>
<!-- Node2&#45;&gt;Node6 -->
<g id="edge5" class="edge">
<title>Node2&#45;&gt;Node6</title>
<path fill="none" stroke="midnightblue" d="M192.85,-114.48C237.77,-103.69 312.09,-85.84 353.68,-75.85"/>
<polygon fill="midnightblue" stroke="midnightblue" points="354.61,-79.23 363.51,-73.49 352.97,-72.42 354.61,-79.23"/>
</g>
<!-- Node7 -->
<g id="node7" class="node">
<title>Node7</title>
<g id="a_node7"><a xlink:title=" ">
<polygon fill="none" stroke="#bfbfbf" points="249.79,-0.5 249.79,-20.5 380.79,-20.5 380.79,-0.5 249.79,-0.5"/>
<text text-anchor="middle" x="315.29" y="-7.7" font-family="-apple-system, BlinkMacSystemFont, 'Segoe UI', Roboto, Oxygen, Ubuntu, Cantarell, 'Fira Sans', 'Droid Sans', 'Helvetica Neue', sans-serif" font-size="11.00">nlohmann/json_fwd.hpp</text>
</a>
</g>
</g>
<!-- Node2&#45;&gt;Node7 -->
<g id="edge6" class="edge">
<title>Node2&#45;&gt;Node7</title>
<path fill="none" stroke="midnightblue" d="M155.31,-114.45C155.84,-100.29 158.93,-72.88 174.29,-57 191.65,-39.04 216.13,-28.16 239.84,-21.57"/>
<polygon fill="midnightblue" stroke="midnightblue" points="240.74,-24.95 249.57,-19.08 239.01,-18.17 240.74,-24.95"/>
</g>
<!-- Node2&#45;&gt;Node8 -->
<g id="edge7" class="edge">
<title>Node2&#45;&gt;Node8</title>
<path fill="none" stroke="midnightblue" d="M202.07,-115.25C204.85,-114.82 207.61,-114.39 210.29,-114 306.85,-99.81 417.87,-86.74 493.91,-78.29"/>
<polygon fill="midnightblue" stroke="midnightblue" points="494.38,-81.76 503.93,-77.18 493.61,-74.8 494.38,-81.76"/>
</g>
<!-- Node8&#45;&gt;Node7 -->
<g id="edge8" class="edge">
<title>Node8&#45;&gt;Node7</title>
<path fill="none" stroke="midnightblue" d="M541.01,-57.48C494.12,-47.93 420.06,-32.84 369.66,-22.58"/>
<polygon fill="midnightblue" stroke="midnightblue" points="370.09,-19.09 359.6,-20.53 368.7,-25.95 370.09,-19.09"/>
</g>
<!-- Node9&#45;&gt;Node2 -->
<g id="edge13" class="edge">
<title>Node9&#45;&gt;Node2</title>
<path fill="none" stroke="midnightblue" d="M91.84,-171.42C103.39,-163.06 120.75,-150.5 134.39,-140.62"/>
<polygon fill="midnightblue" stroke="midnightblue" points="136.67,-143.29 142.72,-134.6 132.57,-137.62 136.67,-143.29"/>
</g>
<!-- Node9&#45;&gt;Node4 -->
<g id="edge10" class="edge">
<title>Node9&#45;&gt;Node4</title>
<path fill="none" stroke="midnightblue" d="M63.06,-171.27C50.96,-163.39 35.37,-150.81 28.29,-135 21.45,-119.73 26.49,-100.96 32.34,-87.27"/>
<polygon fill="midnightblue" stroke="midnightblue" points="35.65,-88.45 36.79,-77.92 29.33,-85.44 35.65,-88.45"/>
</g>
<!-- Node9&#45;&gt;Node5 -->
<g id="edge11" class="edge">
<title>Node9&#45;&gt;Node5</title>
<path fill="none" stroke="midnightblue" d="M79.34,-171.31C79.93,-156.97 83.24,-129.31 99.29,-114 100.67,-112.68 197.74,-88.87 249.53,-76.23"/>
<polygon fill="midnightblue" stroke="midnightblue" points="250.66,-79.56 259.54,-73.79 249,-72.76 250.66,-79.56"/>
</g>
<!-- Node9&#45;&gt;Node7 -->
<g id="edge12" class="edge">
<title>Node9&#45;&gt;Node7</title>
<path fill="none" stroke="midnightblue" d="M61.61,-171.44C48.29,-163.64 30.75,-151.11 21.29,-135 3.62,-104.91 -10.48,-83.44 12.29,-57 41.04,-23.61 159.47,-14.38 239.47,-12.03"/>
<polygon fill="midnightblue" stroke="midnightblue" points="239.61,-15.52 249.51,-11.76 239.42,-8.53 239.61,-15.52"/>
</g>
<!-- Node10&#45;&gt;Node2 -->
<g id="edge21" class="edge">
<title>Node10&#45;&gt;Node2</title>
<path fill="none" stroke="midnightblue" d="M345.06,-171.48C306.05,-162.03 244.67,-147.16 202.33,-136.9"/>
<polygon fill="midnightblue" stroke="midnightblue" points="203.08,-133.48 192.54,-134.53 201.43,-140.28 203.08,-133.48"/>
</g>
<!-- Node10&#45;&gt;Node4 -->
<g id="edge15" class="edge">
<title>Node10&#45;&gt;Node4</title>
<path fill="none" stroke="midnightblue" d="M334,-174.58C258.59,-165.05 119.39,-146.27 99.29,-135 78.86,-123.55 62.38,-101.8 52.49,-86.3"/>
<polygon fill="midnightblue" stroke="midnightblue" points="55.39,-84.33 47.21,-77.6 49.41,-87.96 55.39,-84.33"/>
</g>
<!-- Node10&#45;&gt;Node5 -->
<g id="edge18" class="edge">
<title>Node10&#45;&gt;Node5</title>
<path fill="none" stroke="midnightblue" d="M374.02,-171.33C357.08,-152.55 318.19,-109.42 296.54,-85.42"/>
<polygon fill="midnightblue" stroke="midnightblue" points="298.97,-82.87 289.67,-77.79 293.77,-87.56 298.97,-82.87"/>
</g>
<!-- Node10&#45;&gt;Node6 -->
<g id="edge19" class="edge">
<title>Node10&#45;&gt;Node6</title>
<path fill="none" stroke="midnightblue" d="M392.8,-171.23C401.51,-162.79 413.26,-149.46 418.29,-135 424.5,-117.15 412.62,-98.07 401.23,-84.95"/>
<polygon fill="midnightblue" stroke="midnightblue" points="403.76,-82.52 394.37,-77.61 398.64,-87.3 403.76,-82.52"/>
</g>
<!-- Node10&#45;&gt;Node7 -->
<g id="edge20" class="edge">
<title>Node10&#45;&gt;Node7</title>
<path fill="none" stroke="midnightblue" d="M398.21,-171.2C410.07,-163.27 425.36,-150.67 432.29,-135 442.72,-111.41 417.17,-60.26 414.29,-57 400.65,-41.54 380.68,-31 362.24,-23.98"/>
<polygon fill="midnightblue" stroke="midnightblue" points="363.37,-20.67 352.78,-20.63 361.03,-27.27 363.37,-20.67"/>
</g>
<!-- Node10&#45;&gt;Node8 -->
<g id="edge22" class="edge">
<title>Node10&#45;&gt;Node8</title>
<path fill="none" stroke="midnightblue" d="M430.47,-174.39C478.89,-167.29 549.03,-154.06 568.29,-135 580.71,-122.71 584.48,-102.68 585.43,-87.81"/>
<polygon fill="midnightblue" stroke="midnightblue" points="588.94,-87.75 585.71,-77.66 581.94,-87.56 588.94,-87.75"/>
</g>
<!-- Node11 -->
<g id="node11" class="node">
<title>Node11</title>
<g id="a_node11"><a xlink:title=" ">
<polygon fill="none" stroke="#bfbfbf" points="503.29,-114.5 503.29,-134.5 559.29,-134.5 559.29,-114.5 503.29,-114.5"/>
<text text-anchor="middle" x="531.29" y="-121.7" font-family="-apple-system, BlinkMacSystemFont, 'Segoe UI', Roboto, Oxygen, Ubuntu, Cantarell, 'Fira Sans', 'Droid Sans', 'Helvetica Neue', sans-serif" font-size="11.00">memory</text>
</a>
</g>
</g>
<!-- Node10&#45;&gt;Node11 -->
<g id="edge16" class="edge">
<title>Node10&#45;&gt;Node11</title>
<path fill="none" stroke="midnightblue" d="M406.89,-171.42C431.48,-162.34 469.49,-148.31 497.02,-138.15"/>
<polygon fill="midnightblue" stroke="midnightblue" points="498.48,-141.34 506.65,-134.6 496.06,-134.78 498.48,-141.34"/>
</g>
<!-- Node12 -->
<g id="node12" class="node">
<title>Node12</title>
<g id="a_node12"><a xlink:title=" ">
<polygon fill="none" stroke="#bfbfbf" points="355.29,-114.5 355.29,-134.5 409.29,-134.5 409.29,-114.5 355.29,-114.5"/>
<text text-anchor="middle" x="382.29" y="-121.7" font-family="-apple-system, BlinkMacSystemFont, 'Segoe UI', Roboto, Oxygen, Ubuntu, Cantarell, 'Fira Sans', 'Droid Sans', 'Helvetica Neue', sans-serif" font-size="11.00">optional</text>
</a>
</g>
</g>
<!-- Node10&#45;&gt;Node12 -->
<g id="edge17" class="edge">
<title>Node10&#45;&gt;Node12</title>
<path fill="none" stroke="midnightblue" d="M382.29,-171.42C382.29,-164.22 382.29,-153.9 382.29,-144.86"/>
<polygon fill="midnightblue" stroke="midnightblue" points="385.79,-144.78 382.29,-134.78 378.79,-144.78 385.79,-144.78"/>
</g>
<!-- Node13&#45;&gt;Node2 -->
<g id="edge26" class="edge">
<title>Node13&#45;&gt;Node2</title>
<path fill="none" stroke="midnightblue" d="M226.25,-171.42C213.09,-162.9 193.18,-150.02 177.8,-140.06"/>
<polygon fill="midnightblue" stroke="midnightblue" points="179.64,-137.09 169.35,-134.6 175.84,-142.97 179.64,-137.09"/>
</g>
<!-- Node13&#45;&gt;Node5 -->
<g id="edge25" class="edge">
<title>Node13&#45;&gt;Node5</title>
<path fill="none" stroke="midnightblue" d="M247.98,-171.39C254.94,-162.63 264.91,-148.74 270.29,-135 276.23,-119.85 278.96,-101.54 280.22,-87.97"/>
<polygon fill="midnightblue" stroke="midnightblue" points="283.72,-88.09 280.96,-77.86 276.74,-87.57 283.72,-88.09"/>
</g>
<!-- Node14 -->
<g id="node14" class="node">
<title>Node14</title>
<g id="a_node14"><a xlink:title=" ">
<polygon fill="none" stroke="#bfbfbf" points="219.79,-114.5 219.79,-134.5 260.79,-134.5 260.79,-114.5 219.79,-114.5"/>
<text text-anchor="middle" x="240.29" y="-121.7" font-family="-apple-system, BlinkMacSystemFont, 'Segoe UI', Roboto, Oxygen, Ubuntu, Cantarell, 'Fira Sans', 'Droid Sans', 'Helvetica Neue', sans-serif" font-size="11.00">array</text>
</a>
</g>
</g>
<!-- Node13&#45;&gt;Node14 -->
<g id="edge24" class="edge">
<title>Node13&#45;&gt;Node14</title>
<path fill="none" stroke="midnightblue" d="M240.29,-171.42C240.29,-164.22 240.29,-153.9 240.29,-144.86"/>
<polygon fill="midnightblue" stroke="midnightblue" points="243.79,-144.78 240.29,-134.78 236.79,-144.78 243.79,-144.78"/>
</g>
</g>
</svg>
