<?xml version="1.0" encoding="UTF-8" standalone="no"?>
<!DOCTYPE svg PUBLIC "-//W3C//DTD SVG 1.1//EN"
 "http://www.w3.org/Graphics/SVG/1.1/DTD/svg11.dtd">
<!-- Generated by graphviz version 3.0.0 (20221109.1736)
 -->
<!-- Title: libmirai/aggregates/libmirai/Types/Types.hpp Pages: 1 -->
<svg width="953pt" height="212pt"
 viewBox="0.00 0.00 952.50 212.00" xmlns="http://www.w3.org/2000/svg" xmlns:xlink="http://www.w3.org/1999/xlink">
<g id="graph0" class="graph" transform="scale(1 1) rotate(0) translate(4 208)">
<title>libmirai/aggregates/libmirai/Types/Types.hpp</title>
<!-- Node1 -->
<g id="node1" class="node">
<title>Node1</title>
<g id="a_node1"><a xlink:title=" ">
<polygon fill="#bfbfbf" stroke="black" points="318.5,-171.5 318.5,-203.5 457.5,-203.5 457.5,-171.5 318.5,-171.5"/>
<text text-anchor="start" x="326.5" y="-190.7" font-family="-apple-system, BlinkMacSystemFont, 'Segoe UI', Roboto, Oxygen, Ubuntu, Cantarell, 'Fira Sans', 'Droid Sans', 'Helvetica Neue', sans-serif" font-size="11.00">libmirai/aggregates</text>
<text text-anchor="middle" x="388" y="-178.7" font-family="-apple-system, BlinkMacSystemFont, 'Segoe UI', Roboto, Oxygen, Ubuntu, Cantarell, 'Fira Sans', 'Droid Sans', 'Helvetica Neue', sans-serif" font-size="11.00">/libmirai/Types/Types.hpp</text>
</a>
</g>
</g>
<!-- Node2 -->
<g id="node2" class="node">
<title>Node2</title>
<g id="a_node2"><a xlink:href="BasicTypes_8hpp.html" target="_top" xlink:title=" ">
<polygon fill="none" stroke="black" points="49,-57.5 49,-77.5 211,-77.5 211,-57.5 49,-57.5"/>
<text text-anchor="middle" x="130" y="-64.7" font-family="-apple-system, BlinkMacSystemFont, 'Segoe UI', Roboto, Oxygen, Ubuntu, Cantarell, 'Fira Sans', 'Droid Sans', 'Helvetica Neue', sans-serif" font-size="11.00">libmirai/Types/BasicTypes.hpp</text>
</a>
</g>
</g>
<!-- Node1&#45;&gt;Node2 -->
<g id="edge1" class="edge">
<title>Node1&#45;&gt;Node2</title>
<path fill="none" stroke="midnightblue" d="M318.43,-187.48C220.19,-187.21 48.37,-180.08 9,-135 -14.21,-108.42 29.28,-90.42 70.43,-79.92"/>
<polygon fill="midnightblue" stroke="midnightblue" points="71.36,-83.3 80.25,-77.54 69.71,-76.5 71.36,-83.3"/>
</g>
<!-- Node7 -->
<g id="node7" class="node">
<title>Node7</title>
<g id="a_node7"><a xlink:href="GroupSettings_8hpp.html" target="_top" xlink:title=" ">
<polygon fill="none" stroke="black" points="18,-114.5 18,-134.5 194,-134.5 194,-114.5 18,-114.5"/>
<text text-anchor="middle" x="106" y="-121.7" font-family="-apple-system, BlinkMacSystemFont, 'Segoe UI', Roboto, Oxygen, Ubuntu, Cantarell, 'Fira Sans', 'Droid Sans', 'Helvetica Neue', sans-serif" font-size="11.00">libmirai/Types/GroupSettings.hpp</text>
</a>
</g>
</g>
<!-- Node1&#45;&gt;Node7 -->
<g id="edge6" class="edge">
<title>Node1&#45;&gt;Node7</title>
<path fill="none" stroke="midnightblue" d="M318.65,-171.5C268.92,-160.74 203,-146.48 157.81,-136.71"/>
<polygon fill="midnightblue" stroke="midnightblue" points="158.44,-133.26 147.93,-134.57 156.96,-140.1 158.44,-133.26"/>
</g>
<!-- Node8 -->
<g id="node8" class="node">
<title>Node8</title>
<g id="a_node8"><a xlink:href="MediaTypes_8hpp.html" target="_top" xlink:title=" ">
<polygon fill="none" stroke="black" points="212.5,-114.5 212.5,-134.5 377.5,-134.5 377.5,-114.5 212.5,-114.5"/>
<text text-anchor="middle" x="295" y="-121.7" font-family="-apple-system, BlinkMacSystemFont, 'Segoe UI', Roboto, Oxygen, Ubuntu, Cantarell, 'Fira Sans', 'Droid Sans', 'Helvetica Neue', sans-serif" font-size="11.00">libmirai/Types/MediaTypes.hpp</text>
</a>
</g>
</g>
<!-- Node1&#45;&gt;Node8 -->
<g id="edge10" class="edge">
<title>Node1&#45;&gt;Node8</title>
<path fill="none" stroke="midnightblue" d="M365.01,-171.42C350.54,-161.93 331.94,-149.73 317.55,-140.29"/>
<polygon fill="midnightblue" stroke="midnightblue" points="319.07,-137.1 308.79,-134.55 315.23,-142.96 319.07,-137.1"/>
</g>
<!-- Node11 -->
<g id="node11" class="node">
<title>Node11</title>
<g id="a_node11"><a xlink:href="EventTypes_8hpp.html" target="_top" xlink:title=" ">
<polygon fill="none" stroke="black" points="584.5,-114.5 584.5,-134.5 747.5,-134.5 747.5,-114.5 584.5,-114.5"/>
<text text-anchor="middle" x="666" y="-121.7" font-family="-apple-system, BlinkMacSystemFont, 'Segoe UI', Roboto, Oxygen, Ubuntu, Cantarell, 'Fira Sans', 'Droid Sans', 'Helvetica Neue', sans-serif" font-size="11.00">libmirai/Types/EventTypes.hpp</text>
</a>
</g>
</g>
<!-- Node1&#45;&gt;Node11 -->
<g id="edge17" class="edge">
<title>Node1&#45;&gt;Node11</title>
<path fill="none" stroke="midnightblue" d="M456.36,-171.5C505.28,-160.77 570.1,-146.54 614.64,-136.77"/>
<polygon fill="midnightblue" stroke="midnightblue" points="615.65,-140.13 624.67,-134.57 614.15,-133.29 615.65,-140.13"/>
</g>
<!-- Node13 -->
<g id="node13" class="node">
<title>Node13</title>
<g id="a_node13"><a xlink:href="MessageTypes_8hpp.html" target="_top" xlink:title=" ">
<polygon fill="none" stroke="black" points="765.5,-114.5 765.5,-134.5 944.5,-134.5 944.5,-114.5 765.5,-114.5"/>
<text text-anchor="middle" x="855" y="-121.7" font-family="-apple-system, BlinkMacSystemFont, 'Segoe UI', Roboto, Oxygen, Ubuntu, Cantarell, 'Fira Sans', 'Droid Sans', 'Helvetica Neue', sans-serif" font-size="11.00">libmirai/Types/MessageTypes.hpp</text>
</a>
</g>
</g>
<!-- Node1&#45;&gt;Node13 -->
<g id="edge20" class="edge">
<title>Node1&#45;&gt;Node13</title>
<path fill="none" stroke="midnightblue" d="M457.66,-177.4C542.86,-166.27 686.73,-147.48 775.98,-135.82"/>
<polygon fill="midnightblue" stroke="midnightblue" points="776.59,-139.27 786.05,-134.51 775.68,-132.33 776.59,-139.27"/>
</g>
<!-- Node14 -->
<g id="node14" class="node">
<title>Node14</title>
<g id="a_node14"><a xlink:href="NudgeTarget_8hpp.html" target="_top" xlink:title=" ">
<polygon fill="none" stroke="black" points="396,-114.5 396,-134.5 566,-134.5 566,-114.5 396,-114.5"/>
<text text-anchor="middle" x="481" y="-121.7" font-family="-apple-system, BlinkMacSystemFont, 'Segoe UI', Roboto, Oxygen, Ubuntu, Cantarell, 'Fira Sans', 'Droid Sans', 'Helvetica Neue', sans-serif" font-size="11.00">libmirai/Types/NudgeTarget.hpp</text>
</a>
</g>
</g>
<!-- Node1&#45;&gt;Node14 -->
<g id="edge23" class="edge">
<title>Node1&#45;&gt;Node14</title>
<path fill="none" stroke="midnightblue" d="M410.99,-171.42C425.46,-161.93 444.06,-149.73 458.45,-140.29"/>
<polygon fill="midnightblue" stroke="midnightblue" points="460.77,-142.96 467.21,-134.55 456.93,-137.1 460.77,-142.96"/>
</g>
<!-- Node3 -->
<g id="node3" class="node">
<title>Node3</title>
<g id="a_node3"><a xlink:title=" ">
<polygon fill="none" stroke="#bfbfbf" points="105,-0.5 105,-20.5 155,-20.5 155,-0.5 105,-0.5"/>
<text text-anchor="middle" x="130" y="-7.7" font-family="-apple-system, BlinkMacSystemFont, 'Segoe UI', Roboto, Oxygen, Ubuntu, Cantarell, 'Fira Sans', 'Droid Sans', 'Helvetica Neue', sans-serif" font-size="11.00">chrono</text>
</a>
</g>
</g>
<!-- Node2&#45;&gt;Node3 -->
<g id="edge2" class="edge">
<title>Node2&#45;&gt;Node3</title>
<path fill="none" stroke="midnightblue" d="M130,-57.42C130,-50.22 130,-39.9 130,-30.86"/>
<polygon fill="midnightblue" stroke="midnightblue" points="133.5,-30.78 130,-20.78 126.5,-30.78 133.5,-30.78"/>
</g>
<!-- Node4 -->
<g id="node4" class="node">
<title>Node4</title>
<g id="a_node4"><a xlink:title=" ">
<polygon fill="none" stroke="#bfbfbf" points="0,-0.5 0,-20.5 42,-20.5 42,-0.5 0,-0.5"/>
<text text-anchor="middle" x="21" y="-7.7" font-family="-apple-system, BlinkMacSystemFont, 'Segoe UI', Roboto, Oxygen, Ubuntu, Cantarell, 'Fira Sans', 'Droid Sans', 'Helvetica Neue', sans-serif" font-size="11.00">ctime</text>
</a>
</g>
</g>
<!-- Node2&#45;&gt;Node4 -->
<g id="edge3" class="edge">
<title>Node2&#45;&gt;Node4</title>
<path fill="none" stroke="midnightblue" d="M112,-57.42C94.64,-48.66 68.15,-35.29 48.22,-25.23"/>
<polygon fill="midnightblue" stroke="midnightblue" points="49.53,-21.98 39.03,-20.6 46.38,-28.23 49.53,-21.98"/>
</g>
<!-- Node5 -->
<g id="node5" class="node">
<title>Node5</title>
<g id="a_node5"><a xlink:title=" ">
<polygon fill="none" stroke="#bfbfbf" points="458.5,-0.5 458.5,-20.5 501.5,-20.5 501.5,-0.5 458.5,-0.5"/>
<text text-anchor="middle" x="480" y="-7.7" font-family="-apple-system, BlinkMacSystemFont, 'Segoe UI', Roboto, Oxygen, Ubuntu, Cantarell, 'Fira Sans', 'Droid Sans', 'Helvetica Neue', sans-serif" font-size="11.00">string</text>
</a>
</g>
</g>
<!-- Node2&#45;&gt;Node5 -->
<g id="edge4" class="edge">
<title>Node2&#45;&gt;Node5</title>
<path fill="none" stroke="midnightblue" d="M187.4,-57.48C261.89,-45.77 389.29,-25.75 448.29,-16.48"/>
<polygon fill="midnightblue" stroke="midnightblue" points="449.15,-19.89 458.48,-14.88 448.06,-12.98 449.15,-19.89"/>
</g>
<!-- Node6 -->
<g id="node6" class="node">
<title>Node6</title>
<g id="a_node6"><a xlink:title=" ">
<polygon fill="none" stroke="#bfbfbf" points="215.5,-0.5 215.5,-20.5 256.5,-20.5 256.5,-0.5 215.5,-0.5"/>
<text text-anchor="middle" x="236" y="-7.7" font-family="-apple-system, BlinkMacSystemFont, 'Segoe UI', Roboto, Oxygen, Ubuntu, Cantarell, 'Fira Sans', 'Droid Sans', 'Helvetica Neue', sans-serif" font-size="11.00">utility</text>
</a>
</g>
</g>
<!-- Node2&#45;&gt;Node6 -->
<g id="edge5" class="edge">
<title>Node2&#45;&gt;Node6</title>
<path fill="none" stroke="midnightblue" d="M147.5,-57.42C164.38,-48.66 190.15,-35.29 209.53,-25.23"/>
<polygon fill="midnightblue" stroke="midnightblue" points="211.21,-28.31 218.47,-20.6 207.98,-22.09 211.21,-28.31"/>
</g>
<!-- Node7&#45;&gt;Node2 -->
<g id="edge9" class="edge">
<title>Node7&#45;&gt;Node2</title>
<path fill="none" stroke="midnightblue" d="M109.96,-114.42C113.21,-106.98 117.91,-96.21 121.94,-86.97"/>
<polygon fill="midnightblue" stroke="midnightblue" points="125.16,-88.34 125.95,-77.78 118.74,-85.55 125.16,-88.34"/>
</g>
<!-- Node7&#45;&gt;Node4 -->
<g id="edge7" class="edge">
<title>Node7&#45;&gt;Node4</title>
<path fill="none" stroke="midnightblue" d="M61.21,-114.47C41.02,-107.93 19.04,-96.79 7,-78 -2.22,-63.61 3.47,-44.22 10.16,-30.09"/>
<polygon fill="midnightblue" stroke="midnightblue" points="13.45,-31.36 15,-20.88 7.25,-28.1 13.45,-31.36"/>
</g>
<!-- Node7&#45;&gt;Node5 -->
<g id="edge8" class="edge">
<title>Node7&#45;&gt;Node5</title>
<path fill="none" stroke="midnightblue" d="M129.46,-114.48C165.11,-100.97 235.21,-75.11 296,-57 348.81,-41.27 411.27,-26.65 448.15,-18.42"/>
<polygon fill="midnightblue" stroke="midnightblue" points="449.29,-21.75 458.29,-16.17 447.77,-14.92 449.29,-21.75"/>
</g>
<!-- Node8&#45;&gt;Node2 -->
<g id="edge16" class="edge">
<title>Node8&#45;&gt;Node2</title>
<path fill="none" stroke="midnightblue" d="M267.75,-114.42C240.2,-105.23 197.44,-90.98 166.87,-80.79"/>
<polygon fill="midnightblue" stroke="midnightblue" points="167.61,-77.35 157.01,-77.5 165.39,-83.99 167.61,-77.35"/>
</g>
<!-- Node8&#45;&gt;Node4 -->
<g id="edge11" class="edge">
<title>Node8&#45;&gt;Node4</title>
<path fill="none" stroke="midnightblue" d="M222.25,-114.5C151.74,-105.14 53.5,-90.19 40,-78 26.93,-66.2 22.6,-46.1 21.29,-31.08"/>
<polygon fill="midnightblue" stroke="midnightblue" points="24.77,-30.62 20.77,-20.81 17.78,-30.97 24.77,-30.62"/>
</g>
<!-- Node8&#45;&gt;Node5 -->
<g id="edge14" class="edge">
<title>Node8&#45;&gt;Node5</title>
<path fill="none" stroke="midnightblue" d="M359.32,-114.45C387.05,-107.96 418.45,-96.89 442,-78 457.36,-65.68 467.66,-45.37 473.62,-30.43"/>
<polygon fill="midnightblue" stroke="midnightblue" points="477.04,-31.28 477.2,-20.69 470.47,-28.87 477.04,-31.28"/>
</g>
<!-- Node8&#45;&gt;Node6 -->
<g id="edge15" class="edge">
<title>Node8&#45;&gt;Node6</title>
<path fill="none" stroke="midnightblue" d="M290.17,-114.33C280.45,-95.88 258.35,-53.92 245.58,-29.69"/>
<polygon fill="midnightblue" stroke="midnightblue" points="248.65,-28.01 240.89,-20.79 242.46,-31.27 248.65,-28.01"/>
</g>
<!-- Node9 -->
<g id="node9" class="node">
<title>Node9</title>
<g id="a_node9"><a xlink:title=" ">
<polygon fill="none" stroke="#bfbfbf" points="377,-57.5 377,-77.5 433,-77.5 433,-57.5 377,-57.5"/>
<text text-anchor="middle" x="405" y="-64.7" font-family="-apple-system, BlinkMacSystemFont, 'Segoe UI', Roboto, Oxygen, Ubuntu, Cantarell, 'Fira Sans', 'Droid Sans', 'Helvetica Neue', sans-serif" font-size="11.00">memory</text>
</a>
</g>
</g>
<!-- Node8&#45;&gt;Node9 -->
<g id="edge12" class="edge">
<title>Node8&#45;&gt;Node9</title>
<path fill="none" stroke="midnightblue" d="M313.16,-114.42C330.76,-105.62 357.66,-92.17 377.81,-82.1"/>
<polygon fill="midnightblue" stroke="midnightblue" points="379.43,-85.2 386.81,-77.6 376.3,-78.94 379.43,-85.2"/>
</g>
<!-- Node10 -->
<g id="node10" class="node">
<title>Node10</title>
<g id="a_node10"><a xlink:title=" ">
<polygon fill="none" stroke="#bfbfbf" points="305,-57.5 305,-77.5 359,-77.5 359,-57.5 305,-57.5"/>
<text text-anchor="middle" x="332" y="-64.7" font-family="-apple-system, BlinkMacSystemFont, 'Segoe UI', Roboto, Oxygen, Ubuntu, Cantarell, 'Fira Sans', 'Droid Sans', 'Helvetica Neue', sans-serif" font-size="11.00">optional</text>
</a>
</g>
</g>
<!-- Node8&#45;&gt;Node10 -->
<g id="edge13" class="edge">
<title>Node8&#45;&gt;Node10</title>
<path fill="none" stroke="midnightblue" d="M301.11,-114.42C306.27,-106.74 313.82,-95.52 320.16,-86.09"/>
<polygon fill="midnightblue" stroke="midnightblue" points="323.08,-88.03 325.76,-77.78 317.27,-84.12 323.08,-88.03"/>
</g>
<!-- Node11&#45;&gt;Node5 -->
<g id="edge19" class="edge">
<title>Node11&#45;&gt;Node5</title>
<path fill="none" stroke="midnightblue" d="M650.78,-114.33C618.41,-94.84 542.53,-49.15 503.74,-25.8"/>
<polygon fill="midnightblue" stroke="midnightblue" points="505.54,-22.8 495.17,-20.63 501.93,-28.79 505.54,-22.8"/>
</g>
<!-- Node12 -->
<g id="node12" class="node">
<title>Node12</title>
<g id="a_node12"><a xlink:title=" ">
<polygon fill="none" stroke="#bfbfbf" points="645.5,-57.5 645.5,-77.5 686.5,-77.5 686.5,-57.5 645.5,-57.5"/>
<text text-anchor="middle" x="666" y="-64.7" font-family="-apple-system, BlinkMacSystemFont, 'Segoe UI', Roboto, Oxygen, Ubuntu, Cantarell, 'Fira Sans', 'Droid Sans', 'Helvetica Neue', sans-serif" font-size="11.00">array</text>
</a>
</g>
</g>
<!-- Node11&#45;&gt;Node12 -->
<g id="edge18" class="edge">
<title>Node11&#45;&gt;Node12</title>
<path fill="none" stroke="midnightblue" d="M666,-114.42C666,-107.22 666,-96.9 666,-87.86"/>
<polygon fill="midnightblue" stroke="midnightblue" points="669.5,-87.78 666,-77.78 662.5,-87.78 669.5,-87.78"/>
</g>
<!-- Node13&#45;&gt;Node5 -->
<g id="edge22" class="edge">
<title>Node13&#45;&gt;Node5</title>
<path fill="none" stroke="midnightblue" d="M836.34,-114.33C807.07,-100.27 748.28,-73.28 696,-57 631.91,-37.04 554.4,-23.1 511.84,-16.28"/>
<polygon fill="midnightblue" stroke="midnightblue" points="512.23,-12.79 501.81,-14.7 511.14,-19.71 512.23,-12.79"/>
</g>
<!-- Node13&#45;&gt;Node12 -->
<g id="edge21" class="edge">
<title>Node13&#45;&gt;Node12</title>
<path fill="none" stroke="midnightblue" d="M823.79,-114.42C788.48,-104.14 731.36,-87.52 696.39,-77.34"/>
<polygon fill="midnightblue" stroke="midnightblue" points="697.31,-73.97 686.73,-74.53 695.35,-80.69 697.31,-73.97"/>
</g>
<!-- Node14&#45;&gt;Node2 -->
<g id="edge26" class="edge">
<title>Node14&#45;&gt;Node2</title>
<path fill="none" stroke="midnightblue" d="M423.43,-114.48C361.59,-104.79 263.38,-89.4 197.83,-79.13"/>
<polygon fill="midnightblue" stroke="midnightblue" points="198.02,-75.62 187.6,-77.53 196.94,-82.53 198.02,-75.62"/>
</g>
<!-- Node14&#45;&gt;Node5 -->
<g id="edge25" class="edge">
<title>Node14&#45;&gt;Node5</title>
<path fill="none" stroke="midnightblue" d="M480.92,-114.33C480.76,-96.2 480.39,-55.41 480.17,-31"/>
<polygon fill="midnightblue" stroke="midnightblue" points="483.67,-30.76 480.08,-20.79 476.67,-30.82 483.67,-30.76"/>
</g>
<!-- Node14&#45;&gt;Node12 -->
<g id="edge24" class="edge">
<title>Node14&#45;&gt;Node12</title>
<path fill="none" stroke="midnightblue" d="M511.55,-114.42C545.87,-104.21 601.24,-87.75 635.53,-77.56"/>
<polygon fill="midnightblue" stroke="midnightblue" points="636.86,-80.81 645.45,-74.61 634.86,-74.11 636.86,-80.81"/>
</g>
</g>
</svg>
