<?xml version="1.0" encoding="UTF-8" standalone="no"?>
<!DOCTYPE svg PUBLIC "-//W3C//DTD SVG 1.1//EN"
 "http://www.w3.org/Graphics/SVG/1.1/DTD/svg11.dtd">
<!-- Generated by graphviz version 3.0.0 (20220413.0242)
 -->
<!-- Title: libmirai/public/libmirai/Messages/XmlMessage.cpp Pages: 1 -->
<svg width="433pt" height="212pt"
 viewBox="0.00 0.00 432.50 212.00" xmlns="http://www.w3.org/2000/svg" xmlns:xlink="http://www.w3.org/1999/xlink">
<g id="graph0" class="graph" transform="scale(1 1) rotate(0) translate(4 208)">
<title>libmirai/public/libmirai/Messages/XmlMessage.cpp</title>
<!-- Node1 -->
<g id="node1" class="node">
<title>Node1</title>
<g id="a_node1"><a xlink:title=" ">
<polygon fill="#bfbfbf" stroke="black" points="133.5,-171.5 133.5,-203.5 287.5,-203.5 287.5,-171.5 133.5,-171.5"/>
<text text-anchor="start" x="141.5" y="-190.7" font-family="-apple-system, BlinkMacSystemFont, 'Segoe UI', Roboto, Oxygen, Ubuntu, Cantarell, 'Fira Sans', 'Droid Sans', 'Helvetica Neue', sans-serif" font-size="11.00">libmirai/public/libmirai</text>
<text text-anchor="middle" x="210.5" y="-178.7" font-family="-apple-system, BlinkMacSystemFont, 'Segoe UI', Roboto, Oxygen, Ubuntu, Cantarell, 'Fira Sans', 'Droid Sans', 'Helvetica Neue', sans-serif" font-size="11.00">/Messages/XmlMessage.cpp</text>
</a>
</g>
</g>
<!-- Node2 -->
<g id="node2" class="node">
<title>Node2</title>
<g id="a_node2"><a xlink:href="XmlMessage_8hpp.html" target="_top" xlink:title=" ">
<polygon fill="none" stroke="black" points="38.5,-114.5 38.5,-134.5 138.5,-134.5 138.5,-114.5 38.5,-114.5"/>
<text text-anchor="middle" x="88.5" y="-121.7" font-family="-apple-system, BlinkMacSystemFont, 'Segoe UI', Roboto, Oxygen, Ubuntu, Cantarell, 'Fira Sans', 'Droid Sans', 'Helvetica Neue', sans-serif" font-size="11.00">XmlMessage.hpp</text>
</a>
</g>
</g>
<!-- Node1&#45;&gt;Node2 -->
<g id="edge1" class="edge">
<title>Node1&#45;&gt;Node2</title>
<path fill="none" stroke="midnightblue" d="M180.34,-171.42C160.54,-161.52 134.86,-148.68 115.69,-139.1"/>
<polygon fill="midnightblue" stroke="midnightblue" points="117.1,-135.89 106.59,-134.55 113.97,-142.15 117.1,-135.89"/>
</g>
<!-- Node8 -->
<g id="node6" class="node">
<title>Node8</title>
<g id="a_node6"><a xlink:title=" ">
<polygon fill="none" stroke="#bfbfbf" points="156.5,-114.5 156.5,-134.5 264.5,-134.5 264.5,-114.5 156.5,-114.5"/>
<text text-anchor="middle" x="210.5" y="-121.7" font-family="-apple-system, BlinkMacSystemFont, 'Segoe UI', Roboto, Oxygen, Ubuntu, Cantarell, 'Fira Sans', 'Droid Sans', 'Helvetica Neue', sans-serif" font-size="11.00">nlohmann/json.hpp</text>
</a>
</g>
</g>
<!-- Node1&#45;&gt;Node8 -->
<g id="edge7" class="edge">
<title>Node1&#45;&gt;Node8</title>
<path fill="none" stroke="midnightblue" d="M210.5,-171.42C210.5,-163.38 210.5,-153.39 210.5,-144.78"/>
<polygon fill="midnightblue" stroke="midnightblue" points="214,-144.55 210.5,-134.55 207,-144.55 214,-144.55"/>
</g>
<!-- Node9 -->
<g id="node7" class="node">
<title>Node9</title>
<g id="a_node7"><a xlink:title=" ">
<polygon fill="none" stroke="#bfbfbf" points="282.5,-114.5 282.5,-134.5 424.5,-134.5 424.5,-114.5 282.5,-114.5"/>
<text text-anchor="middle" x="353.5" y="-121.7" font-family="-apple-system, BlinkMacSystemFont, 'Segoe UI', Roboto, Oxygen, Ubuntu, Cantarell, 'Fira Sans', 'Droid Sans', 'Helvetica Neue', sans-serif" font-size="11.00">libmirai/Utils/Common.hpp</text>
</a>
</g>
</g>
<!-- Node1&#45;&gt;Node9 -->
<g id="edge8" class="edge">
<title>Node1&#45;&gt;Node9</title>
<path fill="none" stroke="midnightblue" d="M245.85,-171.42C269.48,-161.34 300.26,-148.21 322.85,-138.57"/>
<polygon fill="midnightblue" stroke="midnightblue" points="324.47,-141.69 332.29,-134.55 321.72,-135.25 324.47,-141.69"/>
</g>
<!-- Node3 -->
<g id="node3" class="node">
<title>Node3</title>
<g id="a_node3"><a xlink:title=" ">
<polygon fill="none" stroke="#bfbfbf" points="0,-0.5 0,-20.5 43,-20.5 43,-0.5 0,-0.5"/>
<text text-anchor="middle" x="21.5" y="-7.7" font-family="-apple-system, BlinkMacSystemFont, 'Segoe UI', Roboto, Oxygen, Ubuntu, Cantarell, 'Fira Sans', 'Droid Sans', 'Helvetica Neue', sans-serif" font-size="11.00">string</text>
</a>
</g>
</g>
<!-- Node2&#45;&gt;Node3 -->
<g id="edge2" class="edge">
<title>Node2&#45;&gt;Node3</title>
<path fill="none" stroke="midnightblue" d="M68.34,-114.49C54.02,-106.94 35.76,-94.7 26.5,-78 18.52,-63.62 17.86,-44.73 18.85,-30.75"/>
<polygon fill="midnightblue" stroke="midnightblue" points="22.33,-31.09 19.89,-20.78 15.37,-30.37 22.33,-31.09"/>
</g>
<!-- Node4 -->
<g id="node4" class="node">
<title>Node4</title>
<g id="a_node4"><a xlink:title=" ">
<polygon fill="none" stroke="#bfbfbf" points="89,-0.5 89,-20.5 220,-20.5 220,-0.5 89,-0.5"/>
<text text-anchor="middle" x="154.5" y="-7.7" font-family="-apple-system, BlinkMacSystemFont, 'Segoe UI', Roboto, Oxygen, Ubuntu, Cantarell, 'Fira Sans', 'Droid Sans', 'Helvetica Neue', sans-serif" font-size="11.00">nlohmann/json_fwd.hpp</text>
</a>
</g>
</g>
<!-- Node2&#45;&gt;Node4 -->
<g id="edge3" class="edge">
<title>Node2&#45;&gt;Node4</title>
<path fill="none" stroke="midnightblue" d="M109.04,-114.37C123.35,-106.83 141.43,-94.65 150.5,-78 158.36,-63.57 158.73,-44.69 157.5,-30.73"/>
<polygon fill="midnightblue" stroke="midnightblue" points="160.97,-30.27 156.29,-20.77 154.02,-31.12 160.97,-30.27"/>
</g>
<!-- Node5 -->
<g id="node5" class="node">
<title>Node5</title>
<g id="a_node5"><a xlink:href="MessageBase_8hpp.html" target="_top" xlink:title=" ">
<polygon fill="none" stroke="red" points="35.5,-57.5 35.5,-77.5 141.5,-77.5 141.5,-57.5 35.5,-57.5"/>
<text text-anchor="middle" x="88.5" y="-64.7" font-family="-apple-system, BlinkMacSystemFont, 'Segoe UI', Roboto, Oxygen, Ubuntu, Cantarell, 'Fira Sans', 'Droid Sans', 'Helvetica Neue', sans-serif" font-size="11.00">MessageBase.hpp</text>
</a>
</g>
</g>
<!-- Node2&#45;&gt;Node5 -->
<g id="edge4" class="edge">
<title>Node2&#45;&gt;Node5</title>
<path fill="none" stroke="midnightblue" d="M88.5,-114.42C88.5,-107.22 88.5,-96.9 88.5,-87.86"/>
<polygon fill="midnightblue" stroke="midnightblue" points="92,-87.78 88.5,-77.78 85,-87.78 92,-87.78"/>
</g>
<!-- Node5&#45;&gt;Node3 -->
<g id="edge5" class="edge">
<title>Node5&#45;&gt;Node3</title>
<path fill="none" stroke="midnightblue" d="M77.44,-57.42C67.51,-49.27 52.71,-37.12 40.83,-27.37"/>
<polygon fill="midnightblue" stroke="midnightblue" points="42.75,-24.42 32.8,-20.78 38.31,-29.83 42.75,-24.42"/>
</g>
<!-- Node5&#45;&gt;Node4 -->
<g id="edge6" class="edge">
<title>Node5&#45;&gt;Node4</title>
<path fill="none" stroke="midnightblue" d="M99.4,-57.42C109.18,-49.27 123.76,-37.12 135.46,-27.37"/>
<polygon fill="midnightblue" stroke="midnightblue" points="137.92,-29.87 143.36,-20.78 133.44,-24.49 137.92,-29.87"/>
</g>
</g>
</svg>
