<?xml version="1.0" encoding="UTF-8" standalone="no"?>
<!DOCTYPE svg PUBLIC "-//W3C//DTD SVG 1.1//EN"
 "http://www.w3.org/Graphics/SVG/1.1/DTD/svg11.dtd">
<!-- Generated by graphviz version 2.43.0 (0)
 -->
<!-- Title: libmirai/public/libmirai/Messages/XmlMessage.cpp Pages: 1 -->
<svg width="465pt" height="212pt"
 viewBox="0.00 0.00 465.00 212.00" xmlns="http://www.w3.org/2000/svg" xmlns:xlink="http://www.w3.org/1999/xlink">
<g id="graph0" class="graph" transform="scale(1 1) rotate(0) translate(4 208)">
<title>libmirai/public/libmirai/Messages/XmlMessage.cpp</title>
<!-- Node1 -->
<g id="node1" class="node">
<title>Node1</title>
<g id="a_node1"><a xlink:title=" ">
<polygon fill="#bfbfbf" stroke="black" points="130,-171.5 130,-203.5 302,-203.5 302,-171.5 130,-171.5"/>
<text text-anchor="start" x="138" y="-190.7" font-family="-apple-system,BlinkMacSystemFont,'SegoeUI',Roboto,Oxygen,Ubuntu,Cantarell,'FiraSans','DroidSans','HelveticaNeue',sans-serif" font-size="11.00">libmirai/public/libmirai</text>
<text text-anchor="middle" x="216" y="-178.7" font-family="-apple-system,BlinkMacSystemFont,'SegoeUI',Roboto,Oxygen,Ubuntu,Cantarell,'FiraSans','DroidSans','HelveticaNeue',sans-serif" font-size="11.00">/Messages/XmlMessage.cpp</text>
</a>
</g>
</g>
<!-- Node2 -->
<g id="node2" class="node">
<title>Node2</title>
<g id="a_node2"><a xlink:href="XmlMessage_8hpp.html" target="_top" xlink:title=" ">
<polygon fill="none" stroke="black" points="27,-114.5 27,-134.5 137,-134.5 137,-114.5 27,-114.5"/>
<text text-anchor="middle" x="82" y="-121.7" font-family="-apple-system,BlinkMacSystemFont,'SegoeUI',Roboto,Oxygen,Ubuntu,Cantarell,'FiraSans','DroidSans','HelveticaNeue',sans-serif" font-size="11.00">XmlMessage.hpp</text>
</a>
</g>
</g>
<!-- Node1&#45;&gt;Node2 -->
<g id="edge1" class="edge">
<title>Node1&#45;&gt;Node2</title>
<path fill="none" stroke="midnightblue" d="M182.88,-171.42C160.83,-161.39 132.15,-148.33 111,-138.7"/>
<polygon fill="midnightblue" stroke="midnightblue" points="112.42,-135.5 101.87,-134.55 109.52,-141.87 112.42,-135.5"/>
</g>
<!-- Node8 -->
<g id="node6" class="node">
<title>Node8</title>
<g id="a_node6"><a xlink:title=" ">
<polygon fill="none" stroke="#bfbfbf" points="155.5,-114.5 155.5,-134.5 276.5,-134.5 276.5,-114.5 155.5,-114.5"/>
<text text-anchor="middle" x="216" y="-121.7" font-family="-apple-system,BlinkMacSystemFont,'SegoeUI',Roboto,Oxygen,Ubuntu,Cantarell,'FiraSans','DroidSans','HelveticaNeue',sans-serif" font-size="11.00">nlohmann/json.hpp</text>
</a>
</g>
</g>
<!-- Node1&#45;&gt;Node8 -->
<g id="edge7" class="edge">
<title>Node1&#45;&gt;Node8</title>
<path fill="none" stroke="midnightblue" d="M216,-171.42C216,-163.38 216,-153.39 216,-144.78"/>
<polygon fill="midnightblue" stroke="midnightblue" points="219.5,-144.55 216,-134.55 212.5,-144.55 219.5,-144.55"/>
</g>
<!-- Node9 -->
<g id="node7" class="node">
<title>Node9</title>
<g id="a_node7"><a xlink:title=" ">
<polygon fill="none" stroke="#bfbfbf" points="295,-114.5 295,-134.5 457,-134.5 457,-114.5 295,-114.5"/>
<text text-anchor="middle" x="376" y="-121.7" font-family="-apple-system,BlinkMacSystemFont,'SegoeUI',Roboto,Oxygen,Ubuntu,Cantarell,'FiraSans','DroidSans','HelveticaNeue',sans-serif" font-size="11.00">libmirai/Utils/Common.hpp</text>
</a>
</g>
</g>
<!-- Node1&#45;&gt;Node9 -->
<g id="edge8" class="edge">
<title>Node1&#45;&gt;Node9</title>
<path fill="none" stroke="midnightblue" d="M255.55,-171.42C282.35,-161.21 317.36,-147.86 342.72,-138.19"/>
<polygon fill="midnightblue" stroke="midnightblue" points="344.18,-141.38 352.27,-134.55 341.68,-134.84 344.18,-141.38"/>
</g>
<!-- Node3 -->
<g id="node3" class="node">
<title>Node3</title>
<g id="a_node3"><a xlink:title=" ">
<polygon fill="none" stroke="#bfbfbf" points="0,-0.5 0,-20.5 48,-20.5 48,-0.5 0,-0.5"/>
<text text-anchor="middle" x="24" y="-7.7" font-family="-apple-system,BlinkMacSystemFont,'SegoeUI',Roboto,Oxygen,Ubuntu,Cantarell,'FiraSans','DroidSans','HelveticaNeue',sans-serif" font-size="11.00">string</text>
</a>
</g>
</g>
<!-- Node2&#45;&gt;Node3 -->
<g id="edge2" class="edge">
<title>Node2&#45;&gt;Node3</title>
<path fill="none" stroke="midnightblue" d="M58.54,-114.5C43.11,-107.2 24.15,-95.27 15,-78 7.18,-63.23 10.95,-44.14 15.77,-30.2"/>
<polygon fill="midnightblue" stroke="midnightblue" points="19.1,-31.29 19.5,-20.7 12.59,-28.74 19.1,-31.29"/>
</g>
<!-- Node4 -->
<g id="node4" class="node">
<title>Node4</title>
<g id="a_node4"><a xlink:title=" ">
<polygon fill="none" stroke="#bfbfbf" points="80,-0.5 80,-20.5 226,-20.5 226,-0.5 80,-0.5"/>
<text text-anchor="middle" x="153" y="-7.7" font-family="-apple-system,BlinkMacSystemFont,'SegoeUI',Roboto,Oxygen,Ubuntu,Cantarell,'FiraSans','DroidSans','HelveticaNeue',sans-serif" font-size="11.00">nlohmann/json_fwd.hpp</text>
</a>
</g>
</g>
<!-- Node2&#45;&gt;Node4 -->
<g id="edge3" class="edge">
<title>Node2&#45;&gt;Node4</title>
<path fill="none" stroke="midnightblue" d="M104.81,-114.48C120.14,-107.11 139.27,-95.11 149,-78 157.12,-63.72 157.46,-44.82 156.16,-30.81"/>
<polygon fill="midnightblue" stroke="midnightblue" points="159.62,-30.29 154.87,-20.82 152.68,-31.18 159.62,-30.29"/>
</g>
<!-- Node5 -->
<g id="node5" class="node">
<title>Node5</title>
<g id="a_node5"><a xlink:href="MessageBase_8hpp.html" target="_top" xlink:title=" ">
<polygon fill="none" stroke="red" points="24,-57.5 24,-77.5 140,-77.5 140,-57.5 24,-57.5"/>
<text text-anchor="middle" x="82" y="-64.7" font-family="-apple-system,BlinkMacSystemFont,'SegoeUI',Roboto,Oxygen,Ubuntu,Cantarell,'FiraSans','DroidSans','HelveticaNeue',sans-serif" font-size="11.00">MessageBase.hpp</text>
</a>
</g>
</g>
<!-- Node2&#45;&gt;Node5 -->
<g id="edge4" class="edge">
<title>Node2&#45;&gt;Node5</title>
<path fill="none" stroke="midnightblue" d="M82,-114.42C82,-107.22 82,-96.9 82,-87.86"/>
<polygon fill="midnightblue" stroke="midnightblue" points="85.5,-87.78 82,-77.78 78.5,-87.78 85.5,-87.78"/>
</g>
<!-- Node5&#45;&gt;Node3 -->
<g id="edge5" class="edge">
<title>Node5&#45;&gt;Node3</title>
<path fill="none" stroke="midnightblue" d="M72.42,-57.42C63.99,-49.42 51.51,-37.59 41.33,-27.94"/>
<polygon fill="midnightblue" stroke="midnightblue" points="43.45,-25.12 33.79,-20.78 38.63,-30.2 43.45,-25.12"/>
</g>
<!-- Node5&#45;&gt;Node4 -->
<g id="edge6" class="edge">
<title>Node5&#45;&gt;Node4</title>
<path fill="none" stroke="midnightblue" d="M93.72,-57.42C104.35,-49.19 120.23,-36.88 132.88,-27.08"/>
<polygon fill="midnightblue" stroke="midnightblue" points="135.26,-29.67 141.02,-20.78 130.97,-24.14 135.26,-29.67"/>
</g>
</g>
</svg>
