<?xml version="1.0" encoding="UTF-8" standalone="no"?>
<!DOCTYPE svg PUBLIC "-//W3C//DTD SVG 1.1//EN"
 "http://www.w3.org/Graphics/SVG/1.1/DTD/svg11.dtd">
<!-- Generated by graphviz version 3.0.0 (20220413.0242)
 -->
<!-- Title: libmirai/public/libmirai/Messages/XmlMessage.hpp Pages: 1 -->
<svg width="400pt" height="212pt"
 viewBox="0.00 0.00 399.50 212.00" xmlns="http://www.w3.org/2000/svg" xmlns:xlink="http://www.w3.org/1999/xlink">
<g id="graph0" class="graph" transform="scale(1 1) rotate(0) translate(4 208)">
<title>libmirai/public/libmirai/Messages/XmlMessage.hpp</title>
<!-- Node1 -->
<g id="node1" class="node">
<title>Node1</title>
<g id="a_node1"><a xlink:title=" ">
<polygon fill="#bfbfbf" stroke="black" points="0,-171.5 0,-203.5 155,-203.5 155,-171.5 0,-171.5"/>
<text text-anchor="start" x="8" y="-190.7" font-family="-apple-system, BlinkMacSystemFont, 'Segoe UI', Roboto, Oxygen, Ubuntu, Cantarell, 'Fira Sans', 'Droid Sans', 'Helvetica Neue', sans-serif" font-size="11.00">libmirai/public/libmirai</text>
<text text-anchor="middle" x="77.5" y="-178.7" font-family="-apple-system, BlinkMacSystemFont, 'Segoe UI', Roboto, Oxygen, Ubuntu, Cantarell, 'Fira Sans', 'Droid Sans', 'Helvetica Neue', sans-serif" font-size="11.00">/Messages/XmlMessage.hpp</text>
</a>
</g>
</g>
<!-- Node2 -->
<g id="node2" class="node">
<title>Node2</title>
<g id="a_node2"><a xlink:title=" ">
<polygon fill="none" stroke="#bfbfbf" points="56,-57.5 56,-77.5 99,-77.5 99,-57.5 56,-57.5"/>
<text text-anchor="middle" x="77.5" y="-64.7" font-family="-apple-system, BlinkMacSystemFont, 'Segoe UI', Roboto, Oxygen, Ubuntu, Cantarell, 'Fira Sans', 'Droid Sans', 'Helvetica Neue', sans-serif" font-size="11.00">string</text>
</a>
</g>
</g>
<!-- Node1&#45;&gt;Node2 -->
<g id="edge1" class="edge">
<title>Node1&#45;&gt;Node2</title>
<path fill="none" stroke="midnightblue" d="M77.5,-171.07C77.5,-149.71 77.5,-111.11 77.5,-87.84"/>
<polygon fill="midnightblue" stroke="midnightblue" points="81,-87.79 77.5,-77.79 74,-87.79 81,-87.79"/>
</g>
<!-- Node3 -->
<g id="node3" class="node">
<title>Node3</title>
<g id="a_node3"><a xlink:title=" ">
<polygon fill="none" stroke="#bfbfbf" points="133,-0.5 133,-20.5 264,-20.5 264,-0.5 133,-0.5"/>
<text text-anchor="middle" x="198.5" y="-7.7" font-family="-apple-system, BlinkMacSystemFont, 'Segoe UI', Roboto, Oxygen, Ubuntu, Cantarell, 'Fira Sans', 'Droid Sans', 'Helvetica Neue', sans-serif" font-size="11.00">nlohmann/json_fwd.hpp</text>
</a>
</g>
</g>
<!-- Node1&#45;&gt;Node3 -->
<g id="edge2" class="edge">
<title>Node1&#45;&gt;Node3</title>
<path fill="none" stroke="midnightblue" d="M66.61,-171.32C49.43,-145.36 20.55,-91.86 46.5,-57 64.3,-33.08 94.23,-21.26 122.83,-15.57"/>
<polygon fill="midnightblue" stroke="midnightblue" points="123.63,-18.99 132.88,-13.81 122.42,-12.09 123.63,-18.99"/>
</g>
<!-- Node4 -->
<g id="node4" class="node">
<title>Node4</title>
<g id="a_node4"><a xlink:href="MessageBase_8hpp.html" target="_top" xlink:title=" ">
<polygon fill="none" stroke="black" points="145.5,-114.5 145.5,-134.5 251.5,-134.5 251.5,-114.5 145.5,-114.5"/>
<text text-anchor="middle" x="198.5" y="-121.7" font-family="-apple-system, BlinkMacSystemFont, 'Segoe UI', Roboto, Oxygen, Ubuntu, Cantarell, 'Fira Sans', 'Droid Sans', 'Helvetica Neue', sans-serif" font-size="11.00">MessageBase.hpp</text>
</a>
</g>
</g>
<!-- Node1&#45;&gt;Node4 -->
<g id="edge3" class="edge">
<title>Node1&#45;&gt;Node4</title>
<path fill="none" stroke="midnightblue" d="M107.41,-171.42C127.05,-161.52 152.52,-148.68 171.53,-139.1"/>
<polygon fill="midnightblue" stroke="midnightblue" points="173.2,-142.17 180.56,-134.55 170.05,-135.92 173.2,-142.17"/>
</g>
<!-- Node4&#45;&gt;Node2 -->
<g id="edge5" class="edge">
<title>Node4&#45;&gt;Node2</title>
<path fill="none" stroke="midnightblue" d="M178.52,-114.42C158.99,-105.54 129.04,-91.93 106.81,-81.82"/>
<polygon fill="midnightblue" stroke="midnightblue" points="108.06,-78.55 97.51,-77.6 105.17,-84.92 108.06,-78.55"/>
</g>
<!-- Node4&#45;&gt;Node3 -->
<g id="edge6" class="edge">
<title>Node4&#45;&gt;Node3</title>
<path fill="none" stroke="midnightblue" d="M231.48,-114.42C263.56,-103.8 305.19,-84.14 288.5,-57 278.99,-41.54 262.43,-31.14 246.08,-24.24"/>
<polygon fill="midnightblue" stroke="midnightblue" points="247.13,-20.89 236.54,-20.57 244.61,-27.42 247.13,-20.89"/>
</g>
<!-- Node5 -->
<g id="node5" class="node">
<title>Node5</title>
<g id="a_node5"><a xlink:title=" ">
<polygon fill="none" stroke="#bfbfbf" points="335.5,-57.5 335.5,-77.5 391.5,-77.5 391.5,-57.5 335.5,-57.5"/>
<text text-anchor="middle" x="363.5" y="-64.7" font-family="-apple-system, BlinkMacSystemFont, 'Segoe UI', Roboto, Oxygen, Ubuntu, Cantarell, 'Fira Sans', 'Droid Sans', 'Helvetica Neue', sans-serif" font-size="11.00">memory</text>
</a>
</g>
</g>
<!-- Node4&#45;&gt;Node5 -->
<g id="edge4" class="edge">
<title>Node4&#45;&gt;Node5</title>
<path fill="none" stroke="midnightblue" d="M225.75,-114.42C253.3,-105.23 296.06,-90.98 326.63,-80.79"/>
<polygon fill="midnightblue" stroke="midnightblue" points="328.11,-83.99 336.49,-77.5 325.89,-77.35 328.11,-83.99"/>
</g>
<!-- Node6 -->
<g id="node6" class="node">
<title>Node6</title>
<g id="a_node6"><a xlink:href="Serializable_8hpp.html" target="_top" xlink:title=" ">
<polygon fill="none" stroke="black" points="117.5,-57.5 117.5,-77.5 279.5,-77.5 279.5,-57.5 117.5,-57.5"/>
<text text-anchor="middle" x="198.5" y="-64.7" font-family="-apple-system, BlinkMacSystemFont, 'Segoe UI', Roboto, Oxygen, Ubuntu, Cantarell, 'Fira Sans', 'Droid Sans', 'Helvetica Neue', sans-serif" font-size="11.00">libmirai/Types/Serializable.hpp</text>
</a>
</g>
</g>
<!-- Node4&#45;&gt;Node6 -->
<g id="edge7" class="edge">
<title>Node4&#45;&gt;Node6</title>
<path fill="none" stroke="midnightblue" d="M198.5,-114.42C198.5,-107.22 198.5,-96.9 198.5,-87.86"/>
<polygon fill="midnightblue" stroke="midnightblue" points="202,-87.78 198.5,-77.78 195,-87.78 202,-87.78"/>
</g>
<!-- Node6&#45;&gt;Node3 -->
<g id="edge8" class="edge">
<title>Node6&#45;&gt;Node3</title>
<path fill="none" stroke="midnightblue" d="M198.5,-57.42C198.5,-50.22 198.5,-39.9 198.5,-30.86"/>
<polygon fill="midnightblue" stroke="midnightblue" points="202,-30.78 198.5,-20.78 195,-30.78 202,-30.78"/>
</g>
</g>
</svg>
